<?xml version="1.0" encoding="UTF-8" standalone="no"?>
<!DOCTYPE svg PUBLIC "-//W3C//DTD SVG 1.1//EN"
 "http://www.w3.org/Graphics/SVG/1.1/DTD/svg11.dtd">
<!-- Generated by graphviz version 12.1.1 (20240910.0053)
 -->
<!-- Title: mimic++/Printer.hpp Pages: 1 -->
<svg width="954pt" height="525pt"
 viewBox="0.00 0.00 954.00 524.50" xmlns="http://www.w3.org/2000/svg" xmlns:xlink="http://www.w3.org/1999/xlink">
<g id="graph0" class="graph" transform="scale(1 1) rotate(0) translate(4 520.5)">
<title>mimic++/Printer.hpp</title>
<!-- Node1 -->
<g id="Node000001" class="node">
<title>Node1</title>
<g id="a_Node000001"><a xlink:title=" ">
<polygon fill="#999999" stroke="#666666" points="368.88,-516.5 265.12,-516.5 265.12,-497.25 368.88,-497.25 368.88,-516.5"/>
<text text-anchor="middle" x="317" y="-503" font-family="Helvetica,sans-Serif" font-size="10.00">mimic++/Printer.hpp</text>
</a>
</g>
</g>
<!-- Node2 -->
<g id="Node000002" class="node">
<title>Node2</title>
<g id="a_Node000002"><a xlink:href="../../d8/de5/_expectation_policies_8hpp.html" target="_top" xlink:title=" ">
<polygon fill="white" stroke="#666666" points="240,-185 80,-185 80,-165.75 240,-165.75 240,-185"/>
<text text-anchor="middle" x="160" y="-171.5" font-family="Helvetica,sans-Serif" font-size="10.00">mimic++/ExpectationPolicies.hpp</text>
</a>
</g>
</g>
<!-- Node1&#45;&gt;Node2 -->
<g id="edge1_Node000001_Node000002" class="edge">
<title>Node1&#45;&gt;Node2</title>
<g id="a_edge1_Node000001_Node000002"><a xlink:title=" ">
<path fill="none" stroke="#63b8ff" d="M253.55,-497.51C196.3,-485.98 121,-459.09 121,-397.38 121,-397.38 121,-397.38 121,-340.12 121,-294.26 136.64,-284.93 147,-240.25 151.55,-220.63 156.06,-197.41 158.38,-185.09"/>
<polygon fill="#63b8ff" stroke="#63b8ff" points="252.77,-500.93 263.25,-499.34 254.07,-494.05 252.77,-500.93"/>
</a>
</g>
</g>
<!-- Node6 -->
<g id="Node000006" class="node">
<title>Node6</title>
<g id="a_Node000006"><a xlink:href="../../d0/db9/mimic_09_09_8hpp.html" target="_top" xlink:title=" ">
<polygon fill="white" stroke="#666666" points="519.75,-19.25 406.25,-19.25 406.25,0 519.75,0 519.75,-19.25"/>
<text text-anchor="middle" x="463" y="-5.75" font-family="Helvetica,sans-Serif" font-size="10.00">mimic++/mimic++.hpp</text>
</a>
</g>
</g>
<!-- Node1&#45;&gt;Node6 -->
<g id="edge34_Node000001_Node000006" class="edge">
<title>Node1&#45;&gt;Node6</title>
<g id="a_edge34_Node000001_Node000006"><a xlink:title=" ">
<path fill="none" stroke="#63b8ff" d="M380.36,-505.84C472.21,-504.46 647.11,-496.83 791,-461.25 863.33,-443.37 946,-471.88 946,-397.38 946,-397.38 946,-397.38 946,-119.12 946,-32.64 647.5,-15.08 519.83,-11.52"/>
<polygon fill="#63b8ff" stroke="#63b8ff" points="380.51,-502.34 370.55,-505.96 380.6,-509.33 380.51,-502.34"/>
</a>
</g>
</g>
<!-- Node7 -->
<g id="Node000007" class="node">
<title>Node7</title>
<g id="a_Node000007"><a xlink:href="../../dd/d50/_matcher_8hpp.html" target="_top" xlink:title=" ">
<polygon fill="white" stroke="#666666" points="138.25,-240.25 27.75,-240.25 27.75,-221 138.25,-221 138.25,-240.25"/>
<text text-anchor="middle" x="83" y="-226.75" font-family="Helvetica,sans-Serif" font-size="10.00">mimic++/Matcher.hpp</text>
</a>
</g>
</g>
<!-- Node1&#45;&gt;Node7 -->
<g id="edge9_Node000001_Node000007" class="edge">
<title>Node1&#45;&gt;Node7</title>
<g id="a_edge9_Node000001_Node000007"><a xlink:title=" ">
<path fill="none" stroke="#63b8ff" d="M253.96,-499.19C200.37,-492.32 128.76,-479.97 107,-461.25 84.01,-441.47 83,-427.7 83,-397.38 83,-397.38 83,-397.38 83,-340.12 83,-303.2 83,-259.22 83,-240.63"/>
<polygon fill="#63b8ff" stroke="#63b8ff" points="253.24,-502.62 263.59,-500.38 254.1,-495.68 253.24,-502.62"/>
</a>
</g>
</g>
<!-- Node8 -->
<g id="Node000008" class="node">
<title>Node8</title>
<g id="a_Node000008"><a xlink:href="../../da/dd9/_reporter_8hpp.html" target="_top" xlink:title=" ">
<polygon fill="white" stroke="#666666" points="548,-406 436,-406 436,-386.75 548,-386.75 548,-406"/>
<text text-anchor="middle" x="492" y="-392.5" font-family="Helvetica,sans-Serif" font-size="10.00">mimic++/Reporter.hpp</text>
</a>
</g>
</g>
<!-- Node1&#45;&gt;Node8 -->
<g id="edge12_Node000001_Node000008" class="edge">
<title>Node1&#45;&gt;Node8</title>
<g id="a_edge12_Node000001_Node000008"><a xlink:title=" ">
<path fill="none" stroke="#63b8ff" d="M341.12,-490.92C378.05,-468.02 447.5,-424.96 477.55,-406.34"/>
<polygon fill="#63b8ff" stroke="#63b8ff" points="339.56,-487.77 332.91,-496.01 343.25,-493.72 339.56,-487.77"/>
</a>
</g>
</g>
<!-- Node10 -->
<g id="Node000010" class="node">
<title>Node10</title>
<g id="a_Node000010"><a xlink:href="../../d8/de4/_sequence_8hpp.html" target="_top" xlink:title=" ">
<polygon fill="white" stroke="#666666" points="267.38,-350.75 148.62,-350.75 148.62,-331.5 267.38,-331.5 267.38,-350.75"/>
<text text-anchor="middle" x="208" y="-337.25" font-family="Helvetica,sans-Serif" font-size="10.00">mimic++/Sequence.hpp</text>
</a>
</g>
</g>
<!-- Node1&#45;&gt;Node10 -->
<g id="edge33_Node000001_Node000010" class="edge">
<title>Node1&#45;&gt;Node10</title>
<g id="a_edge33_Node000001_Node000010"><a xlink:title=" ">
<path fill="none" stroke="#63b8ff" d="M304.82,-487.57C281.44,-452.45 231.08,-376.8 213.89,-350.97"/>
<polygon fill="#63b8ff" stroke="#63b8ff" points="301.85,-489.43 310.3,-495.81 307.67,-485.55 301.85,-489.43"/>
</a>
</g>
</g>
<!-- Node15 -->
<g id="Node000015" class="node">
<title>Node15</title>
<g id="a_Node000015"><a xlink:href="../../d0/d3b/_reports_8hpp.html" target="_top" xlink:title=" ">
<polygon fill="white" stroke="#666666" points="781.5,-461.25 672.5,-461.25 672.5,-442 781.5,-442 781.5,-461.25"/>
<text text-anchor="middle" x="727" y="-447.75" font-family="Helvetica,sans-Serif" font-size="10.00">mimic++/Reports.hpp</text>
</a>
</g>
</g>
<!-- Node1&#45;&gt;Node15 -->
<g id="edge29_Node000001_Node000015" class="edge">
<title>Node1&#45;&gt;Node15</title>
<g id="a_edge29_Node000001_Node000015"><a xlink:title=" ">
<path fill="none" stroke="#63b8ff" d="M380.72,-497.6C460.67,-487.22 596.43,-469.58 672.03,-459.76"/>
<polygon fill="#63b8ff" stroke="#63b8ff" points="380.31,-494.12 370.84,-498.88 381.21,-501.06 380.31,-494.12"/>
</a>
</g>
</g>
<!-- Node3 -->
<g id="Node000003" class="node">
<title>Node3</title>
<g id="a_Node000003"><a xlink:href="../../d2/d4f/_expectation_builder_8hpp.html" target="_top" xlink:title=" ">
<polygon fill="white" stroke="#666666" points="448.75,-129.75 293.25,-129.75 293.25,-110.5 448.75,-110.5 448.75,-129.75"/>
<text text-anchor="middle" x="371" y="-116.25" font-family="Helvetica,sans-Serif" font-size="10.00">mimic++/ExpectationBuilder.hpp</text>
</a>
</g>
</g>
<!-- Node2&#45;&gt;Node3 -->
<g id="edge2_Node000002_Node000003" class="edge">
<title>Node2&#45;&gt;Node3</title>
<g id="a_edge2_Node000002_Node000003"><a xlink:title=" ">
<path fill="none" stroke="#63b8ff" d="M206.77,-162.57C245.47,-152.8 299.65,-139.13 335.03,-130.2"/>
<polygon fill="#63b8ff" stroke="#63b8ff" points="206.1,-159.13 197.26,-164.97 207.81,-165.92 206.1,-159.13"/>
</a>
</g>
</g>
<!-- Node4 -->
<g id="Node000004" class="node">
<title>Node4</title>
<g id="a_Node000004"><a xlink:href="../../d5/dc5/_mock_8hpp.html" target="_top" xlink:title=" ">
<polygon fill="white" stroke="#666666" points="341.62,-74.5 242.38,-74.5 242.38,-55.25 341.62,-55.25 341.62,-74.5"/>
<text text-anchor="middle" x="292" y="-61" font-family="Helvetica,sans-Serif" font-size="10.00">mimic++/Mock.hpp</text>
</a>
</g>
</g>
<!-- Node2&#45;&gt;Node4 -->
<g id="edge7_Node000002_Node000004" class="edge">
<title>Node2&#45;&gt;Node4</title>
<g id="a_edge7_Node000002_Node000004"><a xlink:title=" ">
<path fill="none" stroke="#63b8ff" d="M179.38,-158.45C207.5,-135.34 258.68,-93.26 281.05,-74.88"/>
<polygon fill="#63b8ff" stroke="#63b8ff" points="177.47,-155.48 171.97,-164.53 181.92,-160.89 177.47,-155.48"/>
</a>
</g>
</g>
<!-- Node2&#45;&gt;Node6 -->
<g id="edge8_Node000002_Node000006" class="edge">
<title>Node2&#45;&gt;Node6</title>
<g id="a_edge8_Node000002_Node000006"><a xlink:title=" ">
<path fill="none" stroke="#63b8ff" d="M166.36,-154.69C176.14,-127.71 197.57,-79.82 233,-55.25 260.41,-36.24 347.09,-23.27 405.86,-16.41"/>
<polygon fill="#63b8ff" stroke="#63b8ff" points="163.09,-153.42 163.16,-164.02 169.71,-155.69 163.09,-153.42"/>
</a>
</g>
</g>
<!-- Node3&#45;&gt;Node4 -->
<g id="edge3_Node000003_Node000004" class="edge">
<title>Node3&#45;&gt;Node4</title>
<g id="a_edge3_Node000003_Node000004"><a xlink:title=" ">
<path fill="none" stroke="#63b8ff" d="M348.24,-103.78C334.39,-94.45 317.18,-82.85 305.47,-74.95"/>
<polygon fill="#63b8ff" stroke="#63b8ff" points="346.1,-106.56 356.34,-109.25 350.01,-100.75 346.1,-106.56"/>
</a>
</g>
</g>
<!-- Node3&#45;&gt;Node6 -->
<g id="edge6_Node000003_Node000006" class="edge">
<title>Node3&#45;&gt;Node6</title>
<g id="a_edge6_Node000003_Node000006"><a xlink:title=" ">
<path fill="none" stroke="#63b8ff" d="M385.81,-101.66C405.64,-78.27 440.12,-37.61 455.37,-19.63"/>
<polygon fill="#63b8ff" stroke="#63b8ff" points="383.31,-99.2 379.51,-109.09 388.64,-103.73 383.31,-99.2"/>
</a>
</g>
</g>
<!-- Node5 -->
<g id="Node000005" class="node">
<title>Node5</title>
<g id="a_Node000005"><a xlink:href="../../d9/dc3/_interface_mock_8hpp.html" target="_top" xlink:title=" ">
<polygon fill="white" stroke="#666666" points="360.75,-19.25 223.25,-19.25 223.25,0 360.75,0 360.75,-19.25"/>
<text text-anchor="middle" x="292" y="-5.75" font-family="Helvetica,sans-Serif" font-size="10.00">mimic++/InterfaceMock.hpp</text>
</a>
</g>
</g>
<!-- Node4&#45;&gt;Node5 -->
<g id="edge4_Node000004_Node000005" class="edge">
<title>Node4&#45;&gt;Node5</title>
<g id="a_edge4_Node000004_Node000005"><a xlink:title=" ">
<path fill="none" stroke="#63b8ff" d="M292,-43.63C292,-35.34 292,-26.17 292,-19.61"/>
<polygon fill="#63b8ff" stroke="#63b8ff" points="288.5,-43.57 292,-53.57 295.5,-43.57 288.5,-43.57"/>
</a>
</g>
</g>
<!-- Node4&#45;&gt;Node6 -->
<g id="edge5_Node000004_Node000006" class="edge">
<title>Node4&#45;&gt;Node6</title>
<g id="a_edge5_Node000004_Node000006"><a xlink:title=" ">
<path fill="none" stroke="#63b8ff" d="M331.94,-51.44C363.15,-41.72 405.79,-28.44 433.85,-19.7"/>
<polygon fill="#63b8ff" stroke="#63b8ff" points="330.96,-48.08 322.45,-54.39 333.04,-54.76 330.96,-48.08"/>
</a>
</g>
</g>
<!-- Node7&#45;&gt;Node2 -->
<g id="edge10_Node000007_Node000002" class="edge">
<title>Node7&#45;&gt;Node2</title>
<g id="a_edge10_Node000007_Node000002"><a xlink:title=" ">
<path fill="none" stroke="#63b8ff" d="M105.19,-214.28C118.68,-204.95 135.46,-193.35 146.87,-185.45"/>
<polygon fill="#63b8ff" stroke="#63b8ff" points="103.54,-211.16 97.31,-219.73 107.52,-216.92 103.54,-211.16"/>
</a>
</g>
</g>
<!-- Node7&#45;&gt;Node6 -->
<g id="edge11_Node000007_Node000006" class="edge">
<title>Node7&#45;&gt;Node6</title>
<g id="a_edge11_Node000007_Node000006"><a xlink:title=" ">
<path fill="none" stroke="#63b8ff" d="M73.54,-210.72C68.34,-197.56 64.2,-179.91 71,-165.75 105.02,-94.92 137.4,-87.61 209,-55.25 243.32,-39.74 342.24,-25.34 406.03,-17.29"/>
<polygon fill="#63b8ff" stroke="#63b8ff" points="70.22,-211.85 77.51,-219.54 76.6,-208.98 70.22,-211.85"/>
</a>
</g>
</g>
<!-- Node8&#45;&gt;Node6 -->
<g id="edge28_Node000008_Node000006" class="edge">
<title>Node8&#45;&gt;Node6</title>
<g id="a_edge28_Node000008_Node000006"><a xlink:title=" ">
<path fill="none" stroke="#63b8ff" d="M559.33,-391.46C640.21,-385.83 770.33,-373.52 813,-350.75 846.57,-332.84 870,-324.92 870,-286.88 870,-286.88 870,-286.88 870,-119.12 870,-47.55 632.03,-22 520.02,-13.93"/>
<polygon fill="#63b8ff" stroke="#63b8ff" points="559.51,-387.94 549.77,-392.11 559.99,-394.93 559.51,-387.94"/>
</a>
</g>
</g>
<!-- Node9 -->
<g id="Node000009" class="node">
<title>Node9</title>
<g id="a_Node000009"><a xlink:href="../../d5/d8a/_expectation_8hpp.html" target="_top" xlink:title=" ">
<polygon fill="white" stroke="#666666" points="410.75,-240.25 285.25,-240.25 285.25,-221 410.75,-221 410.75,-240.25"/>
<text text-anchor="middle" x="348" y="-226.75" font-family="Helvetica,sans-Serif" font-size="10.00">mimic++/Expectation.hpp</text>
</a>
</g>
</g>
<!-- Node8&#45;&gt;Node9 -->
<g id="edge13_Node000008_Node000009" class="edge">
<title>Node8&#45;&gt;Node9</title>
<g id="a_edge13_Node000008_Node000009"><a xlink:title=" ">
<path fill="none" stroke="#63b8ff" d="M424.2,-387.06C379.88,-380.08 327.75,-368.37 314,-350.75 287.27,-316.5 323.89,-262.13 340.53,-240.72"/>
<polygon fill="#63b8ff" stroke="#63b8ff" points="423.66,-390.52 434.07,-388.56 424.71,-383.6 423.66,-390.52"/>
</a>
</g>
</g>
<!-- Node8&#45;&gt;Node10 -->
<g id="edge18_Node000008_Node000010" class="edge">
<title>Node8&#45;&gt;Node10</title>
<g id="a_edge18_Node000008_Node000010"><a xlink:title=" ">
<path fill="none" stroke="#63b8ff" d="M432.37,-384.19C380.05,-374.39 304.93,-360.3 256.3,-351.18"/>
<polygon fill="#63b8ff" stroke="#63b8ff" points="431.54,-387.6 442.01,-386 432.83,-380.72 431.54,-387.6"/>
</a>
</g>
</g>
<!-- Node12 -->
<g id="Node000012" class="node">
<title>Node12</title>
<g id="a_Node000012"><a xlink:href="../../d9/d42/_boost_test_8hpp.html" target="_top" xlink:title=" ">
<polygon fill="white" stroke="#666666" points="639.38,-350.75 478.62,-350.75 478.62,-331.5 639.38,-331.5 639.38,-350.75"/>
<text text-anchor="middle" x="559" y="-337.25" font-family="Helvetica,sans-Serif" font-size="10.00">mimic++/adapters/BoostTest.hpp</text>
</a>
</g>
</g>
<!-- Node8&#45;&gt;Node12 -->
<g id="edge25_Node000008_Node000012" class="edge">
<title>Node8&#45;&gt;Node12</title>
<g id="a_edge25_Node000008_Node000012"><a xlink:title=" ">
<path fill="none" stroke="#63b8ff" d="M512.05,-379.44C523.75,-370.14 538.07,-358.76 547.8,-351.02"/>
<polygon fill="#63b8ff" stroke="#63b8ff" points="510.2,-376.44 504.55,-385.4 514.56,-381.92 510.2,-376.44"/>
</a>
</g>
</g>
<!-- Node13 -->
<g id="Node000013" class="node">
<title>Node13</title>
<g id="a_Node000013"><a xlink:href="../../d3/d04/_catch2_8hpp.html" target="_top" xlink:title=" ">
<polygon fill="white" stroke="#666666" points="804.25,-350.75 657.75,-350.75 657.75,-331.5 804.25,-331.5 804.25,-350.75"/>
<text text-anchor="middle" x="731" y="-337.25" font-family="Helvetica,sans-Serif" font-size="10.00">mimic++/adapters/Catch2.hpp</text>
</a>
</g>
</g>
<!-- Node8&#45;&gt;Node13 -->
<g id="edge26_Node000008_Node000013" class="edge">
<title>Node8&#45;&gt;Node13</title>
<g id="a_edge26_Node000008_Node000013"><a xlink:title=" ">
<path fill="none" stroke="#63b8ff" d="M543.85,-383.82C587.79,-374.03 649.94,-360.19 690.35,-351.18"/>
<polygon fill="#63b8ff" stroke="#63b8ff" points="543.29,-380.36 534.29,-385.95 544.81,-387.19 543.29,-380.36"/>
</a>
</g>
</g>
<!-- Node14 -->
<g id="Node000014" class="node">
<title>Node14</title>
<g id="a_Node000014"><a xlink:href="../../d5/db1/gtest_8hpp.html" target="_top" xlink:title=" ">
<polygon fill="white" stroke="#666666" points="460.75,-350.75 323.25,-350.75 323.25,-331.5 460.75,-331.5 460.75,-350.75"/>
<text text-anchor="middle" x="392" y="-337.25" font-family="Helvetica,sans-Serif" font-size="10.00">mimic++/adapters/gtest.hpp</text>
</a>
</g>
</g>
<!-- Node8&#45;&gt;Node14 -->
<g id="edge27_Node000008_Node000014" class="edge">
<title>Node8&#45;&gt;Node14</title>
<g id="a_edge27_Node000008_Node000014"><a xlink:title=" ">
<path fill="none" stroke="#63b8ff" d="M464.96,-380.98C447.15,-371.49 424.37,-359.36 409.05,-351.2"/>
<polygon fill="#63b8ff" stroke="#63b8ff" points="463.23,-384.02 473.7,-385.63 466.52,-377.84 463.23,-384.02"/>
</a>
</g>
</g>
<!-- Node9&#45;&gt;Node2 -->
<g id="edge15_Node000009_Node000002" class="edge">
<title>Node9&#45;&gt;Node2</title>
<g id="a_edge15_Node000009_Node000002"><a xlink:title=" ">
<path fill="none" stroke="#63b8ff" d="M305.44,-217.57C271.02,-207.82 223.3,-194.3 192.05,-185.45"/>
<polygon fill="#63b8ff" stroke="#63b8ff" points="304.08,-220.82 314.65,-220.18 305.98,-214.09 304.08,-220.82"/>
</a>
</g>
</g>
<!-- Node9&#45;&gt;Node3 -->
<g id="edge14_Node000009_Node000003" class="edge">
<title>Node9&#45;&gt;Node3</title>
<g id="a_edge14_Node000009_Node000003"><a xlink:title=" ">
<path fill="none" stroke="#63b8ff" d="M352.24,-209.6C357.27,-185.9 365.41,-147.47 369.09,-130.13"/>
<polygon fill="#63b8ff" stroke="#63b8ff" points="348.85,-208.76 350.2,-219.27 355.69,-210.21 348.85,-208.76"/>
</a>
</g>
</g>
<!-- Node9&#45;&gt;Node4 -->
<g id="edge16_Node000009_Node000004" class="edge">
<title>Node9&#45;&gt;Node4</title>
<g id="a_edge16_Node000009_Node000004"><a xlink:title=" ">
<path fill="none" stroke="#63b8ff" d="M332.18,-212C316.46,-193.18 293.37,-161.73 284,-129.75 278.41,-110.66 284.46,-87.24 288.67,-74.73"/>
<polygon fill="#63b8ff" stroke="#63b8ff" points="329.45,-214.19 338.64,-219.47 334.75,-209.62 329.45,-214.19"/>
</a>
</g>
</g>
<!-- Node9&#45;&gt;Node6 -->
<g id="edge17_Node000009_Node000006" class="edge">
<title>Node9&#45;&gt;Node6</title>
<g id="a_edge17_Node000009_Node000006"><a xlink:title=" ">
<path fill="none" stroke="#63b8ff" d="M374.22,-214.56C400.73,-197.7 440.24,-167.7 458,-129.75 475.64,-92.07 468.66,-40.12 464.85,-19.54"/>
<polygon fill="#63b8ff" stroke="#63b8ff" points="372.42,-211.56 365.72,-219.78 376.08,-217.53 372.42,-211.56"/>
</a>
</g>
</g>
<!-- Node10&#45;&gt;Node3 -->
<g id="edge23_Node000010_Node000003" class="edge">
<title>Node10&#45;&gt;Node3</title>
<g id="a_edge23_Node000010_Node000003"><a xlink:title=" ">
<path fill="none" stroke="#63b8ff" d="M217.13,-320.96C229.09,-296.67 251.46,-253.99 276,-221 303.28,-184.33 342.74,-146.78 361.01,-130.08"/>
<polygon fill="#63b8ff" stroke="#63b8ff" points="214.13,-319.12 212.92,-329.64 220.43,-322.17 214.13,-319.12"/>
</a>
</g>
</g>
<!-- Node10&#45;&gt;Node6 -->
<g id="edge24_Node000010_Node000006" class="edge">
<title>Node10&#45;&gt;Node6</title>
<g id="a_edge24_Node000010_Node000006"><a xlink:title=" ">
<path fill="none" stroke="#63b8ff" d="M163.39,-327.67C120.38,-313.4 56.45,-285.92 19,-240.25 0.22,-217.35 0,-205.99 0,-176.38 0,-176.38 0,-176.38 0,-119.12 0,-41.32 87.82,-75.3 163,-55.25 207.65,-43.35 332.07,-26.79 405.91,-17.56"/>
<polygon fill="#63b8ff" stroke="#63b8ff" points="162.09,-330.92 172.68,-330.63 164.22,-324.25 162.09,-330.92"/>
</a>
</g>
</g>
<!-- Node11 -->
<g id="Node000011" class="node">
<title>Node11</title>
<g id="a_Node000011"><a xlink:href="../../d6/d17/_control_policy_8hpp.html" target="_top" xlink:title=" ">
<polygon fill="white" stroke="#666666" points="505.12,-295.5 372.88,-295.5 372.88,-276.25 505.12,-276.25 505.12,-295.5"/>
<text text-anchor="middle" x="439" y="-282" font-family="Helvetica,sans-Serif" font-size="10.00">mimic++/ControlPolicy.hpp</text>
</a>
</g>
</g>
<!-- Node10&#45;&gt;Node11 -->
<g id="edge19_Node000010_Node000011" class="edge">
<title>Node10&#45;&gt;Node11</title>
<g id="a_edge19_Node000010_Node000011"><a xlink:title=" ">
<path fill="none" stroke="#63b8ff" d="M258.66,-328.45C301.1,-318.66 360.82,-304.9 399.71,-295.93"/>
<polygon fill="#63b8ff" stroke="#63b8ff" points="257.88,-325.03 248.92,-330.69 259.45,-331.86 257.88,-325.03"/>
</a>
</g>
</g>
<!-- Node11&#45;&gt;Node3 -->
<g id="edge21_Node000011_Node000003" class="edge">
<title>Node11&#45;&gt;Node3</title>
<g id="a_edge21_Node000011_Node000003"><a xlink:title=" ">
<path fill="none" stroke="#63b8ff" d="M434.08,-265.27C430.65,-252.49 425.68,-235.54 420,-221 406.43,-186.28 385.47,-147.15 375.98,-129.99"/>
<polygon fill="#63b8ff" stroke="#63b8ff" points="430.6,-265.77 436.49,-274.58 437.37,-264.02 430.6,-265.77"/>
</a>
</g>
</g>
<!-- Node11&#45;&gt;Node6 -->
<g id="edge22_Node000011_Node000006" class="edge">
<title>Node11&#45;&gt;Node6</title>
<g id="a_edge22_Node000011_Node000006"><a xlink:title=" ">
<path fill="none" stroke="#63b8ff" d="M459.82,-268.88C482.32,-249.61 515,-214.98 515,-176.38 515,-176.38 515,-176.38 515,-119.12 515,-78.6 485.14,-37.19 470.67,-19.5"/>
<polygon fill="#63b8ff" stroke="#63b8ff" points="457.89,-265.93 452.38,-274.98 462.33,-271.34 457.89,-265.93"/>
</a>
</g>
</g>
<!-- Node11&#45;&gt;Node9 -->
<g id="edge20_Node000011_Node000009" class="edge">
<title>Node11&#45;&gt;Node9</title>
<g id="a_edge20_Node000011_Node000009"><a xlink:title=" ">
<path fill="none" stroke="#63b8ff" d="M413.71,-270.07C397.6,-260.65 377.26,-248.75 363.51,-240.7"/>
<polygon fill="#63b8ff" stroke="#63b8ff" points="411.86,-273.05 422.26,-275.08 415.39,-267.01 411.86,-273.05"/>
</a>
</g>
</g>
<!-- Node15&#45;&gt;Node6 -->
<g id="edge32_Node000015_Node000006" class="edge">
<title>Node15&#45;&gt;Node6</title>
<g id="a_edge32_Node000015_Node000006"><a xlink:title=" ">
<path fill="none" stroke="#63b8ff" d="M792.97,-438.86C844.7,-425.4 908,-397.59 908,-342.12 908,-342.12 908,-342.12 908,-119.12 908,-40.1 639.78,-18.38 519.81,-12.62"/>
<polygon fill="#63b8ff" stroke="#63b8ff" points="792.15,-435.46 783.27,-441.24 793.81,-442.26 792.15,-435.46"/>
</a>
</g>
</g>
<!-- Node15&#45;&gt;Node8 -->
<g id="edge31_Node000015_Node000008" class="edge">
<title>Node15&#45;&gt;Node8</title>
<g id="a_edge31_Node000015_Node000008"><a xlink:title=" ">
<path fill="none" stroke="#63b8ff" d="M675.74,-439.01C632.55,-429.22 571.62,-415.42 531.97,-406.43"/>
<polygon fill="#63b8ff" stroke="#63b8ff" points="674.87,-442.4 685.39,-441.2 676.41,-435.57 674.87,-442.4"/>
</a>
</g>
</g>
<!-- Node15&#45;&gt;Node11 -->
<g id="edge30_Node000015_Node000011" class="edge">
<title>Node15&#45;&gt;Node11</title>
<g id="a_edge30_Node000015_Node000011"><a xlink:title=" ">
<path fill="none" stroke="#63b8ff" d="M751.58,-435.58C786.76,-412.25 843.98,-366.4 813,-331.5 792.98,-308.94 607.55,-295.72 505.54,-290.1"/>
<polygon fill="#63b8ff" stroke="#63b8ff" points="749.71,-432.63 743.19,-440.98 753.49,-438.52 749.71,-432.63"/>
</a>
</g>
</g>
</g>
</svg>
