<?xml version="1.0" encoding="UTF-8" standalone="no"?>
<!DOCTYPE svg PUBLIC "-//W3C//DTD SVG 1.1//EN"
 "http://www.w3.org/Graphics/SVG/1.1/DTD/svg11.dtd">
<!-- Generated by graphviz version 12.1.1 (20240910.0053)
 -->
<!-- Title: mimic++/Printer.hpp Pages: 1 -->
<svg width="917pt" height="525pt"
 viewBox="0.00 0.00 917.00 524.50" xmlns="http://www.w3.org/2000/svg" xmlns:xlink="http://www.w3.org/1999/xlink">
<g id="graph0" class="graph" transform="scale(1 1) rotate(0) translate(4 520.5)">
<title>mimic++/Printer.hpp</title>
<!-- Node1 -->
<g id="Node000001" class="node">
<title>Node1</title>
<g id="a_Node000001"><a xlink:title=" ">
<polygon fill="#999999" stroke="#666666" points="215.88,-516.5 112.12,-516.5 112.12,-497.25 215.88,-497.25 215.88,-516.5"/>
<text text-anchor="middle" x="164" y="-503" font-family="Helvetica,sans-Serif" font-size="10.00">mimic++/Printer.hpp</text>
</a>
</g>
</g>
<!-- Node2 -->
<g id="Node000002" class="node">
<title>Node2</title>
<g id="a_Node000002"><a xlink:href="../../d8/de5/_expectation_policies_8hpp.html" target="_top" xlink:title=" ">
<polygon fill="white" stroke="#666666" points="354,-185 194,-185 194,-165.75 354,-165.75 354,-185"/>
<text text-anchor="middle" x="274" y="-171.5" font-family="Helvetica,sans-Serif" font-size="10.00">mimic++/ExpectationPolicies.hpp</text>
</a>
</g>
</g>
<!-- Node1&#45;&gt;Node2 -->
<g id="edge1_Node000001_Node000002" class="edge">
<title>Node1&#45;&gt;Node2</title>
<g id="a_edge1_Node000001_Node000002"><a xlink:title=" ">
<path fill="none" stroke="#63b8ff" d="M155.37,-486.39C142.07,-453.44 120.07,-385.07 140,-331.5 164.95,-264.46 233.33,-207.06 261.56,-185.5"/>
<polygon fill="#63b8ff" stroke="#63b8ff" points="152.08,-487.59 159.2,-495.44 158.53,-484.87 152.08,-487.59"/>
</a>
</g>
</g>
<!-- Node5 -->
<g id="Node000005" class="node">
<title>Node5</title>
<g id="a_Node000005"><a xlink:href="../../d0/db9/mimic_09_09_8hpp.html" target="_top" xlink:title=" ">
<polygon fill="white" stroke="#666666" points="451.75,-19.25 338.25,-19.25 338.25,0 451.75,0 451.75,-19.25"/>
<text text-anchor="middle" x="395" y="-5.75" font-family="Helvetica,sans-Serif" font-size="10.00">mimic++/mimic++.hpp</text>
</a>
</g>
</g>
<!-- Node1&#45;&gt;Node5 -->
<g id="edge33_Node000001_Node000005" class="edge">
<title>Node1&#45;&gt;Node5</title>
<g id="a_edge33_Node000001_Node000005"><a xlink:title=" ">
<path fill="none" stroke="#63b8ff" d="M109.2,-493.74C61.52,-479.56 0,-450.9 0,-397.38 0,-397.38 0,-397.38 0,-119.12 0,-49.88 228.6,-23.2 337.99,-14.39"/>
<polygon fill="#63b8ff" stroke="#63b8ff" points="108.02,-497.04 118.59,-496.38 109.92,-490.3 108.02,-497.04"/>
</a>
</g>
</g>
<!-- Node6 -->
<g id="Node000006" class="node">
<title>Node6</title>
<g id="a_Node000006"><a xlink:href="../../dd/d50/_matcher_8hpp.html" target="_top" xlink:title=" ">
<polygon fill="white" stroke="#666666" points="138.25,-240.25 27.75,-240.25 27.75,-221 138.25,-221 138.25,-240.25"/>
<text text-anchor="middle" x="83" y="-226.75" font-family="Helvetica,sans-Serif" font-size="10.00">mimic++/Matcher.hpp</text>
</a>
</g>
</g>
<!-- Node1&#45;&gt;Node6 -->
<g id="edge8_Node000001_Node000006" class="edge">
<title>Node1&#45;&gt;Node6</title>
<g id="a_edge8_Node000001_Node000006"><a xlink:title=" ">
<path fill="none" stroke="#63b8ff" d="M138.47,-490.44C127.56,-482.79 115.42,-472.73 107,-461.25 89.06,-436.8 83,-427.7 83,-397.38 83,-397.38 83,-397.38 83,-340.12 83,-303.2 83,-259.22 83,-240.63"/>
<polygon fill="#63b8ff" stroke="#63b8ff" points="136.47,-493.31 146.74,-495.92 140.34,-487.48 136.47,-493.31"/>
</a>
</g>
</g>
<!-- Node7 -->
<g id="Node000007" class="node">
<title>Node7</title>
<g id="a_Node000007"><a xlink:href="../../da/dd9/_reporter_8hpp.html" target="_top" xlink:title=" ">
<polygon fill="white" stroke="#666666" points="674,-406 562,-406 562,-386.75 674,-386.75 674,-406"/>
<text text-anchor="middle" x="618" y="-392.5" font-family="Helvetica,sans-Serif" font-size="10.00">mimic++/Reporter.hpp</text>
</a>
</g>
</g>
<!-- Node1&#45;&gt;Node7 -->
<g id="edge11_Node000001_Node000007" class="edge">
<title>Node1&#45;&gt;Node7</title>
<g id="a_edge11_Node000001_Node000007"><a xlink:title=" ">
<path fill="none" stroke="#63b8ff" d="M213.04,-494.16C304.15,-472.38 497.72,-426.12 579.86,-406.49"/>
<polygon fill="#63b8ff" stroke="#63b8ff" points="212.31,-490.73 203.4,-496.46 213.94,-497.54 212.31,-490.73"/>
</a>
</g>
</g>
<!-- Node9 -->
<g id="Node000009" class="node">
<title>Node9</title>
<g id="a_Node000009"><a xlink:href="../../d8/de4/_sequence_8hpp.html" target="_top" xlink:title=" ">
<polygon fill="white" stroke="#666666" points="267.38,-350.75 148.62,-350.75 148.62,-331.5 267.38,-331.5 267.38,-350.75"/>
<text text-anchor="middle" x="208" y="-337.25" font-family="Helvetica,sans-Serif" font-size="10.00">mimic++/Sequence.hpp</text>
</a>
</g>
</g>
<!-- Node1&#45;&gt;Node9 -->
<g id="edge32_Node000001_Node000009" class="edge">
<title>Node1&#45;&gt;Node9</title>
<g id="a_edge32_Node000001_Node000009"><a xlink:title=" ">
<path fill="none" stroke="#63b8ff" d="M169.29,-486.19C178.88,-450.5 198.77,-376.46 205.62,-350.97"/>
<polygon fill="#63b8ff" stroke="#63b8ff" points="165.97,-485.04 166.76,-495.61 172.73,-486.86 165.97,-485.04"/>
</a>
</g>
</g>
<!-- Node14 -->
<g id="Node000014" class="node">
<title>Node14</title>
<g id="a_Node000014"><a xlink:href="../../d0/d3b/_reports_8hpp.html" target="_top" xlink:title=" ">
<polygon fill="white" stroke="#666666" points="739.5,-461.25 630.5,-461.25 630.5,-442 739.5,-442 739.5,-461.25"/>
<text text-anchor="middle" x="685" y="-447.75" font-family="Helvetica,sans-Serif" font-size="10.00">mimic++/Reports.hpp</text>
</a>
</g>
</g>
<!-- Node1&#45;&gt;Node14 -->
<g id="edge28_Node000001_Node000014" class="edge">
<title>Node1&#45;&gt;Node14</title>
<g id="a_edge28_Node000001_Node000014"><a xlink:title=" ">
<path fill="none" stroke="#63b8ff" d="M227.52,-499.38C330.75,-488.83 533.15,-468.15 630.35,-458.21"/>
<polygon fill="#63b8ff" stroke="#63b8ff" points="227.44,-495.87 217.85,-500.37 228.15,-502.84 227.44,-495.87"/>
</a>
</g>
</g>
<!-- Node3 -->
<g id="Node000003" class="node">
<title>Node3</title>
<g id="a_Node000003"><a xlink:href="../../d2/d4f/_expectation_builder_8hpp.html" target="_top" xlink:title=" ">
<polygon fill="white" stroke="#666666" points="478.75,-129.75 323.25,-129.75 323.25,-110.5 478.75,-110.5 478.75,-129.75"/>
<text text-anchor="middle" x="401" y="-116.25" font-family="Helvetica,sans-Serif" font-size="10.00">mimic++/ExpectationBuilder.hpp</text>
</a>
</g>
</g>
<!-- Node2&#45;&gt;Node3 -->
<g id="edge2_Node000002_Node000003" class="edge">
<title>Node2&#45;&gt;Node3</title>
<g id="a_edge2_Node000002_Node000003"><a xlink:title=" ">
<path fill="none" stroke="#63b8ff" d="M306.13,-160.9C329.05,-151.29 359.25,-138.63 379.35,-130.2"/>
<polygon fill="#63b8ff" stroke="#63b8ff" points="304.81,-157.66 296.94,-164.76 307.52,-164.12 304.81,-157.66"/>
</a>
</g>
</g>
<!-- Node4 -->
<g id="Node000004" class="node">
<title>Node4</title>
<g id="a_Node000004"><a xlink:href="../../d5/dc5/_mock_8hpp.html" target="_top" xlink:title=" ">
<polygon fill="white" stroke="#666666" points="483.62,-74.5 384.38,-74.5 384.38,-55.25 483.62,-55.25 483.62,-74.5"/>
<text text-anchor="middle" x="434" y="-61" font-family="Helvetica,sans-Serif" font-size="10.00">mimic++/Mock.hpp</text>
</a>
</g>
</g>
<!-- Node2&#45;&gt;Node4 -->
<g id="edge6_Node000002_Node000004" class="edge">
<title>Node2&#45;&gt;Node4</title>
<g id="a_edge6_Node000002_Node000004"><a xlink:title=" ">
<path fill="none" stroke="#63b8ff" d="M281.92,-155.15C288.6,-141.06 299.42,-122.38 314,-110.5 335.8,-92.74 365.35,-81.64 389.68,-74.95"/>
<polygon fill="#63b8ff" stroke="#63b8ff" points="278.72,-153.72 277.89,-164.28 285.13,-156.54 278.72,-153.72"/>
</a>
</g>
</g>
<!-- Node2&#45;&gt;Node5 -->
<g id="edge7_Node000002_Node000005" class="edge">
<title>Node2&#45;&gt;Node5</title>
<g id="a_edge7_Node000002_Node000005"><a xlink:title=" ">
<path fill="none" stroke="#63b8ff" d="M277.23,-154.43C279.99,-141.26 284.85,-124.02 293,-110.5 317.06,-70.6 360.79,-35.44 382.32,-19.58"/>
<polygon fill="#63b8ff" stroke="#63b8ff" points="273.83,-153.59 275.46,-164.06 280.71,-154.85 273.83,-153.59"/>
</a>
</g>
</g>
<!-- Node3&#45;&gt;Node4 -->
<g id="edge3_Node000003_Node000004" class="edge">
<title>Node3&#45;&gt;Node4</title>
<g id="a_edge3_Node000003_Node000004"><a xlink:title=" ">
<path fill="none" stroke="#63b8ff" d="M412.47,-100.62C417.88,-91.89 424.08,-81.89 428.43,-74.86"/>
<polygon fill="#63b8ff" stroke="#63b8ff" points="409.54,-98.7 407.25,-109.05 415.49,-102.39 409.54,-98.7"/>
</a>
</g>
</g>
<!-- Node3&#45;&gt;Node5 -->
<g id="edge5_Node000003_Node000005" class="edge">
<title>Node3&#45;&gt;Node5</title>
<g id="a_edge5_Node000003_Node000005"><a xlink:title=" ">
<path fill="none" stroke="#63b8ff" d="M387.41,-100.84C382.48,-93.12 377.51,-83.78 375,-74.5 369.67,-54.76 381.12,-31.97 388.8,-19.66"/>
<polygon fill="#63b8ff" stroke="#63b8ff" points="384.45,-102.71 393.01,-108.95 390.21,-98.73 384.45,-102.71"/>
</a>
</g>
</g>
<!-- Node4&#45;&gt;Node5 -->
<g id="edge4_Node000004_Node000005" class="edge">
<title>Node4&#45;&gt;Node5</title>
<g id="a_edge4_Node000004_Node000005"><a xlink:title=" ">
<path fill="none" stroke="#63b8ff" d="M420.86,-45.94C414.38,-37.09 406.84,-26.79 401.58,-19.61"/>
<polygon fill="#63b8ff" stroke="#63b8ff" points="417.93,-47.86 426.67,-53.86 423.58,-43.73 417.93,-47.86"/>
</a>
</g>
</g>
<!-- Node6&#45;&gt;Node2 -->
<g id="edge9_Node000006_Node000002" class="edge">
<title>Node6&#45;&gt;Node2</title>
<g id="a_edge9_Node000006_Node000002"><a xlink:title=" ">
<path fill="none" stroke="#63b8ff" d="M126.24,-217.57C161.21,-207.82 209.69,-194.3 241.44,-185.45"/>
<polygon fill="#63b8ff" stroke="#63b8ff" points="125.55,-214.13 116.86,-220.19 127.43,-220.87 125.55,-214.13"/>
</a>
</g>
</g>
<!-- Node6&#45;&gt;Node5 -->
<g id="edge10_Node000006_Node000005" class="edge">
<title>Node6&#45;&gt;Node5</title>
<g id="a_edge10_Node000006_Node000005"><a xlink:title=" ">
<path fill="none" stroke="#63b8ff" d="M84.76,-209.49C89.13,-172.71 103.85,-94.82 152,-55.25 179.76,-32.44 275.22,-20.38 337.91,-14.76"/>
<polygon fill="#63b8ff" stroke="#63b8ff" points="81.31,-208.84 83.77,-219.15 88.28,-209.56 81.31,-208.84"/>
</a>
</g>
</g>
<!-- Node7&#45;&gt;Node5 -->
<g id="edge27_Node000007_Node000005" class="edge">
<title>Node7&#45;&gt;Node5</title>
<g id="a_edge27_Node000007_Node000005"><a xlink:title=" ">
<path fill="none" stroke="#63b8ff" d="M685.71,-394.29C760.65,-389.08 871,-367.68 871,-286.88 871,-286.88 871,-286.88 871,-119.12 871,-34.05 578.29,-15.68 451.94,-11.72"/>
<polygon fill="#63b8ff" stroke="#63b8ff" points="685.74,-390.78 675.97,-394.88 686.17,-397.77 685.74,-390.78"/>
</a>
</g>
</g>
<!-- Node8 -->
<g id="Node000008" class="node">
<title>Node8</title>
<g id="a_Node000008"><a xlink:href="../../d5/d8a/_expectation_8hpp.html" target="_top" xlink:title=" ">
<polygon fill="white" stroke="#666666" points="573.75,-240.25 448.25,-240.25 448.25,-221 573.75,-221 573.75,-240.25"/>
<text text-anchor="middle" x="511" y="-226.75" font-family="Helvetica,sans-Serif" font-size="10.00">mimic++/Expectation.hpp</text>
</a>
</g>
</g>
<!-- Node7&#45;&gt;Node8 -->
<g id="edge12_Node000007_Node000008" class="edge">
<title>Node7&#45;&gt;Node8</title>
<g id="a_edge12_Node000007_Node000008"><a xlink:title=" ">
<path fill="none" stroke="#63b8ff" d="M685.81,-390.86C739.63,-384.44 801.89,-368.93 776,-331.5 730.83,-266.2 637.18,-243.54 574.2,-235.71"/>
<polygon fill="#63b8ff" stroke="#63b8ff" points="685.55,-387.36 675.99,-391.93 686.31,-394.32 685.55,-387.36"/>
</a>
</g>
</g>
<!-- Node7&#45;&gt;Node9 -->
<g id="edge17_Node000007_Node000009" class="edge">
<title>Node7&#45;&gt;Node9</title>
<g id="a_edge17_Node000007_Node000009"><a xlink:title=" ">
<path fill="none" stroke="#63b8ff" d="M550.62,-386.62C471.95,-376.41 343.04,-359.66 267.79,-349.89"/>
<polygon fill="#63b8ff" stroke="#63b8ff" points="549.98,-390.07 560.35,-387.89 550.88,-383.13 549.98,-390.07"/>
</a>
</g>
</g>
<!-- Node11 -->
<g id="Node000011" class="node">
<title>Node11</title>
<g id="a_Node000011"><a xlink:href="../../d9/d42/_boost_test_8hpp.html" target="_top" xlink:title=" ">
<polygon fill="white" stroke="#666666" points="446.38,-350.75 285.62,-350.75 285.62,-331.5 446.38,-331.5 446.38,-350.75"/>
<text text-anchor="middle" x="366" y="-337.25" font-family="Helvetica,sans-Serif" font-size="10.00">mimic++/adapters/BoostTest.hpp</text>
</a>
</g>
</g>
<!-- Node7&#45;&gt;Node11 -->
<g id="edge24_Node000007_Node000011" class="edge">
<title>Node7&#45;&gt;Node11</title>
<g id="a_edge24_Node000007_Node000011"><a xlink:title=" ">
<path fill="none" stroke="#63b8ff" d="M563.92,-383.95C517.55,-374.15 451.65,-360.22 408.86,-351.18"/>
<polygon fill="#63b8ff" stroke="#63b8ff" points="562.98,-387.33 573.49,-385.97 564.42,-380.48 562.98,-387.33"/>
</a>
</g>
</g>
<!-- Node12 -->
<g id="Node000012" class="node">
<title>Node12</title>
<g id="a_Node000012"><a xlink:href="../../d3/d04/_catch2_8hpp.html" target="_top" xlink:title=" ">
<polygon fill="white" stroke="#666666" points="611.25,-350.75 464.75,-350.75 464.75,-331.5 611.25,-331.5 611.25,-350.75"/>
<text text-anchor="middle" x="538" y="-337.25" font-family="Helvetica,sans-Serif" font-size="10.00">mimic++/adapters/Catch2.hpp</text>
</a>
</g>
</g>
<!-- Node7&#45;&gt;Node12 -->
<g id="edge25_Node000007_Node000012" class="edge">
<title>Node7&#45;&gt;Node12</title>
<g id="a_edge25_Node000007_Node000012"><a xlink:title=" ">
<path fill="none" stroke="#63b8ff" d="M594.95,-380.03C580.93,-370.7 563.5,-359.1 551.64,-351.2"/>
<polygon fill="#63b8ff" stroke="#63b8ff" points="592.91,-382.88 603.17,-385.5 596.78,-377.05 592.91,-382.88"/>
</a>
</g>
</g>
<!-- Node13 -->
<g id="Node000013" class="node">
<title>Node13</title>
<g id="a_Node000013"><a xlink:href="../../d5/db1/gtest_8hpp.html" target="_top" xlink:title=" ">
<polygon fill="white" stroke="#666666" points="766.75,-350.75 629.25,-350.75 629.25,-331.5 766.75,-331.5 766.75,-350.75"/>
<text text-anchor="middle" x="698" y="-337.25" font-family="Helvetica,sans-Serif" font-size="10.00">mimic++/adapters/gtest.hpp</text>
</a>
</g>
</g>
<!-- Node7&#45;&gt;Node13 -->
<g id="edge26_Node000007_Node000013" class="edge">
<title>Node7&#45;&gt;Node13</title>
<g id="a_edge26_Node000007_Node000013"><a xlink:title=" ">
<path fill="none" stroke="#63b8ff" d="M641.05,-380.03C655.07,-370.7 672.5,-359.1 684.36,-351.2"/>
<polygon fill="#63b8ff" stroke="#63b8ff" points="639.22,-377.05 632.83,-385.5 643.09,-382.88 639.22,-377.05"/>
</a>
</g>
</g>
<!-- Node8&#45;&gt;Node2 -->
<g id="edge14_Node000008_Node000002" class="edge">
<title>Node8&#45;&gt;Node2</title>
<g id="a_edge14_Node000008_Node000002"><a xlink:title=" ">
<path fill="none" stroke="#63b8ff" d="M459.31,-218.01C415.75,-208.22 354.3,-194.42 314.31,-185.43"/>
<polygon fill="#63b8ff" stroke="#63b8ff" points="458.53,-221.42 469.05,-220.2 460.06,-214.59 458.53,-221.42"/>
</a>
</g>
</g>
<!-- Node8&#45;&gt;Node3 -->
<g id="edge13_Node000008_Node000003" class="edge">
<title>Node8&#45;&gt;Node3</title>
<g id="a_edge13_Node000008_Node000003"><a xlink:title=" ">
<path fill="none" stroke="#63b8ff" d="M493.92,-212.78C470.31,-189.49 428.52,-148.27 410.13,-130.13"/>
<polygon fill="#63b8ff" stroke="#63b8ff" points="491.34,-215.15 500.92,-219.68 496.26,-210.17 491.34,-215.15"/>
</a>
</g>
</g>
<!-- Node8&#45;&gt;Node4 -->
<g id="edge15_Node000008_Node000004" class="edge">
<title>Node8&#45;&gt;Node4</title>
<g id="a_edge15_Node000008_Node000004"><a xlink:title=" ">
<path fill="none" stroke="#63b8ff" d="M511.16,-209.26C510.47,-184.3 506.4,-141.51 488,-110.5 478.88,-95.12 462.43,-82.69 450.07,-74.89"/>
<polygon fill="#63b8ff" stroke="#63b8ff" points="507.65,-209.05 511.25,-219.02 514.65,-208.99 507.65,-209.05"/>
</a>
</g>
</g>
<!-- Node8&#45;&gt;Node5 -->
<g id="edge16_Node000008_Node000005" class="edge">
<title>Node8&#45;&gt;Node5</title>
<g id="a_edge16_Node000008_Node000005"><a xlink:title=" ">
<path fill="none" stroke="#63b8ff" d="M517.06,-209.48C519.06,-201.88 521.01,-193.12 522,-185 529.12,-126.34 531.07,-100.44 493,-55.25 477.94,-37.38 454.23,-26.32 433.9,-19.68"/>
<polygon fill="#63b8ff" stroke="#63b8ff" points="513.71,-208.48 514.35,-219.06 520.44,-210.39 513.71,-208.48"/>
</a>
</g>
</g>
<!-- Node9&#45;&gt;Node3 -->
<g id="edge22_Node000009_Node000003" class="edge">
<title>Node9&#45;&gt;Node3</title>
<g id="a_edge22_Node000009_Node000003"><a xlink:title=" ">
<path fill="none" stroke="#63b8ff" d="M227.24,-323.72C258.16,-296.78 319.8,-240.57 363,-185 377.26,-166.66 390.25,-142.53 396.71,-129.82"/>
<polygon fill="#63b8ff" stroke="#63b8ff" points="225.11,-320.94 219.83,-330.12 229.69,-326.24 225.11,-320.94"/>
</a>
</g>
</g>
<!-- Node9&#45;&gt;Node5 -->
<g id="edge23_Node000009_Node000005" class="edge">
<title>Node9&#45;&gt;Node5</title>
<g id="a_edge23_Node000009_Node000005"><a xlink:title=" ">
<path fill="none" stroke="#63b8ff" d="M195.9,-321.45C183.49,-300.48 166,-264.99 166,-231.62 166,-231.62 166,-231.62 166,-119.12 166,-43.24 269.98,-20.36 337.8,-13.5"/>
<polygon fill="#63b8ff" stroke="#63b8ff" points="192.77,-323.06 201.01,-329.72 198.73,-319.38 192.77,-323.06"/>
</a>
</g>
</g>
<!-- Node10 -->
<g id="Node000010" class="node">
<title>Node10</title>
<g id="a_Node000010"><a xlink:href="../../d6/d17/_control_policy_8hpp.html" target="_top" xlink:title=" ">
<polygon fill="white" stroke="#666666" points="577.12,-295.5 444.88,-295.5 444.88,-276.25 577.12,-276.25 577.12,-295.5"/>
<text text-anchor="middle" x="511" y="-282" font-family="Helvetica,sans-Serif" font-size="10.00">mimic++/ControlPolicy.hpp</text>
</a>
</g>
</g>
<!-- Node9&#45;&gt;Node10 -->
<g id="edge18_Node000009_Node000010" class="edge">
<title>Node9&#45;&gt;Node10</title>
<g id="a_edge18_Node000009_Node000010"><a xlink:title=" ">
<path fill="none" stroke="#63b8ff" d="M270.9,-329.07C326.66,-319.27 407.1,-305.13 459.22,-295.98"/>
<polygon fill="#63b8ff" stroke="#63b8ff" points="270.48,-325.59 261.23,-330.77 271.69,-332.49 270.48,-325.59"/>
</a>
</g>
</g>
<!-- Node10&#45;&gt;Node3 -->
<g id="edge20_Node000010_Node000003" class="edge">
<title>Node10&#45;&gt;Node3</title>
<g id="a_edge20_Node000010_Node000003"><a xlink:title=" ">
<path fill="none" stroke="#63b8ff" d="M478.03,-270.8C464.27,-263.47 449.16,-253.28 439,-240.25 412.03,-205.67 403.96,-151.49 401.76,-130.17"/>
<polygon fill="#63b8ff" stroke="#63b8ff" points="476.32,-273.86 486.83,-275.17 479.43,-267.59 476.32,-273.86"/>
</a>
</g>
</g>
<!-- Node10&#45;&gt;Node5 -->
<g id="edge21_Node000010_Node000005" class="edge">
<title>Node10&#45;&gt;Node5</title>
<g id="a_edge21_Node000010_Node000005"><a xlink:title=" ">
<path fill="none" stroke="#63b8ff" d="M544.38,-270.74C558.08,-263.43 573.04,-253.29 583,-240.25 600.98,-216.72 602,-205.99 602,-176.38 602,-176.38 602,-176.38 602,-119.12 602,-51.16 513.38,-25.69 452.11,-16.19"/>
<polygon fill="#63b8ff" stroke="#63b8ff" points="543.01,-267.51 535.61,-275.09 546.12,-273.78 543.01,-267.51"/>
</a>
</g>
</g>
<!-- Node10&#45;&gt;Node8 -->
<g id="edge19_Node000010_Node000008" class="edge">
<title>Node10&#45;&gt;Node8</title>
<g id="a_edge19_Node000010_Node000008"><a xlink:title=" ">
<path fill="none" stroke="#63b8ff" d="M511,-264.63C511,-256.34 511,-247.17 511,-240.61"/>
<polygon fill="#63b8ff" stroke="#63b8ff" points="507.5,-264.57 511,-274.57 514.5,-264.57 507.5,-264.57"/>
</a>
</g>
</g>
<!-- Node14&#45;&gt;Node5 -->
<g id="edge31_Node000014_Node000005" class="edge">
<title>Node14&#45;&gt;Node5</title>
<g id="a_edge31_Node000014_Node000005"><a xlink:title=" ">
<path fill="none" stroke="#63b8ff" d="M750.98,-446.12C817.06,-437.59 909,-413 909,-342.12 909,-342.12 909,-342.12 909,-119.12 909,-26.55 585.8,-12.57 451.97,-10.75"/>
<polygon fill="#63b8ff" stroke="#63b8ff" points="750.82,-442.61 741.3,-447.26 751.64,-449.56 750.82,-442.61"/>
</a>
</g>
</g>
<!-- Node14&#45;&gt;Node7 -->
<g id="edge30_Node000014_Node000007" class="edge">
<title>Node14&#45;&gt;Node7</title>
<g id="a_edge30_Node000014_Node000007"><a xlink:title=" ">
<path fill="none" stroke="#63b8ff" d="M664.95,-434.69C653.25,-425.39 638.93,-414.01 629.2,-406.27"/>
<polygon fill="#63b8ff" stroke="#63b8ff" points="662.44,-437.17 672.45,-440.65 666.8,-431.69 662.44,-437.17"/>
</a>
</g>
</g>
<!-- Node14&#45;&gt;Node10 -->
<g id="edge29_Node000014_Node000010" class="edge">
<title>Node14&#45;&gt;Node10</title>
<g id="a_edge29_Node000014_Node000010"><a xlink:title=" ">
<path fill="none" stroke="#63b8ff" d="M710.87,-435.72C747.46,-412.79 806.65,-367.74 776,-331.5 751.07,-302.02 647.62,-292.01 577.59,-288.61"/>
<polygon fill="#63b8ff" stroke="#63b8ff" points="709.26,-432.6 702.53,-440.79 712.9,-438.58 709.26,-432.6"/>
</a>
</g>
</g>
</g>
</svg>
