<?xml version="1.0" encoding="UTF-8" standalone="no"?>
<!DOCTYPE svg PUBLIC "-//W3C//DTD SVG 1.1//EN"
 "http://www.w3.org/Graphics/SVG/1.1/DTD/svg11.dtd">
<!-- Generated by graphviz version 9.0.0 (20230911.1827)
 -->
<!-- Title: mimic++/Printer.hpp Pages: 1 -->
<svg width="448pt" height="304pt"
 viewBox="0.00 0.00 448.38 303.50" xmlns="http://www.w3.org/2000/svg" xmlns:xlink="http://www.w3.org/1999/xlink">

<svg id="main" version="1.1" xmlns="http://www.w3.org/2000/svg" xmlns:xlink="http://www.w3.org/1999/xlink" xml:space="preserve" onload="init(evt)">
<style type="text/css"><![CDATA[
.node, .edge {opacity: 0.7;}
.node.selected, .edge.selected {opacity: 1;}
.edge:hover path { stroke: red; }
.edge:hover polygon { stroke: red; fill: red; }
]]></style>
<script type="application/ecmascript" xlink:href="../../svg.min.js"/>
<svg id="graph" class="graph">
<g id="graph0" class="graph" transform="scale(1 1) rotate(0) translate(4 299.5)">
<title>mimic++/Printer.hpp</title>
<!-- Node1 -->
<g id="Node000001" class="node">
<title>Node1</title>
<g id="a_Node000001"><a xlink:title=" ">
<polygon fill="#999999" stroke="#666666" points="204.88,-295.5 101.12,-295.5 101.12,-276.25 204.88,-276.25 204.88,-295.5"/>
<text text-anchor="middle" x="153" y="-282" font-family="Helvetica,sans-Serif" font-size="10.00">mimic++/Printer.hpp</text>
</a>
</g>
</g>
<!-- Node2 -->
<g id="Node000002" class="node">
<title>Node2</title>
<g id="a_Node000002"><a xlink:href="../../d8/de5/_expectation_policies_8hpp.html" target="_top" xlink:title=" ">
<polygon fill="white" stroke="#666666" points="160,-129.75 0,-129.75 0,-110.5 160,-110.5 160,-129.75"/>
<text text-anchor="middle" x="80" y="-116.25" font-family="Helvetica,sans-Serif" font-size="10.00">mimic++/ExpectationPolicies.hpp</text>
</a>
</g>
</g>
<!-- Node1&#45;&gt;Node2 -->
<g id="edge1_Node000001_Node000002" class="edge">
<title>Node1&#45;&gt;Node2</title>
<g id="a_edge1_Node000001_Node000002"><a xlink:title=" ">
<path fill="none" stroke="#63b8ff" d="M121.29,-270.39C109.1,-263.13 96.34,-253.12 89,-240.25 68.33,-204.04 74.57,-151.26 78.21,-130.24"/>
<polygon fill="#63b8ff" stroke="#63b8ff" points="119.49,-273.4 129.95,-275.11 122.85,-267.25 119.49,-273.4"/>
</a>
</g>
</g>
<!-- Node6 -->
<g id="Node000006" class="node">
<title>Node6</title>
<g id="a_Node000006"><a xlink:href="../../dd/d50/_matcher_8hpp.html" target="_top" xlink:title=" ">
<polygon fill="white" stroke="#666666" points="208.25,-240.25 97.75,-240.25 97.75,-221 208.25,-221 208.25,-240.25"/>
<text text-anchor="middle" x="153" y="-226.75" font-family="Helvetica,sans-Serif" font-size="10.00">mimic++/Matcher.hpp</text>
</a>
</g>
</g>
<!-- Node1&#45;&gt;Node6 -->
<g id="edge7_Node000001_Node000006" class="edge">
<title>Node1&#45;&gt;Node6</title>
<g id="a_edge7_Node000001_Node000006"><a xlink:title=" ">
<path fill="none" stroke="#63b8ff" d="M153,-264.63C153,-256.34 153,-247.17 153,-240.61"/>
<polygon fill="#63b8ff" stroke="#63b8ff" points="149.5,-264.57 153,-274.57 156.5,-264.57 149.5,-264.57"/>
</a>
</g>
</g>
<!-- Node7 -->
<g id="Node000007" class="node">
<title>Node7</title>
<g id="a_Node000007"><a xlink:href="../../da/dd9/_reporter_8hpp.html" target="_top" xlink:title=" ">
<polygon fill="white" stroke="#666666" points="338,-240.25 226,-240.25 226,-221 338,-221 338,-240.25"/>
<text text-anchor="middle" x="282" y="-226.75" font-family="Helvetica,sans-Serif" font-size="10.00">mimic++/Reporter.hpp</text>
</a>
</g>
</g>
<!-- Node1&#45;&gt;Node7 -->
<g id="edge9_Node000001_Node000007" class="edge">
<title>Node1&#45;&gt;Node7</title>
<g id="a_edge9_Node000001_Node000007"><a xlink:title=" ">
<path fill="none" stroke="#63b8ff" d="M185.32,-271.53C208.64,-261.91 239.5,-249.17 260.01,-240.7"/>
<polygon fill="#63b8ff" stroke="#63b8ff" points="184.19,-268.21 176.28,-275.26 186.86,-274.68 184.19,-268.21"/>
</a>
</g>
</g>
<!-- Node3 -->
<g id="Node000003" class="node">
<title>Node3</title>
<g id="a_Node000003"><a xlink:href="../../d3/d4c/_complex_mock_8hpp.html" target="_top" xlink:title=" ">
<polygon fill="white" stroke="#666666" points="209.38,-19.25 72.62,-19.25 72.62,0 209.38,0 209.38,-19.25"/>
<text text-anchor="middle" x="141" y="-5.75" font-family="Helvetica,sans-Serif" font-size="10.00">mimic++/ComplexMock.hpp</text>
</a>
</g>
</g>
<!-- Node2&#45;&gt;Node3 -->
<g id="edge2_Node000002_Node000003" class="edge">
<title>Node2&#45;&gt;Node3</title>
<g id="a_edge2_Node000002_Node000003"><a xlink:title=" ">
<path fill="none" stroke="#63b8ff" d="M85.65,-99.04C89.75,-86.06 95.98,-69.07 104,-55.25 111.88,-41.67 123.9,-28.07 132.08,-19.52"/>
<polygon fill="#63b8ff" stroke="#63b8ff" points="82.31,-97.99 82.81,-108.58 89.02,-99.99 82.31,-97.99"/>
</a>
</g>
</g>
<!-- Node4 -->
<g id="Node000004" class="node">
<title>Node4</title>
<g id="a_Node000004"><a xlink:href="../../d2/d4f/_expectation_builder_8hpp.html" target="_top" xlink:title=" ">
<polygon fill="white" stroke="#666666" points="339.75,-74.5 184.25,-74.5 184.25,-55.25 339.75,-55.25 339.75,-74.5"/>
<text text-anchor="middle" x="262" y="-61" font-family="Helvetica,sans-Serif" font-size="10.00">mimic++/ExpectationBuilder.hpp</text>
</a>
</g>
</g>
<!-- Node2&#45;&gt;Node4 -->
<g id="edge3_Node000002_Node000004" class="edge">
<title>Node2&#45;&gt;Node4</title>
<g id="a_edge3_Node000002_Node000004"><a xlink:title=" ">
<path fill="none" stroke="#63b8ff" d="M121.64,-106.94C154.93,-97.2 200.85,-83.77 230.97,-74.95"/>
<polygon fill="#63b8ff" stroke="#63b8ff" points="120.94,-103.5 112.33,-109.67 122.91,-110.22 120.94,-103.5"/>
</a>
</g>
</g>
<!-- Node5 -->
<g id="Node000005" class="node">
<title>Node5</title>
<g id="a_Node000005"><a xlink:href="../../d5/dc5/_mock_8hpp.html" target="_top" xlink:title=" ">
<polygon fill="white" stroke="#666666" points="326.62,-19.25 227.38,-19.25 227.38,0 326.62,0 326.62,-19.25"/>
<text text-anchor="middle" x="277" y="-5.75" font-family="Helvetica,sans-Serif" font-size="10.00">mimic++/Mock.hpp</text>
</a>
</g>
</g>
<!-- Node2&#45;&gt;Node5 -->
<g id="edge6_Node000002_Node000005" class="edge">
<title>Node2&#45;&gt;Node5</title>
<g id="a_edge6_Node000002_Node000005"><a xlink:title=" ">
<path fill="none" stroke="#63b8ff" d="M100.97,-103.42C119.78,-89.73 148.42,-69.85 175,-55.25 200.75,-41.11 231.88,-28.03 252.93,-19.73"/>
<polygon fill="#63b8ff" stroke="#63b8ff" points="99.05,-100.49 93.07,-109.23 103.2,-106.12 99.05,-100.49"/>
</a>
</g>
</g>
<!-- Node4&#45;&gt;Node3 -->
<g id="edge4_Node000004_Node000003" class="edge">
<title>Node4&#45;&gt;Node3</title>
<g id="a_edge4_Node000004_Node000003"><a xlink:title=" ">
<path fill="none" stroke="#63b8ff" d="M231.09,-50.27C209.29,-40.68 180.69,-28.09 161.63,-19.7"/>
<polygon fill="#63b8ff" stroke="#63b8ff" points="229.53,-53.41 240.09,-54.23 232.35,-47 229.53,-53.41"/>
</a>
</g>
</g>
<!-- Node4&#45;&gt;Node5 -->
<g id="edge5_Node000004_Node000005" class="edge">
<title>Node4&#45;&gt;Node5</title>
<g id="a_edge5_Node000004_Node000005"><a xlink:title=" ">
<path fill="none" stroke="#63b8ff" d="M267.54,-44.21C269.92,-35.77 272.58,-26.33 274.47,-19.61"/>
<polygon fill="#63b8ff" stroke="#63b8ff" points="264.23,-43.05 264.89,-53.63 270.97,-44.95 264.23,-43.05"/>
</a>
</g>
</g>
<!-- Node6&#45;&gt;Node2 -->
<g id="edge8_Node000006_Node000002" class="edge">
<title>Node6&#45;&gt;Node2</title>
<g id="a_edge8_Node000006_Node000002"><a xlink:title=" ">
<path fill="none" stroke="#63b8ff" d="M140.62,-211.22C124.78,-187.69 98,-147.87 86.06,-130.13"/>
<polygon fill="#63b8ff" stroke="#63b8ff" points="137.69,-213.15 146.18,-219.49 143.5,-209.24 137.69,-213.15"/>
</a>
</g>
</g>
<!-- Node8 -->
<g id="Node000008" class="node">
<title>Node8</title>
<g id="a_Node000008"><a xlink:href="../../d5/d8a/_expectation_8hpp.html" target="_top" xlink:title=" ">
<polygon fill="white" stroke="#666666" points="303.75,-185 178.25,-185 178.25,-165.75 303.75,-165.75 303.75,-185"/>
<text text-anchor="middle" x="241" y="-171.5" font-family="Helvetica,sans-Serif" font-size="10.00">mimic++/Expectation.hpp</text>
</a>
</g>
</g>
<!-- Node7&#45;&gt;Node8 -->
<g id="edge10_Node000007_Node000008" class="edge">
<title>Node7&#45;&gt;Node8</title>
<g id="a_edge10_Node000007_Node000008"><a xlink:title=" ">
<path fill="none" stroke="#63b8ff" d="M268.41,-211.97C261.54,-203.06 253.51,-192.62 247.92,-185.36"/>
<polygon fill="#63b8ff" stroke="#63b8ff" points="265.43,-213.84 274.31,-219.63 270.98,-209.57 265.43,-213.84"/>
</a>
</g>
</g>
<!-- Node9 -->
<g id="Node000009" class="node">
<title>Node9</title>
<g id="a_Node000009"><a xlink:href="../../d8/de4/_sequence_8hpp.html" target="_top" xlink:title=" ">
<polygon fill="white" stroke="#666666" points="440.38,-185 321.62,-185 321.62,-165.75 440.38,-165.75 440.38,-185"/>
<text text-anchor="middle" x="381" y="-171.5" font-family="Helvetica,sans-Serif" font-size="10.00">mimic++/Sequence.hpp</text>
</a>
</g>
</g>
<!-- Node7&#45;&gt;Node9 -->
<g id="edge15_Node000007_Node000009" class="edge">
<title>Node7&#45;&gt;Node9</title>
<g id="a_edge15_Node000007_Node000009"><a xlink:title=" ">
<path fill="none" stroke="#63b8ff" d="M308.52,-215.36C326.19,-205.86 348.88,-193.65 364.12,-185.45"/>
<polygon fill="#63b8ff" stroke="#63b8ff" points="307.28,-212.06 300.13,-219.87 310.59,-218.22 307.28,-212.06"/>
</a>
</g>
</g>
<!-- Node8&#45;&gt;Node2 -->
<g id="edge13_Node000008_Node000002" class="edge">
<title>Node8&#45;&gt;Node2</title>
<g id="a_edge13_Node000008_Node000002"><a xlink:title=" ">
<path fill="none" stroke="#63b8ff" d="M203.01,-161.81C173.66,-152.1 133.74,-138.9 107.45,-130.2"/>
<polygon fill="#63b8ff" stroke="#63b8ff" points="201.66,-165.05 212.25,-164.87 203.86,-158.4 201.66,-165.05"/>
</a>
</g>
</g>
<!-- Node8&#45;&gt;Node3 -->
<g id="edge11_Node000008_Node000003" class="edge">
<title>Node8&#45;&gt;Node3</title>
<g id="a_edge11_Node000008_Node000003"><a xlink:title=" ">
<path fill="none" stroke="#63b8ff" d="M228.2,-156.15C214.5,-136.38 192.38,-103.72 175,-74.5 163.57,-55.28 151.6,-31.91 145.36,-19.45"/>
<polygon fill="#63b8ff" stroke="#63b8ff" points="225.24,-158.03 233.84,-164.23 230.99,-154.02 225.24,-158.03"/>
</a>
</g>
</g>
<!-- Node8&#45;&gt;Node4 -->
<g id="edge12_Node000008_Node000004" class="edge">
<title>Node8&#45;&gt;Node4</title>
<g id="a_edge12_Node000008_Node000004"><a xlink:title=" ">
<path fill="none" stroke="#63b8ff" d="M244.88,-154.35C249.46,-130.65 256.9,-92.22 260.26,-74.88"/>
<polygon fill="#63b8ff" stroke="#63b8ff" points="241.47,-153.53 243.01,-164.01 248.34,-154.86 241.47,-153.53"/>
</a>
</g>
</g>
<!-- Node8&#45;&gt;Node5 -->
<g id="edge14_Node000008_Node000005" class="edge">
<title>Node8&#45;&gt;Node5</title>
<g id="a_edge14_Node000008_Node000005"><a xlink:title=" ">
<path fill="none" stroke="#63b8ff" d="M267.07,-159.34C293.37,-142.49 332.38,-112.51 349,-74.5 359.98,-49.39 327.34,-30.24 302.47,-19.72"/>
<polygon fill="#63b8ff" stroke="#63b8ff" points="265.31,-156.31 258.64,-164.54 268.99,-162.26 265.31,-156.31"/>
</a>
</g>
</g>
</g>
</svg>
</svg>

<style type='text/css'>
<![CDATA[
[data-mouse-over-selected='false'] { opacity: 0.7; }
[data-mouse-over-selected='true']  { opacity: 1.0; }
]]>
</style>
<script type="application/ecmascript"><![CDATA[
document.addEventListener('DOMContentLoaded', (event) => {
  highlightEdges();
  highlightAdjacentNodes();
});
]]></script>
</svg>
