<?xml version="1.0" encoding="UTF-8" standalone="no"?>
<!DOCTYPE svg PUBLIC "-//W3C//DTD SVG 1.1//EN"
 "http://www.w3.org/Graphics/SVG/1.1/DTD/svg11.dtd">
<!-- Generated by graphviz version 11.0.0 (20240428.1522)
 -->
<!-- Title: mimic++/Printer.hpp Pages: 1 -->
<!--zoomable 359 -->

<svg id="main" version="1.1" xmlns="http://www.w3.org/2000/svg" xmlns:xlink="http://www.w3.org/1999/xlink" xml:space="preserve" onload="init(evt)">
<style type="text/css"><![CDATA[
.node, .edge {opacity: 0.7;}
.node.selected, .edge.selected {opacity: 1;}
.edge:hover path { stroke: red; }
.edge:hover polygon { stroke: red; fill: red; }
]]></style>

<defs>
  <circle id="rim" cx="0" cy="0" r="7"/>
  <circle id="rim2" cx="0" cy="0" r="3.5"/>
  <g id="zoomPlus">
    <use xlink:href="#rim" fill="#404040"><set attributeName="fill" to="#808080" begin="zoomplus.mouseover" end="zoomplus.mouseout"/></use>
    <path d="M-4,0h8M0,-4v8" fill="none" stroke="white" stroke-width="1.5" pointer-events="none"/>
  </g>
  <g id="zoomMin">
    <use xlink:href="#rim" fill="#404040"><set attributeName="fill" to="#808080" begin="zoomminus.mouseover" end="zoomminus.mouseout"/></use>
    <path d="M-4,0h8" fill="none" stroke="white" stroke-width="1.5" pointer-events="none"/>
  </g>
  <g id="arrowUp" transform="translate(30 24)">
    <use xlink:href="#rim"/>
    <path pointer-events="none" fill="none" stroke="white" stroke-width="1.5" d="M0,-3.0v7 M-2.5,-0.5L0,-3.0L2.5,-0.5"/>
  </g>
  <g id="arrowRight" transform="rotate(90) translate(36 -43)">
    <use xlink:href="#rim"/>
    <path pointer-events="none" fill="none" stroke="white" stroke-width="1.5" d="M0,-3.0v7 M-2.5,-0.5L0,-3.0L2.5,-0.5"/>
  </g>
  <g id="arrowDown" transform="rotate(180) translate(-30 -48)">
    <use xlink:href="#rim"/>
    <path pointer-events="none" fill="none" stroke="white" stroke-width="1.5" d="M0,-3.0v7 M-2.5,-0.5L0,-3.0L2.5,-0.5"/>
  </g>
  <g id="arrowLeft" transform="rotate(270) translate(-36 17)">
    <use xlink:href="#rim"/>
    <path pointer-events="none" fill="none" stroke="white" stroke-width="1.5" d="M0,-3.0v7 M-2.5,-0.5L0,-3.0L2.5,-0.5"/>
  </g>
  <g id="resetDef">
    <use xlink:href="#rim2" fill="#404040"><set attributeName="fill" to="#808080" begin="reset.mouseover" end="reset.mouseout"/></use>
  </g>
</defs>
<script type="application/ecmascript">
var viewWidth = 1001;
var viewHeight = 359;
var sectionId = 'dynsection-1';
</script>
<script type="application/ecmascript" xlink:href="../../svg.min.js"/>
<svg id="graph" class="graph">
<g id="viewport">
<title>mimic++/Printer.hpp</title>
<!-- Node1 -->
<g id="Node000001" class="node">
<title>Node1</title>
<g id="a_Node000001"><a xlink:title=" ">
<polygon fill="#999999" stroke="#666666" points="217.88,-350.75 114.12,-350.75 114.12,-331.5 217.88,-331.5 217.88,-350.75"/>
<text text-anchor="middle" x="166" y="-337.25" font-family="Helvetica,sans-Serif" font-size="10.00">mimic++/Printer.hpp</text>
</a>
</g>
</g>
<!-- Node2 -->
<g id="Node000002" class="node">
<title>Node2</title>
<g id="a_Node000002"><a xlink:href="../../d8/de5/_expectation_policies_8hpp.html" target="_top" xlink:title=" ">
<polygon fill="white" stroke="#666666" points="227,-185 67,-185 67,-165.75 227,-165.75 227,-185"/>
<text text-anchor="middle" x="147" y="-171.5" font-family="Helvetica,sans-Serif" font-size="10.00">mimic++/ExpectationPolicies.hpp</text>
</a>
</g>
</g>
<!-- Node1&#45;&gt;Node2 -->
<g id="edge1_Node000001_Node000002" class="edge">
<title>Node1&#45;&gt;Node2</title>
<g id="a_edge1_Node000001_Node000002"><a xlink:title=" ">
<path fill="none" stroke="#63b8ff" d="M163.66,-319.97C159.5,-284.11 150.97,-210.6 148.03,-185.22"/>
<polygon fill="#63b8ff" stroke="#63b8ff" points="160.17,-320.29 164.8,-329.82 167.13,-319.48 160.17,-320.29"/>
</a>
</g>
</g>
<!-- Node5 -->
<g id="Node000005" class="node">
<title>Node5</title>
<g id="a_Node000005"><a xlink:href="../../d0/db9/mimic_09_09_8hpp.html" target="_top" xlink:title=" ">
<polygon fill="white" stroke="#666666" points="270.75,-19.25 157.25,-19.25 157.25,0 270.75,0 270.75,-19.25"/>
<text text-anchor="middle" x="214" y="-5.75" font-family="Helvetica,sans-Serif" font-size="10.00">mimic++/mimic++.hpp</text>
</a>
</g>
</g>
<!-- Node1&#45;&gt;Node5 -->
<g id="edge24_Node000001_Node000005" class="edge">
<title>Node1&#45;&gt;Node5</title>
<g id="a_edge24_Node000001_Node000005"><a xlink:title=" ">
<path fill="none" stroke="#63b8ff" d="M110.1,-328.07C61.9,-313.99 0,-285.45 0,-231.62 0,-231.62 0,-231.62 0,-119.12 0,-48.62 93.54,-23.92 156.93,-15.27"/>
<polygon fill="#63b8ff" stroke="#63b8ff" points="109.05,-331.41 119.62,-330.69 110.91,-324.66 109.05,-331.41"/>
</a>
</g>
</g>
<!-- Node6 -->
<g id="Node000006" class="node">
<title>Node6</title>
<g id="a_Node000006"><a xlink:href="../../dd/d50/_matcher_8hpp.html" target="_top" xlink:title=" ">
<polygon fill="white" stroke="#666666" points="138.25,-240.25 27.75,-240.25 27.75,-221 138.25,-221 138.25,-240.25"/>
<text text-anchor="middle" x="83" y="-226.75" font-family="Helvetica,sans-Serif" font-size="10.00">mimic++/Matcher.hpp</text>
</a>
</g>
</g>
<!-- Node1&#45;&gt;Node6 -->
<g id="edge8_Node000001_Node000006" class="edge">
<title>Node1&#45;&gt;Node6</title>
<g id="a_edge8_Node000001_Node000006"><a xlink:title=" ">
<path fill="none" stroke="#63b8ff" d="M152.4,-322.35C134.47,-298.91 103.58,-258.53 89.89,-240.63"/>
<polygon fill="#63b8ff" stroke="#63b8ff" points="149.43,-324.23 158.29,-330.04 154.99,-319.97 149.43,-324.23"/>
</a>
</g>
</g>
<!-- Node7 -->
<g id="Node000007" class="node">
<title>Node7</title>
<g id="a_Node000007"><a xlink:href="../../da/dd9/_reporter_8hpp.html" target="_top" xlink:title=" ">
<polygon fill="white" stroke="#666666" points="599,-295.5 487,-295.5 487,-276.25 599,-276.25 599,-295.5"/>
<text text-anchor="middle" x="543" y="-282" font-family="Helvetica,sans-Serif" font-size="10.00">mimic++/Reporter.hpp</text>
</a>
</g>
</g>
<!-- Node1&#45;&gt;Node7 -->
<g id="edge11_Node000001_Node000007" class="edge">
<title>Node1&#45;&gt;Node7</title>
<g id="a_edge11_Node000001_Node000007"><a xlink:title=" ">
<path fill="none" stroke="#63b8ff" d="M229.17,-331.2C301.12,-321.04 417.6,-304.59 486.6,-294.84"/>
<polygon fill="#63b8ff" stroke="#63b8ff" points="228.94,-327.7 219.52,-332.57 229.91,-334.63 228.94,-327.7"/>
</a>
</g>
</g>
<!-- Node9 -->
<g id="Node000009" class="node">
<title>Node9</title>
<g id="a_Node000009"><a xlink:href="../../d8/de4/_sequence_8hpp.html" target="_top" xlink:title=" ">
<polygon fill="white" stroke="#666666" points="456.38,-240.25 337.62,-240.25 337.62,-221 456.38,-221 456.38,-240.25"/>
<text text-anchor="middle" x="397" y="-226.75" font-family="Helvetica,sans-Serif" font-size="10.00">mimic++/Sequence.hpp</text>
</a>
</g>
</g>
<!-- Node1&#45;&gt;Node9 -->
<g id="edge23_Node000001_Node000009" class="edge">
<title>Node1&#45;&gt;Node9</title>
<g id="a_edge23_Node000001_Node000009"><a xlink:title=" ">
<path fill="none" stroke="#63b8ff" d="M195.65,-326.2C243.67,-303.64 337.16,-259.73 377.59,-240.74"/>
<polygon fill="#63b8ff" stroke="#63b8ff" points="194.23,-323 186.67,-330.42 197.21,-329.33 194.23,-323"/>
</a>
</g>
</g>
<!-- Node3 -->
<g id="Node000003" class="node">
<title>Node3</title>
<g id="a_Node000003"><a xlink:href="../../d2/d4f/_expectation_builder_8hpp.html" target="_top" xlink:title=" ">
<polygon fill="white" stroke="#666666" points="297.75,-129.75 142.25,-129.75 142.25,-110.5 297.75,-110.5 297.75,-129.75"/>
<text text-anchor="middle" x="220" y="-116.25" font-family="Helvetica,sans-Serif" font-size="10.00">mimic++/ExpectationBuilder.hpp</text>
</a>
</g>
</g>
<!-- Node2&#45;&gt;Node3 -->
<g id="edge2_Node000002_Node000003" class="edge">
<title>Node2&#45;&gt;Node3</title>
<g id="a_edge2_Node000002_Node000003"><a xlink:title=" ">
<path fill="none" stroke="#63b8ff" d="M168.47,-158.72C181.28,-149.37 197.1,-137.83 207.8,-130.02"/>
<polygon fill="#63b8ff" stroke="#63b8ff" points="166.62,-155.73 160.61,-164.45 170.75,-161.38 166.62,-155.73"/>
</a>
</g>
</g>
<!-- Node4 -->
<g id="Node000004" class="node">
<title>Node4</title>
<g id="a_Node000004"><a xlink:href="../../d5/dc5/_mock_8hpp.html" target="_top" xlink:title=" ">
<polygon fill="white" stroke="#666666" points="302.62,-74.5 203.38,-74.5 203.38,-55.25 302.62,-55.25 302.62,-74.5"/>
<text text-anchor="middle" x="253" y="-61" font-family="Helvetica,sans-Serif" font-size="10.00">mimic++/Mock.hpp</text>
</a>
</g>
</g>
<!-- Node2&#45;&gt;Node4 -->
<g id="edge6_Node000002_Node000004" class="edge">
<title>Node2&#45;&gt;Node4</title>
<g id="a_edge6_Node000002_Node000004"><a xlink:title=" ">
<path fill="none" stroke="#63b8ff" d="M135.48,-155.14C129.01,-141.59 123.89,-123.61 133,-110.5 148.79,-87.78 177.61,-76.6 203.04,-71.12"/>
<polygon fill="#63b8ff" stroke="#63b8ff" points="132.4,-156.8 140.23,-163.93 138.56,-153.47 132.4,-156.8"/>
</a>
</g>
</g>
<!-- Node2&#45;&gt;Node5 -->
<g id="edge7_Node000002_Node000005" class="edge">
<title>Node2&#45;&gt;Node5</title>
<g id="a_edge7_Node000002_Node000005"><a xlink:title=" ">
<path fill="none" stroke="#63b8ff" d="M133.31,-156.15C125.42,-143.33 118.12,-125.8 124,-110.5 139.65,-69.75 180.46,-35.24 201.32,-19.6"/>
<polygon fill="#63b8ff" stroke="#63b8ff" points="130.42,-158.12 138.95,-164.4 136.2,-154.17 130.42,-158.12"/>
</a>
</g>
</g>
<!-- Node3&#45;&gt;Node4 -->
<g id="edge3_Node000003_Node000004" class="edge">
<title>Node3&#45;&gt;Node4</title>
<g id="a_edge3_Node000003_Node000004"><a xlink:title=" ">
<path fill="none" stroke="#63b8ff" d="M231.47,-100.62C236.88,-91.89 243.08,-81.89 247.43,-74.86"/>
<polygon fill="#63b8ff" stroke="#63b8ff" points="228.54,-98.7 226.25,-109.05 234.49,-102.39 228.54,-98.7"/>
</a>
</g>
</g>
<!-- Node3&#45;&gt;Node5 -->
<g id="edge5_Node000003_Node000005" class="edge">
<title>Node3&#45;&gt;Node5</title>
<g id="a_edge5_Node000003_Node000005"><a xlink:title=" ">
<path fill="none" stroke="#63b8ff" d="M206.41,-100.84C201.48,-93.12 196.51,-83.78 194,-74.5 188.67,-54.76 200.12,-31.97 207.8,-19.66"/>
<polygon fill="#63b8ff" stroke="#63b8ff" points="203.45,-102.71 212.01,-108.95 209.21,-98.73 203.45,-102.71"/>
</a>
</g>
</g>
<!-- Node4&#45;&gt;Node5 -->
<g id="edge4_Node000004_Node000005" class="edge">
<title>Node4&#45;&gt;Node5</title>
<g id="a_edge4_Node000004_Node000005"><a xlink:title=" ">
<path fill="none" stroke="#63b8ff" d="M239.86,-45.94C233.38,-37.09 225.84,-26.79 220.58,-19.61"/>
<polygon fill="#63b8ff" stroke="#63b8ff" points="236.93,-47.86 245.67,-53.86 242.58,-43.73 236.93,-47.86"/>
</a>
</g>
</g>
<!-- Node6&#45;&gt;Node2 -->
<g id="edge9_Node000006_Node000002" class="edge">
<title>Node6&#45;&gt;Node2</title>
<g id="a_edge9_Node000006_Node000002"><a xlink:title=" ">
<path fill="none" stroke="#63b8ff" d="M102.48,-213.41C113.6,-204.17 127.1,-192.93 136.3,-185.27"/>
<polygon fill="#63b8ff" stroke="#63b8ff" points="100.47,-210.54 95.02,-219.62 104.95,-215.92 100.47,-210.54"/>
</a>
</g>
</g>
<!-- Node6&#45;&gt;Node5 -->
<g id="edge10_Node000006_Node000005" class="edge">
<title>Node6&#45;&gt;Node5</title>
<g id="a_edge10_Node000006_Node000005"><a xlink:title=" ">
<path fill="none" stroke="#63b8ff" d="M68.83,-211.61C60.61,-198.92 52.81,-181.45 58,-165.75 77.19,-107.68 94.74,-96.37 140,-55.25 156.54,-40.22 178.9,-27.57 194.69,-19.62"/>
<polygon fill="#63b8ff" stroke="#63b8ff" points="65.74,-213.3 74.4,-219.41 71.44,-209.24 65.74,-213.3"/>
</a>
</g>
</g>
<!-- Node7&#45;&gt;Node5 -->
<g id="edge22_Node000007_Node000005" class="edge">
<title>Node7&#45;&gt;Node5</title>
<g id="a_edge22_Node000007_Node000005"><a xlink:title=" ">
<path fill="none" stroke="#63b8ff" d="M579.68,-271.06C594.37,-263.88 610.32,-253.73 621,-240.25 639.4,-217.04 640,-205.99 640,-176.38 640,-176.38 640,-176.38 640,-119.12 640,-43.85 387.09,-20.16 271.01,-13.25"/>
<polygon fill="#63b8ff" stroke="#63b8ff" points="578.33,-267.83 570.67,-275.15 581.22,-274.2 578.33,-267.83"/>
</a>
</g>
</g>
<!-- Node8 -->
<g id="Node000008" class="node">
<title>Node8</title>
<g id="a_Node000008"><a xlink:href="../../d5/d8a/_expectation_8hpp.html" target="_top" xlink:title=" ">
<polygon fill="white" stroke="#666666" points="319.75,-240.25 194.25,-240.25 194.25,-221 319.75,-221 319.75,-240.25"/>
<text text-anchor="middle" x="257" y="-226.75" font-family="Helvetica,sans-Serif" font-size="10.00">mimic++/Expectation.hpp</text>
</a>
</g>
</g>
<!-- Node7&#45;&gt;Node8 -->
<g id="edge12_Node000007_Node000008" class="edge">
<title>Node7&#45;&gt;Node8</title>
<g id="a_edge12_Node000007_Node000008"><a xlink:title=" ">
<path fill="none" stroke="#63b8ff" d="M482.95,-273.69C430.27,-263.89 354.62,-249.8 305.64,-240.68"/>
<polygon fill="#63b8ff" stroke="#63b8ff" points="482.2,-277.11 492.67,-275.5 483.48,-270.23 482.2,-277.11"/>
</a>
</g>
</g>
<!-- Node7&#45;&gt;Node9 -->
<g id="edge17_Node000007_Node000009" class="edge">
<title>Node7&#45;&gt;Node9</title>
<g id="a_edge17_Node000007_Node000009"><a xlink:title=" ">
<path fill="none" stroke="#63b8ff" d="M507.49,-271.92C480.98,-262.25 445.42,-249.29 421.89,-240.7"/>
<polygon fill="#63b8ff" stroke="#63b8ff" points="506.22,-275.18 516.81,-275.32 508.62,-268.61 506.22,-275.18"/>
</a>
</g>
</g>
<!-- Node10 -->
<g id="Node000010" class="node">
<title>Node10</title>
<g id="a_Node000010"><a xlink:href="../../d9/d42/_boost_test_8hpp.html" target="_top" xlink:title=" ">
<polygon fill="white" stroke="#666666" points="828.38,-240.25 667.62,-240.25 667.62,-221 828.38,-221 828.38,-240.25"/>
<text text-anchor="middle" x="748" y="-226.75" font-family="Helvetica,sans-Serif" font-size="10.00">mimic++/adapters/BoostTest.hpp</text>
</a>
</g>
</g>
<!-- Node7&#45;&gt;Node10 -->
<g id="edge19_Node000007_Node000010" class="edge">
<title>Node7&#45;&gt;Node10</title>
<g id="a_edge19_Node000007_Node000010"><a xlink:title=" ">
<path fill="none" stroke="#63b8ff" d="M588.44,-273.07C626.04,-263.3 678.68,-249.63 713.05,-240.7"/>
<polygon fill="#63b8ff" stroke="#63b8ff" points="588.04,-269.56 579.24,-275.46 589.8,-276.33 588.04,-269.56"/>
</a>
</g>
</g>
<!-- Node11 -->
<g id="Node000011" class="node">
<title>Node11</title>
<g id="a_Node000011"><a xlink:href="../../d3/d04/_catch2_8hpp.html" target="_top" xlink:title=" ">
<polygon fill="white" stroke="#666666" points="993.25,-240.25 846.75,-240.25 846.75,-221 993.25,-221 993.25,-240.25"/>
<text text-anchor="middle" x="920" y="-226.75" font-family="Helvetica,sans-Serif" font-size="10.00">mimic++/adapters/Catch2.hpp</text>
</a>
</g>
</g>
<!-- Node7&#45;&gt;Node11 -->
<g id="edge20_Node000007_Node000011" class="edge">
<title>Node7&#45;&gt;Node11</title>
<g id="a_edge20_Node000007_Node000011"><a xlink:title=" ">
<path fill="none" stroke="#63b8ff" d="M610.67,-275.32C680.11,-265.51 787.36,-250.36 855.58,-240.72"/>
<polygon fill="#63b8ff" stroke="#63b8ff" points="610.35,-271.83 600.94,-276.69 611.33,-278.76 610.35,-271.83"/>
</a>
</g>
</g>
<!-- Node12 -->
<g id="Node000012" class="node">
<title>Node12</title>
<g id="a_Node000012"><a xlink:href="../../d5/db1/gtest_8hpp.html" target="_top" xlink:title=" ">
<polygon fill="white" stroke="#666666" points="611.75,-240.25 474.25,-240.25 474.25,-221 611.75,-221 611.75,-240.25"/>
<text text-anchor="middle" x="543" y="-226.75" font-family="Helvetica,sans-Serif" font-size="10.00">mimic++/adapters/gtest.hpp</text>
</a>
</g>
</g>
<!-- Node7&#45;&gt;Node12 -->
<g id="edge21_Node000007_Node000012" class="edge">
<title>Node7&#45;&gt;Node12</title>
<g id="a_edge21_Node000007_Node000012"><a xlink:title=" ">
<path fill="none" stroke="#63b8ff" d="M543,-264.63C543,-256.34 543,-247.17 543,-240.61"/>
<polygon fill="#63b8ff" stroke="#63b8ff" points="539.5,-264.57 543,-274.57 546.5,-264.57 539.5,-264.57"/>
</a>
</g>
</g>
<!-- Node8&#45;&gt;Node2 -->
<g id="edge14_Node000008_Node000002" class="edge">
<title>Node8&#45;&gt;Node2</title>
<g id="a_edge14_Node000008_Node000002"><a xlink:title=" ">
<path fill="none" stroke="#63b8ff" d="M228.08,-215.62C208.37,-206.08 182.85,-193.73 165.75,-185.45"/>
<polygon fill="#63b8ff" stroke="#63b8ff" points="226.45,-218.73 236.98,-219.93 229.5,-212.42 226.45,-218.73"/>
</a>
</g>
</g>
<!-- Node8&#45;&gt;Node3 -->
<g id="edge13_Node000008_Node000003" class="edge">
<title>Node8&#45;&gt;Node3</title>
<g id="a_edge13_Node000008_Node000003"><a xlink:title=" ">
<path fill="none" stroke="#63b8ff" d="M250.64,-209.83C246.55,-197.19 241.06,-180.47 236,-165.75 231.72,-153.3 226.54,-138.98 223.26,-129.99"/>
<polygon fill="#63b8ff" stroke="#63b8ff" points="247.22,-210.62 253.62,-219.06 253.88,-208.47 247.22,-210.62"/>
</a>
</g>
</g>
<!-- Node8&#45;&gt;Node4 -->
<g id="edge15_Node000008_Node000004" class="edge">
<title>Node8&#45;&gt;Node4</title>
<g id="a_edge15_Node000008_Node000004"><a xlink:title=" ">
<path fill="none" stroke="#63b8ff" d="M273.63,-212.33C293.99,-188.97 323.79,-146.15 307,-110.5 299.54,-94.66 283.39,-82.52 270.68,-74.93"/>
<polygon fill="#63b8ff" stroke="#63b8ff" points="271.32,-209.67 267.18,-219.42 276.5,-214.38 271.32,-209.67"/>
</a>
</g>
</g>
<!-- Node8&#45;&gt;Node5 -->
<g id="edge16_Node000008_Node000005" class="edge">
<title>Node8&#45;&gt;Node5</title>
<g id="a_edge16_Node000008_Node000005"><a xlink:title=" ">
<path fill="none" stroke="#63b8ff" d="M283.51,-214.45C294.29,-206.95 305.87,-196.93 313,-185 330.13,-156.32 326.28,-143.75 323,-110.5 320.54,-85.58 327.55,-74.87 312,-55.25 297.72,-37.23 274.54,-26.22 254.31,-19.65"/>
<polygon fill="#63b8ff" stroke="#63b8ff" points="281.74,-211.43 275.25,-219.8 285.54,-217.3 281.74,-211.43"/>
</a>
</g>
</g>
<!-- Node9&#45;&gt;Node5 -->
<g id="edge18_Node000009_Node000005" class="edge">
<title>Node9&#45;&gt;Node5</title>
<g id="a_edge18_Node000009_Node000005"><a xlink:title=" ">
<path fill="none" stroke="#63b8ff" d="M394.6,-209.35C389.32,-173.54 373.49,-98.76 330,-55.25 311.85,-37.09 285.51,-26.17 262.51,-19.68"/>
<polygon fill="#63b8ff" stroke="#63b8ff" points="391.11,-209.7 395.9,-219.15 398.05,-208.78 391.11,-209.7"/>
</a>
</g>
</g>
</g>
</svg>

<g id="navigator" transform="translate(0 0)" fill="#404254">
  <rect fill="#f2f5e9" fill-opacity="0.5" stroke="#606060" stroke-width=".5" x="0" y="0" width="60" height="60"/>
  <use id="zoomplus" xlink:href="#zoomPlus" x="17" y="9" onmousedown="handleZoom(evt,'in')"/>
  <use id="zoomminus" xlink:href="#zoomMin" x="42" y="9" onmousedown="handleZoom(evt,'out')"/>
  <use id="reset" xlink:href="#resetDef" x="30" y="36" onmousedown="handleReset()"/>
   <use id="arrowup" xlink:href="#arrowUp" x="0" y="0" onmousedown="handlePan(0,-1)"/>
  <use id="arrowright" xlink:href="#arrowRight" x="0" y="0" onmousedown="handlePan(1,0)"/>
  <use id="arrowdown" xlink:href="#arrowDown" x="0" y="0" onmousedown="handlePan(0,1)"/>
  <use id="arrowleft" xlink:href="#arrowLeft" x="0" y="0" onmousedown="handlePan(-1,0)"/>
</g>
<svg viewBox="0 0 15 15" width="100%" height="30px" preserveAspectRatio="xMaxYMin meet">
 <g id="arrow_out" transform="scale(0.3 0.3)">
  <a xlink:href="_printer_8hpp__dep__incl_org.svg" target="_base">
   <rect id="button" ry="5" rx="5" y="6" x="6" height="38" width="38"
        fill="#f2f5e9" fill-opacity="0.5" stroke="#606060" stroke-width="1.0"/>
   <path id="arrow"
     d="M 11.500037,31.436501 C 11.940474,20.09759 22.043105,11.32322 32.158766,21.979434 L 37.068811,17.246167 C 37.068811,17.246167 37.088388,32 37.088388,32 L 22.160133,31.978069 C 22.160133,31.978069 26.997745,27.140456 26.997745,27.140456 C 18.528582,18.264221 13.291696,25.230495 11.500037,31.436501 z"
     style="fill:#404040;"/>
  </a>
 </g>
</svg>

<style type='text/css'>
<![CDATA[
[data-mouse-over-selected='false'] { opacity: 0.7; }
[data-mouse-over-selected='true']  { opacity: 1.0; }
]]>
</style>
<script type="application/ecmascript"><![CDATA[
document.addEventListener('DOMContentLoaded', (event) => {
  highlightEdges();
  highlightAdjacentNodes();
});
]]></script>
</svg>
