<?xml version="1.0" encoding="UTF-8" standalone="no"?>
<!DOCTYPE svg PUBLIC "-//W3C//DTD SVG 1.1//EN"
 "http://www.w3.org/Graphics/SVG/1.1/DTD/svg11.dtd">
<!-- Generated by graphviz version 9.0.0 (20230911.1827)
 -->
<!-- Title: mimic++/TypeTraits.hpp Pages: 1 -->
<svg width="549pt" height="359pt"
 viewBox="0.00 0.00 548.62 358.75" xmlns="http://www.w3.org/2000/svg" xmlns:xlink="http://www.w3.org/1999/xlink">
<g id="graph0" class="graph" transform="scale(1 1) rotate(0) translate(4 354.75)">
<title>mimic++/TypeTraits.hpp</title>
<!-- Node1 -->
<g id="Node000001" class="node">
<title>Node1</title>
<g id="a_Node000001"><a xlink:title=" ">
<polygon fill="#999999" stroke="#666666" points="273.88,-350.75 152.88,-350.75 152.88,-331.5 273.88,-331.5 273.88,-350.75"/>
<text text-anchor="middle" x="213.38" y="-337.25" font-family="Helvetica,sans-Serif" font-size="10.00">mimic++/TypeTraits.hpp</text>
</a>
</g>
</g>
<!-- Node2 -->
<g id="Node000002" class="node">
<title>Node2</title>
<g id="a_Node000002"><a xlink:href="../../dc/d44/_call_8hpp.html" target="_top" xlink:title=" ">
<polygon fill="white" stroke="#666666" points="296.25,-295.5 204.5,-295.5 204.5,-276.25 296.25,-276.25 296.25,-295.5"/>
<text text-anchor="middle" x="250.38" y="-282" font-family="Helvetica,sans-Serif" font-size="10.00">mimic++/Call.hpp</text>
</a>
</g>
</g>
<!-- Node1&#45;&gt;Node2 -->
<g id="edge1_Node000001_Node000002" class="edge">
<title>Node1&#45;&gt;Node2</title>
<g id="a_edge1_Node000001_Node000002"><a xlink:title=" ">
<path fill="none" stroke="#63b8ff" d="M226.04,-321.9C232.14,-313.11 239.2,-302.96 244.13,-295.86"/>
<polygon fill="#63b8ff" stroke="#63b8ff" points="223.18,-319.88 220.35,-330.09 228.93,-323.87 223.18,-319.88"/>
</a>
</g>
</g>
<!-- Node3 -->
<g id="Node000003" class="node">
<title>Node3</title>
<g id="a_Node000003"><a xlink:href="../../d5/d8a/_expectation_8hpp.html" target="_top" xlink:title=" ">
<polygon fill="white" stroke="#666666" points="239.12,-185 113.62,-185 113.62,-165.75 239.12,-165.75 239.12,-185"/>
<text text-anchor="middle" x="176.38" y="-171.5" font-family="Helvetica,sans-Serif" font-size="10.00">mimic++/Expectation.hpp</text>
</a>
</g>
</g>
<!-- Node1&#45;&gt;Node3 -->
<g id="edge16_Node000001_Node000003" class="edge">
<title>Node1&#45;&gt;Node3</title>
<g id="a_edge16_Node000001_Node000003"><a xlink:title=" ">
<path fill="none" stroke="#63b8ff" d="M204.42,-320.67C201.17,-312.96 197.72,-303.95 195.38,-295.5 184.23,-255.34 178.93,-205.63 177.12,-185.49"/>
<polygon fill="#63b8ff" stroke="#63b8ff" points="201.17,-321.99 208.42,-329.72 207.58,-319.16 201.17,-321.99"/>
</a>
</g>
</g>
<!-- Node2&#45;&gt;Node3 -->
<g id="edge2_Node000002_Node000003" class="edge">
<title>Node2&#45;&gt;Node3</title>
<g id="a_edge2_Node000002_Node000003"><a xlink:title=" ">
<path fill="none" stroke="#63b8ff" d="M238.04,-266.79C222.02,-243.3 194.67,-203.2 182.51,-185.38"/>
<polygon fill="#63b8ff" stroke="#63b8ff" points="234.94,-268.46 243.47,-274.75 240.72,-264.51 234.94,-268.46"/>
</a>
</g>
</g>
<!-- Node8 -->
<g id="Node000008" class="node">
<title>Node8</title>
<g id="a_Node000008"><a xlink:href="../../da/dd9/_reporter_8hpp.html" target="_top" xlink:title=" ">
<polygon fill="white" stroke="#666666" points="367.38,-240.25 255.38,-240.25 255.38,-221 367.38,-221 367.38,-240.25"/>
<text text-anchor="middle" x="311.38" y="-226.75" font-family="Helvetica,sans-Serif" font-size="10.00">mimic++/Reporter.hpp</text>
</a>
</g>
</g>
<!-- Node2&#45;&gt;Node8 -->
<g id="edge12_Node000002_Node000008" class="edge">
<title>Node2&#45;&gt;Node8</title>
<g id="a_edge12_Node000002_Node000008"><a xlink:title=" ">
<path fill="none" stroke="#63b8ff" d="M269.26,-268.39C279.8,-259.19 292.5,-248.1 301.18,-240.52"/>
<polygon fill="#63b8ff" stroke="#63b8ff" points="267.09,-265.63 261.86,-274.85 271.7,-270.91 267.09,-265.63"/>
</a>
</g>
</g>
<!-- Node4 -->
<g id="Node000004" class="node">
<title>Node4</title>
<g id="a_Node000004"><a xlink:href="../../d3/d4c/_complex_mock_8hpp.html" target="_top" xlink:title=" ">
<polygon fill="white" stroke="#666666" points="136.75,-19.25 0,-19.25 0,0 136.75,0 136.75,-19.25"/>
<text text-anchor="middle" x="68.38" y="-5.75" font-family="Helvetica,sans-Serif" font-size="10.00">mimic++/ComplexMock.hpp</text>
</a>
</g>
</g>
<!-- Node3&#45;&gt;Node4 -->
<g id="edge3_Node000003_Node000004" class="edge">
<title>Node3&#45;&gt;Node4</title>
<g id="a_edge3_Node000003_Node000004"><a xlink:title=" ">
<path fill="none" stroke="#63b8ff" d="M102.37,-169C76.29,-163.11 49.49,-151.66 33.38,-129.75 7.58,-94.67 44.28,-40.78 60.92,-19.61"/>
<polygon fill="#63b8ff" stroke="#63b8ff" points="101.49,-172.39 111.98,-170.9 102.85,-165.53 101.49,-172.39"/>
</a>
</g>
</g>
<!-- Node5 -->
<g id="Node000005" class="node">
<title>Node5</title>
<g id="a_Node000005"><a xlink:href="../../d2/d4f/_expectation_builder_8hpp.html" target="_top" xlink:title=" ">
<polygon fill="white" stroke="#666666" points="290.12,-74.5 134.62,-74.5 134.62,-55.25 290.12,-55.25 290.12,-74.5"/>
<text text-anchor="middle" x="212.38" y="-61" font-family="Helvetica,sans-Serif" font-size="10.00">mimic++/ExpectationBuilder.hpp</text>
</a>
</g>
</g>
<!-- Node3&#45;&gt;Node5 -->
<g id="edge4_Node000003_Node000005" class="edge">
<title>Node3&#45;&gt;Node5</title>
<g id="a_edge4_Node000003_Node000005"><a xlink:title=" ">
<path fill="none" stroke="#63b8ff" d="M194.11,-157.24C200.85,-149.54 207.78,-139.91 211.38,-129.75 217.97,-111.14 215.87,-87.53 213.99,-74.87"/>
<polygon fill="#63b8ff" stroke="#63b8ff" points="191.59,-154.81 187.25,-164.48 196.67,-159.63 191.59,-154.81"/>
</a>
</g>
</g>
<!-- Node6 -->
<g id="Node000006" class="node">
<title>Node6</title>
<g id="a_Node000006"><a xlink:href="../../d5/dc5/_mock_8hpp.html" target="_top" xlink:title=" ">
<polygon fill="white" stroke="#666666" points="262,-19.25 162.75,-19.25 162.75,0 262,0 262,-19.25"/>
<text text-anchor="middle" x="212.38" y="-5.75" font-family="Helvetica,sans-Serif" font-size="10.00">mimic++/Mock.hpp</text>
</a>
</g>
</g>
<!-- Node3&#45;&gt;Node6 -->
<g id="edge11_Node000003_Node000006" class="edge">
<title>Node3&#45;&gt;Node6</title>
<g id="a_edge11_Node000003_Node000006"><a xlink:title=" ">
<path fill="none" stroke="#63b8ff" d="M206.25,-160.11C236.1,-144.01 280.23,-114.71 299.38,-74.5 312.14,-47.69 275.75,-29.59 246.18,-19.69"/>
<polygon fill="#63b8ff" stroke="#63b8ff" points="204.95,-156.84 197.69,-164.56 208.18,-163.05 204.95,-156.84"/>
</a>
</g>
</g>
<!-- Node7 -->
<g id="Node000007" class="node">
<title>Node7</title>
<g id="a_Node000007"><a xlink:href="../../d8/de5/_expectation_policies_8hpp.html" target="_top" xlink:title=" ">
<polygon fill="white" stroke="#666666" points="202.38,-129.75 42.38,-129.75 42.38,-110.5 202.38,-110.5 202.38,-129.75"/>
<text text-anchor="middle" x="122.38" y="-116.25" font-family="Helvetica,sans-Serif" font-size="10.00">mimic++/ExpectationPolicies.hpp</text>
</a>
</g>
</g>
<!-- Node3&#45;&gt;Node7 -->
<g id="edge7_Node000003_Node000007" class="edge">
<title>Node3&#45;&gt;Node7</title>
<g id="a_edge7_Node000003_Node000007"><a xlink:title=" ">
<path fill="none" stroke="#63b8ff" d="M159.34,-157.57C150.11,-148.48 139.08,-137.6 131.49,-130.11"/>
<polygon fill="#63b8ff" stroke="#63b8ff" points="156.8,-159.99 166.38,-164.52 161.72,-155.01 156.8,-159.99"/>
</a>
</g>
</g>
<!-- Node5&#45;&gt;Node4 -->
<g id="edge5_Node000005_Node000004" class="edge">
<title>Node5&#45;&gt;Node4</title>
<g id="a_edge5_Node000005_Node000004"><a xlink:title=" ">
<path fill="none" stroke="#63b8ff" d="M177.35,-50.92C151.2,-41.25 116.13,-28.29 92.92,-19.7"/>
<polygon fill="#63b8ff" stroke="#63b8ff" points="175.93,-54.13 186.53,-54.32 178.36,-47.57 175.93,-54.13"/>
</a>
</g>
</g>
<!-- Node5&#45;&gt;Node6 -->
<g id="edge6_Node000005_Node000006" class="edge">
<title>Node5&#45;&gt;Node6</title>
<g id="a_edge6_Node000005_Node000006"><a xlink:title=" ">
<path fill="none" stroke="#63b8ff" d="M212.38,-43.63C212.38,-35.34 212.38,-26.17 212.38,-19.61"/>
<polygon fill="#63b8ff" stroke="#63b8ff" points="208.88,-43.57 212.38,-53.57 215.88,-43.57 208.88,-43.57"/>
</a>
</g>
</g>
<!-- Node7&#45;&gt;Node4 -->
<g id="edge8_Node000007_Node000004" class="edge">
<title>Node7&#45;&gt;Node4</title>
<g id="a_edge8_Node000007_Node000004"><a xlink:title=" ">
<path fill="none" stroke="#63b8ff" d="M108.8,-101.01C103.26,-93.13 97.07,-83.62 92.38,-74.5 82.72,-55.75 74.89,-32.2 71.01,-19.58"/>
<polygon fill="#63b8ff" stroke="#63b8ff" points="105.93,-103.02 114.63,-109.05 111.59,-98.9 105.93,-103.02"/>
</a>
</g>
</g>
<!-- Node7&#45;&gt;Node5 -->
<g id="edge9_Node000007_Node000005" class="edge">
<title>Node7&#45;&gt;Node5</title>
<g id="a_edge9_Node000007_Node000005"><a xlink:title=" ">
<path fill="none" stroke="#63b8ff" d="M147.39,-104.32C163.32,-94.9 183.43,-83 197.03,-74.95"/>
<polygon fill="#63b8ff" stroke="#63b8ff" points="145.77,-101.22 138.94,-109.32 149.33,-107.24 145.77,-101.22"/>
</a>
</g>
</g>
<!-- Node7&#45;&gt;Node6 -->
<g id="edge10_Node000007_Node000006" class="edge">
<title>Node7&#45;&gt;Node6</title>
<g id="a_edge10_Node000007_Node000006"><a xlink:title=" ">
<path fill="none" stroke="#63b8ff" d="M118.36,-98.67C116.87,-85.28 117.18,-67.98 125.38,-55.25 136.86,-37.41 157.87,-26.35 176.37,-19.71"/>
<polygon fill="#63b8ff" stroke="#63b8ff" points="114.9,-99.19 119.92,-108.53 121.82,-98.1 114.9,-99.19"/>
</a>
</g>
</g>
<!-- Node8&#45;&gt;Node3 -->
<g id="edge13_Node000008_Node000003" class="edge">
<title>Node8&#45;&gt;Node3</title>
<g id="a_edge13_Node000008_Node000003"><a xlink:title=" ">
<path fill="none" stroke="#63b8ff" d="M277.88,-216.41C253.44,-206.77 220.95,-193.96 199.39,-185.45"/>
<polygon fill="#63b8ff" stroke="#63b8ff" points="276.48,-219.62 287.07,-220.04 279.05,-213.11 276.48,-219.62"/>
</a>
</g>
</g>
<!-- Node9 -->
<g id="Node000009" class="node">
<title>Node9</title>
<g id="a_Node000009"><a xlink:href="../../d8/de4/_sequence_8hpp.html" target="_top" xlink:title=" ">
<polygon fill="white" stroke="#666666" points="375.75,-185 257,-185 257,-165.75 375.75,-165.75 375.75,-185"/>
<text text-anchor="middle" x="316.38" y="-171.5" font-family="Helvetica,sans-Serif" font-size="10.00">mimic++/Sequence.hpp</text>
</a>
</g>
</g>
<!-- Node8&#45;&gt;Node9 -->
<g id="edge14_Node000008_Node000009" class="edge">
<title>Node8&#45;&gt;Node9</title>
<g id="a_edge14_Node000008_Node000009"><a xlink:title=" ">
<path fill="none" stroke="#63b8ff" d="M313.28,-209.38C314.05,-201.09 314.92,-191.92 315.53,-185.36"/>
<polygon fill="#63b8ff" stroke="#63b8ff" points="309.79,-209.04 312.34,-219.32 316.76,-209.7 309.79,-209.04"/>
</a>
</g>
</g>
<!-- Node10 -->
<g id="Node000010" class="node">
<title>Node10</title>
<g id="a_Node000010"><a xlink:href="../../d3/d04/_catch2_8hpp.html" target="_top" xlink:title=" ">
<polygon fill="white" stroke="#666666" points="540.62,-185 394.12,-185 394.12,-165.75 540.62,-165.75 540.62,-185"/>
<text text-anchor="middle" x="467.38" y="-171.5" font-family="Helvetica,sans-Serif" font-size="10.00">mimic++/adapters/Catch2.hpp</text>
</a>
</g>
</g>
<!-- Node8&#45;&gt;Node10 -->
<g id="edge15_Node000008_Node000010" class="edge">
<title>Node8&#45;&gt;Node10</title>
<g id="a_edge15_Node000008_Node000010"><a xlink:title=" ">
<path fill="none" stroke="#63b8ff" d="M348.56,-216.93C376.96,-207.24 415.41,-194.11 440.78,-185.45"/>
<polygon fill="#63b8ff" stroke="#63b8ff" points="347.6,-213.56 339.27,-220.1 349.87,-220.18 347.6,-213.56"/>
</a>
</g>
</g>
</g>
</svg>
