<?xml version="1.0" encoding="UTF-8" standalone="no"?>
<!DOCTYPE svg PUBLIC "-//W3C//DTD SVG 1.1//EN"
 "http://www.w3.org/Graphics/SVG/1.1/DTD/svg11.dtd">
<!-- Generated by graphviz version 12.1.2 (20240928.0832)
 -->
<!-- Title: mimic++/TypeTraits.hpp Pages: 1 -->
<!--zoomable 635 -->

<svg id="main" version="1.1" xmlns="http://www.w3.org/2000/svg" xmlns:xlink="http://www.w3.org/1999/xlink" xml:space="preserve" onload="init(evt)">

<style type="text/css"><![CDATA[
.node, .edge {opacity: 0.7;}
.node.selected, .edge.selected {opacity: 1;}
.edge:hover path { stroke: red; }
.edge:hover polygon { stroke: red; fill: red; }
]]></style>

<defs>
  <circle id="rim" cx="0" cy="0" r="7"/>
  <circle id="rim2" cx="0" cy="0" r="3.5"/>
  <g id="zoomPlus">
    <use xlink:href="#rim" fill="#404040"><set attributeName="fill" to="#808080" begin="zoomplus.mouseover" end="zoomplus.mouseout"/></use>
    <path d="M-4,0h8M0,-4v8" fill="none" stroke="white" stroke-width="1.5" pointer-events="none"/>
  </g>
  <g id="zoomMin">
    <use xlink:href="#rim" fill="#404040"><set attributeName="fill" to="#808080" begin="zoomminus.mouseover" end="zoomminus.mouseout"/></use>
    <path d="M-4,0h8" fill="none" stroke="white" stroke-width="1.5" pointer-events="none"/>
  </g>
  <g id="arrowUp" transform="translate(30 24)">
    <use xlink:href="#rim"/>
    <path pointer-events="none" fill="none" stroke="white" stroke-width="1.5" d="M0,-3.0v7 M-2.5,-0.5L0,-3.0L2.5,-0.5"/>
  </g>
  <g id="arrowRight" transform="rotate(90) translate(36 -43)">
    <use xlink:href="#rim"/>
    <path pointer-events="none" fill="none" stroke="white" stroke-width="1.5" d="M0,-3.0v7 M-2.5,-0.5L0,-3.0L2.5,-0.5"/>
  </g>
  <g id="arrowDown" transform="rotate(180) translate(-30 -48)">
    <use xlink:href="#rim"/>
    <path pointer-events="none" fill="none" stroke="white" stroke-width="1.5" d="M0,-3.0v7 M-2.5,-0.5L0,-3.0L2.5,-0.5"/>
  </g>
  <g id="arrowLeft" transform="rotate(270) translate(-36 17)">
    <use xlink:href="#rim"/>
    <path pointer-events="none" fill="none" stroke="white" stroke-width="1.5" d="M0,-3.0v7 M-2.5,-0.5L0,-3.0L2.5,-0.5"/>
  </g>
  <g id="resetDef">
    <use xlink:href="#rim2" fill="#404040"><set attributeName="fill" to="#808080" begin="reset.mouseover" end="reset.mouseout"/></use>
  </g>
</defs>
<script type="application/ecmascript">
var viewWidth = 1068;
var viewHeight = 635;
var sectionId = 'dynsection-1';
</script>
<script type="application/ecmascript" xlink:href="../../svg.min.js"/>
<svg id="graph" class="graph">
<g id="viewport">
<title>mimic++/TypeTraits.hpp</title>
<!-- Node1 -->
<g id="Node000001" class="node">
<title>Node1</title>
<g id="a_Node000001"><a xlink:title=" ">
<polygon fill="#999999" stroke="#666666" points="247.5,-627 126.5,-627 126.5,-607.75 247.5,-607.75 247.5,-627"/>
<text text-anchor="middle" x="187" y="-613.5" font-family="Helvetica,sans-Serif" font-size="10.00">mimic++/TypeTraits.hpp</text>
</a>
</g>
</g>
<!-- Node2 -->
<g id="Node000002" class="node">
<title>Node2</title>
<g id="a_Node000002"><a xlink:href="../../dc/d44/_call_8hpp.html" target="_top" xlink:title=" ">
<polygon fill="white" stroke="#666666" points="232.88,-571.75 141.12,-571.75 141.12,-552.5 232.88,-552.5 232.88,-571.75"/>
<text text-anchor="middle" x="187" y="-558.25" font-family="Helvetica,sans-Serif" font-size="10.00">mimic++/Call.hpp</text>
</a>
</g>
</g>
<!-- Node1&#45;&gt;Node2 -->
<g id="edge1_Node000001_Node000002" class="edge">
<title>Node1&#45;&gt;Node2</title>
<g id="a_edge1_Node000001_Node000002"><a xlink:title=" ">
<path fill="none" stroke="#63b8ff" d="M187,-596.13C187,-587.84 187,-578.67 187,-572.11"/>
<polygon fill="#63b8ff" stroke="#63b8ff" points="183.5,-596.07 187,-606.07 190.5,-596.07 183.5,-596.07"/>
</a>
</g>
</g>
<!-- Node3 -->
<g id="Node000003" class="node">
<title>Node3</title>
<g id="a_Node000003"><a xlink:href="../../d5/d8a/_expectation_8hpp.html" target="_top" xlink:title=" ">
<polygon fill="white" stroke="#666666" points="372.75,-295.5 247.25,-295.5 247.25,-276.25 372.75,-276.25 372.75,-295.5"/>
<text text-anchor="middle" x="310" y="-282" font-family="Helvetica,sans-Serif" font-size="10.00">mimic++/Expectation.hpp</text>
</a>
</g>
</g>
<!-- Node1&#45;&gt;Node3 -->
<g id="edge35_Node000001_Node000003" class="edge">
<title>Node1&#45;&gt;Node3</title>
<g id="a_edge35_Node000001_Node000003"><a xlink:title=" ">
<path fill="none" stroke="#63b8ff" d="M159.49,-601.35C148.84,-593.96 137.83,-583.99 132,-571.75 128.32,-564.03 130,-560.82 132,-552.5 157.83,-445.25 172.18,-414.37 245,-331.5 258.37,-316.28 278.01,-303.74 292.19,-295.87"/>
<polygon fill="#63b8ff" stroke="#63b8ff" points="157.41,-604.18 167.73,-606.59 161.16,-598.27 157.41,-604.18"/>
</a>
</g>
</g>
<!-- Node7 -->
<g id="Node000007" class="node">
<title>Node7</title>
<g id="a_Node000007"><a xlink:href="../../d0/db9/mimic_09_09_8hpp.html" target="_top" xlink:title=" ">
<polygon fill="white" stroke="#666666" points="484.75,-19.25 371.25,-19.25 371.25,0 484.75,0 484.75,-19.25"/>
<text text-anchor="middle" x="428" y="-5.75" font-family="Helvetica,sans-Serif" font-size="10.00">mimic++/mimic++.hpp</text>
</a>
</g>
</g>
<!-- Node1&#45;&gt;Node7 -->
<g id="edge46_Node000001_Node000007" class="edge">
<title>Node1&#45;&gt;Node7</title>
<g id="a_edge46_Node000001_Node000007"><a xlink:title=" ">
<path fill="none" stroke="#63b8ff" d="M116.21,-604.64C63.27,-591.35 0,-563.77 0,-507.88 0,-507.88 0,-507.88 0,-119.12 0,-80.18 25.25,-72.84 60,-55.25 113.11,-28.36 281.64,-17.03 371.04,-12.81"/>
<polygon fill="#63b8ff" stroke="#63b8ff" points="115.31,-608.03 125.84,-606.92 116.92,-601.21 115.31,-608.03"/>
</a>
</g>
</g>
<!-- Node17 -->
<g id="Node000017" class="node">
<title>Node17</title>
<g id="a_Node000017"><a xlink:href="../../dd/d50/_matcher_8hpp.html" target="_top" xlink:title=" ">
<polygon fill="white" stroke="#666666" points="1032.25,-461.25 921.75,-461.25 921.75,-442 1032.25,-442 1032.25,-461.25"/>
<text text-anchor="middle" x="977" y="-447.75" font-family="Helvetica,sans-Serif" font-size="10.00">mimic++/Matcher.hpp</text>
</a>
</g>
</g>
<!-- Node1&#45;&gt;Node17 -->
<g id="edge36_Node000001_Node000017" class="edge">
<title>Node1&#45;&gt;Node17</title>
<g id="a_edge36_Node000001_Node000017"><a xlink:title=" ">
<path fill="none" stroke="#63b8ff" d="M259.38,-615.88C432.26,-614.16 858.91,-606.39 913,-571.75 953.73,-545.67 970.35,-484.43 975.29,-461.5"/>
<polygon fill="#63b8ff" stroke="#63b8ff" points="259.35,-612.38 249.38,-615.98 259.42,-619.38 259.35,-612.38"/>
</a>
</g>
</g>
<!-- Node18 -->
<g id="Node000018" class="node">
<title>Node18</title>
<g id="a_Node000018"><a xlink:href="../../da/dab/_printer_8hpp.html" target="_top" xlink:title=" ">
<polygon fill="white" stroke="#666666" points="903.88,-571.75 800.12,-571.75 800.12,-552.5 903.88,-552.5 903.88,-571.75"/>
<text text-anchor="middle" x="852" y="-558.25" font-family="Helvetica,sans-Serif" font-size="10.00">mimic++/Printer.hpp</text>
</a>
</g>
</g>
<!-- Node1&#45;&gt;Node18 -->
<g id="edge39_Node000001_Node000018" class="edge">
<title>Node1&#45;&gt;Node18</title>
<g id="a_edge39_Node000001_Node000018"><a xlink:title=" ">
<path fill="none" stroke="#63b8ff" d="M259.19,-610.59C394.23,-599.78 682.06,-576.73 799.98,-567.29"/>
<polygon fill="#63b8ff" stroke="#63b8ff" points="258.97,-607.1 249.29,-611.39 259.53,-614.08 258.97,-607.1"/>
</a>
</g>
</g>
<!-- Node2&#45;&gt;Node3 -->
<g id="edge2_Node000002_Node000003" class="edge">
<title>Node2&#45;&gt;Node3</title>
<g id="a_edge2_Node000002_Node000003"><a xlink:title=" ">
<path fill="none" stroke="#63b8ff" d="M187.44,-540.84C189.3,-498.26 198.68,-398.02 245,-331.5 256.19,-315.44 275.16,-303.4 289.73,-295.89"/>
<polygon fill="#63b8ff" stroke="#63b8ff" points="183.95,-540.69 187.12,-550.8 190.94,-540.92 183.95,-540.69"/>
</a>
</g>
</g>
<!-- Node2&#45;&gt;Node7 -->
<g id="edge34_Node000002_Node000007" class="edge">
<title>Node2&#45;&gt;Node7</title>
<g id="a_edge34_Node000002_Node000007"><a xlink:title=" ">
<path fill="none" stroke="#63b8ff" d="M158.81,-546.64C115.62,-522.2 38,-468.39 38,-397.38 38,-397.38 38,-397.38 38,-119.12 38,-78.94 65.99,-73.1 102,-55.25 148.06,-32.41 290.52,-19.63 371.04,-14.05"/>
<polygon fill="#63b8ff" stroke="#63b8ff" points="156.95,-549.61 167.4,-551.35 160.32,-543.48 156.95,-549.61"/>
</a>
</g>
</g>
<!-- Node10 -->
<g id="Node000010" class="node">
<title>Node10</title>
<g id="a_Node000010"><a xlink:href="../../da/dd9/_reporter_8hpp.html" target="_top" xlink:title=" ">
<polygon fill="white" stroke="#666666" points="478,-461.25 366,-461.25 366,-442 478,-442 478,-461.25"/>
<text text-anchor="middle" x="422" y="-447.75" font-family="Helvetica,sans-Serif" font-size="10.00">mimic++/Reporter.hpp</text>
</a>
</g>
</g>
<!-- Node2&#45;&gt;Node10 -->
<g id="edge17_Node000002_Node000010" class="edge">
<title>Node2&#45;&gt;Node10</title>
<g id="a_edge17_Node000002_Node000010"><a xlink:title=" ">
<path fill="none" stroke="#63b8ff" d="M216.85,-547.34C265.61,-524.83 361.04,-480.77 402.26,-461.74"/>
<polygon fill="#63b8ff" stroke="#63b8ff" points="215.62,-544.06 208.01,-551.43 218.55,-550.41 215.62,-544.06"/>
</a>
</g>
</g>
<!-- Node16 -->
<g id="Node000016" class="node">
<title>Node16</title>
<g id="a_Node000016"><a xlink:href="../../d0/d3b/_reports_8hpp.html" target="_top" xlink:title=" ">
<polygon fill="white" stroke="#666666" points="476.5,-516.5 367.5,-516.5 367.5,-497.25 476.5,-497.25 476.5,-516.5"/>
<text text-anchor="middle" x="422" y="-503" font-family="Helvetica,sans-Serif" font-size="10.00">mimic++/Reports.hpp</text>
</a>
</g>
</g>
<!-- Node2&#45;&gt;Node16 -->
<g id="edge30_Node000002_Node000016" class="edge">
<title>Node2&#45;&gt;Node16</title>
<g id="a_edge30_Node000002_Node000016"><a xlink:title=" ">
<path fill="none" stroke="#63b8ff" d="M238.26,-549.51C281.45,-539.72 342.38,-525.92 382.03,-516.93"/>
<polygon fill="#63b8ff" stroke="#63b8ff" points="237.59,-546.07 228.61,-551.7 239.13,-552.9 237.59,-546.07"/>
</a>
</g>
</g>
<!-- Node4 -->
<g id="Node000004" class="node">
<title>Node4</title>
<g id="a_Node000004"><a xlink:href="../../d2/d4f/_expectation_builder_8hpp.html" target="_top" xlink:title=" ">
<polygon fill="white" stroke="#666666" points="650.75,-185 495.25,-185 495.25,-165.75 650.75,-165.75 650.75,-185"/>
<text text-anchor="middle" x="573" y="-171.5" font-family="Helvetica,sans-Serif" font-size="10.00">mimic++/ExpectationBuilder.hpp</text>
</a>
</g>
</g>
<!-- Node3&#45;&gt;Node4 -->
<g id="edge3_Node000003_Node000004" class="edge">
<title>Node3&#45;&gt;Node4</title>
<g id="a_edge3_Node000003_Node000004"><a xlink:title=" ">
<path fill="none" stroke="#63b8ff" d="M342.38,-271.52C396.63,-249.14 504.48,-204.64 550.91,-185.49"/>
<polygon fill="#63b8ff" stroke="#63b8ff" points="341.28,-268.18 333.37,-275.23 343.95,-274.66 341.28,-268.18"/>
</a>
</g>
</g>
<!-- Node5 -->
<g id="Node000005" class="node">
<title>Node5</title>
<g id="a_Node000005"><a xlink:href="../../d5/dc5/_mock_8hpp.html" target="_top" xlink:title=" ">
<polygon fill="white" stroke="#666666" points="574.62,-129.75 475.38,-129.75 475.38,-110.5 574.62,-110.5 574.62,-129.75"/>
<text text-anchor="middle" x="525" y="-116.25" font-family="Helvetica,sans-Serif" font-size="10.00">mimic++/Mock.hpp</text>
</a>
</g>
</g>
<!-- Node3&#45;&gt;Node5 -->
<g id="edge15_Node000003_Node000005" class="edge">
<title>Node3&#45;&gt;Node5</title>
<g id="a_edge15_Node000003_Node000005"><a xlink:title=" ">
<path fill="none" stroke="#63b8ff" d="M330.91,-268.95C375.4,-235.06 478.27,-156.71 513.17,-130.13"/>
<polygon fill="#63b8ff" stroke="#63b8ff" points="328.9,-266.08 323.07,-274.92 333.15,-271.65 328.9,-266.08"/>
</a>
</g>
</g>
<!-- Node3&#45;&gt;Node7 -->
<g id="edge16_Node000003_Node000007" class="edge">
<title>Node3&#45;&gt;Node7</title>
<g id="a_edge16_Node000003_Node000007"><a xlink:title=" ">
<path fill="none" stroke="#63b8ff" d="M308.2,-264.53C306.43,-242.74 304,-207.14 304,-176.38 304,-176.38 304,-176.38 304,-119.12 304,-88.8 307.21,-77.33 328,-55.25 344.68,-37.53 369.68,-26.38 390.51,-19.65"/>
<polygon fill="#63b8ff" stroke="#63b8ff" points="304.7,-264.71 309.04,-274.37 311.68,-264.11 304.7,-264.71"/>
</a>
</g>
</g>
<!-- Node9 -->
<g id="Node000009" class="node">
<title>Node9</title>
<g id="a_Node000009"><a xlink:href="../../d8/de5/_expectation_policies_8hpp.html" target="_top" xlink:title=" ">
<polygon fill="white" stroke="#666666" points="824,-240.25 664,-240.25 664,-221 824,-221 824,-240.25"/>
<text text-anchor="middle" x="744" y="-226.75" font-family="Helvetica,sans-Serif" font-size="10.00">mimic++/ExpectationPolicies.hpp</text>
</a>
</g>
</g>
<!-- Node3&#45;&gt;Node9 -->
<g id="edge11_Node000003_Node000009" class="edge">
<title>Node3&#45;&gt;Node9</title>
<g id="a_edge11_Node000003_Node000009"><a xlink:title=" ">
<path fill="none" stroke="#63b8ff" d="M384.05,-275.79C463.84,-266 590.1,-250.51 669.91,-240.72"/>
<polygon fill="#63b8ff" stroke="#63b8ff" points="384.11,-272.26 374.61,-276.95 384.96,-279.2 384.11,-272.26"/>
</a>
</g>
</g>
<!-- Node4&#45;&gt;Node5 -->
<g id="edge4_Node000004_Node000005" class="edge">
<title>Node4&#45;&gt;Node5</title>
<g id="a_edge4_Node000004_Node000005"><a xlink:title=" ">
<path fill="none" stroke="#63b8ff" d="M557.6,-157.29C549.45,-148.25 539.78,-137.52 533.1,-130.11"/>
<polygon fill="#63b8ff" stroke="#63b8ff" points="554.77,-159.37 564.06,-164.46 559.96,-154.69 554.77,-159.37"/>
</a>
</g>
</g>
<!-- Node4&#45;&gt;Node7 -->
<g id="edge10_Node000004_Node000007" class="edge">
<title>Node4&#45;&gt;Node7</title>
<g id="a_edge10_Node000004_Node000007"><a xlink:title=" ">
<path fill="none" stroke="#63b8ff" d="M612.38,-161.55C667.75,-141.52 757.75,-100.4 719,-55.25 689.46,-20.83 560.98,-12.69 484.97,-10.93"/>
<polygon fill="#63b8ff" stroke="#63b8ff" points="611.51,-158.15 603.24,-164.77 613.84,-164.75 611.51,-158.15"/>
</a>
</g>
</g>
<!-- Node6 -->
<g id="Node000006" class="node">
<title>Node6</title>
<g id="a_Node000006"><a xlink:href="../../d9/dc3/_interface_mock_8hpp.html" target="_top" xlink:title=" ">
<polygon fill="white" stroke="#666666" points="545.75,-74.5 408.25,-74.5 408.25,-55.25 545.75,-55.25 545.75,-74.5"/>
<text text-anchor="middle" x="477" y="-61" font-family="Helvetica,sans-Serif" font-size="10.00">mimic++/InterfaceMock.hpp</text>
</a>
</g>
</g>
<!-- Node5&#45;&gt;Node6 -->
<g id="edge5_Node000005_Node000006" class="edge">
<title>Node5&#45;&gt;Node6</title>
<g id="a_edge5_Node000005_Node000006"><a xlink:title=" ">
<path fill="none" stroke="#63b8ff" d="M509.6,-102.04C501.45,-93 491.78,-82.27 485.1,-74.86"/>
<polygon fill="#63b8ff" stroke="#63b8ff" points="506.77,-104.12 516.06,-109.21 511.96,-99.44 506.77,-104.12"/>
</a>
</g>
</g>
<!-- Node5&#45;&gt;Node7 -->
<g id="edge9_Node000005_Node000007" class="edge">
<title>Node5&#45;&gt;Node7</title>
<g id="a_edge9_Node000005_Node000007"><a xlink:title=" ">
<path fill="none" stroke="#63b8ff" d="M464.12,-112.71C439.73,-106.81 413.92,-95.62 399,-74.5 386.35,-56.6 405.83,-32.29 418.5,-19.44"/>
<polygon fill="#63b8ff" stroke="#63b8ff" points="463.19,-116.09 473.7,-114.75 464.64,-109.24 463.19,-116.09"/>
</a>
</g>
</g>
<!-- Node8 -->
<g id="Node000008" class="node">
<title>Node8</title>
<g id="a_Node000008"><a xlink:href="../../d1/dc0/_lifetime_watcher_8hpp.html" target="_top" xlink:title=" ">
<polygon fill="white" stroke="#666666" points="710.25,-74.5 563.75,-74.5 563.75,-55.25 710.25,-55.25 710.25,-74.5"/>
<text text-anchor="middle" x="637" y="-61" font-family="Helvetica,sans-Serif" font-size="10.00">mimic++/LifetimeWatcher.hpp</text>
</a>
</g>
</g>
<!-- Node5&#45;&gt;Node8 -->
<g id="edge7_Node000005_Node000008" class="edge">
<title>Node5&#45;&gt;Node8</title>
<g id="a_edge7_Node000005_Node000008"><a xlink:title=" ">
<path fill="none" stroke="#63b8ff" d="M554.17,-105.26C574.27,-95.7 600.42,-83.27 617.91,-74.95"/>
<polygon fill="#63b8ff" stroke="#63b8ff" points="552.89,-101.99 545.37,-109.44 555.9,-108.31 552.89,-101.99"/>
</a>
</g>
</g>
<!-- Node6&#45;&gt;Node7 -->
<g id="edge6_Node000006_Node000007" class="edge">
<title>Node6&#45;&gt;Node7</title>
<g id="a_edge6_Node000006_Node000007"><a xlink:title=" ">
<path fill="none" stroke="#63b8ff" d="M461.28,-46.79C452.96,-37.75 443.09,-27.02 436.27,-19.61"/>
<polygon fill="#63b8ff" stroke="#63b8ff" points="458.54,-48.98 467.88,-53.97 463.69,-44.24 458.54,-48.98"/>
</a>
</g>
</g>
<!-- Node8&#45;&gt;Node7 -->
<g id="edge8_Node000008_Node000007" class="edge">
<title>Node8&#45;&gt;Node7</title>
<g id="a_edge8_Node000008_Node000007"><a xlink:title=" ">
<path fill="none" stroke="#63b8ff" d="M590.67,-52.07C552.34,-42.3 498.67,-28.63 463.63,-19.7"/>
<polygon fill="#63b8ff" stroke="#63b8ff" points="589.52,-55.39 600.08,-54.47 591.25,-48.61 589.52,-55.39"/>
</a>
</g>
</g>
<!-- Node9&#45;&gt;Node4 -->
<g id="edge12_Node000009_Node000004" class="edge">
<title>Node9&#45;&gt;Node4</title>
<g id="a_edge12_Node000009_Node000004"><a xlink:title=" ">
<path fill="none" stroke="#63b8ff" d="M704.06,-217.19C672.85,-207.47 630.21,-194.19 602.15,-185.45"/>
<polygon fill="#63b8ff" stroke="#63b8ff" points="702.96,-220.51 713.55,-220.14 705.04,-213.83 702.96,-220.51"/>
</a>
</g>
</g>
<!-- Node9&#45;&gt;Node5 -->
<g id="edge13_Node000009_Node000005" class="edge">
<title>Node9&#45;&gt;Node5</title>
<g id="a_edge13_Node000009_Node000005"><a xlink:title=" ">
<path fill="none" stroke="#63b8ff" d="M725.92,-213.03C709.68,-198.85 684.66,-178.74 660,-165.75 629.2,-149.53 591.38,-137.64 563.61,-130.23"/>
<polygon fill="#63b8ff" stroke="#63b8ff" points="723.48,-215.54 733.27,-219.59 728.14,-210.32 723.48,-215.54"/>
</a>
</g>
</g>
<!-- Node9&#45;&gt;Node7 -->
<g id="edge14_Node000009_Node000007" class="edge">
<title>Node9&#45;&gt;Node7</title>
<g id="a_edge14_Node000009_Node000007"><a xlink:title=" ">
<path fill="none" stroke="#63b8ff" d="M750.58,-209.68C761.03,-173.82 776.54,-98.22 738,-55.25 705.33,-18.82 565.34,-11.56 485.1,-10.46"/>
<polygon fill="#63b8ff" stroke="#63b8ff" points="747.27,-208.55 747.64,-219.14 753.95,-210.63 747.27,-208.55"/>
</a>
</g>
</g>
<!-- Node10&#45;&gt;Node3 -->
<g id="edge18_Node000010_Node000003" class="edge">
<title>Node10&#45;&gt;Node3</title>
<g id="a_edge18_Node000010_Node000003"><a xlink:title=" ">
<path fill="none" stroke="#63b8ff" d="M354.47,-442.02C311.08,-434.95 260.41,-423.25 247,-406 218.15,-368.87 273.44,-316.61 298.53,-295.87"/>
<polygon fill="#63b8ff" stroke="#63b8ff" points="353.69,-445.44 364.12,-443.53 354.78,-438.53 353.69,-445.44"/>
</a>
</g>
</g>
<!-- Node10&#45;&gt;Node7 -->
<g id="edge29_Node000010_Node000007" class="edge">
<title>Node10&#45;&gt;Node7</title>
<g id="a_edge29_Node000010_Node000007"><a xlink:title=" ">
<path fill="none" stroke="#63b8ff" d="M354.21,-444.38C263.53,-431.88 114,-394.9 114,-286.88 114,-286.88 114,-286.88 114,-119.12 114,-65.41 280.2,-32.43 370.77,-18.44"/>
<polygon fill="#63b8ff" stroke="#63b8ff" points="353.64,-447.84 364.01,-445.66 354.54,-440.9 353.64,-447.84"/>
</a>
</g>
</g>
<!-- Node11 -->
<g id="Node000011" class="node">
<title>Node11</title>
<g id="a_Node000011"><a xlink:href="../../d8/de4/_sequence_8hpp.html" target="_top" xlink:title=" ">
<polygon fill="white" stroke="#666666" points="911.38,-406 792.62,-406 792.62,-386.75 911.38,-386.75 911.38,-406"/>
<text text-anchor="middle" x="852" y="-392.5" font-family="Helvetica,sans-Serif" font-size="10.00">mimic++/Sequence.hpp</text>
</a>
</g>
</g>
<!-- Node10&#45;&gt;Node11 -->
<g id="edge19_Node000010_Node000011" class="edge">
<title>Node10&#45;&gt;Node11</title>
<g id="a_edge19_Node000010_Node000011"><a xlink:title=" ">
<path fill="none" stroke="#63b8ff" d="M489.57,-442.26C572.8,-431.95 712.88,-414.6 792.32,-404.77"/>
<polygon fill="#63b8ff" stroke="#63b8ff" points="489.21,-438.77 479.72,-443.48 490.07,-445.72 489.21,-438.77"/>
</a>
</g>
</g>
<!-- Node13 -->
<g id="Node000013" class="node">
<title>Node13</title>
<g id="a_Node000013"><a xlink:href="../../d9/d42/_boost_test_8hpp.html" target="_top" xlink:title=" ">
<polygon fill="white" stroke="#666666" points="416.38,-406 255.62,-406 255.62,-386.75 416.38,-386.75 416.38,-406"/>
<text text-anchor="middle" x="336" y="-392.5" font-family="Helvetica,sans-Serif" font-size="10.00">mimic++/adapters/BoostTest.hpp</text>
</a>
</g>
</g>
<!-- Node10&#45;&gt;Node13 -->
<g id="edge26_Node000010_Node000013" class="edge">
<title>Node10&#45;&gt;Node13</title>
<g id="a_edge26_Node000010_Node000013"><a xlink:title=" ">
<path fill="none" stroke="#63b8ff" d="M397.66,-435.55C382.51,-426.17 363.53,-414.42 350.66,-406.45"/>
<polygon fill="#63b8ff" stroke="#63b8ff" points="395.78,-438.51 406.12,-440.8 399.46,-432.55 395.78,-438.51"/>
</a>
</g>
</g>
<!-- Node14 -->
<g id="Node000014" class="node">
<title>Node14</title>
<g id="a_Node000014"><a xlink:href="../../d3/d04/_catch2_8hpp.html" target="_top" xlink:title=" ">
<polygon fill="white" stroke="#666666" points="581.25,-406 434.75,-406 434.75,-386.75 581.25,-386.75 581.25,-406"/>
<text text-anchor="middle" x="508" y="-392.5" font-family="Helvetica,sans-Serif" font-size="10.00">mimic++/adapters/Catch2.hpp</text>
</a>
</g>
</g>
<!-- Node10&#45;&gt;Node14 -->
<g id="edge27_Node000010_Node000014" class="edge">
<title>Node10&#45;&gt;Node14</title>
<g id="a_edge27_Node000010_Node000014"><a xlink:title=" ">
<path fill="none" stroke="#63b8ff" d="M446.34,-435.55C461.49,-426.17 480.47,-414.42 493.34,-406.45"/>
<polygon fill="#63b8ff" stroke="#63b8ff" points="444.54,-432.55 437.88,-440.8 448.22,-438.51 444.54,-432.55"/>
</a>
</g>
</g>
<!-- Node15 -->
<g id="Node000015" class="node">
<title>Node15</title>
<g id="a_Node000015"><a xlink:href="../../d5/db1/gtest_8hpp.html" target="_top" xlink:title=" ">
<polygon fill="white" stroke="#666666" points="736.75,-406 599.25,-406 599.25,-386.75 736.75,-386.75 736.75,-406"/>
<text text-anchor="middle" x="668" y="-392.5" font-family="Helvetica,sans-Serif" font-size="10.00">mimic++/adapters/gtest.hpp</text>
</a>
</g>
</g>
<!-- Node10&#45;&gt;Node15 -->
<g id="edge28_Node000010_Node000015" class="edge">
<title>Node10&#45;&gt;Node15</title>
<g id="a_edge28_Node000010_Node000015"><a xlink:title=" ">
<path fill="none" stroke="#63b8ff" d="M475.08,-439.13C520.33,-429.34 584.48,-415.45 626.16,-406.43"/>
<polygon fill="#63b8ff" stroke="#63b8ff" points="474.52,-435.67 465.49,-441.21 476,-442.52 474.52,-435.67"/>
</a>
</g>
</g>
<!-- Node11&#45;&gt;Node4 -->
<g id="edge24_Node000011_Node000004" class="edge">
<title>Node11&#45;&gt;Node4</title>
<g id="a_edge24_Node000011_Node000004"><a xlink:title=" ">
<path fill="none" stroke="#63b8ff" d="M831.96,-379.64C777.33,-336.76 627.07,-218.82 584.42,-185.34"/>
<polygon fill="#63b8ff" stroke="#63b8ff" points="829.5,-382.16 839.53,-385.58 833.82,-376.66 829.5,-382.16"/>
</a>
</g>
</g>
<!-- Node11&#45;&gt;Node7 -->
<g id="edge25_Node000011_Node000007" class="edge">
<title>Node11&#45;&gt;Node7</title>
<g id="a_edge25_Node000011_Node000007"><a xlink:title=" ">
<path fill="none" stroke="#63b8ff" d="M852,-375.01C852,-353.2 852,-317.59 852,-286.88 852,-286.88 852,-286.88 852,-119.12 852,-44.28 600.92,-20.38 485.18,-13.33"/>
<polygon fill="#63b8ff" stroke="#63b8ff" points="848.5,-374.86 852,-384.86 855.5,-374.86 848.5,-374.86"/>
</a>
</g>
</g>
<!-- Node12 -->
<g id="Node000012" class="node">
<title>Node12</title>
<g id="a_Node000012"><a xlink:href="../../d6/d17/_control_policy_8hpp.html" target="_top" xlink:title=" ">
<polygon fill="white" stroke="#666666" points="608.12,-350.75 475.88,-350.75 475.88,-331.5 608.12,-331.5 608.12,-350.75"/>
<text text-anchor="middle" x="542" y="-337.25" font-family="Helvetica,sans-Serif" font-size="10.00">mimic++/ControlPolicy.hpp</text>
</a>
</g>
</g>
<!-- Node11&#45;&gt;Node12 -->
<g id="edge20_Node000011_Node000012" class="edge">
<title>Node11&#45;&gt;Node12</title>
<g id="a_edge20_Node000011_Node000012"><a xlink:title=" ">
<path fill="none" stroke="#63b8ff" d="M788.01,-384.38C730.95,-374.58 648.41,-360.4 594.98,-351.23"/>
<polygon fill="#63b8ff" stroke="#63b8ff" points="787.12,-387.78 797.57,-386.03 788.31,-380.88 787.12,-387.78"/>
</a>
</g>
</g>
<!-- Node12&#45;&gt;Node3 -->
<g id="edge21_Node000012_Node000003" class="edge">
<title>Node12&#45;&gt;Node3</title>
<g id="a_edge21_Node000012_Node000003"><a xlink:title=" ">
<path fill="none" stroke="#63b8ff" d="M491.4,-328.51C448.75,-318.72 388.6,-304.92 349.46,-295.93"/>
<polygon fill="#63b8ff" stroke="#63b8ff" points="490.38,-331.87 500.91,-330.69 491.94,-325.04 490.38,-331.87"/>
</a>
</g>
</g>
<!-- Node12&#45;&gt;Node4 -->
<g id="edge22_Node000012_Node000004" class="edge">
<title>Node12&#45;&gt;Node4</title>
<g id="a_edge22_Node000012_Node000004"><a xlink:title=" ">
<path fill="none" stroke="#63b8ff" d="M545.73,-320.44C552.48,-284.75 566.5,-210.71 571.33,-185.22"/>
<polygon fill="#63b8ff" stroke="#63b8ff" points="542.37,-319.36 543.95,-329.83 549.25,-320.66 542.37,-319.36"/>
</a>
</g>
</g>
<!-- Node12&#45;&gt;Node7 -->
<g id="edge23_Node000012_Node000007" class="edge">
<title>Node12&#45;&gt;Node7</title>
<g id="a_edge23_Node000012_Node000007"><a xlink:title=" ">
<path fill="none" stroke="#63b8ff" d="M527.4,-322.31C495.06,-281.55 418.12,-177.09 391,-74.5 388.81,-66.23 388.1,-63.3 391,-55.25 396.19,-40.86 408.26,-27.83 417.21,-19.61"/>
<polygon fill="#63b8ff" stroke="#63b8ff" points="524.66,-324.48 533.65,-330.08 530.11,-320.09 524.66,-324.48"/>
</a>
</g>
</g>
<!-- Node16&#45;&gt;Node7 -->
<g id="edge33_Node000016_Node000007" class="edge">
<title>Node16&#45;&gt;Node7</title>
<g id="a_edge33_Node000016_Node000007"><a xlink:title=" ">
<path fill="none" stroke="#63b8ff" d="M355.93,-503.37C255.51,-495.63 76,-464.67 76,-342.12 76,-342.12 76,-342.12 76,-119.12 76,-73.63 114.42,-73.73 156,-55.25 225.75,-24.25 314.17,-14.56 370.92,-11.65"/>
<polygon fill="#63b8ff" stroke="#63b8ff" points="355.44,-506.84 365.67,-504.06 355.94,-499.86 355.44,-506.84"/>
</a>
</g>
</g>
<!-- Node16&#45;&gt;Node10 -->
<g id="edge32_Node000016_Node000010" class="edge">
<title>Node16&#45;&gt;Node10</title>
<g id="a_edge32_Node000016_Node000010"><a xlink:title=" ">
<path fill="none" stroke="#63b8ff" d="M422,-485.63C422,-477.34 422,-468.17 422,-461.61"/>
<polygon fill="#63b8ff" stroke="#63b8ff" points="418.5,-485.57 422,-495.57 425.5,-485.57 418.5,-485.57"/>
</a>
</g>
</g>
<!-- Node16&#45;&gt;Node12 -->
<g id="edge31_Node000016_Node000012" class="edge">
<title>Node16&#45;&gt;Node12</title>
<g id="a_edge31_Node000016_Node000012"><a xlink:title=" ">
<path fill="none" stroke="#63b8ff" d="M488,-494.94C573.48,-479.29 715.22,-447.7 746,-406 751.08,-399.12 751.36,-393.41 746,-386.75 736.82,-375.35 658.04,-360.57 601.12,-351.22"/>
<polygon fill="#63b8ff" stroke="#63b8ff" points="487.55,-491.47 478.33,-496.69 488.79,-498.36 487.55,-491.47"/>
</a>
</g>
</g>
<!-- Node17&#45;&gt;Node7 -->
<g id="edge38_Node000017_Node000007" class="edge">
<title>Node17&#45;&gt;Node7</title>
<g id="a_edge38_Node000017_Node000007"><a xlink:title=" ">
<path fill="none" stroke="#63b8ff" d="M987.93,-431.84C999.16,-410.74 1015,-375.12 1015,-342.12 1015,-342.12 1015,-342.12 1015,-119.12 1015,-65.59 632.59,-27.79 485.08,-15.2"/>
<polygon fill="#63b8ff" stroke="#63b8ff" points="984.98,-429.95 983.18,-440.39 991.1,-433.35 984.98,-429.95"/>
</a>
</g>
</g>
<!-- Node17&#45;&gt;Node9 -->
<g id="edge37_Node000017_Node000009" class="edge">
<title>Node17&#45;&gt;Node9</title>
<g id="a_edge37_Node000017_Node000009"><a xlink:title=" ">
<path fill="none" stroke="#63b8ff" d="M980.87,-430.62C986.56,-394.66 992.63,-318.91 953,-276.25 935.48,-257.39 875.56,-245.87 824.34,-239.27"/>
<polygon fill="#63b8ff" stroke="#63b8ff" points="977.49,-429.61 979.21,-440.06 984.39,-430.82 977.49,-429.61"/>
</a>
</g>
</g>
<!-- Node18&#45;&gt;Node7 -->
<g id="edge45_Node000018_Node000007" class="edge">
<title>Node18&#45;&gt;Node7</title>
<g id="a_edge45_Node000018_Node000007"><a xlink:title=" ">
<path fill="none" stroke="#63b8ff" d="M915.36,-554.7C976.54,-544.58 1060,-518.67 1060,-452.62 1060,-452.62 1060,-452.62 1060,-119.12 1060,-39.66 970.36,-73.4 893,-55.25 748.71,-21.39 573.46,-13.13 484.98,-11.18"/>
<polygon fill="#63b8ff" stroke="#63b8ff" points="915.07,-551.2 905.71,-556.18 916.13,-558.12 915.07,-551.2"/>
</a>
</g>
</g>
<!-- Node18&#45;&gt;Node9 -->
<g id="edge40_Node000018_Node000009" class="edge">
<title>Node18&#45;&gt;Node9</title>
<g id="a_edge40_Node000018_Node000009"><a xlink:title=" ">
<path fill="none" stroke="#63b8ff" d="M863.12,-542.51C885.59,-503.85 933.2,-415.98 920,-386.75 886.89,-313.44 800.12,-260.92 762.18,-240.74"/>
<polygon fill="#63b8ff" stroke="#63b8ff" points="860.35,-540.33 858.29,-550.72 866.38,-543.88 860.35,-540.33"/>
</a>
</g>
</g>
<!-- Node18&#45;&gt;Node10 -->
<g id="edge42_Node000018_Node000010" class="edge">
<title>Node18&#45;&gt;Node10</title>
<g id="a_edge42_Node000018_Node000010"><a xlink:title=" ">
<path fill="none" stroke="#63b8ff" d="M805.03,-549.27C718.52,-527.44 535.77,-481.33 458.12,-461.74"/>
<polygon fill="#63b8ff" stroke="#63b8ff" points="804.06,-552.64 814.61,-551.69 805.77,-545.85 804.06,-552.64"/>
</a>
</g>
</g>
<!-- Node18&#45;&gt;Node11 -->
<g id="edge44_Node000018_Node000011" class="edge">
<title>Node18&#45;&gt;Node11</title>
<g id="a_edge44_Node000018_Node000011"><a xlink:title=" ">
<path fill="none" stroke="#63b8ff" d="M852,-540.97C852,-505.11 852,-431.6 852,-406.22"/>
<polygon fill="#63b8ff" stroke="#63b8ff" points="848.5,-540.81 852,-550.81 855.5,-540.81 848.5,-540.81"/>
</a>
</g>
</g>
<!-- Node18&#45;&gt;Node16 -->
<g id="edge43_Node000018_Node000016" class="edge">
<title>Node18&#45;&gt;Node16</title>
<g id="a_edge43_Node000018_Node000016"><a xlink:title=" ">
<path fill="none" stroke="#63b8ff" d="M788.49,-553.26C704.2,-542.82 556.74,-524.56 476.98,-514.68"/>
<polygon fill="#63b8ff" stroke="#63b8ff" points="787.85,-556.71 798.2,-554.46 788.71,-549.76 787.85,-556.71"/>
</a>
</g>
</g>
<!-- Node18&#45;&gt;Node17 -->
<g id="edge41_Node000018_Node000017" class="edge">
<title>Node18&#45;&gt;Node17</title>
<g id="a_edge41_Node000018_Node000017"><a xlink:title=" ">
<path fill="none" stroke="#63b8ff" d="M872.78,-545.16C883.46,-536.8 896.59,-526.3 908,-516.5 930.04,-497.56 954.79,-474.08 967.82,-461.53"/>
<polygon fill="#63b8ff" stroke="#63b8ff" points="870.74,-542.32 864.98,-551.21 875.03,-547.85 870.74,-542.32"/>
</a>
</g>
</g>
</g>
</svg>

<g id="navigator" transform="translate(0 0)" fill="#404254">
  <rect fill="#f2f5e9" fill-opacity="0.5" stroke="#606060" stroke-width=".5" x="0" y="0" width="60" height="60"/>
  <use id="zoomplus" xlink:href="#zoomPlus" x="17" y="9" onmousedown="handleZoom(evt,'in')"/>
  <use id="zoomminus" xlink:href="#zoomMin" x="42" y="9" onmousedown="handleZoom(evt,'out')"/>
  <use id="reset" xlink:href="#resetDef" x="30" y="36" onmousedown="handleReset()"/>
   <use id="arrowup" xlink:href="#arrowUp" x="0" y="0" onmousedown="handlePan(0,-1)"/>
  <use id="arrowright" xlink:href="#arrowRight" x="0" y="0" onmousedown="handlePan(1,0)"/>
  <use id="arrowdown" xlink:href="#arrowDown" x="0" y="0" onmousedown="handlePan(0,1)"/>
  <use id="arrowleft" xlink:href="#arrowLeft" x="0" y="0" onmousedown="handlePan(-1,0)"/>
</g>
<svg viewBox="0 0 15 15" width="100%" height="30px" preserveAspectRatio="xMaxYMin meet">
 <g id="arrow_out" transform="scale(0.3 0.3)">
  <a xlink:href="_type_traits_8hpp__dep__incl_org.svg" target="_base">
   <rect id="button" ry="5" rx="5" y="6" x="6" height="38" width="38"
        fill="#f2f5e9" fill-opacity="0.5" stroke="#606060" stroke-width="1.0"/>
   <path id="arrow"
     d="M 11.500037,31.436501 C 11.940474,20.09759 22.043105,11.32322 32.158766,21.979434 L 37.068811,17.246167 C 37.068811,17.246167 37.088388,32 37.088388,32 L 22.160133,31.978069 C 22.160133,31.978069 26.997745,27.140456 26.997745,27.140456 C 18.528582,18.264221 13.291696,25.230495 11.500037,31.436501 z"
     style="fill:#404040;"/>
  </a>
 </g>
</svg>

<style type='text/css'>
<![CDATA[
[data-mouse-over-selected='false'] { opacity: 0.7; }
[data-mouse-over-selected='true']  { opacity: 1.0; }
]]>
</style>
<script type="application/ecmascript"><![CDATA[
document.addEventListener('DOMContentLoaded', (event) => {
  highlightEdges();
  highlightAdjacentNodes();
});
]]></script>
</svg>
