<?xml version="1.0" encoding="UTF-8" standalone="no"?>
<!DOCTYPE svg PUBLIC "-//W3C//DTD SVG 1.1//EN"
 "http://www.w3.org/Graphics/SVG/1.1/DTD/svg11.dtd">
<!-- Generated by graphviz version 11.0.0 (20240428.1522)
 -->
<!-- Title: mimic++/TypeTraits.hpp Pages: 1 -->
<!--zoomable 414 -->

<svg id="main" version="1.1" xmlns="http://www.w3.org/2000/svg" xmlns:xlink="http://www.w3.org/1999/xlink" xml:space="preserve" onload="init(evt)">
<style type="text/css"><![CDATA[
.node, .edge {opacity: 0.7;}
.node.selected, .edge.selected {opacity: 1;}
.edge:hover path { stroke: red; }
.edge:hover polygon { stroke: red; fill: red; }
]]></style>

<defs>
  <circle id="rim" cx="0" cy="0" r="7"/>
  <circle id="rim2" cx="0" cy="0" r="3.5"/>
  <g id="zoomPlus">
    <use xlink:href="#rim" fill="#404040"><set attributeName="fill" to="#808080" begin="zoomplus.mouseover" end="zoomplus.mouseout"/></use>
    <path d="M-4,0h8M0,-4v8" fill="none" stroke="white" stroke-width="1.5" pointer-events="none"/>
  </g>
  <g id="zoomMin">
    <use xlink:href="#rim" fill="#404040"><set attributeName="fill" to="#808080" begin="zoomminus.mouseover" end="zoomminus.mouseout"/></use>
    <path d="M-4,0h8" fill="none" stroke="white" stroke-width="1.5" pointer-events="none"/>
  </g>
  <g id="arrowUp" transform="translate(30 24)">
    <use xlink:href="#rim"/>
    <path pointer-events="none" fill="none" stroke="white" stroke-width="1.5" d="M0,-3.0v7 M-2.5,-0.5L0,-3.0L2.5,-0.5"/>
  </g>
  <g id="arrowRight" transform="rotate(90) translate(36 -43)">
    <use xlink:href="#rim"/>
    <path pointer-events="none" fill="none" stroke="white" stroke-width="1.5" d="M0,-3.0v7 M-2.5,-0.5L0,-3.0L2.5,-0.5"/>
  </g>
  <g id="arrowDown" transform="rotate(180) translate(-30 -48)">
    <use xlink:href="#rim"/>
    <path pointer-events="none" fill="none" stroke="white" stroke-width="1.5" d="M0,-3.0v7 M-2.5,-0.5L0,-3.0L2.5,-0.5"/>
  </g>
  <g id="arrowLeft" transform="rotate(270) translate(-36 17)">
    <use xlink:href="#rim"/>
    <path pointer-events="none" fill="none" stroke="white" stroke-width="1.5" d="M0,-3.0v7 M-2.5,-0.5L0,-3.0L2.5,-0.5"/>
  </g>
  <g id="resetDef">
    <use xlink:href="#rim2" fill="#404040"><set attributeName="fill" to="#808080" begin="reset.mouseover" end="reset.mouseout"/></use>
  </g>
</defs>
<script type="application/ecmascript">
var viewWidth = 775;
var viewHeight = 414;
var sectionId = 'dynsection-1';
</script>
<script type="application/ecmascript" xlink:href="../../svg.min.js"/>
<svg id="graph" class="graph">
<g id="viewport">
<title>mimic++/TypeTraits.hpp</title>
<!-- Node1 -->
<g id="Node000001" class="node">
<title>Node1</title>
<g id="a_Node000001"><a xlink:title=" ">
<polygon fill="#999999" stroke="#666666" points="327.5,-406 206.5,-406 206.5,-386.75 327.5,-386.75 327.5,-406"/>
<text text-anchor="middle" x="267" y="-392.5" font-family="Helvetica,sans-Serif" font-size="10.00">mimic++/TypeTraits.hpp</text>
</a>
</g>
</g>
<!-- Node2 -->
<g id="Node000002" class="node">
<title>Node2</title>
<g id="a_Node000002"><a xlink:href="../../dc/d44/_call_8hpp.html" target="_top" xlink:title=" ">
<polygon fill="white" stroke="#666666" points="312.88,-350.75 221.12,-350.75 221.12,-331.5 312.88,-331.5 312.88,-350.75"/>
<text text-anchor="middle" x="267" y="-337.25" font-family="Helvetica,sans-Serif" font-size="10.00">mimic++/Call.hpp</text>
</a>
</g>
</g>
<!-- Node1&#45;&gt;Node2 -->
<g id="edge1_Node000001_Node000002" class="edge">
<title>Node1&#45;&gt;Node2</title>
<g id="a_edge1_Node000001_Node000002"><a xlink:title=" ">
<path fill="none" stroke="#63b8ff" d="M267,-375.13C267,-366.84 267,-357.67 267,-351.11"/>
<polygon fill="#63b8ff" stroke="#63b8ff" points="263.5,-375.07 267,-385.07 270.5,-375.07 263.5,-375.07"/>
</a>
</g>
</g>
<!-- Node3 -->
<g id="Node000003" class="node">
<title>Node3</title>
<g id="a_Node000003"><a xlink:href="../../d5/d8a/_expectation_8hpp.html" target="_top" xlink:title=" ">
<polygon fill="white" stroke="#666666" points="766.75,-240.25 641.25,-240.25 641.25,-221 766.75,-221 766.75,-240.25"/>
<text text-anchor="middle" x="704" y="-226.75" font-family="Helvetica,sans-Serif" font-size="10.00">mimic++/Expectation.hpp</text>
</a>
</g>
</g>
<!-- Node1&#45;&gt;Node3 -->
<g id="edge22_Node000001_Node000003" class="edge">
<title>Node1&#45;&gt;Node3</title>
<g id="a_edge22_Node000001_Node000003"><a xlink:title=" ">
<path fill="none" stroke="#63b8ff" d="M301.81,-382.33C387.39,-350.26 606.4,-268.2 679.69,-240.73"/>
<polygon fill="#63b8ff" stroke="#63b8ff" points="300.67,-379.02 292.53,-385.81 303.13,-385.58 300.67,-379.02"/>
</a>
</g>
</g>
<!-- Node6 -->
<g id="Node000006" class="node">
<title>Node6</title>
<g id="a_Node000006"><a xlink:href="../../d0/db9/mimic_09_09_8hpp.html" target="_top" xlink:title=" ">
<polygon fill="white" stroke="#666666" points="366.75,-19.25 253.25,-19.25 253.25,0 366.75,0 366.75,-19.25"/>
<text text-anchor="middle" x="310" y="-5.75" font-family="Helvetica,sans-Serif" font-size="10.00">mimic++/mimic++.hpp</text>
</a>
</g>
</g>
<!-- Node1&#45;&gt;Node6 -->
<g id="edge23_Node000001_Node000006" class="edge">
<title>Node1&#45;&gt;Node6</title>
<g id="a_edge23_Node000001_Node000006"><a xlink:title=" ">
<path fill="none" stroke="#63b8ff" d="M208.68,-383.9C130.12,-366.75 0,-331.58 0,-286.88 0,-286.88 0,-286.88 0,-119.12 0,-81.66 22.43,-73.75 55,-55.25 87.97,-36.52 188.28,-23.09 252.82,-16.12"/>
<polygon fill="#63b8ff" stroke="#63b8ff" points="207.89,-387.31 218.4,-385.99 209.36,-380.47 207.89,-387.31"/>
</a>
</g>
</g>
<!-- Node2&#45;&gt;Node3 -->
<g id="edge2_Node000002_Node000003" class="edge">
<title>Node2&#45;&gt;Node3</title>
<g id="a_edge2_Node000002_Node000003"><a xlink:title=" ">
<path fill="none" stroke="#63b8ff" d="M314.47,-328.34C402.28,-306.54 588.3,-260.35 667.29,-240.74"/>
<polygon fill="#63b8ff" stroke="#63b8ff" points="313.84,-324.89 304.98,-330.7 315.52,-331.68 313.84,-324.89"/>
</a>
</g>
</g>
<!-- Node2&#45;&gt;Node6 -->
<g id="edge21_Node000002_Node000006" class="edge">
<title>Node2&#45;&gt;Node6</title>
<g id="a_edge21_Node000002_Node000006"><a xlink:title=" ">
<path fill="none" stroke="#63b8ff" d="M209.27,-337.19C141.43,-330.27 38,-307.31 38,-231.62 38,-231.62 38,-231.62 38,-119.12 38,-82.8 57.99,-74.18 89,-55.25 138.95,-24.76 205.93,-14.66 253.01,-11.54"/>
<polygon fill="#63b8ff" stroke="#63b8ff" points="208.87,-340.67 219.15,-338.1 209.51,-333.7 208.87,-340.67"/>
</a>
</g>
</g>
<!-- Node8 -->
<g id="Node000008" class="node">
<title>Node8</title>
<g id="a_Node000008"><a xlink:href="../../da/dd9/_reporter_8hpp.html" target="_top" xlink:title=" ">
<polygon fill="white" stroke="#666666" points="323,-295.5 211,-295.5 211,-276.25 323,-276.25 323,-295.5"/>
<text text-anchor="middle" x="267" y="-282" font-family="Helvetica,sans-Serif" font-size="10.00">mimic++/Reporter.hpp</text>
</a>
</g>
</g>
<!-- Node2&#45;&gt;Node8 -->
<g id="edge13_Node000002_Node000008" class="edge">
<title>Node2&#45;&gt;Node8</title>
<g id="a_edge13_Node000002_Node000008"><a xlink:title=" ">
<path fill="none" stroke="#63b8ff" d="M267,-319.88C267,-311.59 267,-302.42 267,-295.86"/>
<polygon fill="#63b8ff" stroke="#63b8ff" points="263.5,-319.82 267,-329.82 270.5,-319.82 263.5,-319.82"/>
</a>
</g>
</g>
<!-- Node4 -->
<g id="Node000004" class="node">
<title>Node4</title>
<g id="a_Node000004"><a xlink:href="../../d2/d4f/_expectation_builder_8hpp.html" target="_top" xlink:title=" ">
<polygon fill="white" stroke="#666666" points="764.75,-129.75 609.25,-129.75 609.25,-110.5 764.75,-110.5 764.75,-129.75"/>
<text text-anchor="middle" x="687" y="-116.25" font-family="Helvetica,sans-Serif" font-size="10.00">mimic++/ExpectationBuilder.hpp</text>
</a>
</g>
</g>
<!-- Node3&#45;&gt;Node4 -->
<g id="edge3_Node000003_Node000004" class="edge">
<title>Node3&#45;&gt;Node4</title>
<g id="a_edge3_Node000003_Node000004"><a xlink:title=" ">
<path fill="none" stroke="#63b8ff" d="M700.86,-209.6C697.15,-185.9 691.13,-147.47 688.41,-130.13"/>
<polygon fill="#63b8ff" stroke="#63b8ff" points="697.37,-209.91 702.37,-219.25 704.28,-208.83 697.37,-209.91"/>
</a>
</g>
</g>
<!-- Node5 -->
<g id="Node000005" class="node">
<title>Node5</title>
<g id="a_Node000005"><a xlink:href="../../d5/dc5/_mock_8hpp.html" target="_top" xlink:title=" ">
<polygon fill="white" stroke="#666666" points="584.62,-74.5 485.38,-74.5 485.38,-55.25 584.62,-55.25 584.62,-74.5"/>
<text text-anchor="middle" x="535" y="-61" font-family="Helvetica,sans-Serif" font-size="10.00">mimic++/Mock.hpp</text>
</a>
</g>
</g>
<!-- Node3&#45;&gt;Node5 -->
<g id="edge11_Node000003_Node000005" class="edge">
<title>Node3&#45;&gt;Node5</title>
<g id="a_edge11_Node000003_Node000005"><a xlink:title=" ">
<path fill="none" stroke="#63b8ff" d="M686.32,-212.76C665.58,-192.96 630.19,-159.08 600,-129.75 579.8,-110.13 556.27,-86.91 543.8,-74.59"/>
<polygon fill="#63b8ff" stroke="#63b8ff" points="683.76,-215.16 693.41,-219.53 688.59,-210.09 683.76,-215.16"/>
</a>
</g>
</g>
<!-- Node3&#45;&gt;Node6 -->
<g id="edge12_Node000003_Node000006" class="edge">
<title>Node3&#45;&gt;Node6</title>
<g id="a_edge12_Node000003_Node000006"><a xlink:title=" ">
<path fill="none" stroke="#63b8ff" d="M629.55,-220.16C536.54,-208.2 388.87,-188.73 384,-185 328.14,-142.18 313.96,-49.1 310.81,-19.71"/>
<polygon fill="#63b8ff" stroke="#63b8ff" points="629.03,-223.62 639.39,-221.42 629.92,-216.68 629.03,-223.62"/>
</a>
</g>
</g>
<!-- Node7 -->
<g id="Node000007" class="node">
<title>Node7</title>
<g id="a_Node000007"><a xlink:href="../../d8/de5/_expectation_policies_8hpp.html" target="_top" xlink:title=" ">
<polygon fill="white" stroke="#666666" points="553,-185 393,-185 393,-165.75 553,-165.75 553,-185"/>
<text text-anchor="middle" x="473" y="-171.5" font-family="Helvetica,sans-Serif" font-size="10.00">mimic++/ExpectationPolicies.hpp</text>
</a>
</g>
</g>
<!-- Node3&#45;&gt;Node7 -->
<g id="edge7_Node000003_Node000007" class="edge">
<title>Node3&#45;&gt;Node7</title>
<g id="a_edge7_Node000003_Node000007"><a xlink:title=" ">
<path fill="none" stroke="#63b8ff" d="M653.34,-217.95C610.9,-208.16 551.18,-194.4 512.29,-185.43"/>
<polygon fill="#63b8ff" stroke="#63b8ff" points="652.55,-221.36 663.08,-220.19 654.12,-214.53 652.55,-221.36"/>
</a>
</g>
</g>
<!-- Node4&#45;&gt;Node5 -->
<g id="edge4_Node000004_Node000005" class="edge">
<title>Node4&#45;&gt;Node5</title>
<g id="a_edge4_Node000004_Node000005"><a xlink:title=" ">
<path fill="none" stroke="#63b8ff" d="M650.4,-106.3C622.76,-96.62 585.52,-83.57 560.91,-74.95"/>
<polygon fill="#63b8ff" stroke="#63b8ff" points="649.19,-109.59 659.79,-109.59 651.51,-102.98 649.19,-109.59"/>
</a>
</g>
</g>
<!-- Node4&#45;&gt;Node6 -->
<g id="edge6_Node000004_Node000006" class="edge">
<title>Node4&#45;&gt;Node6</title>
<g id="a_edge6_Node000004_Node000006"><a xlink:title=" ">
<path fill="none" stroke="#63b8ff" d="M669.03,-103.11C651.27,-88.22 622.67,-66.66 594,-55.25 519.23,-25.48 425.97,-15.51 367.19,-12.21"/>
<polygon fill="#63b8ff" stroke="#63b8ff" points="666.27,-105.35 676.13,-109.22 670.83,-100.04 666.27,-105.35"/>
</a>
</g>
</g>
<!-- Node5&#45;&gt;Node6 -->
<g id="edge5_Node000005_Node000006" class="edge">
<title>Node5&#45;&gt;Node6</title>
<g id="a_edge5_Node000005_Node000006"><a xlink:title=" ">
<path fill="none" stroke="#63b8ff" d="M485.39,-52.14C444.07,-42.36 386.07,-28.63 348.26,-19.68"/>
<polygon fill="#63b8ff" stroke="#63b8ff" points="484.57,-55.54 495.1,-54.43 486.18,-48.72 484.57,-55.54"/>
</a>
</g>
</g>
<!-- Node7&#45;&gt;Node4 -->
<g id="edge8_Node000007_Node000004" class="edge">
<title>Node7&#45;&gt;Node4</title>
<g id="a_edge8_Node000007_Node000004"><a xlink:title=" ">
<path fill="none" stroke="#63b8ff" d="M520.43,-162.57C559.69,-152.8 614.64,-139.13 650.52,-130.2"/>
<polygon fill="#63b8ff" stroke="#63b8ff" points="519.63,-159.17 510.77,-164.98 521.32,-165.96 519.63,-159.17"/>
</a>
</g>
</g>
<!-- Node7&#45;&gt;Node5 -->
<g id="edge9_Node000007_Node000005" class="edge">
<title>Node7&#45;&gt;Node5</title>
<g id="a_edge9_Node000007_Node000005"><a xlink:title=" ">
<path fill="none" stroke="#63b8ff" d="M483.7,-155.65C497.17,-132.08 519.76,-92.54 529.86,-74.88"/>
<polygon fill="#63b8ff" stroke="#63b8ff" points="480.75,-153.76 478.82,-164.18 486.82,-157.24 480.75,-153.76"/>
</a>
</g>
</g>
<!-- Node7&#45;&gt;Node6 -->
<g id="edge10_Node000007_Node000006" class="edge">
<title>Node7&#45;&gt;Node6</title>
<g id="a_edge10_Node000007_Node000006"><a xlink:title=" ">
<path fill="none" stroke="#63b8ff" d="M457.91,-156.68C437.29,-132.84 398.78,-89.43 363,-55.25 349.26,-42.12 332.29,-28.2 321.31,-19.47"/>
<polygon fill="#63b8ff" stroke="#63b8ff" points="455.2,-158.9 464.37,-164.2 460.51,-154.34 455.2,-158.9"/>
</a>
</g>
</g>
<!-- Node8&#45;&gt;Node3 -->
<g id="edge14_Node000008_Node000003" class="edge">
<title>Node8&#45;&gt;Node3</title>
<g id="a_edge14_Node000008_Node000003"><a xlink:title=" ">
<path fill="none" stroke="#63b8ff" d="M334.64,-276.63C418.25,-266.44 559.45,-249.24 640.91,-239.31"/>
<polygon fill="#63b8ff" stroke="#63b8ff" points="334.24,-273.16 324.74,-277.84 335.09,-280.1 334.24,-273.16"/>
</a>
</g>
</g>
<!-- Node8&#45;&gt;Node6 -->
<g id="edge20_Node000008_Node000006" class="edge">
<title>Node8&#45;&gt;Node6</title>
<g id="a_edge20_Node000008_Node000006"><a xlink:title=" ">
<path fill="none" stroke="#63b8ff" d="M199.58,-274.76C144.61,-262.24 76,-234.89 76,-176.38 76,-176.38 76,-176.38 76,-119.12 76,-41.43 183.48,-19.21 252.76,-12.96"/>
<polygon fill="#63b8ff" stroke="#63b8ff" points="198.74,-278.16 209.25,-276.82 200.2,-271.31 198.74,-278.16"/>
</a>
</g>
</g>
<!-- Node9 -->
<g id="Node000009" class="node">
<title>Node9</title>
<g id="a_Node000009"><a xlink:href="../../d8/de4/_sequence_8hpp.html" target="_top" xlink:title=" ">
<polygon fill="white" stroke="#666666" points="288.38,-185 169.62,-185 169.62,-165.75 288.38,-165.75 288.38,-185"/>
<text text-anchor="middle" x="229" y="-171.5" font-family="Helvetica,sans-Serif" font-size="10.00">mimic++/Sequence.hpp</text>
</a>
</g>
</g>
<!-- Node8&#45;&gt;Node9 -->
<g id="edge15_Node000008_Node000009" class="edge">
<title>Node8&#45;&gt;Node9</title>
<g id="a_edge15_Node000008_Node000009"><a xlink:title=" ">
<path fill="none" stroke="#63b8ff" d="M199.66,-278.85C174.55,-272.94 148.43,-261.65 133,-240.25 114.15,-214.11 156.98,-195.58 191.36,-185.43"/>
<polygon fill="#63b8ff" stroke="#63b8ff" points="198.72,-282.22 209.22,-280.82 200.13,-275.37 198.72,-282.22"/>
</a>
</g>
</g>
<!-- Node10 -->
<g id="Node000010" class="node">
<title>Node10</title>
<g id="a_Node000010"><a xlink:href="../../d9/d42/_boost_test_8hpp.html" target="_top" xlink:title=" ">
<polygon fill="white" stroke="#666666" points="302.38,-240.25 141.62,-240.25 141.62,-221 302.38,-221 302.38,-240.25"/>
<text text-anchor="middle" x="222" y="-226.75" font-family="Helvetica,sans-Serif" font-size="10.00">mimic++/adapters/BoostTest.hpp</text>
</a>
</g>
</g>
<!-- Node8&#45;&gt;Node10 -->
<g id="edge17_Node000008_Node000010" class="edge">
<title>Node8&#45;&gt;Node10</title>
<g id="a_edge17_Node000008_Node000010"><a xlink:title=" ">
<path fill="none" stroke="#63b8ff" d="M252.32,-267.51C244.74,-258.53 235.79,-247.95 229.59,-240.61"/>
<polygon fill="#63b8ff" stroke="#63b8ff" points="249.46,-269.55 258.59,-274.93 254.81,-265.03 249.46,-269.55"/>
</a>
</g>
</g>
<!-- Node11 -->
<g id="Node000011" class="node">
<title>Node11</title>
<g id="a_Node000011"><a xlink:href="../../d3/d04/_catch2_8hpp.html" target="_top" xlink:title=" ">
<polygon fill="white" stroke="#666666" points="467.25,-240.25 320.75,-240.25 320.75,-221 467.25,-221 467.25,-240.25"/>
<text text-anchor="middle" x="394" y="-226.75" font-family="Helvetica,sans-Serif" font-size="10.00">mimic++/adapters/Catch2.hpp</text>
</a>
</g>
</g>
<!-- Node8&#45;&gt;Node11 -->
<g id="edge18_Node000008_Node000011" class="edge">
<title>Node8&#45;&gt;Node11</title>
<g id="a_edge18_Node000008_Node000011"><a xlink:title=" ">
<path fill="none" stroke="#63b8ff" d="M299.13,-271.4C322.05,-261.79 352.25,-249.13 372.35,-240.7"/>
<polygon fill="#63b8ff" stroke="#63b8ff" points="297.81,-268.16 289.94,-275.26 300.52,-274.62 297.81,-268.16"/>
</a>
</g>
</g>
<!-- Node12 -->
<g id="Node000012" class="node">
<title>Node12</title>
<g id="a_Node000012"><a xlink:href="../../d5/db1/gtest_8hpp.html" target="_top" xlink:title=" ">
<polygon fill="white" stroke="#666666" points="622.75,-240.25 485.25,-240.25 485.25,-221 622.75,-221 622.75,-240.25"/>
<text text-anchor="middle" x="554" y="-226.75" font-family="Helvetica,sans-Serif" font-size="10.00">mimic++/adapters/gtest.hpp</text>
</a>
</g>
</g>
<!-- Node8&#45;&gt;Node12 -->
<g id="edge19_Node000008_Node000012" class="edge">
<title>Node8&#45;&gt;Node12</title>
<g id="a_edge19_Node000008_Node000012"><a xlink:title=" ">
<path fill="none" stroke="#63b8ff" d="M327.26,-273.69C380.13,-263.89 456.04,-249.8 505.19,-240.68"/>
<polygon fill="#63b8ff" stroke="#63b8ff" points="326.69,-270.24 317.5,-275.51 327.97,-277.12 326.69,-270.24"/>
</a>
</g>
</g>
<!-- Node9&#45;&gt;Node6 -->
<g id="edge16_Node000009_Node000006" class="edge">
<title>Node9&#45;&gt;Node6</title>
<g id="a_edge16_Node000009_Node000006"><a xlink:title=" ">
<path fill="none" stroke="#63b8ff" d="M238.28,-155.62C255.75,-120.3 292.91,-45.18 305.62,-19.47"/>
<polygon fill="#63b8ff" stroke="#63b8ff" points="235.32,-153.7 234.03,-164.21 241.6,-156.8 235.32,-153.7"/>
</a>
</g>
</g>
</g>
</svg>

<g id="navigator" transform="translate(0 0)" fill="#404254">
  <rect fill="#f2f5e9" fill-opacity="0.5" stroke="#606060" stroke-width=".5" x="0" y="0" width="60" height="60"/>
  <use id="zoomplus" xlink:href="#zoomPlus" x="17" y="9" onmousedown="handleZoom(evt,'in')"/>
  <use id="zoomminus" xlink:href="#zoomMin" x="42" y="9" onmousedown="handleZoom(evt,'out')"/>
  <use id="reset" xlink:href="#resetDef" x="30" y="36" onmousedown="handleReset()"/>
   <use id="arrowup" xlink:href="#arrowUp" x="0" y="0" onmousedown="handlePan(0,-1)"/>
  <use id="arrowright" xlink:href="#arrowRight" x="0" y="0" onmousedown="handlePan(1,0)"/>
  <use id="arrowdown" xlink:href="#arrowDown" x="0" y="0" onmousedown="handlePan(0,1)"/>
  <use id="arrowleft" xlink:href="#arrowLeft" x="0" y="0" onmousedown="handlePan(-1,0)"/>
</g>
<svg viewBox="0 0 15 15" width="100%" height="30px" preserveAspectRatio="xMaxYMin meet">
 <g id="arrow_out" transform="scale(0.3 0.3)">
  <a xlink:href="_type_traits_8hpp__dep__incl_org.svg" target="_base">
   <rect id="button" ry="5" rx="5" y="6" x="6" height="38" width="38"
        fill="#f2f5e9" fill-opacity="0.5" stroke="#606060" stroke-width="1.0"/>
   <path id="arrow"
     d="M 11.500037,31.436501 C 11.940474,20.09759 22.043105,11.32322 32.158766,21.979434 L 37.068811,17.246167 C 37.068811,17.246167 37.088388,32 37.088388,32 L 22.160133,31.978069 C 22.160133,31.978069 26.997745,27.140456 26.997745,27.140456 C 18.528582,18.264221 13.291696,25.230495 11.500037,31.436501 z"
     style="fill:#404040;"/>
  </a>
 </g>
</svg>

<style type='text/css'>
<![CDATA[
[data-mouse-over-selected='false'] { opacity: 0.7; }
[data-mouse-over-selected='true']  { opacity: 1.0; }
]]>
</style>
<script type="application/ecmascript"><![CDATA[
document.addEventListener('DOMContentLoaded', (event) => {
  highlightEdges();
  highlightAdjacentNodes();
});
]]></script>
</svg>
