<?xml version="1.0" encoding="UTF-8" standalone="no"?>
<!DOCTYPE svg PUBLIC "-//W3C//DTD SVG 1.1//EN"
 "http://www.w3.org/Graphics/SVG/1.1/DTD/svg11.dtd">
<!-- Generated by graphviz version 12.1.1 (20240910.0053)
 -->
<!-- Title: mimic++/TypeTraits.hpp Pages: 1 -->
<svg width="978pt" height="580pt"
 viewBox="0.00 0.00 977.75 579.75" xmlns="http://www.w3.org/2000/svg" xmlns:xlink="http://www.w3.org/1999/xlink">
<g id="graph0" class="graph" transform="scale(1 1) rotate(0) translate(4 575.75)">
<title>mimic++/TypeTraits.hpp</title>
<!-- Node1 -->
<g id="Node000001" class="node">
<title>Node1</title>
<g id="a_Node000001"><a xlink:title=" ">
<polygon fill="#999999" stroke="#666666" points="716.25,-571.75 595.25,-571.75 595.25,-552.5 716.25,-552.5 716.25,-571.75"/>
<text text-anchor="middle" x="655.75" y="-558.25" font-family="Helvetica,sans-Serif" font-size="10.00">mimic++/TypeTraits.hpp</text>
</a>
</g>
</g>
<!-- Node2 -->
<g id="Node000002" class="node">
<title>Node2</title>
<g id="a_Node000002"><a xlink:href="../../dc/d44/_call_8hpp.html" target="_top" xlink:title=" ">
<polygon fill="white" stroke="#666666" points="701.62,-516.5 609.88,-516.5 609.88,-497.25 701.62,-497.25 701.62,-516.5"/>
<text text-anchor="middle" x="655.75" y="-503" font-family="Helvetica,sans-Serif" font-size="10.00">mimic++/Call.hpp</text>
</a>
</g>
</g>
<!-- Node1&#45;&gt;Node2 -->
<g id="edge1_Node000001_Node000002" class="edge">
<title>Node1&#45;&gt;Node2</title>
<g id="a_edge1_Node000001_Node000002"><a xlink:title=" ">
<path fill="none" stroke="#63b8ff" d="M655.75,-540.88C655.75,-532.59 655.75,-523.42 655.75,-516.86"/>
<polygon fill="#63b8ff" stroke="#63b8ff" points="652.25,-540.82 655.75,-550.82 659.25,-540.82 652.25,-540.82"/>
</a>
</g>
</g>
<!-- Node3 -->
<g id="Node000003" class="node">
<title>Node3</title>
<g id="a_Node000003"><a xlink:href="../../d5/d8a/_expectation_8hpp.html" target="_top" xlink:title=" ">
<polygon fill="white" stroke="#666666" points="207.5,-240.25 82,-240.25 82,-221 207.5,-221 207.5,-240.25"/>
<text text-anchor="middle" x="144.75" y="-226.75" font-family="Helvetica,sans-Serif" font-size="10.00">mimic++/Expectation.hpp</text>
</a>
</g>
</g>
<!-- Node1&#45;&gt;Node3 -->
<g id="edge32_Node000001_Node000003" class="edge">
<title>Node1&#45;&gt;Node3</title>
<g id="a_edge32_Node000001_Node000003"><a xlink:title=" ">
<path fill="none" stroke="#63b8ff" d="M583.47,-555.23C426.57,-541.47 68.75,-504.41 68.75,-452.62 68.75,-452.62 68.75,-452.62 68.75,-340.12 68.75,-296.2 111.06,-257.42 132.54,-240.56"/>
<polygon fill="#63b8ff" stroke="#63b8ff" points="583.09,-558.71 593.36,-556.09 583.7,-551.74 583.09,-558.71"/>
</a>
</g>
</g>
<!-- Node7 -->
<g id="Node000007" class="node">
<title>Node7</title>
<g id="a_Node000007"><a xlink:href="../../d0/db9/mimic_09_09_8hpp.html" target="_top" xlink:title=" ">
<polygon fill="white" stroke="#666666" points="490.5,-19.25 377,-19.25 377,0 490.5,0 490.5,-19.25"/>
<text text-anchor="middle" x="433.75" y="-5.75" font-family="Helvetica,sans-Serif" font-size="10.00">mimic++/mimic++.hpp</text>
</a>
</g>
</g>
<!-- Node1&#45;&gt;Node7 -->
<g id="edge33_Node000001_Node000007" class="edge">
<title>Node1&#45;&gt;Node7</title>
<g id="a_edge33_Node000001_Node000007"><a xlink:title=" ">
<path fill="none" stroke="#63b8ff" d="M727.96,-550.93C820.67,-535.77 969.75,-503.49 969.75,-452.62 969.75,-452.62 969.75,-452.62 969.75,-119.12 969.75,-22.22 628.97,-10.87 490.86,-10.25"/>
<polygon fill="#63b8ff" stroke="#63b8ff" points="727.48,-547.46 718.16,-552.5 728.59,-554.38 727.48,-547.46"/>
</a>
</g>
</g>
<!-- Node2&#45;&gt;Node3 -->
<g id="edge2_Node000002_Node000003" class="edge">
<title>Node2&#45;&gt;Node3</title>
<g id="a_edge2_Node000002_Node000003"><a xlink:title=" ">
<path fill="none" stroke="#63b8ff" d="M598.04,-506.53C457.08,-506.58 106.75,-496.72 106.75,-397.38 106.75,-397.38 106.75,-397.38 106.75,-340.12 106.75,-301.21 128.8,-258.62 139.31,-240.54"/>
<polygon fill="#63b8ff" stroke="#63b8ff" points="597.91,-510.03 607.9,-506.51 597.89,-503.03 597.91,-510.03"/>
</a>
</g>
</g>
<!-- Node2&#45;&gt;Node7 -->
<g id="edge31_Node000002_Node000007" class="edge">
<title>Node2&#45;&gt;Node7</title>
<g id="a_edge31_Node000002_Node000007"><a xlink:title=" ">
<path fill="none" stroke="#63b8ff" d="M712.95,-495.39C793.8,-478.91 931.75,-443.97 931.75,-397.38 931.75,-397.38 931.75,-397.38 931.75,-119.12 931.75,-29.75 621.69,-13.87 490.88,-11.14"/>
<polygon fill="#63b8ff" stroke="#63b8ff" points="712.55,-491.9 703.43,-497.29 713.92,-498.76 712.55,-491.9"/>
</a>
</g>
</g>
<!-- Node9 -->
<g id="Node000009" class="node">
<title>Node9</title>
<g id="a_Node000009"><a xlink:href="../../da/dd9/_reporter_8hpp.html" target="_top" xlink:title=" ">
<polygon fill="white" stroke="#666666" points="622.75,-406 510.75,-406 510.75,-386.75 622.75,-386.75 622.75,-406"/>
<text text-anchor="middle" x="566.75" y="-392.5" font-family="Helvetica,sans-Serif" font-size="10.00">mimic++/Reporter.hpp</text>
</a>
</g>
</g>
<!-- Node2&#45;&gt;Node9 -->
<g id="edge14_Node000002_Node000009" class="edge">
<title>Node2&#45;&gt;Node9</title>
<g id="a_edge14_Node000002_Node000009"><a xlink:title=" ">
<path fill="none" stroke="#63b8ff" d="M641.17,-488.1C621.94,-464.66 588.82,-424.28 574.13,-406.38"/>
<polygon fill="#63b8ff" stroke="#63b8ff" points="638.46,-490.31 647.51,-495.83 643.87,-485.87 638.46,-490.31"/>
</a>
</g>
</g>
<!-- Node15 -->
<g id="Node000015" class="node">
<title>Node15</title>
<g id="a_Node000015"><a xlink:href="../../d0/d3b/_reports_8hpp.html" target="_top" xlink:title=" ">
<polygon fill="white" stroke="#666666" points="776.25,-461.25 667.25,-461.25 667.25,-442 776.25,-442 776.25,-461.25"/>
<text text-anchor="middle" x="721.75" y="-447.75" font-family="Helvetica,sans-Serif" font-size="10.00">mimic++/Reports.hpp</text>
</a>
</g>
</g>
<!-- Node2&#45;&gt;Node15 -->
<g id="edge27_Node000002_Node000015" class="edge">
<title>Node2&#45;&gt;Node15</title>
<g id="a_edge27_Node000002_Node000015"><a xlink:title=" ">
<path fill="none" stroke="#63b8ff" d="M675.84,-489.66C687.3,-480.42 701.23,-469.18 710.72,-461.52"/>
<polygon fill="#63b8ff" stroke="#63b8ff" points="673.71,-486.89 668.12,-495.89 678.1,-492.34 673.71,-486.89"/>
</a>
</g>
</g>
<!-- Node4 -->
<g id="Node000004" class="node">
<title>Node4</title>
<g id="a_Node000004"><a xlink:href="../../d2/d4f/_expectation_builder_8hpp.html" target="_top" xlink:title=" ">
<polygon fill="white" stroke="#666666" points="330.5,-129.75 175,-129.75 175,-110.5 330.5,-110.5 330.5,-129.75"/>
<text text-anchor="middle" x="252.75" y="-116.25" font-family="Helvetica,sans-Serif" font-size="10.00">mimic++/ExpectationBuilder.hpp</text>
</a>
</g>
</g>
<!-- Node3&#45;&gt;Node4 -->
<g id="edge3_Node000003_Node000004" class="edge">
<title>Node3&#45;&gt;Node4</title>
<g id="a_edge3_Node000003_Node000004"><a xlink:title=" ">
<path fill="none" stroke="#63b8ff" d="M187.82,-216.37C204.22,-209.38 221.82,-199.24 233.75,-185 247.28,-168.86 251.17,-143.39 252.3,-130.01"/>
<polygon fill="#63b8ff" stroke="#63b8ff" points="186.72,-213.04 178.69,-219.96 189.28,-219.55 186.72,-213.04"/>
</a>
</g>
</g>
<!-- Node5 -->
<g id="Node000005" class="node">
<title>Node5</title>
<g id="a_Node000005"><a xlink:href="../../d5/dc5/_mock_8hpp.html" target="_top" xlink:title=" ">
<polygon fill="white" stroke="#666666" points="118.38,-74.5 19.12,-74.5 19.12,-55.25 118.38,-55.25 118.38,-74.5"/>
<text text-anchor="middle" x="68.75" y="-61" font-family="Helvetica,sans-Serif" font-size="10.00">mimic++/Mock.hpp</text>
</a>
</g>
</g>
<!-- Node3&#45;&gt;Node5 -->
<g id="edge12_Node000003_Node000005" class="edge">
<title>Node3&#45;&gt;Node5</title>
<g id="a_edge12_Node000003_Node000005"><a xlink:title=" ">
<path fill="none" stroke="#63b8ff" d="M95.97,-216.48C80.38,-209.72 64.82,-199.7 55.75,-185 33.68,-149.24 54.53,-95.74 64.31,-74.77"/>
<polygon fill="#63b8ff" stroke="#63b8ff" points="94.69,-219.74 105.28,-220.11 97.23,-213.22 94.69,-219.74"/>
</a>
</g>
</g>
<!-- Node3&#45;&gt;Node7 -->
<g id="edge13_Node000003_Node000007" class="edge">
<title>Node3&#45;&gt;Node7</title>
<g id="a_edge13_Node000003_Node000007"><a xlink:title=" ">
<path fill="none" stroke="#63b8ff" d="M183.31,-216.74C225.43,-201.22 293.1,-171.86 339.75,-129.75 350.07,-120.44 407.23,-45.55 427.01,-19.51"/>
<polygon fill="#63b8ff" stroke="#63b8ff" points="182.32,-213.38 174.09,-220.06 184.69,-219.97 182.32,-213.38"/>
</a>
</g>
</g>
<!-- Node8 -->
<g id="Node000008" class="node">
<title>Node8</title>
<g id="a_Node000008"><a xlink:href="../../d8/de5/_expectation_policies_8hpp.html" target="_top" xlink:title=" ">
<polygon fill="white" stroke="#666666" points="224.75,-185 64.75,-185 64.75,-165.75 224.75,-165.75 224.75,-185"/>
<text text-anchor="middle" x="144.75" y="-171.5" font-family="Helvetica,sans-Serif" font-size="10.00">mimic++/ExpectationPolicies.hpp</text>
</a>
</g>
</g>
<!-- Node3&#45;&gt;Node8 -->
<g id="edge8_Node000003_Node000008" class="edge">
<title>Node3&#45;&gt;Node8</title>
<g id="a_edge8_Node000003_Node000008"><a xlink:title=" ">
<path fill="none" stroke="#63b8ff" d="M144.75,-209.38C144.75,-201.09 144.75,-191.92 144.75,-185.36"/>
<polygon fill="#63b8ff" stroke="#63b8ff" points="141.25,-209.32 144.75,-219.32 148.25,-209.32 141.25,-209.32"/>
</a>
</g>
</g>
<!-- Node4&#45;&gt;Node5 -->
<g id="edge4_Node000004_Node000005" class="edge">
<title>Node4&#45;&gt;Node5</title>
<g id="a_edge4_Node000004_Node000005"><a xlink:title=" ">
<path fill="none" stroke="#63b8ff" d="M210.65,-106.94C177,-97.2 130.57,-83.77 100.12,-74.95"/>
<polygon fill="#63b8ff" stroke="#63b8ff" points="209.5,-110.25 220.08,-109.67 211.45,-103.53 209.5,-110.25"/>
</a>
</g>
</g>
<!-- Node4&#45;&gt;Node7 -->
<g id="edge7_Node000004_Node000007" class="edge">
<title>Node4&#45;&gt;Node7</title>
<g id="a_edge7_Node000004_Node000007"><a xlink:title=" ">
<path fill="none" stroke="#63b8ff" d="M273.73,-103.28C292.02,-89.78 319.5,-70.24 344.75,-55.25 367.79,-41.57 395.55,-28.1 413.88,-19.6"/>
<polygon fill="#63b8ff" stroke="#63b8ff" points="271.73,-100.4 265.8,-109.18 275.91,-106.02 271.73,-100.4"/>
</a>
</g>
</g>
<!-- Node6 -->
<g id="Node000006" class="node">
<title>Node6</title>
<g id="a_Node000006"><a xlink:href="../../d9/dc3/_interface_mock_8hpp.html" target="_top" xlink:title=" ">
<polygon fill="white" stroke="#666666" points="137.5,-19.25 0,-19.25 0,0 137.5,0 137.5,-19.25"/>
<text text-anchor="middle" x="68.75" y="-5.75" font-family="Helvetica,sans-Serif" font-size="10.00">mimic++/InterfaceMock.hpp</text>
</a>
</g>
</g>
<!-- Node5&#45;&gt;Node6 -->
<g id="edge5_Node000005_Node000006" class="edge">
<title>Node5&#45;&gt;Node6</title>
<g id="a_edge5_Node000005_Node000006"><a xlink:title=" ">
<path fill="none" stroke="#63b8ff" d="M68.75,-43.63C68.75,-35.34 68.75,-26.17 68.75,-19.61"/>
<polygon fill="#63b8ff" stroke="#63b8ff" points="65.25,-43.57 68.75,-53.57 72.25,-43.57 65.25,-43.57"/>
</a>
</g>
</g>
<!-- Node5&#45;&gt;Node7 -->
<g id="edge6_Node000005_Node000007" class="edge">
<title>Node5&#45;&gt;Node7</title>
<g id="a_edge6_Node000005_Node000007"><a xlink:title=" ">
<path fill="none" stroke="#63b8ff" d="M129.81,-54.97C198.57,-44.93 309.44,-28.76 376.57,-18.97"/>
<polygon fill="#63b8ff" stroke="#63b8ff" points="129.62,-51.46 120.23,-56.36 130.63,-58.38 129.62,-51.46"/>
</a>
</g>
</g>
<!-- Node8&#45;&gt;Node4 -->
<g id="edge9_Node000008_Node000004" class="edge">
<title>Node8&#45;&gt;Node4</title>
<g id="a_edge9_Node000008_Node000004"><a xlink:title=" ">
<path fill="none" stroke="#63b8ff" d="M173.14,-160.37C192.5,-150.83 217.55,-138.48 234.34,-130.2"/>
<polygon fill="#63b8ff" stroke="#63b8ff" points="171.85,-157.11 164.43,-164.67 174.95,-163.39 171.85,-157.11"/>
</a>
</g>
</g>
<!-- Node8&#45;&gt;Node5 -->
<g id="edge10_Node000008_Node000005" class="edge">
<title>Node8&#45;&gt;Node5</title>
<g id="a_edge10_Node000008_Node000005"><a xlink:title=" ">
<path fill="none" stroke="#63b8ff" d="M132.08,-156.29C115.63,-132.8 87.54,-92.7 75.06,-74.88"/>
<polygon fill="#63b8ff" stroke="#63b8ff" points="129.06,-158.07 137.66,-164.26 134.79,-154.06 129.06,-158.07"/>
</a>
</g>
</g>
<!-- Node8&#45;&gt;Node7 -->
<g id="edge11_Node000008_Node000007" class="edge">
<title>Node8&#45;&gt;Node7</title>
<g id="a_edge11_Node000008_Node000007"><a xlink:title=" ">
<path fill="none" stroke="#63b8ff" d="M146.85,-153.99C149.28,-140.14 154.5,-122.25 165.75,-110.5 222.05,-51.66 316.2,-27.22 376.6,-17.25"/>
<polygon fill="#63b8ff" stroke="#63b8ff" points="143.4,-153.42 145.52,-163.8 150.34,-154.36 143.4,-153.42"/>
</a>
</g>
</g>
<!-- Node9&#45;&gt;Node3 -->
<g id="edge15_Node000009_Node000003" class="edge">
<title>Node9&#45;&gt;Node3</title>
<g id="a_edge15_Node000009_Node000003"><a xlink:title=" ">
<path fill="none" stroke="#63b8ff" d="M498.95,-392.3C390.44,-386.72 187.5,-373.39 163.75,-350.75 132.83,-321.27 139.12,-263.13 142.96,-240.72"/>
<polygon fill="#63b8ff" stroke="#63b8ff" points="498.74,-395.79 508.91,-392.8 499.09,-388.8 498.74,-395.79"/>
</a>
</g>
</g>
<!-- Node9&#45;&gt;Node7 -->
<g id="edge26_Node000009_Node000007" class="edge">
<title>Node9&#45;&gt;Node7</title>
<g id="a_edge26_Node000009_Node000007"><a xlink:title=" ">
<path fill="none" stroke="#63b8ff" d="M634.5,-393.74C683.01,-389.96 748.39,-379.33 798.75,-350.75 831.84,-331.97 855.75,-324.92 855.75,-286.88 855.75,-286.88 855.75,-286.88 855.75,-119.12 855.75,-44.61 605.85,-20.53 490.66,-13.38"/>
<polygon fill="#63b8ff" stroke="#63b8ff" points="634.42,-390.24 624.69,-394.42 634.9,-397.22 634.42,-390.24"/>
</a>
</g>
</g>
<!-- Node10 -->
<g id="Node000010" class="node">
<title>Node10</title>
<g id="a_Node000010"><a xlink:href="../../d8/de4/_sequence_8hpp.html" target="_top" xlink:title=" ">
<polygon fill="white" stroke="#666666" points="291.12,-350.75 172.38,-350.75 172.38,-331.5 291.12,-331.5 291.12,-350.75"/>
<text text-anchor="middle" x="231.75" y="-337.25" font-family="Helvetica,sans-Serif" font-size="10.00">mimic++/Sequence.hpp</text>
</a>
</g>
</g>
<!-- Node9&#45;&gt;Node10 -->
<g id="edge16_Node000009_Node000010" class="edge">
<title>Node9&#45;&gt;Node10</title>
<g id="a_edge16_Node000009_Node000010"><a xlink:title=" ">
<path fill="none" stroke="#63b8ff" d="M499.12,-384.63C437.41,-374.82 347.21,-360.48 288.99,-351.22"/>
<polygon fill="#63b8ff" stroke="#63b8ff" points="498.38,-388.05 508.81,-386.16 499.48,-381.14 498.38,-388.05"/>
</a>
</g>
</g>
<!-- Node12 -->
<g id="Node000012" class="node">
<title>Node12</title>
<g id="a_Node000012"><a xlink:href="../../d9/d42/_boost_test_8hpp.html" target="_top" xlink:title=" ">
<polygon fill="white" stroke="#666666" points="790.12,-350.75 629.38,-350.75 629.38,-331.5 790.12,-331.5 790.12,-350.75"/>
<text text-anchor="middle" x="709.75" y="-337.25" font-family="Helvetica,sans-Serif" font-size="10.00">mimic++/adapters/BoostTest.hpp</text>
</a>
</g>
</g>
<!-- Node9&#45;&gt;Node12 -->
<g id="edge23_Node000009_Node000012" class="edge">
<title>Node9&#45;&gt;Node12</title>
<g id="a_edge23_Node000009_Node000012"><a xlink:title=" ">
<path fill="none" stroke="#63b8ff" d="M601.53,-382.42C627.5,-372.75 662.32,-359.79 685.37,-351.2"/>
<polygon fill="#63b8ff" stroke="#63b8ff" points="600.58,-379.04 592.43,-385.81 603.02,-385.6 600.58,-379.04"/>
</a>
</g>
</g>
<!-- Node13 -->
<g id="Node000013" class="node">
<title>Node13</title>
<g id="a_Node000013"><a xlink:href="../../d3/d04/_catch2_8hpp.html" target="_top" xlink:title=" ">
<polygon fill="white" stroke="#666666" points="456,-350.75 309.5,-350.75 309.5,-331.5 456,-331.5 456,-350.75"/>
<text text-anchor="middle" x="382.75" y="-337.25" font-family="Helvetica,sans-Serif" font-size="10.00">mimic++/adapters/Catch2.hpp</text>
</a>
</g>
</g>
<!-- Node9&#45;&gt;Node13 -->
<g id="edge24_Node000009_Node000013" class="edge">
<title>Node9&#45;&gt;Node13</title>
<g id="a_edge24_Node000009_Node000013"><a xlink:title=" ">
<path fill="none" stroke="#63b8ff" d="M524.65,-383.19C491,-373.45 444.57,-360.02 414.12,-351.2"/>
<polygon fill="#63b8ff" stroke="#63b8ff" points="523.5,-386.5 534.08,-385.92 525.45,-379.78 523.5,-386.5"/>
</a>
</g>
</g>
<!-- Node14 -->
<g id="Node000014" class="node">
<title>Node14</title>
<g id="a_Node000014"><a xlink:href="../../d5/db1/gtest_8hpp.html" target="_top" xlink:title=" ">
<polygon fill="white" stroke="#666666" points="611.5,-350.75 474,-350.75 474,-331.5 611.5,-331.5 611.5,-350.75"/>
<text text-anchor="middle" x="542.75" y="-337.25" font-family="Helvetica,sans-Serif" font-size="10.00">mimic++/adapters/gtest.hpp</text>
</a>
</g>
</g>
<!-- Node9&#45;&gt;Node14 -->
<g id="edge25_Node000009_Node000014" class="edge">
<title>Node9&#45;&gt;Node14</title>
<g id="a_edge25_Node000009_Node000014"><a xlink:title=" ">
<path fill="none" stroke="#63b8ff" d="M558.15,-376.29C554.28,-367.71 549.9,-357.98 546.8,-351.11"/>
<polygon fill="#63b8ff" stroke="#63b8ff" points="554.87,-377.52 562.16,-385.2 561.25,-374.65 554.87,-377.52"/>
</a>
</g>
</g>
<!-- Node10&#45;&gt;Node4 -->
<g id="edge21_Node000010_Node000004" class="edge">
<title>Node10&#45;&gt;Node4</title>
<g id="a_edge21_Node000010_Node000004"><a xlink:title=" ">
<path fill="none" stroke="#63b8ff" d="M235.38,-319.86C240.47,-290.32 249.47,-233.66 252.75,-185 254.06,-165.53 253.57,-142.64 253.13,-130.23"/>
<polygon fill="#63b8ff" stroke="#63b8ff" points="231.96,-319.13 233.67,-329.59 238.85,-320.34 231.96,-319.13"/>
</a>
</g>
</g>
<!-- Node10&#45;&gt;Node7 -->
<g id="edge22_Node000010_Node000007" class="edge">
<title>Node10&#45;&gt;Node7</title>
<g id="a_edge22_Node000010_Node000007"><a xlink:title=" ">
<path fill="none" stroke="#63b8ff" d="M244.06,-321.72C272.52,-278.96 344.64,-169.3 399.75,-74.5 410.99,-55.17 423.04,-31.84 429.33,-19.42"/>
<polygon fill="#63b8ff" stroke="#63b8ff" points="241.28,-319.58 238.64,-329.84 247.11,-323.47 241.28,-319.58"/>
</a>
</g>
</g>
<!-- Node11 -->
<g id="Node000011" class="node">
<title>Node11</title>
<g id="a_Node000011"><a xlink:href="../../d6/d17/_control_policy_8hpp.html" target="_top" xlink:title=" ">
<polygon fill="white" stroke="#666666" points="522.88,-295.5 390.62,-295.5 390.62,-276.25 522.88,-276.25 522.88,-295.5"/>
<text text-anchor="middle" x="456.75" y="-282" font-family="Helvetica,sans-Serif" font-size="10.00">mimic++/ControlPolicy.hpp</text>
</a>
</g>
</g>
<!-- Node10&#45;&gt;Node11 -->
<g id="edge17_Node000010_Node000011" class="edge">
<title>Node10&#45;&gt;Node11</title>
<g id="a_edge17_Node000010_Node000011"><a xlink:title=" ">
<path fill="none" stroke="#63b8ff" d="M281.36,-328.39C322.68,-318.61 380.68,-304.88 418.49,-295.93"/>
<polygon fill="#63b8ff" stroke="#63b8ff" points="280.57,-324.97 271.65,-330.68 282.18,-331.79 280.57,-324.97"/>
</a>
</g>
</g>
<!-- Node11&#45;&gt;Node3 -->
<g id="edge18_Node000011_Node000003" class="edge">
<title>Node11&#45;&gt;Node3</title>
<g id="a_edge18_Node000011_Node000003"><a xlink:title=" ">
<path fill="none" stroke="#63b8ff" d="M392.34,-273.88C334.92,-264.08 251.85,-249.9 198.07,-240.73"/>
<polygon fill="#63b8ff" stroke="#63b8ff" points="391.53,-277.29 401.98,-275.53 392.71,-270.39 391.53,-277.29"/>
</a>
</g>
</g>
<!-- Node11&#45;&gt;Node4 -->
<g id="edge19_Node000011_Node000004" class="edge">
<title>Node11&#45;&gt;Node4</title>
<g id="a_edge19_Node000011_Node000004"><a xlink:title=" ">
<path fill="none" stroke="#63b8ff" d="M442.99,-266.98C423.03,-241.9 383.88,-195.98 342.75,-165.75 322.09,-150.57 295.48,-138.11 276.57,-130.25"/>
<polygon fill="#63b8ff" stroke="#63b8ff" points="440.03,-268.88 448.96,-274.59 445.54,-264.56 440.03,-268.88"/>
</a>
</g>
</g>
<!-- Node11&#45;&gt;Node7 -->
<g id="edge20_Node000011_Node000007" class="edge">
<title>Node11&#45;&gt;Node7</title>
<g id="a_edge20_Node000011_Node000007"><a xlink:title=" ">
<path fill="none" stroke="#63b8ff" d="M456.15,-264.51C455.56,-242.71 454.75,-207.1 454.75,-176.38 454.75,-176.38 454.75,-176.38 454.75,-119.12 454.75,-81.52 442.44,-37.9 436.67,-19.51"/>
<polygon fill="#63b8ff" stroke="#63b8ff" points="452.65,-264.46 456.43,-274.36 459.65,-264.27 452.65,-264.46"/>
</a>
</g>
</g>
<!-- Node15&#45;&gt;Node7 -->
<g id="edge30_Node000015_Node000007" class="edge">
<title>Node15&#45;&gt;Node7</title>
<g id="a_edge30_Node000015_Node000007"><a xlink:title=" ">
<path fill="none" stroke="#63b8ff" d="M781.59,-438.66C831.24,-424.84 893.75,-396.61 893.75,-342.12 893.75,-342.12 893.75,-342.12 893.75,-119.12 893.75,-37.18 613.69,-17.05 490.62,-12.17"/>
<polygon fill="#63b8ff" stroke="#63b8ff" points="780.82,-435.24 772.04,-441.17 782.6,-442.01 780.82,-435.24"/>
</a>
</g>
</g>
<!-- Node15&#45;&gt;Node9 -->
<g id="edge29_Node000015_Node000009" class="edge">
<title>Node15&#45;&gt;Node9</title>
<g id="a_edge29_Node000015_Node000009"><a xlink:title=" ">
<path fill="none" stroke="#63b8ff" d="M684.8,-437.93C656.58,-428.24 618.38,-415.11 593.17,-406.45"/>
<polygon fill="#63b8ff" stroke="#63b8ff" points="683.43,-441.16 694.02,-441.1 685.7,-434.54 683.43,-441.16"/>
</a>
</g>
</g>
<!-- Node15&#45;&gt;Node11 -->
<g id="edge28_Node000015_Node000011" class="edge">
<title>Node15&#45;&gt;Node11</title>
<g id="a_edge28_Node000015_Node000011"><a xlink:title=" ">
<path fill="none" stroke="#63b8ff" d="M744.66,-435.02C776.84,-411.26 828.35,-365.21 798.75,-331.5 780.87,-311.14 617.31,-297.26 523.01,-290.88"/>
<polygon fill="#63b8ff" stroke="#63b8ff" points="742.73,-432.1 736.64,-440.76 746.81,-437.79 742.73,-432.1"/>
</a>
</g>
</g>
</g>
</svg>
