<?xml version="1.0" encoding="UTF-8" standalone="no"?>
<!DOCTYPE svg PUBLIC "-//W3C//DTD SVG 1.1//EN"
 "http://www.w3.org/Graphics/SVG/1.1/DTD/svg11.dtd">
<!-- Generated by graphviz version 12.1.1 (20240910.0053)
 -->
<!-- Title: mimic++/TypeTraits.hpp Pages: 1 -->
<svg width="921pt" height="580pt"
 viewBox="0.00 0.00 921.00 579.75" xmlns="http://www.w3.org/2000/svg" xmlns:xlink="http://www.w3.org/1999/xlink">
<g id="graph0" class="graph" transform="scale(1 1) rotate(0) translate(4 575.75)">
<title>mimic++/TypeTraits.hpp</title>
<!-- Node1 -->
<g id="Node000001" class="node">
<title>Node1</title>
<g id="a_Node000001"><a xlink:title=" ">
<polygon fill="#999999" stroke="#666666" points="809.5,-571.75 688.5,-571.75 688.5,-552.5 809.5,-552.5 809.5,-571.75"/>
<text text-anchor="middle" x="749" y="-558.25" font-family="Helvetica,sans-Serif" font-size="10.00">mimic++/TypeTraits.hpp</text>
</a>
</g>
</g>
<!-- Node2 -->
<g id="Node000002" class="node">
<title>Node2</title>
<g id="a_Node000002"><a xlink:href="../../dc/d44/_call_8hpp.html" target="_top" xlink:title=" ">
<polygon fill="white" stroke="#666666" points="794.88,-516.5 703.12,-516.5 703.12,-497.25 794.88,-497.25 794.88,-516.5"/>
<text text-anchor="middle" x="749" y="-503" font-family="Helvetica,sans-Serif" font-size="10.00">mimic++/Call.hpp</text>
</a>
</g>
</g>
<!-- Node1&#45;&gt;Node2 -->
<g id="edge1_Node000001_Node000002" class="edge">
<title>Node1&#45;&gt;Node2</title>
<g id="a_edge1_Node000001_Node000002"><a xlink:title=" ">
<path fill="none" stroke="#63b8ff" d="M749,-540.88C749,-532.59 749,-523.42 749,-516.86"/>
<polygon fill="#63b8ff" stroke="#63b8ff" points="745.5,-540.82 749,-550.82 752.5,-540.82 745.5,-540.82"/>
</a>
</g>
</g>
<!-- Node3 -->
<g id="Node000003" class="node">
<title>Node3</title>
<g id="a_Node000003"><a xlink:href="../../d5/d8a/_expectation_8hpp.html" target="_top" xlink:title=" ">
<polygon fill="white" stroke="#666666" points="757.75,-240.25 632.25,-240.25 632.25,-221 757.75,-221 757.75,-240.25"/>
<text text-anchor="middle" x="695" y="-226.75" font-family="Helvetica,sans-Serif" font-size="10.00">mimic++/Expectation.hpp</text>
</a>
</g>
</g>
<!-- Node1&#45;&gt;Node3 -->
<g id="edge31_Node000001_Node000003" class="edge">
<title>Node1&#45;&gt;Node3</title>
<g id="a_edge31_Node000001_Node000003"><a xlink:title=" ">
<path fill="none" stroke="#63b8ff" d="M803.8,-548.99C851.48,-534.81 913,-506.15 913,-452.62 913,-452.62 913,-452.62 913,-340.12 913,-270.37 822.44,-245.46 758.05,-236.57"/>
<polygon fill="#63b8ff" stroke="#63b8ff" points="803.08,-545.55 794.41,-551.63 804.98,-552.29 803.08,-545.55"/>
</a>
</g>
</g>
<!-- Node6 -->
<g id="Node000006" class="node">
<title>Node6</title>
<g id="a_Node000006"><a xlink:href="../../d0/db9/mimic_09_09_8hpp.html" target="_top" xlink:title=" ">
<polygon fill="white" stroke="#666666" points="648.75,-19.25 535.25,-19.25 535.25,0 648.75,0 648.75,-19.25"/>
<text text-anchor="middle" x="592" y="-5.75" font-family="Helvetica,sans-Serif" font-size="10.00">mimic++/mimic++.hpp</text>
</a>
</g>
</g>
<!-- Node1&#45;&gt;Node6 -->
<g id="edge32_Node000001_Node000006" class="edge">
<title>Node1&#45;&gt;Node6</title>
<g id="a_edge32_Node000001_Node000006"><a xlink:title=" ">
<path fill="none" stroke="#63b8ff" d="M676.63,-558.17C488.75,-549.54 0,-520.55 0,-452.62 0,-452.62 0,-452.62 0,-119.12 0,-78.94 27.54,-72.16 64,-55.25 146.41,-17.02 415.92,-11.22 534.8,-10.56"/>
<polygon fill="#63b8ff" stroke="#63b8ff" points="676.36,-561.66 686.51,-558.62 676.68,-554.67 676.36,-561.66"/>
</a>
</g>
</g>
<!-- Node2&#45;&gt;Node3 -->
<g id="edge2_Node000002_Node000003" class="edge">
<title>Node2&#45;&gt;Node3</title>
<g id="a_edge2_Node000002_Node000003"><a xlink:title=" ">
<path fill="none" stroke="#63b8ff" d="M761.1,-487.2C773.51,-466.23 791,-430.74 791,-397.38 791,-397.38 791,-397.38 791,-340.12 791,-292.84 739.23,-256.49 711.72,-240.52"/>
<polygon fill="#63b8ff" stroke="#63b8ff" points="758.27,-485.13 755.99,-495.47 764.23,-488.81 758.27,-485.13"/>
</a>
</g>
</g>
<!-- Node2&#45;&gt;Node6 -->
<g id="edge30_Node000002_Node000006" class="edge">
<title>Node2&#45;&gt;Node6</title>
<g id="a_edge30_Node000002_Node000006"><a xlink:title=" ">
<path fill="none" stroke="#63b8ff" d="M785.62,-492.47C822.82,-476.21 875,-444.93 875,-397.38 875,-397.38 875,-397.38 875,-119.12 875,-83.61 857.14,-74.02 827,-55.25 772.89,-21.55 699.18,-12.22 648.83,-10.15"/>
<polygon fill="#63b8ff" stroke="#63b8ff" points="784.39,-489.19 776.5,-496.27 787.08,-495.65 784.39,-489.19"/>
</a>
</g>
</g>
<!-- Node8 -->
<g id="Node000008" class="node">
<title>Node8</title>
<g id="a_Node000008"><a xlink:href="../../da/dd9/_reporter_8hpp.html" target="_top" xlink:title=" ">
<polygon fill="white" stroke="#666666" points="564,-406 452,-406 452,-386.75 564,-386.75 564,-406"/>
<text text-anchor="middle" x="508" y="-392.5" font-family="Helvetica,sans-Serif" font-size="10.00">mimic++/Reporter.hpp</text>
</a>
</g>
</g>
<!-- Node2&#45;&gt;Node8 -->
<g id="edge13_Node000002_Node000008" class="edge">
<title>Node2&#45;&gt;Node8</title>
<g id="a_edge13_Node000002_Node000008"><a xlink:title=" ">
<path fill="none" stroke="#63b8ff" d="M716.66,-492.5C695.83,-483.79 668.22,-472.08 644,-461.25 601.85,-442.4 552.97,-419.08 526.82,-406.48"/>
<polygon fill="#63b8ff" stroke="#63b8ff" points="715.21,-495.68 725.78,-496.3 717.9,-489.22 715.21,-495.68"/>
</a>
</g>
</g>
<!-- Node14 -->
<g id="Node000014" class="node">
<title>Node14</title>
<g id="a_Node000014"><a xlink:href="../../d0/d3b/_reports_8hpp.html" target="_top" xlink:title=" ">
<polygon fill="white" stroke="#666666" points="762.5,-461.25 653.5,-461.25 653.5,-442 762.5,-442 762.5,-461.25"/>
<text text-anchor="middle" x="708" y="-447.75" font-family="Helvetica,sans-Serif" font-size="10.00">mimic++/Reports.hpp</text>
</a>
</g>
</g>
<!-- Node2&#45;&gt;Node14 -->
<g id="edge26_Node000002_Node000014" class="edge">
<title>Node2&#45;&gt;Node14</title>
<g id="a_edge26_Node000002_Node000014"><a xlink:title=" ">
<path fill="none" stroke="#63b8ff" d="M735.41,-488.22C728.54,-479.31 720.51,-468.87 714.92,-461.61"/>
<polygon fill="#63b8ff" stroke="#63b8ff" points="732.43,-490.09 741.31,-495.88 737.98,-485.82 732.43,-490.09"/>
</a>
</g>
</g>
<!-- Node4 -->
<g id="Node000004" class="node">
<title>Node4</title>
<g id="a_Node000004"><a xlink:href="../../d2/d4f/_expectation_builder_8hpp.html" target="_top" xlink:title=" ">
<polygon fill="white" stroke="#666666" points="618.75,-129.75 463.25,-129.75 463.25,-110.5 618.75,-110.5 618.75,-129.75"/>
<text text-anchor="middle" x="541" y="-116.25" font-family="Helvetica,sans-Serif" font-size="10.00">mimic++/ExpectationBuilder.hpp</text>
</a>
</g>
</g>
<!-- Node3&#45;&gt;Node4 -->
<g id="edge3_Node000003_Node000004" class="edge">
<title>Node3&#45;&gt;Node4</title>
<g id="a_edge3_Node000003_Node000004"><a xlink:title=" ">
<path fill="none" stroke="#63b8ff" d="M629.52,-217.38C608.19,-210.73 585.72,-200.54 569,-185 552.68,-169.83 545.36,-143.47 542.53,-129.84"/>
<polygon fill="#63b8ff" stroke="#63b8ff" points="628.51,-220.73 639.08,-220.13 630.44,-214 628.51,-220.73"/>
</a>
</g>
</g>
<!-- Node5 -->
<g id="Node000005" class="node">
<title>Node5</title>
<g id="a_Node000005"><a xlink:href="../../d5/dc5/_mock_8hpp.html" target="_top" xlink:title=" ">
<polygon fill="white" stroke="#666666" points="681.62,-74.5 582.38,-74.5 582.38,-55.25 681.62,-55.25 681.62,-74.5"/>
<text text-anchor="middle" x="632" y="-61" font-family="Helvetica,sans-Serif" font-size="10.00">mimic++/Mock.hpp</text>
</a>
</g>
</g>
<!-- Node3&#45;&gt;Node5 -->
<g id="edge11_Node000003_Node000005" class="edge">
<title>Node3&#45;&gt;Node5</title>
<g id="a_edge11_Node000003_Node000005"><a xlink:title=" ">
<path fill="none" stroke="#63b8ff" d="M643.35,-216.68C627.31,-209.96 611.39,-199.92 602,-185 587.55,-162.03 618.85,-155.3 628,-129.75 634.67,-111.13 634,-87.52 632.97,-74.87"/>
<polygon fill="#63b8ff" stroke="#63b8ff" points="641.83,-219.84 652.42,-220.09 644.29,-213.29 641.83,-219.84"/>
</a>
</g>
</g>
<!-- Node3&#45;&gt;Node6 -->
<g id="edge12_Node000003_Node000006" class="edge">
<title>Node3&#45;&gt;Node6</title>
<g id="a_edge12_Node000003_Node000006"><a xlink:title=" ">
<path fill="none" stroke="#63b8ff" d="M740.92,-216.31C756.06,-209.5 771.24,-199.49 780,-185 784.43,-177.68 782.41,-173.96 780,-165.75 763.56,-109.74 754.32,-92.05 709,-55.25 687.31,-37.64 657.92,-26.47 634.02,-19.7"/>
<polygon fill="#63b8ff" stroke="#63b8ff" points="739.88,-212.96 731.93,-219.97 742.51,-219.45 739.88,-212.96"/>
</a>
</g>
</g>
<!-- Node7 -->
<g id="Node000007" class="node">
<title>Node7</title>
<g id="a_Node000007"><a xlink:href="../../d8/de5/_expectation_policies_8hpp.html" target="_top" xlink:title=" ">
<polygon fill="white" stroke="#666666" points="771,-185 611,-185 611,-165.75 771,-165.75 771,-185"/>
<text text-anchor="middle" x="691" y="-171.5" font-family="Helvetica,sans-Serif" font-size="10.00">mimic++/ExpectationPolicies.hpp</text>
</a>
</g>
</g>
<!-- Node3&#45;&gt;Node7 -->
<g id="edge7_Node000003_Node000007" class="edge">
<title>Node3&#45;&gt;Node7</title>
<g id="a_edge7_Node000003_Node000007"><a xlink:title=" ">
<path fill="none" stroke="#63b8ff" d="M693.48,-209.38C692.86,-201.09 692.17,-191.92 691.67,-185.36"/>
<polygon fill="#63b8ff" stroke="#63b8ff" points="689.99,-209.61 694.23,-219.32 696.97,-209.09 689.99,-209.61"/>
</a>
</g>
</g>
<!-- Node4&#45;&gt;Node5 -->
<g id="edge4_Node000004_Node000005" class="edge">
<title>Node4&#45;&gt;Node5</title>
<g id="a_edge4_Node000004_Node000005"><a xlink:title=" ">
<path fill="none" stroke="#63b8ff" d="M566.29,-104.32C582.4,-94.9 602.74,-83 616.49,-74.95"/>
<polygon fill="#63b8ff" stroke="#63b8ff" points="564.61,-101.26 557.74,-109.33 568.14,-107.3 564.61,-101.26"/>
</a>
</g>
</g>
<!-- Node4&#45;&gt;Node6 -->
<g id="edge6_Node000004_Node000006" class="edge">
<title>Node4&#45;&gt;Node6</title>
<g id="a_edge6_Node000004_Node000006"><a xlink:title=" ">
<path fill="none" stroke="#63b8ff" d="M549.95,-100.08C561.05,-76.47 579.5,-37.21 587.77,-19.63"/>
<polygon fill="#63b8ff" stroke="#63b8ff" points="546.9,-98.34 545.82,-108.88 553.24,-101.32 546.9,-98.34"/>
</a>
</g>
</g>
<!-- Node5&#45;&gt;Node6 -->
<g id="edge5_Node000005_Node000006" class="edge">
<title>Node5&#45;&gt;Node6</title>
<g id="a_edge5_Node000005_Node000006"><a xlink:title=" ">
<path fill="none" stroke="#63b8ff" d="M618.53,-45.94C611.88,-37.09 604.14,-26.79 598.75,-19.61"/>
<polygon fill="#63b8ff" stroke="#63b8ff" points="615.68,-47.98 624.49,-53.87 621.28,-43.77 615.68,-47.98"/>
</a>
</g>
</g>
<!-- Node7&#45;&gt;Node4 -->
<g id="edge8_Node000007_Node000004" class="edge">
<title>Node7&#45;&gt;Node4</title>
<g id="a_edge8_Node000007_Node000004"><a xlink:title=" ">
<path fill="none" stroke="#63b8ff" d="M654.88,-161.55C627.61,-151.87 590.86,-138.82 566.57,-130.2"/>
<polygon fill="#63b8ff" stroke="#63b8ff" points="653.53,-164.79 664.13,-164.84 655.88,-158.19 653.53,-164.79"/>
</a>
</g>
</g>
<!-- Node7&#45;&gt;Node5 -->
<g id="edge9_Node000007_Node000005" class="edge">
<title>Node7&#45;&gt;Node5</title>
<g id="a_edge9_Node000007_Node000005"><a xlink:title=" ">
<path fill="none" stroke="#63b8ff" d="M682.78,-155.11C677.09,-142.25 669.12,-125.09 661,-110.5 653.9,-97.74 644.52,-83.73 638.38,-74.88"/>
<polygon fill="#63b8ff" stroke="#63b8ff" points="679.5,-156.34 686.69,-164.12 685.92,-153.55 679.5,-156.34"/>
</a>
</g>
</g>
<!-- Node7&#45;&gt;Node6 -->
<g id="edge10_Node000007_Node000006" class="edge">
<title>Node7&#45;&gt;Node6</title>
<g id="a_edge10_Node000007_Node000006"><a xlink:title=" ">
<path fill="none" stroke="#63b8ff" d="M697.15,-154.32C703.61,-129.04 710.4,-85.27 691,-55.25 679.18,-36.96 657.88,-26.09 638.05,-19.67"/>
<polygon fill="#63b8ff" stroke="#63b8ff" points="693.78,-153.36 694.44,-163.94 700.52,-155.26 693.78,-153.36"/>
</a>
</g>
</g>
<!-- Node8&#45;&gt;Node3 -->
<g id="edge14_Node000008_Node000003" class="edge">
<title>Node8&#45;&gt;Node3</title>
<g id="a_edge14_Node000008_Node000003"><a xlink:title=" ">
<path fill="none" stroke="#63b8ff" d="M575.54,-387.62C621.77,-380.78 677.27,-369 692,-350.75 718.38,-318.07 704.81,-262.31 698.06,-240.63"/>
<polygon fill="#63b8ff" stroke="#63b8ff" points="575.22,-384.13 565.82,-389 576.21,-391.06 575.22,-384.13"/>
</a>
</g>
</g>
<!-- Node8&#45;&gt;Node6 -->
<g id="edge25_Node000008_Node000006" class="edge">
<title>Node8&#45;&gt;Node6</title>
<g id="a_edge25_Node000008_Node000006"><a xlink:title=" ">
<path fill="none" stroke="#63b8ff" d="M440.04,-392.78C321.3,-387.66 85.88,-374.6 57,-350.75 34.16,-331.89 38,-316.49 38,-286.88 38,-286.88 38,-286.88 38,-119.12 38,-18.67 393.25,-9.52 534.8,-9.87"/>
<polygon fill="#63b8ff" stroke="#63b8ff" points="439.85,-396.28 449.99,-393.21 440.15,-389.29 439.85,-396.28"/>
</a>
</g>
</g>
<!-- Node9 -->
<g id="Node000009" class="node">
<title>Node9</title>
<g id="a_Node000009"><a xlink:href="../../d8/de4/_sequence_8hpp.html" target="_top" xlink:title=" ">
<polygon fill="white" stroke="#666666" points="683.38,-350.75 564.62,-350.75 564.62,-331.5 683.38,-331.5 683.38,-350.75"/>
<text text-anchor="middle" x="624" y="-337.25" font-family="Helvetica,sans-Serif" font-size="10.00">mimic++/Sequence.hpp</text>
</a>
</g>
</g>
<!-- Node8&#45;&gt;Node9 -->
<g id="edge15_Node000008_Node000009" class="edge">
<title>Node8&#45;&gt;Node9</title>
<g id="a_edge15_Node000008_Node000009"><a xlink:title=" ">
<path fill="none" stroke="#63b8ff" d="M537.92,-381.64C558.78,-372.06 586.03,-359.56 604.23,-351.2"/>
<polygon fill="#63b8ff" stroke="#63b8ff" points="536.68,-378.36 529.05,-385.71 539.6,-384.72 536.68,-378.36"/>
</a>
</g>
</g>
<!-- Node11 -->
<g id="Node000011" class="node">
<title>Node11</title>
<g id="a_Node000011"><a xlink:href="../../d9/d42/_boost_test_8hpp.html" target="_top" xlink:title=" ">
<polygon fill="white" stroke="#666666" points="226.38,-350.75 65.62,-350.75 65.62,-331.5 226.38,-331.5 226.38,-350.75"/>
<text text-anchor="middle" x="146" y="-337.25" font-family="Helvetica,sans-Serif" font-size="10.00">mimic++/adapters/BoostTest.hpp</text>
</a>
</g>
</g>
<!-- Node8&#45;&gt;Node11 -->
<g id="edge22_Node000008_Node000011" class="edge">
<title>Node8&#45;&gt;Node11</title>
<g id="a_edge22_Node000008_Node000011"><a xlink:title=" ">
<path fill="none" stroke="#63b8ff" d="M440.61,-385.46C373.85,-375.64 272.48,-360.73 207.76,-351.21"/>
<polygon fill="#63b8ff" stroke="#63b8ff" points="439.93,-388.9 450.34,-386.89 440.95,-381.97 439.93,-388.9"/>
</a>
</g>
</g>
<!-- Node12 -->
<g id="Node000012" class="node">
<title>Node12</title>
<g id="a_Node000012"><a xlink:href="../../d3/d04/_catch2_8hpp.html" target="_top" xlink:title=" ">
<polygon fill="white" stroke="#666666" points="391.25,-350.75 244.75,-350.75 244.75,-331.5 391.25,-331.5 391.25,-350.75"/>
<text text-anchor="middle" x="318" y="-337.25" font-family="Helvetica,sans-Serif" font-size="10.00">mimic++/adapters/Catch2.hpp</text>
</a>
</g>
</g>
<!-- Node8&#45;&gt;Node12 -->
<g id="edge23_Node000008_Node000012" class="edge">
<title>Node8&#45;&gt;Node12</title>
<g id="a_edge23_Node000008_Node000012"><a xlink:title=" ">
<path fill="none" stroke="#63b8ff" d="M464.98,-383.32C430.2,-373.57 381.97,-360.05 350.39,-351.2"/>
<polygon fill="#63b8ff" stroke="#63b8ff" points="463.74,-386.6 474.31,-385.93 465.63,-379.86 463.74,-386.6"/>
</a>
</g>
</g>
<!-- Node13 -->
<g id="Node000013" class="node">
<title>Node13</title>
<g id="a_Node000013"><a xlink:href="../../d5/db1/gtest_8hpp.html" target="_top" xlink:title=" ">
<polygon fill="white" stroke="#666666" points="546.75,-350.75 409.25,-350.75 409.25,-331.5 546.75,-331.5 546.75,-350.75"/>
<text text-anchor="middle" x="478" y="-337.25" font-family="Helvetica,sans-Serif" font-size="10.00">mimic++/adapters/gtest.hpp</text>
</a>
</g>
</g>
<!-- Node8&#45;&gt;Node13 -->
<g id="edge24_Node000008_Node000013" class="edge">
<title>Node8&#45;&gt;Node13</title>
<g id="a_edge24_Node000008_Node000013"><a xlink:title=" ">
<path fill="none" stroke="#63b8ff" d="M497.41,-376.58C492.53,-367.92 486.98,-358.06 483.06,-351.11"/>
<polygon fill="#63b8ff" stroke="#63b8ff" points="494.35,-378.27 502.3,-385.26 500.44,-374.83 494.35,-378.27"/>
</a>
</g>
</g>
<!-- Node9&#45;&gt;Node4 -->
<g id="edge20_Node000009_Node000004" class="edge">
<title>Node9&#45;&gt;Node4</title>
<g id="a_edge20_Node000009_Node000004"><a xlink:title=" ">
<path fill="none" stroke="#63b8ff" d="M579.98,-326.55C565.28,-319.69 550.5,-309.71 542,-295.5 509.05,-240.42 529.99,-156.98 538.16,-129.93"/>
<polygon fill="#63b8ff" stroke="#63b8ff" points="578.6,-329.77 589.17,-330.42 581.31,-323.31 578.6,-329.77"/>
</a>
</g>
</g>
<!-- Node9&#45;&gt;Node6 -->
<g id="edge21_Node000009_Node000006" class="edge">
<title>Node9&#45;&gt;Node6</title>
<g id="a_edge21_Node000009_Node000006"><a xlink:title=" ">
<path fill="none" stroke="#63b8ff" d="M576.59,-328.09C508.99,-309.53 393,-271.81 393,-231.62 393,-231.62 393,-231.62 393,-119.12 393,-54 476.17,-27.73 534.97,-17.3"/>
<polygon fill="#63b8ff" stroke="#63b8ff" points="575.37,-331.39 585.94,-330.62 577.19,-324.63 575.37,-331.39"/>
</a>
</g>
</g>
<!-- Node10 -->
<g id="Node000010" class="node">
<title>Node10</title>
<g id="a_Node000010"><a xlink:href="../../d6/d17/_control_policy_8hpp.html" target="_top" xlink:title=" ">
<polygon fill="white" stroke="#666666" points="683.12,-295.5 550.88,-295.5 550.88,-276.25 683.12,-276.25 683.12,-295.5"/>
<text text-anchor="middle" x="617" y="-282" font-family="Helvetica,sans-Serif" font-size="10.00">mimic++/ControlPolicy.hpp</text>
</a>
</g>
</g>
<!-- Node9&#45;&gt;Node10 -->
<g id="edge16_Node000009_Node000010" class="edge">
<title>Node9&#45;&gt;Node10</title>
<g id="a_edge16_Node000009_Node000010"><a xlink:title=" ">
<path fill="none" stroke="#63b8ff" d="M621.38,-320.17C620.28,-311.8 619.05,-302.5 618.18,-295.86"/>
<polygon fill="#63b8ff" stroke="#63b8ff" points="617.87,-320.37 622.65,-329.83 624.81,-319.46 617.87,-320.37"/>
</a>
</g>
</g>
<!-- Node10&#45;&gt;Node3 -->
<g id="edge17_Node000010_Node000003" class="edge">
<title>Node10&#45;&gt;Node3</title>
<g id="a_edge17_Node000010_Node000003"><a xlink:title=" ">
<path fill="none" stroke="#63b8ff" d="M639.47,-269.53C653.15,-260.2 670.14,-248.6 681.7,-240.7"/>
<polygon fill="#63b8ff" stroke="#63b8ff" points="637.77,-266.46 631.48,-274.99 641.71,-272.24 637.77,-266.46"/>
</a>
</g>
</g>
<!-- Node10&#45;&gt;Node4 -->
<g id="edge18_Node000010_Node000004" class="edge">
<title>Node10&#45;&gt;Node4</title>
<g id="a_edge18_Node000010_Node000004"><a xlink:title=" ">
<path fill="none" stroke="#63b8ff" d="M601.94,-267.29C586.55,-248.3 563.21,-216.52 551,-185 543.78,-166.37 541.77,-142.77 541.21,-130.11"/>
<polygon fill="#63b8ff" stroke="#63b8ff" points="599.12,-269.37 608.2,-274.82 604.5,-264.9 599.12,-269.37"/>
</a>
</g>
</g>
<!-- Node10&#45;&gt;Node6 -->
<g id="edge19_Node000010_Node000006" class="edge">
<title>Node10&#45;&gt;Node6</title>
<g id="a_edge19_Node000010_Node000006"><a xlink:title=" ">
<path fill="none" stroke="#63b8ff" d="M591.32,-270.19C552.77,-246.45 481.53,-195.59 454,-129.75 430.98,-74.71 516.68,-36.14 563.48,-19.62"/>
<polygon fill="#63b8ff" stroke="#63b8ff" points="589.14,-272.97 599.52,-275.12 592.75,-266.97 589.14,-272.97"/>
</a>
</g>
</g>
<!-- Node14&#45;&gt;Node6 -->
<g id="edge29_Node000014_Node000006" class="edge">
<title>Node14&#45;&gt;Node6</title>
<g id="a_edge29_Node000014_Node000006"><a xlink:title=" ">
<path fill="none" stroke="#63b8ff" d="M745.64,-437.41C783.71,-421.35 837,-390.27 837,-342.12 837,-342.12 837,-342.12 837,-119.12 837,-37.37 721.53,-16.73 649.13,-11.82"/>
<polygon fill="#63b8ff" stroke="#63b8ff" points="744.73,-434 736.76,-440.98 747.35,-440.49 744.73,-434"/>
</a>
</g>
</g>
<!-- Node14&#45;&gt;Node8 -->
<g id="edge28_Node000014_Node000008" class="edge">
<title>Node14&#45;&gt;Node8</title>
<g id="a_edge28_Node000014_Node000008"><a xlink:title=" ">
<path fill="none" stroke="#63b8ff" d="M663.2,-438.7C626.54,-428.94 575.48,-415.34 542.09,-406.45"/>
<polygon fill="#63b8ff" stroke="#63b8ff" points="662.05,-442.01 672.61,-441.2 663.85,-435.25 662.05,-442.01"/>
</a>
</g>
</g>
<!-- Node14&#45;&gt;Node10 -->
<g id="edge27_Node000014_Node000010" class="edge">
<title>Node14&#45;&gt;Node10</title>
<g id="a_edge27_Node000014_Node000010"><a xlink:title=" ">
<path fill="none" stroke="#63b8ff" d="M710.35,-430.24C712.21,-404.94 711.78,-361.45 692,-331.5 680.73,-314.43 660.49,-302.96 643.87,-295.92"/>
<polygon fill="#63b8ff" stroke="#63b8ff" points="706.87,-429.86 709.41,-440.15 713.84,-430.52 706.87,-429.86"/>
</a>
</g>
</g>
</g>
</svg>
