<?xml version="1.0" encoding="UTF-8" standalone="no"?>
<!DOCTYPE svg PUBLIC "-//W3C//DTD SVG 1.1//EN"
 "http://www.w3.org/Graphics/SVG/1.1/DTD/svg11.dtd">
<!-- Generated by graphviz version 9.0.0 (20230911.1827)
 -->
<!-- Title: mimic++/TypeTraits.hpp Pages: 1 -->
<svg width="384pt" height="359pt"
 viewBox="0.00 0.00 383.75 358.75" xmlns="http://www.w3.org/2000/svg" xmlns:xlink="http://www.w3.org/1999/xlink">

<svg id="main" version="1.1" xmlns="http://www.w3.org/2000/svg" xmlns:xlink="http://www.w3.org/1999/xlink" xml:space="preserve" onload="init(evt)">
<style type="text/css"><![CDATA[
.node, .edge {opacity: 0.7;}
.node.selected, .edge.selected {opacity: 1;}
.edge:hover path { stroke: red; }
.edge:hover polygon { stroke: red; fill: red; }
]]></style>
<script type="application/ecmascript" xlink:href="../../svg.min.js"/>
<svg id="graph" class="graph">
<g id="graph0" class="graph" transform="scale(1 1) rotate(0) translate(4 354.75)">
<title>mimic++/TypeTraits.hpp</title>
<!-- Node1 -->
<g id="Node000001" class="node">
<title>Node1</title>
<g id="a_Node000001"><a xlink:title=" ">
<polygon fill="#999999" stroke="#666666" points="254.88,-350.75 133.88,-350.75 133.88,-331.5 254.88,-331.5 254.88,-350.75"/>
<text text-anchor="middle" x="194.38" y="-337.25" font-family="Helvetica,sans-Serif" font-size="10.00">mimic++/TypeTraits.hpp</text>
</a>
</g>
</g>
<!-- Node2 -->
<g id="Node000002" class="node">
<title>Node2</title>
<g id="a_Node000002"><a xlink:href="../../dc/d44/_call_8hpp.html" target="_top" xlink:title=" ">
<polygon fill="white" stroke="#666666" points="277.25,-295.5 185.5,-295.5 185.5,-276.25 277.25,-276.25 277.25,-295.5"/>
<text text-anchor="middle" x="231.38" y="-282" font-family="Helvetica,sans-Serif" font-size="10.00">mimic++/Call.hpp</text>
</a>
</g>
</g>
<!-- Node1&#45;&gt;Node2 -->
<g id="edge1_Node000001_Node000002" class="edge">
<title>Node1&#45;&gt;Node2</title>
<g id="a_edge1_Node000001_Node000002"><a xlink:title=" ">
<path fill="none" stroke="#63b8ff" d="M207.04,-321.9C213.14,-313.11 220.2,-302.96 225.13,-295.86"/>
<polygon fill="#63b8ff" stroke="#63b8ff" points="204.18,-319.88 201.35,-330.09 209.93,-323.87 204.18,-319.88"/>
</a>
</g>
</g>
<!-- Node3 -->
<g id="Node000003" class="node">
<title>Node3</title>
<g id="a_Node000003"><a xlink:href="../../d5/d8a/_expectation_8hpp.html" target="_top" xlink:title=" ">
<polygon fill="white" stroke="#666666" points="239.12,-185 113.62,-185 113.62,-165.75 239.12,-165.75 239.12,-185"/>
<text text-anchor="middle" x="176.38" y="-171.5" font-family="Helvetica,sans-Serif" font-size="10.00">mimic++/Expectation.hpp</text>
</a>
</g>
</g>
<!-- Node1&#45;&gt;Node3 -->
<g id="edge15_Node000001_Node000003" class="edge">
<title>Node1&#45;&gt;Node3</title>
<g id="a_edge15_Node000001_Node000003"><a xlink:title=" ">
<path fill="none" stroke="#63b8ff" d="M184.71,-320.83C181.37,-313.15 178.04,-304.1 176.38,-295.5 168.53,-255.1 172.88,-205.53 175.21,-185.45"/>
<polygon fill="#63b8ff" stroke="#63b8ff" points="181.52,-322.28 188.94,-329.84 187.86,-319.3 181.52,-322.28"/>
</a>
</g>
</g>
<!-- Node2&#45;&gt;Node3 -->
<g id="edge2_Node000002_Node000003" class="edge">
<title>Node2&#45;&gt;Node3</title>
<g id="a_edge2_Node000002_Node000003"><a xlink:title=" ">
<path fill="none" stroke="#63b8ff" d="M221.72,-265.83C209.75,-242.22 189.85,-202.96 180.94,-185.38"/>
<polygon fill="#63b8ff" stroke="#63b8ff" points="218.55,-267.31 226.19,-274.65 224.79,-264.14 218.55,-267.31"/>
</a>
</g>
</g>
<!-- Node8 -->
<g id="Node000008" class="node">
<title>Node8</title>
<g id="a_Node000008"><a xlink:href="../../da/dd9/_reporter_8hpp.html" target="_top" xlink:title=" ">
<polygon fill="white" stroke="#666666" points="335.38,-240.25 223.38,-240.25 223.38,-221 335.38,-221 335.38,-240.25"/>
<text text-anchor="middle" x="279.38" y="-226.75" font-family="Helvetica,sans-Serif" font-size="10.00">mimic++/Reporter.hpp</text>
</a>
</g>
</g>
<!-- Node2&#45;&gt;Node8 -->
<g id="edge12_Node000002_Node000008" class="edge">
<title>Node2&#45;&gt;Node8</title>
<g id="a_edge12_Node000002_Node000008"><a xlink:title=" ">
<path fill="none" stroke="#63b8ff" d="M246.77,-267.79C254.92,-258.75 264.59,-248.02 271.28,-240.61"/>
<polygon fill="#63b8ff" stroke="#63b8ff" points="244.41,-265.19 240.31,-274.96 249.61,-269.87 244.41,-265.19"/>
</a>
</g>
</g>
<!-- Node4 -->
<g id="Node000004" class="node">
<title>Node4</title>
<g id="a_Node000004"><a xlink:href="../../d3/d4c/_complex_mock_8hpp.html" target="_top" xlink:title=" ">
<polygon fill="white" stroke="#666666" points="136.75,-19.25 0,-19.25 0,0 136.75,0 136.75,-19.25"/>
<text text-anchor="middle" x="68.38" y="-5.75" font-family="Helvetica,sans-Serif" font-size="10.00">mimic++/ComplexMock.hpp</text>
</a>
</g>
</g>
<!-- Node3&#45;&gt;Node4 -->
<g id="edge3_Node000003_Node000004" class="edge">
<title>Node3&#45;&gt;Node4</title>
<g id="a_edge3_Node000003_Node000004"><a xlink:title=" ">
<path fill="none" stroke="#63b8ff" d="M102.37,-169C76.29,-163.11 49.49,-151.66 33.38,-129.75 7.58,-94.67 44.28,-40.78 60.92,-19.61"/>
<polygon fill="#63b8ff" stroke="#63b8ff" points="101.49,-172.39 111.98,-170.9 102.85,-165.53 101.49,-172.39"/>
</a>
</g>
</g>
<!-- Node5 -->
<g id="Node000005" class="node">
<title>Node5</title>
<g id="a_Node000005"><a xlink:href="../../d2/d4f/_expectation_builder_8hpp.html" target="_top" xlink:title=" ">
<polygon fill="white" stroke="#666666" points="290.12,-74.5 134.62,-74.5 134.62,-55.25 290.12,-55.25 290.12,-74.5"/>
<text text-anchor="middle" x="212.38" y="-61" font-family="Helvetica,sans-Serif" font-size="10.00">mimic++/ExpectationBuilder.hpp</text>
</a>
</g>
</g>
<!-- Node3&#45;&gt;Node5 -->
<g id="edge4_Node000003_Node000005" class="edge">
<title>Node3&#45;&gt;Node5</title>
<g id="a_edge4_Node000003_Node000005"><a xlink:title=" ">
<path fill="none" stroke="#63b8ff" d="M194.11,-157.24C200.85,-149.54 207.78,-139.91 211.38,-129.75 217.97,-111.14 215.87,-87.53 213.99,-74.87"/>
<polygon fill="#63b8ff" stroke="#63b8ff" points="191.59,-154.81 187.25,-164.48 196.67,-159.63 191.59,-154.81"/>
</a>
</g>
</g>
<!-- Node6 -->
<g id="Node000006" class="node">
<title>Node6</title>
<g id="a_Node000006"><a xlink:href="../../d5/dc5/_mock_8hpp.html" target="_top" xlink:title=" ">
<polygon fill="white" stroke="#666666" points="262,-19.25 162.75,-19.25 162.75,0 262,0 262,-19.25"/>
<text text-anchor="middle" x="212.38" y="-5.75" font-family="Helvetica,sans-Serif" font-size="10.00">mimic++/Mock.hpp</text>
</a>
</g>
</g>
<!-- Node3&#45;&gt;Node6 -->
<g id="edge11_Node000003_Node000006" class="edge">
<title>Node3&#45;&gt;Node6</title>
<g id="a_edge11_Node000003_Node000006"><a xlink:title=" ">
<path fill="none" stroke="#63b8ff" d="M206.25,-160.11C236.1,-144.01 280.23,-114.71 299.38,-74.5 312.14,-47.69 275.75,-29.59 246.18,-19.69"/>
<polygon fill="#63b8ff" stroke="#63b8ff" points="204.95,-156.84 197.69,-164.56 208.18,-163.05 204.95,-156.84"/>
</a>
</g>
</g>
<!-- Node7 -->
<g id="Node000007" class="node">
<title>Node7</title>
<g id="a_Node000007"><a xlink:href="../../d8/de5/_expectation_policies_8hpp.html" target="_top" xlink:title=" ">
<polygon fill="white" stroke="#666666" points="202.38,-129.75 42.38,-129.75 42.38,-110.5 202.38,-110.5 202.38,-129.75"/>
<text text-anchor="middle" x="122.38" y="-116.25" font-family="Helvetica,sans-Serif" font-size="10.00">mimic++/ExpectationPolicies.hpp</text>
</a>
</g>
</g>
<!-- Node3&#45;&gt;Node7 -->
<g id="edge7_Node000003_Node000007" class="edge">
<title>Node3&#45;&gt;Node7</title>
<g id="a_edge7_Node000003_Node000007"><a xlink:title=" ">
<path fill="none" stroke="#63b8ff" d="M159.34,-157.57C150.11,-148.48 139.08,-137.6 131.49,-130.11"/>
<polygon fill="#63b8ff" stroke="#63b8ff" points="156.8,-159.99 166.38,-164.52 161.72,-155.01 156.8,-159.99"/>
</a>
</g>
</g>
<!-- Node5&#45;&gt;Node4 -->
<g id="edge5_Node000005_Node000004" class="edge">
<title>Node5&#45;&gt;Node4</title>
<g id="a_edge5_Node000005_Node000004"><a xlink:title=" ">
<path fill="none" stroke="#63b8ff" d="M177.35,-50.92C151.2,-41.25 116.13,-28.29 92.92,-19.7"/>
<polygon fill="#63b8ff" stroke="#63b8ff" points="175.93,-54.13 186.53,-54.32 178.36,-47.57 175.93,-54.13"/>
</a>
</g>
</g>
<!-- Node5&#45;&gt;Node6 -->
<g id="edge6_Node000005_Node000006" class="edge">
<title>Node5&#45;&gt;Node6</title>
<g id="a_edge6_Node000005_Node000006"><a xlink:title=" ">
<path fill="none" stroke="#63b8ff" d="M212.38,-43.63C212.38,-35.34 212.38,-26.17 212.38,-19.61"/>
<polygon fill="#63b8ff" stroke="#63b8ff" points="208.88,-43.57 212.38,-53.57 215.88,-43.57 208.88,-43.57"/>
</a>
</g>
</g>
<!-- Node7&#45;&gt;Node4 -->
<g id="edge8_Node000007_Node000004" class="edge">
<title>Node7&#45;&gt;Node4</title>
<g id="a_edge8_Node000007_Node000004"><a xlink:title=" ">
<path fill="none" stroke="#63b8ff" d="M108.8,-101.01C103.26,-93.13 97.07,-83.62 92.38,-74.5 82.72,-55.75 74.89,-32.2 71.01,-19.58"/>
<polygon fill="#63b8ff" stroke="#63b8ff" points="105.93,-103.02 114.63,-109.05 111.59,-98.9 105.93,-103.02"/>
</a>
</g>
</g>
<!-- Node7&#45;&gt;Node5 -->
<g id="edge9_Node000007_Node000005" class="edge">
<title>Node7&#45;&gt;Node5</title>
<g id="a_edge9_Node000007_Node000005"><a xlink:title=" ">
<path fill="none" stroke="#63b8ff" d="M147.39,-104.32C163.32,-94.9 183.43,-83 197.03,-74.95"/>
<polygon fill="#63b8ff" stroke="#63b8ff" points="145.77,-101.22 138.94,-109.32 149.33,-107.24 145.77,-101.22"/>
</a>
</g>
</g>
<!-- Node7&#45;&gt;Node6 -->
<g id="edge10_Node000007_Node000006" class="edge">
<title>Node7&#45;&gt;Node6</title>
<g id="a_edge10_Node000007_Node000006"><a xlink:title=" ">
<path fill="none" stroke="#63b8ff" d="M118.36,-98.67C116.87,-85.28 117.18,-67.98 125.38,-55.25 136.86,-37.41 157.87,-26.35 176.37,-19.71"/>
<polygon fill="#63b8ff" stroke="#63b8ff" points="114.9,-99.19 119.92,-108.53 121.82,-98.1 114.9,-99.19"/>
</a>
</g>
</g>
<!-- Node8&#45;&gt;Node3 -->
<g id="edge13_Node000008_Node000003" class="edge">
<title>Node8&#45;&gt;Node3</title>
<g id="a_edge13_Node000008_Node000003"><a xlink:title=" ">
<path fill="none" stroke="#63b8ff" d="M251.78,-215.36C233.4,-205.86 209.79,-193.65 193.93,-185.45"/>
<polygon fill="#63b8ff" stroke="#63b8ff" points="250.07,-218.41 260.56,-219.9 253.28,-212.2 250.07,-218.41"/>
</a>
</g>
</g>
<!-- Node9 -->
<g id="Node000009" class="node">
<title>Node9</title>
<g id="a_Node000009"><a xlink:href="../../d8/de4/_sequence_8hpp.html" target="_top" xlink:title=" ">
<polygon fill="white" stroke="#666666" points="375.75,-185 257,-185 257,-165.75 375.75,-165.75 375.75,-185"/>
<text text-anchor="middle" x="316.38" y="-171.5" font-family="Helvetica,sans-Serif" font-size="10.00">mimic++/Sequence.hpp</text>
</a>
</g>
</g>
<!-- Node8&#45;&gt;Node9 -->
<g id="edge14_Node000008_Node000009" class="edge">
<title>Node8&#45;&gt;Node9</title>
<g id="a_edge14_Node000008_Node000009"><a xlink:title=" ">
<path fill="none" stroke="#63b8ff" d="M292.04,-211.4C298.14,-202.61 305.2,-192.46 310.13,-185.36"/>
<polygon fill="#63b8ff" stroke="#63b8ff" points="289.18,-209.38 286.35,-219.59 294.93,-213.37 289.18,-209.38"/>
</a>
</g>
</g>
</g>
</svg>
</svg>

<style type='text/css'>
<![CDATA[
[data-mouse-over-selected='false'] { opacity: 0.7; }
[data-mouse-over-selected='true']  { opacity: 1.0; }
]]>
</style>
<script type="application/ecmascript"><![CDATA[
document.addEventListener('DOMContentLoaded', (event) => {
  highlightEdges();
  highlightAdjacentNodes();
});
]]></script>
</svg>
