<?xml version="1.0" encoding="UTF-8" standalone="no"?>
<!DOCTYPE svg PUBLIC "-//W3C//DTD SVG 1.1//EN"
 "http://www.w3.org/Graphics/SVG/1.1/DTD/svg11.dtd">
<!-- Generated by graphviz version 12.1.2 (20240928.0832)
 -->
<!-- Title: mimic++/Matcher.hpp Pages: 1 -->
<svg width="1295pt" height="304pt"
 viewBox="0.00 0.00 1295.38 303.50" xmlns="http://www.w3.org/2000/svg" xmlns:xlink="http://www.w3.org/1999/xlink">
<g id="graph0" class="graph" transform="scale(1 1) rotate(0) translate(4 299.5)">
<title>mimic++/Matcher.hpp</title>
<!-- Node1 -->
<g id="Node000001" class="node">
<title>Node1</title>
<g id="a_Node000001"><a xlink:title=" ">
<polygon fill="#999999" stroke="#666666" points="496.75,-295.5 386.25,-295.5 386.25,-276.25 496.75,-276.25 496.75,-295.5"/>
<text text-anchor="middle" x="441.5" y="-282" font-family="Helvetica,sans-Serif" font-size="10.00">mimic++/Matcher.hpp</text>
</a>
</g>
</g>
<!-- Node2 -->
<g id="Node000002" class="node">
<title>Node2</title>
<g id="a_Node000002"><a xlink:href="../../df/dde/_fwd_8hpp.html" target="_top" xlink:title=" ">
<polygon fill="white" stroke="#666666" points="402.5,-74.5 308.5,-74.5 308.5,-55.25 402.5,-55.25 402.5,-74.5"/>
<text text-anchor="middle" x="355.5" y="-61" font-family="Helvetica,sans-Serif" font-size="10.00">mimic++/Fwd.hpp</text>
</a>
</g>
</g>
<!-- Node1&#45;&gt;Node2 -->
<g id="edge1_Node000001_Node000002" class="edge">
<title>Node1&#45;&gt;Node2</title>
<g id="a_edge1_Node000001_Node000002"><a xlink:title=" ">
<path fill="none" stroke="#63b8ff" d="M436.25,-275.75C422.97,-252.3 387.71,-187.66 368.5,-129.75 363.74,-115.41 360.41,-98.66 358.31,-85.91"/>
<polygon fill="#63b8ff" stroke="#63b8ff" points="361.81,-85.58 356.85,-76.22 354.88,-86.63 361.81,-85.58"/>
</a>
</g>
</g>
<!-- Node4 -->
<g id="Node000004" class="node">
<title>Node4</title>
<g id="a_Node000004"><a xlink:href="../../da/dab/_printer_8hpp.html" target="_top" xlink:title=" ">
<polygon fill="white" stroke="#666666" points="775.38,-240.25 671.62,-240.25 671.62,-221 775.38,-221 775.38,-240.25"/>
<text text-anchor="middle" x="723.5" y="-226.75" font-family="Helvetica,sans-Serif" font-size="10.00">mimic++/Printer.hpp</text>
</a>
</g>
</g>
<!-- Node1&#45;&gt;Node4 -->
<g id="edge3_Node000001_Node000004" class="edge">
<title>Node1&#45;&gt;Node4</title>
<g id="a_edge3_Node000001_Node000004"><a xlink:title=" ">
<path fill="none" stroke="#63b8ff" d="M489.66,-275.78C538.02,-266.65 612.62,-252.56 664.51,-242.76"/>
<polygon fill="#63b8ff" stroke="#63b8ff" points="664.88,-246.26 674.05,-240.96 663.58,-239.38 664.88,-246.26"/>
</a>
</g>
</g>
<!-- Node5 -->
<g id="Node000005" class="node">
<title>Node5</title>
<g id="a_Node000005"><a xlink:href="../../d9/dc5/_string_8hpp.html" target="_top" xlink:title=" ">
<polygon fill="white" stroke="#666666" points="581.88,-185 481.12,-185 481.12,-165.75 581.88,-165.75 581.88,-185"/>
<text text-anchor="middle" x="531.5" y="-171.5" font-family="Helvetica,sans-Serif" font-size="10.00">mimic++/String.hpp</text>
</a>
</g>
</g>
<!-- Node1&#45;&gt;Node5 -->
<g id="edge37_Node000001_Node000005" class="edge">
<title>Node1&#45;&gt;Node5</title>
<g id="a_edge37_Node000001_Node000005"><a xlink:title=" ">
<path fill="none" stroke="#63b8ff" d="M448.87,-276C463.7,-258.11 497.41,-217.47 516.88,-194"/>
<polygon fill="#63b8ff" stroke="#63b8ff" points="519.38,-196.47 523.07,-186.54 513.99,-192 519.38,-196.47"/>
</a>
</g>
</g>
<!-- Node6 -->
<g id="Node000006" class="node">
<title>Node6</title>
<g id="a_Node000006"><a xlink:href="../../d4/d2c/_utility_8hpp.html" target="_top" xlink:title=" ">
<polygon fill="white" stroke="#666666" points="517.5,-129.75 417.5,-129.75 417.5,-110.5 517.5,-110.5 517.5,-129.75"/>
<text text-anchor="middle" x="467.5" y="-116.25" font-family="Helvetica,sans-Serif" font-size="10.00">mimic++/Utility.hpp</text>
</a>
</g>
</g>
<!-- Node1&#45;&gt;Node6 -->
<g id="edge39_Node000001_Node000006" class="edge">
<title>Node1&#45;&gt;Node6</title>
<g id="a_edge39_Node000001_Node000006"><a xlink:title=" ">
<path fill="none" stroke="#63b8ff" d="M442.77,-275.9C445.6,-256.02 452.72,-206.82 459.5,-165.75 460.83,-157.69 462.4,-148.84 463.79,-141.15"/>
<polygon fill="#63b8ff" stroke="#63b8ff" points="467.2,-141.96 465.56,-131.49 460.31,-140.7 467.2,-141.96"/>
</a>
</g>
</g>
<!-- Node10 -->
<g id="Node000010" class="node">
<title>Node10</title>
<g id="a_Node000010"><a xlink:title=" ">
<polygon fill="#e0e0e0" stroke="#999999" points="37,-74.5 0,-74.5 0,-55.25 37,-55.25 37,-74.5"/>
<text text-anchor="middle" x="18.5" y="-61" font-family="Helvetica,sans-Serif" font-size="10.00">tuple</text>
</a>
</g>
</g>
<!-- Node1&#45;&gt;Node10 -->
<g id="edge45_Node000001_Node000010" class="edge">
<title>Node1&#45;&gt;Node10</title>
<g id="a_edge45_Node000001_Node000010"><a xlink:title=" ">
<path fill="none" stroke="#63b8ff" d="M386.06,-281.37C310.21,-274.14 172.76,-252.08 78.5,-185 50.01,-164.73 36.99,-161.57 22.5,-129.75 16.28,-116.1 15.51,-99.08 16.17,-86.05"/>
<polygon fill="#63b8ff" stroke="#63b8ff" points="19.65,-86.38 17.03,-76.12 12.68,-85.78 19.65,-86.38"/>
</a>
</g>
</g>
<!-- Node12 -->
<g id="Node000012" class="node">
<title>Node12</title>
<g id="a_Node000012"><a xlink:title=" ">
<polygon fill="#e0e0e0" stroke="#999999" points="206.38,-129.75 150.62,-129.75 150.62,-110.5 206.38,-110.5 206.38,-129.75"/>
<text text-anchor="middle" x="178.5" y="-116.25" font-family="Helvetica,sans-Serif" font-size="10.00">concepts</text>
</a>
</g>
</g>
<!-- Node1&#45;&gt;Node12 -->
<g id="edge41_Node000001_Node000012" class="edge">
<title>Node1&#45;&gt;Node12</title>
<g id="a_edge41_Node000001_Node000012"><a xlink:title=" ">
<path fill="none" stroke="#63b8ff" d="M385.96,-277.86C353.27,-271.78 312.25,-260.59 280.5,-240.25 243.98,-216.86 245.77,-198.63 217.5,-165.75 209.7,-156.68 200.94,-146.65 193.71,-138.39"/>
<polygon fill="#63b8ff" stroke="#63b8ff" points="196.54,-136.32 187.31,-131.12 191.28,-140.94 196.54,-136.32"/>
</a>
</g>
</g>
<!-- Node13 -->
<g id="Node000013" class="node">
<title>Node13</title>
<g id="a_Node000013"><a xlink:title=" ">
<polygon fill="#e0e0e0" stroke="#999999" points="1126.5,-129.75 1068.5,-129.75 1068.5,-110.5 1126.5,-110.5 1126.5,-129.75"/>
<text text-anchor="middle" x="1097.5" y="-116.25" font-family="Helvetica,sans-Serif" font-size="10.00">functional</text>
</a>
</g>
</g>
<!-- Node1&#45;&gt;Node13 -->
<g id="edge42_Node000001_Node000013" class="edge">
<title>Node1&#45;&gt;Node13</title>
<g id="a_edge42_Node000001_Node000013"><a xlink:title=" ">
<path fill="none" stroke="#63b8ff" d="M497.1,-285.35C641.39,-285.27 1021.91,-276.24 1098.5,-185 1108.54,-173.04 1107.23,-154.92 1104.03,-141.03"/>
<polygon fill="#63b8ff" stroke="#63b8ff" points="1107.46,-140.3 1101.37,-131.63 1100.72,-142.21 1107.46,-140.3"/>
</a>
</g>
</g>
<!-- Node14 -->
<g id="Node000014" class="node">
<title>Node14</title>
<g id="a_Node000014"><a xlink:title=" ">
<polygon fill="#e0e0e0" stroke="#999999" points="657.12,-129.75 611.88,-129.75 611.88,-110.5 657.12,-110.5 657.12,-129.75"/>
<text text-anchor="middle" x="634.5" y="-116.25" font-family="Helvetica,sans-Serif" font-size="10.00">ranges</text>
</a>
</g>
</g>
<!-- Node1&#45;&gt;Node14 -->
<g id="edge44_Node000001_Node000014" class="edge">
<title>Node1&#45;&gt;Node14</title>
<g id="a_edge44_Node000001_Node000014"><a xlink:title=" ">
<path fill="none" stroke="#63b8ff" d="M459.11,-275.94C488.66,-260.35 549.06,-225.92 590.5,-185 604.11,-171.56 616.16,-153.37 624.19,-139.84"/>
<polygon fill="#63b8ff" stroke="#63b8ff" points="627.05,-141.9 628.98,-131.48 620.97,-138.42 627.05,-141.9"/>
</a>
</g>
</g>
<!-- Node15 -->
<g id="Node000015" class="node">
<title>Node15</title>
<g id="a_Node000015"><a xlink:title=" ">
<polygon fill="#e0e0e0" stroke="#999999" points="285,-129.75 224,-129.75 224,-110.5 285,-110.5 285,-129.75"/>
<text text-anchor="middle" x="254.5" y="-116.25" font-family="Helvetica,sans-Serif" font-size="10.00">type_traits</text>
</a>
</g>
</g>
<!-- Node1&#45;&gt;Node15 -->
<g id="edge46_Node000001_Node000015" class="edge">
<title>Node1&#45;&gt;Node15</title>
<g id="a_edge46_Node000001_Node000015"><a xlink:title=" ">
<path fill="none" stroke="#63b8ff" d="M385.75,-279.07C356.84,-273.41 322.79,-262.26 299.5,-240.25 271.33,-213.63 260.64,-167.6 256.7,-141.23"/>
<polygon fill="#63b8ff" stroke="#63b8ff" points="260.2,-141.01 255.45,-131.54 253.25,-141.91 260.2,-141.01"/>
</a>
</g>
</g>
<!-- Node16 -->
<g id="Node000016" class="node">
<title>Node16</title>
<g id="a_Node000016"><a xlink:href="../../d8/d32/_type_traits_8hpp.html" target="_top" xlink:title=" ">
<polygon fill="white" stroke="#666666" points="209,-185 88,-185 88,-165.75 209,-165.75 209,-185"/>
<text text-anchor="middle" x="148.5" y="-171.5" font-family="Helvetica,sans-Serif" font-size="10.00">mimic++/TypeTraits.hpp</text>
</a>
</g>
</g>
<!-- Node1&#45;&gt;Node16 -->
<g id="edge38_Node000001_Node000016" class="edge">
<title>Node1&#45;&gt;Node16</title>
<g id="a_edge38_Node000001_Node000016"><a xlink:title=" ">
<path fill="none" stroke="#63b8ff" d="M386.2,-281.23C340.6,-276.46 275.24,-265.48 223.5,-240.25 200.08,-228.83 177.97,-208.37 163.9,-193.69"/>
<polygon fill="#63b8ff" stroke="#63b8ff" points="166.64,-191.49 157.28,-186.53 161.5,-196.24 166.64,-191.49"/>
</a>
</g>
</g>
<!-- Node22 -->
<g id="Node000022" class="node">
<title>Node22</title>
<g id="a_Node000022"><a xlink:title=" ">
<polygon fill="#e0e0e0" stroke="#999999" points="1219.38,-240.25 1163.62,-240.25 1163.62,-221 1219.38,-221 1219.38,-240.25"/>
<text text-anchor="middle" x="1191.5" y="-226.75" font-family="Helvetica,sans-Serif" font-size="10.00">algorithm</text>
</a>
</g>
</g>
<!-- Node1&#45;&gt;Node22 -->
<g id="edge40_Node000001_Node000022" class="edge">
<title>Node1&#45;&gt;Node22</title>
<g id="a_edge40_Node000001_Node000022"><a xlink:title=" ">
<path fill="none" stroke="#63b8ff" d="M496.84,-284.01C616.44,-281.57 907.79,-272.53 1149.5,-240.25 1150.33,-240.14 1151.17,-240.02 1152.01,-239.9"/>
<polygon fill="#63b8ff" stroke="#63b8ff" points="1152.36,-243.39 1161.63,-238.26 1151.19,-236.49 1152.36,-243.39"/>
</a>
</g>
</g>
<!-- Node23 -->
<g id="Node000023" class="node">
<title>Node23</title>
<g id="a_Node000023"><a xlink:title=" ">
<polygon fill="#e0e0e0" stroke="#999999" points="1287.38,-240.25 1237.62,-240.25 1237.62,-221 1287.38,-221 1287.38,-240.25"/>
<text text-anchor="middle" x="1262.5" y="-226.75" font-family="Helvetica,sans-Serif" font-size="10.00">optional</text>
</a>
</g>
</g>
<!-- Node1&#45;&gt;Node23 -->
<g id="edge43_Node000001_Node000023" class="edge">
<title>Node1&#45;&gt;Node23</title>
<g id="a_edge43_Node000001_Node000023"><a xlink:title=" ">
<path fill="none" stroke="#63b8ff" d="M497.22,-285.37C624.81,-285.71 947.95,-282.14 1226.23,-240.27"/>
<polygon fill="#63b8ff" stroke="#63b8ff" points="1226.51,-243.77 1235.86,-238.8 1225.45,-236.85 1226.51,-243.77"/>
</a>
</g>
</g>
<!-- Node3 -->
<g id="Node000003" class="node">
<title>Node3</title>
<g id="a_Node000003"><a xlink:title=" ">
<polygon fill="#e0e0e0" stroke="#999999" points="603.5,-19.25 563.5,-19.25 563.5,0 603.5,0 603.5,-19.25"/>
<text text-anchor="middle" x="583.5" y="-5.75" font-family="Helvetica,sans-Serif" font-size="10.00">string</text>
</a>
</g>
</g>
<!-- Node2&#45;&gt;Node3 -->
<g id="edge2_Node000002_Node000003" class="edge">
<title>Node2&#45;&gt;Node3</title>
<g id="a_edge2_Node000002_Node000003"><a xlink:title=" ">
<path fill="none" stroke="#63b8ff" d="M394.44,-54.78C438.98,-44.38 511.06,-27.54 552.15,-17.95"/>
<polygon fill="#63b8ff" stroke="#63b8ff" points="552.7,-21.41 561.64,-15.73 551.11,-14.6 552.7,-21.41"/>
</a>
</g>
</g>
<!-- Node4&#45;&gt;Node2 -->
<g id="edge4_Node000004_Node000002" class="edge">
<title>Node4&#45;&gt;Node2</title>
<g id="a_edge4_Node000004_Node000002"><a xlink:title=" ">
<path fill="none" stroke="#63b8ff" d="M671.15,-227.9C616.4,-224.5 528.93,-214.45 459.5,-185 421.39,-168.83 410.57,-161.92 384.5,-129.75 373.93,-116.71 366.34,-99.2 361.58,-85.81"/>
<polygon fill="#63b8ff" stroke="#63b8ff" points="364.92,-84.76 358.47,-76.36 358.27,-86.95 364.92,-84.76"/>
</a>
</g>
</g>
<!-- Node4&#45;&gt;Node3 -->
<g id="edge33_Node000004_Node000003" class="edge">
<title>Node4&#45;&gt;Node3</title>
<g id="a_edge33_Node000004_Node000003"><a xlink:title=" ">
<path fill="none" stroke="#63b8ff" d="M731.27,-220.59C754.16,-192.86 817.15,-107.69 775.5,-55.25 755.84,-30.49 664.54,-18.23 615.26,-13.32"/>
<polygon fill="#63b8ff" stroke="#63b8ff" points="615.78,-9.85 605.49,-12.39 615.12,-16.82 615.78,-9.85"/>
</a>
</g>
</g>
<!-- Node4&#45;&gt;Node5 -->
<g id="edge5_Node000004_Node000005" class="edge">
<title>Node4&#45;&gt;Node5</title>
<g id="a_edge5_Node000004_Node000005"><a xlink:title=" ">
<path fill="none" stroke="#63b8ff" d="M690.93,-220.59C659.07,-211.76 610.34,-198.24 575.14,-188.48"/>
<polygon fill="#63b8ff" stroke="#63b8ff" points="576.26,-185.16 565.69,-185.86 574.39,-191.9 576.26,-185.16"/>
</a>
</g>
</g>
<!-- Node4&#45;&gt;Node6 -->
<g id="edge26_Node000004_Node000006" class="edge">
<title>Node4&#45;&gt;Node6</title>
<g id="a_edge26_Node000004_Node000006"><a xlink:title=" ">
<path fill="none" stroke="#63b8ff" d="M671.27,-227.63C605.64,-223.95 498.44,-213.61 472.5,-185 461.87,-173.27 461.51,-154.84 463.29,-140.79"/>
<polygon fill="#63b8ff" stroke="#63b8ff" points="466.67,-141.79 464.94,-131.33 459.77,-140.58 466.67,-141.79"/>
</a>
</g>
</g>
<!-- Node8 -->
<g id="Node000008" class="node">
<title>Node8</title>
<g id="a_Node000008"><a xlink:title=" ">
<polygon fill="#e0e0e0" stroke="#999999" points="700.62,-74.5 616.38,-74.5 616.38,-55.25 700.62,-55.25 700.62,-74.5"/>
<text text-anchor="middle" x="658.5" y="-61" font-family="Helvetica,sans-Serif" font-size="10.00">source_location</text>
</a>
</g>
</g>
<!-- Node4&#45;&gt;Node8 -->
<g id="edge31_Node000004_Node000008" class="edge">
<title>Node4&#45;&gt;Node8</title>
<g id="a_edge31_Node000004_Node000008"><a xlink:title=" ">
<path fill="none" stroke="#63b8ff" d="M723.32,-220.72C722.56,-200.17 718.74,-148.29 699.5,-110.5 694.23,-100.15 685.87,-90.42 678.08,-82.71"/>
<polygon fill="#63b8ff" stroke="#63b8ff" points="680.53,-80.2 670.82,-75.96 675.76,-85.33 680.53,-80.2"/>
</a>
</g>
</g>
<!-- Node9 -->
<g id="Node000009" class="node">
<title>Node9</title>
<g id="a_Node000009"><a xlink:title=" ">
<polygon fill="#e0e0e0" stroke="#999999" points="555.25,-74.5 489.75,-74.5 489.75,-55.25 555.25,-55.25 555.25,-74.5"/>
<text text-anchor="middle" x="522.5" y="-61" font-family="Helvetica,sans-Serif" font-size="10.00">string_view</text>
</a>
</g>
</g>
<!-- Node4&#45;&gt;Node9 -->
<g id="edge34_Node000004_Node000009" class="edge">
<title>Node4&#45;&gt;Node9</title>
<g id="a_edge34_Node000004_Node000009"><a xlink:title=" ">
<path fill="none" stroke="#63b8ff" d="M721.78,-220.66C717.07,-198.57 701.89,-141.08 666.5,-110.5 638.66,-86.45 597.99,-75.36 566.96,-70.24"/>
<polygon fill="#63b8ff" stroke="#63b8ff" points="567.49,-66.78 557.09,-68.78 566.47,-73.71 567.49,-66.78"/>
</a>
</g>
</g>
<!-- Node11 -->
<g id="Node000011" class="node">
<title>Node11</title>
<g id="a_Node000011"><a xlink:title=" ">
<polygon fill="#e0e0e0" stroke="#999999" points="766.75,-74.5 728.25,-74.5 728.25,-55.25 766.75,-55.25 766.75,-74.5"/>
<text text-anchor="middle" x="747.5" y="-61" font-family="Helvetica,sans-Serif" font-size="10.00">utility</text>
</a>
</g>
</g>
<!-- Node4&#45;&gt;Node11 -->
<g id="edge35_Node000004_Node000011" class="edge">
<title>Node4&#45;&gt;Node11</title>
<g id="a_edge35_Node000004_Node000011"><a xlink:title=" ">
<path fill="none" stroke="#63b8ff" d="M727,-220.55C730.27,-211.64 735.03,-197.59 737.5,-185 744.21,-150.81 746.42,-110.22 747.15,-86.34"/>
<polygon fill="#63b8ff" stroke="#63b8ff" points="750.64,-86.53 747.38,-76.45 743.65,-86.36 750.64,-86.53"/>
</a>
</g>
</g>
<!-- Node4&#45;&gt;Node13 -->
<g id="edge28_Node000004_Node000013" class="edge">
<title>Node4&#45;&gt;Node13</title>
<g id="a_edge28_Node000004_Node000013"><a xlink:title=" ">
<path fill="none" stroke="#63b8ff" d="M775.56,-229.85C862.93,-229.15 1033.91,-222.82 1078.5,-185 1091.06,-174.35 1095.52,-155.8 1097.02,-141.43"/>
<polygon fill="#63b8ff" stroke="#63b8ff" points="1100.5,-141.88 1097.6,-131.68 1093.51,-141.46 1100.5,-141.88"/>
</a>
</g>
</g>
<!-- Node4&#45;&gt;Node14 -->
<g id="edge30_Node000004_Node000014" class="edge">
<title>Node4&#45;&gt;Node14</title>
<g id="a_edge30_Node000004_Node000014"><a xlink:title=" ">
<path fill="none" stroke="#63b8ff" d="M710.89,-220.73C699.65,-212.38 683.21,-199.09 671.5,-185 660.1,-171.28 650.15,-153.59 643.46,-140.31"/>
<polygon fill="#63b8ff" stroke="#63b8ff" points="646.62,-138.81 639.11,-131.34 640.32,-141.87 646.62,-138.81"/>
</a>
</g>
</g>
<!-- Node4&#45;&gt;Node16 -->
<g id="edge20_Node000004_Node000016" class="edge">
<title>Node4&#45;&gt;Node16</title>
<g id="a_edge20_Node000004_Node000016"><a xlink:title=" ">
<path fill="none" stroke="#63b8ff" d="M671.2,-224.78C568.05,-215.23 338.22,-193.94 220.71,-183.06"/>
<polygon fill="#63b8ff" stroke="#63b8ff" points="221.14,-179.59 210.86,-182.15 220.5,-186.56 221.14,-179.59"/>
</a>
</g>
</g>
<!-- Node18 -->
<g id="Node000018" class="node">
<title>Node18</title>
<g id="a_Node000018"><a xlink:title=" ">
<polygon fill="#e0e0e0" stroke="#999999" points="873.12,-185 827.88,-185 827.88,-165.75 873.12,-165.75 873.12,-185"/>
<text text-anchor="middle" x="850.5" y="-171.5" font-family="Helvetica,sans-Serif" font-size="10.00">cstdint</text>
</a>
</g>
</g>
<!-- Node4&#45;&gt;Node18 -->
<g id="edge27_Node000004_Node000018" class="edge">
<title>Node4&#45;&gt;Node18</title>
<g id="a_edge27_Node000004_Node000018"><a xlink:title=" ">
<path fill="none" stroke="#63b8ff" d="M745.04,-220.59C765.11,-212.18 795.3,-199.52 818.25,-189.9"/>
<polygon fill="#63b8ff" stroke="#63b8ff" points="819.59,-193.13 827.45,-186.04 816.88,-186.68 819.59,-193.13"/>
</a>
</g>
</g>
<!-- Node19 -->
<g id="Node000019" class="node">
<title>Node19</title>
<g id="a_Node000019"><a xlink:title=" ">
<polygon fill="#e0e0e0" stroke="#999999" points="937.5,-185 891.5,-185 891.5,-165.75 937.5,-165.75 937.5,-185"/>
<text text-anchor="middle" x="914.5" y="-171.5" font-family="Helvetica,sans-Serif" font-size="10.00">iterator</text>
</a>
</g>
</g>
<!-- Node4&#45;&gt;Node19 -->
<g id="edge29_Node000004_Node000019" class="edge">
<title>Node4&#45;&gt;Node19</title>
<g id="a_edge29_Node000004_Node000019"><a xlink:title=" ">
<path fill="none" stroke="#63b8ff" d="M755.9,-220.59C790.57,-210.93 845.32,-195.66 880.57,-185.83"/>
<polygon fill="#63b8ff" stroke="#63b8ff" points="881.13,-189.31 889.82,-183.26 879.25,-182.57 881.13,-189.31"/>
</a>
</g>
</g>
<!-- Node20 -->
<g id="Node000020" class="node">
<title>Node20</title>
<g id="a_Node000020"><a xlink:title=" ">
<polygon fill="#e0e0e0" stroke="#999999" points="1007.12,-185 955.88,-185 955.88,-165.75 1007.12,-165.75 1007.12,-185"/>
<text text-anchor="middle" x="981.5" y="-171.5" font-family="Helvetica,sans-Serif" font-size="10.00">sstream</text>
</a>
</g>
</g>
<!-- Node4&#45;&gt;Node20 -->
<g id="edge32_Node000004_Node000020" class="edge">
<title>Node4&#45;&gt;Node20</title>
<g id="a_edge32_Node000004_Node000020"><a xlink:title=" ">
<path fill="none" stroke="#63b8ff" d="M771.92,-220.57C814.79,-212.42 879.33,-199.79 944.63,-185.34"/>
<polygon fill="#63b8ff" stroke="#63b8ff" points="945.06,-188.83 954.06,-183.24 943.54,-182 945.06,-188.83"/>
</a>
</g>
</g>
<!-- Node21 -->
<g id="Node000021" class="node">
<title>Node21</title>
<g id="a_Node000021"><a xlink:title=" ">
<polygon fill="#e0e0e0" stroke="#999999" points="1069.38,-185 1025.62,-185 1025.62,-165.75 1069.38,-165.75 1069.38,-185"/>
<text text-anchor="middle" x="1047.5" y="-171.5" font-family="Helvetica,sans-Serif" font-size="10.00">format</text>
</a>
</g>
</g>
<!-- Node4&#45;&gt;Node21 -->
<g id="edge36_Node000004_Node000021" class="edge">
<title>Node4&#45;&gt;Node21</title>
<g id="a_edge36_Node000004_Node000021"><a xlink:title=" ">
<path fill="none" stroke="#63b8ff" d="M775.71,-223.6C832.22,-216.65 925.17,-203.98 1014.12,-185.29"/>
<polygon fill="#63b8ff" stroke="#63b8ff" points="1014.7,-188.74 1023.75,-183.23 1013.24,-181.9 1014.7,-188.74"/>
</a>
</g>
</g>
<!-- Node5&#45;&gt;Node2 -->
<g id="edge6_Node000005_Node000002" class="edge">
<title>Node5&#45;&gt;Node2</title>
<g id="a_edge6_Node000005_Node000002"><a xlink:title=" ">
<path fill="none" stroke="#63b8ff" d="M490.14,-165.25C464.96,-158.33 433.02,-147 408.5,-129.75 391.22,-117.59 376.35,-98.41 366.79,-84.23"/>
<polygon fill="#63b8ff" stroke="#63b8ff" points="369.75,-82.36 361.39,-75.84 363.86,-86.15 369.75,-82.36"/>
</a>
</g>
</g>
<!-- Node5&#45;&gt;Node3 -->
<g id="edge17_Node000005_Node000003" class="edge">
<title>Node5&#45;&gt;Node3</title>
<g id="a_edge17_Node000005_Node000003"><a xlink:title=" ">
<path fill="none" stroke="#63b8ff" d="M534.59,-165.32C540.55,-147.82 553.95,-108.13 564.5,-74.5 569.12,-59.78 574.08,-43.06 577.78,-30.42"/>
<polygon fill="#63b8ff" stroke="#63b8ff" points="581.03,-31.78 580.46,-21.2 574.31,-29.83 581.03,-31.78"/>
</a>
</g>
</g>
<!-- Node5&#45;&gt;Node6 -->
<g id="edge7_Node000005_Node000006" class="edge">
<title>Node5&#45;&gt;Node6</title>
<g id="a_edge7_Node000005_Node000006"><a xlink:title=" ">
<path fill="none" stroke="#63b8ff" d="M520.64,-165.34C511.39,-157.65 497.88,-146.4 486.79,-137.18"/>
<polygon fill="#63b8ff" stroke="#63b8ff" points="489.29,-134.7 479.36,-130.99 484.81,-140.08 489.29,-134.7"/>
</a>
</g>
</g>
<!-- Node5&#45;&gt;Node9 -->
<g id="edge18_Node000005_Node000009" class="edge">
<title>Node5&#45;&gt;Node9</title>
<g id="a_edge18_Node000005_Node000009"><a xlink:title=" ">
<path fill="none" stroke="#63b8ff" d="M530.82,-165.28C529.89,-152.88 528.14,-130.01 526.5,-110.5 525.83,-102.56 525.06,-93.82 524.37,-86.2"/>
<polygon fill="#63b8ff" stroke="#63b8ff" points="527.86,-85.91 523.46,-76.27 520.89,-86.55 527.86,-85.91"/>
</a>
</g>
</g>
<!-- Node5&#45;&gt;Node12 -->
<g id="edge14_Node000005_Node000012" class="edge">
<title>Node5&#45;&gt;Node12</title>
<g id="a_edge14_Node000005_Node000012"><a xlink:title=" ">
<path fill="none" stroke="#63b8ff" d="M480.75,-168.74C420.27,-161.7 315.98,-148.49 218.04,-130.29"/>
<polygon fill="#63b8ff" stroke="#63b8ff" points="218.71,-126.85 208.23,-128.44 217.41,-133.73 218.71,-126.85"/>
</a>
</g>
</g>
<!-- Node5&#45;&gt;Node13 -->
<g id="edge15_Node000005_Node000013" class="edge">
<title>Node5&#45;&gt;Node13</title>
<g id="a_edge15_Node000005_Node000013"><a xlink:title=" ">
<path fill="none" stroke="#63b8ff" d="M582.23,-169.6C693.28,-159.15 956.07,-134.43 1057.02,-124.93"/>
<polygon fill="#63b8ff" stroke="#63b8ff" points="1057.1,-128.44 1066.73,-124.02 1056.44,-121.47 1057.1,-128.44"/>
</a>
</g>
</g>
<!-- Node5&#45;&gt;Node14 -->
<g id="edge16_Node000005_Node000014" class="edge">
<title>Node5&#45;&gt;Node14</title>
<g id="a_edge16_Node000005_Node000014"><a xlink:title=" ">
<path fill="none" stroke="#63b8ff" d="M548.97,-165.34C564.81,-157.16 588.41,-144.96 606.81,-135.44"/>
<polygon fill="#63b8ff" stroke="#63b8ff" points="608.32,-138.6 615.6,-130.9 605.11,-132.38 608.32,-138.6"/>
</a>
</g>
</g>
<!-- Node5&#45;&gt;Node15 -->
<g id="edge19_Node000005_Node000015" class="edge">
<title>Node5&#45;&gt;Node15</title>
<g id="a_edge19_Node000005_Node000015"><a xlink:title=" ">
<path fill="none" stroke="#63b8ff" d="M484.2,-165.28C431.44,-155.14 346.91,-138.89 296.44,-129.19"/>
<polygon fill="#63b8ff" stroke="#63b8ff" points="297.26,-125.78 286.78,-127.33 295.94,-132.66 297.26,-125.78"/>
</a>
</g>
</g>
<!-- Node6&#45;&gt;Node2 -->
<g id="edge8_Node000006_Node000002" class="edge">
<title>Node6&#45;&gt;Node2</title>
<g id="a_edge8_Node000006_Node000002"><a xlink:title=" ">
<path fill="none" stroke="#63b8ff" d="M448.5,-110.09C431.04,-101.79 404.9,-89.36 384.78,-79.79"/>
<polygon fill="#63b8ff" stroke="#63b8ff" points="386.49,-76.74 375.96,-75.6 383.49,-83.06 386.49,-76.74"/>
</a>
</g>
</g>
<!-- Node7 -->
<g id="Node000007" class="node">
<title>Node7</title>
<g id="a_Node000007"><a xlink:title=" ">
<polygon fill="#e0e0e0" stroke="#999999" points="471.62,-74.5 423.38,-74.5 423.38,-55.25 471.62,-55.25 471.62,-74.5"/>
<text text-anchor="middle" x="447.5" y="-61" font-family="Helvetica,sans-Serif" font-size="10.00">cassert</text>
</a>
</g>
</g>
<!-- Node6&#45;&gt;Node7 -->
<g id="edge9_Node000006_Node000007" class="edge">
<title>Node6&#45;&gt;Node7</title>
<g id="a_edge9_Node000006_Node000007"><a xlink:title=" ">
<path fill="none" stroke="#63b8ff" d="M464.2,-110.33C461.67,-103.59 458.07,-94.02 454.87,-85.49"/>
<polygon fill="#63b8ff" stroke="#63b8ff" points="458.2,-84.41 451.41,-76.28 451.65,-86.87 458.2,-84.41"/>
</a>
</g>
</g>
<!-- Node6&#45;&gt;Node8 -->
<g id="edge10_Node000006_Node000008" class="edge">
<title>Node6&#45;&gt;Node8</title>
<g id="a_edge10_Node000006_Node000008"><a xlink:title=" ">
<path fill="none" stroke="#63b8ff" d="M499.9,-110.09C531.59,-101.26 580.07,-87.74 615.08,-77.98"/>
<polygon fill="#63b8ff" stroke="#63b8ff" points="615.79,-81.42 624.48,-75.36 613.91,-74.67 615.79,-81.42"/>
</a>
</g>
</g>
<!-- Node6&#45;&gt;Node9 -->
<g id="edge11_Node000006_Node000009" class="edge">
<title>Node6&#45;&gt;Node9</title>
<g id="a_edge11_Node000006_Node000009"><a xlink:title=" ">
<path fill="none" stroke="#63b8ff" d="M476.58,-110.33C484.34,-102.82 495.71,-91.81 505.2,-82.63"/>
<polygon fill="#63b8ff" stroke="#63b8ff" points="507.38,-85.38 512.13,-75.91 502.51,-80.35 507.38,-85.38"/>
</a>
</g>
</g>
<!-- Node6&#45;&gt;Node10 -->
<g id="edge12_Node000006_Node000010" class="edge">
<title>Node6&#45;&gt;Node10</title>
<g id="a_edge12_Node000006_Node000010"><a xlink:title=" ">
<path fill="none" stroke="#63b8ff" d="M417.3,-113.17C323.46,-102.04 124.13,-78.4 48.47,-69.43"/>
<polygon fill="#63b8ff" stroke="#63b8ff" points="49.27,-66 38.93,-68.3 48.45,-72.95 49.27,-66"/>
</a>
</g>
</g>
<!-- Node6&#45;&gt;Node11 -->
<g id="edge13_Node000006_Node000011" class="edge">
<title>Node6&#45;&gt;Node11</title>
<g id="a_edge13_Node000006_Node000011"><a xlink:title=" ">
<path fill="none" stroke="#63b8ff" d="M517.67,-110.49C566.7,-101.91 643.38,-88.09 709.5,-74.5 711.83,-74.02 714.24,-73.51 716.65,-72.99"/>
<polygon fill="#63b8ff" stroke="#63b8ff" points="717.33,-76.42 726.33,-70.83 715.81,-69.59 717.33,-76.42"/>
</a>
</g>
</g>
<!-- Node16&#45;&gt;Node2 -->
<g id="edge21_Node000016_Node000002" class="edge">
<title>Node16&#45;&gt;Node2</title>
<g id="a_edge21_Node000016_Node000002"><a xlink:title=" ">
<path fill="none" stroke="#63b8ff" d="M143.87,-165.4C137.63,-151.89 128.69,-126.25 141.5,-110.5 160.76,-86.81 240.36,-75.27 296.83,-69.96"/>
<polygon fill="#63b8ff" stroke="#63b8ff" points="296.99,-73.46 306.64,-69.09 296.37,-66.49 296.99,-73.46"/>
</a>
</g>
</g>
<!-- Node16&#45;&gt;Node10 -->
<g id="edge24_Node000016_Node000010" class="edge">
<title>Node16&#45;&gt;Node10</title>
<g id="a_edge24_Node000016_Node000010"><a xlink:title=" ">
<path fill="none" stroke="#63b8ff" d="M101.18,-165.33C79.09,-158.86 54.07,-147.94 37.5,-129.75 26.64,-117.83 21.98,-99.96 19.98,-86.15"/>
<polygon fill="#63b8ff" stroke="#63b8ff" points="23.48,-85.98 18.95,-76.4 16.52,-86.72 23.48,-85.98"/>
</a>
</g>
</g>
<!-- Node16&#45;&gt;Node12 -->
<g id="edge22_Node000016_Node000012" class="edge">
<title>Node16&#45;&gt;Node12</title>
<g id="a_edge22_Node000016_Node000012"><a xlink:title=" ">
<path fill="none" stroke="#63b8ff" d="M153.45,-165.58C157.38,-158.61 163.01,-148.62 167.94,-139.87"/>
<polygon fill="#63b8ff" stroke="#63b8ff" points="170.84,-141.86 172.7,-131.43 164.74,-138.42 170.84,-141.86"/>
</a>
</g>
</g>
<!-- Node16&#45;&gt;Node15 -->
<g id="edge25_Node000016_Node000015" class="edge">
<title>Node16&#45;&gt;Node15</title>
<g id="a_edge25_Node000016_Node000015"><a xlink:title=" ">
<path fill="none" stroke="#63b8ff" d="M166.48,-165.34C182.85,-157.12 207.29,-144.84 226.26,-135.31"/>
<polygon fill="#63b8ff" stroke="#63b8ff" points="227.71,-138.5 235.08,-130.88 224.57,-132.24 227.71,-138.5"/>
</a>
</g>
</g>
<!-- Node17 -->
<g id="Node000017" class="node">
<title>Node17</title>
<g id="a_Node000017"><a xlink:title=" ">
<polygon fill="#e0e0e0" stroke="#999999" points="94.62,-129.75 46.38,-129.75 46.38,-110.5 94.62,-110.5 94.62,-129.75"/>
<text text-anchor="middle" x="70.5" y="-116.25" font-family="Helvetica,sans-Serif" font-size="10.00">cstddef</text>
</a>
</g>
</g>
<!-- Node16&#45;&gt;Node17 -->
<g id="edge23_Node000016_Node000017" class="edge">
<title>Node16&#45;&gt;Node17</title>
<g id="a_edge23_Node000016_Node000017"><a xlink:title=" ">
<path fill="none" stroke="#63b8ff" d="M135.27,-165.34C123.73,-157.46 106.73,-145.86 93.05,-136.52"/>
<polygon fill="#63b8ff" stroke="#63b8ff" points="95.28,-133.8 85.05,-131.06 91.33,-139.58 95.28,-133.8"/>
</a>
</g>
</g>
</g>
</svg>
