<?xml version="1.0" encoding="UTF-8" standalone="no"?>
<!DOCTYPE svg PUBLIC "-//W3C//DTD SVG 1.1//EN"
 "http://www.w3.org/Graphics/SVG/1.1/DTD/svg11.dtd">
<!-- Generated by graphviz version 12.1.2 (20240928.0832)
 -->
<!-- Title: mimic++/Matcher.hpp Pages: 1 -->
<svg width="869pt" height="193pt"
 viewBox="0.00 0.00 868.62 193.00" xmlns="http://www.w3.org/2000/svg" xmlns:xlink="http://www.w3.org/1999/xlink">
<g id="graph0" class="graph" transform="scale(1 1) rotate(0) translate(4 189)">
<title>mimic++/Matcher.hpp</title>
<!-- Node1 -->
<g id="Node000001" class="node">
<title>Node1</title>
<g id="a_Node000001"><a xlink:title=" ">
<polygon fill="#999999" stroke="#666666" points="622.38,-185 511.88,-185 511.88,-165.75 622.38,-165.75 622.38,-185"/>
<text text-anchor="middle" x="567.12" y="-171.5" font-family="Helvetica,sans-Serif" font-size="10.00">mimic++/Matcher.hpp</text>
</a>
</g>
</g>
<!-- Node2 -->
<g id="Node000002" class="node">
<title>Node2</title>
<g id="a_Node000002"><a xlink:href="../../da/dab/_printer_8hpp.html" target="_top" xlink:title=" ">
<polygon fill="white" stroke="#666666" points="409,-129.75 305.25,-129.75 305.25,-110.5 409,-110.5 409,-129.75"/>
<text text-anchor="middle" x="357.12" y="-116.25" font-family="Helvetica,sans-Serif" font-size="10.00">mimic++/Printer.hpp</text>
</a>
</g>
</g>
<!-- Node1&#45;&gt;Node2 -->
<g id="edge1_Node000001_Node000002" class="edge">
<title>Node1&#45;&gt;Node2</title>
<g id="a_edge1_Node000001_Node000002"><a xlink:title=" ">
<path fill="none" stroke="#63b8ff" d="M531.5,-165.34C496.35,-156.43 442.44,-142.76 403.86,-132.98"/>
<polygon fill="#63b8ff" stroke="#63b8ff" points="404.94,-129.64 394.39,-130.57 403.22,-136.43 404.94,-129.64"/>
</a>
</g>
</g>
<!-- Node5 -->
<g id="Node000005" class="node">
<title>Node5</title>
<g id="a_Node000005"><a xlink:title=" ">
<polygon fill="#e0e0e0" stroke="#999999" points="671.12,-74.5 613.12,-74.5 613.12,-55.25 671.12,-55.25 671.12,-74.5"/>
<text text-anchor="middle" x="642.12" y="-61" font-family="Helvetica,sans-Serif" font-size="10.00">functional</text>
</a>
</g>
</g>
<!-- Node1&#45;&gt;Node5 -->
<g id="edge19_Node000001_Node000005" class="edge">
<title>Node1&#45;&gt;Node5</title>
<g id="a_edge19_Node000001_Node000005"><a xlink:title=" ">
<path fill="none" stroke="#63b8ff" d="M520.09,-165.31C480.86,-155.61 434.58,-137.82 456.12,-110.5 457.27,-109.04 547.53,-87.86 601.88,-75.21"/>
<polygon fill="#63b8ff" stroke="#63b8ff" points="602.47,-78.67 611.41,-72.99 600.88,-71.85 602.47,-78.67"/>
</a>
</g>
</g>
<!-- Node12 -->
<g id="Node000012" class="node">
<title>Node12</title>
<g id="a_Node000012"><a xlink:href="../../d4/d2c/_utility_8hpp.html" target="_top" xlink:title=" ">
<polygon fill="white" stroke="#666666" points="230.12,-129.75 130.12,-129.75 130.12,-110.5 230.12,-110.5 230.12,-129.75"/>
<text text-anchor="middle" x="180.12" y="-116.25" font-family="Helvetica,sans-Serif" font-size="10.00">mimic++/Utility.hpp</text>
</a>
</g>
</g>
<!-- Node1&#45;&gt;Node12 -->
<g id="edge12_Node000001_Node000012" class="edge">
<title>Node1&#45;&gt;Node12</title>
<g id="a_edge12_Node000001_Node000012"><a xlink:title=" ">
<path fill="none" stroke="#63b8ff" d="M511.68,-166.75C440.11,-156.9 315.97,-139.82 241.59,-129.58"/>
<polygon fill="#63b8ff" stroke="#63b8ff" points="242.43,-126.16 232.04,-128.27 241.47,-133.1 242.43,-126.16"/>
</a>
</g>
</g>
<!-- Node14 -->
<g id="Node000014" class="node">
<title>Node14</title>
<g id="a_Node000014"><a xlink:title=" ">
<polygon fill="#e0e0e0" stroke="#999999" points="521,-129.75 465.25,-129.75 465.25,-110.5 521,-110.5 521,-129.75"/>
<text text-anchor="middle" x="493.12" y="-116.25" font-family="Helvetica,sans-Serif" font-size="10.00">algorithm</text>
</a>
</g>
</g>
<!-- Node1&#45;&gt;Node14 -->
<g id="edge17_Node000001_Node000014" class="edge">
<title>Node1&#45;&gt;Node14</title>
<g id="a_edge17_Node000001_Node000014"><a xlink:title=" ">
<path fill="none" stroke="#63b8ff" d="M554.57,-165.34C543.66,-157.49 527.62,-145.95 514.66,-136.62"/>
<polygon fill="#63b8ff" stroke="#63b8ff" points="516.88,-133.91 506.72,-130.91 512.79,-139.59 516.88,-133.91"/>
</a>
</g>
</g>
<!-- Node15 -->
<g id="Node000015" class="node">
<title>Node15</title>
<g id="a_Node000015"><a xlink:title=" ">
<polygon fill="#e0e0e0" stroke="#999999" points="595,-129.75 539.25,-129.75 539.25,-110.5 595,-110.5 595,-129.75"/>
<text text-anchor="middle" x="567.12" y="-116.25" font-family="Helvetica,sans-Serif" font-size="10.00">concepts</text>
</a>
</g>
</g>
<!-- Node1&#45;&gt;Node15 -->
<g id="edge18_Node000001_Node000015" class="edge">
<title>Node1&#45;&gt;Node15</title>
<g id="a_edge18_Node000001_Node000015"><a xlink:title=" ">
<path fill="none" stroke="#63b8ff" d="M567.12,-165.58C567.12,-159.07 567.12,-149.92 567.12,-141.62"/>
<polygon fill="#63b8ff" stroke="#63b8ff" points="570.63,-141.62 567.13,-131.62 563.63,-141.62 570.63,-141.62"/>
</a>
</g>
</g>
<!-- Node16 -->
<g id="Node000016" class="node">
<title>Node16</title>
<g id="a_Node000016"><a xlink:title=" ">
<polygon fill="#e0e0e0" stroke="#999999" points="663,-129.75 613.25,-129.75 613.25,-110.5 663,-110.5 663,-129.75"/>
<text text-anchor="middle" x="638.12" y="-116.25" font-family="Helvetica,sans-Serif" font-size="10.00">optional</text>
</a>
</g>
</g>
<!-- Node1&#45;&gt;Node16 -->
<g id="edge20_Node000001_Node000016" class="edge">
<title>Node1&#45;&gt;Node16</title>
<g id="a_edge20_Node000001_Node000016"><a xlink:title=" ">
<path fill="none" stroke="#63b8ff" d="M579.17,-165.34C589.53,-157.57 604.73,-146.17 617.09,-136.9"/>
<polygon fill="#63b8ff" stroke="#63b8ff" points="619.15,-139.73 625.05,-130.93 614.95,-134.13 619.15,-139.73"/>
</a>
</g>
</g>
<!-- Node17 -->
<g id="Node000017" class="node">
<title>Node17</title>
<g id="a_Node000017"><a xlink:title=" ">
<polygon fill="#e0e0e0" stroke="#999999" points="726.75,-129.75 681.5,-129.75 681.5,-110.5 726.75,-110.5 726.75,-129.75"/>
<text text-anchor="middle" x="704.12" y="-116.25" font-family="Helvetica,sans-Serif" font-size="10.00">ranges</text>
</a>
</g>
</g>
<!-- Node1&#45;&gt;Node17 -->
<g id="edge21_Node000001_Node000017" class="edge">
<title>Node1&#45;&gt;Node17</title>
<g id="a_edge21_Node000001_Node000017"><a xlink:title=" ">
<path fill="none" stroke="#63b8ff" d="M590.37,-165.34C612.44,-156.76 645.88,-143.77 670.79,-134.08"/>
<polygon fill="#63b8ff" stroke="#63b8ff" points="671.76,-137.46 679.82,-130.57 669.23,-130.93 671.76,-137.46"/>
</a>
</g>
</g>
<!-- Node18 -->
<g id="Node000018" class="node">
<title>Node18</title>
<g id="a_Node000018"><a xlink:title=" ">
<polygon fill="#e0e0e0" stroke="#999999" points="781.62,-129.75 744.62,-129.75 744.62,-110.5 781.62,-110.5 781.62,-129.75"/>
<text text-anchor="middle" x="763.12" y="-116.25" font-family="Helvetica,sans-Serif" font-size="10.00">tuple</text>
</a>
</g>
</g>
<!-- Node1&#45;&gt;Node18 -->
<g id="edge22_Node000001_Node000018" class="edge">
<title>Node1&#45;&gt;Node18</title>
<g id="a_edge22_Node000001_Node000018"><a xlink:title=" ">
<path fill="none" stroke="#63b8ff" d="M603.54,-165.33C635.52,-157.26 683.54,-144.85 733.3,-130.47"/>
<polygon fill="#63b8ff" stroke="#63b8ff" points="734.2,-133.86 742.83,-127.7 732.25,-127.14 734.2,-133.86"/>
</a>
</g>
</g>
<!-- Node19 -->
<g id="Node000019" class="node">
<title>Node19</title>
<g id="a_Node000019"><a xlink:title=" ">
<polygon fill="#e0e0e0" stroke="#999999" points="860.62,-129.75 799.62,-129.75 799.62,-110.5 860.62,-110.5 860.62,-129.75"/>
<text text-anchor="middle" x="830.12" y="-116.25" font-family="Helvetica,sans-Serif" font-size="10.00">type_traits</text>
</a>
</g>
</g>
<!-- Node1&#45;&gt;Node19 -->
<g id="edge23_Node000001_Node000019" class="edge">
<title>Node1&#45;&gt;Node19</title>
<g id="a_edge23_Node000001_Node000019"><a xlink:title=" ">
<path fill="none" stroke="#63b8ff" d="M614.38,-165.26C657.36,-156.9 722.84,-144 788.52,-130.27"/>
<polygon fill="#63b8ff" stroke="#63b8ff" points="788.93,-133.76 798,-128.28 787.49,-126.91 788.93,-133.76"/>
</a>
</g>
</g>
<!-- Node3 -->
<g id="Node000003" class="node">
<title>Node3</title>
<g id="a_Node000003"><a xlink:href="../../df/dde/_fwd_8hpp.html" target="_top" xlink:title=" ">
<polygon fill="white" stroke="#666666" points="119.5,-74.5 66.75,-74.5 66.75,-55.25 119.5,-55.25 119.5,-74.5"/>
<text text-anchor="middle" x="93.12" y="-61" font-family="Helvetica,sans-Serif" font-size="10.00">Fwd.hpp</text>
</a>
</g>
</g>
<!-- Node2&#45;&gt;Node3 -->
<g id="edge2_Node000002_Node000003" class="edge">
<title>Node2&#45;&gt;Node3</title>
<g id="a_edge2_Node000002_Node000003"><a xlink:title=" ">
<path fill="none" stroke="#63b8ff" d="M307.63,-110.06C263.81,-101.89 197.83,-89.25 131,-74.83"/>
<polygon fill="#63b8ff" stroke="#63b8ff" points="131.83,-71.43 121.31,-72.73 130.34,-78.27 131.83,-71.43"/>
</a>
</g>
</g>
<!-- Node4 -->
<g id="Node000004" class="node">
<title>Node4</title>
<g id="a_Node000004"><a xlink:title=" ">
<polygon fill="#e0e0e0" stroke="#999999" points="219.12,-19.25 179.12,-19.25 179.12,0 219.12,0 219.12,-19.25"/>
<text text-anchor="middle" x="199.12" y="-5.75" font-family="Helvetica,sans-Serif" font-size="10.00">string</text>
</a>
</g>
</g>
<!-- Node2&#45;&gt;Node4 -->
<g id="edge8_Node000002_Node000004" class="edge">
<title>Node2&#45;&gt;Node4</title>
<g id="a_edge8_Node000002_Node000004"><a xlink:title=" ">
<path fill="none" stroke="#63b8ff" d="M348.72,-110.03C336.2,-96.82 311.49,-72.08 287.12,-55.25 269.15,-42.83 247.25,-31.71 229.79,-23.68"/>
<polygon fill="#63b8ff" stroke="#63b8ff" points="231.5,-20.61 220.95,-19.71 228.64,-27 231.5,-20.61"/>
</a>
</g>
</g>
<!-- Node2&#45;&gt;Node5 -->
<g id="edge4_Node000002_Node000005" class="edge">
<title>Node2&#45;&gt;Node5</title>
<g id="a_edge4_Node000002_Node000005"><a xlink:title=" ">
<path fill="none" stroke="#63b8ff" d="M409.3,-110.39C456.93,-102.26 529.56,-89.48 601.61,-74.94"/>
<polygon fill="#63b8ff" stroke="#63b8ff" points="602.11,-78.41 611.21,-72.99 600.71,-71.55 602.11,-78.41"/>
</a>
</g>
</g>
<!-- Node6 -->
<g id="Node000006" class="node">
<title>Node6</title>
<g id="a_Node000006"><a xlink:title=" ">
<polygon fill="#e0e0e0" stroke="#999999" points="380.12,-74.5 334.12,-74.5 334.12,-55.25 380.12,-55.25 380.12,-74.5"/>
<text text-anchor="middle" x="357.12" y="-61" font-family="Helvetica,sans-Serif" font-size="10.00">iterator</text>
</a>
</g>
</g>
<!-- Node2&#45;&gt;Node6 -->
<g id="edge5_Node000002_Node000006" class="edge">
<title>Node2&#45;&gt;Node6</title>
<g id="a_edge5_Node000002_Node000006"><a xlink:title=" ">
<path fill="none" stroke="#63b8ff" d="M357.12,-110.33C357.12,-103.82 357.12,-94.67 357.12,-86.37"/>
<polygon fill="#63b8ff" stroke="#63b8ff" points="360.63,-86.37 357.13,-76.37 353.63,-86.37 360.63,-86.37"/>
</a>
</g>
</g>
<!-- Node7 -->
<g id="Node000007" class="node">
<title>Node7</title>
<g id="a_Node000007"><a xlink:title=" ">
<polygon fill="#e0e0e0" stroke="#999999" points="222.25,-74.5 138,-74.5 138,-55.25 222.25,-55.25 222.25,-74.5"/>
<text text-anchor="middle" x="180.12" y="-61" font-family="Helvetica,sans-Serif" font-size="10.00">source_location</text>
</a>
</g>
</g>
<!-- Node2&#45;&gt;Node7 -->
<g id="edge6_Node000002_Node000007" class="edge">
<title>Node2&#45;&gt;Node7</title>
<g id="a_edge6_Node000002_Node000007"><a xlink:title=" ">
<path fill="none" stroke="#63b8ff" d="M327.1,-110.09C297.98,-101.33 253.59,-87.98 221.21,-78.23"/>
<polygon fill="#63b8ff" stroke="#63b8ff" points="222.33,-74.92 211.75,-75.39 220.31,-81.62 222.33,-74.92"/>
</a>
</g>
</g>
<!-- Node8 -->
<g id="Node000008" class="node">
<title>Node8</title>
<g id="a_Node000008"><a xlink:title=" ">
<polygon fill="#e0e0e0" stroke="#999999" points="449.75,-74.5 398.5,-74.5 398.5,-55.25 449.75,-55.25 449.75,-74.5"/>
<text text-anchor="middle" x="424.12" y="-61" font-family="Helvetica,sans-Serif" font-size="10.00">sstream</text>
</a>
</g>
</g>
<!-- Node2&#45;&gt;Node8 -->
<g id="edge7_Node000002_Node000008" class="edge">
<title>Node2&#45;&gt;Node8</title>
<g id="a_edge7_Node000002_Node000008"><a xlink:title=" ">
<path fill="none" stroke="#63b8ff" d="M368.49,-110.09C378.17,-102.4 392.32,-91.15 403.93,-81.93"/>
<polygon fill="#63b8ff" stroke="#63b8ff" points="406.09,-84.68 411.74,-75.72 401.74,-79.2 406.09,-84.68"/>
</a>
</g>
</g>
<!-- Node9 -->
<g id="Node000009" class="node">
<title>Node9</title>
<g id="a_Node000009"><a xlink:title=" ">
<polygon fill="#e0e0e0" stroke="#999999" points="532.88,-74.5 467.38,-74.5 467.38,-55.25 532.88,-55.25 532.88,-74.5"/>
<text text-anchor="middle" x="500.12" y="-61" font-family="Helvetica,sans-Serif" font-size="10.00">string_view</text>
</a>
</g>
</g>
<!-- Node2&#45;&gt;Node9 -->
<g id="edge9_Node000002_Node000009" class="edge">
<title>Node2&#45;&gt;Node9</title>
<g id="a_edge9_Node000002_Node000009"><a xlink:title=" ">
<path fill="none" stroke="#63b8ff" d="M381.38,-110.09C404.39,-101.52 439.22,-88.56 465.21,-78.88"/>
<polygon fill="#63b8ff" stroke="#63b8ff" points="466.18,-82.25 474.33,-75.48 463.74,-75.69 466.18,-82.25"/>
</a>
</g>
</g>
<!-- Node10 -->
<g id="Node000010" class="node">
<title>Node10</title>
<g id="a_Node000010"><a xlink:title=" ">
<polygon fill="#e0e0e0" stroke="#999999" points="278.38,-74.5 239.88,-74.5 239.88,-55.25 278.38,-55.25 278.38,-74.5"/>
<text text-anchor="middle" x="259.12" y="-61" font-family="Helvetica,sans-Serif" font-size="10.00">utility</text>
</a>
</g>
</g>
<!-- Node2&#45;&gt;Node10 -->
<g id="edge10_Node000002_Node000010" class="edge">
<title>Node2&#45;&gt;Node10</title>
<g id="a_edge10_Node000002_Node000010"><a xlink:title=" ">
<path fill="none" stroke="#63b8ff" d="M340.5,-110.09C325.44,-101.91 302.98,-89.71 285.47,-80.19"/>
<polygon fill="#63b8ff" stroke="#63b8ff" points="287.62,-77.37 277.16,-75.68 284.28,-83.52 287.62,-77.37"/>
</a>
</g>
</g>
<!-- Node11 -->
<g id="Node000011" class="node">
<title>Node11</title>
<g id="a_Node000011"><a xlink:title=" ">
<polygon fill="#e0e0e0" stroke="#999999" points="595,-74.5 551.25,-74.5 551.25,-55.25 595,-55.25 595,-74.5"/>
<text text-anchor="middle" x="573.12" y="-61" font-family="Helvetica,sans-Serif" font-size="10.00">format</text>
</a>
</g>
</g>
<!-- Node2&#45;&gt;Node11 -->
<g id="edge11_Node000002_Node000011" class="edge">
<title>Node2&#45;&gt;Node11</title>
<g id="a_edge11_Node000002_Node000011"><a xlink:title=" ">
<path fill="none" stroke="#63b8ff" d="M396.56,-110.03C431.74,-101.83 484.91,-89.2 539.8,-75.04"/>
<polygon fill="#63b8ff" stroke="#63b8ff" points="540.53,-78.46 549.33,-72.57 538.78,-71.69 540.53,-78.46"/>
</a>
</g>
</g>
<!-- Node3&#45;&gt;Node4 -->
<g id="edge3_Node000003_Node000004" class="edge">
<title>Node3&#45;&gt;Node4</title>
<g id="a_edge3_Node000003_Node000004"><a xlink:title=" ">
<path fill="none" stroke="#63b8ff" d="M111.11,-54.84C127.48,-46.62 151.91,-34.34 170.89,-24.81"/>
<polygon fill="#63b8ff" stroke="#63b8ff" points="172.34,-28 179.7,-20.38 169.2,-21.74 172.34,-28"/>
</a>
</g>
</g>
<!-- Node12&#45;&gt;Node3 -->
<g id="edge13_Node000012_Node000003" class="edge">
<title>Node12&#45;&gt;Node3</title>
<g id="a_edge13_Node000012_Node000003"><a xlink:title=" ">
<path fill="none" stroke="#63b8ff" d="M165.37,-110.09C152.24,-102.06 132.8,-90.16 117.39,-80.73"/>
<polygon fill="#63b8ff" stroke="#63b8ff" points="119.6,-77.98 109.25,-75.74 115.95,-83.95 119.6,-77.98"/>
</a>
</g>
</g>
<!-- Node12&#45;&gt;Node7 -->
<g id="edge15_Node000012_Node000007" class="edge">
<title>Node12&#45;&gt;Node7</title>
<g id="a_edge15_Node000012_Node000007"><a xlink:title=" ">
<path fill="none" stroke="#63b8ff" d="M180.12,-110.33C180.12,-103.82 180.12,-94.67 180.12,-86.37"/>
<polygon fill="#63b8ff" stroke="#63b8ff" points="183.63,-86.37 180.13,-76.37 176.63,-86.37 183.63,-86.37"/>
</a>
</g>
</g>
<!-- Node12&#45;&gt;Node10 -->
<g id="edge16_Node000012_Node000010" class="edge">
<title>Node12&#45;&gt;Node10</title>
<g id="a_edge16_Node000012_Node000010"><a xlink:title=" ">
<path fill="none" stroke="#63b8ff" d="M193.53,-110.09C205.22,-102.21 222.43,-90.61 236.29,-81.27"/>
<polygon fill="#63b8ff" stroke="#63b8ff" points="238.07,-84.29 244.4,-75.8 234.15,-78.49 238.07,-84.29"/>
</a>
</g>
</g>
<!-- Node13 -->
<g id="Node000013" class="node">
<title>Node13</title>
<g id="a_Node000013"><a xlink:title=" ">
<polygon fill="#e0e0e0" stroke="#999999" points="48.25,-74.5 0,-74.5 0,-55.25 48.25,-55.25 48.25,-74.5"/>
<text text-anchor="middle" x="24.12" y="-61" font-family="Helvetica,sans-Serif" font-size="10.00">cassert</text>
</a>
</g>
</g>
<!-- Node12&#45;&gt;Node13 -->
<g id="edge14_Node000012_Node000013" class="edge">
<title>Node12&#45;&gt;Node13</title>
<g id="a_edge14_Node000012_Node000013"><a xlink:title=" ">
<path fill="none" stroke="#63b8ff" d="M153.66,-110.09C127.72,-101.24 88.02,-87.69 59.41,-77.92"/>
<polygon fill="#63b8ff" stroke="#63b8ff" points="60.69,-74.66 50.09,-74.74 58.42,-81.28 60.69,-74.66"/>
</a>
</g>
</g>
</g>
</svg>
