<?xml version="1.0" encoding="UTF-8" standalone="no"?>
<!DOCTYPE svg PUBLIC "-//W3C//DTD SVG 1.1//EN"
 "http://www.w3.org/Graphics/SVG/1.1/DTD/svg11.dtd">
<!-- Generated by graphviz version 12.1.1 (20240910.0053)
 -->
<!-- Title: mimic++/Reporter.hpp Pages: 1 -->
<!--zoomable 414 -->

<svg id="main" version="1.1" xmlns="http://www.w3.org/2000/svg" xmlns:xlink="http://www.w3.org/1999/xlink" xml:space="preserve" onload="init(evt)">

<style type="text/css"><![CDATA[
.node, .edge {opacity: 0.7;}
.node.selected, .edge.selected {opacity: 1;}
.edge:hover path { stroke: red; }
.edge:hover polygon { stroke: red; fill: red; }
]]></style>

<defs>
  <circle id="rim" cx="0" cy="0" r="7"/>
  <circle id="rim2" cx="0" cy="0" r="3.5"/>
  <g id="zoomPlus">
    <use xlink:href="#rim" fill="#404040"><set attributeName="fill" to="#808080" begin="zoomplus.mouseover" end="zoomplus.mouseout"/></use>
    <path d="M-4,0h8M0,-4v8" fill="none" stroke="white" stroke-width="1.5" pointer-events="none"/>
  </g>
  <g id="zoomMin">
    <use xlink:href="#rim" fill="#404040"><set attributeName="fill" to="#808080" begin="zoomminus.mouseover" end="zoomminus.mouseout"/></use>
    <path d="M-4,0h8" fill="none" stroke="white" stroke-width="1.5" pointer-events="none"/>
  </g>
  <g id="arrowUp" transform="translate(30 24)">
    <use xlink:href="#rim"/>
    <path pointer-events="none" fill="none" stroke="white" stroke-width="1.5" d="M0,-3.0v7 M-2.5,-0.5L0,-3.0L2.5,-0.5"/>
  </g>
  <g id="arrowRight" transform="rotate(90) translate(36 -43)">
    <use xlink:href="#rim"/>
    <path pointer-events="none" fill="none" stroke="white" stroke-width="1.5" d="M0,-3.0v7 M-2.5,-0.5L0,-3.0L2.5,-0.5"/>
  </g>
  <g id="arrowDown" transform="rotate(180) translate(-30 -48)">
    <use xlink:href="#rim"/>
    <path pointer-events="none" fill="none" stroke="white" stroke-width="1.5" d="M0,-3.0v7 M-2.5,-0.5L0,-3.0L2.5,-0.5"/>
  </g>
  <g id="arrowLeft" transform="rotate(270) translate(-36 17)">
    <use xlink:href="#rim"/>
    <path pointer-events="none" fill="none" stroke="white" stroke-width="1.5" d="M0,-3.0v7 M-2.5,-0.5L0,-3.0L2.5,-0.5"/>
  </g>
  <g id="resetDef">
    <use xlink:href="#rim2" fill="#404040"><set attributeName="fill" to="#808080" begin="reset.mouseover" end="reset.mouseout"/></use>
  </g>
</defs>
<script type="application/ecmascript">
var viewWidth = 1008;
var viewHeight = 414;
var sectionId = 'dynsection-1';
</script>
<script type="application/ecmascript" xlink:href="../../svg.min.js"/>
<svg id="graph" class="graph">
<g id="viewport">
<title>mimic++/Reporter.hpp</title>
<!-- Node1 -->
<g id="Node000001" class="node">
<title>Node1</title>
<g id="a_Node000001"><a xlink:title=" ">
<polygon fill="#999999" stroke="#666666" points="601.47,-406 489.47,-406 489.47,-386.75 601.47,-386.75 601.47,-406"/>
<text text-anchor="middle" x="545.47" y="-392.5" font-family="Helvetica,sans-Serif" font-size="10.00">mimic++/Reporter.hpp</text>
</a>
</g>
</g>
<!-- Node2 -->
<g id="Node000002" class="node">
<title>Node2</title>
<g id="a_Node000002"><a xlink:href="../../d5/d8a/_expectation_8hpp.html" target="_top" xlink:title=" ">
<polygon fill="white" stroke="#666666" points="248.22,-240.25 122.72,-240.25 122.72,-221 248.22,-221 248.22,-240.25"/>
<text text-anchor="middle" x="185.47" y="-226.75" font-family="Helvetica,sans-Serif" font-size="10.00">mimic++/Expectation.hpp</text>
</a>
</g>
</g>
<!-- Node1&#45;&gt;Node2 -->
<g id="edge1_Node000001_Node000002" class="edge">
<title>Node1&#45;&gt;Node2</title>
<g id="a_edge1_Node000001_Node000002"><a xlink:title=" ">
<path fill="none" stroke="#63b8ff" d="M478.19,-391.93C430.18,-387.26 365.22,-376.32 313.47,-350.75 257.68,-323.18 209.16,-263.38 192.05,-240.64"/>
<polygon fill="#63b8ff" stroke="#63b8ff" points="477.61,-395.39 487.88,-392.8 478.24,-388.42 477.61,-395.39"/>
</a>
</g>
</g>
<!-- Node5 -->
<g id="Node000005" class="node">
<title>Node5</title>
<g id="a_Node000005"><a xlink:href="../../d0/db9/mimic_09_09_8hpp.html" target="_top" xlink:title=" ">
<polygon fill="white" stroke="#666666" points="344.22,-19.25 230.72,-19.25 230.72,0 344.22,0 344.22,-19.25"/>
<text text-anchor="middle" x="287.47" y="-5.75" font-family="Helvetica,sans-Serif" font-size="10.00">mimic++/mimic++.hpp</text>
</a>
</g>
</g>
<!-- Node1&#45;&gt;Node5 -->
<g id="edge22_Node000001_Node000005" class="edge">
<title>Node1&#45;&gt;Node5</title>
<g id="a_edge22_Node000001_Node000005"><a xlink:title=" ">
<path fill="none" stroke="#63b8ff" d="M529.32,-377.97C522.73,-370.12 515.49,-360.45 510.47,-350.75 496.87,-324.44 491.47,-316.49 491.47,-286.88 491.47,-286.88 491.47,-286.88 491.47,-119.12 491.47,-52.23 404.92,-26.45 344.57,-16.6"/>
<polygon fill="#63b8ff" stroke="#63b8ff" points="526.61,-380.19 535.85,-385.38 531.87,-375.56 526.61,-380.19"/>
</a>
</g>
</g>
<!-- Node7 -->
<g id="Node000007" class="node">
<title>Node7</title>
<g id="a_Node000007"><a xlink:href="../../d8/de4/_sequence_8hpp.html" target="_top" xlink:title=" ">
<polygon fill="white" stroke="#666666" points="440.85,-350.75 322.1,-350.75 322.1,-331.5 440.85,-331.5 440.85,-350.75"/>
<text text-anchor="middle" x="381.47" y="-337.25" font-family="Helvetica,sans-Serif" font-size="10.00">mimic++/Sequence.hpp</text>
</a>
</g>
</g>
<!-- Node1&#45;&gt;Node7 -->
<g id="edge12_Node000001_Node000007" class="edge">
<title>Node1&#45;&gt;Node7</title>
<g id="a_edge12_Node000001_Node000007"><a xlink:title=" ">
<path fill="none" stroke="#63b8ff" d="M506.77,-382.81C476.88,-373.1 436.22,-359.9 409.43,-351.2"/>
<polygon fill="#63b8ff" stroke="#63b8ff" points="505.62,-386.12 516.21,-385.87 507.78,-379.46 505.62,-386.12"/>
</a>
</g>
</g>
<!-- Node9 -->
<g id="Node000009" class="node">
<title>Node9</title>
<g id="a_Node000009"><a xlink:href="../../d9/d42/_boost_test_8hpp.html" target="_top" xlink:title=" ">
<polygon fill="white" stroke="#666666" points="679.85,-350.75 519.1,-350.75 519.1,-331.5 679.85,-331.5 679.85,-350.75"/>
<text text-anchor="middle" x="599.47" y="-337.25" font-family="Helvetica,sans-Serif" font-size="10.00">mimic++/adapters/BoostTest.hpp</text>
</a>
</g>
</g>
<!-- Node1&#45;&gt;Node9 -->
<g id="edge19_Node000001_Node000009" class="edge">
<title>Node1&#45;&gt;Node9</title>
<g id="a_edge19_Node000001_Node000009"><a xlink:title=" ">
<path fill="none" stroke="#63b8ff" d="M562.51,-378.57C571.74,-369.48 582.77,-358.6 590.36,-351.11"/>
<polygon fill="#63b8ff" stroke="#63b8ff" points="560.13,-376.01 555.47,-385.52 565.05,-380.99 560.13,-376.01"/>
</a>
</g>
</g>
<!-- Node10 -->
<g id="Node000010" class="node">
<title>Node10</title>
<g id="a_Node000010"><a xlink:href="../../d3/d04/_catch2_8hpp.html" target="_top" xlink:title=" ">
<polygon fill="white" stroke="#666666" points="844.72,-350.75 698.22,-350.75 698.22,-331.5 844.72,-331.5 844.72,-350.75"/>
<text text-anchor="middle" x="771.47" y="-337.25" font-family="Helvetica,sans-Serif" font-size="10.00">mimic++/adapters/Catch2.hpp</text>
</a>
</g>
</g>
<!-- Node1&#45;&gt;Node10 -->
<g id="edge20_Node000001_Node000010" class="edge">
<title>Node1&#45;&gt;Node10</title>
<g id="a_edge20_Node000001_Node000010"><a xlink:title=" ">
<path fill="none" stroke="#63b8ff" d="M595.03,-383.7C636.56,-373.91 694.99,-360.15 733.04,-351.18"/>
<polygon fill="#63b8ff" stroke="#63b8ff" points="594.47,-380.23 585.54,-385.93 596.08,-387.05 594.47,-380.23"/>
</a>
</g>
</g>
<!-- Node11 -->
<g id="Node000011" class="node">
<title>Node11</title>
<g id="a_Node000011"><a xlink:href="../../d5/db1/gtest_8hpp.html" target="_top" xlink:title=" ">
<polygon fill="white" stroke="#666666" points="1000.22,-350.75 862.72,-350.75 862.72,-331.5 1000.22,-331.5 1000.22,-350.75"/>
<text text-anchor="middle" x="931.47" y="-337.25" font-family="Helvetica,sans-Serif" font-size="10.00">mimic++/adapters/gtest.hpp</text>
</a>
</g>
</g>
<!-- Node1&#45;&gt;Node11 -->
<g id="edge21_Node000001_Node000011" class="edge">
<title>Node1&#45;&gt;Node11</title>
<g id="a_edge21_Node000001_Node000011"><a xlink:title=" ">
<path fill="none" stroke="#63b8ff" d="M612.64,-386.11C683.68,-376.31 795.03,-360.95 865.58,-351.22"/>
<polygon fill="#63b8ff" stroke="#63b8ff" points="612.53,-382.59 603.1,-387.43 613.49,-389.53 612.53,-382.59"/>
</a>
</g>
</g>
<!-- Node3 -->
<g id="Node000003" class="node">
<title>Node3</title>
<g id="a_Node000003"><a xlink:href="../../d2/d4f/_expectation_builder_8hpp.html" target="_top" xlink:title=" ">
<polygon fill="white" stroke="#666666" points="365.22,-129.75 209.72,-129.75 209.72,-110.5 365.22,-110.5 365.22,-129.75"/>
<text text-anchor="middle" x="287.47" y="-116.25" font-family="Helvetica,sans-Serif" font-size="10.00">mimic++/ExpectationBuilder.hpp</text>
</a>
</g>
</g>
<!-- Node2&#45;&gt;Node3 -->
<g id="edge2_Node000002_Node000003" class="edge">
<title>Node2&#45;&gt;Node3</title>
<g id="a_edge2_Node000002_Node000003"><a xlink:title=" ">
<path fill="none" stroke="#63b8ff" d="M201.6,-212.47C223.54,-189.13 262.03,-148.19 279.01,-130.13"/>
<polygon fill="#63b8ff" stroke="#63b8ff" points="199.16,-209.96 194.86,-219.64 204.26,-214.75 199.16,-209.96"/>
</a>
</g>
</g>
<!-- Node4 -->
<g id="Node000004" class="node">
<title>Node4</title>
<g id="a_Node000004"><a xlink:href="../../d5/dc5/_mock_8hpp.html" target="_top" xlink:title=" ">
<polygon fill="white" stroke="#666666" points="245.1,-74.5 145.85,-74.5 145.85,-55.25 245.1,-55.25 245.1,-74.5"/>
<text text-anchor="middle" x="195.47" y="-61" font-family="Helvetica,sans-Serif" font-size="10.00">mimic++/Mock.hpp</text>
</a>
</g>
</g>
<!-- Node2&#45;&gt;Node4 -->
<g id="edge10_Node000002_Node000004" class="edge">
<title>Node2&#45;&gt;Node4</title>
<g id="a_edge10_Node000002_Node000004"><a xlink:title=" ">
<path fill="none" stroke="#63b8ff" d="M186.7,-209.47C188.89,-173.61 193.38,-100.1 194.93,-74.72"/>
<polygon fill="#63b8ff" stroke="#63b8ff" points="183.22,-209.12 186.1,-219.31 190.21,-209.54 183.22,-209.12"/>
</a>
</g>
</g>
<!-- Node2&#45;&gt;Node5 -->
<g id="edge11_Node000002_Node000005" class="edge">
<title>Node2&#45;&gt;Node5</title>
<g id="a_edge11_Node000002_Node000005"><a xlink:title=" ">
<path fill="none" stroke="#63b8ff" d="M111.24,-220.76C67.07,-213.78 17.05,-202.31 3.47,-185 -1.81,-178.27 0.14,-173.63 3.47,-165.75 30.98,-100.77 56,-89.9 117.47,-55.25 152.3,-35.62 196,-24.4 230.37,-18.11"/>
<polygon fill="#63b8ff" stroke="#63b8ff" points="110.71,-224.22 121.12,-222.25 111.75,-217.29 110.71,-224.22"/>
</a>
</g>
</g>
<!-- Node6 -->
<g id="Node000006" class="node">
<title>Node6</title>
<g id="a_Node000006"><a xlink:href="../../d8/de5/_expectation_policies_8hpp.html" target="_top" xlink:title=" ">
<polygon fill="white" stroke="#666666" points="172.47,-185 12.47,-185 12.47,-165.75 172.47,-165.75 172.47,-185"/>
<text text-anchor="middle" x="92.47" y="-171.5" font-family="Helvetica,sans-Serif" font-size="10.00">mimic++/ExpectationPolicies.hpp</text>
</a>
</g>
</g>
<!-- Node2&#45;&gt;Node6 -->
<g id="edge6_Node000002_Node000006" class="edge">
<title>Node2&#45;&gt;Node6</title>
<g id="a_edge6_Node000002_Node000006"><a xlink:title=" ">
<path fill="none" stroke="#63b8ff" d="M160.09,-215.09C143.56,-205.63 122.51,-193.58 108.33,-185.45"/>
<polygon fill="#63b8ff" stroke="#63b8ff" points="157.97,-217.91 168.38,-219.84 161.45,-211.83 157.97,-217.91"/>
</a>
</g>
</g>
<!-- Node3&#45;&gt;Node4 -->
<g id="edge3_Node000003_Node000004" class="edge">
<title>Node3&#45;&gt;Node4</title>
<g id="a_edge3_Node000003_Node000004"><a xlink:title=" ">
<path fill="none" stroke="#63b8ff" d="M262.37,-104.59C246.01,-95.13 225.19,-83.08 211.16,-74.95"/>
<polygon fill="#63b8ff" stroke="#63b8ff" points="260.15,-107.35 270.56,-109.33 263.66,-101.29 260.15,-107.35"/>
</a>
</g>
</g>
<!-- Node3&#45;&gt;Node5 -->
<g id="edge5_Node000003_Node000005" class="edge">
<title>Node3&#45;&gt;Node5</title>
<g id="a_edge5_Node000003_Node000005"><a xlink:title=" ">
<path fill="none" stroke="#63b8ff" d="M287.47,-98.78C287.47,-75.05 287.47,-36.89 287.47,-19.63"/>
<polygon fill="#63b8ff" stroke="#63b8ff" points="283.97,-98.73 287.47,-108.73 290.97,-98.73 283.97,-98.73"/>
</a>
</g>
</g>
<!-- Node4&#45;&gt;Node5 -->
<g id="edge4_Node000004_Node000005" class="edge">
<title>Node4&#45;&gt;Node5</title>
<g id="a_edge4_Node000004_Node000005"><a xlink:title=" ">
<path fill="none" stroke="#63b8ff" d="M220.58,-49.34C236.93,-39.88 257.76,-27.83 271.79,-19.7"/>
<polygon fill="#63b8ff" stroke="#63b8ff" points="219.29,-46.04 212.39,-54.08 222.8,-52.1 219.29,-46.04"/>
</a>
</g>
</g>
<!-- Node6&#45;&gt;Node3 -->
<g id="edge7_Node000006_Node000003" class="edge">
<title>Node6&#45;&gt;Node3</title>
<g id="a_edge7_Node000006_Node000003"><a xlink:title=" ">
<path fill="none" stroke="#63b8ff" d="M136.62,-162.32C172.32,-152.57 221.82,-139.05 254.23,-130.2"/>
<polygon fill="#63b8ff" stroke="#63b8ff" points="135.74,-158.93 127.01,-164.94 137.58,-165.69 135.74,-158.93"/>
</a>
</g>
</g>
<!-- Node6&#45;&gt;Node4 -->
<g id="edge8_Node000006_Node000004" class="edge">
<title>Node6&#45;&gt;Node4</title>
<g id="a_edge8_Node000006_Node000004"><a xlink:title=" ">
<path fill="none" stroke="#63b8ff" d="M108.76,-157.22C130.92,-133.88 169.78,-92.94 186.93,-74.88"/>
<polygon fill="#63b8ff" stroke="#63b8ff" points="106.29,-154.74 101.95,-164.4 111.37,-159.56 106.29,-154.74"/>
</a>
</g>
</g>
<!-- Node6&#45;&gt;Node5 -->
<g id="edge9_Node000006_Node000005" class="edge">
<title>Node6&#45;&gt;Node5</title>
<g id="a_edge9_Node000006_Node000005"><a xlink:title=" ">
<path fill="none" stroke="#63b8ff" d="M94.42,-154.2C98.05,-127.76 108.25,-81.66 136.47,-55.25 161.82,-31.53 199.19,-20.36 230.4,-15.13"/>
<polygon fill="#63b8ff" stroke="#63b8ff" points="90.97,-153.59 93.29,-163.93 97.92,-154.4 90.97,-153.59"/>
</a>
</g>
</g>
<!-- Node7&#45;&gt;Node3 -->
<g id="edge17_Node000007_Node000003" class="edge">
<title>Node7&#45;&gt;Node3</title>
<g id="a_edge17_Node000007_Node000003"><a xlink:title=" ">
<path fill="none" stroke="#63b8ff" d="M326.19,-327.09C309.97,-320.41 294.03,-310.42 284.47,-295.5 249.85,-241.45 274.63,-157.34 284.17,-130.02"/>
<polygon fill="#63b8ff" stroke="#63b8ff" points="324.82,-330.31 335.41,-330.49 327.24,-323.74 324.82,-330.31"/>
</a>
</g>
</g>
<!-- Node7&#45;&gt;Node5 -->
<g id="edge18_Node000007_Node000005" class="edge">
<title>Node7&#45;&gt;Node5</title>
<g id="a_edge18_Node000007_Node000005"><a xlink:title=" ">
<path fill="none" stroke="#63b8ff" d="M405.46,-324.69C415.69,-317.02 426.98,-306.94 434.47,-295.5 450.71,-270.73 453.47,-261.24 453.47,-231.62 453.47,-231.62 453.47,-231.62 453.47,-119.12 453.47,-61.11 381.56,-32.46 332.4,-19.65"/>
<polygon fill="#63b8ff" stroke="#63b8ff" points="403.51,-321.77 397.36,-330.4 407.55,-327.49 403.51,-321.77"/>
</a>
</g>
</g>
<!-- Node8 -->
<g id="Node000008" class="node">
<title>Node8</title>
<g id="a_Node000008"><a xlink:href="../../d6/d17/_control_policy_8hpp.html" target="_top" xlink:title=" ">
<polygon fill="white" stroke="#666666" points="425.6,-295.5 293.35,-295.5 293.35,-276.25 425.6,-276.25 425.6,-295.5"/>
<text text-anchor="middle" x="359.47" y="-282" font-family="Helvetica,sans-Serif" font-size="10.00">mimic++/ControlPolicy.hpp</text>
</a>
</g>
</g>
<!-- Node7&#45;&gt;Node8 -->
<g id="edge13_Node000007_Node000008" class="edge">
<title>Node7&#45;&gt;Node8</title>
<g id="a_edge13_Node000007_Node000008"><a xlink:title=" ">
<path fill="none" stroke="#63b8ff" d="M373.47,-320.75C369.95,-312.24 365.99,-302.65 363.19,-295.86"/>
<polygon fill="#63b8ff" stroke="#63b8ff" points="370.21,-322.03 377.26,-329.93 376.68,-319.35 370.21,-322.03"/>
</a>
</g>
</g>
<!-- Node8&#45;&gt;Node2 -->
<g id="edge14_Node000008_Node000002" class="edge">
<title>Node8&#45;&gt;Node2</title>
<g id="a_edge14_Node000008_Node000002"><a xlink:title=" ">
<path fill="none" stroke="#63b8ff" d="M319.25,-272.57C287.46,-262.84 243.81,-249.48 215.14,-240.7"/>
<polygon fill="#63b8ff" stroke="#63b8ff" points="317.92,-275.82 328.51,-275.4 319.97,-269.13 317.92,-275.82"/>
</a>
</g>
</g>
<!-- Node8&#45;&gt;Node3 -->
<g id="edge15_Node000008_Node000003" class="edge">
<title>Node8&#45;&gt;Node3</title>
<g id="a_edge15_Node000008_Node000003"><a xlink:title=" ">
<path fill="none" stroke="#63b8ff" d="M351.02,-265.66C335.41,-230.15 302.62,-155.57 291.36,-129.97"/>
<polygon fill="#63b8ff" stroke="#63b8ff" points="347.76,-266.94 354.99,-274.69 354.17,-264.12 347.76,-266.94"/>
</a>
</g>
</g>
<!-- Node8&#45;&gt;Node5 -->
<g id="edge16_Node000008_Node000005" class="edge">
<title>Node8&#45;&gt;Node5</title>
<g id="a_edge16_Node000008_Node000005"><a xlink:title=" ">
<path fill="none" stroke="#63b8ff" d="M369.39,-265.66C379.43,-244.4 393.47,-208.85 393.47,-176.38 393.47,-176.38 393.47,-176.38 393.47,-119.12 393.47,-70.14 337.52,-35.06 306.92,-19.54"/>
<polygon fill="#63b8ff" stroke="#63b8ff" points="366.3,-264.01 365.02,-274.53 372.58,-267.11 366.3,-264.01"/>
</a>
</g>
</g>
</g>
</svg>

<g id="navigator" transform="translate(0 0)" fill="#404254">
  <rect fill="#f2f5e9" fill-opacity="0.5" stroke="#606060" stroke-width=".5" x="0" y="0" width="60" height="60"/>
  <use id="zoomplus" xlink:href="#zoomPlus" x="17" y="9" onmousedown="handleZoom(evt,'in')"/>
  <use id="zoomminus" xlink:href="#zoomMin" x="42" y="9" onmousedown="handleZoom(evt,'out')"/>
  <use id="reset" xlink:href="#resetDef" x="30" y="36" onmousedown="handleReset()"/>
   <use id="arrowup" xlink:href="#arrowUp" x="0" y="0" onmousedown="handlePan(0,-1)"/>
  <use id="arrowright" xlink:href="#arrowRight" x="0" y="0" onmousedown="handlePan(1,0)"/>
  <use id="arrowdown" xlink:href="#arrowDown" x="0" y="0" onmousedown="handlePan(0,1)"/>
  <use id="arrowleft" xlink:href="#arrowLeft" x="0" y="0" onmousedown="handlePan(-1,0)"/>
</g>
<svg viewBox="0 0 15 15" width="100%" height="30px" preserveAspectRatio="xMaxYMin meet">
 <g id="arrow_out" transform="scale(0.3 0.3)">
  <a xlink:href="_reporter_8hpp__dep__incl_org.svg" target="_base">
   <rect id="button" ry="5" rx="5" y="6" x="6" height="38" width="38"
        fill="#f2f5e9" fill-opacity="0.5" stroke="#606060" stroke-width="1.0"/>
   <path id="arrow"
     d="M 11.500037,31.436501 C 11.940474,20.09759 22.043105,11.32322 32.158766,21.979434 L 37.068811,17.246167 C 37.068811,17.246167 37.088388,32 37.088388,32 L 22.160133,31.978069 C 22.160133,31.978069 26.997745,27.140456 26.997745,27.140456 C 18.528582,18.264221 13.291696,25.230495 11.500037,31.436501 z"
     style="fill:#404040;"/>
  </a>
 </g>
</svg>

<style type='text/css'>
<![CDATA[
[data-mouse-over-selected='false'] { opacity: 0.7; }
[data-mouse-over-selected='true']  { opacity: 1.0; }
]]>
</style>
<script type="application/ecmascript"><![CDATA[
document.addEventListener('DOMContentLoaded', (event) => {
  highlightEdges();
  highlightAdjacentNodes();
});
]]></script>
</svg>
