<?xml version="1.0" encoding="UTF-8" standalone="no"?>
<!DOCTYPE svg PUBLIC "-//W3C//DTD SVG 1.1//EN"
 "http://www.w3.org/Graphics/SVG/1.1/DTD/svg11.dtd">
<!-- Generated by graphviz version 12.1.2 (20240928.0832)
 -->
<!-- Title: mimic++/Reporter.hpp Pages: 1 -->
<svg width="1065pt" height="469pt"
 viewBox="0.00 0.00 1064.75 469.25" xmlns="http://www.w3.org/2000/svg" xmlns:xlink="http://www.w3.org/1999/xlink">
<g id="graph0" class="graph" transform="scale(1 1) rotate(0) translate(4 465.25)">
<title>mimic++/Reporter.hpp</title>
<!-- Node1 -->
<g id="Node000001" class="node">
<title>Node1</title>
<g id="a_Node000001"><a xlink:title=" ">
<polygon fill="#999999" stroke="#666666" points="658,-461.25 546,-461.25 546,-442 658,-442 658,-461.25"/>
<text text-anchor="middle" x="602" y="-447.75" font-family="Helvetica,sans-Serif" font-size="10.00">mimic++/Reporter.hpp</text>
</a>
</g>
</g>
<!-- Node2 -->
<g id="Node000002" class="node">
<title>Node2</title>
<g id="a_Node000002"><a xlink:href="../../d5/d8a/_expectation_8hpp.html" target="_top" xlink:title=" ">
<polygon fill="white" stroke="#666666" points="293.75,-295.5 168.25,-295.5 168.25,-276.25 293.75,-276.25 293.75,-295.5"/>
<text text-anchor="middle" x="231" y="-282" font-family="Helvetica,sans-Serif" font-size="10.00">mimic++/Expectation.hpp</text>
</a>
</g>
</g>
<!-- Node1&#45;&gt;Node2 -->
<g id="edge1_Node000001_Node000002" class="edge">
<title>Node1&#45;&gt;Node2</title>
<g id="a_edge1_Node000001_Node000002"><a xlink:title=" ">
<path fill="none" stroke="#63b8ff" d="M534.39,-446.83C486.5,-441.99 421.82,-430.99 370,-406 311.31,-377.7 257.48,-318.34 238.36,-295.81"/>
<polygon fill="#63b8ff" stroke="#63b8ff" points="533.78,-450.29 544.06,-447.74 534.43,-443.32 533.78,-450.29"/>
</a>
</g>
</g>
<!-- Node6 -->
<g id="Node000006" class="node">
<title>Node6</title>
<g id="a_Node000006"><a xlink:href="../../d0/db9/mimic_09_09_8hpp.html" target="_top" xlink:title=" ">
<polygon fill="white" stroke="#666666" points="389.75,-19.25 276.25,-19.25 276.25,0 389.75,0 389.75,-19.25"/>
<text text-anchor="middle" x="333" y="-5.75" font-family="Helvetica,sans-Serif" font-size="10.00">mimic++/mimic++.hpp</text>
</a>
</g>
</g>
<!-- Node1&#45;&gt;Node6 -->
<g id="edge26_Node000001_Node000006" class="edge">
<title>Node1&#45;&gt;Node6</title>
<g id="a_edge26_Node000001_Node000006"><a xlink:title=" ">
<path fill="none" stroke="#63b8ff" d="M585.85,-433.22C579.25,-425.37 572.01,-415.7 567,-406 553.4,-379.69 548,-371.74 548,-342.12 548,-342.12 548,-342.12 548,-119.12 548,-48.26 453.75,-23.67 390.05,-15.14"/>
<polygon fill="#63b8ff" stroke="#63b8ff" points="583.14,-435.44 592.38,-440.63 588.39,-430.81 583.14,-435.44"/>
</a>
</g>
</g>
<!-- Node9 -->
<g id="Node000009" class="node">
<title>Node9</title>
<g id="a_Node000009"><a xlink:href="../../d8/de4/_sequence_8hpp.html" target="_top" xlink:title=" ">
<polygon fill="white" stroke="#666666" points="497.38,-406 378.62,-406 378.62,-386.75 497.38,-386.75 497.38,-406"/>
<text text-anchor="middle" x="438" y="-392.5" font-family="Helvetica,sans-Serif" font-size="10.00">mimic++/Sequence.hpp</text>
</a>
</g>
</g>
<!-- Node1&#45;&gt;Node9 -->
<g id="edge16_Node000001_Node000009" class="edge">
<title>Node1&#45;&gt;Node9</title>
<g id="a_edge16_Node000001_Node000009"><a xlink:title=" ">
<path fill="none" stroke="#63b8ff" d="M563.3,-438.06C533.41,-428.35 492.75,-415.15 465.96,-406.45"/>
<polygon fill="#63b8ff" stroke="#63b8ff" points="562.15,-441.37 572.74,-441.12 564.31,-434.71 562.15,-441.37"/>
</a>
</g>
</g>
<!-- Node11 -->
<g id="Node000011" class="node">
<title>Node11</title>
<g id="a_Node000011"><a xlink:href="../../d9/d42/_boost_test_8hpp.html" target="_top" xlink:title=" ">
<polygon fill="white" stroke="#666666" points="736.38,-406 575.62,-406 575.62,-386.75 736.38,-386.75 736.38,-406"/>
<text text-anchor="middle" x="656" y="-392.5" font-family="Helvetica,sans-Serif" font-size="10.00">mimic++/adapters/BoostTest.hpp</text>
</a>
</g>
</g>
<!-- Node1&#45;&gt;Node11 -->
<g id="edge23_Node000001_Node000011" class="edge">
<title>Node1&#45;&gt;Node11</title>
<g id="a_edge23_Node000001_Node000011"><a xlink:title=" ">
<path fill="none" stroke="#63b8ff" d="M619.04,-433.82C628.26,-424.73 639.29,-413.85 646.89,-406.36"/>
<polygon fill="#63b8ff" stroke="#63b8ff" points="616.66,-431.26 611.99,-440.77 621.57,-436.24 616.66,-431.26"/>
</a>
</g>
</g>
<!-- Node12 -->
<g id="Node000012" class="node">
<title>Node12</title>
<g id="a_Node000012"><a xlink:href="../../d3/d04/_catch2_8hpp.html" target="_top" xlink:title=" ">
<polygon fill="white" stroke="#666666" points="901.25,-406 754.75,-406 754.75,-386.75 901.25,-386.75 901.25,-406"/>
<text text-anchor="middle" x="828" y="-392.5" font-family="Helvetica,sans-Serif" font-size="10.00">mimic++/adapters/Catch2.hpp</text>
</a>
</g>
</g>
<!-- Node1&#45;&gt;Node12 -->
<g id="edge24_Node000001_Node000012" class="edge">
<title>Node1&#45;&gt;Node12</title>
<g id="a_edge24_Node000001_Node000012"><a xlink:title=" ">
<path fill="none" stroke="#63b8ff" d="M651.56,-438.95C693.08,-429.16 751.51,-415.4 789.57,-406.43"/>
<polygon fill="#63b8ff" stroke="#63b8ff" points="651,-435.48 642.07,-441.18 652.6,-442.3 651,-435.48"/>
</a>
</g>
</g>
<!-- Node13 -->
<g id="Node000013" class="node">
<title>Node13</title>
<g id="a_Node000013"><a xlink:href="../../d5/db1/gtest_8hpp.html" target="_top" xlink:title=" ">
<polygon fill="white" stroke="#666666" points="1056.75,-406 919.25,-406 919.25,-386.75 1056.75,-386.75 1056.75,-406"/>
<text text-anchor="middle" x="988" y="-392.5" font-family="Helvetica,sans-Serif" font-size="10.00">mimic++/adapters/gtest.hpp</text>
</a>
</g>
</g>
<!-- Node1&#45;&gt;Node13 -->
<g id="edge25_Node000001_Node000013" class="edge">
<title>Node1&#45;&gt;Node13</title>
<g id="a_edge25_Node000001_Node000013"><a xlink:title=" ">
<path fill="none" stroke="#63b8ff" d="M669.17,-441.36C740.2,-431.56 851.55,-416.2 922.1,-406.47"/>
<polygon fill="#63b8ff" stroke="#63b8ff" points="669.05,-437.84 659.63,-442.68 670.01,-444.78 669.05,-437.84"/>
</a>
</g>
</g>
<!-- Node3 -->
<g id="Node000003" class="node">
<title>Node3</title>
<g id="a_Node000003"><a xlink:href="../../d2/d4f/_expectation_builder_8hpp.html" target="_top" xlink:title=" ">
<polygon fill="white" stroke="#666666" points="415.75,-185 260.25,-185 260.25,-165.75 415.75,-165.75 415.75,-185"/>
<text text-anchor="middle" x="338" y="-171.5" font-family="Helvetica,sans-Serif" font-size="10.00">mimic++/ExpectationBuilder.hpp</text>
</a>
</g>
</g>
<!-- Node2&#45;&gt;Node3 -->
<g id="edge2_Node000002_Node000003" class="edge">
<title>Node2&#45;&gt;Node3</title>
<g id="a_edge2_Node000002_Node000003"><a xlink:title=" ">
<path fill="none" stroke="#63b8ff" d="M247.61,-268.03C270.58,-244.74 311.23,-203.52 329.12,-185.38"/>
<polygon fill="#63b8ff" stroke="#63b8ff" points="245.35,-265.34 240.82,-274.92 250.33,-270.26 245.35,-265.34"/>
</a>
</g>
</g>
<!-- Node4 -->
<g id="Node000004" class="node">
<title>Node4</title>
<g id="a_Node000004"><a xlink:href="../../d5/dc5/_mock_8hpp.html" target="_top" xlink:title=" ">
<polygon fill="white" stroke="#666666" points="281.62,-129.75 182.38,-129.75 182.38,-110.5 281.62,-110.5 281.62,-129.75"/>
<text text-anchor="middle" x="232" y="-116.25" font-family="Helvetica,sans-Serif" font-size="10.00">mimic++/Mock.hpp</text>
</a>
</g>
</g>
<!-- Node2&#45;&gt;Node4 -->
<g id="edge14_Node000002_Node000004" class="edge">
<title>Node2&#45;&gt;Node4</title>
<g id="a_edge14_Node000002_Node000004"><a xlink:title=" ">
<path fill="none" stroke="#63b8ff" d="M231.12,-264.72C231.34,-228.86 231.79,-155.35 231.95,-129.97"/>
<polygon fill="#63b8ff" stroke="#63b8ff" points="227.62,-264.54 231.06,-274.56 234.62,-264.58 227.62,-264.54"/>
</a>
</g>
</g>
<!-- Node2&#45;&gt;Node6 -->
<g id="edge15_Node000002_Node000006" class="edge">
<title>Node2&#45;&gt;Node6</title>
<g id="a_edge15_Node000002_Node000006"><a xlink:title=" ">
<path fill="none" stroke="#63b8ff" d="M156.82,-280.31C89.27,-271.66 0,-246.89 0,-176.38 0,-176.38 0,-176.38 0,-119.12 0,-84.9 14.11,-73.59 43,-55.25 80.69,-31.33 202.68,-19.25 275.89,-14.01"/>
<polygon fill="#63b8ff" stroke="#63b8ff" points="156.03,-283.75 166.38,-281.44 156.85,-276.79 156.03,-283.75"/>
</a>
</g>
</g>
<!-- Node8 -->
<g id="Node000008" class="node">
<title>Node8</title>
<g id="a_Node000008"><a xlink:href="../../d8/de5/_expectation_policies_8hpp.html" target="_top" xlink:title=" ">
<polygon fill="white" stroke="#666666" points="204,-240.25 44,-240.25 44,-221 204,-221 204,-240.25"/>
<text text-anchor="middle" x="124" y="-226.75" font-family="Helvetica,sans-Serif" font-size="10.00">mimic++/ExpectationPolicies.hpp</text>
</a>
</g>
</g>
<!-- Node2&#45;&gt;Node8 -->
<g id="edge10_Node000002_Node000008" class="edge">
<title>Node2&#45;&gt;Node8</title>
<g id="a_edge10_Node000002_Node000008"><a xlink:title=" ">
<path fill="none" stroke="#63b8ff" d="M202.6,-270.74C183.47,-261.22 158.79,-248.94 142.24,-240.7"/>
<polygon fill="#63b8ff" stroke="#63b8ff" points="200.98,-273.85 211.49,-275.17 204.1,-267.58 200.98,-273.85"/>
</a>
</g>
</g>
<!-- Node3&#45;&gt;Node4 -->
<g id="edge3_Node000003_Node000004" class="edge">
<title>Node3&#45;&gt;Node4</title>
<g id="a_edge3_Node000003_Node000004"><a xlink:title=" ">
<path fill="none" stroke="#63b8ff" d="M309.87,-160.24C290.91,-150.72 266.47,-138.44 250.07,-130.2"/>
<polygon fill="#63b8ff" stroke="#63b8ff" points="308.16,-163.3 318.67,-164.66 311.3,-157.05 308.16,-163.3"/>
</a>
</g>
</g>
<!-- Node3&#45;&gt;Node6 -->
<g id="edge9_Node000003_Node000006" class="edge">
<title>Node3&#45;&gt;Node6</title>
<g id="a_edge9_Node000003_Node000006"><a xlink:title=" ">
<path fill="none" stroke="#63b8ff" d="M360.99,-158.68C391.08,-136.12 437.48,-93.07 415,-55.25 404.48,-37.56 384.22,-26.43 366.47,-19.72"/>
<polygon fill="#63b8ff" stroke="#63b8ff" points="359.18,-155.67 353.13,-164.37 363.28,-161.34 359.18,-155.67"/>
</a>
</g>
</g>
<!-- Node5 -->
<g id="Node000005" class="node">
<title>Node5</title>
<g id="a_Node000005"><a xlink:href="../../d9/dc3/_interface_mock_8hpp.html" target="_top" xlink:title=" ">
<polygon fill="white" stroke="#666666" points="203.75,-74.5 66.25,-74.5 66.25,-55.25 203.75,-55.25 203.75,-74.5"/>
<text text-anchor="middle" x="135" y="-61" font-family="Helvetica,sans-Serif" font-size="10.00">mimic++/InterfaceMock.hpp</text>
</a>
</g>
</g>
<!-- Node4&#45;&gt;Node5 -->
<g id="edge4_Node000004_Node000005" class="edge">
<title>Node4&#45;&gt;Node5</title>
<g id="a_edge4_Node000004_Node000005"><a xlink:title=" ">
<path fill="none" stroke="#63b8ff" d="M205.53,-104.59C188.29,-95.13 166.33,-83.08 151.54,-74.95"/>
<polygon fill="#63b8ff" stroke="#63b8ff" points="203.77,-107.62 214.22,-109.36 207.14,-101.48 203.77,-107.62"/>
</a>
</g>
</g>
<!-- Node4&#45;&gt;Node6 -->
<g id="edge8_Node000004_Node000006" class="edge">
<title>Node4&#45;&gt;Node6</title>
<g id="a_edge8_Node000004_Node000006"><a xlink:title=" ">
<path fill="none" stroke="#63b8ff" d="M233.92,-99.23C236.12,-85.59 240.85,-67.78 251,-55.25 264.77,-38.25 286.82,-26.77 304.59,-19.71"/>
<polygon fill="#63b8ff" stroke="#63b8ff" points="230.49,-98.44 232.71,-108.8 237.44,-99.32 230.49,-98.44"/>
</a>
</g>
</g>
<!-- Node7 -->
<g id="Node000007" class="node">
<title>Node7</title>
<g id="a_Node000007"><a xlink:href="../../d1/dc0/_lifetime_watcher_8hpp.html" target="_top" xlink:title=" ">
<polygon fill="white" stroke="#666666" points="406.25,-74.5 259.75,-74.5 259.75,-55.25 406.25,-55.25 406.25,-74.5"/>
<text text-anchor="middle" x="333" y="-61" font-family="Helvetica,sans-Serif" font-size="10.00">mimic++/LifetimeWatcher.hpp</text>
</a>
</g>
</g>
<!-- Node4&#45;&gt;Node7 -->
<g id="edge6_Node000004_Node000007" class="edge">
<title>Node4&#45;&gt;Node7</title>
<g id="a_edge6_Node000004_Node000007"><a xlink:title=" ">
<path fill="none" stroke="#63b8ff" d="M259.31,-104.73C277.3,-95.24 300.3,-83.11 315.78,-74.95"/>
<polygon fill="#63b8ff" stroke="#63b8ff" points="257.69,-101.63 250.47,-109.39 260.95,-107.82 257.69,-101.63"/>
</a>
</g>
</g>
<!-- Node5&#45;&gt;Node6 -->
<g id="edge5_Node000005_Node000006" class="edge">
<title>Node5&#45;&gt;Node6</title>
<g id="a_edge5_Node000005_Node000006"><a xlink:title=" ">
<path fill="none" stroke="#63b8ff" d="M179.36,-51.95C215.64,-42.19 266.19,-28.59 299.25,-19.7"/>
<polygon fill="#63b8ff" stroke="#63b8ff" points="178.8,-48.47 170.05,-54.45 180.62,-55.23 178.8,-48.47"/>
</a>
</g>
</g>
<!-- Node7&#45;&gt;Node6 -->
<g id="edge7_Node000007_Node000006" class="edge">
<title>Node7&#45;&gt;Node6</title>
<g id="a_edge7_Node000007_Node000006"><a xlink:title=" ">
<path fill="none" stroke="#63b8ff" d="M333,-43.63C333,-35.34 333,-26.17 333,-19.61"/>
<polygon fill="#63b8ff" stroke="#63b8ff" points="329.5,-43.57 333,-53.57 336.5,-43.57 329.5,-43.57"/>
</a>
</g>
</g>
<!-- Node8&#45;&gt;Node3 -->
<g id="edge11_Node000008_Node000003" class="edge">
<title>Node8&#45;&gt;Node3</title>
<g id="a_edge11_Node000008_Node000003"><a xlink:title=" ">
<path fill="none" stroke="#63b8ff" d="M171.43,-217.82C210.69,-208.05 265.64,-194.38 301.52,-185.45"/>
<polygon fill="#63b8ff" stroke="#63b8ff" points="170.63,-214.42 161.77,-220.23 172.32,-221.21 170.63,-214.42"/>
</a>
</g>
</g>
<!-- Node8&#45;&gt;Node4 -->
<g id="edge12_Node000008_Node000004" class="edge">
<title>Node8&#45;&gt;Node4</title>
<g id="a_edge12_Node000008_Node000004"><a xlink:title=" ">
<path fill="none" stroke="#63b8ff" d="M140.76,-212.78C163.95,-189.49 204.98,-148.27 223.04,-130.13"/>
<polygon fill="#63b8ff" stroke="#63b8ff" points="138.48,-210.12 133.91,-219.67 143.44,-215.06 138.48,-210.12"/>
</a>
</g>
</g>
<!-- Node8&#45;&gt;Node6 -->
<g id="edge13_Node000008_Node000006" class="edge">
<title>Node8&#45;&gt;Node6</title>
<g id="a_edge13_Node000008_Node000006"><a xlink:title=" ">
<path fill="none" stroke="#63b8ff" d="M107.23,-212.64C76.1,-179.07 16.09,-103.31 57,-55.25 84.53,-22.91 203.4,-13.93 275.86,-11.49"/>
<polygon fill="#63b8ff" stroke="#63b8ff" points="104.32,-214.66 113.75,-219.49 109.39,-209.83 104.32,-214.66"/>
</a>
</g>
</g>
<!-- Node9&#45;&gt;Node3 -->
<g id="edge21_Node000009_Node000003" class="edge">
<title>Node9&#45;&gt;Node3</title>
<g id="a_edge21_Node000009_Node000003"><a xlink:title=" ">
<path fill="none" stroke="#63b8ff" d="M383.08,-382.33C366.79,-375.65 350.73,-365.65 341,-350.75 305.91,-297 326.88,-212.69 335.13,-185.29"/>
<polygon fill="#63b8ff" stroke="#63b8ff" points="381.74,-385.56 392.33,-385.73 384.15,-378.99 381.74,-385.56"/>
</a>
</g>
</g>
<!-- Node9&#45;&gt;Node6 -->
<g id="edge22_Node000009_Node000006" class="edge">
<title>Node9&#45;&gt;Node6</title>
<g id="a_edge22_Node000009_Node000006"><a xlink:title=" ">
<path fill="none" stroke="#63b8ff" d="M461.98,-379.94C472.22,-372.27 483.51,-362.19 491,-350.75 507.23,-325.98 510,-316.49 510,-286.88 510,-286.88 510,-286.88 510,-119.12 510,-60.01 437.36,-32.11 385.15,-19.69"/>
<polygon fill="#63b8ff" stroke="#63b8ff" points="460.04,-377.02 453.89,-385.65 464.07,-382.74 460.04,-377.02"/>
</a>
</g>
</g>
<!-- Node10 -->
<g id="Node000010" class="node">
<title>Node10</title>
<g id="a_Node000010"><a xlink:href="../../d6/d17/_control_policy_8hpp.html" target="_top" xlink:title=" ">
<polygon fill="white" stroke="#666666" points="482.12,-350.75 349.88,-350.75 349.88,-331.5 482.12,-331.5 482.12,-350.75"/>
<text text-anchor="middle" x="416" y="-337.25" font-family="Helvetica,sans-Serif" font-size="10.00">mimic++/ControlPolicy.hpp</text>
</a>
</g>
</g>
<!-- Node9&#45;&gt;Node10 -->
<g id="edge17_Node000009_Node000010" class="edge">
<title>Node9&#45;&gt;Node10</title>
<g id="a_edge17_Node000009_Node000010"><a xlink:title=" ">
<path fill="none" stroke="#63b8ff" d="M430,-376C426.48,-367.49 422.52,-357.9 419.71,-351.11"/>
<polygon fill="#63b8ff" stroke="#63b8ff" points="426.74,-377.28 433.79,-385.18 433.21,-374.6 426.74,-377.28"/>
</a>
</g>
</g>
<!-- Node10&#45;&gt;Node2 -->
<g id="edge18_Node000010_Node000002" class="edge">
<title>Node10&#45;&gt;Node2</title>
<g id="a_edge18_Node000010_Node000002"><a xlink:title=" ">
<path fill="none" stroke="#63b8ff" d="M373.68,-327.94C339.84,-318.2 293.15,-304.77 262.54,-295.95"/>
<polygon fill="#63b8ff" stroke="#63b8ff" points="372.58,-331.27 383.16,-330.67 374.52,-324.54 372.58,-331.27"/>
</a>
</g>
</g>
<!-- Node10&#45;&gt;Node3 -->
<g id="edge19_Node000010_Node000003" class="edge">
<title>Node10&#45;&gt;Node3</title>
<g id="a_edge19_Node000010_Node000003"><a xlink:title=" ">
<path fill="none" stroke="#63b8ff" d="M407.06,-321.37C390.24,-286.05 354.46,-210.93 342.21,-185.22"/>
<polygon fill="#63b8ff" stroke="#63b8ff" points="403.7,-322.43 411.16,-329.95 410.01,-319.42 403.7,-322.43"/>
</a>
</g>
</g>
<!-- Node10&#45;&gt;Node6 -->
<g id="edge20_Node000010_Node000006" class="edge">
<title>Node10&#45;&gt;Node6</title>
<g id="a_edge20_Node000010_Node000006"><a xlink:title=" ">
<path fill="none" stroke="#63b8ff" d="M431.94,-322.32C448.49,-301.93 472,-266.78 472,-231.62 472,-231.62 472,-231.62 472,-119.12 472,-64.79 405.18,-33.64 364.19,-19.65"/>
<polygon fill="#63b8ff" stroke="#63b8ff" points="429.29,-320.04 425.48,-329.93 434.62,-324.57 429.29,-320.04"/>
</a>
</g>
</g>
</g>
</svg>
