<?xml version="1.0" encoding="UTF-8" standalone="no"?>
<!DOCTYPE svg PUBLIC "-//W3C//DTD SVG 1.1//EN"
 "http://www.w3.org/Graphics/SVG/1.1/DTD/svg11.dtd">
<!-- Generated by graphviz version 12.1.1 (20240910.0053)
 -->
<!-- Title: mimic++/Reporter.hpp Pages: 1 -->
<!--zoomable 414 -->

<svg id="main" version="1.1" xmlns="http://www.w3.org/2000/svg" xmlns:xlink="http://www.w3.org/1999/xlink" xml:space="preserve" onload="init(evt)">

<style type="text/css"><![CDATA[
.node, .edge {opacity: 0.7;}
.node.selected, .edge.selected {opacity: 1;}
.edge:hover path { stroke: red; }
.edge:hover polygon { stroke: red; fill: red; }
]]></style>

<defs>
  <circle id="rim" cx="0" cy="0" r="7"/>
  <circle id="rim2" cx="0" cy="0" r="3.5"/>
  <g id="zoomPlus">
    <use xlink:href="#rim" fill="#404040"><set attributeName="fill" to="#808080" begin="zoomplus.mouseover" end="zoomplus.mouseout"/></use>
    <path d="M-4,0h8M0,-4v8" fill="none" stroke="white" stroke-width="1.5" pointer-events="none"/>
  </g>
  <g id="zoomMin">
    <use xlink:href="#rim" fill="#404040"><set attributeName="fill" to="#808080" begin="zoomminus.mouseover" end="zoomminus.mouseout"/></use>
    <path d="M-4,0h8" fill="none" stroke="white" stroke-width="1.5" pointer-events="none"/>
  </g>
  <g id="arrowUp" transform="translate(30 24)">
    <use xlink:href="#rim"/>
    <path pointer-events="none" fill="none" stroke="white" stroke-width="1.5" d="M0,-3.0v7 M-2.5,-0.5L0,-3.0L2.5,-0.5"/>
  </g>
  <g id="arrowRight" transform="rotate(90) translate(36 -43)">
    <use xlink:href="#rim"/>
    <path pointer-events="none" fill="none" stroke="white" stroke-width="1.5" d="M0,-3.0v7 M-2.5,-0.5L0,-3.0L2.5,-0.5"/>
  </g>
  <g id="arrowDown" transform="rotate(180) translate(-30 -48)">
    <use xlink:href="#rim"/>
    <path pointer-events="none" fill="none" stroke="white" stroke-width="1.5" d="M0,-3.0v7 M-2.5,-0.5L0,-3.0L2.5,-0.5"/>
  </g>
  <g id="arrowLeft" transform="rotate(270) translate(-36 17)">
    <use xlink:href="#rim"/>
    <path pointer-events="none" fill="none" stroke="white" stroke-width="1.5" d="M0,-3.0v7 M-2.5,-0.5L0,-3.0L2.5,-0.5"/>
  </g>
  <g id="resetDef">
    <use xlink:href="#rim2" fill="#404040"><set attributeName="fill" to="#808080" begin="reset.mouseover" end="reset.mouseout"/></use>
  </g>
</defs>
<script type="application/ecmascript">
var viewWidth = 1028;
var viewHeight = 414;
var sectionId = 'dynsection-1';
</script>
<script type="application/ecmascript" xlink:href="../../svg.min.js"/>
<svg id="graph" class="graph">
<g id="viewport">
<title>mimic++/Reporter.hpp</title>
<!-- Node1 -->
<g id="Node000001" class="node">
<title>Node1</title>
<g id="a_Node000001"><a xlink:title=" ">
<polygon fill="#999999" stroke="#666666" points="620.75,-406 508.75,-406 508.75,-386.75 620.75,-386.75 620.75,-406"/>
<text text-anchor="middle" x="564.75" y="-392.5" font-family="Helvetica,sans-Serif" font-size="10.00">mimic++/Reporter.hpp</text>
</a>
</g>
</g>
<!-- Node2 -->
<g id="Node000002" class="node">
<title>Node2</title>
<g id="a_Node000002"><a xlink:href="../../d5/d8a/_expectation_8hpp.html" target="_top" xlink:title=" ">
<polygon fill="white" stroke="#666666" points="292.5,-240.25 167,-240.25 167,-221 292.5,-221 292.5,-240.25"/>
<text text-anchor="middle" x="229.75" y="-226.75" font-family="Helvetica,sans-Serif" font-size="10.00">mimic++/Expectation.hpp</text>
</a>
</g>
</g>
<!-- Node1&#45;&gt;Node2 -->
<g id="edge1_Node000001_Node000002" class="edge">
<title>Node1&#45;&gt;Node2</title>
<g id="a_edge1_Node000001_Node000002"><a xlink:title=" ">
<path fill="none" stroke="#63b8ff" d="M497.19,-386.59C455.46,-379.79 401.36,-368.49 355.75,-350.75 310.58,-333.19 294.85,-330.89 261.75,-295.5 246.33,-279.01 236.66,-253.68 232.36,-240.42"/>
<polygon fill="#63b8ff" stroke="#63b8ff" points="496.42,-390.01 506.84,-388.11 497.51,-383.09 496.42,-390.01"/>
</a>
</g>
</g>
<!-- Node6 -->
<g id="Node000006" class="node">
<title>Node6</title>
<g id="a_Node000006"><a xlink:href="../../d0/db9/mimic_09_09_8hpp.html" target="_top" xlink:title=" ">
<polygon fill="white" stroke="#666666" points="415.5,-19.25 302,-19.25 302,0 415.5,0 415.5,-19.25"/>
<text text-anchor="middle" x="358.75" y="-5.75" font-family="Helvetica,sans-Serif" font-size="10.00">mimic++/mimic++.hpp</text>
</a>
</g>
</g>
<!-- Node1&#45;&gt;Node6 -->
<g id="edge23_Node000001_Node000006" class="edge">
<title>Node1&#45;&gt;Node6</title>
<g id="a_edge23_Node000001_Node000006"><a xlink:title=" ">
<path fill="none" stroke="#63b8ff" d="M548.6,-377.97C542,-370.12 534.76,-360.45 529.75,-350.75 516.15,-324.44 510.75,-316.49 510.75,-286.88 510.75,-286.88 510.75,-286.88 510.75,-119.12 510.75,-62.87 440.93,-33.03 395.93,-19.64"/>
<polygon fill="#63b8ff" stroke="#63b8ff" points="545.89,-380.19 555.13,-385.38 551.14,-375.56 545.89,-380.19"/>
</a>
</g>
</g>
<!-- Node8 -->
<g id="Node000008" class="node">
<title>Node8</title>
<g id="a_Node000008"><a xlink:href="../../d8/de4/_sequence_8hpp.html" target="_top" xlink:title=" ">
<polygon fill="white" stroke="#666666" points="483.12,-350.75 364.38,-350.75 364.38,-331.5 483.12,-331.5 483.12,-350.75"/>
<text text-anchor="middle" x="423.75" y="-337.25" font-family="Helvetica,sans-Serif" font-size="10.00">mimic++/Sequence.hpp</text>
</a>
</g>
</g>
<!-- Node1&#45;&gt;Node8 -->
<g id="edge13_Node000001_Node000008" class="edge">
<title>Node1&#45;&gt;Node8</title>
<g id="a_edge13_Node000001_Node000008"><a xlink:title=" ">
<path fill="none" stroke="#63b8ff" d="M530.11,-382.29C504.55,-372.64 470.41,-359.75 447.79,-351.2"/>
<polygon fill="#63b8ff" stroke="#63b8ff" points="528.82,-385.55 539.42,-385.81 531.3,-379 528.82,-385.55"/>
</a>
</g>
</g>
<!-- Node10 -->
<g id="Node000010" class="node">
<title>Node10</title>
<g id="a_Node000010"><a xlink:href="../../d9/d42/_boost_test_8hpp.html" target="_top" xlink:title=" ">
<polygon fill="white" stroke="#666666" points="699.12,-350.75 538.38,-350.75 538.38,-331.5 699.12,-331.5 699.12,-350.75"/>
<text text-anchor="middle" x="618.75" y="-337.25" font-family="Helvetica,sans-Serif" font-size="10.00">mimic++/adapters/BoostTest.hpp</text>
</a>
</g>
</g>
<!-- Node1&#45;&gt;Node10 -->
<g id="edge20_Node000001_Node000010" class="edge">
<title>Node1&#45;&gt;Node10</title>
<g id="a_edge20_Node000001_Node000010"><a xlink:title=" ">
<path fill="none" stroke="#63b8ff" d="M581.79,-378.57C591.01,-369.48 602.04,-358.6 609.64,-351.11"/>
<polygon fill="#63b8ff" stroke="#63b8ff" points="579.41,-376.01 574.74,-385.52 584.32,-380.99 579.41,-376.01"/>
</a>
</g>
</g>
<!-- Node11 -->
<g id="Node000011" class="node">
<title>Node11</title>
<g id="a_Node000011"><a xlink:href="../../d3/d04/_catch2_8hpp.html" target="_top" xlink:title=" ">
<polygon fill="white" stroke="#666666" points="864,-350.75 717.5,-350.75 717.5,-331.5 864,-331.5 864,-350.75"/>
<text text-anchor="middle" x="790.75" y="-337.25" font-family="Helvetica,sans-Serif" font-size="10.00">mimic++/adapters/Catch2.hpp</text>
</a>
</g>
</g>
<!-- Node1&#45;&gt;Node11 -->
<g id="edge21_Node000001_Node000011" class="edge">
<title>Node1&#45;&gt;Node11</title>
<g id="a_edge21_Node000001_Node000011"><a xlink:title=" ">
<path fill="none" stroke="#63b8ff" d="M614.31,-383.7C655.83,-373.91 714.26,-360.15 752.32,-351.18"/>
<polygon fill="#63b8ff" stroke="#63b8ff" points="613.75,-380.23 604.82,-385.93 615.35,-387.05 613.75,-380.23"/>
</a>
</g>
</g>
<!-- Node12 -->
<g id="Node000012" class="node">
<title>Node12</title>
<g id="a_Node000012"><a xlink:href="../../d5/db1/gtest_8hpp.html" target="_top" xlink:title=" ">
<polygon fill="white" stroke="#666666" points="1019.5,-350.75 882,-350.75 882,-331.5 1019.5,-331.5 1019.5,-350.75"/>
<text text-anchor="middle" x="950.75" y="-337.25" font-family="Helvetica,sans-Serif" font-size="10.00">mimic++/adapters/gtest.hpp</text>
</a>
</g>
</g>
<!-- Node1&#45;&gt;Node12 -->
<g id="edge22_Node000001_Node000012" class="edge">
<title>Node1&#45;&gt;Node12</title>
<g id="a_edge22_Node000001_Node000012"><a xlink:title=" ">
<path fill="none" stroke="#63b8ff" d="M631.92,-386.11C702.95,-376.31 814.3,-360.95 884.85,-351.22"/>
<polygon fill="#63b8ff" stroke="#63b8ff" points="631.8,-382.59 622.38,-387.43 632.76,-389.53 631.8,-382.59"/>
</a>
</g>
</g>
<!-- Node3 -->
<g id="Node000003" class="node">
<title>Node3</title>
<g id="a_Node000003"><a xlink:href="../../d2/d4f/_expectation_builder_8hpp.html" target="_top" xlink:title=" ">
<polygon fill="white" stroke="#666666" points="330.5,-129.75 175,-129.75 175,-110.5 330.5,-110.5 330.5,-129.75"/>
<text text-anchor="middle" x="252.75" y="-116.25" font-family="Helvetica,sans-Serif" font-size="10.00">mimic++/ExpectationBuilder.hpp</text>
</a>
</g>
</g>
<!-- Node2&#45;&gt;Node3 -->
<g id="edge2_Node000002_Node000003" class="edge">
<title>Node2&#45;&gt;Node3</title>
<g id="a_edge2_Node000002_Node000003"><a xlink:title=" ">
<path fill="none" stroke="#63b8ff" d="M240.14,-210.67C243.86,-202.94 247.66,-193.77 249.75,-185 254.33,-165.78 253.99,-142.41 253.36,-129.95"/>
<polygon fill="#63b8ff" stroke="#63b8ff" points="237.1,-208.91 235.62,-219.4 243.32,-212.12 237.1,-208.91"/>
</a>
</g>
</g>
<!-- Node4 -->
<g id="Node000004" class="node">
<title>Node4</title>
<g id="a_Node000004"><a xlink:href="../../d5/dc5/_mock_8hpp.html" target="_top" xlink:title=" ">
<polygon fill="white" stroke="#666666" points="118.38,-74.5 19.12,-74.5 19.12,-55.25 118.38,-55.25 118.38,-74.5"/>
<text text-anchor="middle" x="68.75" y="-61" font-family="Helvetica,sans-Serif" font-size="10.00">mimic++/Mock.hpp</text>
</a>
</g>
</g>
<!-- Node2&#45;&gt;Node4 -->
<g id="edge11_Node000002_Node000004" class="edge">
<title>Node2&#45;&gt;Node4</title>
<g id="a_edge11_Node000002_Node000004"><a xlink:title=" ">
<path fill="none" stroke="#63b8ff" d="M160.6,-218.42C123.49,-210.86 83.09,-199.6 71.75,-185 45.99,-151.83 59.2,-96.36 65.77,-74.81"/>
<polygon fill="#63b8ff" stroke="#63b8ff" points="159.49,-221.77 169.98,-220.25 160.84,-214.9 159.49,-221.77"/>
</a>
</g>
</g>
<!-- Node2&#45;&gt;Node6 -->
<g id="edge12_Node000002_Node000006" class="edge">
<title>Node2&#45;&gt;Node6</title>
<g id="a_edge12_Node000002_Node000006"><a xlink:title=" ">
<path fill="none" stroke="#63b8ff" d="M254.68,-214.4C280.47,-197.23 319.71,-166.8 339.75,-129.75 359.78,-92.73 360.07,-40.4 359.27,-19.63"/>
<polygon fill="#63b8ff" stroke="#63b8ff" points="252.97,-211.34 246.47,-219.7 256.77,-217.22 252.97,-211.34"/>
</a>
</g>
</g>
<!-- Node7 -->
<g id="Node000007" class="node">
<title>Node7</title>
<g id="a_Node000007"><a xlink:href="../../d8/de5/_expectation_policies_8hpp.html" target="_top" xlink:title=" ">
<polygon fill="white" stroke="#666666" points="240.75,-185 80.75,-185 80.75,-165.75 240.75,-165.75 240.75,-185"/>
<text text-anchor="middle" x="160.75" y="-171.5" font-family="Helvetica,sans-Serif" font-size="10.00">mimic++/ExpectationPolicies.hpp</text>
</a>
</g>
</g>
<!-- Node2&#45;&gt;Node7 -->
<g id="edge7_Node000002_Node000007" class="edge">
<title>Node2&#45;&gt;Node7</title>
<g id="a_edge7_Node000002_Node000007"><a xlink:title=" ">
<path fill="none" stroke="#63b8ff" d="M209.1,-213.69C197.05,-204.39 182.3,-193.01 172.28,-185.27"/>
<polygon fill="#63b8ff" stroke="#63b8ff" points="206.79,-216.33 216.85,-219.67 211.07,-210.79 206.79,-216.33"/>
</a>
</g>
</g>
<!-- Node3&#45;&gt;Node4 -->
<g id="edge3_Node000003_Node000004" class="edge">
<title>Node3&#45;&gt;Node4</title>
<g id="a_edge3_Node000003_Node000004"><a xlink:title=" ">
<path fill="none" stroke="#63b8ff" d="M210.65,-106.94C177,-97.2 130.57,-83.77 100.12,-74.95"/>
<polygon fill="#63b8ff" stroke="#63b8ff" points="209.5,-110.25 220.08,-109.67 211.45,-103.53 209.5,-110.25"/>
</a>
</g>
</g>
<!-- Node3&#45;&gt;Node6 -->
<g id="edge6_Node000003_Node000006" class="edge">
<title>Node3&#45;&gt;Node6</title>
<g id="a_edge6_Node000003_Node000006"><a xlink:title=" ">
<path fill="none" stroke="#63b8ff" d="M269.2,-102.28C291.96,-78.99 332.23,-37.77 349.96,-19.63"/>
<polygon fill="#63b8ff" stroke="#63b8ff" points="266.97,-99.56 262.48,-109.16 271.97,-104.46 266.97,-99.56"/>
</a>
</g>
</g>
<!-- Node5 -->
<g id="Node000005" class="node">
<title>Node5</title>
<g id="a_Node000005"><a xlink:href="../../d9/dc3/_interface_mock_8hpp.html" target="_top" xlink:title=" ">
<polygon fill="white" stroke="#666666" points="137.5,-19.25 0,-19.25 0,0 137.5,0 137.5,-19.25"/>
<text text-anchor="middle" x="68.75" y="-5.75" font-family="Helvetica,sans-Serif" font-size="10.00">mimic++/InterfaceMock.hpp</text>
</a>
</g>
</g>
<!-- Node4&#45;&gt;Node5 -->
<g id="edge4_Node000004_Node000005" class="edge">
<title>Node4&#45;&gt;Node5</title>
<g id="a_edge4_Node000004_Node000005"><a xlink:title=" ">
<path fill="none" stroke="#63b8ff" d="M68.75,-43.63C68.75,-35.34 68.75,-26.17 68.75,-19.61"/>
<polygon fill="#63b8ff" stroke="#63b8ff" points="65.25,-43.57 68.75,-53.57 72.25,-43.57 65.25,-43.57"/>
</a>
</g>
</g>
<!-- Node4&#45;&gt;Node6 -->
<g id="edge5_Node000004_Node000006" class="edge">
<title>Node4&#45;&gt;Node6</title>
<g id="a_edge5_Node000004_Node000006"><a xlink:title=" ">
<path fill="none" stroke="#63b8ff" d="M129.3,-52.76C182.74,-42.94 259.67,-28.82 309.43,-19.68"/>
<polygon fill="#63b8ff" stroke="#63b8ff" points="128.97,-49.26 119.76,-54.51 130.23,-56.14 128.97,-49.26"/>
</a>
</g>
</g>
<!-- Node7&#45;&gt;Node3 -->
<g id="edge8_Node000007_Node000003" class="edge">
<title>Node7&#45;&gt;Node3</title>
<g id="a_edge8_Node000007_Node000003"><a xlink:title=" ">
<path fill="none" stroke="#63b8ff" d="M185.86,-159.84C202.21,-150.38 223.03,-138.33 237.07,-130.2"/>
<polygon fill="#63b8ff" stroke="#63b8ff" points="184.57,-156.54 177.67,-164.58 188.07,-162.6 184.57,-156.54"/>
</a>
</g>
</g>
<!-- Node7&#45;&gt;Node4 -->
<g id="edge9_Node000007_Node000004" class="edge">
<title>Node7&#45;&gt;Node4</title>
<g id="a_edge9_Node000007_Node000004"><a xlink:title=" ">
<path fill="none" stroke="#63b8ff" d="M145.94,-156.91C126.11,-133.52 91.63,-92.86 76.38,-74.88"/>
<polygon fill="#63b8ff" stroke="#63b8ff" points="143.11,-158.98 152.24,-164.34 148.44,-154.45 143.11,-158.98"/>
</a>
</g>
</g>
<!-- Node7&#45;&gt;Node6 -->
<g id="edge10_Node000007_Node000006" class="edge">
<title>Node7&#45;&gt;Node6</title>
<g id="a_edge10_Node000007_Node000006"><a xlink:title=" ">
<path fill="none" stroke="#63b8ff" d="M157.55,-154.3C156.48,-140.83 157.27,-123.28 165.75,-110.5 200.26,-58.47 270.82,-31.97 316.38,-19.74"/>
<polygon fill="#63b8ff" stroke="#63b8ff" points="154.07,-154.68 158.77,-164.18 161.01,-153.82 154.07,-154.68"/>
</a>
</g>
</g>
<!-- Node8&#45;&gt;Node3 -->
<g id="edge18_Node000008_Node000003" class="edge">
<title>Node8&#45;&gt;Node3</title>
<g id="a_edge18_Node000008_Node000003"><a xlink:title=" ">
<path fill="none" stroke="#63b8ff" d="M423.1,-320.21C421.95,-307.06 419.02,-289.82 411.75,-276.25 375.15,-207.92 298.01,-151.26 266.55,-130.07"/>
<polygon fill="#63b8ff" stroke="#63b8ff" points="419.58,-320.02 423.65,-329.8 426.57,-319.62 419.58,-320.02"/>
</a>
</g>
</g>
<!-- Node8&#45;&gt;Node6 -->
<g id="edge19_Node000008_Node000006" class="edge">
<title>Node8&#45;&gt;Node6</title>
<g id="a_edge19_Node000008_Node000006"><a xlink:title=" ">
<path fill="none" stroke="#63b8ff" d="M437.67,-322.03C452.16,-301.35 472.75,-265.93 472.75,-231.62 472.75,-231.62 472.75,-231.62 472.75,-119.12 472.75,-68.99 414.18,-34.98 381,-19.74"/>
<polygon fill="#63b8ff" stroke="#63b8ff" points="434.96,-319.81 431.87,-329.95 440.6,-323.95 434.96,-319.81"/>
</a>
</g>
</g>
<!-- Node9 -->
<g id="Node000009" class="node">
<title>Node9</title>
<g id="a_Node000009"><a xlink:href="../../d6/d17/_control_policy_8hpp.html" target="_top" xlink:title=" ">
<polygon fill="white" stroke="#666666" points="402.88,-295.5 270.62,-295.5 270.62,-276.25 402.88,-276.25 402.88,-295.5"/>
<text text-anchor="middle" x="336.75" y="-282" font-family="Helvetica,sans-Serif" font-size="10.00">mimic++/ControlPolicy.hpp</text>
</a>
</g>
</g>
<!-- Node8&#45;&gt;Node9 -->
<g id="edge14_Node000008_Node000009" class="edge">
<title>Node8&#45;&gt;Node9</title>
<g id="a_edge14_Node000008_Node000009"><a xlink:title=" ">
<path fill="none" stroke="#63b8ff" d="M399.57,-325.32C384.17,-315.9 364.73,-304 351.58,-295.95"/>
<polygon fill="#63b8ff" stroke="#63b8ff" points="397.34,-328.07 407.7,-330.3 401,-322.1 397.34,-328.07"/>
</a>
</g>
</g>
<!-- Node9&#45;&gt;Node2 -->
<g id="edge15_Node000009_Node000002" class="edge">
<title>Node9&#45;&gt;Node2</title>
<g id="a_edge15_Node000009_Node000002"><a xlink:title=" ">
<path fill="none" stroke="#63b8ff" d="M308.35,-270.74C289.22,-261.22 264.54,-248.94 247.99,-240.7"/>
<polygon fill="#63b8ff" stroke="#63b8ff" points="306.73,-273.85 317.24,-275.17 309.85,-267.58 306.73,-273.85"/>
</a>
</g>
</g>
<!-- Node9&#45;&gt;Node3 -->
<g id="edge16_Node000009_Node000003" class="edge">
<title>Node9&#45;&gt;Node3</title>
<g id="a_edge16_Node000009_Node000003"><a xlink:title=" ">
<path fill="none" stroke="#63b8ff" d="M327.13,-266.12C309.01,-230.8 270.48,-155.68 257.29,-129.97"/>
<polygon fill="#63b8ff" stroke="#63b8ff" points="323.86,-267.42 331.54,-274.72 330.09,-264.23 323.86,-267.42"/>
</a>
</g>
</g>
<!-- Node9&#45;&gt;Node6 -->
<g id="edge17_Node000009_Node000006" class="edge">
<title>Node9&#45;&gt;Node6</title>
<g id="a_edge17_Node000009_Node000006"><a xlink:title=" ">
<path fill="none" stroke="#63b8ff" d="M353.59,-267.55C371.33,-247.38 396.75,-212.24 396.75,-176.38 396.75,-176.38 396.75,-176.38 396.75,-119.12 396.75,-80.21 374.7,-37.62 364.19,-19.54"/>
<polygon fill="#63b8ff" stroke="#63b8ff" points="351.08,-265.1 346.89,-274.83 356.23,-269.84 351.08,-265.1"/>
</a>
</g>
</g>
</g>
</svg>

<g id="navigator" transform="translate(0 0)" fill="#404254">
  <rect fill="#f2f5e9" fill-opacity="0.5" stroke="#606060" stroke-width=".5" x="0" y="0" width="60" height="60"/>
  <use id="zoomplus" xlink:href="#zoomPlus" x="17" y="9" onmousedown="handleZoom(evt,'in')"/>
  <use id="zoomminus" xlink:href="#zoomMin" x="42" y="9" onmousedown="handleZoom(evt,'out')"/>
  <use id="reset" xlink:href="#resetDef" x="30" y="36" onmousedown="handleReset()"/>
   <use id="arrowup" xlink:href="#arrowUp" x="0" y="0" onmousedown="handlePan(0,-1)"/>
  <use id="arrowright" xlink:href="#arrowRight" x="0" y="0" onmousedown="handlePan(1,0)"/>
  <use id="arrowdown" xlink:href="#arrowDown" x="0" y="0" onmousedown="handlePan(0,1)"/>
  <use id="arrowleft" xlink:href="#arrowLeft" x="0" y="0" onmousedown="handlePan(-1,0)"/>
</g>
<svg viewBox="0 0 15 15" width="100%" height="30px" preserveAspectRatio="xMaxYMin meet">
 <g id="arrow_out" transform="scale(0.3 0.3)">
  <a xlink:href="_reporter_8hpp__dep__incl_org.svg" target="_base">
   <rect id="button" ry="5" rx="5" y="6" x="6" height="38" width="38"
        fill="#f2f5e9" fill-opacity="0.5" stroke="#606060" stroke-width="1.0"/>
   <path id="arrow"
     d="M 11.500037,31.436501 C 11.940474,20.09759 22.043105,11.32322 32.158766,21.979434 L 37.068811,17.246167 C 37.068811,17.246167 37.088388,32 37.088388,32 L 22.160133,31.978069 C 22.160133,31.978069 26.997745,27.140456 26.997745,27.140456 C 18.528582,18.264221 13.291696,25.230495 11.500037,31.436501 z"
     style="fill:#404040;"/>
  </a>
 </g>
</svg>

<style type='text/css'>
<![CDATA[
[data-mouse-over-selected='false'] { opacity: 0.7; }
[data-mouse-over-selected='true']  { opacity: 1.0; }
]]>
</style>
<script type="application/ecmascript"><![CDATA[
document.addEventListener('DOMContentLoaded', (event) => {
  highlightEdges();
  highlightAdjacentNodes();
});
]]></script>
</svg>
