<?xml version="1.0" encoding="UTF-8" standalone="no"?>
<!DOCTYPE svg PUBLIC "-//W3C//DTD SVG 1.1//EN"
 "http://www.w3.org/Graphics/SVG/1.1/DTD/svg11.dtd">
<!-- Generated by graphviz version 12.1.2 (20240928.0832)
 -->
<!-- Title: mimic++/Utility.hpp Pages: 1 -->
<svg width="392pt" height="138pt"
 viewBox="0.00 0.00 392.25 137.75" xmlns="http://www.w3.org/2000/svg" xmlns:xlink="http://www.w3.org/1999/xlink">
<g id="graph0" class="graph" transform="scale(1 1) rotate(0) translate(4 133.75)">
<title>mimic++/Utility.hpp</title>
<!-- Node1 -->
<g id="Node000001" class="node">
<title>Node1</title>
<g id="a_Node000001"><a xlink:title=" ">
<polygon fill="#999999" stroke="#666666" points="252,-129.75 152,-129.75 152,-110.5 252,-110.5 252,-129.75"/>
<text text-anchor="middle" x="202" y="-116.25" font-family="Helvetica,sans-Serif" font-size="10.00">mimic++/Utility.hpp</text>
</a>
</g>
</g>
<!-- Node2 -->
<g id="Node000002" class="node">
<title>Node2</title>
<g id="a_Node000002"><a xlink:href="../../df/dde/_fwd_8hpp.html" target="_top" xlink:title=" ">
<polygon fill="white" stroke="#666666" points="94,-74.5 0,-74.5 0,-55.25 94,-55.25 94,-74.5"/>
<text text-anchor="middle" x="47" y="-61" font-family="Helvetica,sans-Serif" font-size="10.00">mimic++/Fwd.hpp</text>
</a>
</g>
</g>
<!-- Node1&#45;&gt;Node2 -->
<g id="edge1_Node000001_Node000002" class="edge">
<title>Node1&#45;&gt;Node2</title>
<g id="a_edge1_Node000001_Node000002"><a xlink:title=" ">
<path fill="none" stroke="#63b8ff" d="M175.71,-110.09C150.54,-101.45 112.35,-88.32 84.09,-78.62"/>
<polygon fill="#63b8ff" stroke="#63b8ff" points="85.45,-75.38 74.85,-75.44 83.17,-82 85.45,-75.38"/>
</a>
</g>
</g>
<!-- Node4 -->
<g id="Node000004" class="node">
<title>Node4</title>
<g id="a_Node000004"><a xlink:title=" ">
<polygon fill="#e0e0e0" stroke="#999999" points="160.12,-74.5 111.88,-74.5 111.88,-55.25 160.12,-55.25 160.12,-74.5"/>
<text text-anchor="middle" x="136" y="-61" font-family="Helvetica,sans-Serif" font-size="10.00">cassert</text>
</a>
</g>
</g>
<!-- Node1&#45;&gt;Node4 -->
<g id="edge3_Node000001_Node000004" class="edge">
<title>Node1&#45;&gt;Node4</title>
<g id="a_edge3_Node000001_Node000004"><a xlink:title=" ">
<path fill="none" stroke="#63b8ff" d="M190.8,-110.09C181.26,-102.4 167.33,-91.15 155.89,-81.93"/>
<polygon fill="#63b8ff" stroke="#63b8ff" points="158.19,-79.28 148.21,-75.73 153.79,-84.73 158.19,-79.28"/>
</a>
</g>
</g>
<!-- Node5 -->
<g id="Node000005" class="node">
<title>Node5</title>
<g id="a_Node000005"><a xlink:title=" ">
<polygon fill="#e0e0e0" stroke="#999999" points="226.12,-74.5 177.88,-74.5 177.88,-55.25 226.12,-55.25 226.12,-74.5"/>
<text text-anchor="middle" x="202" y="-61" font-family="Helvetica,sans-Serif" font-size="10.00">cstddef</text>
</a>
</g>
</g>
<!-- Node1&#45;&gt;Node5 -->
<g id="edge4_Node000001_Node000005" class="edge">
<title>Node1&#45;&gt;Node5</title>
<g id="a_edge4_Node000001_Node000005"><a xlink:title=" ">
<path fill="none" stroke="#63b8ff" d="M202,-110.33C202,-103.82 202,-94.67 202,-86.37"/>
<polygon fill="#63b8ff" stroke="#63b8ff" points="205.5,-86.37 202,-76.37 198.5,-86.37 205.5,-86.37"/>
</a>
</g>
</g>
<!-- Node6 -->
<g id="Node000006" class="node">
<title>Node6</title>
<g id="a_Node000006"><a xlink:title=" ">
<polygon fill="#e0e0e0" stroke="#999999" points="328.12,-74.5 243.88,-74.5 243.88,-55.25 328.12,-55.25 328.12,-74.5"/>
<text text-anchor="middle" x="286" y="-61" font-family="Helvetica,sans-Serif" font-size="10.00">source_location</text>
</a>
</g>
</g>
<!-- Node1&#45;&gt;Node6 -->
<g id="edge5_Node000001_Node000006" class="edge">
<title>Node1&#45;&gt;Node6</title>
<g id="a_edge5_Node000001_Node000006"><a xlink:title=" ">
<path fill="none" stroke="#63b8ff" d="M216.25,-110.09C228.8,-102.14 247.33,-90.39 262.14,-81"/>
<polygon fill="#63b8ff" stroke="#63b8ff" points="263.83,-84.07 270.4,-75.76 260.08,-78.16 263.83,-84.07"/>
</a>
</g>
</g>
<!-- Node7 -->
<g id="Node000007" class="node">
<title>Node7</title>
<g id="a_Node000007"><a xlink:title=" ">
<polygon fill="#e0e0e0" stroke="#999999" points="384.25,-74.5 345.75,-74.5 345.75,-55.25 384.25,-55.25 384.25,-74.5"/>
<text text-anchor="middle" x="365" y="-61" font-family="Helvetica,sans-Serif" font-size="10.00">utility</text>
</a>
</g>
</g>
<!-- Node1&#45;&gt;Node7 -->
<g id="edge6_Node000001_Node000007" class="edge">
<title>Node1&#45;&gt;Node7</title>
<g id="a_edge6_Node000001_Node000007"><a xlink:title=" ">
<path fill="none" stroke="#63b8ff" d="M229.65,-110.09C258.81,-100.57 304.6,-85.61 334.72,-75.77"/>
<polygon fill="#63b8ff" stroke="#63b8ff" points="335.56,-79.17 343.98,-72.74 333.39,-72.52 335.56,-79.17"/>
</a>
</g>
</g>
<!-- Node3 -->
<g id="Node000003" class="node">
<title>Node3</title>
<g id="a_Node000003"><a xlink:title=" ">
<polygon fill="#e0e0e0" stroke="#999999" points="67,-19.25 27,-19.25 27,0 67,0 67,-19.25"/>
<text text-anchor="middle" x="47" y="-5.75" font-family="Helvetica,sans-Serif" font-size="10.00">string</text>
</a>
</g>
</g>
<!-- Node2&#45;&gt;Node3 -->
<g id="edge2_Node000002_Node000003" class="edge">
<title>Node2&#45;&gt;Node3</title>
<g id="a_edge2_Node000002_Node000003"><a xlink:title=" ">
<path fill="none" stroke="#63b8ff" d="M47,-55.08C47,-48.57 47,-39.42 47,-31.12"/>
<polygon fill="#63b8ff" stroke="#63b8ff" points="50.5,-31.12 47,-21.12 43.5,-31.12 50.5,-31.12"/>
</a>
</g>
</g>
</g>
</svg>
