<?xml version="1.0" encoding="UTF-8" standalone="no"?>
<!DOCTYPE svg PUBLIC "-//W3C//DTD SVG 1.1//EN"
 "http://www.w3.org/Graphics/SVG/1.1/DTD/svg11.dtd">
<!-- Generated by graphviz version 12.1.2 (20240928.0832)
 -->
<!-- Title: mimic++/ExpectationPolicies.hpp Pages: 1 -->
<svg width="397pt" height="248pt"
 viewBox="0.00 0.00 397.18 248.25" xmlns="http://www.w3.org/2000/svg" xmlns:xlink="http://www.w3.org/1999/xlink">

<svg id="main" version="1.1" xmlns="http://www.w3.org/2000/svg" xmlns:xlink="http://www.w3.org/1999/xlink" xml:space="preserve">

<style type="text/css"><![CDATA[
.node, .edge {opacity: 0.7;}
.node.selected, .edge.selected {opacity: 1;}
.edge:hover path { stroke: red; }
.edge:hover polygon { stroke: red; fill: red; }
]]></style>
<script type="application/ecmascript" xlink:href="../../svg.min.js"/>
<svg id="graph" class="graph">
<g id="graph0" class="graph" transform="scale(1 1) rotate(0) translate(4 244.25)">
<title>mimic++/ExpectationPolicies.hpp</title>
<!-- Node1 -->
<g id="Node000001" class="node">
<title>Node1</title>
<g id="a_Node000001"><a xlink:title=" ">
<polygon fill="#999999" stroke="#666666" points="379.75,-240.25 219.75,-240.25 219.75,-221 379.75,-221 379.75,-240.25"/>
<text text-anchor="middle" x="299.75" y="-226.75" font-family="Helvetica,sans-Serif" font-size="10.00">mimic++/ExpectationPolicies.hpp</text>
</a>
</g>
</g>
<!-- Node2 -->
<g id="Node000002" class="node">
<title>Node2</title>
<g id="a_Node000002"><a xlink:href="../../d2/d4f/_expectation_builder_8hpp.html" target="_top" xlink:title=" ">
<polygon fill="white" stroke="#666666" points="377.5,-185 222,-185 222,-165.75 377.5,-165.75 377.5,-185"/>
<text text-anchor="middle" x="299.75" y="-171.5" font-family="Helvetica,sans-Serif" font-size="10.00">mimic++/ExpectationBuilder.hpp</text>
</a>
</g>
</g>
<!-- Node1&#45;&gt;Node2 -->
<g id="edge1_Node000001_Node000002" class="edge">
<title>Node1&#45;&gt;Node2</title>
<g id="a_edge1_Node000001_Node000002"><a xlink:title=" ">
<path fill="none" stroke="#63b8ff" d="M299.75,-209.38C299.75,-201.09 299.75,-191.92 299.75,-185.36"/>
<polygon fill="#63b8ff" stroke="#63b8ff" points="296.25,-209.32 299.75,-219.32 303.25,-209.32 296.25,-209.32"/>
</a>
</g>
</g>
<!-- Node3 -->
<g id="Node000003" class="node">
<title>Node3</title>
<g id="a_Node000003"><a xlink:href="../../d5/dc5/_mock_8hpp.html" target="_top" xlink:title=" ">
<polygon fill="white" stroke="#666666" points="243.38,-129.75 144.12,-129.75 144.12,-110.5 243.38,-110.5 243.38,-129.75"/>
<text text-anchor="middle" x="193.75" y="-116.25" font-family="Helvetica,sans-Serif" font-size="10.00">mimic++/Mock.hpp</text>
</a>
</g>
</g>
<!-- Node1&#45;&gt;Node3 -->
<g id="edge9_Node000001_Node000003" class="edge">
<title>Node1&#45;&gt;Node3</title>
<g id="a_edge9_Node000001_Node000003"><a xlink:title=" ">
<path fill="none" stroke="#63b8ff" d="M258.37,-216.48C242.13,-209.46 224.58,-199.25 212.75,-185 199.3,-168.8 195.37,-143.35 194.22,-129.99"/>
<polygon fill="#63b8ff" stroke="#63b8ff" points="256.8,-219.62 267.38,-220.09 259.4,-213.12 256.8,-219.62"/>
</a>
</g>
</g>
<!-- Node5 -->
<g id="Node000005" class="node">
<title>Node5</title>
<g id="a_Node000005"><a xlink:href="../../d0/db9/mimic_09_09_8hpp.html" target="_top" xlink:title=" ">
<polygon fill="white" stroke="#666666" points="323.5,-19.25 210,-19.25 210,0 323.5,0 323.5,-19.25"/>
<text text-anchor="middle" x="266.75" y="-5.75" font-family="Helvetica,sans-Serif" font-size="10.00">mimic++/mimic++.hpp</text>
</a>
</g>
</g>
<!-- Node1&#45;&gt;Node5 -->
<g id="edge10_Node000001_Node000005" class="edge">
<title>Node1&#45;&gt;Node5</title>
<g id="a_edge10_Node000001_Node000005"><a xlink:title=" ">
<path fill="none" stroke="#63b8ff" d="M347.09,-216.4C362.46,-209.61 377.83,-199.59 386.75,-185 391.21,-177.7 387.55,-174.27 386.75,-165.75 382.06,-115.98 396.7,-94.51 365.75,-55.25 351.57,-37.26 328.55,-26.3 308.27,-19.74"/>
<polygon fill="#63b8ff" stroke="#63b8ff" points="345.94,-213.09 337.94,-220.03 348.53,-219.59 345.94,-213.09"/>
</a>
</g>
</g>
<!-- Node2&#45;&gt;Node3 -->
<g id="edge2_Node000002_Node000003" class="edge">
<title>Node2&#45;&gt;Node3</title>
<g id="a_edge2_Node000002_Node000003"><a xlink:title=" ">
<path fill="none" stroke="#63b8ff" d="M271.62,-160.24C252.66,-150.72 228.22,-138.44 211.82,-130.2"/>
<polygon fill="#63b8ff" stroke="#63b8ff" points="269.91,-163.3 280.42,-164.66 273.05,-157.05 269.91,-163.3"/>
</a>
</g>
</g>
<!-- Node2&#45;&gt;Node5 -->
<g id="edge8_Node000002_Node000005" class="edge">
<title>Node2&#45;&gt;Node5</title>
<g id="a_edge8_Node000002_Node000005"><a xlink:title=" ">
<path fill="none" stroke="#63b8ff" d="M316.8,-156.89C337.96,-132.98 368.92,-89.19 348.75,-55.25 338.23,-37.56 317.97,-26.43 300.22,-19.72"/>
<polygon fill="#63b8ff" stroke="#63b8ff" points="314.28,-154.46 310.07,-164.18 319.42,-159.21 314.28,-154.46"/>
</a>
</g>
</g>
<!-- Node4 -->
<g id="Node000004" class="node">
<title>Node4</title>
<g id="a_Node000004"><a xlink:href="../../d9/dc3/_interface_mock_8hpp.html" target="_top" xlink:title=" ">
<polygon fill="white" stroke="#666666" points="137.5,-74.5 0,-74.5 0,-55.25 137.5,-55.25 137.5,-74.5"/>
<text text-anchor="middle" x="68.75" y="-61" font-family="Helvetica,sans-Serif" font-size="10.00">mimic++/InterfaceMock.hpp</text>
</a>
</g>
</g>
<!-- Node3&#45;&gt;Node4 -->
<g id="edge3_Node000003_Node000004" class="edge">
<title>Node3&#45;&gt;Node4</title>
<g id="a_edge3_Node000003_Node000004"><a xlink:title=" ">
<path fill="none" stroke="#63b8ff" d="M162.12,-105.65C139.57,-96.04 109.85,-83.38 90.06,-74.95"/>
<polygon fill="#63b8ff" stroke="#63b8ff" points="160.58,-108.8 171.15,-109.5 163.32,-102.36 160.58,-108.8"/>
</a>
</g>
</g>
<!-- Node3&#45;&gt;Node5 -->
<g id="edge7_Node000003_Node000005" class="edge">
<title>Node3&#45;&gt;Node5</title>
<g id="a_edge7_Node000003_Node000005"><a xlink:title=" ">
<path fill="none" stroke="#63b8ff" d="M184.87,-99.74C180.14,-86.37 176.78,-68.65 184.75,-55.25 195.27,-37.56 215.53,-26.43 233.28,-19.72"/>
<polygon fill="#63b8ff" stroke="#63b8ff" points="181.53,-100.82 188.55,-108.76 188.01,-98.18 181.53,-100.82"/>
</a>
</g>
</g>
<!-- Node6 -->
<g id="Node000006" class="node">
<title>Node6</title>
<g id="a_Node000006"><a xlink:href="../../d1/dc0/_lifetime_watcher_8hpp.html" target="_top" xlink:title=" ">
<polygon fill="white" stroke="#666666" points="340,-74.5 193.5,-74.5 193.5,-55.25 340,-55.25 340,-74.5"/>
<text text-anchor="middle" x="266.75" y="-61" font-family="Helvetica,sans-Serif" font-size="10.00">mimic++/LifetimeWatcher.hpp</text>
</a>
</g>
</g>
<!-- Node3&#45;&gt;Node6 -->
<g id="edge5_Node000003_Node000006" class="edge">
<title>Node3&#45;&gt;Node6</title>
<g id="a_edge5_Node000003_Node000006"><a xlink:title=" ">
<path fill="none" stroke="#63b8ff" d="M215.22,-103.47C228.03,-94.12 243.85,-82.58 254.55,-74.77"/>
<polygon fill="#63b8ff" stroke="#63b8ff" points="213.37,-100.48 207.36,-109.2 217.5,-106.13 213.37,-100.48"/>
</a>
</g>
</g>
<!-- Node4&#45;&gt;Node5 -->
<g id="edge4_Node000004_Node000005" class="edge">
<title>Node4&#45;&gt;Node5</title>
<g id="a_edge4_Node000004_Node000005"><a xlink:title=" ">
<path fill="none" stroke="#63b8ff" d="M113.11,-51.95C149.39,-42.19 199.94,-28.59 233,-19.7"/>
<polygon fill="#63b8ff" stroke="#63b8ff" points="112.55,-48.47 103.8,-54.45 114.37,-55.23 112.55,-48.47"/>
</a>
</g>
</g>
<!-- Node6&#45;&gt;Node5 -->
<g id="edge6_Node000006_Node000005" class="edge">
<title>Node6&#45;&gt;Node5</title>
<g id="a_edge6_Node000006_Node000005"><a xlink:title=" ">
<path fill="none" stroke="#63b8ff" d="M266.75,-43.63C266.75,-35.34 266.75,-26.17 266.75,-19.61"/>
<polygon fill="#63b8ff" stroke="#63b8ff" points="263.25,-43.57 266.75,-53.57 270.25,-43.57 263.25,-43.57"/>
</a>
</g>
</g>
</g>
</svg>
</svg>

<style type='text/css'>
<![CDATA[
[data-mouse-over-selected='false'] { opacity: 0.7; }
[data-mouse-over-selected='true']  { opacity: 1.0; }
]]>
</style>
<script type="application/ecmascript"><![CDATA[
document.addEventListener('DOMContentLoaded', (event) => {
  highlightEdges();
  highlightAdjacentNodes();
});
]]></script>
</svg>
