<?xml version="1.0" encoding="UTF-8" standalone="no"?>
<!DOCTYPE svg PUBLIC "-//W3C//DTD SVG 1.1//EN"
 "http://www.w3.org/Graphics/SVG/1.1/DTD/svg11.dtd">
<!-- Generated by graphviz version 12.1.1 (20240910.0053)
 -->
<!-- Title: mimic++/ExpectationPolicies.hpp Pages: 1 -->
<svg width="278pt" height="193pt"
 viewBox="0.00 0.00 277.50 193.00" xmlns="http://www.w3.org/2000/svg" xmlns:xlink="http://www.w3.org/1999/xlink">
<g id="graph0" class="graph" transform="scale(1 1) rotate(0) translate(4 189)">
<title>mimic++/ExpectationPolicies.hpp</title>
<!-- Node1 -->
<g id="Node000001" class="node">
<title>Node1</title>
<g id="a_Node000001"><a xlink:title=" ">
<polygon fill="#999999" stroke="#666666" points="216.75,-185 56.75,-185 56.75,-165.75 216.75,-165.75 216.75,-185"/>
<text text-anchor="middle" x="136.75" y="-171.5" font-family="Helvetica,sans-Serif" font-size="10.00">mimic++/ExpectationPolicies.hpp</text>
</a>
</g>
</g>
<!-- Node2 -->
<g id="Node000002" class="node">
<title>Node2</title>
<g id="a_Node000002"><a xlink:href="../../d2/d4f/_expectation_builder_8hpp.html" target="_top" xlink:title=" ">
<polygon fill="white" stroke="#666666" points="214.5,-129.75 59,-129.75 59,-110.5 214.5,-110.5 214.5,-129.75"/>
<text text-anchor="middle" x="136.75" y="-116.25" font-family="Helvetica,sans-Serif" font-size="10.00">mimic++/ExpectationBuilder.hpp</text>
</a>
</g>
</g>
<!-- Node1&#45;&gt;Node2 -->
<g id="edge1_Node000001_Node000002" class="edge">
<title>Node1&#45;&gt;Node2</title>
<g id="a_edge1_Node000001_Node000002"><a xlink:title=" ">
<path fill="none" stroke="#63b8ff" d="M136.75,-154.13C136.75,-145.84 136.75,-136.67 136.75,-130.11"/>
<polygon fill="#63b8ff" stroke="#63b8ff" points="133.25,-154.07 136.75,-164.07 140.25,-154.07 133.25,-154.07"/>
</a>
</g>
</g>
<!-- Node3 -->
<g id="Node000003" class="node">
<title>Node3</title>
<g id="a_Node000003"><a xlink:href="../../d5/dc5/_mock_8hpp.html" target="_top" xlink:title=" ">
<polygon fill="white" stroke="#666666" points="132.38,-74.5 33.12,-74.5 33.12,-55.25 132.38,-55.25 132.38,-74.5"/>
<text text-anchor="middle" x="82.75" y="-61" font-family="Helvetica,sans-Serif" font-size="10.00">mimic++/Mock.hpp</text>
</a>
</g>
</g>
<!-- Node1&#45;&gt;Node3 -->
<g id="edge6_Node000001_Node000003" class="edge">
<title>Node1&#45;&gt;Node3</title>
<g id="a_edge6_Node000001_Node000003"><a xlink:title=" ">
<path fill="none" stroke="#63b8ff" d="M89.41,-161.15C74.04,-154.36 58.67,-144.34 49.75,-129.75 38.17,-110.79 58.65,-87.32 72.2,-74.77"/>
<polygon fill="#63b8ff" stroke="#63b8ff" points="87.97,-164.34 98.56,-164.78 90.56,-157.84 87.97,-164.34"/>
</a>
</g>
</g>
<!-- Node5 -->
<g id="Node000005" class="node">
<title>Node5</title>
<g id="a_Node000005"><a xlink:href="../../d0/db9/mimic_09_09_8hpp.html" target="_top" xlink:title=" ">
<polygon fill="white" stroke="#666666" points="269.5,-19.25 156,-19.25 156,0 269.5,0 269.5,-19.25"/>
<text text-anchor="middle" x="212.75" y="-5.75" font-family="Helvetica,sans-Serif" font-size="10.00">mimic++/mimic++.hpp</text>
</a>
</g>
</g>
<!-- Node1&#45;&gt;Node5 -->
<g id="edge7_Node000001_Node000005" class="edge">
<title>Node1&#45;&gt;Node5</title>
<g id="a_edge7_Node000001_Node000005"><a xlink:title=" ">
<path fill="none" stroke="#63b8ff" d="M184.09,-161.15C199.46,-154.36 214.83,-144.34 223.75,-129.75 245.62,-93.95 226.13,-40.48 216.93,-19.51"/>
<polygon fill="#63b8ff" stroke="#63b8ff" points="182.94,-157.84 174.94,-164.78 185.53,-164.34 182.94,-157.84"/>
</a>
</g>
</g>
<!-- Node2&#45;&gt;Node3 -->
<g id="edge2_Node000002_Node000003" class="edge">
<title>Node2&#45;&gt;Node3</title>
<g id="a_edge2_Node000002_Node000003"><a xlink:title=" ">
<path fill="none" stroke="#63b8ff" d="M119.71,-102.32C110.49,-93.23 99.46,-82.35 91.86,-74.86"/>
<polygon fill="#63b8ff" stroke="#63b8ff" points="117.18,-104.74 126.76,-109.27 122.09,-99.76 117.18,-104.74"/>
</a>
</g>
</g>
<!-- Node2&#45;&gt;Node5 -->
<g id="edge5_Node000002_Node000005" class="edge">
<title>Node2&#45;&gt;Node5</title>
<g id="a_edge5_Node000002_Node000005"><a xlink:title=" ">
<path fill="none" stroke="#63b8ff" d="M149.42,-101.04C165.87,-77.55 193.96,-37.45 206.44,-19.63"/>
<polygon fill="#63b8ff" stroke="#63b8ff" points="146.71,-98.81 143.84,-109.01 152.44,-102.82 146.71,-98.81"/>
</a>
</g>
</g>
<!-- Node4 -->
<g id="Node000004" class="node">
<title>Node4</title>
<g id="a_Node000004"><a xlink:href="../../d9/dc3/_interface_mock_8hpp.html" target="_top" xlink:title=" ">
<polygon fill="white" stroke="#666666" points="137.5,-19.25 0,-19.25 0,0 137.5,0 137.5,-19.25"/>
<text text-anchor="middle" x="68.75" y="-5.75" font-family="Helvetica,sans-Serif" font-size="10.00">mimic++/InterfaceMock.hpp</text>
</a>
</g>
</g>
<!-- Node3&#45;&gt;Node4 -->
<g id="edge3_Node000003_Node000004" class="edge">
<title>Node3&#45;&gt;Node4</title>
<g id="a_edge3_Node000003_Node000004"><a xlink:title=" ">
<path fill="none" stroke="#63b8ff" d="M77.58,-44.21C75.36,-35.77 72.88,-26.33 71.11,-19.61"/>
<polygon fill="#63b8ff" stroke="#63b8ff" points="74.13,-44.84 80.05,-53.62 80.9,-43.06 74.13,-44.84"/>
</a>
</g>
</g>
<!-- Node3&#45;&gt;Node5 -->
<g id="edge4_Node000003_Node000005" class="edge">
<title>Node3&#45;&gt;Node5</title>
<g id="a_edge4_Node000003_Node000005"><a xlink:title=" ">
<path fill="none" stroke="#63b8ff" d="M115.32,-50.53C138.82,-40.91 169.92,-28.17 190.59,-19.7"/>
<polygon fill="#63b8ff" stroke="#63b8ff" points="114.13,-47.24 106.2,-54.27 116.78,-53.72 114.13,-47.24"/>
</a>
</g>
</g>
</g>
</svg>
