<?xml version="1.0" encoding="UTF-8" standalone="no"?>
<!DOCTYPE svg PUBLIC "-//W3C//DTD SVG 1.1//EN"
 "http://www.w3.org/Graphics/SVG/1.1/DTD/svg11.dtd">
<!-- Generated by graphviz version 12.1.2 (20240928.0832)
 -->
<!-- Title: Graphical Class Hierarchy Pages: 1 -->
<svg width="421pt" height="64pt"
 viewBox="0.00 0.00 421.25 64.25" xmlns="http://www.w3.org/2000/svg" xmlns:xlink="http://www.w3.org/1999/xlink">
<g id="graph0" class="graph" transform="scale(1 1) rotate(0) translate(4 60.25)">
<title>Graphical Class Hierarchy</title>
<!-- Node0 -->
<g id="Node000000" class="node">
<title>Node0</title>
<g id="a_Node000000"><a xlink:title=" ">
<polygon fill="#e0e0e0" stroke="#999999" points="51.25,-56.25 12.75,-56.25 12.75,-37 51.25,-37 51.25,-56.25"/>
<text text-anchor="middle" x="32" y="-42.75" font-family="Helvetica,sans-Serif" font-size="10.00">Base</text>
</a>
</g>
</g>
<!-- Node1 -->
<g id="Node000001" class="node">
<title>Node1</title>
<g id="a_Node000001"><a xlink:title=" ">
<polygon fill="#e0e0e0" stroke="#999999" points="248,-42.88 100,-42.88 100,-12.37 248,-12.37 248,-42.88"/>
<text text-anchor="start" x="108" y="-29.38" font-family="Helvetica,sans-Serif" font-size="10.00">mimicpp::detail::BasicWatched</text>
<text text-anchor="middle" x="174" y="-18.12" font-family="Helvetica,sans-Serif" font-size="10.00">&lt; Base, Watchers... &gt;</text>
</a>
</g>
</g>
<!-- Node0&#45;&gt;Node1 -->
<g id="edge1_Node000000_Node000001" class="edge">
<title>Node0&#45;&gt;Node1</title>
<g id="a_edge1_Node000000_Node000001"><a xlink:title=" ">
<path fill="none" stroke="#63b8ff" d="M62.99,-42.56C73.9,-41.07 86.77,-39.33 99.78,-37.56"/>
<polygon fill="#63b8ff" stroke="#63b8ff" points="62.53,-39.09 53.09,-43.9 63.47,-46.02 62.53,-39.09"/>
</a>
</g>
</g>
<!-- Node2 -->
<g id="Node000002" class="node">
<title>Node2</title>
<g id="a_Node000002"><a xlink:href="d3/d5d/classmimicpp_1_1_watched.html" target="_top" xlink:title="CRTP&#45;type, inheriting first from Base and then all Watchers, thus effectively couple them all togethe...">
<polygon fill="white" stroke="#666666" points="413.25,-42.88 284,-42.88 284,-12.37 413.25,-12.37 413.25,-42.88"/>
<text text-anchor="start" x="292" y="-29.38" font-family="Helvetica,sans-Serif" font-size="10.00">mimicpp::Watched&lt; Base,</text>
<text text-anchor="middle" x="348.62" y="-18.12" font-family="Helvetica,sans-Serif" font-size="10.00"> Watchers &gt;</text>
</a>
</g>
</g>
<!-- Node1&#45;&gt;Node2 -->
<g id="edge2_Node000001_Node000002" class="edge">
<title>Node1&#45;&gt;Node2</title>
<g id="a_edge2_Node000001_Node000002"><a xlink:title=" ">
<path fill="none" stroke="#63b8ff" d="M259.73,-27.62C267.73,-27.62 275.74,-27.62 283.51,-27.62"/>
<polygon fill="#63b8ff" stroke="#63b8ff" points="259.97,-24.13 249.97,-27.63 259.97,-31.13 259.97,-24.13"/>
</a>
</g>
</g>
<!-- Node3 -->
<g id="Node000003" class="node">
<title>Node3</title>
<g id="a_Node000003"><a xlink:title=" ">
<polygon fill="#e0e0e0" stroke="#999999" points="64,-19.25 0,-19.25 0,0 64,0 64,-19.25"/>
<text text-anchor="middle" x="32" y="-5.75" font-family="Helvetica,sans-Serif" font-size="10.00">Watchers...</text>
</a>
</g>
</g>
<!-- Node3&#45;&gt;Node1 -->
<g id="edge3_Node000003_Node000001" class="edge">
<title>Node3&#45;&gt;Node1</title>
<g id="a_edge3_Node000003_Node000001"><a xlink:title=" ">
<path fill="none" stroke="#63b8ff" d="M75.58,-15.1C83.24,-16.08 91.41,-17.14 99.65,-18.19"/>
<polygon fill="#63b8ff" stroke="#63b8ff" points="76.28,-11.66 65.92,-13.86 75.39,-18.6 76.28,-11.66"/>
</a>
</g>
</g>
</g>
</svg>
