<?xml version="1.0" encoding="UTF-8" standalone="no"?>
<!DOCTYPE svg PUBLIC "-//W3C//DTD SVG 1.1//EN"
 "http://www.w3.org/Graphics/SVG/1.1/DTD/svg11.dtd">
<!-- Generated by graphviz version 12.1.2 (20240928.0832)
 -->
<!-- Title: mimic++/ExpectationBuilder.hpp Pages: 1 -->
<svg width="364pt" height="193pt"
 viewBox="0.00 0.00 364.29 193.00" xmlns="http://www.w3.org/2000/svg" xmlns:xlink="http://www.w3.org/1999/xlink">
<g id="graph0" class="graph" transform="scale(1 1) rotate(0) translate(4 189)">
<title>mimic++/ExpectationBuilder.hpp</title>
<!-- Node1 -->
<g id="Node000001" class="node">
<title>Node1</title>
<g id="a_Node000001"><a xlink:title=" ">
<polygon fill="#999999" stroke="#666666" points="344.5,-185 189,-185 189,-165.75 344.5,-165.75 344.5,-185"/>
<text text-anchor="middle" x="266.75" y="-171.5" font-family="Helvetica,sans-Serif" font-size="10.00">mimic++/ExpectationBuilder.hpp</text>
</a>
</g>
</g>
<!-- Node2 -->
<g id="Node000002" class="node">
<title>Node2</title>
<g id="a_Node000002"><a xlink:href="../../d5/dc5/_mock_8hpp.html" target="_top" xlink:title=" ">
<polygon fill="white" stroke="#666666" points="266.38,-129.75 167.12,-129.75 167.12,-110.5 266.38,-110.5 266.38,-129.75"/>
<text text-anchor="middle" x="216.75" y="-116.25" font-family="Helvetica,sans-Serif" font-size="10.00">mimic++/Mock.hpp</text>
</a>
</g>
</g>
<!-- Node1&#45;&gt;Node2 -->
<g id="edge1_Node000001_Node000002" class="edge">
<title>Node1&#45;&gt;Node2</title>
<g id="a_edge1_Node000001_Node000002"><a xlink:title=" ">
<path fill="none" stroke="#63b8ff" d="M250.71,-157.29C242.22,-148.25 232.15,-137.52 225.19,-130.11"/>
<polygon fill="#63b8ff" stroke="#63b8ff" points="248.06,-159.58 257.46,-164.48 253.16,-154.79 248.06,-159.58"/>
</a>
</g>
</g>
<!-- Node4 -->
<g id="Node000004" class="node">
<title>Node4</title>
<g id="a_Node000004"><a xlink:href="../../d0/db9/mimic_09_09_8hpp.html" target="_top" xlink:title=" ">
<polygon fill="white" stroke="#666666" points="272.5,-19.25 159,-19.25 159,0 272.5,0 272.5,-19.25"/>
<text text-anchor="middle" x="215.75" y="-5.75" font-family="Helvetica,sans-Serif" font-size="10.00">mimic++/mimic++.hpp</text>
</a>
</g>
</g>
<!-- Node1&#45;&gt;Node4 -->
<g id="edge7_Node000001_Node000004" class="edge">
<title>Node1&#45;&gt;Node4</title>
<g id="a_edge7_Node000001_Node000004"><a xlink:title=" ">
<path fill="none" stroke="#63b8ff" d="M290.93,-158.94C323.68,-136.1 375.19,-92.01 348.75,-55.25 331.4,-31.13 300.38,-19.86 272.66,-14.68"/>
<polygon fill="#63b8ff" stroke="#63b8ff" points="289.06,-155.98 282.73,-164.47 292.98,-161.78 289.06,-155.98"/>
</a>
</g>
</g>
<!-- Node3 -->
<g id="Node000003" class="node">
<title>Node3</title>
<g id="a_Node000003"><a xlink:href="../../d9/dc3/_interface_mock_8hpp.html" target="_top" xlink:title=" ">
<polygon fill="white" stroke="#666666" points="137.5,-74.5 0,-74.5 0,-55.25 137.5,-55.25 137.5,-74.5"/>
<text text-anchor="middle" x="68.75" y="-61" font-family="Helvetica,sans-Serif" font-size="10.00">mimic++/InterfaceMock.hpp</text>
</a>
</g>
</g>
<!-- Node2&#45;&gt;Node3 -->
<g id="edge2_Node000002_Node000003" class="edge">
<title>Node2&#45;&gt;Node3</title>
<g id="a_edge2_Node000002_Node000003"><a xlink:title=" ">
<path fill="none" stroke="#63b8ff" d="M181.11,-106.3C154.2,-96.62 117.94,-83.57 93.98,-74.95"/>
<polygon fill="#63b8ff" stroke="#63b8ff" points="179.63,-109.49 190.22,-109.58 182,-102.9 179.63,-109.49"/>
</a>
</g>
</g>
<!-- Node2&#45;&gt;Node4 -->
<g id="edge6_Node000002_Node000004" class="edge">
<title>Node2&#45;&gt;Node4</title>
<g id="a_edge6_Node000002_Node000004"><a xlink:title=" ">
<path fill="none" stroke="#63b8ff" d="M200.24,-101.51C194.12,-93.83 187.91,-84.33 184.75,-74.5 178.11,-53.85 195.25,-31.4 206.61,-19.39"/>
<polygon fill="#63b8ff" stroke="#63b8ff" points="197.53,-103.74 206.71,-109.03 202.84,-99.17 197.53,-103.74"/>
</a>
</g>
</g>
<!-- Node5 -->
<g id="Node000005" class="node">
<title>Node5</title>
<g id="a_Node000005"><a xlink:href="../../d1/dc0/_lifetime_watcher_8hpp.html" target="_top" xlink:title=" ">
<polygon fill="white" stroke="#666666" points="340,-74.5 193.5,-74.5 193.5,-55.25 340,-55.25 340,-74.5"/>
<text text-anchor="middle" x="266.75" y="-61" font-family="Helvetica,sans-Serif" font-size="10.00">mimic++/LifetimeWatcher.hpp</text>
</a>
</g>
</g>
<!-- Node2&#45;&gt;Node5 -->
<g id="edge4_Node000002_Node000005" class="edge">
<title>Node2&#45;&gt;Node5</title>
<g id="a_edge4_Node000002_Node000005"><a xlink:title=" ">
<path fill="none" stroke="#63b8ff" d="M232.79,-102.04C241.28,-93 251.35,-82.27 258.31,-74.86"/>
<polygon fill="#63b8ff" stroke="#63b8ff" points="230.34,-99.54 226.04,-109.23 235.44,-104.33 230.34,-99.54"/>
</a>
</g>
</g>
<!-- Node3&#45;&gt;Node4 -->
<g id="edge3_Node000003_Node000004" class="edge">
<title>Node3&#45;&gt;Node4</title>
<g id="a_edge3_Node000003_Node000004"><a xlink:title=" ">
<path fill="none" stroke="#63b8ff" d="M104.51,-50.92C131.19,-41.25 167,-28.29 190.69,-19.7"/>
<polygon fill="#63b8ff" stroke="#63b8ff" points="103.32,-47.63 95.11,-54.33 105.7,-54.21 103.32,-47.63"/>
</a>
</g>
</g>
<!-- Node5&#45;&gt;Node4 -->
<g id="edge5_Node000005_Node000004" class="edge">
<title>Node5&#45;&gt;Node4</title>
<g id="a_edge5_Node000005_Node000004"><a xlink:title=" ">
<path fill="none" stroke="#63b8ff" d="M250.39,-46.79C241.73,-37.75 231.45,-27.02 224.35,-19.61"/>
<polygon fill="#63b8ff" stroke="#63b8ff" points="247.84,-49.19 257.28,-53.99 252.89,-44.35 247.84,-49.19"/>
</a>
</g>
</g>
</g>
</svg>
