<?xml version="1.0" encoding="UTF-8" standalone="no"?>
<!DOCTYPE svg PUBLIC "-//W3C//DTD SVG 1.1//EN"
 "http://www.w3.org/Graphics/SVG/1.1/DTD/svg11.dtd">
<!-- Generated by graphviz version 12.1.1 (20240910.0053)
 -->
<!-- Title: mimic++/ControlPolicy.hpp Pages: 1 -->
<svg width="392pt" height="304pt"
 viewBox="0.00 0.00 391.75 303.50" xmlns="http://www.w3.org/2000/svg" xmlns:xlink="http://www.w3.org/1999/xlink">
<g id="graph0" class="graph" transform="scale(1 1) rotate(0) translate(4 299.5)">
<title>mimic++/ControlPolicy.hpp</title>
<!-- Node1 -->
<g id="Node000001" class="node">
<title>Node1</title>
<g id="a_Node000001"><a xlink:title=" ">
<polygon fill="#999999" stroke="#666666" points="382.88,-295.5 250.62,-295.5 250.62,-276.25 382.88,-276.25 382.88,-295.5"/>
<text text-anchor="middle" x="316.75" y="-282" font-family="Helvetica,sans-Serif" font-size="10.00">mimic++/ControlPolicy.hpp</text>
</a>
</g>
</g>
<!-- Node2 -->
<g id="Node000002" class="node">
<title>Node2</title>
<g id="a_Node000002"><a xlink:href="../../d5/d8a/_expectation_8hpp.html" target="_top" xlink:title=" ">
<polygon fill="white" stroke="#666666" points="233.5,-240.25 108,-240.25 108,-221 233.5,-221 233.5,-240.25"/>
<text text-anchor="middle" x="170.75" y="-226.75" font-family="Helvetica,sans-Serif" font-size="10.00">mimic++/Expectation.hpp</text>
</a>
</g>
</g>
<!-- Node1&#45;&gt;Node2 -->
<g id="edge1_Node000001_Node000002" class="edge">
<title>Node1&#45;&gt;Node2</title>
<g id="a_edge1_Node000001_Node000002"><a xlink:title=" ">
<path fill="none" stroke="#63b8ff" d="M281.24,-271.92C254.73,-262.25 219.17,-249.29 195.64,-240.7"/>
<polygon fill="#63b8ff" stroke="#63b8ff" points="279.97,-275.18 290.56,-275.32 282.37,-268.61 279.97,-275.18"/>
</a>
</g>
</g>
<!-- Node3 -->
<g id="Node000003" class="node">
<title>Node3</title>
<g id="a_Node000003"><a xlink:href="../../d2/d4f/_expectation_builder_8hpp.html" target="_top" xlink:title=" ">
<polygon fill="white" stroke="#666666" points="355.5,-129.75 200,-129.75 200,-110.5 355.5,-110.5 355.5,-129.75"/>
<text text-anchor="middle" x="277.75" y="-116.25" font-family="Helvetica,sans-Serif" font-size="10.00">mimic++/ExpectationBuilder.hpp</text>
</a>
</g>
</g>
<!-- Node1&#45;&gt;Node3 -->
<g id="edge13_Node000001_Node000003" class="edge">
<title>Node1&#45;&gt;Node3</title>
<g id="a_edge13_Node000001_Node000003"><a xlink:title=" ">
<path fill="none" stroke="#63b8ff" d="M312.06,-265.19C303.56,-229.5 285.93,-155.46 279.86,-129.97"/>
<polygon fill="#63b8ff" stroke="#63b8ff" points="308.58,-265.68 314.3,-274.6 315.39,-264.06 308.58,-265.68"/>
</a>
</g>
</g>
<!-- Node6 -->
<g id="Node000006" class="node">
<title>Node6</title>
<g id="a_Node000006"><a xlink:href="../../d0/db9/mimic_09_09_8hpp.html" target="_top" xlink:title=" ">
<polygon fill="white" stroke="#666666" points="269.5,-19.25 156,-19.25 156,0 269.5,0 269.5,-19.25"/>
<text text-anchor="middle" x="212.75" y="-5.75" font-family="Helvetica,sans-Serif" font-size="10.00">mimic++/mimic++.hpp</text>
</a>
</g>
</g>
<!-- Node1&#45;&gt;Node6 -->
<g id="edge14_Node000001_Node000006" class="edge">
<title>Node1&#45;&gt;Node6</title>
<g id="a_edge14_Node000001_Node000006"><a xlink:title=" ">
<path fill="none" stroke="#63b8ff" d="M335.32,-268.15C355.15,-248.36 383.75,-213.4 383.75,-176.38 383.75,-176.38 383.75,-176.38 383.75,-119.12 383.75,-60.58 311.42,-32.3 260.84,-19.67"/>
<polygon fill="#63b8ff" stroke="#63b8ff" points="333.12,-265.41 328.31,-274.85 337.96,-270.47 333.12,-265.41"/>
</a>
</g>
</g>
<!-- Node2&#45;&gt;Node3 -->
<g id="edge2_Node000002_Node000003" class="edge">
<title>Node2&#45;&gt;Node3</title>
<g id="a_edge2_Node000002_Node000003"><a xlink:title=" ">
<path fill="none" stroke="#63b8ff" d="M213.92,-216.45C230.34,-209.48 247.92,-199.32 259.75,-185 273.1,-168.83 276.57,-143.37 277.45,-130"/>
<polygon fill="#63b8ff" stroke="#63b8ff" points="212.82,-213.13 204.78,-220.03 215.37,-219.64 212.82,-213.13"/>
</a>
</g>
</g>
<!-- Node4 -->
<g id="Node000004" class="node">
<title>Node4</title>
<g id="a_Node000004"><a xlink:href="../../d5/dc5/_mock_8hpp.html" target="_top" xlink:title=" ">
<polygon fill="white" stroke="#666666" points="151.38,-74.5 52.12,-74.5 52.12,-55.25 151.38,-55.25 151.38,-74.5"/>
<text text-anchor="middle" x="101.75" y="-61" font-family="Helvetica,sans-Serif" font-size="10.00">mimic++/Mock.hpp</text>
</a>
</g>
</g>
<!-- Node2&#45;&gt;Node4 -->
<g id="edge11_Node000002_Node000004" class="edge">
<title>Node2&#45;&gt;Node4</title>
<g id="a_edge11_Node000002_Node000004"><a xlink:title=" ">
<path fill="none" stroke="#63b8ff" d="M121.97,-216.48C106.38,-209.72 90.82,-199.7 81.75,-185 59.5,-148.95 84.82,-95.62 96.49,-74.73"/>
<polygon fill="#63b8ff" stroke="#63b8ff" points="120.69,-219.74 131.28,-220.11 123.23,-213.22 120.69,-219.74"/>
</a>
</g>
</g>
<!-- Node2&#45;&gt;Node6 -->
<g id="edge12_Node000002_Node000006" class="edge">
<title>Node2&#45;&gt;Node6</title>
<g id="a_edge12_Node000002_Node000006"><a xlink:title=" ">
<path fill="none" stroke="#63b8ff" d="M119.42,-216.77C101.75,-209.99 83.27,-199.88 70.75,-185 32.76,-139.86 6.72,-101.96 42.75,-55.25 56.63,-37.25 111.95,-25.09 155.76,-18.06"/>
<polygon fill="#63b8ff" stroke="#63b8ff" points="118.24,-220.06 128.84,-220.07 120.56,-213.46 118.24,-220.06"/>
</a>
</g>
</g>
<!-- Node7 -->
<g id="Node000007" class="node">
<title>Node7</title>
<g id="a_Node000007"><a xlink:href="../../d8/de5/_expectation_policies_8hpp.html" target="_top" xlink:title=" ">
<polygon fill="white" stroke="#666666" points="250.75,-185 90.75,-185 90.75,-165.75 250.75,-165.75 250.75,-185"/>
<text text-anchor="middle" x="170.75" y="-171.5" font-family="Helvetica,sans-Serif" font-size="10.00">mimic++/ExpectationPolicies.hpp</text>
</a>
</g>
</g>
<!-- Node2&#45;&gt;Node7 -->
<g id="edge7_Node000002_Node000007" class="edge">
<title>Node2&#45;&gt;Node7</title>
<g id="a_edge7_Node000002_Node000007"><a xlink:title=" ">
<path fill="none" stroke="#63b8ff" d="M170.75,-209.38C170.75,-201.09 170.75,-191.92 170.75,-185.36"/>
<polygon fill="#63b8ff" stroke="#63b8ff" points="167.25,-209.32 170.75,-219.32 174.25,-209.32 167.25,-209.32"/>
</a>
</g>
</g>
<!-- Node3&#45;&gt;Node4 -->
<g id="edge3_Node000003_Node000004" class="edge">
<title>Node3&#45;&gt;Node4</title>
<g id="a_edge3_Node000003_Node000004"><a xlink:title=" ">
<path fill="none" stroke="#63b8ff" d="M237.06,-106.82C204.91,-97.09 160.75,-83.73 131.75,-74.95"/>
<polygon fill="#63b8ff" stroke="#63b8ff" points="235.86,-110.11 246.45,-109.65 237.89,-103.41 235.86,-110.11"/>
</a>
</g>
</g>
<!-- Node3&#45;&gt;Node6 -->
<g id="edge6_Node000003_Node000006" class="edge">
<title>Node3&#45;&gt;Node6</title>
<g id="a_edge6_Node000003_Node000006"><a xlink:title=" ">
<path fill="none" stroke="#63b8ff" d="M266.53,-100.4C252.41,-76.83 228.73,-37.29 218.14,-19.63"/>
<polygon fill="#63b8ff" stroke="#63b8ff" points="263.51,-102.17 271.65,-108.95 269.52,-98.57 263.51,-102.17"/>
</a>
</g>
</g>
<!-- Node5 -->
<g id="Node000005" class="node">
<title>Node5</title>
<g id="a_Node000005"><a xlink:href="../../d9/dc3/_interface_mock_8hpp.html" target="_top" xlink:title=" ">
<polygon fill="white" stroke="#666666" points="137.5,-19.25 0,-19.25 0,0 137.5,0 137.5,-19.25"/>
<text text-anchor="middle" x="68.75" y="-5.75" font-family="Helvetica,sans-Serif" font-size="10.00">mimic++/InterfaceMock.hpp</text>
</a>
</g>
</g>
<!-- Node4&#45;&gt;Node5 -->
<g id="edge4_Node000004_Node000005" class="edge">
<title>Node4&#45;&gt;Node5</title>
<g id="a_edge4_Node000004_Node000005"><a xlink:title=" ">
<path fill="none" stroke="#63b8ff" d="M90.28,-45.37C84.87,-36.64 78.67,-26.64 74.32,-19.61"/>
<polygon fill="#63b8ff" stroke="#63b8ff" points="87.26,-47.14 95.5,-53.8 93.21,-43.45 87.26,-47.14"/>
</a>
</g>
</g>
<!-- Node4&#45;&gt;Node6 -->
<g id="edge5_Node000004_Node000006" class="edge">
<title>Node4&#45;&gt;Node6</title>
<g id="a_edge5_Node000004_Node000006"><a xlink:title=" ">
<path fill="none" stroke="#63b8ff" d="M130.93,-49.87C150.82,-40.33 176.58,-27.98 193.83,-19.7"/>
<polygon fill="#63b8ff" stroke="#63b8ff" points="129.45,-46.71 121.94,-54.19 132.47,-53.02 129.45,-46.71"/>
</a>
</g>
</g>
<!-- Node7&#45;&gt;Node3 -->
<g id="edge8_Node000007_Node000003" class="edge">
<title>Node7&#45;&gt;Node3</title>
<g id="a_edge8_Node000007_Node000003"><a xlink:title=" ">
<path fill="none" stroke="#63b8ff" d="M199.15,-160.24C218.28,-150.72 242.96,-138.44 259.51,-130.2"/>
<polygon fill="#63b8ff" stroke="#63b8ff" points="197.65,-157.08 190.26,-164.67 200.77,-163.35 197.65,-157.08"/>
</a>
</g>
</g>
<!-- Node7&#45;&gt;Node4 -->
<g id="edge9_Node000007_Node000004" class="edge">
<title>Node7&#45;&gt;Node4</title>
<g id="a_edge9_Node000007_Node000004"><a xlink:title=" ">
<path fill="none" stroke="#63b8ff" d="M159.04,-155.97C144.08,-132.44 118.76,-92.62 107.47,-74.88"/>
<polygon fill="#63b8ff" stroke="#63b8ff" points="155.97,-157.66 164.29,-164.22 161.88,-153.9 155.97,-157.66"/>
</a>
</g>
</g>
<!-- Node7&#45;&gt;Node6 -->
<g id="edge10_Node000007_Node000006" class="edge">
<title>Node7&#45;&gt;Node6</title>
<g id="a_edge10_Node000007_Node000006"><a xlink:title=" ">
<path fill="none" stroke="#63b8ff" d="M175.8,-154.69C184.95,-119 203.94,-44.96 210.48,-19.47"/>
<polygon fill="#63b8ff" stroke="#63b8ff" points="172.48,-153.55 173.38,-164.11 179.26,-155.29 172.48,-153.55"/>
</a>
</g>
</g>
</g>
</svg>
