<?xml version="1.0" encoding="UTF-8" standalone="no"?>
<!DOCTYPE svg PUBLIC "-//W3C//DTD SVG 1.1//EN"
 "http://www.w3.org/Graphics/SVG/1.1/DTD/svg11.dtd">
<!-- Generated by graphviz version 12.1.1 (20240910.0053)
 -->
<!-- Title: mimic++/ControlPolicy.hpp Pages: 1 -->
<svg width="367pt" height="304pt"
 viewBox="0.00 0.00 367.20 303.50" xmlns="http://www.w3.org/2000/svg" xmlns:xlink="http://www.w3.org/1999/xlink">

<svg id="main" version="1.1" xmlns="http://www.w3.org/2000/svg" xmlns:xlink="http://www.w3.org/1999/xlink" xml:space="preserve">

<style type="text/css"><![CDATA[
.node, .edge {opacity: 0.7;}
.node.selected, .edge.selected {opacity: 1;}
.edge:hover path { stroke: red; }
.edge:hover polygon { stroke: red; fill: red; }
]]></style>
<script type="application/ecmascript" xlink:href="../../svg.min.js"/>
<svg id="graph" class="graph">
<g id="graph0" class="graph" transform="scale(1 1) rotate(0) translate(4 299.5)">
<title>mimic++/ControlPolicy.hpp</title>
<!-- Node1 -->
<g id="Node000001" class="node">
<title>Node1</title>
<g id="a_Node000001"><a xlink:title=" ">
<polygon fill="#999999" stroke="#666666" points="133.12,-295.5 0.88,-295.5 0.88,-276.25 133.12,-276.25 133.12,-295.5"/>
<text text-anchor="middle" x="67" y="-282" font-family="Helvetica,sans-Serif" font-size="10.00">mimic++/ControlPolicy.hpp</text>
</a>
</g>
</g>
<!-- Node2 -->
<g id="Node000002" class="node">
<title>Node2</title>
<g id="a_Node000002"><a xlink:href="../../d5/d8a/_expectation_8hpp.html" target="_top" xlink:title=" ">
<polygon fill="white" stroke="#666666" points="275.75,-240.25 150.25,-240.25 150.25,-221 275.75,-221 275.75,-240.25"/>
<text text-anchor="middle" x="213" y="-226.75" font-family="Helvetica,sans-Serif" font-size="10.00">mimic++/Expectation.hpp</text>
</a>
</g>
</g>
<!-- Node1&#45;&gt;Node2 -->
<g id="edge1_Node000001_Node000002" class="edge">
<title>Node1&#45;&gt;Node2</title>
<g id="a_edge1_Node000001_Node000002"><a xlink:title=" ">
<path fill="none" stroke="#63b8ff" d="M102.51,-271.92C129.02,-262.25 164.58,-249.29 188.11,-240.7"/>
<polygon fill="#63b8ff" stroke="#63b8ff" points="101.38,-268.61 93.19,-275.32 103.78,-275.18 101.38,-268.61"/>
</a>
</g>
</g>
<!-- Node3 -->
<g id="Node000003" class="node">
<title>Node3</title>
<g id="a_Node000003"><a xlink:href="../../d2/d4f/_expectation_builder_8hpp.html" target="_top" xlink:title=" ">
<polygon fill="white" stroke="#666666" points="183.75,-129.75 28.25,-129.75 28.25,-110.5 183.75,-110.5 183.75,-129.75"/>
<text text-anchor="middle" x="106" y="-116.25" font-family="Helvetica,sans-Serif" font-size="10.00">mimic++/ExpectationBuilder.hpp</text>
</a>
</g>
</g>
<!-- Node1&#45;&gt;Node3 -->
<g id="edge12_Node000001_Node000003" class="edge">
<title>Node1&#45;&gt;Node3</title>
<g id="a_edge12_Node000001_Node000003"><a xlink:title=" ">
<path fill="none" stroke="#63b8ff" d="M71.69,-265.19C80.19,-229.5 97.82,-155.46 103.89,-129.97"/>
<polygon fill="#63b8ff" stroke="#63b8ff" points="68.36,-264.06 69.45,-274.6 75.17,-265.68 68.36,-264.06"/>
</a>
</g>
</g>
<!-- Node5 -->
<g id="Node000005" class="node">
<title>Node5</title>
<g id="a_Node000005"><a xlink:href="../../d0/db9/mimic_09_09_8hpp.html" target="_top" xlink:title=" ">
<polygon fill="white" stroke="#666666" points="260.75,-19.25 147.25,-19.25 147.25,0 260.75,0 260.75,-19.25"/>
<text text-anchor="middle" x="204" y="-5.75" font-family="Helvetica,sans-Serif" font-size="10.00">mimic++/mimic++.hpp</text>
</a>
</g>
</g>
<!-- Node1&#45;&gt;Node5 -->
<g id="edge13_Node000001_Node000005" class="edge">
<title>Node1&#45;&gt;Node5</title>
<g id="a_edge13_Node000001_Node000005"><a xlink:title=" ">
<path fill="none" stroke="#63b8ff" d="M48.43,-268.15C28.6,-248.36 0,-213.4 0,-176.38 0,-176.38 0,-176.38 0,-119.12 0,-52.23 86.55,-26.45 146.9,-16.6"/>
<polygon fill="#63b8ff" stroke="#63b8ff" points="45.79,-270.47 55.44,-274.85 50.63,-265.41 45.79,-270.47"/>
</a>
</g>
</g>
<!-- Node2&#45;&gt;Node3 -->
<g id="edge2_Node000002_Node000003" class="edge">
<title>Node2&#45;&gt;Node3</title>
<g id="a_edge2_Node000002_Node000003"><a xlink:title=" ">
<path fill="none" stroke="#63b8ff" d="M169.83,-216.45C153.41,-209.48 135.83,-199.32 124,-185 110.65,-168.83 107.18,-143.37 106.3,-130"/>
<polygon fill="#63b8ff" stroke="#63b8ff" points="168.38,-219.64 178.97,-220.03 170.93,-213.13 168.38,-219.64"/>
</a>
</g>
</g>
<!-- Node4 -->
<g id="Node000004" class="node">
<title>Node4</title>
<g id="a_Node000004"><a xlink:href="../../d5/dc5/_mock_8hpp.html" target="_top" xlink:title=" ">
<polygon fill="white" stroke="#666666" points="331.62,-74.5 232.38,-74.5 232.38,-55.25 331.62,-55.25 331.62,-74.5"/>
<text text-anchor="middle" x="282" y="-61" font-family="Helvetica,sans-Serif" font-size="10.00">mimic++/Mock.hpp</text>
</a>
</g>
</g>
<!-- Node2&#45;&gt;Node4 -->
<g id="edge10_Node000002_Node000004" class="edge">
<title>Node2&#45;&gt;Node4</title>
<g id="a_edge10_Node000002_Node000004"><a xlink:title=" ">
<path fill="none" stroke="#63b8ff" d="M261.78,-216.48C277.37,-209.72 292.93,-199.7 302,-185 324.25,-148.95 298.93,-95.62 287.26,-74.73"/>
<polygon fill="#63b8ff" stroke="#63b8ff" points="260.52,-213.22 252.47,-220.11 263.06,-219.74 260.52,-213.22"/>
</a>
</g>
</g>
<!-- Node2&#45;&gt;Node5 -->
<g id="edge11_Node000002_Node000005" class="edge">
<title>Node2&#45;&gt;Node5</title>
<g id="a_edge11_Node000002_Node000005"><a xlink:title=" ">
<path fill="none" stroke="#63b8ff" d="M271.36,-216.89C289.38,-210.22 307.71,-200.15 320,-185 356.81,-139.64 375.32,-102.52 341,-55.25 322.78,-30.15 290.06,-18.89 261.18,-13.96"/>
<polygon fill="#63b8ff" stroke="#63b8ff" points="270.33,-213.55 261.96,-220.05 272.56,-220.18 270.33,-213.55"/>
</a>
</g>
</g>
<!-- Node6 -->
<g id="Node000006" class="node">
<title>Node6</title>
<g id="a_Node000006"><a xlink:href="../../d8/de5/_expectation_policies_8hpp.html" target="_top" xlink:title=" ">
<polygon fill="white" stroke="#666666" points="293,-185 133,-185 133,-165.75 293,-165.75 293,-185"/>
<text text-anchor="middle" x="213" y="-171.5" font-family="Helvetica,sans-Serif" font-size="10.00">mimic++/ExpectationPolicies.hpp</text>
</a>
</g>
</g>
<!-- Node2&#45;&gt;Node6 -->
<g id="edge6_Node000002_Node000006" class="edge">
<title>Node2&#45;&gt;Node6</title>
<g id="a_edge6_Node000002_Node000006"><a xlink:title=" ">
<path fill="none" stroke="#63b8ff" d="M213,-209.38C213,-201.09 213,-191.92 213,-185.36"/>
<polygon fill="#63b8ff" stroke="#63b8ff" points="209.5,-209.32 213,-219.32 216.5,-209.32 209.5,-209.32"/>
</a>
</g>
</g>
<!-- Node3&#45;&gt;Node4 -->
<g id="edge3_Node000003_Node000004" class="edge">
<title>Node3&#45;&gt;Node4</title>
<g id="a_edge3_Node000003_Node000004"><a xlink:title=" ">
<path fill="none" stroke="#63b8ff" d="M146.69,-106.82C178.84,-97.09 223,-83.73 252,-74.95"/>
<polygon fill="#63b8ff" stroke="#63b8ff" points="145.86,-103.41 137.3,-109.65 147.89,-110.11 145.86,-103.41"/>
</a>
</g>
</g>
<!-- Node3&#45;&gt;Node5 -->
<g id="edge5_Node000003_Node000005" class="edge">
<title>Node3&#45;&gt;Node5</title>
<g id="a_edge5_Node000003_Node000005"><a xlink:title=" ">
<path fill="none" stroke="#63b8ff" d="M121.49,-101.97C142.58,-78.63 179.55,-37.69 195.87,-19.63"/>
<polygon fill="#63b8ff" stroke="#63b8ff" points="119.14,-99.36 115.03,-109.12 124.33,-104.05 119.14,-99.36"/>
</a>
</g>
</g>
<!-- Node4&#45;&gt;Node5 -->
<g id="edge4_Node000004_Node000005" class="edge">
<title>Node4&#45;&gt;Node5</title>
<g id="a_edge4_Node000004_Node000005"><a xlink:title=" ">
<path fill="none" stroke="#63b8ff" d="M259.53,-48.53C245.85,-39.2 228.86,-27.6 217.3,-19.7"/>
<polygon fill="#63b8ff" stroke="#63b8ff" points="257.29,-51.24 267.52,-53.99 261.23,-45.46 257.29,-51.24"/>
</a>
</g>
</g>
<!-- Node6&#45;&gt;Node3 -->
<g id="edge7_Node000006_Node000003" class="edge">
<title>Node6&#45;&gt;Node3</title>
<g id="a_edge7_Node000006_Node000003"><a xlink:title=" ">
<path fill="none" stroke="#63b8ff" d="M184.6,-160.24C165.47,-150.72 140.79,-138.44 124.24,-130.2"/>
<polygon fill="#63b8ff" stroke="#63b8ff" points="182.98,-163.35 193.49,-164.67 186.1,-157.08 182.98,-163.35"/>
</a>
</g>
</g>
<!-- Node6&#45;&gt;Node4 -->
<g id="edge8_Node000006_Node000004" class="edge">
<title>Node6&#45;&gt;Node4</title>
<g id="a_edge8_Node000006_Node000004"><a xlink:title=" ">
<path fill="none" stroke="#63b8ff" d="M224.71,-155.97C239.67,-132.44 264.99,-92.62 276.28,-74.88"/>
<polygon fill="#63b8ff" stroke="#63b8ff" points="221.87,-153.9 219.46,-164.22 227.78,-157.66 221.87,-153.9"/>
</a>
</g>
</g>
<!-- Node6&#45;&gt;Node5 -->
<g id="edge9_Node000006_Node000005" class="edge">
<title>Node6&#45;&gt;Node5</title>
<g id="a_edge9_Node000006_Node000005"><a xlink:title=" ">
<path fill="none" stroke="#63b8ff" d="M211.89,-154.22C209.92,-118.36 205.88,-44.85 204.49,-19.47"/>
<polygon fill="#63b8ff" stroke="#63b8ff" points="208.39,-154.27 212.43,-164.06 215.38,-153.88 208.39,-154.27"/>
</a>
</g>
</g>
</g>
</svg>
</svg>

<style type='text/css'>
<![CDATA[
[data-mouse-over-selected='false'] { opacity: 0.7; }
[data-mouse-over-selected='true']  { opacity: 1.0; }
]]>
</style>
<script type="application/ecmascript"><![CDATA[
document.addEventListener('DOMContentLoaded', (event) => {
  highlightEdges();
  highlightAdjacentNodes();
});
]]></script>
</svg>
