<?xml version="1.0" encoding="UTF-8" standalone="no"?>
<!DOCTYPE svg PUBLIC "-//W3C//DTD SVG 1.1//EN"
 "http://www.w3.org/Graphics/SVG/1.1/DTD/svg11.dtd">
<!-- Generated by graphviz version 9.0.0 (20230911.1827)
 -->
<!-- Title: mimic++/Sequence.hpp Pages: 1 -->
<!--zoomable 248 -->

<svg id="main" version="1.1" xmlns="http://www.w3.org/2000/svg" xmlns:xlink="http://www.w3.org/1999/xlink" xml:space="preserve" onload="init(evt)">
<style type="text/css"><![CDATA[
.node, .edge {opacity: 0.7;}
.node.selected, .edge.selected {opacity: 1;}
.edge:hover path { stroke: red; }
.edge:hover polygon { stroke: red; fill: red; }
]]></style>

<defs>
  <circle id="rim" cx="0" cy="0" r="7"/>
  <circle id="rim2" cx="0" cy="0" r="3.5"/>
  <g id="zoomPlus">
    <use xlink:href="#rim" fill="#404040"><set attributeName="fill" to="#808080" begin="zoomplus.mouseover" end="zoomplus.mouseout"/></use>
    <path d="M-4,0h8M0,-4v8" fill="none" stroke="white" stroke-width="1.5" pointer-events="none"/>
  </g>
  <g id="zoomMin">
    <use xlink:href="#rim" fill="#404040"><set attributeName="fill" to="#808080" begin="zoomminus.mouseover" end="zoomminus.mouseout"/></use>
    <path d="M-4,0h8" fill="none" stroke="white" stroke-width="1.5" pointer-events="none"/>
  </g>
  <g id="arrowUp" transform="translate(30 24)">
    <use xlink:href="#rim"/>
    <path pointer-events="none" fill="none" stroke="white" stroke-width="1.5" d="M0,-3.0v7 M-2.5,-0.5L0,-3.0L2.5,-0.5"/>
  </g>
  <g id="arrowRight" transform="rotate(90) translate(36 -43)">
    <use xlink:href="#rim"/>
    <path pointer-events="none" fill="none" stroke="white" stroke-width="1.5" d="M0,-3.0v7 M-2.5,-0.5L0,-3.0L2.5,-0.5"/>
  </g>
  <g id="arrowDown" transform="rotate(180) translate(-30 -48)">
    <use xlink:href="#rim"/>
    <path pointer-events="none" fill="none" stroke="white" stroke-width="1.5" d="M0,-3.0v7 M-2.5,-0.5L0,-3.0L2.5,-0.5"/>
  </g>
  <g id="arrowLeft" transform="rotate(270) translate(-36 17)">
    <use xlink:href="#rim"/>
    <path pointer-events="none" fill="none" stroke="white" stroke-width="1.5" d="M0,-3.0v7 M-2.5,-0.5L0,-3.0L2.5,-0.5"/>
  </g>
  <g id="resetDef">
    <use xlink:href="#rim2" fill="#404040"><set attributeName="fill" to="#808080" begin="reset.mouseover" end="reset.mouseout"/></use>
  </g>
</defs>
<script type="application/ecmascript">
var viewWidth = 1145;
var viewHeight = 248;
var sectionId = 'dynsection-0';
</script>
<script type="application/ecmascript" xlink:href="../../svg.min.js"/>
<svg id="graph" class="graph">
<g id="viewport">
<title>mimic++/Sequence.hpp</title>
<!-- Node1 -->
<g id="Node000001" class="node">
<title>Node1</title>
<g id="a_Node000001"><a xlink:title=" ">
<polygon fill="#999999" stroke="#666666" points="1011.38,-240.25 892.62,-240.25 892.62,-221 1011.38,-221 1011.38,-240.25"/>
<text text-anchor="middle" x="952" y="-226.75" font-family="Helvetica,sans-Serif" font-size="10.00">mimic++/Sequence.hpp</text>
</a>
</g>
</g>
<!-- Node2 -->
<g id="Node000002" class="node">
<title>Node2</title>
<g id="a_Node000002"><a xlink:href="../../da/dd9/_reporter_8hpp.html" target="_top" xlink:title=" ">
<polygon fill="white" stroke="#666666" points="552,-185 440,-185 440,-165.75 552,-165.75 552,-185"/>
<text text-anchor="middle" x="496" y="-171.5" font-family="Helvetica,sans-Serif" font-size="10.00">mimic++/Reporter.hpp</text>
</a>
</g>
</g>
<!-- Node1&#45;&gt;Node2 -->
<g id="edge1_Node000001_Node000002" class="edge">
<title>Node1&#45;&gt;Node2</title>
<g id="a_edge1_Node000001_Node000002"><a xlink:title=" ">
<path fill="none" stroke="#63b8ff" d="M892.39,-222.66C807.62,-212.77 652.71,-194.67 563.71,-184.28"/>
<polygon fill="#63b8ff" stroke="#63b8ff" points="564.25,-180.82 553.91,-183.14 563.43,-187.77 564.25,-180.82"/>
</a>
</g>
</g>
<!-- Node6 -->
<g id="Node000006" class="node">
<title>Node6</title>
<g id="a_Node000006"><a xlink:href="../../d4/d2c/_utility_8hpp.html" target="_top" xlink:title=" ">
<polygon fill="white" stroke="#666666" points="941,-74.5 841,-74.5 841,-55.25 941,-55.25 941,-74.5"/>
<text text-anchor="middle" x="891" y="-61" font-family="Helvetica,sans-Serif" font-size="10.00">mimic++/Utility.hpp</text>
</a>
</g>
</g>
<!-- Node1&#45;&gt;Node6 -->
<g id="edge27_Node000001_Node000006" class="edge">
<title>Node1&#45;&gt;Node6</title>
<g id="a_edge27_Node000001_Node000006"><a xlink:title=" ">
<path fill="none" stroke="#63b8ff" d="M942.24,-220.68C933.71,-212.29 921.68,-198.99 915,-185 899.51,-152.56 894.01,-110.54 892.06,-86.05"/>
<polygon fill="#63b8ff" stroke="#63b8ff" points="895.56,-85.97 891.42,-76.22 888.58,-86.43 895.56,-85.97"/>
</a>
</g>
</g>
<!-- Node9 -->
<g id="Node000009" class="node">
<title>Node9</title>
<g id="a_Node000009"><a xlink:title=" ">
<polygon fill="#e0e0e0" stroke="#999999" points="1052.88,-74.5 997.12,-74.5 997.12,-55.25 1052.88,-55.25 1052.88,-74.5"/>
<text text-anchor="middle" x="1025" y="-61" font-family="Helvetica,sans-Serif" font-size="10.00">algorithm</text>
</a>
</g>
</g>
<!-- Node1&#45;&gt;Node9 -->
<g id="edge28_Node000001_Node000009" class="edge">
<title>Node1&#45;&gt;Node9</title>
<g id="a_edge28_Node000001_Node000009"><a xlink:title=" ">
<path fill="none" stroke="#63b8ff" d="M949.58,-220.66C946.6,-208.04 942.69,-184.47 949,-165.75 960.31,-132.22 987.86,-101.03 1006.49,-82.71"/>
<polygon fill="#63b8ff" stroke="#63b8ff" points="1008.88,-85.27 1013.71,-75.84 1004.06,-80.2 1008.88,-85.27"/>
</a>
</g>
</g>
<!-- Node22 -->
<g id="Node000022" class="node">
<title>Node22</title>
<g id="a_Node000022"><a xlink:title=" ">
<polygon fill="#e0e0e0" stroke="#999999" points="994.5,-185 957.5,-185 957.5,-165.75 994.5,-165.75 994.5,-185"/>
<text text-anchor="middle" x="976" y="-171.5" font-family="Helvetica,sans-Serif" font-size="10.00">array</text>
</a>
</g>
</g>
<!-- Node1&#45;&gt;Node22 -->
<g id="edge29_Node000001_Node000022" class="edge">
<title>Node1&#45;&gt;Node22</title>
<g id="a_edge29_Node000001_Node000022"><a xlink:title=" ">
<path fill="none" stroke="#63b8ff" d="M955.96,-220.83C959.04,-214.01 963.41,-204.31 967.29,-195.7"/>
<polygon fill="#63b8ff" stroke="#63b8ff" points="970.41,-197.29 971.33,-186.74 964.03,-194.42 970.41,-197.29"/>
</a>
</g>
</g>
<!-- Node23 -->
<g id="Node000023" class="node">
<title>Node23</title>
<g id="a_Node000023"><a xlink:title=" ">
<polygon fill="#e0e0e0" stroke="#999999" points="1061.12,-185 1012.88,-185 1012.88,-165.75 1061.12,-165.75 1061.12,-185"/>
<text text-anchor="middle" x="1037" y="-171.5" font-family="Helvetica,sans-Serif" font-size="10.00">cassert</text>
</a>
</g>
</g>
<!-- Node1&#45;&gt;Node23 -->
<g id="edge30_Node000001_Node000023" class="edge">
<title>Node1&#45;&gt;Node23</title>
<g id="a_edge30_Node000001_Node000023"><a xlink:title=" ">
<path fill="none" stroke="#63b8ff" d="M966.42,-220.59C979.12,-212.64 997.87,-200.89 1012.86,-191.5"/>
<polygon fill="#63b8ff" stroke="#63b8ff" points="1014.61,-194.53 1021.23,-186.26 1010.9,-188.6 1014.61,-194.53"/>
</a>
</g>
</g>
<!-- Node24 -->
<g id="Node000024" class="node">
<title>Node24</title>
<g id="a_Node000024"><a xlink:title=" ">
<polygon fill="#e0e0e0" stroke="#999999" points="1137,-185 1079,-185 1079,-165.75 1137,-165.75 1137,-185"/>
<text text-anchor="middle" x="1108" y="-171.5" font-family="Helvetica,sans-Serif" font-size="10.00">functional</text>
</a>
</g>
</g>
<!-- Node1&#45;&gt;Node24 -->
<g id="edge31_Node000001_Node000024" class="edge">
<title>Node1&#45;&gt;Node24</title>
<g id="a_edge31_Node000001_Node000024"><a xlink:title=" ">
<path fill="none" stroke="#63b8ff" d="M978.46,-220.59C1003.79,-211.95 1042.23,-198.82 1070.67,-189.12"/>
<polygon fill="#63b8ff" stroke="#63b8ff" points="1071.64,-192.48 1079.97,-185.94 1069.38,-185.86 1071.64,-192.48"/>
</a>
</g>
</g>
<!-- Node3 -->
<g id="Node000003" class="node">
<title>Node3</title>
<g id="a_Node000003"><a xlink:href="../../dc/d44/_call_8hpp.html" target="_top" xlink:title=" ">
<polygon fill="white" stroke="#666666" points="678.88,-129.75 587.12,-129.75 587.12,-110.5 678.88,-110.5 678.88,-129.75"/>
<text text-anchor="middle" x="633" y="-116.25" font-family="Helvetica,sans-Serif" font-size="10.00">mimic++/Call.hpp</text>
</a>
</g>
</g>
<!-- Node2&#45;&gt;Node3 -->
<g id="edge2_Node000002_Node000003" class="edge">
<title>Node2&#45;&gt;Node3</title>
<g id="a_edge2_Node000002_Node000003"><a xlink:title=" ">
<path fill="none" stroke="#63b8ff" d="M519.24,-165.34C541.19,-156.81 574.35,-143.92 599.21,-134.26"/>
<polygon fill="#63b8ff" stroke="#63b8ff" points="600.18,-137.64 608.24,-130.75 597.65,-131.11 600.18,-137.64"/>
</a>
</g>
</g>
<!-- Node14 -->
<g id="Node000014" class="node">
<title>Node14</title>
<g id="a_Node000014"><a xlink:title=" ">
<polygon fill="#e0e0e0" stroke="#999999" points="412.5,-74.5 369.5,-74.5 369.5,-55.25 412.5,-55.25 412.5,-74.5"/>
<text text-anchor="middle" x="391" y="-61" font-family="Helvetica,sans-Serif" font-size="10.00">vector</text>
</a>
</g>
</g>
<!-- Node2&#45;&gt;Node14 -->
<g id="edge26_Node000002_Node000014" class="edge">
<title>Node2&#45;&gt;Node14</title>
<g id="a_edge26_Node000002_Node000014"><a xlink:title=" ">
<path fill="none" stroke="#63b8ff" d="M474.27,-165.39C458.16,-157.83 436.57,-145.7 422,-129.75 410.3,-116.94 402.09,-98.9 397.08,-85.26"/>
<polygon fill="#63b8ff" stroke="#63b8ff" points="400.49,-84.43 393.97,-76.08 393.86,-86.68 400.49,-84.43"/>
</a>
</g>
</g>
<!-- Node15 -->
<g id="Node000015" class="node">
<title>Node15</title>
<g id="a_Node000015"><a xlink:href="../../da/dab/_printer_8hpp.html" target="_top" xlink:title=" ">
<polygon fill="white" stroke="#666666" points="287.88,-129.75 184.12,-129.75 184.12,-110.5 287.88,-110.5 287.88,-129.75"/>
<text text-anchor="middle" x="236" y="-116.25" font-family="Helvetica,sans-Serif" font-size="10.00">mimic++/Printer.hpp</text>
</a>
</g>
</g>
<!-- Node2&#45;&gt;Node15 -->
<g id="edge17_Node000002_Node000015" class="edge">
<title>Node2&#45;&gt;Node15</title>
<g id="a_edge17_Node000002_Node000015"><a xlink:title=" ">
<path fill="none" stroke="#63b8ff" d="M451.6,-165.28C407.29,-156.21 339.1,-142.24 291.3,-132.45"/>
<polygon fill="#63b8ff" stroke="#63b8ff" points="292.2,-129.06 281.7,-130.48 290.79,-135.92 292.2,-129.06"/>
</a>
</g>
</g>
<!-- Node20 -->
<g id="Node000020" class="node">
<title>Node20</title>
<g id="a_Node000020"><a xlink:title=" ">
<polygon fill="#e0e0e0" stroke="#999999" points="488.62,-129.75 431.38,-129.75 431.38,-110.5 488.62,-110.5 488.62,-129.75"/>
<text text-anchor="middle" x="460" y="-116.25" font-family="Helvetica,sans-Serif" font-size="10.00">exception</text>
</a>
</g>
</g>
<!-- Node2&#45;&gt;Node20 -->
<g id="edge24_Node000002_Node000020" class="edge">
<title>Node2&#45;&gt;Node20</title>
<g id="a_edge24_Node000002_Node000020"><a xlink:title=" ">
<path fill="none" stroke="#63b8ff" d="M490.06,-165.58C485.29,-158.53 478.44,-148.4 472.48,-139.58"/>
<polygon fill="#63b8ff" stroke="#63b8ff" points="475.42,-137.69 466.92,-131.36 469.62,-141.61 475.42,-137.69"/>
</a>
</g>
</g>
<!-- Node21 -->
<g id="Node000021" class="node">
<title>Node21</title>
<g id="a_Node000021"><a xlink:title=" ">
<polygon fill="#e0e0e0" stroke="#999999" points="557.25,-129.75 506.75,-129.75 506.75,-110.5 557.25,-110.5 557.25,-129.75"/>
<text text-anchor="middle" x="532" y="-116.25" font-family="Helvetica,sans-Serif" font-size="10.00">memory</text>
</a>
</g>
</g>
<!-- Node2&#45;&gt;Node21 -->
<g id="edge25_Node000002_Node000021" class="edge">
<title>Node2&#45;&gt;Node21</title>
<g id="a_edge25_Node000002_Node000021"><a xlink:title=" ">
<path fill="none" stroke="#63b8ff" d="M501.94,-165.58C506.71,-158.53 513.56,-148.4 519.52,-139.58"/>
<polygon fill="#63b8ff" stroke="#63b8ff" points="522.38,-141.61 525.08,-131.36 516.58,-137.69 522.38,-141.61"/>
</a>
</g>
</g>
<!-- Node4 -->
<g id="Node000004" class="node">
<title>Node4</title>
<g id="a_Node000004"><a xlink:href="../../d8/d32/_type_traits_8hpp.html" target="_top" xlink:title=" ">
<polygon fill="white" stroke="#666666" points="716.5,-74.5 595.5,-74.5 595.5,-55.25 716.5,-55.25 716.5,-74.5"/>
<text text-anchor="middle" x="656" y="-61" font-family="Helvetica,sans-Serif" font-size="10.00">mimic++/TypeTraits.hpp</text>
</a>
</g>
</g>
<!-- Node3&#45;&gt;Node4 -->
<g id="edge3_Node000003_Node000004" class="edge">
<title>Node3&#45;&gt;Node4</title>
<g id="a_edge3_Node000003_Node000004"><a xlink:title=" ">
<path fill="none" stroke="#63b8ff" d="M636.8,-110.33C639.74,-103.51 643.94,-93.81 647.65,-85.2"/>
<polygon fill="#63b8ff" stroke="#63b8ff" points="650.77,-86.82 651.52,-76.25 644.34,-84.04 650.77,-86.82"/>
</a>
</g>
</g>
<!-- Node5 -->
<g id="Node000005" class="node">
<title>Node5</title>
<g id="a_Node000005"><a xlink:title=" ">
<polygon fill="#e0e0e0" stroke="#999999" points="718.5,-19.25 681.5,-19.25 681.5,0 718.5,0 718.5,-19.25"/>
<text text-anchor="middle" x="700" y="-5.75" font-family="Helvetica,sans-Serif" font-size="10.00">tuple</text>
</a>
</g>
</g>
<!-- Node3&#45;&gt;Node5 -->
<g id="edge14_Node000003_Node000005" class="edge">
<title>Node3&#45;&gt;Node5</title>
<g id="a_edge14_Node000003_Node000005"><a xlink:title=" ">
<path fill="none" stroke="#63b8ff" d="M674.16,-110.12C693.4,-103.63 714.55,-92.69 726,-74.5 735.24,-59.82 725.7,-41.31 715.67,-27.99"/>
<polygon fill="#63b8ff" stroke="#63b8ff" points="718.57,-26.01 709.51,-20.52 713.17,-30.46 718.57,-26.01"/>
</a>
</g>
</g>
<!-- Node3&#45;&gt;Node6 -->
<g id="edge5_Node000003_Node000006" class="edge">
<title>Node3&#45;&gt;Node6</title>
<g id="a_edge5_Node000003_Node000006"><a xlink:title=" ">
<path fill="none" stroke="#63b8ff" d="M677.06,-110.03C721.03,-100.96 788.7,-86.99 836.13,-77.2"/>
<polygon fill="#63b8ff" stroke="#63b8ff" points="836.55,-80.69 845.64,-75.24 835.14,-73.83 836.55,-80.69"/>
</a>
</g>
</g>
<!-- Node7 -->
<g id="Node000007" class="node">
<title>Node7</title>
<g id="a_Node000007"><a xlink:title=" ">
<polygon fill="#e0e0e0" stroke="#999999" points="462.88,-19.25 419.12,-19.25 419.12,0 462.88,0 462.88,-19.25"/>
<text text-anchor="middle" x="441" y="-5.75" font-family="Helvetica,sans-Serif" font-size="10.00">format</text>
</a>
</g>
</g>
<!-- Node3&#45;&gt;Node7 -->
<g id="edge9_Node000003_Node000007" class="edge">
<title>Node3&#45;&gt;Node7</title>
<g id="a_edge9_Node000003_Node000007"><a xlink:title=" ">
<path fill="none" stroke="#63b8ff" d="M586.64,-112.41C541.77,-105.01 477.98,-91.83 460,-74.5 448.27,-63.19 443.69,-44.98 441.95,-30.9"/>
<polygon fill="#63b8ff" stroke="#63b8ff" points="445.44,-30.63 441.15,-20.94 438.46,-31.19 445.44,-30.63"/>
</a>
</g>
</g>
<!-- Node8 -->
<g id="Node000008" class="node">
<title>Node8</title>
<g id="a_Node000008"><a xlink:title=" ">
<polygon fill="#e0e0e0" stroke="#999999" points="972.12,-19.25 887.88,-19.25 887.88,0 972.12,0 972.12,-19.25"/>
<text text-anchor="middle" x="930" y="-5.75" font-family="Helvetica,sans-Serif" font-size="10.00">source_location</text>
</a>
</g>
</g>
<!-- Node3&#45;&gt;Node8 -->
<g id="edge12_Node000003_Node000008" class="edge">
<title>Node3&#45;&gt;Node8</title>
<g id="a_edge12_Node000003_Node000008"><a xlink:title=" ">
<path fill="none" stroke="#63b8ff" d="M679.07,-119.7C758.35,-119.6 915.46,-114.25 950,-74.5 961.16,-61.65 953.01,-42.6 943.99,-28.65"/>
<polygon fill="#63b8ff" stroke="#63b8ff" points="947.04,-26.91 938.4,-20.78 941.34,-30.96 947.04,-26.91"/>
</a>
</g>
</g>
<!-- Node3&#45;&gt;Node9 -->
<g id="edge8_Node000003_Node000009" class="edge">
<title>Node3&#45;&gt;Node9</title>
<g id="a_edge8_Node000003_Node000009"><a xlink:title=" ">
<path fill="none" stroke="#63b8ff" d="M679.31,-114.35C746.46,-107.17 874.68,-92.5 983,-74.5 984,-74.33 985,-74.16 986.02,-73.98"/>
<polygon fill="#63b8ff" stroke="#63b8ff" points="986.37,-77.48 995.55,-72.2 985.08,-70.6 986.37,-77.48"/>
</a>
</g>
</g>
<!-- Node10 -->
<g id="Node000010" class="node">
<title>Node10</title>
<g id="a_Node000010"><a xlink:title=" ">
<polygon fill="#e0e0e0" stroke="#999999" points="822.88,-74.5 773.12,-74.5 773.12,-55.25 822.88,-55.25 822.88,-74.5"/>
<text text-anchor="middle" x="798" y="-61" font-family="Helvetica,sans-Serif" font-size="10.00">optional</text>
</a>
</g>
</g>
<!-- Node3&#45;&gt;Node10 -->
<g id="edge10_Node000003_Node000010" class="edge">
<title>Node3&#45;&gt;Node10</title>
<g id="a_edge10_Node000003_Node000010"><a xlink:title=" ">
<path fill="none" stroke="#63b8ff" d="M660.99,-110.09C688.91,-101.08 731.92,-87.2 762.29,-77.4"/>
<polygon fill="#63b8ff" stroke="#63b8ff" points="762.97,-80.86 771.41,-74.46 760.82,-74.2 762.97,-80.86"/>
</a>
</g>
</g>
<!-- Node11 -->
<g id="Node000011" class="node">
<title>Node11</title>
<g id="a_Node000011"><a xlink:title=" ">
<polygon fill="#e0e0e0" stroke="#999999" points="514.62,-74.5 469.38,-74.5 469.38,-55.25 514.62,-55.25 514.62,-74.5"/>
<text text-anchor="middle" x="492" y="-61" font-family="Helvetica,sans-Serif" font-size="10.00">ranges</text>
</a>
</g>
</g>
<!-- Node3&#45;&gt;Node11 -->
<g id="edge11_Node000003_Node000011" class="edge">
<title>Node3&#45;&gt;Node11</title>
<g id="a_edge11_Node000003_Node000011"><a xlink:title=" ">
<path fill="none" stroke="#63b8ff" d="M609.08,-110.09C586.22,-101.46 551.54,-88.36 525.84,-78.66"/>
<polygon fill="#63b8ff" stroke="#63b8ff" points="527.11,-75.39 516.51,-75.13 524.63,-81.94 527.11,-75.39"/>
</a>
</g>
</g>
<!-- Node12 -->
<g id="Node000012" class="node">
<title>Node12</title>
<g id="a_Node000012"><a xlink:title=" ">
<polygon fill="#e0e0e0" stroke="#999999" points="351,-74.5 311,-74.5 311,-55.25 351,-55.25 351,-74.5"/>
<text text-anchor="middle" x="331" y="-61" font-family="Helvetica,sans-Serif" font-size="10.00">string</text>
</a>
</g>
</g>
<!-- Node3&#45;&gt;Node12 -->
<g id="edge13_Node000003_Node000012" class="edge">
<title>Node3&#45;&gt;Node12</title>
<g id="a_edge13_Node000003_Node000012"><a xlink:title=" ">
<path fill="none" stroke="#63b8ff" d="M586.79,-112.3C525.03,-103.06 417.74,-86.58 362.22,-74.7"/>
<polygon fill="#63b8ff" stroke="#63b8ff" points="363.19,-71.33 352.67,-72.57 361.67,-78.16 363.19,-71.33"/>
</a>
</g>
</g>
<!-- Node13 -->
<g id="Node000013" class="node">
<title>Node13</title>
<g id="a_Node000013"><a xlink:title=" ">
<polygon fill="#e0e0e0" stroke="#999999" points="577.62,-74.5 532.38,-74.5 532.38,-55.25 577.62,-55.25 577.62,-74.5"/>
<text text-anchor="middle" x="555" y="-61" font-family="Helvetica,sans-Serif" font-size="10.00">variant</text>
</a>
</g>
</g>
<!-- Node3&#45;&gt;Node13 -->
<g id="edge15_Node000003_Node000013" class="edge">
<title>Node3&#45;&gt;Node13</title>
<g id="a_edge15_Node000003_Node000013"><a xlink:title=" ">
<path fill="none" stroke="#63b8ff" d="M619.77,-110.09C608.23,-102.21 591.23,-90.61 577.55,-81.27"/>
<polygon fill="#63b8ff" stroke="#63b8ff" points="579.78,-78.55 569.55,-75.81 575.83,-84.33 579.78,-78.55"/>
</a>
</g>
</g>
<!-- Node3&#45;&gt;Node14 -->
<g id="edge16_Node000003_Node000014" class="edge">
<title>Node3&#45;&gt;Node14</title>
<g id="a_edge16_Node000003_Node000014"><a xlink:title=" ">
<path fill="none" stroke="#63b8ff" d="M589.93,-110.08C548.21,-101.25 483.19,-87.32 427,-74.5 425.84,-74.24 424.66,-73.96 423.47,-73.69"/>
<polygon fill="#63b8ff" stroke="#63b8ff" points="424.69,-70.38 414.16,-71.5 423.09,-77.19 424.69,-70.38"/>
</a>
</g>
</g>
<!-- Node4&#45;&gt;Node5 -->
<g id="edge4_Node000004_Node000005" class="edge">
<title>Node4&#45;&gt;Node5</title>
<g id="a_edge4_Node000004_Node000005"><a xlink:title=" ">
<path fill="none" stroke="#63b8ff" d="M663.27,-55.08C669.28,-47.8 678.01,-37.23 685.46,-28.23"/>
<polygon fill="#63b8ff" stroke="#63b8ff" points="687.94,-30.71 691.61,-20.78 682.54,-26.26 687.94,-30.71"/>
</a>
</g>
</g>
<!-- Node6&#45;&gt;Node7 -->
<g id="edge6_Node000006_Node000007" class="edge">
<title>Node6&#45;&gt;Node7</title>
<g id="a_edge6_Node000006_Node000007"><a xlink:title=" ">
<path fill="none" stroke="#63b8ff" d="M840.8,-56.43C837.83,-56.02 834.87,-55.62 832,-55.25 699.7,-38.03 541.73,-21.12 474.23,-14.06"/>
<polygon fill="#63b8ff" stroke="#63b8ff" points="474.89,-10.61 464.58,-13.05 474.17,-17.57 474.89,-10.61"/>
</a>
</g>
</g>
<!-- Node6&#45;&gt;Node8 -->
<g id="edge7_Node000006_Node000008" class="edge">
<title>Node6&#45;&gt;Node8</title>
<g id="a_edge7_Node000006_Node000008"><a xlink:title=" ">
<path fill="none" stroke="#63b8ff" d="M897.44,-55.08C902.66,-47.96 910.19,-37.68 916.69,-28.8"/>
<polygon fill="#63b8ff" stroke="#63b8ff" points="919.44,-30.97 922.53,-20.83 913.79,-26.83 919.44,-30.97"/>
</a>
</g>
</g>
<!-- Node15&#45;&gt;Node7 -->
<g id="edge18_Node000015_Node000007" class="edge">
<title>Node15&#45;&gt;Node7</title>
<g id="a_edge18_Node000015_Node000007"><a xlink:title=" ">
<path fill="none" stroke="#63b8ff" d="M242.75,-110.39C253.75,-96.73 276.83,-70.33 302,-55.25 335.4,-35.24 378.76,-23.18 408.11,-16.73"/>
<polygon fill="#63b8ff" stroke="#63b8ff" points="408.44,-20.23 417.51,-14.76 407.01,-13.38 408.44,-20.23"/>
</a>
</g>
</g>
<!-- Node15&#45;&gt;Node12 -->
<g id="edge21_Node000015_Node000012" class="edge">
<title>Node15&#45;&gt;Node12</title>
<g id="a_edge21_Node000015_Node000012"><a xlink:title=" ">
<path fill="none" stroke="#63b8ff" d="M252.12,-110.09C266.58,-101.98 288.08,-89.93 304.98,-80.46"/>
<polygon fill="#63b8ff" stroke="#63b8ff" points="306.47,-83.64 313.49,-75.69 303.05,-77.53 306.47,-83.64"/>
</a>
</g>
</g>
<!-- Node16 -->
<g id="Node000016" class="node">
<title>Node16</title>
<g id="a_Node000016"><a xlink:title=" ">
<polygon fill="#e0e0e0" stroke="#999999" points="46,-74.5 0,-74.5 0,-55.25 46,-55.25 46,-74.5"/>
<text text-anchor="middle" x="23" y="-61" font-family="Helvetica,sans-Serif" font-size="10.00">iterator</text>
</a>
</g>
</g>
<!-- Node15&#45;&gt;Node16 -->
<g id="edge19_Node000015_Node000016" class="edge">
<title>Node15&#45;&gt;Node16</title>
<g id="a_edge19_Node000015_Node000016"><a xlink:title=" ">
<path fill="none" stroke="#63b8ff" d="M198.15,-110.05C163.78,-101.74 111.42,-88.96 57.26,-75.04"/>
<polygon fill="#63b8ff" stroke="#63b8ff" points="58.43,-71.73 47.87,-72.62 56.68,-78.51 58.43,-71.73"/>
</a>
</g>
</g>
<!-- Node17 -->
<g id="Node000017" class="node">
<title>Node17</title>
<g id="a_Node000017"><a xlink:title=" ">
<polygon fill="#e0e0e0" stroke="#999999" points="115.62,-74.5 64.38,-74.5 64.38,-55.25 115.62,-55.25 115.62,-74.5"/>
<text text-anchor="middle" x="90" y="-61" font-family="Helvetica,sans-Serif" font-size="10.00">sstream</text>
</a>
</g>
</g>
<!-- Node15&#45;&gt;Node17 -->
<g id="edge20_Node000015_Node000017" class="edge">
<title>Node15&#45;&gt;Node17</title>
<g id="a_edge20_Node000015_Node000017"><a xlink:title=" ">
<path fill="none" stroke="#63b8ff" d="M211.23,-110.09C187.74,-101.52 152.19,-88.56 125.65,-78.88"/>
<polygon fill="#63b8ff" stroke="#63b8ff" points="126.9,-75.61 116.31,-75.47 124.51,-82.19 126.9,-75.61"/>
</a>
</g>
</g>
<!-- Node18 -->
<g id="Node000018" class="node">
<title>Node18</title>
<g id="a_Node000018"><a xlink:title=" ">
<polygon fill="#e0e0e0" stroke="#999999" points="198.75,-74.5 133.25,-74.5 133.25,-55.25 198.75,-55.25 198.75,-74.5"/>
<text text-anchor="middle" x="166" y="-61" font-family="Helvetica,sans-Serif" font-size="10.00">string_view</text>
</a>
</g>
</g>
<!-- Node15&#45;&gt;Node18 -->
<g id="edge22_Node000015_Node000018" class="edge">
<title>Node15&#45;&gt;Node18</title>
<g id="a_edge22_Node000015_Node000018"><a xlink:title=" ">
<path fill="none" stroke="#63b8ff" d="M224.13,-110.09C213.91,-102.32 198.93,-90.92 186.74,-81.65"/>
<polygon fill="#63b8ff" stroke="#63b8ff" points="188.98,-78.96 178.9,-75.69 184.74,-84.53 188.98,-78.96"/>
</a>
</g>
</g>
<!-- Node19 -->
<g id="Node000019" class="node">
<title>Node19</title>
<g id="a_Node000019"><a xlink:title=" ">
<polygon fill="#e0e0e0" stroke="#999999" points="255.25,-74.5 216.75,-74.5 216.75,-55.25 255.25,-55.25 255.25,-74.5"/>
<text text-anchor="middle" x="236" y="-61" font-family="Helvetica,sans-Serif" font-size="10.00">utility</text>
</a>
</g>
</g>
<!-- Node15&#45;&gt;Node19 -->
<g id="edge23_Node000015_Node000019" class="edge">
<title>Node15&#45;&gt;Node19</title>
<g id="a_edge23_Node000015_Node000019"><a xlink:title=" ">
<path fill="none" stroke="#63b8ff" d="M236,-110.33C236,-103.82 236,-94.67 236,-86.37"/>
<polygon fill="#63b8ff" stroke="#63b8ff" points="239.5,-86.37 236,-76.37 232.5,-86.37 239.5,-86.37"/>
</a>
</g>
</g>
</g>
</svg>

<g id="navigator" transform="translate(0 0)" fill="#404254">
  <rect fill="#f2f5e9" fill-opacity="0.5" stroke="#606060" stroke-width=".5" x="0" y="0" width="60" height="60"/>
  <use id="zoomplus" xlink:href="#zoomPlus" x="17" y="9" onmousedown="handleZoom(evt,'in')"/>
  <use id="zoomminus" xlink:href="#zoomMin" x="42" y="9" onmousedown="handleZoom(evt,'out')"/>
  <use id="reset" xlink:href="#resetDef" x="30" y="36" onmousedown="handleReset()"/>
   <use id="arrowup" xlink:href="#arrowUp" x="0" y="0" onmousedown="handlePan(0,-1)"/>
  <use id="arrowright" xlink:href="#arrowRight" x="0" y="0" onmousedown="handlePan(1,0)"/>
  <use id="arrowdown" xlink:href="#arrowDown" x="0" y="0" onmousedown="handlePan(0,1)"/>
  <use id="arrowleft" xlink:href="#arrowLeft" x="0" y="0" onmousedown="handlePan(-1,0)"/>
</g>
<svg viewBox="0 0 15 15" width="100%" height="30px" preserveAspectRatio="xMaxYMin meet">
 <g id="arrow_out" transform="scale(0.3 0.3)">
  <a xlink:href="_sequence_8hpp__incl_org.svg" target="_base">
   <rect id="button" ry="5" rx="5" y="6" x="6" height="38" width="38"
        fill="#f2f5e9" fill-opacity="0.5" stroke="#606060" stroke-width="1.0"/>
   <path id="arrow"
     d="M 11.500037,31.436501 C 11.940474,20.09759 22.043105,11.32322 32.158766,21.979434 L 37.068811,17.246167 C 37.068811,17.246167 37.088388,32 37.088388,32 L 22.160133,31.978069 C 22.160133,31.978069 26.997745,27.140456 26.997745,27.140456 C 18.528582,18.264221 13.291696,25.230495 11.500037,31.436501 z"
     style="fill:#404040;"/>
  </a>
 </g>
</svg>

<style type='text/css'>
<![CDATA[
[data-mouse-over-selected='false'] { opacity: 0.7; }
[data-mouse-over-selected='true']  { opacity: 1.0; }
]]>
</style>
<script type="application/ecmascript"><![CDATA[
document.addEventListener('DOMContentLoaded', (event) => {
  highlightEdges();
  highlightAdjacentNodes();
});
]]></script>
</svg>
