<?xml version="1.0" encoding="UTF-8" standalone="no"?>
<!DOCTYPE svg PUBLIC "-//W3C//DTD SVG 1.1//EN"
 "http://www.w3.org/Graphics/SVG/1.1/DTD/svg11.dtd">
<!-- Generated by graphviz version 12.1.1 (20240910.0053)
 -->
<!-- Title: mimic++/Sequence.hpp Pages: 1 -->
<svg width="1388pt" height="359pt"
 viewBox="0.00 0.00 1387.50 358.75" xmlns="http://www.w3.org/2000/svg" xmlns:xlink="http://www.w3.org/1999/xlink">
<g id="graph0" class="graph" transform="scale(1 1) rotate(0) translate(4 354.75)">
<title>mimic++/Sequence.hpp</title>
<!-- Node1 -->
<g id="Node000001" class="node">
<title>Node1</title>
<g id="a_Node000001"><a xlink:title=" ">
<polygon fill="#999999" stroke="#666666" points="1049.38,-350.75 930.62,-350.75 930.62,-331.5 1049.38,-331.5 1049.38,-350.75"/>
<text text-anchor="middle" x="990" y="-337.25" font-family="Helvetica,sans-Serif" font-size="10.00">mimic++/Sequence.hpp</text>
</a>
</g>
</g>
<!-- Node2 -->
<g id="Node000002" class="node">
<title>Node2</title>
<g id="a_Node000002"><a xlink:href="../../df/dde/_fwd_8hpp.html" target="_top" xlink:title=" ">
<polygon fill="white" stroke="#666666" points="876,-74.5 782,-74.5 782,-55.25 876,-55.25 876,-74.5"/>
<text text-anchor="middle" x="829" y="-61" font-family="Helvetica,sans-Serif" font-size="10.00">mimic++/Fwd.hpp</text>
</a>
</g>
</g>
<!-- Node1&#45;&gt;Node2 -->
<g id="edge1_Node000001_Node000002" class="edge">
<title>Node1&#45;&gt;Node2</title>
<g id="a_edge1_Node000001_Node000002"><a xlink:title=" ">
<path fill="none" stroke="#63b8ff" d="M1037.78,-331.05C1115.08,-315 1259,-278.77 1259,-231.62 1259,-231.62 1259,-231.62 1259,-174.38 1259,-98.65 1005.14,-75.24 887.53,-68.45"/>
<polygon fill="#63b8ff" stroke="#63b8ff" points="887.94,-64.97 877.76,-67.91 887.55,-71.96 887.94,-64.97"/>
</a>
</g>
</g>
<!-- Node4 -->
<g id="Node000004" class="node">
<title>Node4</title>
<g id="a_Node000004"><a xlink:href="../../da/dab/_printer_8hpp.html" target="_top" xlink:title=" ">
<polygon fill="white" stroke="#666666" points="598.88,-185 495.12,-185 495.12,-165.75 598.88,-165.75 598.88,-185"/>
<text text-anchor="middle" x="547" y="-171.5" font-family="Helvetica,sans-Serif" font-size="10.00">mimic++/Printer.hpp</text>
</a>
</g>
</g>
<!-- Node1&#45;&gt;Node4 -->
<g id="edge3_Node000001_Node000004" class="edge">
<title>Node1&#45;&gt;Node4</title>
<g id="a_edge3_Node000001_Node000004"><a xlink:title=" ">
<path fill="none" stroke="#63b8ff" d="M930.35,-334.84C823.57,-324.06 606.37,-295.74 558,-240.25 547.7,-228.43 545.35,-210.55 545.35,-196.71"/>
<polygon fill="#63b8ff" stroke="#63b8ff" points="548.84,-197.09 545.79,-186.94 541.85,-196.78 548.84,-197.09"/>
</a>
</g>
</g>
<!-- Node6 -->
<g id="Node000006" class="node">
<title>Node6</title>
<g id="a_Node000006"><a xlink:title=" ">
<polygon fill="#e0e0e0" stroke="#999999" points="1030,-129.75 972,-129.75 972,-110.5 1030,-110.5 1030,-129.75"/>
<text text-anchor="middle" x="1001" y="-116.25" font-family="Helvetica,sans-Serif" font-size="10.00">functional</text>
</a>
</g>
</g>
<!-- Node1&#45;&gt;Node6 -->
<g id="edge53_Node000001_Node000006" class="edge">
<title>Node1&#45;&gt;Node6</title>
<g id="a_edge53_Node000001_Node000006"><a xlink:title=" ">
<path fill="none" stroke="#63b8ff" d="M1015.41,-331.09C1079.15,-307.05 1236.78,-238.43 1180,-165.75 1163.15,-144.18 1089.02,-131.52 1041.6,-125.49"/>
<polygon fill="#63b8ff" stroke="#63b8ff" points="1042.31,-122.05 1031.96,-124.31 1041.46,-129 1042.31,-122.05"/>
</a>
</g>
</g>
<!-- Node12 -->
<g id="Node000012" class="node">
<title>Node12</title>
<g id="a_Node000012"><a xlink:href="../../da/dd9/_reporter_8hpp.html" target="_top" xlink:title=" ">
<polygon fill="white" stroke="#666666" points="853,-295.5 741,-295.5 741,-276.25 853,-276.25 853,-295.5"/>
<text text-anchor="middle" x="797" y="-282" font-family="Helvetica,sans-Serif" font-size="10.00">mimic++/Reporter.hpp</text>
</a>
</g>
</g>
<!-- Node1&#45;&gt;Node12 -->
<g id="edge13_Node000001_Node000012" class="edge">
<title>Node1&#45;&gt;Node12</title>
<g id="a_edge13_Node000001_Node000012"><a xlink:title=" ">
<path fill="none" stroke="#63b8ff" d="M957.26,-331.09C925.24,-322.26 876.25,-308.74 840.87,-298.98"/>
<polygon fill="#63b8ff" stroke="#63b8ff" points="841.93,-295.64 831.36,-296.36 840.07,-302.39 841.93,-295.64"/>
</a>
</g>
</g>
<!-- Node15 -->
<g id="Node000015" class="node">
<title>Node15</title>
<g id="a_Node000015"><a xlink:title=" ">
<polygon fill="#e0e0e0" stroke="#999999" points="183.5,-74.5 146.5,-74.5 146.5,-55.25 183.5,-55.25 183.5,-74.5"/>
<text text-anchor="middle" x="165" y="-61" font-family="Helvetica,sans-Serif" font-size="10.00">tuple</text>
</a>
</g>
</g>
<!-- Node1&#45;&gt;Node15 -->
<g id="edge55_Node000001_Node000015" class="edge">
<title>Node1&#45;&gt;Node15</title>
<g id="a_edge55_Node000001_Node000015"><a xlink:title=" ">
<path fill="none" stroke="#63b8ff" d="M930.45,-339.62C722.03,-337.08 38,-321.87 38,-231.62 38,-231.62 38,-231.62 38,-174.38 38,-123.17 98.42,-90.98 135.91,-75.94"/>
<polygon fill="#63b8ff" stroke="#63b8ff" points="136.75,-79.36 144.85,-72.53 134.26,-72.83 136.75,-79.36"/>
</a>
</g>
</g>
<!-- Node16 -->
<g id="Node000016" class="node">
<title>Node16</title>
<g id="a_Node000016"><a xlink:href="../../d4/d2c/_utility_8hpp.html" target="_top" xlink:title=" ">
<polygon fill="white" stroke="#666666" points="458,-129.75 358,-129.75 358,-110.5 458,-110.5 458,-129.75"/>
<text text-anchor="middle" x="408" y="-116.25" font-family="Helvetica,sans-Serif" font-size="10.00">mimic++/Utility.hpp</text>
</a>
</g>
</g>
<!-- Node1&#45;&gt;Node16 -->
<g id="edge49_Node000001_Node000016" class="edge">
<title>Node1&#45;&gt;Node16</title>
<g id="a_edge49_Node000001_Node000016"><a xlink:title=" ">
<path fill="none" stroke="#63b8ff" d="M930.19,-338.34C855.65,-334.9 724.93,-324.84 617,-295.5 498.6,-263.31 431.19,-287.67 364,-185 353.15,-168.42 369.3,-149.8 385.01,-136.96"/>
<polygon fill="#63b8ff" stroke="#63b8ff" points="386.95,-139.89 392.79,-131.05 382.71,-134.31 386.95,-139.89"/>
</a>
</g>
</g>
<!-- Node17 -->
<g id="Node000017" class="node">
<title>Node17</title>
<g id="a_Node000017"><a xlink:title=" ">
<polygon fill="#e0e0e0" stroke="#999999" points="100.12,-74.5 51.88,-74.5 51.88,-55.25 100.12,-55.25 100.12,-74.5"/>
<text text-anchor="middle" x="76" y="-61" font-family="Helvetica,sans-Serif" font-size="10.00">cassert</text>
</a>
</g>
</g>
<!-- Node1&#45;&gt;Node17 -->
<g id="edge52_Node000001_Node000017" class="edge">
<title>Node1&#45;&gt;Node17</title>
<g id="a_edge52_Node000001_Node000017"><a xlink:title=" ">
<path fill="none" stroke="#63b8ff" d="M930.27,-340.58C758.98,-341.33 268.54,-339.48 115,-295.5 58.79,-279.4 0,-290.09 0,-231.62 0,-231.62 0,-231.62 0,-174.38 0,-135.77 32.68,-101.14 55.18,-81.87"/>
<polygon fill="#63b8ff" stroke="#63b8ff" points="57.11,-84.82 62.62,-75.77 52.67,-79.41 57.11,-84.82"/>
</a>
</g>
</g>
<!-- Node19 -->
<g id="Node000019" class="node">
<title>Node19</title>
<g id="a_Node000019"><a xlink:title=" ">
<polygon fill="#e0e0e0" stroke="#999999" points="1154.88,-185 1099.12,-185 1099.12,-165.75 1154.88,-165.75 1154.88,-185"/>
<text text-anchor="middle" x="1127" y="-171.5" font-family="Helvetica,sans-Serif" font-size="10.00">algorithm</text>
</a>
</g>
</g>
<!-- Node1&#45;&gt;Node19 -->
<g id="edge50_Node000001_Node000019" class="edge">
<title>Node1&#45;&gt;Node19</title>
<g id="a_edge50_Node000001_Node000019"><a xlink:title=" ">
<path fill="none" stroke="#63b8ff" d="M1005.32,-331.1C1030.26,-315.64 1079.62,-281.7 1107,-240.25 1115.74,-227.02 1120.84,-209.76 1123.7,-196.51"/>
<polygon fill="#63b8ff" stroke="#63b8ff" points="1127.12,-197.27 1125.53,-186.79 1120.24,-195.98 1127.12,-197.27"/>
</a>
</g>
</g>
<!-- Node27 -->
<g id="Node000027" class="node">
<title>Node27</title>
<g id="a_Node000027"><a xlink:title=" ">
<polygon fill="#e0e0e0" stroke="#999999" points="1324.5,-295.5 1287.5,-295.5 1287.5,-276.25 1324.5,-276.25 1324.5,-295.5"/>
<text text-anchor="middle" x="1306" y="-282" font-family="Helvetica,sans-Serif" font-size="10.00">array</text>
</a>
</g>
</g>
<!-- Node1&#45;&gt;Node27 -->
<g id="edge51_Node000001_Node000027" class="edge">
<title>Node1&#45;&gt;Node27</title>
<g id="a_edge51_Node000001_Node000027"><a xlink:title=" ">
<path fill="none" stroke="#63b8ff" d="M1049.67,-332.47C1107.16,-324.68 1196.44,-311.5 1273,-295.5 1274.01,-295.29 1275.04,-295.06 1276.08,-294.83"/>
<polygon fill="#63b8ff" stroke="#63b8ff" points="1276.87,-298.24 1285.76,-292.48 1275.21,-291.44 1276.87,-298.24"/>
</a>
</g>
</g>
<!-- Node28 -->
<g id="Node000028" class="node">
<title>Node28</title>
<g id="a_Node000028"><a xlink:title=" ">
<polygon fill="#e0e0e0" stroke="#999999" points="1379.5,-295.5 1342.5,-295.5 1342.5,-276.25 1379.5,-276.25 1379.5,-295.5"/>
<text text-anchor="middle" x="1361" y="-282" font-family="Helvetica,sans-Serif" font-size="10.00">span</text>
</a>
</g>
</g>
<!-- Node1&#45;&gt;Node28 -->
<g id="edge54_Node000001_Node000028" class="edge">
<title>Node1&#45;&gt;Node28</title>
<g id="a_edge54_Node000001_Node000028"><a xlink:title=" ">
<path fill="none" stroke="#63b8ff" d="M1049.61,-335.67C1116.3,-329.97 1227.6,-318.26 1331.26,-295.77"/>
<polygon fill="#63b8ff" stroke="#63b8ff" points="1331.75,-299.25 1340.76,-293.67 1330.24,-292.42 1331.75,-299.25"/>
</a>
</g>
</g>
<!-- Node3 -->
<g id="Node000003" class="node">
<title>Node3</title>
<g id="a_Node000003"><a xlink:title=" ">
<polygon fill="#e0e0e0" stroke="#999999" points="753,-19.25 713,-19.25 713,0 753,0 753,-19.25"/>
<text text-anchor="middle" x="733" y="-5.75" font-family="Helvetica,sans-Serif" font-size="10.00">string</text>
</a>
</g>
</g>
<!-- Node2&#45;&gt;Node3 -->
<g id="edge2_Node000002_Node000003" class="edge">
<title>Node2&#45;&gt;Node3</title>
<g id="a_edge2_Node000002_Node000003"><a xlink:title=" ">
<path fill="none" stroke="#63b8ff" d="M812.71,-54.84C798.1,-46.73 776.37,-34.68 759.29,-25.21"/>
<polygon fill="#63b8ff" stroke="#63b8ff" points="761.13,-22.23 750.69,-20.44 757.74,-28.35 761.13,-22.23"/>
</a>
</g>
</g>
<!-- Node4&#45;&gt;Node2 -->
<g id="edge4_Node000004_Node000002" class="edge">
<title>Node4&#45;&gt;Node2</title>
<g id="a_edge4_Node000004_Node000002"><a xlink:title=" ">
<path fill="none" stroke="#63b8ff" d="M599.17,-166.96C673.58,-156.18 802.15,-136.71 810,-129.75 822.33,-118.83 826.82,-100.31 828.38,-86.02"/>
<polygon fill="#63b8ff" stroke="#63b8ff" points="831.85,-86.56 829.02,-76.35 824.87,-86.1 831.85,-86.56"/>
</a>
</g>
</g>
<!-- Node4&#45;&gt;Node3 -->
<g id="edge10_Node000004_Node000003" class="edge">
<title>Node4&#45;&gt;Node3</title>
<g id="a_edge10_Node000004_Node000003"><a xlink:title=" ">
<path fill="none" stroke="#63b8ff" d="M557.27,-165.34C587.44,-138.77 676.16,-60.66 714.74,-26.7"/>
<polygon fill="#63b8ff" stroke="#63b8ff" points="716.66,-29.67 721.86,-20.43 712.04,-24.42 716.66,-29.67"/>
</a>
</g>
</g>
<!-- Node5 -->
<g id="Node000005" class="node">
<title>Node5</title>
<g id="a_Node000005"><a xlink:title=" ">
<polygon fill="#e0e0e0" stroke="#999999" points="588.88,-74.5 545.12,-74.5 545.12,-55.25 588.88,-55.25 588.88,-74.5"/>
<text text-anchor="middle" x="567" y="-61" font-family="Helvetica,sans-Serif" font-size="10.00">format</text>
</a>
</g>
</g>
<!-- Node4&#45;&gt;Node5 -->
<g id="edge5_Node000004_Node000005" class="edge">
<title>Node4&#45;&gt;Node5</title>
<g id="a_edge5_Node000004_Node000005"><a xlink:title=" ">
<path fill="none" stroke="#63b8ff" d="M555.22,-165.26C562.28,-156.77 571.96,-143.39 576,-129.75 580.29,-115.27 577.56,-98.31 574.02,-85.51"/>
<polygon fill="#63b8ff" stroke="#63b8ff" points="577.41,-84.63 571.04,-76.17 570.74,-86.76 577.41,-84.63"/>
</a>
</g>
</g>
<!-- Node4&#45;&gt;Node6 -->
<g id="edge6_Node000004_Node000006" class="edge">
<title>Node4&#45;&gt;Node6</title>
<g id="a_edge6_Node000004_Node000006"><a xlink:title=" ">
<path fill="none" stroke="#63b8ff" d="M599.23,-166.89C602.2,-166.5 605.14,-166.12 608,-165.75 736.73,-149.34 889.56,-132.84 960.76,-125.33"/>
<polygon fill="#63b8ff" stroke="#63b8ff" points="960.8,-128.84 970.37,-124.31 960.06,-121.88 960.8,-128.84"/>
</a>
</g>
</g>
<!-- Node7 -->
<g id="Node000007" class="node">
<title>Node7</title>
<g id="a_Node000007"><a xlink:title=" ">
<polygon fill="#e0e0e0" stroke="#999999" points="903,-129.75 857,-129.75 857,-110.5 903,-110.5 903,-129.75"/>
<text text-anchor="middle" x="880" y="-116.25" font-family="Helvetica,sans-Serif" font-size="10.00">iterator</text>
</a>
</g>
</g>
<!-- Node4&#45;&gt;Node7 -->
<g id="edge7_Node000004_Node000007" class="edge">
<title>Node4&#45;&gt;Node7</title>
<g id="a_edge7_Node000004_Node000007"><a xlink:title=" ">
<path fill="none" stroke="#63b8ff" d="M599.14,-166.74C677.65,-155.22 819.58,-134.24 843,-129.75 843.83,-129.59 844.66,-129.43 845.5,-129.26"/>
<polygon fill="#63b8ff" stroke="#63b8ff" points="846.05,-132.72 855.09,-127.2 844.58,-125.88 846.05,-132.72"/>
</a>
</g>
</g>
<!-- Node8 -->
<g id="Node000008" class="node">
<title>Node8</title>
<g id="a_Node000008"><a xlink:title=" ">
<polygon fill="#e0e0e0" stroke="#999999" points="372.12,-74.5 287.88,-74.5 287.88,-55.25 372.12,-55.25 372.12,-74.5"/>
<text text-anchor="middle" x="330" y="-61" font-family="Helvetica,sans-Serif" font-size="10.00">source_location</text>
</a>
</g>
</g>
<!-- Node4&#45;&gt;Node8 -->
<g id="edge8_Node000004_Node000008" class="edge">
<title>Node4&#45;&gt;Node8</title>
<g id="a_edge8_Node000004_Node000008"><a xlink:title=" ">
<path fill="none" stroke="#63b8ff" d="M494.95,-168.63C443.6,-161.93 369.85,-149.24 349,-129.75 336.97,-118.51 332.44,-100.02 330.8,-85.83"/>
<polygon fill="#63b8ff" stroke="#63b8ff" points="334.32,-85.96 330.09,-76.25 327.34,-86.48 334.32,-85.96"/>
</a>
</g>
</g>
<!-- Node9 -->
<g id="Node000009" class="node">
<title>Node9</title>
<g id="a_Node000009"><a xlink:title=" ">
<polygon fill="#e0e0e0" stroke="#999999" points="717.62,-129.75 666.38,-129.75 666.38,-110.5 717.62,-110.5 717.62,-129.75"/>
<text text-anchor="middle" x="692" y="-116.25" font-family="Helvetica,sans-Serif" font-size="10.00">sstream</text>
</a>
</g>
</g>
<!-- Node4&#45;&gt;Node9 -->
<g id="edge9_Node000004_Node000009" class="edge">
<title>Node4&#45;&gt;Node9</title>
<g id="a_edge9_Node000004_Node000009"><a xlink:title=" ">
<path fill="none" stroke="#63b8ff" d="M571.6,-165.34C594.93,-156.77 630.24,-143.81 656.6,-134.13"/>
<polygon fill="#63b8ff" stroke="#63b8ff" points="657.68,-137.46 665.86,-130.72 655.27,-130.89 657.68,-137.46"/>
</a>
</g>
</g>
<!-- Node10 -->
<g id="Node000010" class="node">
<title>Node10</title>
<g id="a_Node000010"><a xlink:title=" ">
<polygon fill="#e0e0e0" stroke="#999999" points="800.75,-129.75 735.25,-129.75 735.25,-110.5 800.75,-110.5 800.75,-129.75"/>
<text text-anchor="middle" x="768" y="-116.25" font-family="Helvetica,sans-Serif" font-size="10.00">string_view</text>
</a>
</g>
</g>
<!-- Node4&#45;&gt;Node10 -->
<g id="edge11_Node000004_Node000010" class="edge">
<title>Node4&#45;&gt;Node10</title>
<g id="a_edge11_Node000004_Node000010"><a xlink:title=" ">
<path fill="none" stroke="#63b8ff" d="M584.74,-165.28C623.28,-156 683.07,-141.59 723.8,-131.77"/>
<polygon fill="#63b8ff" stroke="#63b8ff" points="724.38,-135.24 733.28,-129.49 722.74,-128.43 724.38,-135.24"/>
</a>
</g>
</g>
<!-- Node11 -->
<g id="Node000011" class="node">
<title>Node11</title>
<g id="a_Node000011"><a xlink:title=" ">
<polygon fill="#e0e0e0" stroke="#999999" points="505.25,-74.5 466.75,-74.5 466.75,-55.25 505.25,-55.25 505.25,-74.5"/>
<text text-anchor="middle" x="486" y="-61" font-family="Helvetica,sans-Serif" font-size="10.00">utility</text>
</a>
</g>
</g>
<!-- Node4&#45;&gt;Node11 -->
<g id="edge12_Node000004_Node000011" class="edge">
<title>Node4&#45;&gt;Node11</title>
<g id="a_edge12_Node000004_Node000011"><a xlink:title=" ">
<path fill="none" stroke="#63b8ff" d="M542.01,-165.5C532.13,-147.93 509.91,-108.41 496.62,-84.77"/>
<polygon fill="#63b8ff" stroke="#63b8ff" points="499.75,-83.2 491.8,-76.2 493.65,-86.63 499.75,-83.2"/>
</a>
</g>
</g>
<!-- Node12&#45;&gt;Node2 -->
<g id="edge27_Node000012_Node000002" class="edge">
<title>Node12&#45;&gt;Node2</title>
<g id="a_edge27_Node000012_Node000002"><a xlink:title=" ">
<path fill="none" stroke="#63b8ff" d="M853.24,-282.68C916.37,-276.7 1014.83,-255.84 1052,-185 1062.22,-165.52 1049.85,-121.12 1039,-110.5 1017.8,-89.75 941.77,-77.55 887.3,-71.29"/>
<polygon fill="#63b8ff" stroke="#63b8ff" points="887.86,-67.83 877.53,-70.21 887.09,-74.79 887.86,-67.83"/>
</a>
</g>
</g>
<!-- Node12&#45;&gt;Node4 -->
<g id="edge28_Node000012_Node000004" class="edge">
<title>Node12&#45;&gt;Node4</title>
<g id="a_edge28_Node000012_Node000004"><a xlink:title=" ">
<path fill="none" stroke="#63b8ff" d="M784.73,-275.92C763.15,-260.3 719.11,-228.98 702,-221 670.6,-206.37 633.36,-195.46 603.25,-188.09"/>
<polygon fill="#63b8ff" stroke="#63b8ff" points="604.1,-184.69 593.56,-185.79 602.48,-191.5 604.1,-184.69"/>
</a>
</g>
</g>
<!-- Node12&#45;&gt;Node6 -->
<g id="edge44_Node000012_Node000006" class="edge">
<title>Node12&#45;&gt;Node6</title>
<g id="a_edge44_Node000012_Node000006"><a xlink:title=" ">
<path fill="none" stroke="#63b8ff" d="M853.38,-280.94C930.28,-274.86 1063.5,-261.61 1107,-240.25 1138.67,-224.7 1150.24,-217.49 1164,-185 1185.25,-134.8 1096.73,-123.59 1041.81,-121.37"/>
<polygon fill="#63b8ff" stroke="#63b8ff" points="1041.94,-117.88 1031.83,-121.07 1041.72,-124.87 1041.94,-117.88"/>
</a>
</g>
</g>
<!-- Node13 -->
<g id="Node000013" class="node">
<title>Node13</title>
<g id="a_Node000013"><a xlink:href="../../dc/d44/_call_8hpp.html" target="_top" xlink:title=" ">
<polygon fill="white" stroke="#666666" points="464.88,-185 373.12,-185 373.12,-165.75 464.88,-165.75 464.88,-185"/>
<text text-anchor="middle" x="419" y="-171.5" font-family="Helvetica,sans-Serif" font-size="10.00">mimic++/Call.hpp</text>
</a>
</g>
</g>
<!-- Node12&#45;&gt;Node13 -->
<g id="edge14_Node000012_Node000013" class="edge">
<title>Node12&#45;&gt;Node13</title>
<g id="a_edge14_Node000012_Node000013"><a xlink:title=" ">
<path fill="none" stroke="#63b8ff" d="M740.51,-278.32C691.46,-271.69 618.95,-259.62 558,-240.25 517.11,-227.26 472.47,-205.22 445.1,-190.74"/>
<polygon fill="#63b8ff" stroke="#63b8ff" points="446.96,-187.76 436.5,-186.12 443.65,-193.93 446.96,-187.76"/>
</a>
</g>
</g>
<!-- Node12&#45;&gt;Node17 -->
<g id="edge42_Node000012_Node000017" class="edge">
<title>Node12&#45;&gt;Node17</title>
<g id="a_edge42_Node000012_Node000017"><a xlink:title=" ">
<path fill="none" stroke="#63b8ff" d="M740.53,-278.05C681.85,-270.51 587.51,-257.19 507,-240.25 321.48,-201.22 230.86,-261.98 95,-129.75 83.32,-118.38 78.74,-100.18 76.99,-86.11"/>
<polygon fill="#63b8ff" stroke="#63b8ff" points="80.48,-85.85 76.17,-76.18 73.5,-86.43 80.48,-85.85"/>
</a>
</g>
</g>
<!-- Node18 -->
<g id="Node000018" class="node">
<title>Node18</title>
<g id="a_Node000018"><a xlink:href="../../d0/d3b/_reports_8hpp.html" target="_top" xlink:title=" ">
<polygon fill="white" stroke="#666666" points="934.5,-240.25 825.5,-240.25 825.5,-221 934.5,-221 934.5,-240.25"/>
<text text-anchor="middle" x="880" y="-226.75" font-family="Helvetica,sans-Serif" font-size="10.00">mimic++/Reports.hpp</text>
</a>
</g>
</g>
<!-- Node12&#45;&gt;Node18 -->
<g id="edge29_Node000012_Node000018" class="edge">
<title>Node12&#45;&gt;Node18</title>
<g id="a_edge29_Node000012_Node000018"><a xlink:title=" ">
<path fill="none" stroke="#63b8ff" d="M811.08,-275.84C823.48,-267.89 841.79,-256.14 856.43,-246.75"/>
<polygon fill="#63b8ff" stroke="#63b8ff" points="858.05,-249.87 864.58,-241.52 854.27,-243.97 858.05,-249.87"/>
</a>
</g>
</g>
<!-- Node12&#45;&gt;Node19 -->
<g id="edge41_Node000012_Node000019" class="edge">
<title>Node12&#45;&gt;Node19</title>
<g id="a_edge41_Node000012_Node000019"><a xlink:title=" ">
<path fill="none" stroke="#63b8ff" d="M853.29,-281.35C925.45,-275.95 1045.72,-263.68 1083,-240.25 1099.9,-229.63 1111.98,-209.89 1119.16,-195.16"/>
<polygon fill="#63b8ff" stroke="#63b8ff" points="1122.15,-197.04 1123.06,-186.48 1115.77,-194.16 1122.15,-197.04"/>
</a>
</g>
</g>
<!-- Node20 -->
<g id="Node000020" class="node">
<title>Node20</title>
<g id="a_Node000020"><a xlink:title=" ">
<polygon fill="#e0e0e0" stroke="#999999" points="726.88,-185 677.12,-185 677.12,-165.75 726.88,-165.75 726.88,-185"/>
<text text-anchor="middle" x="702" y="-171.5" font-family="Helvetica,sans-Serif" font-size="10.00">optional</text>
</a>
</g>
</g>
<!-- Node12&#45;&gt;Node20 -->
<g id="edge46_Node000012_Node000020" class="edge">
<title>Node12&#45;&gt;Node20</title>
<g id="a_edge46_Node000012_Node000020"><a xlink:title=" ">
<path fill="none" stroke="#63b8ff" d="M795.56,-276.14C793.01,-262.94 786.63,-237.7 773,-221 762.51,-208.15 747.29,-197.89 733.63,-190.47"/>
<polygon fill="#63b8ff" stroke="#63b8ff" points="735.44,-187.47 724.94,-186.04 732.26,-193.7 735.44,-187.47"/>
</a>
</g>
</g>
<!-- Node21 -->
<g id="Node000021" class="node">
<title>Node21</title>
<g id="a_Node000021"><a xlink:title=" ">
<polygon fill="#e0e0e0" stroke="#999999" points="1042.62,-185 997.38,-185 997.38,-165.75 1042.62,-165.75 1042.62,-185"/>
<text text-anchor="middle" x="1020" y="-171.5" font-family="Helvetica,sans-Serif" font-size="10.00">ranges</text>
</a>
</g>
</g>
<!-- Node12&#45;&gt;Node21 -->
<g id="edge47_Node000012_Node000021" class="edge">
<title>Node12&#45;&gt;Node21</title>
<g id="a_edge47_Node000012_Node000021"><a xlink:title=" ">
<path fill="none" stroke="#63b8ff" d="M843.6,-275.81C873.49,-268.8 912.46,-257.35 944,-240.25 967.09,-227.73 989.62,-207.49 1004.07,-193.15"/>
<polygon fill="#63b8ff" stroke="#63b8ff" points="1006.4,-195.77 1010.9,-186.18 1001.4,-190.87 1006.4,-195.77"/>
</a>
</g>
</g>
<!-- Node24 -->
<g id="Node000024" class="node">
<title>Node24</title>
<g id="a_Node000024"><a xlink:title=" ">
<polygon fill="#e0e0e0" stroke="#999999" points="659.5,-185 616.5,-185 616.5,-165.75 659.5,-165.75 659.5,-185"/>
<text text-anchor="middle" x="638" y="-171.5" font-family="Helvetica,sans-Serif" font-size="10.00">vector</text>
</a>
</g>
</g>
<!-- Node12&#45;&gt;Node24 -->
<g id="edge48_Node000012_Node000024" class="edge">
<title>Node12&#45;&gt;Node24</title>
<g id="a_edge48_Node000012_Node000024"><a xlink:title=" ">
<path fill="none" stroke="#63b8ff" d="M790.21,-276.02C779.61,-262.68 757.96,-237.24 735,-221 715.05,-206.88 689.92,-195.47 670.23,-187.72"/>
<polygon fill="#63b8ff" stroke="#63b8ff" points="671.65,-184.51 661.06,-184.23 669.16,-191.06 671.65,-184.51"/>
</a>
</g>
</g>
<!-- Node25 -->
<g id="Node000025" class="node">
<title>Node25</title>
<g id="a_Node000025"><a xlink:title=" ">
<polygon fill="#e0e0e0" stroke="#999999" points="624.62,-240.25 567.38,-240.25 567.38,-221 624.62,-221 624.62,-240.25"/>
<text text-anchor="middle" x="596" y="-226.75" font-family="Helvetica,sans-Serif" font-size="10.00">exception</text>
</a>
</g>
</g>
<!-- Node12&#45;&gt;Node25 -->
<g id="edge43_Node000012_Node000025" class="edge">
<title>Node12&#45;&gt;Node25</title>
<g id="a_edge43_Node000012_Node000025"><a xlink:title=" ">
<path fill="none" stroke="#63b8ff" d="M762.9,-275.84C727.78,-266.54 673.08,-252.05 635.95,-242.21"/>
<polygon fill="#63b8ff" stroke="#63b8ff" points="637.06,-238.88 626.5,-239.7 635.27,-245.65 637.06,-238.88"/>
</a>
</g>
</g>
<!-- Node26 -->
<g id="Node000026" class="node">
<title>Node26</title>
<g id="a_Node000026"><a xlink:title=" ">
<polygon fill="#e0e0e0" stroke="#999999" points="693.25,-240.25 642.75,-240.25 642.75,-221 693.25,-221 693.25,-240.25"/>
<text text-anchor="middle" x="668" y="-226.75" font-family="Helvetica,sans-Serif" font-size="10.00">memory</text>
</a>
</g>
</g>
<!-- Node12&#45;&gt;Node26 -->
<g id="edge45_Node000012_Node000026" class="edge">
<title>Node12&#45;&gt;Node26</title>
<g id="a_edge45_Node000012_Node000026"><a xlink:title=" ">
<path fill="none" stroke="#63b8ff" d="M775.12,-275.84C754.64,-267.39 723.79,-254.65 700.44,-245.02"/>
<polygon fill="#63b8ff" stroke="#63b8ff" points="701.97,-241.86 691.39,-241.28 699.3,-248.33 701.97,-241.86"/>
</a>
</g>
</g>
<!-- Node13&#45;&gt;Node2 -->
<g id="edge15_Node000013_Node000002" class="edge">
<title>Node13&#45;&gt;Node2</title>
<g id="a_edge15_Node000013_Node000002"><a xlink:title=" ">
<path fill="none" stroke="#63b8ff" d="M452.48,-165.3C498.52,-152.83 583.99,-129.77 657,-110.5 699.66,-99.24 748.34,-86.63 783,-77.7"/>
<polygon fill="#63b8ff" stroke="#63b8ff" points="783.45,-81.2 792.26,-75.31 781.71,-74.42 783.45,-81.2"/>
</a>
</g>
</g>
<!-- Node13&#45;&gt;Node8 -->
<g id="edge24_Node000013_Node000008" class="edge">
<title>Node13&#45;&gt;Node8</title>
<g id="a_edge24_Node000013_Node000008"><a xlink:title=" ">
<path fill="none" stroke="#63b8ff" d="M372.75,-166.29C351.68,-160.05 328.67,-149.05 316,-129.75 307.24,-116.4 312.33,-98.45 318.69,-84.97"/>
<polygon fill="#63b8ff" stroke="#63b8ff" points="321.73,-86.71 323.35,-76.24 315.56,-83.41 321.73,-86.71"/>
</a>
</g>
</g>
<!-- Node13&#45;&gt;Node11 -->
<g id="edge26_Node000013_Node000011" class="edge">
<title>Node13&#45;&gt;Node11</title>
<g id="a_edge26_Node000013_Node000011"><a xlink:title=" ">
<path fill="none" stroke="#63b8ff" d="M431.81,-165.54C442.67,-157.42 457.88,-144.44 467,-129.75 475.32,-116.34 480.17,-99.09 482.88,-85.89"/>
<polygon fill="#63b8ff" stroke="#63b8ff" points="486.3,-86.69 484.61,-76.23 479.4,-85.46 486.3,-86.69"/>
</a>
</g>
</g>
<!-- Node14 -->
<g id="Node000014" class="node">
<title>Node14</title>
<g id="a_Node000014"><a xlink:href="../../d8/d32/_type_traits_8hpp.html" target="_top" xlink:title=" ">
<polygon fill="white" stroke="#666666" points="225.5,-129.75 104.5,-129.75 104.5,-110.5 225.5,-110.5 225.5,-129.75"/>
<text text-anchor="middle" x="165" y="-116.25" font-family="Helvetica,sans-Serif" font-size="10.00">mimic++/TypeTraits.hpp</text>
</a>
</g>
</g>
<!-- Node13&#45;&gt;Node14 -->
<g id="edge16_Node000013_Node000014" class="edge">
<title>Node13&#45;&gt;Node14</title>
<g id="a_edge16_Node000013_Node000014"><a xlink:title=" ">
<path fill="none" stroke="#63b8ff" d="M375.62,-165.28C332.43,-156.23 266,-142.3 219.32,-132.51"/>
<polygon fill="#63b8ff" stroke="#63b8ff" points="220.18,-129.12 209.68,-130.49 218.75,-135.97 220.18,-129.12"/>
</a>
</g>
</g>
<!-- Node13&#45;&gt;Node15 -->
<g id="edge25_Node000013_Node000015" class="edge">
<title>Node13&#45;&gt;Node15</title>
<g id="a_edge25_Node000013_Node000015"><a xlink:title=" ">
<path fill="none" stroke="#63b8ff" d="M395.28,-165.27C372.53,-156.45 337.26,-142.58 307,-129.75 267.5,-113 222.39,-92.47 193.82,-79.28"/>
<polygon fill="#63b8ff" stroke="#63b8ff" points="195.64,-76.27 185.09,-75.25 192.7,-82.62 195.64,-76.27"/>
</a>
</g>
</g>
<!-- Node13&#45;&gt;Node16 -->
<g id="edge18_Node000013_Node000016" class="edge">
<title>Node13&#45;&gt;Node16</title>
<g id="a_edge18_Node000013_Node000016"><a xlink:title=" ">
<path fill="none" stroke="#63b8ff" d="M417.18,-165.58C415.82,-158.99 413.9,-149.71 412.17,-141.32"/>
<polygon fill="#63b8ff" stroke="#63b8ff" points="415.61,-140.68 410.16,-131.59 408.76,-142.09 415.61,-140.68"/>
</a>
</g>
</g>
<!-- Node14&#45;&gt;Node15 -->
<g id="edge17_Node000014_Node000015" class="edge">
<title>Node14&#45;&gt;Node15</title>
<g id="a_edge17_Node000014_Node000015"><a xlink:title=" ">
<path fill="none" stroke="#63b8ff" d="M165,-110.33C165,-103.82 165,-94.67 165,-86.37"/>
<polygon fill="#63b8ff" stroke="#63b8ff" points="168.5,-86.37 165,-76.37 161.5,-86.37 168.5,-86.37"/>
</a>
</g>
</g>
<!-- Node16&#45;&gt;Node2 -->
<g id="edge19_Node000016_Node000002" class="edge">
<title>Node16&#45;&gt;Node2</title>
<g id="a_edge19_Node000016_Node000002"><a xlink:title=" ">
<path fill="none" stroke="#63b8ff" d="M458.36,-112.75C536.74,-102.84 687.5,-83.77 770.56,-73.27"/>
<polygon fill="#63b8ff" stroke="#63b8ff" points="770.83,-76.76 780.31,-72.03 769.95,-69.82 770.83,-76.76"/>
</a>
</g>
</g>
<!-- Node16&#45;&gt;Node5 -->
<g id="edge21_Node000016_Node000005" class="edge">
<title>Node16&#45;&gt;Node5</title>
<g id="a_edge21_Node000016_Node000005"><a xlink:title=" ">
<path fill="none" stroke="#63b8ff" d="M434.97,-110.09C462.47,-100.88 505.14,-86.59 534.49,-76.76"/>
<polygon fill="#63b8ff" stroke="#63b8ff" points="535.22,-80.21 543.59,-73.72 533,-73.57 535.22,-80.21"/>
</a>
</g>
</g>
<!-- Node16&#45;&gt;Node8 -->
<g id="edge22_Node000016_Node000008" class="edge">
<title>Node16&#45;&gt;Node8</title>
<g id="a_edge22_Node000016_Node000008"><a xlink:title=" ">
<path fill="none" stroke="#63b8ff" d="M394.77,-110.09C383.23,-102.21 366.23,-90.61 352.55,-81.27"/>
<polygon fill="#63b8ff" stroke="#63b8ff" points="354.78,-78.55 344.55,-75.81 350.83,-84.33 354.78,-78.55"/>
</a>
</g>
</g>
<!-- Node16&#45;&gt;Node11 -->
<g id="edge23_Node000016_Node000011" class="edge">
<title>Node16&#45;&gt;Node11</title>
<g id="a_edge23_Node000016_Node000011"><a xlink:title=" ">
<path fill="none" stroke="#63b8ff" d="M421.23,-110.09C432.77,-102.21 449.77,-90.61 463.45,-81.27"/>
<polygon fill="#63b8ff" stroke="#63b8ff" points="465.17,-84.33 471.45,-75.81 461.22,-78.55 465.17,-84.33"/>
</a>
</g>
</g>
<!-- Node16&#45;&gt;Node17 -->
<g id="edge20_Node000016_Node000017" class="edge">
<title>Node16&#45;&gt;Node17</title>
<g id="a_edge20_Node000016_Node000017"><a xlink:title=" ">
<path fill="none" stroke="#63b8ff" d="M357.58,-111.04C289.72,-100.15 170.72,-81.07 111.52,-71.57"/>
<polygon fill="#63b8ff" stroke="#63b8ff" points="112.44,-68.17 102.01,-70.05 111.33,-75.09 112.44,-68.17"/>
</a>
</g>
</g>
<!-- Node18&#45;&gt;Node2 -->
<g id="edge31_Node000018_Node000002" class="edge">
<title>Node18&#45;&gt;Node2</title>
<g id="a_edge31_Node000018_Node000002"><a xlink:title=" ">
<path fill="none" stroke="#63b8ff" d="M889.05,-220.67C896.84,-212.29 907.51,-198.98 912,-185 922.13,-153.48 928.99,-138.92 912,-110.5 903.34,-96.01 888.17,-85.95 873.16,-79.1"/>
<polygon fill="#63b8ff" stroke="#63b8ff" points="874.84,-76.01 864.27,-75.44 872.18,-82.49 874.84,-76.01"/>
</a>
</g>
</g>
<!-- Node18&#45;&gt;Node4 -->
<g id="edge32_Node000018_Node000004" class="edge">
<title>Node18&#45;&gt;Node4</title>
<g id="a_edge32_Node000018_Node000004"><a xlink:title=" ">
<path fill="none" stroke="#63b8ff" d="M825.01,-220.83C766.06,-211.4 672.58,-196.46 610.53,-186.53"/>
<polygon fill="#63b8ff" stroke="#63b8ff" points="611.24,-183.1 600.82,-184.98 610.14,-190.02 611.24,-183.1"/>
</a>
</g>
</g>
<!-- Node18&#45;&gt;Node6 -->
<g id="edge34_Node000018_Node000006" class="edge">
<title>Node18&#45;&gt;Node6</title>
<g id="a_edge34_Node000018_Node000006"><a xlink:title=" ">
<path fill="none" stroke="#63b8ff" d="M895.5,-220.52C909.18,-212.13 929.34,-198.91 945,-185 960.97,-170.81 976.8,-152.23 987.53,-138.77"/>
<polygon fill="#63b8ff" stroke="#63b8ff" points="990.04,-141.24 993.44,-131.2 984.53,-136.93 990.04,-141.24"/>
</a>
</g>
</g>
<!-- Node18&#45;&gt;Node7 -->
<g id="edge35_Node000018_Node000007" class="edge">
<title>Node18&#45;&gt;Node7</title>
<g id="a_edge35_Node000018_Node000007"><a xlink:title=" ">
<path fill="none" stroke="#63b8ff" d="M834.56,-220.51C798.05,-210.94 755.64,-193.4 774,-165.75 782.4,-153.1 818.21,-139.74 845.92,-130.97"/>
<polygon fill="#63b8ff" stroke="#63b8ff" points="846.83,-134.35 855.36,-128.06 844.78,-127.66 846.83,-134.35"/>
</a>
</g>
</g>
<!-- Node18&#45;&gt;Node13 -->
<g id="edge30_Node000018_Node000013" class="edge">
<title>Node18&#45;&gt;Node13</title>
<g id="a_edge30_Node000018_Node000013"><a xlink:title=" ">
<path fill="none" stroke="#63b8ff" d="M825.15,-223.68C749.01,-215.37 606.96,-199.64 486,-185 482.83,-184.62 479.59,-184.22 476.31,-183.81"/>
<polygon fill="#63b8ff" stroke="#63b8ff" points="476.98,-180.37 466.62,-182.59 476.11,-187.31 476.98,-180.37"/>
</a>
</g>
</g>
<!-- Node18&#45;&gt;Node19 -->
<g id="edge33_Node000018_Node000019" class="edge">
<title>Node18&#45;&gt;Node19</title>
<g id="a_edge33_Node000018_Node000019"><a xlink:title=" ">
<path fill="none" stroke="#63b8ff" d="M922.18,-220.53C968.57,-210.53 1042.52,-194.59 1087.72,-184.84"/>
<polygon fill="#63b8ff" stroke="#63b8ff" points="1088.32,-188.29 1097.36,-182.77 1086.84,-181.45 1088.32,-188.29"/>
</a>
</g>
</g>
<!-- Node18&#45;&gt;Node20 -->
<g id="edge36_Node000018_Node000020" class="edge">
<title>Node18&#45;&gt;Node20</title>
<g id="a_edge36_Node000018_Node000020"><a xlink:title=" ">
<path fill="none" stroke="#63b8ff" d="M849.8,-220.59C818.93,-211.35 770.96,-197 738.1,-187.17"/>
<polygon fill="#63b8ff" stroke="#63b8ff" points="739.19,-183.85 728.6,-184.33 737.18,-190.55 739.19,-183.85"/>
</a>
</g>
</g>
<!-- Node18&#45;&gt;Node21 -->
<g id="edge37_Node000018_Node000021" class="edge">
<title>Node18&#45;&gt;Node21</title>
<g id="a_edge37_Node000018_Node000021"><a xlink:title=" ">
<path fill="none" stroke="#63b8ff" d="M903.75,-220.59C926.45,-211.96 960.89,-198.86 986.4,-189.16"/>
<polygon fill="#63b8ff" stroke="#63b8ff" points="987.55,-192.46 995.65,-185.64 985.06,-185.92 987.55,-192.46"/>
</a>
</g>
</g>
<!-- Node22 -->
<g id="Node000022" class="node">
<title>Node22</title>
<g id="a_Node000022"><a xlink:title=" ">
<polygon fill="#e0e0e0" stroke="#999999" points="839.25,-185 782.75,-185 782.75,-165.75 839.25,-165.75 839.25,-185"/>
<text text-anchor="middle" x="811" y="-171.5" font-family="Helvetica,sans-Serif" font-size="10.00">typeindex</text>
</a>
</g>
</g>
<!-- Node18&#45;&gt;Node22 -->
<g id="edge38_Node000018_Node000022" class="edge">
<title>Node18&#45;&gt;Node22</title>
<g id="a_edge38_Node000018_Node000022"><a xlink:title=" ">
<path fill="none" stroke="#63b8ff" d="M868.3,-220.59C858.22,-212.82 843.46,-201.42 831.44,-192.15"/>
<polygon fill="#63b8ff" stroke="#63b8ff" points="833.79,-189.54 823.73,-186.2 829.51,-195.08 833.79,-189.54"/>
</a>
</g>
</g>
<!-- Node23 -->
<g id="Node000023" class="node">
<title>Node23</title>
<g id="a_Node000023"><a xlink:title=" ">
<polygon fill="#e0e0e0" stroke="#999999" points="902.62,-185 857.38,-185 857.38,-165.75 902.62,-165.75 902.62,-185"/>
<text text-anchor="middle" x="880" y="-171.5" font-family="Helvetica,sans-Serif" font-size="10.00">variant</text>
</a>
</g>
</g>
<!-- Node18&#45;&gt;Node23 -->
<g id="edge39_Node000018_Node000023" class="edge">
<title>Node18&#45;&gt;Node23</title>
<g id="a_edge39_Node000018_Node000023"><a xlink:title=" ">
<path fill="none" stroke="#63b8ff" d="M880,-220.83C880,-214.32 880,-205.17 880,-196.87"/>
<polygon fill="#63b8ff" stroke="#63b8ff" points="883.5,-196.87 880,-186.87 876.5,-196.87 883.5,-196.87"/>
</a>
</g>
</g>
<!-- Node18&#45;&gt;Node24 -->
<g id="edge40_Node000018_Node000024" class="edge">
<title>Node18&#45;&gt;Node24</title>
<g id="a_edge40_Node000018_Node000024"><a xlink:title=" ">
<path fill="none" stroke="#63b8ff" d="M831.78,-220.51C791.11,-212.59 731.12,-200.37 670.77,-185.57"/>
<polygon fill="#63b8ff" stroke="#63b8ff" points="671.92,-182.24 661.37,-183.24 670.24,-189.04 671.92,-182.24"/>
</a>
</g>
</g>
</g>
</svg>
