<?xml version="1.0" encoding="UTF-8" standalone="no"?>
<!DOCTYPE svg PUBLIC "-//W3C//DTD SVG 1.1//EN"
 "http://www.w3.org/Graphics/SVG/1.1/DTD/svg11.dtd">
<!-- Generated by graphviz version 12.1.2 (20240928.0832)
 -->
<!-- Title: mimic++/Sequence.hpp Pages: 1 -->
<!--zoomable 359 -->

<svg id="main" version="1.1" xmlns="http://www.w3.org/2000/svg" xmlns:xlink="http://www.w3.org/1999/xlink" xml:space="preserve" onload="init(evt)">

<style type="text/css"><![CDATA[
.node, .edge {opacity: 0.7;}
.node.selected, .edge.selected {opacity: 1;}
.edge:hover path { stroke: red; }
.edge:hover polygon { stroke: red; fill: red; }
]]></style>

<defs>
  <circle id="rim" cx="0" cy="0" r="7"/>
  <circle id="rim2" cx="0" cy="0" r="3.5"/>
  <g id="zoomPlus">
    <use xlink:href="#rim" fill="#404040"><set attributeName="fill" to="#808080" begin="zoomplus.mouseover" end="zoomplus.mouseout"/></use>
    <path d="M-4,0h8M0,-4v8" fill="none" stroke="white" stroke-width="1.5" pointer-events="none"/>
  </g>
  <g id="zoomMin">
    <use xlink:href="#rim" fill="#404040"><set attributeName="fill" to="#808080" begin="zoomminus.mouseover" end="zoomminus.mouseout"/></use>
    <path d="M-4,0h8" fill="none" stroke="white" stroke-width="1.5" pointer-events="none"/>
  </g>
  <g id="arrowUp" transform="translate(30 24)">
    <use xlink:href="#rim"/>
    <path pointer-events="none" fill="none" stroke="white" stroke-width="1.5" d="M0,-3.0v7 M-2.5,-0.5L0,-3.0L2.5,-0.5"/>
  </g>
  <g id="arrowRight" transform="rotate(90) translate(36 -43)">
    <use xlink:href="#rim"/>
    <path pointer-events="none" fill="none" stroke="white" stroke-width="1.5" d="M0,-3.0v7 M-2.5,-0.5L0,-3.0L2.5,-0.5"/>
  </g>
  <g id="arrowDown" transform="rotate(180) translate(-30 -48)">
    <use xlink:href="#rim"/>
    <path pointer-events="none" fill="none" stroke="white" stroke-width="1.5" d="M0,-3.0v7 M-2.5,-0.5L0,-3.0L2.5,-0.5"/>
  </g>
  <g id="arrowLeft" transform="rotate(270) translate(-36 17)">
    <use xlink:href="#rim"/>
    <path pointer-events="none" fill="none" stroke="white" stroke-width="1.5" d="M0,-3.0v7 M-2.5,-0.5L0,-3.0L2.5,-0.5"/>
  </g>
  <g id="resetDef">
    <use xlink:href="#rim2" fill="#404040"><set attributeName="fill" to="#808080" begin="reset.mouseover" end="reset.mouseout"/></use>
  </g>
</defs>
<script type="application/ecmascript">
var viewWidth = 1200;
var viewHeight = 359;
var sectionId = 'dynsection-0';
</script>
<script type="application/ecmascript" xlink:href="../../svg.min.js"/>
<svg id="graph" class="graph">
<g id="viewport">
<title>mimic++/Sequence.hpp</title>
<!-- Node1 -->
<g id="Node000001" class="node">
<title>Node1</title>
<g id="a_Node000001"><a xlink:title=" ">
<polygon fill="#999999" stroke="#666666" points="997.38,-350.75 878.62,-350.75 878.62,-331.5 997.38,-331.5 997.38,-350.75"/>
<text text-anchor="middle" x="938" y="-337.25" font-family="Helvetica,sans-Serif" font-size="10.00">mimic++/Sequence.hpp</text>
</a>
</g>
</g>
<!-- Node2 -->
<g id="Node000002" class="node">
<title>Node2</title>
<g id="a_Node000002"><a xlink:href="../../df/dde/_fwd_8hpp.html" target="_top" xlink:title=" ">
<polygon fill="white" stroke="#666666" points="334,-74.5 240,-74.5 240,-55.25 334,-55.25 334,-74.5"/>
<text text-anchor="middle" x="287" y="-61" font-family="Helvetica,sans-Serif" font-size="10.00">mimic++/Fwd.hpp</text>
</a>
</g>
</g>
<!-- Node1&#45;&gt;Node2 -->
<g id="edge1_Node000001_Node000002" class="edge">
<title>Node1&#45;&gt;Node2</title>
<g id="a_edge1_Node000001_Node000002"><a xlink:title=" ">
<path fill="none" stroke="#63b8ff" d="M878.32,-339.51C671.93,-336.6 1,-320.31 1,-231.62 1,-231.62 1,-231.62 1,-174.38 1,-131.26 35.42,-129.74 74,-110.5 122.83,-86.14 184.36,-75.07 228.72,-70.04"/>
<polygon fill="#63b8ff" stroke="#63b8ff" points="228.81,-73.55 238.38,-69.01 228.07,-66.59 228.81,-73.55"/>
</a>
</g>
</g>
<!-- Node4 -->
<g id="Node000004" class="node">
<title>Node4</title>
<g id="a_Node000004"><a xlink:href="../../da/dab/_printer_8hpp.html" target="_top" xlink:title=" ">
<polygon fill="white" stroke="#666666" points="224.88,-185 121.12,-185 121.12,-165.75 224.88,-165.75 224.88,-185"/>
<text text-anchor="middle" x="173" y="-171.5" font-family="Helvetica,sans-Serif" font-size="10.00">mimic++/Printer.hpp</text>
</a>
</g>
</g>
<!-- Node1&#45;&gt;Node4 -->
<g id="edge3_Node000001_Node000004" class="edge">
<title>Node1&#45;&gt;Node4</title>
<g id="a_edge3_Node000001_Node000004"><a xlink:title=" ">
<path fill="none" stroke="#63b8ff" d="M878.36,-339.76C717.65,-338.31 284.13,-331.1 231,-295.5 196.86,-272.63 182.13,-223.67 176.34,-196.17"/>
<polygon fill="#63b8ff" stroke="#63b8ff" points="179.84,-195.88 174.55,-186.7 172.97,-197.18 179.84,-195.88"/>
</a>
</g>
</g>
<!-- Node5 -->
<g id="Node000005" class="node">
<title>Node5</title>
<g id="a_Node000005"><a xlink:title=" ">
<polygon fill="#e0e0e0" stroke="#999999" points="454,-129.75 396,-129.75 396,-110.5 454,-110.5 454,-129.75"/>
<text text-anchor="middle" x="425" y="-116.25" font-family="Helvetica,sans-Serif" font-size="10.00">functional</text>
</a>
</g>
</g>
<!-- Node1&#45;&gt;Node5 -->
<g id="edge53_Node000001_Node000005" class="edge">
<title>Node1&#45;&gt;Node5</title>
<g id="a_edge53_Node000001_Node000005"><a xlink:title=" ">
<path fill="none" stroke="#63b8ff" d="M878.2,-339.45C737.8,-336.53 393.27,-321.09 318,-240.25 294.98,-215.53 283.65,-193.43 303,-165.75 312.71,-151.86 353.06,-138.9 384.73,-130.56"/>
<polygon fill="#63b8ff" stroke="#63b8ff" points="385.22,-134.05 394.04,-128.19 383.49,-127.27 385.22,-134.05"/>
</a>
</g>
</g>
<!-- Node12 -->
<g id="Node000012" class="node">
<title>Node12</title>
<g id="a_Node000012"><a xlink:href="../../da/dd9/_reporter_8hpp.html" target="_top" xlink:title=" ">
<polygon fill="white" stroke="#666666" points="597,-295.5 485,-295.5 485,-276.25 597,-276.25 597,-295.5"/>
<text text-anchor="middle" x="541" y="-282" font-family="Helvetica,sans-Serif" font-size="10.00">mimic++/Reporter.hpp</text>
</a>
</g>
</g>
<!-- Node1&#45;&gt;Node12 -->
<g id="edge13_Node000001_Node000012" class="edge">
<title>Node1&#45;&gt;Node12</title>
<g id="a_edge13_Node000001_Node000012"><a xlink:title=" ">
<path fill="none" stroke="#63b8ff" d="M878.14,-332.1C805.82,-322.4 684.46,-306.12 608.77,-295.97"/>
<polygon fill="#63b8ff" stroke="#63b8ff" points="609.37,-292.51 598.99,-294.65 608.44,-299.45 609.37,-292.51"/>
</a>
</g>
</g>
<!-- Node15 -->
<g id="Node000015" class="node">
<title>Node15</title>
<g id="a_Node000015"><a xlink:title=" ">
<polygon fill="#e0e0e0" stroke="#999999" points="974.5,-74.5 937.5,-74.5 937.5,-55.25 974.5,-55.25 974.5,-74.5"/>
<text text-anchor="middle" x="956" y="-61" font-family="Helvetica,sans-Serif" font-size="10.00">tuple</text>
</a>
</g>
</g>
<!-- Node1&#45;&gt;Node15 -->
<g id="edge55_Node000001_Node000015" class="edge">
<title>Node1&#45;&gt;Node15</title>
<g id="a_edge55_Node000001_Node000015"><a xlink:title=" ">
<path fill="none" stroke="#63b8ff" d="M944.97,-331.15C951.21,-322.54 959.99,-308.9 964,-295.5 986.35,-220.86 969.94,-126.44 960.9,-85.88"/>
<polygon fill="#63b8ff" stroke="#63b8ff" points="964.36,-85.31 958.68,-76.37 957.55,-86.9 964.36,-85.31"/>
</a>
</g>
</g>
<!-- Node16 -->
<g id="Node000016" class="node">
<title>Node16</title>
<g id="a_Node000016"><a xlink:href="../../d4/d2c/_utility_8hpp.html" target="_top" xlink:title=" ">
<polygon fill="white" stroke="#666666" points="928,-129.75 828,-129.75 828,-110.5 928,-110.5 928,-129.75"/>
<text text-anchor="middle" x="878" y="-116.25" font-family="Helvetica,sans-Serif" font-size="10.00">mimic++/Utility.hpp</text>
</a>
</g>
</g>
<!-- Node1&#45;&gt;Node16 -->
<g id="edge49_Node000001_Node000016" class="edge">
<title>Node1&#45;&gt;Node16</title>
<g id="a_edge49_Node000001_Node000016"><a xlink:title=" ">
<path fill="none" stroke="#63b8ff" d="M940.71,-331.12C948.26,-304.18 967.2,-222.56 938,-165.75 931.53,-153.16 919.68,-143.2 908.22,-135.91"/>
<polygon fill="#63b8ff" stroke="#63b8ff" points="910.09,-132.95 899.69,-130.95 906.58,-139 910.09,-132.95"/>
</a>
</g>
</g>
<!-- Node17 -->
<g id="Node000017" class="node">
<title>Node17</title>
<g id="a_Node000017"><a xlink:title=" ">
<polygon fill="#e0e0e0" stroke="#999999" points="1056.12,-74.5 1007.88,-74.5 1007.88,-55.25 1056.12,-55.25 1056.12,-74.5"/>
<text text-anchor="middle" x="1032" y="-61" font-family="Helvetica,sans-Serif" font-size="10.00">cassert</text>
</a>
</g>
</g>
<!-- Node1&#45;&gt;Node17 -->
<g id="edge52_Node000001_Node000017" class="edge">
<title>Node1&#45;&gt;Node17</title>
<g id="a_edge52_Node000001_Node000017"><a xlink:title=" ">
<path fill="none" stroke="#63b8ff" d="M966.86,-331.06C1005.98,-316.76 1071,-284.97 1071,-231.62 1071,-231.62 1071,-231.62 1071,-174.38 1071,-141.29 1054.74,-105.7 1043.22,-84.63"/>
<polygon fill="#63b8ff" stroke="#63b8ff" points="1046.34,-83.03 1038.34,-76.09 1040.26,-86.5 1046.34,-83.03"/>
</a>
</g>
</g>
<!-- Node19 -->
<g id="Node000019" class="node">
<title>Node19</title>
<g id="a_Node000019"><a xlink:title=" ">
<polygon fill="#e0e0e0" stroke="#999999" points="928.88,-185 873.12,-185 873.12,-165.75 928.88,-165.75 928.88,-185"/>
<text text-anchor="middle" x="901" y="-171.5" font-family="Helvetica,sans-Serif" font-size="10.00">algorithm</text>
</a>
</g>
</g>
<!-- Node1&#45;&gt;Node19 -->
<g id="edge50_Node000001_Node000019" class="edge">
<title>Node1&#45;&gt;Node19</title>
<g id="a_edge50_Node000001_Node000019"><a xlink:title=" ">
<path fill="none" stroke="#63b8ff" d="M936.01,-331.32C930.26,-305.89 913.53,-231.85 905.46,-196.12"/>
<polygon fill="#63b8ff" stroke="#63b8ff" points="908.95,-195.68 903.33,-186.7 902.12,-197.22 908.95,-195.68"/>
</a>
</g>
</g>
<!-- Node27 -->
<g id="Node000027" class="node">
<title>Node27</title>
<g id="a_Node000027"><a xlink:title=" ">
<polygon fill="#e0e0e0" stroke="#999999" points="1136.5,-295.5 1099.5,-295.5 1099.5,-276.25 1136.5,-276.25 1136.5,-295.5"/>
<text text-anchor="middle" x="1118" y="-282" font-family="Helvetica,sans-Serif" font-size="10.00">array</text>
</a>
</g>
</g>
<!-- Node1&#45;&gt;Node27 -->
<g id="edge51_Node000001_Node000027" class="edge">
<title>Node1&#45;&gt;Node27</title>
<g id="a_edge51_Node000001_Node000027"><a xlink:title=" ">
<path fill="none" stroke="#63b8ff" d="M968.53,-331.09C1002.09,-321.16 1055.61,-305.33 1088.68,-295.55"/>
<polygon fill="#63b8ff" stroke="#63b8ff" points="1089.41,-298.98 1098,-292.79 1087.42,-292.27 1089.41,-298.98"/>
</a>
</g>
</g>
<!-- Node28 -->
<g id="Node000028" class="node">
<title>Node28</title>
<g id="a_Node000028"><a xlink:title=" ">
<polygon fill="#e0e0e0" stroke="#999999" points="1191.5,-295.5 1154.5,-295.5 1154.5,-276.25 1191.5,-276.25 1191.5,-295.5"/>
<text text-anchor="middle" x="1173" y="-282" font-family="Helvetica,sans-Serif" font-size="10.00">span</text>
</a>
</g>
</g>
<!-- Node1&#45;&gt;Node28 -->
<g id="edge54_Node000001_Node000028" class="edge">
<title>Node1&#45;&gt;Node28</title>
<g id="a_edge54_Node000001_Node000028"><a xlink:title=" ">
<path fill="none" stroke="#63b8ff" d="M987.07,-331C1026.94,-323.28 1084.83,-311.35 1143.27,-296.04"/>
<polygon fill="#63b8ff" stroke="#63b8ff" points="1143.96,-299.48 1152.72,-293.53 1142.16,-292.72 1143.96,-299.48"/>
</a>
</g>
</g>
<!-- Node3 -->
<g id="Node000003" class="node">
<title>Node3</title>
<g id="a_Node000003"><a xlink:title=" ">
<polygon fill="#e0e0e0" stroke="#999999" points="40,-19.25 0,-19.25 0,0 40,0 40,-19.25"/>
<text text-anchor="middle" x="20" y="-5.75" font-family="Helvetica,sans-Serif" font-size="10.00">string</text>
</a>
</g>
</g>
<!-- Node2&#45;&gt;Node3 -->
<g id="edge2_Node000002_Node000003" class="edge">
<title>Node2&#45;&gt;Node3</title>
<g id="a_edge2_Node000002_Node000003"><a xlink:title=" ">
<path fill="none" stroke="#63b8ff" d="M241.4,-54.78C187.28,-43.99 98.47,-26.27 51.46,-16.9"/>
<polygon fill="#63b8ff" stroke="#63b8ff" points="52.16,-13.47 41.67,-14.95 50.79,-20.33 52.16,-13.47"/>
</a>
</g>
</g>
<!-- Node4&#45;&gt;Node2 -->
<g id="edge4_Node000004_Node000002" class="edge">
<title>Node4&#45;&gt;Node2</title>
<g id="a_edge4_Node000004_Node000002"><a xlink:title=" ">
<path fill="none" stroke="#63b8ff" d="M146.3,-165.33C117.39,-154.09 77.7,-133.56 96,-110.5 112.35,-89.9 178.5,-77.91 228.41,-71.64"/>
<polygon fill="#63b8ff" stroke="#63b8ff" points="228.73,-75.13 238.25,-70.46 227.9,-68.18 228.73,-75.13"/>
</a>
</g>
</g>
<!-- Node4&#45;&gt;Node3 -->
<g id="edge9_Node000004_Node000003" class="edge">
<title>Node4&#45;&gt;Node3</title>
<g id="a_edge9_Node000004_Node000003"><a xlink:title=" ">
<path fill="none" stroke="#63b8ff" d="M146.46,-165.27C128.06,-157.93 103.93,-146.12 87,-129.75 57.11,-100.85 36.74,-55.69 26.87,-30.08"/>
<polygon fill="#63b8ff" stroke="#63b8ff" points="30.24,-29.11 23.5,-20.94 23.68,-31.54 30.24,-29.11"/>
</a>
</g>
</g>
<!-- Node4&#45;&gt;Node5 -->
<g id="edge5_Node000004_Node000005" class="edge">
<title>Node4&#45;&gt;Node5</title>
<g id="a_edge5_Node000004_Node000005"><a xlink:title=" ">
<path fill="none" stroke="#63b8ff" d="M216.03,-165.28C263.21,-155.31 338.31,-139.44 384.46,-129.69"/>
<polygon fill="#63b8ff" stroke="#63b8ff" points="385,-133.16 394.06,-127.66 383.55,-126.31 385,-133.16"/>
</a>
</g>
</g>
<!-- Node6 -->
<g id="Node000006" class="node">
<title>Node6</title>
<g id="a_Node000006"><a xlink:title=" ">
<polygon fill="#e0e0e0" stroke="#999999" points="518,-129.75 472,-129.75 472,-110.5 518,-110.5 518,-129.75"/>
<text text-anchor="middle" x="495" y="-116.25" font-family="Helvetica,sans-Serif" font-size="10.00">iterator</text>
</a>
</g>
</g>
<!-- Node4&#45;&gt;Node6 -->
<g id="edge6_Node000004_Node000006" class="edge">
<title>Node4&#45;&gt;Node6</title>
<g id="a_edge6_Node000004_Node000006"><a xlink:title=" ">
<path fill="none" stroke="#63b8ff" d="M225.18,-168.11C281.08,-161.01 372.62,-148.26 460.41,-130.1"/>
<polygon fill="#63b8ff" stroke="#63b8ff" points="461.1,-133.53 470.17,-128.05 459.67,-126.68 461.1,-133.53"/>
</a>
</g>
</g>
<!-- Node7 -->
<g id="Node000007" class="node">
<title>Node7</title>
<g id="a_Node000007"><a xlink:title=" ">
<polygon fill="#e0e0e0" stroke="#999999" points="722.12,-74.5 637.88,-74.5 637.88,-55.25 722.12,-55.25 722.12,-74.5"/>
<text text-anchor="middle" x="680" y="-61" font-family="Helvetica,sans-Serif" font-size="10.00">source_location</text>
</a>
</g>
</g>
<!-- Node4&#45;&gt;Node7 -->
<g id="edge7_Node000004_Node000007" class="edge">
<title>Node4&#45;&gt;Node7</title>
<g id="a_edge7_Node000004_Node000007"><a xlink:title=" ">
<path fill="none" stroke="#63b8ff" d="M218.44,-165.3C253.99,-157.59 304.37,-145.3 347,-129.75 365.53,-122.99 368.14,-116.29 387,-110.5 487.49,-79.62 519.49,-90.75 626.17,-74.87"/>
<polygon fill="#63b8ff" stroke="#63b8ff" points="626.59,-78.35 635.94,-73.37 625.52,-71.43 626.59,-78.35"/>
</a>
</g>
</g>
<!-- Node8 -->
<g id="Node000008" class="node">
<title>Node8</title>
<g id="a_Node000008"><a xlink:title=" ">
<polygon fill="#e0e0e0" stroke="#999999" points="156.62,-129.75 105.38,-129.75 105.38,-110.5 156.62,-110.5 156.62,-129.75"/>
<text text-anchor="middle" x="131" y="-116.25" font-family="Helvetica,sans-Serif" font-size="10.00">sstream</text>
</a>
</g>
</g>
<!-- Node4&#45;&gt;Node8 -->
<g id="edge8_Node000004_Node000008" class="edge">
<title>Node4&#45;&gt;Node8</title>
<g id="a_edge8_Node000004_Node000008"><a xlink:title=" ">
<path fill="none" stroke="#63b8ff" d="M166.06,-165.58C160.38,-158.38 152.16,-147.96 145.11,-139.01"/>
<polygon fill="#63b8ff" stroke="#63b8ff" points="147.96,-136.98 139.02,-131.3 142.47,-141.32 147.96,-136.98"/>
</a>
</g>
</g>
<!-- Node9 -->
<g id="Node000009" class="node">
<title>Node9</title>
<g id="a_Node000009"><a xlink:title=" ">
<polygon fill="#e0e0e0" stroke="#999999" points="239.75,-129.75 174.25,-129.75 174.25,-110.5 239.75,-110.5 239.75,-129.75"/>
<text text-anchor="middle" x="207" y="-116.25" font-family="Helvetica,sans-Serif" font-size="10.00">string_view</text>
</a>
</g>
</g>
<!-- Node4&#45;&gt;Node9 -->
<g id="edge10_Node000004_Node000009" class="edge">
<title>Node4&#45;&gt;Node9</title>
<g id="a_edge10_Node000004_Node000009"><a xlink:title=" ">
<path fill="none" stroke="#63b8ff" d="M178.61,-165.58C183.12,-158.53 189.59,-148.4 195.21,-139.58"/>
<polygon fill="#63b8ff" stroke="#63b8ff" points="198.02,-141.7 200.45,-131.38 192.12,-137.93 198.02,-141.7"/>
</a>
</g>
</g>
<!-- Node10 -->
<g id="Node000010" class="node">
<title>Node10</title>
<g id="a_Node000010"><a xlink:title=" ">
<polygon fill="#e0e0e0" stroke="#999999" points="620.25,-74.5 581.75,-74.5 581.75,-55.25 620.25,-55.25 620.25,-74.5"/>
<text text-anchor="middle" x="601" y="-61" font-family="Helvetica,sans-Serif" font-size="10.00">utility</text>
</a>
</g>
</g>
<!-- Node4&#45;&gt;Node10 -->
<g id="edge11_Node000004_Node000010" class="edge">
<title>Node4&#45;&gt;Node10</title>
<g id="a_edge11_Node000004_Node000010"><a xlink:title=" ">
<path fill="none" stroke="#63b8ff" d="M204.3,-165.31C232.49,-156.9 274.92,-143.61 311,-129.75 330.55,-122.24 334,-116.68 354,-110.5 429.83,-87.06 522.79,-74.38 570.12,-69.02"/>
<polygon fill="#63b8ff" stroke="#63b8ff" points="570.34,-72.52 579.9,-67.95 569.58,-65.56 570.34,-72.52"/>
</a>
</g>
</g>
<!-- Node11 -->
<g id="Node000011" class="node">
<title>Node11</title>
<g id="a_Node000011"><a xlink:title=" ">
<polygon fill="#e0e0e0" stroke="#999999" points="301.88,-129.75 258.12,-129.75 258.12,-110.5 301.88,-110.5 301.88,-129.75"/>
<text text-anchor="middle" x="280" y="-116.25" font-family="Helvetica,sans-Serif" font-size="10.00">format</text>
</a>
</g>
</g>
<!-- Node4&#45;&gt;Node11 -->
<g id="edge12_Node000004_Node000011" class="edge">
<title>Node4&#45;&gt;Node11</title>
<g id="a_edge12_Node000004_Node000011"><a xlink:title=" ">
<path fill="none" stroke="#63b8ff" d="M191.15,-165.34C207.68,-157.12 232.34,-144.84 251.5,-135.31"/>
<polygon fill="#63b8ff" stroke="#63b8ff" points="253.01,-138.47 260.4,-130.88 249.89,-132.2 253.01,-138.47"/>
</a>
</g>
</g>
<!-- Node12&#45;&gt;Node2 -->
<g id="edge27_Node000012_Node000002" class="edge">
<title>Node12&#45;&gt;Node2</title>
<g id="a_edge27_Node000012_Node000002"><a xlink:title=" ">
<path fill="none" stroke="#63b8ff" d="M484.8,-278.8C381.16,-266.49 165.61,-235.44 112,-185 86.56,-161.07 65.16,-137.75 87,-110.5 104.52,-88.65 176.14,-76.79 228.69,-70.91"/>
<polygon fill="#63b8ff" stroke="#63b8ff" points="228.84,-74.41 238.41,-69.87 228.1,-67.45 228.84,-74.41"/>
</a>
</g>
</g>
<!-- Node12&#45;&gt;Node4 -->
<g id="edge28_Node000012_Node000004" class="edge">
<title>Node12&#45;&gt;Node4</title>
<g id="a_edge28_Node000012_Node000004"><a xlink:title=" ">
<path fill="none" stroke="#63b8ff" d="M484.67,-278.26C436.63,-271.65 366.15,-259.63 307,-240.25 267.61,-227.34 224.82,-205.44 198.45,-190.94"/>
<polygon fill="#63b8ff" stroke="#63b8ff" points="200.3,-187.96 189.86,-186.15 196.89,-194.08 200.3,-187.96"/>
</a>
</g>
</g>
<!-- Node12&#45;&gt;Node5 -->
<g id="edge44_Node000012_Node000005" class="edge">
<title>Node12&#45;&gt;Node5</title>
<g id="a_edge44_Node000012_Node000005"><a xlink:title=" ">
<path fill="none" stroke="#63b8ff" d="M484.64,-284.64C441.19,-281.76 381.68,-271.66 340,-240.25 317.69,-223.43 316.88,-212.08 310,-185 307.89,-176.71 305.17,-172.81 310,-165.75 318.85,-152.82 355.15,-140.1 384.63,-131.56"/>
<polygon fill="#63b8ff" stroke="#63b8ff" points="385.38,-134.99 394.06,-128.91 383.49,-128.25 385.38,-134.99"/>
</a>
</g>
</g>
<!-- Node13 -->
<g id="Node000013" class="node">
<title>Node13</title>
<g id="a_Node000013"><a xlink:href="../../dc/d44/_call_8hpp.html" target="_top" xlink:title=" ">
<polygon fill="white" stroke="#666666" points="794.88,-185 703.12,-185 703.12,-165.75 794.88,-165.75 794.88,-185"/>
<text text-anchor="middle" x="749" y="-171.5" font-family="Helvetica,sans-Serif" font-size="10.00">mimic++/Call.hpp</text>
</a>
</g>
</g>
<!-- Node12&#45;&gt;Node13 -->
<g id="edge14_Node000012_Node000013" class="edge">
<title>Node12&#45;&gt;Node13</title>
<g id="a_edge14_Node000012_Node000013"><a xlink:title=" ">
<path fill="none" stroke="#63b8ff" d="M593.39,-275.82C622.75,-269.12 659.15,-258 688,-240.25 707.52,-228.24 725.05,-208.47 736.25,-194.1"/>
<polygon fill="#63b8ff" stroke="#63b8ff" points="738.83,-196.49 742.03,-186.39 733.23,-192.29 738.83,-196.49"/>
</a>
</g>
</g>
<!-- Node12&#45;&gt;Node17 -->
<g id="edge42_Node000012_Node000017" class="edge">
<title>Node12&#45;&gt;Node17</title>
<g id="a_edge42_Node000012_Node000017"><a xlink:title=" ">
<path fill="none" stroke="#63b8ff" d="M597.48,-283.58C679.83,-279.05 834.32,-260.25 938,-185 976.06,-157.38 1006.74,-110.36 1021.84,-84.42"/>
<polygon fill="#63b8ff" stroke="#63b8ff" points="1024.7,-86.46 1026.58,-76.03 1018.61,-83.02 1024.7,-86.46"/>
</a>
</g>
</g>
<!-- Node18 -->
<g id="Node000018" class="node">
<title>Node18</title>
<g id="a_Node000018"><a xlink:href="../../d0/d3b/_reports_8hpp.html" target="_top" xlink:title=" ">
<polygon fill="white" stroke="#666666" points="678.5,-240.25 569.5,-240.25 569.5,-221 678.5,-221 678.5,-240.25"/>
<text text-anchor="middle" x="624" y="-226.75" font-family="Helvetica,sans-Serif" font-size="10.00">mimic++/Reports.hpp</text>
</a>
</g>
</g>
<!-- Node12&#45;&gt;Node18 -->
<g id="edge29_Node000012_Node000018" class="edge">
<title>Node12&#45;&gt;Node18</title>
<g id="a_edge29_Node000012_Node000018"><a xlink:title=" ">
<path fill="none" stroke="#63b8ff" d="M555.08,-275.84C567.48,-267.89 585.79,-256.14 600.43,-246.75"/>
<polygon fill="#63b8ff" stroke="#63b8ff" points="602.05,-249.87 608.58,-241.52 598.27,-243.97 602.05,-249.87"/>
</a>
</g>
</g>
<!-- Node12&#45;&gt;Node19 -->
<g id="edge41_Node000012_Node000019" class="edge">
<title>Node12&#45;&gt;Node19</title>
<g id="a_edge41_Node000012_Node000019"><a xlink:title=" ">
<path fill="none" stroke="#63b8ff" d="M596.19,-275.82C638.31,-268.23 697.49,-256.09 748,-240.25 792.52,-226.29 842,-204.4 872.31,-190.22"/>
<polygon fill="#63b8ff" stroke="#63b8ff" points="873.65,-193.46 881.2,-186.02 870.66,-187.13 873.65,-193.46"/>
</a>
</g>
</g>
<!-- Node20 -->
<g id="Node000020" class="node">
<title>Node20</title>
<g id="a_Node000020"><a xlink:title=" ">
<polygon fill="#e0e0e0" stroke="#999999" points="368.88,-185 319.12,-185 319.12,-165.75 368.88,-165.75 368.88,-185"/>
<text text-anchor="middle" x="344" y="-171.5" font-family="Helvetica,sans-Serif" font-size="10.00">optional</text>
</a>
</g>
</g>
<!-- Node12&#45;&gt;Node20 -->
<g id="edge46_Node000012_Node000020" class="edge">
<title>Node12&#45;&gt;Node20</title>
<g id="a_edge46_Node000012_Node000020"><a xlink:title=" ">
<path fill="none" stroke="#63b8ff" d="M535.45,-276.09C526.35,-262.37 506.94,-235.88 484,-221 466.72,-209.79 415.51,-194.96 380.07,-185.54"/>
<polygon fill="#63b8ff" stroke="#63b8ff" points="381.2,-182.22 370.64,-183.07 379.43,-188.99 381.2,-182.22"/>
</a>
</g>
</g>
<!-- Node21 -->
<g id="Node000021" class="node">
<title>Node21</title>
<g id="a_Node000021"><a xlink:title=" ">
<polygon fill="#e0e0e0" stroke="#999999" points="432.62,-185 387.38,-185 387.38,-165.75 432.62,-165.75 432.62,-185"/>
<text text-anchor="middle" x="410" y="-171.5" font-family="Helvetica,sans-Serif" font-size="10.00">ranges</text>
</a>
</g>
</g>
<!-- Node12&#45;&gt;Node21 -->
<g id="edge47_Node000012_Node000021" class="edge">
<title>Node12&#45;&gt;Node21</title>
<g id="a_edge47_Node000012_Node000021"><a xlink:title=" ">
<path fill="none" stroke="#63b8ff" d="M539.9,-275.84C537.79,-262.25 531.97,-236.52 517,-221 506.44,-210.05 471.04,-196.47 443.82,-187.19"/>
<polygon fill="#63b8ff" stroke="#63b8ff" points="445.15,-183.94 434.55,-184.09 442.93,-190.58 445.15,-183.94"/>
</a>
</g>
</g>
<!-- Node24 -->
<g id="Node000024" class="node">
<title>Node24</title>
<g id="a_Node000024"><a xlink:title=" ">
<polygon fill="#e0e0e0" stroke="#999999" points="855.5,-185 812.5,-185 812.5,-165.75 855.5,-165.75 855.5,-185"/>
<text text-anchor="middle" x="834" y="-171.5" font-family="Helvetica,sans-Serif" font-size="10.00">vector</text>
</a>
</g>
</g>
<!-- Node12&#45;&gt;Node24 -->
<g id="edge48_Node000012_Node000024" class="edge">
<title>Node12&#45;&gt;Node24</title>
<g id="a_edge48_Node000012_Node000024"><a xlink:title=" ">
<path fill="none" stroke="#63b8ff" d="M587.91,-275.79C623.02,-268.25 671.87,-256.19 713,-240.25 748.11,-226.64 786.14,-205.39 810.01,-191.18"/>
<polygon fill="#63b8ff" stroke="#63b8ff" points="811.57,-194.33 818.32,-186.17 807.95,-188.33 811.57,-194.33"/>
</a>
</g>
</g>
<!-- Node25 -->
<g id="Node000025" class="node">
<title>Node25</title>
<g id="a_Node000025"><a xlink:title=" ">
<polygon fill="#e0e0e0" stroke="#999999" points="406.62,-240.25 349.38,-240.25 349.38,-221 406.62,-221 406.62,-240.25"/>
<text text-anchor="middle" x="378" y="-226.75" font-family="Helvetica,sans-Serif" font-size="10.00">exception</text>
</a>
</g>
</g>
<!-- Node12&#45;&gt;Node25 -->
<g id="edge43_Node000012_Node000025" class="edge">
<title>Node12&#45;&gt;Node25</title>
<g id="a_edge43_Node000012_Node000025"><a xlink:title=" ">
<path fill="none" stroke="#63b8ff" d="M513.35,-275.84C486.77,-267.16 446.36,-253.96 416.61,-244.24"/>
<polygon fill="#63b8ff" stroke="#63b8ff" points="417.82,-240.95 407.23,-241.17 415.64,-247.6 417.82,-240.95"/>
</a>
</g>
</g>
<!-- Node26 -->
<g id="Node000026" class="node">
<title>Node26</title>
<g id="a_Node000026"><a xlink:title=" ">
<polygon fill="#e0e0e0" stroke="#999999" points="475.25,-240.25 424.75,-240.25 424.75,-221 475.25,-221 475.25,-240.25"/>
<text text-anchor="middle" x="450" y="-226.75" font-family="Helvetica,sans-Serif" font-size="10.00">memory</text>
</a>
</g>
</g>
<!-- Node12&#45;&gt;Node26 -->
<g id="edge45_Node000012_Node000026" class="edge">
<title>Node12&#45;&gt;Node26</title>
<g id="a_edge45_Node000012_Node000026"><a xlink:title=" ">
<path fill="none" stroke="#63b8ff" d="M525.56,-275.84C511.84,-267.81 491.5,-255.91 475.38,-246.48"/>
<polygon fill="#63b8ff" stroke="#63b8ff" points="477.22,-243.5 466.82,-241.47 473.68,-249.54 477.22,-243.5"/>
</a>
</g>
</g>
<!-- Node13&#45;&gt;Node2 -->
<g id="edge15_Node000013_Node000002" class="edge">
<title>Node13&#45;&gt;Node2</title>
<g id="a_edge15_Node000013_Node000002"><a xlink:title=" ">
<path fill="none" stroke="#63b8ff" d="M726.09,-165.27C690.89,-151.59 621.17,-125.73 560,-110.5 487.12,-92.36 401.41,-79.73 345.74,-72.65"/>
<polygon fill="#63b8ff" stroke="#63b8ff" points="346.19,-69.18 335.84,-71.41 345.32,-76.12 346.19,-69.18"/>
</a>
</g>
</g>
<!-- Node13&#45;&gt;Node7 -->
<g id="edge24_Node000013_Node000007" class="edge">
<title>Node13&#45;&gt;Node7</title>
<g id="a_edge24_Node000013_Node000007"><a xlink:title=" ">
<path fill="none" stroke="#63b8ff" d="M723.84,-165.39C708.17,-158.32 689.27,-146.79 680,-129.75 672.77,-116.46 673.24,-99.2 675.27,-85.97"/>
<polygon fill="#63b8ff" stroke="#63b8ff" points="678.68,-86.76 677.18,-76.27 671.81,-85.4 678.68,-86.76"/>
</a>
</g>
</g>
<!-- Node13&#45;&gt;Node10 -->
<g id="edge26_Node000013_Node000010" class="edge">
<title>Node13&#45;&gt;Node10</title>
<g id="a_edge26_Node000013_Node000010"><a xlink:title=" ">
<path fill="none" stroke="#63b8ff" d="M730.65,-165.34C714.39,-157 690.29,-143.81 671,-129.75 651.37,-115.44 631.09,-96.39 617.45,-82.83"/>
<polygon fill="#63b8ff" stroke="#63b8ff" points="620.1,-80.53 610.58,-75.89 615.13,-85.46 620.1,-80.53"/>
</a>
</g>
</g>
<!-- Node14 -->
<g id="Node000014" class="node">
<title>Node14</title>
<g id="a_Node000014"><a xlink:href="../../d8/d32/_type_traits_8hpp.html" target="_top" xlink:title=" ">
<polygon fill="white" stroke="#666666" points="809.5,-129.75 688.5,-129.75 688.5,-110.5 809.5,-110.5 809.5,-129.75"/>
<text text-anchor="middle" x="749" y="-116.25" font-family="Helvetica,sans-Serif" font-size="10.00">mimic++/TypeTraits.hpp</text>
</a>
</g>
</g>
<!-- Node13&#45;&gt;Node14 -->
<g id="edge16_Node000013_Node000014" class="edge">
<title>Node13&#45;&gt;Node14</title>
<g id="a_edge16_Node000013_Node000014"><a xlink:title=" ">
<path fill="none" stroke="#63b8ff" d="M749,-165.58C749,-159.07 749,-149.92 749,-141.62"/>
<polygon fill="#63b8ff" stroke="#63b8ff" points="752.5,-141.62 749,-131.62 745.5,-141.62 752.5,-141.62"/>
</a>
</g>
</g>
<!-- Node13&#45;&gt;Node15 -->
<g id="edge25_Node000013_Node000015" class="edge">
<title>Node13&#45;&gt;Node15</title>
<g id="a_edge25_Node000013_Node000015"><a xlink:title=" ">
<path fill="none" stroke="#63b8ff" d="M795.35,-165.88C847.6,-155.91 926.67,-139.52 937,-129.75 948.96,-118.44 953.5,-99.96 955.17,-85.79"/>
<polygon fill="#63b8ff" stroke="#63b8ff" points="958.62,-86.47 955.89,-76.23 951.64,-85.93 958.62,-86.47"/>
</a>
</g>
</g>
<!-- Node13&#45;&gt;Node16 -->
<g id="edge19_Node000013_Node000016" class="edge">
<title>Node13&#45;&gt;Node16</title>
<g id="a_edge19_Node000013_Node000016"><a xlink:title=" ">
<path fill="none" stroke="#63b8ff" d="M770.88,-165.34C791.36,-156.89 822.21,-144.15 845.56,-134.52"/>
<polygon fill="#63b8ff" stroke="#63b8ff" points="846.7,-137.83 854.61,-130.78 844.03,-131.36 846.7,-137.83"/>
</a>
</g>
</g>
<!-- Node14&#45;&gt;Node2 -->
<g id="edge17_Node000014_Node000002" class="edge">
<title>Node14&#45;&gt;Node2</title>
<g id="a_edge17_Node000014_Node000002"><a xlink:title=" ">
<path fill="none" stroke="#63b8ff" d="M688.13,-112.11C598.9,-101.82 433.69,-82.78 345.71,-72.64"/>
<polygon fill="#63b8ff" stroke="#63b8ff" points="346.18,-69.17 335.84,-71.5 345.38,-76.13 346.18,-69.17"/>
</a>
</g>
</g>
<!-- Node14&#45;&gt;Node15 -->
<g id="edge18_Node000014_Node000015" class="edge">
<title>Node14&#45;&gt;Node15</title>
<g id="a_edge18_Node000014_Node000015"><a xlink:title=" ">
<path fill="none" stroke="#63b8ff" d="M784.11,-110.09C824.15,-99.79 888.9,-83.14 926.45,-73.48"/>
<polygon fill="#63b8ff" stroke="#63b8ff" points="926.9,-76.98 935.71,-71.09 925.16,-70.2 926.9,-76.98"/>
</a>
</g>
</g>
<!-- Node16&#45;&gt;Node2 -->
<g id="edge20_Node000016_Node000002" class="edge">
<title>Node16&#45;&gt;Node2</title>
<g id="a_edge20_Node000016_Node000002"><a xlink:title=" ">
<path fill="none" stroke="#63b8ff" d="M827.82,-111.57C824.84,-111.19 821.88,-110.83 819,-110.5 647.57,-90.8 444.1,-76.15 345.87,-69.63"/>
<polygon fill="#63b8ff" stroke="#63b8ff" points="346.14,-66.14 335.94,-68.97 345.68,-73.12 346.14,-66.14"/>
</a>
</g>
</g>
<!-- Node16&#45;&gt;Node7 -->
<g id="edge22_Node000016_Node000007" class="edge">
<title>Node16&#45;&gt;Node7</title>
<g id="a_edge22_Node000016_Node000007"><a xlink:title=" ">
<path fill="none" stroke="#63b8ff" d="M844.41,-110.09C811.42,-101.22 760.87,-87.62 724.54,-77.85"/>
<polygon fill="#63b8ff" stroke="#63b8ff" points="725.78,-74.56 715.21,-75.35 723.96,-81.32 725.78,-74.56"/>
</a>
</g>
</g>
<!-- Node16&#45;&gt;Node10 -->
<g id="edge23_Node000016_Node000010" class="edge">
<title>Node16&#45;&gt;Node10</title>
<g id="a_edge23_Node000016_Node000010"><a xlink:title=" ">
<path fill="none" stroke="#63b8ff" d="M827.56,-110.83C770.63,-101.35 680.48,-85.94 631.46,-74.8"/>
<polygon fill="#63b8ff" stroke="#63b8ff" points="632.51,-71.46 621.97,-72.56 630.9,-78.27 632.51,-71.46"/>
</a>
</g>
</g>
<!-- Node16&#45;&gt;Node17 -->
<g id="edge21_Node000016_Node000017" class="edge">
<title>Node16&#45;&gt;Node17</title>
<g id="a_edge21_Node000016_Node000017"><a xlink:title=" ">
<path fill="none" stroke="#63b8ff" d="M904.12,-110.09C929.73,-101.24 968.92,-87.69 997.17,-77.92"/>
<polygon fill="#63b8ff" stroke="#63b8ff" points="998.04,-81.32 1006.35,-74.74 995.76,-74.7 998.04,-81.32"/>
</a>
</g>
</g>
<!-- Node18&#45;&gt;Node2 -->
<g id="edge31_Node000018_Node000002" class="edge">
<title>Node18&#45;&gt;Node2</title>
<g id="a_edge31_Node000018_Node000002"><a xlink:title=" ">
<path fill="none" stroke="#63b8ff" d="M572.03,-220.58C551.62,-214.21 530.2,-203.38 518,-185 499.55,-157.22 548.32,-136.15 527,-110.5 504.4,-83.31 409.29,-72.6 345.81,-68.45"/>
<polygon fill="#63b8ff" stroke="#63b8ff" points="346.05,-64.96 335.85,-67.84 345.62,-71.94 346.05,-64.96"/>
</a>
</g>
</g>
<!-- Node18&#45;&gt;Node4 -->
<g id="edge32_Node000018_Node000004" class="edge">
<title>Node18&#45;&gt;Node4</title>
<g id="a_edge32_Node000018_Node000004"><a xlink:title=" ">
<path fill="none" stroke="#63b8ff" d="M569.15,-223.15C485.15,-213.23 325.08,-194.33 236.29,-183.85"/>
<polygon fill="#63b8ff" stroke="#63b8ff" points="236.88,-180.39 226.54,-182.7 236.06,-187.34 236.88,-180.39"/>
</a>
</g>
</g>
<!-- Node18&#45;&gt;Node5 -->
<g id="edge34_Node000018_Node000005" class="edge">
<title>Node18&#45;&gt;Node5</title>
<g id="a_edge34_Node000018_Node000005"><a xlink:title=" ">
<path fill="none" stroke="#63b8ff" d="M576.05,-220.55C547.99,-213.75 512.74,-202.54 485,-185 465.77,-172.85 448.54,-153.1 437.53,-138.78"/>
<polygon fill="#63b8ff" stroke="#63b8ff" points="440.61,-137.07 431.85,-131.11 434.99,-141.23 440.61,-137.07"/>
</a>
</g>
</g>
<!-- Node18&#45;&gt;Node6 -->
<g id="edge35_Node000018_Node000006" class="edge">
<title>Node18&#45;&gt;Node6</title>
<g id="a_edge35_Node000018_Node000006"><a xlink:title=" ">
<path fill="none" stroke="#63b8ff" d="M634.36,-220.78C648.2,-207.88 669.51,-183.52 656,-165.75 640.75,-145.7 572.1,-132.32 529.51,-125.78"/>
<polygon fill="#63b8ff" stroke="#63b8ff" points="530.16,-122.34 519.76,-124.34 529.14,-129.26 530.16,-122.34"/>
</a>
</g>
</g>
<!-- Node18&#45;&gt;Node13 -->
<g id="edge30_Node000018_Node000013" class="edge">
<title>Node18&#45;&gt;Node13</title>
<g id="a_edge30_Node000018_Node000013"><a xlink:title=" ">
<path fill="none" stroke="#63b8ff" d="M645.2,-220.59C664.96,-212.18 694.67,-199.52 717.25,-189.9"/>
<polygon fill="#63b8ff" stroke="#63b8ff" points="718.47,-193.18 726.3,-186.05 715.73,-186.74 718.47,-193.18"/>
</a>
</g>
</g>
<!-- Node18&#45;&gt;Node19 -->
<g id="edge33_Node000018_Node000019" class="edge">
<title>Node18&#45;&gt;Node19</title>
<g id="a_edge33_Node000018_Node000019"><a xlink:title=" ">
<path fill="none" stroke="#63b8ff" d="M677.29,-220.58C723.74,-212.51 793.19,-200 861.74,-185.62"/>
<polygon fill="#63b8ff" stroke="#63b8ff" points="862.19,-189.1 871.25,-183.61 860.74,-182.25 862.19,-189.1"/>
</a>
</g>
</g>
<!-- Node18&#45;&gt;Node20 -->
<g id="edge36_Node000018_Node000020" class="edge">
<title>Node18&#45;&gt;Node20</title>
<g id="a_edge36_Node000018_Node000020"><a xlink:title=" ">
<path fill="none" stroke="#63b8ff" d="M569.07,-220.78C521.52,-212.86 450.66,-200.48 380.07,-185.33"/>
<polygon fill="#63b8ff" stroke="#63b8ff" points="381.2,-181.99 370.68,-183.3 379.72,-188.83 381.2,-181.99"/>
</a>
</g>
</g>
<!-- Node18&#45;&gt;Node21 -->
<g id="edge37_Node000018_Node000021" class="edge">
<title>Node18&#45;&gt;Node21</title>
<g id="a_edge37_Node000018_Node000021"><a xlink:title=" ">
<path fill="none" stroke="#63b8ff" d="M587.7,-220.59C547.52,-210.59 483.26,-194.61 444.02,-184.84"/>
<polygon fill="#63b8ff" stroke="#63b8ff" points="444.96,-181.47 434.41,-182.45 443.27,-188.26 444.96,-181.47"/>
</a>
</g>
</g>
<!-- Node22 -->
<g id="Node000022" class="node">
<title>Node22</title>
<g id="a_Node000022"><a xlink:title=" ">
<polygon fill="#e0e0e0" stroke="#999999" points="583.25,-185 526.75,-185 526.75,-165.75 583.25,-165.75 583.25,-185"/>
<text text-anchor="middle" x="555" y="-171.5" font-family="Helvetica,sans-Serif" font-size="10.00">typeindex</text>
</a>
</g>
</g>
<!-- Node18&#45;&gt;Node22 -->
<g id="edge38_Node000018_Node000022" class="edge">
<title>Node18&#45;&gt;Node22</title>
<g id="a_edge38_Node000018_Node000022"><a xlink:title=" ">
<path fill="none" stroke="#63b8ff" d="M612.3,-220.59C602.22,-212.82 587.46,-201.42 575.44,-192.15"/>
<polygon fill="#63b8ff" stroke="#63b8ff" points="577.79,-189.54 567.73,-186.2 573.51,-195.08 577.79,-189.54"/>
</a>
</g>
</g>
<!-- Node23 -->
<g id="Node000023" class="node">
<title>Node23</title>
<g id="a_Node000023"><a xlink:title=" ">
<polygon fill="#e0e0e0" stroke="#999999" points="646.62,-185 601.38,-185 601.38,-165.75 646.62,-165.75 646.62,-185"/>
<text text-anchor="middle" x="624" y="-171.5" font-family="Helvetica,sans-Serif" font-size="10.00">variant</text>
</a>
</g>
</g>
<!-- Node18&#45;&gt;Node23 -->
<g id="edge39_Node000018_Node000023" class="edge">
<title>Node18&#45;&gt;Node23</title>
<g id="a_edge39_Node000018_Node000023"><a xlink:title=" ">
<path fill="none" stroke="#63b8ff" d="M624,-220.83C624,-214.32 624,-205.17 624,-196.87"/>
<polygon fill="#63b8ff" stroke="#63b8ff" points="627.5,-196.87 624,-186.87 620.5,-196.87 627.5,-196.87"/>
</a>
</g>
</g>
<!-- Node18&#45;&gt;Node24 -->
<g id="edge40_Node000018_Node000024" class="edge">
<title>Node18&#45;&gt;Node24</title>
<g id="a_edge40_Node000018_Node000024"><a xlink:title=" ">
<path fill="none" stroke="#63b8ff" d="M662.38,-220.54C696.54,-212.37 748.13,-199.78 801.11,-185.71"/>
<polygon fill="#63b8ff" stroke="#63b8ff" points="801.85,-189.13 810.61,-183.17 800.04,-182.37 801.85,-189.13"/>
</a>
</g>
</g>
</g>
</svg>

<g id="navigator" transform="translate(0 0)" fill="#404254">
  <rect fill="#f2f5e9" fill-opacity="0.5" stroke="#606060" stroke-width=".5" x="0" y="0" width="60" height="60"/>
  <use id="zoomplus" xlink:href="#zoomPlus" x="17" y="9" onmousedown="handleZoom(evt,'in')"/>
  <use id="zoomminus" xlink:href="#zoomMin" x="42" y="9" onmousedown="handleZoom(evt,'out')"/>
  <use id="reset" xlink:href="#resetDef" x="30" y="36" onmousedown="handleReset()"/>
   <use id="arrowup" xlink:href="#arrowUp" x="0" y="0" onmousedown="handlePan(0,-1)"/>
  <use id="arrowright" xlink:href="#arrowRight" x="0" y="0" onmousedown="handlePan(1,0)"/>
  <use id="arrowdown" xlink:href="#arrowDown" x="0" y="0" onmousedown="handlePan(0,1)"/>
  <use id="arrowleft" xlink:href="#arrowLeft" x="0" y="0" onmousedown="handlePan(-1,0)"/>
</g>
<svg viewBox="0 0 15 15" width="100%" height="30px" preserveAspectRatio="xMaxYMin meet">
 <g id="arrow_out" transform="scale(0.3 0.3)">
  <a xlink:href="_sequence_8hpp__incl_org.svg" target="_base">
   <rect id="button" ry="5" rx="5" y="6" x="6" height="38" width="38"
        fill="#f2f5e9" fill-opacity="0.5" stroke="#606060" stroke-width="1.0"/>
   <path id="arrow"
     d="M 11.500037,31.436501 C 11.940474,20.09759 22.043105,11.32322 32.158766,21.979434 L 37.068811,17.246167 C 37.068811,17.246167 37.088388,32 37.088388,32 L 22.160133,31.978069 C 22.160133,31.978069 26.997745,27.140456 26.997745,27.140456 C 18.528582,18.264221 13.291696,25.230495 11.500037,31.436501 z"
     style="fill:#404040;"/>
  </a>
 </g>
</svg>

<style type='text/css'>
<![CDATA[
[data-mouse-over-selected='false'] { opacity: 0.7; }
[data-mouse-over-selected='true']  { opacity: 1.0; }
]]>
</style>
<script type="application/ecmascript"><![CDATA[
document.addEventListener('DOMContentLoaded', (event) => {
  highlightEdges();
  highlightAdjacentNodes();
});
]]></script>
</svg>
