<?xml version="1.0" encoding="UTF-8" standalone="no"?>
<!DOCTYPE svg PUBLIC "-//W3C//DTD SVG 1.1//EN"
 "http://www.w3.org/Graphics/SVG/1.1/DTD/svg11.dtd">
<!-- Generated by graphviz version 12.1.1 (20240910.0053)
 -->
<!-- Title: mimic++/Sequence.hpp Pages: 1 -->
<!--zoomable 359 -->

<svg id="main" version="1.1" xmlns="http://www.w3.org/2000/svg" xmlns:xlink="http://www.w3.org/1999/xlink" xml:space="preserve" onload="init(evt)">

<style type="text/css"><![CDATA[
.node, .edge {opacity: 0.7;}
.node.selected, .edge.selected {opacity: 1;}
.edge:hover path { stroke: red; }
.edge:hover polygon { stroke: red; fill: red; }
]]></style>

<defs>
  <circle id="rim" cx="0" cy="0" r="7"/>
  <circle id="rim2" cx="0" cy="0" r="3.5"/>
  <g id="zoomPlus">
    <use xlink:href="#rim" fill="#404040"><set attributeName="fill" to="#808080" begin="zoomplus.mouseover" end="zoomplus.mouseout"/></use>
    <path d="M-4,0h8M0,-4v8" fill="none" stroke="white" stroke-width="1.5" pointer-events="none"/>
  </g>
  <g id="zoomMin">
    <use xlink:href="#rim" fill="#404040"><set attributeName="fill" to="#808080" begin="zoomminus.mouseover" end="zoomminus.mouseout"/></use>
    <path d="M-4,0h8" fill="none" stroke="white" stroke-width="1.5" pointer-events="none"/>
  </g>
  <g id="arrowUp" transform="translate(30 24)">
    <use xlink:href="#rim"/>
    <path pointer-events="none" fill="none" stroke="white" stroke-width="1.5" d="M0,-3.0v7 M-2.5,-0.5L0,-3.0L2.5,-0.5"/>
  </g>
  <g id="arrowRight" transform="rotate(90) translate(36 -43)">
    <use xlink:href="#rim"/>
    <path pointer-events="none" fill="none" stroke="white" stroke-width="1.5" d="M0,-3.0v7 M-2.5,-0.5L0,-3.0L2.5,-0.5"/>
  </g>
  <g id="arrowDown" transform="rotate(180) translate(-30 -48)">
    <use xlink:href="#rim"/>
    <path pointer-events="none" fill="none" stroke="white" stroke-width="1.5" d="M0,-3.0v7 M-2.5,-0.5L0,-3.0L2.5,-0.5"/>
  </g>
  <g id="arrowLeft" transform="rotate(270) translate(-36 17)">
    <use xlink:href="#rim"/>
    <path pointer-events="none" fill="none" stroke="white" stroke-width="1.5" d="M0,-3.0v7 M-2.5,-0.5L0,-3.0L2.5,-0.5"/>
  </g>
  <g id="resetDef">
    <use xlink:href="#rim2" fill="#404040"><set attributeName="fill" to="#808080" begin="reset.mouseover" end="reset.mouseout"/></use>
  </g>
</defs>
<script type="application/ecmascript">
var viewWidth = 1101;
var viewHeight = 359;
var sectionId = 'dynsection-0';
</script>
<script type="application/ecmascript" xlink:href="../../svg.min.js"/>
<svg id="graph" class="graph">
<g id="viewport">
<title>mimic++/Sequence.hpp</title>
<!-- Node1 -->
<g id="Node000001" class="node">
<title>Node1</title>
<g id="a_Node000001"><a xlink:title=" ">
<polygon fill="#999999" stroke="#666666" points="900.38,-350.75 781.62,-350.75 781.62,-331.5 900.38,-331.5 900.38,-350.75"/>
<text text-anchor="middle" x="841" y="-337.25" font-family="Helvetica,sans-Serif" font-size="10.00">mimic++/Sequence.hpp</text>
</a>
</g>
</g>
<!-- Node2 -->
<g id="Node000002" class="node">
<title>Node2</title>
<g id="a_Node000002"><a xlink:href="../../df/dde/_fwd_8hpp.html" target="_top" xlink:title=" ">
<polygon fill="white" stroke="#666666" points="186,-74.5 92,-74.5 92,-55.25 186,-55.25 186,-74.5"/>
<text text-anchor="middle" x="139" y="-61" font-family="Helvetica,sans-Serif" font-size="10.00">mimic++/Fwd.hpp</text>
</a>
</g>
</g>
<!-- Node1&#45;&gt;Node2 -->
<g id="edge1_Node000001_Node000002" class="edge">
<title>Node1&#45;&gt;Node2</title>
<g id="a_edge1_Node000001_Node000002"><a xlink:title=" ">
<path fill="none" stroke="#63b8ff" d="M781.19,-338.7C589.06,-333.34 0,-310.48 0,-231.62 0,-231.62 0,-231.62 0,-174.38 0,-124.6 56.07,-94.28 96.99,-78.79"/>
<polygon fill="#63b8ff" stroke="#63b8ff" points="98.16,-82.09 106.38,-75.41 95.79,-75.5 98.16,-82.09"/>
</a>
</g>
</g>
<!-- Node4 -->
<g id="Node000004" class="node">
<title>Node4</title>
<g id="a_Node000004"><a xlink:href="../../da/dab/_printer_8hpp.html" target="_top" xlink:title=" ">
<polygon fill="white" stroke="#666666" points="389.88,-129.75 286.12,-129.75 286.12,-110.5 389.88,-110.5 389.88,-129.75"/>
<text text-anchor="middle" x="338" y="-116.25" font-family="Helvetica,sans-Serif" font-size="10.00">mimic++/Printer.hpp</text>
</a>
</g>
</g>
<!-- Node1&#45;&gt;Node4 -->
<g id="edge3_Node000001_Node000004" class="edge">
<title>Node1&#45;&gt;Node4</title>
<g id="a_edge3_Node000001_Node000004"><a xlink:title=" ">
<path fill="none" stroke="#63b8ff" d="M781.15,-338.97C614.75,-334.18 154.89,-309.68 95,-185 91.3,-177.29 89.52,-172.32 95,-165.75 117.44,-138.82 210.27,-128.09 274.47,-123.85"/>
<polygon fill="#63b8ff" stroke="#63b8ff" points="274.42,-127.36 284.19,-123.24 273.99,-120.37 274.42,-127.36"/>
</a>
</g>
</g>
<!-- Node11 -->
<g id="Node000011" class="node">
<title>Node11</title>
<g id="a_Node000011"><a xlink:href="../../da/dd9/_reporter_8hpp.html" target="_top" xlink:title=" ">
<polygon fill="white" stroke="#666666" points="506,-295.5 394,-295.5 394,-276.25 506,-276.25 506,-295.5"/>
<text text-anchor="middle" x="450" y="-282" font-family="Helvetica,sans-Serif" font-size="10.00">mimic++/Reporter.hpp</text>
</a>
</g>
</g>
<!-- Node1&#45;&gt;Node11 -->
<g id="edge12_Node000001_Node000011" class="edge">
<title>Node1&#45;&gt;Node11</title>
<g id="a_edge12_Node000001_Node000011"><a xlink:title=" ">
<path fill="none" stroke="#63b8ff" d="M781.19,-331.98C710.07,-322.29 591.69,-306.17 517.39,-296.05"/>
<polygon fill="#63b8ff" stroke="#63b8ff" points="518.19,-292.63 507.81,-294.75 517.25,-299.57 518.19,-292.63"/>
</a>
</g>
</g>
<!-- Node14 -->
<g id="Node000014" class="node">
<title>Node14</title>
<g id="a_Node000014"><a xlink:title=" ">
<polygon fill="#e0e0e0" stroke="#999999" points="805.5,-74.5 768.5,-74.5 768.5,-55.25 805.5,-55.25 805.5,-74.5"/>
<text text-anchor="middle" x="787" y="-61" font-family="Helvetica,sans-Serif" font-size="10.00">tuple</text>
</a>
</g>
</g>
<!-- Node1&#45;&gt;Node14 -->
<g id="edge54_Node000001_Node000014" class="edge">
<title>Node1&#45;&gt;Node14</title>
<g id="a_edge54_Node000001_Node000014"><a xlink:title=" ">
<path fill="none" stroke="#63b8ff" d="M857.2,-331.1C883.84,-314.92 934,-278.27 934,-231.62 934,-231.62 934,-231.62 934,-174.38 934,-116.7 859.84,-86.22 816.87,-73.4"/>
<polygon fill="#63b8ff" stroke="#63b8ff" points="817.95,-70.06 807.37,-70.72 816.05,-76.8 817.95,-70.06"/>
</a>
</g>
</g>
<!-- Node15 -->
<g id="Node000015" class="node">
<title>Node15</title>
<g id="a_Node000015"><a xlink:href="../../d4/d2c/_utility_8hpp.html" target="_top" xlink:title=" ">
<polygon fill="white" stroke="#666666" points="632,-129.75 532,-129.75 532,-110.5 632,-110.5 632,-129.75"/>
<text text-anchor="middle" x="582" y="-116.25" font-family="Helvetica,sans-Serif" font-size="10.00">mimic++/Utility.hpp</text>
</a>
</g>
</g>
<!-- Node1&#45;&gt;Node15 -->
<g id="edge48_Node000001_Node000015" class="edge">
<title>Node1&#45;&gt;Node15</title>
<g id="a_edge48_Node000001_Node000015"><a xlink:title=" ">
<path fill="none" stroke="#63b8ff" d="M844.42,-331.15C854.55,-302.85 881.18,-214.53 839,-165.75 826.31,-151.08 715.49,-136.06 643.57,-127.73"/>
<polygon fill="#63b8ff" stroke="#63b8ff" points="644.22,-124.28 633.89,-126.62 643.43,-131.23 644.22,-124.28"/>
</a>
</g>
</g>
<!-- Node16 -->
<g id="Node000016" class="node">
<title>Node16</title>
<g id="a_Node000016"><a xlink:title=" ">
<polygon fill="#e0e0e0" stroke="#999999" points="920.12,-74.5 871.88,-74.5 871.88,-55.25 920.12,-55.25 920.12,-74.5"/>
<text text-anchor="middle" x="896" y="-61" font-family="Helvetica,sans-Serif" font-size="10.00">cassert</text>
</a>
</g>
</g>
<!-- Node1&#45;&gt;Node16 -->
<g id="edge51_Node000001_Node000016" class="edge">
<title>Node1&#45;&gt;Node16</title>
<g id="a_edge51_Node000001_Node000016"><a xlink:title=" ">
<path fill="none" stroke="#63b8ff" d="M869.1,-331.05C907.59,-316.65 972,-284.63 972,-231.62 972,-231.62 972,-231.62 972,-174.38 972,-135.77 939.32,-101.14 916.82,-81.87"/>
<polygon fill="#63b8ff" stroke="#63b8ff" points="919.33,-79.41 909.38,-75.77 914.89,-84.82 919.33,-79.41"/>
</a>
</g>
</g>
<!-- Node18 -->
<g id="Node000018" class="node">
<title>Node18</title>
<g id="a_Node000018"><a xlink:title=" ">
<polygon fill="#e0e0e0" stroke="#999999" points="829.88,-185 774.12,-185 774.12,-165.75 829.88,-165.75 829.88,-185"/>
<text text-anchor="middle" x="802" y="-171.5" font-family="Helvetica,sans-Serif" font-size="10.00">algorithm</text>
</a>
</g>
</g>
<!-- Node1&#45;&gt;Node18 -->
<g id="edge49_Node000001_Node000018" class="edge">
<title>Node1&#45;&gt;Node18</title>
<g id="a_edge49_Node000001_Node000018"><a xlink:title=" ">
<path fill="none" stroke="#63b8ff" d="M838.9,-331.32C832.85,-305.89 815.21,-231.85 806.7,-196.12"/>
<polygon fill="#63b8ff" stroke="#63b8ff" points="810.18,-195.61 804.46,-186.69 803.37,-197.23 810.18,-195.61"/>
</a>
</g>
</g>
<!-- Node19 -->
<g id="Node000019" class="node">
<title>Node19</title>
<g id="a_Node000019"><a xlink:title=" ">
<polygon fill="#e0e0e0" stroke="#999999" points="756,-185 698,-185 698,-165.75 756,-165.75 756,-185"/>
<text text-anchor="middle" x="727" y="-171.5" font-family="Helvetica,sans-Serif" font-size="10.00">functional</text>
</a>
</g>
</g>
<!-- Node1&#45;&gt;Node19 -->
<g id="edge52_Node000001_Node000019" class="edge">
<title>Node1&#45;&gt;Node19</title>
<g id="a_edge52_Node000001_Node000019"><a xlink:title=" ">
<path fill="none" stroke="#63b8ff" d="M834.87,-331.32C816.86,-305.44 763.81,-229.25 739.47,-194.28"/>
<polygon fill="#63b8ff" stroke="#63b8ff" points="742.61,-192.67 734.02,-186.46 736.87,-196.67 742.61,-192.67"/>
</a>
</g>
</g>
<!-- Node27 -->
<g id="Node000027" class="node">
<title>Node27</title>
<g id="a_Node000027"><a xlink:title=" ">
<polygon fill="#e0e0e0" stroke="#999999" points="1037.5,-295.5 1000.5,-295.5 1000.5,-276.25 1037.5,-276.25 1037.5,-295.5"/>
<text text-anchor="middle" x="1019" y="-282" font-family="Helvetica,sans-Serif" font-size="10.00">array</text>
</a>
</g>
</g>
<!-- Node1&#45;&gt;Node27 -->
<g id="edge50_Node000001_Node000027" class="edge">
<title>Node1&#45;&gt;Node27</title>
<g id="a_edge50_Node000001_Node000027"><a xlink:title=" ">
<path fill="none" stroke="#63b8ff" d="M871.2,-331.09C904.2,-321.22 956.74,-305.5 989.48,-295.71"/>
<polygon fill="#63b8ff" stroke="#63b8ff" points="990.14,-299.16 998.72,-292.94 988.13,-292.46 990.14,-299.16"/>
</a>
</g>
</g>
<!-- Node28 -->
<g id="Node000028" class="node">
<title>Node28</title>
<g id="a_Node000028"><a xlink:title=" ">
<polygon fill="#e0e0e0" stroke="#999999" points="1092.5,-295.5 1055.5,-295.5 1055.5,-276.25 1092.5,-276.25 1092.5,-295.5"/>
<text text-anchor="middle" x="1074" y="-282" font-family="Helvetica,sans-Serif" font-size="10.00">span</text>
</a>
</g>
</g>
<!-- Node1&#45;&gt;Node28 -->
<g id="edge53_Node000001_Node000028" class="edge">
<title>Node1&#45;&gt;Node28</title>
<g id="a_edge53_Node000001_Node000028"><a xlink:title=" ">
<path fill="none" stroke="#63b8ff" d="M889.18,-331.05C928.67,-323.3 986.21,-311.33 1044.33,-296.03"/>
<polygon fill="#63b8ff" stroke="#63b8ff" points="1044.96,-299.49 1053.72,-293.53 1043.16,-292.72 1044.96,-299.49"/>
</a>
</g>
</g>
<!-- Node3 -->
<g id="Node000003" class="node">
<title>Node3</title>
<g id="a_Node000003"><a xlink:title=" ">
<polygon fill="#e0e0e0" stroke="#999999" points="196,-19.25 156,-19.25 156,0 196,0 196,-19.25"/>
<text text-anchor="middle" x="176" y="-5.75" font-family="Helvetica,sans-Serif" font-size="10.00">string</text>
</a>
</g>
</g>
<!-- Node2&#45;&gt;Node3 -->
<g id="edge2_Node000002_Node000003" class="edge">
<title>Node2&#45;&gt;Node3</title>
<g id="a_edge2_Node000002_Node000003"><a xlink:title=" ">
<path fill="none" stroke="#63b8ff" d="M145.11,-55.08C150.06,-47.96 157.2,-37.68 163.37,-28.8"/>
<polygon fill="#63b8ff" stroke="#63b8ff" points="166.06,-31.06 168.89,-20.85 160.31,-27.07 166.06,-31.06"/>
</a>
</g>
</g>
<!-- Node4&#45;&gt;Node2 -->
<g id="edge4_Node000004_Node000002" class="edge">
<title>Node4&#45;&gt;Node2</title>
<g id="a_edge4_Node000004_Node000002"><a xlink:title=" ">
<path fill="none" stroke="#63b8ff" d="M304.24,-110.09C271.08,-101.22 220.28,-87.62 183.76,-77.85"/>
<polygon fill="#63b8ff" stroke="#63b8ff" points="184.95,-74.55 174.39,-75.34 183.14,-81.31 184.95,-74.55"/>
</a>
</g>
</g>
<!-- Node4&#45;&gt;Node3 -->
<g id="edge9_Node000004_Node000003" class="edge">
<title>Node4&#45;&gt;Node3</title>
<g id="a_edge9_Node000004_Node000003"><a xlink:title=" ">
<path fill="none" stroke="#63b8ff" d="M307.21,-110.05C285.24,-102.66 255.7,-90.77 233,-74.5 215.31,-61.82 199.21,-42.74 188.66,-28.74"/>
<polygon fill="#63b8ff" stroke="#63b8ff" points="191.62,-26.86 182.91,-20.82 185.96,-30.97 191.62,-26.86"/>
</a>
</g>
</g>
<!-- Node5 -->
<g id="Node000005" class="node">
<title>Node5</title>
<g id="a_Node000005"><a xlink:title=" ">
<polygon fill="#e0e0e0" stroke="#999999" points="604.88,-74.5 561.12,-74.5 561.12,-55.25 604.88,-55.25 604.88,-74.5"/>
<text text-anchor="middle" x="583" y="-61" font-family="Helvetica,sans-Serif" font-size="10.00">format</text>
</a>
</g>
</g>
<!-- Node4&#45;&gt;Node5 -->
<g id="edge5_Node000004_Node000005" class="edge">
<title>Node4&#45;&gt;Node5</title>
<g id="a_edge5_Node000004_Node000005"><a xlink:title=" ">
<path fill="none" stroke="#63b8ff" d="M386.22,-110.01C427.27,-102.04 488.03,-89.75 549.6,-74.96"/>
<polygon fill="#63b8ff" stroke="#63b8ff" points="550.33,-78.38 559.22,-72.63 548.68,-71.58 550.33,-78.38"/>
</a>
</g>
</g>
<!-- Node6 -->
<g id="Node000006" class="node">
<title>Node6</title>
<g id="a_Node000006"><a xlink:title=" ">
<polygon fill="#e0e0e0" stroke="#999999" points="441,-74.5 395,-74.5 395,-55.25 441,-55.25 441,-74.5"/>
<text text-anchor="middle" x="418" y="-61" font-family="Helvetica,sans-Serif" font-size="10.00">iterator</text>
</a>
</g>
</g>
<!-- Node4&#45;&gt;Node6 -->
<g id="edge6_Node000004_Node000006" class="edge">
<title>Node4&#45;&gt;Node6</title>
<g id="a_edge6_Node000004_Node000006"><a xlink:title=" ">
<path fill="none" stroke="#63b8ff" d="M351.57,-110.09C363.41,-102.21 380.84,-90.61 394.87,-81.27"/>
<polygon fill="#63b8ff" stroke="#63b8ff" points="396.72,-84.25 403.1,-75.79 392.84,-78.42 396.72,-84.25"/>
</a>
</g>
</g>
<!-- Node7 -->
<g id="Node000007" class="node">
<title>Node7</title>
<g id="a_Node000007"><a xlink:title=" ">
<polygon fill="#e0e0e0" stroke="#999999" points="543.12,-74.5 458.88,-74.5 458.88,-55.25 543.12,-55.25 543.12,-74.5"/>
<text text-anchor="middle" x="501" y="-61" font-family="Helvetica,sans-Serif" font-size="10.00">source_location</text>
</a>
</g>
</g>
<!-- Node4&#45;&gt;Node7 -->
<g id="edge7_Node000004_Node000007" class="edge">
<title>Node4&#45;&gt;Node7</title>
<g id="a_edge7_Node000004_Node000007"><a xlink:title=" ">
<path fill="none" stroke="#63b8ff" d="M365.65,-110.09C392.23,-101.41 432.64,-88.21 462.39,-78.49"/>
<polygon fill="#63b8ff" stroke="#63b8ff" points="463.36,-81.85 471.77,-75.42 461.18,-75.2 463.36,-81.85"/>
</a>
</g>
</g>
<!-- Node8 -->
<g id="Node000008" class="node">
<title>Node8</title>
<g id="a_Node000008"><a xlink:title=" ">
<polygon fill="#e0e0e0" stroke="#999999" points="293.62,-74.5 242.38,-74.5 242.38,-55.25 293.62,-55.25 293.62,-74.5"/>
<text text-anchor="middle" x="268" y="-61" font-family="Helvetica,sans-Serif" font-size="10.00">sstream</text>
</a>
</g>
</g>
<!-- Node4&#45;&gt;Node8 -->
<g id="edge8_Node000004_Node000008" class="edge">
<title>Node4&#45;&gt;Node8</title>
<g id="a_edge8_Node000004_Node000008"><a xlink:title=" ">
<path fill="none" stroke="#63b8ff" d="M326.13,-110.09C315.91,-102.32 300.93,-90.92 288.74,-81.65"/>
<polygon fill="#63b8ff" stroke="#63b8ff" points="290.98,-78.96 280.9,-75.69 286.74,-84.53 290.98,-78.96"/>
</a>
</g>
</g>
<!-- Node9 -->
<g id="Node000009" class="node">
<title>Node9</title>
<g id="a_Node000009"><a xlink:title=" ">
<polygon fill="#e0e0e0" stroke="#999999" points="376.75,-74.5 311.25,-74.5 311.25,-55.25 376.75,-55.25 376.75,-74.5"/>
<text text-anchor="middle" x="344" y="-61" font-family="Helvetica,sans-Serif" font-size="10.00">string_view</text>
</a>
</g>
</g>
<!-- Node4&#45;&gt;Node9 -->
<g id="edge10_Node000004_Node000009" class="edge">
<title>Node4&#45;&gt;Node9</title>
<g id="a_edge10_Node000004_Node000009"><a xlink:title=" ">
<path fill="none" stroke="#63b8ff" d="M338.99,-110.33C339.73,-103.74 340.78,-94.46 341.72,-86.07"/>
<polygon fill="#63b8ff" stroke="#63b8ff" points="345.18,-86.69 342.82,-76.36 338.22,-85.91 345.18,-86.69"/>
</a>
</g>
</g>
<!-- Node10 -->
<g id="Node000010" class="node">
<title>Node10</title>
<g id="a_Node000010"><a xlink:title=" ">
<polygon fill="#e0e0e0" stroke="#999999" points="661.25,-74.5 622.75,-74.5 622.75,-55.25 661.25,-55.25 661.25,-74.5"/>
<text text-anchor="middle" x="642" y="-61" font-family="Helvetica,sans-Serif" font-size="10.00">utility</text>
</a>
</g>
</g>
<!-- Node4&#45;&gt;Node10 -->
<g id="edge11_Node000004_Node000010" class="edge">
<title>Node4&#45;&gt;Node10</title>
<g id="a_edge11_Node000004_Node000010"><a xlink:title=" ">
<path fill="none" stroke="#63b8ff" d="M390.31,-112.86C443.73,-105.98 529.22,-93.62 611.46,-74.83"/>
<polygon fill="#63b8ff" stroke="#63b8ff" points="612.09,-78.27 621.04,-72.6 610.51,-71.45 612.09,-78.27"/>
</a>
</g>
</g>
<!-- Node11&#45;&gt;Node2 -->
<g id="edge26_Node000011_Node000002" class="edge">
<title>Node11&#45;&gt;Node2</title>
<g id="a_edge26_Node000011_Node000002"><a xlink:title=" ">
<path fill="none" stroke="#63b8ff" d="M393.6,-284.55C334.12,-282.31 238.85,-273.22 164,-240.25 128.05,-224.41 112.01,-220.41 95,-185 78.29,-150.22 104.99,-107.32 123.56,-83.66"/>
<polygon fill="#63b8ff" stroke="#63b8ff" points="126.25,-85.89 129.9,-75.95 120.85,-81.44 126.25,-85.89"/>
</a>
</g>
</g>
<!-- Node11&#45;&gt;Node4 -->
<g id="edge27_Node000011_Node000004" class="edge">
<title>Node11&#45;&gt;Node4</title>
<g id="a_edge27_Node000011_Node000004"><a xlink:title=" ">
<path fill="none" stroke="#63b8ff" d="M438.45,-275.87C420.23,-262.08 383.25,-235.8 348,-221 284.79,-194.46 240.45,-238.84 198,-185 172.91,-153.18 226.7,-136.64 274.71,-128.45"/>
<polygon fill="#63b8ff" stroke="#63b8ff" points="274.96,-131.95 284.29,-126.92 273.86,-125.04 274.96,-131.95"/>
</a>
</g>
</g>
<!-- Node12 -->
<g id="Node000012" class="node">
<title>Node12</title>
<g id="a_Node000012"><a xlink:href="../../dc/d44/_call_8hpp.html" target="_top" xlink:title=" ">
<polygon fill="white" stroke="#666666" points="679.88,-185 588.12,-185 588.12,-165.75 679.88,-165.75 679.88,-185"/>
<text text-anchor="middle" x="634" y="-171.5" font-family="Helvetica,sans-Serif" font-size="10.00">mimic++/Call.hpp</text>
</a>
</g>
</g>
<!-- Node11&#45;&gt;Node12 -->
<g id="edge13_Node000011_Node000012" class="edge">
<title>Node11&#45;&gt;Node12</title>
<g id="a_edge13_Node000011_Node000012"><a xlink:title=" ">
<path fill="none" stroke="#63b8ff" d="M467.93,-275.88C485.09,-267.14 511.61,-253.32 534,-240.25 560.97,-224.51 591.06,-205.01 611.12,-191.73"/>
<polygon fill="#63b8ff" stroke="#63b8ff" points="612.98,-194.7 619.37,-186.24 609.1,-188.87 612.98,-194.7"/>
</a>
</g>
</g>
<!-- Node11&#45;&gt;Node16 -->
<g id="edge41_Node000011_Node000016" class="edge">
<title>Node11&#45;&gt;Node16</title>
<g id="a_edge41_Node000011_Node000016"><a xlink:title=" ">
<path fill="none" stroke="#63b8ff" d="M506.48,-285.15C588.95,-282.61 742.93,-266.3 839,-185 869.82,-158.92 885.21,-112.34 891.82,-85.82"/>
<polygon fill="#63b8ff" stroke="#63b8ff" points="895.16,-86.89 893.98,-76.36 888.34,-85.33 895.16,-86.89"/>
</a>
</g>
</g>
<!-- Node17 -->
<g id="Node000017" class="node">
<title>Node17</title>
<g id="a_Node000017"><a xlink:href="../../d0/d3b/_reports_8hpp.html" target="_top" xlink:title=" ">
<polygon fill="white" stroke="#666666" points="504.5,-240.25 395.5,-240.25 395.5,-221 504.5,-221 504.5,-240.25"/>
<text text-anchor="middle" x="450" y="-226.75" font-family="Helvetica,sans-Serif" font-size="10.00">mimic++/Reports.hpp</text>
</a>
</g>
</g>
<!-- Node11&#45;&gt;Node17 -->
<g id="edge28_Node000011_Node000017" class="edge">
<title>Node11&#45;&gt;Node17</title>
<g id="a_edge28_Node000011_Node000017"><a xlink:title=" ">
<path fill="none" stroke="#63b8ff" d="M450,-276.08C450,-269.57 450,-260.42 450,-252.12"/>
<polygon fill="#63b8ff" stroke="#63b8ff" points="453.5,-252.12 450,-242.12 446.5,-252.12 453.5,-252.12"/>
</a>
</g>
</g>
<!-- Node11&#45;&gt;Node18 -->
<g id="edge40_Node000011_Node000018" class="edge">
<title>Node11&#45;&gt;Node18</title>
<g id="a_edge40_Node000011_Node000018"><a xlink:title=" ">
<path fill="none" stroke="#63b8ff" d="M482.02,-275.81C513.02,-266.96 561.33,-253.01 603,-240.25 659.01,-223.1 723.52,-202.17 763.53,-189.06"/>
<polygon fill="#63b8ff" stroke="#63b8ff" points="764.54,-192.41 772.95,-185.97 762.36,-185.76 764.54,-192.41"/>
</a>
</g>
</g>
<!-- Node11&#45;&gt;Node19 -->
<g id="edge43_Node000011_Node000019" class="edge">
<title>Node11&#45;&gt;Node19</title>
<g id="a_edge43_Node000011_Node000019"><a xlink:title=" ">
<path fill="none" stroke="#63b8ff" d="M473.14,-275.81C522.02,-256.66 635.98,-212.03 693.1,-189.65"/>
<polygon fill="#63b8ff" stroke="#63b8ff" points="694.29,-192.95 702.32,-186.04 691.73,-186.43 694.29,-192.95"/>
</a>
</g>
</g>
<!-- Node20 -->
<g id="Node000020" class="node">
<title>Node20</title>
<g id="a_Node000020"><a xlink:title=" ">
<polygon fill="#e0e0e0" stroke="#999999" points="569.88,-185 520.12,-185 520.12,-165.75 569.88,-165.75 569.88,-185"/>
<text text-anchor="middle" x="545" y="-171.5" font-family="Helvetica,sans-Serif" font-size="10.00">optional</text>
</a>
</g>
</g>
<!-- Node11&#45;&gt;Node20 -->
<g id="edge45_Node000011_Node000020" class="edge">
<title>Node11&#45;&gt;Node20</title>
<g id="a_edge45_Node000011_Node000020"><a xlink:title=" ">
<path fill="none" stroke="#63b8ff" d="M467.61,-275.89C481.62,-268.03 500.98,-255.49 514,-240.25 525.15,-227.2 533.34,-209.45 538.49,-195.98"/>
<polygon fill="#63b8ff" stroke="#63b8ff" points="541.67,-197.48 541.73,-186.89 535.08,-195.13 541.67,-197.48"/>
</a>
</g>
</g>
<!-- Node21 -->
<g id="Node000021" class="node">
<title>Node21</title>
<g id="a_Node000021"><a xlink:title=" ">
<polygon fill="#e0e0e0" stroke="#999999" points="149.62,-185 104.38,-185 104.38,-165.75 149.62,-165.75 149.62,-185"/>
<text text-anchor="middle" x="127" y="-171.5" font-family="Helvetica,sans-Serif" font-size="10.00">ranges</text>
</a>
</g>
</g>
<!-- Node11&#45;&gt;Node21 -->
<g id="edge46_Node000011_Node000021" class="edge">
<title>Node11&#45;&gt;Node21</title>
<g id="a_edge46_Node000011_Node000021"><a xlink:title=" ">
<path fill="none" stroke="#63b8ff" d="M393.66,-284.19C339.98,-281.47 258.21,-271.86 195,-240.25 172.9,-229.2 152.99,-208.63 140.5,-193.81"/>
<polygon fill="#63b8ff" stroke="#63b8ff" points="143.39,-191.82 134.38,-186.25 137.95,-196.22 143.39,-191.82"/>
</a>
</g>
</g>
<!-- Node24 -->
<g id="Node000024" class="node">
<title>Node24</title>
<g id="a_Node000024"><a xlink:title=" ">
<polygon fill="#e0e0e0" stroke="#999999" points="249.5,-185 206.5,-185 206.5,-165.75 249.5,-165.75 249.5,-185"/>
<text text-anchor="middle" x="228" y="-171.5" font-family="Helvetica,sans-Serif" font-size="10.00">vector</text>
</a>
</g>
</g>
<!-- Node11&#45;&gt;Node24 -->
<g id="edge47_Node000011_Node000024" class="edge">
<title>Node11&#45;&gt;Node24</title>
<g id="a_edge47_Node000011_Node000024"><a xlink:title=" ">
<path fill="none" stroke="#63b8ff" d="M393.66,-282.76C328.66,-278.99 227.68,-268.61 204,-240.25 192.77,-226.8 202.52,-207.58 212.76,-193.74"/>
<polygon fill="#63b8ff" stroke="#63b8ff" points="215.18,-196.31 218.73,-186.33 209.73,-191.92 215.18,-196.31"/>
</a>
</g>
</g>
<!-- Node25 -->
<g id="Node000025" class="node">
<title>Node25</title>
<g id="a_Node000025"><a xlink:title=" ">
<polygon fill="#e0e0e0" stroke="#999999" points="270.62,-240.25 213.38,-240.25 213.38,-221 270.62,-221 270.62,-240.25"/>
<text text-anchor="middle" x="242" y="-226.75" font-family="Helvetica,sans-Serif" font-size="10.00">exception</text>
</a>
</g>
</g>
<!-- Node11&#45;&gt;Node25 -->
<g id="edge42_Node000011_Node000025" class="edge">
<title>Node11&#45;&gt;Node25</title>
<g id="a_edge42_Node000011_Node000025"><a xlink:title=" ">
<path fill="none" stroke="#63b8ff" d="M414.72,-275.84C377.9,-266.42 320.29,-251.67 281.85,-241.83"/>
<polygon fill="#63b8ff" stroke="#63b8ff" points="283.09,-238.53 272.54,-239.44 281.36,-245.31 283.09,-238.53"/>
</a>
</g>
</g>
<!-- Node26 -->
<g id="Node000026" class="node">
<title>Node26</title>
<g id="a_Node000026"><a xlink:title=" ">
<polygon fill="#e0e0e0" stroke="#999999" points="339.25,-240.25 288.75,-240.25 288.75,-221 339.25,-221 339.25,-240.25"/>
<text text-anchor="middle" x="314" y="-226.75" font-family="Helvetica,sans-Serif" font-size="10.00">memory</text>
</a>
</g>
</g>
<!-- Node11&#45;&gt;Node26 -->
<g id="edge44_Node000011_Node000026" class="edge">
<title>Node11&#45;&gt;Node26</title>
<g id="a_edge44_Node000011_Node000026"><a xlink:title=" ">
<path fill="none" stroke="#63b8ff" d="M426.93,-275.84C405.24,-267.35 372.52,-254.54 347.87,-244.89"/>
<polygon fill="#63b8ff" stroke="#63b8ff" points="349.18,-241.64 338.59,-241.25 346.63,-248.16 349.18,-241.64"/>
</a>
</g>
</g>
<!-- Node12&#45;&gt;Node2 -->
<g id="edge14_Node000012_Node000002" class="edge">
<title>Node12&#45;&gt;Node2</title>
<g id="a_edge14_Node000012_Node000002"><a xlink:title=" ">
<path fill="none" stroke="#63b8ff" d="M587.8,-167C584.83,-166.57 581.87,-166.15 579,-165.75 445.1,-147.28 407.05,-166.6 277,-129.75 271.37,-128.15 207.32,-98.12 168.49,-79.81"/>
<polygon fill="#63b8ff" stroke="#63b8ff" points="170.18,-76.74 159.65,-75.64 167.2,-83.07 170.18,-76.74"/>
</a>
</g>
</g>
<!-- Node12&#45;&gt;Node7 -->
<g id="edge23_Node000012_Node000007" class="edge">
<title>Node12&#45;&gt;Node7</title>
<g id="a_edge23_Node000012_Node000007"><a xlink:title=" ">
<path fill="none" stroke="#63b8ff" d="M587.84,-165.27C565.64,-158.75 540.17,-147.81 523,-129.75 511.74,-117.91 506.22,-100.03 503.53,-86.2"/>
<polygon fill="#63b8ff" stroke="#63b8ff" points="507,-85.76 502,-76.42 500.08,-86.84 507,-85.76"/>
</a>
</g>
</g>
<!-- Node12&#45;&gt;Node10 -->
<g id="edge25_Node000012_Node000010" class="edge">
<title>Node12&#45;&gt;Node10</title>
<g id="a_edge25_Node000012_Node000010"><a xlink:title=" ">
<path fill="none" stroke="#63b8ff" d="M635.76,-165.53C637.46,-156.56 639.93,-142.25 641,-129.75 642.24,-115.32 642.47,-98.98 642.41,-86.44"/>
<polygon fill="#63b8ff" stroke="#63b8ff" points="645.91,-86.46 642.28,-76.51 638.91,-86.55 645.91,-86.46"/>
</a>
</g>
</g>
<!-- Node13 -->
<g id="Node000013" class="node">
<title>Node13</title>
<g id="a_Node000013"><a xlink:href="../../d8/d32/_type_traits_8hpp.html" target="_top" xlink:title=" ">
<polygon fill="white" stroke="#666666" points="847.5,-129.75 726.5,-129.75 726.5,-110.5 847.5,-110.5 847.5,-129.75"/>
<text text-anchor="middle" x="787" y="-116.25" font-family="Helvetica,sans-Serif" font-size="10.00">mimic++/TypeTraits.hpp</text>
</a>
</g>
</g>
<!-- Node12&#45;&gt;Node13 -->
<g id="edge15_Node000012_Node000013" class="edge">
<title>Node12&#45;&gt;Node13</title>
<g id="a_edge15_Node000012_Node000013"><a xlink:title=" ">
<path fill="none" stroke="#63b8ff" d="M659.95,-165.34C684.79,-156.7 722.5,-143.57 750.38,-133.87"/>
<polygon fill="#63b8ff" stroke="#63b8ff" points="751.19,-137.29 759.49,-130.7 748.89,-130.68 751.19,-137.29"/>
</a>
</g>
</g>
<!-- Node12&#45;&gt;Node14 -->
<g id="edge24_Node000012_Node000014" class="edge">
<title>Node12&#45;&gt;Node14</title>
<g id="a_edge24_Node000012_Node000014"><a xlink:title=" ">
<path fill="none" stroke="#63b8ff" d="M645.21,-165.42C661.13,-152.8 691.31,-129.24 718,-110.5 732.61,-100.24 749.42,-89.35 762.79,-80.9"/>
<polygon fill="#63b8ff" stroke="#63b8ff" points="764.36,-84.05 770.97,-75.77 760.64,-78.12 764.36,-84.05"/>
</a>
</g>
</g>
<!-- Node12&#45;&gt;Node15 -->
<g id="edge17_Node000012_Node000015" class="edge">
<title>Node12&#45;&gt;Node15</title>
<g id="a_edge17_Node000012_Node000015"><a xlink:title=" ">
<path fill="none" stroke="#63b8ff" d="M625.41,-165.58C618.16,-158.15 607.55,-147.29 598.63,-138.16"/>
<polygon fill="#63b8ff" stroke="#63b8ff" points="601.32,-135.9 591.83,-131.19 596.31,-140.79 601.32,-135.9"/>
</a>
</g>
</g>
<!-- Node13&#45;&gt;Node14 -->
<g id="edge16_Node000013_Node000014" class="edge">
<title>Node13&#45;&gt;Node14</title>
<g id="a_edge16_Node000013_Node000014"><a xlink:title=" ">
<path fill="none" stroke="#63b8ff" d="M787,-110.33C787,-103.82 787,-94.67 787,-86.37"/>
<polygon fill="#63b8ff" stroke="#63b8ff" points="790.5,-86.37 787,-76.37 783.5,-86.37 790.5,-86.37"/>
</a>
</g>
</g>
<!-- Node15&#45;&gt;Node2 -->
<g id="edge18_Node000015_Node000002" class="edge">
<title>Node15&#45;&gt;Node2</title>
<g id="a_edge18_Node000015_Node000002"><a xlink:title=" ">
<path fill="none" stroke="#63b8ff" d="M531.61,-113.07C449.03,-103.14 285.32,-83.46 197.65,-72.92"/>
<polygon fill="#63b8ff" stroke="#63b8ff" points="198.17,-69.46 187.82,-71.74 197.33,-76.41 198.17,-69.46"/>
</a>
</g>
</g>
<!-- Node15&#45;&gt;Node5 -->
<g id="edge20_Node000015_Node000005" class="edge">
<title>Node15&#45;&gt;Node5</title>
<g id="a_edge20_Node000015_Node000005"><a xlink:title=" ">
<path fill="none" stroke="#63b8ff" d="M582.17,-110.33C582.29,-103.82 582.46,-94.67 582.62,-86.37"/>
<polygon fill="#63b8ff" stroke="#63b8ff" points="586.11,-86.44 582.8,-76.37 579.12,-86.3 586.11,-86.44"/>
</a>
</g>
</g>
<!-- Node15&#45;&gt;Node7 -->
<g id="edge21_Node000015_Node000007" class="edge">
<title>Node15&#45;&gt;Node7</title>
<g id="a_edge21_Node000015_Node000007"><a xlink:title=" ">
<path fill="none" stroke="#63b8ff" d="M568.26,-110.09C556.27,-102.21 538.63,-90.61 524.42,-81.27"/>
<polygon fill="#63b8ff" stroke="#63b8ff" points="526.35,-78.35 516.07,-75.78 522.51,-84.2 526.35,-78.35"/>
</a>
</g>
</g>
<!-- Node15&#45;&gt;Node10 -->
<g id="edge22_Node000015_Node000010" class="edge">
<title>Node15&#45;&gt;Node10</title>
<g id="a_edge22_Node000015_Node000010"><a xlink:title=" ">
<path fill="none" stroke="#63b8ff" d="M592.18,-110.09C600.76,-102.47 613.27,-91.37 623.6,-82.2"/>
<polygon fill="#63b8ff" stroke="#63b8ff" points="625.68,-85.04 630.84,-75.78 621.04,-79.8 625.68,-85.04"/>
</a>
</g>
</g>
<!-- Node15&#45;&gt;Node16 -->
<g id="edge19_Node000015_Node000016" class="edge">
<title>Node15&#45;&gt;Node16</title>
<g id="a_edge19_Node000015_Node000016"><a xlink:title=" ">
<path fill="none" stroke="#63b8ff" d="M632.45,-110.57C696.38,-99.73 804.94,-81.32 860.67,-71.87"/>
<polygon fill="#63b8ff" stroke="#63b8ff" points="860.96,-75.37 870.24,-70.24 859.79,-68.47 860.96,-75.37"/>
</a>
</g>
</g>
<!-- Node17&#45;&gt;Node2 -->
<g id="edge30_Node000017_Node000002" class="edge">
<title>Node17&#45;&gt;Node2</title>
<g id="a_edge30_Node000017_Node000002"><a xlink:title=" ">
<path fill="none" stroke="#63b8ff" d="M419.25,-220.57C393.51,-212.54 356.1,-199.81 325,-185 282.28,-164.66 273.87,-155.23 234,-129.75 208.88,-113.69 180.57,-94.51 161.44,-81.39"/>
<polygon fill="#63b8ff" stroke="#63b8ff" points="163.56,-78.6 153.34,-75.81 159.59,-84.37 163.56,-78.6"/>
</a>
</g>
</g>
<!-- Node17&#45;&gt;Node4 -->
<g id="edge31_Node000017_Node000004" class="edge">
<title>Node17&#45;&gt;Node4</title>
<g id="a_edge31_Node000017_Node000004"><a xlink:title=" ">
<path fill="none" stroke="#63b8ff" d="M395.24,-222.1C372.68,-216 348.67,-204.97 335,-185 326.26,-172.24 327.92,-154.44 331.26,-140.88"/>
<polygon fill="#63b8ff" stroke="#63b8ff" points="334.6,-141.91 334.1,-131.32 327.89,-139.91 334.6,-141.91"/>
</a>
</g>
</g>
<!-- Node17&#45;&gt;Node6 -->
<g id="edge34_Node000017_Node000006" class="edge">
<title>Node17&#45;&gt;Node6</title>
<g id="a_edge34_Node000017_Node000006"><a xlink:title=" ">
<path fill="none" stroke="#63b8ff" d="M447.08,-220.82C444.2,-211.88 439.83,-197.6 437,-185 429.3,-150.69 423.53,-110.14 420.47,-86.3"/>
<polygon fill="#63b8ff" stroke="#63b8ff" points="423.94,-85.91 419.24,-76.42 417,-86.77 423.94,-85.91"/>
</a>
</g>
</g>
<!-- Node17&#45;&gt;Node12 -->
<g id="edge29_Node000017_Node000012" class="edge">
<title>Node17&#45;&gt;Node12</title>
<g id="a_edge29_Node000017_Node000012"><a xlink:title=" ">
<path fill="none" stroke="#63b8ff" d="M481.21,-220.59C511.61,-211.79 558.04,-198.36 591.74,-188.61"/>
<polygon fill="#63b8ff" stroke="#63b8ff" points="592.55,-192.02 601.18,-185.87 590.6,-185.29 592.55,-192.02"/>
</a>
</g>
</g>
<!-- Node17&#45;&gt;Node18 -->
<g id="edge32_Node000017_Node000018" class="edge">
<title>Node17&#45;&gt;Node18</title>
<g id="a_edge32_Node000017_Node000018"><a xlink:title=" ">
<path fill="none" stroke="#63b8ff" d="M504.87,-223.34C565.57,-216.06 666.49,-202.97 762.68,-185.29"/>
<polygon fill="#63b8ff" stroke="#63b8ff" points="763.09,-188.77 772.28,-183.5 761.81,-181.89 763.09,-188.77"/>
</a>
</g>
</g>
<!-- Node17&#45;&gt;Node19 -->
<g id="edge33_Node000017_Node000019" class="edge">
<title>Node17&#45;&gt;Node19</title>
<g id="a_edge33_Node000017_Node000019"><a xlink:title=" ">
<path fill="none" stroke="#63b8ff" d="M501.86,-220.54C547.89,-212.34 617.24,-199.66 686.46,-185.46"/>
<polygon fill="#63b8ff" stroke="#63b8ff" points="687,-188.93 696.08,-183.48 685.58,-182.07 687,-188.93"/>
</a>
</g>
</g>
<!-- Node17&#45;&gt;Node20 -->
<g id="edge35_Node000017_Node000020" class="edge">
<title>Node17&#45;&gt;Node20</title>
<g id="a_edge35_Node000017_Node000020"><a xlink:title=" ">
<path fill="none" stroke="#63b8ff" d="M466.12,-220.59C480.58,-212.48 502.08,-200.43 518.98,-190.96"/>
<polygon fill="#63b8ff" stroke="#63b8ff" points="520.47,-194.14 527.49,-186.19 517.05,-188.03 520.47,-194.14"/>
</a>
</g>
</g>
<!-- Node17&#45;&gt;Node21 -->
<g id="edge36_Node000017_Node000021" class="edge">
<title>Node17&#45;&gt;Node21</title>
<g id="a_edge36_Node000017_Node000021"><a xlink:title=" ">
<path fill="none" stroke="#63b8ff" d="M395.21,-220.59C328.16,-209.54 216.71,-191.16 160.95,-181.97"/>
<polygon fill="#63b8ff" stroke="#63b8ff" points="161.86,-178.58 151.43,-180.4 160.72,-185.48 161.86,-178.58"/>
</a>
</g>
</g>
<!-- Node22 -->
<g id="Node000022" class="node">
<title>Node22</title>
<g id="a_Node000022"><a xlink:title=" ">
<polygon fill="#e0e0e0" stroke="#999999" points="502.25,-185 445.75,-185 445.75,-165.75 502.25,-165.75 502.25,-185"/>
<text text-anchor="middle" x="474" y="-171.5" font-family="Helvetica,sans-Serif" font-size="10.00">typeindex</text>
</a>
</g>
</g>
<!-- Node17&#45;&gt;Node22 -->
<g id="edge37_Node000017_Node000022" class="edge">
<title>Node17&#45;&gt;Node22</title>
<g id="a_edge37_Node000017_Node000022"><a xlink:title=" ">
<path fill="none" stroke="#63b8ff" d="M453.96,-220.83C457.04,-214.01 461.41,-204.31 465.29,-195.7"/>
<polygon fill="#63b8ff" stroke="#63b8ff" points="468.41,-197.29 469.33,-186.74 462.03,-194.42 468.41,-197.29"/>
</a>
</g>
</g>
<!-- Node23 -->
<g id="Node000023" class="node">
<title>Node23</title>
<g id="a_Node000023"><a xlink:title=" ">
<polygon fill="#e0e0e0" stroke="#999999" points="389.62,-185 344.38,-185 344.38,-165.75 389.62,-165.75 389.62,-185"/>
<text text-anchor="middle" x="367" y="-171.5" font-family="Helvetica,sans-Serif" font-size="10.00">variant</text>
</a>
</g>
</g>
<!-- Node17&#45;&gt;Node23 -->
<g id="edge38_Node000017_Node000023" class="edge">
<title>Node17&#45;&gt;Node23</title>
<g id="a_edge38_Node000017_Node000023"><a xlink:title=" ">
<path fill="none" stroke="#63b8ff" d="M435.92,-220.59C423.52,-212.64 405.21,-200.89 390.57,-191.5"/>
<polygon fill="#63b8ff" stroke="#63b8ff" points="392.73,-188.72 382.42,-186.27 388.95,-194.62 392.73,-188.72"/>
</a>
</g>
</g>
<!-- Node17&#45;&gt;Node24 -->
<g id="edge39_Node000017_Node000024" class="edge">
<title>Node17&#45;&gt;Node24</title>
<g id="a_edge39_Node000017_Node000024"><a xlink:title=" ">
<path fill="none" stroke="#63b8ff" d="M412.09,-220.53C369.6,-210.34 301.38,-193.98 261,-184.29"/>
<polygon fill="#63b8ff" stroke="#63b8ff" points="261.92,-180.91 251.38,-181.98 260.29,-187.72 261.92,-180.91"/>
</a>
</g>
</g>
</g>
</svg>

<g id="navigator" transform="translate(0 0)" fill="#404254">
  <rect fill="#f2f5e9" fill-opacity="0.5" stroke="#606060" stroke-width=".5" x="0" y="0" width="60" height="60"/>
  <use id="zoomplus" xlink:href="#zoomPlus" x="17" y="9" onmousedown="handleZoom(evt,'in')"/>
  <use id="zoomminus" xlink:href="#zoomMin" x="42" y="9" onmousedown="handleZoom(evt,'out')"/>
  <use id="reset" xlink:href="#resetDef" x="30" y="36" onmousedown="handleReset()"/>
   <use id="arrowup" xlink:href="#arrowUp" x="0" y="0" onmousedown="handlePan(0,-1)"/>
  <use id="arrowright" xlink:href="#arrowRight" x="0" y="0" onmousedown="handlePan(1,0)"/>
  <use id="arrowdown" xlink:href="#arrowDown" x="0" y="0" onmousedown="handlePan(0,1)"/>
  <use id="arrowleft" xlink:href="#arrowLeft" x="0" y="0" onmousedown="handlePan(-1,0)"/>
</g>
<svg viewBox="0 0 15 15" width="100%" height="30px" preserveAspectRatio="xMaxYMin meet">
 <g id="arrow_out" transform="scale(0.3 0.3)">
  <a xlink:href="_sequence_8hpp__incl_org.svg" target="_base">
   <rect id="button" ry="5" rx="5" y="6" x="6" height="38" width="38"
        fill="#f2f5e9" fill-opacity="0.5" stroke="#606060" stroke-width="1.0"/>
   <path id="arrow"
     d="M 11.500037,31.436501 C 11.940474,20.09759 22.043105,11.32322 32.158766,21.979434 L 37.068811,17.246167 C 37.068811,17.246167 37.088388,32 37.088388,32 L 22.160133,31.978069 C 22.160133,31.978069 26.997745,27.140456 26.997745,27.140456 C 18.528582,18.264221 13.291696,25.230495 11.500037,31.436501 z"
     style="fill:#404040;"/>
  </a>
 </g>
</svg>

<style type='text/css'>
<![CDATA[
[data-mouse-over-selected='false'] { opacity: 0.7; }
[data-mouse-over-selected='true']  { opacity: 1.0; }
]]>
</style>
<script type="application/ecmascript"><![CDATA[
document.addEventListener('DOMContentLoaded', (event) => {
  highlightEdges();
  highlightAdjacentNodes();
});
]]></script>
</svg>
