<?xml version="1.0" encoding="UTF-8" standalone="no"?>
<!DOCTYPE svg PUBLIC "-//W3C//DTD SVG 1.1//EN"
 "http://www.w3.org/Graphics/SVG/1.1/DTD/svg11.dtd">
<!-- Generated by graphviz version 12.1.2 (20240928.0832)
 -->
<!-- Title: mimic++/Sequence.hpp Pages: 1 -->
<svg width="1450pt" height="414pt"
 viewBox="0.00 0.00 1449.62 414.00" xmlns="http://www.w3.org/2000/svg" xmlns:xlink="http://www.w3.org/1999/xlink">
<g id="graph0" class="graph" transform="scale(1 1) rotate(0) translate(4 410)">
<title>mimic++/Sequence.hpp</title>
<!-- Node1 -->
<g id="Node000001" class="node">
<title>Node1</title>
<g id="a_Node000001"><a xlink:title=" ">
<polygon fill="#999999" stroke="#666666" points="1049.5,-406 930.75,-406 930.75,-386.75 1049.5,-386.75 1049.5,-406"/>
<text text-anchor="middle" x="990.12" y="-392.5" font-family="Helvetica,sans-Serif" font-size="10.00">mimic++/Sequence.hpp</text>
</a>
</g>
</g>
<!-- Node2 -->
<g id="Node000002" class="node">
<title>Node2</title>
<g id="a_Node000002"><a xlink:href="../../df/dde/_fwd_8hpp.html" target="_top" xlink:title=" ">
<polygon fill="white" stroke="#666666" points="946.12,-74.5 852.12,-74.5 852.12,-55.25 946.12,-55.25 946.12,-74.5"/>
<text text-anchor="middle" x="899.12" y="-61" font-family="Helvetica,sans-Serif" font-size="10.00">mimic++/Fwd.hpp</text>
</a>
</g>
</g>
<!-- Node1&#45;&gt;Node2 -->
<g id="edge1_Node000001_Node000002" class="edge">
<title>Node1&#45;&gt;Node2</title>
<g id="a_edge1_Node000001_Node000002"><a xlink:title=" ">
<path fill="none" stroke="#63b8ff" d="M1049.68,-388.25C1144.98,-375.16 1321.12,-343.34 1321.12,-286.88 1321.12,-286.88 1321.12,-286.88 1321.12,-174.38 1321.12,-100.23 1073.71,-76.02 957.77,-68.74"/>
<polygon fill="#63b8ff" stroke="#63b8ff" points="958.01,-65.25 947.82,-68.14 957.59,-72.24 958.01,-65.25"/>
</a>
</g>
</g>
<!-- Node4 -->
<g id="Node000004" class="node">
<title>Node4</title>
<g id="a_Node000004"><a xlink:href="../../da/dab/_printer_8hpp.html" target="_top" xlink:title=" ">
<polygon fill="white" stroke="#666666" points="648,-240.25 544.25,-240.25 544.25,-221 648,-221 648,-240.25"/>
<text text-anchor="middle" x="596.12" y="-226.75" font-family="Helvetica,sans-Serif" font-size="10.00">mimic++/Printer.hpp</text>
</a>
</g>
</g>
<!-- Node1&#45;&gt;Node4 -->
<g id="edge3_Node000001_Node000004" class="edge">
<title>Node1&#45;&gt;Node4</title>
<g id="a_edge3_Node000001_Node000004"><a xlink:title=" ">
<path fill="none" stroke="#63b8ff" d="M930.29,-389.37C879.72,-383.16 805.88,-371.38 744.12,-350.75 692.24,-333.41 674.16,-332.78 634.12,-295.5 620.7,-283 610.46,-264.68 604.02,-250.86"/>
<polygon fill="#63b8ff" stroke="#63b8ff" points="607.32,-249.69 600.11,-241.93 600.91,-252.49 607.32,-249.69"/>
</a>
</g>
</g>
<!-- Node6 -->
<g id="Node000006" class="node">
<title>Node6</title>
<g id="a_Node000006"><a xlink:href="../../d4/d2c/_utility_8hpp.html" target="_top" xlink:title=" ">
<polygon fill="white" stroke="#666666" points="428.12,-129.75 328.12,-129.75 328.12,-110.5 428.12,-110.5 428.12,-129.75"/>
<text text-anchor="middle" x="378.12" y="-116.25" font-family="Helvetica,sans-Serif" font-size="10.00">mimic++/Utility.hpp</text>
</a>
</g>
</g>
<!-- Node1&#45;&gt;Node6 -->
<g id="edge67_Node000001_Node000006" class="edge">
<title>Node1&#45;&gt;Node6</title>
<g id="a_edge67_Node000001_Node000006"><a xlink:title=" ">
<path fill="none" stroke="#63b8ff" d="M930.48,-394.62C735.64,-391.85 128.75,-380.84 100.12,-350.75 66.32,-315.21 -41.04,-357.36 247.12,-165.75 269.85,-150.64 298.21,-140.15 322.72,-133.16"/>
<polygon fill="#63b8ff" stroke="#63b8ff" points="323.48,-136.58 332.21,-130.58 321.65,-129.82 323.48,-136.58"/>
</a>
</g>
</g>
<!-- Node7 -->
<g id="Node000007" class="node">
<title>Node7</title>
<g id="a_Node000007"><a xlink:title=" ">
<polygon fill="#e0e0e0" stroke="#999999" points="48.25,-74.5 0,-74.5 0,-55.25 48.25,-55.25 48.25,-74.5"/>
<text text-anchor="middle" x="24.12" y="-61" font-family="Helvetica,sans-Serif" font-size="10.00">cassert</text>
</a>
</g>
</g>
<!-- Node1&#45;&gt;Node7 -->
<g id="edge70_Node000001_Node000007" class="edge">
<title>Node1&#45;&gt;Node7</title>
<g id="a_edge70_Node000001_Node000007"><a xlink:title=" ">
<path fill="none" stroke="#63b8ff" d="M930.52,-395.13C737.54,-393.97 137.72,-387.41 59.12,-350.75 24.1,-334.41 0.12,-325.52 0.12,-286.88 0.12,-286.88 0.12,-286.88 0.12,-174.38 0.12,-142.62 10.05,-106.84 17.13,-85.34"/>
<polygon fill="#63b8ff" stroke="#63b8ff" points="20.35,-86.76 20.3,-76.16 13.73,-84.48 20.35,-86.76"/>
</a>
</g>
</g>
<!-- Node10 -->
<g id="Node000010" class="node">
<title>Node10</title>
<g id="a_Node000010"><a xlink:title=" ">
<polygon fill="#e0e0e0" stroke="#999999" points="420.62,-74.5 383.62,-74.5 383.62,-55.25 420.62,-55.25 420.62,-74.5"/>
<text text-anchor="middle" x="402.12" y="-61" font-family="Helvetica,sans-Serif" font-size="10.00">tuple</text>
</a>
</g>
</g>
<!-- Node1&#45;&gt;Node10 -->
<g id="edge73_Node000001_Node000010" class="edge">
<title>Node1&#45;&gt;Node10</title>
<g id="a_edge73_Node000001_Node000010"><a xlink:title=" ">
<path fill="none" stroke="#63b8ff" d="M930.26,-394.26C732.72,-389.81 114.12,-369.29 114.12,-286.88 114.12,-286.88 114.12,-286.88 114.12,-229.62 114.12,-170.66 298.86,-101.11 372.42,-75.75"/>
<polygon fill="#63b8ff" stroke="#63b8ff" points="373.46,-79.1 381.8,-72.56 371.2,-72.47 373.46,-79.1"/>
</a>
</g>
</g>
<!-- Node13 -->
<g id="Node000013" class="node">
<title>Node13</title>
<g id="a_Node000013"><a xlink:title=" ">
<polygon fill="#e0e0e0" stroke="#999999" points="1086.12,-129.75 1028.12,-129.75 1028.12,-110.5 1086.12,-110.5 1086.12,-129.75"/>
<text text-anchor="middle" x="1057.12" y="-116.25" font-family="Helvetica,sans-Serif" font-size="10.00">functional</text>
</a>
</g>
</g>
<!-- Node1&#45;&gt;Node13 -->
<g id="edge71_Node000001_Node000013" class="edge">
<title>Node1&#45;&gt;Node13</title>
<g id="a_edge71_Node000001_Node000013"><a xlink:title=" ">
<path fill="none" stroke="#63b8ff" d="M1022.23,-386.37C1077.3,-368.91 1187.55,-324.51 1226.12,-240.25 1253.44,-180.58 1155.56,-145.38 1097.36,-130.14"/>
<polygon fill="#63b8ff" stroke="#63b8ff" points="1098.32,-126.77 1087.77,-127.72 1096.61,-133.56 1098.32,-126.77"/>
</a>
</g>
</g>
<!-- Node22 -->
<g id="Node000022" class="node">
<title>Node22</title>
<g id="a_Node000022"><a xlink:href="../../da/dd9/_reporter_8hpp.html" target="_top" xlink:title=" ">
<polygon fill="white" stroke="#666666" points="865.12,-350.75 753.12,-350.75 753.12,-331.5 865.12,-331.5 865.12,-350.75"/>
<text text-anchor="middle" x="809.12" y="-337.25" font-family="Helvetica,sans-Serif" font-size="10.00">mimic++/Reporter.hpp</text>
</a>
</g>
</g>
<!-- Node1&#45;&gt;Node22 -->
<g id="edge37_Node000001_Node000022" class="edge">
<title>Node1&#45;&gt;Node22</title>
<g id="a_edge37_Node000001_Node000022"><a xlink:title=" ">
<path fill="none" stroke="#63b8ff" d="M959.42,-386.34C929.52,-377.54 883.85,-364.11 850.7,-354.36"/>
<polygon fill="#63b8ff" stroke="#63b8ff" points="852.01,-351.09 841.43,-351.63 850.04,-357.81 852.01,-351.09"/>
</a>
</g>
</g>
<!-- Node25 -->
<g id="Node000025" class="node">
<title>Node25</title>
<g id="a_Node000025"><a xlink:title=" ">
<polygon fill="#e0e0e0" stroke="#999999" points="1217,-240.25 1161.25,-240.25 1161.25,-221 1217,-221 1217,-240.25"/>
<text text-anchor="middle" x="1189.12" y="-226.75" font-family="Helvetica,sans-Serif" font-size="10.00">algorithm</text>
</a>
</g>
</g>
<!-- Node1&#45;&gt;Node25 -->
<g id="edge68_Node000001_Node000025" class="edge">
<title>Node1&#45;&gt;Node25</title>
<g id="a_edge68_Node000001_Node000025"><a xlink:title=" ">
<path fill="none" stroke="#63b8ff" d="M1007,-386.41C1035.98,-370.53 1096.23,-335.35 1139.12,-295.5 1153.92,-281.75 1167.84,-263.36 1177.21,-249.84"/>
<polygon fill="#63b8ff" stroke="#63b8ff" points="1179.9,-252.11 1182.59,-241.86 1174.09,-248.2 1179.9,-252.11"/>
</a>
</g>
</g>
<!-- Node32 -->
<g id="Node000032" class="node">
<title>Node32</title>
<g id="a_Node000032"><a xlink:title=" ">
<polygon fill="#e0e0e0" stroke="#999999" points="1386.62,-350.75 1349.62,-350.75 1349.62,-331.5 1386.62,-331.5 1386.62,-350.75"/>
<text text-anchor="middle" x="1368.12" y="-337.25" font-family="Helvetica,sans-Serif" font-size="10.00">array</text>
</a>
</g>
</g>
<!-- Node1&#45;&gt;Node32 -->
<g id="edge69_Node000001_Node000032" class="edge">
<title>Node1&#45;&gt;Node32</title>
<g id="a_edge69_Node000001_Node000032"><a xlink:title=" ">
<path fill="none" stroke="#63b8ff" d="M1049.71,-389.99C1118.77,-383.21 1235.83,-370.07 1335.12,-350.75 1336.14,-350.55 1337.17,-350.34 1338.22,-350.12"/>
<polygon fill="#63b8ff" stroke="#63b8ff" points="1338.98,-353.53 1347.9,-347.82 1337.36,-346.72 1338.98,-353.53"/>
</a>
</g>
</g>
<!-- Node33 -->
<g id="Node000033" class="node">
<title>Node33</title>
<g id="a_Node000033"><a xlink:title=" ">
<polygon fill="#e0e0e0" stroke="#999999" points="1441.62,-350.75 1404.62,-350.75 1404.62,-331.5 1441.62,-331.5 1441.62,-350.75"/>
<text text-anchor="middle" x="1423.12" y="-337.25" font-family="Helvetica,sans-Serif" font-size="10.00">span</text>
</a>
</g>
</g>
<!-- Node1&#45;&gt;Node33 -->
<g id="edge72_Node000001_Node000033" class="edge">
<title>Node1&#45;&gt;Node33</title>
<g id="a_edge72_Node000001_Node000033"><a xlink:title=" ">
<path fill="none" stroke="#63b8ff" d="M1049.88,-392.54C1127.33,-388.05 1266.57,-377.18 1393.32,-350.97"/>
<polygon fill="#63b8ff" stroke="#63b8ff" points="1393.83,-354.44 1402.89,-348.96 1392.38,-347.6 1393.83,-354.44"/>
</a>
</g>
</g>
<!-- Node3 -->
<g id="Node000003" class="node">
<title>Node3</title>
<g id="a_Node000003"><a xlink:title=" ">
<polygon fill="#e0e0e0" stroke="#999999" points="844.12,-19.25 804.12,-19.25 804.12,0 844.12,0 844.12,-19.25"/>
<text text-anchor="middle" x="824.12" y="-5.75" font-family="Helvetica,sans-Serif" font-size="10.00">string</text>
</a>
</g>
</g>
<!-- Node2&#45;&gt;Node3 -->
<g id="edge2_Node000002_Node000003" class="edge">
<title>Node2&#45;&gt;Node3</title>
<g id="a_edge2_Node000002_Node000003"><a xlink:title=" ">
<path fill="none" stroke="#63b8ff" d="M886.4,-54.84C875.41,-47.04 859.28,-35.59 846.19,-26.29"/>
<polygon fill="#63b8ff" stroke="#63b8ff" points="848.32,-23.51 838.14,-20.58 844.27,-29.22 848.32,-23.51"/>
</a>
</g>
</g>
<!-- Node4&#45;&gt;Node2 -->
<g id="edge4_Node000004_Node000002" class="edge">
<title>Node4&#45;&gt;Node2</title>
<g id="a_edge4_Node000004_Node000002"><a xlink:title=" ">
<path fill="none" stroke="#63b8ff" d="M648.09,-222.69C686.82,-216.26 740.36,-204.63 784.12,-185 803.67,-176.23 848.73,-145.62 863.12,-129.75 875.03,-116.63 884.64,-98.89 890.92,-85.43"/>
<polygon fill="#63b8ff" stroke="#63b8ff" points="894.11,-86.88 894.95,-76.32 887.7,-84.05 894.11,-86.88"/>
</a>
</g>
</g>
<!-- Node4&#45;&gt;Node3 -->
<g id="edge33_Node000004_Node000003" class="edge">
<title>Node4&#45;&gt;Node3</title>
<g id="a_edge33_Node000004_Node000003"><a xlink:title=" ">
<path fill="none" stroke="#63b8ff" d="M544.13,-226.96C446.14,-221.45 241.89,-207.38 219.12,-185 177.73,-144.3 164.58,-97.75 204.12,-55.25 244.46,-11.91 671.29,-10.08 792.31,-10.44"/>
<polygon fill="#63b8ff" stroke="#63b8ff" points="792.14,-13.94 802.15,-10.48 792.17,-6.94 792.14,-13.94"/>
</a>
</g>
</g>
<!-- Node5 -->
<g id="Node000005" class="node">
<title>Node5</title>
<g id="a_Node000005"><a xlink:href="../../d9/dc5/_string_8hpp.html" target="_top" xlink:title=" ">
<polygon fill="white" stroke="#666666" points="775.5,-185 674.75,-185 674.75,-165.75 775.5,-165.75 775.5,-185"/>
<text text-anchor="middle" x="725.12" y="-171.5" font-family="Helvetica,sans-Serif" font-size="10.00">mimic++/String.hpp</text>
</a>
</g>
</g>
<!-- Node4&#45;&gt;Node5 -->
<g id="edge5_Node000004_Node000005" class="edge">
<title>Node4&#45;&gt;Node5</title>
<g id="a_edge5_Node000004_Node000005"><a xlink:title=" ">
<path fill="none" stroke="#63b8ff" d="M618.01,-220.59C638.49,-212.14 669.34,-199.4 692.68,-189.77"/>
<polygon fill="#63b8ff" stroke="#63b8ff" points="693.83,-193.08 701.74,-186.03 691.16,-186.61 693.83,-193.08"/>
</a>
</g>
</g>
<!-- Node4&#45;&gt;Node6 -->
<g id="edge26_Node000004_Node000006" class="edge">
<title>Node4&#45;&gt;Node6</title>
<g id="a_edge26_Node000004_Node000006"><a xlink:title=" ">
<path fill="none" stroke="#63b8ff" d="M544.14,-224.22C491.89,-217.74 416.15,-205.17 395.12,-185 383.46,-173.81 379.48,-155.59 378.27,-141.47"/>
<polygon fill="#63b8ff" stroke="#63b8ff" points="381.77,-141.33 377.85,-131.48 374.77,-141.62 381.77,-141.33"/>
</a>
</g>
</g>
<!-- Node8 -->
<g id="Node000008" class="node">
<title>Node8</title>
<g id="a_Node000008"><a xlink:title=" ">
<polygon fill="#e0e0e0" stroke="#999999" points="353.25,-74.5 269,-74.5 269,-55.25 353.25,-55.25 353.25,-74.5"/>
<text text-anchor="middle" x="311.12" y="-61" font-family="Helvetica,sans-Serif" font-size="10.00">source_location</text>
</a>
</g>
</g>
<!-- Node4&#45;&gt;Node8 -->
<g id="edge31_Node000004_Node000008" class="edge">
<title>Node4&#45;&gt;Node8</title>
<g id="a_edge31_Node000004_Node000008"><a xlink:title=" ">
<path fill="none" stroke="#63b8ff" d="M543.78,-226.69C451.18,-220.96 266.4,-206.89 247.12,-185 218.97,-153.02 262.9,-106.51 290.86,-82.15"/>
<polygon fill="#63b8ff" stroke="#63b8ff" points="293.05,-84.88 298.44,-75.76 288.54,-79.53 293.05,-84.88"/>
</a>
</g>
</g>
<!-- Node9 -->
<g id="Node000009" class="node">
<title>Node9</title>
<g id="a_Node000009"><a xlink:title=" ">
<polygon fill="#e0e0e0" stroke="#999999" points="526.88,-74.5 461.38,-74.5 461.38,-55.25 526.88,-55.25 526.88,-74.5"/>
<text text-anchor="middle" x="494.12" y="-61" font-family="Helvetica,sans-Serif" font-size="10.00">string_view</text>
</a>
</g>
</g>
<!-- Node4&#45;&gt;Node9 -->
<g id="edge34_Node000004_Node000009" class="edge">
<title>Node4&#45;&gt;Node9</title>
<g id="a_edge34_Node000004_Node000009"><a xlink:title=" ">
<path fill="none" stroke="#63b8ff" d="M597.77,-220.51C599.64,-207.27 601.16,-182.49 590.12,-165.75 571.74,-137.85 547.03,-154.08 524.12,-129.75 512.3,-117.19 504.41,-99.13 499.7,-85.42"/>
<polygon fill="#63b8ff" stroke="#63b8ff" points="503.14,-84.68 496.82,-76.18 496.46,-86.76 503.14,-84.68"/>
</a>
</g>
</g>
<!-- Node11 -->
<g id="Node000011" class="node">
<title>Node11</title>
<g id="a_Node000011"><a xlink:title=" ">
<polygon fill="#e0e0e0" stroke="#999999" points="251.38,-74.5 212.88,-74.5 212.88,-55.25 251.38,-55.25 251.38,-74.5"/>
<text text-anchor="middle" x="232.12" y="-61" font-family="Helvetica,sans-Serif" font-size="10.00">utility</text>
</a>
</g>
</g>
<!-- Node4&#45;&gt;Node11 -->
<g id="edge35_Node000004_Node000011" class="edge">
<title>Node4&#45;&gt;Node11</title>
<g id="a_edge35_Node000004_Node000011"><a xlink:title=" ">
<path fill="none" stroke="#63b8ff" d="M544.12,-226.93C448.92,-221.47 254.5,-207.66 234.12,-185 209.77,-157.92 217.97,-111.72 225.47,-85.53"/>
<polygon fill="#63b8ff" stroke="#63b8ff" points="228.75,-86.77 228.39,-76.18 222.07,-84.68 228.75,-86.77"/>
</a>
</g>
</g>
<!-- Node4&#45;&gt;Node13 -->
<g id="edge28_Node000004_Node000013" class="edge">
<title>Node4&#45;&gt;Node13</title>
<g id="a_edge28_Node000004_Node000013"><a xlink:title=" ">
<path fill="none" stroke="#63b8ff" d="M648.01,-222.59C700.02,-215.08 782.18,-201.92 852.12,-185 912.24,-170.46 980.53,-147.94 1021.16,-133.89"/>
<polygon fill="#63b8ff" stroke="#63b8ff" points="1022.13,-137.26 1030.42,-130.66 1019.83,-130.65 1022.13,-137.26"/>
</a>
</g>
</g>
<!-- Node14 -->
<g id="Node000014" class="node">
<title>Node14</title>
<g id="a_Node000014"><a xlink:title=" ">
<polygon fill="#e0e0e0" stroke="#999999" points="973.75,-129.75 928.5,-129.75 928.5,-110.5 973.75,-110.5 973.75,-129.75"/>
<text text-anchor="middle" x="951.12" y="-116.25" font-family="Helvetica,sans-Serif" font-size="10.00">ranges</text>
</a>
</g>
</g>
<!-- Node4&#45;&gt;Node14 -->
<g id="edge30_Node000004_Node000014" class="edge">
<title>Node4&#45;&gt;Node14</title>
<g id="a_edge30_Node000004_Node000014"><a xlink:title=" ">
<path fill="none" stroke="#63b8ff" d="M648.42,-222.77C693.8,-215.95 760.87,-203.77 817.12,-185 838.08,-178.01 891.07,-151.73 923.79,-135.14"/>
<polygon fill="#63b8ff" stroke="#63b8ff" points="924.96,-138.47 932.28,-130.81 921.78,-132.23 924.96,-138.47"/>
</a>
</g>
</g>
<!-- Node16 -->
<g id="Node000016" class="node">
<title>Node16</title>
<g id="a_Node000016"><a xlink:href="../../d8/d32/_type_traits_8hpp.html" target="_top" xlink:title=" ">
<polygon fill="white" stroke="#666666" points="681.62,-129.75 560.62,-129.75 560.62,-110.5 681.62,-110.5 681.62,-129.75"/>
<text text-anchor="middle" x="621.12" y="-116.25" font-family="Helvetica,sans-Serif" font-size="10.00">mimic++/TypeTraits.hpp</text>
</a>
</g>
</g>
<!-- Node4&#45;&gt;Node16 -->
<g id="edge20_Node000004_Node000016" class="edge">
<title>Node4&#45;&gt;Node16</title>
<g id="a_edge20_Node000004_Node000016"><a xlink:title=" ">
<path fill="none" stroke="#63b8ff" d="M603.53,-220.75C610.13,-212.2 619.33,-198.61 623.12,-185 627.11,-170.73 626.39,-153.98 624.79,-141.2"/>
<polygon fill="#63b8ff" stroke="#63b8ff" points="628.28,-140.84 623.28,-131.5 621.36,-141.92 628.28,-140.84"/>
</a>
</g>
</g>
<!-- Node18 -->
<g id="Node000018" class="node">
<title>Node18</title>
<g id="a_Node000018"><a xlink:title=" ">
<polygon fill="#e0e0e0" stroke="#999999" points="449.75,-185 404.5,-185 404.5,-165.75 449.75,-165.75 449.75,-185"/>
<text text-anchor="middle" x="427.12" y="-171.5" font-family="Helvetica,sans-Serif" font-size="10.00">cstdint</text>
</a>
</g>
</g>
<!-- Node4&#45;&gt;Node18 -->
<g id="edge27_Node000004_Node000018" class="edge">
<title>Node4&#45;&gt;Node18</title>
<g id="a_edge27_Node000004_Node000018"><a xlink:title=" ">
<path fill="none" stroke="#63b8ff" d="M567.46,-220.59C538.02,-211.32 492.21,-196.88 461,-187.05"/>
<polygon fill="#63b8ff" stroke="#63b8ff" points="462.25,-183.77 451.66,-184.11 460.15,-190.45 462.25,-183.77"/>
</a>
</g>
</g>
<!-- Node19 -->
<g id="Node000019" class="node">
<title>Node19</title>
<g id="a_Node000019"><a xlink:title=" ">
<polygon fill="#e0e0e0" stroke="#999999" points="991.12,-185 945.12,-185 945.12,-165.75 991.12,-165.75 991.12,-185"/>
<text text-anchor="middle" x="968.12" y="-171.5" font-family="Helvetica,sans-Serif" font-size="10.00">iterator</text>
</a>
</g>
</g>
<!-- Node4&#45;&gt;Node19 -->
<g id="edge29_Node000004_Node000019" class="edge">
<title>Node4&#45;&gt;Node19</title>
<g id="a_edge29_Node000004_Node000019"><a xlink:title=" ">
<path fill="none" stroke="#63b8ff" d="M648.31,-224.25C714.41,-217.09 831.71,-203.17 931.12,-185 931.95,-184.85 932.79,-184.69 933.63,-184.53"/>
<polygon fill="#63b8ff" stroke="#63b8ff" points="934.16,-187.99 943.23,-182.51 932.72,-181.14 934.16,-187.99"/>
</a>
</g>
</g>
<!-- Node20 -->
<g id="Node000020" class="node">
<title>Node20</title>
<g id="a_Node000020"><a xlink:title=" ">
<polygon fill="#e0e0e0" stroke="#999999" points="518.75,-185 467.5,-185 467.5,-165.75 518.75,-165.75 518.75,-185"/>
<text text-anchor="middle" x="493.12" y="-171.5" font-family="Helvetica,sans-Serif" font-size="10.00">sstream</text>
</a>
</g>
</g>
<!-- Node4&#45;&gt;Node20 -->
<g id="edge32_Node000004_Node000020" class="edge">
<title>Node4&#45;&gt;Node20</title>
<g id="a_edge32_Node000004_Node000020"><a xlink:title=" ">
<path fill="none" stroke="#63b8ff" d="M578.65,-220.59C562.82,-212.41 539.22,-200.21 520.82,-190.69"/>
<polygon fill="#63b8ff" stroke="#63b8ff" points="522.52,-187.63 512.03,-186.15 519.3,-193.85 522.52,-187.63"/>
</a>
</g>
</g>
<!-- Node21 -->
<g id="Node000021" class="node">
<title>Node21</title>
<g id="a_Node000021"><a xlink:title=" ">
<polygon fill="#e0e0e0" stroke="#999999" points="581,-185 537.25,-185 537.25,-165.75 581,-165.75 581,-185"/>
<text text-anchor="middle" x="559.12" y="-171.5" font-family="Helvetica,sans-Serif" font-size="10.00">format</text>
</a>
</g>
</g>
<!-- Node4&#45;&gt;Node21 -->
<g id="edge36_Node000004_Node000021" class="edge">
<title>Node4&#45;&gt;Node21</title>
<g id="a_edge36_Node000004_Node000021"><a xlink:title=" ">
<path fill="none" stroke="#63b8ff" d="M590.02,-220.83C585.06,-213.71 577.92,-203.43 571.75,-194.55"/>
<polygon fill="#63b8ff" stroke="#63b8ff" points="574.81,-192.82 566.23,-186.6 569.06,-196.81 574.81,-192.82"/>
</a>
</g>
</g>
<!-- Node5&#45;&gt;Node2 -->
<g id="edge6_Node000005_Node000002" class="edge">
<title>Node5&#45;&gt;Node2</title>
<g id="a_edge6_Node000005_Node000002"><a xlink:title=" ">
<path fill="none" stroke="#63b8ff" d="M758.86,-165.27C782.35,-157.95 813.71,-146.18 838.12,-129.75 856.94,-117.09 874.37,-97.74 885.74,-83.66"/>
<polygon fill="#63b8ff" stroke="#63b8ff" points="888.26,-86.12 891.65,-76.09 882.74,-81.82 888.26,-86.12"/>
</a>
</g>
</g>
<!-- Node5&#45;&gt;Node3 -->
<g id="edge17_Node000005_Node000003" class="edge">
<title>Node5&#45;&gt;Node3</title>
<g id="a_edge17_Node000005_Node000003"><a xlink:title=" ">
<path fill="none" stroke="#63b8ff" d="M730.45,-165.57C746.03,-139.8 791.76,-64.15 813.02,-28.99"/>
<polygon fill="#63b8ff" stroke="#63b8ff" points="815.81,-31.14 817.99,-20.77 809.82,-27.51 815.81,-31.14"/>
</a>
</g>
</g>
<!-- Node5&#45;&gt;Node6 -->
<g id="edge7_Node000005_Node000006" class="edge">
<title>Node5&#45;&gt;Node6</title>
<g id="a_edge7_Node000005_Node000006"><a xlink:title=" ">
<path fill="none" stroke="#63b8ff" d="M674.3,-166.57C612.01,-157.02 506.55,-140.83 439.72,-130.58"/>
<polygon fill="#63b8ff" stroke="#63b8ff" points="440.44,-127.15 430.02,-129.09 439.37,-134.07 440.44,-127.15"/>
</a>
</g>
</g>
<!-- Node5&#45;&gt;Node9 -->
<g id="edge18_Node000005_Node000009" class="edge">
<title>Node5&#45;&gt;Node9</title>
<g id="a_edge18_Node000005_Node000009"><a xlink:title=" ">
<path fill="none" stroke="#63b8ff" d="M674.43,-169.13C638.25,-163.59 589.57,-152.35 552.12,-129.75 533.14,-118.29 516.71,-98.72 506.24,-84.25"/>
<polygon fill="#63b8ff" stroke="#63b8ff" points="509.13,-82.29 500.57,-76.06 503.38,-86.27 509.13,-82.29"/>
</a>
</g>
</g>
<!-- Node12 -->
<g id="Node000012" class="node">
<title>Node12</title>
<g id="a_Node000012"><a xlink:title=" ">
<polygon fill="#e0e0e0" stroke="#999999" points="776,-74.5 720.25,-74.5 720.25,-55.25 776,-55.25 776,-74.5"/>
<text text-anchor="middle" x="748.12" y="-61" font-family="Helvetica,sans-Serif" font-size="10.00">concepts</text>
</a>
</g>
</g>
<!-- Node5&#45;&gt;Node12 -->
<g id="edge14_Node000005_Node000012" class="edge">
<title>Node5&#45;&gt;Node12</title>
<g id="a_edge14_Node000005_Node000012"><a xlink:title=" ">
<path fill="none" stroke="#63b8ff" d="M727.01,-165.5C730.66,-148.25 738.81,-109.83 743.85,-86.06"/>
<polygon fill="#63b8ff" stroke="#63b8ff" points="747.25,-86.87 745.9,-76.36 740.41,-85.41 747.25,-86.87"/>
</a>
</g>
</g>
<!-- Node5&#45;&gt;Node13 -->
<g id="edge15_Node000005_Node000013" class="edge">
<title>Node5&#45;&gt;Node13</title>
<g id="a_edge15_Node000005_Node000013"><a xlink:title=" ">
<path fill="none" stroke="#63b8ff" d="M775.91,-166.23C841.98,-155.63 956.11,-137.33 1016.67,-127.61"/>
<polygon fill="#63b8ff" stroke="#63b8ff" points="1017.22,-131.07 1026.54,-126.03 1016.11,-124.16 1017.22,-131.07"/>
</a>
</g>
</g>
<!-- Node5&#45;&gt;Node14 -->
<g id="edge16_Node000005_Node000014" class="edge">
<title>Node5&#45;&gt;Node14</title>
<g id="a_edge16_Node000005_Node000014"><a xlink:title=" ">
<path fill="none" stroke="#63b8ff" d="M763.72,-165.28C806.84,-155.12 875.98,-138.83 917.14,-129.13"/>
<polygon fill="#63b8ff" stroke="#63b8ff" points="917.8,-132.57 926.73,-126.87 916.2,-125.76 917.8,-132.57"/>
</a>
</g>
</g>
<!-- Node15 -->
<g id="Node000015" class="node">
<title>Node15</title>
<g id="a_Node000015"><a xlink:title=" ">
<polygon fill="#e0e0e0" stroke="#999999" points="702.62,-74.5 641.62,-74.5 641.62,-55.25 702.62,-55.25 702.62,-74.5"/>
<text text-anchor="middle" x="672.12" y="-61" font-family="Helvetica,sans-Serif" font-size="10.00">type_traits</text>
</a>
</g>
</g>
<!-- Node5&#45;&gt;Node15 -->
<g id="edge19_Node000005_Node000015" class="edge">
<title>Node5&#45;&gt;Node15</title>
<g id="a_edge19_Node000005_Node000015"><a xlink:title=" ">
<path fill="none" stroke="#63b8ff" d="M720.79,-165.5C712.25,-148.01 693.08,-108.77 681.51,-85.09"/>
<polygon fill="#63b8ff" stroke="#63b8ff" points="684.72,-83.69 677.19,-76.24 678.43,-86.76 684.72,-83.69"/>
</a>
</g>
</g>
<!-- Node6&#45;&gt;Node2 -->
<g id="edge8_Node000006_Node000002" class="edge">
<title>Node6&#45;&gt;Node2</title>
<g id="a_edge8_Node000006_Node000002"><a xlink:title=" ">
<path fill="none" stroke="#63b8ff" d="M428.55,-113.97C525.44,-104.07 737.11,-82.43 840.26,-71.89"/>
<polygon fill="#63b8ff" stroke="#63b8ff" points="840.6,-75.38 850.19,-70.88 839.89,-68.41 840.6,-75.38"/>
</a>
</g>
</g>
<!-- Node6&#45;&gt;Node7 -->
<g id="edge9_Node000006_Node000007" class="edge">
<title>Node6&#45;&gt;Node7</title>
<g id="a_edge9_Node000006_Node000007"><a xlink:title=" ">
<path fill="none" stroke="#63b8ff" d="M327.78,-111.55C255.33,-100.65 123.43,-80.81 60.03,-71.28"/>
<polygon fill="#63b8ff" stroke="#63b8ff" points="60.57,-67.82 50.16,-69.79 59.53,-74.74 60.57,-67.82"/>
</a>
</g>
</g>
<!-- Node6&#45;&gt;Node8 -->
<g id="edge10_Node000006_Node000008" class="edge">
<title>Node6&#45;&gt;Node8</title>
<g id="a_edge10_Node000006_Node000008"><a xlink:title=" ">
<path fill="none" stroke="#63b8ff" d="M366.76,-110.09C357.08,-102.4 342.93,-91.15 331.32,-81.93"/>
<polygon fill="#63b8ff" stroke="#63b8ff" points="333.51,-79.2 323.51,-75.72 329.16,-84.68 333.51,-79.2"/>
</a>
</g>
</g>
<!-- Node6&#45;&gt;Node9 -->
<g id="edge11_Node000006_Node000009" class="edge">
<title>Node6&#45;&gt;Node9</title>
<g id="a_edge11_Node000006_Node000009"><a xlink:title=" ">
<path fill="none" stroke="#63b8ff" d="M397.8,-110.09C415.97,-101.75 443.21,-89.25 464.09,-79.66"/>
<polygon fill="#63b8ff" stroke="#63b8ff" points="465.35,-82.94 472.98,-75.58 462.43,-76.58 465.35,-82.94"/>
</a>
</g>
</g>
<!-- Node6&#45;&gt;Node10 -->
<g id="edge12_Node000006_Node000010" class="edge">
<title>Node6&#45;&gt;Node10</title>
<g id="a_edge12_Node000006_Node000010"><a xlink:title=" ">
<path fill="none" stroke="#63b8ff" d="M382.09,-110.33C385.16,-103.51 389.54,-93.81 393.41,-85.2"/>
<polygon fill="#63b8ff" stroke="#63b8ff" points="396.54,-86.79 397.45,-76.24 390.15,-83.92 396.54,-86.79"/>
</a>
</g>
</g>
<!-- Node6&#45;&gt;Node11 -->
<g id="edge13_Node000006_Node000011" class="edge">
<title>Node6&#45;&gt;Node11</title>
<g id="a_edge13_Node000006_Node000011"><a xlink:title=" ">
<path fill="none" stroke="#63b8ff" d="M353.36,-110.09C328.3,-100.95 289.52,-86.81 262.59,-76.99"/>
<polygon fill="#63b8ff" stroke="#63b8ff" points="263.87,-73.73 253.28,-73.59 261.47,-80.3 263.87,-73.73"/>
</a>
</g>
</g>
<!-- Node16&#45;&gt;Node2 -->
<g id="edge21_Node000016_Node000002" class="edge">
<title>Node16&#45;&gt;Node2</title>
<g id="a_edge21_Node000016_Node000002"><a xlink:title=" ">
<path fill="none" stroke="#63b8ff" d="M668.6,-110.03C716.18,-100.92 789.51,-86.87 840.65,-77.08"/>
<polygon fill="#63b8ff" stroke="#63b8ff" points="841.2,-80.53 850.36,-75.22 839.88,-73.66 841.2,-80.53"/>
</a>
</g>
</g>
<!-- Node16&#45;&gt;Node10 -->
<g id="edge24_Node000016_Node000010" class="edge">
<title>Node16&#45;&gt;Node10</title>
<g id="a_edge24_Node000016_Node000010"><a xlink:title=" ">
<path fill="none" stroke="#63b8ff" d="M583.97,-110.09C541.08,-99.66 471.38,-82.72 431.89,-73.11"/>
<polygon fill="#63b8ff" stroke="#63b8ff" points="432.92,-69.76 422.38,-70.8 431.27,-76.56 432.92,-69.76"/>
</a>
</g>
</g>
<!-- Node16&#45;&gt;Node12 -->
<g id="edge22_Node000016_Node000012" class="edge">
<title>Node16&#45;&gt;Node12</title>
<g id="a_edge22_Node000016_Node000012"><a xlink:title=" ">
<path fill="none" stroke="#63b8ff" d="M642.67,-110.09C662.74,-101.68 692.93,-89.02 715.87,-79.4"/>
<polygon fill="#63b8ff" stroke="#63b8ff" points="717.21,-82.63 725.08,-75.54 714.5,-76.18 717.21,-82.63"/>
</a>
</g>
</g>
<!-- Node16&#45;&gt;Node15 -->
<g id="edge25_Node000016_Node000015" class="edge">
<title>Node16&#45;&gt;Node15</title>
<g id="a_edge25_Node000016_Node000015"><a xlink:title=" ">
<path fill="none" stroke="#63b8ff" d="M629.55,-110.33C636.66,-102.9 647.07,-92.04 655.81,-82.91"/>
<polygon fill="#63b8ff" stroke="#63b8ff" points="658.08,-85.6 662.47,-75.95 653.03,-80.75 658.08,-85.6"/>
</a>
</g>
</g>
<!-- Node17 -->
<g id="Node000017" class="node">
<title>Node17</title>
<g id="a_Node000017"><a xlink:title=" ">
<polygon fill="#e0e0e0" stroke="#999999" points="623.25,-74.5 575,-74.5 575,-55.25 623.25,-55.25 623.25,-74.5"/>
<text text-anchor="middle" x="599.12" y="-61" font-family="Helvetica,sans-Serif" font-size="10.00">cstddef</text>
</a>
</g>
</g>
<!-- Node16&#45;&gt;Node17 -->
<g id="edge23_Node000016_Node000017" class="edge">
<title>Node16&#45;&gt;Node17</title>
<g id="a_edge23_Node000016_Node000017"><a xlink:title=" ">
<path fill="none" stroke="#63b8ff" d="M617.49,-110.33C614.71,-103.59 610.75,-94.02 607.23,-85.49"/>
<polygon fill="#63b8ff" stroke="#63b8ff" points="610.47,-84.16 603.41,-76.26 604,-86.84 610.47,-84.16"/>
</a>
</g>
</g>
<!-- Node22&#45;&gt;Node2 -->
<g id="edge45_Node000022_Node000002" class="edge">
<title>Node22&#45;&gt;Node2</title>
<g id="a_edge45_Node000022_Node000002"><a xlink:title=" ">
<path fill="none" stroke="#63b8ff" d="M865.46,-339.79C932.59,-337.75 1047.21,-329.06 1139.12,-295.5 1182.15,-279.79 1204.06,-280.39 1226.12,-240.25 1286.28,-130.79 1067.16,-87.07 957.73,-72.33"/>
<polygon fill="#63b8ff" stroke="#63b8ff" points="958.41,-68.89 948.05,-71.06 957.51,-75.83 958.41,-68.89"/>
</a>
</g>
</g>
<!-- Node22&#45;&gt;Node4 -->
<g id="edge46_Node000022_Node000004" class="edge">
<title>Node22&#45;&gt;Node4</title>
<g id="a_edge46_Node000022_Node000004"><a xlink:title=" ">
<path fill="none" stroke="#63b8ff" d="M758.72,-331.04C729.16,-324.23 691.89,-313.02 662.12,-295.5 641.38,-283.29 622.16,-263.28 609.87,-248.9"/>
<polygon fill="#63b8ff" stroke="#63b8ff" points="612.88,-247.05 603.81,-241.58 607.49,-251.51 612.88,-247.05"/>
</a>
</g>
</g>
<!-- Node22&#45;&gt;Node7 -->
<g id="edge60_Node000022_Node000007" class="edge">
<title>Node22&#45;&gt;Node7</title>
<g id="a_edge60_Node000022_Node000007"><a xlink:title=" ">
<path fill="none" stroke="#63b8ff" d="M752.72,-333.44C641.93,-318.69 390.07,-277.08 199.12,-185 138.22,-155.63 74.48,-106.95 43.43,-81.89"/>
<polygon fill="#63b8ff" stroke="#63b8ff" points="46.01,-79.48 36.05,-75.87 41.59,-84.9 46.01,-79.48"/>
</a>
</g>
</g>
<!-- Node22&#45;&gt;Node13 -->
<g id="edge62_Node000022_Node000013" class="edge">
<title>Node22&#45;&gt;Node13</title>
<g id="a_edge62_Node000022_Node000013"><a xlink:title=" ">
<path fill="none" stroke="#63b8ff" d="M865.5,-336.88C926.91,-332.1 1019.56,-320.81 1043.12,-295.5 1082.56,-253.15 1071.05,-177.24 1062.58,-141.19"/>
<polygon fill="#63b8ff" stroke="#63b8ff" points="1066.02,-140.53 1060.18,-131.69 1059.24,-142.24 1066.02,-140.53"/>
</a>
</g>
</g>
<!-- Node22&#45;&gt;Node14 -->
<g id="edge65_Node000022_Node000014" class="edge">
<title>Node22&#45;&gt;Node14</title>
<g id="a_edge65_Node000022_Node000014"><a xlink:title=" ">
<path fill="none" stroke="#63b8ff" d="M788.15,-331.09C746.44,-311.87 659.99,-265.11 695.12,-221 739.73,-165.01 786.17,-212.83 852.12,-185 881.49,-172.61 911.79,-151.64 931.01,-137.12"/>
<polygon fill="#63b8ff" stroke="#63b8ff" points="933,-140 938.78,-131.12 928.73,-134.46 933,-140"/>
</a>
</g>
</g>
<!-- Node23 -->
<g id="Node000023" class="node">
<title>Node23</title>
<g id="a_Node000023"><a xlink:href="../../dc/d44/_call_8hpp.html" target="_top" xlink:title=" ">
<polygon fill="white" stroke="#666666" points="348,-185 256.25,-185 256.25,-165.75 348,-165.75 348,-185"/>
<text text-anchor="middle" x="302.12" y="-171.5" font-family="Helvetica,sans-Serif" font-size="10.00">mimic++/Call.hpp</text>
</a>
</g>
</g>
<!-- Node22&#45;&gt;Node23 -->
<g id="edge38_Node000022_Node000023" class="edge">
<title>Node22&#45;&gt;Node23</title>
<g id="a_edge38_Node000022_Node000023"><a xlink:title=" ">
<path fill="none" stroke="#63b8ff" d="M767.72,-331.04C699.74,-315.6 560.68,-281.85 447.12,-240.25 405.9,-225.15 359.71,-204.05 330.78,-190.3"/>
<polygon fill="#63b8ff" stroke="#63b8ff" points="332.48,-187.23 321.95,-186.07 329.46,-193.55 332.48,-187.23"/>
</a>
</g>
</g>
<!-- Node24 -->
<g id="Node000024" class="node">
<title>Node24</title>
<g id="a_Node000024"><a xlink:href="../../d0/d3b/_reports_8hpp.html" target="_top" xlink:title=" ">
<polygon fill="white" stroke="#666666" points="1033.62,-295.5 924.62,-295.5 924.62,-276.25 1033.62,-276.25 1033.62,-295.5"/>
<text text-anchor="middle" x="979.12" y="-282" font-family="Helvetica,sans-Serif" font-size="10.00">mimic++/Reports.hpp</text>
</a>
</g>
</g>
<!-- Node22&#45;&gt;Node24 -->
<g id="edge47_Node000022_Node000024" class="edge">
<title>Node22&#45;&gt;Node24</title>
<g id="a_edge47_Node000022_Node000024"><a xlink:title=" ">
<path fill="none" stroke="#63b8ff" d="M837.96,-331.09C865.8,-322.37 908.2,-309.09 939.26,-299.36"/>
<polygon fill="#63b8ff" stroke="#63b8ff" points="940.2,-302.73 948.7,-296.4 938.11,-296.05 940.2,-302.73"/>
</a>
</g>
</g>
<!-- Node22&#45;&gt;Node25 -->
<g id="edge59_Node000022_Node000025" class="edge">
<title>Node22&#45;&gt;Node25</title>
<g id="a_edge59_Node000022_Node000025"><a xlink:title=" ">
<path fill="none" stroke="#63b8ff" d="M865.42,-340.38C927.56,-338.73 1029.35,-330.24 1109.12,-295.5 1134.46,-284.47 1158.53,-263.27 1173.53,-248.33"/>
<polygon fill="#63b8ff" stroke="#63b8ff" points="1175.74,-251.08 1180.2,-241.47 1170.72,-246.2 1175.74,-251.08"/>
</a>
</g>
</g>
<!-- Node26 -->
<g id="Node000026" class="node">
<title>Node26</title>
<g id="a_Node000026"><a xlink:title=" ">
<polygon fill="#e0e0e0" stroke="#999999" points="754,-240.25 704.25,-240.25 704.25,-221 754,-221 754,-240.25"/>
<text text-anchor="middle" x="729.12" y="-226.75" font-family="Helvetica,sans-Serif" font-size="10.00">optional</text>
</a>
</g>
</g>
<!-- Node22&#45;&gt;Node26 -->
<g id="edge64_Node000022_Node000026" class="edge">
<title>Node22&#45;&gt;Node26</title>
<g id="a_edge64_Node000022_Node000026"><a xlink:title=" ">
<path fill="none" stroke="#63b8ff" d="M798.9,-331.22C789.44,-322.66 775.34,-309.05 765.12,-295.5 754.46,-281.35 744.75,-263.7 738.11,-250.54"/>
<polygon fill="#63b8ff" stroke="#63b8ff" points="741.32,-249.14 733.78,-241.69 735.03,-252.21 741.32,-249.14"/>
</a>
</g>
</g>
<!-- Node29 -->
<g id="Node000029" class="node">
<title>Node29</title>
<g id="a_Node000029"><a xlink:title=" ">
<polygon fill="#e0e0e0" stroke="#999999" points="814.62,-240.25 771.62,-240.25 771.62,-221 814.62,-221 814.62,-240.25"/>
<text text-anchor="middle" x="793.12" y="-226.75" font-family="Helvetica,sans-Serif" font-size="10.00">vector</text>
</a>
</g>
</g>
<!-- Node22&#45;&gt;Node29 -->
<g id="edge66_Node000022_Node000029" class="edge">
<title>Node22&#45;&gt;Node29</title>
<g id="a_edge66_Node000022_Node000029"><a xlink:title=" ">
<path fill="none" stroke="#63b8ff" d="M798.05,-331.2C788.86,-323.03 776.47,-310.02 771.12,-295.5 765.49,-280.19 772.47,-262.67 780.02,-249.85"/>
<polygon fill="#63b8ff" stroke="#63b8ff" points="782.86,-251.9 785.41,-241.61 777.01,-248.07 782.86,-251.9"/>
</a>
</g>
</g>
<!-- Node30 -->
<g id="Node000030" class="node">
<title>Node30</title>
<g id="a_Node000030"><a xlink:title=" ">
<polygon fill="#e0e0e0" stroke="#999999" points="837.75,-295.5 780.5,-295.5 780.5,-276.25 837.75,-276.25 837.75,-295.5"/>
<text text-anchor="middle" x="809.12" y="-282" font-family="Helvetica,sans-Serif" font-size="10.00">exception</text>
</a>
</g>
</g>
<!-- Node22&#45;&gt;Node30 -->
<g id="edge61_Node000022_Node000030" class="edge">
<title>Node22&#45;&gt;Node30</title>
<g id="a_edge61_Node000022_Node000030"><a xlink:title=" ">
<path fill="none" stroke="#63b8ff" d="M809.12,-331.33C809.12,-324.82 809.12,-315.67 809.12,-307.37"/>
<polygon fill="#63b8ff" stroke="#63b8ff" points="812.63,-307.37 809.13,-297.37 805.63,-307.37 812.63,-307.37"/>
</a>
</g>
</g>
<!-- Node31 -->
<g id="Node000031" class="node">
<title>Node31</title>
<g id="a_Node000031"><a xlink:title=" ">
<polygon fill="#e0e0e0" stroke="#999999" points="906.38,-295.5 855.88,-295.5 855.88,-276.25 906.38,-276.25 906.38,-295.5"/>
<text text-anchor="middle" x="881.12" y="-282" font-family="Helvetica,sans-Serif" font-size="10.00">memory</text>
</a>
</g>
</g>
<!-- Node22&#45;&gt;Node31 -->
<g id="edge63_Node000022_Node000031" class="edge">
<title>Node22&#45;&gt;Node31</title>
<g id="a_edge63_Node000022_Node000031"><a xlink:title=" ">
<path fill="none" stroke="#63b8ff" d="M821.34,-331.09C831.95,-323.24 847.56,-311.7 860.17,-302.37"/>
<polygon fill="#63b8ff" stroke="#63b8ff" points="861.92,-305.44 867.87,-296.67 857.75,-299.81 861.92,-305.44"/>
</a>
</g>
</g>
<!-- Node23&#45;&gt;Node2 -->
<g id="edge39_Node000023_Node000002" class="edge">
<title>Node23&#45;&gt;Node2</title>
<g id="a_edge39_Node000023_Node000002"><a xlink:title=" ">
<path fill="none" stroke="#63b8ff" d="M348.17,-170.16C436.47,-161.91 626.58,-143.24 691.12,-129.75 753.15,-116.78 823.19,-93.39 864.11,-78.8"/>
<polygon fill="#63b8ff" stroke="#63b8ff" points="865.21,-82.12 873.43,-75.44 862.83,-75.54 865.21,-82.12"/>
</a>
</g>
</g>
<!-- Node23&#45;&gt;Node6 -->
<g id="edge41_Node000023_Node000006" class="edge">
<title>Node23&#45;&gt;Node6</title>
<g id="a_edge41_Node000023_Node000006"><a xlink:title=" ">
<path fill="none" stroke="#63b8ff" d="M315.02,-165.34C326.15,-157.54 342.5,-146.09 355.76,-136.79"/>
<polygon fill="#63b8ff" stroke="#63b8ff" points="357.75,-139.68 363.93,-131.07 353.73,-133.94 357.75,-139.68"/>
</a>
</g>
</g>
<!-- Node23&#45;&gt;Node8 -->
<g id="edge42_Node000023_Node000008" class="edge">
<title>Node23&#45;&gt;Node8</title>
<g id="a_edge42_Node000023_Node000008"><a xlink:title=" ">
<path fill="none" stroke="#63b8ff" d="M302.86,-165.5C304.29,-148.25 307.48,-109.83 309.45,-86.06"/>
<polygon fill="#63b8ff" stroke="#63b8ff" points="312.91,-86.64 310.25,-76.39 305.94,-86.06 312.91,-86.64"/>
</a>
</g>
</g>
<!-- Node23&#45;&gt;Node10 -->
<g id="edge43_Node000023_Node000010" class="edge">
<title>Node23&#45;&gt;Node10</title>
<g id="a_edge43_Node000023_Node000010"><a xlink:title=" ">
<path fill="none" stroke="#63b8ff" d="M348.35,-172.36C378.95,-168.33 417.03,-157.56 437.12,-129.75 447.94,-114.78 435.03,-96.11 421.94,-82.83"/>
<polygon fill="#63b8ff" stroke="#63b8ff" points="424.36,-80.29 414.67,-76.01 419.57,-85.4 424.36,-80.29"/>
</a>
</g>
</g>
<!-- Node23&#45;&gt;Node11 -->
<g id="edge44_Node000023_Node000011" class="edge">
<title>Node23&#45;&gt;Node11</title>
<g id="a_edge44_Node000023_Node000011"><a xlink:title=" ">
<path fill="none" stroke="#63b8ff" d="M296.4,-165.5C285.01,-147.85 259.34,-108.05 244.11,-84.45"/>
<polygon fill="#63b8ff" stroke="#63b8ff" points="247.12,-82.65 238.75,-76.15 241.23,-86.45 247.12,-82.65"/>
</a>
</g>
</g>
<!-- Node23&#45;&gt;Node16 -->
<g id="edge40_Node000023_Node000016" class="edge">
<title>Node23&#45;&gt;Node16</title>
<g id="a_edge40_Node000023_Node000016"><a xlink:title=" ">
<path fill="none" stroke="#63b8ff" d="M348.17,-166.69C402.58,-157.61 493.53,-142.42 555.35,-132.1"/>
<polygon fill="#63b8ff" stroke="#63b8ff" points="555.76,-135.58 565.05,-130.49 554.61,-128.68 555.76,-135.58"/>
</a>
</g>
</g>
<!-- Node24&#45;&gt;Node2 -->
<g id="edge49_Node000024_Node000002" class="edge">
<title>Node24&#45;&gt;Node2</title>
<g id="a_edge49_Node000024_Node000002"><a xlink:title=" ">
<path fill="none" stroke="#63b8ff" d="M993.63,-275.79C1034.18,-249.29 1142.75,-170.18 1095.12,-110.5 1078.13,-89.2 1008.91,-77.28 957.52,-71.22"/>
<polygon fill="#63b8ff" stroke="#63b8ff" points="958.03,-67.76 947.71,-70.12 957.25,-74.71 958.03,-67.76"/>
</a>
</g>
</g>
<!-- Node24&#45;&gt;Node4 -->
<g id="edge50_Node000024_Node000004" class="edge">
<title>Node24&#45;&gt;Node4</title>
<g id="a_edge50_Node000024_Node000004"><a xlink:title=" ">
<path fill="none" stroke="#63b8ff" d="M924.25,-277.25C854.21,-267.51 733.29,-250.7 659.43,-240.43"/>
<polygon fill="#63b8ff" stroke="#63b8ff" points="660.32,-237.02 649.94,-239.11 659.36,-243.95 660.32,-237.02"/>
</a>
</g>
</g>
<!-- Node24&#45;&gt;Node13 -->
<g id="edge52_Node000024_Node000013" class="edge">
<title>Node24&#45;&gt;Node13</title>
<g id="a_edge52_Node000024_Node000013"><a xlink:title=" ">
<path fill="none" stroke="#63b8ff" d="M987.85,-275.97C995.85,-267.42 1007.56,-253.81 1015.12,-240.25 1033.32,-207.63 1045.9,-165.69 1052.27,-141.27"/>
<polygon fill="#63b8ff" stroke="#63b8ff" points="1055.64,-142.25 1054.67,-131.7 1048.85,-140.55 1055.64,-142.25"/>
</a>
</g>
</g>
<!-- Node24&#45;&gt;Node14 -->
<g id="edge55_Node000024_Node000014" class="edge">
<title>Node24&#45;&gt;Node14</title>
<g id="a_edge55_Node000024_Node000014"><a xlink:title=" ">
<path fill="none" stroke="#63b8ff" d="M924.35,-277.83C901.14,-271.84 876.25,-260.75 862.12,-240.25 857.27,-233.2 856.89,-227.77 862.12,-221 900.88,-170.84 961.37,-235.16 1000.12,-185 1012.93,-168.42 993.95,-149.36 976.01,-136.41"/>
<polygon fill="#63b8ff" stroke="#63b8ff" points="978.39,-133.8 968.15,-131.09 974.47,-139.59 978.39,-133.8"/>
</a>
</g>
</g>
<!-- Node24&#45;&gt;Node19 -->
<g id="edge53_Node000024_Node000019" class="edge">
<title>Node24&#45;&gt;Node19</title>
<g id="a_edge53_Node000024_Node000019"><a xlink:title=" ">
<path fill="none" stroke="#63b8ff" d="M985.84,-275.79C994.13,-263.42 1006.41,-240.56 1000.12,-221 996.97,-211.17 990.75,-201.67 984.64,-193.99"/>
<polygon fill="#63b8ff" stroke="#63b8ff" points="987.34,-191.76 978.16,-186.47 982.04,-196.33 987.34,-191.76"/>
</a>
</g>
</g>
<!-- Node24&#45;&gt;Node23 -->
<g id="edge48_Node000024_Node000023" class="edge">
<title>Node24&#45;&gt;Node23</title>
<g id="a_edge48_Node000024_Node000023"><a xlink:title=" ">
<path fill="none" stroke="#63b8ff" d="M924.33,-277.35C921.22,-276.96 918.13,-276.59 915.12,-276.25 746.59,-256.92 702,-270.79 535.12,-240.25 465.14,-227.44 385.6,-203.56 339.9,-188.91"/>
<polygon fill="#63b8ff" stroke="#63b8ff" points="341.07,-185.61 330.47,-185.86 338.91,-192.27 341.07,-185.61"/>
</a>
</g>
</g>
<!-- Node24&#45;&gt;Node25 -->
<g id="edge51_Node000024_Node000025" class="edge">
<title>Node24&#45;&gt;Node25</title>
<g id="a_edge51_Node000024_Node000025"><a xlink:title=" ">
<path fill="none" stroke="#63b8ff" d="M1014.75,-275.84C1052.35,-266.31 1111.42,-251.33 1150.22,-241.49"/>
<polygon fill="#63b8ff" stroke="#63b8ff" points="1150.77,-244.96 1159.6,-239.11 1149.05,-238.18 1150.77,-244.96"/>
</a>
</g>
</g>
<!-- Node24&#45;&gt;Node26 -->
<g id="edge54_Node000024_Node000026" class="edge">
<title>Node24&#45;&gt;Node26</title>
<g id="a_edge54_Node000024_Node000026"><a xlink:title=" ">
<path fill="none" stroke="#63b8ff" d="M932.22,-275.81C890.78,-267.67 828.44,-255.07 765.31,-240.67"/>
<polygon fill="#63b8ff" stroke="#63b8ff" points="766.35,-237.32 755.82,-238.5 764.78,-244.14 766.35,-237.32"/>
</a>
</g>
</g>
<!-- Node27 -->
<g id="Node000027" class="node">
<title>Node27</title>
<g id="a_Node000027"><a xlink:title=" ">
<polygon fill="#e0e0e0" stroke="#999999" points="927.38,-240.25 870.88,-240.25 870.88,-221 927.38,-221 927.38,-240.25"/>
<text text-anchor="middle" x="899.12" y="-226.75" font-family="Helvetica,sans-Serif" font-size="10.00">typeindex</text>
</a>
</g>
</g>
<!-- Node24&#45;&gt;Node27 -->
<g id="edge56_Node000024_Node000027" class="edge">
<title>Node24&#45;&gt;Node27</title>
<g id="a_edge56_Node000024_Node000027"><a xlink:title=" ">
<path fill="none" stroke="#63b8ff" d="M965.55,-275.84C953.72,-267.96 936.29,-256.36 922.25,-247.02"/>
<polygon fill="#63b8ff" stroke="#63b8ff" points="924.29,-244.17 914.02,-241.54 920.41,-250 924.29,-244.17"/>
</a>
</g>
</g>
<!-- Node28 -->
<g id="Node000028" class="node">
<title>Node28</title>
<g id="a_Node000028"><a xlink:title=" ">
<polygon fill="#e0e0e0" stroke="#999999" points="990.75,-240.25 945.5,-240.25 945.5,-221 990.75,-221 990.75,-240.25"/>
<text text-anchor="middle" x="968.12" y="-226.75" font-family="Helvetica,sans-Serif" font-size="10.00">variant</text>
</a>
</g>
</g>
<!-- Node24&#45;&gt;Node28 -->
<g id="edge57_Node000024_Node000028" class="edge">
<title>Node24&#45;&gt;Node28</title>
<g id="a_edge57_Node000024_Node000028"><a xlink:title=" ">
<path fill="none" stroke="#63b8ff" d="M977.31,-276.08C975.95,-269.49 974.03,-260.21 972.3,-251.82"/>
<polygon fill="#63b8ff" stroke="#63b8ff" points="975.74,-251.18 970.29,-242.09 968.88,-252.59 975.74,-251.18"/>
</a>
</g>
</g>
<!-- Node24&#45;&gt;Node29 -->
<g id="edge58_Node000024_Node000029" class="edge">
<title>Node24&#45;&gt;Node29</title>
<g id="a_edge58_Node000024_Node000029"><a xlink:title=" ">
<path fill="none" stroke="#63b8ff" d="M947.57,-275.84C913.68,-266.14 860.07,-250.79 825.76,-240.97"/>
<polygon fill="#63b8ff" stroke="#63b8ff" points="826.95,-237.67 816.38,-238.28 825.03,-244.4 826.95,-237.67"/>
</a>
</g>
</g>
</g>
</svg>
