<?xml version="1.0" encoding="UTF-8" standalone="no"?>
<!DOCTYPE svg PUBLIC "-//W3C//DTD SVG 1.1//EN"
 "http://www.w3.org/Graphics/SVG/1.1/DTD/svg11.dtd">
<!-- Generated by graphviz version 9.0.0 (20230911.1827)
 -->
<!-- Title: mimic++/ExpectationBuilder.hpp Pages: 1 -->
<!--zoomable 359 -->

<svg id="main" version="1.1" xmlns="http://www.w3.org/2000/svg" xmlns:xlink="http://www.w3.org/1999/xlink" xml:space="preserve" onload="init(evt)">
<style type="text/css"><![CDATA[
.node, .edge {opacity: 0.7;}
.node.selected, .edge.selected {opacity: 1;}
.edge:hover path { stroke: red; }
.edge:hover polygon { stroke: red; fill: red; }
]]></style>

<defs>
  <circle id="rim" cx="0" cy="0" r="7"/>
  <circle id="rim2" cx="0" cy="0" r="3.5"/>
  <g id="zoomPlus">
    <use xlink:href="#rim" fill="#404040"><set attributeName="fill" to="#808080" begin="zoomplus.mouseover" end="zoomplus.mouseout"/></use>
    <path d="M-4,0h8M0,-4v8" fill="none" stroke="white" stroke-width="1.5" pointer-events="none"/>
  </g>
  <g id="zoomMin">
    <use xlink:href="#rim" fill="#404040"><set attributeName="fill" to="#808080" begin="zoomminus.mouseover" end="zoomminus.mouseout"/></use>
    <path d="M-4,0h8" fill="none" stroke="white" stroke-width="1.5" pointer-events="none"/>
  </g>
  <g id="arrowUp" transform="translate(30 24)">
    <use xlink:href="#rim"/>
    <path pointer-events="none" fill="none" stroke="white" stroke-width="1.5" d="M0,-3.0v7 M-2.5,-0.5L0,-3.0L2.5,-0.5"/>
  </g>
  <g id="arrowRight" transform="rotate(90) translate(36 -43)">
    <use xlink:href="#rim"/>
    <path pointer-events="none" fill="none" stroke="white" stroke-width="1.5" d="M0,-3.0v7 M-2.5,-0.5L0,-3.0L2.5,-0.5"/>
  </g>
  <g id="arrowDown" transform="rotate(180) translate(-30 -48)">
    <use xlink:href="#rim"/>
    <path pointer-events="none" fill="none" stroke="white" stroke-width="1.5" d="M0,-3.0v7 M-2.5,-0.5L0,-3.0L2.5,-0.5"/>
  </g>
  <g id="arrowLeft" transform="rotate(270) translate(-36 17)">
    <use xlink:href="#rim"/>
    <path pointer-events="none" fill="none" stroke="white" stroke-width="1.5" d="M0,-3.0v7 M-2.5,-0.5L0,-3.0L2.5,-0.5"/>
  </g>
  <g id="resetDef">
    <use xlink:href="#rim2" fill="#404040"><set attributeName="fill" to="#808080" begin="reset.mouseover" end="reset.mouseout"/></use>
  </g>
</defs>
<script type="application/ecmascript">
var viewWidth = 1086;
var viewHeight = 359;
var sectionId = 'dynsection-0';
</script>
<script type="application/ecmascript" xlink:href="../../svg.min.js"/>
<svg id="graph" class="graph">
<g id="viewport">
<title>mimic++/ExpectationBuilder.hpp</title>
<!-- Node1 -->
<g id="Node000001" class="node">
<title>Node1</title>
<g id="a_Node000001"><a xlink:title=" ">
<polygon fill="#999999" stroke="#666666" points="504.97,-350.75 349.47,-350.75 349.47,-331.5 504.97,-331.5 504.97,-350.75"/>
<text text-anchor="middle" x="427.22" y="-337.25" font-family="Helvetica,sans-Serif" font-size="10.00">mimic++/ExpectationBuilder.hpp</text>
</a>
</g>
</g>
<!-- Node2 -->
<g id="Node000002" class="node">
<title>Node2</title>
<g id="a_Node000002"><a xlink:href="../../d5/d8a/_expectation_8hpp.html" target="_top" xlink:title=" ">
<polygon fill="white" stroke="#666666" points="367.97,-240.25 242.47,-240.25 242.47,-221 367.97,-221 367.97,-240.25"/>
<text text-anchor="middle" x="305.22" y="-226.75" font-family="Helvetica,sans-Serif" font-size="10.00">mimic++/Expectation.hpp</text>
</a>
</g>
</g>
<!-- Node1&#45;&gt;Node2 -->
<g id="edge1_Node000001_Node000002" class="edge">
<title>Node1&#45;&gt;Node2</title>
<g id="a_edge1_Node000001_Node000002"><a xlink:title=" ">
<path fill="none" stroke="#63b8ff" d="M417.24,-331.25C396.77,-313.05 349.8,-271.27 323.65,-248.01"/>
<polygon fill="#63b8ff" stroke="#63b8ff" points="326.27,-245.66 316.47,-241.63 321.62,-250.89 326.27,-245.66"/>
</a>
</g>
</g>
<!-- Node27 -->
<g id="Node000027" class="node">
<title>Node27</title>
<g id="a_Node000027"><a xlink:href="../../d8/de5/_expectation_policies_8hpp.html" target="_top" xlink:title=" ">
<polygon fill="white" stroke="#666666" points="628.22,-295.5 468.22,-295.5 468.22,-276.25 628.22,-276.25 628.22,-295.5"/>
<text text-anchor="middle" x="548.22" y="-282" font-family="Helvetica,sans-Serif" font-size="10.00">mimic++/ExpectationPolicies.hpp</text>
</a>
</g>
</g>
<!-- Node1&#45;&gt;Node27 -->
<g id="edge38_Node000001_Node000027" class="edge">
<title>Node1&#45;&gt;Node27</title>
<g id="a_edge38_Node000001_Node000027"><a xlink:title=" ">
<path fill="none" stroke="#63b8ff" d="M447.75,-331.09C466.78,-322.72 495.37,-310.13 517.19,-300.53"/>
<polygon fill="#63b8ff" stroke="#63b8ff" points="518.47,-303.79 526.21,-296.56 515.65,-297.39 518.47,-303.79"/>
</a>
</g>
</g>
<!-- Node3 -->
<g id="Node000003" class="node">
<title>Node3</title>
<g id="a_Node000003"><a xlink:href="../../dc/d44/_call_8hpp.html" target="_top" xlink:title=" ">
<polygon fill="white" stroke="#666666" points="378.47,-129.75 327.97,-129.75 327.97,-110.5 378.47,-110.5 378.47,-129.75"/>
<text text-anchor="middle" x="353.22" y="-116.25" font-family="Helvetica,sans-Serif" font-size="10.00">Call.hpp</text>
</a>
</g>
</g>
<!-- Node2&#45;&gt;Node3 -->
<g id="edge2_Node000002_Node000003" class="edge">
<title>Node2&#45;&gt;Node3</title>
<g id="a_edge2_Node000002_Node000003"><a xlink:title=" ">
<path fill="none" stroke="#63b8ff" d="M318.18,-220.67C328.6,-212.66 342.56,-199.9 349.22,-185 355.34,-171.31 356.12,-154.29 355.49,-141.27"/>
<polygon fill="#63b8ff" stroke="#63b8ff" points="358.98,-141.02 354.66,-131.35 352,-141.61 358.98,-141.02"/>
</a>
</g>
</g>
<!-- Node4 -->
<g id="Node000004" class="node">
<title>Node4</title>
<g id="a_Node000004"><a xlink:href="../../d8/d32/_type_traits_8hpp.html" target="_top" xlink:title=" ">
<polygon fill="white" stroke="#666666" points="133.72,-74.5 12.72,-74.5 12.72,-55.25 133.72,-55.25 133.72,-74.5"/>
<text text-anchor="middle" x="73.22" y="-61" font-family="Helvetica,sans-Serif" font-size="10.00">mimic++/TypeTraits.hpp</text>
</a>
</g>
</g>
<!-- Node2&#45;&gt;Node4 -->
<g id="edge29_Node000002_Node000004" class="edge">
<title>Node2&#45;&gt;Node4</title>
<g id="a_edge29_Node000002_Node000004"><a xlink:title=" ">
<path fill="none" stroke="#63b8ff" d="M242.12,-226.09C181.54,-221.23 96.23,-210.05 75.22,-185 51.92,-157.23 59.59,-111.66 66.74,-85.67"/>
<polygon fill="#63b8ff" stroke="#63b8ff" points="70,-86.98 69.54,-76.39 63.3,-84.95 70,-86.98"/>
</a>
</g>
</g>
<!-- Node5 -->
<g id="Node000005" class="node">
<title>Node5</title>
<g id="a_Node000005"><a xlink:title=" ">
<polygon fill="#e0e0e0" stroke="#999999" points="247.72,-19.25 210.72,-19.25 210.72,0 247.72,0 247.72,-19.25"/>
<text text-anchor="middle" x="229.22" y="-5.75" font-family="Helvetica,sans-Serif" font-size="10.00">tuple</text>
</a>
</g>
</g>
<!-- Node2&#45;&gt;Node5 -->
<g id="edge35_Node000002_Node000005" class="edge">
<title>Node2&#45;&gt;Node5</title>
<g id="a_edge35_Node000002_Node000005"><a xlink:title=" ">
<path fill="none" stroke="#63b8ff" d="M242.06,-224.45C179.28,-218.21 88.41,-205.87 60.22,-185 15.81,-152.12 16.26,-128.2 3.22,-74.5 1.2,-66.19 -2.21,-61.86 3.22,-55.25 27.71,-25.46 143.55,-15.23 199.22,-11.99"/>
<polygon fill="#63b8ff" stroke="#63b8ff" points="199.13,-15.5 208.93,-11.47 198.75,-8.51 199.13,-15.5"/>
</a>
</g>
</g>
<!-- Node14 -->
<g id="Node000014" class="node">
<title>Node14</title>
<g id="a_Node000014"><a xlink:title=" ">
<polygon fill="#e0e0e0" stroke="#999999" points="194.72,-74.5 151.72,-74.5 151.72,-55.25 194.72,-55.25 194.72,-74.5"/>
<text text-anchor="middle" x="173.22" y="-61" font-family="Helvetica,sans-Serif" font-size="10.00">vector</text>
</a>
</g>
</g>
<!-- Node2&#45;&gt;Node14 -->
<g id="edge37_Node000002_Node000014" class="edge">
<title>Node2&#45;&gt;Node14</title>
<g id="a_edge37_Node000002_Node000014"><a xlink:title=" ">
<path fill="none" stroke="#63b8ff" d="M242.05,-225.38C184.79,-220.07 106.49,-208.61 87.22,-185 57.86,-149.03 113.74,-103.98 148.48,-80.95"/>
<polygon fill="#63b8ff" stroke="#63b8ff" points="150.25,-83.98 156.77,-75.63 146.47,-78.09 150.25,-83.98"/>
</a>
</g>
</g>
<!-- Node15 -->
<g id="Node000015" class="node">
<title>Node15</title>
<g id="a_Node000015"><a xlink:href="../../da/dd9/_reporter_8hpp.html" target="_top" xlink:title=" ">
<polygon fill="white" stroke="#666666" points="340.6,-185 269.85,-185 269.85,-165.75 340.6,-165.75 340.6,-185"/>
<text text-anchor="middle" x="305.22" y="-171.5" font-family="Helvetica,sans-Serif" font-size="10.00">Reporter.hpp</text>
</a>
</g>
</g>
<!-- Node2&#45;&gt;Node15 -->
<g id="edge17_Node000002_Node000015" class="edge">
<title>Node2&#45;&gt;Node15</title>
<g id="a_edge17_Node000002_Node000015"><a xlink:title=" ">
<path fill="none" stroke="#63b8ff" d="M305.22,-220.83C305.22,-214.32 305.22,-205.17 305.22,-196.87"/>
<polygon fill="#63b8ff" stroke="#63b8ff" points="308.72,-196.87 305.22,-186.87 301.72,-196.87 308.72,-196.87"/>
</a>
</g>
</g>
<!-- Node20 -->
<g id="Node000020" class="node">
<title>Node20</title>
<g id="a_Node000020"><a xlink:title=" ">
<polygon fill="#e0e0e0" stroke="#999999" points="848.47,-74.5 809.97,-74.5 809.97,-55.25 848.47,-55.25 848.47,-74.5"/>
<text text-anchor="middle" x="829.22" y="-61" font-family="Helvetica,sans-Serif" font-size="10.00">utility</text>
</a>
</g>
</g>
<!-- Node2&#45;&gt;Node20 -->
<g id="edge36_Node000002_Node000020" class="edge">
<title>Node2&#45;&gt;Node20</title>
<g id="a_edge36_Node000002_Node000020"><a xlink:title=" ">
<path fill="none" stroke="#63b8ff" d="M319.34,-220.62C332.03,-212.19 350.81,-198.86 365.22,-185 395.86,-155.52 387.79,-130.66 425.22,-110.5 496.23,-72.25 701.96,-89.45 798.55,-74.42"/>
<polygon fill="#63b8ff" stroke="#63b8ff" points="799.05,-77.89 808.28,-72.69 797.82,-70.99 799.05,-77.89"/>
</a>
</g>
</g>
<!-- Node22 -->
<g id="Node000022" class="node">
<title>Node22</title>
<g id="a_Node000022"><a xlink:title=" ">
<polygon fill="#e0e0e0" stroke="#999999" points="196.47,-129.75 145.97,-129.75 145.97,-110.5 196.47,-110.5 196.47,-129.75"/>
<text text-anchor="middle" x="171.22" y="-116.25" font-family="Helvetica,sans-Serif" font-size="10.00">memory</text>
</a>
</g>
</g>
<!-- Node2&#45;&gt;Node22 -->
<g id="edge32_Node000002_Node000022" class="edge">
<title>Node2&#45;&gt;Node22</title>
<g id="a_edge32_Node000002_Node000022"><a xlink:title=" ">
<path fill="none" stroke="#63b8ff" d="M294.25,-220.75C271.68,-202.47 219.73,-160.4 191.08,-137.21"/>
<polygon fill="#63b8ff" stroke="#63b8ff" points="193.49,-134.65 183.51,-131.08 189.08,-140.09 193.49,-134.65"/>
</a>
</g>
</g>
<!-- Node23 -->
<g id="Node000023" class="node">
<title>Node23</title>
<g id="a_Node000023"><a xlink:title=" ">
<polygon fill="#e0e0e0" stroke="#999999" points="520.35,-185 472.1,-185 472.1,-165.75 520.35,-165.75 520.35,-185"/>
<text text-anchor="middle" x="496.22" y="-171.5" font-family="Helvetica,sans-Serif" font-size="10.00">cassert</text>
</a>
</g>
</g>
<!-- Node2&#45;&gt;Node23 -->
<g id="edge30_Node000002_Node000023" class="edge">
<title>Node2&#45;&gt;Node23</title>
<g id="a_edge30_Node000002_Node000023"><a xlink:title=" ">
<path fill="none" stroke="#63b8ff" d="M337.62,-220.59C371.91,-211.03 425.83,-196 461.11,-186.16"/>
<polygon fill="#63b8ff" stroke="#63b8ff" points="461.71,-189.63 470.4,-183.57 459.83,-182.89 461.71,-189.63"/>
</a>
</g>
</g>
<!-- Node24 -->
<g id="Node000024" class="node">
<title>Node24</title>
<g id="a_Node000024"><a xlink:title=" ">
<polygon fill="#e0e0e0" stroke="#999999" points="490.1,-129.75 434.35,-129.75 434.35,-110.5 490.1,-110.5 490.1,-129.75"/>
<text text-anchor="middle" x="462.22" y="-116.25" font-family="Helvetica,sans-Serif" font-size="10.00">concepts</text>
</a>
</g>
</g>
<!-- Node2&#45;&gt;Node24 -->
<g id="edge31_Node000002_Node000024" class="edge">
<title>Node2&#45;&gt;Node24</title>
<g id="a_edge31_Node000002_Node000024"><a xlink:title=" ">
<path fill="none" stroke="#63b8ff" d="M345.64,-220.55C369.25,-213.73 398.57,-202.5 420.22,-185 435.05,-173.02 446.45,-154.38 453.61,-140.32"/>
<polygon fill="#63b8ff" stroke="#63b8ff" points="456.62,-142.14 457.78,-131.61 450.31,-139.12 456.62,-142.14"/>
</a>
</g>
</g>
<!-- Node25 -->
<g id="Node000025" class="node">
<title>Node25</title>
<g id="a_Node000025"><a xlink:title=" ">
<polygon fill="#e0e0e0" stroke="#999999" points="138.35,-185 96.1,-185 96.1,-165.75 138.35,-165.75 138.35,-185"/>
<text text-anchor="middle" x="117.22" y="-171.5" font-family="Helvetica,sans-Serif" font-size="10.00">mutex</text>
</a>
</g>
</g>
<!-- Node2&#45;&gt;Node25 -->
<g id="edge33_Node000002_Node000025" class="edge">
<title>Node2&#45;&gt;Node25</title>
<g id="a_edge33_Node000002_Node000025"><a xlink:title=" ">
<path fill="none" stroke="#63b8ff" d="M272.83,-220.52C243.13,-212.17 197.64,-199.35 149.49,-185.64"/>
<polygon fill="#63b8ff" stroke="#63b8ff" points="150.55,-182.3 139.98,-182.93 148.64,-189.03 150.55,-182.3"/>
</a>
</g>
</g>
<!-- Node26 -->
<g id="Node000026" class="node">
<title>Node26</title>
<g id="a_Node000026"><a xlink:title=" ">
<polygon fill="#e0e0e0" stroke="#999999" points="214.22,-185 156.22,-185 156.22,-165.75 214.22,-165.75 214.22,-185"/>
<text text-anchor="middle" x="185.22" y="-171.5" font-family="Helvetica,sans-Serif" font-size="10.00">stdexcept</text>
</a>
</g>
</g>
<!-- Node2&#45;&gt;Node26 -->
<g id="edge34_Node000002_Node000026" class="edge">
<title>Node2&#45;&gt;Node26</title>
<g id="a_edge34_Node000002_Node000026"><a xlink:title=" ">
<path fill="none" stroke="#63b8ff" d="M284.86,-220.59C265.99,-212.22 237.63,-199.63 215.99,-190.03"/>
<polygon fill="#63b8ff" stroke="#63b8ff" points="217.62,-186.92 207.06,-186.07 214.78,-193.32 217.62,-186.92"/>
</a>
</g>
</g>
<!-- Node3&#45;&gt;Node4 -->
<g id="edge3_Node000003_Node000004" class="edge">
<title>Node3&#45;&gt;Node4</title>
<g id="a_edge3_Node000003_Node000004"><a xlink:title=" ">
<path fill="none" stroke="#63b8ff" d="M327.65,-112.44C324.81,-111.75 321.96,-111.09 319.22,-110.5 259.21,-97.46 190.4,-85.21 140.84,-76.85"/>
<polygon fill="#63b8ff" stroke="#63b8ff" points="141.55,-73.42 131.11,-75.22 140.39,-80.32 141.55,-73.42"/>
</a>
</g>
</g>
<!-- Node3&#45;&gt;Node5 -->
<g id="edge14_Node000003_Node000005" class="edge">
<title>Node3&#45;&gt;Node5</title>
<g id="a_edge14_Node000003_Node000005"><a xlink:title=" ">
<path fill="none" stroke="#63b8ff" d="M353.06,-110.14C352.34,-96.62 349.1,-70.97 335.22,-55.25 315.66,-33.1 283.29,-21.65 259.46,-15.93"/>
<polygon fill="#63b8ff" stroke="#63b8ff" points="260.2,-12.51 249.69,-13.81 258.72,-19.35 260.2,-12.51"/>
</a>
</g>
</g>
<!-- Node6 -->
<g id="Node000006" class="node">
<title>Node6</title>
<g id="a_Node000006"><a xlink:href="../../d4/d2c/_utility_8hpp.html" target="_top" xlink:title=" ">
<polygon fill="white" stroke="#666666" points="596.22,-74.5 496.22,-74.5 496.22,-55.25 596.22,-55.25 596.22,-74.5"/>
<text text-anchor="middle" x="546.22" y="-61" font-family="Helvetica,sans-Serif" font-size="10.00">mimic++/Utility.hpp</text>
</a>
</g>
</g>
<!-- Node3&#45;&gt;Node6 -->
<g id="edge5_Node000003_Node000006" class="edge">
<title>Node3&#45;&gt;Node6</title>
<g id="a_edge5_Node000003_Node000006"><a xlink:title=" ">
<path fill="none" stroke="#63b8ff" d="M378.85,-112.05C410.39,-103.35 464.46,-88.43 502.59,-77.91"/>
<polygon fill="#63b8ff" stroke="#63b8ff" points="503.21,-81.37 511.92,-75.34 501.35,-74.63 503.21,-81.37"/>
</a>
</g>
</g>
<!-- Node7 -->
<g id="Node000007" class="node">
<title>Node7</title>
<g id="a_Node000007"><a xlink:title=" ">
<polygon fill="#e0e0e0" stroke="#999999" points="568.1,-19.25 524.35,-19.25 524.35,0 568.1,0 568.1,-19.25"/>
<text text-anchor="middle" x="546.22" y="-5.75" font-family="Helvetica,sans-Serif" font-size="10.00">format</text>
</a>
</g>
</g>
<!-- Node3&#45;&gt;Node7 -->
<g id="edge9_Node000003_Node000007" class="edge">
<title>Node3&#45;&gt;Node7</title>
<g id="a_edge9_Node000003_Node000007"><a xlink:title=" ">
<path fill="none" stroke="#63b8ff" d="M369.34,-110.06C402.69,-91.31 479.52,-48.12 520.06,-25.33"/>
<polygon fill="#63b8ff" stroke="#63b8ff" points="521.69,-28.43 528.69,-20.48 518.26,-22.33 521.69,-28.43"/>
</a>
</g>
</g>
<!-- Node8 -->
<g id="Node000008" class="node">
<title>Node8</title>
<g id="a_Node000008"><a xlink:title=" ">
<polygon fill="#e0e0e0" stroke="#999999" points="470.35,-19.25 386.1,-19.25 386.1,0 470.35,0 470.35,-19.25"/>
<text text-anchor="middle" x="428.22" y="-5.75" font-family="Helvetica,sans-Serif" font-size="10.00">source_location</text>
</a>
</g>
</g>
<!-- Node3&#45;&gt;Node8 -->
<g id="edge12_Node000003_Node000008" class="edge">
<title>Node3&#45;&gt;Node8</title>
<g id="a_edge12_Node000003_Node000008"><a xlink:title=" ">
<path fill="none" stroke="#63b8ff" d="M359.36,-110.25C371.61,-92.52 399.31,-52.44 415.6,-28.88"/>
<polygon fill="#63b8ff" stroke="#63b8ff" points="418.33,-31.09 421.14,-20.87 412.57,-27.11 418.33,-31.09"/>
</a>
</g>
</g>
<!-- Node9 -->
<g id="Node000009" class="node">
<title>Node9</title>
<g id="a_Node000009"><a xlink:title=" ">
<polygon fill="#e0e0e0" stroke="#999999" points="670.1,-74.5 614.35,-74.5 614.35,-55.25 670.1,-55.25 670.1,-74.5"/>
<text text-anchor="middle" x="642.22" y="-61" font-family="Helvetica,sans-Serif" font-size="10.00">algorithm</text>
</a>
</g>
</g>
<!-- Node3&#45;&gt;Node9 -->
<g id="edge8_Node000003_Node000009" class="edge">
<title>Node3&#45;&gt;Node9</title>
<g id="a_edge8_Node000003_Node000009"><a xlink:title=" ">
<path fill="none" stroke="#63b8ff" d="M378.78,-113.28C383.25,-112.31 387.86,-111.35 392.22,-110.5 482.96,-92.81 509.17,-93.34 602.84,-74.87"/>
<polygon fill="#63b8ff" stroke="#63b8ff" points="603.37,-78.33 612.49,-72.94 602,-71.47 603.37,-78.33"/>
</a>
</g>
</g>
<!-- Node10 -->
<g id="Node000010" class="node">
<title>Node10</title>
<g id="a_Node000010"><a xlink:title=" ">
<polygon fill="#e0e0e0" stroke="#999999" points="262.1,-74.5 212.35,-74.5 212.35,-55.25 262.1,-55.25 262.1,-74.5"/>
<text text-anchor="middle" x="237.22" y="-61" font-family="Helvetica,sans-Serif" font-size="10.00">optional</text>
</a>
</g>
</g>
<!-- Node3&#45;&gt;Node10 -->
<g id="edge10_Node000003_Node000010" class="edge">
<title>Node3&#45;&gt;Node10</title>
<g id="a_edge10_Node000003_Node000010"><a xlink:title=" ">
<path fill="none" stroke="#63b8ff" d="M333.54,-110.09C315.38,-101.75 288.14,-89.25 267.25,-79.66"/>
<polygon fill="#63b8ff" stroke="#63b8ff" points="268.92,-76.58 258.37,-75.58 266,-82.94 268.92,-76.58"/>
</a>
</g>
</g>
<!-- Node11 -->
<g id="Node000011" class="node">
<title>Node11</title>
<g id="a_Node000011"><a xlink:title=" ">
<polygon fill="#e0e0e0" stroke="#999999" points="733.85,-74.5 688.6,-74.5 688.6,-55.25 733.85,-55.25 733.85,-74.5"/>
<text text-anchor="middle" x="711.22" y="-61" font-family="Helvetica,sans-Serif" font-size="10.00">ranges</text>
</a>
</g>
</g>
<!-- Node3&#45;&gt;Node11 -->
<g id="edge11_Node000003_Node000011" class="edge">
<title>Node3&#45;&gt;Node11</title>
<g id="a_edge11_Node000003_Node000011"><a xlink:title=" ">
<path fill="none" stroke="#63b8ff" d="M378.75,-113.12C383.22,-112.17 387.85,-111.26 392.22,-110.5 515.31,-89.22 551.07,-98.71 676.99,-74.67"/>
<polygon fill="#63b8ff" stroke="#63b8ff" points="677.61,-78.11 686.75,-72.77 676.27,-71.24 677.61,-78.11"/>
</a>
</g>
</g>
<!-- Node12 -->
<g id="Node000012" class="node">
<title>Node12</title>
<g id="a_Node000012"><a xlink:title=" ">
<polygon fill="#e0e0e0" stroke="#999999" points="792.22,-74.5 752.22,-74.5 752.22,-55.25 792.22,-55.25 792.22,-74.5"/>
<text text-anchor="middle" x="772.22" y="-61" font-family="Helvetica,sans-Serif" font-size="10.00">string</text>
</a>
</g>
</g>
<!-- Node3&#45;&gt;Node12 -->
<g id="edge13_Node000003_Node000012" class="edge">
<title>Node3&#45;&gt;Node12</title>
<g id="a_edge13_Node000003_Node000012"><a xlink:title=" ">
<path fill="none" stroke="#63b8ff" d="M378.73,-113.04C383.21,-112.1 387.84,-111.21 392.22,-110.5 543.41,-86.11 587.35,-104.1 740.52,-74.68"/>
<polygon fill="#63b8ff" stroke="#63b8ff" points="741.12,-78.13 750.26,-72.77 739.77,-71.26 741.12,-78.13"/>
</a>
</g>
</g>
<!-- Node13 -->
<g id="Node000013" class="node">
<title>Node13</title>
<g id="a_Node000013"><a xlink:title=" ">
<polygon fill="#e0e0e0" stroke="#999999" points="325.85,-74.5 280.6,-74.5 280.6,-55.25 325.85,-55.25 325.85,-74.5"/>
<text text-anchor="middle" x="303.22" y="-61" font-family="Helvetica,sans-Serif" font-size="10.00">variant</text>
</a>
</g>
</g>
<!-- Node3&#45;&gt;Node13 -->
<g id="edge15_Node000003_Node000013" class="edge">
<title>Node3&#45;&gt;Node13</title>
<g id="a_edge15_Node000003_Node000013"><a xlink:title=" ">
<path fill="none" stroke="#63b8ff" d="M344.96,-110.33C338.06,-102.98 328,-92.26 319.48,-83.19"/>
<polygon fill="#63b8ff" stroke="#63b8ff" points="322.09,-80.86 312.69,-75.96 316.99,-85.65 322.09,-80.86"/>
</a>
</g>
</g>
<!-- Node3&#45;&gt;Node14 -->
<g id="edge16_Node000003_Node000014" class="edge">
<title>Node3&#45;&gt;Node14</title>
<g id="a_edge16_Node000003_Node000014"><a xlink:title=" ">
<path fill="none" stroke="#63b8ff" d="M327.81,-111.61C295.81,-102.14 240.77,-85.86 205.73,-75.49"/>
<polygon fill="#63b8ff" stroke="#63b8ff" points="207.14,-72.26 196.56,-72.78 205.16,-78.97 207.14,-72.26"/>
</a>
</g>
</g>
<!-- Node4&#45;&gt;Node5 -->
<g id="edge4_Node000004_Node000005" class="edge">
<title>Node4&#45;&gt;Node5</title>
<g id="a_edge4_Node000004_Node000005"><a xlink:title=" ">
<path fill="none" stroke="#63b8ff" d="M99.68,-54.84C127.46,-45.36 171.03,-30.49 199.86,-20.65"/>
<polygon fill="#63b8ff" stroke="#63b8ff" points="200.72,-24.05 209.05,-17.51 198.46,-17.43 200.72,-24.05"/>
</a>
</g>
</g>
<!-- Node6&#45;&gt;Node7 -->
<g id="edge6_Node000006_Node000007" class="edge">
<title>Node6&#45;&gt;Node7</title>
<g id="a_edge6_Node000006_Node000007"><a xlink:title=" ">
<path fill="none" stroke="#63b8ff" d="M546.22,-55.08C546.22,-48.57 546.22,-39.42 546.22,-31.12"/>
<polygon fill="#63b8ff" stroke="#63b8ff" points="549.72,-31.12 546.22,-21.12 542.72,-31.12 549.72,-31.12"/>
</a>
</g>
</g>
<!-- Node6&#45;&gt;Node8 -->
<g id="edge7_Node000006_Node000008" class="edge">
<title>Node6&#45;&gt;Node8</title>
<g id="a_edge7_Node000006_Node000008"><a xlink:title=" ">
<path fill="none" stroke="#63b8ff" d="M526.2,-54.84C507.73,-46.5 480.01,-34 458.77,-24.41"/>
<polygon fill="#63b8ff" stroke="#63b8ff" points="460.27,-21.25 449.72,-20.33 457.39,-27.63 460.27,-21.25"/>
</a>
</g>
</g>
<!-- Node15&#45;&gt;Node3 -->
<g id="edge18_Node000015_Node000003" class="edge">
<title>Node15&#45;&gt;Node3</title>
<g id="a_edge18_Node000015_Node000003"><a xlink:title=" ">
<path fill="none" stroke="#63b8ff" d="M313.15,-165.58C319.78,-158.23 329.44,-147.51 337.61,-138.44"/>
<polygon fill="#63b8ff" stroke="#63b8ff" points="340.01,-141 344.11,-131.23 334.81,-136.32 340.01,-141"/>
</a>
</g>
</g>
<!-- Node15&#45;&gt;Node14 -->
<g id="edge28_Node000015_Node000014" class="edge">
<title>Node15&#45;&gt;Node14</title>
<g id="a_edge28_Node000015_Node000014"><a xlink:title=" ">
<path fill="none" stroke="#63b8ff" d="M292.07,-165.57C279.29,-156.86 259.49,-142.95 243.22,-129.75 224.57,-114.61 204.42,-95.96 190.55,-82.73"/>
<polygon fill="#63b8ff" stroke="#63b8ff" points="193.15,-80.37 183.51,-75.96 188.29,-85.42 193.15,-80.37"/>
</a>
</g>
</g>
<!-- Node16 -->
<g id="Node000016" class="node">
<title>Node16</title>
<g id="a_Node000016"><a xlink:href="../../da/dab/_printer_8hpp.html" target="_top" xlink:title=" ">
<polygon fill="white" stroke="#666666" points="882.1,-129.75 778.35,-129.75 778.35,-110.5 882.1,-110.5 882.1,-129.75"/>
<text text-anchor="middle" x="830.22" y="-116.25" font-family="Helvetica,sans-Serif" font-size="10.00">mimic++/Printer.hpp</text>
</a>
</g>
</g>
<!-- Node15&#45;&gt;Node16 -->
<g id="edge19_Node000015_Node000016" class="edge">
<title>Node15&#45;&gt;Node16</title>
<g id="a_edge19_Node000015_Node000016"><a xlink:title=" ">
<path fill="none" stroke="#63b8ff" d="M340.89,-170.76C428.49,-161.87 655.14,-138.88 766.53,-127.59"/>
<polygon fill="#63b8ff" stroke="#63b8ff" points="766.8,-131.08 776.4,-126.58 766.1,-124.11 766.8,-131.08"/>
</a>
</g>
</g>
<!-- Node21 -->
<g id="Node000021" class="node">
<title>Node21</title>
<g id="a_Node000021"><a xlink:title=" ">
<polygon fill="#e0e0e0" stroke="#999999" points="309.85,-129.75 252.6,-129.75 252.6,-110.5 309.85,-110.5 309.85,-129.75"/>
<text text-anchor="middle" x="281.22" y="-116.25" font-family="Helvetica,sans-Serif" font-size="10.00">exception</text>
</a>
</g>
</g>
<!-- Node15&#45;&gt;Node21 -->
<g id="edge26_Node000015_Node000021" class="edge">
<title>Node15&#45;&gt;Node21</title>
<g id="a_edge26_Node000015_Node000021"><a xlink:title=" ">
<path fill="none" stroke="#63b8ff" d="M301.26,-165.58C298.18,-158.76 293.81,-149.06 289.93,-140.45"/>
<polygon fill="#63b8ff" stroke="#63b8ff" points="293.19,-139.17 285.89,-131.49 286.81,-142.04 293.19,-139.17"/>
</a>
</g>
</g>
<!-- Node15&#45;&gt;Node22 -->
<g id="edge27_Node000015_Node000022" class="edge">
<title>Node15&#45;&gt;Node22</title>
<g id="a_edge27_Node000015_Node000022"><a xlink:title=" ">
<path fill="none" stroke="#63b8ff" d="M282.49,-165.34C261.12,-156.85 228.88,-144.04 204.59,-134.39"/>
<polygon fill="#63b8ff" stroke="#63b8ff" points="206.06,-131.2 195.47,-130.76 203.47,-137.71 206.06,-131.2"/>
</a>
</g>
</g>
<!-- Node16&#45;&gt;Node7 -->
<g id="edge20_Node000016_Node000007" class="edge">
<title>Node16&#45;&gt;Node7</title>
<g id="a_edge20_Node000016_Node000007"><a xlink:title=" ">
<path fill="none" stroke="#63b8ff" d="M882.37,-111.32C952.19,-100.61 1068.08,-81.87 1074.22,-74.5 1079.7,-67.93 1080.01,-61.55 1074.22,-55.25 1040.77,-18.85 691.27,-12.12 580.03,-10.89"/>
<polygon fill="#63b8ff" stroke="#63b8ff" points="580.1,-7.39 570.06,-10.79 580.03,-14.39 580.1,-7.39"/>
</a>
</g>
</g>
<!-- Node16&#45;&gt;Node12 -->
<g id="edge23_Node000016_Node000012" class="edge">
<title>Node16&#45;&gt;Node12</title>
<g id="a_edge23_Node000016_Node000012"><a xlink:title=" ">
<path fill="none" stroke="#63b8ff" d="M820.38,-110.09C812.17,-102.55 800.24,-91.6 790.31,-82.48"/>
<polygon fill="#63b8ff" stroke="#63b8ff" points="792.76,-79.98 783.03,-75.8 788.03,-85.14 792.76,-79.98"/>
</a>
</g>
</g>
<!-- Node17 -->
<g id="Node000017" class="node">
<title>Node17</title>
<g id="a_Node000017"><a xlink:title=" ">
<polygon fill="#e0e0e0" stroke="#999999" points="912.22,-74.5 866.22,-74.5 866.22,-55.25 912.22,-55.25 912.22,-74.5"/>
<text text-anchor="middle" x="889.22" y="-61" font-family="Helvetica,sans-Serif" font-size="10.00">iterator</text>
</a>
</g>
</g>
<!-- Node16&#45;&gt;Node17 -->
<g id="edge21_Node000016_Node000017" class="edge">
<title>Node16&#45;&gt;Node17</title>
<g id="a_edge21_Node000016_Node000017"><a xlink:title=" ">
<path fill="none" stroke="#63b8ff" d="M840.23,-110.09C848.59,-102.55 860.72,-91.6 870.82,-82.48"/>
<polygon fill="#63b8ff" stroke="#63b8ff" points="873.16,-85.09 878.24,-75.79 868.47,-79.89 873.16,-85.09"/>
</a>
</g>
</g>
<!-- Node18 -->
<g id="Node000018" class="node">
<title>Node18</title>
<g id="a_Node000018"><a xlink:title=" ">
<polygon fill="#e0e0e0" stroke="#999999" points="981.85,-74.5 930.6,-74.5 930.6,-55.25 981.85,-55.25 981.85,-74.5"/>
<text text-anchor="middle" x="956.22" y="-61" font-family="Helvetica,sans-Serif" font-size="10.00">sstream</text>
</a>
</g>
</g>
<!-- Node16&#45;&gt;Node18 -->
<g id="edge22_Node000016_Node000018" class="edge">
<title>Node16&#45;&gt;Node18</title>
<g id="a_edge22_Node000016_Node000018"><a xlink:title=" ">
<path fill="none" stroke="#63b8ff" d="M851.59,-110.09C871.51,-101.68 901.46,-89.02 924.22,-79.4"/>
<polygon fill="#63b8ff" stroke="#63b8ff" points="925.5,-82.66 933.35,-75.54 922.77,-76.21 925.5,-82.66"/>
</a>
</g>
</g>
<!-- Node19 -->
<g id="Node000019" class="node">
<title>Node19</title>
<g id="a_Node000019"><a xlink:title=" ">
<polygon fill="#e0e0e0" stroke="#999999" points="1064.97,-74.5 999.47,-74.5 999.47,-55.25 1064.97,-55.25 1064.97,-74.5"/>
<text text-anchor="middle" x="1032.22" y="-61" font-family="Helvetica,sans-Serif" font-size="10.00">string_view</text>
</a>
</g>
</g>
<!-- Node16&#45;&gt;Node19 -->
<g id="edge24_Node000016_Node000019" class="edge">
<title>Node16&#45;&gt;Node19</title>
<g id="a_edge24_Node000016_Node000019"><a xlink:title=" ">
<path fill="none" stroke="#63b8ff" d="M864.49,-110.09C898.56,-101.11 950.97,-87.29 988.12,-77.5"/>
<polygon fill="#63b8ff" stroke="#63b8ff" points="988.89,-80.92 997.67,-74.98 987.1,-74.15 988.89,-80.92"/>
</a>
</g>
</g>
<!-- Node16&#45;&gt;Node20 -->
<g id="edge25_Node000016_Node000020" class="edge">
<title>Node16&#45;&gt;Node20</title>
<g id="a_edge25_Node000016_Node000020"><a xlink:title=" ">
<path fill="none" stroke="#63b8ff" d="M830.06,-110.33C829.93,-103.82 829.76,-94.67 829.61,-86.37"/>
<polygon fill="#63b8ff" stroke="#63b8ff" points="833.1,-86.3 829.42,-76.37 826.11,-86.44 833.1,-86.3"/>
</a>
</g>
</g>
<!-- Node27&#45;&gt;Node2 -->
<g id="edge39_Node000027_Node000002" class="edge">
<title>Node27&#45;&gt;Node2</title>
<g id="a_edge39_Node000027_Node000002"><a xlink:title=" ">
<path fill="none" stroke="#63b8ff" d="M506.72,-275.78C465.57,-266.76 402.38,-252.92 357.75,-243.14"/>
<polygon fill="#63b8ff" stroke="#63b8ff" points="358.54,-239.73 348.03,-241 357.04,-246.56 358.54,-239.73"/>
</a>
</g>
</g>
<!-- Node27&#45;&gt;Node6 -->
<g id="edge50_Node000027_Node000006" class="edge">
<title>Node27&#45;&gt;Node6</title>
<g id="a_edge50_Node000027_Node000006"><a xlink:title=" ">
<path fill="none" stroke="#63b8ff" d="M548.14,-276.02C547.85,-243.76 546.82,-132.01 546.4,-85.96"/>
<polygon fill="#63b8ff" stroke="#63b8ff" points="549.91,-86.08 546.31,-76.12 542.91,-86.15 549.91,-86.08"/>
</a>
</g>
</g>
<!-- Node27&#45;&gt;Node16 -->
<g id="edge49_Node000027_Node000016" class="edge">
<title>Node27&#45;&gt;Node16</title>
<g id="a_edge49_Node000027_Node000016"><a xlink:title=" ">
<path fill="none" stroke="#63b8ff" d="M563.78,-275.84C610.2,-248.89 747.97,-168.89 805.03,-135.75"/>
<polygon fill="#63b8ff" stroke="#63b8ff" points="806.51,-138.94 813.4,-130.89 802.99,-132.89 806.51,-138.94"/>
</a>
</g>
</g>
<!-- Node27&#45;&gt;Node23 -->
<g id="edge51_Node000027_Node000023" class="edge">
<title>Node27&#45;&gt;Node23</title>
<g id="a_edge51_Node000027_Node000023"><a xlink:title=" ">
<path fill="none" stroke="#63b8ff" d="M543.97,-276C535.59,-258.51 516.78,-219.27 505.43,-195.59"/>
<polygon fill="#63b8ff" stroke="#63b8ff" points="508.67,-194.25 501.19,-186.74 502.35,-197.27 508.67,-194.25"/>
</a>
</g>
</g>
<!-- Node28 -->
<g id="Node000028" class="node">
<title>Node28</title>
<g id="a_Node000028"><a xlink:href="../../dd/d50/_matcher_8hpp.html" target="_top" xlink:title=" ">
<polygon fill="white" stroke="#666666" points="708.47,-185 597.97,-185 597.97,-165.75 708.47,-165.75 708.47,-185"/>
<text text-anchor="middle" x="653.22" y="-171.5" font-family="Helvetica,sans-Serif" font-size="10.00">mimic++/Matcher.hpp</text>
</a>
</g>
</g>
<!-- Node27&#45;&gt;Node28 -->
<g id="edge40_Node000027_Node000028" class="edge">
<title>Node27&#45;&gt;Node28</title>
<g id="a_edge40_Node000027_Node000028"><a xlink:title=" ">
<path fill="none" stroke="#63b8ff" d="M556.81,-276C574.27,-257.96 614.15,-216.75 636.77,-193.38"/>
<polygon fill="#63b8ff" stroke="#63b8ff" points="639.02,-196.08 643.46,-186.46 633.99,-191.22 639.02,-196.08"/>
</a>
</g>
</g>
<!-- Node29 -->
<g id="Node000029" class="node">
<title>Node29</title>
<g id="a_Node000029"><a xlink:title=" ">
<polygon fill="#e0e0e0" stroke="#999999" points="958.22,-129.75 900.22,-129.75 900.22,-110.5 958.22,-110.5 958.22,-129.75"/>
<text text-anchor="middle" x="929.22" y="-116.25" font-family="Helvetica,sans-Serif" font-size="10.00">functional</text>
</a>
</g>
</g>
<!-- Node27&#45;&gt;Node29 -->
<g id="edge52_Node000027_Node000029" class="edge">
<title>Node27&#45;&gt;Node29</title>
<g id="a_edge52_Node000027_Node000029"><a xlink:title=" ">
<path fill="none" stroke="#63b8ff" d="M569.98,-275.91C591.63,-266.97 625.78,-252.79 655.22,-240.25 743.7,-202.57 847.73,-156.99 898.38,-134.71"/>
<polygon fill="#63b8ff" stroke="#63b8ff" points="899.51,-138.04 907.26,-130.81 896.69,-131.63 899.51,-138.04"/>
</a>
</g>
</g>
<!-- Node28&#45;&gt;Node5 -->
<g id="edge47_Node000028_Node000005" class="edge">
<title>Node28&#45;&gt;Node5</title>
<g id="a_edge47_Node000028_Node000005"><a xlink:title=" ">
<path fill="none" stroke="#63b8ff" d="M631.88,-165.29C602.22,-152.72 546.82,-129.44 499.22,-110.5 435.14,-85.01 418.92,-79.12 354.22,-55.25 321.6,-43.21 284.01,-29.86 258.64,-20.93"/>
<polygon fill="#63b8ff" stroke="#63b8ff" points="259.92,-17.67 249.33,-17.66 257.6,-24.28 259.92,-17.67"/>
</a>
</g>
</g>
<!-- Node28&#45;&gt;Node6 -->
<g id="edge42_Node000028_Node000006" class="edge">
<title>Node28&#45;&gt;Node6</title>
<g id="a_edge42_Node000028_Node000006"><a xlink:title=" ">
<path fill="none" stroke="#63b8ff" d="M644.46,-165.5C626.67,-147.46 586.03,-106.25 562.99,-82.88"/>
<polygon fill="#63b8ff" stroke="#63b8ff" points="565.67,-80.62 556.16,-75.95 560.69,-85.53 565.67,-80.62"/>
</a>
</g>
</g>
<!-- Node28&#45;&gt;Node9 -->
<g id="edge43_Node000028_Node000009" class="edge">
<title>Node28&#45;&gt;Node9</title>
<g id="a_edge43_Node000028_Node000009"><a xlink:title=" ">
<path fill="none" stroke="#63b8ff" d="M665.8,-165.29C680.77,-153.29 702.63,-131.23 693.22,-110.5 687.84,-98.65 677.59,-88.7 667.67,-81.23"/>
<polygon fill="#63b8ff" stroke="#63b8ff" points="669.91,-78.52 659.69,-75.71 665.92,-84.28 669.91,-78.52"/>
</a>
</g>
</g>
<!-- Node28&#45;&gt;Node11 -->
<g id="edge46_Node000028_Node000011" class="edge">
<title>Node28&#45;&gt;Node11</title>
<g id="a_edge46_Node000028_Node000011"><a xlink:title=" ">
<path fill="none" stroke="#63b8ff" d="M671,-165.3C683.83,-157.7 700.23,-145.55 708.22,-129.75 715.05,-116.24 715.46,-98.99 714.34,-85.82"/>
<polygon fill="#63b8ff" stroke="#63b8ff" points="717.85,-85.7 713.15,-76.21 710.91,-86.56 717.85,-85.7"/>
</a>
</g>
</g>
<!-- Node28&#45;&gt;Node16 -->
<g id="edge41_Node000028_Node000016" class="edge">
<title>Node28&#45;&gt;Node16</title>
<g id="a_edge41_Node000028_Node000016"><a xlink:title=" ">
<path fill="none" stroke="#63b8ff" d="M683.25,-165.34C712.36,-156.58 756.76,-143.23 789.14,-133.48"/>
<polygon fill="#63b8ff" stroke="#63b8ff" points="790.03,-136.87 798.6,-130.64 788.01,-130.17 790.03,-136.87"/>
</a>
</g>
</g>
<!-- Node28&#45;&gt;Node24 -->
<g id="edge44_Node000028_Node000024" class="edge">
<title>Node28&#45;&gt;Node24</title>
<g id="a_edge44_Node000028_Node000024"><a xlink:title=" ">
<path fill="none" stroke="#63b8ff" d="M620.82,-165.34C587.78,-156.13 536.51,-141.84 501.26,-132.01"/>
<polygon fill="#63b8ff" stroke="#63b8ff" points="502.45,-128.71 491.87,-129.39 500.57,-135.45 502.45,-128.71"/>
</a>
</g>
</g>
<!-- Node28&#45;&gt;Node29 -->
<g id="edge45_Node000028_Node000029" class="edge">
<title>Node28&#45;&gt;Node29</title>
<g id="a_edge45_Node000028_Node000029"><a xlink:title=" ">
<path fill="none" stroke="#63b8ff" d="M704.86,-165.27C750.7,-157.07 819.75,-144.38 888.72,-130.21"/>
<polygon fill="#63b8ff" stroke="#63b8ff" points="889.22,-133.68 898.3,-128.23 887.8,-126.82 889.22,-133.68"/>
</a>
</g>
</g>
<!-- Node30 -->
<g id="Node000030" class="node">
<title>Node30</title>
<g id="a_Node000030"><a xlink:title=" ">
<polygon fill="#e0e0e0" stroke="#999999" points="683.72,-129.75 622.72,-129.75 622.72,-110.5 683.72,-110.5 683.72,-129.75"/>
<text text-anchor="middle" x="653.22" y="-116.25" font-family="Helvetica,sans-Serif" font-size="10.00">type_traits</text>
</a>
</g>
</g>
<!-- Node28&#45;&gt;Node30 -->
<g id="edge48_Node000028_Node000030" class="edge">
<title>Node28&#45;&gt;Node30</title>
<g id="a_edge48_Node000028_Node000030"><a xlink:title=" ">
<path fill="none" stroke="#63b8ff" d="M653.22,-165.58C653.22,-159.07 653.22,-149.92 653.22,-141.62"/>
<polygon fill="#63b8ff" stroke="#63b8ff" points="656.72,-141.62 653.22,-131.62 649.72,-141.62 656.72,-141.62"/>
</a>
</g>
</g>
</g>
</svg>

<g id="navigator" transform="translate(0 0)" fill="#404254">
  <rect fill="#f2f5e9" fill-opacity="0.5" stroke="#606060" stroke-width=".5" x="0" y="0" width="60" height="60"/>
  <use id="zoomplus" xlink:href="#zoomPlus" x="17" y="9" onmousedown="handleZoom(evt,'in')"/>
  <use id="zoomminus" xlink:href="#zoomMin" x="42" y="9" onmousedown="handleZoom(evt,'out')"/>
  <use id="reset" xlink:href="#resetDef" x="30" y="36" onmousedown="handleReset()"/>
   <use id="arrowup" xlink:href="#arrowUp" x="0" y="0" onmousedown="handlePan(0,-1)"/>
  <use id="arrowright" xlink:href="#arrowRight" x="0" y="0" onmousedown="handlePan(1,0)"/>
  <use id="arrowdown" xlink:href="#arrowDown" x="0" y="0" onmousedown="handlePan(0,1)"/>
  <use id="arrowleft" xlink:href="#arrowLeft" x="0" y="0" onmousedown="handlePan(-1,0)"/>
</g>
<svg viewBox="0 0 15 15" width="100%" height="30px" preserveAspectRatio="xMaxYMin meet">
 <g id="arrow_out" transform="scale(0.3 0.3)">
  <a xlink:href="_expectation_builder_8hpp__incl_org.svg" target="_base">
   <rect id="button" ry="5" rx="5" y="6" x="6" height="38" width="38"
        fill="#f2f5e9" fill-opacity="0.5" stroke="#606060" stroke-width="1.0"/>
   <path id="arrow"
     d="M 11.500037,31.436501 C 11.940474,20.09759 22.043105,11.32322 32.158766,21.979434 L 37.068811,17.246167 C 37.068811,17.246167 37.088388,32 37.088388,32 L 22.160133,31.978069 C 22.160133,31.978069 26.997745,27.140456 26.997745,27.140456 C 18.528582,18.264221 13.291696,25.230495 11.500037,31.436501 z"
     style="fill:#404040;"/>
  </a>
 </g>
</svg>

<style type='text/css'>
<![CDATA[
[data-mouse-over-selected='false'] { opacity: 0.7; }
[data-mouse-over-selected='true']  { opacity: 1.0; }
]]>
</style>
<script type="application/ecmascript"><![CDATA[
document.addEventListener('DOMContentLoaded', (event) => {
  highlightEdges();
  highlightAdjacentNodes();
});
]]></script>
</svg>
