<?xml version="1.0" encoding="UTF-8" standalone="no"?>
<!DOCTYPE svg PUBLIC "-//W3C//DTD SVG 1.1//EN"
 "http://www.w3.org/Graphics/SVG/1.1/DTD/svg11.dtd">
<!-- Generated by graphviz version 9.0.0 (20230911.1827)
 -->
<!-- Title: mimic++/Utility.hpp Pages: 1 -->
<svg width="538pt" height="359pt"
 viewBox="0.00 0.00 537.62 358.75" xmlns="http://www.w3.org/2000/svg" xmlns:xlink="http://www.w3.org/1999/xlink">
<g id="graph0" class="graph" transform="scale(1 1) rotate(0) translate(4 354.75)">
<title>mimic++/Utility.hpp</title>
<!-- Node1 -->
<g id="Node000001" class="node">
<title>Node1</title>
<g id="a_Node000001"><a xlink:title=" ">
<polygon fill="#999999" stroke="#666666" points="217.25,-350.75 117.25,-350.75 117.25,-331.5 217.25,-331.5 217.25,-350.75"/>
<text text-anchor="middle" x="167.25" y="-337.25" font-family="Helvetica,sans-Serif" font-size="10.00">mimic++/Utility.hpp</text>
</a>
</g>
</g>
<!-- Node2 -->
<g id="Node000002" class="node">
<title>Node2</title>
<g id="a_Node000002"><a xlink:href="../../dc/d44/_call_8hpp.html" target="_top" xlink:title=" ">
<polygon fill="white" stroke="#666666" points="319.12,-295.5 227.38,-295.5 227.38,-276.25 319.12,-276.25 319.12,-295.5"/>
<text text-anchor="middle" x="273.25" y="-282" font-family="Helvetica,sans-Serif" font-size="10.00">mimic++/Call.hpp</text>
</a>
</g>
</g>
<!-- Node1&#45;&gt;Node2 -->
<g id="edge1_Node000001_Node000002" class="edge">
<title>Node1&#45;&gt;Node2</title>
<g id="a_edge1_Node000001_Node000002"><a xlink:title=" ">
<path fill="none" stroke="#63b8ff" d="M195.38,-325.99C214.34,-316.47 238.78,-304.19 255.18,-295.95"/>
<polygon fill="#63b8ff" stroke="#63b8ff" points="193.95,-322.8 186.58,-330.41 197.09,-329.05 193.95,-322.8"/>
</a>
</g>
</g>
<!-- Node7 -->
<g id="Node000007" class="node">
<title>Node7</title>
<g id="a_Node000007"><a xlink:href="../../d8/de5/_expectation_policies_8hpp.html" target="_top" xlink:title=" ">
<polygon fill="white" stroke="#666666" points="221.25,-129.75 61.25,-129.75 61.25,-110.5 221.25,-110.5 221.25,-129.75"/>
<text text-anchor="middle" x="141.25" y="-116.25" font-family="Helvetica,sans-Serif" font-size="10.00">mimic++/ExpectationPolicies.hpp</text>
</a>
</g>
</g>
<!-- Node1&#45;&gt;Node7 -->
<g id="edge15_Node000001_Node000007" class="edge">
<title>Node1&#45;&gt;Node7</title>
<g id="a_edge15_Node000001_Node000007"><a xlink:title=" ">
<path fill="none" stroke="#63b8ff" d="M164.84,-319.86C159.36,-273.63 146.09,-161.9 142.29,-129.85"/>
<polygon fill="#63b8ff" stroke="#63b8ff" points="161.37,-320.25 166.02,-329.77 168.32,-319.42 161.37,-320.25"/>
</a>
</g>
</g>
<!-- Node9 -->
<g id="Node000009" class="node">
<title>Node9</title>
<g id="a_Node000009"><a xlink:href="../../d8/de4/_sequence_8hpp.html" target="_top" xlink:title=" ">
<polygon fill="white" stroke="#666666" points="284.62,-185 165.88,-185 165.88,-165.75 284.62,-165.75 284.62,-185"/>
<text text-anchor="middle" x="225.25" y="-171.5" font-family="Helvetica,sans-Serif" font-size="10.00">mimic++/Sequence.hpp</text>
</a>
</g>
</g>
<!-- Node1&#45;&gt;Node9 -->
<g id="edge18_Node000001_Node000009" class="edge">
<title>Node1&#45;&gt;Node9</title>
<g id="a_edge18_Node000001_Node000009"><a xlink:title=" ">
<path fill="none" stroke="#63b8ff" d="M173.81,-320.44C181.75,-296.76 195.62,-255.85 208.25,-221 212.77,-208.53 218.28,-194.22 221.78,-185.23"/>
<polygon fill="#63b8ff" stroke="#63b8ff" points="170.57,-319.09 170.72,-329.69 177.21,-321.31 170.57,-319.09"/>
</a>
</g>
</g>
<!-- Node10 -->
<g id="Node000010" class="node">
<title>Node10</title>
<g id="a_Node000010"><a xlink:href="../../dd/d50/_matcher_8hpp.html" target="_top" xlink:title=" ">
<polygon fill="white" stroke="#666666" points="110.5,-240.25 0,-240.25 0,-221 110.5,-221 110.5,-240.25"/>
<text text-anchor="middle" x="55.25" y="-226.75" font-family="Helvetica,sans-Serif" font-size="10.00">mimic++/Matcher.hpp</text>
</a>
</g>
</g>
<!-- Node1&#45;&gt;Node10 -->
<g id="edge16_Node000001_Node000010" class="edge">
<title>Node1&#45;&gt;Node10</title>
<g id="a_edge16_Node000001_Node000010"><a xlink:title=" ">
<path fill="none" stroke="#63b8ff" d="M149.86,-323.28C125.82,-299.99 83.27,-258.77 64.54,-240.63"/>
<polygon fill="#63b8ff" stroke="#63b8ff" points="147.38,-325.75 157,-330.19 152.25,-320.72 147.38,-325.75"/>
</a>
</g>
</g>
<!-- Node3 -->
<g id="Node000003" class="node">
<title>Node3</title>
<g id="a_Node000003"><a xlink:href="../../d5/d8a/_expectation_8hpp.html" target="_top" xlink:title=" ">
<polygon fill="white" stroke="#666666" points="428,-185 302.5,-185 302.5,-165.75 428,-165.75 428,-185"/>
<text text-anchor="middle" x="365.25" y="-171.5" font-family="Helvetica,sans-Serif" font-size="10.00">mimic++/Expectation.hpp</text>
</a>
</g>
</g>
<!-- Node2&#45;&gt;Node3 -->
<g id="edge2_Node000002_Node000003" class="edge">
<title>Node2&#45;&gt;Node3</title>
<g id="a_edge2_Node000002_Node000003"><a xlink:title=" ">
<path fill="none" stroke="#63b8ff" d="M301.56,-270.31C314.12,-262.72 328.28,-252.47 338.25,-240.25 351.95,-223.46 359.73,-198.7 363.15,-185.48"/>
<polygon fill="#63b8ff" stroke="#63b8ff" points="300.2,-267.06 293.25,-275.06 303.67,-273.14 300.2,-267.06"/>
</a>
</g>
</g>
<!-- Node8 -->
<g id="Node000008" class="node">
<title>Node8</title>
<g id="a_Node000008"><a xlink:href="../../da/dd9/_reporter_8hpp.html" target="_top" xlink:title=" ">
<polygon fill="white" stroke="#666666" points="329.25,-240.25 217.25,-240.25 217.25,-221 329.25,-221 329.25,-240.25"/>
<text text-anchor="middle" x="273.25" y="-226.75" font-family="Helvetica,sans-Serif" font-size="10.00">mimic++/Reporter.hpp</text>
</a>
</g>
</g>
<!-- Node2&#45;&gt;Node8 -->
<g id="edge12_Node000002_Node000008" class="edge">
<title>Node2&#45;&gt;Node8</title>
<g id="a_edge12_Node000002_Node000008"><a xlink:title=" ">
<path fill="none" stroke="#63b8ff" d="M273.25,-264.63C273.25,-256.34 273.25,-247.17 273.25,-240.61"/>
<polygon fill="#63b8ff" stroke="#63b8ff" points="269.75,-264.57 273.25,-274.57 276.75,-264.57 269.75,-264.57"/>
</a>
</g>
</g>
<!-- Node4 -->
<g id="Node000004" class="node">
<title>Node4</title>
<g id="a_Node000004"><a xlink:href="../../d3/d4c/_complex_mock_8hpp.html" target="_top" xlink:title=" ">
<polygon fill="white" stroke="#666666" points="529.62,-19.25 392.88,-19.25 392.88,0 529.62,0 529.62,-19.25"/>
<text text-anchor="middle" x="461.25" y="-5.75" font-family="Helvetica,sans-Serif" font-size="10.00">mimic++/ComplexMock.hpp</text>
</a>
</g>
</g>
<!-- Node3&#45;&gt;Node4 -->
<g id="edge3_Node000003_Node000004" class="edge">
<title>Node3&#45;&gt;Node4</title>
<g id="a_edge3_Node000003_Node000004"><a xlink:title=" ">
<path fill="none" stroke="#63b8ff" d="M388.6,-158.78C412.27,-141.42 447.46,-110.95 462.25,-74.5 469.67,-56.21 466.29,-32.47 463.54,-19.71"/>
<polygon fill="#63b8ff" stroke="#63b8ff" points="386.63,-155.89 380.49,-164.53 390.67,-161.61 386.63,-155.89"/>
</a>
</g>
</g>
<!-- Node5 -->
<g id="Node000005" class="node">
<title>Node5</title>
<g id="a_Node000005"><a xlink:href="../../d2/d4f/_expectation_builder_8hpp.html" target="_top" xlink:title=" ">
<polygon fill="white" stroke="#666666" points="433,-74.5 277.5,-74.5 277.5,-55.25 433,-55.25 433,-74.5"/>
<text text-anchor="middle" x="355.25" y="-61" font-family="Helvetica,sans-Serif" font-size="10.00">mimic++/ExpectationBuilder.hpp</text>
</a>
</g>
</g>
<!-- Node3&#45;&gt;Node5 -->
<g id="edge4_Node000003_Node000005" class="edge">
<title>Node3&#45;&gt;Node5</title>
<g id="a_edge4_Node000003_Node000005"><a xlink:title=" ">
<path fill="none" stroke="#63b8ff" d="M363.4,-154.35C361.22,-130.65 357.68,-92.22 356.08,-74.88"/>
<polygon fill="#63b8ff" stroke="#63b8ff" points="359.89,-154.35 364.29,-163.99 366.86,-153.71 359.89,-154.35"/>
</a>
</g>
</g>
<!-- Node6 -->
<g id="Node000006" class="node">
<title>Node6</title>
<g id="a_Node000006"><a xlink:href="../../d5/dc5/_mock_8hpp.html" target="_top" xlink:title=" ">
<polygon fill="white" stroke="#666666" points="298.88,-19.25 199.62,-19.25 199.62,0 298.88,0 298.88,-19.25"/>
<text text-anchor="middle" x="249.25" y="-5.75" font-family="Helvetica,sans-Serif" font-size="10.00">mimic++/Mock.hpp</text>
</a>
</g>
</g>
<!-- Node3&#45;&gt;Node6 -->
<g id="edge11_Node000003_Node000006" class="edge">
<title>Node3&#45;&gt;Node6</title>
<g id="a_edge11_Node000003_Node000006"><a xlink:title=" ">
<path fill="none" stroke="#63b8ff" d="M344.34,-158.12C322.36,-139.98 288.26,-108.65 268.25,-74.5 257.72,-56.53 252.61,-32.25 250.5,-19.42"/>
<polygon fill="#63b8ff" stroke="#63b8ff" points="342.06,-160.78 352.04,-164.33 346.45,-155.33 342.06,-160.78"/>
</a>
</g>
</g>
<!-- Node3&#45;&gt;Node7 -->
<g id="edge7_Node000003_Node000007" class="edge">
<title>Node3&#45;&gt;Node7</title>
<g id="a_edge7_Node000003_Node000007"><a xlink:title=" ">
<path fill="none" stroke="#63b8ff" d="M315.87,-162.64C274.73,-152.86 216.98,-139.13 179.34,-130.18"/>
<polygon fill="#63b8ff" stroke="#63b8ff" points="314.99,-166.02 325.53,-164.93 316.61,-159.21 314.99,-166.02"/>
</a>
</g>
</g>
<!-- Node5&#45;&gt;Node4 -->
<g id="edge5_Node000005_Node000004" class="edge">
<title>Node5&#45;&gt;Node4</title>
<g id="a_edge5_Node000005_Node000004"><a xlink:title=" ">
<path fill="none" stroke="#63b8ff" d="M383.38,-49.74C402.34,-40.22 426.78,-27.94 443.18,-19.7"/>
<polygon fill="#63b8ff" stroke="#63b8ff" points="381.95,-46.55 374.58,-54.16 385.09,-52.8 381.95,-46.55"/>
</a>
</g>
</g>
<!-- Node5&#45;&gt;Node6 -->
<g id="edge6_Node000005_Node000006" class="edge">
<title>Node5&#45;&gt;Node6</title>
<g id="a_edge6_Node000005_Node000006"><a xlink:title=" ">
<path fill="none" stroke="#63b8ff" d="M327.12,-49.74C308.16,-40.22 283.72,-27.94 267.32,-19.7"/>
<polygon fill="#63b8ff" stroke="#63b8ff" points="325.41,-52.8 335.92,-54.16 328.55,-46.55 325.41,-52.8"/>
</a>
</g>
</g>
<!-- Node7&#45;&gt;Node4 -->
<g id="edge8_Node000007_Node000004" class="edge">
<title>Node7&#45;&gt;Node4</title>
<g id="a_edge8_Node000007_Node000004"><a xlink:title=" ">
<path fill="none" stroke="#63b8ff" d="M232.71,-116.16C309.56,-111.81 411.63,-101.06 442.25,-74.5 458.33,-60.55 461.11,-33.66 461.4,-19.63"/>
<polygon fill="#63b8ff" stroke="#63b8ff" points="232.88,-112.65 223.08,-116.68 233.25,-119.64 232.88,-112.65"/>
</a>
</g>
</g>
<!-- Node7&#45;&gt;Node5 -->
<g id="edge9_Node000007_Node000005" class="edge">
<title>Node7&#45;&gt;Node5</title>
<g id="a_edge9_Node000007_Node000005"><a xlink:title=" ">
<path fill="none" stroke="#63b8ff" d="M188.68,-107.32C227.94,-97.55 282.89,-83.88 318.77,-74.95"/>
<polygon fill="#63b8ff" stroke="#63b8ff" points="187.88,-103.92 179.02,-109.73 189.57,-110.71 187.88,-103.92"/>
</a>
</g>
</g>
<!-- Node7&#45;&gt;Node6 -->
<g id="edge10_Node000007_Node000006" class="edge">
<title>Node7&#45;&gt;Node6</title>
<g id="a_edge10_Node000007_Node000006"><a xlink:title=" ">
<path fill="none" stroke="#63b8ff" d="M158.01,-102.28C181.2,-78.99 222.23,-37.77 240.29,-19.63"/>
<polygon fill="#63b8ff" stroke="#63b8ff" points="155.73,-99.62 151.16,-109.17 160.69,-104.56 155.73,-99.62"/>
</a>
</g>
</g>
<!-- Node8&#45;&gt;Node3 -->
<g id="edge13_Node000008_Node000003" class="edge">
<title>Node8&#45;&gt;Node3</title>
<g id="a_edge13_Node000008_Node000003"><a xlink:title=" ">
<path fill="none" stroke="#63b8ff" d="M298.36,-215.09C314.71,-205.63 335.53,-193.58 349.57,-185.45"/>
<polygon fill="#63b8ff" stroke="#63b8ff" points="297.07,-211.79 290.17,-219.83 300.57,-217.85 297.07,-211.79"/>
</a>
</g>
</g>
<!-- Node8&#45;&gt;Node9 -->
<g id="edge14_Node000008_Node000009" class="edge">
<title>Node8&#45;&gt;Node9</title>
<g id="a_edge14_Node000008_Node000009"><a xlink:title=" ">
<path fill="none" stroke="#63b8ff" d="M257.85,-212.54C249.7,-203.5 240.03,-192.77 233.35,-185.36"/>
<polygon fill="#63b8ff" stroke="#63b8ff" points="255.02,-214.62 264.31,-219.71 260.21,-209.94 255.02,-214.62"/>
</a>
</g>
</g>
<!-- Node10&#45;&gt;Node7 -->
<g id="edge17_Node000010_Node000007" class="edge">
<title>Node10&#45;&gt;Node7</title>
<g id="a_edge17_Node000010_Node000007"><a xlink:title=" ">
<path fill="none" stroke="#63b8ff" d="M69.34,-211.85C87.92,-188.41 119.92,-148.03 134.12,-130.13"/>
<polygon fill="#63b8ff" stroke="#63b8ff" points="66.7,-209.55 63.23,-219.56 72.18,-213.9 66.7,-209.55"/>
</a>
</g>
</g>
</g>
</svg>
