<?xml version="1.0" encoding="UTF-8" standalone="no"?>
<!DOCTYPE svg PUBLIC "-//W3C//DTD SVG 1.1//EN"
 "http://www.w3.org/Graphics/SVG/1.1/DTD/svg11.dtd">
<!-- Generated by graphviz version 12.1.2 (20240928.0832)
 -->
<!-- Title: mimic++/Utility.hpp Pages: 1 -->
<!--zoomable 635 -->

<svg id="main" version="1.1" xmlns="http://www.w3.org/2000/svg" xmlns:xlink="http://www.w3.org/1999/xlink" xml:space="preserve" onload="init(evt)">

<style type="text/css"><![CDATA[
.node, .edge {opacity: 0.7;}
.node.selected, .edge.selected {opacity: 1;}
.edge:hover path { stroke: red; }
.edge:hover polygon { stroke: red; fill: red; }
]]></style>

<defs>
  <circle id="rim" cx="0" cy="0" r="7"/>
  <circle id="rim2" cx="0" cy="0" r="3.5"/>
  <g id="zoomPlus">
    <use xlink:href="#rim" fill="#404040"><set attributeName="fill" to="#808080" begin="zoomplus.mouseover" end="zoomplus.mouseout"/></use>
    <path d="M-4,0h8M0,-4v8" fill="none" stroke="white" stroke-width="1.5" pointer-events="none"/>
  </g>
  <g id="zoomMin">
    <use xlink:href="#rim" fill="#404040"><set attributeName="fill" to="#808080" begin="zoomminus.mouseover" end="zoomminus.mouseout"/></use>
    <path d="M-4,0h8" fill="none" stroke="white" stroke-width="1.5" pointer-events="none"/>
  </g>
  <g id="arrowUp" transform="translate(30 24)">
    <use xlink:href="#rim"/>
    <path pointer-events="none" fill="none" stroke="white" stroke-width="1.5" d="M0,-3.0v7 M-2.5,-0.5L0,-3.0L2.5,-0.5"/>
  </g>
  <g id="arrowRight" transform="rotate(90) translate(36 -43)">
    <use xlink:href="#rim"/>
    <path pointer-events="none" fill="none" stroke="white" stroke-width="1.5" d="M0,-3.0v7 M-2.5,-0.5L0,-3.0L2.5,-0.5"/>
  </g>
  <g id="arrowDown" transform="rotate(180) translate(-30 -48)">
    <use xlink:href="#rim"/>
    <path pointer-events="none" fill="none" stroke="white" stroke-width="1.5" d="M0,-3.0v7 M-2.5,-0.5L0,-3.0L2.5,-0.5"/>
  </g>
  <g id="arrowLeft" transform="rotate(270) translate(-36 17)">
    <use xlink:href="#rim"/>
    <path pointer-events="none" fill="none" stroke="white" stroke-width="1.5" d="M0,-3.0v7 M-2.5,-0.5L0,-3.0L2.5,-0.5"/>
  </g>
  <g id="resetDef">
    <use xlink:href="#rim2" fill="#404040"><set attributeName="fill" to="#808080" begin="reset.mouseover" end="reset.mouseout"/></use>
  </g>
</defs>
<script type="application/ecmascript">
var viewWidth = 1190;
var viewHeight = 635;
var sectionId = 'dynsection-1';
</script>
<script type="application/ecmascript" xlink:href="../../svg.min.js"/>
<svg id="graph" class="graph">
<g id="viewport">
<title>mimic++/Utility.hpp</title>
<!-- Node1 -->
<g id="Node000001" class="node">
<title>Node1</title>
<g id="a_Node000001"><a xlink:title=" ">
<polygon fill="#999999" stroke="#666666" points="950,-627 850,-627 850,-607.75 950,-607.75 950,-627"/>
<text text-anchor="middle" x="900" y="-613.5" font-family="Helvetica,sans-Serif" font-size="10.00">mimic++/Utility.hpp</text>
</a>
</g>
</g>
<!-- Node2 -->
<g id="Node000002" class="node">
<title>Node2</title>
<g id="a_Node000002"><a xlink:href="../../dc/d44/_call_8hpp.html" target="_top" xlink:title=" ">
<polygon fill="white" stroke="#666666" points="788.88,-571.75 697.12,-571.75 697.12,-552.5 788.88,-552.5 788.88,-571.75"/>
<text text-anchor="middle" x="743" y="-558.25" font-family="Helvetica,sans-Serif" font-size="10.00">mimic++/Call.hpp</text>
</a>
</g>
</g>
<!-- Node1&#45;&gt;Node2 -->
<g id="edge1_Node000001_Node000002" class="edge">
<title>Node1&#45;&gt;Node2</title>
<g id="a_edge1_Node000001_Node000002"><a xlink:title=" ">
<path fill="none" stroke="#63b8ff" d="M862.57,-603.68C833.99,-593.99 795.3,-580.86 769.76,-572.2"/>
<polygon fill="#63b8ff" stroke="#63b8ff" points="861.34,-606.96 871.93,-606.86 863.59,-600.33 861.34,-606.96"/>
</a>
</g>
</g>
<!-- Node5 -->
<g id="Node000005" class="node">
<title>Node5</title>
<g id="a_Node000005"><a xlink:href="../../d5/dc5/_mock_8hpp.html" target="_top" xlink:title=" ">
<polygon fill="white" stroke="#666666" points="861.62,-129.75 762.38,-129.75 762.38,-110.5 861.62,-110.5 861.62,-129.75"/>
<text text-anchor="middle" x="812" y="-116.25" font-family="Helvetica,sans-Serif" font-size="10.00">mimic++/Mock.hpp</text>
</a>
</g>
</g>
<!-- Node1&#45;&gt;Node5 -->
<g id="edge38_Node000001_Node000005" class="edge">
<title>Node1&#45;&gt;Node5</title>
<g id="a_edge38_Node000001_Node000005"><a xlink:title=" ">
<path fill="none" stroke="#63b8ff" d="M961.49,-605.51C1044.46,-589.08 1182,-554.77 1182,-507.88 1182,-507.88 1182,-507.88 1182,-229.62 1182,-163.69 962.89,-134.98 861.9,-125.25"/>
<polygon fill="#63b8ff" stroke="#63b8ff" points="961.05,-602.03 951.9,-607.38 962.39,-608.91 961.05,-602.03"/>
</a>
</g>
</g>
<!-- Node7 -->
<g id="Node000007" class="node">
<title>Node7</title>
<g id="a_Node000007"><a xlink:href="../../d0/db9/mimic_09_09_8hpp.html" target="_top" xlink:title=" ">
<polygon fill="white" stroke="#666666" points="661.75,-19.25 548.25,-19.25 548.25,0 661.75,0 661.75,-19.25"/>
<text text-anchor="middle" x="605" y="-5.75" font-family="Helvetica,sans-Serif" font-size="10.00">mimic++/mimic++.hpp</text>
</a>
</g>
</g>
<!-- Node1&#45;&gt;Node7 -->
<g id="edge47_Node000001_Node000007" class="edge">
<title>Node1&#45;&gt;Node7</title>
<g id="a_edge47_Node000001_Node000007"><a xlink:title=" ">
<path fill="none" stroke="#63b8ff" d="M838.35,-615.43C635.25,-611.51 0,-592.5 0,-507.88 0,-507.88 0,-507.88 0,-119.12 0,-80.78 23.6,-72.19 58,-55.25 142.95,-13.43 425.7,-9.65 547.91,-10.05"/>
<polygon fill="#63b8ff" stroke="#63b8ff" points="838.11,-618.93 848.17,-615.61 838.24,-611.93 838.11,-618.93"/>
</a>
</g>
</g>
<!-- Node8 -->
<g id="Node000008" class="node">
<title>Node8</title>
<g id="a_Node000008"><a xlink:href="../../d8/de5/_expectation_policies_8hpp.html" target="_top" xlink:title=" ">
<polygon fill="white" stroke="#666666" points="1005,-240.25 845,-240.25 845,-221 1005,-221 1005,-240.25"/>
<text text-anchor="middle" x="925" y="-226.75" font-family="Helvetica,sans-Serif" font-size="10.00">mimic++/ExpectationPolicies.hpp</text>
</a>
</g>
</g>
<!-- Node1&#45;&gt;Node8 -->
<g id="edge34_Node000001_Node000008" class="edge">
<title>Node1&#45;&gt;Node8</title>
<g id="a_edge34_Node000001_Node000008"><a xlink:title=" ">
<path fill="none" stroke="#63b8ff" d="M938.63,-603.51C992.55,-583.15 1087.93,-537.74 1125,-461.25 1173.88,-360.39 1004.65,-269.11 945.03,-240.71"/>
<polygon fill="#63b8ff" stroke="#63b8ff" points="937.71,-600.12 929.53,-606.85 940.12,-606.69 937.71,-600.12"/>
</a>
</g>
</g>
<!-- Node10 -->
<g id="Node000010" class="node">
<title>Node10</title>
<g id="a_Node000010"><a xlink:href="../../d8/de4/_sequence_8hpp.html" target="_top" xlink:title=" ">
<polygon fill="white" stroke="#666666" points="260.38,-406 141.62,-406 141.62,-386.75 260.38,-386.75 260.38,-406"/>
<text text-anchor="middle" x="201" y="-392.5" font-family="Helvetica,sans-Serif" font-size="10.00">mimic++/Sequence.hpp</text>
</a>
</g>
</g>
<!-- Node1&#45;&gt;Node10 -->
<g id="edge46_Node000001_Node000010" class="edge">
<title>Node1&#45;&gt;Node10</title>
<g id="a_edge46_Node000001_Node000010"><a xlink:title=" ">
<path fill="none" stroke="#63b8ff" d="M838.53,-605.73C795.91,-597.8 738.06,-585.91 688,-571.75 504.8,-519.93 291.05,-434.35 222.98,-406.47"/>
<polygon fill="#63b8ff" stroke="#63b8ff" points="837.89,-609.17 848.36,-607.54 839.15,-602.29 837.89,-609.17"/>
</a>
</g>
</g>
<!-- Node11 -->
<g id="Node000011" class="node">
<title>Node11</title>
<g id="a_Node000011"><a xlink:href="../../d6/d17/_control_policy_8hpp.html" target="_top" xlink:title=" ">
<polygon fill="white" stroke="#666666" points="760.12,-350.75 627.88,-350.75 627.88,-331.5 760.12,-331.5 760.12,-350.75"/>
<text text-anchor="middle" x="694" y="-337.25" font-family="Helvetica,sans-Serif" font-size="10.00">mimic++/ControlPolicy.hpp</text>
</a>
</g>
</g>
<!-- Node1&#45;&gt;Node11 -->
<g id="edge33_Node000001_Node000011" class="edge">
<title>Node1&#45;&gt;Node11</title>
<g id="a_edge33_Node000001_Node000011"><a xlink:title=" ">
<path fill="none" stroke="#63b8ff" d="M912.55,-598.14C919.77,-585.32 926.44,-567.79 921,-552.5 889.16,-462.99 860.5,-445.71 786,-386.75 765.95,-370.89 739.35,-358.75 719.91,-351.17"/>
<polygon fill="#63b8ff" stroke="#63b8ff" points="909.74,-596.03 907.4,-606.37 915.67,-599.75 909.74,-596.03"/>
</a>
</g>
</g>
<!-- Node16 -->
<g id="Node000016" class="node">
<title>Node16</title>
<g id="a_Node000016"><a xlink:href="../../dd/d50/_matcher_8hpp.html" target="_top" xlink:title=" ">
<polygon fill="white" stroke="#666666" points="1116.25,-461.25 1005.75,-461.25 1005.75,-442 1116.25,-442 1116.25,-461.25"/>
<text text-anchor="middle" x="1061" y="-447.75" font-family="Helvetica,sans-Serif" font-size="10.00">mimic++/Matcher.hpp</text>
</a>
</g>
</g>
<!-- Node1&#45;&gt;Node16 -->
<g id="edge35_Node000001_Node000016" class="edge">
<title>Node1&#45;&gt;Node16</title>
<g id="a_edge35_Node000001_Node000016"><a xlink:title=" ">
<path fill="none" stroke="#63b8ff" d="M921.76,-600.95C946.74,-582.6 988.13,-550.18 1018,-516.5 1033.97,-498.5 1048.74,-474.23 1056.1,-461.41"/>
<polygon fill="#63b8ff" stroke="#63b8ff" points="920.01,-597.9 913.96,-606.6 924.11,-603.57 920.01,-597.9"/>
</a>
</g>
</g>
<!-- Node17 -->
<g id="Node000017" class="node">
<title>Node17</title>
<g id="a_Node000017"><a xlink:href="../../da/dab/_printer_8hpp.html" target="_top" xlink:title=" ">
<polygon fill="white" stroke="#666666" points="911.88,-571.75 808.12,-571.75 808.12,-552.5 911.88,-552.5 911.88,-571.75"/>
<text text-anchor="middle" x="860" y="-558.25" font-family="Helvetica,sans-Serif" font-size="10.00">mimic++/Printer.hpp</text>
</a>
</g>
</g>
<!-- Node1&#45;&gt;Node17 -->
<g id="edge39_Node000001_Node000017" class="edge">
<title>Node1&#45;&gt;Node17</title>
<g id="a_edge39_Node000001_Node000017"><a xlink:title=" ">
<path fill="none" stroke="#63b8ff" d="M886.53,-598.44C879.88,-589.59 872.14,-579.29 866.75,-572.11"/>
<polygon fill="#63b8ff" stroke="#63b8ff" points="883.68,-600.48 892.49,-606.37 889.28,-596.27 883.68,-600.48"/>
</a>
</g>
</g>
<!-- Node3 -->
<g id="Node000003" class="node">
<title>Node3</title>
<g id="a_Node000003"><a xlink:href="../../d5/d8a/_expectation_8hpp.html" target="_top" xlink:title=" ">
<polygon fill="white" stroke="#666666" points="850.75,-295.5 725.25,-295.5 725.25,-276.25 850.75,-276.25 850.75,-295.5"/>
<text text-anchor="middle" x="788" y="-282" font-family="Helvetica,sans-Serif" font-size="10.00">mimic++/Expectation.hpp</text>
</a>
</g>
</g>
<!-- Node2&#45;&gt;Node3 -->
<g id="edge2_Node000002_Node000003" class="edge">
<title>Node2&#45;&gt;Node3</title>
<g id="a_edge2_Node000002_Node000003"><a xlink:title=" ">
<path fill="none" stroke="#63b8ff" d="M777.58,-547.59C813.34,-531.04 864,-499.36 864,-452.62 864,-452.62 864,-452.62 864,-395.38 864,-351.45 821.69,-312.67 800.21,-295.81"/>
<polygon fill="#63b8ff" stroke="#63b8ff" points="776.61,-544.19 768.87,-551.43 779.43,-550.59 776.61,-544.19"/>
</a>
</g>
</g>
<!-- Node2&#45;&gt;Node7 -->
<g id="edge32_Node000002_Node000007" class="edge">
<title>Node2&#45;&gt;Node7</title>
<g id="a_edge32_Node000002_Node000007"><a xlink:title=" ">
<path fill="none" stroke="#63b8ff" d="M685.41,-558.31C517.13,-549.31 38,-517.96 38,-452.62 38,-452.62 38,-452.62 38,-119.12 38,-80.18 62.97,-72.27 98,-55.25 175.99,-17.36 432.36,-11.34 547.78,-10.59"/>
<polygon fill="#63b8ff" stroke="#63b8ff" points="685.06,-561.79 695.23,-558.82 685.43,-554.8 685.06,-561.79"/>
</a>
</g>
</g>
<!-- Node9 -->
<g id="Node000009" class="node">
<title>Node9</title>
<g id="a_Node000009"><a xlink:href="../../da/dd9/_reporter_8hpp.html" target="_top" xlink:title=" ">
<polygon fill="white" stroke="#666666" points="716,-461.25 604,-461.25 604,-442 716,-442 716,-461.25"/>
<text text-anchor="middle" x="660" y="-447.75" font-family="Helvetica,sans-Serif" font-size="10.00">mimic++/Reporter.hpp</text>
</a>
</g>
</g>
<!-- Node2&#45;&gt;Node9 -->
<g id="edge15_Node000002_Node000009" class="edge">
<title>Node2&#45;&gt;Node9</title>
<g id="a_edge15_Node000002_Node000009"><a xlink:title=" ">
<path fill="none" stroke="#63b8ff" d="M714.42,-546.43C702.3,-538.93 688.93,-528.78 680,-516.5 667.69,-499.59 662.81,-474.88 660.99,-461.7"/>
<polygon fill="#63b8ff" stroke="#63b8ff" points="712.47,-549.35 722.88,-551.34 715.98,-543.29 712.47,-549.35"/>
</a>
</g>
</g>
<!-- Node15 -->
<g id="Node000015" class="node">
<title>Node15</title>
<g id="a_Node000015"><a xlink:href="../../d0/d3b/_reports_8hpp.html" target="_top" xlink:title=" ">
<polygon fill="white" stroke="#666666" points="797.5,-516.5 688.5,-516.5 688.5,-497.25 797.5,-497.25 797.5,-516.5"/>
<text text-anchor="middle" x="743" y="-503" font-family="Helvetica,sans-Serif" font-size="10.00">mimic++/Reports.hpp</text>
</a>
</g>
</g>
<!-- Node2&#45;&gt;Node15 -->
<g id="edge28_Node000002_Node000015" class="edge">
<title>Node2&#45;&gt;Node15</title>
<g id="a_edge28_Node000002_Node000015"><a xlink:title=" ">
<path fill="none" stroke="#63b8ff" d="M743,-540.88C743,-532.59 743,-523.42 743,-516.86"/>
<polygon fill="#63b8ff" stroke="#63b8ff" points="739.5,-540.82 743,-550.82 746.5,-540.82 739.5,-540.82"/>
</a>
</g>
</g>
<!-- Node4 -->
<g id="Node000004" class="node">
<title>Node4</title>
<g id="a_Node000004"><a xlink:href="../../d2/d4f/_expectation_builder_8hpp.html" target="_top" xlink:title=" ">
<polygon fill="white" stroke="#666666" points="788.75,-185 633.25,-185 633.25,-165.75 788.75,-165.75 788.75,-185"/>
<text text-anchor="middle" x="711" y="-171.5" font-family="Helvetica,sans-Serif" font-size="10.00">mimic++/ExpectationBuilder.hpp</text>
</a>
</g>
</g>
<!-- Node3&#45;&gt;Node4 -->
<g id="edge3_Node000003_Node000004" class="edge">
<title>Node3&#45;&gt;Node4</title>
<g id="a_edge3_Node000003_Node000004"><a xlink:title=" ">
<path fill="none" stroke="#63b8ff" d="M775.16,-266.79C758.49,-243.3 730.04,-203.2 717.39,-185.38"/>
<polygon fill="#63b8ff" stroke="#63b8ff" points="772.18,-268.63 780.82,-274.76 777.89,-264.58 772.18,-268.63"/>
</a>
</g>
</g>
<!-- Node3&#45;&gt;Node5 -->
<g id="edge13_Node000003_Node000005" class="edge">
<title>Node3&#45;&gt;Node5</title>
<g id="a_edge13_Node000003_Node000005"><a xlink:title=" ">
<path fill="none" stroke="#63b8ff" d="M790.95,-264.72C796.21,-228.86 806.98,-155.35 810.7,-129.97"/>
<polygon fill="#63b8ff" stroke="#63b8ff" points="787.5,-264.17 789.51,-274.57 794.42,-265.19 787.5,-264.17"/>
</a>
</g>
</g>
<!-- Node3&#45;&gt;Node7 -->
<g id="edge14_Node000003_Node000007" class="edge">
<title>Node3&#45;&gt;Node7</title>
<g id="a_edge14_Node000003_Node000007"><a xlink:title=" ">
<path fill="none" stroke="#63b8ff" d="M720.66,-273.18C668.48,-259.79 605,-232.06 605,-176.38 605,-176.38 605,-176.38 605,-119.12 605,-82.2 605,-38.22 605,-19.63"/>
<polygon fill="#63b8ff" stroke="#63b8ff" points="719.59,-276.52 730.13,-275.47 721.23,-269.71 719.59,-276.52"/>
</a>
</g>
</g>
<!-- Node3&#45;&gt;Node8 -->
<g id="edge9_Node000003_Node000008" class="edge">
<title>Node3&#45;&gt;Node8</title>
<g id="a_edge9_Node000003_Node000008"><a xlink:title=" ">
<path fill="none" stroke="#63b8ff" d="M821.66,-271.79C846.49,-262.14 879.66,-249.25 901.65,-240.7"/>
<polygon fill="#63b8ff" stroke="#63b8ff" points="820.7,-268.41 812.65,-275.29 823.24,-274.93 820.7,-268.41"/>
</a>
</g>
</g>
<!-- Node4&#45;&gt;Node5 -->
<g id="edge4_Node000004_Node000005" class="edge">
<title>Node4&#45;&gt;Node5</title>
<g id="a_edge4_Node000004_Node000005"><a xlink:title=" ">
<path fill="none" stroke="#63b8ff" d="M738.31,-159.98C756.3,-150.49 779.3,-138.36 794.78,-130.2"/>
<polygon fill="#63b8ff" stroke="#63b8ff" points="736.69,-156.88 729.47,-164.64 739.95,-163.07 736.69,-156.88"/>
</a>
</g>
</g>
<!-- Node4&#45;&gt;Node7 -->
<g id="edge8_Node000004_Node000007" class="edge">
<title>Node4&#45;&gt;Node7</title>
<g id="a_edge8_Node000004_Node000007"><a xlink:title=" ">
<path fill="none" stroke="#63b8ff" d="M699.15,-156.07C676.42,-120.95 627.44,-45.3 610.73,-19.47"/>
<polygon fill="#63b8ff" stroke="#63b8ff" points="696.11,-157.81 704.48,-164.3 701.98,-154 696.11,-157.81"/>
</a>
</g>
</g>
<!-- Node6 -->
<g id="Node000006" class="node">
<title>Node6</title>
<g id="a_Node000006"><a xlink:href="../../d9/dc3/_interface_mock_8hpp.html" target="_top" xlink:title=" ">
<polygon fill="white" stroke="#666666" points="875.75,-74.5 738.25,-74.5 738.25,-55.25 875.75,-55.25 875.75,-74.5"/>
<text text-anchor="middle" x="807" y="-61" font-family="Helvetica,sans-Serif" font-size="10.00">mimic++/InterfaceMock.hpp</text>
</a>
</g>
</g>
<!-- Node5&#45;&gt;Node6 -->
<g id="edge5_Node000005_Node000006" class="edge">
<title>Node5&#45;&gt;Node6</title>
<g id="a_edge5_Node000005_Node000006"><a xlink:title=" ">
<path fill="none" stroke="#63b8ff" d="M810.1,-98.88C809.32,-90.59 808.46,-81.42 807.84,-74.86"/>
<polygon fill="#63b8ff" stroke="#63b8ff" points="806.61,-99.2 811.03,-108.82 813.58,-98.54 806.61,-99.2"/>
</a>
</g>
</g>
<!-- Node5&#45;&gt;Node7 -->
<g id="edge7_Node000005_Node000007" class="edge">
<title>Node5&#45;&gt;Node7</title>
<g id="a_edge7_Node000005_Node000007"><a xlink:title=" ">
<path fill="none" stroke="#63b8ff" d="M784.61,-104.77C741.35,-82.09 658.39,-38.61 622.39,-19.74"/>
<polygon fill="#63b8ff" stroke="#63b8ff" points="782.88,-107.82 793.37,-109.36 786.13,-101.62 782.88,-107.82"/>
</a>
</g>
</g>
<!-- Node6&#45;&gt;Node7 -->
<g id="edge6_Node000006_Node000007" class="edge">
<title>Node6&#45;&gt;Node7</title>
<g id="a_edge6_Node000006_Node000007"><a xlink:title=" ">
<path fill="none" stroke="#63b8ff" d="M761.75,-51.95C724.73,-42.19 673.16,-28.59 639.43,-19.7"/>
<polygon fill="#63b8ff" stroke="#63b8ff" points="760.71,-55.29 771.27,-54.46 762.49,-48.52 760.71,-55.29"/>
</a>
</g>
</g>
<!-- Node8&#45;&gt;Node4 -->
<g id="edge10_Node000008_Node000004" class="edge">
<title>Node8&#45;&gt;Node4</title>
<g id="a_edge10_Node000008_Node000004"><a xlink:title=" ">
<path fill="none" stroke="#63b8ff" d="M877.57,-217.82C838.31,-208.05 783.36,-194.38 747.48,-185.45"/>
<polygon fill="#63b8ff" stroke="#63b8ff" points="876.68,-221.21 887.23,-220.23 878.37,-214.42 876.68,-221.21"/>
</a>
</g>
</g>
<!-- Node8&#45;&gt;Node5 -->
<g id="edge11_Node000008_Node000005" class="edge">
<title>Node8&#45;&gt;Node5</title>
<g id="a_edge11_Node000008_Node000005"><a xlink:title=" ">
<path fill="none" stroke="#63b8ff" d="M907.46,-212.78C883.2,-189.49 840.27,-148.27 821.38,-130.13"/>
<polygon fill="#63b8ff" stroke="#63b8ff" points="905.02,-215.3 914.66,-219.7 909.87,-210.25 905.02,-215.3"/>
</a>
</g>
</g>
<!-- Node8&#45;&gt;Node7 -->
<g id="edge12_Node000008_Node000007" class="edge">
<title>Node8&#45;&gt;Node7</title>
<g id="a_edge12_Node000008_Node000007"><a xlink:title=" ">
<path fill="none" stroke="#63b8ff" d="M926.94,-209.69C929.28,-173.24 928.44,-95.85 885,-55.25 853.58,-25.88 734.58,-15.81 662.22,-12.38"/>
<polygon fill="#63b8ff" stroke="#63b8ff" points="923.48,-208.99 926.17,-219.24 930.46,-209.56 923.48,-208.99"/>
</a>
</g>
</g>
<!-- Node9&#45;&gt;Node3 -->
<g id="edge16_Node000009_Node000003" class="edge">
<title>Node9&#45;&gt;Node3</title>
<g id="a_edge16_Node000009_Node000003"><a xlink:title=" ">
<path fill="none" stroke="#63b8ff" d="M720.88,-437.91C738.87,-431.26 756.95,-421.2 769,-406 795.41,-372.68 791.88,-317.3 789.29,-295.79"/>
<polygon fill="#63b8ff" stroke="#63b8ff" points="719.85,-434.56 711.48,-441.05 722.07,-441.2 719.85,-434.56"/>
</a>
</g>
</g>
<!-- Node9&#45;&gt;Node7 -->
<g id="edge27_Node000009_Node000007" class="edge">
<title>Node9&#45;&gt;Node7</title>
<g id="a_edge27_Node000009_Node000007"><a xlink:title=" ">
<path fill="none" stroke="#63b8ff" d="M592.55,-449.1C458.38,-445.47 167.9,-434.4 133,-406 110.03,-387.31 114,-371.74 114,-342.12 114,-342.12 114,-342.12 114,-119.12 114,-31.06 418.95,-14.41 548.2,-11.31"/>
<polygon fill="#63b8ff" stroke="#63b8ff" points="592.27,-452.6 602.36,-449.36 592.45,-445.6 592.27,-452.6"/>
</a>
</g>
</g>
<!-- Node9&#45;&gt;Node10 -->
<g id="edge17_Node000009_Node000010" class="edge">
<title>Node9&#45;&gt;Node10</title>
<g id="a_edge17_Node000009_Node000010"><a xlink:title=" ">
<path fill="none" stroke="#63b8ff" d="M592.72,-443.14C514.97,-434.44 383.19,-419.55 270,-406 267,-405.64 263.93,-405.27 260.83,-404.89"/>
<polygon fill="#63b8ff" stroke="#63b8ff" points="591.96,-446.58 602.29,-444.21 592.74,-439.62 591.96,-446.58"/>
</a>
</g>
</g>
<!-- Node12 -->
<g id="Node000012" class="node">
<title>Node12</title>
<g id="a_Node000012"><a xlink:href="../../d9/d42/_boost_test_8hpp.html" target="_top" xlink:title=" ">
<polygon fill="white" stroke="#666666" points="439.38,-406 278.62,-406 278.62,-386.75 439.38,-386.75 439.38,-406"/>
<text text-anchor="middle" x="359" y="-392.5" font-family="Helvetica,sans-Serif" font-size="10.00">mimic++/adapters/BoostTest.hpp</text>
</a>
</g>
</g>
<!-- Node9&#45;&gt;Node12 -->
<g id="edge24_Node000009_Node000012" class="edge">
<title>Node9&#45;&gt;Node12</title>
<g id="a_edge24_Node000009_Node000012"><a xlink:title=" ">
<path fill="none" stroke="#63b8ff" d="M597.52,-439.57C542.13,-429.77 462.22,-415.63 410.44,-406.48"/>
<polygon fill="#63b8ff" stroke="#63b8ff" points="596.65,-442.97 607.11,-441.27 597.87,-436.08 596.65,-442.97"/>
</a>
</g>
</g>
<!-- Node13 -->
<g id="Node000013" class="node">
<title>Node13</title>
<g id="a_Node000013"><a xlink:href="../../d3/d04/_catch2_8hpp.html" target="_top" xlink:title=" ">
<polygon fill="white" stroke="#666666" points="604.25,-406 457.75,-406 457.75,-386.75 604.25,-386.75 604.25,-406"/>
<text text-anchor="middle" x="531" y="-392.5" font-family="Helvetica,sans-Serif" font-size="10.00">mimic++/adapters/Catch2.hpp</text>
</a>
</g>
</g>
<!-- Node9&#45;&gt;Node13 -->
<g id="edge25_Node000009_Node000013" class="edge">
<title>Node9&#45;&gt;Node13</title>
<g id="a_edge25_Node000009_Node000013"><a xlink:title=" ">
<path fill="none" stroke="#63b8ff" d="M627.68,-437.28C604.36,-427.66 573.5,-414.92 552.99,-406.45"/>
<polygon fill="#63b8ff" stroke="#63b8ff" points="626.14,-440.43 636.72,-441.01 628.81,-433.96 626.14,-440.43"/>
</a>
</g>
</g>
<!-- Node14 -->
<g id="Node000014" class="node">
<title>Node14</title>
<g id="a_Node000014"><a xlink:href="../../d5/db1/gtest_8hpp.html" target="_top" xlink:title=" ">
<polygon fill="white" stroke="#666666" points="759.75,-406 622.25,-406 622.25,-386.75 759.75,-386.75 759.75,-406"/>
<text text-anchor="middle" x="691" y="-392.5" font-family="Helvetica,sans-Serif" font-size="10.00">mimic++/adapters/gtest.hpp</text>
</a>
</g>
</g>
<!-- Node9&#45;&gt;Node14 -->
<g id="edge26_Node000009_Node000014" class="edge">
<title>Node9&#45;&gt;Node14</title>
<g id="a_edge26_Node000009_Node000014"><a xlink:title=" ">
<path fill="none" stroke="#63b8ff" d="M670.78,-432.12C675.85,-423.39 681.68,-413.39 685.77,-406.36"/>
<polygon fill="#63b8ff" stroke="#63b8ff" points="667.89,-430.12 665.88,-440.52 673.94,-433.64 667.89,-430.12"/>
</a>
</g>
</g>
<!-- Node10&#45;&gt;Node4 -->
<g id="edge22_Node000010_Node000004" class="edge">
<title>Node10&#45;&gt;Node4</title>
<g id="a_edge22_Node000010_Node000004"><a xlink:title=" ">
<path fill="none" stroke="#63b8ff" d="M272.18,-385.66C347.62,-375.08 458.42,-358.61 477,-350.75 577.31,-308.3 674.18,-214.16 702.64,-185.09"/>
<polygon fill="#63b8ff" stroke="#63b8ff" points="271.78,-382.18 262.36,-387.03 272.74,-389.11 271.78,-382.18"/>
</a>
</g>
</g>
<!-- Node10&#45;&gt;Node7 -->
<g id="edge23_Node000010_Node000007" class="edge">
<title>Node10&#45;&gt;Node7</title>
<g id="a_edge23_Node000010_Node000007"><a xlink:title=" ">
<path fill="none" stroke="#63b8ff" d="M257.61,-383.85C334.64,-366.5 463,-330.98 463,-286.88 463,-286.88 463,-286.88 463,-119.12 463,-64.36 530.5,-33.54 572.42,-19.67"/>
<polygon fill="#63b8ff" stroke="#63b8ff" points="257.12,-380.37 248.11,-385.94 258.63,-387.2 257.12,-380.37"/>
</a>
</g>
</g>
<!-- Node10&#45;&gt;Node11 -->
<g id="edge18_Node000010_Node000011" class="edge">
<title>Node10&#45;&gt;Node11</title>
<g id="a_edge18_Node000010_Node000011"><a xlink:title=" ">
<path fill="none" stroke="#63b8ff" d="M271.97,-386.54C404.32,-371.39 546.25,-356.87 627.49,-348.72"/>
<polygon fill="#63b8ff" stroke="#63b8ff" points="271.87,-383.03 262.33,-387.65 272.67,-389.99 271.87,-383.03"/>
</a>
</g>
</g>
<!-- Node11&#45;&gt;Node3 -->
<g id="edge19_Node000011_Node000003" class="edge">
<title>Node11&#45;&gt;Node3</title>
<g id="a_edge19_Node000011_Node000003"><a xlink:title=" ">
<path fill="none" stroke="#63b8ff" d="M719.65,-325.59C736.36,-316.13 757.64,-304.08 771.98,-295.95"/>
<polygon fill="#63b8ff" stroke="#63b8ff" points="718.24,-322.37 711.26,-330.35 721.69,-328.46 718.24,-322.37"/>
</a>
</g>
</g>
<!-- Node11&#45;&gt;Node4 -->
<g id="edge20_Node000011_Node000004" class="edge">
<title>Node11&#45;&gt;Node4</title>
<g id="a_edge20_Node000011_Node000004"><a xlink:title=" ">
<path fill="none" stroke="#63b8ff" d="M696.09,-319.97C699.82,-284.11 707.45,-210.6 710.08,-185.22"/>
<polygon fill="#63b8ff" stroke="#63b8ff" points="692.62,-319.51 695.07,-329.82 699.58,-320.23 692.62,-319.51"/>
</a>
</g>
</g>
<!-- Node11&#45;&gt;Node7 -->
<g id="edge21_Node000011_Node000007" class="edge">
<title>Node11&#45;&gt;Node7</title>
<g id="a_edge21_Node000011_Node000007"><a xlink:title=" ">
<path fill="none" stroke="#63b8ff" d="M662.25,-326.2C614.31,-302.78 529,-250.67 529,-176.38 529,-176.38 529,-176.38 529,-119.12 529,-75.2 571.31,-36.42 592.79,-19.56"/>
<polygon fill="#63b8ff" stroke="#63b8ff" points="660.52,-329.26 671.06,-330.38 663.52,-322.93 660.52,-329.26"/>
</a>
</g>
</g>
<!-- Node15&#45;&gt;Node7 -->
<g id="edge31_Node000015_Node000007" class="edge">
<title>Node15&#45;&gt;Node7</title>
<g id="a_edge31_Node000015_Node000007"><a xlink:title=" ">
<path fill="none" stroke="#63b8ff" d="M676.69,-502C508.05,-491.24 76,-457.81 76,-397.38 76,-397.38 76,-397.38 76,-119.12 76,-77.66 106.23,-72.36 144,-55.25 214.68,-23.23 440.81,-14.13 547.83,-11.59"/>
<polygon fill="#63b8ff" stroke="#63b8ff" points="676.42,-505.48 686.62,-502.62 676.86,-498.5 676.42,-505.48"/>
</a>
</g>
</g>
<!-- Node15&#45;&gt;Node9 -->
<g id="edge30_Node000015_Node000009" class="edge">
<title>Node15&#45;&gt;Node9</title>
<g id="a_edge30_Node000015_Node000009"><a xlink:title=" ">
<path fill="none" stroke="#63b8ff" d="M719.51,-490.8C704.89,-481.42 686.57,-469.67 674.15,-461.7"/>
<polygon fill="#63b8ff" stroke="#63b8ff" points="717.34,-493.57 727.65,-496.02 721.12,-487.68 717.34,-493.57"/>
</a>
</g>
</g>
<!-- Node15&#45;&gt;Node11 -->
<g id="edge29_Node000015_Node000011" class="edge">
<title>Node15&#45;&gt;Node11</title>
<g id="a_edge29_Node000015_Node000011"><a xlink:title=" ">
<path fill="none" stroke="#63b8ff" d="M754.83,-487.02C768.59,-462.45 787.24,-418.82 769,-386.75 759.11,-369.36 739.48,-358.04 722.78,-351.15"/>
<polygon fill="#63b8ff" stroke="#63b8ff" points="751.85,-485.17 749.77,-495.56 757.88,-488.74 751.85,-485.17"/>
</a>
</g>
</g>
<!-- Node16&#45;&gt;Node7 -->
<g id="edge37_Node000016_Node000007" class="edge">
<title>Node16&#45;&gt;Node7</title>
<g id="a_edge37_Node000016_Node000007"><a xlink:title=" ">
<path fill="none" stroke="#63b8ff" d="M1070.04,-431.31C1079.2,-409.98 1092,-374.36 1092,-342.12 1092,-342.12 1092,-342.12 1092,-119.12 1092,-88.8 1092.07,-73.69 1068,-55.25 1036.39,-31.03 778.62,-17.64 661.97,-12.77"/>
<polygon fill="#63b8ff" stroke="#63b8ff" points="1066.96,-429.65 1066.06,-440.21 1073.34,-432.51 1066.96,-429.65"/>
</a>
</g>
</g>
<!-- Node16&#45;&gt;Node8 -->
<g id="edge36_Node000016_Node000008" class="edge">
<title>Node16&#45;&gt;Node8</title>
<g id="a_edge36_Node000016_Node000008"><a xlink:title=" ">
<path fill="none" stroke="#63b8ff" d="M1049.86,-432.13C1030.58,-400.18 989.63,-332.66 954,-276.25 946.11,-263.75 936.75,-249.44 930.85,-240.47"/>
<polygon fill="#63b8ff" stroke="#63b8ff" points="1046.79,-433.81 1054.95,-440.57 1052.79,-430.2 1046.79,-433.81"/>
</a>
</g>
</g>
<!-- Node17&#45;&gt;Node7 -->
<g id="edge45_Node000017_Node000007" class="edge">
<title>Node17&#45;&gt;Node7</title>
<g id="a_edge45_Node000017_Node000007"><a xlink:title=" ">
<path fill="none" stroke="#63b8ff" d="M882.23,-545.41C933.17,-507.36 1054,-404.7 1054,-286.88 1054,-286.88 1054,-286.88 1054,-119.12 1054,-39.33 782.69,-18.03 661.87,-12.5"/>
<polygon fill="#63b8ff" stroke="#63b8ff" points="880.25,-542.52 874.25,-551.25 884.39,-548.17 880.25,-542.52"/>
</a>
</g>
</g>
<!-- Node17&#45;&gt;Node8 -->
<g id="edge40_Node000017_Node000008" class="edge">
<title>Node17&#45;&gt;Node8</title>
<g id="a_edge40_Node000017_Node000008"><a xlink:title=" ">
<path fill="none" stroke="#63b8ff" d="M875.32,-543.5C898.55,-514.89 940,-455.68 940,-397.38 940,-397.38 940,-397.38 940,-340.12 940,-302.85 931.21,-259.05 927.09,-240.57"/>
<polygon fill="#63b8ff" stroke="#63b8ff" points="872.67,-541.21 868.93,-551.12 878.04,-545.7 872.67,-541.21"/>
</a>
</g>
</g>
<!-- Node17&#45;&gt;Node9 -->
<g id="edge42_Node000017_Node000009" class="edge">
<title>Node17&#45;&gt;Node9</title>
<g id="a_edge42_Node000017_Node000009"><a xlink:title=" ">
<path fill="none" stroke="#63b8ff" d="M849.16,-542.93C839.71,-528.57 824.77,-509.06 807,-497.25 779.9,-479.24 745.24,-468.26 716.39,-461.7"/>
<polygon fill="#63b8ff" stroke="#63b8ff" points="845.94,-544.39 854.22,-551.01 851.87,-540.68 845.94,-544.39"/>
</a>
</g>
</g>
<!-- Node17&#45;&gt;Node10 -->
<g id="edge44_Node000017_Node000010" class="edge">
<title>Node17&#45;&gt;Node10</title>
<g id="a_edge44_Node000017_Node000010"><a xlink:title=" ">
<path fill="none" stroke="#63b8ff" d="M812.7,-549.41C776.39,-540.41 725.03,-527.68 680,-516.5 514.7,-475.46 317.35,-426.34 237.35,-406.43"/>
<polygon fill="#63b8ff" stroke="#63b8ff" points="811.44,-552.7 821.99,-551.71 813.12,-545.91 811.44,-552.7"/>
</a>
</g>
</g>
<!-- Node17&#45;&gt;Node15 -->
<g id="edge43_Node000017_Node000015" class="edge">
<title>Node17&#45;&gt;Node15</title>
<g id="a_edge43_Node000017_Node000015"><a xlink:title=" ">
<path fill="none" stroke="#63b8ff" d="M829.82,-547.39C808.78,-537.81 781.3,-525.31 762.94,-516.95"/>
<polygon fill="#63b8ff" stroke="#63b8ff" points="828.22,-550.51 838.77,-551.46 831.12,-544.14 828.22,-550.51"/>
</a>
</g>
</g>
<!-- Node17&#45;&gt;Node16 -->
<g id="edge41_Node000017_Node000016" class="edge">
<title>Node17&#45;&gt;Node16</title>
<g id="a_edge41_Node000017_Node000016"><a xlink:title=" ">
<path fill="none" stroke="#63b8ff" d="M911.75,-549.09C937.04,-541.87 967.28,-531.2 992,-516.5 1017.54,-501.32 1041.64,-475.44 1053.44,-461.74"/>
<polygon fill="#63b8ff" stroke="#63b8ff" points="911.06,-545.65 902.34,-551.66 912.91,-552.4 911.06,-545.65"/>
</a>
</g>
</g>
</g>
</svg>

<g id="navigator" transform="translate(0 0)" fill="#404254">
  <rect fill="#f2f5e9" fill-opacity="0.5" stroke="#606060" stroke-width=".5" x="0" y="0" width="60" height="60"/>
  <use id="zoomplus" xlink:href="#zoomPlus" x="17" y="9" onmousedown="handleZoom(evt,'in')"/>
  <use id="zoomminus" xlink:href="#zoomMin" x="42" y="9" onmousedown="handleZoom(evt,'out')"/>
  <use id="reset" xlink:href="#resetDef" x="30" y="36" onmousedown="handleReset()"/>
   <use id="arrowup" xlink:href="#arrowUp" x="0" y="0" onmousedown="handlePan(0,-1)"/>
  <use id="arrowright" xlink:href="#arrowRight" x="0" y="0" onmousedown="handlePan(1,0)"/>
  <use id="arrowdown" xlink:href="#arrowDown" x="0" y="0" onmousedown="handlePan(0,1)"/>
  <use id="arrowleft" xlink:href="#arrowLeft" x="0" y="0" onmousedown="handlePan(-1,0)"/>
</g>
<svg viewBox="0 0 15 15" width="100%" height="30px" preserveAspectRatio="xMaxYMin meet">
 <g id="arrow_out" transform="scale(0.3 0.3)">
  <a xlink:href="_utility_8hpp__dep__incl_org.svg" target="_base">
   <rect id="button" ry="5" rx="5" y="6" x="6" height="38" width="38"
        fill="#f2f5e9" fill-opacity="0.5" stroke="#606060" stroke-width="1.0"/>
   <path id="arrow"
     d="M 11.500037,31.436501 C 11.940474,20.09759 22.043105,11.32322 32.158766,21.979434 L 37.068811,17.246167 C 37.068811,17.246167 37.088388,32 37.088388,32 L 22.160133,31.978069 C 22.160133,31.978069 26.997745,27.140456 26.997745,27.140456 C 18.528582,18.264221 13.291696,25.230495 11.500037,31.436501 z"
     style="fill:#404040;"/>
  </a>
 </g>
</svg>

<style type='text/css'>
<![CDATA[
[data-mouse-over-selected='false'] { opacity: 0.7; }
[data-mouse-over-selected='true']  { opacity: 1.0; }
]]>
</style>
<script type="application/ecmascript"><![CDATA[
document.addEventListener('DOMContentLoaded', (event) => {
  highlightEdges();
  highlightAdjacentNodes();
});
]]></script>
</svg>
