<?xml version="1.0" encoding="UTF-8" standalone="no"?>
<!DOCTYPE svg PUBLIC "-//W3C//DTD SVG 1.1//EN"
 "http://www.w3.org/Graphics/SVG/1.1/DTD/svg11.dtd">
<!-- Generated by graphviz version 12.1.1 (20240910.0053)
 -->
<!-- Title: mimic++/Utility.hpp Pages: 1 -->
<!--zoomable 635 -->

<svg id="main" version="1.1" xmlns="http://www.w3.org/2000/svg" xmlns:xlink="http://www.w3.org/1999/xlink" xml:space="preserve" onload="init(evt)">

<style type="text/css"><![CDATA[
.node, .edge {opacity: 0.7;}
.node.selected, .edge.selected {opacity: 1;}
.edge:hover path { stroke: red; }
.edge:hover polygon { stroke: red; fill: red; }
]]></style>

<defs>
  <circle id="rim" cx="0" cy="0" r="7"/>
  <circle id="rim2" cx="0" cy="0" r="3.5"/>
  <g id="zoomPlus">
    <use xlink:href="#rim" fill="#404040"><set attributeName="fill" to="#808080" begin="zoomplus.mouseover" end="zoomplus.mouseout"/></use>
    <path d="M-4,0h8M0,-4v8" fill="none" stroke="white" stroke-width="1.5" pointer-events="none"/>
  </g>
  <g id="zoomMin">
    <use xlink:href="#rim" fill="#404040"><set attributeName="fill" to="#808080" begin="zoomminus.mouseover" end="zoomminus.mouseout"/></use>
    <path d="M-4,0h8" fill="none" stroke="white" stroke-width="1.5" pointer-events="none"/>
  </g>
  <g id="arrowUp" transform="translate(30 24)">
    <use xlink:href="#rim"/>
    <path pointer-events="none" fill="none" stroke="white" stroke-width="1.5" d="M0,-3.0v7 M-2.5,-0.5L0,-3.0L2.5,-0.5"/>
  </g>
  <g id="arrowRight" transform="rotate(90) translate(36 -43)">
    <use xlink:href="#rim"/>
    <path pointer-events="none" fill="none" stroke="white" stroke-width="1.5" d="M0,-3.0v7 M-2.5,-0.5L0,-3.0L2.5,-0.5"/>
  </g>
  <g id="arrowDown" transform="rotate(180) translate(-30 -48)">
    <use xlink:href="#rim"/>
    <path pointer-events="none" fill="none" stroke="white" stroke-width="1.5" d="M0,-3.0v7 M-2.5,-0.5L0,-3.0L2.5,-0.5"/>
  </g>
  <g id="arrowLeft" transform="rotate(270) translate(-36 17)">
    <use xlink:href="#rim"/>
    <path pointer-events="none" fill="none" stroke="white" stroke-width="1.5" d="M0,-3.0v7 M-2.5,-0.5L0,-3.0L2.5,-0.5"/>
  </g>
  <g id="resetDef">
    <use xlink:href="#rim2" fill="#404040"><set attributeName="fill" to="#808080" begin="reset.mouseover" end="reset.mouseout"/></use>
  </g>
</defs>
<script type="application/ecmascript">
var viewWidth = 1110;
var viewHeight = 635;
var sectionId = 'dynsection-1';
</script>
<script type="application/ecmascript" xlink:href="../../svg.min.js"/>
<svg id="graph" class="graph">
<g id="viewport">
<title>mimic++/Utility.hpp</title>
<!-- Node1 -->
<g id="Node000001" class="node">
<title>Node1</title>
<g id="a_Node000001"><a xlink:title=" ">
<polygon fill="#999999" stroke="#666666" points="842,-627 742,-627 742,-607.75 842,-607.75 842,-627"/>
<text text-anchor="middle" x="792" y="-613.5" font-family="Helvetica,sans-Serif" font-size="10.00">mimic++/Utility.hpp</text>
</a>
</g>
</g>
<!-- Node2 -->
<g id="Node000002" class="node">
<title>Node2</title>
<g id="a_Node000002"><a xlink:href="../../dc/d44/_call_8hpp.html" target="_top" xlink:title=" ">
<polygon fill="white" stroke="#666666" points="650.88,-571.75 559.12,-571.75 559.12,-552.5 650.88,-552.5 650.88,-571.75"/>
<text text-anchor="middle" x="605" y="-558.25" font-family="Helvetica,sans-Serif" font-size="10.00">mimic++/Call.hpp</text>
</a>
</g>
</g>
<!-- Node1&#45;&gt;Node2 -->
<g id="edge1_Node000001_Node000002" class="edge">
<title>Node1&#45;&gt;Node2</title>
<g id="a_edge1_Node000001_Node000002"><a xlink:title=" ">
<path fill="none" stroke="#63b8ff" d="M749.22,-604.19C715.01,-594.45 667.83,-581.02 636.88,-572.2"/>
<polygon fill="#63b8ff" stroke="#63b8ff" points="748.25,-607.55 758.82,-606.93 750.16,-600.82 748.25,-607.55"/>
</a>
</g>
</g>
<!-- Node7 -->
<g id="Node000007" class="node">
<title>Node7</title>
<g id="a_Node000007"><a xlink:href="../../d0/db9/mimic_09_09_8hpp.html" target="_top" xlink:title=" ">
<polygon fill="white" stroke="#666666" points="711.75,-19.25 598.25,-19.25 598.25,0 711.75,0 711.75,-19.25"/>
<text text-anchor="middle" x="655" y="-5.75" font-family="Helvetica,sans-Serif" font-size="10.00">mimic++/mimic++.hpp</text>
</a>
</g>
</g>
<!-- Node1&#45;&gt;Node7 -->
<g id="edge39_Node000001_Node000007" class="edge">
<title>Node1&#45;&gt;Node7</title>
<g id="a_edge39_Node000001_Node000007"><a xlink:title=" ">
<path fill="none" stroke="#63b8ff" d="M730.06,-614.39C543.54,-607.59 0,-581.46 0,-507.88 0,-507.88 0,-507.88 0,-119.12 0,-79.56 26.17,-72.02 62,-55.25 156.09,-11.22 468.72,-8.84 598.14,-9.83"/>
<polygon fill="#63b8ff" stroke="#63b8ff" points="729.92,-617.88 740.04,-614.74 730.17,-610.89 729.92,-617.88"/>
</a>
</g>
</g>
<!-- Node8 -->
<g id="Node000008" class="node">
<title>Node8</title>
<g id="a_Node000008"><a xlink:href="../../d8/de5/_expectation_policies_8hpp.html" target="_top" xlink:title=" ">
<polygon fill="white" stroke="#666666" points="1006,-240.25 846,-240.25 846,-221 1006,-221 1006,-240.25"/>
<text text-anchor="middle" x="926" y="-226.75" font-family="Helvetica,sans-Serif" font-size="10.00">mimic++/ExpectationPolicies.hpp</text>
</a>
</g>
</g>
<!-- Node1&#45;&gt;Node8 -->
<g id="edge34_Node000001_Node000008" class="edge">
<title>Node1&#45;&gt;Node8</title>
<g id="a_edge34_Node000001_Node000008"><a xlink:title=" ">
<path fill="none" stroke="#63b8ff" d="M851.84,-604.41C901.49,-590.59 964,-562.36 964,-507.88 964,-507.88 964,-507.88 964,-340.12 964,-301.21 941.95,-258.62 931.44,-240.54"/>
<polygon fill="#63b8ff" stroke="#63b8ff" points="851.07,-600.99 842.29,-606.92 852.85,-607.76 851.07,-600.99"/>
</a>
</g>
</g>
<!-- Node10 -->
<g id="Node000010" class="node">
<title>Node10</title>
<g id="a_Node000010"><a xlink:href="../../d8/de4/_sequence_8hpp.html" target="_top" xlink:title=" ">
<polygon fill="white" stroke="#666666" points="875.38,-406 756.62,-406 756.62,-386.75 875.38,-386.75 875.38,-406"/>
<text text-anchor="middle" x="816" y="-392.5" font-family="Helvetica,sans-Serif" font-size="10.00">mimic++/Sequence.hpp</text>
</a>
</g>
</g>
<!-- Node1&#45;&gt;Node10 -->
<g id="edge38_Node000001_Node000010" class="edge">
<title>Node1&#45;&gt;Node10</title>
<g id="a_edge38_Node000001_Node000010"><a xlink:title=" ">
<path fill="none" stroke="#63b8ff" d="M794.22,-596.11C799.29,-549.88 811.53,-438.15 815.04,-406.1"/>
<polygon fill="#63b8ff" stroke="#63b8ff" points="790.75,-595.69 793.14,-606.01 797.7,-596.45 790.75,-595.69"/>
</a>
</g>
</g>
<!-- Node11 -->
<g id="Node000011" class="node">
<title>Node11</title>
<g id="a_Node000011"><a xlink:href="../../d6/d17/_control_policy_8hpp.html" target="_top" xlink:title=" ">
<polygon fill="white" stroke="#666666" points="752.12,-350.75 619.88,-350.75 619.88,-331.5 752.12,-331.5 752.12,-350.75"/>
<text text-anchor="middle" x="686" y="-337.25" font-family="Helvetica,sans-Serif" font-size="10.00">mimic++/ControlPolicy.hpp</text>
</a>
</g>
</g>
<!-- Node1&#45;&gt;Node11 -->
<g id="edge33_Node000001_Node000011" class="edge">
<title>Node1&#45;&gt;Node11</title>
<g id="a_edge33_Node000001_Node000011"><a xlink:title=" ">
<path fill="none" stroke="#63b8ff" d="M785.88,-596.59C778.41,-572.81 765.13,-531.81 752,-497.25 730.59,-440.89 700.9,-374.79 690.12,-351.12"/>
<polygon fill="#63b8ff" stroke="#63b8ff" points="782.46,-597.37 788.78,-605.88 789.14,-595.29 782.46,-597.37"/>
</a>
</g>
</g>
<!-- Node16 -->
<g id="Node000016" class="node">
<title>Node16</title>
<g id="a_Node000016"><a xlink:href="../../dd/d50/_matcher_8hpp.html" target="_top" xlink:title=" ">
<polygon fill="white" stroke="#666666" points="1102.25,-295.5 991.75,-295.5 991.75,-276.25 1102.25,-276.25 1102.25,-295.5"/>
<text text-anchor="middle" x="1047" y="-282" font-family="Helvetica,sans-Serif" font-size="10.00">mimic++/Matcher.hpp</text>
</a>
</g>
</g>
<!-- Node1&#45;&gt;Node16 -->
<g id="edge35_Node000001_Node000016" class="edge">
<title>Node1&#45;&gt;Node16</title>
<g id="a_edge35_Node000001_Node000016"><a xlink:title=" ">
<path fill="none" stroke="#63b8ff" d="M853.49,-613.41C922.22,-606.39 1024,-583.27 1024,-507.88 1024,-507.88 1024,-507.88 1024,-395.38 1024,-357.63 1037.48,-314.08 1043.8,-295.74"/>
<polygon fill="#63b8ff" stroke="#63b8ff" points="853.48,-609.89 843.85,-614.3 854.13,-616.86 853.48,-609.89"/>
</a>
</g>
</g>
<!-- Node3 -->
<g id="Node000003" class="node">
<title>Node3</title>
<g id="a_Node000003"><a xlink:href="../../d5/d8a/_expectation_8hpp.html" target="_top" xlink:title=" ">
<polygon fill="white" stroke="#666666" points="654.75,-295.5 529.25,-295.5 529.25,-276.25 654.75,-276.25 654.75,-295.5"/>
<text text-anchor="middle" x="592" y="-282" font-family="Helvetica,sans-Serif" font-size="10.00">mimic++/Expectation.hpp</text>
</a>
</g>
</g>
<!-- Node2&#45;&gt;Node3 -->
<g id="edge2_Node000002_Node000003" class="edge">
<title>Node2&#45;&gt;Node3</title>
<g id="a_edge2_Node000002_Node000003"><a xlink:title=" ">
<path fill="none" stroke="#63b8ff" d="M610.01,-541.01C619.5,-501.61 638.48,-415.62 631,-386.75 626.41,-369.03 618.1,-367.62 611,-350.75 603.02,-331.77 596.95,-308.3 593.99,-295.76"/>
<polygon fill="#63b8ff" stroke="#63b8ff" points="606.65,-540.01 607.67,-550.56 613.45,-541.68 606.65,-540.01"/>
</a>
</g>
</g>
<!-- Node2&#45;&gt;Node7 -->
<g id="edge32_Node000002_Node000007" class="edge">
<title>Node2&#45;&gt;Node7</title>
<g id="a_edge32_Node000002_Node000007"><a xlink:title=" ">
<path fill="none" stroke="#63b8ff" d="M547.89,-556.17C404,-542.92 38,-504.16 38,-452.62 38,-452.62 38,-452.62 38,-119.12 38,-54.35 106.62,-72.69 169,-55.25 248.36,-33.06 487.67,-18.83 598.07,-13.27"/>
<polygon fill="#63b8ff" stroke="#63b8ff" points="547.3,-559.63 557.57,-557.05 547.93,-552.66 547.3,-559.63"/>
</a>
</g>
</g>
<!-- Node9 -->
<g id="Node000009" class="node">
<title>Node9</title>
<g id="a_Node000009"><a xlink:href="../../da/dd9/_reporter_8hpp.html" target="_top" xlink:title=" ">
<polygon fill="white" stroke="#666666" points="492,-461.25 380,-461.25 380,-442 492,-442 492,-461.25"/>
<text text-anchor="middle" x="436" y="-447.75" font-family="Helvetica,sans-Serif" font-size="10.00">mimic++/Reporter.hpp</text>
</a>
</g>
</g>
<!-- Node2&#45;&gt;Node9 -->
<g id="edge15_Node000002_Node000009" class="edge">
<title>Node2&#45;&gt;Node9</title>
<g id="a_edge15_Node000002_Node000009"><a xlink:title=" ">
<path fill="none" stroke="#63b8ff" d="M581.25,-545.88C545.47,-522.91 478.85,-480.13 449.96,-461.59"/>
<polygon fill="#63b8ff" stroke="#63b8ff" points="579.3,-548.79 589.61,-551.24 583.08,-542.9 579.3,-548.79"/>
</a>
</g>
</g>
<!-- Node15 -->
<g id="Node000015" class="node">
<title>Node15</title>
<g id="a_Node000015"><a xlink:href="../../d0/d3b/_reports_8hpp.html" target="_top" xlink:title=" ">
<polygon fill="white" stroke="#666666" points="742.5,-516.5 633.5,-516.5 633.5,-497.25 742.5,-497.25 742.5,-516.5"/>
<text text-anchor="middle" x="688" y="-503" font-family="Helvetica,sans-Serif" font-size="10.00">mimic++/Reports.hpp</text>
</a>
</g>
</g>
<!-- Node2&#45;&gt;Node15 -->
<g id="edge28_Node000002_Node000015" class="edge">
<title>Node2&#45;&gt;Node15</title>
<g id="a_edge28_Node000002_Node000015"><a xlink:title=" ">
<path fill="none" stroke="#63b8ff" d="M628.49,-546.05C643.11,-536.67 661.43,-524.92 673.85,-516.95"/>
<polygon fill="#63b8ff" stroke="#63b8ff" points="626.88,-542.93 620.35,-551.27 630.66,-548.82 626.88,-542.93"/>
</a>
</g>
</g>
<!-- Node4 -->
<g id="Node000004" class="node">
<title>Node4</title>
<g id="a_Node000004"><a xlink:href="../../d2/d4f/_expectation_builder_8hpp.html" target="_top" xlink:title=" ">
<polygon fill="white" stroke="#666666" points="713.75,-185 558.25,-185 558.25,-165.75 713.75,-165.75 713.75,-185"/>
<text text-anchor="middle" x="636" y="-171.5" font-family="Helvetica,sans-Serif" font-size="10.00">mimic++/ExpectationBuilder.hpp</text>
</a>
</g>
</g>
<!-- Node3&#45;&gt;Node4 -->
<g id="edge3_Node000003_Node000004" class="edge">
<title>Node3&#45;&gt;Node4</title>
<g id="a_edge3_Node000003_Node000004"><a xlink:title=" ">
<path fill="none" stroke="#63b8ff" d="M599.85,-265.51C609.44,-241.87 625.25,-202.88 632.35,-185.38"/>
<polygon fill="#63b8ff" stroke="#63b8ff" points="596.68,-264.01 596.17,-274.59 603.17,-266.64 596.68,-264.01"/>
</a>
</g>
</g>
<!-- Node5 -->
<g id="Node000005" class="node">
<title>Node5</title>
<g id="a_Node000005"><a xlink:href="../../d5/dc5/_mock_8hpp.html" target="_top" xlink:title=" ">
<polygon fill="white" stroke="#666666" points="656.62,-129.75 557.38,-129.75 557.38,-110.5 656.62,-110.5 656.62,-129.75"/>
<text text-anchor="middle" x="607" y="-116.25" font-family="Helvetica,sans-Serif" font-size="10.00">mimic++/Mock.hpp</text>
</a>
</g>
</g>
<!-- Node3&#45;&gt;Node5 -->
<g id="edge13_Node000003_Node000005" class="edge">
<title>Node3&#45;&gt;Node5</title>
<g id="a_edge13_Node000003_Node000005"><a xlink:title=" ">
<path fill="none" stroke="#63b8ff" d="M576.71,-267.01C558.34,-243.26 532,-200.27 549,-165.75 556.97,-149.56 573.94,-137.6 587.48,-130.16"/>
<polygon fill="#63b8ff" stroke="#63b8ff" points="573.97,-269.19 582.99,-274.76 579.4,-264.78 573.97,-269.19"/>
</a>
</g>
</g>
<!-- Node3&#45;&gt;Node7 -->
<g id="edge14_Node000003_Node000007" class="edge">
<title>Node3&#45;&gt;Node7</title>
<g id="a_edge14_Node000003_Node000007"><a xlink:title=" ">
<path fill="none" stroke="#63b8ff" d="M557.54,-271.18C522.09,-254.54 472,-222.83 472,-176.38 472,-176.38 472,-176.38 472,-119.12 472,-59.47 544.83,-31.91 598.6,-19.68"/>
<polygon fill="#63b8ff" stroke="#63b8ff" points="556.07,-274.35 566.62,-275.24 558.92,-267.96 556.07,-274.35"/>
</a>
</g>
</g>
<!-- Node3&#45;&gt;Node8 -->
<g id="edge9_Node000003_Node000008" class="edge">
<title>Node3&#45;&gt;Node8</title>
<g id="a_edge9_Node000003_Node000008"><a xlink:title=" ">
<path fill="none" stroke="#63b8ff" d="M660.18,-274C721.68,-264.2 811.11,-249.94 868.92,-240.73"/>
<polygon fill="#63b8ff" stroke="#63b8ff" points="659.86,-270.51 650.53,-275.54 660.96,-277.43 659.86,-270.51"/>
</a>
</g>
</g>
<!-- Node4&#45;&gt;Node5 -->
<g id="edge4_Node000004_Node000005" class="edge">
<title>Node4&#45;&gt;Node5</title>
<g id="a_edge4_Node000004_Node000005"><a xlink:title=" ">
<path fill="none" stroke="#63b8ff" d="M625.76,-155.58C621.05,-146.92 615.68,-137.06 611.89,-130.11"/>
<polygon fill="#63b8ff" stroke="#63b8ff" points="622.63,-157.14 630.49,-164.25 628.78,-153.8 622.63,-157.14"/>
</a>
</g>
</g>
<!-- Node4&#45;&gt;Node7 -->
<g id="edge8_Node000004_Node000007" class="edge">
<title>Node4&#45;&gt;Node7</title>
<g id="a_edge8_Node000004_Node000007"><a xlink:title=" ">
<path fill="none" stroke="#63b8ff" d="M649.7,-156.33C655.26,-148.45 661.43,-138.93 666,-129.75 677.56,-106.5 680.72,-100.11 685,-74.5 686.41,-66.06 687.5,-63.43 685,-55.25 680.81,-41.5 670.8,-28.14 663.5,-19.68"/>
<polygon fill="#63b8ff" stroke="#63b8ff" points="646.91,-154.21 643.83,-164.35 652.56,-158.35 646.91,-154.21"/>
</a>
</g>
</g>
<!-- Node6 -->
<g id="Node000006" class="node">
<title>Node6</title>
<g id="a_Node000006"><a xlink:href="../../d9/dc3/_interface_mock_8hpp.html" target="_top" xlink:title=" ">
<polygon fill="white" stroke="#666666" points="675.75,-74.5 538.25,-74.5 538.25,-55.25 675.75,-55.25 675.75,-74.5"/>
<text text-anchor="middle" x="607" y="-61" font-family="Helvetica,sans-Serif" font-size="10.00">mimic++/InterfaceMock.hpp</text>
</a>
</g>
</g>
<!-- Node5&#45;&gt;Node6 -->
<g id="edge5_Node000005_Node000006" class="edge">
<title>Node5&#45;&gt;Node6</title>
<g id="a_edge5_Node000005_Node000006"><a xlink:title=" ">
<path fill="none" stroke="#63b8ff" d="M607,-98.88C607,-90.59 607,-81.42 607,-74.86"/>
<polygon fill="#63b8ff" stroke="#63b8ff" points="603.5,-98.82 607,-108.82 610.5,-98.82 603.5,-98.82"/>
</a>
</g>
</g>
<!-- Node5&#45;&gt;Node7 -->
<g id="edge7_Node000005_Node000007" class="edge">
<title>Node5&#45;&gt;Node7</title>
<g id="a_edge7_Node000005_Node000007"><a xlink:title=" ">
<path fill="none" stroke="#63b8ff" d="M569.01,-105.88C542.41,-94.42 514.06,-76.39 529,-55.25 544.67,-33.08 572.34,-21.85 597.76,-16.2"/>
<polygon fill="#63b8ff" stroke="#63b8ff" points="567.43,-109.01 578.01,-109.52 570.05,-102.52 567.43,-109.01"/>
</a>
</g>
</g>
<!-- Node6&#45;&gt;Node7 -->
<g id="edge6_Node000006_Node000007" class="edge">
<title>Node6&#45;&gt;Node7</title>
<g id="a_edge6_Node000006_Node000007"><a xlink:title=" ">
<path fill="none" stroke="#63b8ff" d="M622.4,-46.79C630.55,-37.75 640.22,-27.02 646.9,-19.61"/>
<polygon fill="#63b8ff" stroke="#63b8ff" points="620.04,-44.19 615.94,-53.96 625.23,-48.87 620.04,-44.19"/>
</a>
</g>
</g>
<!-- Node8&#45;&gt;Node4 -->
<g id="edge10_Node000008_Node000004" class="edge">
<title>Node8&#45;&gt;Node4</title>
<g id="a_edge10_Node000008_Node000004"><a xlink:title=" ">
<path fill="none" stroke="#63b8ff" d="M865.45,-218.51C812.01,-208.69 735.08,-194.57 685.32,-185.43"/>
<polygon fill="#63b8ff" stroke="#63b8ff" points="864.52,-221.89 874.99,-220.26 865.78,-215.01 864.52,-221.89"/>
</a>
</g>
</g>
<!-- Node8&#45;&gt;Node5 -->
<g id="edge11_Node000008_Node000005" class="edge">
<title>Node8&#45;&gt;Node5</title>
<g id="a_edge11_Node000008_Node000005"><a xlink:title=" ">
<path fill="none" stroke="#63b8ff" d="M888.76,-216.96C823.66,-194.82 690.69,-149.59 633.8,-130.24"/>
<polygon fill="#63b8ff" stroke="#63b8ff" points="887.32,-220.17 897.92,-220.07 889.58,-213.54 887.32,-220.17"/>
</a>
</g>
</g>
<!-- Node8&#45;&gt;Node7 -->
<g id="edge12_Node000008_Node000007" class="edge">
<title>Node8&#45;&gt;Node7</title>
<g id="a_edge12_Node000008_Node000007"><a xlink:title=" ">
<path fill="none" stroke="#63b8ff" d="M920.99,-209.66C910.76,-173.16 883.94,-95.7 832,-55.25 797.75,-28.57 749.46,-17.67 711.98,-13.3"/>
<polygon fill="#63b8ff" stroke="#63b8ff" points="917.59,-210.51 923.54,-219.27 924.36,-208.71 917.59,-210.51"/>
</a>
</g>
</g>
<!-- Node9&#45;&gt;Node3 -->
<g id="edge16_Node000009_Node000003" class="edge">
<title>Node9&#45;&gt;Node3</title>
<g id="a_edge16_Node000009_Node000003"><a xlink:title=" ">
<path fill="none" stroke="#63b8ff" d="M368.86,-440.03C329.71,-430.76 291.54,-414.32 311,-386.75 360.11,-317.17 462.14,-295.77 528.79,-289.36"/>
<polygon fill="#63b8ff" stroke="#63b8ff" points="367.88,-443.4 378.4,-442.14 369.39,-436.57 367.88,-443.4"/>
</a>
</g>
</g>
<!-- Node9&#45;&gt;Node7 -->
<g id="edge27_Node000009_Node000007" class="edge">
<title>Node9&#45;&gt;Node7</title>
<g id="a_edge27_Node000009_Node000007"><a xlink:title=" ">
<path fill="none" stroke="#63b8ff" d="M368.41,-450.26C280.93,-448.38 134.95,-440.06 95,-406 72.46,-386.79 76,-371.74 76,-342.12 76,-342.12 76,-342.12 76,-119.12 76,-66.39 451.83,-28.2 597.9,-15.35"/>
<polygon fill="#63b8ff" stroke="#63b8ff" points="368.25,-453.75 378.31,-450.44 368.38,-446.75 368.25,-453.75"/>
</a>
</g>
</g>
<!-- Node9&#45;&gt;Node10 -->
<g id="edge17_Node000009_Node000010" class="edge">
<title>Node9&#45;&gt;Node10</title>
<g id="a_edge17_Node000009_Node000010"><a xlink:title=" ">
<path fill="none" stroke="#63b8ff" d="M503.64,-441.15C575.44,-431.09 687.81,-415.34 756.39,-405.73"/>
<polygon fill="#63b8ff" stroke="#63b8ff" points="503.4,-437.65 493.98,-442.5 504.37,-444.58 503.4,-437.65"/>
</a>
</g>
</g>
<!-- Node12 -->
<g id="Node000012" class="node">
<title>Node12</title>
<g id="a_Node000012"><a xlink:href="../../d9/d42/_boost_test_8hpp.html" target="_top" xlink:title=" ">
<polygon fill="white" stroke="#666666" points="264.38,-406 103.62,-406 103.62,-386.75 264.38,-386.75 264.38,-406"/>
<text text-anchor="middle" x="184" y="-392.5" font-family="Helvetica,sans-Serif" font-size="10.00">mimic++/adapters/BoostTest.hpp</text>
</a>
</g>
</g>
<!-- Node9&#45;&gt;Node12 -->
<g id="edge24_Node000009_Node000012" class="edge">
<title>Node9&#45;&gt;Node12</title>
<g id="a_edge24_Node000009_Node000012"><a xlink:title=" ">
<path fill="none" stroke="#63b8ff" d="M381.92,-439.2C335.55,-429.4 269.65,-415.47 226.86,-406.43"/>
<polygon fill="#63b8ff" stroke="#63b8ff" points="380.98,-442.58 391.49,-441.22 382.42,-435.73 380.98,-442.58"/>
</a>
</g>
</g>
<!-- Node13 -->
<g id="Node000013" class="node">
<title>Node13</title>
<g id="a_Node000013"><a xlink:href="../../d3/d04/_catch2_8hpp.html" target="_top" xlink:title=" ">
<polygon fill="white" stroke="#666666" points="466.25,-406 319.75,-406 319.75,-386.75 466.25,-386.75 466.25,-406"/>
<text text-anchor="middle" x="393" y="-392.5" font-family="Helvetica,sans-Serif" font-size="10.00">mimic++/adapters/Catch2.hpp</text>
</a>
</g>
</g>
<!-- Node9&#45;&gt;Node13 -->
<g id="edge25_Node000009_Node000013" class="edge">
<title>Node9&#45;&gt;Node13</title>
<g id="a_edge25_Node000009_Node000013"><a xlink:title=" ">
<path fill="none" stroke="#63b8ff" d="M421.75,-432.97C414.55,-424.06 406.12,-413.62 400.25,-406.36"/>
<polygon fill="#63b8ff" stroke="#63b8ff" points="418.94,-435.07 427.95,-440.65 424.39,-430.68 418.94,-435.07"/>
</a>
</g>
</g>
<!-- Node14 -->
<g id="Node000014" class="node">
<title>Node14</title>
<g id="a_Node000014"><a xlink:href="../../d5/db1/gtest_8hpp.html" target="_top" xlink:title=" ">
<polygon fill="white" stroke="#666666" points="621.75,-406 484.25,-406 484.25,-386.75 621.75,-386.75 621.75,-406"/>
<text text-anchor="middle" x="553" y="-392.5" font-family="Helvetica,sans-Serif" font-size="10.00">mimic++/adapters/gtest.hpp</text>
</a>
</g>
</g>
<!-- Node9&#45;&gt;Node14 -->
<g id="edge26_Node000009_Node000014" class="edge">
<title>Node9&#45;&gt;Node14</title>
<g id="a_edge26_Node000009_Node000014"><a xlink:title=" ">
<path fill="none" stroke="#63b8ff" d="M466.18,-436.89C487.22,-427.31 514.7,-414.81 533.06,-406.45"/>
<polygon fill="#63b8ff" stroke="#63b8ff" points="464.88,-433.64 457.23,-440.96 467.78,-440.01 464.88,-433.64"/>
</a>
</g>
</g>
<!-- Node10&#45;&gt;Node4 -->
<g id="edge22_Node000010_Node000004" class="edge">
<title>Node10&#45;&gt;Node4</title>
<g id="a_edge22_Node000010_Node000004"><a xlink:title=" ">
<path fill="none" stroke="#63b8ff" d="M801.48,-377.71C764.91,-333.21 670.02,-217.77 643.17,-185.1"/>
<polygon fill="#63b8ff" stroke="#63b8ff" points="798.71,-379.85 807.76,-385.35 804.11,-375.4 798.71,-379.85"/>
</a>
</g>
</g>
<!-- Node10&#45;&gt;Node7 -->
<g id="edge23_Node000010_Node000007" class="edge">
<title>Node10&#45;&gt;Node7</title>
<g id="a_edge23_Node000010_Node000007"><a xlink:title=" ">
<path fill="none" stroke="#63b8ff" d="M816.6,-375.01C817.19,-353.21 818,-317.6 818,-286.88 818,-286.88 818,-286.88 818,-119.12 818,-61.5 746.54,-32.62 698.25,-19.68"/>
<polygon fill="#63b8ff" stroke="#63b8ff" points="813.1,-374.77 816.32,-384.86 820.1,-374.96 813.1,-374.77"/>
</a>
</g>
</g>
<!-- Node10&#45;&gt;Node11 -->
<g id="edge18_Node000010_Node000011" class="edge">
<title>Node10&#45;&gt;Node11</title>
<g id="a_edge18_Node000010_Node000011"><a xlink:title=" ">
<path fill="none" stroke="#63b8ff" d="M783.43,-382.03C759.93,-372.41 728.83,-359.67 708.16,-351.2"/>
<polygon fill="#63b8ff" stroke="#63b8ff" points="781.97,-385.22 792.55,-385.77 784.62,-378.74 781.97,-385.22"/>
</a>
</g>
</g>
<!-- Node11&#45;&gt;Node3 -->
<g id="edge19_Node000011_Node000003" class="edge">
<title>Node11&#45;&gt;Node3</title>
<g id="a_edge19_Node000011_Node000003"><a xlink:title=" ">
<path fill="none" stroke="#63b8ff" d="M660.35,-325.59C643.64,-316.13 622.36,-304.08 608.02,-295.95"/>
<polygon fill="#63b8ff" stroke="#63b8ff" points="658.31,-328.46 668.74,-330.35 661.76,-322.37 658.31,-328.46"/>
</a>
</g>
</g>
<!-- Node11&#45;&gt;Node4 -->
<g id="edge20_Node000011_Node000004" class="edge">
<title>Node11&#45;&gt;Node4</title>
<g id="a_edge20_Node000011_Node000004"><a xlink:title=" ">
<path fill="none" stroke="#63b8ff" d="M679.99,-320.44C669.09,-284.75 646.48,-210.71 638.7,-185.22"/>
<polygon fill="#63b8ff" stroke="#63b8ff" points="676.6,-321.33 682.87,-329.87 683.3,-319.29 676.6,-321.33"/>
</a>
</g>
</g>
<!-- Node11&#45;&gt;Node7 -->
<g id="edge21_Node000011_Node000007" class="edge">
<title>Node11&#45;&gt;Node7</title>
<g id="a_edge21_Node000011_Node000007"><a xlink:title=" ">
<path fill="none" stroke="#63b8ff" d="M701.94,-322.32C718.49,-301.93 742,-266.78 742,-231.62 742,-231.62 742,-231.62 742,-119.12 742,-73.49 694.58,-36.1 669.76,-19.65"/>
<polygon fill="#63b8ff" stroke="#63b8ff" points="699.29,-320.04 695.48,-329.93 704.62,-324.57 699.29,-320.04"/>
</a>
</g>
</g>
<!-- Node15&#45;&gt;Node7 -->
<g id="edge31_Node000015_Node000007" class="edge">
<title>Node15&#45;&gt;Node7</title>
<g id="a_edge31_Node000015_Node000007"><a xlink:title=" ">
<path fill="none" stroke="#63b8ff" d="M754.35,-503.14C824.77,-496.26 926,-473.19 926,-397.38 926,-397.38 926,-397.38 926,-340.12 926,-280.67 986.05,-292.18 1015,-240.25 1029.42,-214.38 1034,-205.99 1034,-176.38 1034,-176.38 1034,-176.38 1034,-119.12 1034,-52.99 818.03,-24.88 712.15,-15.07"/>
<polygon fill="#63b8ff" stroke="#63b8ff" points="754.06,-499.66 744.41,-504.02 754.68,-506.63 754.06,-499.66"/>
</a>
</g>
</g>
<!-- Node15&#45;&gt;Node9 -->
<g id="edge30_Node000015_Node000009" class="edge">
<title>Node15&#45;&gt;Node9</title>
<g id="a_edge30_Node000015_Node000009"><a xlink:title=" ">
<path fill="none" stroke="#63b8ff" d="M633.92,-494.45C587.55,-484.65 521.65,-470.72 478.86,-461.68"/>
<polygon fill="#63b8ff" stroke="#63b8ff" points="632.98,-497.83 643.49,-496.47 634.42,-490.98 632.98,-497.83"/>
</a>
</g>
</g>
<!-- Node15&#45;&gt;Node11 -->
<g id="edge29_Node000015_Node000011" class="edge">
<title>Node15&#45;&gt;Node11</title>
<g id="a_edge29_Node000015_Node000011"><a xlink:title=" ">
<path fill="none" stroke="#63b8ff" d="M687.75,-485.72C687.32,-449.86 686.42,-376.35 686.11,-350.97"/>
<polygon fill="#63b8ff" stroke="#63b8ff" points="684.25,-485.6 687.87,-495.56 691.25,-485.52 684.25,-485.6"/>
</a>
</g>
</g>
<!-- Node16&#45;&gt;Node7 -->
<g id="edge37_Node000016_Node000007" class="edge">
<title>Node16&#45;&gt;Node7</title>
<g id="a_edge37_Node000016_Node000007"><a xlink:title=" ">
<path fill="none" stroke="#63b8ff" d="M1054.4,-265.1C1061.77,-243.59 1072,-208.03 1072,-176.38 1072,-176.38 1072,-176.38 1072,-119.12 1072,-88.8 1071.92,-73.9 1048,-55.25 996.96,-15.46 808.01,-10.07 711.91,-10"/>
<polygon fill="#63b8ff" stroke="#63b8ff" points="1051.17,-263.73 1051.09,-274.33 1057.76,-266.09 1051.17,-263.73"/>
</a>
</g>
</g>
<!-- Node16&#45;&gt;Node8 -->
<g id="edge36_Node000016_Node000008" class="edge">
<title>Node16&#45;&gt;Node8</title>
<g id="a_edge36_Node000016_Node000008"><a xlink:title=" ">
<path fill="none" stroke="#63b8ff" d="M1016.09,-271.27C994.29,-261.68 965.69,-249.09 946.63,-240.7"/>
<polygon fill="#63b8ff" stroke="#63b8ff" points="1014.53,-274.41 1025.09,-275.23 1017.35,-268 1014.53,-274.41"/>
</a>
</g>
</g>
</g>
</svg>

<g id="navigator" transform="translate(0 0)" fill="#404254">
  <rect fill="#f2f5e9" fill-opacity="0.5" stroke="#606060" stroke-width=".5" x="0" y="0" width="60" height="60"/>
  <use id="zoomplus" xlink:href="#zoomPlus" x="17" y="9" onmousedown="handleZoom(evt,'in')"/>
  <use id="zoomminus" xlink:href="#zoomMin" x="42" y="9" onmousedown="handleZoom(evt,'out')"/>
  <use id="reset" xlink:href="#resetDef" x="30" y="36" onmousedown="handleReset()"/>
   <use id="arrowup" xlink:href="#arrowUp" x="0" y="0" onmousedown="handlePan(0,-1)"/>
  <use id="arrowright" xlink:href="#arrowRight" x="0" y="0" onmousedown="handlePan(1,0)"/>
  <use id="arrowdown" xlink:href="#arrowDown" x="0" y="0" onmousedown="handlePan(0,1)"/>
  <use id="arrowleft" xlink:href="#arrowLeft" x="0" y="0" onmousedown="handlePan(-1,0)"/>
</g>
<svg viewBox="0 0 15 15" width="100%" height="30px" preserveAspectRatio="xMaxYMin meet">
 <g id="arrow_out" transform="scale(0.3 0.3)">
  <a xlink:href="_utility_8hpp__dep__incl_org.svg" target="_base">
   <rect id="button" ry="5" rx="5" y="6" x="6" height="38" width="38"
        fill="#f2f5e9" fill-opacity="0.5" stroke="#606060" stroke-width="1.0"/>
   <path id="arrow"
     d="M 11.500037,31.436501 C 11.940474,20.09759 22.043105,11.32322 32.158766,21.979434 L 37.068811,17.246167 C 37.068811,17.246167 37.088388,32 37.088388,32 L 22.160133,31.978069 C 22.160133,31.978069 26.997745,27.140456 26.997745,27.140456 C 18.528582,18.264221 13.291696,25.230495 11.500037,31.436501 z"
     style="fill:#404040;"/>
  </a>
 </g>
</svg>

<style type='text/css'>
<![CDATA[
[data-mouse-over-selected='false'] { opacity: 0.7; }
[data-mouse-over-selected='true']  { opacity: 1.0; }
]]>
</style>
<script type="application/ecmascript"><![CDATA[
document.addEventListener('DOMContentLoaded', (event) => {
  highlightEdges();
  highlightAdjacentNodes();
});
]]></script>
</svg>
