<?xml version="1.0" encoding="UTF-8" standalone="no"?>
<!DOCTYPE svg PUBLIC "-//W3C//DTD SVG 1.1//EN"
 "http://www.w3.org/Graphics/SVG/1.1/DTD/svg11.dtd">
<!-- Generated by graphviz version 11.0.0 (20240428.1522)
 -->
<!-- Title: mimic++/Utility.hpp Pages: 1 -->
<!--zoomable 414 -->

<svg id="main" version="1.1" xmlns="http://www.w3.org/2000/svg" xmlns:xlink="http://www.w3.org/1999/xlink" xml:space="preserve" onload="init(evt)">
<style type="text/css"><![CDATA[
.node, .edge {opacity: 0.7;}
.node.selected, .edge.selected {opacity: 1;}
.edge:hover path { stroke: red; }
.edge:hover polygon { stroke: red; fill: red; }
]]></style>

<defs>
  <circle id="rim" cx="0" cy="0" r="7"/>
  <circle id="rim2" cx="0" cy="0" r="3.5"/>
  <g id="zoomPlus">
    <use xlink:href="#rim" fill="#404040"><set attributeName="fill" to="#808080" begin="zoomplus.mouseover" end="zoomplus.mouseout"/></use>
    <path d="M-4,0h8M0,-4v8" fill="none" stroke="white" stroke-width="1.5" pointer-events="none"/>
  </g>
  <g id="zoomMin">
    <use xlink:href="#rim" fill="#404040"><set attributeName="fill" to="#808080" begin="zoomminus.mouseover" end="zoomminus.mouseout"/></use>
    <path d="M-4,0h8" fill="none" stroke="white" stroke-width="1.5" pointer-events="none"/>
  </g>
  <g id="arrowUp" transform="translate(30 24)">
    <use xlink:href="#rim"/>
    <path pointer-events="none" fill="none" stroke="white" stroke-width="1.5" d="M0,-3.0v7 M-2.5,-0.5L0,-3.0L2.5,-0.5"/>
  </g>
  <g id="arrowRight" transform="rotate(90) translate(36 -43)">
    <use xlink:href="#rim"/>
    <path pointer-events="none" fill="none" stroke="white" stroke-width="1.5" d="M0,-3.0v7 M-2.5,-0.5L0,-3.0L2.5,-0.5"/>
  </g>
  <g id="arrowDown" transform="rotate(180) translate(-30 -48)">
    <use xlink:href="#rim"/>
    <path pointer-events="none" fill="none" stroke="white" stroke-width="1.5" d="M0,-3.0v7 M-2.5,-0.5L0,-3.0L2.5,-0.5"/>
  </g>
  <g id="arrowLeft" transform="rotate(270) translate(-36 17)">
    <use xlink:href="#rim"/>
    <path pointer-events="none" fill="none" stroke="white" stroke-width="1.5" d="M0,-3.0v7 M-2.5,-0.5L0,-3.0L2.5,-0.5"/>
  </g>
  <g id="resetDef">
    <use xlink:href="#rim2" fill="#404040"><set attributeName="fill" to="#808080" begin="reset.mouseover" end="reset.mouseout"/></use>
  </g>
</defs>
<script type="application/ecmascript">
var viewWidth = 1038;
var viewHeight = 414;
var sectionId = 'dynsection-1';
</script>
<script type="application/ecmascript" xlink:href="../../svg.min.js"/>
<svg id="graph" class="graph">
<g id="viewport">
<title>mimic++/Utility.hpp</title>
<!-- Node1 -->
<g id="Node000001" class="node">
<title>Node1</title>
<g id="a_Node000001"><a xlink:title=" ">
<polygon fill="#999999" stroke="#666666" points="876.38,-406 776.38,-406 776.38,-386.75 876.38,-386.75 876.38,-406"/>
<text text-anchor="middle" x="826.38" y="-392.5" font-family="Helvetica,sans-Serif" font-size="10.00">mimic++/Utility.hpp</text>
</a>
</g>
</g>
<!-- Node2 -->
<g id="Node000002" class="node">
<title>Node2</title>
<g id="a_Node000002"><a xlink:href="../../dc/d44/_call_8hpp.html" target="_top" xlink:title=" ">
<polygon fill="white" stroke="#666666" points="793.25,-350.75 701.5,-350.75 701.5,-331.5 793.25,-331.5 793.25,-350.75"/>
<text text-anchor="middle" x="747.38" y="-337.25" font-family="Helvetica,sans-Serif" font-size="10.00">mimic++/Call.hpp</text>
</a>
</g>
</g>
<!-- Node1&#45;&gt;Node2 -->
<g id="edge1_Node000001_Node000002" class="edge">
<title>Node1&#45;&gt;Node2</title>
<g id="a_edge1_Node000001_Node000002"><a xlink:title=" ">
<path fill="none" stroke="#63b8ff" d="M803.61,-380.03C789.77,-370.7 772.55,-359.1 760.84,-351.2"/>
<polygon fill="#63b8ff" stroke="#63b8ff" points="801.47,-382.81 811.72,-385.5 805.38,-377 801.47,-382.81"/>
</a>
</g>
</g>
<!-- Node6 -->
<g id="Node000006" class="node">
<title>Node6</title>
<g id="a_Node000006"><a xlink:href="../../d0/db9/mimic_09_09_8hpp.html" target="_top" xlink:title=" ">
<polygon fill="white" stroke="#666666" points="816.12,-19.25 702.62,-19.25 702.62,0 816.12,0 816.12,-19.25"/>
<text text-anchor="middle" x="759.38" y="-5.75" font-family="Helvetica,sans-Serif" font-size="10.00">mimic++/mimic++.hpp</text>
</a>
</g>
</g>
<!-- Node1&#45;&gt;Node6 -->
<g id="edge27_Node000001_Node000006" class="edge">
<title>Node1&#45;&gt;Node6</title>
<g id="a_edge27_Node000001_Node000006"><a xlink:title=" ">
<path fill="none" stroke="#63b8ff" d="M888.11,-388.62C948.15,-378.22 1030.38,-352.07 1030.38,-286.88 1030.38,-286.88 1030.38,-286.88 1030.38,-119.12 1030.38,-71.74 885.77,-35.69 807.82,-19.7"/>
<polygon fill="#63b8ff" stroke="#63b8ff" points="887.61,-385.15 878.3,-390.2 888.73,-392.06 887.61,-385.15"/>
</a>
</g>
</g>
<!-- Node7 -->
<g id="Node000007" class="node">
<title>Node7</title>
<g id="a_Node000007"><a xlink:href="../../d8/de5/_expectation_policies_8hpp.html" target="_top" xlink:title=" ">
<polygon fill="white" stroke="#666666" points="847.38,-185 687.38,-185 687.38,-165.75 847.38,-165.75 847.38,-185"/>
<text text-anchor="middle" x="767.38" y="-171.5" font-family="Helvetica,sans-Serif" font-size="10.00">mimic++/ExpectationPolicies.hpp</text>
</a>
</g>
</g>
<!-- Node1&#45;&gt;Node7 -->
<g id="edge22_Node000001_Node000007" class="edge">
<title>Node1&#45;&gt;Node7</title>
<g id="a_edge22_Node000001_Node000007"><a xlink:title=" ">
<path fill="none" stroke="#63b8ff" d="M828.06,-375.14C830.03,-341.54 830.49,-272.8 807.38,-221 800.93,-206.56 788.04,-193.53 778.63,-185.34"/>
<polygon fill="#63b8ff" stroke="#63b8ff" points="824.57,-374.81 827.35,-385.03 831.56,-375.31 824.57,-374.81"/>
</a>
</g>
</g>
<!-- Node9 -->
<g id="Node000009" class="node">
<title>Node9</title>
<g id="a_Node000009"><a xlink:href="../../d8/de4/_sequence_8hpp.html" target="_top" xlink:title=" ">
<polygon fill="white" stroke="#666666" points="118.75,-240.25 0,-240.25 0,-221 118.75,-221 118.75,-240.25"/>
<text text-anchor="middle" x="59.38" y="-226.75" font-family="Helvetica,sans-Serif" font-size="10.00">mimic++/Sequence.hpp</text>
</a>
</g>
</g>
<!-- Node1&#45;&gt;Node9 -->
<g id="edge26_Node000001_Node000009" class="edge">
<title>Node1&#45;&gt;Node9</title>
<g id="a_edge26_Node000001_Node000009"><a xlink:title=" ">
<path fill="none" stroke="#63b8ff" d="M769.86,-384.07C679.46,-365.9 496.79,-328.86 342.38,-295.5 255.23,-276.68 153.31,-253.35 98.7,-240.74"/>
<polygon fill="#63b8ff" stroke="#63b8ff" points="768.96,-387.46 779.46,-385.99 770.34,-380.59 768.96,-387.46"/>
</a>
</g>
</g>
<!-- Node13 -->
<g id="Node000013" class="node">
<title>Node13</title>
<g id="a_Node000013"><a xlink:href="../../dd/d50/_matcher_8hpp.html" target="_top" xlink:title=" ">
<polygon fill="white" stroke="#666666" points="1002.62,-240.25 892.12,-240.25 892.12,-221 1002.62,-221 1002.62,-240.25"/>
<text text-anchor="middle" x="947.38" y="-226.75" font-family="Helvetica,sans-Serif" font-size="10.00">mimic++/Matcher.hpp</text>
</a>
</g>
</g>
<!-- Node1&#45;&gt;Node13 -->
<g id="edge23_Node000001_Node000013" class="edge">
<title>Node1&#45;&gt;Node13</title>
<g id="a_edge23_Node000001_Node000013"><a xlink:title=" ">
<path fill="none" stroke="#63b8ff" d="M839.57,-377.52C865.37,-342.61 921.67,-266.41 940.84,-240.47"/>
<polygon fill="#63b8ff" stroke="#63b8ff" points="836.91,-375.23 833.78,-385.35 842.54,-379.39 836.91,-375.23"/>
</a>
</g>
</g>
<!-- Node3 -->
<g id="Node000003" class="node">
<title>Node3</title>
<g id="a_Node000003"><a xlink:href="../../d5/d8a/_expectation_8hpp.html" target="_top" xlink:title=" ">
<polygon fill="white" stroke="#666666" points="798.12,-240.25 672.62,-240.25 672.62,-221 798.12,-221 798.12,-240.25"/>
<text text-anchor="middle" x="735.38" y="-226.75" font-family="Helvetica,sans-Serif" font-size="10.00">mimic++/Expectation.hpp</text>
</a>
</g>
</g>
<!-- Node2&#45;&gt;Node3 -->
<g id="edge2_Node000002_Node000003" class="edge">
<title>Node2&#45;&gt;Node3</title>
<g id="a_edge2_Node000002_Node000003"><a xlink:title=" ">
<path fill="none" stroke="#63b8ff" d="M745.16,-320.1C742.54,-296.4 738.29,-257.97 736.37,-240.63"/>
<polygon fill="#63b8ff" stroke="#63b8ff" points="741.65,-320.19 746.23,-329.74 748.61,-319.42 741.65,-320.19"/>
</a>
</g>
</g>
<!-- Node2&#45;&gt;Node6 -->
<g id="edge21_Node000002_Node000006" class="edge">
<title>Node2&#45;&gt;Node6</title>
<g id="a_edge21_Node000002_Node000006"><a xlink:title=" ">
<path fill="none" stroke="#63b8ff" d="M764.74,-323.22C790.64,-296.65 838.28,-242.24 856.38,-185 868.75,-145.87 875.78,-113.83 834.38,-55.25 822.39,-38.3 801.76,-26.71 785.16,-19.6"/>
<polygon fill="#63b8ff" stroke="#63b8ff" points="762.51,-320.5 757.93,-330.05 767.47,-325.44 762.51,-320.5"/>
</a>
</g>
</g>
<!-- Node8 -->
<g id="Node000008" class="node">
<title>Node8</title>
<g id="a_Node000008"><a xlink:href="../../da/dd9/_reporter_8hpp.html" target="_top" xlink:title=" ">
<polygon fill="white" stroke="#666666" points="463.38,-295.5 351.38,-295.5 351.38,-276.25 463.38,-276.25 463.38,-295.5"/>
<text text-anchor="middle" x="407.38" y="-282" font-family="Helvetica,sans-Serif" font-size="10.00">mimic++/Reporter.hpp</text>
</a>
</g>
</g>
<!-- Node2&#45;&gt;Node8 -->
<g id="edge13_Node000002_Node000008" class="edge">
<title>Node2&#45;&gt;Node8</title>
<g id="a_edge13_Node000002_Node000008"><a xlink:title=" ">
<path fill="none" stroke="#63b8ff" d="M689.84,-331.11C626.77,-321.24 526.24,-305.49 463.67,-295.69"/>
<polygon fill="#63b8ff" stroke="#63b8ff" points="689.25,-334.56 699.67,-332.65 690.33,-327.65 689.25,-334.56"/>
</a>
</g>
</g>
<!-- Node4 -->
<g id="Node000004" class="node">
<title>Node4</title>
<g id="a_Node000004"><a xlink:href="../../d2/d4f/_expectation_builder_8hpp.html" target="_top" xlink:title=" ">
<polygon fill="white" stroke="#666666" points="771.12,-129.75 615.62,-129.75 615.62,-110.5 771.12,-110.5 771.12,-129.75"/>
<text text-anchor="middle" x="693.38" y="-116.25" font-family="Helvetica,sans-Serif" font-size="10.00">mimic++/ExpectationBuilder.hpp</text>
</a>
</g>
</g>
<!-- Node3&#45;&gt;Node4 -->
<g id="edge3_Node000003_Node000004" class="edge">
<title>Node3&#45;&gt;Node4</title>
<g id="a_edge3_Node000003_Node000004"><a xlink:title=" ">
<path fill="none" stroke="#63b8ff" d="M706.43,-214.51C695.54,-207.18 684.36,-197.28 678.38,-185 669.5,-166.77 680.22,-143.01 687.57,-130.22"/>
<polygon fill="#63b8ff" stroke="#63b8ff" points="704.54,-217.46 714.89,-219.71 708.21,-211.49 704.54,-217.46"/>
</a>
</g>
</g>
<!-- Node5 -->
<g id="Node000005" class="node">
<title>Node5</title>
<g id="a_Node000005"><a xlink:href="../../d5/dc5/_mock_8hpp.html" target="_top" xlink:title=" ">
<polygon fill="white" stroke="#666666" points="809,-74.5 709.75,-74.5 709.75,-55.25 809,-55.25 809,-74.5"/>
<text text-anchor="middle" x="759.38" y="-61" font-family="Helvetica,sans-Serif" font-size="10.00">mimic++/Mock.hpp</text>
</a>
</g>
</g>
<!-- Node3&#45;&gt;Node5 -->
<g id="edge11_Node000003_Node000005" class="edge">
<title>Node3&#45;&gt;Node5</title>
<g id="a_edge11_Node000003_Node000005"><a xlink:title=" ">
<path fill="none" stroke="#63b8ff" d="M699.98,-216.25C651.31,-195.83 573.3,-154.6 606.38,-110.5 618.91,-93.79 669.89,-81.27 709.6,-73.8"/>
<polygon fill="#63b8ff" stroke="#63b8ff" points="698.47,-219.41 709.06,-219.94 701.11,-212.93 698.47,-219.41"/>
</a>
</g>
</g>
<!-- Node3&#45;&gt;Node6 -->
<g id="edge12_Node000003_Node000006" class="edge">
<title>Node3&#45;&gt;Node6</title>
<g id="a_edge12_Node000003_Node000006"><a xlink:title=" ">
<path fill="none" stroke="#63b8ff" d="M667.15,-217.34C646.92,-210.73 626.24,-200.58 611.38,-185 587.93,-160.43 577.7,-140.09 594.38,-110.5 622.57,-60.47 687.04,-32.65 726.53,-19.73"/>
<polygon fill="#63b8ff" stroke="#63b8ff" points="665.94,-220.63 676.52,-220.14 667.94,-213.93 665.94,-220.63"/>
</a>
</g>
</g>
<!-- Node3&#45;&gt;Node7 -->
<g id="edge7_Node000003_Node000007" class="edge">
<title>Node3&#45;&gt;Node7</title>
<g id="a_edge7_Node000003_Node000007"><a xlink:title=" ">
<path fill="none" stroke="#63b8ff" d="M746.5,-211.12C751.74,-202.39 757.75,-192.39 761.98,-185.36"/>
<polygon fill="#63b8ff" stroke="#63b8ff" points="743.59,-209.16 741.44,-219.53 749.59,-212.77 743.59,-209.16"/>
</a>
</g>
</g>
<!-- Node4&#45;&gt;Node5 -->
<g id="edge4_Node000004_Node000005" class="edge">
<title>Node4&#45;&gt;Node5</title>
<g id="a_edge4_Node000004_Node000005"><a xlink:title=" ">
<path fill="none" stroke="#63b8ff" d="M713.47,-102.91C724.93,-93.67 738.86,-82.43 748.34,-74.77"/>
<polygon fill="#63b8ff" stroke="#63b8ff" points="711.33,-100.14 705.75,-109.14 715.73,-105.59 711.33,-100.14"/>
</a>
</g>
</g>
<!-- Node4&#45;&gt;Node6 -->
<g id="edge6_Node000004_Node000006" class="edge">
<title>Node4&#45;&gt;Node6</title>
<g id="a_edge6_Node000004_Node000006"><a xlink:title=" ">
<path fill="none" stroke="#63b8ff" d="M691.61,-98.99C691.37,-85.75 692.86,-68.48 700.38,-55.25 709.44,-39.28 726.79,-27.23 740.34,-19.7"/>
<polygon fill="#63b8ff" stroke="#63b8ff" points="688.1,-98.9 692.15,-108.69 695.09,-98.51 688.1,-98.9"/>
</a>
</g>
</g>
<!-- Node5&#45;&gt;Node6 -->
<g id="edge5_Node000005_Node000006" class="edge">
<title>Node5&#45;&gt;Node6</title>
<g id="a_edge5_Node000005_Node000006"><a xlink:title=" ">
<path fill="none" stroke="#63b8ff" d="M759.38,-43.63C759.38,-35.34 759.38,-26.17 759.38,-19.61"/>
<polygon fill="#63b8ff" stroke="#63b8ff" points="755.88,-43.57 759.38,-53.57 762.88,-43.57 755.88,-43.57"/>
</a>
</g>
</g>
<!-- Node7&#45;&gt;Node4 -->
<g id="edge8_Node000007_Node000004" class="edge">
<title>Node7&#45;&gt;Node4</title>
<g id="a_edge8_Node000007_Node000004"><a xlink:title=" ">
<path fill="none" stroke="#63b8ff" d="M745.62,-158.72C732.62,-149.37 716.59,-137.83 705.74,-130.02"/>
<polygon fill="#63b8ff" stroke="#63b8ff" points="743.43,-161.46 753.59,-164.46 747.52,-155.78 743.43,-161.46"/>
</a>
</g>
</g>
<!-- Node7&#45;&gt;Node5 -->
<g id="edge9_Node000007_Node000005" class="edge">
<title>Node7&#45;&gt;Node5</title>
<g id="a_edge9_Node000007_Node000005"><a xlink:title=" ">
<path fill="none" stroke="#63b8ff" d="M775.73,-154.59C780,-141.95 783.67,-125.23 780.38,-110.5 777.42,-97.3 770.12,-83.39 764.95,-74.68"/>
<polygon fill="#63b8ff" stroke="#63b8ff" points="772.5,-153.25 772.2,-163.84 779.04,-155.74 772.5,-153.25"/>
</a>
</g>
</g>
<!-- Node7&#45;&gt;Node6 -->
<g id="edge10_Node000007_Node000006" class="edge">
<title>Node7&#45;&gt;Node6</title>
<g id="a_edge10_Node000007_Node000006"><a xlink:title=" ">
<path fill="none" stroke="#63b8ff" d="M784.17,-157.36C805.09,-133.99 836.07,-90.81 818.38,-55.25 810.31,-39.04 793.23,-27.15 779.51,-19.73"/>
<polygon fill="#63b8ff" stroke="#63b8ff" points="781.81,-154.75 777.54,-164.45 786.93,-159.53 781.81,-154.75"/>
</a>
</g>
</g>
<!-- Node8&#45;&gt;Node3 -->
<g id="edge14_Node000008_Node000003" class="edge">
<title>Node8&#45;&gt;Node3</title>
<g id="a_edge14_Node000008_Node000003"><a xlink:title=" ">
<path fill="none" stroke="#63b8ff" d="M474.71,-273.94C535.09,-264.14 622.67,-249.92 679.32,-240.73"/>
<polygon fill="#63b8ff" stroke="#63b8ff" points="474.19,-270.48 464.88,-275.54 475.31,-277.39 474.19,-270.48"/>
</a>
</g>
</g>
<!-- Node8&#45;&gt;Node6 -->
<g id="edge20_Node000008_Node000006" class="edge">
<title>Node8&#45;&gt;Node6</title>
<g id="a_edge20_Node000008_Node000006"><a xlink:title=" ">
<path fill="none" stroke="#63b8ff" d="M339.68,-276.06C272.7,-266.76 178.31,-251.87 165.38,-240.25 143.34,-220.45 146.38,-205.99 146.38,-176.38 146.38,-176.38 146.38,-176.38 146.38,-119.12 146.38,-62.99 550.08,-26.51 702.26,-14.75"/>
<polygon fill="#63b8ff" stroke="#63b8ff" points="339.13,-279.52 349.51,-277.41 340.08,-272.59 339.13,-279.52"/>
</a>
</g>
</g>
<!-- Node8&#45;&gt;Node9 -->
<g id="edge15_Node000008_Node000009" class="edge">
<title>Node8&#45;&gt;Node9</title>
<g id="a_edge15_Node000008_Node000009"><a xlink:title=" ">
<path fill="none" stroke="#63b8ff" d="M339.87,-274.55C275.71,-264.73 180.15,-250.11 118.8,-240.72"/>
<polygon fill="#63b8ff" stroke="#63b8ff" points="339.17,-277.98 349.58,-276.03 340.22,-271.06 339.17,-277.98"/>
</a>
</g>
</g>
<!-- Node10 -->
<g id="Node000010" class="node">
<title>Node10</title>
<g id="a_Node000010"><a xlink:href="../../d9/d42/_boost_test_8hpp.html" target="_top" xlink:title=" ">
<polygon fill="white" stroke="#666666" points="654.75,-240.25 494,-240.25 494,-221 654.75,-221 654.75,-240.25"/>
<text text-anchor="middle" x="574.38" y="-226.75" font-family="Helvetica,sans-Serif" font-size="10.00">mimic++/adapters/BoostTest.hpp</text>
</a>
</g>
</g>
<!-- Node8&#45;&gt;Node10 -->
<g id="edge17_Node000008_Node000010" class="edge">
<title>Node8&#45;&gt;Node10</title>
<g id="a_edge17_Node000008_Node000010"><a xlink:title=" ">
<path fill="none" stroke="#63b8ff" d="M446.38,-272.44C476.86,-262.72 518.51,-249.44 545.91,-240.7"/>
<polygon fill="#63b8ff" stroke="#63b8ff" points="445.61,-269.01 437.15,-275.38 447.74,-275.68 445.61,-269.01"/>
</a>
</g>
</g>
<!-- Node11 -->
<g id="Node000011" class="node">
<title>Node11</title>
<g id="a_Node000011"><a xlink:href="../../d3/d04/_catch2_8hpp.html" target="_top" xlink:title=" ">
<polygon fill="white" stroke="#666666" points="320.62,-240.25 174.12,-240.25 174.12,-221 320.62,-221 320.62,-240.25"/>
<text text-anchor="middle" x="247.38" y="-226.75" font-family="Helvetica,sans-Serif" font-size="10.00">mimic++/adapters/Catch2.hpp</text>
</a>
</g>
</g>
<!-- Node8&#45;&gt;Node11 -->
<g id="edge18_Node000008_Node000011" class="edge">
<title>Node8&#45;&gt;Node11</title>
<g id="a_edge18_Node000008_Node000011"><a xlink:title=" ">
<path fill="none" stroke="#63b8ff" d="M369.62,-272.31C340.45,-262.6 300.79,-249.4 274.65,-240.7"/>
<polygon fill="#63b8ff" stroke="#63b8ff" points="368.2,-275.53 378.8,-275.36 370.41,-268.89 368.2,-275.53"/>
</a>
</g>
</g>
<!-- Node12 -->
<g id="Node000012" class="node">
<title>Node12</title>
<g id="a_Node000012"><a xlink:href="../../d5/db1/gtest_8hpp.html" target="_top" xlink:title=" ">
<polygon fill="white" stroke="#666666" points="476.12,-240.25 338.62,-240.25 338.62,-221 476.12,-221 476.12,-240.25"/>
<text text-anchor="middle" x="407.38" y="-226.75" font-family="Helvetica,sans-Serif" font-size="10.00">mimic++/adapters/gtest.hpp</text>
</a>
</g>
</g>
<!-- Node8&#45;&gt;Node12 -->
<g id="edge19_Node000008_Node000012" class="edge">
<title>Node8&#45;&gt;Node12</title>
<g id="a_edge19_Node000008_Node000012"><a xlink:title=" ">
<path fill="none" stroke="#63b8ff" d="M407.38,-264.63C407.38,-256.34 407.38,-247.17 407.38,-240.61"/>
<polygon fill="#63b8ff" stroke="#63b8ff" points="403.88,-264.57 407.38,-274.57 410.88,-264.57 403.88,-264.57"/>
</a>
</g>
</g>
<!-- Node9&#45;&gt;Node6 -->
<g id="edge16_Node000009_Node000006" class="edge">
<title>Node9&#45;&gt;Node6</title>
<g id="a_edge16_Node000009_Node000006"><a xlink:title=" ">
<path fill="none" stroke="#63b8ff" d="M61.16,-209.46C65.67,-171.98 81.1,-92.06 132.38,-55.25 178.03,-22.47 556.2,-13.55 702.19,-11.32"/>
<polygon fill="#63b8ff" stroke="#63b8ff" points="57.69,-208.99 60.14,-219.3 64.65,-209.72 57.69,-208.99"/>
</a>
</g>
</g>
<!-- Node13&#45;&gt;Node6 -->
<g id="edge25_Node000013_Node000006" class="edge">
<title>Node13&#45;&gt;Node6</title>
<g id="a_edge25_Node000013_Node000006"><a xlink:title=" ">
<path fill="none" stroke="#63b8ff" d="M946.29,-209.25C943.28,-173.28 931.97,-98.25 889.38,-55.25 869.98,-35.67 841.62,-24.67 816.34,-18.5"/>
<polygon fill="#63b8ff" stroke="#63b8ff" points="942.79,-209.36 946.96,-219.1 949.77,-208.88 942.79,-209.36"/>
</a>
</g>
</g>
<!-- Node13&#45;&gt;Node7 -->
<g id="edge24_Node000013_Node000007" class="edge">
<title>Node13&#45;&gt;Node7</title>
<g id="a_edge24_Node000013_Node000007"><a xlink:title=" ">
<path fill="none" stroke="#63b8ff" d="M906.19,-217.44C873.27,-207.7 827.85,-194.27 798.06,-185.45"/>
<polygon fill="#63b8ff" stroke="#63b8ff" points="904.81,-220.68 915.39,-220.16 906.79,-213.97 904.81,-220.68"/>
</a>
</g>
</g>
</g>
</svg>

<g id="navigator" transform="translate(0 0)" fill="#404254">
  <rect fill="#f2f5e9" fill-opacity="0.5" stroke="#606060" stroke-width=".5" x="0" y="0" width="60" height="60"/>
  <use id="zoomplus" xlink:href="#zoomPlus" x="17" y="9" onmousedown="handleZoom(evt,'in')"/>
  <use id="zoomminus" xlink:href="#zoomMin" x="42" y="9" onmousedown="handleZoom(evt,'out')"/>
  <use id="reset" xlink:href="#resetDef" x="30" y="36" onmousedown="handleReset()"/>
   <use id="arrowup" xlink:href="#arrowUp" x="0" y="0" onmousedown="handlePan(0,-1)"/>
  <use id="arrowright" xlink:href="#arrowRight" x="0" y="0" onmousedown="handlePan(1,0)"/>
  <use id="arrowdown" xlink:href="#arrowDown" x="0" y="0" onmousedown="handlePan(0,1)"/>
  <use id="arrowleft" xlink:href="#arrowLeft" x="0" y="0" onmousedown="handlePan(-1,0)"/>
</g>
<svg viewBox="0 0 15 15" width="100%" height="30px" preserveAspectRatio="xMaxYMin meet">
 <g id="arrow_out" transform="scale(0.3 0.3)">
  <a xlink:href="_utility_8hpp__dep__incl_org.svg" target="_base">
   <rect id="button" ry="5" rx="5" y="6" x="6" height="38" width="38"
        fill="#f2f5e9" fill-opacity="0.5" stroke="#606060" stroke-width="1.0"/>
   <path id="arrow"
     d="M 11.500037,31.436501 C 11.940474,20.09759 22.043105,11.32322 32.158766,21.979434 L 37.068811,17.246167 C 37.068811,17.246167 37.088388,32 37.088388,32 L 22.160133,31.978069 C 22.160133,31.978069 26.997745,27.140456 26.997745,27.140456 C 18.528582,18.264221 13.291696,25.230495 11.500037,31.436501 z"
     style="fill:#404040;"/>
  </a>
 </g>
</svg>

<style type='text/css'>
<![CDATA[
[data-mouse-over-selected='false'] { opacity: 0.7; }
[data-mouse-over-selected='true']  { opacity: 1.0; }
]]>
</style>
<script type="application/ecmascript"><![CDATA[
document.addEventListener('DOMContentLoaded', (event) => {
  highlightEdges();
  highlightAdjacentNodes();
});
]]></script>
</svg>
