<?xml version="1.0" encoding="UTF-8" standalone="no"?>
<!DOCTYPE svg PUBLIC "-//W3C//DTD SVG 1.1//EN"
 "http://www.w3.org/Graphics/SVG/1.1/DTD/svg11.dtd">
<!-- Generated by graphviz version 12.1.2 (20240928.0832)
 -->
<!-- Title: mimic++/Utility.hpp Pages: 1 -->
<svg width="1233pt" height="690pt"
 viewBox="0.00 0.00 1233.38 690.25" xmlns="http://www.w3.org/2000/svg" xmlns:xlink="http://www.w3.org/1999/xlink">
<g id="graph0" class="graph" transform="scale(1 1) rotate(0) translate(4 686.25)">
<title>mimic++/Utility.hpp</title>
<!-- Node1 -->
<g id="Node000001" class="node">
<title>Node1</title>
<g id="a_Node000001"><a xlink:title=" ">
<polygon fill="#999999" stroke="#666666" points="949,-682.25 849,-682.25 849,-663 949,-663 949,-682.25"/>
<text text-anchor="middle" x="899" y="-668.75" font-family="Helvetica,sans-Serif" font-size="10.00">mimic++/Utility.hpp</text>
</a>
</g>
</g>
<!-- Node2 -->
<g id="Node000002" class="node">
<title>Node2</title>
<g id="a_Node000002"><a xlink:href="../../dc/d44/_call_8hpp.html" target="_top" xlink:title=" ">
<polygon fill="white" stroke="#666666" points="321.88,-571.75 230.12,-571.75 230.12,-552.5 321.88,-552.5 321.88,-571.75"/>
<text text-anchor="middle" x="276" y="-558.25" font-family="Helvetica,sans-Serif" font-size="10.00">mimic++/Call.hpp</text>
</a>
</g>
</g>
<!-- Node1&#45;&gt;Node2 -->
<g id="edge1_Node000001_Node000002" class="edge">
<title>Node1&#45;&gt;Node2</title>
<g id="a_edge1_Node000001_Node000002"><a xlink:title=" ">
<path fill="none" stroke="#63b8ff" d="M837.32,-660.88C712.58,-639.16 432.79,-590.43 322.22,-571.18"/>
<polygon fill="#63b8ff" stroke="#63b8ff" points="836.6,-664.31 847.05,-662.58 837.8,-657.41 836.6,-664.31"/>
</a>
</g>
</g>
<!-- Node5 -->
<g id="Node000005" class="node">
<title>Node5</title>
<g id="a_Node000005"><a xlink:href="../../d5/dc5/_mock_8hpp.html" target="_top" xlink:title=" ">
<polygon fill="white" stroke="#666666" points="677.62,-129.75 578.38,-129.75 578.38,-110.5 677.62,-110.5 677.62,-129.75"/>
<text text-anchor="middle" x="628" y="-116.25" font-family="Helvetica,sans-Serif" font-size="10.00">mimic++/Mock.hpp</text>
</a>
</g>
</g>
<!-- Node1&#45;&gt;Node5 -->
<g id="edge40_Node000001_Node000005" class="edge">
<title>Node1&#45;&gt;Node5</title>
<g id="a_edge40_Node000001_Node000005"><a xlink:title=" ">
<path fill="none" stroke="#63b8ff" d="M837.53,-669.98C646.52,-664.05 76,-639.92 76,-563.12 76,-563.12 76,-563.12 76,-450.62 76,-217.92 442.16,-145.7 578.04,-126.91"/>
<polygon fill="#63b8ff" stroke="#63b8ff" points="837.14,-673.47 847.24,-670.27 837.35,-666.47 837.14,-673.47"/>
</a>
</g>
</g>
<!-- Node7 -->
<g id="Node000007" class="node">
<title>Node7</title>
<g id="a_Node000007"><a xlink:href="../../d0/db9/mimic_09_09_8hpp.html" target="_top" xlink:title=" ">
<polygon fill="white" stroke="#666666" points="587.75,-19.25 474.25,-19.25 474.25,0 587.75,0 587.75,-19.25"/>
<text text-anchor="middle" x="531" y="-5.75" font-family="Helvetica,sans-Serif" font-size="10.00">mimic++/mimic++.hpp</text>
</a>
</g>
</g>
<!-- Node1&#45;&gt;Node7 -->
<g id="edge53_Node000001_Node000007" class="edge">
<title>Node1&#45;&gt;Node7</title>
<g id="a_edge53_Node000001_Node000007"><a xlink:title=" ">
<path fill="none" stroke="#63b8ff" d="M837.55,-670.48C684.01,-667.2 286.77,-656.09 158,-627 84.12,-610.31 0,-638.87 0,-563.12 0,-563.12 0,-563.12 0,-119.12 0,-79.56 26.33,-72.37 62,-55.25 133.43,-20.96 365.38,-13.01 473.96,-11.17"/>
<polygon fill="#63b8ff" stroke="#63b8ff" points="837.02,-673.97 847.1,-670.68 837.17,-666.97 837.02,-673.97"/>
</a>
</g>
</g>
<!-- Node9 -->
<g id="Node000009" class="node">
<title>Node9</title>
<g id="a_Node000009"><a xlink:href="../../d8/de5/_expectation_policies_8hpp.html" target="_top" xlink:title=" ">
<polygon fill="white" stroke="#666666" points="953,-240.25 793,-240.25 793,-221 953,-221 953,-240.25"/>
<text text-anchor="middle" x="873" y="-226.75" font-family="Helvetica,sans-Serif" font-size="10.00">mimic++/ExpectationPolicies.hpp</text>
</a>
</g>
</g>
<!-- Node1&#45;&gt;Node9 -->
<g id="edge36_Node000001_Node000009" class="edge">
<title>Node1&#45;&gt;Node9</title>
<g id="a_edge36_Node000001_Node000009"><a xlink:title=" ">
<path fill="none" stroke="#63b8ff" d="M909.55,-652.51C913.53,-644.75 917.85,-635.61 921,-627 957.12,-528.25 978,-502.53 978,-397.38 978,-397.38 978,-397.38 978,-340.12 978,-291.37 922.57,-256.18 892.26,-240.59"/>
<polygon fill="#63b8ff" stroke="#63b8ff" points="906.47,-650.84 904.85,-661.31 912.65,-654.14 906.47,-650.84"/>
</a>
</g>
</g>
<!-- Node11 -->
<g id="Node000011" class="node">
<title>Node11</title>
<g id="a_Node000011"><a xlink:href="../../d8/de4/_sequence_8hpp.html" target="_top" xlink:title=" ">
<polygon fill="white" stroke="#666666" points="912.38,-406 793.62,-406 793.62,-386.75 912.38,-386.75 912.38,-406"/>
<text text-anchor="middle" x="853" y="-392.5" font-family="Helvetica,sans-Serif" font-size="10.00">mimic++/Sequence.hpp</text>
</a>
</g>
</g>
<!-- Node1&#45;&gt;Node11 -->
<g id="edge48_Node000001_Node000011" class="edge">
<title>Node1&#45;&gt;Node11</title>
<g id="a_edge48_Node000001_Node000011"><a xlink:title=" ">
<path fill="none" stroke="#63b8ff" d="M886.9,-652.95C874.49,-631.98 857,-596.49 857,-563.12 857,-563.12 857,-563.12 857,-505.88 857,-468.93 854.66,-424.96 853.56,-406.37"/>
<polygon fill="#63b8ff" stroke="#63b8ff" points="883.77,-654.56 892.01,-661.22 889.73,-650.88 883.77,-654.56"/>
</a>
</g>
</g>
<!-- Node12 -->
<g id="Node000012" class="node">
<title>Node12</title>
<g id="a_Node000012"><a xlink:href="../../d6/d17/_control_policy_8hpp.html" target="_top" xlink:title=" ">
<polygon fill="white" stroke="#666666" points="716.12,-350.75 583.88,-350.75 583.88,-331.5 716.12,-331.5 716.12,-350.75"/>
<text text-anchor="middle" x="650" y="-337.25" font-family="Helvetica,sans-Serif" font-size="10.00">mimic++/ControlPolicy.hpp</text>
</a>
</g>
</g>
<!-- Node1&#45;&gt;Node12 -->
<g id="edge35_Node000001_Node000012" class="edge">
<title>Node1&#45;&gt;Node12</title>
<g id="a_edge35_Node000001_Node000012"><a xlink:title=" ">
<path fill="none" stroke="#63b8ff" d="M902.18,-651.39C911.66,-589.68 938.04,-406.83 921,-386.75 895.27,-356.44 788.08,-346.68 716.47,-343.56"/>
<polygon fill="#63b8ff" stroke="#63b8ff" points="898.75,-650.7 900.67,-661.12 905.66,-651.78 898.75,-650.7"/>
</a>
</g>
</g>
<!-- Node17 -->
<g id="Node000017" class="node">
<title>Node17</title>
<g id="a_Node000017"><a xlink:href="../../dd/d50/_matcher_8hpp.html" target="_top" xlink:title=" ">
<polygon fill="white" stroke="#666666" points="1192.25,-516.5 1081.75,-516.5 1081.75,-497.25 1192.25,-497.25 1192.25,-516.5"/>
<text text-anchor="middle" x="1137" y="-503" font-family="Helvetica,sans-Serif" font-size="10.00">mimic++/Matcher.hpp</text>
</a>
</g>
</g>
<!-- Node1&#45;&gt;Node17 -->
<g id="edge37_Node000001_Node000017" class="edge">
<title>Node1&#45;&gt;Node17</title>
<g id="a_edge37_Node000001_Node000017"><a xlink:title=" ">
<path fill="none" stroke="#63b8ff" d="M930.11,-657.98C967.32,-640.84 1030.54,-609.12 1078,-571.75 1099.35,-554.94 1119.84,-530.19 1130.13,-516.98"/>
<polygon fill="#63b8ff" stroke="#63b8ff" points="928.92,-654.67 921.26,-661.99 931.82,-661.04 928.92,-654.67"/>
</a>
</g>
</g>
<!-- Node18 -->
<g id="Node000018" class="node">
<title>Node18</title>
<g id="a_Node000018"><a xlink:href="../../da/dab/_printer_8hpp.html" target="_top" xlink:title=" ">
<polygon fill="white" stroke="#666666" points="1068.88,-571.75 965.12,-571.75 965.12,-552.5 1068.88,-552.5 1068.88,-571.75"/>
<text text-anchor="middle" x="1017" y="-558.25" font-family="Helvetica,sans-Serif" font-size="10.00">mimic++/Printer.hpp</text>
</a>
</g>
</g>
<!-- Node1&#45;&gt;Node18 -->
<g id="edge41_Node000001_Node000018" class="edge">
<title>Node1&#45;&gt;Node18</title>
<g id="a_edge41_Node000001_Node000018"><a xlink:title=" ">
<path fill="none" stroke="#63b8ff" d="M918.57,-655.31C928.42,-646.98 940.47,-636.6 951,-627 971.98,-607.88 995.69,-584.47 1008.19,-571.98"/>
<polygon fill="#63b8ff" stroke="#63b8ff" points="916.48,-652.49 911.08,-661.61 920.98,-657.85 916.48,-652.49"/>
</a>
</g>
</g>
<!-- Node19 -->
<g id="Node000019" class="node">
<title>Node19</title>
<g id="a_Node000019"><a xlink:href="../../d9/dc5/_string_8hpp.html" target="_top" xlink:title=" ">
<polygon fill="white" stroke="#666666" points="1225.38,-627 1124.62,-627 1124.62,-607.75 1225.38,-607.75 1225.38,-627"/>
<text text-anchor="middle" x="1175" y="-613.5" font-family="Helvetica,sans-Serif" font-size="10.00">mimic++/String.hpp</text>
</a>
</g>
</g>
<!-- Node1&#45;&gt;Node19 -->
<g id="edge49_Node000001_Node000019" class="edge">
<title>Node1&#45;&gt;Node19</title>
<g id="a_edge49_Node000001_Node000019"><a xlink:title=" ">
<path fill="none" stroke="#63b8ff" d="M957.27,-660.38C1008.1,-650.58 1080.9,-636.53 1128.06,-627.43"/>
<polygon fill="#63b8ff" stroke="#63b8ff" points="956.77,-656.91 947.62,-662.24 958.1,-663.79 956.77,-656.91"/>
</a>
</g>
</g>
<!-- Node3 -->
<g id="Node000003" class="node">
<title>Node3</title>
<g id="a_Node000003"><a xlink:href="../../d5/d8a/_expectation_8hpp.html" target="_top" xlink:title=" ">
<polygon fill="white" stroke="#666666" points="685.75,-295.5 560.25,-295.5 560.25,-276.25 685.75,-276.25 685.75,-295.5"/>
<text text-anchor="middle" x="623" y="-282" font-family="Helvetica,sans-Serif" font-size="10.00">mimic++/Expectation.hpp</text>
</a>
</g>
</g>
<!-- Node2&#45;&gt;Node3 -->
<g id="edge2_Node000002_Node000003" class="edge">
<title>Node2&#45;&gt;Node3</title>
<g id="a_edge2_Node000002_Node000003"><a xlink:title=" ">
<path fill="none" stroke="#63b8ff" d="M247.13,-546.4C234.84,-538.89 221.25,-528.75 212,-516.5 193.91,-492.54 190,-482.65 190,-452.62 190,-452.62 190,-452.62 190,-395.38 190,-320.01 439.95,-296.53 560.04,-289.6"/>
<polygon fill="#63b8ff" stroke="#63b8ff" points="245.29,-549.38 255.7,-551.32 248.77,-543.31 245.29,-549.38"/>
</a>
</g>
</g>
<!-- Node2&#45;&gt;Node7 -->
<g id="edge34_Node000002_Node000007" class="edge">
<title>Node2&#45;&gt;Node7</title>
<g id="a_edge34_Node000002_Node000007"><a xlink:title=" ">
<path fill="none" stroke="#63b8ff" d="M218.46,-559.19C148.03,-553.38 38,-531.67 38,-452.62 38,-452.62 38,-452.62 38,-119.12 38,-76.01 71.5,-72.53 111,-55.25 174.74,-27.37 374.73,-16.3 473.98,-12.44"/>
<polygon fill="#63b8ff" stroke="#63b8ff" points="218.09,-562.67 228.32,-559.91 218.6,-555.69 218.09,-562.67"/>
</a>
</g>
</g>
<!-- Node10 -->
<g id="Node000010" class="node">
<title>Node10</title>
<g id="a_Node000010"><a xlink:href="../../da/dd9/_reporter_8hpp.html" target="_top" xlink:title=" ">
<polygon fill="white" stroke="#666666" points="419,-461.25 307,-461.25 307,-442 419,-442 419,-461.25"/>
<text text-anchor="middle" x="363" y="-447.75" font-family="Helvetica,sans-Serif" font-size="10.00">mimic++/Reporter.hpp</text>
</a>
</g>
</g>
<!-- Node2&#45;&gt;Node10 -->
<g id="edge17_Node000002_Node000010" class="edge">
<title>Node2&#45;&gt;Node10</title>
<g id="a_edge17_Node000002_Node000010"><a xlink:title=" ">
<path fill="none" stroke="#63b8ff" d="M304.79,-546.34C317.06,-538.82 330.67,-528.68 340,-516.5 352.9,-499.66 359.03,-474.92 361.53,-461.72"/>
<polygon fill="#63b8ff" stroke="#63b8ff" points="303.15,-543.24 296.24,-551.27 306.65,-549.31 303.15,-543.24"/>
</a>
</g>
</g>
<!-- Node16 -->
<g id="Node000016" class="node">
<title>Node16</title>
<g id="a_Node000016"><a xlink:href="../../d0/d3b/_reports_8hpp.html" target="_top" xlink:title=" ">
<polygon fill="white" stroke="#666666" points="330.5,-516.5 221.5,-516.5 221.5,-497.25 330.5,-497.25 330.5,-516.5"/>
<text text-anchor="middle" x="276" y="-503" font-family="Helvetica,sans-Serif" font-size="10.00">mimic++/Reports.hpp</text>
</a>
</g>
</g>
<!-- Node2&#45;&gt;Node16 -->
<g id="edge30_Node000002_Node000016" class="edge">
<title>Node2&#45;&gt;Node16</title>
<g id="a_edge30_Node000002_Node000016"><a xlink:title=" ">
<path fill="none" stroke="#63b8ff" d="M276,-540.88C276,-532.59 276,-523.42 276,-516.86"/>
<polygon fill="#63b8ff" stroke="#63b8ff" points="272.5,-540.82 276,-550.82 279.5,-540.82 272.5,-540.82"/>
</a>
</g>
</g>
<!-- Node4 -->
<g id="Node000004" class="node">
<title>Node4</title>
<g id="a_Node000004"><a xlink:href="../../d2/d4f/_expectation_builder_8hpp.html" target="_top" xlink:title=" ">
<polygon fill="white" stroke="#666666" points="806.75,-185 651.25,-185 651.25,-165.75 806.75,-165.75 806.75,-185"/>
<text text-anchor="middle" x="729" y="-171.5" font-family="Helvetica,sans-Serif" font-size="10.00">mimic++/ExpectationBuilder.hpp</text>
</a>
</g>
</g>
<!-- Node3&#45;&gt;Node4 -->
<g id="edge3_Node000003_Node000004" class="edge">
<title>Node3&#45;&gt;Node4</title>
<g id="a_edge3_Node000003_Node000004"><a xlink:title=" ">
<path fill="none" stroke="#63b8ff" d="M639.45,-268.03C662.21,-244.74 702.48,-203.52 720.21,-185.38"/>
<polygon fill="#63b8ff" stroke="#63b8ff" points="637.22,-265.31 632.73,-274.91 642.22,-270.21 637.22,-265.31"/>
</a>
</g>
</g>
<!-- Node3&#45;&gt;Node5 -->
<g id="edge15_Node000003_Node000005" class="edge">
<title>Node3&#45;&gt;Node5</title>
<g id="a_edge15_Node000003_Node000005"><a xlink:title=" ">
<path fill="none" stroke="#63b8ff" d="M623.62,-264.72C624.71,-228.86 626.95,-155.35 627.73,-129.97"/>
<polygon fill="#63b8ff" stroke="#63b8ff" points="620.12,-264.46 623.32,-274.56 627.12,-264.67 620.12,-264.46"/>
</a>
</g>
</g>
<!-- Node3&#45;&gt;Node7 -->
<g id="edge16_Node000003_Node000007" class="edge">
<title>Node3&#45;&gt;Node7</title>
<g id="a_edge16_Node000003_Node000007"><a xlink:title=" ">
<path fill="none" stroke="#63b8ff" d="M550.69,-273.19C497.35,-259.96 434,-232.45 434,-176.38 434,-176.38 434,-176.38 434,-119.12 434,-89.51 434.6,-78.46 453,-55.25 466.27,-38.5 487.68,-26.9 504.71,-19.73"/>
<polygon fill="#63b8ff" stroke="#63b8ff" points="549.89,-276.6 560.42,-275.46 551.48,-269.78 549.89,-276.6"/>
</a>
</g>
</g>
<!-- Node3&#45;&gt;Node9 -->
<g id="edge11_Node000003_Node000009" class="edge">
<title>Node3&#45;&gt;Node9</title>
<g id="a_edge11_Node000003_Node000009"><a xlink:title=" ">
<path fill="none" stroke="#63b8ff" d="M676.94,-273.38C722.93,-263.59 788.12,-249.7 830.48,-240.68"/>
<polygon fill="#63b8ff" stroke="#63b8ff" points="676.22,-269.96 667.17,-275.47 677.68,-276.81 676.22,-269.96"/>
</a>
</g>
</g>
<!-- Node4&#45;&gt;Node5 -->
<g id="edge4_Node000004_Node000005" class="edge">
<title>Node4&#45;&gt;Node5</title>
<g id="a_edge4_Node000004_Node000005"><a xlink:title=" ">
<path fill="none" stroke="#63b8ff" d="M701.69,-159.98C683.7,-150.49 660.7,-138.36 645.22,-130.2"/>
<polygon fill="#63b8ff" stroke="#63b8ff" points="700.05,-163.07 710.53,-164.64 703.31,-156.88 700.05,-163.07"/>
</a>
</g>
</g>
<!-- Node4&#45;&gt;Node7 -->
<g id="edge10_Node000004_Node000007" class="edge">
<title>Node4&#45;&gt;Node7</title>
<g id="a_edge10_Node000004_Node000007"><a xlink:title=" ">
<path fill="none" stroke="#63b8ff" d="M753.01,-158.99C786.68,-135.57 840.67,-90.02 811,-55.25 782.92,-22.34 661.43,-13.59 588.02,-11.33"/>
<polygon fill="#63b8ff" stroke="#63b8ff" points="751.32,-155.91 744.99,-164.41 755.24,-161.72 751.32,-155.91"/>
</a>
</g>
</g>
<!-- Node6 -->
<g id="Node000006" class="node">
<title>Node6</title>
<g id="a_Node000006"><a xlink:href="../../d9/dc3/_interface_mock_8hpp.html" target="_top" xlink:title=" ">
<polygon fill="white" stroke="#666666" points="599.75,-74.5 462.25,-74.5 462.25,-55.25 599.75,-55.25 599.75,-74.5"/>
<text text-anchor="middle" x="531" y="-61" font-family="Helvetica,sans-Serif" font-size="10.00">mimic++/InterfaceMock.hpp</text>
</a>
</g>
</g>
<!-- Node5&#45;&gt;Node6 -->
<g id="edge5_Node000005_Node000006" class="edge">
<title>Node5&#45;&gt;Node6</title>
<g id="a_edge5_Node000005_Node000006"><a xlink:title=" ">
<path fill="none" stroke="#63b8ff" d="M601.53,-104.59C584.29,-95.13 562.33,-83.08 547.54,-74.95"/>
<polygon fill="#63b8ff" stroke="#63b8ff" points="599.77,-107.62 610.22,-109.36 603.14,-101.48 599.77,-107.62"/>
</a>
</g>
</g>
<!-- Node5&#45;&gt;Node7 -->
<g id="edge9_Node000005_Node000007" class="edge">
<title>Node5&#45;&gt;Node7</title>
<g id="a_edge9_Node000005_Node000007"><a xlink:title=" ">
<path fill="none" stroke="#63b8ff" d="M626,-99.29C623.75,-85.69 619.01,-67.89 609,-55.25 595.73,-38.5 574.32,-26.9 557.29,-19.73"/>
<polygon fill="#63b8ff" stroke="#63b8ff" points="622.48,-99.37 627.24,-108.83 629.42,-98.47 622.48,-99.37"/>
</a>
</g>
</g>
<!-- Node8 -->
<g id="Node000008" class="node">
<title>Node8</title>
<g id="a_Node000008"><a xlink:href="../../d1/dc0/_lifetime_watcher_8hpp.html" target="_top" xlink:title=" ">
<polygon fill="white" stroke="#666666" points="802.25,-74.5 655.75,-74.5 655.75,-55.25 802.25,-55.25 802.25,-74.5"/>
<text text-anchor="middle" x="729" y="-61" font-family="Helvetica,sans-Serif" font-size="10.00">mimic++/LifetimeWatcher.hpp</text>
</a>
</g>
</g>
<!-- Node5&#45;&gt;Node8 -->
<g id="edge7_Node000005_Node000008" class="edge">
<title>Node5&#45;&gt;Node8</title>
<g id="a_edge7_Node000005_Node000008"><a xlink:title=" ">
<path fill="none" stroke="#63b8ff" d="M655.31,-104.73C673.3,-95.24 696.3,-83.11 711.78,-74.95"/>
<polygon fill="#63b8ff" stroke="#63b8ff" points="653.69,-101.63 646.47,-109.39 656.95,-107.82 653.69,-101.63"/>
</a>
</g>
</g>
<!-- Node6&#45;&gt;Node7 -->
<g id="edge6_Node000006_Node000007" class="edge">
<title>Node6&#45;&gt;Node7</title>
<g id="a_edge6_Node000006_Node000007"><a xlink:title=" ">
<path fill="none" stroke="#63b8ff" d="M531,-43.63C531,-35.34 531,-26.17 531,-19.61"/>
<polygon fill="#63b8ff" stroke="#63b8ff" points="527.5,-43.57 531,-53.57 534.5,-43.57 527.5,-43.57"/>
</a>
</g>
</g>
<!-- Node8&#45;&gt;Node7 -->
<g id="edge8_Node000008_Node000007" class="edge">
<title>Node8&#45;&gt;Node7</title>
<g id="a_edge8_Node000008_Node000007"><a xlink:title=" ">
<path fill="none" stroke="#63b8ff" d="M684.64,-51.95C648.36,-42.19 597.81,-28.59 564.75,-19.7"/>
<polygon fill="#63b8ff" stroke="#63b8ff" points="683.38,-55.23 693.95,-54.45 685.2,-48.47 683.38,-55.23"/>
</a>
</g>
</g>
<!-- Node9&#45;&gt;Node4 -->
<g id="edge12_Node000009_Node000004" class="edge">
<title>Node9&#45;&gt;Node4</title>
<g id="a_edge12_Node000009_Node000004"><a xlink:title=" ">
<path fill="none" stroke="#63b8ff" d="M837.97,-216.67C811.83,-207 776.76,-194.04 753.55,-185.45"/>
<polygon fill="#63b8ff" stroke="#63b8ff" points="836.56,-219.88 847.15,-220.07 838.99,-213.32 836.56,-219.88"/>
</a>
</g>
</g>
<!-- Node9&#45;&gt;Node5 -->
<g id="edge13_Node000009_Node000005" class="edge">
<title>Node9&#45;&gt;Node5</title>
<g id="a_edge13_Node000009_Node000005"><a xlink:title=" ">
<path fill="none" stroke="#63b8ff" d="M861.23,-211.14C851.01,-196.62 834.9,-177.02 816,-165.75 773.5,-140.41 717.56,-129.46 677.78,-124.72"/>
<polygon fill="#63b8ff" stroke="#63b8ff" points="858.27,-213.02 866.74,-219.38 864.08,-209.12 858.27,-213.02"/>
</a>
</g>
</g>
<!-- Node9&#45;&gt;Node7 -->
<g id="edge14_Node000009_Node000007" class="edge">
<title>Node9&#45;&gt;Node7</title>
<g id="a_edge14_Node000009_Node000007"><a xlink:title=" ">
<path fill="none" stroke="#63b8ff" d="M874.47,-209.6C875.95,-173 873.29,-95.38 829,-55.25 794.59,-24.08 664.64,-14.68 588.17,-11.85"/>
<polygon fill="#63b8ff" stroke="#63b8ff" points="871,-209.01 873.92,-219.2 877.98,-209.41 871,-209.01"/>
</a>
</g>
</g>
<!-- Node10&#45;&gt;Node3 -->
<g id="edge18_Node000010_Node000003" class="edge">
<title>Node10&#45;&gt;Node3</title>
<g id="a_edge18_Node000010_Node000003"><a xlink:title=" ">
<path fill="none" stroke="#63b8ff" d="M324.96,-437.26C298.11,-425.68 269.46,-407.54 285,-386.75 318.28,-342.21 474.67,-310.57 562.59,-295.97"/>
<polygon fill="#63b8ff" stroke="#63b8ff" points="323.46,-440.44 334.04,-440.95 326.09,-433.95 323.46,-440.44"/>
</a>
</g>
</g>
<!-- Node10&#45;&gt;Node7 -->
<g id="edge29_Node000010_Node000007" class="edge">
<title>Node10&#45;&gt;Node7</title>
<g id="a_edge29_Node000010_Node000007"><a xlink:title=" ">
<path fill="none" stroke="#63b8ff" d="M295.46,-443.97C233.74,-433.72 152,-407.76 152,-342.12 152,-342.12 152,-342.12 152,-119.12 152,-52.99 367.97,-24.88 473.85,-15.07"/>
<polygon fill="#63b8ff" stroke="#63b8ff" points="294.82,-447.41 305.24,-445.48 295.89,-440.49 294.82,-447.41"/>
</a>
</g>
</g>
<!-- Node10&#45;&gt;Node11 -->
<g id="edge19_Node000010_Node000011" class="edge">
<title>Node10&#45;&gt;Node11</title>
<g id="a_edge19_Node000010_Node000011"><a xlink:title=" ">
<path fill="none" stroke="#63b8ff" d="M430.53,-443.86C513.72,-435.44 659.35,-420.4 784,-406 787,-405.65 790.07,-405.29 793.17,-404.92"/>
<polygon fill="#63b8ff" stroke="#63b8ff" points="430.32,-440.36 420.72,-444.85 431.02,-447.33 430.32,-440.36"/>
</a>
</g>
</g>
<!-- Node13 -->
<g id="Node000013" class="node">
<title>Node13</title>
<g id="a_Node000013"><a xlink:href="../../d9/d42/_boost_test_8hpp.html" target="_top" xlink:title=" ">
<polygon fill="white" stroke="#666666" points="610.38,-406 449.62,-406 449.62,-386.75 610.38,-386.75 610.38,-406"/>
<text text-anchor="middle" x="530" y="-392.5" font-family="Helvetica,sans-Serif" font-size="10.00">mimic++/adapters/BoostTest.hpp</text>
</a>
</g>
</g>
<!-- Node10&#45;&gt;Node13 -->
<g id="edge26_Node000010_Node000013" class="edge">
<title>Node10&#45;&gt;Node13</title>
<g id="a_edge26_Node000010_Node000013"><a xlink:title=" ">
<path fill="none" stroke="#63b8ff" d="M402.01,-438.19C432.48,-428.47 474.13,-415.19 501.53,-406.45"/>
<polygon fill="#63b8ff" stroke="#63b8ff" points="401.24,-434.76 392.77,-441.13 403.36,-441.43 401.24,-434.76"/>
</a>
</g>
</g>
<!-- Node14 -->
<g id="Node000014" class="node">
<title>Node14</title>
<g id="a_Node000014"><a xlink:href="../../d3/d04/_catch2_8hpp.html" target="_top" xlink:title=" ">
<polygon fill="white" stroke="#666666" points="775.25,-406 628.75,-406 628.75,-386.75 775.25,-386.75 775.25,-406"/>
<text text-anchor="middle" x="702" y="-392.5" font-family="Helvetica,sans-Serif" font-size="10.00">mimic++/adapters/Catch2.hpp</text>
</a>
</g>
</g>
<!-- Node10&#45;&gt;Node14 -->
<g id="edge27_Node000010_Node000014" class="edge">
<title>Node10&#45;&gt;Node14</title>
<g id="a_edge27_Node000010_Node000014"><a xlink:title=" ">
<path fill="none" stroke="#63b8ff" d="M430.67,-440C493.14,-430.18 584.93,-415.76 644.09,-406.47"/>
<polygon fill="#63b8ff" stroke="#63b8ff" points="430.19,-436.53 420.85,-441.54 431.28,-443.44 430.19,-436.53"/>
</a>
</g>
</g>
<!-- Node15 -->
<g id="Node000015" class="node">
<title>Node15</title>
<g id="a_Node000015"><a xlink:href="../../d5/db1/gtest_8hpp.html" target="_top" xlink:title=" ">
<polygon fill="white" stroke="#666666" points="431.75,-406 294.25,-406 294.25,-386.75 431.75,-386.75 431.75,-406"/>
<text text-anchor="middle" x="363" y="-392.5" font-family="Helvetica,sans-Serif" font-size="10.00">mimic++/adapters/gtest.hpp</text>
</a>
</g>
</g>
<!-- Node10&#45;&gt;Node15 -->
<g id="edge28_Node000010_Node000015" class="edge">
<title>Node10&#45;&gt;Node15</title>
<g id="a_edge28_Node000010_Node000015"><a xlink:title=" ">
<path fill="none" stroke="#63b8ff" d="M363,-430.38C363,-422.09 363,-412.92 363,-406.36"/>
<polygon fill="#63b8ff" stroke="#63b8ff" points="359.5,-430.32 363,-440.32 366.5,-430.32 359.5,-430.32"/>
</a>
</g>
</g>
<!-- Node11&#45;&gt;Node4 -->
<g id="edge24_Node000011_Node000004" class="edge">
<title>Node11&#45;&gt;Node4</title>
<g id="a_edge24_Node000011_Node000004"><a xlink:title=" ">
<path fill="none" stroke="#63b8ff" d="M842.35,-376.57C816.71,-331.28 752.28,-217.49 733.94,-185.1"/>
<polygon fill="#63b8ff" stroke="#63b8ff" points="839.27,-378.22 847.24,-385.2 845.36,-374.78 839.27,-378.22"/>
</a>
</g>
</g>
<!-- Node11&#45;&gt;Node7 -->
<g id="edge25_Node000011_Node000007" class="edge">
<title>Node11&#45;&gt;Node7</title>
<g id="a_edge25_Node000011_Node000007"><a xlink:title=" ">
<path fill="none" stroke="#63b8ff" d="M782.45,-384.96C618.96,-360.57 228,-300.81 228,-286.88 228,-286.88 228,-286.88 228,-119.12 228,-67.44 386.24,-33.79 474.01,-19.11"/>
<polygon fill="#63b8ff" stroke="#63b8ff" points="781.45,-388.35 791.86,-386.36 782.48,-381.42 781.45,-388.35"/>
</a>
</g>
</g>
<!-- Node11&#45;&gt;Node12 -->
<g id="edge20_Node000011_Node000012" class="edge">
<title>Node11&#45;&gt;Node12</title>
<g id="a_edge20_Node000011_Node000012"><a xlink:title=" ">
<path fill="none" stroke="#63b8ff" d="M807.52,-383.45C770.32,-373.69 718.49,-360.09 684.61,-351.2"/>
<polygon fill="#63b8ff" stroke="#63b8ff" points="806.54,-386.81 817.1,-385.96 808.32,-380.03 806.54,-386.81"/>
</a>
</g>
</g>
<!-- Node12&#45;&gt;Node3 -->
<g id="edge21_Node000012_Node000003" class="edge">
<title>Node12&#45;&gt;Node3</title>
<g id="a_edge21_Node000012_Node000003"><a xlink:title=" ">
<path fill="none" stroke="#63b8ff" d="M640.47,-321.33C636.08,-312.67 631.08,-302.81 627.56,-295.86"/>
<polygon fill="#63b8ff" stroke="#63b8ff" points="637.21,-322.65 644.86,-329.98 643.46,-319.48 637.21,-322.65"/>
</a>
</g>
</g>
<!-- Node12&#45;&gt;Node4 -->
<g id="edge22_Node000012_Node000004" class="edge">
<title>Node12&#45;&gt;Node4</title>
<g id="a_edge22_Node000012_Node000004"><a xlink:title=" ">
<path fill="none" stroke="#63b8ff" d="M670.56,-323.89C679.2,-316.12 688.68,-306.19 695,-295.5 717,-258.28 725.41,-206.07 728.01,-185.35"/>
<polygon fill="#63b8ff" stroke="#63b8ff" points="668.53,-321.02 663.19,-330.16 673.07,-326.35 668.53,-321.02"/>
</a>
</g>
</g>
<!-- Node12&#45;&gt;Node7 -->
<g id="edge23_Node000012_Node000007" class="edge">
<title>Node12&#45;&gt;Node7</title>
<g id="a_edge23_Node000012_Node000007"><a xlink:title=" ">
<path fill="none" stroke="#63b8ff" d="M572.32,-338.4C497.64,-332.1 396,-309.28 396,-231.62 396,-231.62 396,-231.62 396,-119.12 396,-65.45 461.63,-33.88 501.37,-19.68"/>
<polygon fill="#63b8ff" stroke="#63b8ff" points="571.85,-341.87 582.09,-339.13 572.38,-334.89 571.85,-341.87"/>
</a>
</g>
</g>
<!-- Node16&#45;&gt;Node7 -->
<g id="edge33_Node000016_Node000007" class="edge">
<title>Node16&#45;&gt;Node7</title>
<g id="a_edge33_Node000016_Node000007"><a xlink:title=" ">
<path fill="none" stroke="#63b8ff" d="M247.29,-491.57C191.97,-461.74 76,-387.25 76,-286.88 76,-286.88 76,-286.88 76,-119.12 76,-38.22 351.63,-17.53 473.83,-12.33"/>
<polygon fill="#63b8ff" stroke="#63b8ff" points="245.37,-494.51 255.85,-496.07 248.62,-488.32 245.37,-494.51"/>
</a>
</g>
</g>
<!-- Node16&#45;&gt;Node10 -->
<g id="edge32_Node000016_Node000010" class="edge">
<title>Node16&#45;&gt;Node10</title>
<g id="a_edge32_Node000016_Node000010"><a xlink:title=" ">
<path fill="none" stroke="#63b8ff" d="M300.18,-491.07C315.58,-481.65 335.02,-469.75 348.17,-461.7"/>
<polygon fill="#63b8ff" stroke="#63b8ff" points="298.75,-487.85 292.05,-496.05 302.41,-493.82 298.75,-487.85"/>
</a>
</g>
</g>
<!-- Node16&#45;&gt;Node12 -->
<g id="edge31_Node000016_Node000012" class="edge">
<title>Node16&#45;&gt;Node12</title>
<g id="a_edge31_Node000016_Node000012"><a xlink:title=" ">
<path fill="none" stroke="#63b8ff" d="M270.71,-486.03C265,-459.61 259.78,-413.17 285,-386.75 305.22,-365.57 483.99,-351.82 583.62,-345.74"/>
<polygon fill="#63b8ff" stroke="#63b8ff" points="267.24,-486.55 272.99,-495.44 274.04,-484.9 267.24,-486.55"/>
</a>
</g>
</g>
<!-- Node17&#45;&gt;Node7 -->
<g id="edge39_Node000017_Node000007" class="edge">
<title>Node17&#45;&gt;Node7</title>
<g id="a_edge39_Node000017_Node000007"><a xlink:title=" ">
<path fill="none" stroke="#63b8ff" d="M1135.8,-485.52C1134.62,-463.72 1133,-428.11 1133,-397.38 1133,-397.38 1133,-397.38 1133,-119.12 1133,-88.3 1131.01,-73.26 1106,-55.25 1064.64,-25.46 725.29,-14.83 588.16,-11.72"/>
<polygon fill="#63b8ff" stroke="#63b8ff" points="1132.3,-485.58 1136.36,-495.37 1139.29,-485.18 1132.3,-485.58"/>
</a>
</g>
</g>
<!-- Node17&#45;&gt;Node9 -->
<g id="edge38_Node000017_Node000009" class="edge">
<title>Node17&#45;&gt;Node9</title>
<g id="a_edge38_Node000017_Node000009"><a xlink:title=" ">
<path fill="none" stroke="#63b8ff" d="M1129.04,-486.44C1107.31,-433.74 1047.43,-291.1 1030,-276.25 1008.43,-257.87 979.76,-247.04 952.82,-240.67"/>
<polygon fill="#63b8ff" stroke="#63b8ff" points="1125.67,-487.44 1132.71,-495.36 1132.14,-484.78 1125.67,-487.44"/>
</a>
</g>
</g>
<!-- Node18&#45;&gt;Node7 -->
<g id="edge47_Node000018_Node000007" class="edge">
<title>Node18&#45;&gt;Node7</title>
<g id="a_edge47_Node000018_Node000007"><a xlink:title=" ">
<path fill="none" stroke="#63b8ff" d="M1027.64,-542.3C1038.57,-521.17 1054,-485.52 1054,-452.62 1054,-452.62 1054,-452.62 1054,-395.38 1054,-320.66 1092,-306.34 1092,-231.62 1092,-231.62 1092,-231.62 1092,-119.12 1092,-17.26 730.94,-9.01 588.14,-9.73"/>
<polygon fill="#63b8ff" stroke="#63b8ff" points="1024.7,-540.4 1023.02,-550.86 1030.85,-543.72 1024.7,-540.4"/>
</a>
</g>
</g>
<!-- Node18&#45;&gt;Node9 -->
<g id="edge42_Node000018_Node000009" class="edge">
<title>Node18&#45;&gt;Node9</title>
<g id="a_edge42_Node000018_Node000009"><a xlink:title=" ">
<path fill="none" stroke="#63b8ff" d="M1016.7,-540.76C1016.41,-518.96 1016,-483.35 1016,-452.62 1016,-452.62 1016,-452.62 1016,-340.12 1016,-309.8 1013.45,-297.69 992,-276.25 973.82,-258.08 947.54,-247.21 924.3,-240.75"/>
<polygon fill="#63b8ff" stroke="#63b8ff" points="1013.2,-540.66 1016.84,-550.61 1020.2,-540.56 1013.2,-540.66"/>
</a>
</g>
</g>
<!-- Node18&#45;&gt;Node10 -->
<g id="edge44_Node000018_Node000010" class="edge">
<title>Node18&#45;&gt;Node10</title>
<g id="a_edge44_Node000018_Node000010"><a xlink:title=" ">
<path fill="none" stroke="#63b8ff" d="M953.71,-550.63C825.69,-529.39 537.93,-481.65 417.56,-461.68"/>
<polygon fill="#63b8ff" stroke="#63b8ff" points="952.93,-554.04 963.37,-552.23 954.08,-547.14 952.93,-554.04"/>
</a>
</g>
</g>
<!-- Node18&#45;&gt;Node11 -->
<g id="edge46_Node000018_Node000011" class="edge">
<title>Node18&#45;&gt;Node11</title>
<g id="a_edge46_Node000018_Node000011"><a xlink:title=" ">
<path fill="none" stroke="#63b8ff" d="M1000.45,-544.6C966.12,-510.33 888.17,-432.49 861.86,-406.22"/>
<polygon fill="#63b8ff" stroke="#63b8ff" points="997.56,-546.66 1007.11,-551.25 1002.51,-541.71 997.56,-546.66"/>
</a>
</g>
</g>
<!-- Node18&#45;&gt;Node16 -->
<g id="edge45_Node000018_Node000016" class="edge">
<title>Node18&#45;&gt;Node16</title>
<g id="a_edge45_Node000018_Node000016"><a xlink:title=" ">
<path fill="none" stroke="#63b8ff" d="M953.74,-556.58C810.87,-546.31 465.24,-521.47 330.79,-511.81"/>
<polygon fill="#63b8ff" stroke="#63b8ff" points="953.16,-560.05 963.38,-557.27 953.66,-553.06 953.16,-560.05"/>
</a>
</g>
</g>
<!-- Node18&#45;&gt;Node17 -->
<g id="edge43_Node000018_Node000017" class="edge">
<title>Node18&#45;&gt;Node17</title>
<g id="a_edge43_Node000018_Node000017"><a xlink:title=" ">
<path fill="none" stroke="#63b8ff" d="M1047.66,-547.52C1069.27,-537.93 1097.63,-525.34 1116.54,-516.95"/>
<polygon fill="#63b8ff" stroke="#63b8ff" points="1046.46,-544.22 1038.74,-551.48 1049.3,-550.62 1046.46,-544.22"/>
</a>
</g>
</g>
<!-- Node19&#45;&gt;Node7 -->
<g id="edge52_Node000019_Node000007" class="edge">
<title>Node19&#45;&gt;Node7</title>
<g id="a_edge52_Node000019_Node000007"><a xlink:title=" ">
<path fill="none" stroke="#63b8ff" d="M1187.97,-597.82C1201.26,-576.96 1220,-541.56 1220,-507.88 1220,-507.88 1220,-507.88 1220,-119.12 1220,-70.07 1176.15,-71.88 1130,-55.25 1031.28,-19.68 717.59,-12.46 587.93,-10.99"/>
<polygon fill="#63b8ff" stroke="#63b8ff" points="1185.11,-595.8 1182.48,-606.07 1190.93,-599.68 1185.11,-595.8"/>
</a>
</g>
</g>
<!-- Node19&#45;&gt;Node17 -->
<g id="edge50_Node000019_Node000017" class="edge">
<title>Node19&#45;&gt;Node17</title>
<g id="a_edge50_Node000019_Node000017"><a xlink:title=" ">
<path fill="none" stroke="#63b8ff" d="M1168.1,-596.68C1159.81,-573.01 1146.26,-534.3 1140.15,-516.88"/>
<polygon fill="#63b8ff" stroke="#63b8ff" points="1164.78,-597.79 1171.39,-606.07 1171.39,-595.47 1164.78,-597.79"/>
</a>
</g>
</g>
<!-- Node19&#45;&gt;Node18 -->
<g id="edge51_Node000019_Node000018" class="edge">
<title>Node19&#45;&gt;Node18</title>
<g id="a_edge51_Node000019_Node000018"><a xlink:title=" ">
<path fill="none" stroke="#63b8ff" d="M1137.34,-603.68C1108.57,-593.99 1069.63,-580.86 1043.93,-572.2"/>
<polygon fill="#63b8ff" stroke="#63b8ff" points="1136.17,-606.98 1146.76,-606.86 1138.4,-600.35 1136.17,-606.98"/>
</a>
</g>
</g>
</g>
</svg>
