<?xml version="1.0" encoding="UTF-8" standalone="no"?>
<!DOCTYPE svg PUBLIC "-//W3C//DTD SVG 1.1//EN"
 "http://www.w3.org/Graphics/SVG/1.1/DTD/svg11.dtd">
<!-- Generated by graphviz version 9.0.0 (20230911.1827)
 -->
<!-- Title: mimic++/ExpectationPolicies.hpp Pages: 1 -->
<svg width="1087pt" height="304pt"
 viewBox="0.00 0.00 1087.28 303.50" xmlns="http://www.w3.org/2000/svg" xmlns:xlink="http://www.w3.org/1999/xlink">
<g id="graph0" class="graph" transform="scale(1 1) rotate(0) translate(4 299.5)">
<title>mimic++/ExpectationPolicies.hpp</title>
<!-- Node1 -->
<g id="Node000001" class="node">
<title>Node1</title>
<g id="a_Node000001"><a xlink:title=" ">
<polygon fill="#999999" stroke="#666666" points="677.03,-295.5 517.03,-295.5 517.03,-276.25 677.03,-276.25 677.03,-295.5"/>
<text text-anchor="middle" x="597.03" y="-282" font-family="Helvetica,sans-Serif" font-size="10.00">mimic++/ExpectationPolicies.hpp</text>
</a>
</g>
</g>
<!-- Node2 -->
<g id="Node000002" class="node">
<title>Node2</title>
<g id="a_Node000002"><a xlink:href="../../d5/d8a/_expectation_8hpp.html" target="_top" xlink:title=" ">
<polygon fill="white" stroke="#666666" points="328.78,-240.25 203.28,-240.25 203.28,-221 328.78,-221 328.78,-240.25"/>
<text text-anchor="middle" x="266.03" y="-226.75" font-family="Helvetica,sans-Serif" font-size="10.00">mimic++/Expectation.hpp</text>
</a>
</g>
</g>
<!-- Node1&#45;&gt;Node2 -->
<g id="edge1_Node000001_Node000002" class="edge">
<title>Node1&#45;&gt;Node2</title>
<g id="a_edge1_Node000001_Node000002"><a xlink:title=" ">
<path fill="none" stroke="#63b8ff" d="M540.51,-275.78C483.23,-266.57 394.61,-252.31 333.65,-242.5"/>
<polygon fill="#63b8ff" stroke="#63b8ff" points="334.52,-239.1 324.09,-240.97 333.41,-246.01 334.52,-239.1"/>
</a>
</g>
</g>
<!-- Node6 -->
<g id="Node000006" class="node">
<title>Node6</title>
<g id="a_Node000006"><a xlink:href="../../d4/d2c/_utility_8hpp.html" target="_top" xlink:title=" ">
<polygon fill="white" stroke="#666666" points="661.03,-74.5 561.03,-74.5 561.03,-55.25 661.03,-55.25 661.03,-74.5"/>
<text text-anchor="middle" x="611.03" y="-61" font-family="Helvetica,sans-Serif" font-size="10.00">mimic++/Utility.hpp</text>
</a>
</g>
</g>
<!-- Node1&#45;&gt;Node6 -->
<g id="edge48_Node000001_Node000006" class="edge">
<title>Node1&#45;&gt;Node6</title>
<g id="a_edge48_Node000001_Node000006"><a xlink:title=" ">
<path fill="none" stroke="#63b8ff" d="M593.17,-275.92C585.12,-256.09 567.83,-206.98 575.03,-165.75 580.1,-136.75 592.86,-105.05 601.74,-85.31"/>
<polygon fill="#63b8ff" stroke="#63b8ff" points="604.88,-86.86 605.91,-76.32 598.53,-83.92 604.88,-86.86"/>
</a>
</g>
</g>
<!-- Node16 -->
<g id="Node000016" class="node">
<title>Node16</title>
<g id="a_Node000016"><a xlink:href="../../da/dab/_printer_8hpp.html" target="_top" xlink:title=" ">
<polygon fill="white" stroke="#666666" points="881.91,-129.75 778.16,-129.75 778.16,-110.5 881.91,-110.5 881.91,-129.75"/>
<text text-anchor="middle" x="830.03" y="-116.25" font-family="Helvetica,sans-Serif" font-size="10.00">mimic++/Printer.hpp</text>
</a>
</g>
</g>
<!-- Node1&#45;&gt;Node16 -->
<g id="edge47_Node000001_Node000016" class="edge">
<title>Node1&#45;&gt;Node16</title>
<g id="a_edge47_Node000001_Node000016"><a xlink:title=" ">
<path fill="none" stroke="#63b8ff" d="M609.89,-275.84C647.92,-249.11 760.18,-170.21 808.03,-136.59"/>
<polygon fill="#63b8ff" stroke="#63b8ff" points="809.8,-139.62 815.97,-131 805.78,-133.89 809.8,-139.62"/>
</a>
</g>
</g>
<!-- Node23 -->
<g id="Node000023" class="node">
<title>Node23</title>
<g id="a_Node000023"><a xlink:title=" ">
<polygon fill="#e0e0e0" stroke="#999999" points="526.16,-185 477.91,-185 477.91,-165.75 526.16,-165.75 526.16,-185"/>
<text text-anchor="middle" x="502.03" y="-171.5" font-family="Helvetica,sans-Serif" font-size="10.00">cassert</text>
</a>
</g>
</g>
<!-- Node1&#45;&gt;Node23 -->
<g id="edge49_Node000001_Node000023" class="edge">
<title>Node1&#45;&gt;Node23</title>
<g id="a_edge49_Node000001_Node000023"><a xlink:title=" ">
<path fill="none" stroke="#63b8ff" d="M583.77,-276.02C571.93,-267.7 554.58,-254.43 542.03,-240.25 529.84,-226.47 518.97,-208.55 511.65,-195.21"/>
<polygon fill="#63b8ff" stroke="#63b8ff" points="514.87,-193.8 507.1,-186.6 508.68,-197.07 514.87,-193.8"/>
</a>
</g>
</g>
<!-- Node27 -->
<g id="Node000027" class="node">
<title>Node27</title>
<g id="a_Node000027"><a xlink:href="../../dd/d50/_matcher_8hpp.html" target="_top" xlink:title=" ">
<polygon fill="white" stroke="#666666" points="694.28,-185 583.78,-185 583.78,-165.75 694.28,-165.75 694.28,-185"/>
<text text-anchor="middle" x="639.03" y="-171.5" font-family="Helvetica,sans-Serif" font-size="10.00">mimic++/Matcher.hpp</text>
</a>
</g>
</g>
<!-- Node1&#45;&gt;Node27 -->
<g id="edge38_Node000001_Node000027" class="edge">
<title>Node1&#45;&gt;Node27</title>
<g id="a_edge38_Node000001_Node000027"><a xlink:title=" ">
<path fill="none" stroke="#63b8ff" d="M600.47,-276C607.21,-258.59 622.29,-219.62 631.47,-195.91"/>
<polygon fill="#63b8ff" stroke="#63b8ff" points="634.65,-197.38 635,-186.79 628.13,-194.85 634.65,-197.38"/>
</a>
</g>
</g>
<!-- Node28 -->
<g id="Node000028" class="node">
<title>Node28</title>
<g id="a_Node000028"><a xlink:title=" ">
<polygon fill="#e0e0e0" stroke="#999999" points="958.03,-129.75 900.03,-129.75 900.03,-110.5 958.03,-110.5 958.03,-129.75"/>
<text text-anchor="middle" x="929.03" y="-116.25" font-family="Helvetica,sans-Serif" font-size="10.00">functional</text>
</a>
</g>
</g>
<!-- Node1&#45;&gt;Node28 -->
<g id="edge50_Node000001_Node000028" class="edge">
<title>Node1&#45;&gt;Node28</title>
<g id="a_edge50_Node000001_Node000028"><a xlink:title=" ">
<path fill="none" stroke="#63b8ff" d="M615.51,-275.83C633.91,-266.83 662.93,-252.61 688.03,-240.25 765.01,-202.35 855.71,-157.45 900.73,-135.15"/>
<polygon fill="#63b8ff" stroke="#63b8ff" points="902.14,-138.36 909.54,-130.78 899.03,-132.09 902.14,-138.36"/>
</a>
</g>
</g>
<!-- Node3 -->
<g id="Node000003" class="node">
<title>Node3</title>
<g id="a_Node000003"><a xlink:href="../../dc/d44/_call_8hpp.html" target="_top" xlink:title=" ">
<polygon fill="white" stroke="#666666" points="378.28,-129.75 327.78,-129.75 327.78,-110.5 378.28,-110.5 378.28,-129.75"/>
<text text-anchor="middle" x="353.03" y="-116.25" font-family="Helvetica,sans-Serif" font-size="10.00">Call.hpp</text>
</a>
</g>
</g>
<!-- Node2&#45;&gt;Node3 -->
<g id="edge2_Node000002_Node000003" class="edge">
<title>Node2&#45;&gt;Node3</title>
<g id="a_edge2_Node000002_Node000003"><a xlink:title=" ">
<path fill="none" stroke="#63b8ff" d="M292.24,-220.54C308.8,-213.43 329.23,-201.89 341.03,-185 349.94,-172.24 352.74,-154.69 353.42,-141.21"/>
<polygon fill="#63b8ff" stroke="#63b8ff" points="356.91,-141.39 353.53,-131.34 349.91,-141.3 356.91,-141.39"/>
</a>
</g>
</g>
<!-- Node4 -->
<g id="Node000004" class="node">
<title>Node4</title>
<g id="a_Node000004"><a xlink:href="../../d8/d32/_type_traits_8hpp.html" target="_top" xlink:title=" ">
<polygon fill="white" stroke="#666666" points="133.53,-74.5 12.53,-74.5 12.53,-55.25 133.53,-55.25 133.53,-74.5"/>
<text text-anchor="middle" x="73.03" y="-61" font-family="Helvetica,sans-Serif" font-size="10.00">mimic++/TypeTraits.hpp</text>
</a>
</g>
</g>
<!-- Node2&#45;&gt;Node4 -->
<g id="edge29_Node000002_Node000004" class="edge">
<title>Node2&#45;&gt;Node4</title>
<g id="a_edge29_Node000002_Node000004"><a xlink:title=" ">
<path fill="none" stroke="#63b8ff" d="M203.03,-223.64C152.5,-217.39 87.4,-205.54 71.03,-185 48.44,-156.65 57.71,-111.29 65.82,-85.5"/>
<polygon fill="#63b8ff" stroke="#63b8ff" points="69.04,-86.88 68.96,-76.29 62.41,-84.62 69.04,-86.88"/>
</a>
</g>
</g>
<!-- Node5 -->
<g id="Node000005" class="node">
<title>Node5</title>
<g id="a_Node000005"><a xlink:title=" ">
<polygon fill="#e0e0e0" stroke="#999999" points="166.53,-19.25 129.53,-19.25 129.53,0 166.53,0 166.53,-19.25"/>
<text text-anchor="middle" x="148.03" y="-5.75" font-family="Helvetica,sans-Serif" font-size="10.00">tuple</text>
</a>
</g>
</g>
<!-- Node2&#45;&gt;Node5 -->
<g id="edge35_Node000002_Node000005" class="edge">
<title>Node2&#45;&gt;Node5</title>
<g id="a_edge35_Node000002_Node000005"><a xlink:title=" ">
<path fill="none" stroke="#63b8ff" d="M202.95,-222.18C150.29,-214.88 80.35,-202.33 58.03,-185 14.7,-151.36 15.59,-127.9 3.03,-74.5 1.07,-66.17 -2.05,-62.13 3.03,-55.25 29.42,-19.52 83.95,-11.5 118.1,-10.19"/>
<polygon fill="#63b8ff" stroke="#63b8ff" points="117.81,-13.69 127.74,-10 117.68,-6.69 117.81,-13.69"/>
</a>
</g>
</g>
<!-- Node14 -->
<g id="Node000014" class="node">
<title>Node14</title>
<g id="a_Node000014"><a xlink:title=" ">
<polygon fill="#e0e0e0" stroke="#999999" points="194.53,-74.5 151.53,-74.5 151.53,-55.25 194.53,-55.25 194.53,-74.5"/>
<text text-anchor="middle" x="173.03" y="-61" font-family="Helvetica,sans-Serif" font-size="10.00">vector</text>
</a>
</g>
</g>
<!-- Node2&#45;&gt;Node14 -->
<g id="edge37_Node000002_Node000014" class="edge">
<title>Node2&#45;&gt;Node14</title>
<g id="a_edge37_Node000002_Node000014"><a xlink:title=" ">
<path fill="none" stroke="#63b8ff" d="M260.81,-220.69C252.56,-207.24 235.36,-181.68 215.03,-165.75 184.98,-142.2 157.61,-161.91 137.03,-129.75 127.01,-114.09 140.14,-95.52 153.26,-82.44"/>
<polygon fill="#63b8ff" stroke="#63b8ff" points="155.54,-85.11 160.53,-75.76 150.8,-79.95 155.54,-85.11"/>
</a>
</g>
</g>
<!-- Node15 -->
<g id="Node000015" class="node">
<title>Node15</title>
<g id="a_Node000015"><a xlink:href="../../da/dd9/_reporter_8hpp.html" target="_top" xlink:title=" ">
<polygon fill="white" stroke="#666666" points="332.41,-185 261.66,-185 261.66,-165.75 332.41,-165.75 332.41,-185"/>
<text text-anchor="middle" x="297.03" y="-171.5" font-family="Helvetica,sans-Serif" font-size="10.00">Reporter.hpp</text>
</a>
</g>
</g>
<!-- Node2&#45;&gt;Node15 -->
<g id="edge17_Node000002_Node000015" class="edge">
<title>Node2&#45;&gt;Node15</title>
<g id="a_edge17_Node000002_Node000015"><a xlink:title=" ">
<path fill="none" stroke="#63b8ff" d="M271.15,-220.83C275.21,-213.86 281.03,-203.87 286.12,-195.12"/>
<polygon fill="#63b8ff" stroke="#63b8ff" points="289.03,-197.07 291.04,-186.67 282.98,-193.55 289.03,-197.07"/>
</a>
</g>
</g>
<!-- Node20 -->
<g id="Node000020" class="node">
<title>Node20</title>
<g id="a_Node000020"><a xlink:title=" ">
<polygon fill="#e0e0e0" stroke="#999999" points="849.28,-74.5 810.78,-74.5 810.78,-55.25 849.28,-55.25 849.28,-74.5"/>
<text text-anchor="middle" x="830.03" y="-61" font-family="Helvetica,sans-Serif" font-size="10.00">utility</text>
</a>
</g>
</g>
<!-- Node2&#45;&gt;Node20 -->
<g id="edge36_Node000002_Node000020" class="edge">
<title>Node2&#45;&gt;Node20</title>
<g id="a_edge36_Node000002_Node000020"><a xlink:title=" ">
<path fill="none" stroke="#63b8ff" d="M291.95,-220.65C311.77,-213.03 339.15,-200.82 360.03,-185 395.06,-158.47 385.94,-130.57 425.03,-110.5 496.98,-73.56 702.56,-89.58 799.33,-74.43"/>
<polygon fill="#63b8ff" stroke="#63b8ff" points="799.86,-77.89 809.09,-72.69 798.63,-71 799.86,-77.89"/>
</a>
</g>
</g>
<!-- Node22 -->
<g id="Node000022" class="node">
<title>Node22</title>
<g id="a_Node000022"><a xlink:title=" ">
<polygon fill="#e0e0e0" stroke="#999999" points="196.28,-129.75 145.78,-129.75 145.78,-110.5 196.28,-110.5 196.28,-129.75"/>
<text text-anchor="middle" x="171.03" y="-116.25" font-family="Helvetica,sans-Serif" font-size="10.00">memory</text>
</a>
</g>
</g>
<!-- Node2&#45;&gt;Node22 -->
<g id="edge32_Node000002_Node000022" class="edge">
<title>Node2&#45;&gt;Node22</title>
<g id="a_edge32_Node000002_Node000022"><a xlink:title=" ">
<path fill="none" stroke="#63b8ff" d="M202.92,-222.92C154.85,-216.35 94.39,-204.45 79.03,-185 59.6,-160.39 101.16,-141.44 134.58,-130.78"/>
<polygon fill="#63b8ff" stroke="#63b8ff" points="135.49,-134.16 144.05,-127.93 133.47,-127.46 135.49,-134.16"/>
</a>
</g>
</g>
<!-- Node2&#45;&gt;Node23 -->
<g id="edge30_Node000002_Node000023" class="edge">
<title>Node2&#45;&gt;Node23</title>
<g id="a_edge30_Node000002_Node000023"><a xlink:title=" ">
<path fill="none" stroke="#63b8ff" d="M306.33,-220.53C351.31,-210.38 423.41,-194.11 466.4,-184.41"/>
<polygon fill="#63b8ff" stroke="#63b8ff" points="466.99,-187.87 475.97,-182.25 465.45,-181.04 466.99,-187.87"/>
</a>
</g>
</g>
<!-- Node24 -->
<g id="Node000024" class="node">
<title>Node24</title>
<g id="a_Node000024"><a xlink:title=" ">
<polygon fill="#e0e0e0" stroke="#999999" points="489.91,-129.75 434.16,-129.75 434.16,-110.5 489.91,-110.5 489.91,-129.75"/>
<text text-anchor="middle" x="462.03" y="-116.25" font-family="Helvetica,sans-Serif" font-size="10.00">concepts</text>
</a>
</g>
</g>
<!-- Node2&#45;&gt;Node24 -->
<g id="edge31_Node000002_Node000024" class="edge">
<title>Node2&#45;&gt;Node24</title>
<g id="a_edge31_Node000002_Node000024"><a xlink:title=" ">
<path fill="none" stroke="#63b8ff" d="M328.99,-221.7C358.81,-215.5 393.6,-204.5 420.03,-185 435.54,-173.56 446.96,-154.55 453.95,-140.24"/>
<polygon fill="#63b8ff" stroke="#63b8ff" points="457.03,-141.93 457.97,-131.38 450.65,-139.04 457.03,-141.93"/>
</a>
</g>
</g>
<!-- Node25 -->
<g id="Node000025" class="node">
<title>Node25</title>
<g id="a_Node000025"><a xlink:title=" ">
<polygon fill="#e0e0e0" stroke="#999999" points="130.16,-185 87.91,-185 87.91,-165.75 130.16,-165.75 130.16,-185"/>
<text text-anchor="middle" x="109.03" y="-171.5" font-family="Helvetica,sans-Serif" font-size="10.00">mutex</text>
</a>
</g>
</g>
<!-- Node2&#45;&gt;Node25 -->
<g id="edge33_Node000002_Node000025" class="edge">
<title>Node2&#45;&gt;Node25</title>
<g id="a_edge33_Node000002_Node000025"><a xlink:title=" ">
<path fill="none" stroke="#63b8ff" d="M239.4,-220.59C212.21,-211.37 170,-197.05 141.02,-187.23"/>
<polygon fill="#63b8ff" stroke="#63b8ff" points="142.27,-183.95 131.68,-184.06 140.02,-190.58 142.27,-183.95"/>
</a>
</g>
</g>
<!-- Node26 -->
<g id="Node000026" class="node">
<title>Node26</title>
<g id="a_Node000026"><a xlink:title=" ">
<polygon fill="#e0e0e0" stroke="#999999" points="206.03,-185 148.03,-185 148.03,-165.75 206.03,-165.75 206.03,-185"/>
<text text-anchor="middle" x="177.03" y="-171.5" font-family="Helvetica,sans-Serif" font-size="10.00">stdexcept</text>
</a>
</g>
</g>
<!-- Node2&#45;&gt;Node26 -->
<g id="edge34_Node000002_Node000026" class="edge">
<title>Node2&#45;&gt;Node26</title>
<g id="a_edge34_Node000002_Node000026"><a xlink:title=" ">
<path fill="none" stroke="#63b8ff" d="M250.93,-220.59C237.51,-212.56 217.62,-200.66 201.86,-191.23"/>
<polygon fill="#63b8ff" stroke="#63b8ff" points="203.88,-188.36 193.5,-186.23 200.29,-194.37 203.88,-188.36"/>
</a>
</g>
</g>
<!-- Node3&#45;&gt;Node4 -->
<g id="edge3_Node000003_Node000004" class="edge">
<title>Node3&#45;&gt;Node4</title>
<g id="a_edge3_Node000003_Node000004"><a xlink:title=" ">
<path fill="none" stroke="#63b8ff" d="M327.46,-112.44C324.62,-111.75 321.77,-111.09 319.03,-110.5 259.02,-97.46 190.21,-85.21 140.65,-76.85"/>
<polygon fill="#63b8ff" stroke="#63b8ff" points="141.36,-73.42 130.92,-75.22 140.21,-80.32 141.36,-73.42"/>
</a>
</g>
</g>
<!-- Node3&#45;&gt;Node5 -->
<g id="edge14_Node000003_Node000005" class="edge">
<title>Node3&#45;&gt;Node5</title>
<g id="a_edge14_Node000003_Node000005"><a xlink:title=" ">
<path fill="none" stroke="#63b8ff" d="M327.65,-110.68C304.69,-102.63 270.26,-89.54 242.03,-74.5 215.31,-60.27 186.86,-40.15 168.34,-26.32"/>
<polygon fill="#63b8ff" stroke="#63b8ff" points="170.68,-23.7 160.6,-20.45 166.46,-29.28 170.68,-23.7"/>
</a>
</g>
</g>
<!-- Node3&#45;&gt;Node6 -->
<g id="edge5_Node000003_Node000006" class="edge">
<title>Node3&#45;&gt;Node6</title>
<g id="a_edge5_Node000003_Node000006"><a xlink:title=" ">
<path fill="none" stroke="#63b8ff" d="M378.61,-113.4C383.08,-112.42 387.69,-111.42 392.03,-110.5 447.02,-98.82 509.92,-86.06 554.15,-77.19"/>
<polygon fill="#63b8ff" stroke="#63b8ff" points="554.66,-80.66 563.78,-75.27 553.29,-73.8 554.66,-80.66"/>
</a>
</g>
</g>
<!-- Node7 -->
<g id="Node000007" class="node">
<title>Node7</title>
<g id="a_Node000007"><a xlink:title=" ">
<polygon fill="#e0e0e0" stroke="#999999" points="632.91,-19.25 589.16,-19.25 589.16,0 632.91,0 632.91,-19.25"/>
<text text-anchor="middle" x="611.03" y="-5.75" font-family="Helvetica,sans-Serif" font-size="10.00">format</text>
</a>
</g>
</g>
<!-- Node3&#45;&gt;Node7 -->
<g id="edge9_Node000003_Node000007" class="edge">
<title>Node3&#45;&gt;Node7</title>
<g id="a_edge9_Node000003_Node000007"><a xlink:title=" ">
<path fill="none" stroke="#63b8ff" d="M365.57,-110.16C387.61,-94.52 432.59,-63.17 450.03,-55.25 492.2,-36.1 544.4,-23.48 577.71,-16.69"/>
<polygon fill="#63b8ff" stroke="#63b8ff" points="578.04,-20.19 587.17,-14.82 576.69,-13.32 578.04,-20.19"/>
</a>
</g>
</g>
<!-- Node8 -->
<g id="Node000008" class="node">
<title>Node8</title>
<g id="a_Node000008"><a xlink:title=" ">
<polygon fill="#e0e0e0" stroke="#999999" points="503.16,-19.25 418.91,-19.25 418.91,0 503.16,0 503.16,-19.25"/>
<text text-anchor="middle" x="461.03" y="-5.75" font-family="Helvetica,sans-Serif" font-size="10.00">source_location</text>
</a>
</g>
</g>
<!-- Node3&#45;&gt;Node8 -->
<g id="edge12_Node000003_Node000008" class="edge">
<title>Node3&#45;&gt;Node8</title>
<g id="a_edge12_Node000003_Node000008"><a xlink:title=" ">
<path fill="none" stroke="#63b8ff" d="M361.87,-110.25C379.83,-92.21 420.84,-51 444.11,-27.63"/>
<polygon fill="#63b8ff" stroke="#63b8ff" points="446.43,-30.26 451,-20.7 441.47,-25.32 446.43,-30.26"/>
</a>
</g>
</g>
<!-- Node9 -->
<g id="Node000009" class="node">
<title>Node9</title>
<g id="a_Node000009"><a xlink:title=" ">
<polygon fill="#e0e0e0" stroke="#999999" points="734.91,-74.5 679.16,-74.5 679.16,-55.25 734.91,-55.25 734.91,-74.5"/>
<text text-anchor="middle" x="707.03" y="-61" font-family="Helvetica,sans-Serif" font-size="10.00">algorithm</text>
</a>
</g>
</g>
<!-- Node3&#45;&gt;Node9 -->
<g id="edge8_Node000003_Node000009" class="edge">
<title>Node3&#45;&gt;Node9</title>
<g id="a_edge8_Node000003_Node000009"><a xlink:title=" ">
<path fill="none" stroke="#63b8ff" d="M378.56,-113.14C383.04,-112.19 387.66,-111.26 392.03,-110.5 511.16,-89.66 545.44,-96.25 667.51,-74.78"/>
<polygon fill="#63b8ff" stroke="#63b8ff" points="668.09,-78.23 677.32,-73.03 666.86,-71.34 668.09,-78.23"/>
</a>
</g>
</g>
<!-- Node10 -->
<g id="Node000010" class="node">
<title>Node10</title>
<g id="a_Node000010"><a xlink:title=" ">
<polygon fill="#e0e0e0" stroke="#999999" points="300.91,-74.5 251.16,-74.5 251.16,-55.25 300.91,-55.25 300.91,-74.5"/>
<text text-anchor="middle" x="276.03" y="-61" font-family="Helvetica,sans-Serif" font-size="10.00">optional</text>
</a>
</g>
</g>
<!-- Node3&#45;&gt;Node10 -->
<g id="edge10_Node000003_Node000010" class="edge">
<title>Node3&#45;&gt;Node10</title>
<g id="a_edge10_Node000003_Node000010"><a xlink:title=" ">
<path fill="none" stroke="#63b8ff" d="M339.97,-110.09C328.58,-102.21 311.8,-90.61 298.29,-81.27"/>
<polygon fill="#63b8ff" stroke="#63b8ff" points="300.62,-78.62 290.4,-75.81 296.64,-84.38 300.62,-78.62"/>
</a>
</g>
</g>
<!-- Node11 -->
<g id="Node000011" class="node">
<title>Node11</title>
<g id="a_Node000011"><a xlink:title=" ">
<polygon fill="#e0e0e0" stroke="#999999" points="504.66,-74.5 459.41,-74.5 459.41,-55.25 504.66,-55.25 504.66,-74.5"/>
<text text-anchor="middle" x="482.03" y="-61" font-family="Helvetica,sans-Serif" font-size="10.00">ranges</text>
</a>
</g>
</g>
<!-- Node3&#45;&gt;Node11 -->
<g id="edge11_Node000003_Node000011" class="edge">
<title>Node3&#45;&gt;Node11</title>
<g id="a_edge11_Node000003_Node000011"><a xlink:title=" ">
<path fill="none" stroke="#63b8ff" d="M374.91,-110.09C395.39,-101.64 426.24,-88.9 449.59,-79.27"/>
<polygon fill="#63b8ff" stroke="#63b8ff" points="450.73,-82.58 458.64,-75.53 448.06,-76.11 450.73,-82.58"/>
</a>
</g>
</g>
<!-- Node12 -->
<g id="Node000012" class="node">
<title>Node12</title>
<g id="a_Node000012"><a xlink:title=" ">
<polygon fill="#e0e0e0" stroke="#999999" points="793.03,-74.5 753.03,-74.5 753.03,-55.25 793.03,-55.25 793.03,-74.5"/>
<text text-anchor="middle" x="773.03" y="-61" font-family="Helvetica,sans-Serif" font-size="10.00">string</text>
</a>
</g>
</g>
<!-- Node3&#45;&gt;Node12 -->
<g id="edge13_Node000003_Node000012" class="edge">
<title>Node3&#45;&gt;Node12</title>
<g id="a_edge13_Node000003_Node000012"><a xlink:title=" ">
<path fill="none" stroke="#63b8ff" d="M378.54,-113.04C383.02,-112.1 387.65,-111.21 392.03,-110.5 543.65,-86.07 587.71,-104.16 741.3,-74.69"/>
<polygon fill="#63b8ff" stroke="#63b8ff" points="741.93,-78.13 751.07,-72.77 740.58,-71.26 741.93,-78.13"/>
</a>
</g>
</g>
<!-- Node13 -->
<g id="Node000013" class="node">
<title>Node13</title>
<g id="a_Node000013"><a xlink:title=" ">
<polygon fill="#e0e0e0" stroke="#999999" points="364.66,-74.5 319.41,-74.5 319.41,-55.25 364.66,-55.25 364.66,-74.5"/>
<text text-anchor="middle" x="342.03" y="-61" font-family="Helvetica,sans-Serif" font-size="10.00">variant</text>
</a>
</g>
</g>
<!-- Node3&#45;&gt;Node13 -->
<g id="edge15_Node000003_Node000013" class="edge">
<title>Node3&#45;&gt;Node13</title>
<g id="a_edge15_Node000003_Node000013"><a xlink:title=" ">
<path fill="none" stroke="#63b8ff" d="M351.21,-110.33C349.85,-103.74 347.94,-94.46 346.2,-86.07"/>
<polygon fill="#63b8ff" stroke="#63b8ff" points="349.64,-85.43 344.19,-76.34 342.79,-86.84 349.64,-85.43"/>
</a>
</g>
</g>
<!-- Node3&#45;&gt;Node14 -->
<g id="edge16_Node000003_Node000014" class="edge">
<title>Node3&#45;&gt;Node14</title>
<g id="a_edge16_Node000003_Node000014"><a xlink:title=" ">
<path fill="none" stroke="#63b8ff" d="M327.62,-111.61C295.62,-102.14 240.58,-85.86 205.54,-75.49"/>
<polygon fill="#63b8ff" stroke="#63b8ff" points="206.95,-72.26 196.37,-72.78 204.97,-78.97 206.95,-72.26"/>
</a>
</g>
</g>
<!-- Node4&#45;&gt;Node5 -->
<g id="edge4_Node000004_Node000005" class="edge">
<title>Node4&#45;&gt;Node5</title>
<g id="a_edge4_Node000004_Node000005"><a xlink:title=" ">
<path fill="none" stroke="#63b8ff" d="M85.75,-54.84C96.74,-47.04 112.87,-35.59 125.96,-26.29"/>
<polygon fill="#63b8ff" stroke="#63b8ff" points="127.88,-29.22 134.01,-20.58 123.83,-23.51 127.88,-29.22"/>
</a>
</g>
</g>
<!-- Node6&#45;&gt;Node7 -->
<g id="edge6_Node000006_Node000007" class="edge">
<title>Node6&#45;&gt;Node7</title>
<g id="a_edge6_Node000006_Node000007"><a xlink:title=" ">
<path fill="none" stroke="#63b8ff" d="M611.03,-55.08C611.03,-48.57 611.03,-39.42 611.03,-31.12"/>
<polygon fill="#63b8ff" stroke="#63b8ff" points="614.53,-31.12 611.03,-21.12 607.53,-31.12 614.53,-31.12"/>
</a>
</g>
</g>
<!-- Node6&#45;&gt;Node8 -->
<g id="edge7_Node000006_Node000008" class="edge">
<title>Node6&#45;&gt;Node8</title>
<g id="a_edge7_Node000006_Node000008"><a xlink:title=" ">
<path fill="none" stroke="#63b8ff" d="M585.59,-54.84C561.34,-46.24 524.6,-33.19 497.29,-23.5"/>
<polygon fill="#63b8ff" stroke="#63b8ff" points="498.62,-20.26 488.03,-20.21 496.28,-26.85 498.62,-20.26"/>
</a>
</g>
</g>
<!-- Node15&#45;&gt;Node3 -->
<g id="edge18_Node000015_Node000003" class="edge">
<title>Node15&#45;&gt;Node3</title>
<g id="a_edge18_Node000015_Node000003"><a xlink:title=" ">
<path fill="none" stroke="#63b8ff" d="M306.53,-165.34C314.46,-157.8 325.98,-146.85 335.57,-137.73"/>
<polygon fill="#63b8ff" stroke="#63b8ff" points="337.74,-140.49 342.57,-131.07 332.92,-135.42 337.74,-140.49"/>
</a>
</g>
</g>
<!-- Node15&#45;&gt;Node14 -->
<g id="edge28_Node000015_Node000014" class="edge">
<title>Node15&#45;&gt;Node14</title>
<g id="a_edge28_Node000015_Node000014"><a xlink:title=" ">
<path fill="none" stroke="#63b8ff" d="M285.73,-165.3C274.71,-156.4 257.54,-142.35 243.03,-129.75 224.89,-114 204.67,-95.43 190.65,-82.39"/>
<polygon fill="#63b8ff" stroke="#63b8ff" points="193.21,-80 183.52,-75.74 188.44,-85.12 193.21,-80"/>
</a>
</g>
</g>
<!-- Node15&#45;&gt;Node16 -->
<g id="edge19_Node000015_Node000016" class="edge">
<title>Node15&#45;&gt;Node16</title>
<g id="a_edge19_Node000015_Node000016"><a xlink:title=" ">
<path fill="none" stroke="#63b8ff" d="M332.83,-170.8C421.85,-161.9 654.15,-138.7 766.86,-127.44"/>
<polygon fill="#63b8ff" stroke="#63b8ff" points="766.93,-130.95 776.53,-126.47 766.24,-123.98 766.93,-130.95"/>
</a>
</g>
</g>
<!-- Node21 -->
<g id="Node000021" class="node">
<title>Node21</title>
<g id="a_Node000021"><a xlink:title=" ">
<polygon fill="#e0e0e0" stroke="#999999" points="309.66,-129.75 252.41,-129.75 252.41,-110.5 309.66,-110.5 309.66,-129.75"/>
<text text-anchor="middle" x="281.03" y="-116.25" font-family="Helvetica,sans-Serif" font-size="10.00">exception</text>
</a>
</g>
</g>
<!-- Node15&#45;&gt;Node21 -->
<g id="edge26_Node000015_Node000021" class="edge">
<title>Node15&#45;&gt;Node21</title>
<g id="a_edge26_Node000015_Node000021"><a xlink:title=" ">
<path fill="none" stroke="#63b8ff" d="M294.39,-165.58C292.39,-158.92 289.55,-149.49 287.01,-141.03"/>
<polygon fill="#63b8ff" stroke="#63b8ff" points="290.4,-140.13 284.17,-131.56 283.69,-142.14 290.4,-140.13"/>
</a>
</g>
</g>
<!-- Node15&#45;&gt;Node22 -->
<g id="edge27_Node000015_Node000022" class="edge">
<title>Node15&#45;&gt;Node22</title>
<g id="a_edge27_Node000015_Node000022"><a xlink:title=" ">
<path fill="none" stroke="#63b8ff" d="M275.66,-165.34C255.75,-156.93 225.79,-144.27 203.03,-134.65"/>
<polygon fill="#63b8ff" stroke="#63b8ff" points="204.48,-131.46 193.9,-130.79 201.75,-137.91 204.48,-131.46"/>
</a>
</g>
</g>
<!-- Node16&#45;&gt;Node7 -->
<g id="edge20_Node000016_Node000007" class="edge">
<title>Node16&#45;&gt;Node7</title>
<g id="a_edge20_Node000016_Node000007"><a xlink:title=" ">
<path fill="none" stroke="#63b8ff" d="M882.39,-111.32C952.5,-100.63 1068.86,-81.9 1075.03,-74.5 1080.51,-67.93 1080.78,-61.58 1075.03,-55.25 1046.17,-23.48 746.55,-13.72 644.7,-11.31"/>
<polygon fill="#63b8ff" stroke="#63b8ff" points="644.88,-7.81 634.81,-11.08 644.72,-14.81 644.88,-7.81"/>
</a>
</g>
</g>
<!-- Node16&#45;&gt;Node12 -->
<g id="edge23_Node000016_Node000012" class="edge">
<title>Node16&#45;&gt;Node12</title>
<g id="a_edge23_Node000016_Node000012"><a xlink:title=" ">
<path fill="none" stroke="#63b8ff" d="M820.36,-110.09C812.29,-102.55 800.57,-91.6 790.81,-82.48"/>
<polygon fill="#63b8ff" stroke="#63b8ff" points="793.36,-80.08 783.66,-75.81 788.58,-85.19 793.36,-80.08"/>
</a>
</g>
</g>
<!-- Node17 -->
<g id="Node000017" class="node">
<title>Node17</title>
<g id="a_Node000017"><a xlink:title=" ">
<polygon fill="#e0e0e0" stroke="#999999" points="1066.03,-74.5 1020.03,-74.5 1020.03,-55.25 1066.03,-55.25 1066.03,-74.5"/>
<text text-anchor="middle" x="1043.03" y="-61" font-family="Helvetica,sans-Serif" font-size="10.00">iterator</text>
</a>
</g>
</g>
<!-- Node16&#45;&gt;Node17 -->
<g id="edge21_Node000016_Node000017" class="edge">
<title>Node16&#45;&gt;Node17</title>
<g id="a_edge21_Node000016_Node000017"><a xlink:title=" ">
<path fill="none" stroke="#63b8ff" d="M867.88,-110.05C902.25,-101.74 954.61,-88.96 1008.78,-75.04"/>
<polygon fill="#63b8ff" stroke="#63b8ff" points="1009.35,-78.51 1018.16,-72.62 1007.6,-71.73 1009.35,-78.51"/>
</a>
</g>
</g>
<!-- Node18 -->
<g id="Node000018" class="node">
<title>Node18</title>
<g id="a_Node000018"><a xlink:title=" ">
<polygon fill="#e0e0e0" stroke="#999999" points="918.66,-74.5 867.41,-74.5 867.41,-55.25 918.66,-55.25 918.66,-74.5"/>
<text text-anchor="middle" x="893.03" y="-61" font-family="Helvetica,sans-Serif" font-size="10.00">sstream</text>
</a>
</g>
</g>
<!-- Node16&#45;&gt;Node18 -->
<g id="edge22_Node000016_Node000018" class="edge">
<title>Node16&#45;&gt;Node18</title>
<g id="a_edge22_Node000016_Node000018"><a xlink:title=" ">
<path fill="none" stroke="#63b8ff" d="M840.72,-110.09C849.73,-102.47 862.86,-91.37 873.71,-82.2"/>
<polygon fill="#63b8ff" stroke="#63b8ff" points="875.97,-84.88 881.35,-75.75 871.45,-79.53 875.97,-84.88"/>
</a>
</g>
</g>
<!-- Node19 -->
<g id="Node000019" class="node">
<title>Node19</title>
<g id="a_Node000019"><a xlink:title=" ">
<polygon fill="#e0e0e0" stroke="#999999" points="1001.78,-74.5 936.28,-74.5 936.28,-55.25 1001.78,-55.25 1001.78,-74.5"/>
<text text-anchor="middle" x="969.03" y="-61" font-family="Helvetica,sans-Serif" font-size="10.00">string_view</text>
</a>
</g>
</g>
<!-- Node16&#45;&gt;Node19 -->
<g id="edge24_Node000016_Node000019" class="edge">
<title>Node16&#45;&gt;Node19</title>
<g id="a_edge24_Node000016_Node000019"><a xlink:title=" ">
<path fill="none" stroke="#63b8ff" d="M853.61,-110.09C875.88,-101.56 909.52,-88.67 934.75,-79.01"/>
<polygon fill="#63b8ff" stroke="#63b8ff" points="935.84,-82.34 943.92,-75.49 933.33,-75.8 935.84,-82.34"/>
</a>
</g>
</g>
<!-- Node16&#45;&gt;Node20 -->
<g id="edge25_Node000016_Node000020" class="edge">
<title>Node16&#45;&gt;Node20</title>
<g id="a_edge25_Node000016_Node000020"><a xlink:title=" ">
<path fill="none" stroke="#63b8ff" d="M830.03,-110.33C830.03,-103.82 830.03,-94.67 830.03,-86.37"/>
<polygon fill="#63b8ff" stroke="#63b8ff" points="833.53,-86.37 830.03,-76.37 826.53,-86.37 833.53,-86.37"/>
</a>
</g>
</g>
<!-- Node27&#45;&gt;Node5 -->
<g id="edge45_Node000027_Node000005" class="edge">
<title>Node27&#45;&gt;Node5</title>
<g id="a_edge45_Node000027_Node000005"><a xlink:title=" ">
<path fill="none" stroke="#63b8ff" d="M633,-165.48C616.87,-142.5 570.09,-81.15 514.03,-55.25 454.32,-27.67 254.62,-15.61 178.16,-11.93"/>
<polygon fill="#63b8ff" stroke="#63b8ff" points="178.65,-8.45 168.5,-11.48 178.33,-15.44 178.65,-8.45"/>
</a>
</g>
</g>
<!-- Node27&#45;&gt;Node6 -->
<g id="edge40_Node000027_Node000006" class="edge">
<title>Node27&#45;&gt;Node6</title>
<g id="a_edge40_Node000027_Node000006"><a xlink:title=" ">
<path fill="none" stroke="#63b8ff" d="M636.74,-165.5C632.27,-148.17 622.28,-109.48 616.16,-85.74"/>
<polygon fill="#63b8ff" stroke="#63b8ff" points="619.62,-85.15 613.73,-76.34 612.84,-86.9 619.62,-85.15"/>
</a>
</g>
</g>
<!-- Node27&#45;&gt;Node9 -->
<g id="edge41_Node000027_Node000009" class="edge">
<title>Node27&#45;&gt;Node9</title>
<g id="a_edge41_Node000027_Node000009"><a xlink:title=" ">
<path fill="none" stroke="#63b8ff" d="M679.76,-165.26C698.8,-158.74 719.72,-147.8 731.03,-129.75 740.05,-115.35 731.43,-97.03 722.1,-83.71"/>
<polygon fill="#63b8ff" stroke="#63b8ff" points="724.91,-81.63 716.04,-75.84 719.37,-85.9 724.91,-81.63"/>
</a>
</g>
</g>
<!-- Node27&#45;&gt;Node11 -->
<g id="edge44_Node000027_Node000011" class="edge">
<title>Node27&#45;&gt;Node11</title>
<g id="a_edge44_Node000027_Node000011"><a xlink:title=" ">
<path fill="none" stroke="#63b8ff" d="M625.92,-165.31C599.07,-146.76 537.58,-104.26 504.34,-81.29"/>
<polygon fill="#63b8ff" stroke="#63b8ff" points="506.46,-78.5 496.24,-75.7 502.48,-84.26 506.46,-78.5"/>
</a>
</g>
</g>
<!-- Node27&#45;&gt;Node16 -->
<g id="edge39_Node000027_Node000016" class="edge">
<title>Node27&#45;&gt;Node16</title>
<g id="a_edge39_Node000027_Node000016"><a xlink:title=" ">
<path fill="none" stroke="#63b8ff" d="M671.43,-165.34C703.12,-156.51 751.6,-142.99 786.61,-133.23"/>
<polygon fill="#63b8ff" stroke="#63b8ff" points="787.32,-136.67 796.01,-130.61 785.44,-129.92 787.32,-136.67"/>
</a>
</g>
</g>
<!-- Node27&#45;&gt;Node24 -->
<g id="edge42_Node000027_Node000024" class="edge">
<title>Node27&#45;&gt;Node24</title>
<g id="a_edge42_Node000027_Node000024"><a xlink:title=" ">
<path fill="none" stroke="#63b8ff" d="M609.01,-165.34C579.27,-156.4 533.6,-142.66 501.07,-132.87"/>
<polygon fill="#63b8ff" stroke="#63b8ff" points="502.19,-129.55 491.6,-130.02 500.17,-136.25 502.19,-129.55"/>
</a>
</g>
</g>
<!-- Node27&#45;&gt;Node28 -->
<g id="edge43_Node000027_Node000028" class="edge">
<title>Node27&#45;&gt;Node28</title>
<g id="a_edge43_Node000027_Node000028"><a xlink:title=" ">
<path fill="none" stroke="#63b8ff" d="M694.73,-165.3C743.39,-157.19 816.2,-144.64 888.48,-130.19"/>
<polygon fill="#63b8ff" stroke="#63b8ff" points="889.01,-133.65 898.12,-128.25 887.62,-126.79 889.01,-133.65"/>
</a>
</g>
</g>
<!-- Node29 -->
<g id="Node000029" class="node">
<title>Node29</title>
<g id="a_Node000029"><a xlink:title=" ">
<polygon fill="#e0e0e0" stroke="#999999" points="721.53,-129.75 660.53,-129.75 660.53,-110.5 721.53,-110.5 721.53,-129.75"/>
<text text-anchor="middle" x="691.03" y="-116.25" font-family="Helvetica,sans-Serif" font-size="10.00">type_traits</text>
</a>
</g>
</g>
<!-- Node27&#45;&gt;Node29 -->
<g id="edge46_Node000027_Node000029" class="edge">
<title>Node27&#45;&gt;Node29</title>
<g id="a_edge46_Node000027_Node000029"><a xlink:title=" ">
<path fill="none" stroke="#63b8ff" d="M647.62,-165.58C654.88,-158.15 665.48,-147.29 674.4,-138.16"/>
<polygon fill="#63b8ff" stroke="#63b8ff" points="676.72,-140.79 681.2,-131.19 671.71,-135.9 676.72,-140.79"/>
</a>
</g>
</g>
</g>
</svg>
