<?xml version="1.0" encoding="UTF-8" standalone="no"?>
<!DOCTYPE svg PUBLIC "-//W3C//DTD SVG 1.1//EN"
 "http://www.w3.org/Graphics/SVG/1.1/DTD/svg11.dtd">
<!-- Generated by graphviz version 12.1.2 (20240928.0832)
 -->
<!-- Title: mimic++/Expectation.hpp Pages: 1 -->
<svg width="1571pt" height="469pt"
 viewBox="0.00 0.00 1571.12 469.25" xmlns="http://www.w3.org/2000/svg" xmlns:xlink="http://www.w3.org/1999/xlink">
<g id="graph0" class="graph" transform="scale(1 1) rotate(0) translate(4 465.25)">
<title>mimic++/Expectation.hpp</title>
<!-- Node1 -->
<g id="Node000001" class="node">
<title>Node1</title>
<g id="a_Node000001"><a xlink:title=" ">
<polygon fill="#999999" stroke="#666666" points="1303.75,-461.25 1178.25,-461.25 1178.25,-442 1303.75,-442 1303.75,-461.25"/>
<text text-anchor="middle" x="1241" y="-447.75" font-family="Helvetica,sans-Serif" font-size="10.00">mimic++/Expectation.hpp</text>
</a>
</g>
</g>
<!-- Node2 -->
<g id="Node000002" class="node">
<title>Node2</title>
<g id="a_Node000002"><a xlink:href="../../dc/d44/_call_8hpp.html" target="_top" xlink:title=" ">
<polygon fill="white" stroke="#666666" points="1211.88,-185 1120.12,-185 1120.12,-165.75 1211.88,-165.75 1211.88,-185"/>
<text text-anchor="middle" x="1166" y="-171.5" font-family="Helvetica,sans-Serif" font-size="10.00">mimic++/Call.hpp</text>
</a>
</g>
</g>
<!-- Node1&#45;&gt;Node2 -->
<g id="edge1_Node000001_Node000002" class="edge">
<title>Node1&#45;&gt;Node2</title>
<g id="a_edge1_Node000001_Node000002"><a xlink:title=" ">
<path fill="none" stroke="#63b8ff" d="M1266.18,-441.53C1283.15,-434.25 1304.94,-422.51 1319,-406 1338.66,-382.91 1343,-372.45 1343,-342.12 1343,-342.12 1343,-342.12 1343,-284.88 1343,-227.62 1274.85,-199.65 1223.13,-186.66"/>
<polygon fill="#63b8ff" stroke="#63b8ff" points="1224.05,-183.28 1213.52,-184.38 1222.44,-190.09 1224.05,-183.28"/>
</a>
</g>
</g>
<!-- Node5 -->
<g id="Node000005" class="node">
<title>Node5</title>
<g id="a_Node000005"><a xlink:href="../../d8/d32/_type_traits_8hpp.html" target="_top" xlink:title=" ">
<polygon fill="white" stroke="#666666" points="1230.5,-129.75 1109.5,-129.75 1109.5,-110.5 1230.5,-110.5 1230.5,-129.75"/>
<text text-anchor="middle" x="1170" y="-116.25" font-family="Helvetica,sans-Serif" font-size="10.00">mimic++/TypeTraits.hpp</text>
</a>
</g>
</g>
<!-- Node1&#45;&gt;Node5 -->
<g id="edge72_Node000001_Node000005" class="edge">
<title>Node1&#45;&gt;Node5</title>
<g id="a_edge72_Node000001_Node000005"><a xlink:title=" ">
<path fill="none" stroke="#63b8ff" d="M1272.77,-441.55C1314.07,-427.58 1381,-396.55 1381,-342.12 1381,-342.12 1381,-342.12 1381,-284.88 1381,-201.11 1275.93,-154.02 1214.07,-133.56"/>
<polygon fill="#63b8ff" stroke="#63b8ff" points="1215.47,-130.33 1204.88,-130.62 1213.34,-137 1215.47,-130.33"/>
</a>
</g>
</g>
<!-- Node6 -->
<g id="Node000006" class="node">
<title>Node6</title>
<g id="a_Node000006"><a xlink:title=" ">
<polygon fill="#e0e0e0" stroke="#999999" points="1315.5,-74.5 1278.5,-74.5 1278.5,-55.25 1315.5,-55.25 1315.5,-74.5"/>
<text text-anchor="middle" x="1297" y="-61" font-family="Helvetica,sans-Serif" font-size="10.00">tuple</text>
</a>
</g>
</g>
<!-- Node1&#45;&gt;Node6 -->
<g id="edge78_Node000001_Node000006" class="edge">
<title>Node1&#45;&gt;Node6</title>
<g id="a_edge78_Node000001_Node000006"><a xlink:title=" ">
<path fill="none" stroke="#63b8ff" d="M1293.92,-441.54C1346.39,-429.14 1419,-401.3 1419,-342.12 1419,-342.12 1419,-342.12 1419,-174.38 1419,-124.93 1362.35,-92.49 1326.25,-76.84"/>
<polygon fill="#63b8ff" stroke="#63b8ff" points="1327.77,-73.68 1317.19,-73.1 1325.1,-80.15 1327.77,-73.68"/>
</a>
</g>
</g>
<!-- Node8 -->
<g id="Node000008" class="node">
<title>Node8</title>
<g id="a_Node000008"><a xlink:title=" ">
<polygon fill="#e0e0e0" stroke="#999999" points="100.12,-74.5 51.88,-74.5 51.88,-55.25 100.12,-55.25 100.12,-74.5"/>
<text text-anchor="middle" x="76" y="-61" font-family="Helvetica,sans-Serif" font-size="10.00">cassert</text>
</a>
</g>
</g>
<!-- Node1&#45;&gt;Node8 -->
<g id="edge73_Node000001_Node000008" class="edge">
<title>Node1&#45;&gt;Node8</title>
<g id="a_edge73_Node000001_Node000008"><a xlink:title=" ">
<path fill="none" stroke="#63b8ff" d="M1177.75,-448.45C924.86,-439.32 0,-401.87 0,-342.12 0,-342.12 0,-342.12 0,-174.38 0,-135.77 32.68,-101.14 55.18,-81.87"/>
<polygon fill="#63b8ff" stroke="#63b8ff" points="57.11,-84.82 62.62,-75.77 52.67,-79.41 57.11,-84.82"/>
</a>
</g>
</g>
<!-- Node11 -->
<g id="Node000011" class="node">
<title>Node11</title>
<g id="a_Node000011"><a xlink:title=" ">
<polygon fill="#e0e0e0" stroke="#999999" points="1024.25,-74.5 985.75,-74.5 985.75,-55.25 1024.25,-55.25 1024.25,-74.5"/>
<text text-anchor="middle" x="1005" y="-61" font-family="Helvetica,sans-Serif" font-size="10.00">utility</text>
</a>
</g>
</g>
<!-- Node1&#45;&gt;Node11 -->
<g id="edge79_Node000001_Node000011" class="edge">
<title>Node1&#45;&gt;Node11</title>
<g id="a_edge79_Node000001_Node000011"><a xlink:title=" ">
<path fill="none" stroke="#63b8ff" d="M1177.98,-446.57C1094.13,-440.45 950.88,-427.26 903,-406 815.65,-367.21 794.04,-331.62 766,-240.25 756.28,-208.59 743.97,-191.33 765,-165.75 817.65,-101.73 875.99,-170.81 948,-129.75 967.12,-118.85 983.19,-99.19 993.34,-84.55"/>
<polygon fill="#63b8ff" stroke="#63b8ff" points="996.24,-86.52 998.81,-76.24 990.39,-82.67 996.24,-86.52"/>
</a>
</g>
</g>
<!-- Node12 -->
<g id="Node000012" class="node">
<title>Node12</title>
<g id="a_Node000012"><a xlink:href="../../d6/d17/_control_policy_8hpp.html" target="_top" xlink:title=" ">
<polygon fill="white" stroke="#666666" points="1044.12,-406 911.88,-406 911.88,-386.75 1044.12,-386.75 1044.12,-406"/>
<text text-anchor="middle" x="978" y="-392.5" font-family="Helvetica,sans-Serif" font-size="10.00">mimic++/ControlPolicy.hpp</text>
</a>
</g>
</g>
<!-- Node1&#45;&gt;Node12 -->
<g id="edge16_Node000001_Node000012" class="edge">
<title>Node1&#45;&gt;Node12</title>
<g id="a_edge16_Node000001_Node000012"><a xlink:title=" ">
<path fill="none" stroke="#63b8ff" d="M1196.09,-441.53C1151.27,-432.46 1082.29,-418.49 1033.93,-408.7"/>
<polygon fill="#63b8ff" stroke="#63b8ff" points="1034.71,-405.29 1024.21,-406.73 1033.32,-412.15 1034.71,-405.29"/>
</a>
</g>
</g>
<!-- Node22 -->
<g id="Node000022" class="node">
<title>Node22</title>
<g id="a_Node000022"><a xlink:title=" ">
<polygon fill="#e0e0e0" stroke="#999999" points="1063.62,-185 1018.38,-185 1018.38,-165.75 1063.62,-165.75 1063.62,-185"/>
<text text-anchor="middle" x="1041" y="-171.5" font-family="Helvetica,sans-Serif" font-size="10.00">ranges</text>
</a>
</g>
</g>
<!-- Node1&#45;&gt;Node22 -->
<g id="edge77_Node000001_Node000022" class="edge">
<title>Node1&#45;&gt;Node22</title>
<g id="a_edge77_Node000001_Node000022"><a xlink:title=" ">
<path fill="none" stroke="#63b8ff" d="M1243.1,-441.93C1250.77,-407.9 1273.57,-282.57 1210,-221 1190.88,-202.48 1118.61,-188.39 1075.01,-181.35"/>
<polygon fill="#63b8ff" stroke="#63b8ff" points="1075.72,-177.92 1065.3,-179.83 1074.64,-184.84 1075.72,-177.92"/>
</a>
</g>
</g>
<!-- Node25 -->
<g id="Node000025" class="node">
<title>Node25</title>
<g id="a_Node000025"><a xlink:title=" ">
<polygon fill="#e0e0e0" stroke="#999999" points="161.5,-185 118.5,-185 118.5,-165.75 161.5,-165.75 161.5,-185"/>
<text text-anchor="middle" x="140" y="-171.5" font-family="Helvetica,sans-Serif" font-size="10.00">vector</text>
</a>
</g>
</g>
<!-- Node1&#45;&gt;Node25 -->
<g id="edge80_Node000001_Node000025" class="edge">
<title>Node1&#45;&gt;Node25</title>
<g id="a_edge80_Node000001_Node000025"><a xlink:title=" ">
<path fill="none" stroke="#63b8ff" d="M1177.75,-450.55C969.21,-448.98 307.98,-433.06 157,-295.5 129.67,-270.6 132,-223.2 136.05,-196.3"/>
<polygon fill="#63b8ff" stroke="#63b8ff" points="139.45,-197.19 137.72,-186.73 132.55,-195.98 139.45,-197.19"/>
</a>
</g>
</g>
<!-- Node27 -->
<g id="Node000027" class="node">
<title>Node27</title>
<g id="a_Node000027"><a xlink:href="../../da/dd9/_reporter_8hpp.html" target="_top" xlink:title=" ">
<polygon fill="white" stroke="#666666" points="501,-295.5 389,-295.5 389,-276.25 501,-276.25 501,-295.5"/>
<text text-anchor="middle" x="445" y="-282" font-family="Helvetica,sans-Serif" font-size="10.00">mimic++/Reporter.hpp</text>
</a>
</g>
</g>
<!-- Node1&#45;&gt;Node27 -->
<g id="edge71_Node000001_Node000027" class="edge">
<title>Node1&#45;&gt;Node27</title>
<g id="a_edge71_Node000001_Node000027"><a xlink:title=" ">
<path fill="none" stroke="#63b8ff" d="M1177.84,-447.94C1021.79,-440.39 622.45,-415.15 508,-350.75 487.71,-339.33 469.63,-319.46 458.1,-304.91"/>
<polygon fill="#63b8ff" stroke="#63b8ff" points="460.97,-302.91 452.14,-297.06 455.4,-307.14 460.97,-302.91"/>
</a>
</g>
</g>
<!-- Node29 -->
<g id="Node000029" class="node">
<title>Node29</title>
<g id="a_Node000029"><a xlink:title=" ">
<polygon fill="#e0e0e0" stroke="#999999" points="1201.25,-240.25 1150.75,-240.25 1150.75,-221 1201.25,-221 1201.25,-240.25"/>
<text text-anchor="middle" x="1176" y="-226.75" font-family="Helvetica,sans-Serif" font-size="10.00">memory</text>
</a>
</g>
</g>
<!-- Node1&#45;&gt;Node29 -->
<g id="edge75_Node000001_Node000029" class="edge">
<title>Node1&#45;&gt;Node29</title>
<g id="a_edge75_Node000001_Node000029"><a xlink:title=" ">
<path fill="none" stroke="#63b8ff" d="M1238.37,-441.77C1228.76,-409.37 1195.34,-296.8 1181.79,-251.12"/>
<polygon fill="#63b8ff" stroke="#63b8ff" points="1185.22,-250.39 1179.02,-241.8 1178.51,-252.39 1185.22,-250.39"/>
</a>
</g>
</g>
<!-- Node34 -->
<g id="Node000034" class="node">
<title>Node34</title>
<g id="a_Node000034"><a xlink:title=" ">
<polygon fill="#e0e0e0" stroke="#999999" points="1502.88,-406 1447.12,-406 1447.12,-386.75 1502.88,-386.75 1502.88,-406"/>
<text text-anchor="middle" x="1475" y="-392.5" font-family="Helvetica,sans-Serif" font-size="10.00">concepts</text>
</a>
</g>
</g>
<!-- Node1&#45;&gt;Node34 -->
<g id="edge74_Node000001_Node000034" class="edge">
<title>Node1&#45;&gt;Node34</title>
<g id="a_edge74_Node000001_Node000034"><a xlink:title=" ">
<path fill="none" stroke="#63b8ff" d="M1280.96,-441.53C1324.24,-431.68 1392.85,-416.07 1435.83,-406.29"/>
<polygon fill="#63b8ff" stroke="#63b8ff" points="1436.51,-409.72 1445.49,-404.09 1434.96,-402.9 1436.51,-409.72"/>
</a>
</g>
</g>
<!-- Node35 -->
<g id="Node000035" class="node">
<title>Node35</title>
<g id="a_Node000035"><a xlink:title=" ">
<polygon fill="#e0e0e0" stroke="#999999" points="1563.12,-406 1520.88,-406 1520.88,-386.75 1563.12,-386.75 1563.12,-406"/>
<text text-anchor="middle" x="1542" y="-392.5" font-family="Helvetica,sans-Serif" font-size="10.00">mutex</text>
</a>
</g>
</g>
<!-- Node1&#45;&gt;Node35 -->
<g id="edge76_Node000001_Node000035" class="edge">
<title>Node1&#45;&gt;Node35</title>
<g id="a_edge76_Node000001_Node000035"><a xlink:title=" ">
<path fill="none" stroke="#63b8ff" d="M1304.1,-442.36C1356.7,-434.99 1433.77,-423.08 1509.32,-406.39"/>
<polygon fill="#63b8ff" stroke="#63b8ff" points="1509.98,-409.83 1518.97,-404.23 1508.45,-403 1509.98,-409.83"/>
</a>
</g>
</g>
<!-- Node3 -->
<g id="Node000003" class="node">
<title>Node3</title>
<g id="a_Node000003"><a xlink:href="../../df/dde/_fwd_8hpp.html" target="_top" xlink:title=" ">
<polygon fill="white" stroke="#666666" points="428,-74.5 334,-74.5 334,-55.25 428,-55.25 428,-74.5"/>
<text text-anchor="middle" x="381" y="-61" font-family="Helvetica,sans-Serif" font-size="10.00">mimic++/Fwd.hpp</text>
</a>
</g>
</g>
<!-- Node2&#45;&gt;Node3 -->
<g id="edge2_Node000002_Node000003" class="edge">
<title>Node2&#45;&gt;Node3</title>
<g id="a_edge2_Node000002_Node000003"><a xlink:title=" ">
<path fill="none" stroke="#63b8ff" d="M1135.49,-165.25C1077.75,-148.02 957.41,-112.23 948,-110.5 764.72,-76.81 543.52,-68.54 439.92,-66.52"/>
<polygon fill="#63b8ff" stroke="#63b8ff" points="440.05,-63.02 429.98,-66.34 439.92,-70.02 440.05,-63.02"/>
</a>
</g>
</g>
<!-- Node2&#45;&gt;Node5 -->
<g id="edge4_Node000002_Node000005" class="edge">
<title>Node2&#45;&gt;Node5</title>
<g id="a_edge4_Node000002_Node000005"><a xlink:title=" ">
<path fill="none" stroke="#63b8ff" d="M1166.66,-165.58C1167.16,-158.99 1167.85,-149.71 1168.48,-141.32"/>
<polygon fill="#63b8ff" stroke="#63b8ff" points="1171.95,-141.85 1169.21,-131.62 1164.97,-141.33 1171.95,-141.85"/>
</a>
</g>
</g>
<!-- Node2&#45;&gt;Node6 -->
<g id="edge14_Node000002_Node000006" class="edge">
<title>Node2&#45;&gt;Node6</title>
<g id="a_edge14_Node000002_Node000006"><a xlink:title=" ">
<path fill="none" stroke="#63b8ff" d="M1184.33,-165.31C1199.95,-157.14 1222.56,-144.21 1240,-129.75 1256.57,-116.01 1272.64,-97.37 1283.46,-83.77"/>
<polygon fill="#63b8ff" stroke="#63b8ff" points="1286.05,-86.14 1289.43,-76.1 1280.53,-81.85 1286.05,-86.14"/>
</a>
</g>
</g>
<!-- Node7 -->
<g id="Node000007" class="node">
<title>Node7</title>
<g id="a_Node000007"><a xlink:href="../../d4/d2c/_utility_8hpp.html" target="_top" xlink:title=" ">
<polygon fill="white" stroke="#666666" points="939,-129.75 839,-129.75 839,-110.5 939,-110.5 939,-129.75"/>
<text text-anchor="middle" x="889" y="-116.25" font-family="Helvetica,sans-Serif" font-size="10.00">mimic++/Utility.hpp</text>
</a>
</g>
</g>
<!-- Node2&#45;&gt;Node7 -->
<g id="edge7_Node000002_Node000007" class="edge">
<title>Node2&#45;&gt;Node7</title>
<g id="a_edge7_Node000002_Node000007"><a xlink:title=" ">
<path fill="none" stroke="#63b8ff" d="M1119.64,-165.46C1072.39,-156.38 998.95,-142.26 947.68,-132.4"/>
<polygon fill="#63b8ff" stroke="#63b8ff" points="948.41,-128.98 937.93,-130.53 947.09,-135.86 948.41,-128.98"/>
</a>
</g>
</g>
<!-- Node10 -->
<g id="Node000010" class="node">
<title>Node10</title>
<g id="a_Node000010"><a xlink:title=" ">
<polygon fill="#e0e0e0" stroke="#999999" points="949.12,-74.5 864.88,-74.5 864.88,-55.25 949.12,-55.25 949.12,-74.5"/>
<text text-anchor="middle" x="907" y="-61" font-family="Helvetica,sans-Serif" font-size="10.00">source_location</text>
</a>
</g>
</g>
<!-- Node2&#45;&gt;Node10 -->
<g id="edge13_Node000002_Node000010" class="edge">
<title>Node2&#45;&gt;Node10</title>
<g id="a_edge13_Node000002_Node000010"><a xlink:title=" ">
<path fill="none" stroke="#63b8ff" d="M1144.36,-165.31C1098.85,-146.24 992.99,-101.9 939.37,-79.43"/>
<polygon fill="#63b8ff" stroke="#63b8ff" points="940.73,-76.21 930.15,-75.57 938.02,-82.67 940.73,-76.21"/>
</a>
</g>
</g>
<!-- Node2&#45;&gt;Node11 -->
<g id="edge15_Node000002_Node000011" class="edge">
<title>Node2&#45;&gt;Node11</title>
<g id="a_edge15_Node000002_Node000011"><a xlink:title=" ">
<path fill="none" stroke="#63b8ff" d="M1152.55,-165.31C1124.9,-146.68 1061.42,-103.9 1027.44,-81"/>
<polygon fill="#63b8ff" stroke="#63b8ff" points="1029.8,-78.37 1019.55,-75.68 1025.89,-84.17 1029.8,-78.37"/>
</a>
</g>
</g>
<!-- Node4 -->
<g id="Node000004" class="node">
<title>Node4</title>
<g id="a_Node000004"><a xlink:title=" ">
<polygon fill="#e0e0e0" stroke="#999999" points="438,-19.25 398,-19.25 398,0 438,0 438,-19.25"/>
<text text-anchor="middle" x="418" y="-5.75" font-family="Helvetica,sans-Serif" font-size="10.00">string</text>
</a>
</g>
</g>
<!-- Node3&#45;&gt;Node4 -->
<g id="edge3_Node000003_Node000004" class="edge">
<title>Node3&#45;&gt;Node4</title>
<g id="a_edge3_Node000003_Node000004"><a xlink:title=" ">
<path fill="none" stroke="#63b8ff" d="M387.11,-55.08C392.06,-47.96 399.2,-37.68 405.37,-28.8"/>
<polygon fill="#63b8ff" stroke="#63b8ff" points="408.06,-31.06 410.89,-20.85 402.31,-27.07 408.06,-31.06"/>
</a>
</g>
</g>
<!-- Node5&#45;&gt;Node3 -->
<g id="edge5_Node000005_Node000003" class="edge">
<title>Node5&#45;&gt;Node3</title>
<g id="a_edge5_Node000005_Node000003"><a xlink:title=" ">
<path fill="none" stroke="#63b8ff" d="M1109.07,-115.01C961.26,-105.04 585.13,-79.65 439.67,-69.83"/>
<polygon fill="#63b8ff" stroke="#63b8ff" points="440.09,-66.36 429.88,-69.17 439.62,-73.34 440.09,-66.36"/>
</a>
</g>
</g>
<!-- Node5&#45;&gt;Node6 -->
<g id="edge6_Node000005_Node000006" class="edge">
<title>Node5&#45;&gt;Node6</title>
<g id="a_edge6_Node000005_Node000006"><a xlink:title=" ">
<path fill="none" stroke="#63b8ff" d="M1191.54,-110.09C1212.56,-101.28 1244.67,-87.81 1267.94,-78.06"/>
<polygon fill="#63b8ff" stroke="#63b8ff" points="1268.99,-81.42 1276.86,-74.32 1266.28,-74.96 1268.99,-81.42"/>
</a>
</g>
</g>
<!-- Node7&#45;&gt;Node3 -->
<g id="edge8_Node000007_Node000003" class="edge">
<title>Node7&#45;&gt;Node3</title>
<g id="a_edge8_Node000007_Node000003"><a xlink:title=" ">
<path fill="none" stroke="#63b8ff" d="M838.81,-111.63C835.83,-111.23 832.88,-110.85 830,-110.5 690.25,-93.35 525.4,-78.28 439.59,-70.83"/>
<polygon fill="#63b8ff" stroke="#63b8ff" points="440.04,-67.36 429.78,-69.98 439.44,-74.33 440.04,-67.36"/>
</a>
</g>
</g>
<!-- Node7&#45;&gt;Node8 -->
<g id="edge9_Node000007_Node000008" class="edge">
<title>Node7&#45;&gt;Node8</title>
<g id="a_edge9_Node000007_Node000008"><a xlink:title=" ">
<path fill="none" stroke="#63b8ff" d="M838.51,-111.45C835.63,-111.11 832.78,-110.78 830,-110.5 554.33,-82.25 219.98,-70.23 111.68,-66.9"/>
<polygon fill="#63b8ff" stroke="#63b8ff" points="112.09,-63.41 101.98,-66.6 111.87,-70.4 112.09,-63.41"/>
</a>
</g>
</g>
<!-- Node9 -->
<g id="Node000009" class="node">
<title>Node9</title>
<g id="a_Node000009"><a xlink:title=" ">
<polygon fill="#e0e0e0" stroke="#999999" points="847.12,-74.5 798.88,-74.5 798.88,-55.25 847.12,-55.25 847.12,-74.5"/>
<text text-anchor="middle" x="823" y="-61" font-family="Helvetica,sans-Serif" font-size="10.00">cstddef</text>
</a>
</g>
</g>
<!-- Node7&#45;&gt;Node9 -->
<g id="edge10_Node000007_Node000009" class="edge">
<title>Node7&#45;&gt;Node9</title>
<g id="a_edge10_Node000007_Node000009"><a xlink:title=" ">
<path fill="none" stroke="#63b8ff" d="M877.8,-110.09C868.26,-102.4 854.33,-91.15 842.89,-81.93"/>
<polygon fill="#63b8ff" stroke="#63b8ff" points="845.19,-79.28 835.21,-75.73 840.79,-84.73 845.19,-79.28"/>
</a>
</g>
</g>
<!-- Node7&#45;&gt;Node10 -->
<g id="edge11_Node000007_Node000010" class="edge">
<title>Node7&#45;&gt;Node10</title>
<g id="a_edge11_Node000007_Node000010"><a xlink:title=" ">
<path fill="none" stroke="#63b8ff" d="M891.97,-110.33C894.25,-103.59 897.49,-94.02 900.37,-85.49"/>
<polygon fill="#63b8ff" stroke="#63b8ff" points="903.59,-86.89 903.48,-76.29 896.96,-84.65 903.59,-86.89"/>
</a>
</g>
</g>
<!-- Node7&#45;&gt;Node11 -->
<g id="edge12_Node000007_Node000011" class="edge">
<title>Node7&#45;&gt;Node11</title>
<g id="a_edge12_Node000007_Node000011"><a xlink:title=" ">
<path fill="none" stroke="#63b8ff" d="M908.68,-110.09C926.95,-101.7 954.41,-89.1 975.35,-79.49"/>
<polygon fill="#63b8ff" stroke="#63b8ff" points="976.61,-82.76 984.24,-75.41 973.69,-76.4 976.61,-82.76"/>
</a>
</g>
</g>
<!-- Node12&#45;&gt;Node6 -->
<g id="edge68_Node000012_Node000006" class="edge">
<title>Node12&#45;&gt;Node6</title>
<g id="a_edge68_Node000012_Node000006"><a xlink:title=" ">
<path fill="none" stroke="#63b8ff" d="M1037.08,-386.32C1071.3,-379.56 1114.5,-368.38 1150,-350.75 1185.5,-333.12 1191.76,-323.31 1220,-295.5 1242.56,-273.28 1250.3,-268.3 1265,-240.25 1276.87,-217.61 1275.73,-210.02 1281,-185 1288.22,-150.72 1292.86,-110.16 1295.19,-86.31"/>
<polygon fill="#63b8ff" stroke="#63b8ff" points="1298.66,-86.71 1296.11,-76.43 1291.69,-86.06 1298.66,-86.71"/>
</a>
</g>
</g>
<!-- Node12&#45;&gt;Node7 -->
<g id="edge62_Node000012_Node000007" class="edge">
<title>Node12&#45;&gt;Node7</title>
<g id="a_edge62_Node000012_Node000007"><a xlink:title=" ">
<path fill="none" stroke="#63b8ff" d="M987.5,-386.59C1021.37,-354.21 1131.14,-239.68 1073,-165.75 1065.21,-155.84 1000.69,-141.78 950.22,-132.11"/>
<polygon fill="#63b8ff" stroke="#63b8ff" points="951.01,-128.7 940.53,-130.27 949.7,-135.57 951.01,-128.7"/>
</a>
</g>
</g>
<!-- Node12&#45;&gt;Node8 -->
<g id="edge63_Node000012_Node000008" class="edge">
<title>Node12&#45;&gt;Node8</title>
<g id="a_edge63_Node000012_Node000008"><a xlink:title=" ">
<path fill="none" stroke="#63b8ff" d="M911.56,-394.04C764.31,-390.58 414.48,-379.52 300,-350.75 175.94,-319.57 38,-359.54 38,-231.62 38,-231.62 38,-231.62 38,-174.38 38,-141.38 53.84,-105.76 65.07,-84.66"/>
<polygon fill="#63b8ff" stroke="#63b8ff" points="68.02,-86.55 69.82,-76.11 61.9,-83.15 68.02,-86.55"/>
</a>
</g>
</g>
<!-- Node12&#45;&gt;Node11 -->
<g id="edge69_Node000012_Node000011" class="edge">
<title>Node12&#45;&gt;Node11</title>
<g id="a_edge69_Node000012_Node000011"><a xlink:title=" ">
<path fill="none" stroke="#63b8ff" d="M1034.52,-386.27C1062.89,-379.73 1096.72,-368.78 1123,-350.75 1220.94,-283.57 1315.74,-201.98 1240,-110.5 1214.41,-79.59 1093.54,-69.92 1035.82,-67.03"/>
<polygon fill="#63b8ff" stroke="#63b8ff" points="1036.18,-63.55 1026.03,-66.58 1035.86,-70.54 1036.18,-63.55"/>
</a>
</g>
</g>
<!-- Node13 -->
<g id="Node000013" class="node">
<title>Node13</title>
<g id="a_Node000013"><a xlink:href="../../d0/d3b/_reports_8hpp.html" target="_top" xlink:title=" ">
<polygon fill="white" stroke="#666666" points="883.5,-240.25 774.5,-240.25 774.5,-221 883.5,-221 883.5,-240.25"/>
<text text-anchor="middle" x="829" y="-226.75" font-family="Helvetica,sans-Serif" font-size="10.00">mimic++/Reports.hpp</text>
</a>
</g>
</g>
<!-- Node12&#45;&gt;Node13 -->
<g id="edge17_Node000012_Node000013" class="edge">
<title>Node12&#45;&gt;Node13</title>
<g id="a_edge17_Node000012_Node000013"><a xlink:title=" ">
<path fill="none" stroke="#63b8ff" d="M915.68,-386.3C892.93,-379.94 868.91,-369.13 853,-350.75 829.03,-323.05 826.53,-278.11 827.41,-252.07"/>
<polygon fill="#63b8ff" stroke="#63b8ff" points="830.9,-252.36 827.97,-242.18 823.91,-251.96 830.9,-252.36"/>
</a>
</g>
</g>
<!-- Node21 -->
<g id="Node000021" class="node">
<title>Node21</title>
<g id="a_Node000021"><a xlink:title=" ">
<polygon fill="#e0e0e0" stroke="#999999" points="999.88,-185 950.12,-185 950.12,-165.75 999.88,-165.75 999.88,-185"/>
<text text-anchor="middle" x="975" y="-171.5" font-family="Helvetica,sans-Serif" font-size="10.00">optional</text>
</a>
</g>
</g>
<!-- Node12&#45;&gt;Node21 -->
<g id="edge66_Node000012_Node000021" class="edge">
<title>Node12&#45;&gt;Node21</title>
<g id="a_edge66_Node000012_Node000021"><a xlink:title=" ">
<path fill="none" stroke="#63b8ff" d="M980.32,-386.56C982.54,-377.62 985.74,-363.33 987,-350.75 992.56,-295.04 983.87,-229.05 978.59,-196.54"/>
<polygon fill="#63b8ff" stroke="#63b8ff" points="982.08,-196.23 976.96,-186.96 975.18,-197.41 982.08,-196.23"/>
</a>
</g>
</g>
<!-- Node12&#45;&gt;Node25 -->
<g id="edge70_Node000012_Node000025" class="edge">
<title>Node12&#45;&gt;Node25</title>
<g id="a_edge70_Node000012_Node000025"><a xlink:title=" ">
<path fill="none" stroke="#63b8ff" d="M911.42,-391.34C728.98,-379.71 230.96,-343.82 176,-295.5 147.41,-270.37 141.12,-223.41 139.98,-196.57"/>
<polygon fill="#63b8ff" stroke="#63b8ff" points="143.48,-196.64 139.79,-186.71 136.48,-196.77 143.48,-196.64"/>
</a>
</g>
</g>
<!-- Node26 -->
<g id="Node000026" class="node">
<title>Node26</title>
<g id="a_Node000026"><a xlink:href="../../d8/de4/_sequence_8hpp.html" target="_top" xlink:title=" ">
<polygon fill="white" stroke="#666666" points="635.38,-350.75 516.62,-350.75 516.62,-331.5 635.38,-331.5 635.38,-350.75"/>
<text text-anchor="middle" x="576" y="-337.25" font-family="Helvetica,sans-Serif" font-size="10.00">mimic++/Sequence.hpp</text>
</a>
</g>
</g>
<!-- Node12&#45;&gt;Node26 -->
<g id="edge39_Node000012_Node000026" class="edge">
<title>Node12&#45;&gt;Node26</title>
<g id="a_edge39_Node000012_Node000026"><a xlink:title=" ">
<path fill="none" stroke="#63b8ff" d="M911.62,-386.58C838.54,-376.9 721.54,-361.4 646.76,-351.5"/>
<polygon fill="#63b8ff" stroke="#63b8ff" points="647.46,-348.06 637.09,-350.22 646.54,-355 647.46,-348.06"/>
</a>
</g>
</g>
<!-- Node12&#45;&gt;Node29 -->
<g id="edge65_Node000012_Node000029" class="edge">
<title>Node12&#45;&gt;Node29</title>
<g id="a_edge65_Node000012_Node000029"><a xlink:title=" ">
<path fill="none" stroke="#63b8ff" d="M1022.59,-386.26C1047.09,-379.56 1076.89,-368.45 1099,-350.75 1133.01,-323.52 1156.78,-277.04 1168.23,-250.91"/>
<polygon fill="#63b8ff" stroke="#63b8ff" points="1171.38,-252.46 1172.03,-241.88 1164.93,-249.74 1171.38,-252.46"/>
</a>
</g>
</g>
<!-- Node32 -->
<g id="Node000032" class="node">
<title>Node32</title>
<g id="a_Node000032"><a xlink:title=" ">
<polygon fill="#e0e0e0" stroke="#999999" points="901.62,-350.75 862.38,-350.75 862.38,-331.5 901.62,-331.5 901.62,-350.75"/>
<text text-anchor="middle" x="882" y="-337.25" font-family="Helvetica,sans-Serif" font-size="10.00">limits</text>
</a>
</g>
</g>
<!-- Node12&#45;&gt;Node32 -->
<g id="edge64_Node000012_Node000032" class="edge">
<title>Node12&#45;&gt;Node32</title>
<g id="a_edge64_Node000012_Node000032"><a xlink:title=" ">
<path fill="none" stroke="#63b8ff" d="M961.71,-386.34C947.1,-378.23 925.37,-366.18 908.29,-356.71"/>
<polygon fill="#63b8ff" stroke="#63b8ff" points="910.13,-353.73 899.69,-351.94 906.74,-359.85 910.13,-353.73"/>
</a>
</g>
</g>
<!-- Node33 -->
<g id="Node000033" class="node">
<title>Node33</title>
<g id="a_Node000033"><a xlink:title=" ">
<polygon fill="#e0e0e0" stroke="#999999" points="978,-350.75 920,-350.75 920,-331.5 978,-331.5 978,-350.75"/>
<text text-anchor="middle" x="949" y="-337.25" font-family="Helvetica,sans-Serif" font-size="10.00">stdexcept</text>
</a>
</g>
</g>
<!-- Node12&#45;&gt;Node33 -->
<g id="edge67_Node000012_Node000033" class="edge">
<title>Node12&#45;&gt;Node33</title>
<g id="a_edge67_Node000012_Node000033"><a xlink:title=" ">
<path fill="none" stroke="#63b8ff" d="M973.21,-386.58C969.46,-379.69 964.09,-369.84 959.37,-361.16"/>
<polygon fill="#63b8ff" stroke="#63b8ff" points="962.47,-359.55 954.62,-352.44 956.33,-362.89 962.47,-359.55"/>
</a>
</g>
</g>
<!-- Node13&#45;&gt;Node2 -->
<g id="edge18_Node000013_Node000002" class="edge">
<title>Node13&#45;&gt;Node2</title>
<g id="a_edge18_Node000013_Node000002"><a xlink:title=" ">
<path fill="none" stroke="#63b8ff" d="M883.89,-220.95C945.7,-211.19 1045.67,-195.39 1108.52,-185.46"/>
<polygon fill="#63b8ff" stroke="#63b8ff" points="1108.98,-188.93 1118.31,-183.91 1107.89,-182.01 1108.98,-188.93"/>
</a>
</g>
</g>
<!-- Node13&#45;&gt;Node3 -->
<g id="edge19_Node000013_Node000003" class="edge">
<title>Node13&#45;&gt;Node3</title>
<g id="a_edge19_Node000013_Node000003"><a xlink:title=" ">
<path fill="none" stroke="#63b8ff" d="M774,-224.78C720.24,-218.99 636.57,-207.18 567,-185 548.2,-179.01 545.34,-173.02 527,-165.75 477.6,-146.18 453.43,-164.23 413,-129.75 399.43,-118.18 391.01,-99.46 386.24,-85.27"/>
<polygon fill="#63b8ff" stroke="#63b8ff" points="389.72,-84.69 383.49,-76.13 383.01,-86.71 389.72,-84.69"/>
</a>
</g>
</g>
<!-- Node14 -->
<g id="Node000014" class="node">
<title>Node14</title>
<g id="a_Node000014"><a xlink:href="../../da/dab/_printer_8hpp.html" target="_top" xlink:title=" ">
<polygon fill="white" stroke="#666666" points="679.88,-185 576.12,-185 576.12,-165.75 679.88,-165.75 679.88,-185"/>
<text text-anchor="middle" x="628" y="-171.5" font-family="Helvetica,sans-Serif" font-size="10.00">mimic++/Printer.hpp</text>
</a>
</g>
</g>
<!-- Node13&#45;&gt;Node14 -->
<g id="edge20_Node000013_Node000014" class="edge">
<title>Node13&#45;&gt;Node14</title>
<g id="a_edge20_Node000013_Node000014"><a xlink:title=" ">
<path fill="none" stroke="#63b8ff" d="M794.9,-220.59C761.41,-211.72 710.1,-198.12 673.21,-188.35"/>
<polygon fill="#63b8ff" stroke="#63b8ff" points="674.29,-185.02 663.73,-185.84 672.5,-191.78 674.29,-185.02"/>
</a>
</g>
</g>
<!-- Node15 -->
<g id="Node000015" class="node">
<title>Node15</title>
<g id="a_Node000015"><a xlink:title=" ">
<polygon fill="#e0e0e0" stroke="#999999" points="352,-129.75 294,-129.75 294,-110.5 352,-110.5 352,-129.75"/>
<text text-anchor="middle" x="323" y="-116.25" font-family="Helvetica,sans-Serif" font-size="10.00">functional</text>
</a>
</g>
</g>
<!-- Node13&#45;&gt;Node15 -->
<g id="edge32_Node000013_Node000015" class="edge">
<title>Node13&#45;&gt;Node15</title>
<g id="a_edge32_Node000013_Node000015"><a xlink:title=" ">
<path fill="none" stroke="#63b8ff" d="M774.21,-225.8C714.25,-220.58 615.76,-209 534,-185 513.91,-179.1 510.74,-172.74 491,-165.75 448.19,-150.59 397.66,-137.84 363.27,-129.89"/>
<polygon fill="#63b8ff" stroke="#63b8ff" points="364.27,-126.53 353.74,-127.72 362.72,-133.36 364.27,-126.53"/>
</a>
</g>
</g>
<!-- Node16 -->
<g id="Node000016" class="node">
<title>Node16</title>
<g id="a_Node000016"><a xlink:title=" ">
<polygon fill="#e0e0e0" stroke="#999999" points="821,-129.75 775,-129.75 775,-110.5 821,-110.5 821,-129.75"/>
<text text-anchor="middle" x="798" y="-116.25" font-family="Helvetica,sans-Serif" font-size="10.00">iterator</text>
</a>
</g>
</g>
<!-- Node13&#45;&gt;Node16 -->
<g id="edge33_Node000013_Node000016" class="edge">
<title>Node13&#45;&gt;Node16</title>
<g id="a_edge33_Node000013_Node000016"><a xlink:title=" ">
<path fill="none" stroke="#63b8ff" d="M854.8,-220.6C881.95,-209.61 918.73,-189.53 903,-165.75 894.74,-153.26 859.62,-139.96 832.24,-131.16"/>
<polygon fill="#63b8ff" stroke="#63b8ff" points="833.49,-127.89 822.9,-128.25 831.41,-134.57 833.49,-127.89"/>
</a>
</g>
</g>
<!-- Node20 -->
<g id="Node000020" class="node">
<title>Node20</title>
<g id="a_Node000020"><a xlink:title=" ">
<polygon fill="#e0e0e0" stroke="#999999" points="481.88,-185 426.12,-185 426.12,-165.75 481.88,-165.75 481.88,-185"/>
<text text-anchor="middle" x="454" y="-171.5" font-family="Helvetica,sans-Serif" font-size="10.00">algorithm</text>
</a>
</g>
</g>
<!-- Node13&#45;&gt;Node20 -->
<g id="edge31_Node000013_Node000020" class="edge">
<title>Node13&#45;&gt;Node20</title>
<g id="a_edge31_Node000013_Node000020"><a xlink:title=" ">
<path fill="none" stroke="#63b8ff" d="M774.02,-223.44C707.86,-215.73 593.48,-201.52 496,-185 495,-184.83 494,-184.66 492.98,-184.48"/>
<polygon fill="#63b8ff" stroke="#63b8ff" points="493.93,-181.09 483.45,-182.68 492.63,-187.97 493.93,-181.09"/>
</a>
</g>
</g>
<!-- Node13&#45;&gt;Node21 -->
<g id="edge34_Node000013_Node000021" class="edge">
<title>Node13&#45;&gt;Node21</title>
<g id="a_edge34_Node000013_Node000021"><a xlink:title=" ">
<path fill="none" stroke="#63b8ff" d="M853.77,-220.59C877.26,-212.02 912.81,-199.06 939.35,-189.38"/>
<polygon fill="#63b8ff" stroke="#63b8ff" points="940.49,-192.69 948.69,-185.97 938.1,-186.11 940.49,-192.69"/>
</a>
</g>
</g>
<!-- Node13&#45;&gt;Node22 -->
<g id="edge35_Node000013_Node000022" class="edge">
<title>Node13&#45;&gt;Node22</title>
<g id="a_edge35_Node000013_Node000022"><a xlink:title=" ">
<path fill="none" stroke="#63b8ff" d="M866.63,-220.53C900.81,-212.22 952.88,-199.43 1007.08,-185.46"/>
<polygon fill="#63b8ff" stroke="#63b8ff" points="1007.67,-188.92 1016.48,-183.03 1005.92,-182.14 1007.67,-188.92"/>
</a>
</g>
</g>
<!-- Node23 -->
<g id="Node000023" class="node">
<title>Node23</title>
<g id="a_Node000023"><a xlink:title=" ">
<polygon fill="#e0e0e0" stroke="#999999" points="894.25,-185 837.75,-185 837.75,-165.75 894.25,-165.75 894.25,-185"/>
<text text-anchor="middle" x="866" y="-171.5" font-family="Helvetica,sans-Serif" font-size="10.00">typeindex</text>
</a>
</g>
</g>
<!-- Node13&#45;&gt;Node23 -->
<g id="edge36_Node000013_Node000023" class="edge">
<title>Node13&#45;&gt;Node23</title>
<g id="a_edge36_Node000013_Node000023"><a xlink:title=" ">
<path fill="none" stroke="#63b8ff" d="M835.11,-220.83C840.06,-213.71 847.2,-203.43 853.37,-194.55"/>
<polygon fill="#63b8ff" stroke="#63b8ff" points="856.06,-196.81 858.89,-186.6 850.31,-192.82 856.06,-196.81"/>
</a>
</g>
</g>
<!-- Node24 -->
<g id="Node000024" class="node">
<title>Node24</title>
<g id="a_Node000024"><a xlink:title=" ">
<polygon fill="#e0e0e0" stroke="#999999" points="819.62,-185 774.38,-185 774.38,-165.75 819.62,-165.75 819.62,-185"/>
<text text-anchor="middle" x="797" y="-171.5" font-family="Helvetica,sans-Serif" font-size="10.00">variant</text>
</a>
</g>
</g>
<!-- Node13&#45;&gt;Node24 -->
<g id="edge37_Node000013_Node000024" class="edge">
<title>Node13&#45;&gt;Node24</title>
<g id="a_edge37_Node000013_Node000024"><a xlink:title=" ">
<path fill="none" stroke="#63b8ff" d="M823.72,-220.83C819.53,-213.86 813.52,-203.87 808.27,-195.12"/>
<polygon fill="#63b8ff" stroke="#63b8ff" points="811.33,-193.43 803.18,-186.66 805.33,-197.03 811.33,-193.43"/>
</a>
</g>
</g>
<!-- Node13&#45;&gt;Node25 -->
<g id="edge38_Node000013_Node000025" class="edge">
<title>Node13&#45;&gt;Node25</title>
<g id="a_edge38_Node000013_Node000025"><a xlink:title=" ">
<path fill="none" stroke="#63b8ff" d="M774.07,-225.38C637.02,-214.79 283.12,-187.44 173.12,-178.93"/>
<polygon fill="#63b8ff" stroke="#63b8ff" points="173.55,-175.46 163.31,-178.18 173.01,-182.44 173.55,-175.46"/>
</a>
</g>
</g>
<!-- Node14&#45;&gt;Node3 -->
<g id="edge21_Node000014_Node000003" class="edge">
<title>Node14&#45;&gt;Node3</title>
<g id="a_edge21_Node000014_Node000003"><a xlink:title=" ">
<path fill="none" stroke="#63b8ff" d="M575.76,-165.26C529.02,-156.5 464.53,-142.71 442,-129.75 422.13,-118.32 404.66,-98.46 393.57,-83.91"/>
<polygon fill="#63b8ff" stroke="#63b8ff" points="396.57,-82.09 387.85,-76.07 390.92,-86.21 396.57,-82.09"/>
</a>
</g>
</g>
<!-- Node14&#45;&gt;Node4 -->
<g id="edge27_Node000014_Node000004" class="edge">
<title>Node14&#45;&gt;Node4</title>
<g id="a_edge27_Node000014_Node000004"><a xlink:title=" ">
<path fill="none" stroke="#63b8ff" d="M581.84,-165.25C542.97,-156.8 491.19,-143.5 475,-129.75 466.79,-122.78 439.92,-61.85 426.21,-29.94"/>
<polygon fill="#63b8ff" stroke="#63b8ff" points="429.55,-28.86 422.4,-21.04 423.12,-31.61 429.55,-28.86"/>
</a>
</g>
</g>
<!-- Node14&#45;&gt;Node7 -->
<g id="edge22_Node000014_Node000007" class="edge">
<title>Node14&#45;&gt;Node7</title>
<g id="a_edge22_Node000014_Node000007"><a xlink:title=" ">
<path fill="none" stroke="#63b8ff" d="M672.57,-165.28C717.05,-156.21 785.51,-142.24 833.49,-132.45"/>
<polygon fill="#63b8ff" stroke="#63b8ff" points="834.03,-135.91 843.13,-130.48 832.63,-129.05 834.03,-135.91"/>
</a>
</g>
</g>
<!-- Node14&#45;&gt;Node10 -->
<g id="edge25_Node000014_Node000010" class="edge">
<title>Node14&#45;&gt;Node10</title>
<g id="a_edge25_Node000014_Node000010"><a xlink:title=" ">
<path fill="none" stroke="#63b8ff" d="M639.97,-165.45C658.82,-151.79 697.02,-125.66 733,-110.5 771.9,-94.11 818.3,-82.58 853.41,-75.35"/>
<polygon fill="#63b8ff" stroke="#63b8ff" points="853.78,-78.84 862.9,-73.45 852.4,-71.98 853.78,-78.84"/>
</a>
</g>
</g>
<!-- Node14&#45;&gt;Node11 -->
<g id="edge29_Node000014_Node000011" class="edge">
<title>Node14&#45;&gt;Node11</title>
<g id="a_edge29_Node000014_Node000011"><a xlink:title=" ">
<path fill="none" stroke="#63b8ff" d="M649.46,-165.36C670.03,-156.61 701.87,-142.78 729,-129.75 745.71,-121.72 748.48,-116.54 766,-110.5 768.47,-109.65 910.33,-83.38 974.3,-71.55"/>
<polygon fill="#63b8ff" stroke="#63b8ff" points="974.6,-75.05 983.79,-69.79 973.32,-68.17 974.6,-75.05"/>
</a>
</g>
</g>
<!-- Node14&#45;&gt;Node15 -->
<g id="edge23_Node000014_Node000015" class="edge">
<title>Node14&#45;&gt;Node15</title>
<g id="a_edge23_Node000014_Node000015"><a xlink:title=" ">
<path fill="none" stroke="#63b8ff" d="M575.92,-165.28C515.84,-154.79 418.34,-137.77 363.6,-128.21"/>
<polygon fill="#63b8ff" stroke="#63b8ff" points="364.22,-124.77 353.77,-126.5 363.02,-131.66 364.22,-124.77"/>
</a>
</g>
</g>
<!-- Node14&#45;&gt;Node16 -->
<g id="edge24_Node000014_Node000016" class="edge">
<title>Node14&#45;&gt;Node16</title>
<g id="a_edge24_Node000014_Node000016"><a xlink:title=" ">
<path fill="none" stroke="#63b8ff" d="M656.84,-165.34C686.37,-156.09 732.26,-141.72 763.65,-131.88"/>
<polygon fill="#63b8ff" stroke="#63b8ff" points="764.56,-135.27 773.06,-128.94 762.47,-128.59 764.56,-135.27"/>
</a>
</g>
</g>
<!-- Node17 -->
<g id="Node000017" class="node">
<title>Node17</title>
<g id="a_Node000017"><a xlink:title=" ">
<polygon fill="#e0e0e0" stroke="#999999" points="597.62,-129.75 546.38,-129.75 546.38,-110.5 597.62,-110.5 597.62,-129.75"/>
<text text-anchor="middle" x="572" y="-116.25" font-family="Helvetica,sans-Serif" font-size="10.00">sstream</text>
</a>
</g>
</g>
<!-- Node14&#45;&gt;Node17 -->
<g id="edge26_Node000014_Node000017" class="edge">
<title>Node14&#45;&gt;Node17</title>
<g id="a_edge26_Node000014_Node000017"><a xlink:title=" ">
<path fill="none" stroke="#63b8ff" d="M618.5,-165.34C610.57,-157.8 599.05,-146.85 589.46,-137.73"/>
<polygon fill="#63b8ff" stroke="#63b8ff" points="592.11,-135.42 582.46,-131.07 587.29,-140.49 592.11,-135.42"/>
</a>
</g>
</g>
<!-- Node18 -->
<g id="Node000018" class="node">
<title>Node18</title>
<g id="a_Node000018"><a xlink:title=" ">
<polygon fill="#e0e0e0" stroke="#999999" points="680.75,-129.75 615.25,-129.75 615.25,-110.5 680.75,-110.5 680.75,-129.75"/>
<text text-anchor="middle" x="648" y="-116.25" font-family="Helvetica,sans-Serif" font-size="10.00">string_view</text>
</a>
</g>
</g>
<!-- Node14&#45;&gt;Node18 -->
<g id="edge28_Node000014_Node000018" class="edge">
<title>Node14&#45;&gt;Node18</title>
<g id="a_edge28_Node000014_Node000018"><a xlink:title=" ">
<path fill="none" stroke="#63b8ff" d="M631.3,-165.58C633.83,-158.84 637.43,-149.27 640.63,-140.74"/>
<polygon fill="#63b8ff" stroke="#63b8ff" points="643.85,-142.12 644.09,-131.53 637.3,-139.66 643.85,-142.12"/>
</a>
</g>
</g>
<!-- Node19 -->
<g id="Node000019" class="node">
<title>Node19</title>
<g id="a_Node000019"><a xlink:title=" ">
<polygon fill="#e0e0e0" stroke="#999999" points="527.88,-129.75 484.12,-129.75 484.12,-110.5 527.88,-110.5 527.88,-129.75"/>
<text text-anchor="middle" x="506" y="-116.25" font-family="Helvetica,sans-Serif" font-size="10.00">format</text>
</a>
</g>
</g>
<!-- Node14&#45;&gt;Node19 -->
<g id="edge30_Node000014_Node000019" class="edge">
<title>Node14&#45;&gt;Node19</title>
<g id="a_edge30_Node000014_Node000019"><a xlink:title=" ">
<path fill="none" stroke="#63b8ff" d="M607.3,-165.34C588.11,-156.97 559.29,-144.38 537.28,-134.78"/>
<polygon fill="#63b8ff" stroke="#63b8ff" points="538.75,-131.6 528.18,-130.81 535.95,-138.02 538.75,-131.6"/>
</a>
</g>
</g>
<!-- Node26&#45;&gt;Node3 -->
<g id="edge40_Node000026_Node000003" class="edge">
<title>Node26&#45;&gt;Node3</title>
<g id="a_edge40_Node000026_Node000003"><a xlink:title=" ">
<path fill="none" stroke="#63b8ff" d="M516.53,-335.78C408.26,-326.21 190,-298.63 190,-231.62 190,-231.62 190,-231.62 190,-174.38 190,-112.65 266.34,-85.61 322.5,-74.06"/>
<polygon fill="#63b8ff" stroke="#63b8ff" points="323.14,-77.5 332.3,-72.18 321.82,-70.63 323.14,-77.5"/>
</a>
</g>
</g>
<!-- Node26&#45;&gt;Node6 -->
<g id="edge61_Node000026_Node000006" class="edge">
<title>Node26&#45;&gt;Node6</title>
<g id="a_edge61_Node000026_Node000006"><a xlink:title=" ">
<path fill="none" stroke="#63b8ff" d="M621.62,-331.06C760.25,-303.24 1170.19,-218.95 1221,-185 1257.26,-160.77 1279.81,-112.75 1290.21,-85.66"/>
<polygon fill="#63b8ff" stroke="#63b8ff" points="1293.49,-86.86 1293.61,-76.27 1286.91,-84.48 1293.49,-86.86"/>
</a>
</g>
</g>
<!-- Node26&#45;&gt;Node7 -->
<g id="edge55_Node000026_Node000007" class="edge">
<title>Node26&#45;&gt;Node7</title>
<g id="a_edge55_Node000026_Node000007"><a xlink:title=" ">
<path fill="none" stroke="#63b8ff" d="M633.49,-331.04C656.43,-324.67 681.3,-313.85 698,-295.5 738.12,-251.41 690.28,-208.34 732,-165.75 745.58,-151.89 789.58,-140.08 827.55,-132.1"/>
<polygon fill="#63b8ff" stroke="#63b8ff" points="828.01,-135.58 837.1,-130.16 826.61,-128.72 828.01,-135.58"/>
</a>
</g>
</g>
<!-- Node26&#45;&gt;Node8 -->
<g id="edge58_Node000026_Node000008" class="edge">
<title>Node26&#45;&gt;Node8</title>
<g id="a_edge58_Node000026_Node000008"><a xlink:title=" ">
<path fill="none" stroke="#63b8ff" d="M516.38,-336.98C430.33,-331.7 276.11,-319.2 226,-295.5 161.34,-264.92 145.9,-246.27 109,-185 90.05,-153.53 81.69,-110.89 78.23,-86.08"/>
<polygon fill="#63b8ff" stroke="#63b8ff" points="81.73,-85.88 77.02,-76.39 74.78,-86.75 81.73,-85.88"/>
</a>
</g>
</g>
<!-- Node26&#45;&gt;Node14 -->
<g id="edge41_Node000026_Node000014" class="edge">
<title>Node26&#45;&gt;Node14</title>
<g id="a_edge41_Node000026_Node000014"><a xlink:title=" ">
<path fill="none" stroke="#63b8ff" d="M583.06,-331.08C589.47,-322.42 598.71,-308.75 604,-295.5 617.25,-262.28 623.48,-220.82 626.17,-196.6"/>
<polygon fill="#63b8ff" stroke="#63b8ff" points="629.63,-197.16 627.15,-186.86 622.67,-196.46 629.63,-197.16"/>
</a>
</g>
</g>
<!-- Node26&#45;&gt;Node15 -->
<g id="edge59_Node000026_Node000015" class="edge">
<title>Node26&#45;&gt;Node15</title>
<g id="a_edge59_Node000026_Node000015"><a xlink:title=" ">
<path fill="none" stroke="#63b8ff" d="M516.48,-333C466.43,-325.87 399.93,-313.4 380,-295.5 334.64,-254.76 325.24,-177.45 323.39,-141.03"/>
<polygon fill="#63b8ff" stroke="#63b8ff" points="326.91,-141.37 323.06,-131.5 319.91,-141.62 326.91,-141.37"/>
</a>
</g>
</g>
<!-- Node26&#45;&gt;Node20 -->
<g id="edge56_Node000026_Node000020" class="edge">
<title>Node26&#45;&gt;Node20</title>
<g id="a_edge56_Node000026_Node000020"><a xlink:title=" ">
<path fill="none" stroke="#63b8ff" d="M569.44,-331.32C550.16,-305.44 493.39,-229.25 467.34,-194.28"/>
<polygon fill="#63b8ff" stroke="#63b8ff" points="470.28,-192.36 461.5,-186.44 464.66,-196.55 470.28,-192.36"/>
</a>
</g>
</g>
<!-- Node26&#45;&gt;Node27 -->
<g id="edge42_Node000026_Node000027" class="edge">
<title>Node26&#45;&gt;Node27</title>
<g id="a_edge42_Node000026_Node000027"><a xlink:title=" ">
<path fill="none" stroke="#63b8ff" d="M553.78,-331.09C532.98,-322.64 501.65,-309.9 477.95,-300.27"/>
<polygon fill="#63b8ff" stroke="#63b8ff" points="479.32,-297.05 468.73,-296.52 476.68,-303.53 479.32,-297.05"/>
</a>
</g>
</g>
<!-- Node30 -->
<g id="Node000030" class="node">
<title>Node30</title>
<g id="a_Node000030"><a xlink:title=" ">
<polygon fill="#e0e0e0" stroke="#999999" points="688.5,-295.5 651.5,-295.5 651.5,-276.25 688.5,-276.25 688.5,-295.5"/>
<text text-anchor="middle" x="670" y="-282" font-family="Helvetica,sans-Serif" font-size="10.00">array</text>
</a>
</g>
</g>
<!-- Node26&#45;&gt;Node30 -->
<g id="edge57_Node000026_Node000030" class="edge">
<title>Node26&#45;&gt;Node30</title>
<g id="a_edge57_Node000026_Node000030"><a xlink:title=" ">
<path fill="none" stroke="#63b8ff" d="M591.95,-331.09C606.26,-322.98 627.53,-310.93 644.25,-301.46"/>
<polygon fill="#63b8ff" stroke="#63b8ff" points="645.68,-304.67 652.66,-296.7 642.23,-298.58 645.68,-304.67"/>
</a>
</g>
</g>
<!-- Node31 -->
<g id="Node000031" class="node">
<title>Node31</title>
<g id="a_Node000031"><a xlink:title=" ">
<polygon fill="#e0e0e0" stroke="#999999" points="594.5,-295.5 557.5,-295.5 557.5,-276.25 594.5,-276.25 594.5,-295.5"/>
<text text-anchor="middle" x="576" y="-282" font-family="Helvetica,sans-Serif" font-size="10.00">span</text>
</a>
</g>
</g>
<!-- Node26&#45;&gt;Node31 -->
<g id="edge60_Node000026_Node000031" class="edge">
<title>Node26&#45;&gt;Node31</title>
<g id="a_edge60_Node000026_Node000031"><a xlink:title=" ">
<path fill="none" stroke="#63b8ff" d="M576,-331.33C576,-324.82 576,-315.67 576,-307.37"/>
<polygon fill="#63b8ff" stroke="#63b8ff" points="579.5,-307.37 576,-297.37 572.5,-307.37 579.5,-307.37"/>
</a>
</g>
</g>
<!-- Node27&#45;&gt;Node2 -->
<g id="edge43_Node000027_Node000002" class="edge">
<title>Node27&#45;&gt;Node2</title>
<g id="a_edge43_Node000027_Node000002"><a xlink:title=" ">
<path fill="none" stroke="#63b8ff" d="M501.02,-280.17C631.96,-269.15 947.86,-242.43 959,-240.25 1021.25,-228.09 1091.32,-204.23 1131.89,-189.36"/>
<polygon fill="#63b8ff" stroke="#63b8ff" points="1132.93,-192.71 1141.1,-185.95 1130.5,-186.14 1132.93,-192.71"/>
</a>
</g>
</g>
<!-- Node27&#45;&gt;Node3 -->
<g id="edge44_Node000027_Node000003" class="edge">
<title>Node27&#45;&gt;Node3</title>
<g id="a_edge44_Node000027_Node000003"><a xlink:title=" ">
<path fill="none" stroke="#63b8ff" d="M421.02,-275.81C403.11,-268.22 378.75,-256.08 361,-240.25 316.52,-200.58 302.69,-186.67 285,-129.75 282.46,-121.58 280.4,-117.71 285,-110.5 294.57,-95.5 310.63,-85.46 326.9,-78.78"/>
<polygon fill="#63b8ff" stroke="#63b8ff" points="327.96,-82.12 336.13,-75.38 325.54,-75.55 327.96,-82.12"/>
</a>
</g>
</g>
<!-- Node27&#45;&gt;Node8 -->
<g id="edge48_Node000027_Node000008" class="edge">
<title>Node27&#45;&gt;Node8</title>
<g id="a_edge48_Node000027_Node000008"><a xlink:title=" ">
<path fill="none" stroke="#63b8ff" d="M418.78,-275.84C396.27,-267.69 363.25,-254.77 336,-240.25 241.89,-190.09 139.3,-114.38 96.52,-81.76"/>
<polygon fill="#63b8ff" stroke="#63b8ff" points="98.91,-79.18 88.84,-75.87 94.65,-84.73 98.91,-79.18"/>
</a>
</g>
</g>
<!-- Node27&#45;&gt;Node13 -->
<g id="edge46_Node000027_Node000013" class="edge">
<title>Node27&#45;&gt;Node13</title>
<g id="a_edge46_Node000027_Node000013"><a xlink:title=" ">
<path fill="none" stroke="#63b8ff" d="M501.25,-277.07C570.9,-267.42 689.34,-250.99 763.16,-240.76"/>
<polygon fill="#63b8ff" stroke="#63b8ff" points="763.23,-244.28 772.66,-239.44 762.27,-237.34 763.23,-244.28"/>
</a>
</g>
</g>
<!-- Node27&#45;&gt;Node14 -->
<g id="edge45_Node000027_Node000014" class="edge">
<title>Node27&#45;&gt;Node14</title>
<g id="a_edge45_Node000027_Node000014"><a xlink:title=" ">
<path fill="none" stroke="#63b8ff" d="M460.29,-275.81C491.91,-257.06 564.75,-213.87 603.2,-191.08"/>
<polygon fill="#63b8ff" stroke="#63b8ff" points="604.51,-194.37 611.33,-186.26 600.94,-188.35 604.51,-194.37"/>
</a>
</g>
</g>
<!-- Node27&#45;&gt;Node15 -->
<g id="edge50_Node000027_Node000015" class="edge">
<title>Node27&#45;&gt;Node15</title>
<g id="a_edge50_Node000027_Node000015"><a xlink:title=" ">
<path fill="none" stroke="#63b8ff" d="M445.8,-276.03C446.56,-263.13 446.43,-238.77 437,-221 416.87,-183.08 376.1,-152.93 349.17,-136.04"/>
<polygon fill="#63b8ff" stroke="#63b8ff" points="351.25,-133.22 340.89,-131.02 347.62,-139.2 351.25,-133.22"/>
</a>
</g>
</g>
<!-- Node27&#45;&gt;Node20 -->
<g id="edge47_Node000027_Node000020" class="edge">
<title>Node27&#45;&gt;Node20</title>
<g id="a_edge47_Node000027_Node000020"><a xlink:title=" ">
<path fill="none" stroke="#63b8ff" d="M451.86,-275.9C457.98,-267.29 466.5,-253.65 470,-240.25 473.89,-225.34 469.25,-208.43 463.99,-195.76"/>
<polygon fill="#63b8ff" stroke="#63b8ff" points="467.24,-194.44 459.84,-186.86 460.89,-197.4 467.24,-194.44"/>
</a>
</g>
</g>
<!-- Node27&#45;&gt;Node21 -->
<g id="edge52_Node000027_Node000021" class="edge">
<title>Node27&#45;&gt;Node21</title>
<g id="a_edge52_Node000027_Node000021"><a xlink:title=" ">
<path fill="none" stroke="#63b8ff" d="M501.24,-280.11C617.52,-270.14 875.06,-247.43 893,-240.25 919.05,-229.83 943.71,-208.5 959.05,-193.36"/>
<polygon fill="#63b8ff" stroke="#63b8ff" points="961.4,-195.97 965.89,-186.38 956.4,-191.07 961.4,-195.97"/>
</a>
</g>
</g>
<!-- Node27&#45;&gt;Node22 -->
<g id="edge53_Node000027_Node000022" class="edge">
<title>Node27&#45;&gt;Node22</title>
<g id="a_edge53_Node000027_Node000022"><a xlink:title=" ">
<path fill="none" stroke="#63b8ff" d="M501.21,-280.23C623.23,-270.07 903.09,-246.29 923,-240.25 958.96,-229.34 996.45,-206.82 1019.26,-191.65"/>
<polygon fill="#63b8ff" stroke="#63b8ff" points="1021.1,-194.64 1027.41,-186.12 1017.17,-188.85 1021.1,-194.64"/>
</a>
</g>
</g>
<!-- Node27&#45;&gt;Node25 -->
<g id="edge54_Node000027_Node000025" class="edge">
<title>Node27&#45;&gt;Node25</title>
<g id="a_edge54_Node000027_Node000025"><a xlink:title=" ">
<path fill="none" stroke="#63b8ff" d="M408.9,-275.82C377.23,-267.56 330.11,-254.5 290,-240.25 247.24,-225.06 199.21,-203.84 169.28,-190.11"/>
<polygon fill="#63b8ff" stroke="#63b8ff" points="171.04,-187.06 160.49,-186.05 168.1,-193.42 171.04,-187.06"/>
</a>
</g>
</g>
<!-- Node28 -->
<g id="Node000028" class="node">
<title>Node28</title>
<g id="a_Node000028"><a xlink:title=" ">
<polygon fill="#e0e0e0" stroke="#999999" points="427.62,-240.25 370.38,-240.25 370.38,-221 427.62,-221 427.62,-240.25"/>
<text text-anchor="middle" x="399" y="-226.75" font-family="Helvetica,sans-Serif" font-size="10.00">exception</text>
</a>
</g>
</g>
<!-- Node27&#45;&gt;Node28 -->
<g id="edge49_Node000027_Node000028" class="edge">
<title>Node27&#45;&gt;Node28</title>
<g id="a_edge49_Node000027_Node000028"><a xlink:title=" ">
<path fill="none" stroke="#63b8ff" d="M437.4,-276.08C431.12,-268.8 421.99,-258.23 414.2,-249.23"/>
<polygon fill="#63b8ff" stroke="#63b8ff" points="416.94,-247.03 407.75,-241.75 411.64,-251.61 416.94,-247.03"/>
</a>
</g>
</g>
<!-- Node27&#45;&gt;Node29 -->
<g id="edge51_Node000027_Node000029" class="edge">
<title>Node27&#45;&gt;Node29</title>
<g id="a_edge51_Node000027_Node000029"><a xlink:title=" ">
<path fill="none" stroke="#63b8ff" d="M501.39,-280.07C516.83,-278.79 533.55,-277.43 549,-276.25 776.45,-258.82 833.48,-256.78 1061,-240.25 1087.07,-238.36 1116.45,-236.15 1138.99,-234.44"/>
<polygon fill="#63b8ff" stroke="#63b8ff" points="1139.21,-237.94 1148.92,-233.69 1138.68,-230.96 1139.21,-237.94"/>
</a>
</g>
</g>
</g>
</svg>
