<?xml version="1.0" encoding="UTF-8" standalone="no"?>
<!DOCTYPE svg PUBLIC "-//W3C//DTD SVG 1.1//EN"
 "http://www.w3.org/Graphics/SVG/1.1/DTD/svg11.dtd">
<!-- Generated by graphviz version 12.1.1 (20240910.0053)
 -->
<!-- Title: mimic++/Expectation.hpp Pages: 1 -->
<svg width="1609pt" height="469pt"
 viewBox="0.00 0.00 1609.12 469.25" xmlns="http://www.w3.org/2000/svg" xmlns:xlink="http://www.w3.org/1999/xlink">
<g id="graph0" class="graph" transform="scale(1 1) rotate(0) translate(4 465.25)">
<title>mimic++/Expectation.hpp</title>
<!-- Node1 -->
<g id="Node000001" class="node">
<title>Node1</title>
<g id="a_Node000001"><a xlink:title=" ">
<polygon fill="#999999" stroke="#666666" points="602.75,-461.25 477.25,-461.25 477.25,-442 602.75,-442 602.75,-461.25"/>
<text text-anchor="middle" x="540" y="-447.75" font-family="Helvetica,sans-Serif" font-size="10.00">mimic++/Expectation.hpp</text>
</a>
</g>
</g>
<!-- Node2 -->
<g id="Node000002" class="node">
<title>Node2</title>
<g id="a_Node000002"><a xlink:href="../../dc/d44/_call_8hpp.html" target="_top" xlink:title=" ">
<polygon fill="white" stroke="#666666" points="609.88,-185 518.12,-185 518.12,-165.75 609.88,-165.75 609.88,-185"/>
<text text-anchor="middle" x="564" y="-171.5" font-family="Helvetica,sans-Serif" font-size="10.00">mimic++/Call.hpp</text>
</a>
</g>
</g>
<!-- Node1&#45;&gt;Node2 -->
<g id="edge1_Node000001_Node000002" class="edge">
<title>Node1&#45;&gt;Node2</title>
<g id="a_edge1_Node000001_Node000002"><a xlink:title=" ">
<path fill="none" stroke="#63b8ff" d="M486.53,-441.51C462.95,-435.08 436.45,-424.22 418,-406 393.52,-381.83 386.4,-364.23 397,-331.5 419.1,-263.28 493.6,-213.91 535.24,-190.89"/>
<polygon fill="#63b8ff" stroke="#63b8ff" points="536.82,-194.01 543.97,-186.19 533.51,-187.84 536.82,-194.01"/>
</a>
</g>
</g>
<!-- Node5 -->
<g id="Node000005" class="node">
<title>Node5</title>
<g id="a_Node000005"><a xlink:href="../../d8/d32/_type_traits_8hpp.html" target="_top" xlink:title=" ">
<polygon fill="white" stroke="#666666" points="187.5,-129.75 66.5,-129.75 66.5,-110.5 187.5,-110.5 187.5,-129.75"/>
<text text-anchor="middle" x="127" y="-116.25" font-family="Helvetica,sans-Serif" font-size="10.00">mimic++/TypeTraits.hpp</text>
</a>
</g>
</g>
<!-- Node1&#45;&gt;Node5 -->
<g id="edge70_Node000001_Node000005" class="edge">
<title>Node1&#45;&gt;Node5</title>
<g id="a_edge70_Node000001_Node000005"><a xlink:title=" ">
<path fill="none" stroke="#63b8ff" d="M476.97,-448.13C369.16,-443.21 158.69,-430.55 136,-406 66.8,-331.15 103.15,-192.28 119.98,-140.91"/>
<polygon fill="#63b8ff" stroke="#63b8ff" points="123.27,-142.09 123.19,-131.5 116.65,-139.83 123.27,-142.09"/>
</a>
</g>
</g>
<!-- Node6 -->
<g id="Node000006" class="node">
<title>Node6</title>
<g id="a_Node000006"><a xlink:title=" ">
<polygon fill="#e0e0e0" stroke="#999999" points="145.5,-74.5 108.5,-74.5 108.5,-55.25 145.5,-55.25 145.5,-74.5"/>
<text text-anchor="middle" x="127" y="-61" font-family="Helvetica,sans-Serif" font-size="10.00">tuple</text>
</a>
</g>
</g>
<!-- Node1&#45;&gt;Node6 -->
<g id="edge76_Node000001_Node000006" class="edge">
<title>Node1&#45;&gt;Node6</title>
<g id="a_edge76_Node000001_Node000006"><a xlink:title=" ">
<path fill="none" stroke="#63b8ff" d="M477,-451.07C334.55,-450.37 0,-438.47 0,-342.12 0,-342.12 0,-342.12 0,-174.38 0,-123.17 60.42,-90.98 97.91,-75.94"/>
<polygon fill="#63b8ff" stroke="#63b8ff" points="98.75,-79.36 106.85,-72.53 96.26,-72.83 98.75,-79.36"/>
</a>
</g>
</g>
<!-- Node8 -->
<g id="Node000008" class="node">
<title>Node8</title>
<g id="a_Node000008"><a xlink:title=" ">
<polygon fill="#e0e0e0" stroke="#999999" points="392.12,-74.5 343.88,-74.5 343.88,-55.25 392.12,-55.25 392.12,-74.5"/>
<text text-anchor="middle" x="368" y="-61" font-family="Helvetica,sans-Serif" font-size="10.00">cassert</text>
</a>
</g>
</g>
<!-- Node1&#45;&gt;Node8 -->
<g id="edge71_Node000001_Node000008" class="edge">
<title>Node1&#45;&gt;Node8</title>
<g id="a_edge71_Node000001_Node000008"><a xlink:title=" ">
<path fill="none" stroke="#63b8ff" d="M476.77,-446.52C406.54,-440.91 298.61,-428.83 265,-406 241.13,-389.79 183.49,-267.84 177,-240.25 157.41,-156.93 272.91,-101 333.17,-77.88"/>
<polygon fill="#63b8ff" stroke="#63b8ff" points="334.17,-81.24 342.32,-74.47 331.72,-74.68 334.17,-81.24"/>
</a>
</g>
</g>
<!-- Node11 -->
<g id="Node000011" class="node">
<title>Node11</title>
<g id="a_Node000011"><a xlink:title=" ">
<polygon fill="#e0e0e0" stroke="#999999" points="539.25,-74.5 500.75,-74.5 500.75,-55.25 539.25,-55.25 539.25,-74.5"/>
<text text-anchor="middle" x="520" y="-61" font-family="Helvetica,sans-Serif" font-size="10.00">utility</text>
</a>
</g>
</g>
<!-- Node1&#45;&gt;Node11 -->
<g id="edge77_Node000001_Node000011" class="edge">
<title>Node1&#45;&gt;Node11</title>
<g id="a_edge77_Node000001_Node000011"><a xlink:title=" ">
<path fill="none" stroke="#63b8ff" d="M547.67,-441.79C554.52,-433.28 564.05,-419.71 568,-406 570.37,-397.78 569.21,-395.22 568,-386.75 553.59,-286.11 503.43,-267.26 509,-165.75 510.52,-138.04 514.4,-106.21 517.12,-86.07"/>
<polygon fill="#63b8ff" stroke="#63b8ff" points="520.55,-86.82 518.46,-76.44 513.61,-85.86 520.55,-86.82"/>
</a>
</g>
</g>
<!-- Node12 -->
<g id="Node000012" class="node">
<title>Node12</title>
<g id="a_Node000012"><a xlink:href="../../d6/d17/_control_policy_8hpp.html" target="_top" xlink:title=" ">
<polygon fill="white" stroke="#666666" points="559.12,-406 426.88,-406 426.88,-386.75 559.12,-386.75 559.12,-406"/>
<text text-anchor="middle" x="493" y="-392.5" font-family="Helvetica,sans-Serif" font-size="10.00">mimic++/ControlPolicy.hpp</text>
</a>
</g>
</g>
<!-- Node1&#45;&gt;Node12 -->
<g id="edge15_Node000001_Node000012" class="edge">
<title>Node1&#45;&gt;Node12</title>
<g id="a_edge15_Node000001_Node000012"><a xlink:title=" ">
<path fill="none" stroke="#63b8ff" d="M532.24,-441.83C525.81,-434.55 516.49,-423.98 508.54,-414.98"/>
<polygon fill="#63b8ff" stroke="#63b8ff" points="511.17,-412.68 501.93,-407.49 505.92,-417.31 511.17,-412.68"/>
</a>
</g>
</g>
<!-- Node21 -->
<g id="Node000021" class="node">
<title>Node21</title>
<g id="a_Node000021"><a xlink:title=" ">
<polygon fill="#e0e0e0" stroke="#999999" points="1417.62,-185 1372.38,-185 1372.38,-165.75 1417.62,-165.75 1417.62,-185"/>
<text text-anchor="middle" x="1395" y="-171.5" font-family="Helvetica,sans-Serif" font-size="10.00">ranges</text>
</a>
</g>
</g>
<!-- Node1&#45;&gt;Node21 -->
<g id="edge75_Node000001_Node000021" class="edge">
<title>Node1&#45;&gt;Node21</title>
<g id="a_edge75_Node000001_Node000021"><a xlink:title=" ">
<path fill="none" stroke="#63b8ff" d="M603.21,-449.11C798.8,-443.57 1381,-420.52 1381,-342.12 1381,-342.12 1381,-342.12 1381,-284.88 1381,-253.76 1386.73,-218.03 1390.86,-196.34"/>
<polygon fill="#63b8ff" stroke="#63b8ff" points="1394.24,-197.3 1392.76,-186.81 1387.37,-195.94 1394.24,-197.3"/>
</a>
</g>
</g>
<!-- Node24 -->
<g id="Node000024" class="node">
<title>Node24</title>
<g id="a_Node000024"><a xlink:title=" ">
<polygon fill="#e0e0e0" stroke="#999999" points="1478.5,-185 1435.5,-185 1435.5,-165.75 1478.5,-165.75 1478.5,-185"/>
<text text-anchor="middle" x="1457" y="-171.5" font-family="Helvetica,sans-Serif" font-size="10.00">vector</text>
</a>
</g>
</g>
<!-- Node1&#45;&gt;Node24 -->
<g id="edge78_Node000001_Node000024" class="edge">
<title>Node1&#45;&gt;Node24</title>
<g id="a_edge78_Node000001_Node000024"><a xlink:title=" ">
<path fill="none" stroke="#63b8ff" d="M603.03,-449.8C810.21,-446.25 1457,-428.29 1457,-342.12 1457,-342.12 1457,-342.12 1457,-284.88 1457,-254.16 1457,-218.55 1457,-196.74"/>
<polygon fill="#63b8ff" stroke="#63b8ff" points="1460.5,-196.89 1457,-186.89 1453.5,-196.89 1460.5,-196.89"/>
</a>
</g>
</g>
<!-- Node26 -->
<g id="Node000026" class="node">
<title>Node26</title>
<g id="a_Node000026"><a xlink:href="../../da/dd9/_reporter_8hpp.html" target="_top" xlink:title=" ">
<polygon fill="white" stroke="#666666" points="1051,-295.5 939,-295.5 939,-276.25 1051,-276.25 1051,-295.5"/>
<text text-anchor="middle" x="995" y="-282" font-family="Helvetica,sans-Serif" font-size="10.00">mimic++/Reporter.hpp</text>
</a>
</g>
</g>
<!-- Node1&#45;&gt;Node26 -->
<g id="edge69_Node000001_Node000026" class="edge">
<title>Node1&#45;&gt;Node26</title>
<g id="a_edge69_Node000001_Node000026"><a xlink:title=" ">
<path fill="none" stroke="#63b8ff" d="M565.11,-441.59C641.31,-414.16 870.1,-331.83 959.06,-299.81"/>
<polygon fill="#63b8ff" stroke="#63b8ff" points="960.04,-303.18 968.26,-296.5 957.67,-296.59 960.04,-303.18"/>
</a>
</g>
</g>
<!-- Node28 -->
<g id="Node000028" class="node">
<title>Node28</title>
<g id="a_Node000028"><a xlink:title=" ">
<polygon fill="#e0e0e0" stroke="#999999" points="236.25,-240.25 185.75,-240.25 185.75,-221 236.25,-221 236.25,-240.25"/>
<text text-anchor="middle" x="211" y="-226.75" font-family="Helvetica,sans-Serif" font-size="10.00">memory</text>
</a>
</g>
</g>
<!-- Node1&#45;&gt;Node28 -->
<g id="edge73_Node000001_Node000028" class="edge">
<title>Node1&#45;&gt;Node28</title>
<g id="a_edge73_Node000001_Node000028"><a xlink:title=" ">
<path fill="none" stroke="#63b8ff" d="M476.79,-445.86C412.16,-439.88 317.21,-427.68 288,-406 236.89,-368.07 219.12,-288.71 213.44,-251.58"/>
<polygon fill="#63b8ff" stroke="#63b8ff" points="216.93,-251.28 212.1,-241.85 209.99,-252.23 216.93,-251.28"/>
</a>
</g>
</g>
<!-- Node33 -->
<g id="Node000033" class="node">
<title>Node33</title>
<g id="a_Node000033"><a xlink:title=" ">
<polygon fill="#e0e0e0" stroke="#999999" points="1540.88,-406 1485.12,-406 1485.12,-386.75 1540.88,-386.75 1540.88,-406"/>
<text text-anchor="middle" x="1513" y="-392.5" font-family="Helvetica,sans-Serif" font-size="10.00">concepts</text>
</a>
</g>
</g>
<!-- Node1&#45;&gt;Node33 -->
<g id="edge72_Node000001_Node000033" class="edge">
<title>Node1&#45;&gt;Node33</title>
<g id="a_edge72_Node000001_Node000033"><a xlink:title=" ">
<path fill="none" stroke="#63b8ff" d="M603.23,-450.96C754.04,-451.01 1146.49,-446.85 1471,-406 1471.83,-405.9 1472.67,-405.78 1473.51,-405.66"/>
<polygon fill="#63b8ff" stroke="#63b8ff" points="1473.85,-409.16 1483.14,-404.07 1472.7,-402.25 1473.85,-409.16"/>
</a>
</g>
</g>
<!-- Node34 -->
<g id="Node000034" class="node">
<title>Node34</title>
<g id="a_Node000034"><a xlink:title=" ">
<polygon fill="#e0e0e0" stroke="#999999" points="1601.12,-406 1558.88,-406 1558.88,-386.75 1601.12,-386.75 1601.12,-406"/>
<text text-anchor="middle" x="1580" y="-392.5" font-family="Helvetica,sans-Serif" font-size="10.00">mutex</text>
</a>
</g>
</g>
<!-- Node1&#45;&gt;Node34 -->
<g id="edge74_Node000001_Node000034" class="edge">
<title>Node1&#45;&gt;Node34</title>
<g id="a_edge74_Node000001_Node000034"><a xlink:title=" ">
<path fill="none" stroke="#63b8ff" d="M602.98,-449.78C790.69,-446.98 1345.29,-436.42 1547.43,-405.96"/>
<polygon fill="#63b8ff" stroke="#63b8ff" points="1547.68,-409.46 1557.01,-404.45 1546.59,-402.55 1547.68,-409.46"/>
</a>
</g>
</g>
<!-- Node3 -->
<g id="Node000003" class="node">
<title>Node3</title>
<g id="a_Node000003"><a xlink:href="../../df/dde/_fwd_8hpp.html" target="_top" xlink:title=" ">
<polygon fill="white" stroke="#666666" points="1104,-74.5 1010,-74.5 1010,-55.25 1104,-55.25 1104,-74.5"/>
<text text-anchor="middle" x="1057" y="-61" font-family="Helvetica,sans-Serif" font-size="10.00">mimic++/Fwd.hpp</text>
</a>
</g>
</g>
<!-- Node2&#45;&gt;Node3 -->
<g id="edge2_Node000002_Node000003" class="edge">
<title>Node2&#45;&gt;Node3</title>
<g id="a_edge2_Node000002_Node000003"><a xlink:title=" ">
<path fill="none" stroke="#63b8ff" d="M605.18,-165.31C694.45,-145.67 905.65,-99.18 1004.4,-77.45"/>
<polygon fill="#63b8ff" stroke="#63b8ff" points="1005.09,-80.88 1014.11,-75.31 1003.59,-74.05 1005.09,-80.88"/>
</a>
</g>
</g>
<!-- Node2&#45;&gt;Node5 -->
<g id="edge4_Node000002_Node000005" class="edge">
<title>Node2&#45;&gt;Node5</title>
<g id="a_edge4_Node000002_Node000005"><a xlink:title=" ">
<path fill="none" stroke="#63b8ff" d="M517.65,-168.73C441.5,-159.45 289.37,-140.91 199.07,-129.91"/>
<polygon fill="#63b8ff" stroke="#63b8ff" points="199.69,-126.46 189.34,-128.72 198.84,-133.4 199.69,-126.46"/>
</a>
</g>
</g>
<!-- Node2&#45;&gt;Node6 -->
<g id="edge13_Node000002_Node000006" class="edge">
<title>Node2&#45;&gt;Node6</title>
<g id="a_edge13_Node000002_Node000006"><a xlink:title=" ">
<path fill="none" stroke="#63b8ff" d="M527.49,-165.31C442.81,-144.29 234.34,-92.52 156.74,-73.26"/>
<polygon fill="#63b8ff" stroke="#63b8ff" points="157.87,-69.93 147.32,-70.92 156.18,-76.73 157.87,-69.93"/>
</a>
</g>
</g>
<!-- Node7 -->
<g id="Node000007" class="node">
<title>Node7</title>
<g id="a_Node000007"><a xlink:href="../../d4/d2c/_utility_8hpp.html" target="_top" xlink:title=" ">
<polygon fill="white" stroke="#666666" points="686,-129.75 586,-129.75 586,-110.5 686,-110.5 686,-129.75"/>
<text text-anchor="middle" x="636" y="-116.25" font-family="Helvetica,sans-Serif" font-size="10.00">mimic++/Utility.hpp</text>
</a>
</g>
</g>
<!-- Node2&#45;&gt;Node7 -->
<g id="edge6_Node000002_Node000007" class="edge">
<title>Node2&#45;&gt;Node7</title>
<g id="a_edge6_Node000002_Node000007"><a xlink:title=" ">
<path fill="none" stroke="#63b8ff" d="M576.21,-165.34C586.83,-157.49 602.44,-145.95 615.04,-136.62"/>
<polygon fill="#63b8ff" stroke="#63b8ff" points="616.79,-139.69 622.75,-130.92 612.63,-134.06 616.79,-139.69"/>
</a>
</g>
</g>
<!-- Node10 -->
<g id="Node000010" class="node">
<title>Node10</title>
<g id="a_Node000010"><a xlink:title=" ">
<polygon fill="#e0e0e0" stroke="#999999" points="678.12,-74.5 593.88,-74.5 593.88,-55.25 678.12,-55.25 678.12,-74.5"/>
<text text-anchor="middle" x="636" y="-61" font-family="Helvetica,sans-Serif" font-size="10.00">source_location</text>
</a>
</g>
</g>
<!-- Node2&#45;&gt;Node10 -->
<g id="edge12_Node000002_Node000010" class="edge">
<title>Node2&#45;&gt;Node10</title>
<g id="a_edge12_Node000002_Node000010"><a xlink:title=" ">
<path fill="none" stroke="#63b8ff" d="M563.89,-165.39C564.13,-152.31 566.14,-127.74 577,-110.5 584.68,-98.31 596.95,-88.24 608.32,-80.77"/>
<polygon fill="#63b8ff" stroke="#63b8ff" points="609.94,-83.87 616.65,-75.67 606.29,-77.9 609.94,-83.87"/>
</a>
</g>
</g>
<!-- Node2&#45;&gt;Node11 -->
<g id="edge14_Node000002_Node000011" class="edge">
<title>Node2&#45;&gt;Node11</title>
<g id="a_edge14_Node000002_Node000011"><a xlink:title=" ">
<path fill="none" stroke="#63b8ff" d="M559.85,-165.55C555.69,-156.6 549.17,-142.31 544,-129.75 537.92,-114.97 531.58,-98.03 526.95,-85.31"/>
<polygon fill="#63b8ff" stroke="#63b8ff" points="530.29,-84.26 523.61,-76.04 523.71,-86.64 530.29,-84.26"/>
</a>
</g>
</g>
<!-- Node4 -->
<g id="Node000004" class="node">
<title>Node4</title>
<g id="a_Node000004"><a xlink:title=" ">
<polygon fill="#e0e0e0" stroke="#999999" points="962,-19.25 922,-19.25 922,0 962,0 962,-19.25"/>
<text text-anchor="middle" x="942" y="-5.75" font-family="Helvetica,sans-Serif" font-size="10.00">string</text>
</a>
</g>
</g>
<!-- Node3&#45;&gt;Node4 -->
<g id="edge3_Node000003_Node000004" class="edge">
<title>Node3&#45;&gt;Node4</title>
<g id="a_edge3_Node000003_Node000004"><a xlink:title=" ">
<path fill="none" stroke="#63b8ff" d="M1037.49,-54.84C1019.48,-46.5 992.48,-34 971.77,-24.41"/>
<polygon fill="#63b8ff" stroke="#63b8ff" points="973.52,-21.36 962.98,-20.34 970.58,-27.72 973.52,-21.36"/>
</a>
</g>
</g>
<!-- Node5&#45;&gt;Node6 -->
<g id="edge5_Node000005_Node000006" class="edge">
<title>Node5&#45;&gt;Node6</title>
<g id="a_edge5_Node000005_Node000006"><a xlink:title=" ">
<path fill="none" stroke="#63b8ff" d="M127,-110.33C127,-103.82 127,-94.67 127,-86.37"/>
<polygon fill="#63b8ff" stroke="#63b8ff" points="130.5,-86.37 127,-76.37 123.5,-86.37 130.5,-86.37"/>
</a>
</g>
</g>
<!-- Node7&#45;&gt;Node3 -->
<g id="edge7_Node000007_Node000003" class="edge">
<title>Node7&#45;&gt;Node3</title>
<g id="a_edge7_Node000007_Node000003"><a xlink:title=" ">
<path fill="none" stroke="#63b8ff" d="M686.36,-112.75C764.74,-102.84 915.5,-83.77 998.56,-73.27"/>
<polygon fill="#63b8ff" stroke="#63b8ff" points="998.83,-76.76 1008.31,-72.03 997.95,-69.82 998.83,-76.76"/>
</a>
</g>
</g>
<!-- Node7&#45;&gt;Node8 -->
<g id="edge8_Node000007_Node000008" class="edge">
<title>Node7&#45;&gt;Node8</title>
<g id="a_edge8_Node000007_Node000008"><a xlink:title=" ">
<path fill="none" stroke="#63b8ff" d="M590.23,-110.03C537.34,-99.52 451.42,-82.45 403.38,-72.9"/>
<polygon fill="#63b8ff" stroke="#63b8ff" points="404.28,-69.52 393.79,-71 402.92,-76.38 404.28,-69.52"/>
</a>
</g>
</g>
<!-- Node9 -->
<g id="Node000009" class="node">
<title>Node9</title>
<g id="a_Node000009"><a xlink:title=" ">
<polygon fill="#e0e0e0" stroke="#999999" points="769.88,-74.5 726.12,-74.5 726.12,-55.25 769.88,-55.25 769.88,-74.5"/>
<text text-anchor="middle" x="748" y="-61" font-family="Helvetica,sans-Serif" font-size="10.00">format</text>
</a>
</g>
</g>
<!-- Node7&#45;&gt;Node9 -->
<g id="edge9_Node000007_Node000009" class="edge">
<title>Node7&#45;&gt;Node9</title>
<g id="a_edge9_Node000007_Node000009"><a xlink:title=" ">
<path fill="none" stroke="#63b8ff" d="M655,-110.09C672.46,-101.79 698.6,-89.36 718.72,-79.79"/>
<polygon fill="#63b8ff" stroke="#63b8ff" points="720.01,-83.06 727.54,-75.6 717.01,-76.74 720.01,-83.06"/>
</a>
</g>
</g>
<!-- Node7&#45;&gt;Node10 -->
<g id="edge10_Node000007_Node000010" class="edge">
<title>Node7&#45;&gt;Node10</title>
<g id="a_edge10_Node000007_Node000010"><a xlink:title=" ">
<path fill="none" stroke="#63b8ff" d="M636,-110.33C636,-103.82 636,-94.67 636,-86.37"/>
<polygon fill="#63b8ff" stroke="#63b8ff" points="639.5,-86.37 636,-76.37 632.5,-86.37 639.5,-86.37"/>
</a>
</g>
</g>
<!-- Node7&#45;&gt;Node11 -->
<g id="edge11_Node000007_Node000011" class="edge">
<title>Node7&#45;&gt;Node11</title>
<g id="a_edge11_Node000007_Node000011"><a xlink:title=" ">
<path fill="none" stroke="#63b8ff" d="M616.32,-110.09C598.05,-101.7 570.59,-89.1 549.65,-79.49"/>
<polygon fill="#63b8ff" stroke="#63b8ff" points="551.31,-76.4 540.76,-75.41 548.39,-82.76 551.31,-76.4"/>
</a>
</g>
</g>
<!-- Node12&#45;&gt;Node6 -->
<g id="edge66_Node000012_Node000006" class="edge">
<title>Node12&#45;&gt;Node6</title>
<g id="a_edge66_Node000012_Node000006"><a xlink:title=" ">
<path fill="none" stroke="#63b8ff" d="M426.39,-390.43C384.14,-385.07 329.47,-373.93 286,-350.75 161.2,-284.19 112.29,-259.94 57,-129.75 47.07,-106.38 74.57,-87.97 97.96,-77.03"/>
<polygon fill="#63b8ff" stroke="#63b8ff" points="99.12,-80.35 106.89,-73.15 96.32,-73.93 99.12,-80.35"/>
</a>
</g>
</g>
<!-- Node12&#45;&gt;Node7 -->
<g id="edge60_Node000012_Node000007" class="edge">
<title>Node12&#45;&gt;Node7</title>
<g id="a_edge60_Node000012_Node000007"><a xlink:title=" ">
<path fill="none" stroke="#63b8ff" d="M502.99,-386.46C511.72,-378.1 524.06,-364.8 531,-350.75 545.99,-320.38 532.58,-306.89 547,-276.25 568.99,-229.51 595.88,-231.2 619,-185 625.93,-171.16 630.28,-154.17 632.84,-141.19"/>
<polygon fill="#63b8ff" stroke="#63b8ff" points="636.22,-142.16 634.51,-131.7 629.33,-140.94 636.22,-142.16"/>
</a>
</g>
</g>
<!-- Node12&#45;&gt;Node8 -->
<g id="edge61_Node000012_Node000008" class="edge">
<title>Node12&#45;&gt;Node8</title>
<g id="a_edge61_Node000012_Node000008"><a xlink:title=" ">
<path fill="none" stroke="#63b8ff" d="M446.53,-386.31C426.18,-379.88 404.02,-369.01 391,-350.75 332.17,-268.25 352.56,-136.08 363.22,-86"/>
<polygon fill="#63b8ff" stroke="#63b8ff" points="366.61,-86.87 365.39,-76.35 359.78,-85.33 366.61,-86.87"/>
</a>
</g>
</g>
<!-- Node12&#45;&gt;Node11 -->
<g id="edge67_Node000012_Node000011" class="edge">
<title>Node12&#45;&gt;Node11</title>
<g id="a_edge67_Node000012_Node000011"><a xlink:title=" ">
<path fill="none" stroke="#63b8ff" d="M449.55,-386.39C429.97,-379.94 408.66,-369.03 397,-350.75 392.4,-343.54 395.97,-339.99 397,-331.5 409.48,-229.09 403.17,-190.75 468,-110.5 476.72,-99.7 488.3,-89.47 498.32,-81.54"/>
<polygon fill="#63b8ff" stroke="#63b8ff" points="500.26,-84.46 506.09,-75.61 496.02,-78.89 500.26,-84.46"/>
</a>
</g>
</g>
<!-- Node13 -->
<g id="Node000013" class="node">
<title>Node13</title>
<g id="a_Node000013"><a xlink:href="../../d0/d3b/_reports_8hpp.html" target="_top" xlink:title=" ">
<polygon fill="white" stroke="#666666" points="1231.5,-240.25 1122.5,-240.25 1122.5,-221 1231.5,-221 1231.5,-240.25"/>
<text text-anchor="middle" x="1177" y="-226.75" font-family="Helvetica,sans-Serif" font-size="10.00">mimic++/Reports.hpp</text>
</a>
</g>
</g>
<!-- Node12&#45;&gt;Node13 -->
<g id="edge16_Node000012_Node000013" class="edge">
<title>Node12&#45;&gt;Node13</title>
<g id="a_edge16_Node000012_Node000013"><a xlink:title=" ">
<path fill="none" stroke="#63b8ff" d="M559.37,-394.04C708.84,-390.53 1062.37,-379.3 1108,-350.75 1144.19,-328.1 1163.47,-279.06 1171.82,-251.48"/>
<polygon fill="#63b8ff" stroke="#63b8ff" points="1175.16,-252.53 1174.5,-241.95 1168.42,-250.63 1175.16,-252.53"/>
</a>
</g>
</g>
<!-- Node20 -->
<g id="Node000020" class="node">
<title>Node20</title>
<g id="a_Node000020"><a xlink:title=" ">
<polygon fill="#e0e0e0" stroke="#999999" points="1063.88,-185 1014.12,-185 1014.12,-165.75 1063.88,-165.75 1063.88,-185"/>
<text text-anchor="middle" x="1039" y="-171.5" font-family="Helvetica,sans-Serif" font-size="10.00">optional</text>
</a>
</g>
</g>
<!-- Node12&#45;&gt;Node20 -->
<g id="edge64_Node000012_Node000020" class="edge">
<title>Node12&#45;&gt;Node20</title>
<g id="a_edge64_Node000012_Node000020"><a xlink:title=" ">
<path fill="none" stroke="#63b8ff" d="M559.38,-393.92C695.06,-389.41 996.71,-370.91 1060,-295.5 1083.98,-266.93 1064.57,-220.66 1050.44,-195"/>
<polygon fill="#63b8ff" stroke="#63b8ff" points="1053.66,-193.58 1045.61,-186.69 1047.61,-197.09 1053.66,-193.58"/>
</a>
</g>
</g>
<!-- Node12&#45;&gt;Node24 -->
<g id="edge68_Node000012_Node000024" class="edge">
<title>Node12&#45;&gt;Node24</title>
<g id="a_edge68_Node000012_Node000024"><a xlink:title=" ">
<path fill="none" stroke="#63b8ff" d="M559.48,-394.01C700.7,-390.56 1026.38,-379.67 1133,-350.75 1257.3,-317.04 1386.77,-228.28 1436.17,-192.08"/>
<polygon fill="#63b8ff" stroke="#63b8ff" points="1438.04,-195.05 1444,-186.28 1433.88,-189.42 1438.04,-195.05"/>
</a>
</g>
</g>
<!-- Node25 -->
<g id="Node000025" class="node">
<title>Node25</title>
<g id="a_Node000025"><a xlink:href="../../d8/de4/_sequence_8hpp.html" target="_top" xlink:title=" ">
<polygon fill="white" stroke="#666666" points="735.38,-350.75 616.62,-350.75 616.62,-331.5 735.38,-331.5 735.38,-350.75"/>
<text text-anchor="middle" x="676" y="-337.25" font-family="Helvetica,sans-Serif" font-size="10.00">mimic++/Sequence.hpp</text>
</a>
</g>
</g>
<!-- Node12&#45;&gt;Node25 -->
<g id="edge37_Node000012_Node000025" class="edge">
<title>Node12&#45;&gt;Node25</title>
<g id="a_edge37_Node000012_Node000025"><a xlink:title=" ">
<path fill="none" stroke="#63b8ff" d="M524.04,-386.34C554.28,-377.54 600.45,-364.11 633.97,-354.36"/>
<polygon fill="#63b8ff" stroke="#63b8ff" points="634.73,-357.78 643.35,-351.63 632.77,-351.06 634.73,-357.78"/>
</a>
</g>
</g>
<!-- Node12&#45;&gt;Node28 -->
<g id="edge63_Node000012_Node000028" class="edge">
<title>Node12&#45;&gt;Node28</title>
<g id="a_edge63_Node000012_Node000028"><a xlink:title=" ">
<path fill="none" stroke="#63b8ff" d="M439.34,-386.26C405.7,-379.3 362.03,-367.93 326,-350.75 288.3,-332.78 278.32,-326.19 250,-295.5 237.61,-282.07 227.06,-264.12 220.07,-250.67"/>
<polygon fill="#63b8ff" stroke="#63b8ff" points="223.34,-249.38 215.75,-241.98 217.07,-252.49 223.34,-249.38"/>
</a>
</g>
</g>
<!-- Node31 -->
<g id="Node000031" class="node">
<title>Node31</title>
<g id="a_Node000031"><a xlink:title=" ">
<polygon fill="#e0e0e0" stroke="#999999" points="445.62,-350.75 406.38,-350.75 406.38,-331.5 445.62,-331.5 445.62,-350.75"/>
<text text-anchor="middle" x="426" y="-337.25" font-family="Helvetica,sans-Serif" font-size="10.00">limits</text>
</a>
</g>
</g>
<!-- Node12&#45;&gt;Node31 -->
<g id="edge62_Node000012_Node000031" class="edge">
<title>Node12&#45;&gt;Node31</title>
<g id="a_edge62_Node000012_Node000031"><a xlink:title=" ">
<path fill="none" stroke="#63b8ff" d="M481.63,-386.34C471.95,-378.65 457.8,-367.4 446.19,-358.18"/>
<polygon fill="#63b8ff" stroke="#63b8ff" points="448.39,-355.45 438.38,-351.97 444.03,-360.93 448.39,-355.45"/>
</a>
</g>
</g>
<!-- Node32 -->
<g id="Node000032" class="node">
<title>Node32</title>
<g id="a_Node000032"><a xlink:title=" ">
<polygon fill="#e0e0e0" stroke="#999999" points="522,-350.75 464,-350.75 464,-331.5 522,-331.5 522,-350.75"/>
<text text-anchor="middle" x="493" y="-337.25" font-family="Helvetica,sans-Serif" font-size="10.00">stdexcept</text>
</a>
</g>
</g>
<!-- Node12&#45;&gt;Node32 -->
<g id="edge65_Node000012_Node000032" class="edge">
<title>Node12&#45;&gt;Node32</title>
<g id="a_edge65_Node000012_Node000032"><a xlink:title=" ">
<path fill="none" stroke="#63b8ff" d="M493,-386.58C493,-380.07 493,-370.92 493,-362.62"/>
<polygon fill="#63b8ff" stroke="#63b8ff" points="496.5,-362.62 493,-352.62 489.5,-362.62 496.5,-362.62"/>
</a>
</g>
</g>
<!-- Node13&#45;&gt;Node2 -->
<g id="edge17_Node000013_Node000002" class="edge">
<title>Node13&#45;&gt;Node2</title>
<g id="a_edge17_Node000013_Node000002"><a xlink:title=" ">
<path fill="none" stroke="#63b8ff" d="M1122.06,-224.85C1006.45,-214.81 739.04,-191.58 621.35,-181.36"/>
<polygon fill="#63b8ff" stroke="#63b8ff" points="621.88,-177.89 611.61,-180.51 621.27,-184.86 621.88,-177.89"/>
</a>
</g>
</g>
<!-- Node13&#45;&gt;Node3 -->
<g id="edge18_Node000013_Node000003" class="edge">
<title>Node13&#45;&gt;Node3</title>
<g id="a_edge18_Node000013_Node000003"><a xlink:title=" ">
<path fill="none" stroke="#63b8ff" d="M1211.97,-220.6C1230.71,-213.91 1252.47,-202.78 1265,-185 1284.15,-157.81 1292.99,-136.3 1272,-110.5 1252.58,-86.64 1172.21,-75.13 1115.44,-69.88"/>
<polygon fill="#63b8ff" stroke="#63b8ff" points="1115.85,-66.4 1105.58,-69.01 1115.24,-73.37 1115.85,-66.4"/>
</a>
</g>
</g>
<!-- Node14 -->
<g id="Node000014" class="node">
<title>Node14</title>
<g id="a_Node000014"><a xlink:href="../../da/dab/_printer_8hpp.html" target="_top" xlink:title=" ">
<polygon fill="white" stroke="#666666" points="807.88,-185 704.12,-185 704.12,-165.75 807.88,-165.75 807.88,-185"/>
<text text-anchor="middle" x="756" y="-171.5" font-family="Helvetica,sans-Serif" font-size="10.00">mimic++/Printer.hpp</text>
</a>
</g>
</g>
<!-- Node13&#45;&gt;Node14 -->
<g id="edge19_Node000013_Node000014" class="edge">
<title>Node13&#45;&gt;Node14</title>
<g id="a_edge19_Node000013_Node000014"><a xlink:title=" ">
<path fill="none" stroke="#63b8ff" d="M1122.39,-222.72C1044.52,-212.87 901.87,-194.83 819.42,-184.4"/>
<polygon fill="#63b8ff" stroke="#63b8ff" points="820.06,-180.95 809.7,-183.17 819.18,-187.89 820.06,-180.95"/>
</a>
</g>
</g>
<!-- Node15 -->
<g id="Node000015" class="node">
<title>Node15</title>
<g id="a_Node000015"><a xlink:title=" ">
<polygon fill="#e0e0e0" stroke="#999999" points="1181,-129.75 1123,-129.75 1123,-110.5 1181,-110.5 1181,-129.75"/>
<text text-anchor="middle" x="1152" y="-116.25" font-family="Helvetica,sans-Serif" font-size="10.00">functional</text>
</a>
</g>
</g>
<!-- Node13&#45;&gt;Node15 -->
<g id="edge30_Node000013_Node000015" class="edge">
<title>Node13&#45;&gt;Node15</title>
<g id="a_edge30_Node000013_Node000015"><a xlink:title=" ">
<path fill="none" stroke="#63b8ff" d="M1153.24,-220.51C1138.16,-213.34 1119.89,-201.74 1111,-185 1102.04,-168.13 1116.37,-149.89 1130.48,-137.24"/>
<polygon fill="#63b8ff" stroke="#63b8ff" points="1132.41,-140.19 1137.87,-131.11 1127.94,-134.8 1132.41,-140.19"/>
</a>
</g>
</g>
<!-- Node16 -->
<g id="Node000016" class="node">
<title>Node16</title>
<g id="a_Node000016"><a xlink:title=" ">
<polygon fill="#e0e0e0" stroke="#999999" points="1263,-129.75 1217,-129.75 1217,-110.5 1263,-110.5 1263,-129.75"/>
<text text-anchor="middle" x="1240" y="-116.25" font-family="Helvetica,sans-Serif" font-size="10.00">iterator</text>
</a>
</g>
</g>
<!-- Node13&#45;&gt;Node16 -->
<g id="edge31_Node000013_Node000016" class="edge">
<title>Node13&#45;&gt;Node16</title>
<g id="a_edge31_Node000013_Node000016"><a xlink:title=" ">
<path fill="none" stroke="#63b8ff" d="M1203.94,-220.61C1220.14,-213.64 1239.41,-202.22 1249,-185 1256.58,-171.38 1253.26,-153.68 1248.64,-140.37"/>
<polygon fill="#63b8ff" stroke="#63b8ff" points="1252.03,-139.4 1245.06,-131.42 1245.53,-142 1252.03,-139.4"/>
</a>
</g>
</g>
<!-- Node19 -->
<g id="Node000019" class="node">
<title>Node19</title>
<g id="a_Node000019"><a xlink:title=" ">
<polygon fill="#e0e0e0" stroke="#999999" points="957.88,-185 902.12,-185 902.12,-165.75 957.88,-165.75 957.88,-185"/>
<text text-anchor="middle" x="930" y="-171.5" font-family="Helvetica,sans-Serif" font-size="10.00">algorithm</text>
</a>
</g>
</g>
<!-- Node13&#45;&gt;Node19 -->
<g id="edge29_Node000013_Node000019" class="edge">
<title>Node13&#45;&gt;Node19</title>
<g id="a_edge29_Node000013_Node000019"><a xlink:title=" ">
<path fill="none" stroke="#63b8ff" d="M1134.82,-220.53C1088.43,-210.53 1014.48,-194.59 969.28,-184.84"/>
<polygon fill="#63b8ff" stroke="#63b8ff" points="970.16,-181.45 959.64,-182.77 968.68,-188.29 970.16,-181.45"/>
</a>
</g>
</g>
<!-- Node13&#45;&gt;Node20 -->
<g id="edge32_Node000013_Node000020" class="edge">
<title>Node13&#45;&gt;Node20</title>
<g id="a_edge32_Node000013_Node000020"><a xlink:title=" ">
<path fill="none" stroke="#63b8ff" d="M1153.59,-220.59C1131.48,-212.06 1098.08,-199.17 1073.03,-189.51"/>
<polygon fill="#63b8ff" stroke="#63b8ff" points="1074.53,-186.33 1063.94,-186 1072.01,-192.86 1074.53,-186.33"/>
</a>
</g>
</g>
<!-- Node13&#45;&gt;Node21 -->
<g id="edge33_Node000013_Node000021" class="edge">
<title>Node13&#45;&gt;Node21</title>
<g id="a_edge33_Node000013_Node000021"><a xlink:title=" ">
<path fill="none" stroke="#63b8ff" d="M1213.98,-220.59C1255.11,-210.55 1321,-194.45 1360.92,-184.7"/>
<polygon fill="#63b8ff" stroke="#63b8ff" points="1361.58,-188.14 1370.46,-182.37 1359.92,-181.34 1361.58,-188.14"/>
</a>
</g>
</g>
<!-- Node22 -->
<g id="Node000022" class="node">
<title>Node22</title>
<g id="a_Node000022"><a xlink:title=" ">
<polygon fill="#e0e0e0" stroke="#999999" points="1176.25,-185 1119.75,-185 1119.75,-165.75 1176.25,-165.75 1176.25,-185"/>
<text text-anchor="middle" x="1148" y="-171.5" font-family="Helvetica,sans-Serif" font-size="10.00">typeindex</text>
</a>
</g>
</g>
<!-- Node13&#45;&gt;Node22 -->
<g id="edge34_Node000013_Node000022" class="edge">
<title>Node13&#45;&gt;Node22</title>
<g id="a_edge34_Node000013_Node000022"><a xlink:title=" ">
<path fill="none" stroke="#63b8ff" d="M1172.21,-220.83C1168.46,-213.94 1163.09,-204.09 1158.37,-195.41"/>
<polygon fill="#63b8ff" stroke="#63b8ff" points="1161.47,-193.8 1153.62,-186.69 1155.33,-197.14 1161.47,-193.8"/>
</a>
</g>
</g>
<!-- Node23 -->
<g id="Node000023" class="node">
<title>Node23</title>
<g id="a_Node000023"><a xlink:title=" ">
<polygon fill="#e0e0e0" stroke="#999999" points="1239.62,-185 1194.38,-185 1194.38,-165.75 1239.62,-165.75 1239.62,-185"/>
<text text-anchor="middle" x="1217" y="-171.5" font-family="Helvetica,sans-Serif" font-size="10.00">variant</text>
</a>
</g>
</g>
<!-- Node13&#45;&gt;Node23 -->
<g id="edge35_Node000013_Node000023" class="edge">
<title>Node13&#45;&gt;Node23</title>
<g id="a_edge35_Node000013_Node000023"><a xlink:title=" ">
<path fill="none" stroke="#63b8ff" d="M1183.61,-220.83C1188.96,-213.71 1196.68,-203.43 1203.35,-194.55"/>
<polygon fill="#63b8ff" stroke="#63b8ff" points="1206.13,-196.67 1209.34,-186.57 1200.54,-192.46 1206.13,-196.67"/>
</a>
</g>
</g>
<!-- Node13&#45;&gt;Node24 -->
<g id="edge36_Node000013_Node000024" class="edge">
<title>Node13&#45;&gt;Node24</title>
<g id="a_edge36_Node000013_Node000024"><a xlink:title=" ">
<path fill="none" stroke="#63b8ff" d="M1231.95,-221.49C1280.34,-213.95 1352.92,-201.73 1424.16,-185.48"/>
<polygon fill="#63b8ff" stroke="#63b8ff" points="1424.68,-188.95 1433.64,-183.29 1423.11,-182.13 1424.68,-188.95"/>
</a>
</g>
</g>
<!-- Node14&#45;&gt;Node3 -->
<g id="edge20_Node000014_Node000003" class="edge">
<title>Node14&#45;&gt;Node3</title>
<g id="a_edge20_Node000014_Node000003"><a xlink:title=" ">
<path fill="none" stroke="#63b8ff" d="M808.34,-167.55C887.49,-157.03 1029.42,-137.26 1038,-129.75 1050.39,-118.9 1054.87,-100.38 1056.41,-86.06"/>
<polygon fill="#63b8ff" stroke="#63b8ff" points="1059.89,-86.58 1057.04,-76.37 1052.9,-86.13 1059.89,-86.58"/>
</a>
</g>
</g>
<!-- Node14&#45;&gt;Node4 -->
<g id="edge26_Node000014_Node000004" class="edge">
<title>Node14&#45;&gt;Node4</title>
<g id="a_edge26_Node000014_Node000004"><a xlink:title=" ">
<path fill="none" stroke="#63b8ff" d="M766.27,-165.34C796.44,-138.77 885.16,-60.66 923.74,-26.7"/>
<polygon fill="#63b8ff" stroke="#63b8ff" points="925.66,-29.67 930.86,-20.43 921.04,-24.42 925.66,-29.67"/>
</a>
</g>
</g>
<!-- Node14&#45;&gt;Node9 -->
<g id="edge21_Node000014_Node000009" class="edge">
<title>Node14&#45;&gt;Node9</title>
<g id="a_edge21_Node000014_Node000009"><a xlink:title=" ">
<path fill="none" stroke="#63b8ff" d="M759.28,-165.66C763.49,-153.33 769.81,-130.11 766,-110.5 764.33,-101.9 761.01,-92.85 757.66,-85.17"/>
<polygon fill="#63b8ff" stroke="#63b8ff" points="760.85,-83.72 753.43,-76.16 754.52,-86.7 760.85,-83.72"/>
</a>
</g>
</g>
<!-- Node14&#45;&gt;Node10 -->
<g id="edge24_Node000014_Node000010" class="edge">
<title>Node14&#45;&gt;Node10</title>
<g id="a_edge24_Node000014_Node000010"><a xlink:title=" ">
<path fill="none" stroke="#63b8ff" d="M754.16,-165.43C750.99,-151.96 743.28,-126.38 728,-110.5 714.34,-96.31 695.24,-86.03 677.98,-78.95"/>
<polygon fill="#63b8ff" stroke="#63b8ff" points="679.53,-75.8 668.94,-75.48 677.03,-82.33 679.53,-75.8"/>
</a>
</g>
</g>
<!-- Node14&#45;&gt;Node11 -->
<g id="edge28_Node000014_Node000011" class="edge">
<title>Node14&#45;&gt;Node11</title>
<g id="a_edge28_Node000014_Node000011"><a xlink:title=" ">
<path fill="none" stroke="#63b8ff" d="M750.02,-165.44C740.21,-151.51 719.36,-124.74 695,-110.5 670.69,-96.29 594.35,-80.05 550.95,-71.63"/>
<polygon fill="#63b8ff" stroke="#63b8ff" points="551.62,-68.19 541.14,-69.75 550.31,-75.07 551.62,-68.19"/>
</a>
</g>
</g>
<!-- Node14&#45;&gt;Node15 -->
<g id="edge22_Node000014_Node000015" class="edge">
<title>Node14&#45;&gt;Node15</title>
<g id="a_edge22_Node000014_Node000015"><a xlink:title=" ">
<path fill="none" stroke="#63b8ff" d="M808.18,-167.36C888.15,-156.6 1039.36,-136.27 1111.6,-126.56"/>
<polygon fill="#63b8ff" stroke="#63b8ff" points="1111.96,-130.04 1121.4,-125.24 1111.02,-123.1 1111.96,-130.04"/>
</a>
</g>
</g>
<!-- Node14&#45;&gt;Node16 -->
<g id="edge23_Node000014_Node000016" class="edge">
<title>Node14&#45;&gt;Node16</title>
<g id="a_edge23_Node000014_Node000016"><a xlink:title=" ">
<path fill="none" stroke="#63b8ff" d="M808.25,-170.16C889.91,-163.32 1052.68,-148.63 1190,-129.75 1195.05,-129.06 1200.36,-128.24 1205.57,-127.38"/>
<polygon fill="#63b8ff" stroke="#63b8ff" points="1205.89,-130.88 1215.16,-125.75 1204.71,-123.98 1205.89,-130.88"/>
</a>
</g>
</g>
<!-- Node17 -->
<g id="Node000017" class="node">
<title>Node17</title>
<g id="a_Node000017"><a xlink:title=" ">
<polygon fill="#e0e0e0" stroke="#999999" points="945.62,-129.75 894.38,-129.75 894.38,-110.5 945.62,-110.5 945.62,-129.75"/>
<text text-anchor="middle" x="920" y="-116.25" font-family="Helvetica,sans-Serif" font-size="10.00">sstream</text>
</a>
</g>
</g>
<!-- Node14&#45;&gt;Node17 -->
<g id="edge25_Node000014_Node000017" class="edge">
<title>Node14&#45;&gt;Node17</title>
<g id="a_edge25_Node000014_Node000017"><a xlink:title=" ">
<path fill="none" stroke="#63b8ff" d="M783.82,-165.34C811.13,-156.47 852.95,-142.9 883.04,-133.13"/>
<polygon fill="#63b8ff" stroke="#63b8ff" points="884.07,-136.47 892.5,-130.05 881.91,-129.81 884.07,-136.47"/>
</a>
</g>
</g>
<!-- Node18 -->
<g id="Node000018" class="node">
<title>Node18</title>
<g id="a_Node000018"><a xlink:title=" ">
<polygon fill="#e0e0e0" stroke="#999999" points="1028.75,-129.75 963.25,-129.75 963.25,-110.5 1028.75,-110.5 1028.75,-129.75"/>
<text text-anchor="middle" x="996" y="-116.25" font-family="Helvetica,sans-Serif" font-size="10.00">string_view</text>
</a>
</g>
</g>
<!-- Node14&#45;&gt;Node18 -->
<g id="edge27_Node000014_Node000018" class="edge">
<title>Node14&#45;&gt;Node18</title>
<g id="a_edge27_Node000014_Node000018"><a xlink:title=" ">
<path fill="none" stroke="#63b8ff" d="M796.98,-165.28C840.09,-155.72 907.68,-140.72 951.92,-130.91"/>
<polygon fill="#63b8ff" stroke="#63b8ff" points="952.43,-134.38 961.43,-128.79 950.91,-127.54 952.43,-134.38"/>
</a>
</g>
</g>
<!-- Node25&#45;&gt;Node3 -->
<g id="edge38_Node000025_Node000003" class="edge">
<title>Node25&#45;&gt;Node3</title>
<g id="a_edge38_Node000025_Node000003"><a xlink:title=" ">
<path fill="none" stroke="#63b8ff" d="M684.18,-331.17C714.1,-298.65 818.07,-187.46 861,-165.75 940.42,-125.58 1001,-198.11 1058,-129.75 1068,-117.76 1066.7,-99.64 1063.5,-85.76"/>
<polygon fill="#63b8ff" stroke="#63b8ff" points="1066.94,-85.05 1060.85,-76.37 1060.2,-86.95 1066.94,-85.05"/>
</a>
</g>
</g>
<!-- Node25&#45;&gt;Node6 -->
<g id="edge59_Node000025_Node000006" class="edge">
<title>Node25&#45;&gt;Node6</title>
<g id="a_edge59_Node000025_Node000006"><a xlink:title=" ">
<path fill="none" stroke="#63b8ff" d="M633.61,-331.03C601.06,-323.38 555.35,-311.18 517,-295.5 422.64,-256.92 403.83,-236.76 316,-185 283.97,-166.13 193.94,-108.72 150.72,-81.08"/>
<polygon fill="#63b8ff" stroke="#63b8ff" points="152.63,-78.14 142.32,-75.7 148.86,-84.04 152.63,-78.14"/>
</a>
</g>
</g>
<!-- Node25&#45;&gt;Node7 -->
<g id="edge53_Node000025_Node000007" class="edge">
<title>Node25&#45;&gt;Node7</title>
<g id="a_edge53_Node000025_Node000007"><a xlink:title=" ">
<path fill="none" stroke="#63b8ff" d="M675.43,-331.29C673.64,-305.49 667.29,-228.08 652,-165.75 649.94,-157.36 646.88,-148.36 643.99,-140.64"/>
<polygon fill="#63b8ff" stroke="#63b8ff" points="647.35,-139.62 640.43,-131.59 640.83,-142.18 647.35,-139.62"/>
</a>
</g>
</g>
<!-- Node25&#45;&gt;Node8 -->
<g id="edge56_Node000025_Node000008" class="edge">
<title>Node25&#45;&gt;Node8</title>
<g id="a_edge56_Node000025_Node000008"><a xlink:title=" ">
<path fill="none" stroke="#63b8ff" d="M634.63,-331C608.2,-323.96 573.96,-312.5 547,-295.5 460.65,-241.05 399.14,-129.61 377.02,-84.98"/>
<polygon fill="#63b8ff" stroke="#63b8ff" points="380.21,-83.54 372.7,-76.06 373.91,-86.59 380.21,-83.54"/>
</a>
</g>
</g>
<!-- Node25&#45;&gt;Node14 -->
<g id="edge39_Node000025_Node000014" class="edge">
<title>Node25&#45;&gt;Node14</title>
<g id="a_edge39_Node000025_Node000014"><a xlink:title=" ">
<path fill="none" stroke="#63b8ff" d="M680.3,-331.32C692.84,-305.67 729.53,-230.55 746.81,-195.19"/>
<polygon fill="#63b8ff" stroke="#63b8ff" points="749.77,-197.1 751.01,-186.58 743.48,-194.03 749.77,-197.1"/>
</a>
</g>
</g>
<!-- Node25&#45;&gt;Node15 -->
<g id="edge57_Node000025_Node000015" class="edge">
<title>Node25&#45;&gt;Node15</title>
<g id="a_edge57_Node000025_Node000015"><a xlink:title=" ">
<path fill="none" stroke="#63b8ff" d="M699.39,-331.1C718.3,-323.21 745.12,-310.67 766,-295.5 831.29,-248.08 821.45,-203.06 893,-165.75 979.3,-120.75 1013.28,-147.32 1109,-129.75 1109.98,-129.57 1110.98,-129.38 1111.98,-129.2"/>
<polygon fill="#63b8ff" stroke="#63b8ff" points="1112.24,-132.71 1121.39,-127.39 1110.91,-125.84 1112.24,-132.71"/>
</a>
</g>
</g>
<!-- Node25&#45;&gt;Node19 -->
<g id="edge54_Node000025_Node000019" class="edge">
<title>Node25&#45;&gt;Node19</title>
<g id="a_edge54_Node000025_Node000019"><a xlink:title=" ">
<path fill="none" stroke="#63b8ff" d="M735.49,-335.39C769.56,-330.1 811.47,-318.95 842,-295.5 872.32,-272.21 861.67,-251.28 885,-221 892.78,-210.91 902.72,-200.82 911.29,-192.79"/>
<polygon fill="#63b8ff" stroke="#63b8ff" points="913.4,-195.6 918.44,-186.28 908.69,-190.42 913.4,-195.6"/>
</a>
</g>
</g>
<!-- Node25&#45;&gt;Node26 -->
<g id="edge40_Node000025_Node000026" class="edge">
<title>Node25&#45;&gt;Node26</title>
<g id="a_edge40_Node000025_Node000026"><a xlink:title=" ">
<path fill="none" stroke="#63b8ff" d="M730.48,-331.03C785.56,-321.84 870.73,-307.62 929.47,-297.81"/>
<polygon fill="#63b8ff" stroke="#63b8ff" points="929.7,-301.32 938.99,-296.22 928.55,-294.42 929.7,-301.32"/>
</a>
</g>
</g>
<!-- Node29 -->
<g id="Node000029" class="node">
<title>Node29</title>
<g id="a_Node000029"><a xlink:title=" ">
<polygon fill="#e0e0e0" stroke="#999999" points="592.5,-295.5 555.5,-295.5 555.5,-276.25 592.5,-276.25 592.5,-295.5"/>
<text text-anchor="middle" x="574" y="-282" font-family="Helvetica,sans-Serif" font-size="10.00">array</text>
</a>
</g>
</g>
<!-- Node25&#45;&gt;Node29 -->
<g id="edge55_Node000025_Node000029" class="edge">
<title>Node25&#45;&gt;Node29</title>
<g id="a_edge55_Node000025_Node000029"><a xlink:title=" ">
<path fill="none" stroke="#63b8ff" d="M658.7,-331.09C643.02,-322.91 619.65,-310.71 601.42,-301.19"/>
<polygon fill="#63b8ff" stroke="#63b8ff" points="603.21,-298.18 592.73,-296.65 599.97,-304.38 603.21,-298.18"/>
</a>
</g>
</g>
<!-- Node30 -->
<g id="Node000030" class="node">
<title>Node30</title>
<g id="a_Node000030"><a xlink:title=" ">
<polygon fill="#e0e0e0" stroke="#999999" points="647.5,-295.5 610.5,-295.5 610.5,-276.25 647.5,-276.25 647.5,-295.5"/>
<text text-anchor="middle" x="629" y="-282" font-family="Helvetica,sans-Serif" font-size="10.00">span</text>
</a>
</g>
</g>
<!-- Node25&#45;&gt;Node30 -->
<g id="edge58_Node000025_Node000030" class="edge">
<title>Node25&#45;&gt;Node30</title>
<g id="a_edge58_Node000025_Node000030"><a xlink:title=" ">
<path fill="none" stroke="#63b8ff" d="M668.24,-331.33C661.81,-324.05 652.49,-313.48 644.54,-304.48"/>
<polygon fill="#63b8ff" stroke="#63b8ff" points="647.17,-302.18 637.93,-296.99 641.92,-306.81 647.17,-302.18"/>
</a>
</g>
</g>
<!-- Node26&#45;&gt;Node2 -->
<g id="edge41_Node000026_Node000002" class="edge">
<title>Node26&#45;&gt;Node2</title>
<g id="a_edge41_Node000026_Node000002"><a xlink:title=" ">
<path fill="none" stroke="#63b8ff" d="M958.99,-275.81C881.35,-256.27 698.19,-210.15 611.31,-188.28"/>
<polygon fill="#63b8ff" stroke="#63b8ff" points="612.23,-184.91 601.67,-185.86 610.52,-191.69 612.23,-184.91"/>
</a>
</g>
</g>
<!-- Node26&#45;&gt;Node3 -->
<g id="edge42_Node000026_Node000003" class="edge">
<title>Node26&#45;&gt;Node3</title>
<g id="a_edge42_Node000026_Node000003"><a xlink:title=" ">
<path fill="none" stroke="#63b8ff" d="M1051.41,-279.28C1113.83,-272.29 1209.75,-258.93 1241,-240.25 1267.94,-224.14 1273.06,-214.03 1285,-185 1297.64,-154.28 1312.17,-136.09 1291,-110.5 1269.16,-84.1 1177.57,-73.18 1115.67,-68.76"/>
<polygon fill="#63b8ff" stroke="#63b8ff" points="1116.2,-65.29 1105.99,-68.11 1115.73,-72.27 1116.2,-65.29"/>
</a>
</g>
</g>
<!-- Node26&#45;&gt;Node8 -->
<g id="edge46_Node000026_Node000008" class="edge">
<title>Node26&#45;&gt;Node8</title>
<g id="a_edge46_Node000026_Node000008"><a xlink:title=" ">
<path fill="none" stroke="#63b8ff" d="M938.76,-282.67C844.96,-277 652.7,-256.81 509,-185 456.66,-158.85 407.26,-109.4 383.23,-83.2"/>
<polygon fill="#63b8ff" stroke="#63b8ff" points="385.86,-80.9 376.57,-75.8 380.66,-85.58 385.86,-80.9"/>
</a>
</g>
</g>
<!-- Node26&#45;&gt;Node13 -->
<g id="edge44_Node000026_Node000013" class="edge">
<title>Node26&#45;&gt;Node13</title>
<g id="a_edge44_Node000026_Node000013"><a xlink:title=" ">
<path fill="none" stroke="#63b8ff" d="M1025.87,-275.84C1055.94,-267.04 1101.86,-253.61 1135.19,-243.86"/>
<polygon fill="#63b8ff" stroke="#63b8ff" points="1135.91,-247.29 1144.52,-241.13 1133.94,-240.58 1135.91,-247.29"/>
</a>
</g>
</g>
<!-- Node26&#45;&gt;Node14 -->
<g id="edge43_Node000026_Node000014" class="edge">
<title>Node26&#45;&gt;Node14</title>
<g id="a_edge43_Node000026_Node000014"><a xlink:title=" ">
<path fill="none" stroke="#63b8ff" d="M971.18,-275.8C948.75,-267.12 914.32,-253.44 885,-240.25 849.5,-224.29 809.45,-204.1 783.52,-190.75"/>
<polygon fill="#63b8ff" stroke="#63b8ff" points="785.16,-187.65 774.67,-186.17 781.95,-193.87 785.16,-187.65"/>
</a>
</g>
</g>
<!-- Node26&#45;&gt;Node15 -->
<g id="edge48_Node000026_Node000015" class="edge">
<title>Node26&#45;&gt;Node15</title>
<g id="a_edge48_Node000026_Node000015"><a xlink:title=" ">
<path fill="none" stroke="#63b8ff" d="M992.7,-275.88C987.74,-254.22 978.51,-198.51 1005,-165.75 1011.9,-157.22 1070.65,-141.22 1111.75,-130.88"/>
<polygon fill="#63b8ff" stroke="#63b8ff" points="1112.49,-134.3 1121.35,-128.49 1110.8,-127.51 1112.49,-134.3"/>
</a>
</g>
</g>
<!-- Node26&#45;&gt;Node19 -->
<g id="edge45_Node000026_Node000019" class="edge">
<title>Node26&#45;&gt;Node19</title>
<g id="a_edge45_Node000026_Node000019"><a xlink:title=" ">
<path fill="none" stroke="#63b8ff" d="M990.7,-276.01C984.54,-263.51 972.65,-240.09 961,-221 955.54,-212.06 948.98,-202.47 943.3,-194.48"/>
<polygon fill="#63b8ff" stroke="#63b8ff" points="946.32,-192.68 937.62,-186.62 940.64,-196.78 946.32,-192.68"/>
</a>
</g>
</g>
<!-- Node26&#45;&gt;Node20 -->
<g id="edge50_Node000026_Node000020" class="edge">
<title>Node26&#45;&gt;Node20</title>
<g id="a_edge50_Node000026_Node000020"><a xlink:title=" ">
<path fill="none" stroke="#63b8ff" d="M1005.06,-276.06C1013.79,-267.77 1025.95,-254.52 1032,-240.25 1037.81,-226.54 1039.46,-209.76 1039.72,-196.84"/>
<polygon fill="#63b8ff" stroke="#63b8ff" points="1043.22,-196.94 1039.62,-186.97 1036.22,-197.01 1043.22,-196.94"/>
</a>
</g>
</g>
<!-- Node26&#45;&gt;Node21 -->
<g id="edge51_Node000026_Node000021" class="edge">
<title>Node26&#45;&gt;Node21</title>
<g id="a_edge51_Node000026_Node000021"><a xlink:title=" ">
<path fill="none" stroke="#63b8ff" d="M1051.24,-282C1109.96,-277.65 1204.05,-266.84 1281,-240.25 1315.06,-228.48 1350.74,-206.72 1372.92,-191.91"/>
<polygon fill="#63b8ff" stroke="#63b8ff" points="1374.84,-194.83 1381.13,-186.31 1370.9,-189.05 1374.84,-194.83"/>
</a>
</g>
</g>
<!-- Node26&#45;&gt;Node24 -->
<g id="edge52_Node000026_Node000024" class="edge">
<title>Node26&#45;&gt;Node24</title>
<g id="a_edge52_Node000026_Node000024"><a xlink:title=" ">
<path fill="none" stroke="#63b8ff" d="M1051.4,-281.94C1116.31,-277.44 1225.61,-266.41 1316,-240.25 1357.93,-228.11 1403.42,-205.66 1431.07,-190.87"/>
<polygon fill="#63b8ff" stroke="#63b8ff" points="1432.64,-194 1439.76,-186.15 1429.3,-187.85 1432.64,-194"/>
</a>
</g>
</g>
<!-- Node27 -->
<g id="Node000027" class="node">
<title>Node27</title>
<g id="a_Node000027"><a xlink:title=" ">
<polygon fill="#e0e0e0" stroke="#999999" points="951.62,-240.25 894.38,-240.25 894.38,-221 951.62,-221 951.62,-240.25"/>
<text text-anchor="middle" x="923" y="-226.75" font-family="Helvetica,sans-Serif" font-size="10.00">exception</text>
</a>
</g>
</g>
<!-- Node26&#45;&gt;Node27 -->
<g id="edge47_Node000026_Node000027" class="edge">
<title>Node26&#45;&gt;Node27</title>
<g id="a_edge47_Node000026_Node000027"><a xlink:title=" ">
<path fill="none" stroke="#63b8ff" d="M982.79,-275.84C972.17,-267.99 956.56,-256.45 943.96,-247.12"/>
<polygon fill="#63b8ff" stroke="#63b8ff" points="946.37,-244.56 936.25,-241.42 942.21,-250.19 946.37,-244.56"/>
</a>
</g>
</g>
<!-- Node26&#45;&gt;Node28 -->
<g id="edge49_Node000026_Node000028" class="edge">
<title>Node26&#45;&gt;Node28</title>
<g id="a_edge49_Node000026_Node000028"><a xlink:title=" ">
<path fill="none" stroke="#63b8ff" d="M938.62,-281.05C787.09,-270.75 374.03,-242.7 248,-234.14"/>
<polygon fill="#63b8ff" stroke="#63b8ff" points="248.44,-230.66 238.23,-233.47 247.97,-237.64 248.44,-230.66"/>
</a>
</g>
</g>
</g>
</svg>
