<?xml version="1.0" encoding="UTF-8" standalone="no"?>
<!DOCTYPE svg PUBLIC "-//W3C//DTD SVG 1.1//EN"
 "http://www.w3.org/Graphics/SVG/1.1/DTD/svg11.dtd">
<!-- Generated by graphviz version 9.0.0 (20230911.1827)
 -->
<!-- Title: mimic++/Expectation.hpp Pages: 1 -->
<!--zoomable 248 -->

<svg id="main" version="1.1" xmlns="http://www.w3.org/2000/svg" xmlns:xlink="http://www.w3.org/1999/xlink" xml:space="preserve" onload="init(evt)">
<style type="text/css"><![CDATA[
.node, .edge {opacity: 0.7;}
.node.selected, .edge.selected {opacity: 1;}
.edge:hover path { stroke: red; }
.edge:hover polygon { stroke: red; fill: red; }
]]></style>

<defs>
  <circle id="rim" cx="0" cy="0" r="7"/>
  <circle id="rim2" cx="0" cy="0" r="3.5"/>
  <g id="zoomPlus">
    <use xlink:href="#rim" fill="#404040"><set attributeName="fill" to="#808080" begin="zoomplus.mouseover" end="zoomplus.mouseout"/></use>
    <path d="M-4,0h8M0,-4v8" fill="none" stroke="white" stroke-width="1.5" pointer-events="none"/>
  </g>
  <g id="zoomMin">
    <use xlink:href="#rim" fill="#404040"><set attributeName="fill" to="#808080" begin="zoomminus.mouseover" end="zoomminus.mouseout"/></use>
    <path d="M-4,0h8" fill="none" stroke="white" stroke-width="1.5" pointer-events="none"/>
  </g>
  <g id="arrowUp" transform="translate(30 24)">
    <use xlink:href="#rim"/>
    <path pointer-events="none" fill="none" stroke="white" stroke-width="1.5" d="M0,-3.0v7 M-2.5,-0.5L0,-3.0L2.5,-0.5"/>
  </g>
  <g id="arrowRight" transform="rotate(90) translate(36 -43)">
    <use xlink:href="#rim"/>
    <path pointer-events="none" fill="none" stroke="white" stroke-width="1.5" d="M0,-3.0v7 M-2.5,-0.5L0,-3.0L2.5,-0.5"/>
  </g>
  <g id="arrowDown" transform="rotate(180) translate(-30 -48)">
    <use xlink:href="#rim"/>
    <path pointer-events="none" fill="none" stroke="white" stroke-width="1.5" d="M0,-3.0v7 M-2.5,-0.5L0,-3.0L2.5,-0.5"/>
  </g>
  <g id="arrowLeft" transform="rotate(270) translate(-36 17)">
    <use xlink:href="#rim"/>
    <path pointer-events="none" fill="none" stroke="white" stroke-width="1.5" d="M0,-3.0v7 M-2.5,-0.5L0,-3.0L2.5,-0.5"/>
  </g>
  <g id="resetDef">
    <use xlink:href="#rim2" fill="#404040"><set attributeName="fill" to="#808080" begin="reset.mouseover" end="reset.mouseout"/></use>
  </g>
</defs>
<script type="application/ecmascript">
var viewWidth = 1211;
var viewHeight = 248;
var sectionId = 'dynsection-0';
</script>
<script type="application/ecmascript" xlink:href="../../svg.min.js"/>
<svg id="graph" class="graph">
<g id="viewport">
<title>mimic++/Expectation.hpp</title>
<!-- Node1 -->
<g id="Node000001" class="node">
<title>Node1</title>
<g id="a_Node000001"><a xlink:title=" ">
<polygon fill="#999999" stroke="#666666" points="942.24,-240.25 816.74,-240.25 816.74,-221 942.24,-221 942.24,-240.25"/>
<text text-anchor="middle" x="879.49" y="-226.75" font-family="Helvetica,sans-Serif" font-size="10.00">mimic++/Expectation.hpp</text>
</a>
</g>
</g>
<!-- Node2 -->
<g id="Node000002" class="node">
<title>Node2</title>
<g id="a_Node000002"><a xlink:href="../../dc/d44/_call_8hpp.html" target="_top" xlink:title=" ">
<polygon fill="white" stroke="#666666" points="499.74,-129.75 449.24,-129.75 449.24,-110.5 499.74,-110.5 499.74,-129.75"/>
<text text-anchor="middle" x="474.49" y="-116.25" font-family="Helvetica,sans-Serif" font-size="10.00">Call.hpp</text>
</a>
</g>
</g>
<!-- Node1&#45;&gt;Node2 -->
<g id="edge1_Node000001_Node000002" class="edge">
<title>Node1&#45;&gt;Node2</title>
<g id="a_edge1_Node000001_Node000002"><a xlink:title=" ">
<path fill="none" stroke="#63b8ff" d="M845.65,-220.56C770.18,-200.34 588.61,-151.7 510.84,-130.86"/>
<polygon fill="#63b8ff" stroke="#63b8ff" points="512.17,-127.6 501.61,-128.39 510.36,-134.36 512.17,-127.6"/>
</a>
</g>
</g>
<!-- Node3 -->
<g id="Node000003" class="node">
<title>Node3</title>
<g id="a_Node000003"><a xlink:href="../../d8/d32/_type_traits_8hpp.html" target="_top" xlink:title=" ">
<polygon fill="white" stroke="#666666" points="134.99,-74.5 13.99,-74.5 13.99,-55.25 134.99,-55.25 134.99,-74.5"/>
<text text-anchor="middle" x="74.49" y="-61" font-family="Helvetica,sans-Serif" font-size="10.00">mimic++/TypeTraits.hpp</text>
</a>
</g>
</g>
<!-- Node1&#45;&gt;Node3 -->
<g id="edge28_Node000001_Node000003" class="edge">
<title>Node1&#45;&gt;Node3</title>
<g id="a_edge28_Node000001_Node000003"><a xlink:title=" ">
<path fill="none" stroke="#63b8ff" d="M816.56,-224.97C740.51,-218.72 608.88,-205.92 497.49,-185 401.79,-167.03 379.21,-156.14 285.49,-129.75 225.42,-112.84 156.27,-91.56 113.98,-78.33"/>
<polygon fill="#63b8ff" stroke="#63b8ff" points="115.09,-75.01 104.5,-75.36 112.99,-81.69 115.09,-75.01"/>
</a>
</g>
</g>
<!-- Node4 -->
<g id="Node000004" class="node">
<title>Node4</title>
<g id="a_Node000004"><a xlink:title=" ">
<polygon fill="#e0e0e0" stroke="#999999" points="92.99,-19.25 55.99,-19.25 55.99,0 92.99,0 92.99,-19.25"/>
<text text-anchor="middle" x="74.49" y="-5.75" font-family="Helvetica,sans-Serif" font-size="10.00">tuple</text>
</a>
</g>
</g>
<!-- Node1&#45;&gt;Node4 -->
<g id="edge34_Node000001_Node000004" class="edge">
<title>Node1&#45;&gt;Node4</title>
<g id="a_edge34_Node000001_Node000004"><a xlink:title=" ">
<path fill="none" stroke="#63b8ff" d="M816.41,-227.14C725.44,-222.77 552.42,-211.51 407.49,-185 224.8,-151.58 117.12,-222.17 4.49,-74.5 -11.4,-53.67 19.57,-34.04 45.24,-22.17"/>
<polygon fill="#63b8ff" stroke="#63b8ff" points="46.61,-25.39 54.38,-18.19 43.82,-18.98 46.61,-25.39"/>
</a>
</g>
</g>
<!-- Node13 -->
<g id="Node000013" class="node">
<title>Node13</title>
<g id="a_Node000013"><a xlink:title=" ">
<polygon fill="#e0e0e0" stroke="#999999" points="195.99,-74.5 152.99,-74.5 152.99,-55.25 195.99,-55.25 195.99,-74.5"/>
<text text-anchor="middle" x="174.49" y="-61" font-family="Helvetica,sans-Serif" font-size="10.00">vector</text>
</a>
</g>
</g>
<!-- Node1&#45;&gt;Node13 -->
<g id="edge36_Node000001_Node000013" class="edge">
<title>Node1&#45;&gt;Node13</title>
<g id="a_edge36_Node000001_Node000013"><a xlink:title=" ">
<path fill="none" stroke="#63b8ff" d="M816.46,-221.3C716.07,-207.25 514.15,-175.81 347.49,-129.75 296.81,-115.74 239.96,-93.42 205.71,-79.22"/>
<polygon fill="#63b8ff" stroke="#63b8ff" points="207.39,-76.13 196.81,-75.49 204.69,-82.58 207.39,-76.13"/>
</a>
</g>
</g>
<!-- Node14 -->
<g id="Node000014" class="node">
<title>Node14</title>
<g id="a_Node000014"><a xlink:href="../../da/dd9/_reporter_8hpp.html" target="_top" xlink:title=" ">
<polygon fill="white" stroke="#666666" points="797.86,-185 727.11,-185 727.11,-165.75 797.86,-165.75 797.86,-185"/>
<text text-anchor="middle" x="762.49" y="-171.5" font-family="Helvetica,sans-Serif" font-size="10.00">Reporter.hpp</text>
</a>
</g>
</g>
<!-- Node1&#45;&gt;Node14 -->
<g id="edge16_Node000001_Node000014" class="edge">
<title>Node1&#45;&gt;Node14</title>
<g id="a_edge16_Node000001_Node000014"><a xlink:title=" ">
<path fill="none" stroke="#63b8ff" d="M859.64,-220.59C841.32,-212.25 813.84,-199.75 792.78,-190.16"/>
<polygon fill="#63b8ff" stroke="#63b8ff" points="794.36,-187.04 783.81,-186.08 791.46,-193.41 794.36,-187.04"/>
</a>
</g>
</g>
<!-- Node19 -->
<g id="Node000019" class="node">
<title>Node19</title>
<g id="a_Node000019"><a xlink:title=" ">
<polygon fill="#e0e0e0" stroke="#999999" points="1066.74,-74.5 1028.24,-74.5 1028.24,-55.25 1066.74,-55.25 1066.74,-74.5"/>
<text text-anchor="middle" x="1047.49" y="-61" font-family="Helvetica,sans-Serif" font-size="10.00">utility</text>
</a>
</g>
</g>
<!-- Node1&#45;&gt;Node19 -->
<g id="edge35_Node000001_Node000019" class="edge">
<title>Node1&#45;&gt;Node19</title>
<g id="a_edge35_Node000001_Node000019"><a xlink:title=" ">
<path fill="none" stroke="#63b8ff" d="M886.94,-220.67C897.55,-208.05 917.82,-184.5 936.49,-165.75 967.22,-134.89 1005.42,-101.52 1028.05,-82.23"/>
<polygon fill="#63b8ff" stroke="#63b8ff" points="1030.21,-84.98 1035.57,-75.85 1025.68,-79.64 1030.21,-84.98"/>
</a>
</g>
</g>
<!-- Node21 -->
<g id="Node000021" class="node">
<title>Node21</title>
<g id="a_Node000021"><a xlink:title=" ">
<polygon fill="#e0e0e0" stroke="#999999" points="931.74,-129.75 881.24,-129.75 881.24,-110.5 931.74,-110.5 931.74,-129.75"/>
<text text-anchor="middle" x="906.49" y="-116.25" font-family="Helvetica,sans-Serif" font-size="10.00">memory</text>
</a>
</g>
</g>
<!-- Node1&#45;&gt;Node21 -->
<g id="edge31_Node000001_Node000021" class="edge">
<title>Node1&#45;&gt;Node21</title>
<g id="a_edge31_Node000001_Node000021"><a xlink:title=" ">
<path fill="none" stroke="#63b8ff" d="M881.7,-220.75C886.01,-203.42 895.64,-164.73 901.54,-140.99"/>
<polygon fill="#63b8ff" stroke="#63b8ff" points="904.86,-142.14 903.88,-131.6 898.07,-140.45 904.86,-142.14"/>
</a>
</g>
</g>
<!-- Node22 -->
<g id="Node000022" class="node">
<title>Node22</title>
<g id="a_Node000022"><a xlink:title=" ">
<polygon fill="#e0e0e0" stroke="#999999" points="993.61,-185 945.36,-185 945.36,-165.75 993.61,-165.75 993.61,-185"/>
<text text-anchor="middle" x="969.49" y="-171.5" font-family="Helvetica,sans-Serif" font-size="10.00">cassert</text>
</a>
</g>
</g>
<!-- Node1&#45;&gt;Node22 -->
<g id="edge29_Node000001_Node000022" class="edge">
<title>Node1&#45;&gt;Node22</title>
<g id="a_edge29_Node000001_Node000022"><a xlink:title=" ">
<path fill="none" stroke="#63b8ff" d="M894.75,-220.59C908.33,-212.56 928.44,-200.66 944.38,-191.23"/>
<polygon fill="#63b8ff" stroke="#63b8ff" points="946.02,-194.33 952.84,-186.22 942.45,-188.3 946.02,-194.33"/>
</a>
</g>
</g>
<!-- Node23 -->
<g id="Node000023" class="node">
<title>Node23</title>
<g id="a_Node000023"><a xlink:title=" ">
<polygon fill="#e0e0e0" stroke="#999999" points="1067.36,-185 1011.61,-185 1011.61,-165.75 1067.36,-165.75 1067.36,-185"/>
<text text-anchor="middle" x="1039.49" y="-171.5" font-family="Helvetica,sans-Serif" font-size="10.00">concepts</text>
</a>
</g>
</g>
<!-- Node1&#45;&gt;Node23 -->
<g id="edge30_Node000001_Node000023" class="edge">
<title>Node1&#45;&gt;Node23</title>
<g id="a_edge30_Node000001_Node000023"><a xlink:title=" ">
<path fill="none" stroke="#63b8ff" d="M906.63,-220.59C932.72,-211.91 972.38,-198.71 1001.58,-188.99"/>
<polygon fill="#63b8ff" stroke="#63b8ff" points="1002.39,-192.41 1010.78,-185.93 1000.18,-185.77 1002.39,-192.41"/>
</a>
</g>
</g>
<!-- Node24 -->
<g id="Node000024" class="node">
<title>Node24</title>
<g id="a_Node000024"><a xlink:title=" ">
<polygon fill="#e0e0e0" stroke="#999999" points="1127.61,-185 1085.36,-185 1085.36,-165.75 1127.61,-165.75 1127.61,-185"/>
<text text-anchor="middle" x="1106.49" y="-171.5" font-family="Helvetica,sans-Serif" font-size="10.00">mutex</text>
</a>
</g>
</g>
<!-- Node1&#45;&gt;Node24 -->
<g id="edge32_Node000001_Node000024" class="edge">
<title>Node1&#45;&gt;Node24</title>
<g id="a_edge32_Node000001_Node000024"><a xlink:title=" ">
<path fill="none" stroke="#63b8ff" d="M922.7,-220.58C960.3,-212.54 1016.52,-200.14 1073.81,-185.58"/>
<polygon fill="#63b8ff" stroke="#63b8ff" points="1074.61,-188.99 1083.43,-183.12 1072.88,-182.21 1074.61,-188.99"/>
</a>
</g>
</g>
<!-- Node25 -->
<g id="Node000025" class="node">
<title>Node25</title>
<g id="a_Node000025"><a xlink:title=" ">
<polygon fill="#e0e0e0" stroke="#999999" points="1203.49,-185 1145.49,-185 1145.49,-165.75 1203.49,-165.75 1203.49,-185"/>
<text text-anchor="middle" x="1174.49" y="-171.5" font-family="Helvetica,sans-Serif" font-size="10.00">stdexcept</text>
</a>
</g>
</g>
<!-- Node1&#45;&gt;Node25 -->
<g id="edge33_Node000001_Node000025" class="edge">
<title>Node1&#45;&gt;Node25</title>
<g id="a_edge33_Node000001_Node000025"><a xlink:title=" ">
<path fill="none" stroke="#63b8ff" d="M936.81,-220.54C986.44,-212.47 1060.44,-199.98 1133.78,-185.46"/>
<polygon fill="#63b8ff" stroke="#63b8ff" points="1134.45,-188.9 1143.58,-183.51 1133.09,-182.03 1134.45,-188.9"/>
</a>
</g>
</g>
<!-- Node2&#45;&gt;Node3 -->
<g id="edge2_Node000002_Node000003" class="edge">
<title>Node2&#45;&gt;Node3</title>
<g id="a_edge2_Node000002_Node000003"><a xlink:title=" ">
<path fill="none" stroke="#63b8ff" d="M448.86,-115.71C388.83,-107.72 237.37,-87.56 146.56,-75.47"/>
<polygon fill="#63b8ff" stroke="#63b8ff" points="147.12,-72.01 136.75,-74.16 146.2,-78.95 147.12,-72.01"/>
</a>
</g>
</g>
<!-- Node2&#45;&gt;Node4 -->
<g id="edge13_Node000002_Node000004" class="edge">
<title>Node2&#45;&gt;Node4</title>
<g id="a_edge13_Node000002_Node000004"><a xlink:title=" ">
<path fill="none" stroke="#63b8ff" d="M448.79,-114.26C410.23,-106.77 335.23,-91.51 272.49,-74.5 211.89,-58.07 142.29,-34.5 103.85,-21.06"/>
<polygon fill="#63b8ff" stroke="#63b8ff" points="105.44,-17.91 94.85,-17.9 103.12,-24.52 105.44,-17.91"/>
</a>
</g>
</g>
<!-- Node5 -->
<g id="Node000005" class="node">
<title>Node5</title>
<g id="a_Node000005"><a xlink:href="../../d4/d2c/_utility_8hpp.html" target="_top" xlink:title=" ">
<polygon fill="white" stroke="#666666" points="390.49,-74.5 290.49,-74.5 290.49,-55.25 390.49,-55.25 390.49,-74.5"/>
<text text-anchor="middle" x="340.49" y="-61" font-family="Helvetica,sans-Serif" font-size="10.00">mimic++/Utility.hpp</text>
</a>
</g>
</g>
<!-- Node2&#45;&gt;Node5 -->
<g id="edge4_Node000002_Node000005" class="edge">
<title>Node2&#45;&gt;Node5</title>
<g id="a_edge4_Node000002_Node000005"><a xlink:title=" ">
<path fill="none" stroke="#63b8ff" d="M451.76,-110.09C430.39,-101.6 398.15,-88.79 373.86,-79.14"/>
<polygon fill="#63b8ff" stroke="#63b8ff" points="375.32,-75.95 364.74,-75.51 372.74,-82.46 375.32,-75.95"/>
</a>
</g>
</g>
<!-- Node6 -->
<g id="Node000006" class="node">
<title>Node6</title>
<g id="a_Node000006"><a xlink:title=" ">
<polygon fill="#e0e0e0" stroke="#999999" points="440.36,-19.25 396.61,-19.25 396.61,0 440.36,0 440.36,-19.25"/>
<text text-anchor="middle" x="418.49" y="-5.75" font-family="Helvetica,sans-Serif" font-size="10.00">format</text>
</a>
</g>
</g>
<!-- Node2&#45;&gt;Node6 -->
<g id="edge8_Node000002_Node000006" class="edge">
<title>Node2&#45;&gt;Node6</title>
<g id="a_edge8_Node000002_Node000006"><a xlink:title=" ">
<path fill="none" stroke="#63b8ff" d="M465.03,-110.03C456.7,-101.54 444.79,-88.17 437.49,-74.5 430.13,-60.74 425.25,-43.74 422.28,-30.74"/>
<polygon fill="#63b8ff" stroke="#63b8ff" points="425.77,-30.3 420.31,-21.22 418.91,-31.73 425.77,-30.3"/>
</a>
</g>
</g>
<!-- Node7 -->
<g id="Node000007" class="node">
<title>Node7</title>
<g id="a_Node000007"><a xlink:title=" ">
<polygon fill="#e0e0e0" stroke="#999999" points="341.61,-19.25 257.36,-19.25 257.36,0 341.61,0 341.61,-19.25"/>
<text text-anchor="middle" x="299.49" y="-5.75" font-family="Helvetica,sans-Serif" font-size="10.00">source_location</text>
</a>
</g>
</g>
<!-- Node2&#45;&gt;Node7 -->
<g id="edge11_Node000002_Node000007" class="edge">
<title>Node2&#45;&gt;Node7</title>
<g id="a_edge11_Node000002_Node000007"><a xlink:title=" ">
<path fill="none" stroke="#63b8ff" d="M448.93,-117.07C401.35,-112.65 302.14,-100.48 281.49,-74.5 271.09,-61.42 278.25,-42.66 286.41,-28.85"/>
<polygon fill="#63b8ff" stroke="#63b8ff" points="289.2,-30.99 291.74,-20.7 283.34,-27.15 289.2,-30.99"/>
</a>
</g>
</g>
<!-- Node8 -->
<g id="Node000008" class="node">
<title>Node8</title>
<g id="a_Node000008"><a xlink:title=" ">
<polygon fill="#e0e0e0" stroke="#999999" points="502.36,-74.5 446.61,-74.5 446.61,-55.25 502.36,-55.25 502.36,-74.5"/>
<text text-anchor="middle" x="474.49" y="-61" font-family="Helvetica,sans-Serif" font-size="10.00">algorithm</text>
</a>
</g>
</g>
<!-- Node2&#45;&gt;Node8 -->
<g id="edge7_Node000002_Node000008" class="edge">
<title>Node2&#45;&gt;Node8</title>
<g id="a_edge7_Node000002_Node000008"><a xlink:title=" ">
<path fill="none" stroke="#63b8ff" d="M474.49,-110.33C474.49,-103.82 474.49,-94.67 474.49,-86.37"/>
<polygon fill="#63b8ff" stroke="#63b8ff" points="477.99,-86.37 474.49,-76.37 470.99,-86.37 477.99,-86.37"/>
</a>
</g>
</g>
<!-- Node9 -->
<g id="Node000009" class="node">
<title>Node9</title>
<g id="a_Node000009"><a xlink:title=" ">
<polygon fill="#e0e0e0" stroke="#999999" points="570.36,-74.5 520.61,-74.5 520.61,-55.25 570.36,-55.25 570.36,-74.5"/>
<text text-anchor="middle" x="545.49" y="-61" font-family="Helvetica,sans-Serif" font-size="10.00">optional</text>
</a>
</g>
</g>
<!-- Node2&#45;&gt;Node9 -->
<g id="edge9_Node000002_Node000009" class="edge">
<title>Node2&#45;&gt;Node9</title>
<g id="a_edge9_Node000002_Node000009"><a xlink:title=" ">
<path fill="none" stroke="#63b8ff" d="M486.53,-110.09C496.9,-102.32 512.09,-90.92 524.46,-81.65"/>
<polygon fill="#63b8ff" stroke="#63b8ff" points="526.51,-84.48 532.41,-75.68 522.31,-78.88 526.51,-84.48"/>
</a>
</g>
</g>
<!-- Node10 -->
<g id="Node000010" class="node">
<title>Node10</title>
<g id="a_Node000010"><a xlink:title=" ">
<polygon fill="#e0e0e0" stroke="#999999" points="634.11,-74.5 588.86,-74.5 588.86,-55.25 634.11,-55.25 634.11,-74.5"/>
<text text-anchor="middle" x="611.49" y="-61" font-family="Helvetica,sans-Serif" font-size="10.00">ranges</text>
</a>
</g>
</g>
<!-- Node2&#45;&gt;Node10 -->
<g id="edge10_Node000002_Node000010" class="edge">
<title>Node2&#45;&gt;Node10</title>
<g id="a_edge10_Node000002_Node000010"><a xlink:title=" ">
<path fill="none" stroke="#63b8ff" d="M497.73,-110.09C519.81,-101.51 553.24,-88.52 578.15,-78.83"/>
<polygon fill="#63b8ff" stroke="#63b8ff" points="579.13,-82.21 587.18,-75.32 576.59,-75.68 579.13,-82.21"/>
</a>
</g>
</g>
<!-- Node11 -->
<g id="Node000011" class="node">
<title>Node11</title>
<g id="a_Node000011"><a xlink:title=" ">
<polygon fill="#e0e0e0" stroke="#999999" points="755.49,-74.5 715.49,-74.5 715.49,-55.25 755.49,-55.25 755.49,-74.5"/>
<text text-anchor="middle" x="735.49" y="-61" font-family="Helvetica,sans-Serif" font-size="10.00">string</text>
</a>
</g>
</g>
<!-- Node2&#45;&gt;Node11 -->
<g id="edge12_Node000002_Node000011" class="edge">
<title>Node2&#45;&gt;Node11</title>
<g id="a_edge12_Node000002_Node000011"><a xlink:title=" ">
<path fill="none" stroke="#63b8ff" d="M500.07,-115.06C541.16,-108.34 624.6,-93.96 704.53,-74.78"/>
<polygon fill="#63b8ff" stroke="#63b8ff" points="704.92,-78.29 713.81,-72.52 703.26,-71.48 704.92,-78.29"/>
</a>
</g>
</g>
<!-- Node12 -->
<g id="Node000012" class="node">
<title>Node12</title>
<g id="a_Node000012"><a xlink:title=" ">
<polygon fill="#e0e0e0" stroke="#999999" points="697.11,-74.5 651.86,-74.5 651.86,-55.25 697.11,-55.25 697.11,-74.5"/>
<text text-anchor="middle" x="674.49" y="-61" font-family="Helvetica,sans-Serif" font-size="10.00">variant</text>
</a>
</g>
</g>
<!-- Node2&#45;&gt;Node12 -->
<g id="edge14_Node000002_Node000012" class="edge">
<title>Node2&#45;&gt;Node12</title>
<g id="a_edge14_Node000002_Node000012"><a xlink:title=" ">
<path fill="none" stroke="#63b8ff" d="M500,-112.5C531.04,-104.42 585.33,-90.2 640.45,-75.3"/>
<polygon fill="#63b8ff" stroke="#63b8ff" points="641.28,-78.7 650.01,-72.71 639.45,-71.95 641.28,-78.7"/>
</a>
</g>
</g>
<!-- Node2&#45;&gt;Node13 -->
<g id="edge15_Node000002_Node000013" class="edge">
<title>Node2&#45;&gt;Node13</title>
<g id="a_edge15_Node000002_Node000013"><a xlink:title=" ">
<path fill="none" stroke="#63b8ff" d="M448.9,-115.39C401.62,-108.36 297.48,-92.25 210.49,-74.5 209.32,-74.26 208.14,-74.01 206.94,-73.76"/>
<polygon fill="#63b8ff" stroke="#63b8ff" points="208.14,-70.44 197.61,-71.65 206.59,-77.27 208.14,-70.44"/>
</a>
</g>
</g>
<!-- Node3&#45;&gt;Node4 -->
<g id="edge3_Node000003_Node000004" class="edge">
<title>Node3&#45;&gt;Node4</title>
<g id="a_edge3_Node000003_Node000004"><a xlink:title=" ">
<path fill="none" stroke="#63b8ff" d="M74.49,-55.08C74.49,-48.57 74.49,-39.42 74.49,-31.12"/>
<polygon fill="#63b8ff" stroke="#63b8ff" points="77.99,-31.12 74.49,-21.12 70.99,-31.12 77.99,-31.12"/>
</a>
</g>
</g>
<!-- Node5&#45;&gt;Node6 -->
<g id="edge5_Node000005_Node000006" class="edge">
<title>Node5&#45;&gt;Node6</title>
<g id="a_edge5_Node000005_Node000006"><a xlink:title=" ">
<path fill="none" stroke="#63b8ff" d="M353.72,-54.84C365.26,-46.96 382.25,-35.36 395.94,-26.02"/>
<polygon fill="#63b8ff" stroke="#63b8ff" points="397.66,-29.08 403.94,-20.56 393.71,-23.3 397.66,-29.08"/>
</a>
</g>
</g>
<!-- Node5&#45;&gt;Node7 -->
<g id="edge6_Node000005_Node000007" class="edge">
<title>Node5&#45;&gt;Node7</title>
<g id="a_edge6_Node000005_Node000007"><a xlink:title=" ">
<path fill="none" stroke="#63b8ff" d="M333.72,-55.08C328.17,-47.88 320.15,-37.46 313.26,-28.51"/>
<polygon fill="#63b8ff" stroke="#63b8ff" points="316.2,-26.6 307.33,-20.81 310.66,-30.87 316.2,-26.6"/>
</a>
</g>
</g>
<!-- Node14&#45;&gt;Node2 -->
<g id="edge17_Node000014_Node000002" class="edge">
<title>Node14&#45;&gt;Node2</title>
<g id="a_edge17_Node000014_Node000002"><a xlink:title=" ">
<path fill="none" stroke="#63b8ff" d="M726.88,-167.79C671.81,-157.61 566.51,-138.14 510.93,-127.86"/>
<polygon fill="#63b8ff" stroke="#63b8ff" points="511.82,-124.47 501.35,-126.09 510.55,-131.35 511.82,-124.47"/>
</a>
</g>
</g>
<!-- Node14&#45;&gt;Node13 -->
<g id="edge27_Node000014_Node000013" class="edge">
<title>Node14&#45;&gt;Node13</title>
<g id="a_edge27_Node000014_Node000013"><a xlink:title=" ">
<path fill="none" stroke="#63b8ff" d="M727.05,-170.59C667.55,-163.99 543.93,-149.19 440.49,-129.75 336.32,-110.17 311.42,-99.81 208.49,-74.5 208.12,-74.41 207.75,-74.32 207.38,-74.23"/>
<polygon fill="#63b8ff" stroke="#63b8ff" points="208.44,-70.88 197.89,-71.86 206.75,-77.68 208.44,-70.88"/>
</a>
</g>
</g>
<!-- Node15 -->
<g id="Node000015" class="node">
<title>Node15</title>
<g id="a_Node000015"><a xlink:href="../../da/dab/_printer_8hpp.html" target="_top" xlink:title=" ">
<polygon fill="white" stroke="#666666" points="787.36,-129.75 683.61,-129.75 683.61,-110.5 787.36,-110.5 787.36,-129.75"/>
<text text-anchor="middle" x="735.49" y="-116.25" font-family="Helvetica,sans-Serif" font-size="10.00">mimic++/Printer.hpp</text>
</a>
</g>
</g>
<!-- Node14&#45;&gt;Node15 -->
<g id="edge18_Node000014_Node000015" class="edge">
<title>Node14&#45;&gt;Node15</title>
<g id="a_edge18_Node000014_Node000015"><a xlink:title=" ">
<path fill="none" stroke="#63b8ff" d="M758.03,-165.58C754.53,-158.69 749.54,-148.84 745.14,-140.16"/>
<polygon fill="#63b8ff" stroke="#63b8ff" points="748.37,-138.8 740.73,-131.46 742.13,-141.96 748.37,-138.8"/>
</a>
</g>
</g>
<!-- Node20 -->
<g id="Node000020" class="node">
<title>Node20</title>
<g id="a_Node000020"><a xlink:title=" ">
<polygon fill="#e0e0e0" stroke="#999999" points="863.11,-129.75 805.86,-129.75 805.86,-110.5 863.11,-110.5 863.11,-129.75"/>
<text text-anchor="middle" x="834.49" y="-116.25" font-family="Helvetica,sans-Serif" font-size="10.00">exception</text>
</a>
</g>
</g>
<!-- Node14&#45;&gt;Node20 -->
<g id="edge25_Node000014_Node000020" class="edge">
<title>Node14&#45;&gt;Node20</title>
<g id="a_edge25_Node000014_Node000020"><a xlink:title=" ">
<path fill="none" stroke="#63b8ff" d="M774.7,-165.34C785.32,-157.49 800.92,-145.95 813.53,-136.62"/>
<polygon fill="#63b8ff" stroke="#63b8ff" points="815.28,-139.69 821.24,-130.92 811.12,-134.06 815.28,-139.69"/>
</a>
</g>
</g>
<!-- Node14&#45;&gt;Node21 -->
<g id="edge26_Node000014_Node000021" class="edge">
<title>Node14&#45;&gt;Node21</title>
<g id="a_edge26_Node000014_Node000021"><a xlink:title=" ">
<path fill="none" stroke="#63b8ff" d="M786.92,-165.34C810.08,-156.77 845.15,-143.81 871.33,-134.13"/>
<polygon fill="#63b8ff" stroke="#63b8ff" points="872.36,-137.48 880.52,-130.73 869.93,-130.91 872.36,-137.48"/>
</a>
</g>
</g>
<!-- Node15&#45;&gt;Node6 -->
<g id="edge19_Node000015_Node000006" class="edge">
<title>Node15&#45;&gt;Node6</title>
<g id="a_edge19_Node000015_Node000006"><a xlink:title=" ">
<path fill="none" stroke="#63b8ff" d="M787.77,-111.38C858.13,-100.7 975.28,-81.93 981.49,-74.5 986.97,-67.93 987.29,-61.53 981.49,-55.25 945.46,-16.25 567.41,-11.3 451.85,-10.7"/>
<polygon fill="#63b8ff" stroke="#63b8ff" points="452.13,-7.2 442.11,-10.66 452.1,-14.2 452.13,-7.2"/>
</a>
</g>
</g>
<!-- Node15&#45;&gt;Node11 -->
<g id="edge22_Node000015_Node000011" class="edge">
<title>Node15&#45;&gt;Node11</title>
<g id="a_edge22_Node000015_Node000011"><a xlink:title=" ">
<path fill="none" stroke="#63b8ff" d="M735.49,-110.33C735.49,-103.82 735.49,-94.67 735.49,-86.37"/>
<polygon fill="#63b8ff" stroke="#63b8ff" points="738.99,-86.37 735.49,-76.37 731.99,-86.37 738.99,-86.37"/>
</a>
</g>
</g>
<!-- Node16 -->
<g id="Node000016" class="node">
<title>Node16</title>
<g id="a_Node000016"><a xlink:title=" ">
<polygon fill="#e0e0e0" stroke="#999999" points="819.49,-74.5 773.49,-74.5 773.49,-55.25 819.49,-55.25 819.49,-74.5"/>
<text text-anchor="middle" x="796.49" y="-61" font-family="Helvetica,sans-Serif" font-size="10.00">iterator</text>
</a>
</g>
</g>
<!-- Node15&#45;&gt;Node16 -->
<g id="edge20_Node000015_Node000016" class="edge">
<title>Node15&#45;&gt;Node16</title>
<g id="a_edge20_Node000015_Node000016"><a xlink:title=" ">
<path fill="none" stroke="#63b8ff" d="M745.84,-110.09C754.56,-102.47 767.28,-91.37 777.78,-82.2"/>
<polygon fill="#63b8ff" stroke="#63b8ff" points="779.92,-84.98 785.15,-75.77 775.32,-79.71 779.92,-84.98"/>
</a>
</g>
</g>
<!-- Node17 -->
<g id="Node000017" class="node">
<title>Node17</title>
<g id="a_Node000017"><a xlink:title=" ">
<polygon fill="#e0e0e0" stroke="#999999" points="889.11,-74.5 837.86,-74.5 837.86,-55.25 889.11,-55.25 889.11,-74.5"/>
<text text-anchor="middle" x="863.49" y="-61" font-family="Helvetica,sans-Serif" font-size="10.00">sstream</text>
</a>
</g>
</g>
<!-- Node15&#45;&gt;Node17 -->
<g id="edge21_Node000015_Node000017" class="edge">
<title>Node15&#45;&gt;Node17</title>
<g id="a_edge21_Node000015_Node000017"><a xlink:title=" ">
<path fill="none" stroke="#63b8ff" d="M757.2,-110.09C777.52,-101.64 808.13,-88.9 831.29,-79.27"/>
<polygon fill="#63b8ff" stroke="#63b8ff" points="832.38,-82.61 840.27,-75.53 829.69,-76.14 832.38,-82.61"/>
</a>
</g>
</g>
<!-- Node18 -->
<g id="Node000018" class="node">
<title>Node18</title>
<g id="a_Node000018"><a xlink:title=" ">
<polygon fill="#e0e0e0" stroke="#999999" points="972.24,-74.5 906.74,-74.5 906.74,-55.25 972.24,-55.25 972.24,-74.5"/>
<text text-anchor="middle" x="939.49" y="-61" font-family="Helvetica,sans-Serif" font-size="10.00">string_view</text>
</a>
</g>
</g>
<!-- Node15&#45;&gt;Node18 -->
<g id="edge23_Node000015_Node000018" class="edge">
<title>Node15&#45;&gt;Node18</title>
<g id="a_edge23_Node000015_Node000018"><a xlink:title=" ">
<path fill="none" stroke="#63b8ff" d="M770.09,-110.09C804.6,-101.08 857.75,-87.21 895.29,-77.41"/>
<polygon fill="#63b8ff" stroke="#63b8ff" points="896.15,-80.81 904.94,-74.89 894.38,-74.03 896.15,-80.81"/>
</a>
</g>
</g>
<!-- Node15&#45;&gt;Node19 -->
<g id="edge24_Node000015_Node000019" class="edge">
<title>Node15&#45;&gt;Node19</title>
<g id="a_edge24_Node000015_Node000019"><a xlink:title=" ">
<path fill="none" stroke="#63b8ff" d="M787.82,-111.38C856.21,-101.14 972.24,-83.38 1014.49,-74.5 1015.31,-74.33 1016.15,-74.15 1016.99,-73.96"/>
<polygon fill="#63b8ff" stroke="#63b8ff" points="1017.65,-77.4 1026.55,-71.65 1016,-70.6 1017.65,-77.4"/>
</a>
</g>
</g>
</g>
</svg>

<g id="navigator" transform="translate(0 0)" fill="#404254">
  <rect fill="#f2f5e9" fill-opacity="0.5" stroke="#606060" stroke-width=".5" x="0" y="0" width="60" height="60"/>
  <use id="zoomplus" xlink:href="#zoomPlus" x="17" y="9" onmousedown="handleZoom(evt,'in')"/>
  <use id="zoomminus" xlink:href="#zoomMin" x="42" y="9" onmousedown="handleZoom(evt,'out')"/>
  <use id="reset" xlink:href="#resetDef" x="30" y="36" onmousedown="handleReset()"/>
   <use id="arrowup" xlink:href="#arrowUp" x="0" y="0" onmousedown="handlePan(0,-1)"/>
  <use id="arrowright" xlink:href="#arrowRight" x="0" y="0" onmousedown="handlePan(1,0)"/>
  <use id="arrowdown" xlink:href="#arrowDown" x="0" y="0" onmousedown="handlePan(0,1)"/>
  <use id="arrowleft" xlink:href="#arrowLeft" x="0" y="0" onmousedown="handlePan(-1,0)"/>
</g>
<svg viewBox="0 0 15 15" width="100%" height="30px" preserveAspectRatio="xMaxYMin meet">
 <g id="arrow_out" transform="scale(0.3 0.3)">
  <a xlink:href="_expectation_8hpp__incl_org.svg" target="_base">
   <rect id="button" ry="5" rx="5" y="6" x="6" height="38" width="38"
        fill="#f2f5e9" fill-opacity="0.5" stroke="#606060" stroke-width="1.0"/>
   <path id="arrow"
     d="M 11.500037,31.436501 C 11.940474,20.09759 22.043105,11.32322 32.158766,21.979434 L 37.068811,17.246167 C 37.068811,17.246167 37.088388,32 37.088388,32 L 22.160133,31.978069 C 22.160133,31.978069 26.997745,27.140456 26.997745,27.140456 C 18.528582,18.264221 13.291696,25.230495 11.500037,31.436501 z"
     style="fill:#404040;"/>
  </a>
 </g>
</svg>

<style type='text/css'>
<![CDATA[
[data-mouse-over-selected='false'] { opacity: 0.7; }
[data-mouse-over-selected='true']  { opacity: 1.0; }
]]>
</style>
<script type="application/ecmascript"><![CDATA[
document.addEventListener('DOMContentLoaded', (event) => {
  highlightEdges();
  highlightAdjacentNodes();
});
]]></script>
</svg>
