<?xml version="1.0" encoding="UTF-8" standalone="no"?>
<!DOCTYPE svg PUBLIC "-//W3C//DTD SVG 1.1//EN"
 "http://www.w3.org/Graphics/SVG/1.1/DTD/svg11.dtd">
<!-- Generated by graphviz version 12.1.1 (20240910.0053)
 -->
<!-- Title: mimic++/Expectation.hpp Pages: 1 -->
<svg width="1488pt" height="469pt"
 viewBox="0.00 0.00 1488.12 469.25" xmlns="http://www.w3.org/2000/svg" xmlns:xlink="http://www.w3.org/1999/xlink">
<g id="graph0" class="graph" transform="scale(1 1) rotate(0) translate(4 465.25)">
<title>mimic++/Expectation.hpp</title>
<!-- Node1 -->
<g id="Node000001" class="node">
<title>Node1</title>
<g id="a_Node000001"><a xlink:title=" ">
<polygon fill="#999999" stroke="#666666" points="347.75,-461.25 222.25,-461.25 222.25,-442 347.75,-442 347.75,-461.25"/>
<text text-anchor="middle" x="285" y="-447.75" font-family="Helvetica,sans-Serif" font-size="10.00">mimic++/Expectation.hpp</text>
</a>
</g>
</g>
<!-- Node2 -->
<g id="Node000002" class="node">
<title>Node2</title>
<g id="a_Node000002"><a xlink:href="../../dc/d44/_call_8hpp.html" target="_top" xlink:title=" ">
<polygon fill="white" stroke="#666666" points="432.88,-185 341.12,-185 341.12,-165.75 432.88,-165.75 432.88,-185"/>
<text text-anchor="middle" x="387" y="-171.5" font-family="Helvetica,sans-Serif" font-size="10.00">mimic++/Call.hpp</text>
</a>
</g>
</g>
<!-- Node1&#45;&gt;Node2 -->
<g id="edge1_Node000001_Node000002" class="edge">
<title>Node1&#45;&gt;Node2</title>
<g id="a_edge1_Node000001_Node000002"><a xlink:title=" ">
<path fill="none" stroke="#63b8ff" d="M288.39,-441.5C302.86,-402.62 359.52,-250.26 379.76,-195.83"/>
<polygon fill="#63b8ff" stroke="#63b8ff" points="382.96,-197.27 383.17,-186.68 376.4,-194.83 382.96,-197.27"/>
</a>
</g>
</g>
<!-- Node5 -->
<g id="Node000005" class="node">
<title>Node5</title>
<g id="a_Node000005"><a xlink:href="../../d8/d32/_type_traits_8hpp.html" target="_top" xlink:title=" ">
<polygon fill="white" stroke="#666666" points="225.5,-129.75 104.5,-129.75 104.5,-110.5 225.5,-110.5 225.5,-129.75"/>
<text text-anchor="middle" x="165" y="-116.25" font-family="Helvetica,sans-Serif" font-size="10.00">mimic++/TypeTraits.hpp</text>
</a>
</g>
</g>
<!-- Node1&#45;&gt;Node5 -->
<g id="edge69_Node000001_Node000005" class="edge">
<title>Node1&#45;&gt;Node5</title>
<g id="a_edge69_Node000001_Node000005"><a xlink:title=" ">
<path fill="none" stroke="#63b8ff" d="M221.89,-444.83C164.64,-438.39 85.69,-426.14 62,-406 38.89,-386.36 38,-372.45 38,-342.12 38,-342.12 38,-342.12 38,-284.88 38,-218.16 104.63,-162.18 141.37,-136.39"/>
<polygon fill="#63b8ff" stroke="#63b8ff" points="142.89,-139.59 149.18,-131.06 138.95,-133.8 142.89,-139.59"/>
</a>
</g>
</g>
<!-- Node6 -->
<g id="Node000006" class="node">
<title>Node6</title>
<g id="a_Node000006"><a xlink:title=" ">
<polygon fill="#e0e0e0" stroke="#999999" points="94.5,-74.5 57.5,-74.5 57.5,-55.25 94.5,-55.25 94.5,-74.5"/>
<text text-anchor="middle" x="76" y="-61" font-family="Helvetica,sans-Serif" font-size="10.00">tuple</text>
</a>
</g>
</g>
<!-- Node1&#45;&gt;Node6 -->
<g id="edge76_Node000001_Node000006" class="edge">
<title>Node1&#45;&gt;Node6</title>
<g id="a_edge76_Node000001_Node000006"><a xlink:title=" ">
<path fill="none" stroke="#63b8ff" d="M221.9,-444.82C159.71,-438.09 69.93,-425.39 41,-406 12.98,-387.22 0,-375.86 0,-342.12 0,-342.12 0,-342.12 0,-174.38 0,-135.77 32.68,-101.14 55.18,-81.87"/>
<polygon fill="#63b8ff" stroke="#63b8ff" points="57.11,-84.82 62.62,-75.77 52.67,-79.41 57.11,-84.82"/>
</a>
</g>
</g>
<!-- Node8 -->
<g id="Node000008" class="node">
<title>Node8</title>
<g id="a_Node000008"><a xlink:title=" ">
<polygon fill="#e0e0e0" stroke="#999999" points="1283.12,-74.5 1234.88,-74.5 1234.88,-55.25 1283.12,-55.25 1283.12,-74.5"/>
<text text-anchor="middle" x="1259" y="-61" font-family="Helvetica,sans-Serif" font-size="10.00">cassert</text>
</a>
</g>
</g>
<!-- Node1&#45;&gt;Node8 -->
<g id="edge70_Node000001_Node000008" class="edge">
<title>Node1&#45;&gt;Node8</title>
<g id="a_edge70_Node000001_Node000008"><a xlink:title=" ">
<path fill="none" stroke="#63b8ff" d="M347.99,-450.77C574.73,-450.47 1336,-442.04 1336,-342.12 1336,-342.12 1336,-342.12 1336,-174.38 1336,-135.6 1302.89,-101.02 1280.09,-81.81"/>
<polygon fill="#63b8ff" stroke="#63b8ff" points="1282.53,-79.28 1272.55,-75.73 1278.13,-84.73 1282.53,-79.28"/>
</a>
</g>
</g>
<!-- Node11 -->
<g id="Node000011" class="node">
<title>Node11</title>
<g id="a_Node000011"><a xlink:title=" ">
<polygon fill="#e0e0e0" stroke="#999999" points="350.25,-74.5 311.75,-74.5 311.75,-55.25 350.25,-55.25 350.25,-74.5"/>
<text text-anchor="middle" x="331" y="-61" font-family="Helvetica,sans-Serif" font-size="10.00">utility</text>
</a>
</g>
</g>
<!-- Node1&#45;&gt;Node11 -->
<g id="edge77_Node000001_Node000011" class="edge">
<title>Node1&#45;&gt;Node11</title>
<g id="a_edge77_Node000001_Node000011"><a xlink:title=" ">
<path fill="none" stroke="#63b8ff" d="M222.01,-444.41C160.47,-434.45 76,-408.66 76,-342.12 76,-342.12 76,-342.12 76,-284.88 76,-169.6 178.14,-182.7 268,-110.5 280.73,-100.27 295.62,-89.67 307.73,-81.36"/>
<polygon fill="#63b8ff" stroke="#63b8ff" points="309.57,-84.35 315.88,-75.84 305.64,-78.55 309.57,-84.35"/>
</a>
</g>
</g>
<!-- Node12 -->
<g id="Node000012" class="node">
<title>Node12</title>
<g id="a_Node000012"><a xlink:href="../../d6/d17/_control_policy_8hpp.html" target="_top" xlink:title=" ">
<polygon fill="white" stroke="#666666" points="812.12,-406 679.88,-406 679.88,-386.75 812.12,-386.75 812.12,-406"/>
<text text-anchor="middle" x="746" y="-392.5" font-family="Helvetica,sans-Serif" font-size="10.00">mimic++/ControlPolicy.hpp</text>
</a>
</g>
</g>
<!-- Node1&#45;&gt;Node12 -->
<g id="edge15_Node000001_Node000012" class="edge">
<title>Node1&#45;&gt;Node12</title>
<g id="a_edge15_Node000001_Node000012"><a xlink:title=" ">
<path fill="none" stroke="#63b8ff" d="M348.13,-443.33C431.49,-433.7 578.21,-416.76 668.29,-406.35"/>
<polygon fill="#63b8ff" stroke="#63b8ff" points="668.49,-409.85 678.03,-405.23 667.69,-402.9 668.49,-409.85"/>
</a>
</g>
</g>
<!-- Node21 -->
<g id="Node000021" class="node">
<title>Node21</title>
<g id="a_Node000021"><a xlink:title=" ">
<polygon fill="#e0e0e0" stroke="#999999" points="322.62,-185 277.38,-185 277.38,-165.75 322.62,-165.75 322.62,-185"/>
<text text-anchor="middle" x="300" y="-171.5" font-family="Helvetica,sans-Serif" font-size="10.00">ranges</text>
</a>
</g>
</g>
<!-- Node1&#45;&gt;Node21 -->
<g id="edge74_Node000001_Node000021" class="edge">
<title>Node1&#45;&gt;Node21</title>
<g id="a_edge74_Node000001_Node000021"><a xlink:title=" ">
<path fill="none" stroke="#63b8ff" d="M256.14,-441.56C217.02,-427.26 152,-395.47 152,-342.12 152,-342.12 152,-342.12 152,-284.88 152,-255.26 150.52,-242.4 171,-221 195.91,-194.97 236.74,-184.12 265.79,-179.6"/>
<polygon fill="#63b8ff" stroke="#63b8ff" points="266.11,-183.08 275.55,-178.27 265.17,-176.15 266.11,-183.08"/>
</a>
</g>
</g>
<!-- Node24 -->
<g id="Node000024" class="node">
<title>Node24</title>
<g id="a_Node000024"><a xlink:title=" ">
<polygon fill="#e0e0e0" stroke="#999999" points="1154.5,-185 1111.5,-185 1111.5,-165.75 1154.5,-165.75 1154.5,-185"/>
<text text-anchor="middle" x="1133" y="-171.5" font-family="Helvetica,sans-Serif" font-size="10.00">vector</text>
</a>
</g>
</g>
<!-- Node1&#45;&gt;Node24 -->
<g id="edge78_Node000001_Node000024" class="edge">
<title>Node1&#45;&gt;Node24</title>
<g id="a_edge78_Node000001_Node000024"><a xlink:title=" ">
<path fill="none" stroke="#63b8ff" d="M347.91,-449.21C556.87,-443.87 1218.09,-421.46 1279,-350.75 1329.72,-291.87 1216.15,-220.46 1160.93,-190.59"/>
<polygon fill="#63b8ff" stroke="#63b8ff" points="1162.86,-187.64 1152.38,-186.05 1159.58,-193.83 1162.86,-187.64"/>
</a>
</g>
</g>
<!-- Node26 -->
<g id="Node000026" class="node">
<title>Node26</title>
<g id="a_Node000026"><a xlink:href="../../da/dd9/_reporter_8hpp.html" target="_top" xlink:title=" ">
<polygon fill="white" stroke="#666666" points="622,-295.5 510,-295.5 510,-276.25 622,-276.25 622,-295.5"/>
<text text-anchor="middle" x="566" y="-282" font-family="Helvetica,sans-Serif" font-size="10.00">mimic++/Reporter.hpp</text>
</a>
</g>
</g>
<!-- Node1&#45;&gt;Node26 -->
<g id="edge68_Node000001_Node000026" class="edge">
<title>Node1&#45;&gt;Node26</title>
<g id="a_edge68_Node000001_Node000026"><a xlink:title=" ">
<path fill="none" stroke="#63b8ff" d="M300.51,-441.59C346.76,-414.64 484.04,-334.64 540.9,-301.5"/>
<polygon fill="#63b8ff" stroke="#63b8ff" points="542.35,-304.71 549.23,-296.65 538.83,-298.66 542.35,-304.71"/>
</a>
</g>
</g>
<!-- Node28 -->
<g id="Node000028" class="node">
<title>Node28</title>
<g id="a_Node000028"><a xlink:title=" ">
<polygon fill="#e0e0e0" stroke="#999999" points="230.25,-240.25 179.75,-240.25 179.75,-221 230.25,-221 230.25,-240.25"/>
<text text-anchor="middle" x="205" y="-226.75" font-family="Helvetica,sans-Serif" font-size="10.00">memory</text>
</a>
</g>
</g>
<!-- Node1&#45;&gt;Node28 -->
<g id="edge72_Node000001_Node000028" class="edge">
<title>Node1&#45;&gt;Node28</title>
<g id="a_edge72_Node000001_Node000028"><a xlink:title=" ">
<path fill="none" stroke="#63b8ff" d="M269.64,-441.7C257.64,-433.88 241.6,-421.36 233,-406 204.98,-355.94 202.96,-285.91 203.9,-251.84"/>
<polygon fill="#63b8ff" stroke="#63b8ff" points="207.39,-252.31 204.3,-242.17 200.39,-252.02 207.39,-252.31"/>
</a>
</g>
</g>
<!-- Node32 -->
<g id="Node000032" class="node">
<title>Node32</title>
<g id="a_Node000032"><a xlink:title=" ">
<polygon fill="#e0e0e0" stroke="#999999" points="1270,-350.75 1212,-350.75 1212,-331.5 1270,-331.5 1270,-350.75"/>
<text text-anchor="middle" x="1241" y="-337.25" font-family="Helvetica,sans-Serif" font-size="10.00">stdexcept</text>
</a>
</g>
</g>
<!-- Node1&#45;&gt;Node32 -->
<g id="edge75_Node000001_Node000032" class="edge">
<title>Node1&#45;&gt;Node32</title>
<g id="a_edge75_Node000001_Node000032"><a xlink:title=" ">
<path fill="none" stroke="#63b8ff" d="M348.25,-446.64C448.64,-440.04 650.54,-425.57 821,-406 989.24,-386.69 1031.15,-379.69 1198,-350.75 1198.98,-350.58 1199.98,-350.4 1200.99,-350.22"/>
<polygon fill="#63b8ff" stroke="#63b8ff" points="1201.22,-353.74 1210.41,-348.46 1199.93,-346.86 1201.22,-353.74"/>
</a>
</g>
</g>
<!-- Node33 -->
<g id="Node000033" class="node">
<title>Node33</title>
<g id="a_Node000033"><a xlink:title=" ">
<polygon fill="#e0e0e0" stroke="#999999" points="1419.88,-406 1364.12,-406 1364.12,-386.75 1419.88,-386.75 1419.88,-406"/>
<text text-anchor="middle" x="1392" y="-392.5" font-family="Helvetica,sans-Serif" font-size="10.00">concepts</text>
</a>
</g>
</g>
<!-- Node1&#45;&gt;Node33 -->
<g id="edge71_Node000001_Node000033" class="edge">
<title>Node1&#45;&gt;Node33</title>
<g id="a_edge71_Node000001_Node000033"><a xlink:title=" ">
<path fill="none" stroke="#63b8ff" d="M348.14,-449.31C546.3,-444.98 1154.27,-430.04 1350,-406 1350.83,-405.9 1351.67,-405.79 1352.52,-405.67"/>
<polygon fill="#63b8ff" stroke="#63b8ff" points="1352.84,-409.16 1362.14,-404.09 1351.71,-402.26 1352.84,-409.16"/>
</a>
</g>
</g>
<!-- Node34 -->
<g id="Node000034" class="node">
<title>Node34</title>
<g id="a_Node000034"><a xlink:title=" ">
<polygon fill="#e0e0e0" stroke="#999999" points="1480.12,-406 1437.88,-406 1437.88,-386.75 1480.12,-386.75 1480.12,-406"/>
<text text-anchor="middle" x="1459" y="-392.5" font-family="Helvetica,sans-Serif" font-size="10.00">mutex</text>
</a>
</g>
</g>
<!-- Node1&#45;&gt;Node34 -->
<g id="edge73_Node000001_Node000034" class="edge">
<title>Node1&#45;&gt;Node34</title>
<g id="a_edge73_Node000001_Node000034"><a xlink:title=" ">
<path fill="none" stroke="#63b8ff" d="M348.12,-450.16C552.61,-448.35 1196.42,-440.17 1426.23,-405.98"/>
<polygon fill="#63b8ff" stroke="#63b8ff" points="1426.67,-409.45 1436.02,-404.46 1425.6,-402.53 1426.67,-409.45"/>
</a>
</g>
</g>
<!-- Node3 -->
<g id="Node000003" class="node">
<title>Node3</title>
<g id="a_Node000003"><a xlink:href="../../df/dde/_fwd_8hpp.html" target="_top" xlink:title=" ">
<polygon fill="white" stroke="#666666" points="881,-74.5 787,-74.5 787,-55.25 881,-55.25 881,-74.5"/>
<text text-anchor="middle" x="834" y="-61" font-family="Helvetica,sans-Serif" font-size="10.00">mimic++/Fwd.hpp</text>
</a>
</g>
</g>
<!-- Node2&#45;&gt;Node3 -->
<g id="edge2_Node000002_Node000003" class="edge">
<title>Node2&#45;&gt;Node3</title>
<g id="a_edge2_Node000002_Node000003"><a xlink:title=" ">
<path fill="none" stroke="#63b8ff" d="M433.2,-167.21C481.2,-159.41 558.33,-145.87 624,-129.75 685.19,-114.73 754.94,-92.47 796.67,-78.58"/>
<polygon fill="#63b8ff" stroke="#63b8ff" points="797.6,-81.96 805.97,-75.47 795.38,-75.32 797.6,-81.96"/>
</a>
</g>
</g>
<!-- Node2&#45;&gt;Node5 -->
<g id="edge4_Node000002_Node000005" class="edge">
<title>Node2&#45;&gt;Node5</title>
<g id="a_edge4_Node000002_Node000005"><a xlink:title=" ">
<path fill="none" stroke="#63b8ff" d="M349.09,-165.28C311.73,-156.32 254.5,-142.59 213.77,-132.82"/>
<polygon fill="#63b8ff" stroke="#63b8ff" points="214.77,-129.46 204.23,-130.53 213.13,-136.27 214.77,-129.46"/>
</a>
</g>
</g>
<!-- Node2&#45;&gt;Node6 -->
<g id="edge13_Node000002_Node000006" class="edge">
<title>Node2&#45;&gt;Node6</title>
<g id="a_edge13_Node000002_Node000006"><a xlink:title=" ">
<path fill="none" stroke="#63b8ff" d="M367.63,-165.32C339.03,-152.16 283.65,-127.47 235,-110.5 190.64,-95.02 137.92,-81.07 105.72,-73.04"/>
<polygon fill="#63b8ff" stroke="#63b8ff" points="106.85,-69.71 96.31,-70.72 105.18,-76.51 106.85,-69.71"/>
</a>
</g>
</g>
<!-- Node7 -->
<g id="Node000007" class="node">
<title>Node7</title>
<g id="a_Node000007"><a xlink:href="../../d4/d2c/_utility_8hpp.html" target="_top" xlink:title=" ">
<polygon fill="white" stroke="#666666" points="813,-129.75 713,-129.75 713,-110.5 813,-110.5 813,-129.75"/>
<text text-anchor="middle" x="763" y="-116.25" font-family="Helvetica,sans-Serif" font-size="10.00">mimic++/Utility.hpp</text>
</a>
</g>
</g>
<!-- Node2&#45;&gt;Node7 -->
<g id="edge6_Node000002_Node000007" class="edge">
<title>Node2&#45;&gt;Node7</title>
<g id="a_edge6_Node000002_Node000007"><a xlink:title=" ">
<path fill="none" stroke="#63b8ff" d="M433.1,-167.85C500.53,-158.3 626.18,-140.5 701.44,-129.84"/>
<polygon fill="#63b8ff" stroke="#63b8ff" points="701.71,-133.34 711.12,-128.47 700.73,-126.41 701.71,-133.34"/>
</a>
</g>
</g>
<!-- Node10 -->
<g id="Node000010" class="node">
<title>Node10</title>
<g id="a_Node000010"><a xlink:title=" ">
<polygon fill="#e0e0e0" stroke="#999999" points="605.12,-74.5 520.88,-74.5 520.88,-55.25 605.12,-55.25 605.12,-74.5"/>
<text text-anchor="middle" x="563" y="-61" font-family="Helvetica,sans-Serif" font-size="10.00">source_location</text>
</a>
</g>
</g>
<!-- Node2&#45;&gt;Node10 -->
<g id="edge12_Node000002_Node000010" class="edge">
<title>Node2&#45;&gt;Node10</title>
<g id="a_edge12_Node000002_Node000010"><a xlink:title=" ">
<path fill="none" stroke="#63b8ff" d="M401.7,-165.31C432.06,-146.6 501.92,-103.53 538.95,-80.7"/>
<polygon fill="#63b8ff" stroke="#63b8ff" points="540.5,-83.86 547.17,-75.63 536.83,-77.9 540.5,-83.86"/>
</a>
</g>
</g>
<!-- Node2&#45;&gt;Node11 -->
<g id="edge14_Node000002_Node000011" class="edge">
<title>Node2&#45;&gt;Node11</title>
<g id="a_edge14_Node000002_Node000011"><a xlink:title=" ">
<path fill="none" stroke="#63b8ff" d="M382.42,-165.5C373.39,-148.01 353.14,-108.77 340.92,-85.09"/>
<polygon fill="#63b8ff" stroke="#63b8ff" points="344.04,-83.5 336.34,-76.22 337.82,-86.71 344.04,-83.5"/>
</a>
</g>
</g>
<!-- Node4 -->
<g id="Node000004" class="node">
<title>Node4</title>
<g id="a_Node000004"><a xlink:title=" ">
<polygon fill="#e0e0e0" stroke="#999999" points="753,-19.25 713,-19.25 713,0 753,0 753,-19.25"/>
<text text-anchor="middle" x="733" y="-5.75" font-family="Helvetica,sans-Serif" font-size="10.00">string</text>
</a>
</g>
</g>
<!-- Node3&#45;&gt;Node4 -->
<g id="edge3_Node000003_Node000004" class="edge">
<title>Node3&#45;&gt;Node4</title>
<g id="a_edge3_Node000003_Node000004"><a xlink:title=" ">
<path fill="none" stroke="#63b8ff" d="M816.87,-54.84C801.34,-46.66 778.2,-34.46 760.16,-24.94"/>
<polygon fill="#63b8ff" stroke="#63b8ff" points="762.03,-21.98 751.56,-20.41 758.77,-28.17 762.03,-21.98"/>
</a>
</g>
</g>
<!-- Node5&#45;&gt;Node6 -->
<g id="edge5_Node000005_Node000006" class="edge">
<title>Node5&#45;&gt;Node6</title>
<g id="a_edge5_Node000005_Node000006"><a xlink:title=" ">
<path fill="none" stroke="#63b8ff" d="M149.9,-110.09C136.48,-102.06 116.59,-90.16 100.83,-80.73"/>
<polygon fill="#63b8ff" stroke="#63b8ff" points="102.85,-77.86 92.47,-75.73 99.25,-83.87 102.85,-77.86"/>
</a>
</g>
</g>
<!-- Node7&#45;&gt;Node3 -->
<g id="edge7_Node000007_Node000003" class="edge">
<title>Node7&#45;&gt;Node3</title>
<g id="a_edge7_Node000007_Node000003"><a xlink:title=" ">
<path fill="none" stroke="#63b8ff" d="M775.04,-110.09C785.41,-102.32 800.6,-90.92 812.97,-81.65"/>
<polygon fill="#63b8ff" stroke="#63b8ff" points="815.02,-84.48 820.92,-75.68 810.82,-78.88 815.02,-84.48"/>
</a>
</g>
</g>
<!-- Node7&#45;&gt;Node8 -->
<g id="edge8_Node000007_Node000008" class="edge">
<title>Node7&#45;&gt;Node8</title>
<g id="a_edge8_Node000007_Node000008"><a xlink:title=" ">
<path fill="none" stroke="#63b8ff" d="M813.29,-113.73C913.49,-102.97 1135.9,-79.09 1223.01,-69.74"/>
<polygon fill="#63b8ff" stroke="#63b8ff" points="1223.31,-73.23 1232.87,-68.68 1222.56,-66.27 1223.31,-73.23"/>
</a>
</g>
</g>
<!-- Node9 -->
<g id="Node000009" class="node">
<title>Node9</title>
<g id="a_Node000009"><a xlink:title=" ">
<polygon fill="#e0e0e0" stroke="#999999" points="768.88,-74.5 725.12,-74.5 725.12,-55.25 768.88,-55.25 768.88,-74.5"/>
<text text-anchor="middle" x="747" y="-61" font-family="Helvetica,sans-Serif" font-size="10.00">format</text>
</a>
</g>
</g>
<!-- Node7&#45;&gt;Node9 -->
<g id="edge9_Node000007_Node000009" class="edge">
<title>Node7&#45;&gt;Node9</title>
<g id="a_edge9_Node000007_Node000009"><a xlink:title=" ">
<path fill="none" stroke="#63b8ff" d="M760.36,-110.33C758.36,-103.67 755.52,-94.24 752.98,-85.78"/>
<polygon fill="#63b8ff" stroke="#63b8ff" points="756.36,-84.88 750.14,-76.31 749.66,-86.89 756.36,-84.88"/>
</a>
</g>
</g>
<!-- Node7&#45;&gt;Node10 -->
<g id="edge10_Node000007_Node000010" class="edge">
<title>Node7&#45;&gt;Node10</title>
<g id="a_edge10_Node000007_Node000010"><a xlink:title=" ">
<path fill="none" stroke="#63b8ff" d="M729.07,-110.09C695.74,-101.22 644.69,-87.62 607.99,-77.85"/>
<polygon fill="#63b8ff" stroke="#63b8ff" points="609.12,-74.53 598.56,-75.34 607.32,-81.3 609.12,-74.53"/>
</a>
</g>
</g>
<!-- Node7&#45;&gt;Node11 -->
<g id="edge11_Node000007_Node000011" class="edge">
<title>Node7&#45;&gt;Node11</title>
<g id="a_edge11_Node000007_Node000011"><a xlink:title=" ">
<path fill="none" stroke="#63b8ff" d="M712.77,-116.63C638,-112.25 492.97,-101.2 361.51,-74.66"/>
<polygon fill="#63b8ff" stroke="#63b8ff" points="362.44,-71.28 351.94,-72.69 361.03,-78.13 362.44,-71.28"/>
</a>
</g>
</g>
<!-- Node12&#45;&gt;Node6 -->
<g id="edge65_Node000012_Node000006" class="edge">
<title>Node12&#45;&gt;Node6</title>
<g id="a_edge65_Node000012_Node000006"><a xlink:title=" ">
<path fill="none" stroke="#63b8ff" d="M679.74,-392.77C574.51,-387.95 374.34,-375.75 308,-350.75 175.94,-300.98 124.82,-263.57 80,-129.75 75.29,-115.68 74.4,-98.92 74.64,-86.09"/>
<polygon fill="#63b8ff" stroke="#63b8ff" points="78.12,-86.49 75.07,-76.34 71.13,-86.17 78.12,-86.49"/>
</a>
</g>
</g>
<!-- Node12&#45;&gt;Node7 -->
<g id="edge59_Node000012_Node000007" class="edge">
<title>Node12&#45;&gt;Node7</title>
<g id="a_edge59_Node000012_Node000007"><a xlink:title=" ">
<path fill="none" stroke="#63b8ff" d="M805.19,-386.29C945.14,-362.52 1276.5,-291.46 1164,-165.75 1141.8,-140.95 931.51,-128.37 824.67,-123.54"/>
<polygon fill="#63b8ff" stroke="#63b8ff" points="825.07,-120.06 814.93,-123.11 824.76,-127.05 825.07,-120.06"/>
</a>
</g>
</g>
<!-- Node12&#45;&gt;Node8 -->
<g id="edge60_Node000012_Node000008" class="edge">
<title>Node12&#45;&gt;Node8</title>
<g id="a_edge60_Node000012_Node000008"><a xlink:title=" ">
<path fill="none" stroke="#63b8ff" d="M811.72,-386.26C878.7,-376.65 977.87,-361.44 1015,-350.75 1076.11,-333.15 1088.38,-320.17 1147,-295.5 1214.16,-267.24 1298,-304.49 1298,-231.62 1298,-231.62 1298,-231.62 1298,-174.38 1298,-141.29 1281.74,-105.7 1270.22,-84.63"/>
<polygon fill="#63b8ff" stroke="#63b8ff" points="1273.34,-83.03 1265.34,-76.09 1267.26,-86.5 1273.34,-83.03"/>
</a>
</g>
</g>
<!-- Node12&#45;&gt;Node11 -->
<g id="edge66_Node000012_Node000011" class="edge">
<title>Node12&#45;&gt;Node11</title>
<g id="a_edge66_Node000012_Node000011"><a xlink:title=" ">
<path fill="none" stroke="#63b8ff" d="M679.74,-389.96C569.51,-376.87 352.26,-332.65 268,-185 247.45,-148.99 285.55,-105.74 310.94,-82.54"/>
<polygon fill="#63b8ff" stroke="#63b8ff" points="313.25,-85.17 318.45,-75.95 308.63,-79.91 313.25,-85.17"/>
</a>
</g>
</g>
<!-- Node13 -->
<g id="Node000013" class="node">
<title>Node13</title>
<g id="a_Node000013"><a xlink:href="../../d0/d3b/_reports_8hpp.html" target="_top" xlink:title=" ">
<polygon fill="white" stroke="#666666" points="775.5,-240.25 666.5,-240.25 666.5,-221 775.5,-221 775.5,-240.25"/>
<text text-anchor="middle" x="721" y="-226.75" font-family="Helvetica,sans-Serif" font-size="10.00">mimic++/Reports.hpp</text>
</a>
</g>
</g>
<!-- Node12&#45;&gt;Node13 -->
<g id="edge16_Node000012_Node000013" class="edge">
<title>Node12&#45;&gt;Node13</title>
<g id="a_edge16_Node000012_Node000013"><a xlink:title=" ">
<path fill="none" stroke="#63b8ff" d="M716.08,-386.39C699.03,-379.56 679.11,-368.29 669,-350.75 649.02,-316.08 681.68,-272.27 703.63,-248.63"/>
<polygon fill="#63b8ff" stroke="#63b8ff" points="705.89,-251.32 710.34,-241.71 700.87,-246.46 705.89,-251.32"/>
</a>
</g>
</g>
<!-- Node20 -->
<g id="Node000020" class="node">
<title>Node20</title>
<g id="a_Node000020"><a xlink:title=" ">
<polygon fill="#e0e0e0" stroke="#999999" points="978.88,-185 929.12,-185 929.12,-165.75 978.88,-165.75 978.88,-185"/>
<text text-anchor="middle" x="954" y="-171.5" font-family="Helvetica,sans-Serif" font-size="10.00">optional</text>
</a>
</g>
</g>
<!-- Node12&#45;&gt;Node20 -->
<g id="edge63_Node000012_Node000020" class="edge">
<title>Node12&#45;&gt;Node20</title>
<g id="a_edge63_Node000012_Node000020"><a xlink:title=" ">
<path fill="none" stroke="#63b8ff" d="M791.18,-386.31C814.78,-379.7 842.86,-368.67 863,-350.75 911.61,-307.5 938.27,-232.04 948.73,-196.27"/>
<polygon fill="#63b8ff" stroke="#63b8ff" points="952.04,-197.42 951.35,-186.85 945.3,-195.54 952.04,-197.42"/>
</a>
</g>
</g>
<!-- Node12&#45;&gt;Node24 -->
<g id="edge67_Node000012_Node000024" class="edge">
<title>Node12&#45;&gt;Node24</title>
<g id="a_edge67_Node000012_Node000024"><a xlink:title=" ">
<path fill="none" stroke="#63b8ff" d="M785.27,-386.31C814.04,-378.85 853.57,-366.89 886,-350.75 978.67,-304.65 1075.13,-226.11 1114.56,-192.45"/>
<polygon fill="#63b8ff" stroke="#63b8ff" points="1116.46,-195.43 1121.76,-186.25 1111.9,-190.12 1116.46,-195.43"/>
</a>
</g>
</g>
<!-- Node25 -->
<g id="Node000025" class="node">
<title>Node25</title>
<g id="a_Node000025"><a xlink:href="../../d8/de4/_sequence_8hpp.html" target="_top" xlink:title=" ">
<polygon fill="white" stroke="#666666" points="854.38,-350.75 735.62,-350.75 735.62,-331.5 854.38,-331.5 854.38,-350.75"/>
<text text-anchor="middle" x="795" y="-337.25" font-family="Helvetica,sans-Serif" font-size="10.00">mimic++/Sequence.hpp</text>
</a>
</g>
</g>
<!-- Node12&#45;&gt;Node25 -->
<g id="edge36_Node000012_Node000025" class="edge">
<title>Node12&#45;&gt;Node25</title>
<g id="a_edge36_Node000012_Node000025"><a xlink:title=" ">
<path fill="none" stroke="#63b8ff" d="M754.09,-386.58C760.86,-379.23 770.72,-368.51 779.06,-359.44"/>
<polygon fill="#63b8ff" stroke="#63b8ff" points="781.51,-361.95 785.71,-352.22 776.36,-357.21 781.51,-361.95"/>
</a>
</g>
</g>
<!-- Node12&#45;&gt;Node28 -->
<g id="edge62_Node000012_Node000028" class="edge">
<title>Node12&#45;&gt;Node28</title>
<g id="a_edge62_Node000012_Node000028"><a xlink:title=" ">
<path fill="none" stroke="#63b8ff" d="M679.47,-392.58C581.89,-387.71 405.23,-375.69 347,-350.75 292.49,-327.4 242.88,-275.94 219.36,-248.94"/>
<polygon fill="#63b8ff" stroke="#63b8ff" points="222.29,-246.99 213.14,-241.65 216.97,-251.53 222.29,-246.99"/>
</a>
</g>
</g>
<!-- Node31 -->
<g id="Node000031" class="node">
<title>Node31</title>
<g id="a_Node000031"><a xlink:title=" ">
<polygon fill="#e0e0e0" stroke="#999999" points="717.62,-350.75 678.38,-350.75 678.38,-331.5 717.62,-331.5 717.62,-350.75"/>
<text text-anchor="middle" x="698" y="-337.25" font-family="Helvetica,sans-Serif" font-size="10.00">limits</text>
</a>
</g>
</g>
<!-- Node12&#45;&gt;Node31 -->
<g id="edge61_Node000012_Node000031" class="edge">
<title>Node12&#45;&gt;Node31</title>
<g id="a_edge61_Node000012_Node000031"><a xlink:title=" ">
<path fill="none" stroke="#63b8ff" d="M738.07,-386.58C731.44,-379.23 721.78,-368.51 713.61,-359.44"/>
<polygon fill="#63b8ff" stroke="#63b8ff" points="716.41,-357.32 707.11,-352.23 711.21,-362 716.41,-357.32"/>
</a>
</g>
</g>
<!-- Node12&#45;&gt;Node32 -->
<g id="edge64_Node000012_Node000032" class="edge">
<title>Node12&#45;&gt;Node32</title>
<g id="a_edge64_Node000012_Node000032"><a xlink:title=" ">
<path fill="none" stroke="#63b8ff" d="M812.51,-390.89C900.87,-384.46 1061.71,-371.09 1198,-350.75 1198.99,-350.6 1199.99,-350.45 1201,-350.29"/>
<polygon fill="#63b8ff" stroke="#63b8ff" points="1201.19,-353.81 1210.43,-348.63 1199.98,-346.91 1201.19,-353.81"/>
</a>
</g>
</g>
<!-- Node13&#45;&gt;Node2 -->
<g id="edge17_Node000013_Node000002" class="edge">
<title>Node13&#45;&gt;Node2</title>
<g id="a_edge17_Node000013_Node000002"><a xlink:title=" ">
<path fill="none" stroke="#63b8ff" d="M666.22,-220.89C605.07,-211.14 506.55,-195.43 444.37,-185.52"/>
<polygon fill="#63b8ff" stroke="#63b8ff" points="445.12,-182.1 434.69,-183.98 444.01,-189.01 445.12,-182.1"/>
</a>
</g>
</g>
<!-- Node13&#45;&gt;Node3 -->
<g id="edge18_Node000013_Node000003" class="edge">
<title>Node13&#45;&gt;Node3</title>
<g id="a_edge18_Node000013_Node000003"><a xlink:title=" ">
<path fill="none" stroke="#63b8ff" d="M751.3,-220.51C769.59,-213.55 791.98,-202.17 806,-185 829.33,-156.42 833.89,-111.8 834.41,-86.05"/>
<polygon fill="#63b8ff" stroke="#63b8ff" points="837.91,-86.29 834.4,-76.3 830.91,-86.3 837.91,-86.29"/>
</a>
</g>
</g>
<!-- Node14 -->
<g id="Node000014" class="node">
<title>Node14</title>
<g id="a_Node000014"><a xlink:href="../../da/dab/_printer_8hpp.html" target="_top" xlink:title=" ">
<polygon fill="white" stroke="#666666" points="614.88,-129.75 511.12,-129.75 511.12,-110.5 614.88,-110.5 614.88,-129.75"/>
<text text-anchor="middle" x="563" y="-116.25" font-family="Helvetica,sans-Serif" font-size="10.00">mimic++/Printer.hpp</text>
</a>
</g>
</g>
<!-- Node13&#45;&gt;Node14 -->
<g id="edge19_Node000013_Node000014" class="edge">
<title>Node13&#45;&gt;Node14</title>
<g id="a_edge19_Node000013_Node000014"><a xlink:title=" ">
<path fill="none" stroke="#63b8ff" d="M700.03,-220.52C682.09,-212.33 655.93,-199.39 635,-185 614.67,-171.02 593.84,-151.92 579.85,-138.25"/>
<polygon fill="#63b8ff" stroke="#63b8ff" points="582.35,-135.8 572.79,-131.23 577.41,-140.77 582.35,-135.8"/>
</a>
</g>
</g>
<!-- Node15 -->
<g id="Node000015" class="node">
<title>Node15</title>
<g id="a_Node000015"><a xlink:title=" ">
<polygon fill="#e0e0e0" stroke="#999999" points="707,-74.5 661,-74.5 661,-55.25 707,-55.25 707,-74.5"/>
<text text-anchor="middle" x="684" y="-61" font-family="Helvetica,sans-Serif" font-size="10.00">iterator</text>
</a>
</g>
</g>
<!-- Node13&#45;&gt;Node15 -->
<g id="edge30_Node000013_Node000015" class="edge">
<title>Node13&#45;&gt;Node15</title>
<g id="a_edge30_Node000013_Node000015"><a xlink:title=" ">
<path fill="none" stroke="#63b8ff" d="M703.9,-220.65C691.38,-213.03 675.36,-200.81 668,-185 652.79,-152.32 665.39,-109.51 675.2,-85.11"/>
<polygon fill="#63b8ff" stroke="#63b8ff" points="678.32,-86.7 679.05,-76.13 671.89,-83.94 678.32,-86.7"/>
</a>
</g>
</g>
<!-- Node18 -->
<g id="Node000018" class="node">
<title>Node18</title>
<g id="a_Node000018"><a xlink:title=" ">
<polygon fill="#e0e0e0" stroke="#999999" points="582.88,-185 527.12,-185 527.12,-165.75 582.88,-165.75 582.88,-185"/>
<text text-anchor="middle" x="555" y="-171.5" font-family="Helvetica,sans-Serif" font-size="10.00">algorithm</text>
</a>
</g>
</g>
<!-- Node13&#45;&gt;Node18 -->
<g id="edge28_Node000013_Node000018" class="edge">
<title>Node13&#45;&gt;Node18</title>
<g id="a_edge28_Node000013_Node000018"><a xlink:title=" ">
<path fill="none" stroke="#63b8ff" d="M692.84,-220.59C665.65,-211.87 624.26,-198.59 593.93,-188.86"/>
<polygon fill="#63b8ff" stroke="#63b8ff" points="595.33,-185.64 584.74,-185.91 593.19,-192.3 595.33,-185.64"/>
</a>
</g>
</g>
<!-- Node19 -->
<g id="Node000019" class="node">
<title>Node19</title>
<g id="a_Node000019"><a xlink:title=" ">
<polygon fill="#e0e0e0" stroke="#999999" points="911,-185 853,-185 853,-165.75 911,-165.75 911,-185"/>
<text text-anchor="middle" x="882" y="-171.5" font-family="Helvetica,sans-Serif" font-size="10.00">functional</text>
</a>
</g>
</g>
<!-- Node13&#45;&gt;Node19 -->
<g id="edge29_Node000013_Node000019" class="edge">
<title>Node13&#45;&gt;Node19</title>
<g id="a_edge29_Node000013_Node000019"><a xlink:title=" ">
<path fill="none" stroke="#63b8ff" d="M748.31,-220.59C774.56,-211.91 814.48,-198.71 843.86,-188.99"/>
<polygon fill="#63b8ff" stroke="#63b8ff" points="844.72,-192.39 853.12,-185.93 842.52,-185.74 844.72,-192.39"/>
</a>
</g>
</g>
<!-- Node13&#45;&gt;Node20 -->
<g id="edge31_Node000013_Node000020" class="edge">
<title>Node13&#45;&gt;Node20</title>
<g id="a_edge31_Node000013_Node000020"><a xlink:title=" ">
<path fill="none" stroke="#63b8ff" d="M763.01,-220.56C800.97,-212.29 858.67,-199.52 917.73,-185.49"/>
<polygon fill="#63b8ff" stroke="#63b8ff" points="918.38,-188.94 927.3,-183.21 916.76,-182.13 918.38,-188.94"/>
</a>
</g>
</g>
<!-- Node13&#45;&gt;Node21 -->
<g id="edge32_Node000013_Node000021" class="edge">
<title>Node13&#45;&gt;Node21</title>
<g id="a_edge32_Node000013_Node000021"><a xlink:title=" ">
<path fill="none" stroke="#63b8ff" d="M666.17,-225.92C592.72,-220.4 458.19,-208.28 334.18,-185.13"/>
<polygon fill="#63b8ff" stroke="#63b8ff" points="334.94,-181.72 324.46,-183.29 333.64,-188.59 334.94,-181.72"/>
</a>
</g>
</g>
<!-- Node22 -->
<g id="Node000022" class="node">
<title>Node22</title>
<g id="a_Node000022"><a xlink:title=" ">
<polygon fill="#e0e0e0" stroke="#999999" points="733.25,-185 676.75,-185 676.75,-165.75 733.25,-165.75 733.25,-185"/>
<text text-anchor="middle" x="705" y="-171.5" font-family="Helvetica,sans-Serif" font-size="10.00">typeindex</text>
</a>
</g>
</g>
<!-- Node13&#45;&gt;Node22 -->
<g id="edge33_Node000013_Node000022" class="edge">
<title>Node13&#45;&gt;Node22</title>
<g id="a_edge33_Node000013_Node000022"><a xlink:title=" ">
<path fill="none" stroke="#63b8ff" d="M718.36,-220.83C716.36,-214.17 713.52,-204.74 710.98,-196.28"/>
<polygon fill="#63b8ff" stroke="#63b8ff" points="714.36,-195.38 708.14,-186.81 707.66,-197.39 714.36,-195.38"/>
</a>
</g>
</g>
<!-- Node23 -->
<g id="Node000023" class="node">
<title>Node23</title>
<g id="a_Node000023"><a xlink:title=" ">
<polygon fill="#e0e0e0" stroke="#999999" points="796.62,-185 751.38,-185 751.38,-165.75 796.62,-165.75 796.62,-185"/>
<text text-anchor="middle" x="774" y="-171.5" font-family="Helvetica,sans-Serif" font-size="10.00">variant</text>
</a>
</g>
</g>
<!-- Node13&#45;&gt;Node23 -->
<g id="edge34_Node000013_Node000023" class="edge">
<title>Node13&#45;&gt;Node23</title>
<g id="a_edge34_Node000013_Node000023"><a xlink:title=" ">
<path fill="none" stroke="#63b8ff" d="M729.75,-220.83C737.15,-213.4 747.96,-202.54 757.05,-193.41"/>
<polygon fill="#63b8ff" stroke="#63b8ff" points="759.42,-195.99 763.99,-186.43 754.46,-191.05 759.42,-195.99"/>
</a>
</g>
</g>
<!-- Node13&#45;&gt;Node24 -->
<g id="edge35_Node000013_Node000024" class="edge">
<title>Node13&#45;&gt;Node24</title>
<g id="a_edge35_Node000013_Node000024"><a xlink:title=" ">
<path fill="none" stroke="#63b8ff" d="M775.71,-222.55C862.62,-211.32 1029.59,-189.74 1100.19,-180.62"/>
<polygon fill="#63b8ff" stroke="#63b8ff" points="1100.47,-184.11 1109.94,-179.36 1099.58,-177.17 1100.47,-184.11"/>
</a>
</g>
</g>
<!-- Node14&#45;&gt;Node3 -->
<g id="edge20_Node000014_Node000003" class="edge">
<title>Node14&#45;&gt;Node3</title>
<g id="a_edge20_Node000014_Node000003"><a xlink:title=" ">
<path fill="none" stroke="#63b8ff" d="M609.28,-110.03C655.56,-100.94 726.84,-86.93 776.68,-77.14"/>
<polygon fill="#63b8ff" stroke="#63b8ff" points="777.29,-80.59 786.43,-75.22 775.94,-73.72 777.29,-80.59"/>
</a>
</g>
</g>
<!-- Node14&#45;&gt;Node4 -->
<g id="edge25_Node000014_Node000004" class="edge">
<title>Node14&#45;&gt;Node4</title>
<g id="a_edge25_Node000014_Node000004"><a xlink:title=" ">
<path fill="none" stroke="#63b8ff" d="M574.5,-110.2C591.17,-97.41 623.21,-73.42 652,-55.25 669.37,-44.28 689.62,-33.13 705.52,-24.72"/>
<polygon fill="#63b8ff" stroke="#63b8ff" points="706.7,-28.05 713.93,-20.32 703.45,-21.85 706.7,-28.05"/>
</a>
</g>
</g>
<!-- Node14&#45;&gt;Node9 -->
<g id="edge21_Node000014_Node000009" class="edge">
<title>Node14&#45;&gt;Node9</title>
<g id="a_edge21_Node000014_Node000009"><a xlink:title=" ">
<path fill="none" stroke="#63b8ff" d="M594.21,-110.09C627.47,-100.47 679.9,-85.29 713.87,-75.46"/>
<polygon fill="#63b8ff" stroke="#63b8ff" points="714.54,-78.91 723.18,-72.77 712.6,-72.19 714.54,-78.91"/>
</a>
</g>
</g>
<!-- Node14&#45;&gt;Node10 -->
<g id="edge23_Node000014_Node000010" class="edge">
<title>Node14&#45;&gt;Node10</title>
<g id="a_edge23_Node000014_Node000010"><a xlink:title=" ">
<path fill="none" stroke="#63b8ff" d="M563,-110.33C563,-103.82 563,-94.67 563,-86.37"/>
<polygon fill="#63b8ff" stroke="#63b8ff" points="566.5,-86.37 563,-76.37 559.5,-86.37 566.5,-86.37"/>
</a>
</g>
</g>
<!-- Node14&#45;&gt;Node11 -->
<g id="edge27_Node000014_Node000011" class="edge">
<title>Node14&#45;&gt;Node11</title>
<g id="a_edge27_Node000014_Node000011"><a xlink:title=" ">
<path fill="none" stroke="#63b8ff" d="M516.15,-110.03C477.06,-102.19 419.68,-90.08 361.41,-74.97"/>
<polygon fill="#63b8ff" stroke="#63b8ff" points="362.55,-71.65 351.99,-72.5 360.77,-78.42 362.55,-71.65"/>
</a>
</g>
</g>
<!-- Node14&#45;&gt;Node15 -->
<g id="edge22_Node000014_Node000015" class="edge">
<title>Node14&#45;&gt;Node15</title>
<g id="a_edge22_Node000014_Node000015"><a xlink:title=" ">
<path fill="none" stroke="#63b8ff" d="M583.53,-110.09C602.56,-101.72 631.15,-89.13 652.97,-79.53"/>
<polygon fill="#63b8ff" stroke="#63b8ff" points="654.24,-82.79 661.99,-75.56 651.43,-76.39 654.24,-82.79"/>
</a>
</g>
</g>
<!-- Node16 -->
<g id="Node000016" class="node">
<title>Node16</title>
<g id="a_Node000016"><a xlink:title=" ">
<polygon fill="#e0e0e0" stroke="#999999" points="419.62,-74.5 368.38,-74.5 368.38,-55.25 419.62,-55.25 419.62,-74.5"/>
<text text-anchor="middle" x="394" y="-61" font-family="Helvetica,sans-Serif" font-size="10.00">sstream</text>
</a>
</g>
</g>
<!-- Node14&#45;&gt;Node16 -->
<g id="edge24_Node000014_Node000016" class="edge">
<title>Node14&#45;&gt;Node16</title>
<g id="a_edge24_Node000014_Node000016"><a xlink:title=" ">
<path fill="none" stroke="#63b8ff" d="M534.33,-110.09C505.81,-101.11 461.94,-87.28 430.85,-77.49"/>
<polygon fill="#63b8ff" stroke="#63b8ff" points="432.06,-74.2 421.47,-74.53 429.96,-80.88 432.06,-74.2"/>
</a>
</g>
</g>
<!-- Node17 -->
<g id="Node000017" class="node">
<title>Node17</title>
<g id="a_Node000017"><a xlink:title=" ">
<polygon fill="#e0e0e0" stroke="#999999" points="502.75,-74.5 437.25,-74.5 437.25,-55.25 502.75,-55.25 502.75,-74.5"/>
<text text-anchor="middle" x="470" y="-61" font-family="Helvetica,sans-Serif" font-size="10.00">string_view</text>
</a>
</g>
</g>
<!-- Node14&#45;&gt;Node17 -->
<g id="edge26_Node000014_Node000017" class="edge">
<title>Node14&#45;&gt;Node17</title>
<g id="a_edge26_Node000014_Node000017"><a xlink:title=" ">
<path fill="none" stroke="#63b8ff" d="M547.22,-110.09C533.06,-101.98 512.02,-89.93 495.47,-80.46"/>
<polygon fill="#63b8ff" stroke="#63b8ff" points="497.58,-77.64 487.17,-75.7 494.11,-83.71 497.58,-77.64"/>
</a>
</g>
</g>
<!-- Node25&#45;&gt;Node3 -->
<g id="edge37_Node000025_Node000003" class="edge">
<title>Node25&#45;&gt;Node3</title>
<g id="a_edge37_Node000025_Node000003"><a xlink:title=" ">
<path fill="none" stroke="#63b8ff" d="M829.5,-331.03C913.81,-308.02 1126.16,-245.04 1164,-185 1227.2,-84.71 1003.6,-68.06 892.73,-65.84"/>
<polygon fill="#63b8ff" stroke="#63b8ff" points="892.97,-62.34 882.91,-65.68 892.85,-69.34 892.97,-62.34"/>
</a>
</g>
</g>
<!-- Node25&#45;&gt;Node6 -->
<g id="edge58_Node000025_Node000006" class="edge">
<title>Node25&#45;&gt;Node6</title>
<g id="a_edge58_Node000025_Node000006"><a xlink:title=" ">
<path fill="none" stroke="#63b8ff" d="M735.29,-332.52C639.55,-320.29 461.68,-297.43 455,-295.5 370.38,-271.08 152.69,-196.3 95,-129.75 84.44,-117.57 79.75,-99.72 77.66,-85.99"/>
<polygon fill="#63b8ff" stroke="#63b8ff" points="81.17,-85.86 76.56,-76.32 74.21,-86.65 81.17,-85.86"/>
</a>
</g>
</g>
<!-- Node25&#45;&gt;Node7 -->
<g id="edge52_Node000025_Node000007" class="edge">
<title>Node25&#45;&gt;Node7</title>
<g id="a_edge52_Node000025_Node000007"><a xlink:title=" ">
<path fill="none" stroke="#63b8ff" d="M820.49,-331.17C885.31,-307.08 1047.18,-237.82 988,-165.75 967.64,-140.96 883.79,-129.7 824.42,-124.75"/>
<polygon fill="#63b8ff" stroke="#63b8ff" points="825.03,-121.29 814.78,-123.99 824.48,-128.27 825.03,-121.29"/>
</a>
</g>
</g>
<!-- Node25&#45;&gt;Node8 -->
<g id="edge55_Node000025_Node000008" class="edge">
<title>Node25&#45;&gt;Node8</title>
<g id="a_edge55_Node000025_Node000008"><a xlink:title=" ">
<path fill="none" stroke="#63b8ff" d="M854.79,-331.36C922.96,-319.27 1035.71,-292.74 1119,-240.25 1150.51,-220.39 1157.66,-213.19 1182,-185 1209.93,-152.66 1235.37,-109.43 1248.87,-84.93"/>
<polygon fill="#63b8ff" stroke="#63b8ff" points="1251.94,-86.61 1253.62,-76.15 1245.78,-83.28 1251.94,-86.61"/>
</a>
</g>
</g>
<!-- Node25&#45;&gt;Node14 -->
<g id="edge38_Node000025_Node000014" class="edge">
<title>Node25&#45;&gt;Node14</title>
<g id="a_edge38_Node000025_Node000014"><a xlink:title=" ">
<path fill="none" stroke="#63b8ff" d="M735.13,-331.82C652.3,-320.21 511.67,-300.04 501,-295.5 463.89,-279.7 446.84,-276.43 429,-240.25 425.22,-232.58 425.16,-228.65 429,-221 449.93,-179.3 497.45,-150.57 529.88,-134.98"/>
<polygon fill="#63b8ff" stroke="#63b8ff" points="531.26,-138.2 538.87,-130.83 528.33,-131.85 531.26,-138.2"/>
</a>
</g>
</g>
<!-- Node25&#45;&gt;Node18 -->
<g id="edge53_Node000025_Node000018" class="edge">
<title>Node25&#45;&gt;Node18</title>
<g id="a_edge53_Node000025_Node000018"><a xlink:title=" ">
<path fill="none" stroke="#63b8ff" d="M776.64,-331.12C759.73,-322.59 734.12,-309.1 713,-295.5 660.84,-261.91 603.65,-216.43 574.48,-192.55"/>
<polygon fill="#63b8ff" stroke="#63b8ff" points="576.82,-189.95 566.88,-186.29 572.37,-195.35 576.82,-189.95"/>
</a>
</g>
</g>
<!-- Node25&#45;&gt;Node19 -->
<g id="edge56_Node000025_Node000019" class="edge">
<title>Node25&#45;&gt;Node19</title>
<g id="a_edge56_Node000025_Node000019"><a xlink:title=" ">
<path fill="none" stroke="#63b8ff" d="M801.07,-331.06C806.93,-322.15 815.94,-308.11 823,-295.5 842.28,-261.04 862.14,-219.43 873.2,-195.62"/>
<polygon fill="#63b8ff" stroke="#63b8ff" points="876.36,-197.12 877.37,-186.57 870,-194.19 876.36,-197.12"/>
</a>
</g>
</g>
<!-- Node25&#45;&gt;Node26 -->
<g id="edge39_Node000025_Node000026" class="edge">
<title>Node25&#45;&gt;Node26</title>
<g id="a_edge39_Node000025_Node000026"><a xlink:title=" ">
<path fill="none" stroke="#63b8ff" d="M755.89,-331.03C717.28,-322.05 658.07,-308.28 616.04,-298.51"/>
<polygon fill="#63b8ff" stroke="#63b8ff" points="616.95,-295.13 606.42,-296.27 615.37,-301.95 616.95,-295.13"/>
</a>
</g>
</g>
<!-- Node29 -->
<g id="Node000029" class="node">
<title>Node29</title>
<g id="a_Node000029"><a xlink:title=" ">
<polygon fill="#e0e0e0" stroke="#999999" points="758.5,-295.5 721.5,-295.5 721.5,-276.25 758.5,-276.25 758.5,-295.5"/>
<text text-anchor="middle" x="740" y="-282" font-family="Helvetica,sans-Serif" font-size="10.00">array</text>
</a>
</g>
</g>
<!-- Node25&#45;&gt;Node29 -->
<g id="edge54_Node000025_Node000029" class="edge">
<title>Node25&#45;&gt;Node29</title>
<g id="a_edge54_Node000025_Node000029"><a xlink:title=" ">
<path fill="none" stroke="#63b8ff" d="M785.92,-331.33C778.16,-323.82 766.79,-312.81 757.3,-303.63"/>
<polygon fill="#63b8ff" stroke="#63b8ff" points="759.99,-301.35 750.37,-296.91 755.12,-306.38 759.99,-301.35"/>
</a>
</g>
</g>
<!-- Node30 -->
<g id="Node000030" class="node">
<title>Node30</title>
<g id="a_Node000030"><a xlink:title=" ">
<polygon fill="#e0e0e0" stroke="#999999" points="813.5,-295.5 776.5,-295.5 776.5,-276.25 813.5,-276.25 813.5,-295.5"/>
<text text-anchor="middle" x="795" y="-282" font-family="Helvetica,sans-Serif" font-size="10.00">span</text>
</a>
</g>
</g>
<!-- Node25&#45;&gt;Node30 -->
<g id="edge57_Node000025_Node000030" class="edge">
<title>Node25&#45;&gt;Node30</title>
<g id="a_edge57_Node000025_Node000030"><a xlink:title=" ">
<path fill="none" stroke="#63b8ff" d="M795,-331.33C795,-324.82 795,-315.67 795,-307.37"/>
<polygon fill="#63b8ff" stroke="#63b8ff" points="798.5,-307.37 795,-297.37 791.5,-307.37 798.5,-307.37"/>
</a>
</g>
</g>
<!-- Node26&#45;&gt;Node2 -->
<g id="edge40_Node000026_Node000002" class="edge">
<title>Node26&#45;&gt;Node2</title>
<g id="a_edge40_Node000026_Node000002"><a xlink:title=" ">
<path fill="none" stroke="#63b8ff" d="M559.49,-275.81C549.28,-262.19 528.27,-236.41 505,-221 483.34,-206.66 456.43,-196.03 433.78,-188.75"/>
<polygon fill="#63b8ff" stroke="#63b8ff" points="435.07,-185.48 424.48,-185.89 433.01,-192.17 435.07,-185.48"/>
</a>
</g>
</g>
<!-- Node26&#45;&gt;Node3 -->
<g id="edge41_Node000026_Node000003" class="edge">
<title>Node26&#45;&gt;Node3</title>
<g id="a_edge41_Node000026_Node000003"><a xlink:title=" ">
<path fill="none" stroke="#63b8ff" d="M622.34,-280.71C727.69,-271.55 947.53,-245.45 988,-185 1021.49,-134.97 933.82,-96.89 877.38,-78.35"/>
<polygon fill="#63b8ff" stroke="#63b8ff" points="878.59,-75.06 868,-75.36 876.46,-81.73 878.59,-75.06"/>
</a>
</g>
</g>
<!-- Node26&#45;&gt;Node8 -->
<g id="edge45_Node000026_Node000008" class="edge">
<title>Node26&#45;&gt;Node8</title>
<g id="a_edge45_Node000026_Node000008"><a xlink:title=" ">
<path fill="none" stroke="#63b8ff" d="M622.16,-280.29C708.14,-272.86 868.2,-257.29 923,-240.25 955.82,-230.04 1159.4,-120.06 1232.72,-80.2"/>
<polygon fill="#63b8ff" stroke="#63b8ff" points="1234.12,-83.42 1241.23,-75.57 1230.77,-77.27 1234.12,-83.42"/>
</a>
</g>
</g>
<!-- Node26&#45;&gt;Node13 -->
<g id="edge43_Node000026_Node000013" class="edge">
<title>Node26&#45;&gt;Node13</title>
<g id="a_edge43_Node000026_Node000013"><a xlink:title=" ">
<path fill="none" stroke="#63b8ff" d="M592.29,-275.84C617.46,-267.2 655.65,-254.07 683.91,-244.37"/>
<polygon fill="#63b8ff" stroke="#63b8ff" points="684.83,-247.75 693.15,-241.19 682.55,-241.13 684.83,-247.75"/>
</a>
</g>
</g>
<!-- Node26&#45;&gt;Node14 -->
<g id="edge42_Node000026_Node000014" class="edge">
<title>Node26&#45;&gt;Node14</title>
<g id="a_edge42_Node000026_Node000014"><a xlink:title=" ">
<path fill="none" stroke="#63b8ff" d="M559.87,-275.76C548.86,-258.79 526.16,-220.83 518,-185 516.1,-176.66 514.71,-173.65 518,-165.75 522.65,-154.59 531.59,-144.8 540.29,-137.24"/>
<polygon fill="#63b8ff" stroke="#63b8ff" points="542.26,-140.15 547.89,-131.17 537.89,-134.68 542.26,-140.15"/>
</a>
</g>
</g>
<!-- Node26&#45;&gt;Node18 -->
<g id="edge44_Node000026_Node000018" class="edge">
<title>Node26&#45;&gt;Node18</title>
<g id="a_edge44_Node000026_Node000018"><a xlink:title=" ">
<path fill="none" stroke="#63b8ff" d="M569.43,-276.13C573.82,-263.76 580.36,-240.5 576,-221 574.02,-212.13 570.07,-202.94 566.12,-195.23"/>
<polygon fill="#63b8ff" stroke="#63b8ff" points="569.21,-193.57 561.31,-186.51 563.08,-196.95 569.21,-193.57"/>
</a>
</g>
</g>
<!-- Node26&#45;&gt;Node19 -->
<g id="edge47_Node000026_Node000019" class="edge">
<title>Node26&#45;&gt;Node19</title>
<g id="a_edge47_Node000026_Node000019"><a xlink:title=" ">
<path fill="none" stroke="#63b8ff" d="M622.16,-279.4C667.46,-273.58 732.1,-262.1 785,-240.25 814.07,-228.24 843.72,-207.16 862.46,-192.51"/>
<polygon fill="#63b8ff" stroke="#63b8ff" points="864.63,-195.26 870.25,-186.28 860.26,-189.79 864.63,-195.26"/>
</a>
</g>
</g>
<!-- Node26&#45;&gt;Node20 -->
<g id="edge49_Node000026_Node000020" class="edge">
<title>Node26&#45;&gt;Node20</title>
<g id="a_edge49_Node000026_Node000020"><a xlink:title=" ">
<path fill="none" stroke="#63b8ff" d="M622.33,-279.11C673.87,-272.84 751.8,-260.86 817,-240.25 857.43,-227.47 901.39,-205.38 928.33,-190.82"/>
<polygon fill="#63b8ff" stroke="#63b8ff" points="929.69,-194.07 936.78,-186.19 926.33,-187.93 929.69,-194.07"/>
</a>
</g>
</g>
<!-- Node26&#45;&gt;Node21 -->
<g id="edge50_Node000026_Node000021" class="edge">
<title>Node26&#45;&gt;Node21</title>
<g id="a_edge50_Node000026_Node000021"><a xlink:title=" ">
<path fill="none" stroke="#63b8ff" d="M533.69,-275.79C505.63,-267.57 464.09,-254.56 429,-240.25 392.56,-225.38 352.13,-204.63 326.41,-190.86"/>
<polygon fill="#63b8ff" stroke="#63b8ff" points="328.14,-187.82 317.68,-186.15 324.81,-193.98 328.14,-187.82"/>
</a>
</g>
</g>
<!-- Node26&#45;&gt;Node24 -->
<g id="edge51_Node000026_Node000024" class="edge">
<title>Node26&#45;&gt;Node24</title>
<g id="a_edge51_Node000026_Node000024"><a xlink:title=" ">
<path fill="none" stroke="#63b8ff" d="M622.36,-280.49C717.41,-272.8 905.51,-256.15 970,-240.25 1018.84,-228.21 1072.65,-205.04 1104.59,-190.17"/>
<polygon fill="#63b8ff" stroke="#63b8ff" points="1106.02,-193.36 1113.57,-185.93 1103.03,-187.03 1106.02,-193.36"/>
</a>
</g>
</g>
<!-- Node27 -->
<g id="Node000027" class="node">
<title>Node27</title>
<g id="a_Node000027"><a xlink:title=" ">
<polygon fill="#e0e0e0" stroke="#999999" points="495.62,-240.25 438.38,-240.25 438.38,-221 495.62,-221 495.62,-240.25"/>
<text text-anchor="middle" x="467" y="-226.75" font-family="Helvetica,sans-Serif" font-size="10.00">exception</text>
</a>
</g>
</g>
<!-- Node26&#45;&gt;Node27 -->
<g id="edge46_Node000026_Node000027" class="edge">
<title>Node26&#45;&gt;Node27</title>
<g id="a_edge46_Node000026_Node000027"><a xlink:title=" ">
<path fill="none" stroke="#63b8ff" d="M549.21,-275.84C533.99,-267.66 511.3,-255.46 493.62,-245.94"/>
<polygon fill="#63b8ff" stroke="#63b8ff" points="495.67,-243.07 485.21,-241.42 492.36,-249.24 495.67,-243.07"/>
</a>
</g>
</g>
<!-- Node26&#45;&gt;Node28 -->
<g id="edge48_Node000026_Node000028" class="edge">
<title>Node26&#45;&gt;Node28</title>
<g id="a_edge48_Node000026_Node000028"><a xlink:title=" ">
<path fill="none" stroke="#63b8ff" d="M509.59,-276.55C434.89,-265.54 305.22,-246.41 241.91,-237.07"/>
<polygon fill="#63b8ff" stroke="#63b8ff" points="242.43,-233.61 232.03,-235.61 241.41,-240.53 242.43,-233.61"/>
</a>
</g>
</g>
</g>
</svg>
