<?xml version="1.0" encoding="UTF-8" standalone="no"?>
<!DOCTYPE svg PUBLIC "-//W3C//DTD SVG 1.1//EN"
 "http://www.w3.org/Graphics/SVG/1.1/DTD/svg11.dtd">
<!-- Generated by graphviz version 12.1.2 (20240928.0832)
 -->
<!-- Title: mimic++/Printer.hpp Pages: 1 -->
<!--zoomable 248 -->

<svg id="main" version="1.1" xmlns="http://www.w3.org/2000/svg" xmlns:xlink="http://www.w3.org/1999/xlink" xml:space="preserve" onload="init(evt)">

<style type="text/css"><![CDATA[
.node, .edge {opacity: 0.7;}
.node.selected, .edge.selected {opacity: 1;}
.edge:hover path { stroke: red; }
.edge:hover polygon { stroke: red; fill: red; }
]]></style>

<defs>
  <circle id="rim" cx="0" cy="0" r="7"/>
  <circle id="rim2" cx="0" cy="0" r="3.5"/>
  <g id="zoomPlus">
    <use xlink:href="#rim" fill="#404040"><set attributeName="fill" to="#808080" begin="zoomplus.mouseover" end="zoomplus.mouseout"/></use>
    <path d="M-4,0h8M0,-4v8" fill="none" stroke="white" stroke-width="1.5" pointer-events="none"/>
  </g>
  <g id="zoomMin">
    <use xlink:href="#rim" fill="#404040"><set attributeName="fill" to="#808080" begin="zoomminus.mouseover" end="zoomminus.mouseout"/></use>
    <path d="M-4,0h8" fill="none" stroke="white" stroke-width="1.5" pointer-events="none"/>
  </g>
  <g id="arrowUp" transform="translate(30 24)">
    <use xlink:href="#rim"/>
    <path pointer-events="none" fill="none" stroke="white" stroke-width="1.5" d="M0,-3.0v7 M-2.5,-0.5L0,-3.0L2.5,-0.5"/>
  </g>
  <g id="arrowRight" transform="rotate(90) translate(36 -43)">
    <use xlink:href="#rim"/>
    <path pointer-events="none" fill="none" stroke="white" stroke-width="1.5" d="M0,-3.0v7 M-2.5,-0.5L0,-3.0L2.5,-0.5"/>
  </g>
  <g id="arrowDown" transform="rotate(180) translate(-30 -48)">
    <use xlink:href="#rim"/>
    <path pointer-events="none" fill="none" stroke="white" stroke-width="1.5" d="M0,-3.0v7 M-2.5,-0.5L0,-3.0L2.5,-0.5"/>
  </g>
  <g id="arrowLeft" transform="rotate(270) translate(-36 17)">
    <use xlink:href="#rim"/>
    <path pointer-events="none" fill="none" stroke="white" stroke-width="1.5" d="M0,-3.0v7 M-2.5,-0.5L0,-3.0L2.5,-0.5"/>
  </g>
  <g id="resetDef">
    <use xlink:href="#rim2" fill="#404040"><set attributeName="fill" to="#808080" begin="reset.mouseover" end="reset.mouseout"/></use>
  </g>
</defs>
<script type="application/ecmascript">
var viewWidth = 1040;
var viewHeight = 248;
var sectionId = 'dynsection-0';
</script>
<script type="application/ecmascript" xlink:href="../../svg.min.js"/>
<svg id="graph" class="graph">
<g id="viewport">
<title>mimic++/Printer.hpp</title>
<!-- Node1 -->
<g id="Node000001" class="node">
<title>Node1</title>
<g id="a_Node000001"><a xlink:title=" ">
<polygon fill="#999999" stroke="#666666" points="548.36,-240.25 444.61,-240.25 444.61,-221 548.36,-221 548.36,-240.25"/>
<text text-anchor="middle" x="496.48" y="-226.75" font-family="Helvetica,sans-Serif" font-size="10.00">mimic++/Printer.hpp</text>
</a>
</g>
</g>
<!-- Node2 -->
<g id="Node000002" class="node">
<title>Node2</title>
<g id="a_Node000002"><a xlink:href="../../df/dde/_fwd_8hpp.html" target="_top" xlink:title=" ">
<polygon fill="white" stroke="#666666" points="319.48,-74.5 225.48,-74.5 225.48,-55.25 319.48,-55.25 319.48,-74.5"/>
<text text-anchor="middle" x="272.48" y="-61" font-family="Helvetica,sans-Serif" font-size="10.00">mimic++/Fwd.hpp</text>
</a>
</g>
</g>
<!-- Node1&#45;&gt;Node2 -->
<g id="edge1_Node000001_Node000002" class="edge">
<title>Node1&#45;&gt;Node2</title>
<g id="a_edge1_Node000001_Node000002"><a xlink:title=" ">
<path fill="none" stroke="#63b8ff" d="M444.2,-227.31C332.99,-221.06 79.72,-199.32 38.48,-129.75 34.12,-122.39 33.03,-117.09 38.48,-110.5 60.32,-84.1 151.91,-73.18 213.82,-68.76"/>
<polygon fill="#63b8ff" stroke="#63b8ff" points="213.75,-72.27 223.5,-68.11 213.28,-65.29 213.75,-72.27"/>
</a>
</g>
</g>
<!-- Node3 -->
<g id="Node000003" class="node">
<title>Node3</title>
<g id="a_Node000003"><a xlink:title=" ">
<polygon fill="#e0e0e0" stroke="#999999" points="217.48,-19.25 177.48,-19.25 177.48,0 217.48,0 217.48,-19.25"/>
<text text-anchor="middle" x="197.48" y="-5.75" font-family="Helvetica,sans-Serif" font-size="10.00">string</text>
</a>
</g>
</g>
<!-- Node1&#45;&gt;Node3 -->
<g id="edge31_Node000001_Node000003" class="edge">
<title>Node1&#45;&gt;Node3</title>
<g id="a_edge31_Node000001_Node000003"><a xlink:title=" ">
<path fill="none" stroke="#63b8ff" d="M444.42,-227.38C333.18,-222.17 79.9,-207.91 48.48,-185 0.74,-150.18 -16.87,-101.84 19.48,-55.25 37.33,-32.37 119.89,-19.46 166.04,-13.91"/>
<polygon fill="#63b8ff" stroke="#63b8ff" points="166.16,-17.42 175.7,-12.8 165.36,-10.47 166.16,-17.42"/>
</a>
</g>
</g>
<!-- Node4 -->
<g id="Node000004" class="node">
<title>Node4</title>
<g id="a_Node000004"><a xlink:href="../../d9/dc5/_string_8hpp.html" target="_top" xlink:title=" ">
<polygon fill="white" stroke="#666666" points="323.86,-185 223.11,-185 223.11,-165.75 323.86,-165.75 323.86,-185"/>
<text text-anchor="middle" x="273.48" y="-171.5" font-family="Helvetica,sans-Serif" font-size="10.00">mimic++/String.hpp</text>
</a>
</g>
</g>
<!-- Node1&#45;&gt;Node4 -->
<g id="edge3_Node000001_Node000004" class="edge">
<title>Node1&#45;&gt;Node4</title>
<g id="a_edge3_Node000001_Node000004"><a xlink:title=" ">
<path fill="none" stroke="#63b8ff" d="M458.4,-220.53C420.88,-211.57 363.38,-197.84 322.47,-188.07"/>
<polygon fill="#63b8ff" stroke="#63b8ff" points="323.42,-184.7 312.88,-185.78 321.79,-191.51 323.42,-184.7"/>
</a>
</g>
</g>
<!-- Node5 -->
<g id="Node000005" class="node">
<title>Node5</title>
<g id="a_Node000005"><a xlink:href="../../d4/d2c/_utility_8hpp.html" target="_top" xlink:title=" ">
<polygon fill="white" stroke="#666666" points="401.48,-129.75 301.48,-129.75 301.48,-110.5 401.48,-110.5 401.48,-129.75"/>
<text text-anchor="middle" x="351.48" y="-116.25" font-family="Helvetica,sans-Serif" font-size="10.00">mimic++/Utility.hpp</text>
</a>
</g>
</g>
<!-- Node1&#45;&gt;Node5 -->
<g id="edge24_Node000001_Node000005" class="edge">
<title>Node1&#45;&gt;Node5</title>
<g id="a_edge24_Node000001_Node000005"><a xlink:title=" ">
<path fill="none" stroke="#63b8ff" d="M484.62,-220.75C460.08,-202.39 403.49,-160.04 372.57,-136.91"/>
<polygon fill="#63b8ff" stroke="#63b8ff" points="374.83,-134.22 364.72,-131.03 370.63,-139.83 374.83,-134.22"/>
</a>
</g>
</g>
<!-- Node7 -->
<g id="Node000007" class="node">
<title>Node7</title>
<g id="a_Node000007"><a xlink:title=" ">
<polygon fill="#e0e0e0" stroke="#999999" points="112.61,-74.5 28.36,-74.5 28.36,-55.25 112.61,-55.25 112.61,-74.5"/>
<text text-anchor="middle" x="70.48" y="-61" font-family="Helvetica,sans-Serif" font-size="10.00">source_location</text>
</a>
</g>
</g>
<!-- Node1&#45;&gt;Node7 -->
<g id="edge29_Node000001_Node000007" class="edge">
<title>Node1&#45;&gt;Node7</title>
<g id="a_edge29_Node000001_Node000007"><a xlink:title=" ">
<path fill="none" stroke="#63b8ff" d="M444.2,-228.47C347.48,-225.6 144.78,-215.99 82.48,-185 52.29,-169.98 42.91,-161.1 30.48,-129.75 23.6,-112.39 36.82,-94.53 49.88,-82.13"/>
<polygon fill="#63b8ff" stroke="#63b8ff" points="51.86,-85.04 57.08,-75.82 47.25,-79.78 51.86,-85.04"/>
</a>
</g>
</g>
<!-- Node8 -->
<g id="Node000008" class="node">
<title>Node8</title>
<g id="a_Node000008"><a xlink:title=" ">
<polygon fill="#e0e0e0" stroke="#999999" points="403.23,-74.5 337.73,-74.5 337.73,-55.25 403.23,-55.25 403.23,-74.5"/>
<text text-anchor="middle" x="370.48" y="-61" font-family="Helvetica,sans-Serif" font-size="10.00">string_view</text>
</a>
</g>
</g>
<!-- Node1&#45;&gt;Node8 -->
<g id="edge32_Node000001_Node000008" class="edge">
<title>Node1&#45;&gt;Node8</title>
<g id="a_edge32_Node000001_Node000008"><a xlink:title=" ">
<path fill="none" stroke="#63b8ff" d="M548.62,-223.65C576.02,-217.95 608.23,-206.8 629.48,-185 653.19,-160.68 668.6,-136.28 646.48,-110.5 614.17,-72.83 480.66,-82.47 414.6,-74.46"/>
<polygon fill="#63b8ff" stroke="#63b8ff" points="415.37,-71.03 404.96,-73.03 414.34,-77.96 415.37,-71.03"/>
</a>
</g>
</g>
<!-- Node10 -->
<g id="Node000010" class="node">
<title>Node10</title>
<g id="a_Node000010"><a xlink:title=" ">
<polygon fill="#e0e0e0" stroke="#999999" points="726.73,-74.5 688.23,-74.5 688.23,-55.25 726.73,-55.25 726.73,-74.5"/>
<text text-anchor="middle" x="707.48" y="-61" font-family="Helvetica,sans-Serif" font-size="10.00">utility</text>
</a>
</g>
</g>
<!-- Node1&#45;&gt;Node10 -->
<g id="edge33_Node000001_Node000010" class="edge">
<title>Node1&#45;&gt;Node10</title>
<g id="a_edge33_Node000001_Node000010"><a xlink:title=" ">
<path fill="none" stroke="#63b8ff" d="M548.71,-225.52C581.49,-220.51 622.82,-209.43 651.48,-185 682.11,-158.89 697.1,-112.33 703.47,-85.81"/>
<polygon fill="#63b8ff" stroke="#63b8ff" points="706.82,-86.88 705.56,-76.36 699.99,-85.37 706.82,-86.88"/>
</a>
</g>
</g>
<!-- Node12 -->
<g id="Node000012" class="node">
<title>Node12</title>
<g id="a_Node000012"><a xlink:title=" ">
<polygon fill="#e0e0e0" stroke="#999999" points="105.48,-129.75 47.48,-129.75 47.48,-110.5 105.48,-110.5 105.48,-129.75"/>
<text text-anchor="middle" x="76.48" y="-116.25" font-family="Helvetica,sans-Serif" font-size="10.00">functional</text>
</a>
</g>
</g>
<!-- Node1&#45;&gt;Node12 -->
<g id="edge26_Node000001_Node000012" class="edge">
<title>Node1&#45;&gt;Node12</title>
<g id="a_edge26_Node000001_Node000012"><a xlink:title=" ">
<path fill="none" stroke="#63b8ff" d="M444.31,-228.45C380.94,-225.61 271.59,-216.16 183.48,-185 151.05,-173.53 117.64,-151.67 96.96,-136.75"/>
<polygon fill="#63b8ff" stroke="#63b8ff" points="99.24,-134.08 89.12,-130.96 95.08,-139.71 99.24,-134.08"/>
</a>
</g>
</g>
<!-- Node13 -->
<g id="Node000013" class="node">
<title>Node13</title>
<g id="a_Node000013"><a xlink:title=" ">
<polygon fill="#e0e0e0" stroke="#999999" points="169.11,-129.75 123.86,-129.75 123.86,-110.5 169.11,-110.5 169.11,-129.75"/>
<text text-anchor="middle" x="146.48" y="-116.25" font-family="Helvetica,sans-Serif" font-size="10.00">ranges</text>
</a>
</g>
</g>
<!-- Node1&#45;&gt;Node13 -->
<g id="edge28_Node000001_Node000013" class="edge">
<title>Node1&#45;&gt;Node13</title>
<g id="a_edge28_Node000001_Node000013"><a xlink:title=" ">
<path fill="none" stroke="#63b8ff" d="M444.35,-230.39C385.59,-229.26 288.6,-221.31 214.48,-185 192.29,-174.13 172.39,-153.53 159.94,-138.65"/>
<polygon fill="#63b8ff" stroke="#63b8ff" points="162.82,-136.65 153.83,-131.05 157.37,-141.04 162.82,-136.65"/>
</a>
</g>
</g>
<!-- Node15 -->
<g id="Node000015" class="node">
<title>Node15</title>
<g id="a_Node000015"><a xlink:href="../../d8/d32/_type_traits_8hpp.html" target="_top" xlink:title=" ">
<polygon fill="white" stroke="#666666" points="619.98,-185 498.98,-185 498.98,-165.75 619.98,-165.75 619.98,-185"/>
<text text-anchor="middle" x="559.48" y="-171.5" font-family="Helvetica,sans-Serif" font-size="10.00">mimic++/TypeTraits.hpp</text>
</a>
</g>
</g>
<!-- Node1&#45;&gt;Node15 -->
<g id="edge18_Node000001_Node000015" class="edge">
<title>Node1&#45;&gt;Node15</title>
<g id="a_edge18_Node000001_Node000015"><a xlink:title=" ">
<path fill="none" stroke="#63b8ff" d="M507.17,-220.59C516.18,-212.97 529.31,-201.87 540.16,-192.7"/>
<polygon fill="#63b8ff" stroke="#63b8ff" points="542.42,-195.38 547.8,-186.25 537.9,-190.03 542.42,-195.38"/>
</a>
</g>
</g>
<!-- Node17 -->
<g id="Node000017" class="node">
<title>Node17</title>
<g id="a_Node000017"><a xlink:title=" ">
<polygon fill="#e0e0e0" stroke="#999999" points="836.11,-185 790.86,-185 790.86,-165.75 836.11,-165.75 836.11,-185"/>
<text text-anchor="middle" x="813.48" y="-171.5" font-family="Helvetica,sans-Serif" font-size="10.00">cstdint</text>
</a>
</g>
</g>
<!-- Node1&#45;&gt;Node17 -->
<g id="edge25_Node000001_Node000017" class="edge">
<title>Node1&#45;&gt;Node17</title>
<g id="a_edge25_Node000001_Node000017"><a xlink:title=" ">
<path fill="none" stroke="#63b8ff" d="M548.8,-222.42C605.19,-214.39 697.5,-200.48 776.48,-185 777.47,-184.81 778.48,-184.6 779.49,-184.4"/>
<polygon fill="#63b8ff" stroke="#63b8ff" points="779.94,-187.88 788.96,-182.33 778.45,-181.04 779.94,-187.88"/>
</a>
</g>
</g>
<!-- Node18 -->
<g id="Node000018" class="node">
<title>Node18</title>
<g id="a_Node000018"><a xlink:title=" ">
<polygon fill="#e0e0e0" stroke="#999999" points="900.48,-185 854.48,-185 854.48,-165.75 900.48,-165.75 900.48,-185"/>
<text text-anchor="middle" x="877.48" y="-171.5" font-family="Helvetica,sans-Serif" font-size="10.00">iterator</text>
</a>
</g>
</g>
<!-- Node1&#45;&gt;Node18 -->
<g id="edge27_Node000001_Node000018" class="edge">
<title>Node1&#45;&gt;Node18</title>
<g id="a_edge27_Node000001_Node000018"><a xlink:title=" ">
<path fill="none" stroke="#63b8ff" d="M548.58,-225.2C614.89,-219.07 733.13,-206.49 843.19,-185.21"/>
<polygon fill="#63b8ff" stroke="#63b8ff" points="843.53,-188.71 852.66,-183.35 842.18,-181.84 843.53,-188.71"/>
</a>
</g>
</g>
<!-- Node19 -->
<g id="Node000019" class="node">
<title>Node19</title>
<g id="a_Node000019"><a xlink:title=" ">
<polygon fill="#e0e0e0" stroke="#999999" points="970.11,-185 918.86,-185 918.86,-165.75 970.11,-165.75 970.11,-185"/>
<text text-anchor="middle" x="944.48" y="-171.5" font-family="Helvetica,sans-Serif" font-size="10.00">sstream</text>
</a>
</g>
</g>
<!-- Node1&#45;&gt;Node19 -->
<g id="edge30_Node000001_Node000019" class="edge">
<title>Node1&#45;&gt;Node19</title>
<g id="a_edge30_Node000001_Node000019"><a xlink:title=" ">
<path fill="none" stroke="#63b8ff" d="M548.63,-226.24C625.13,-220.79 772.42,-208.41 907.23,-185.16"/>
<polygon fill="#63b8ff" stroke="#63b8ff" points="907.83,-188.61 917.08,-183.43 906.63,-181.71 907.83,-188.61"/>
</a>
</g>
</g>
<!-- Node20 -->
<g id="Node000020" class="node">
<title>Node20</title>
<g id="a_Node000020"><a xlink:title=" ">
<polygon fill="#e0e0e0" stroke="#999999" points="1032.36,-185 988.61,-185 988.61,-165.75 1032.36,-165.75 1032.36,-185"/>
<text text-anchor="middle" x="1010.48" y="-171.5" font-family="Helvetica,sans-Serif" font-size="10.00">format</text>
</a>
</g>
</g>
<!-- Node1&#45;&gt;Node20 -->
<g id="edge34_Node000001_Node000020" class="edge">
<title>Node1&#45;&gt;Node20</title>
<g id="a_edge34_Node000001_Node000020"><a xlink:title=" ">
<path fill="none" stroke="#63b8ff" d="M548.72,-227.87C635.77,-224.27 816.06,-213.98 977.17,-185.1"/>
<polygon fill="#63b8ff" stroke="#63b8ff" points="977.54,-188.59 986.75,-183.35 976.29,-181.7 977.54,-188.59"/>
</a>
</g>
</g>
<!-- Node2&#45;&gt;Node3 -->
<g id="edge2_Node000002_Node000003" class="edge">
<title>Node2&#45;&gt;Node3</title>
<g id="a_edge2_Node000002_Node000003"><a xlink:title=" ">
<path fill="none" stroke="#63b8ff" d="M259.76,-54.84C248.77,-47.04 232.64,-35.59 219.55,-26.29"/>
<polygon fill="#63b8ff" stroke="#63b8ff" points="221.68,-23.51 211.5,-20.58 217.63,-29.22 221.68,-23.51"/>
</a>
</g>
</g>
<!-- Node4&#45;&gt;Node2 -->
<g id="edge4_Node000004_Node000002" class="edge">
<title>Node4&#45;&gt;Node2</title>
<g id="a_edge4_Node000004_Node000002"><a xlink:title=" ">
<path fill="none" stroke="#63b8ff" d="M269.75,-165.34C266.3,-156.46 261.42,-142.43 259.48,-129.75 257.2,-114.83 260.82,-98.12 264.82,-85.53"/>
<polygon fill="#63b8ff" stroke="#63b8ff" points="268.03,-86.94 268.08,-76.35 261.43,-84.6 268.03,-86.94"/>
</a>
</g>
</g>
<!-- Node4&#45;&gt;Node3 -->
<g id="edge15_Node000004_Node000003" class="edge">
<title>Node4&#45;&gt;Node3</title>
<g id="a_edge15_Node000004_Node000003"><a xlink:title=" ">
<path fill="none" stroke="#63b8ff" d="M267.4,-165.38C256.08,-148.3 231.55,-109.75 216.48,-74.5 210.35,-60.15 205.4,-43.19 202.1,-30.35"/>
<polygon fill="#63b8ff" stroke="#63b8ff" points="205.59,-29.88 199.81,-21 198.79,-31.54 205.59,-29.88"/>
</a>
</g>
</g>
<!-- Node4&#45;&gt;Node5 -->
<g id="edge5_Node000004_Node000005" class="edge">
<title>Node4&#45;&gt;Node5</title>
<g id="a_edge5_Node000004_Node000005"><a xlink:title=" ">
<path fill="none" stroke="#63b8ff" d="M286.71,-165.34C298.26,-157.46 315.25,-145.86 328.93,-136.52"/>
<polygon fill="#63b8ff" stroke="#63b8ff" points="330.65,-139.58 336.94,-131.06 326.7,-133.8 330.65,-139.58"/>
</a>
</g>
</g>
<!-- Node4&#45;&gt;Node8 -->
<g id="edge16_Node000004_Node000008" class="edge">
<title>Node4&#45;&gt;Node8</title>
<g id="a_edge16_Node000004_Node000008"><a xlink:title=" ">
<path fill="none" stroke="#63b8ff" d="M274.05,-165.59C275.32,-152.33 279.4,-127 292.48,-110.5 303.16,-97.02 319.11,-86.87 333.81,-79.69"/>
<polygon fill="#63b8ff" stroke="#63b8ff" points="335.15,-82.92 342.82,-75.6 332.26,-76.55 335.15,-82.92"/>
</a>
</g>
</g>
<!-- Node11 -->
<g id="Node000011" class="node">
<title>Node11</title>
<g id="a_Node000011"><a xlink:title=" ">
<polygon fill="#e0e0e0" stroke="#999999" points="475.36,-129.75 419.61,-129.75 419.61,-110.5 475.36,-110.5 475.36,-129.75"/>
<text text-anchor="middle" x="447.48" y="-116.25" font-family="Helvetica,sans-Serif" font-size="10.00">concepts</text>
</a>
</g>
</g>
<!-- Node4&#45;&gt;Node11 -->
<g id="edge12_Node000004_Node000011" class="edge">
<title>Node4&#45;&gt;Node11</title>
<g id="a_edge12_Node000004_Node000011"><a xlink:title=" ">
<path fill="none" stroke="#63b8ff" d="M303,-165.34C332.05,-156.45 376.59,-142.82 408.54,-133.04"/>
<polygon fill="#63b8ff" stroke="#63b8ff" points="409.28,-136.48 417.82,-130.2 407.23,-129.78 409.28,-136.48"/>
</a>
</g>
</g>
<!-- Node4&#45;&gt;Node12 -->
<g id="edge13_Node000004_Node000012" class="edge">
<title>Node4&#45;&gt;Node12</title>
<g id="a_edge13_Node000004_Node000012"><a xlink:title=" ">
<path fill="none" stroke="#63b8ff" d="M240.06,-165.34C205.94,-156.12 152.96,-141.8 116.59,-131.97"/>
<polygon fill="#63b8ff" stroke="#63b8ff" points="117.9,-128.7 107.34,-129.47 116.08,-135.45 117.9,-128.7"/>
</a>
</g>
</g>
<!-- Node4&#45;&gt;Node13 -->
<g id="edge14_Node000004_Node000013" class="edge">
<title>Node4&#45;&gt;Node13</title>
<g id="a_edge14_Node000004_Node000013"><a xlink:title=" ">
<path fill="none" stroke="#63b8ff" d="M251.94,-165.34C231.87,-156.93 201.68,-144.27 178.74,-134.65"/>
<polygon fill="#63b8ff" stroke="#63b8ff" points="180.1,-131.43 169.53,-130.79 177.4,-137.88 180.1,-131.43"/>
</a>
</g>
</g>
<!-- Node14 -->
<g id="Node000014" class="node">
<title>Node14</title>
<g id="a_Node000014"><a xlink:title=" ">
<polygon fill="#e0e0e0" stroke="#999999" points="553.98,-129.75 492.98,-129.75 492.98,-110.5 553.98,-110.5 553.98,-129.75"/>
<text text-anchor="middle" x="523.48" y="-116.25" font-family="Helvetica,sans-Serif" font-size="10.00">type_traits</text>
</a>
</g>
</g>
<!-- Node4&#45;&gt;Node14 -->
<g id="edge17_Node000004_Node000014" class="edge">
<title>Node4&#45;&gt;Node14</title>
<g id="a_edge17_Node000004_Node000014"><a xlink:title=" ">
<path fill="none" stroke="#63b8ff" d="M317.15,-165.26C357.42,-156.83 419.17,-143.83 481.59,-130.36"/>
<polygon fill="#63b8ff" stroke="#63b8ff" points="482.32,-133.79 491.35,-128.25 480.84,-126.94 482.32,-133.79"/>
</a>
</g>
</g>
<!-- Node5&#45;&gt;Node2 -->
<g id="edge6_Node000005_Node000002" class="edge">
<title>Node5&#45;&gt;Node2</title>
<g id="a_edge6_Node000005_Node000002"><a xlink:title=" ">
<path fill="none" stroke="#63b8ff" d="M338.08,-110.09C326.39,-102.21 309.18,-90.61 295.32,-81.27"/>
<polygon fill="#63b8ff" stroke="#63b8ff" points="297.45,-78.49 287.2,-75.8 293.54,-84.29 297.45,-78.49"/>
</a>
</g>
</g>
<!-- Node6 -->
<g id="Node000006" class="node">
<title>Node6</title>
<g id="a_Node000006"><a xlink:title=" ">
<polygon fill="#e0e0e0" stroke="#999999" points="469.61,-74.5 421.36,-74.5 421.36,-55.25 469.61,-55.25 469.61,-74.5"/>
<text text-anchor="middle" x="445.48" y="-61" font-family="Helvetica,sans-Serif" font-size="10.00">cassert</text>
</a>
</g>
</g>
<!-- Node5&#45;&gt;Node6 -->
<g id="edge7_Node000005_Node000006" class="edge">
<title>Node5&#45;&gt;Node6</title>
<g id="a_edge7_Node000005_Node000006"><a xlink:title=" ">
<path fill="none" stroke="#63b8ff" d="M367.43,-110.09C381.74,-101.98 403.01,-89.93 419.74,-80.46"/>
<polygon fill="#63b8ff" stroke="#63b8ff" points="421.17,-83.67 428.14,-75.7 417.71,-77.58 421.17,-83.67"/>
</a>
</g>
</g>
<!-- Node5&#45;&gt;Node7 -->
<g id="edge8_Node000005_Node000007" class="edge">
<title>Node5&#45;&gt;Node7</title>
<g id="a_edge8_Node000005_Node000007"><a xlink:title=" ">
<path fill="none" stroke="#63b8ff" d="M303.5,-110.03C253.66,-100.59 175.86,-85.84 124.04,-76.03"/>
<polygon fill="#63b8ff" stroke="#63b8ff" points="124.72,-72.59 114.25,-74.17 123.42,-79.47 124.72,-72.59"/>
</a>
</g>
</g>
<!-- Node5&#45;&gt;Node8 -->
<g id="edge9_Node000005_Node000008" class="edge">
<title>Node5&#45;&gt;Node8</title>
<g id="a_edge9_Node000005_Node000008"><a xlink:title=" ">
<path fill="none" stroke="#63b8ff" d="M354.62,-110.33C357.03,-103.59 360.44,-94.02 363.48,-85.49"/>
<polygon fill="#63b8ff" stroke="#63b8ff" points="366.7,-86.88 366.77,-76.28 360.11,-84.53 366.7,-86.88"/>
</a>
</g>
</g>
<!-- Node9 -->
<g id="Node000009" class="node">
<title>Node9</title>
<g id="a_Node000009"><a xlink:title=" ">
<polygon fill="#e0e0e0" stroke="#999999" points="614.98,-74.5 577.98,-74.5 577.98,-55.25 614.98,-55.25 614.98,-74.5"/>
<text text-anchor="middle" x="596.48" y="-61" font-family="Helvetica,sans-Serif" font-size="10.00">tuple</text>
</a>
</g>
</g>
<!-- Node5&#45;&gt;Node9 -->
<g id="edge10_Node000005_Node000009" class="edge">
<title>Node5&#45;&gt;Node9</title>
<g id="a_edge10_Node000005_Node000009"><a xlink:title=" ">
<path fill="none" stroke="#63b8ff" d="M393.32,-110.03C442.54,-99.33 523.04,-81.84 566.46,-72.4"/>
<polygon fill="#63b8ff" stroke="#63b8ff" points="567.16,-75.83 576.18,-70.29 565.67,-68.99 567.16,-75.83"/>
</a>
</g>
</g>
<!-- Node5&#45;&gt;Node10 -->
<g id="edge11_Node000005_Node000010" class="edge">
<title>Node5&#45;&gt;Node10</title>
<g id="a_edge11_Node000005_Node000010"><a xlink:title=" ">
<path fill="none" stroke="#63b8ff" d="M401.73,-111.61C476.66,-100.4 615.42,-79.65 676.85,-70.46"/>
<polygon fill="#63b8ff" stroke="#63b8ff" points="677.2,-73.94 686.57,-69 676.16,-67.02 677.2,-73.94"/>
</a>
</g>
</g>
<!-- Node15&#45;&gt;Node2 -->
<g id="edge19_Node000015_Node000002" class="edge">
<title>Node15&#45;&gt;Node2</title>
<g id="a_edge19_Node000015_Node000002"><a xlink:title=" ">
<path fill="none" stroke="#63b8ff" d="M582.74,-165.3C609.77,-153.47 648.37,-131.79 629.48,-110.5 586.86,-62.48 412.68,-81.59 331.15,-74.52"/>
<polygon fill="#63b8ff" stroke="#63b8ff" points="331.65,-71.06 321.33,-73.45 330.89,-78.02 331.65,-71.06"/>
</a>
</g>
</g>
<!-- Node15&#45;&gt;Node9 -->
<g id="edge22_Node000015_Node000009" class="edge">
<title>Node15&#45;&gt;Node9</title>
<g id="a_edge22_Node000015_Node000009"><a xlink:title=" ">
<path fill="none" stroke="#63b8ff" d="M608.95,-165.31C629.1,-158.91 650.45,-148.08 662.48,-129.75 675.99,-109.17 649.21,-90.19 625.82,-78.36"/>
<polygon fill="#63b8ff" stroke="#63b8ff" points="627.37,-75.22 616.84,-74.09 624.37,-81.54 627.37,-75.22"/>
</a>
</g>
</g>
<!-- Node15&#45;&gt;Node11 -->
<g id="edge20_Node000015_Node000011" class="edge">
<title>Node15&#45;&gt;Node11</title>
<g id="a_edge20_Node000015_Node000011"><a xlink:title=" ">
<path fill="none" stroke="#63b8ff" d="M540.48,-165.34C523.02,-157.04 496.88,-144.61 476.76,-135.04"/>
<polygon fill="#63b8ff" stroke="#63b8ff" points="478.48,-131.99 467.94,-130.85 475.47,-138.31 478.48,-131.99"/>
</a>
</g>
</g>
<!-- Node15&#45;&gt;Node14 -->
<g id="edge23_Node000015_Node000014" class="edge">
<title>Node15&#45;&gt;Node14</title>
<g id="a_edge23_Node000015_Node000014"><a xlink:title=" ">
<path fill="none" stroke="#63b8ff" d="M553.54,-165.58C548.77,-158.53 541.92,-148.4 535.96,-139.58"/>
<polygon fill="#63b8ff" stroke="#63b8ff" points="538.9,-137.69 530.4,-131.36 533.1,-141.61 538.9,-137.69"/>
</a>
</g>
</g>
<!-- Node16 -->
<g id="Node000016" class="node">
<title>Node16</title>
<g id="a_Node000016"><a xlink:title=" ">
<polygon fill="#e0e0e0" stroke="#999999" points="620.61,-129.75 572.36,-129.75 572.36,-110.5 620.61,-110.5 620.61,-129.75"/>
<text text-anchor="middle" x="596.48" y="-116.25" font-family="Helvetica,sans-Serif" font-size="10.00">cstddef</text>
</a>
</g>
</g>
<!-- Node15&#45;&gt;Node16 -->
<g id="edge21_Node000015_Node000016" class="edge">
<title>Node15&#45;&gt;Node16</title>
<g id="a_edge21_Node000015_Node000016"><a xlink:title=" ">
<path fill="none" stroke="#63b8ff" d="M565.59,-165.58C570.54,-158.46 577.69,-148.18 583.86,-139.3"/>
<polygon fill="#63b8ff" stroke="#63b8ff" points="586.54,-141.56 589.38,-131.35 580.8,-137.57 586.54,-141.56"/>
</a>
</g>
</g>
</g>
</svg>

<g id="navigator" transform="translate(0 0)" fill="#404254">
  <rect fill="#f2f5e9" fill-opacity="0.5" stroke="#606060" stroke-width=".5" x="0" y="0" width="60" height="60"/>
  <use id="zoomplus" xlink:href="#zoomPlus" x="17" y="9" onmousedown="handleZoom(evt,'in')"/>
  <use id="zoomminus" xlink:href="#zoomMin" x="42" y="9" onmousedown="handleZoom(evt,'out')"/>
  <use id="reset" xlink:href="#resetDef" x="30" y="36" onmousedown="handleReset()"/>
   <use id="arrowup" xlink:href="#arrowUp" x="0" y="0" onmousedown="handlePan(0,-1)"/>
  <use id="arrowright" xlink:href="#arrowRight" x="0" y="0" onmousedown="handlePan(1,0)"/>
  <use id="arrowdown" xlink:href="#arrowDown" x="0" y="0" onmousedown="handlePan(0,1)"/>
  <use id="arrowleft" xlink:href="#arrowLeft" x="0" y="0" onmousedown="handlePan(-1,0)"/>
</g>
<svg viewBox="0 0 15 15" width="100%" height="30px" preserveAspectRatio="xMaxYMin meet">
 <g id="arrow_out" transform="scale(0.3 0.3)">
  <a xlink:href="_printer_8hpp__incl_org.svg" target="_base">
   <rect id="button" ry="5" rx="5" y="6" x="6" height="38" width="38"
        fill="#f2f5e9" fill-opacity="0.5" stroke="#606060" stroke-width="1.0"/>
   <path id="arrow"
     d="M 11.500037,31.436501 C 11.940474,20.09759 22.043105,11.32322 32.158766,21.979434 L 37.068811,17.246167 C 37.068811,17.246167 37.088388,32 37.088388,32 L 22.160133,31.978069 C 22.160133,31.978069 26.997745,27.140456 26.997745,27.140456 C 18.528582,18.264221 13.291696,25.230495 11.500037,31.436501 z"
     style="fill:#404040;"/>
  </a>
 </g>
</svg>

<style type='text/css'>
<![CDATA[
[data-mouse-over-selected='false'] { opacity: 0.7; }
[data-mouse-over-selected='true']  { opacity: 1.0; }
]]>
</style>
<script type="application/ecmascript"><![CDATA[
document.addEventListener('DOMContentLoaded', (event) => {
  highlightEdges();
  highlightAdjacentNodes();
});
]]></script>
</svg>
