<?xml version="1.0" encoding="UTF-8" standalone="no"?>
<!DOCTYPE svg PUBLIC "-//W3C//DTD SVG 1.1//EN"
 "http://www.w3.org/Graphics/SVG/1.1/DTD/svg11.dtd">
<!-- Generated by graphviz version 12.1.2 (20240928.0832)
 -->
<!-- Title: mimic++/Printer.hpp Pages: 1 -->
<svg width="650pt" height="193pt"
 viewBox="0.00 0.00 649.88 193.00" xmlns="http://www.w3.org/2000/svg" xmlns:xlink="http://www.w3.org/1999/xlink">
<g id="graph0" class="graph" transform="scale(1 1) rotate(0) translate(4 189)">
<title>mimic++/Printer.hpp</title>
<!-- Node1 -->
<g id="Node000001" class="node">
<title>Node1</title>
<g id="a_Node000001"><a xlink:title=" ">
<polygon fill="#999999" stroke="#666666" points="356.88,-185 253.12,-185 253.12,-165.75 356.88,-165.75 356.88,-185"/>
<text text-anchor="middle" x="305" y="-171.5" font-family="Helvetica,sans-Serif" font-size="10.00">mimic++/Printer.hpp</text>
</a>
</g>
</g>
<!-- Node2 -->
<g id="Node000002" class="node">
<title>Node2</title>
<g id="a_Node000002"><a xlink:href="../../df/dde/_fwd_8hpp.html" target="_top" xlink:title=" ">
<polygon fill="white" stroke="#666666" points="73.38,-74.5 20.62,-74.5 20.62,-55.25 73.38,-55.25 73.38,-74.5"/>
<text text-anchor="middle" x="47" y="-61" font-family="Helvetica,sans-Serif" font-size="10.00">Fwd.hpp</text>
</a>
</g>
</g>
<!-- Node1&#45;&gt;Node2 -->
<g id="edge1_Node000001_Node000002" class="edge">
<title>Node1&#45;&gt;Node2</title>
<g id="a_edge1_Node000001_Node000002"><a xlink:title=" ">
<path fill="none" stroke="#63b8ff" d="M257.5,-165.3C224.7,-158.06 180.58,-146.36 144,-129.75 115.68,-116.89 86.26,-96.33 67.36,-82.02"/>
<polygon fill="#63b8ff" stroke="#63b8ff" points="69.51,-79.26 59.45,-75.92 65.23,-84.8 69.51,-79.26"/>
</a>
</g>
</g>
<!-- Node3 -->
<g id="Node000003" class="node">
<title>Node3</title>
<g id="a_Node000003"><a xlink:title=" ">
<polygon fill="#e0e0e0" stroke="#999999" points="40,-19.25 0,-19.25 0,0 40,0 40,-19.25"/>
<text text-anchor="middle" x="20" y="-5.75" font-family="Helvetica,sans-Serif" font-size="10.00">string</text>
</a>
</g>
</g>
<!-- Node1&#45;&gt;Node3 -->
<g id="edge13_Node000001_Node000003" class="edge">
<title>Node1&#45;&gt;Node3</title>
<g id="a_edge13_Node000001_Node000003"><a xlink:title=" ">
<path fill="none" stroke="#63b8ff" d="M252.98,-167.25C212.05,-160.58 154.08,-148.73 106,-129.75 60.93,-111.96 36.07,-116.56 12,-74.5 4.27,-61 7.32,-43.29 11.7,-29.94"/>
<polygon fill="#63b8ff" stroke="#63b8ff" points="14.83,-31.56 15.12,-20.97 8.29,-29.07 14.83,-31.56"/>
</a>
</g>
</g>
<!-- Node4 -->
<g id="Node000004" class="node">
<title>Node4</title>
<g id="a_Node000004"><a xlink:href="../../d4/d2c/_utility_8hpp.html" target="_top" xlink:title=" ">
<polygon fill="white" stroke="#666666" points="211.38,-129.75 152.62,-129.75 152.62,-110.5 211.38,-110.5 211.38,-129.75"/>
<text text-anchor="middle" x="182" y="-116.25" font-family="Helvetica,sans-Serif" font-size="10.00">Utility.hpp</text>
</a>
</g>
</g>
<!-- Node1&#45;&gt;Node4 -->
<g id="edge3_Node000001_Node000004" class="edge">
<title>Node1&#45;&gt;Node4</title>
<g id="a_edge3_Node000001_Node000004"><a xlink:title=" ">
<path fill="none" stroke="#63b8ff" d="M284.13,-165.34C264.7,-156.93 235.46,-144.27 213.24,-134.65"/>
<polygon fill="#63b8ff" stroke="#63b8ff" points="214.92,-131.56 204.36,-130.8 212.14,-137.99 214.92,-131.56"/>
</a>
</g>
</g>
<!-- Node7 -->
<g id="Node000007" class="node">
<title>Node7</title>
<g id="a_Node000007"><a xlink:title=" ">
<polygon fill="#e0e0e0" stroke="#999999" points="308.12,-74.5 223.88,-74.5 223.88,-55.25 308.12,-55.25 308.12,-74.5"/>
<text text-anchor="middle" x="266" y="-61" font-family="Helvetica,sans-Serif" font-size="10.00">source_location</text>
</a>
</g>
</g>
<!-- Node1&#45;&gt;Node7 -->
<g id="edge11_Node000001_Node000007" class="edge">
<title>Node1&#45;&gt;Node7</title>
<g id="a_edge11_Node000001_Node000007"><a xlink:title=" ">
<path fill="none" stroke="#63b8ff" d="M292.39,-165.39C282.29,-157.36 268.88,-144.58 263,-129.75 257.48,-115.83 258.61,-98.84 260.91,-85.89"/>
<polygon fill="#63b8ff" stroke="#63b8ff" points="264.27,-86.93 262.98,-76.41 257.43,-85.44 264.27,-86.93"/>
</a>
</g>
</g>
<!-- Node8 -->
<g id="Node000008" class="node">
<title>Node8</title>
<g id="a_Node000008"><a xlink:title=" ">
<polygon fill="#e0e0e0" stroke="#999999" points="364.25,-74.5 325.75,-74.5 325.75,-55.25 364.25,-55.25 364.25,-74.5"/>
<text text-anchor="middle" x="345" y="-61" font-family="Helvetica,sans-Serif" font-size="10.00">utility</text>
</a>
</g>
</g>
<!-- Node1&#45;&gt;Node8 -->
<g id="edge15_Node000001_Node000008" class="edge">
<title>Node1&#45;&gt;Node8</title>
<g id="a_edge15_Node000001_Node000008"><a xlink:title=" ">
<path fill="none" stroke="#63b8ff" d="M300.76,-165.28C295.44,-152.49 287.94,-128.73 296,-110.5 301.16,-98.82 311.06,-88.88 320.62,-81.36"/>
<polygon fill="#63b8ff" stroke="#63b8ff" points="322.58,-84.26 328.64,-75.57 318.49,-78.58 322.58,-84.26"/>
</a>
</g>
</g>
<!-- Node9 -->
<g id="Node000009" class="node">
<title>Node9</title>
<g id="a_Node000009"><a xlink:title=" ">
<polygon fill="#e0e0e0" stroke="#999999" points="363,-129.75 305,-129.75 305,-110.5 363,-110.5 363,-129.75"/>
<text text-anchor="middle" x="334" y="-116.25" font-family="Helvetica,sans-Serif" font-size="10.00">functional</text>
</a>
</g>
</g>
<!-- Node1&#45;&gt;Node9 -->
<g id="edge9_Node000001_Node000009" class="edge">
<title>Node1&#45;&gt;Node9</title>
<g id="a_edge9_Node000001_Node000009"><a xlink:title=" ">
<path fill="none" stroke="#63b8ff" d="M309.79,-165.58C313.54,-158.69 318.91,-148.84 323.63,-140.16"/>
<polygon fill="#63b8ff" stroke="#63b8ff" points="326.67,-141.89 328.38,-131.44 320.53,-138.55 326.67,-141.89"/>
</a>
</g>
</g>
<!-- Node10 -->
<g id="Node000010" class="node">
<title>Node10</title>
<g id="a_Node000010"><a xlink:title=" ">
<polygon fill="#e0e0e0" stroke="#999999" points="427,-129.75 381,-129.75 381,-110.5 427,-110.5 427,-129.75"/>
<text text-anchor="middle" x="404" y="-116.25" font-family="Helvetica,sans-Serif" font-size="10.00">iterator</text>
</a>
</g>
</g>
<!-- Node1&#45;&gt;Node10 -->
<g id="edge10_Node000001_Node000010" class="edge">
<title>Node1&#45;&gt;Node10</title>
<g id="a_edge10_Node000001_Node000010"><a xlink:title=" ">
<path fill="none" stroke="#63b8ff" d="M321.79,-165.34C337.01,-157.16 359.7,-144.96 377.38,-135.44"/>
<polygon fill="#63b8ff" stroke="#63b8ff" points="378.64,-138.74 385.79,-130.92 375.33,-132.57 378.64,-138.74"/>
</a>
</g>
</g>
<!-- Node11 -->
<g id="Node000011" class="node">
<title>Node11</title>
<g id="a_Node000011"><a xlink:title=" ">
<polygon fill="#e0e0e0" stroke="#999999" points="496.62,-129.75 445.38,-129.75 445.38,-110.5 496.62,-110.5 496.62,-129.75"/>
<text text-anchor="middle" x="471" y="-116.25" font-family="Helvetica,sans-Serif" font-size="10.00">sstream</text>
</a>
</g>
</g>
<!-- Node1&#45;&gt;Node11 -->
<g id="edge12_Node000001_Node000011" class="edge">
<title>Node1&#45;&gt;Node11</title>
<g id="a_edge12_Node000001_Node000011"><a xlink:title=" ">
<path fill="none" stroke="#63b8ff" d="M333.16,-165.34C361.01,-156.41 403.76,-142.7 434.26,-132.91"/>
<polygon fill="#63b8ff" stroke="#63b8ff" points="435,-136.35 443.45,-129.96 432.86,-129.68 435,-136.35"/>
</a>
</g>
</g>
<!-- Node12 -->
<g id="Node000012" class="node">
<title>Node12</title>
<g id="a_Node000012"><a xlink:title=" ">
<polygon fill="#e0e0e0" stroke="#999999" points="579.75,-129.75 514.25,-129.75 514.25,-110.5 579.75,-110.5 579.75,-129.75"/>
<text text-anchor="middle" x="547" y="-116.25" font-family="Helvetica,sans-Serif" font-size="10.00">string_view</text>
</a>
</g>
</g>
<!-- Node1&#45;&gt;Node12 -->
<g id="edge14_Node000001_Node000012" class="edge">
<title>Node1&#45;&gt;Node12</title>
<g id="a_edge14_Node000001_Node000012"><a xlink:title=" ">
<path fill="none" stroke="#63b8ff" d="M346.33,-165.28C389.92,-155.69 458.34,-140.63 502.93,-130.82"/>
<polygon fill="#63b8ff" stroke="#63b8ff" points="503.51,-134.28 512.53,-128.71 502.01,-127.44 503.51,-134.28"/>
</a>
</g>
</g>
<!-- Node13 -->
<g id="Node000013" class="node">
<title>Node13</title>
<g id="a_Node000013"><a xlink:title=" ">
<polygon fill="#e0e0e0" stroke="#999999" points="641.88,-129.75 598.12,-129.75 598.12,-110.5 641.88,-110.5 641.88,-129.75"/>
<text text-anchor="middle" x="620" y="-116.25" font-family="Helvetica,sans-Serif" font-size="10.00">format</text>
</a>
</g>
</g>
<!-- Node1&#45;&gt;Node13 -->
<g id="edge16_Node000001_Node000013" class="edge">
<title>Node1&#45;&gt;Node13</title>
<g id="a_edge16_Node000001_Node000013"><a xlink:title=" ">
<path fill="none" stroke="#63b8ff" d="M357.16,-168.02C411.97,-160.93 500.9,-148.27 586.49,-130.08"/>
<polygon fill="#63b8ff" stroke="#63b8ff" points="587.21,-133.5 596.25,-127.97 585.73,-126.66 587.21,-133.5"/>
</a>
</g>
</g>
<!-- Node2&#45;&gt;Node3 -->
<g id="edge2_Node000002_Node000003" class="edge">
<title>Node2&#45;&gt;Node3</title>
<g id="a_edge2_Node000002_Node000003"><a xlink:title=" ">
<path fill="none" stroke="#63b8ff" d="M42.54,-55.08C39.05,-48.19 34.05,-38.34 29.65,-29.66"/>
<polygon fill="#63b8ff" stroke="#63b8ff" points="32.88,-28.3 25.24,-20.96 26.64,-31.46 32.88,-28.3"/>
</a>
</g>
</g>
<!-- Node4&#45;&gt;Node2 -->
<g id="edge4_Node000004_Node000002" class="edge">
<title>Node4&#45;&gt;Node2</title>
<g id="a_edge4_Node000004_Node000002"><a xlink:title=" ">
<path fill="none" stroke="#63b8ff" d="M159.1,-110.09C137.57,-101.6 105.09,-88.79 80.62,-79.14"/>
<polygon fill="#63b8ff" stroke="#63b8ff" points="82.01,-75.92 71.42,-75.51 79.44,-82.43 82.01,-75.92"/>
</a>
</g>
</g>
<!-- Node5 -->
<g id="Node000005" class="node">
<title>Node5</title>
<g id="a_Node000005"><a xlink:title=" ">
<polygon fill="#e0e0e0" stroke="#999999" points="140.12,-74.5 91.88,-74.5 91.88,-55.25 140.12,-55.25 140.12,-74.5"/>
<text text-anchor="middle" x="116" y="-61" font-family="Helvetica,sans-Serif" font-size="10.00">cassert</text>
</a>
</g>
</g>
<!-- Node4&#45;&gt;Node5 -->
<g id="edge5_Node000004_Node000005" class="edge">
<title>Node4&#45;&gt;Node5</title>
<g id="a_edge5_Node000004_Node000005"><a xlink:title=" ">
<path fill="none" stroke="#63b8ff" d="M170.8,-110.09C161.26,-102.4 147.33,-91.15 135.89,-81.93"/>
<polygon fill="#63b8ff" stroke="#63b8ff" points="138.19,-79.28 128.21,-75.73 133.79,-84.73 138.19,-79.28"/>
</a>
</g>
</g>
<!-- Node6 -->
<g id="Node000006" class="node">
<title>Node6</title>
<g id="a_Node000006"><a xlink:title=" ">
<polygon fill="#e0e0e0" stroke="#999999" points="206.12,-74.5 157.88,-74.5 157.88,-55.25 206.12,-55.25 206.12,-74.5"/>
<text text-anchor="middle" x="182" y="-61" font-family="Helvetica,sans-Serif" font-size="10.00">cstddef</text>
</a>
</g>
</g>
<!-- Node4&#45;&gt;Node6 -->
<g id="edge6_Node000004_Node000006" class="edge">
<title>Node4&#45;&gt;Node6</title>
<g id="a_edge6_Node000004_Node000006"><a xlink:title=" ">
<path fill="none" stroke="#63b8ff" d="M182,-110.33C182,-103.82 182,-94.67 182,-86.37"/>
<polygon fill="#63b8ff" stroke="#63b8ff" points="185.5,-86.37 182,-76.37 178.5,-86.37 185.5,-86.37"/>
</a>
</g>
</g>
<!-- Node4&#45;&gt;Node7 -->
<g id="edge7_Node000004_Node000007" class="edge">
<title>Node4&#45;&gt;Node7</title>
<g id="a_edge7_Node000004_Node000007"><a xlink:title=" ">
<path fill="none" stroke="#63b8ff" d="M196.25,-110.09C208.8,-102.14 227.33,-90.39 242.14,-81"/>
<polygon fill="#63b8ff" stroke="#63b8ff" points="243.83,-84.07 250.4,-75.76 240.08,-78.16 243.83,-84.07"/>
</a>
</g>
</g>
<!-- Node4&#45;&gt;Node8 -->
<g id="edge8_Node000004_Node000008" class="edge">
<title>Node4&#45;&gt;Node8</title>
<g id="a_edge8_Node000004_Node000008"><a xlink:title=" ">
<path fill="none" stroke="#63b8ff" d="M209.65,-110.09C238.81,-100.57 284.6,-85.61 314.72,-75.77"/>
<polygon fill="#63b8ff" stroke="#63b8ff" points="315.56,-79.17 323.98,-72.74 313.39,-72.52 315.56,-79.17"/>
</a>
</g>
</g>
</g>
</svg>
