<?xml version="1.0" encoding="UTF-8" standalone="no"?>
<!DOCTYPE svg PUBLIC "-//W3C//DTD SVG 1.1//EN"
 "http://www.w3.org/Graphics/SVG/1.1/DTD/svg11.dtd">
<!-- Generated by graphviz version 12.1.2 (20240928.0832)
 -->
<!-- Title: mimic++/Printer.hpp Pages: 1 -->
<svg width="611pt" height="138pt"
 viewBox="0.00 0.00 611.25 137.75" xmlns="http://www.w3.org/2000/svg" xmlns:xlink="http://www.w3.org/1999/xlink">
<g id="graph0" class="graph" transform="scale(1 1) rotate(0) translate(4 133.75)">
<title>mimic++/Printer.hpp</title>
<!-- Node1 -->
<g id="Node000001" class="node">
<title>Node1</title>
<g id="a_Node000001"><a xlink:title=" ">
<polygon fill="#999999" stroke="#666666" points="342.25,-129.75 238.5,-129.75 238.5,-110.5 342.25,-110.5 342.25,-129.75"/>
<text text-anchor="middle" x="290.38" y="-116.25" font-family="Helvetica,sans-Serif" font-size="10.00">mimic++/Printer.hpp</text>
</a>
</g>
</g>
<!-- Node2 -->
<g id="Node000002" class="node">
<title>Node2</title>
<g id="a_Node000002"><a xlink:href="../../df/dde/_fwd_8hpp.html" target="_top" xlink:title=" ">
<polygon fill="white" stroke="#666666" points="52.75,-74.5 0,-74.5 0,-55.25 52.75,-55.25 52.75,-74.5"/>
<text text-anchor="middle" x="26.38" y="-61" font-family="Helvetica,sans-Serif" font-size="10.00">Fwd.hpp</text>
</a>
</g>
</g>
<!-- Node1&#45;&gt;Node2 -->
<g id="edge1_Node000001_Node000002" class="edge">
<title>Node1&#45;&gt;Node2</title>
<g id="a_edge1_Node000001_Node000002"><a xlink:title=" ">
<path fill="none" stroke="#63b8ff" d="M243.57,-110.02C198.22,-101.15 127.53,-87.18 66.38,-74.5 65.57,-74.33 64.75,-74.16 63.92,-73.99"/>
<polygon fill="#63b8ff" stroke="#63b8ff" points="65.03,-70.65 54.52,-72 63.58,-77.49 65.03,-70.65"/>
</a>
</g>
</g>
<!-- Node3 -->
<g id="Node000003" class="node">
<title>Node3</title>
<g id="a_Node000003"><a xlink:title=" ">
<polygon fill="#e0e0e0" stroke="#999999" points="73.38,-19.25 33.38,-19.25 33.38,0 73.38,0 73.38,-19.25"/>
<text text-anchor="middle" x="53.38" y="-5.75" font-family="Helvetica,sans-Serif" font-size="10.00">string</text>
</a>
</g>
</g>
<!-- Node1&#45;&gt;Node3 -->
<g id="edge7_Node000001_Node000003" class="edge">
<title>Node1&#45;&gt;Node3</title>
<g id="a_edge7_Node000001_Node000003"><a xlink:title=" ">
<path fill="none" stroke="#63b8ff" d="M238.22,-116.81C197.43,-112.79 140.88,-102.18 99.38,-74.5 82.7,-63.38 70.04,-44.05 62.26,-29.55"/>
<polygon fill="#63b8ff" stroke="#63b8ff" points="65.57,-28.35 57.96,-20.98 59.32,-31.49 65.57,-28.35"/>
</a>
</g>
</g>
<!-- Node4 -->
<g id="Node000004" class="node">
<title>Node4</title>
<g id="a_Node000004"><a xlink:title=" ">
<polygon fill="#e0e0e0" stroke="#999999" points="166.38,-74.5 108.38,-74.5 108.38,-55.25 166.38,-55.25 166.38,-74.5"/>
<text text-anchor="middle" x="137.38" y="-61" font-family="Helvetica,sans-Serif" font-size="10.00">functional</text>
</a>
</g>
</g>
<!-- Node1&#45;&gt;Node4 -->
<g id="edge3_Node000001_Node000004" class="edge">
<title>Node1&#45;&gt;Node4</title>
<g id="a_edge3_Node000001_Node000004"><a xlink:title=" ">
<path fill="none" stroke="#63b8ff" d="M264.42,-110.09C239.58,-101.45 201.88,-88.32 173.99,-78.62"/>
<polygon fill="#63b8ff" stroke="#63b8ff" points="175.48,-75.43 164.89,-75.45 173.18,-82.04 175.48,-75.43"/>
</a>
</g>
</g>
<!-- Node5 -->
<g id="Node000005" class="node">
<title>Node5</title>
<g id="a_Node000005"><a xlink:title=" ">
<polygon fill="#e0e0e0" stroke="#999999" points="230.38,-74.5 184.38,-74.5 184.38,-55.25 230.38,-55.25 230.38,-74.5"/>
<text text-anchor="middle" x="207.38" y="-61" font-family="Helvetica,sans-Serif" font-size="10.00">iterator</text>
</a>
</g>
</g>
<!-- Node1&#45;&gt;Node5 -->
<g id="edge4_Node000001_Node000005" class="edge">
<title>Node1&#45;&gt;Node5</title>
<g id="a_edge4_Node000001_Node000005"><a xlink:title=" ">
<path fill="none" stroke="#63b8ff" d="M276.3,-110.09C263.89,-102.14 245.58,-90.39 230.95,-81"/>
<polygon fill="#63b8ff" stroke="#63b8ff" points="233.1,-78.22 222.8,-75.77 229.32,-84.12 233.1,-78.22"/>
</a>
</g>
</g>
<!-- Node6 -->
<g id="Node000006" class="node">
<title>Node6</title>
<g id="a_Node000006"><a xlink:title=" ">
<polygon fill="#e0e0e0" stroke="#999999" points="332.5,-74.5 248.25,-74.5 248.25,-55.25 332.5,-55.25 332.5,-74.5"/>
<text text-anchor="middle" x="290.38" y="-61" font-family="Helvetica,sans-Serif" font-size="10.00">source_location</text>
</a>
</g>
</g>
<!-- Node1&#45;&gt;Node6 -->
<g id="edge5_Node000001_Node000006" class="edge">
<title>Node1&#45;&gt;Node6</title>
<g id="a_edge5_Node000001_Node000006"><a xlink:title=" ">
<path fill="none" stroke="#63b8ff" d="M290.38,-110.33C290.38,-103.82 290.38,-94.67 290.38,-86.37"/>
<polygon fill="#63b8ff" stroke="#63b8ff" points="293.88,-86.37 290.38,-76.37 286.88,-86.37 293.88,-86.37"/>
</a>
</g>
</g>
<!-- Node7 -->
<g id="Node000007" class="node">
<title>Node7</title>
<g id="a_Node000007"><a xlink:title=" ">
<polygon fill="#e0e0e0" stroke="#999999" points="402,-74.5 350.75,-74.5 350.75,-55.25 402,-55.25 402,-74.5"/>
<text text-anchor="middle" x="376.38" y="-61" font-family="Helvetica,sans-Serif" font-size="10.00">sstream</text>
</a>
</g>
</g>
<!-- Node1&#45;&gt;Node7 -->
<g id="edge6_Node000001_Node000007" class="edge">
<title>Node1&#45;&gt;Node7</title>
<g id="a_edge6_Node000001_Node000007"><a xlink:title=" ">
<path fill="none" stroke="#63b8ff" d="M304.96,-110.09C317.81,-102.14 336.79,-90.39 351.95,-81"/>
<polygon fill="#63b8ff" stroke="#63b8ff" points="353.77,-83.99 360.43,-75.75 350.08,-78.04 353.77,-83.99"/>
</a>
</g>
</g>
<!-- Node8 -->
<g id="Node000008" class="node">
<title>Node8</title>
<g id="a_Node000008"><a xlink:title=" ">
<polygon fill="#e0e0e0" stroke="#999999" points="485.12,-74.5 419.62,-74.5 419.62,-55.25 485.12,-55.25 485.12,-74.5"/>
<text text-anchor="middle" x="452.38" y="-61" font-family="Helvetica,sans-Serif" font-size="10.00">string_view</text>
</a>
</g>
</g>
<!-- Node1&#45;&gt;Node8 -->
<g id="edge8_Node000001_Node000008" class="edge">
<title>Node1&#45;&gt;Node8</title>
<g id="a_edge8_Node000001_Node000008"><a xlink:title=" ">
<path fill="none" stroke="#63b8ff" d="M317.86,-110.09C344.27,-101.41 384.43,-88.21 414,-78.49"/>
<polygon fill="#63b8ff" stroke="#63b8ff" points="414.91,-81.87 423.32,-75.43 412.73,-75.22 414.91,-81.87"/>
</a>
</g>
</g>
<!-- Node9 -->
<g id="Node000009" class="node">
<title>Node9</title>
<g id="a_Node000009"><a xlink:title=" ">
<polygon fill="#e0e0e0" stroke="#999999" points="541.62,-74.5 503.12,-74.5 503.12,-55.25 541.62,-55.25 541.62,-74.5"/>
<text text-anchor="middle" x="522.38" y="-61" font-family="Helvetica,sans-Serif" font-size="10.00">utility</text>
</a>
</g>
</g>
<!-- Node1&#45;&gt;Node9 -->
<g id="edge9_Node000001_Node000009" class="edge">
<title>Node1&#45;&gt;Node9</title>
<g id="a_edge9_Node000001_Node000009"><a xlink:title=" ">
<path fill="none" stroke="#63b8ff" d="M337.23,-110.03C376.31,-102.19 433.69,-90.08 491.97,-74.97"/>
<polygon fill="#63b8ff" stroke="#63b8ff" points="492.6,-78.42 501.39,-72.5 490.83,-71.65 492.6,-78.42"/>
</a>
</g>
</g>
<!-- Node10 -->
<g id="Node000010" class="node">
<title>Node10</title>
<g id="a_Node000010"><a xlink:title=" ">
<polygon fill="#e0e0e0" stroke="#999999" points="603.25,-74.5 559.5,-74.5 559.5,-55.25 603.25,-55.25 603.25,-74.5"/>
<text text-anchor="middle" x="581.38" y="-61" font-family="Helvetica,sans-Serif" font-size="10.00">format</text>
</a>
</g>
</g>
<!-- Node1&#45;&gt;Node10 -->
<g id="edge10_Node000001_Node000010" class="edge">
<title>Node1&#45;&gt;Node10</title>
<g id="a_edge10_Node000001_Node000010"><a xlink:title=" ">
<path fill="none" stroke="#63b8ff" d="M342.48,-111.77C392.82,-104.31 471.42,-91.73 548.26,-74.79"/>
<polygon fill="#63b8ff" stroke="#63b8ff" points="548.62,-78.29 557.62,-72.7 547.09,-71.46 548.62,-78.29"/>
</a>
</g>
</g>
<!-- Node2&#45;&gt;Node3 -->
<g id="edge2_Node000002_Node000003" class="edge">
<title>Node2&#45;&gt;Node3</title>
<g id="a_edge2_Node000002_Node000003"><a xlink:title=" ">
<path fill="none" stroke="#63b8ff" d="M30.83,-55.08C34.33,-48.19 39.32,-38.34 43.72,-29.66"/>
<polygon fill="#63b8ff" stroke="#63b8ff" points="46.73,-31.46 48.14,-20.96 40.49,-28.3 46.73,-31.46"/>
</a>
</g>
</g>
</g>
</svg>
