<?xml version="1.0" encoding="UTF-8" standalone="no"?>
<!DOCTYPE svg PUBLIC "-//W3C//DTD SVG 1.1//EN"
 "http://www.w3.org/Graphics/SVG/1.1/DTD/svg11.dtd">
<!-- Generated by graphviz version 12.1.1 (20240910.0053)
 -->
<!-- Title: mimic++/Fwd.hpp Pages: 1 -->
<svg width="1205pt" height="690pt"
 viewBox="0.00 0.00 1205.00 690.25" xmlns="http://www.w3.org/2000/svg" xmlns:xlink="http://www.w3.org/1999/xlink">
<g id="graph0" class="graph" transform="scale(1 1) rotate(0) translate(4 686.25)">
<title>mimic++/Fwd.hpp</title>
<!-- Node1 -->
<g id="Node000001" class="node">
<title>Node1</title>
<g id="a_Node000001"><a xlink:title=" ">
<polygon fill="#999999" stroke="#666666" points="607,-682.25 513,-682.25 513,-663 607,-663 607,-682.25"/>
<text text-anchor="middle" x="560" y="-668.75" font-family="Helvetica,sans-Serif" font-size="10.00">mimic++/Fwd.hpp</text>
</a>
</g>
</g>
<!-- Node2 -->
<g id="Node000002" class="node">
<title>Node2</title>
<g id="a_Node000002"><a xlink:href="../../dc/d44/_call_8hpp.html" target="_top" xlink:title=" ">
<polygon fill="white" stroke="#666666" points="545.88,-571.75 454.12,-571.75 454.12,-552.5 545.88,-552.5 545.88,-571.75"/>
<text text-anchor="middle" x="500" y="-558.25" font-family="Helvetica,sans-Serif" font-size="10.00">mimic++/Call.hpp</text>
</a>
</g>
</g>
<!-- Node1&#45;&gt;Node2 -->
<g id="edge1_Node000001_Node000002" class="edge">
<title>Node1&#45;&gt;Node2</title>
<g id="a_edge1_Node000001_Node000002"><a xlink:title=" ">
<path fill="none" stroke="#63b8ff" d="M549.64,-652.9C536.61,-629.33 514.75,-589.79 504.98,-572.13"/>
<polygon fill="#63b8ff" stroke="#63b8ff" points="546.46,-654.36 554.36,-661.42 552.58,-650.98 546.46,-654.36"/>
</a>
</g>
</g>
<!-- Node6 -->
<g id="Node000006" class="node">
<title>Node6</title>
<g id="a_Node000006"><a xlink:href="../../d9/dc3/_interface_mock_8hpp.html" target="_top" xlink:title=" ">
<polygon fill="white" stroke="#666666" points="793.75,-74.5 656.25,-74.5 656.25,-55.25 793.75,-55.25 793.75,-74.5"/>
<text text-anchor="middle" x="725" y="-61" font-family="Helvetica,sans-Serif" font-size="10.00">mimic++/InterfaceMock.hpp</text>
</a>
</g>
</g>
<!-- Node1&#45;&gt;Node6 -->
<g id="edge33_Node000001_Node000006" class="edge">
<title>Node1&#45;&gt;Node6</title>
<g id="a_edge33_Node000001_Node000006"><a xlink:title=" ">
<path fill="none" stroke="#63b8ff" d="M501.52,-670.71C372.74,-667.1 76,-649.43 76,-563.12 76,-563.12 76,-563.12 76,-174.38 76,-116.08 488.63,-81.77 655.85,-70.25"/>
<polygon fill="#63b8ff" stroke="#63b8ff" points="501.11,-674.2 511.2,-670.96 501.29,-667.2 501.11,-674.2"/>
</a>
</g>
</g>
<!-- Node7 -->
<g id="Node000007" class="node">
<title>Node7</title>
<g id="a_Node000007"><a xlink:href="../../d0/db9/mimic_09_09_8hpp.html" target="_top" xlink:title=" ">
<polygon fill="white" stroke="#666666" points="897.75,-19.25 784.25,-19.25 784.25,0 897.75,0 897.75,-19.25"/>
<text text-anchor="middle" x="841" y="-5.75" font-family="Helvetica,sans-Serif" font-size="10.00">mimic++/mimic++.hpp</text>
</a>
</g>
</g>
<!-- Node1&#45;&gt;Node7 -->
<g id="edge53_Node000001_Node000007" class="edge">
<title>Node1&#45;&gt;Node7</title>
<g id="a_edge53_Node000001_Node000007"><a xlink:title=" ">
<path fill="none" stroke="#63b8ff" d="M501.56,-672.51C358.07,-673.12 0,-664.49 0,-563.12 0,-563.12 0,-563.12 0,-119.12 0,-79.87 25.36,-71.71 61,-55.25 126.03,-25.21 614.87,-14.36 783.79,-11.48"/>
<polygon fill="#63b8ff" stroke="#63b8ff" points="501.25,-676.01 511.22,-672.45 501.2,-669.01 501.25,-676.01"/>
</a>
</g>
</g>
<!-- Node9 -->
<g id="Node000009" class="node">
<title>Node9</title>
<g id="a_Node000009"><a xlink:href="../../da/dd9/_reporter_8hpp.html" target="_top" xlink:title=" ">
<polygon fill="white" stroke="#666666" points="596,-461.25 484,-461.25 484,-442 596,-442 596,-461.25"/>
<text text-anchor="middle" x="540" y="-447.75" font-family="Helvetica,sans-Serif" font-size="10.00">mimic++/Reporter.hpp</text>
</a>
</g>
</g>
<!-- Node1&#45;&gt;Node9 -->
<g id="edge43_Node000001_Node000009" class="edge">
<title>Node1&#45;&gt;Node9</title>
<g id="a_edge43_Node000001_Node000009"><a xlink:title=" ">
<path fill="none" stroke="#63b8ff" d="M532.2,-656.96C504.24,-640.47 462.8,-610.79 445,-571.75 423.6,-524.82 489.92,-480.27 522.74,-461.7"/>
<polygon fill="#63b8ff" stroke="#63b8ff" points="530.44,-659.99 540.86,-661.89 533.9,-653.9 530.44,-659.99"/>
</a>
</g>
</g>
<!-- Node10 -->
<g id="Node000010" class="node">
<title>Node10</title>
<g id="a_Node000010"><a xlink:href="../../d8/de4/_sequence_8hpp.html" target="_top" xlink:title=" ">
<polygon fill="white" stroke="#666666" points="949.38,-406 830.62,-406 830.62,-386.75 949.38,-386.75 949.38,-406"/>
<text text-anchor="middle" x="890" y="-392.5" font-family="Helvetica,sans-Serif" font-size="10.00">mimic++/Sequence.hpp</text>
</a>
</g>
</g>
<!-- Node1&#45;&gt;Node10 -->
<g id="edge45_Node000001_Node000010" class="edge">
<title>Node1&#45;&gt;Node10</title>
<g id="a_edge45_Node000001_Node000010"><a xlink:title=" ">
<path fill="none" stroke="#63b8ff" d="M579.83,-655.15C642.05,-603.43 832.13,-445.47 879.31,-406.26"/>
<polygon fill="#63b8ff" stroke="#63b8ff" points="577.6,-652.45 572.14,-661.53 582.07,-657.83 577.6,-652.45"/>
</a>
</g>
</g>
<!-- Node15 -->
<g id="Node000015" class="node">
<title>Node15</title>
<g id="a_Node000015"><a xlink:href="../../d0/d3b/_reports_8hpp.html" target="_top" xlink:title=" ">
<polygon fill="white" stroke="#666666" points="635.5,-516.5 526.5,-516.5 526.5,-497.25 635.5,-497.25 635.5,-516.5"/>
<text text-anchor="middle" x="581" y="-503" font-family="Helvetica,sans-Serif" font-size="10.00">mimic++/Reports.hpp</text>
</a>
</g>
</g>
<!-- Node1&#45;&gt;Node15 -->
<g id="edge44_Node000001_Node000015" class="edge">
<title>Node1&#45;&gt;Node15</title>
<g id="a_edge44_Node000001_Node000015"><a xlink:title=" ">
<path fill="none" stroke="#63b8ff" d="M562.58,-651.47C567.18,-615.61 576.61,-542.1 579.87,-516.72"/>
<polygon fill="#63b8ff" stroke="#63b8ff" points="559.12,-650.96 561.32,-661.32 566.07,-651.85 559.12,-650.96"/>
</a>
</g>
</g>
<!-- Node16 -->
<g id="Node000016" class="node">
<title>Node16</title>
<g id="a_Node000016"><a xlink:href="../../da/dab/_printer_8hpp.html" target="_top" xlink:title=" ">
<polygon fill="white" stroke="#666666" points="934.88,-571.75 831.12,-571.75 831.12,-552.5 934.88,-552.5 934.88,-571.75"/>
<text text-anchor="middle" x="883" y="-558.25" font-family="Helvetica,sans-Serif" font-size="10.00">mimic++/Printer.hpp</text>
</a>
</g>
</g>
<!-- Node1&#45;&gt;Node16 -->
<g id="edge34_Node000001_Node000016" class="edge">
<title>Node1&#45;&gt;Node16</title>
<g id="a_edge34_Node000001_Node000016"><a xlink:title=" ">
<path fill="none" stroke="#63b8ff" d="M618.4,-665.37C663.46,-659.21 726.71,-647.64 779,-627 815.27,-612.69 853.13,-585.95 871.55,-572.04"/>
<polygon fill="#63b8ff" stroke="#63b8ff" points="618.03,-661.89 608.57,-666.66 618.94,-668.83 618.03,-661.89"/>
</a>
</g>
</g>
<!-- Node18 -->
<g id="Node000018" class="node">
<title>Node18</title>
<g id="a_Node000018"><a xlink:href="../../d4/d2c/_utility_8hpp.html" target="_top" xlink:title=" ">
<polygon fill="white" stroke="#666666" points="1043,-627 943,-627 943,-607.75 1043,-607.75 1043,-627"/>
<text text-anchor="middle" x="993" y="-613.5" font-family="Helvetica,sans-Serif" font-size="10.00">mimic++/Utility.hpp</text>
</a>
</g>
</g>
<!-- Node1&#45;&gt;Node18 -->
<g id="edge46_Node000001_Node000018" class="edge">
<title>Node1&#45;&gt;Node18</title>
<g id="a_edge46_Node000001_Node000018"><a xlink:title=" ">
<path fill="none" stroke="#63b8ff" d="M618.49,-664.43C704.03,-653.91 861.84,-634.5 942.56,-624.58"/>
<polygon fill="#63b8ff" stroke="#63b8ff" points="618.16,-660.95 608.67,-665.64 619.02,-667.89 618.16,-660.95"/>
</a>
</g>
</g>
<!-- Node3 -->
<g id="Node000003" class="node">
<title>Node3</title>
<g id="a_Node000003"><a xlink:href="../../d5/d8a/_expectation_8hpp.html" target="_top" xlink:title=" ">
<polygon fill="white" stroke="#666666" points="726.75,-295.5 601.25,-295.5 601.25,-276.25 726.75,-276.25 726.75,-295.5"/>
<text text-anchor="middle" x="664" y="-282" font-family="Helvetica,sans-Serif" font-size="10.00">mimic++/Expectation.hpp</text>
</a>
</g>
</g>
<!-- Node2&#45;&gt;Node3 -->
<g id="edge2_Node000002_Node000003" class="edge">
<title>Node2&#45;&gt;Node3</title>
<g id="a_edge2_Node000002_Node000003"><a xlink:title=" ">
<path fill="none" stroke="#63b8ff" d="M442.49,-550.66C338.86,-529.33 137.84,-475.22 209,-386.75 257.53,-326.41 488.06,-300.46 601.15,-291.21"/>
<polygon fill="#63b8ff" stroke="#63b8ff" points="441.74,-554.08 452.24,-552.62 443.12,-547.22 441.74,-554.08"/>
</a>
</g>
</g>
<!-- Node2&#45;&gt;Node7 -->
<g id="edge32_Node000002_Node000007" class="edge">
<title>Node2&#45;&gt;Node7</title>
<g id="a_edge32_Node000002_Node000007"><a xlink:title=" ">
<path fill="none" stroke="#63b8ff" d="M442.91,-553.2C319.32,-534.43 38,-482.37 38,-397.38 38,-397.38 38,-397.38 38,-119.12 38,-51.94 109.93,-71.97 175,-55.25 289.48,-25.82 644.42,-14.96 783.9,-11.76"/>
<polygon fill="#63b8ff" stroke="#63b8ff" points="442.11,-556.61 452.52,-554.63 443.14,-549.69 442.11,-556.61"/>
</a>
</g>
</g>
<!-- Node2&#45;&gt;Node9 -->
<g id="edge15_Node000002_Node000009" class="edge">
<title>Node2&#45;&gt;Node9</title>
<g id="a_edge15_Node000002_Node000009"><a xlink:title=" ">
<path fill="none" stroke="#63b8ff" d="M504.64,-541.11C507.83,-528.36 512.49,-511.61 518,-497.25 522.89,-484.51 530.12,-470.5 534.95,-461.64"/>
<polygon fill="#63b8ff" stroke="#63b8ff" points="501.24,-540.27 502.3,-550.81 508.04,-541.91 501.24,-540.27"/>
</a>
</g>
</g>
<!-- Node2&#45;&gt;Node15 -->
<g id="edge28_Node000002_Node000015" class="edge">
<title>Node2&#45;&gt;Node15</title>
<g id="a_edge28_Node000002_Node000015"><a xlink:title=" ">
<path fill="none" stroke="#63b8ff" d="M523.34,-545.78C537.54,-536.45 555.19,-524.85 567.19,-516.95"/>
<polygon fill="#63b8ff" stroke="#63b8ff" points="521.44,-542.84 515.01,-551.26 525.28,-548.69 521.44,-542.84"/>
</a>
</g>
</g>
<!-- Node4 -->
<g id="Node000004" class="node">
<title>Node4</title>
<g id="a_Node000004"><a xlink:href="../../d2/d4f/_expectation_builder_8hpp.html" target="_top" xlink:title=" ">
<polygon fill="white" stroke="#666666" points="849.75,-185 694.25,-185 694.25,-165.75 849.75,-165.75 849.75,-185"/>
<text text-anchor="middle" x="772" y="-171.5" font-family="Helvetica,sans-Serif" font-size="10.00">mimic++/ExpectationBuilder.hpp</text>
</a>
</g>
</g>
<!-- Node3&#45;&gt;Node4 -->
<g id="edge3_Node000003_Node000004" class="edge">
<title>Node3&#45;&gt;Node4</title>
<g id="a_edge3_Node000003_Node000004"><a xlink:title=" ">
<path fill="none" stroke="#63b8ff" d="M680.76,-268.03C703.95,-244.74 744.98,-203.52 763.04,-185.38"/>
<polygon fill="#63b8ff" stroke="#63b8ff" points="678.48,-265.37 673.91,-274.92 683.44,-270.31 678.48,-265.37"/>
</a>
</g>
</g>
<!-- Node5 -->
<g id="Node000005" class="node">
<title>Node5</title>
<g id="a_Node000005"><a xlink:href="../../d5/dc5/_mock_8hpp.html" target="_top" xlink:title=" ">
<polygon fill="white" stroke="#666666" points="821.62,-129.75 722.38,-129.75 722.38,-110.5 821.62,-110.5 821.62,-129.75"/>
<text text-anchor="middle" x="772" y="-116.25" font-family="Helvetica,sans-Serif" font-size="10.00">mimic++/Mock.hpp</text>
</a>
</g>
</g>
<!-- Node3&#45;&gt;Node5 -->
<g id="edge13_Node000003_Node000005" class="edge">
<title>Node3&#45;&gt;Node5</title>
<g id="a_edge13_Node000003_Node000005"><a xlink:title=" ">
<path fill="none" stroke="#63b8ff" d="M662.39,-264.56C661.43,-239.01 663.45,-194.95 685,-165.75 698,-148.13 719.99,-136.94 738.61,-130.17"/>
<polygon fill="#63b8ff" stroke="#63b8ff" points="658.87,-264.48 662.96,-274.26 665.86,-264.07 658.87,-264.48"/>
</a>
</g>
</g>
<!-- Node3&#45;&gt;Node7 -->
<g id="edge14_Node000003_Node000007" class="edge">
<title>Node3&#45;&gt;Node7</title>
<g id="a_edge14_Node000003_Node000007"><a xlink:title=" ">
<path fill="none" stroke="#63b8ff" d="M653.5,-265.72C642.87,-244.53 628,-209.03 628,-176.38 628,-176.38 628,-176.38 628,-119.12 628,-89.51 625.41,-75.52 647,-55.25 666.59,-36.86 733.96,-24.34 783.84,-17.35"/>
<polygon fill="#63b8ff" stroke="#63b8ff" points="650.4,-267.35 658.14,-274.58 656.6,-264.1 650.4,-267.35"/>
</a>
</g>
</g>
<!-- Node8 -->
<g id="Node000008" class="node">
<title>Node8</title>
<g id="a_Node000008"><a xlink:href="../../d8/de5/_expectation_policies_8hpp.html" target="_top" xlink:title=" ">
<polygon fill="white" stroke="#666666" points="979,-240.25 819,-240.25 819,-221 979,-221 979,-240.25"/>
<text text-anchor="middle" x="899" y="-226.75" font-family="Helvetica,sans-Serif" font-size="10.00">mimic++/ExpectationPolicies.hpp</text>
</a>
</g>
</g>
<!-- Node3&#45;&gt;Node8 -->
<g id="edge9_Node000003_Node000008" class="edge">
<title>Node3&#45;&gt;Node8</title>
<g id="a_edge9_Node000003_Node000008"><a xlink:title=" ">
<path fill="none" stroke="#63b8ff" d="M715.26,-273.26C758.45,-263.47 819.38,-249.67 859.03,-240.68"/>
<polygon fill="#63b8ff" stroke="#63b8ff" points="714.59,-269.82 705.61,-275.45 716.13,-276.65 714.59,-269.82"/>
</a>
</g>
</g>
<!-- Node4&#45;&gt;Node5 -->
<g id="edge4_Node000004_Node000005" class="edge">
<title>Node4&#45;&gt;Node5</title>
<g id="a_edge4_Node000004_Node000005"><a xlink:title=" ">
<path fill="none" stroke="#63b8ff" d="M772,-154.13C772,-145.84 772,-136.67 772,-130.11"/>
<polygon fill="#63b8ff" stroke="#63b8ff" points="768.5,-154.07 772,-164.07 775.5,-154.07 768.5,-154.07"/>
</a>
</g>
</g>
<!-- Node4&#45;&gt;Node7 -->
<g id="edge8_Node000004_Node000007" class="edge">
<title>Node4&#45;&gt;Node7</title>
<g id="a_edge8_Node000004_Node000007"><a xlink:title=" ">
<path fill="none" stroke="#63b8ff" d="M800.85,-159.58C812.2,-152.21 824.15,-142.19 831,-129.75 851.13,-93.21 845.81,-40.61 842.6,-19.7"/>
<polygon fill="#63b8ff" stroke="#63b8ff" points="799.25,-156.46 792.46,-164.59 802.84,-162.47 799.25,-156.46"/>
</a>
</g>
</g>
<!-- Node5&#45;&gt;Node6 -->
<g id="edge5_Node000005_Node000006" class="edge">
<title>Node5&#45;&gt;Node6</title>
<g id="a_edge5_Node000005_Node000006"><a xlink:title=" ">
<path fill="none" stroke="#63b8ff" d="M756.67,-101.76C748.75,-92.78 739.4,-82.2 732.93,-74.86"/>
<polygon fill="#63b8ff" stroke="#63b8ff" points="754,-104.02 763.24,-109.2 759.24,-99.38 754,-104.02"/>
</a>
</g>
</g>
<!-- Node5&#45;&gt;Node7 -->
<g id="edge7_Node000005_Node000007" class="edge">
<title>Node5&#45;&gt;Node7</title>
<g id="a_edge7_Node000005_Node000007"><a xlink:title=" ">
<path fill="none" stroke="#63b8ff" d="M785.1,-100.89C790.74,-92.88 797.33,-83.31 803,-74.5 815.43,-55.19 828.95,-31.85 836.03,-19.42"/>
<polygon fill="#63b8ff" stroke="#63b8ff" points="782.42,-98.61 779.48,-108.79 788.13,-102.67 782.42,-98.61"/>
</a>
</g>
</g>
<!-- Node6&#45;&gt;Node7 -->
<g id="edge6_Node000006_Node000007" class="edge">
<title>Node6&#45;&gt;Node7</title>
<g id="a_edge6_Node000006_Node000007"><a xlink:title=" ">
<path fill="none" stroke="#63b8ff" d="M754.92,-50.14C775.78,-40.56 803.03,-28.06 821.23,-19.7"/>
<polygon fill="#63b8ff" stroke="#63b8ff" points="753.68,-46.86 746.05,-54.21 756.6,-53.22 753.68,-46.86"/>
</a>
</g>
</g>
<!-- Node8&#45;&gt;Node4 -->
<g id="edge10_Node000008_Node000004" class="edge">
<title>Node8&#45;&gt;Node4</title>
<g id="a_edge10_Node000008_Node000004"><a xlink:title=" ">
<path fill="none" stroke="#63b8ff" d="M866.87,-216.15C843.95,-206.54 813.75,-193.88 793.65,-185.45"/>
<polygon fill="#63b8ff" stroke="#63b8ff" points="865.48,-219.37 876.06,-220.01 868.19,-212.91 865.48,-219.37"/>
</a>
</g>
</g>
<!-- Node8&#45;&gt;Node5 -->
<g id="edge11_Node000008_Node000005" class="edge">
<title>Node8&#45;&gt;Node5</title>
<g id="a_edge11_Node000008_Node000005"><a xlink:title=" ">
<path fill="none" stroke="#63b8ff" d="M890.44,-210.44C883.53,-196.64 872.71,-178.33 859,-165.75 841.24,-149.45 816.42,-137.5 797.83,-130.09"/>
<polygon fill="#63b8ff" stroke="#63b8ff" points="887.22,-211.82 894.66,-219.37 893.55,-208.83 887.22,-211.82"/>
</a>
</g>
</g>
<!-- Node8&#45;&gt;Node7 -->
<g id="edge12_Node000008_Node000007" class="edge">
<title>Node8&#45;&gt;Node7</title>
<g id="a_edge12_Node000008_Node000007"><a xlink:title=" ">
<path fill="none" stroke="#63b8ff" d="M895.49,-209.68C889.5,-177 876.26,-110.18 859,-55.25 855.04,-42.66 849.11,-28.61 845.15,-19.7"/>
<polygon fill="#63b8ff" stroke="#63b8ff" points="892,-210.07 897.22,-219.3 898.89,-208.83 892,-210.07"/>
</a>
</g>
</g>
<!-- Node9&#45;&gt;Node3 -->
<g id="edge16_Node000009_Node000003" class="edge">
<title>Node9&#45;&gt;Node3</title>
<g id="a_edge16_Node000009_Node000003"><a xlink:title=" ">
<path fill="none" stroke="#63b8ff" d="M607.45,-441.2C648.52,-433.93 695.45,-422.33 708,-406 735.15,-370.7 692.06,-316.94 672.67,-295.83"/>
<polygon fill="#63b8ff" stroke="#63b8ff" points="607.09,-437.71 597.82,-442.84 608.27,-444.61 607.09,-437.71"/>
</a>
</g>
</g>
<!-- Node9&#45;&gt;Node7 -->
<g id="edge27_Node000009_Node000007" class="edge">
<title>Node9&#45;&gt;Node7</title>
<g id="a_edge27_Node000009_Node000007"><a xlink:title=" ">
<path fill="none" stroke="#63b8ff" d="M472.38,-449.94C387.24,-447.68 247.43,-438.89 209,-406 186.5,-386.74 190,-371.74 190,-342.12 190,-342.12 190,-342.12 190,-119.12 190,-59.19 624.94,-24.74 783.8,-14.16"/>
<polygon fill="#63b8ff" stroke="#63b8ff" points="472.16,-453.43 482.24,-450.17 472.33,-446.44 472.16,-453.43"/>
</a>
</g>
</g>
<!-- Node9&#45;&gt;Node10 -->
<g id="edge17_Node000009_Node000010" class="edge">
<title>Node9&#45;&gt;Node10</title>
<g id="a_edge17_Node000009_Node000010"><a xlink:title=" ">
<path fill="none" stroke="#63b8ff" d="M607.51,-440.35C672.1,-430.53 768.57,-415.85 830.39,-406.44"/>
<polygon fill="#63b8ff" stroke="#63b8ff" points="607.09,-436.88 597.73,-441.84 608.14,-443.8 607.09,-436.88"/>
</a>
</g>
</g>
<!-- Node12 -->
<g id="Node000012" class="node">
<title>Node12</title>
<g id="a_Node000012"><a xlink:href="../../d9/d42/_boost_test_8hpp.html" target="_top" xlink:title=" ">
<polygon fill="white" stroke="#666666" points="534.38,-406 373.62,-406 373.62,-386.75 534.38,-386.75 534.38,-406"/>
<text text-anchor="middle" x="454" y="-392.5" font-family="Helvetica,sans-Serif" font-size="10.00">mimic++/adapters/BoostTest.hpp</text>
</a>
</g>
</g>
<!-- Node9&#45;&gt;Node12 -->
<g id="edge24_Node000009_Node000012" class="edge">
<title>Node9&#45;&gt;Node12</title>
<g id="a_edge24_Node000009_Node000012"><a xlink:title=" ">
<path fill="none" stroke="#63b8ff" d="M515.66,-435.55C500.51,-426.17 481.53,-414.42 468.66,-406.45"/>
<polygon fill="#63b8ff" stroke="#63b8ff" points="513.78,-438.51 524.12,-440.8 517.46,-432.55 513.78,-438.51"/>
</a>
</g>
</g>
<!-- Node13 -->
<g id="Node000013" class="node">
<title>Node13</title>
<g id="a_Node000013"><a xlink:href="../../d3/d04/_catch2_8hpp.html" target="_top" xlink:title=" ">
<polygon fill="white" stroke="#666666" points="699.25,-406 552.75,-406 552.75,-386.75 699.25,-386.75 699.25,-406"/>
<text text-anchor="middle" x="626" y="-392.5" font-family="Helvetica,sans-Serif" font-size="10.00">mimic++/adapters/Catch2.hpp</text>
</a>
</g>
</g>
<!-- Node9&#45;&gt;Node13 -->
<g id="edge25_Node000009_Node000013" class="edge">
<title>Node9&#45;&gt;Node13</title>
<g id="a_edge25_Node000009_Node000013"><a xlink:title=" ">
<path fill="none" stroke="#63b8ff" d="M564.34,-435.55C579.49,-426.17 598.47,-414.42 611.34,-406.45"/>
<polygon fill="#63b8ff" stroke="#63b8ff" points="562.54,-432.55 555.88,-440.8 566.22,-438.51 562.54,-432.55"/>
</a>
</g>
</g>
<!-- Node14 -->
<g id="Node000014" class="node">
<title>Node14</title>
<g id="a_Node000014"><a xlink:href="../../d5/db1/gtest_8hpp.html" target="_top" xlink:title=" ">
<polygon fill="white" stroke="#666666" points="355.75,-406 218.25,-406 218.25,-386.75 355.75,-386.75 355.75,-406"/>
<text text-anchor="middle" x="287" y="-392.5" font-family="Helvetica,sans-Serif" font-size="10.00">mimic++/adapters/gtest.hpp</text>
</a>
</g>
</g>
<!-- Node9&#45;&gt;Node14 -->
<g id="edge26_Node000009_Node000014" class="edge">
<title>Node9&#45;&gt;Node14</title>
<g id="a_edge26_Node000009_Node000014"><a xlink:title=" ">
<path fill="none" stroke="#63b8ff" d="M485.7,-439.2C439.15,-429.4 372.99,-415.47 330.03,-406.43"/>
<polygon fill="#63b8ff" stroke="#63b8ff" points="484.81,-442.59 495.31,-441.22 486.25,-435.74 484.81,-442.59"/>
</a>
</g>
</g>
<!-- Node10&#45;&gt;Node4 -->
<g id="edge22_Node000010_Node000004" class="edge">
<title>Node10&#45;&gt;Node4</title>
<g id="a_edge22_Node000010_Node000004"><a xlink:title=" ">
<path fill="none" stroke="#63b8ff" d="M888.54,-374.97C887.05,-362.07 884.05,-345.3 878,-331.5 857.7,-285.18 838.08,-282.32 810,-240.25 797.25,-221.15 783.86,-197.73 776.88,-185.23"/>
<polygon fill="#63b8ff" stroke="#63b8ff" points="885.04,-375.18 889.44,-384.82 892.01,-374.54 885.04,-375.18"/>
</a>
</g>
</g>
<!-- Node10&#45;&gt;Node7 -->
<g id="edge23_Node000010_Node000007" class="edge">
<title>Node10&#45;&gt;Node7</title>
<g id="a_edge23_Node000010_Node000007"><a xlink:title=" ">
<path fill="none" stroke="#63b8ff" d="M919.38,-381.17C964.32,-357.13 1045,-303.92 1045,-231.62 1045,-231.62 1045,-231.62 1045,-119.12 1045,-52.23 958.45,-26.45 898.1,-16.6"/>
<polygon fill="#63b8ff" stroke="#63b8ff" points="917.93,-377.97 910.66,-385.68 921.15,-384.19 917.93,-377.97"/>
</a>
</g>
</g>
<!-- Node11 -->
<g id="Node000011" class="node">
<title>Node11</title>
<g id="a_Node000011"><a xlink:href="../../d6/d17/_control_policy_8hpp.html" target="_top" xlink:title=" ">
<polygon fill="white" stroke="#666666" points="869.12,-350.75 736.88,-350.75 736.88,-331.5 869.12,-331.5 869.12,-350.75"/>
<text text-anchor="middle" x="803" y="-337.25" font-family="Helvetica,sans-Serif" font-size="10.00">mimic++/ControlPolicy.hpp</text>
</a>
</g>
</g>
<!-- Node10&#45;&gt;Node11 -->
<g id="edge18_Node000010_Node000011" class="edge">
<title>Node10&#45;&gt;Node11</title>
<g id="a_edge18_Node000010_Node000011"><a xlink:title=" ">
<path fill="none" stroke="#63b8ff" d="M865.82,-380.57C850.42,-371.15 830.98,-359.25 817.83,-351.2"/>
<polygon fill="#63b8ff" stroke="#63b8ff" points="863.59,-383.32 873.95,-385.55 867.25,-377.35 863.59,-383.32"/>
</a>
</g>
</g>
<!-- Node11&#45;&gt;Node3 -->
<g id="edge19_Node000011_Node000003" class="edge">
<title>Node11&#45;&gt;Node3</title>
<g id="a_edge19_Node000011_Node000003"><a xlink:title=" ">
<path fill="none" stroke="#63b8ff" d="M768.85,-327.04C743.65,-317.39 710,-304.5 687.7,-295.95"/>
<polygon fill="#63b8ff" stroke="#63b8ff" points="767.42,-330.24 778.01,-330.55 769.92,-323.7 767.42,-330.24"/>
</a>
</g>
</g>
<!-- Node11&#45;&gt;Node4 -->
<g id="edge20_Node000011_Node000004" class="edge">
<title>Node11&#45;&gt;Node4</title>
<g id="a_edge20_Node000011_Node000004"><a xlink:title=" ">
<path fill="none" stroke="#63b8ff" d="M796.76,-320.39C790.7,-300.4 781.74,-268.49 777,-240.25 773.72,-220.72 772.58,-197.47 772.2,-185.11"/>
<polygon fill="#63b8ff" stroke="#63b8ff" points="793.34,-321.19 799.64,-329.71 800.03,-319.12 793.34,-321.19"/>
</a>
</g>
</g>
<!-- Node11&#45;&gt;Node7 -->
<g id="edge21_Node000011_Node000007" class="edge">
<title>Node11&#45;&gt;Node7</title>
<g id="a_edge21_Node000011_Node000007"><a xlink:title=" ">
<path fill="none" stroke="#63b8ff" d="M846.58,-327.44C888.69,-313 951.34,-285.36 988,-240.25 1006.68,-217.27 1007,-205.99 1007,-176.38 1007,-176.38 1007,-176.38 1007,-119.12 1007,-61.11 935.08,-32.46 885.92,-19.65"/>
<polygon fill="#63b8ff" stroke="#63b8ff" points="845.64,-324.07 837.25,-330.53 847.84,-330.71 845.64,-324.07"/>
</a>
</g>
</g>
<!-- Node15&#45;&gt;Node7 -->
<g id="edge31_Node000015_Node000007" class="edge">
<title>Node15&#45;&gt;Node7</title>
<g id="a_edge31_Node000015_Node000007"><a xlink:title=" ">
<path fill="none" stroke="#63b8ff" d="M514.98,-502.81C394.67,-495.42 152,-471.33 152,-397.38 152,-397.38 152,-397.38 152,-119.12 152,-55.55 218.74,-72.28 280,-55.25 373.66,-29.21 660.7,-16.69 783.88,-12.4"/>
<polygon fill="#63b8ff" stroke="#63b8ff" points="514.53,-506.29 524.72,-503.39 514.94,-499.3 514.53,-506.29"/>
</a>
</g>
</g>
<!-- Node15&#45;&gt;Node9 -->
<g id="edge30_Node000015_Node000009" class="edge">
<title>Node15&#45;&gt;Node9</title>
<g id="a_edge30_Node000015_Node000009"><a xlink:title=" ">
<path fill="none" stroke="#63b8ff" d="M567.41,-488.22C560.54,-479.31 552.51,-468.87 546.92,-461.61"/>
<polygon fill="#63b8ff" stroke="#63b8ff" points="564.43,-490.09 573.31,-495.88 569.98,-485.82 564.43,-490.09"/>
</a>
</g>
</g>
<!-- Node15&#45;&gt;Node11 -->
<g id="edge29_Node000015_Node000011" class="edge">
<title>Node15&#45;&gt;Node11</title>
<g id="a_edge29_Node000015_Node000011"><a xlink:title=" ">
<path fill="none" stroke="#63b8ff" d="M604.17,-490.84C633.18,-471.81 684.14,-437.68 726,-406 750.65,-387.34 778.25,-363.75 792.78,-351.1"/>
<polygon fill="#63b8ff" stroke="#63b8ff" points="602.61,-487.68 596.15,-496.08 606.43,-493.54 602.61,-487.68"/>
</a>
</g>
</g>
<!-- Node16&#45;&gt;Node7 -->
<g id="edge42_Node000016_Node000007" class="edge">
<title>Node16&#45;&gt;Node7</title>
<g id="a_edge42_Node000016_Node000007"><a xlink:title=" ">
<path fill="none" stroke="#63b8ff" d="M938.72,-549.17C988.14,-535.79 1058.98,-509.37 1102,-461.25 1156.34,-400.46 1159,-368.41 1159,-286.88 1159,-286.88 1159,-286.88 1159,-119.12 1159,-71.87 1117.21,-74.38 1074,-55.25 1017.32,-30.15 946.76,-19.14 898.22,-14.33"/>
<polygon fill="#63b8ff" stroke="#63b8ff" points="937.85,-545.78 929.05,-551.68 939.61,-552.55 937.85,-545.78"/>
</a>
</g>
</g>
<!-- Node16&#45;&gt;Node8 -->
<g id="edge35_Node000016_Node000008" class="edge">
<title>Node16&#45;&gt;Node8</title>
<g id="a_edge35_Node000016_Node000008"><a xlink:title=" ">
<path fill="none" stroke="#63b8ff" d="M895.2,-542.93C913.15,-514.95 945.86,-459 958,-406 972.91,-340.89 924.15,-265.87 905.74,-240.52"/>
<polygon fill="#63b8ff" stroke="#63b8ff" points="892.49,-540.68 889.94,-550.96 898.35,-544.51 892.49,-540.68"/>
</a>
</g>
</g>
<!-- Node16&#45;&gt;Node9 -->
<g id="edge39_Node000016_Node000009" class="edge">
<title>Node16&#45;&gt;Node9</title>
<g id="a_edge39_Node000016_Node000009"><a xlink:title=" ">
<path fill="none" stroke="#63b8ff" d="M843.39,-548.6C773.56,-526.51 630.12,-481.13 568.81,-461.74"/>
<polygon fill="#63b8ff" stroke="#63b8ff" points="842.31,-551.93 852.9,-551.6 844.42,-545.25 842.31,-551.93"/>
</a>
</g>
</g>
<!-- Node16&#45;&gt;Node10 -->
<g id="edge41_Node000016_Node000010" class="edge">
<title>Node16&#45;&gt;Node10</title>
<g id="a_edge41_Node000016_Node000010"><a xlink:title=" ">
<path fill="none" stroke="#63b8ff" d="M883.86,-540.97C885.39,-505.11 888.54,-431.6 889.62,-406.22"/>
<polygon fill="#63b8ff" stroke="#63b8ff" points="880.37,-540.67 883.44,-550.81 887.36,-540.97 880.37,-540.67"/>
</a>
</g>
</g>
<!-- Node16&#45;&gt;Node15 -->
<g id="edge40_Node000016_Node000015" class="edge">
<title>Node16&#45;&gt;Node15</title>
<g id="a_edge40_Node000016_Node000015"><a xlink:title=" ">
<path fill="none" stroke="#63b8ff" d="M820.31,-550.07C764.74,-540.27 684.56,-526.13 632.61,-516.98"/>
<polygon fill="#63b8ff" stroke="#63b8ff" points="819.48,-553.48 829.94,-551.77 820.7,-546.59 819.48,-553.48"/>
</a>
</g>
</g>
<!-- Node17 -->
<g id="Node000017" class="node">
<title>Node17</title>
<g id="a_Node000017"><a xlink:href="../../dd/d50/_matcher_8hpp.html" target="_top" xlink:title=" ">
<polygon fill="white" stroke="#666666" points="1093.25,-461.25 982.75,-461.25 982.75,-442 1093.25,-442 1093.25,-461.25"/>
<text text-anchor="middle" x="1038" y="-447.75" font-family="Helvetica,sans-Serif" font-size="10.00">mimic++/Matcher.hpp</text>
</a>
</g>
</g>
<!-- Node16&#45;&gt;Node17 -->
<g id="edge36_Node000016_Node000017" class="edge">
<title>Node16&#45;&gt;Node17</title>
<g id="a_edge36_Node000016_Node000017"><a xlink:title=" ">
<path fill="none" stroke="#63b8ff" d="M905.2,-545.58C938.12,-522.54 998.82,-480.05 1025.2,-461.59"/>
<polygon fill="#63b8ff" stroke="#63b8ff" points="903.37,-542.59 897.19,-551.19 907.39,-548.33 903.37,-542.59"/>
</a>
</g>
</g>
<!-- Node17&#45;&gt;Node7 -->
<g id="edge38_Node000017_Node000007" class="edge">
<title>Node17&#45;&gt;Node7</title>
<g id="a_edge38_Node000017_Node000007"><a xlink:title=" ">
<path fill="none" stroke="#63b8ff" d="M1049.97,-432.63C1072.95,-396.28 1121,-310.82 1121,-231.62 1121,-231.62 1121,-231.62 1121,-119.12 1121,-70.8 1076.97,-75.31 1033,-55.25 989.88,-35.57 937.22,-24.13 897.96,-17.76"/>
<polygon fill="#63b8ff" stroke="#63b8ff" points="1047.29,-430.33 1044.79,-440.63 1053.16,-434.14 1047.29,-430.33"/>
</a>
</g>
</g>
<!-- Node17&#45;&gt;Node8 -->
<g id="edge37_Node000017_Node000008" class="edge">
<title>Node17&#45;&gt;Node8</title>
<g id="a_edge37_Node000017_Node000008"><a xlink:title=" ">
<path fill="none" stroke="#63b8ff" d="M1036.55,-430.42C1033.04,-395.29 1021.34,-322.32 983,-276.25 968.74,-259.11 946.16,-247.64 928,-240.62"/>
<polygon fill="#63b8ff" stroke="#63b8ff" points="1033.03,-430.35 1037.37,-440.02 1040,-429.76 1033.03,-430.35"/>
</a>
</g>
</g>
<!-- Node18&#45;&gt;Node2 -->
<g id="edge47_Node000018_Node000002" class="edge">
<title>Node18&#45;&gt;Node2</title>
<g id="a_edge47_Node000018_Node000002"><a xlink:title=" ">
<path fill="none" stroke="#63b8ff" d="M931.41,-609.72C831.21,-598.9 635.14,-577.72 546.04,-568.1"/>
<polygon fill="#63b8ff" stroke="#63b8ff" points="930.73,-613.17 941.05,-610.76 931.49,-606.21 930.73,-613.17"/>
</a>
</g>
</g>
<!-- Node18&#45;&gt;Node7 -->
<g id="edge52_Node000018_Node000007" class="edge">
<title>Node18&#45;&gt;Node7</title>
<g id="a_edge52_Node000018_Node000007"><a xlink:title=" ">
<path fill="none" stroke="#63b8ff" d="M1054.73,-609.62C1114.78,-599.22 1197,-573.07 1197,-507.88 1197,-507.88 1197,-507.88 1197,-119.12 1197,-72.58 1156.71,-73.76 1114,-55.25 1043.72,-24.79 955.04,-14.96 898.17,-11.88"/>
<polygon fill="#63b8ff" stroke="#63b8ff" points="1054.24,-606.15 1044.92,-611.2 1055.35,-613.06 1054.24,-606.15"/>
</a>
</g>
</g>
<!-- Node18&#45;&gt;Node8 -->
<g id="edge49_Node000018_Node000008" class="edge">
<title>Node18&#45;&gt;Node8</title>
<g id="a_edge49_Node000018_Node000008"><a xlink:title=" ">
<path fill="none" stroke="#63b8ff" d="M1048.9,-604.32C1097.1,-590.24 1159,-561.7 1159,-507.88 1159,-507.88 1159,-507.88 1159,-450.62 1159,-331.26 996.72,-263.81 928.57,-240.75"/>
<polygon fill="#63b8ff" stroke="#63b8ff" points="1048.09,-600.91 1039.38,-606.94 1049.95,-607.66 1048.09,-600.91"/>
</a>
</g>
</g>
<!-- Node18&#45;&gt;Node10 -->
<g id="edge51_Node000018_Node000010" class="edge">
<title>Node18&#45;&gt;Node10</title>
<g id="a_edge51_Node000018_Node000010"><a xlink:title=" ">
<path fill="none" stroke="#63b8ff" d="M984.02,-597.28C962.63,-551.8 909.31,-438.42 894.1,-406.1"/>
<polygon fill="#63b8ff" stroke="#63b8ff" points="980.77,-598.59 988.19,-606.15 987.1,-595.61 980.77,-598.59"/>
</a>
</g>
</g>
<!-- Node18&#45;&gt;Node11 -->
<g id="edge48_Node000018_Node000011" class="edge">
<title>Node18&#45;&gt;Node11</title>
<g id="a_edge48_Node000018_Node000011"><a xlink:title=" ">
<path fill="none" stroke="#63b8ff" d="M931.42,-614.86C895.19,-610.77 850.96,-599.75 822,-571.75 800.71,-551.16 803,-537.49 803,-507.88 803,-507.88 803,-507.88 803,-450.62 803,-413.7 803,-369.72 803,-351.13"/>
<polygon fill="#63b8ff" stroke="#63b8ff" points="931.07,-618.34 941.36,-615.81 931.74,-611.37 931.07,-618.34"/>
</a>
</g>
</g>
<!-- Node18&#45;&gt;Node17 -->
<g id="edge50_Node000018_Node000017" class="edge">
<title>Node18&#45;&gt;Node17</title>
<g id="a_edge50_Node000018_Node000017"><a xlink:title=" ">
<path fill="none" stroke="#63b8ff" d="M999.41,-596.67C1001.87,-588.93 1004.65,-579.95 1007,-571.75 1018.72,-530.87 1030.95,-481.56 1035.82,-461.63"/>
<polygon fill="#63b8ff" stroke="#63b8ff" points="996.11,-595.49 996.38,-606.08 1002.78,-597.64 996.11,-595.49"/>
</a>
</g>
</g>
</g>
</svg>
