<?xml version="1.0" encoding="UTF-8" standalone="no"?>
<!DOCTYPE svg PUBLIC "-//W3C//DTD SVG 1.1//EN"
 "http://www.w3.org/Graphics/SVG/1.1/DTD/svg11.dtd">
<!-- Generated by graphviz version 9.0.0 (20230911.1827)
 -->
<!-- Title: mimic++/Fwd.hpp Pages: 1 -->
<svg width="557pt" height="414pt"
 viewBox="0.00 0.00 556.97 414.00" xmlns="http://www.w3.org/2000/svg" xmlns:xlink="http://www.w3.org/1999/xlink">
<g id="graph0" class="graph" transform="scale(1 1) rotate(0) translate(4 410)">
<title>mimic++/Fwd.hpp</title>
<!-- Node1 -->
<g id="Node000001" class="node">
<title>Node1</title>
<g id="a_Node000001"><a xlink:title=" ">
<polygon fill="#999999" stroke="#666666" points="338.22,-406 244.22,-406 244.22,-386.75 338.22,-386.75 338.22,-406"/>
<text text-anchor="middle" x="291.22" y="-392.5" font-family="Helvetica,sans-Serif" font-size="10.00">mimic++/Fwd.hpp</text>
</a>
</g>
</g>
<!-- Node2 -->
<g id="Node000002" class="node">
<title>Node2</title>
<g id="a_Node000002"><a xlink:href="../../dc/d44/_call_8hpp.html" target="_top" xlink:title=" ">
<polygon fill="white" stroke="#666666" points="431.09,-295.5 339.34,-295.5 339.34,-276.25 431.09,-276.25 431.09,-295.5"/>
<text text-anchor="middle" x="385.22" y="-282" font-family="Helvetica,sans-Serif" font-size="10.00">mimic++/Call.hpp</text>
</a>
</g>
</g>
<!-- Node1&#45;&gt;Node2 -->
<g id="edge1_Node000001_Node000002" class="edge">
<title>Node1&#45;&gt;Node2</title>
<g id="a_edge1_Node000001_Node000002"><a xlink:title=" ">
<path fill="none" stroke="#63b8ff" d="M306.34,-377.91C326.61,-354.52 361.84,-313.86 377.42,-295.88"/>
<polygon fill="#63b8ff" stroke="#63b8ff" points="303.8,-375.5 299.9,-385.35 309.09,-380.09 303.8,-375.5"/>
</a>
</g>
</g>
<!-- Node8 -->
<g id="Node000008" class="node">
<title>Node8</title>
<g id="a_Node000008"><a xlink:href="../../da/dd9/_reporter_8hpp.html" target="_top" xlink:title=" ">
<polygon fill="white" stroke="#666666" points="380.22,-240.25 268.22,-240.25 268.22,-221 380.22,-221 380.22,-240.25"/>
<text text-anchor="middle" x="324.22" y="-226.75" font-family="Helvetica,sans-Serif" font-size="10.00">mimic++/Reporter.hpp</text>
</a>
</g>
</g>
<!-- Node1&#45;&gt;Node8 -->
<g id="edge22_Node000001_Node000008" class="edge">
<title>Node1&#45;&gt;Node8</title>
<g id="a_edge22_Node000001_Node000008"><a xlink:title=" ">
<path fill="none" stroke="#63b8ff" d="M295.18,-375.69C302.37,-340 317.3,-265.96 322.43,-240.47"/>
<polygon fill="#63b8ff" stroke="#63b8ff" points="291.83,-374.59 293.29,-385.09 298.7,-375.98 291.83,-374.59"/>
</a>
</g>
</g>
<!-- Node11 -->
<g id="Node000011" class="node">
<title>Node11</title>
<g id="a_Node000011"><a xlink:href="../../da/dab/_printer_8hpp.html" target="_top" xlink:title=" ">
<polygon fill="white" stroke="#666666" points="283.09,-295.5 179.34,-295.5 179.34,-276.25 283.09,-276.25 283.09,-295.5"/>
<text text-anchor="middle" x="231.22" y="-282" font-family="Helvetica,sans-Serif" font-size="10.00">mimic++/Printer.hpp</text>
</a>
</g>
</g>
<!-- Node1&#45;&gt;Node11 -->
<g id="edge16_Node000001_Node000011" class="edge">
<title>Node1&#45;&gt;Node11</title>
<g id="a_edge16_Node000001_Node000011"><a xlink:title=" ">
<path fill="none" stroke="#63b8ff" d="M280.86,-376.65C267.83,-353.08 245.96,-313.54 236.19,-295.88"/>
<polygon fill="#63b8ff" stroke="#63b8ff" points="277.67,-378.11 285.57,-385.17 283.8,-374.73 277.67,-378.11"/>
</a>
</g>
</g>
<!-- Node13 -->
<g id="Node000013" class="node">
<title>Node13</title>
<g id="a_Node000013"><a xlink:href="../../d4/d2c/_utility_8hpp.html" target="_top" xlink:title=" ">
<polygon fill="white" stroke="#666666" points="201.22,-350.75 101.22,-350.75 101.22,-331.5 201.22,-331.5 201.22,-350.75"/>
<text text-anchor="middle" x="151.22" y="-337.25" font-family="Helvetica,sans-Serif" font-size="10.00">mimic++/Utility.hpp</text>
</a>
</g>
</g>
<!-- Node1&#45;&gt;Node13 -->
<g id="edge23_Node000001_Node000013" class="edge">
<title>Node1&#45;&gt;Node13</title>
<g id="a_edge23_Node000001_Node000013"><a xlink:title=" ">
<path fill="none" stroke="#63b8ff" d="M256.82,-382.29C231.44,-372.64 197.55,-359.75 175.08,-351.2"/>
<polygon fill="#63b8ff" stroke="#63b8ff" points="255.46,-385.52 266.05,-385.8 257.95,-378.98 255.46,-385.52"/>
</a>
</g>
</g>
<!-- Node3 -->
<g id="Node000003" class="node">
<title>Node3</title>
<g id="a_Node000003"><a xlink:href="../../d5/d8a/_expectation_8hpp.html" target="_top" xlink:title=" ">
<polygon fill="white" stroke="#666666" points="548.97,-185 423.47,-185 423.47,-165.75 548.97,-165.75 548.97,-185"/>
<text text-anchor="middle" x="486.22" y="-171.5" font-family="Helvetica,sans-Serif" font-size="10.00">mimic++/Expectation.hpp</text>
</a>
</g>
</g>
<!-- Node2&#45;&gt;Node3 -->
<g id="edge2_Node000002_Node000003" class="edge">
<title>Node2&#45;&gt;Node3</title>
<g id="a_edge2_Node000002_Node000003"><a xlink:title=" ">
<path fill="none" stroke="#63b8ff" d="M401.18,-267.72C422.91,-244.38 461.02,-203.44 477.84,-185.38"/>
<polygon fill="#63b8ff" stroke="#63b8ff" points="398.76,-265.18 394.51,-274.89 403.89,-269.95 398.76,-265.18"/>
</a>
</g>
</g>
<!-- Node2&#45;&gt;Node8 -->
<g id="edge12_Node000002_Node000008" class="edge">
<title>Node2&#45;&gt;Node8</title>
<g id="a_edge12_Node000002_Node000008"><a xlink:title=" ">
<path fill="none" stroke="#63b8ff" d="M366.33,-268.39C355.8,-259.19 343.09,-248.1 334.41,-240.52"/>
<polygon fill="#63b8ff" stroke="#63b8ff" points="363.89,-270.91 373.73,-274.85 368.5,-265.63 363.89,-270.91"/>
</a>
</g>
</g>
<!-- Node4 -->
<g id="Node000004" class="node">
<title>Node4</title>
<g id="a_Node000004"><a xlink:href="../../d3/d4c/_complex_mock_8hpp.html" target="_top" xlink:title=" ">
<polygon fill="white" stroke="#666666" points="528.59,-19.25 391.84,-19.25 391.84,0 528.59,0 528.59,-19.25"/>
<text text-anchor="middle" x="460.22" y="-5.75" font-family="Helvetica,sans-Serif" font-size="10.00">mimic++/ComplexMock.hpp</text>
</a>
</g>
</g>
<!-- Node3&#45;&gt;Node4 -->
<g id="edge3_Node000003_Node000004" class="edge">
<title>Node3&#45;&gt;Node4</title>
<g id="a_edge3_Node000003_Node000004"><a xlink:title=" ">
<path fill="none" stroke="#63b8ff" d="M502.25,-156.96C522.15,-133.14 551.26,-89.45 532.22,-55.25 522.63,-38.03 503.35,-26.61 487.16,-19.64"/>
<polygon fill="#63b8ff" stroke="#63b8ff" points="499.89,-154.35 495.95,-164.19 505.16,-158.96 499.89,-154.35"/>
</a>
</g>
</g>
<!-- Node5 -->
<g id="Node000005" class="node">
<title>Node5</title>
<g id="a_Node000005"><a xlink:href="../../d2/d4f/_expectation_builder_8hpp.html" target="_top" xlink:title=" ">
<polygon fill="white" stroke="#666666" points="522.97,-74.5 367.47,-74.5 367.47,-55.25 522.97,-55.25 522.97,-74.5"/>
<text text-anchor="middle" x="445.22" y="-61" font-family="Helvetica,sans-Serif" font-size="10.00">mimic++/ExpectationBuilder.hpp</text>
</a>
</g>
</g>
<!-- Node3&#45;&gt;Node5 -->
<g id="edge4_Node000003_Node000005" class="edge">
<title>Node3&#45;&gt;Node5</title>
<g id="a_edge4_Node000003_Node000005"><a xlink:title=" ">
<path fill="none" stroke="#63b8ff" d="M478.9,-155.01C469.96,-131.37 455.23,-92.38 448.62,-74.88"/>
<polygon fill="#63b8ff" stroke="#63b8ff" points="475.52,-155.96 482.33,-164.08 482.07,-153.49 475.52,-155.96"/>
</a>
</g>
</g>
<!-- Node6 -->
<g id="Node000006" class="node">
<title>Node6</title>
<g id="a_Node000006"><a xlink:href="../../d5/dc5/_mock_8hpp.html" target="_top" xlink:title=" ">
<polygon fill="white" stroke="#666666" points="373.84,-19.25 274.59,-19.25 274.59,0 373.84,0 373.84,-19.25"/>
<text text-anchor="middle" x="324.22" y="-5.75" font-family="Helvetica,sans-Serif" font-size="10.00">mimic++/Mock.hpp</text>
</a>
</g>
</g>
<!-- Node3&#45;&gt;Node6 -->
<g id="edge11_Node000003_Node000006" class="edge">
<title>Node3&#45;&gt;Node6</title>
<g id="a_edge11_Node000003_Node000006"><a xlink:title=" ">
<path fill="none" stroke="#63b8ff" d="M460.95,-159.25C433.1,-141.62 388.28,-110.29 358.22,-74.5 343.67,-57.19 332.77,-32.64 327.58,-19.59"/>
<polygon fill="#63b8ff" stroke="#63b8ff" points="459.09,-162.22 469.44,-164.52 462.78,-156.27 459.09,-162.22"/>
</a>
</g>
</g>
<!-- Node7 -->
<g id="Node000007" class="node">
<title>Node7</title>
<g id="a_Node000007"><a xlink:href="../../d8/de5/_expectation_policies_8hpp.html" target="_top" xlink:title=" ">
<polygon fill="white" stroke="#666666" points="311.22,-129.75 151.22,-129.75 151.22,-110.5 311.22,-110.5 311.22,-129.75"/>
<text text-anchor="middle" x="231.22" y="-116.25" font-family="Helvetica,sans-Serif" font-size="10.00">mimic++/ExpectationPolicies.hpp</text>
</a>
</g>
</g>
<!-- Node3&#45;&gt;Node7 -->
<g id="edge7_Node000003_Node000007" class="edge">
<title>Node3&#45;&gt;Node7</title>
<g id="a_edge7_Node000003_Node000007"><a xlink:title=" ">
<path fill="none" stroke="#63b8ff" d="M431.49,-162.95C384.57,-153.15 317.88,-139.22 274.58,-130.18"/>
<polygon fill="#63b8ff" stroke="#63b8ff" points="430.68,-166.35 441.19,-164.97 432.11,-159.5 430.68,-166.35"/>
</a>
</g>
</g>
<!-- Node5&#45;&gt;Node4 -->
<g id="edge5_Node000005_Node000004" class="edge">
<title>Node5&#45;&gt;Node4</title>
<g id="a_edge5_Node000005_Node000004"><a xlink:title=" ">
<path fill="none" stroke="#63b8ff" d="M450.76,-44.21C453.13,-35.77 455.79,-26.33 457.69,-19.61"/>
<polygon fill="#63b8ff" stroke="#63b8ff" points="447.45,-43.05 448.1,-53.63 454.18,-44.95 447.45,-43.05"/>
</a>
</g>
</g>
<!-- Node5&#45;&gt;Node6 -->
<g id="edge6_Node000005_Node000006" class="edge">
<title>Node5&#45;&gt;Node6</title>
<g id="a_edge6_Node000005_Node000006"><a xlink:title=" ">
<path fill="none" stroke="#63b8ff" d="M414.3,-50.27C392.51,-40.68 363.91,-28.09 344.84,-19.7"/>
<polygon fill="#63b8ff" stroke="#63b8ff" points="412.74,-53.41 423.3,-54.23 415.56,-47 412.74,-53.41"/>
</a>
</g>
</g>
<!-- Node7&#45;&gt;Node4 -->
<g id="edge8_Node000007_Node000004" class="edge">
<title>Node7&#45;&gt;Node4</title>
<g id="a_edge8_Node000007_Node000004"><a xlink:title=" ">
<path fill="none" stroke="#63b8ff" d="M258.38,-104.93C283.96,-91.7 323.42,-71.6 358.22,-55.25 385.68,-42.35 417.82,-28.49 438.57,-19.7"/>
<polygon fill="#63b8ff" stroke="#63b8ff" points="256.93,-101.74 249.67,-109.45 260.16,-107.95 256.93,-101.74"/>
</a>
</g>
</g>
<!-- Node7&#45;&gt;Node5 -->
<g id="edge9_Node000007_Node000005" class="edge">
<title>Node7&#45;&gt;Node5</title>
<g id="a_edge9_Node000007_Node000005"><a xlink:title=" ">
<path fill="none" stroke="#63b8ff" d="M278.65,-107.32C317.9,-97.55 372.86,-83.88 408.74,-74.95"/>
<polygon fill="#63b8ff" stroke="#63b8ff" points="277.85,-103.92 268.99,-109.73 279.54,-110.71 277.85,-103.92"/>
</a>
</g>
</g>
<!-- Node7&#45;&gt;Node6 -->
<g id="edge10_Node000007_Node000006" class="edge">
<title>Node7&#45;&gt;Node6</title>
<g id="a_edge10_Node000007_Node000006"><a xlink:title=" ">
<path fill="none" stroke="#63b8ff" d="M243.9,-100.81C253.21,-87.73 266.41,-69.94 279.22,-55.25 290.64,-42.15 305.1,-28.22 314.5,-19.48"/>
<polygon fill="#63b8ff" stroke="#63b8ff" points="241.1,-98.7 238.22,-108.89 246.83,-102.72 241.1,-98.7"/>
</a>
</g>
</g>
<!-- Node8&#45;&gt;Node3 -->
<g id="edge13_Node000008_Node000003" class="edge">
<title>Node8&#45;&gt;Node3</title>
<g id="a_edge13_Node000008_Node000003"><a xlink:title=" ">
<path fill="none" stroke="#63b8ff" d="M362.44,-217.06C391.97,-207.35 432.14,-194.15 458.6,-185.45"/>
<polygon fill="#63b8ff" stroke="#63b8ff" points="361.54,-213.67 353.14,-220.12 363.73,-220.32 361.54,-213.67"/>
</a>
</g>
</g>
<!-- Node9 -->
<g id="Node000009" class="node">
<title>Node9</title>
<g id="a_Node000009"><a xlink:href="../../d8/de4/_sequence_8hpp.html" target="_top" xlink:title=" ">
<polygon fill="white" stroke="#666666" points="203.59,-185 84.84,-185 84.84,-165.75 203.59,-165.75 203.59,-185"/>
<text text-anchor="middle" x="144.22" y="-171.5" font-family="Helvetica,sans-Serif" font-size="10.00">mimic++/Sequence.hpp</text>
</a>
</g>
</g>
<!-- Node8&#45;&gt;Node9 -->
<g id="edge14_Node000008_Node000009" class="edge">
<title>Node8&#45;&gt;Node9</title>
<g id="a_edge14_Node000008_Node000009"><a xlink:title=" ">
<path fill="none" stroke="#63b8ff" d="M283.04,-217.44C250.11,-207.7 204.69,-194.27 174.9,-185.45"/>
<polygon fill="#63b8ff" stroke="#63b8ff" points="281.65,-220.68 292.23,-220.16 283.63,-213.97 281.65,-220.68"/>
</a>
</g>
</g>
<!-- Node10 -->
<g id="Node000010" class="node">
<title>Node10</title>
<g id="a_Node000010"><a xlink:href="../../d3/d04/_catch2_8hpp.html" target="_top" xlink:title=" ">
<polygon fill="white" stroke="#666666" points="405.47,-185 258.97,-185 258.97,-165.75 405.47,-165.75 405.47,-185"/>
<text text-anchor="middle" x="332.22" y="-171.5" font-family="Helvetica,sans-Serif" font-size="10.00">mimic++/adapters/Catch2.hpp</text>
</a>
</g>
</g>
<!-- Node8&#45;&gt;Node10 -->
<g id="edge15_Node000008_Node000010" class="edge">
<title>Node8&#45;&gt;Node10</title>
<g id="a_edge15_Node000008_Node000010"><a xlink:title=" ">
<path fill="none" stroke="#63b8ff" d="M327.21,-209.67C328.47,-201.3 329.87,-192 330.87,-185.36"/>
<polygon fill="#63b8ff" stroke="#63b8ff" points="323.79,-208.93 325.76,-219.34 330.71,-209.97 323.79,-208.93"/>
</a>
</g>
</g>
<!-- Node11&#45;&gt;Node7 -->
<g id="edge17_Node000011_Node000007" class="edge">
<title>Node11&#45;&gt;Node7</title>
<g id="a_edge17_Node000011_Node000007"><a xlink:title=" ">
<path fill="none" stroke="#63b8ff" d="M231.22,-264.72C231.22,-228.86 231.22,-155.35 231.22,-129.97"/>
<polygon fill="#63b8ff" stroke="#63b8ff" points="227.72,-264.56 231.22,-274.56 234.72,-264.56 227.72,-264.56"/>
</a>
</g>
</g>
<!-- Node11&#45;&gt;Node8 -->
<g id="edge20_Node000011_Node000008" class="edge">
<title>Node11&#45;&gt;Node8</title>
<g id="a_edge20_Node000011_Node000008"><a xlink:title=" ">
<path fill="none" stroke="#63b8ff" d="M256.6,-270.34C273.13,-260.88 294.18,-248.83 308.36,-240.7"/>
<polygon fill="#63b8ff" stroke="#63b8ff" points="255.24,-267.08 248.31,-275.09 258.72,-273.16 255.24,-267.08"/>
</a>
</g>
</g>
<!-- Node11&#45;&gt;Node9 -->
<g id="edge21_Node000011_Node000009" class="edge">
<title>Node11&#45;&gt;Node9</title>
<g id="a_edge21_Node000011_Node000009"><a xlink:title=" ">
<path fill="none" stroke="#63b8ff" d="M216.96,-267.1C198.17,-243.66 165.79,-203.28 151.43,-185.38"/>
<polygon fill="#63b8ff" stroke="#63b8ff" points="214.16,-269.2 223.15,-274.82 219.62,-264.82 214.16,-269.2"/>
</a>
</g>
</g>
<!-- Node12 -->
<g id="Node000012" class="node">
<title>Node12</title>
<g id="a_Node000012"><a xlink:href="../../dd/d50/_matcher_8hpp.html" target="_top" xlink:title=" ">
<polygon fill="white" stroke="#666666" points="123.47,-240.25 12.97,-240.25 12.97,-221 123.47,-221 123.47,-240.25"/>
<text text-anchor="middle" x="68.22" y="-226.75" font-family="Helvetica,sans-Serif" font-size="10.00">mimic++/Matcher.hpp</text>
</a>
</g>
</g>
<!-- Node11&#45;&gt;Node12 -->
<g id="edge18_Node000011_Node000012" class="edge">
<title>Node11&#45;&gt;Node12</title>
<g id="a_edge18_Node000011_Node000012"><a xlink:title=" ">
<path fill="none" stroke="#63b8ff" d="M192.75,-272.31C163.04,-262.6 122.63,-249.4 96,-240.7"/>
<polygon fill="#63b8ff" stroke="#63b8ff" points="191.53,-275.59 202.13,-275.37 193.71,-268.94 191.53,-275.59"/>
</a>
</g>
</g>
<!-- Node12&#45;&gt;Node7 -->
<g id="edge19_Node000012_Node000007" class="edge">
<title>Node12&#45;&gt;Node7</title>
<g id="a_edge19_Node000012_Node000007"><a xlink:title=" ">
<path fill="none" stroke="#63b8ff" d="M65.38,-209.29C64.62,-195.46 66.09,-177.59 76.22,-165.75 94.87,-143.94 123.44,-132.44 150.99,-126.49"/>
<polygon fill="#63b8ff" stroke="#63b8ff" points="61.88,-209.47 66.37,-219.07 68.84,-208.77 61.88,-209.47"/>
</a>
</g>
</g>
<!-- Node13&#45;&gt;Node2 -->
<g id="edge24_Node000013_Node000002" class="edge">
<title>Node13&#45;&gt;Node2</title>
<g id="a_edge24_Node000013_Node000002"><a xlink:title=" ">
<path fill="none" stroke="#63b8ff" d="M202.26,-328.51C245.27,-318.72 305.94,-304.92 345.42,-295.93"/>
<polygon fill="#63b8ff" stroke="#63b8ff" points="201.63,-325.06 192.65,-330.7 203.18,-331.89 201.63,-325.06"/>
</a>
</g>
</g>
<!-- Node13&#45;&gt;Node7 -->
<g id="edge25_Node000013_Node000007" class="edge">
<title>Node13&#45;&gt;Node7</title>
<g id="a_edge25_Node000013_Node000007"><a xlink:title=" ">
<path fill="none" stroke="#63b8ff" d="M108.76,-327.47C57.61,-309.66 -18.77,-273.41 4.22,-221 28.77,-165.01 95.93,-140.4 150.87,-129.59"/>
<polygon fill="#63b8ff" stroke="#63b8ff" points="107.53,-330.75 118.12,-330.61 109.76,-324.11 107.53,-330.75"/>
</a>
</g>
</g>
<!-- Node13&#45;&gt;Node9 -->
<g id="edge27_Node000013_Node000009" class="edge">
<title>Node13&#45;&gt;Node9</title>
<g id="a_edge27_Node000013_Node000009"><a xlink:title=" ">
<path fill="none" stroke="#63b8ff" d="M150.35,-319.97C148.82,-284.11 145.68,-210.6 144.59,-185.22"/>
<polygon fill="#63b8ff" stroke="#63b8ff" points="146.85,-319.97 150.78,-329.81 153.84,-319.67 146.85,-319.97"/>
</a>
</g>
</g>
<!-- Node13&#45;&gt;Node12 -->
<g id="edge26_Node000013_Node000012" class="edge">
<title>Node13&#45;&gt;Node12</title>
<g id="a_edge26_Node000013_Node000012"><a xlink:title=" ">
<path fill="none" stroke="#63b8ff" d="M137.62,-322.35C119.68,-298.91 88.8,-258.53 75.1,-240.63"/>
<polygon fill="#63b8ff" stroke="#63b8ff" points="134.65,-324.23 143.5,-330.04 140.21,-319.97 134.65,-324.23"/>
</a>
</g>
</g>
</g>
</svg>
