<?xml version="1.0" encoding="UTF-8" standalone="no"?>
<!DOCTYPE svg PUBLIC "-//W3C//DTD SVG 1.1//EN"
 "http://www.w3.org/Graphics/SVG/1.1/DTD/svg11.dtd">
<!-- Generated by graphviz version 12.1.1 (20240910.0053)
 -->
<!-- Title: mimic++/Fwd.hpp Pages: 1 -->
<!--zoomable 635 -->

<svg id="main" version="1.1" xmlns="http://www.w3.org/2000/svg" xmlns:xlink="http://www.w3.org/1999/xlink" xml:space="preserve" onload="init(evt)">

<style type="text/css"><![CDATA[
.node, .edge {opacity: 0.7;}
.node.selected, .edge.selected {opacity: 1;}
.edge:hover path { stroke: red; }
.edge:hover polygon { stroke: red; fill: red; }
]]></style>

<defs>
  <circle id="rim" cx="0" cy="0" r="7"/>
  <circle id="rim2" cx="0" cy="0" r="3.5"/>
  <g id="zoomPlus">
    <use xlink:href="#rim" fill="#404040"><set attributeName="fill" to="#808080" begin="zoomplus.mouseover" end="zoomplus.mouseout"/></use>
    <path d="M-4,0h8M0,-4v8" fill="none" stroke="white" stroke-width="1.5" pointer-events="none"/>
  </g>
  <g id="zoomMin">
    <use xlink:href="#rim" fill="#404040"><set attributeName="fill" to="#808080" begin="zoomminus.mouseover" end="zoomminus.mouseout"/></use>
    <path d="M-4,0h8" fill="none" stroke="white" stroke-width="1.5" pointer-events="none"/>
  </g>
  <g id="arrowUp" transform="translate(30 24)">
    <use xlink:href="#rim"/>
    <path pointer-events="none" fill="none" stroke="white" stroke-width="1.5" d="M0,-3.0v7 M-2.5,-0.5L0,-3.0L2.5,-0.5"/>
  </g>
  <g id="arrowRight" transform="rotate(90) translate(36 -43)">
    <use xlink:href="#rim"/>
    <path pointer-events="none" fill="none" stroke="white" stroke-width="1.5" d="M0,-3.0v7 M-2.5,-0.5L0,-3.0L2.5,-0.5"/>
  </g>
  <g id="arrowDown" transform="rotate(180) translate(-30 -48)">
    <use xlink:href="#rim"/>
    <path pointer-events="none" fill="none" stroke="white" stroke-width="1.5" d="M0,-3.0v7 M-2.5,-0.5L0,-3.0L2.5,-0.5"/>
  </g>
  <g id="arrowLeft" transform="rotate(270) translate(-36 17)">
    <use xlink:href="#rim"/>
    <path pointer-events="none" fill="none" stroke="white" stroke-width="1.5" d="M0,-3.0v7 M-2.5,-0.5L0,-3.0L2.5,-0.5"/>
  </g>
  <g id="resetDef">
    <use xlink:href="#rim2" fill="#404040"><set attributeName="fill" to="#808080" begin="reset.mouseover" end="reset.mouseout"/></use>
  </g>
</defs>
<script type="application/ecmascript">
var viewWidth = 1182;
var viewHeight = 635;
var sectionId = 'dynsection-1';
</script>
<script type="application/ecmascript" xlink:href="../../svg.min.js"/>
<svg id="graph" class="graph">
<g id="viewport">
<title>mimic++/Fwd.hpp</title>
<!-- Node1 -->
<g id="Node000001" class="node">
<title>Node1</title>
<g id="a_Node000001"><a xlink:title=" ">
<polygon fill="#999999" stroke="#666666" points="698,-627 604,-627 604,-607.75 698,-607.75 698,-627"/>
<text text-anchor="middle" x="651" y="-613.5" font-family="Helvetica,sans-Serif" font-size="10.00">mimic++/Fwd.hpp</text>
</a>
</g>
</g>
<!-- Node2 -->
<g id="Node000002" class="node">
<title>Node2</title>
<g id="a_Node000002"><a xlink:href="../../dc/d44/_call_8hpp.html" target="_top" xlink:title=" ">
<polygon fill="white" stroke="#666666" points="696.88,-516.5 605.12,-516.5 605.12,-497.25 696.88,-497.25 696.88,-516.5"/>
<text text-anchor="middle" x="651" y="-503" font-family="Helvetica,sans-Serif" font-size="10.00">mimic++/Call.hpp</text>
</a>
</g>
</g>
<!-- Node1&#45;&gt;Node2 -->
<g id="edge1_Node000001_Node000002" class="edge">
<title>Node1&#45;&gt;Node2</title>
<g id="a_edge1_Node000001_Node000002"><a xlink:title=" ">
<path fill="none" stroke="#63b8ff" d="M651,-596.03C651,-572.3 651,-534.14 651,-516.88"/>
<polygon fill="#63b8ff" stroke="#63b8ff" points="647.5,-595.98 651,-605.98 654.5,-595.98 647.5,-595.98"/>
</a>
</g>
</g>
<!-- Node6 -->
<g id="Node000006" class="node">
<title>Node6</title>
<g id="a_Node000006"><a xlink:href="../../d0/db9/mimic_09_09_8hpp.html" target="_top" xlink:title=" ">
<polygon fill="white" stroke="#666666" points="824.75,-19.25 711.25,-19.25 711.25,0 824.75,0 824.75,-19.25"/>
<text text-anchor="middle" x="768" y="-5.75" font-family="Helvetica,sans-Serif" font-size="10.00">mimic++/mimic++.hpp</text>
</a>
</g>
</g>
<!-- Node1&#45;&gt;Node6 -->
<g id="edge50_Node000001_Node000006" class="edge">
<title>Node1&#45;&gt;Node6</title>
<g id="a_edge50_Node000001_Node000006"><a xlink:title=" ">
<path fill="none" stroke="#63b8ff" d="M592.63,-612.76C432.83,-602.09 0,-567.67 0,-507.88 0,-507.88 0,-507.88 0,-119.12 0,-81.37 22.12,-71.9 56,-55.25 114.11,-26.69 552.41,-15.01 710.97,-11.69"/>
<polygon fill="#63b8ff" stroke="#63b8ff" points="591.94,-616.22 602.15,-613.39 592.4,-609.24 591.94,-616.22"/>
</a>
</g>
</g>
<!-- Node8 -->
<g id="Node000008" class="node">
<title>Node8</title>
<g id="a_Node000008"><a xlink:href="../../da/dd9/_reporter_8hpp.html" target="_top" xlink:title=" ">
<polygon fill="white" stroke="#666666" points="634,-406 522,-406 522,-386.75 634,-386.75 634,-406"/>
<text text-anchor="middle" x="578" y="-392.5" font-family="Helvetica,sans-Serif" font-size="10.00">mimic++/Reporter.hpp</text>
</a>
</g>
</g>
<!-- Node1&#45;&gt;Node8 -->
<g id="edge40_Node000001_Node000008" class="edge">
<title>Node1&#45;&gt;Node8</title>
<g id="a_edge40_Node000001_Node000008"><a xlink:title=" ">
<path fill="none" stroke="#63b8ff" d="M628.21,-601.05C593.79,-576.37 529.94,-524.14 505,-461.25 501.85,-453.3 500.82,-449.46 505,-442 514.66,-424.77 533.99,-413.4 550.33,-406.45"/>
<polygon fill="#63b8ff" stroke="#63b8ff" points="626.03,-603.8 636.23,-606.67 630.05,-598.07 626.03,-603.8"/>
</a>
</g>
</g>
<!-- Node9 -->
<g id="Node000009" class="node">
<title>Node9</title>
<g id="a_Node000009"><a xlink:href="../../d8/de4/_sequence_8hpp.html" target="_top" xlink:title=" ">
<polygon fill="white" stroke="#666666" points="873.38,-350.75 754.62,-350.75 754.62,-331.5 873.38,-331.5 873.38,-350.75"/>
<text text-anchor="middle" x="814" y="-337.25" font-family="Helvetica,sans-Serif" font-size="10.00">mimic++/Sequence.hpp</text>
</a>
</g>
</g>
<!-- Node1&#45;&gt;Node9 -->
<g id="edge42_Node000001_Node000009" class="edge">
<title>Node1&#45;&gt;Node9</title>
<g id="a_edge42_Node000001_Node000009"><a xlink:title=" ">
<path fill="none" stroke="#63b8ff" d="M662.16,-597.6C694.22,-543.66 785.75,-389.66 808.72,-351.01"/>
<polygon fill="#63b8ff" stroke="#63b8ff" points="659.3,-595.56 657.2,-605.95 665.31,-599.14 659.3,-595.56"/>
</a>
</g>
</g>
<!-- Node14 -->
<g id="Node000014" class="node">
<title>Node14</title>
<g id="a_Node000014"><a xlink:href="../../d0/d3b/_reports_8hpp.html" target="_top" xlink:title=" ">
<polygon fill="white" stroke="#666666" points="622.5,-461.25 513.5,-461.25 513.5,-442 622.5,-442 622.5,-461.25"/>
<text text-anchor="middle" x="568" y="-447.75" font-family="Helvetica,sans-Serif" font-size="10.00">mimic++/Reports.hpp</text>
</a>
</g>
</g>
<!-- Node1&#45;&gt;Node14 -->
<g id="edge41_Node000001_Node000014" class="edge">
<title>Node1&#45;&gt;Node14</title>
<g id="a_edge41_Node000001_Node000014"><a xlink:title=" ">
<path fill="none" stroke="#63b8ff" d="M639.96,-597.53C628.46,-577.65 610.19,-545.27 596,-516.5 586.47,-497.17 576.65,-473.84 571.56,-461.42"/>
<polygon fill="#63b8ff" stroke="#63b8ff" points="636.9,-599.24 644.96,-606.12 642.95,-595.72 636.9,-599.24"/>
</a>
</g>
</g>
<!-- Node15 -->
<g id="Node000015" class="node">
<title>Node15</title>
<g id="a_Node000015"><a xlink:href="../../da/dab/_printer_8hpp.html" target="_top" xlink:title=" ">
<polygon fill="white" stroke="#666666" points="865.88,-516.5 762.12,-516.5 762.12,-497.25 865.88,-497.25 865.88,-516.5"/>
<text text-anchor="middle" x="814" y="-503" font-family="Helvetica,sans-Serif" font-size="10.00">mimic++/Printer.hpp</text>
</a>
</g>
</g>
<!-- Node1&#45;&gt;Node15 -->
<g id="edge31_Node000001_Node000015" class="edge">
<title>Node1&#45;&gt;Node15</title>
<g id="a_edge31_Node000001_Node000015"><a xlink:title=" ">
<path fill="none" stroke="#63b8ff" d="M687.16,-603.16C706.1,-595.41 729.2,-584.61 748,-571.75 771.95,-555.36 795.2,-529.99 806.65,-516.69"/>
<polygon fill="#63b8ff" stroke="#63b8ff" points="685.96,-599.87 677.96,-606.81 688.54,-606.38 685.96,-599.87"/>
</a>
</g>
</g>
<!-- Node17 -->
<g id="Node000017" class="node">
<title>Node17</title>
<g id="a_Node000017"><a xlink:href="../../d4/d2c/_utility_8hpp.html" target="_top" xlink:title=" ">
<polygon fill="white" stroke="#666666" points="982,-571.75 882,-571.75 882,-552.5 982,-552.5 982,-571.75"/>
<text text-anchor="middle" x="932" y="-558.25" font-family="Helvetica,sans-Serif" font-size="10.00">mimic++/Utility.hpp</text>
</a>
</g>
</g>
<!-- Node1&#45;&gt;Node17 -->
<g id="edge43_Node000001_Node000017" class="edge">
<title>Node1&#45;&gt;Node17</title>
<g id="a_edge43_Node000001_Node000017"><a xlink:title=" ">
<path fill="none" stroke="#63b8ff" d="M709.34,-605.32C761.05,-595.52 835.65,-581.38 883.99,-572.22"/>
<polygon fill="#63b8ff" stroke="#63b8ff" points="709.01,-601.82 699.84,-607.12 710.31,-608.7 709.01,-601.82"/>
</a>
</g>
</g>
<!-- Node3 -->
<g id="Node000003" class="node">
<title>Node3</title>
<g id="a_Node000003"><a xlink:href="../../d5/d8a/_expectation_8hpp.html" target="_top" xlink:title=" ">
<polygon fill="white" stroke="#666666" points="777.75,-240.25 652.25,-240.25 652.25,-221 777.75,-221 777.75,-240.25"/>
<text text-anchor="middle" x="715" y="-226.75" font-family="Helvetica,sans-Serif" font-size="10.00">mimic++/Expectation.hpp</text>
</a>
</g>
</g>
<!-- Node2&#45;&gt;Node3 -->
<g id="edge2_Node000002_Node000003" class="edge">
<title>Node2&#45;&gt;Node3</title>
<g id="a_edge2_Node000002_Node000003"><a xlink:title=" ">
<path fill="none" stroke="#63b8ff" d="M655.7,-485.73C668.57,-430.59 703.98,-278.83 712.93,-240.51"/>
<polygon fill="#63b8ff" stroke="#63b8ff" points="652.34,-484.74 653.47,-495.28 659.15,-486.33 652.34,-484.74"/>
</a>
</g>
</g>
<!-- Node2&#45;&gt;Node6 -->
<g id="edge30_Node000002_Node000006" class="edge">
<title>Node2&#45;&gt;Node6</title>
<g id="a_edge30_Node000002_Node000006"><a xlink:title=" ">
<path fill="none" stroke="#63b8ff" d="M593.26,-501.7C440.62,-489.89 38,-453.43 38,-397.38 38,-397.38 38,-397.38 38,-119.12 38,-81.08 60.81,-71.94 95,-55.25 149.62,-28.58 558.33,-15.82 710.84,-11.95"/>
<polygon fill="#63b8ff" stroke="#63b8ff" points="592.93,-505.18 603.16,-502.46 593.46,-498.2 592.93,-505.18"/>
</a>
</g>
</g>
<!-- Node2&#45;&gt;Node8 -->
<g id="edge13_Node000002_Node000008" class="edge">
<title>Node2&#45;&gt;Node8</title>
<g id="a_edge13_Node000002_Node000008"><a xlink:title=" ">
<path fill="none" stroke="#63b8ff" d="M648.14,-485.7C645.53,-472.43 640.71,-455.16 632,-442 622.07,-426.99 605.57,-414.42 593.42,-406.49"/>
<polygon fill="#63b8ff" stroke="#63b8ff" points="644.66,-486.14 649.76,-495.43 651.57,-484.99 644.66,-486.14"/>
</a>
</g>
</g>
<!-- Node2&#45;&gt;Node14 -->
<g id="edge26_Node000002_Node000014" class="edge">
<title>Node2&#45;&gt;Node14</title>
<g id="a_edge26_Node000002_Node000014"><a xlink:title=" ">
<path fill="none" stroke="#63b8ff" d="M627.51,-490.8C612.89,-481.42 594.57,-469.67 582.15,-461.7"/>
<polygon fill="#63b8ff" stroke="#63b8ff" points="625.34,-493.57 635.65,-496.02 629.12,-487.68 625.34,-493.57"/>
</a>
</g>
</g>
<!-- Node4 -->
<g id="Node000004" class="node">
<title>Node4</title>
<g id="a_Node000004"><a xlink:href="../../d2/d4f/_expectation_builder_8hpp.html" target="_top" xlink:title=" ">
<polygon fill="white" stroke="#666666" points="951.75,-129.75 796.25,-129.75 796.25,-110.5 951.75,-110.5 951.75,-129.75"/>
<text text-anchor="middle" x="874" y="-116.25" font-family="Helvetica,sans-Serif" font-size="10.00">mimic++/ExpectationBuilder.hpp</text>
</a>
</g>
</g>
<!-- Node3&#45;&gt;Node4 -->
<g id="edge3_Node000003_Node000004" class="edge">
<title>Node3&#45;&gt;Node4</title>
<g id="a_edge3_Node000003_Node000004"><a xlink:title=" ">
<path fill="none" stroke="#63b8ff" d="M737.78,-214.08C771.54,-191.04 833.8,-148.55 860.87,-130.09"/>
<polygon fill="#63b8ff" stroke="#63b8ff" points="735.82,-211.18 729.53,-219.71 739.77,-216.96 735.82,-211.18"/>
</a>
</g>
</g>
<!-- Node5 -->
<g id="Node000005" class="node">
<title>Node5</title>
<g id="a_Node000005"><a xlink:href="../../d5/dc5/_mock_8hpp.html" target="_top" xlink:title=" ">
<polygon fill="white" stroke="#666666" points="933.62,-74.5 834.38,-74.5 834.38,-55.25 933.62,-55.25 933.62,-74.5"/>
<text text-anchor="middle" x="884" y="-61" font-family="Helvetica,sans-Serif" font-size="10.00">mimic++/Mock.hpp</text>
</a>
</g>
</g>
<!-- Node3&#45;&gt;Node5 -->
<g id="edge11_Node000003_Node000005" class="edge">
<title>Node3&#45;&gt;Node5</title>
<g id="a_edge11_Node000003_Node000005"><a xlink:title=" ">
<path fill="none" stroke="#63b8ff" d="M722.55,-209.97C733.34,-184.12 755.42,-138.71 787,-110.5 805.94,-93.58 832.39,-81.99 852.88,-74.87"/>
<polygon fill="#63b8ff" stroke="#63b8ff" points="719.31,-208.63 718.84,-219.22 725.81,-211.24 719.31,-208.63"/>
</a>
</g>
</g>
<!-- Node3&#45;&gt;Node6 -->
<g id="edge12_Node000003_Node000006" class="edge">
<title>Node3&#45;&gt;Node6</title>
<g id="a_edge12_Node000003_Node000006"><a xlink:title=" ">
<path fill="none" stroke="#63b8ff" d="M718.86,-209.82C725.33,-177.34 739.1,-110.8 754,-55.25 757.37,-42.7 761.99,-28.41 764.99,-19.45"/>
<polygon fill="#63b8ff" stroke="#63b8ff" points="715.48,-208.88 716.98,-219.37 722.35,-210.23 715.48,-208.88"/>
</a>
</g>
</g>
<!-- Node7 -->
<g id="Node000007" class="node">
<title>Node7</title>
<g id="a_Node000007"><a xlink:href="../../d8/de5/_expectation_policies_8hpp.html" target="_top" xlink:title=" ">
<polygon fill="white" stroke="#666666" points="1070,-185 910,-185 910,-165.75 1070,-165.75 1070,-185"/>
<text text-anchor="middle" x="990" y="-171.5" font-family="Helvetica,sans-Serif" font-size="10.00">mimic++/ExpectationPolicies.hpp</text>
</a>
</g>
</g>
<!-- Node3&#45;&gt;Node7 -->
<g id="edge7_Node000003_Node000007" class="edge">
<title>Node3&#45;&gt;Node7</title>
<g id="a_edge7_Node000003_Node000007"><a xlink:title=" ">
<path fill="none" stroke="#63b8ff" d="M773.06,-218.38C823.7,-208.58 896.24,-194.53 943.23,-185.43"/>
<polygon fill="#63b8ff" stroke="#63b8ff" points="772.6,-214.91 763.45,-220.24 773.93,-221.78 772.6,-214.91"/>
</a>
</g>
</g>
<!-- Node4&#45;&gt;Node5 -->
<g id="edge4_Node000004_Node000005" class="edge">
<title>Node4&#45;&gt;Node5</title>
<g id="a_edge4_Node000004_Node000005"><a xlink:title=" ">
<path fill="none" stroke="#63b8ff" d="M877.75,-99.17C879.32,-90.8 881.07,-81.5 882.31,-74.86"/>
<polygon fill="#63b8ff" stroke="#63b8ff" points="874.34,-98.37 875.93,-108.84 881.22,-99.66 874.34,-98.37"/>
</a>
</g>
</g>
<!-- Node4&#45;&gt;Node6 -->
<g id="edge6_Node000004_Node000006" class="edge">
<title>Node4&#45;&gt;Node6</title>
<g id="a_edge6_Node000004_Node000006"><a xlink:title=" ">
<path fill="none" stroke="#63b8ff" d="M855.08,-102.72C845.8,-94.47 834.59,-84.19 825,-74.5 806.39,-55.7 786.1,-32.16 775.47,-19.56"/>
<polygon fill="#63b8ff" stroke="#63b8ff" points="852.62,-105.22 862.44,-109.19 857.24,-99.96 852.62,-105.22"/>
</a>
</g>
</g>
<!-- Node5&#45;&gt;Node6 -->
<g id="edge5_Node000005_Node000006" class="edge">
<title>Node5&#45;&gt;Node6</title>
<g id="a_edge5_Node000005_Node000006"><a xlink:title=" ">
<path fill="none" stroke="#63b8ff" d="M854.08,-50.14C833.22,-40.56 805.97,-28.06 787.77,-19.7"/>
<polygon fill="#63b8ff" stroke="#63b8ff" points="852.4,-53.22 862.95,-54.21 855.32,-46.86 852.4,-53.22"/>
</a>
</g>
</g>
<!-- Node7&#45;&gt;Node4 -->
<g id="edge8_Node000007_Node000004" class="edge">
<title>Node7&#45;&gt;Node4</title>
<g id="a_edge8_Node000007_Node000004"><a xlink:title=" ">
<path fill="none" stroke="#63b8ff" d="M960.08,-160.64C939.22,-151.06 911.97,-138.56 893.77,-130.2"/>
<polygon fill="#63b8ff" stroke="#63b8ff" points="958.4,-163.72 968.95,-164.71 961.32,-157.36 958.4,-163.72"/>
</a>
</g>
</g>
<!-- Node7&#45;&gt;Node5 -->
<g id="edge9_Node000007_Node000005" class="edge">
<title>Node7&#45;&gt;Node5</title>
<g id="a_edge9_Node000007_Node000005"><a xlink:title=" ">
<path fill="none" stroke="#63b8ff" d="M984.66,-154.92C980.13,-141.25 972.51,-123.21 961,-110.5 946.27,-94.24 924.19,-82.29 907.45,-74.87"/>
<polygon fill="#63b8ff" stroke="#63b8ff" points="981.19,-155.55 987.42,-164.12 987.89,-153.53 981.19,-155.55"/>
</a>
</g>
</g>
<!-- Node7&#45;&gt;Node6 -->
<g id="edge10_Node000007_Node000006" class="edge">
<title>Node7&#45;&gt;Node6</title>
<g id="a_edge10_Node000007_Node000006"><a xlink:title=" ">
<path fill="none" stroke="#63b8ff" d="M989.52,-154.07C988.64,-141.2 986.42,-124.43 981,-110.5 970.19,-82.73 967.44,-72.3 943,-55.25 908.28,-31.04 861.51,-19.95 825.06,-14.88"/>
<polygon fill="#63b8ff" stroke="#63b8ff" points="986.01,-154.03 989.95,-163.86 993,-153.72 986.01,-154.03"/>
</a>
</g>
</g>
<!-- Node8&#45;&gt;Node3 -->
<g id="edge14_Node000008_Node000003" class="edge">
<title>Node8&#45;&gt;Node3</title>
<g id="a_edge14_Node000008_Node000003"><a xlink:title=" ">
<path fill="none" stroke="#63b8ff" d="M629.11,-382.3C644.98,-375.58 660.72,-365.56 670,-350.75 687.58,-322.68 654.93,-306.68 668,-276.25 674.57,-260.95 689.25,-248.42 700.47,-240.58"/>
<polygon fill="#63b8ff" stroke="#63b8ff" points="628.24,-378.89 620.15,-385.72 630.74,-385.43 628.24,-378.89"/>
</a>
</g>
</g>
<!-- Node8&#45;&gt;Node6 -->
<g id="edge25_Node000008_Node000006" class="edge">
<title>Node8&#45;&gt;Node6</title>
<g id="a_edge25_Node000008_Node000006"><a xlink:title=" ">
<path fill="none" stroke="#63b8ff" d="M510.6,-392.03C401.67,-386.02 196.5,-372.03 171,-350.75 148.26,-331.77 152,-316.49 152,-286.88 152,-286.88 152,-286.88 152,-119.12 152,-62.69 558.17,-26.37 710.88,-14.7"/>
<polygon fill="#63b8ff" stroke="#63b8ff" points="510.1,-395.5 520.28,-392.55 510.48,-388.51 510.1,-395.5"/>
</a>
</g>
</g>
<!-- Node8&#45;&gt;Node9 -->
<g id="edge15_Node000008_Node000009" class="edge">
<title>Node8&#45;&gt;Node9</title>
<g id="a_edge15_Node000008_Node000009"><a xlink:title=" ">
<path fill="none" stroke="#63b8ff" d="M629.48,-383.76C672.85,-373.97 734.04,-360.17 773.86,-351.18"/>
<polygon fill="#63b8ff" stroke="#63b8ff" points="628.76,-380.33 619.78,-385.95 630.3,-387.16 628.76,-380.33"/>
</a>
</g>
</g>
<!-- Node11 -->
<g id="Node000011" class="node">
<title>Node11</title>
<g id="a_Node000011"><a xlink:href="../../d9/d42/_boost_test_8hpp.html" target="_top" xlink:title=" ">
<polygon fill="white" stroke="#666666" points="496.38,-350.75 335.62,-350.75 335.62,-331.5 496.38,-331.5 496.38,-350.75"/>
<text text-anchor="middle" x="416" y="-337.25" font-family="Helvetica,sans-Serif" font-size="10.00">mimic++/adapters/BoostTest.hpp</text>
</a>
</g>
</g>
<!-- Node8&#45;&gt;Node11 -->
<g id="edge22_Node000008_Node000011" class="edge">
<title>Node8&#45;&gt;Node11</title>
<g id="a_edge22_Node000008_Node000011"><a xlink:title=" ">
<path fill="none" stroke="#63b8ff" d="M539.77,-382.81C510.24,-373.1 470.08,-359.9 443.62,-351.2"/>
<polygon fill="#63b8ff" stroke="#63b8ff" points="538.49,-386.07 549.08,-385.87 540.67,-379.42 538.49,-386.07"/>
</a>
</g>
</g>
<!-- Node12 -->
<g id="Node000012" class="node">
<title>Node12</title>
<g id="a_Node000012"><a xlink:href="../../d3/d04/_catch2_8hpp.html" target="_top" xlink:title=" ">
<polygon fill="white" stroke="#666666" points="661.25,-350.75 514.75,-350.75 514.75,-331.5 661.25,-331.5 661.25,-350.75"/>
<text text-anchor="middle" x="588" y="-337.25" font-family="Helvetica,sans-Serif" font-size="10.00">mimic++/adapters/Catch2.hpp</text>
</a>
</g>
</g>
<!-- Node8&#45;&gt;Node12 -->
<g id="edge23_Node000008_Node000012" class="edge">
<title>Node8&#45;&gt;Node12</title>
<g id="a_edge23_Node000008_Node000012"><a xlink:title=" ">
<path fill="none" stroke="#63b8ff" d="M581.75,-375.42C583.32,-367.05 585.07,-357.75 586.31,-351.11"/>
<polygon fill="#63b8ff" stroke="#63b8ff" points="578.34,-374.62 579.93,-385.09 585.22,-375.91 578.34,-374.62"/>
</a>
</g>
</g>
<!-- Node13 -->
<g id="Node000013" class="node">
<title>Node13</title>
<g id="a_Node000013"><a xlink:href="../../d5/db1/gtest_8hpp.html" target="_top" xlink:title=" ">
<polygon fill="white" stroke="#666666" points="317.75,-350.75 180.25,-350.75 180.25,-331.5 317.75,-331.5 317.75,-350.75"/>
<text text-anchor="middle" x="249" y="-337.25" font-family="Helvetica,sans-Serif" font-size="10.00">mimic++/adapters/gtest.hpp</text>
</a>
</g>
</g>
<!-- Node8&#45;&gt;Node13 -->
<g id="edge24_Node000008_Node000013" class="edge">
<title>Node8&#45;&gt;Node13</title>
<g id="a_edge24_Node000008_Node000013"><a xlink:title=" ">
<path fill="none" stroke="#63b8ff" d="M510.46,-384.44C449.89,-374.64 362.05,-360.42 305.23,-351.23"/>
<polygon fill="#63b8ff" stroke="#63b8ff" points="509.89,-387.9 520.32,-386.04 511.01,-380.99 509.89,-387.9"/>
</a>
</g>
</g>
<!-- Node9&#45;&gt;Node4 -->
<g id="edge20_Node000009_Node000004" class="edge">
<title>Node9&#45;&gt;Node4</title>
<g id="a_edge20_Node000009_Node000004"><a xlink:title=" ">
<path fill="none" stroke="#63b8ff" d="M853.22,-326.34C867.06,-319.36 881.12,-309.35 889,-295.5 920.69,-239.77 889.95,-157.45 878.17,-130.23"/>
<polygon fill="#63b8ff" stroke="#63b8ff" points="851.81,-323.13 844.16,-330.47 854.71,-329.5 851.81,-323.13"/>
</a>
</g>
</g>
<!-- Node9&#45;&gt;Node6 -->
<g id="edge21_Node000009_Node000006" class="edge">
<title>Node9&#45;&gt;Node6</title>
<g id="a_edge21_Node000009_Node000006"><a xlink:title=" ">
<path fill="none" stroke="#63b8ff" d="M774.95,-327.05C736,-312.06 677.18,-283.78 643,-240.25 624.71,-216.95 624,-205.99 624,-176.38 624,-176.38 624,-176.38 624,-119.12 624,-64.03 692.06,-33.41 734.6,-19.65"/>
<polygon fill="#63b8ff" stroke="#63b8ff" points="773.6,-330.29 784.19,-330.49 776.04,-323.73 773.6,-330.29"/>
</a>
</g>
</g>
<!-- Node10 -->
<g id="Node000010" class="node">
<title>Node10</title>
<g id="a_Node000010"><a xlink:href="../../d6/d17/_control_policy_8hpp.html" target="_top" xlink:title=" ">
<polygon fill="white" stroke="#666666" points="880.12,-295.5 747.88,-295.5 747.88,-276.25 880.12,-276.25 880.12,-295.5"/>
<text text-anchor="middle" x="814" y="-282" font-family="Helvetica,sans-Serif" font-size="10.00">mimic++/ControlPolicy.hpp</text>
</a>
</g>
</g>
<!-- Node9&#45;&gt;Node10 -->
<g id="edge16_Node000009_Node000010" class="edge">
<title>Node9&#45;&gt;Node10</title>
<g id="a_edge16_Node000009_Node000010"><a xlink:title=" ">
<path fill="none" stroke="#63b8ff" d="M814,-319.88C814,-311.59 814,-302.42 814,-295.86"/>
<polygon fill="#63b8ff" stroke="#63b8ff" points="810.5,-319.82 814,-329.82 817.5,-319.82 810.5,-319.82"/>
</a>
</g>
</g>
<!-- Node10&#45;&gt;Node3 -->
<g id="edge17_Node000010_Node000003" class="edge">
<title>Node10&#45;&gt;Node3</title>
<g id="a_edge17_Node000010_Node000003"><a xlink:title=" ">
<path fill="none" stroke="#63b8ff" d="M787.48,-270.61C769.81,-261.11 747.12,-248.9 731.88,-240.7"/>
<polygon fill="#63b8ff" stroke="#63b8ff" points="785.41,-273.47 795.87,-275.12 788.72,-267.31 785.41,-273.47"/>
</a>
</g>
</g>
<!-- Node10&#45;&gt;Node4 -->
<g id="edge18_Node000010_Node000004" class="edge">
<title>Node10&#45;&gt;Node4</title>
<g id="a_edge18_Node000010_Node000004"><a xlink:title=" ">
<path fill="none" stroke="#63b8ff" d="M821.04,-265.66C834.05,-230.15 861.38,-155.57 870.76,-129.97"/>
<polygon fill="#63b8ff" stroke="#63b8ff" points="817.9,-264.06 817.75,-274.65 824.47,-266.46 817.9,-264.06"/>
</a>
</g>
</g>
<!-- Node10&#45;&gt;Node6 -->
<g id="edge19_Node000010_Node000006" class="edge">
<title>Node10&#45;&gt;Node6</title>
<g id="a_edge19_Node000010_Node000006"><a xlink:title=" ">
<path fill="none" stroke="#63b8ff" d="M810.37,-264.54C805.09,-234.91 795.07,-178.14 787,-129.75 780.14,-88.64 772.47,-39.46 769.39,-19.6"/>
<polygon fill="#63b8ff" stroke="#63b8ff" points="806.91,-265.07 812.11,-274.3 813.8,-263.84 806.91,-265.07"/>
</a>
</g>
</g>
<!-- Node14&#45;&gt;Node6 -->
<g id="edge29_Node000014_Node000006" class="edge">
<title>Node14&#45;&gt;Node6</title>
<g id="a_edge29_Node000014_Node000006"><a xlink:title=" ">
<path fill="none" stroke="#63b8ff" d="M502.16,-449.73C368.09,-446.13 76,-428.39 76,-342.12 76,-342.12 76,-342.12 76,-119.12 76,-42.14 162.06,-72.86 237,-55.25 406.09,-15.52 612.77,-10.06 710.95,-9.98"/>
<polygon fill="#63b8ff" stroke="#63b8ff" points="501.87,-453.23 511.95,-449.98 502.04,-446.23 501.87,-453.23"/>
</a>
</g>
</g>
<!-- Node14&#45;&gt;Node8 -->
<g id="edge28_Node000014_Node000008" class="edge">
<title>Node14&#45;&gt;Node8</title>
<g id="a_edge28_Node000014_Node000008"><a xlink:title=" ">
<path fill="none" stroke="#63b8ff" d="M571.75,-430.67C573.32,-422.3 575.07,-413 576.31,-406.36"/>
<polygon fill="#63b8ff" stroke="#63b8ff" points="568.34,-429.87 569.93,-440.34 575.22,-431.16 568.34,-429.87"/>
</a>
</g>
</g>
<!-- Node14&#45;&gt;Node10 -->
<g id="edge27_Node000014_Node000010" class="edge">
<title>Node14&#45;&gt;Node10</title>
<g id="a_edge27_Node000014_Node000010"><a xlink:title=" ">
<path fill="none" stroke="#63b8ff" d="M502,-451.1C365.68,-450.03 73.59,-435.9 171,-331.5 209.72,-290 590.89,-286.25 747.42,-286.48"/>
<polygon fill="#63b8ff" stroke="#63b8ff" points="501.59,-454.6 511.6,-451.15 501.62,-447.6 501.59,-454.6"/>
</a>
</g>
</g>
<!-- Node15&#45;&gt;Node6 -->
<g id="edge39_Node000015_Node000006" class="edge">
<title>Node15&#45;&gt;Node6</title>
<g id="a_edge39_Node000015_Node000006"><a xlink:title=" ">
<path fill="none" stroke="#63b8ff" d="M841.35,-491.39C912.53,-451.52 1098,-332.61 1098,-176.38 1098,-176.38 1098,-176.38 1098,-119.12 1098,-62.36 919.56,-30.41 825.1,-17.47"/>
<polygon fill="#63b8ff" stroke="#63b8ff" points="839.74,-488.29 832.66,-496.18 843.11,-494.42 839.74,-488.29"/>
</a>
</g>
</g>
<!-- Node15&#45;&gt;Node7 -->
<g id="edge32_Node000015_Node000007" class="edge">
<title>Node15&#45;&gt;Node7</title>
<g id="a_edge32_Node000015_Node000007"><a xlink:title=" ">
<path fill="none" stroke="#63b8ff" d="M823.99,-487.16C856.96,-425.44 961.51,-229.72 985.2,-185.37"/>
<polygon fill="#63b8ff" stroke="#63b8ff" points="821.04,-485.26 819.42,-495.73 827.22,-488.56 821.04,-485.26"/>
</a>
</g>
</g>
<!-- Node15&#45;&gt;Node8 -->
<g id="edge36_Node000015_Node000008" class="edge">
<title>Node15&#45;&gt;Node8</title>
<g id="a_edge36_Node000015_Node000008"><a xlink:title=" ">
<path fill="none" stroke="#63b8ff" d="M784.02,-492.09C735.05,-469.58 639.22,-425.52 597.83,-406.49"/>
<polygon fill="#63b8ff" stroke="#63b8ff" points="782.36,-495.18 792.91,-496.18 785.29,-488.82 782.36,-495.18"/>
</a>
</g>
</g>
<!-- Node15&#45;&gt;Node9 -->
<g id="edge38_Node000015_Node000009" class="edge">
<title>Node15&#45;&gt;Node9</title>
<g id="a_edge38_Node000015_Node000009"><a xlink:title=" ">
<path fill="none" stroke="#63b8ff" d="M814,-485.72C814,-449.86 814,-376.35 814,-350.97"/>
<polygon fill="#63b8ff" stroke="#63b8ff" points="810.5,-485.56 814,-495.56 817.5,-485.56 810.5,-485.56"/>
</a>
</g>
</g>
<!-- Node15&#45;&gt;Node14 -->
<g id="edge37_Node000015_Node000014" class="edge">
<title>Node15&#45;&gt;Node14</title>
<g id="a_edge37_Node000015_Node000014"><a xlink:title=" ">
<path fill="none" stroke="#63b8ff" d="M760.92,-494.38C715.67,-484.59 651.52,-470.7 609.84,-461.68"/>
<polygon fill="#63b8ff" stroke="#63b8ff" points="760,-497.77 770.51,-496.46 761.48,-490.92 760,-497.77"/>
</a>
</g>
</g>
<!-- Node16 -->
<g id="Node000016" class="node">
<title>Node16</title>
<g id="a_Node000016"><a xlink:href="../../dd/d50/_matcher_8hpp.html" target="_top" xlink:title=" ">
<polygon fill="white" stroke="#666666" points="1108.25,-406 997.75,-406 997.75,-386.75 1108.25,-386.75 1108.25,-406"/>
<text text-anchor="middle" x="1053" y="-392.5" font-family="Helvetica,sans-Serif" font-size="10.00">mimic++/Matcher.hpp</text>
</a>
</g>
</g>
<!-- Node15&#45;&gt;Node16 -->
<g id="edge33_Node000015_Node000016" class="edge">
<title>Node15&#45;&gt;Node16</title>
<g id="a_edge33_Node000015_Node000016"><a xlink:title=" ">
<path fill="none" stroke="#63b8ff" d="M877.26,-496.89C910.51,-490.32 951.07,-479.31 984,-461.25 1010.33,-446.8 1034.46,-420.13 1045.95,-406.26"/>
<polygon fill="#63b8ff" stroke="#63b8ff" points="876.96,-493.38 867.78,-498.67 878.25,-500.26 876.96,-493.38"/>
</a>
</g>
</g>
<!-- Node16&#45;&gt;Node6 -->
<g id="edge35_Node000016_Node000006" class="edge">
<title>Node16&#45;&gt;Node6</title>
<g id="a_edge35_Node000016_Node000006"><a xlink:title=" ">
<path fill="none" stroke="#63b8ff" d="M1068.58,-378.22C1092.62,-349.9 1136,-290.61 1136,-231.62 1136,-231.62 1136,-231.62 1136,-119.12 1136,-88.8 1135.77,-74.09 1112,-55.25 1068.76,-20.98 911.16,-12.9 825.08,-11.08"/>
<polygon fill="#63b8ff" stroke="#63b8ff" points="1066.2,-375.62 1062.26,-385.45 1071.47,-380.22 1066.2,-375.62"/>
</a>
</g>
</g>
<!-- Node16&#45;&gt;Node7 -->
<g id="edge34_Node000016_Node000007" class="edge">
<title>Node16&#45;&gt;Node7</title>
<g id="a_edge34_Node000016_Node000007"><a xlink:title=" ">
<path fill="none" stroke="#63b8ff" d="M1047.34,-375.7C1034.15,-329.84 1001.77,-217.29 992.51,-185.1"/>
<polygon fill="#63b8ff" stroke="#63b8ff" points="1043.91,-376.42 1050.03,-385.06 1050.63,-374.49 1043.91,-376.42"/>
</a>
</g>
</g>
<!-- Node17&#45;&gt;Node2 -->
<g id="edge44_Node000017_Node000002" class="edge">
<title>Node17&#45;&gt;Node2</title>
<g id="a_edge44_Node000017_Node000002"><a xlink:title=" ">
<path fill="none" stroke="#63b8ff" d="M872.86,-549.92C820.43,-539.98 744.93,-525.67 696.92,-516.58"/>
<polygon fill="#63b8ff" stroke="#63b8ff" points="872.05,-553.33 882.53,-551.75 873.35,-546.45 872.05,-553.33"/>
</a>
</g>
</g>
<!-- Node17&#45;&gt;Node6 -->
<g id="edge49_Node000017_Node000006" class="edge">
<title>Node17&#45;&gt;Node6</title>
<g id="a_edge49_Node000017_Node000006"><a xlink:title=" ">
<path fill="none" stroke="#63b8ff" d="M993.6,-559.28C1065.3,-553.47 1174,-531.62 1174,-452.62 1174,-452.62 1174,-452.62 1174,-119.12 1174,-85.63 1162.27,-73.22 1134,-55.25 1083.97,-23.44 914.69,-14.3 824.95,-11.68"/>
<polygon fill="#63b8ff" stroke="#63b8ff" points="993.67,-555.77 983.95,-559.98 994.17,-562.75 993.67,-555.77"/>
</a>
</g>
</g>
<!-- Node17&#45;&gt;Node7 -->
<g id="edge46_Node000017_Node000007" class="edge">
<title>Node17&#45;&gt;Node7</title>
<g id="a_edge46_Node000017_Node000007"><a xlink:title=" ">
<path fill="none" stroke="#63b8ff" d="M993.73,-554.37C1053.78,-543.97 1136,-517.82 1136,-452.62 1136,-452.62 1136,-452.62 1136,-395.38 1136,-298.96 1036.82,-212.7 1001.95,-185.36"/>
<polygon fill="#63b8ff" stroke="#63b8ff" points="993.24,-550.9 983.92,-555.95 994.35,-557.81 993.24,-550.9"/>
</a>
</g>
</g>
<!-- Node17&#45;&gt;Node9 -->
<g id="edge48_Node000017_Node000009" class="edge">
<title>Node17&#45;&gt;Node9</title>
<g id="a_edge48_Node000017_Node000009"><a xlink:title=" ">
<path fill="none" stroke="#63b8ff" d="M921.87,-542.32C897.46,-497.03 836.15,-383.24 818.7,-350.85"/>
<polygon fill="#63b8ff" stroke="#63b8ff" points="918.69,-543.79 926.51,-550.94 924.85,-540.47 918.69,-543.79"/>
</a>
</g>
</g>
<!-- Node17&#45;&gt;Node10 -->
<g id="edge45_Node000017_Node000010" class="edge">
<title>Node17&#45;&gt;Node10</title>
<g id="a_edge45_Node000017_Node000010"><a xlink:title=" ">
<path fill="none" stroke="#63b8ff" d="M932.51,-540.8C932.6,-498.15 927.56,-397.78 882,-331.5 870.72,-315.09 851.24,-303.22 836.01,-295.87"/>
<polygon fill="#63b8ff" stroke="#63b8ff" points="929.01,-540.73 932.37,-550.78 936.01,-540.83 929.01,-540.73"/>
</a>
</g>
</g>
<!-- Node17&#45;&gt;Node16 -->
<g id="edge47_Node000017_Node000016" class="edge">
<title>Node17&#45;&gt;Node16</title>
<g id="a_edge47_Node000017_Node000016"><a xlink:title=" ">
<path fill="none" stroke="#63b8ff" d="M946.72,-543.49C962.96,-523.81 989.63,-490.84 1011,-461.25 1024.83,-442.1 1039.73,-418.7 1047.53,-406.22"/>
<polygon fill="#63b8ff" stroke="#63b8ff" points="944.12,-541.14 940.43,-551.08 949.5,-545.61 944.12,-541.14"/>
</a>
</g>
</g>
</g>
</svg>

<g id="navigator" transform="translate(0 0)" fill="#404254">
  <rect fill="#f2f5e9" fill-opacity="0.5" stroke="#606060" stroke-width=".5" x="0" y="0" width="60" height="60"/>
  <use id="zoomplus" xlink:href="#zoomPlus" x="17" y="9" onmousedown="handleZoom(evt,'in')"/>
  <use id="zoomminus" xlink:href="#zoomMin" x="42" y="9" onmousedown="handleZoom(evt,'out')"/>
  <use id="reset" xlink:href="#resetDef" x="30" y="36" onmousedown="handleReset()"/>
   <use id="arrowup" xlink:href="#arrowUp" x="0" y="0" onmousedown="handlePan(0,-1)"/>
  <use id="arrowright" xlink:href="#arrowRight" x="0" y="0" onmousedown="handlePan(1,0)"/>
  <use id="arrowdown" xlink:href="#arrowDown" x="0" y="0" onmousedown="handlePan(0,1)"/>
  <use id="arrowleft" xlink:href="#arrowLeft" x="0" y="0" onmousedown="handlePan(-1,0)"/>
</g>
<svg viewBox="0 0 15 15" width="100%" height="30px" preserveAspectRatio="xMaxYMin meet">
 <g id="arrow_out" transform="scale(0.3 0.3)">
  <a xlink:href="_fwd_8hpp__dep__incl_org.svg" target="_base">
   <rect id="button" ry="5" rx="5" y="6" x="6" height="38" width="38"
        fill="#f2f5e9" fill-opacity="0.5" stroke="#606060" stroke-width="1.0"/>
   <path id="arrow"
     d="M 11.500037,31.436501 C 11.940474,20.09759 22.043105,11.32322 32.158766,21.979434 L 37.068811,17.246167 C 37.068811,17.246167 37.088388,32 37.088388,32 L 22.160133,31.978069 C 22.160133,31.978069 26.997745,27.140456 26.997745,27.140456 C 18.528582,18.264221 13.291696,25.230495 11.500037,31.436501 z"
     style="fill:#404040;"/>
  </a>
 </g>
</svg>

<style type='text/css'>
<![CDATA[
[data-mouse-over-selected='false'] { opacity: 0.7; }
[data-mouse-over-selected='true']  { opacity: 1.0; }
]]>
</style>
<script type="application/ecmascript"><![CDATA[
document.addEventListener('DOMContentLoaded', (event) => {
  highlightEdges();
  highlightAdjacentNodes();
});
]]></script>
</svg>
