<?xml version="1.0" encoding="UTF-8" standalone="no"?>
<!DOCTYPE svg PUBLIC "-//W3C//DTD SVG 1.1//EN"
 "http://www.w3.org/Graphics/SVG/1.1/DTD/svg11.dtd">
<!-- Generated by graphviz version 12.1.1 (20240910.0053)
 -->
<!-- Title: mimic++/Fwd.hpp Pages: 1 -->
<!--zoomable 635 -->

<svg id="main" version="1.1" xmlns="http://www.w3.org/2000/svg" xmlns:xlink="http://www.w3.org/1999/xlink" xml:space="preserve" onload="init(evt)">

<style type="text/css"><![CDATA[
.node, .edge {opacity: 0.7;}
.node.selected, .edge.selected {opacity: 1;}
.edge:hover path { stroke: red; }
.edge:hover polygon { stroke: red; fill: red; }
]]></style>

<defs>
  <circle id="rim" cx="0" cy="0" r="7"/>
  <circle id="rim2" cx="0" cy="0" r="3.5"/>
  <g id="zoomPlus">
    <use xlink:href="#rim" fill="#404040"><set attributeName="fill" to="#808080" begin="zoomplus.mouseover" end="zoomplus.mouseout"/></use>
    <path d="M-4,0h8M0,-4v8" fill="none" stroke="white" stroke-width="1.5" pointer-events="none"/>
  </g>
  <g id="zoomMin">
    <use xlink:href="#rim" fill="#404040"><set attributeName="fill" to="#808080" begin="zoomminus.mouseover" end="zoomminus.mouseout"/></use>
    <path d="M-4,0h8" fill="none" stroke="white" stroke-width="1.5" pointer-events="none"/>
  </g>
  <g id="arrowUp" transform="translate(30 24)">
    <use xlink:href="#rim"/>
    <path pointer-events="none" fill="none" stroke="white" stroke-width="1.5" d="M0,-3.0v7 M-2.5,-0.5L0,-3.0L2.5,-0.5"/>
  </g>
  <g id="arrowRight" transform="rotate(90) translate(36 -43)">
    <use xlink:href="#rim"/>
    <path pointer-events="none" fill="none" stroke="white" stroke-width="1.5" d="M0,-3.0v7 M-2.5,-0.5L0,-3.0L2.5,-0.5"/>
  </g>
  <g id="arrowDown" transform="rotate(180) translate(-30 -48)">
    <use xlink:href="#rim"/>
    <path pointer-events="none" fill="none" stroke="white" stroke-width="1.5" d="M0,-3.0v7 M-2.5,-0.5L0,-3.0L2.5,-0.5"/>
  </g>
  <g id="arrowLeft" transform="rotate(270) translate(-36 17)">
    <use xlink:href="#rim"/>
    <path pointer-events="none" fill="none" stroke="white" stroke-width="1.5" d="M0,-3.0v7 M-2.5,-0.5L0,-3.0L2.5,-0.5"/>
  </g>
  <g id="resetDef">
    <use xlink:href="#rim2" fill="#404040"><set attributeName="fill" to="#808080" begin="reset.mouseover" end="reset.mouseout"/></use>
  </g>
</defs>
<script type="application/ecmascript">
var viewWidth = 1261;
var viewHeight = 635;
var sectionId = 'dynsection-1';
</script>
<script type="application/ecmascript" xlink:href="../../svg.min.js"/>
<svg id="graph" class="graph">
<g id="viewport">
<title>mimic++/Fwd.hpp</title>
<!-- Node1 -->
<g id="Node000001" class="node">
<title>Node1</title>
<g id="a_Node000001"><a xlink:title=" ">
<polygon fill="#999999" stroke="#666666" points="804,-627 710,-627 710,-607.75 804,-607.75 804,-627"/>
<text text-anchor="middle" x="757" y="-613.5" font-family="Helvetica,sans-Serif" font-size="10.00">mimic++/Fwd.hpp</text>
</a>
</g>
</g>
<!-- Node2 -->
<g id="Node000002" class="node">
<title>Node2</title>
<g id="a_Node000002"><a xlink:href="../../dc/d44/_call_8hpp.html" target="_top" xlink:title=" ">
<polygon fill="white" stroke="#666666" points="675.88,-516.5 584.12,-516.5 584.12,-497.25 675.88,-497.25 675.88,-516.5"/>
<text text-anchor="middle" x="630" y="-503" font-family="Helvetica,sans-Serif" font-size="10.00">mimic++/Call.hpp</text>
</a>
</g>
</g>
<!-- Node1&#45;&gt;Node2 -->
<g id="edge1_Node000001_Node000002" class="edge">
<title>Node1&#45;&gt;Node2</title>
<g id="a_edge1_Node000001_Node000002"><a xlink:title=" ">
<path fill="none" stroke="#63b8ff" d="M737.63,-600.16C727.57,-591.72 715.1,-581.21 704,-571.75 681.01,-552.15 654.22,-528.93 640.02,-516.59"/>
<polygon fill="#63b8ff" stroke="#63b8ff" points="735.34,-602.81 745.25,-606.55 739.83,-597.44 735.34,-602.81"/>
</a>
</g>
</g>
<!-- Node6 -->
<g id="Node000006" class="node">
<title>Node6</title>
<g id="a_Node000006"><a xlink:href="../../d9/dc3/_interface_mock_8hpp.html" target="_top" xlink:title=" ">
<polygon fill="white" stroke="#666666" points="439.75,-19.25 302.25,-19.25 302.25,0 439.75,0 439.75,-19.25"/>
<text text-anchor="middle" x="371" y="-5.75" font-family="Helvetica,sans-Serif" font-size="10.00">mimic++/InterfaceMock.hpp</text>
</a>
</g>
</g>
<!-- Node1&#45;&gt;Node6 -->
<g id="edge32_Node000001_Node000006" class="edge">
<title>Node1&#45;&gt;Node6</title>
<g id="a_edge32_Node000001_Node000006"><a xlink:title=" ">
<path fill="none" stroke="#63b8ff" d="M698.18,-614.12C520.28,-606.53 0,-578.32 0,-507.88 0,-507.88 0,-507.88 0,-119.12 0,-56.88 194.8,-27.87 302.09,-16.62"/>
<polygon fill="#63b8ff" stroke="#63b8ff" points="698,-617.62 708.13,-614.54 698.29,-610.62 698,-617.62"/>
</a>
</g>
</g>
<!-- Node7 -->
<g id="Node000007" class="node">
<title>Node7</title>
<g id="a_Node000007"><a xlink:href="../../d0/db9/mimic_09_09_8hpp.html" target="_top" xlink:title=" ">
<polygon fill="white" stroke="#666666" points="942.75,-19.25 829.25,-19.25 829.25,0 942.75,0 942.75,-19.25"/>
<text text-anchor="middle" x="886" y="-5.75" font-family="Helvetica,sans-Serif" font-size="10.00">mimic++/mimic++.hpp</text>
</a>
</g>
</g>
<!-- Node1&#45;&gt;Node7 -->
<g id="edge52_Node000001_Node000007" class="edge">
<title>Node1&#45;&gt;Node7</title>
<g id="a_edge52_Node000001_Node000007"><a xlink:title=" ">
<path fill="none" stroke="#63b8ff" d="M815.5,-615.78C946.69,-612.86 1253,-596.54 1253,-507.88 1253,-507.88 1253,-507.88 1253,-119.12 1253,-80.78 1228.86,-73.25 1195,-55.25 1152.46,-32.64 1020.03,-19.92 943.04,-14.25"/>
<polygon fill="#63b8ff" stroke="#63b8ff" points="815.55,-612.28 805.62,-615.98 815.69,-619.27 815.55,-612.28"/>
</a>
</g>
</g>
<!-- Node9 -->
<g id="Node000009" class="node">
<title>Node9</title>
<g id="a_Node000009"><a xlink:href="../../da/dd9/_reporter_8hpp.html" target="_top" xlink:title=" ">
<polygon fill="white" stroke="#666666" points="587,-406 475,-406 475,-386.75 587,-386.75 587,-406"/>
<text text-anchor="middle" x="531" y="-392.5" font-family="Helvetica,sans-Serif" font-size="10.00">mimic++/Reporter.hpp</text>
</a>
</g>
</g>
<!-- Node1&#45;&gt;Node9 -->
<g id="edge42_Node000001_Node000009" class="edge">
<title>Node1&#45;&gt;Node9</title>
<g id="a_edge42_Node000001_Node000009"><a xlink:title=" ">
<path fill="none" stroke="#63b8ff" d="M716.23,-603.54C675.27,-588.7 612.94,-560.51 575,-516.5 545.78,-482.6 535.23,-427.56 532.12,-406.22"/>
<polygon fill="#63b8ff" stroke="#63b8ff" points="714.9,-606.78 725.49,-606.79 717.21,-600.18 714.9,-606.78"/>
</a>
</g>
</g>
<!-- Node10 -->
<g id="Node000010" class="node">
<title>Node10</title>
<g id="a_Node000010"><a xlink:href="../../d8/de4/_sequence_8hpp.html" target="_top" xlink:title=" ">
<polygon fill="white" stroke="#666666" points="880.38,-350.75 761.62,-350.75 761.62,-331.5 880.38,-331.5 880.38,-350.75"/>
<text text-anchor="middle" x="821" y="-337.25" font-family="Helvetica,sans-Serif" font-size="10.00">mimic++/Sequence.hpp</text>
</a>
</g>
</g>
<!-- Node1&#45;&gt;Node10 -->
<g id="edge44_Node000001_Node000010" class="edge">
<title>Node1&#45;&gt;Node10</title>
<g id="a_edge44_Node000001_Node000010"><a xlink:title=" ">
<path fill="none" stroke="#63b8ff" d="M761.7,-596.23C774.57,-541.09 809.98,-389.33 818.93,-351.01"/>
<polygon fill="#63b8ff" stroke="#63b8ff" points="758.34,-595.24 759.47,-605.78 765.15,-596.83 758.34,-595.24"/>
</a>
</g>
</g>
<!-- Node15 -->
<g id="Node000015" class="node">
<title>Node15</title>
<g id="a_Node000015"><a xlink:href="../../d0/d3b/_reports_8hpp.html" target="_top" xlink:title=" ">
<polygon fill="white" stroke="#666666" points="752.5,-461.25 643.5,-461.25 643.5,-442 752.5,-442 752.5,-461.25"/>
<text text-anchor="middle" x="698" y="-447.75" font-family="Helvetica,sans-Serif" font-size="10.00">mimic++/Reports.hpp</text>
</a>
</g>
</g>
<!-- Node1&#45;&gt;Node15 -->
<g id="edge43_Node000001_Node000015" class="edge">
<title>Node1&#45;&gt;Node15</title>
<g id="a_edge43_Node000001_Node000015"><a xlink:title=" ">
<path fill="none" stroke="#63b8ff" d="M750.08,-597.16C737.28,-561.65 710.41,-487.07 701.19,-461.47"/>
<polygon fill="#63b8ff" stroke="#63b8ff" points="746.63,-597.93 753.31,-606.15 753.22,-595.55 746.63,-597.93"/>
</a>
</g>
</g>
<!-- Node16 -->
<g id="Node000016" class="node">
<title>Node16</title>
<g id="a_Node000016"><a xlink:href="../../da/dab/_printer_8hpp.html" target="_top" xlink:title=" ">
<polygon fill="white" stroke="#666666" points="908.88,-516.5 805.12,-516.5 805.12,-497.25 908.88,-497.25 908.88,-516.5"/>
<text text-anchor="middle" x="857" y="-503" font-family="Helvetica,sans-Serif" font-size="10.00">mimic++/Printer.hpp</text>
</a>
</g>
</g>
<!-- Node1&#45;&gt;Node16 -->
<g id="edge33_Node000001_Node000016" class="edge">
<title>Node1&#45;&gt;Node16</title>
<g id="a_edge33_Node000001_Node000016"><a xlink:title=" ">
<path fill="none" stroke="#63b8ff" d="M772.81,-599.22C794.32,-575.88 832.05,-534.94 848.7,-516.88"/>
<polygon fill="#63b8ff" stroke="#63b8ff" points="770.41,-596.66 766.21,-606.38 775.56,-601.4 770.41,-596.66"/>
</a>
</g>
</g>
<!-- Node18 -->
<g id="Node000018" class="node">
<title>Node18</title>
<g id="a_Node000018"><a xlink:href="../../d4/d2c/_utility_8hpp.html" target="_top" xlink:title=" ">
<polygon fill="white" stroke="#666666" points="1099,-571.75 999,-571.75 999,-552.5 1099,-552.5 1099,-571.75"/>
<text text-anchor="middle" x="1049" y="-558.25" font-family="Helvetica,sans-Serif" font-size="10.00">mimic++/Utility.hpp</text>
</a>
</g>
</g>
<!-- Node1&#45;&gt;Node18 -->
<g id="edge45_Node000001_Node000018" class="edge">
<title>Node1&#45;&gt;Node18</title>
<g id="a_edge45_Node000001_Node000018"><a xlink:title=" ">
<path fill="none" stroke="#63b8ff" d="M815.34,-605.74C869.24,-595.91 948.46,-581.46 999.39,-572.17"/>
<polygon fill="#63b8ff" stroke="#63b8ff" points="814.94,-602.25 805.73,-607.49 816.19,-609.14 814.94,-602.25"/>
</a>
</g>
</g>
<!-- Node3 -->
<g id="Node000003" class="node">
<title>Node3</title>
<g id="a_Node000003"><a xlink:href="../../d5/d8a/_expectation_8hpp.html" target="_top" xlink:title=" ">
<polygon fill="white" stroke="#666666" points="751.75,-240.25 626.25,-240.25 626.25,-221 751.75,-221 751.75,-240.25"/>
<text text-anchor="middle" x="689" y="-226.75" font-family="Helvetica,sans-Serif" font-size="10.00">mimic++/Expectation.hpp</text>
</a>
</g>
</g>
<!-- Node2&#45;&gt;Node3 -->
<g id="edge2_Node000002_Node000003" class="edge">
<title>Node2&#45;&gt;Node3</title>
<g id="a_edge2_Node000002_Node000003"><a xlink:title=" ">
<path fill="none" stroke="#63b8ff" d="M630.69,-485.66C631.34,-473.04 632.59,-456.5 635,-442 648.17,-362.77 676.81,-269.75 686.06,-240.73"/>
<polygon fill="#63b8ff" stroke="#63b8ff" points="627.19,-485.49 630.27,-495.63 634.18,-485.78 627.19,-485.49"/>
</a>
</g>
</g>
<!-- Node2&#45;&gt;Node7 -->
<g id="edge31_Node000002_Node000007" class="edge">
<title>Node2&#45;&gt;Node7</title>
<g id="a_edge31_Node000002_Node000007"><a xlink:title=" ">
<path fill="none" stroke="#63b8ff" d="M572.94,-501.39C424.54,-488.96 38,-451.41 38,-397.38 38,-397.38 38,-397.38 38,-119.12 38,-39.16 638.91,-16.94 829.04,-11.91"/>
<polygon fill="#63b8ff" stroke="#63b8ff" points="572.28,-504.85 582.53,-502.18 572.85,-497.87 572.28,-504.85"/>
</a>
</g>
</g>
<!-- Node2&#45;&gt;Node9 -->
<g id="edge14_Node000002_Node000009" class="edge">
<title>Node2&#45;&gt;Node9</title>
<g id="a_edge14_Node000002_Node000009"><a xlink:title=" ">
<path fill="none" stroke="#63b8ff" d="M614.35,-488.72C593.05,-465.38 555.7,-424.44 539.21,-406.38"/>
<polygon fill="#63b8ff" stroke="#63b8ff" points="611.55,-490.85 620.88,-495.88 616.72,-486.13 611.55,-490.85"/>
</a>
</g>
</g>
<!-- Node2&#45;&gt;Node15 -->
<g id="edge27_Node000002_Node000015" class="edge">
<title>Node2&#45;&gt;Node15</title>
<g id="a_edge27_Node000002_Node000015"><a xlink:title=" ">
<path fill="none" stroke="#63b8ff" d="M650.35,-489.94C662.22,-480.64 676.76,-469.26 686.64,-461.52"/>
<polygon fill="#63b8ff" stroke="#63b8ff" points="648.44,-486.99 642.73,-495.91 652.76,-492.5 648.44,-486.99"/>
</a>
</g>
</g>
<!-- Node4 -->
<g id="Node000004" class="node">
<title>Node4</title>
<g id="a_Node000004"><a xlink:href="../../d2/d4f/_expectation_builder_8hpp.html" target="_top" xlink:title=" ">
<polygon fill="white" stroke="#666666" points="857.75,-129.75 702.25,-129.75 702.25,-110.5 857.75,-110.5 857.75,-129.75"/>
<text text-anchor="middle" x="780" y="-116.25" font-family="Helvetica,sans-Serif" font-size="10.00">mimic++/ExpectationBuilder.hpp</text>
</a>
</g>
</g>
<!-- Node3&#45;&gt;Node4 -->
<g id="edge3_Node000003_Node000004" class="edge">
<title>Node3&#45;&gt;Node4</title>
<g id="a_edge3_Node000003_Node000004"><a xlink:title=" ">
<path fill="none" stroke="#63b8ff" d="M703.65,-212.16C723.27,-188.77 757.37,-148.11 772.45,-130.13"/>
<polygon fill="#63b8ff" stroke="#63b8ff" points="701.16,-209.68 697.42,-219.59 706.53,-214.17 701.16,-209.68"/>
</a>
</g>
</g>
<!-- Node5 -->
<g id="Node000005" class="node">
<title>Node5</title>
<g id="a_Node000005"><a xlink:href="../../d5/dc5/_mock_8hpp.html" target="_top" xlink:title=" ">
<polygon fill="white" stroke="#666666" points="819.62,-74.5 720.38,-74.5 720.38,-55.25 819.62,-55.25 819.62,-74.5"/>
<text text-anchor="middle" x="770" y="-61" font-family="Helvetica,sans-Serif" font-size="10.00">mimic++/Mock.hpp</text>
</a>
</g>
</g>
<!-- Node3&#45;&gt;Node5 -->
<g id="edge12_Node000003_Node000005" class="edge">
<title>Node3&#45;&gt;Node5</title>
<g id="a_edge12_Node000003_Node000005"><a xlink:title=" ">
<path fill="none" stroke="#63b8ff" d="M684.17,-209.78C679.24,-184.72 674.63,-141.18 693,-110.5 703.4,-93.13 723.32,-81.86 740.29,-74.98"/>
<polygon fill="#63b8ff" stroke="#63b8ff" points="680.69,-210.26 686.27,-219.27 687.53,-208.75 680.69,-210.26"/>
</a>
</g>
</g>
<!-- Node3&#45;&gt;Node7 -->
<g id="edge13_Node000003_Node000007" class="edge">
<title>Node3&#45;&gt;Node7</title>
<g id="a_edge13_Node000003_Node000007"><a xlink:title=" ">
<path fill="none" stroke="#63b8ff" d="M681.93,-209.83C679.54,-202.18 677.18,-193.28 676,-185 667.56,-125.87 663.87,-91.94 711,-55.25 744.65,-29.05 791.93,-18.1 828.87,-13.58"/>
<polygon fill="#63b8ff" stroke="#63b8ff" points="678.55,-210.76 685.05,-219.13 685.18,-208.53 678.55,-210.76"/>
</a>
</g>
</g>
<!-- Node8 -->
<g id="Node000008" class="node">
<title>Node8</title>
<g id="a_Node000008"><a xlink:href="../../d8/de5/_expectation_policies_8hpp.html" target="_top" xlink:title=" ">
<polygon fill="white" stroke="#666666" points="1103,-185 943,-185 943,-165.75 1103,-165.75 1103,-185"/>
<text text-anchor="middle" x="1023" y="-171.5" font-family="Helvetica,sans-Serif" font-size="10.00">mimic++/ExpectationPolicies.hpp</text>
</a>
</g>
</g>
<!-- Node3&#45;&gt;Node8 -->
<g id="edge8_Node000003_Node000008" class="edge">
<title>Node3&#45;&gt;Node8</title>
<g id="a_edge8_Node000003_Node000008"><a xlink:title=" ">
<path fill="none" stroke="#63b8ff" d="M757.18,-218.75C818.68,-208.95 908.11,-194.69 965.92,-185.48"/>
<polygon fill="#63b8ff" stroke="#63b8ff" points="756.86,-215.26 747.53,-220.29 757.96,-222.18 756.86,-215.26"/>
</a>
</g>
</g>
<!-- Node4&#45;&gt;Node5 -->
<g id="edge4_Node000004_Node000005" class="edge">
<title>Node4&#45;&gt;Node5</title>
<g id="a_edge4_Node000004_Node000005"><a xlink:title=" ">
<path fill="none" stroke="#63b8ff" d="M776.25,-99.17C774.68,-90.8 772.93,-81.5 771.69,-74.86"/>
<polygon fill="#63b8ff" stroke="#63b8ff" points="772.78,-99.66 778.07,-108.84 779.66,-98.37 772.78,-99.66"/>
</a>
</g>
</g>
<!-- Node4&#45;&gt;Node7 -->
<g id="edge7_Node000004_Node000007" class="edge">
<title>Node4&#45;&gt;Node7</title>
<g id="a_edge7_Node000004_Node000007"><a xlink:title=" ">
<path fill="none" stroke="#63b8ff" d="M798.92,-102.72C808.2,-94.47 819.41,-84.19 829,-74.5 847.61,-55.7 867.9,-32.16 878.53,-19.56"/>
<polygon fill="#63b8ff" stroke="#63b8ff" points="796.76,-99.96 791.56,-109.19 801.38,-105.22 796.76,-99.96"/>
</a>
</g>
</g>
<!-- Node5&#45;&gt;Node6 -->
<g id="edge5_Node000005_Node000006" class="edge">
<title>Node5&#45;&gt;Node6</title>
<g id="a_edge5_Node000005_Node000006"><a xlink:title=" ">
<path fill="none" stroke="#63b8ff" d="M709.02,-55.74C636.23,-46.02 514.86,-29.82 439.07,-19.71"/>
<polygon fill="#63b8ff" stroke="#63b8ff" points="708.4,-59.18 718.77,-57.04 709.32,-52.25 708.4,-59.18"/>
</a>
</g>
</g>
<!-- Node5&#45;&gt;Node7 -->
<g id="edge6_Node000005_Node000007" class="edge">
<title>Node5&#45;&gt;Node7</title>
<g id="a_edge6_Node000005_Node000007"><a xlink:title=" ">
<path fill="none" stroke="#63b8ff" d="M799.92,-50.14C820.78,-40.56 848.03,-28.06 866.23,-19.7"/>
<polygon fill="#63b8ff" stroke="#63b8ff" points="798.68,-46.86 791.05,-54.21 801.6,-53.22 798.68,-46.86"/>
</a>
</g>
</g>
<!-- Node8&#45;&gt;Node4 -->
<g id="edge9_Node000008_Node000004" class="edge">
<title>Node8&#45;&gt;Node4</title>
<g id="a_edge9_Node000008_Node000004"><a xlink:title=" ">
<path fill="none" stroke="#63b8ff" d="M970.28,-162.82C925.6,-153.03 862.42,-139.19 821.33,-130.18"/>
<polygon fill="#63b8ff" stroke="#63b8ff" points="969.51,-166.24 980.02,-164.96 971.01,-159.4 969.51,-166.24"/>
</a>
</g>
</g>
<!-- Node8&#45;&gt;Node5 -->
<g id="edge10_Node000008_Node000005" class="edge">
<title>Node8&#45;&gt;Node5</title>
<g id="a_edge10_Node000008_Node000005"><a xlink:title=" ">
<path fill="none" stroke="#63b8ff" d="M991.52,-160.88C939.23,-138.45 835.82,-94.1 791.25,-74.99"/>
<polygon fill="#63b8ff" stroke="#63b8ff" points="989.9,-163.99 1000.47,-164.71 992.66,-157.56 989.9,-163.99"/>
</a>
</g>
</g>
<!-- Node8&#45;&gt;Node7 -->
<g id="edge11_Node000008_Node000007" class="edge">
<title>Node8&#45;&gt;Node7</title>
<g id="a_edge11_Node000008_Node000007"><a xlink:title=" ">
<path fill="none" stroke="#63b8ff" d="M1019.65,-154.15C1014.43,-128.36 1002.12,-83.68 976,-55.25 960.19,-38.04 936.27,-26.62 917.06,-19.65"/>
<polygon fill="#63b8ff" stroke="#63b8ff" points="1016.2,-154.75 1021.44,-163.96 1023.08,-153.49 1016.2,-154.75"/>
</a>
</g>
</g>
<!-- Node9&#45;&gt;Node3 -->
<g id="edge15_Node000009_Node000003" class="edge">
<title>Node9&#45;&gt;Node3</title>
<g id="a_edge15_Node000009_Node000003"><a xlink:title=" ">
<path fill="none" stroke="#63b8ff" d="M463.47,-395.93C329.38,-395.81 46.45,-388.89 95,-331.5 162.54,-251.66 487.1,-235.61 625.86,-232.41"/>
<polygon fill="#63b8ff" stroke="#63b8ff" points="463.29,-399.43 473.29,-395.92 463.29,-392.43 463.29,-399.43"/>
</a>
</g>
</g>
<!-- Node9&#45;&gt;Node7 -->
<g id="edge26_Node000009_Node000007" class="edge">
<title>Node9&#45;&gt;Node7</title>
<g id="a_edge26_Node000009_Node000007"><a xlink:title=" ">
<path fill="none" stroke="#63b8ff" d="M562.96,-380.89C574.96,-373.67 587.31,-363.68 594,-350.75 597.93,-343.15 595.4,-339.94 594,-331.5 586.34,-285.24 560,-278.52 560,-231.62 560,-231.62 560,-231.62 560,-119.12 560,-88.8 560.4,-74.3 584,-55.25 620.65,-25.67 752,-15.65 828.88,-12.29"/>
<polygon fill="#63b8ff" stroke="#63b8ff" points="561.5,-377.7 554.41,-385.57 564.86,-383.83 561.5,-377.7"/>
</a>
</g>
</g>
<!-- Node9&#45;&gt;Node10 -->
<g id="edge16_Node000009_Node000010" class="edge">
<title>Node9&#45;&gt;Node10</title>
<g id="a_edge16_Node000009_Node000010"><a xlink:title=" ">
<path fill="none" stroke="#63b8ff" d="M591.55,-384.26C644.99,-374.44 721.92,-360.32 771.68,-351.18"/>
<polygon fill="#63b8ff" stroke="#63b8ff" points="591.22,-380.76 582.01,-386.01 592.48,-387.64 591.22,-380.76"/>
</a>
</g>
</g>
<!-- Node12 -->
<g id="Node000012" class="node">
<title>Node12</title>
<g id="a_Node000012"><a xlink:href="../../d9/d42/_boost_test_8hpp.html" target="_top" xlink:title=" ">
<polygon fill="white" stroke="#666666" points="264.38,-350.75 103.62,-350.75 103.62,-331.5 264.38,-331.5 264.38,-350.75"/>
<text text-anchor="middle" x="184" y="-337.25" font-family="Helvetica,sans-Serif" font-size="10.00">mimic++/adapters/BoostTest.hpp</text>
</a>
</g>
</g>
<!-- Node9&#45;&gt;Node12 -->
<g id="edge23_Node000009_Node000012" class="edge">
<title>Node9&#45;&gt;Node12</title>
<g id="a_edge23_Node000009_Node000012"><a xlink:title=" ">
<path fill="none" stroke="#63b8ff" d="M463.69,-385.05C399.71,-375.23 304.43,-360.61 243.25,-351.22"/>
<polygon fill="#63b8ff" stroke="#63b8ff" points="462.95,-388.47 473.37,-386.53 464.01,-381.55 462.95,-388.47"/>
</a>
</g>
</g>
<!-- Node13 -->
<g id="Node000013" class="node">
<title>Node13</title>
<g id="a_Node000013"><a xlink:href="../../d3/d04/_catch2_8hpp.html" target="_top" xlink:title=" ">
<polygon fill="white" stroke="#666666" points="429.25,-350.75 282.75,-350.75 282.75,-331.5 429.25,-331.5 429.25,-350.75"/>
<text text-anchor="middle" x="356" y="-337.25" font-family="Helvetica,sans-Serif" font-size="10.00">mimic++/adapters/Catch2.hpp</text>
</a>
</g>
</g>
<!-- Node9&#45;&gt;Node13 -->
<g id="edge24_Node000009_Node000013" class="edge">
<title>Node9&#45;&gt;Node13</title>
<g id="a_edge24_Node000009_Node000013"><a xlink:title=" ">
<path fill="none" stroke="#63b8ff" d="M490.55,-383.07C458.57,-373.34 414.67,-359.98 385.83,-351.2"/>
<polygon fill="#63b8ff" stroke="#63b8ff" points="489.28,-386.34 499.87,-385.9 491.32,-379.64 489.28,-386.34"/>
</a>
</g>
</g>
<!-- Node14 -->
<g id="Node000014" class="node">
<title>Node14</title>
<g id="a_Node000014"><a xlink:href="../../d5/db1/gtest_8hpp.html" target="_top" xlink:title=" ">
<polygon fill="white" stroke="#666666" points="584.75,-350.75 447.25,-350.75 447.25,-331.5 584.75,-331.5 584.75,-350.75"/>
<text text-anchor="middle" x="516" y="-337.25" font-family="Helvetica,sans-Serif" font-size="10.00">mimic++/adapters/gtest.hpp</text>
</a>
</g>
</g>
<!-- Node9&#45;&gt;Node14 -->
<g id="edge25_Node000009_Node000014" class="edge">
<title>Node9&#45;&gt;Node14</title>
<g id="a_edge25_Node000009_Node000014"><a xlink:title=" ">
<path fill="none" stroke="#63b8ff" d="M525.46,-375.71C523.08,-367.27 520.42,-357.83 518.53,-351.11"/>
<polygon fill="#63b8ff" stroke="#63b8ff" points="522.03,-376.45 528.11,-385.13 528.77,-374.55 522.03,-376.45"/>
</a>
</g>
</g>
<!-- Node10&#45;&gt;Node4 -->
<g id="edge21_Node000010_Node000004" class="edge">
<title>Node10&#45;&gt;Node4</title>
<g id="a_edge21_Node000010_Node000004"><a xlink:title=" ">
<path fill="none" stroke="#63b8ff" d="M781.78,-326.34C767.94,-319.36 753.88,-309.35 746,-295.5 733.42,-273.38 754.05,-264.73 761,-240.25 772.38,-200.16 777.55,-150.41 779.29,-130.25"/>
<polygon fill="#63b8ff" stroke="#63b8ff" points="780.29,-329.5 790.84,-330.47 783.19,-323.13 780.29,-329.5"/>
</a>
</g>
</g>
<!-- Node10&#45;&gt;Node7 -->
<g id="edge22_Node000010_Node000007" class="edge">
<title>Node10&#45;&gt;Node7</title>
<g id="a_edge22_Node000010_Node000007"><a xlink:title=" ">
<path fill="none" stroke="#63b8ff" d="M860.22,-326.34C874.06,-319.36 888.12,-309.35 896,-295.5 950.18,-200.21 903.12,-56.55 889.45,-19.56"/>
<polygon fill="#63b8ff" stroke="#63b8ff" points="858.81,-323.13 851.16,-330.47 861.71,-329.5 858.81,-323.13"/>
</a>
</g>
</g>
<!-- Node11 -->
<g id="Node000011" class="node">
<title>Node11</title>
<g id="a_Node000011"><a xlink:href="../../d6/d17/_control_policy_8hpp.html" target="_top" xlink:title=" ">
<polygon fill="white" stroke="#666666" points="887.12,-295.5 754.88,-295.5 754.88,-276.25 887.12,-276.25 887.12,-295.5"/>
<text text-anchor="middle" x="821" y="-282" font-family="Helvetica,sans-Serif" font-size="10.00">mimic++/ControlPolicy.hpp</text>
</a>
</g>
</g>
<!-- Node10&#45;&gt;Node11 -->
<g id="edge17_Node000010_Node000011" class="edge">
<title>Node10&#45;&gt;Node11</title>
<g id="a_edge17_Node000010_Node000011"><a xlink:title=" ">
<path fill="none" stroke="#63b8ff" d="M821,-319.88C821,-311.59 821,-302.42 821,-295.86"/>
<polygon fill="#63b8ff" stroke="#63b8ff" points="817.5,-319.82 821,-329.82 824.5,-319.82 817.5,-319.82"/>
</a>
</g>
</g>
<!-- Node11&#45;&gt;Node3 -->
<g id="edge18_Node000011_Node000003" class="edge">
<title>Node11&#45;&gt;Node3</title>
<g id="a_edge18_Node000011_Node000003"><a xlink:title=" ">
<path fill="none" stroke="#63b8ff" d="M788.25,-271.66C764.35,-262.02 732.59,-249.21 711.5,-240.7"/>
<polygon fill="#63b8ff" stroke="#63b8ff" points="786.62,-274.78 797.2,-275.28 789.24,-268.29 786.62,-274.78"/>
</a>
</g>
</g>
<!-- Node11&#45;&gt;Node4 -->
<g id="edge19_Node000011_Node000004" class="edge">
<title>Node11&#45;&gt;Node4</title>
<g id="a_edge19_Node000011_Node000004"><a xlink:title=" ">
<path fill="none" stroke="#63b8ff" d="M816.97,-264.81C812.08,-241.03 803.32,-200.29 794,-165.75 790.62,-153.21 785.99,-138.91 783,-129.95"/>
<polygon fill="#63b8ff" stroke="#63b8ff" points="813.49,-265.26 818.91,-274.36 820.35,-263.87 813.49,-265.26"/>
</a>
</g>
</g>
<!-- Node11&#45;&gt;Node7 -->
<g id="edge20_Node000011_Node000007" class="edge">
<title>Node11&#45;&gt;Node7</title>
<g id="a_edge20_Node000011_Node000007"><a xlink:title=" ">
<path fill="none" stroke="#63b8ff" d="M827.76,-265.14C837.56,-235.88 855.79,-179.13 867,-129.75 876.23,-89.11 882.59,-39.67 884.97,-19.67"/>
<polygon fill="#63b8ff" stroke="#63b8ff" points="824.49,-263.86 824.6,-274.46 831.12,-266.11 824.49,-263.86"/>
</a>
</g>
</g>
<!-- Node15&#45;&gt;Node7 -->
<g id="edge30_Node000015_Node000007" class="edge">
<title>Node15&#45;&gt;Node7</title>
<g id="a_edge30_Node000015_Node000007"><a xlink:title=" ">
<path fill="none" stroke="#63b8ff" d="M683.54,-432.96C655.84,-397.27 598,-313 598,-231.62 598,-231.62 598,-231.62 598,-119.12 598,-70.44 642.57,-75.17 687,-55.25 732.55,-34.82 788.3,-23.36 829.18,-17.18"/>
<polygon fill="#63b8ff" stroke="#63b8ff" points="680.58,-434.86 689.54,-440.51 686.06,-430.51 680.58,-434.86"/>
</a>
</g>
</g>
<!-- Node15&#45;&gt;Node9 -->
<g id="edge29_Node000015_Node000009" class="edge">
<title>Node15&#45;&gt;Node9</title>
<g id="a_edge29_Node000015_Node000009"><a xlink:title=" ">
<path fill="none" stroke="#63b8ff" d="M658.99,-438.19C628.52,-428.47 586.87,-415.19 559.47,-406.45"/>
<polygon fill="#63b8ff" stroke="#63b8ff" points="657.64,-441.43 668.23,-441.13 659.76,-434.76 657.64,-441.43"/>
</a>
</g>
</g>
<!-- Node15&#45;&gt;Node11 -->
<g id="edge28_Node000015_Node000011" class="edge">
<title>Node15&#45;&gt;Node11</title>
<g id="a_edge28_Node000015_Node000011"><a xlink:title=" ">
<path fill="none" stroke="#63b8ff" d="M703.4,-430.85C711.09,-405.56 727.19,-361.45 753,-331.5 766.46,-315.88 786.68,-303.56 801.58,-295.86"/>
<polygon fill="#63b8ff" stroke="#63b8ff" points="700.13,-429.58 700.72,-440.16 706.85,-431.52 700.13,-429.58"/>
</a>
</g>
</g>
<!-- Node16&#45;&gt;Node7 -->
<g id="edge41_Node000016_Node000007" class="edge">
<title>Node16&#45;&gt;Node7</title>
<g id="a_edge41_Node000016_Node000007"><a xlink:title=" ">
<path fill="none" stroke="#63b8ff" d="M877.15,-489.64C928.7,-446.64 1064.62,-323.52 1112,-185 1143.43,-93.09 994.26,-39.7 922.6,-19.73"/>
<polygon fill="#63b8ff" stroke="#63b8ff" points="874.95,-486.93 869.45,-495.98 879.39,-492.33 874.95,-486.93"/>
</a>
</g>
</g>
<!-- Node16&#45;&gt;Node8 -->
<g id="edge34_Node000016_Node000008" class="edge">
<title>Node16&#45;&gt;Node8</title>
<g id="a_edge34_Node000016_Node000008"><a xlink:title=" ">
<path fill="none" stroke="#63b8ff" d="M866.43,-487.16C897.52,-425.44 996.13,-229.72 1018.47,-185.37"/>
<polygon fill="#63b8ff" stroke="#63b8ff" points="863.49,-485.2 862.12,-495.71 869.75,-488.35 863.49,-485.2"/>
</a>
</g>
</g>
<!-- Node16&#45;&gt;Node9 -->
<g id="edge38_Node000016_Node000009" class="edge">
<title>Node16&#45;&gt;Node9</title>
<g id="a_edge38_Node000016_Node000009"><a xlink:title=" ">
<path fill="none" stroke="#63b8ff" d="M837.95,-489.66C819.66,-474.95 790.65,-453.82 762,-442 705.18,-418.55 635.33,-407.25 587.41,-401.92"/>
<polygon fill="#63b8ff" stroke="#63b8ff" points="835.59,-492.25 845.54,-495.91 840.04,-486.85 835.59,-492.25"/>
</a>
</g>
</g>
<!-- Node16&#45;&gt;Node10 -->
<g id="edge40_Node000016_Node000010" class="edge">
<title>Node16&#45;&gt;Node10</title>
<g id="a_edge40_Node000016_Node000010"><a xlink:title=" ">
<path fill="none" stroke="#63b8ff" d="M853.37,-485.84C848.97,-462.1 841.14,-421.39 833,-386.75 830.06,-374.25 826.11,-359.95 823.56,-350.97"/>
<polygon fill="#63b8ff" stroke="#63b8ff" points="849.87,-486.17 855.12,-495.38 856.76,-484.91 849.87,-486.17"/>
</a>
</g>
</g>
<!-- Node16&#45;&gt;Node15 -->
<g id="edge39_Node000016_Node000015" class="edge">
<title>Node16&#45;&gt;Node15</title>
<g id="a_edge39_Node000016_Node000015"><a xlink:title=" ">
<path fill="none" stroke="#63b8ff" d="M819.48,-493.31C790.5,-483.6 751.08,-470.4 725.1,-461.7"/>
<polygon fill="#63b8ff" stroke="#63b8ff" points="818,-496.5 828.59,-496.36 820.22,-489.87 818,-496.5"/>
</a>
</g>
</g>
<!-- Node17 -->
<g id="Node000017" class="node">
<title>Node17</title>
<g id="a_Node000017"><a xlink:href="../../dd/d50/_matcher_8hpp.html" target="_top" xlink:title=" ">
<polygon fill="white" stroke="#666666" points="1149.25,-406 1038.75,-406 1038.75,-386.75 1149.25,-386.75 1149.25,-406"/>
<text text-anchor="middle" x="1094" y="-392.5" font-family="Helvetica,sans-Serif" font-size="10.00">mimic++/Matcher.hpp</text>
</a>
</g>
</g>
<!-- Node16&#45;&gt;Node17 -->
<g id="edge35_Node000016_Node000017" class="edge">
<title>Node16&#45;&gt;Node17</title>
<g id="a_edge35_Node000016_Node000017"><a xlink:title=" ">
<path fill="none" stroke="#63b8ff" d="M900.41,-493.46C926.1,-485.5 959,-474.24 987,-461.25 1022.52,-444.77 1061.3,-419.66 1080.98,-406.37"/>
<polygon fill="#63b8ff" stroke="#63b8ff" points="899.51,-490.07 890.96,-496.33 901.55,-496.77 899.51,-490.07"/>
</a>
</g>
</g>
<!-- Node17&#45;&gt;Node7 -->
<g id="edge37_Node000017_Node000007" class="edge">
<title>Node17&#45;&gt;Node7</title>
<g id="a_edge37_Node000017_Node000007"><a xlink:title=" ">
<path fill="none" stroke="#63b8ff" d="M1105.09,-376.74C1125.96,-339.85 1169,-254.32 1169,-176.38 1169,-176.38 1169,-176.38 1169,-119.12 1169,-88.8 1168.37,-74.58 1145,-55.25 1114.98,-30.42 1009.78,-18.86 943.05,-13.92"/>
<polygon fill="#63b8ff" stroke="#63b8ff" points="1102.14,-374.85 1100.15,-385.26 1108.19,-378.36 1102.14,-374.85"/>
</a>
</g>
</g>
<!-- Node17&#45;&gt;Node8 -->
<g id="edge36_Node000017_Node000008" class="edge">
<title>Node17&#45;&gt;Node8</title>
<g id="a_edge36_Node000017_Node000008"><a xlink:title=" ">
<path fill="none" stroke="#63b8ff" d="M1087.62,-375.7C1072.75,-329.84 1036.26,-217.29 1025.83,-185.1"/>
<polygon fill="#63b8ff" stroke="#63b8ff" points="1084.25,-376.65 1090.66,-385.08 1090.91,-374.49 1084.25,-376.65"/>
</a>
</g>
</g>
<!-- Node18&#45;&gt;Node2 -->
<g id="edge46_Node000018_Node000002" class="edge">
<title>Node18&#45;&gt;Node2</title>
<g id="a_edge46_Node000018_Node000002"><a xlink:title=" ">
<path fill="none" stroke="#63b8ff" d="M987.63,-553.33C902.97,-542.57 752.21,-523.41 676.33,-513.76"/>
<polygon fill="#63b8ff" stroke="#63b8ff" points="987.01,-556.78 997.37,-554.56 987.89,-549.83 987.01,-556.78"/>
</a>
</g>
</g>
<!-- Node18&#45;&gt;Node7 -->
<g id="edge51_Node000018_Node000007" class="edge">
<title>Node18&#45;&gt;Node7</title>
<g id="a_edge51_Node000018_Node000007"><a xlink:title=" ">
<path fill="none" stroke="#63b8ff" d="M1104.9,-549.07C1153.1,-534.99 1215,-506.45 1215,-452.62 1215,-452.62 1215,-452.62 1215,-119.12 1215,-83.61 1197.42,-73.57 1167,-55.25 1130.24,-33.12 1013.93,-20.47 943,-14.63"/>
<polygon fill="#63b8ff" stroke="#63b8ff" points="1104.09,-545.66 1095.38,-551.69 1105.95,-552.41 1104.09,-545.66"/>
</a>
</g>
</g>
<!-- Node18&#45;&gt;Node8 -->
<g id="edge48_Node000018_Node000008" class="edge">
<title>Node18&#45;&gt;Node8</title>
<g id="a_edge48_Node000018_Node000008"><a xlink:title=" ">
<path fill="none" stroke="#63b8ff" d="M1086.03,-547.96C1123.83,-531.87 1177,-500.69 1177,-452.62 1177,-452.62 1177,-452.62 1177,-340.12 1177,-262.27 1083.48,-206.31 1042.19,-185.41"/>
<polygon fill="#63b8ff" stroke="#63b8ff" points="1085.18,-544.53 1077.24,-551.53 1087.82,-551.01 1085.18,-544.53"/>
</a>
</g>
</g>
<!-- Node18&#45;&gt;Node10 -->
<g id="edge50_Node000018_Node000010" class="edge">
<title>Node18&#45;&gt;Node10</title>
<g id="a_edge50_Node000018_Node000010"><a xlink:title=" ">
<path fill="none" stroke="#63b8ff" d="M1031.76,-544.56C986.31,-500.91 864.38,-383.79 830.09,-350.85"/>
<polygon fill="#63b8ff" stroke="#63b8ff" points="1029.05,-546.82 1038.69,-551.22 1033.9,-541.77 1029.05,-546.82"/>
</a>
</g>
</g>
<!-- Node18&#45;&gt;Node11 -->
<g id="edge47_Node000018_Node000011" class="edge">
<title>Node18&#45;&gt;Node11</title>
<g id="a_edge47_Node000018_Node000011"><a xlink:title=" ">
<path fill="none" stroke="#63b8ff" d="M1040.67,-541.68C1029.88,-517.39 1009.72,-475.01 987,-442 949.79,-387.92 938.65,-374.44 889,-331.5 872.66,-317.37 851.56,-304.19 837.23,-295.87"/>
<polygon fill="#63b8ff" stroke="#63b8ff" points="1037.38,-542.88 1044.59,-550.65 1043.79,-540.08 1037.38,-542.88"/>
</a>
</g>
</g>
<!-- Node18&#45;&gt;Node17 -->
<g id="edge49_Node000018_Node000017" class="edge">
<title>Node18&#45;&gt;Node17</title>
<g id="a_edge49_Node000018_Node000017"><a xlink:title=" ">
<path fill="none" stroke="#63b8ff" d="M1055.41,-541.42C1057.87,-533.68 1060.65,-524.7 1063,-516.5 1074.72,-475.62 1086.95,-426.31 1091.82,-406.38"/>
<polygon fill="#63b8ff" stroke="#63b8ff" points="1052.11,-540.24 1052.38,-550.83 1058.78,-542.39 1052.11,-540.24"/>
</a>
</g>
</g>
</g>
</svg>

<g id="navigator" transform="translate(0 0)" fill="#404254">
  <rect fill="#f2f5e9" fill-opacity="0.5" stroke="#606060" stroke-width=".5" x="0" y="0" width="60" height="60"/>
  <use id="zoomplus" xlink:href="#zoomPlus" x="17" y="9" onmousedown="handleZoom(evt,'in')"/>
  <use id="zoomminus" xlink:href="#zoomMin" x="42" y="9" onmousedown="handleZoom(evt,'out')"/>
  <use id="reset" xlink:href="#resetDef" x="30" y="36" onmousedown="handleReset()"/>
   <use id="arrowup" xlink:href="#arrowUp" x="0" y="0" onmousedown="handlePan(0,-1)"/>
  <use id="arrowright" xlink:href="#arrowRight" x="0" y="0" onmousedown="handlePan(1,0)"/>
  <use id="arrowdown" xlink:href="#arrowDown" x="0" y="0" onmousedown="handlePan(0,1)"/>
  <use id="arrowleft" xlink:href="#arrowLeft" x="0" y="0" onmousedown="handlePan(-1,0)"/>
</g>
<svg viewBox="0 0 15 15" width="100%" height="30px" preserveAspectRatio="xMaxYMin meet">
 <g id="arrow_out" transform="scale(0.3 0.3)">
  <a xlink:href="_fwd_8hpp__dep__incl_org.svg" target="_base">
   <rect id="button" ry="5" rx="5" y="6" x="6" height="38" width="38"
        fill="#f2f5e9" fill-opacity="0.5" stroke="#606060" stroke-width="1.0"/>
   <path id="arrow"
     d="M 11.500037,31.436501 C 11.940474,20.09759 22.043105,11.32322 32.158766,21.979434 L 37.068811,17.246167 C 37.068811,17.246167 37.088388,32 37.088388,32 L 22.160133,31.978069 C 22.160133,31.978069 26.997745,27.140456 26.997745,27.140456 C 18.528582,18.264221 13.291696,25.230495 11.500037,31.436501 z"
     style="fill:#404040;"/>
  </a>
 </g>
</svg>

<style type='text/css'>
<![CDATA[
[data-mouse-over-selected='false'] { opacity: 0.7; }
[data-mouse-over-selected='true']  { opacity: 1.0; }
]]>
</style>
<script type="application/ecmascript"><![CDATA[
document.addEventListener('DOMContentLoaded', (event) => {
  highlightEdges();
  highlightAdjacentNodes();
});
]]></script>
</svg>
