<?xml version="1.0" encoding="UTF-8" standalone="no"?>
<!DOCTYPE svg PUBLIC "-//W3C//DTD SVG 1.1//EN"
 "http://www.w3.org/Graphics/SVG/1.1/DTD/svg11.dtd">
<!-- Generated by graphviz version 11.0.0 (20240428.1522)
 -->
<!-- Title: mimic++/Fwd.hpp Pages: 1 -->
<svg width="1097pt" height="469pt"
 viewBox="0.00 0.00 1097.00 469.25" xmlns="http://www.w3.org/2000/svg" xmlns:xlink="http://www.w3.org/1999/xlink">
<g id="graph0" class="graph" transform="scale(1 1) rotate(0) translate(4 465.25)">
<title>mimic++/Fwd.hpp</title>
<!-- Node1 -->
<g id="Node000001" class="node">
<title>Node1</title>
<g id="a_Node000001"><a xlink:title=" ">
<polygon fill="#999999" stroke="#666666" points="626,-461.25 532,-461.25 532,-442 626,-442 626,-461.25"/>
<text text-anchor="middle" x="579" y="-447.75" font-family="Helvetica,sans-Serif" font-size="10.00">mimic++/Fwd.hpp</text>
</a>
</g>
</g>
<!-- Node2 -->
<g id="Node000002" class="node">
<title>Node2</title>
<g id="a_Node000002"><a xlink:href="../../dc/d44/_call_8hpp.html" target="_top" xlink:title=" ">
<polygon fill="white" stroke="#666666" points="624.88,-350.75 533.12,-350.75 533.12,-331.5 624.88,-331.5 624.88,-350.75"/>
<text text-anchor="middle" x="579" y="-337.25" font-family="Helvetica,sans-Serif" font-size="10.00">mimic++/Call.hpp</text>
</a>
</g>
</g>
<!-- Node1&#45;&gt;Node2 -->
<g id="edge1_Node000001_Node000002" class="edge">
<title>Node1&#45;&gt;Node2</title>
<g id="a_edge1_Node000001_Node000002"><a xlink:title=" ">
<path fill="none" stroke="#63b8ff" d="M579,-430.28C579,-406.55 579,-368.39 579,-351.13"/>
<polygon fill="#63b8ff" stroke="#63b8ff" points="575.5,-430.23 579,-440.23 582.5,-430.23 575.5,-430.23"/>
</a>
</g>
</g>
<!-- Node6 -->
<g id="Node000006" class="node">
<title>Node6</title>
<g id="a_Node000006"><a xlink:href="../../d0/db9/mimic_09_09_8hpp.html" target="_top" xlink:title=" ">
<polygon fill="white" stroke="#666666" points="810.75,-19.25 697.25,-19.25 697.25,0 810.75,0 810.75,-19.25"/>
<text text-anchor="middle" x="754" y="-5.75" font-family="Helvetica,sans-Serif" font-size="10.00">mimic++/mimic++.hpp</text>
</a>
</g>
</g>
<!-- Node1&#45;&gt;Node6 -->
<g id="edge37_Node000001_Node000006" class="edge">
<title>Node1&#45;&gt;Node6</title>
<g id="a_edge37_Node000001_Node000006"><a xlink:title=" ">
<path fill="none" stroke="#63b8ff" d="M520.16,-445.75C372.87,-432.75 0,-394.65 0,-342.12 0,-342.12 0,-342.12 0,-119.12 0,-57.53 63.71,-71.96 123,-55.25 230.02,-25.08 562.55,-14.72 696.87,-11.7"/>
<polygon fill="#63b8ff" stroke="#63b8ff" points="519.84,-449.23 530.11,-446.62 520.45,-442.26 519.84,-449.23"/>
</a>
</g>
</g>
<!-- Node8 -->
<g id="Node000008" class="node">
<title>Node8</title>
<g id="a_Node000008"><a xlink:href="../../da/dd9/_reporter_8hpp.html" target="_top" xlink:title=" ">
<polygon fill="white" stroke="#666666" points="553,-295.5 441,-295.5 441,-276.25 553,-276.25 553,-295.5"/>
<text text-anchor="middle" x="497" y="-282" font-family="Helvetica,sans-Serif" font-size="10.00">mimic++/Reporter.hpp</text>
</a>
</g>
</g>
<!-- Node1&#45;&gt;Node8 -->
<g id="edge30_Node000001_Node000008" class="edge">
<title>Node1&#45;&gt;Node8</title>
<g id="a_edge30_Node000001_Node000008"><a xlink:title=" ">
<path fill="none" stroke="#63b8ff" d="M567.88,-431.82C556.32,-411.97 538,-379.62 524,-350.75 514.65,-331.47 505.25,-308.12 500.39,-295.68"/>
<polygon fill="#63b8ff" stroke="#63b8ff" points="564.83,-433.54 572.91,-440.4 570.87,-430 564.83,-433.54"/>
</a>
</g>
</g>
<!-- Node13 -->
<g id="Node000013" class="node">
<title>Node13</title>
<g id="a_Node000013"><a xlink:href="../../da/dab/_printer_8hpp.html" target="_top" xlink:title=" ">
<polygon fill="white" stroke="#666666" points="798.88,-350.75 695.12,-350.75 695.12,-331.5 798.88,-331.5 798.88,-350.75"/>
<text text-anchor="middle" x="747" y="-337.25" font-family="Helvetica,sans-Serif" font-size="10.00">mimic++/Printer.hpp</text>
</a>
</g>
</g>
<!-- Node1&#45;&gt;Node13 -->
<g id="edge22_Node000001_Node000013" class="edge">
<title>Node1&#45;&gt;Node13</title>
<g id="a_edge22_Node000001_Node000013"><a xlink:title=" ">
<path fill="none" stroke="#63b8ff" d="M602.61,-435.38C638.18,-412.41 704.41,-369.63 733.12,-351.09"/>
<polygon fill="#63b8ff" stroke="#63b8ff" points="600.81,-432.37 594.31,-440.74 604.61,-438.25 600.81,-432.37"/>
</a>
</g>
</g>
<!-- Node15 -->
<g id="Node000015" class="node">
<title>Node15</title>
<g id="a_Node000015"><a xlink:href="../../d4/d2c/_utility_8hpp.html" target="_top" xlink:title=" ">
<polygon fill="white" stroke="#666666" points="953,-406 853,-406 853,-386.75 953,-386.75 953,-406"/>
<text text-anchor="middle" x="903" y="-392.5" font-family="Helvetica,sans-Serif" font-size="10.00">mimic++/Utility.hpp</text>
</a>
</g>
</g>
<!-- Node1&#45;&gt;Node15 -->
<g id="edge31_Node000001_Node000015" class="edge">
<title>Node1&#45;&gt;Node15</title>
<g id="a_edge31_Node000001_Node000015"><a xlink:title=" ">
<path fill="none" stroke="#63b8ff" d="M637.52,-441.01C698.97,-430.91 794.59,-415.19 852.75,-405.63"/>
<polygon fill="#63b8ff" stroke="#63b8ff" points="637.25,-437.5 627.95,-442.58 638.39,-444.41 637.25,-437.5"/>
</a>
</g>
</g>
<!-- Node3 -->
<g id="Node000003" class="node">
<title>Node3</title>
<g id="a_Node000003"><a xlink:href="../../d5/d8a/_expectation_8hpp.html" target="_top" xlink:title=" ">
<polygon fill="white" stroke="#666666" points="765.75,-240.25 640.25,-240.25 640.25,-221 765.75,-221 765.75,-240.25"/>
<text text-anchor="middle" x="703" y="-226.75" font-family="Helvetica,sans-Serif" font-size="10.00">mimic++/Expectation.hpp</text>
</a>
</g>
</g>
<!-- Node2&#45;&gt;Node3 -->
<g id="edge2_Node000002_Node000003" class="edge">
<title>Node2&#45;&gt;Node3</title>
<g id="a_edge2_Node000002_Node000003"><a xlink:title=" ">
<path fill="none" stroke="#63b8ff" d="M597.55,-323.89C624.03,-300.72 671.79,-258.93 692.71,-240.63"/>
<polygon fill="#63b8ff" stroke="#63b8ff" points="595.51,-321.03 590.29,-330.25 600.12,-326.3 595.51,-321.03"/>
</a>
</g>
</g>
<!-- Node2&#45;&gt;Node6 -->
<g id="edge21_Node000002_Node000006" class="edge">
<title>Node2&#45;&gt;Node6</title>
<g id="a_edge21_Node000002_Node000006"><a xlink:title=" ">
<path fill="none" stroke="#63b8ff" d="M521.63,-340.61C382.41,-340.25 38,-329.46 38,-231.62 38,-231.62 38,-231.62 38,-119.12 38,-52.61 527.29,-21.92 696.92,-13.28"/>
<polygon fill="#63b8ff" stroke="#63b8ff" points="521.36,-344.11 531.36,-340.62 521.36,-337.11 521.36,-344.11"/>
</a>
</g>
</g>
<!-- Node2&#45;&gt;Node8 -->
<g id="edge13_Node000002_Node000008" class="edge">
<title>Node2&#45;&gt;Node8</title>
<g id="a_edge13_Node000002_Node000008"><a xlink:title=" ">
<path fill="none" stroke="#63b8ff" d="M555.79,-325.05C541.35,-315.67 523.25,-303.92 510.98,-295.95"/>
<polygon fill="#63b8ff" stroke="#63b8ff" points="553.53,-327.76 563.82,-330.27 557.34,-321.89 553.53,-327.76"/>
</a>
</g>
</g>
<!-- Node4 -->
<g id="Node000004" class="node">
<title>Node4</title>
<g id="a_Node000004"><a xlink:href="../../d2/d4f/_expectation_builder_8hpp.html" target="_top" xlink:title=" ">
<polygon fill="white" stroke="#666666" points="831.75,-129.75 676.25,-129.75 676.25,-110.5 831.75,-110.5 831.75,-129.75"/>
<text text-anchor="middle" x="754" y="-116.25" font-family="Helvetica,sans-Serif" font-size="10.00">mimic++/ExpectationBuilder.hpp</text>
</a>
</g>
</g>
<!-- Node3&#45;&gt;Node4 -->
<g id="edge3_Node000003_Node000004" class="edge">
<title>Node3&#45;&gt;Node4</title>
<g id="a_edge3_Node000003_Node000004"><a xlink:title=" ">
<path fill="none" stroke="#63b8ff" d="M711.95,-210.58C723.05,-186.97 741.5,-147.71 749.77,-130.13"/>
<polygon fill="#63b8ff" stroke="#63b8ff" points="708.9,-208.84 707.82,-219.38 715.24,-211.82 708.9,-208.84"/>
</a>
</g>
</g>
<!-- Node5 -->
<g id="Node000005" class="node">
<title>Node5</title>
<g id="a_Node000005"><a xlink:href="../../d5/dc5/_mock_8hpp.html" target="_top" xlink:title=" ">
<polygon fill="white" stroke="#666666" points="894.62,-74.5 795.38,-74.5 795.38,-55.25 894.62,-55.25 894.62,-74.5"/>
<text text-anchor="middle" x="845" y="-61" font-family="Helvetica,sans-Serif" font-size="10.00">mimic++/Mock.hpp</text>
</a>
</g>
</g>
<!-- Node3&#45;&gt;Node5 -->
<g id="edge11_Node000003_Node000005" class="edge">
<title>Node3&#45;&gt;Node5</title>
<g id="a_edge11_Node000003_Node000005"><a xlink:title=" ">
<path fill="none" stroke="#63b8ff" d="M728.74,-214.68C765,-193.06 828.14,-153.09 841,-129.75 850.65,-112.23 848.71,-87.77 846.7,-74.79"/>
<polygon fill="#63b8ff" stroke="#63b8ff" points="727,-211.65 720.17,-219.75 730.56,-217.68 727,-211.65"/>
</a>
</g>
</g>
<!-- Node3&#45;&gt;Node6 -->
<g id="edge12_Node000003_Node000006" class="edge">
<title>Node3&#45;&gt;Node6</title>
<g id="a_edge12_Node000003_Node000006"><a xlink:title=" ">
<path fill="none" stroke="#63b8ff" d="M689.86,-211.04C674.84,-187.39 653.92,-145.42 667,-110.5 682.08,-70.23 721.55,-35.5 741.73,-19.7"/>
<polygon fill="#63b8ff" stroke="#63b8ff" points="686.89,-212.9 695.36,-219.27 692.71,-209.01 686.89,-212.9"/>
</a>
</g>
</g>
<!-- Node7 -->
<g id="Node000007" class="node">
<title>Node7</title>
<g id="a_Node000007"><a xlink:href="../../d8/de5/_expectation_policies_8hpp.html" target="_top" xlink:title=" ">
<polygon fill="white" stroke="#666666" points="978,-185 818,-185 818,-165.75 978,-165.75 978,-185"/>
<text text-anchor="middle" x="898" y="-171.5" font-family="Helvetica,sans-Serif" font-size="10.00">mimic++/ExpectationPolicies.hpp</text>
</a>
</g>
</g>
<!-- Node3&#45;&gt;Node7 -->
<g id="edge7_Node000003_Node000007" class="edge">
<title>Node3&#45;&gt;Node7</title>
<g id="a_edge7_Node000003_Node000007"><a xlink:title=" ">
<path fill="none" stroke="#63b8ff" d="M747.15,-217.57C782.85,-207.82 832.35,-194.3 864.76,-185.45"/>
<polygon fill="#63b8ff" stroke="#63b8ff" points="746.26,-214.18 737.54,-220.19 748.11,-220.94 746.26,-214.18"/>
</a>
</g>
</g>
<!-- Node4&#45;&gt;Node5 -->
<g id="edge4_Node000004_Node000005" class="edge">
<title>Node4&#45;&gt;Node5</title>
<g id="a_edge4_Node000004_Node000005"><a xlink:title=" ">
<path fill="none" stroke="#63b8ff" d="M779.29,-104.32C795.4,-94.9 815.74,-83 829.49,-74.95"/>
<polygon fill="#63b8ff" stroke="#63b8ff" points="777.61,-101.26 770.74,-109.33 781.14,-107.3 777.61,-101.26"/>
</a>
</g>
</g>
<!-- Node4&#45;&gt;Node6 -->
<g id="edge6_Node000004_Node000006" class="edge">
<title>Node4&#45;&gt;Node6</title>
<g id="a_edge6_Node000004_Node000006"><a xlink:title=" ">
<path fill="none" stroke="#63b8ff" d="M754,-98.78C754,-75.05 754,-36.89 754,-19.63"/>
<polygon fill="#63b8ff" stroke="#63b8ff" points="750.5,-98.73 754,-108.73 757.5,-98.73 750.5,-98.73"/>
</a>
</g>
</g>
<!-- Node5&#45;&gt;Node6 -->
<g id="edge5_Node000005_Node000006" class="edge">
<title>Node5&#45;&gt;Node6</title>
<g id="a_edge5_Node000005_Node000006"><a xlink:title=" ">
<path fill="none" stroke="#63b8ff" d="M819.71,-49.07C803.6,-39.65 783.26,-27.75 769.51,-19.7"/>
<polygon fill="#63b8ff" stroke="#63b8ff" points="817.86,-52.05 828.26,-54.08 821.39,-46.01 817.86,-52.05"/>
</a>
</g>
</g>
<!-- Node7&#45;&gt;Node4 -->
<g id="edge8_Node000007_Node000004" class="edge">
<title>Node7&#45;&gt;Node4</title>
<g id="a_edge8_Node000007_Node000004"><a xlink:title=" ">
<path fill="none" stroke="#63b8ff" d="M862.97,-161.42C836.83,-151.75 801.76,-138.79 778.55,-130.2"/>
<polygon fill="#63b8ff" stroke="#63b8ff" points="861.56,-164.63 872.15,-164.82 863.99,-158.07 861.56,-164.63"/>
</a>
</g>
</g>
<!-- Node7&#45;&gt;Node5 -->
<g id="edge9_Node000007_Node000005" class="edge">
<title>Node7&#45;&gt;Node5</title>
<g id="a_edge9_Node000007_Node000005"><a xlink:title=" ">
<path fill="none" stroke="#63b8ff" d="M891.81,-154.59C887.48,-141.73 881.21,-124.76 874,-110.5 867.42,-97.47 857.91,-83.53 851.6,-74.76"/>
<polygon fill="#63b8ff" stroke="#63b8ff" points="888.44,-155.57 894.86,-164 895.1,-153.41 888.44,-155.57"/>
</a>
</g>
</g>
<!-- Node7&#45;&gt;Node6 -->
<g id="edge10_Node000007_Node000006" class="edge">
<title>Node7&#45;&gt;Node6</title>
<g id="a_edge10_Node000007_Node000006"><a xlink:title=" ">
<path fill="none" stroke="#63b8ff" d="M905.89,-154.98C914.88,-129.43 925.7,-84.34 904,-55.25 882.72,-26.72 843.94,-15.7 811.14,-11.75"/>
<polygon fill="#63b8ff" stroke="#63b8ff" points="902.71,-153.5 902.43,-164.09 909.25,-155.98 902.71,-153.5"/>
</a>
</g>
</g>
<!-- Node8&#45;&gt;Node3 -->
<g id="edge14_Node000008_Node000003" class="edge">
<title>Node8&#45;&gt;Node3</title>
<g id="a_edge14_Node000008_Node000003"><a xlink:title=" ">
<path fill="none" stroke="#63b8ff" d="M542.66,-273.07C580.45,-263.3 633.35,-249.63 667.88,-240.7"/>
<polygon fill="#63b8ff" stroke="#63b8ff" points="542.22,-269.57 533.41,-275.46 543.97,-276.35 542.22,-269.57"/>
</a>
</g>
</g>
<!-- Node8&#45;&gt;Node6 -->
<g id="edge20_Node000008_Node000006" class="edge">
<title>Node8&#45;&gt;Node6</title>
<g id="a_edge20_Node000008_Node000006"><a xlink:title=" ">
<path fill="none" stroke="#63b8ff" d="M458.23,-271.34C442.84,-264.23 426.19,-254.06 415,-240.25 396.36,-217.23 396,-205.99 396,-176.38 396,-176.38 396,-176.38 396,-119.12 396,-57.02 595.8,-27.15 696.88,-16.02"/>
<polygon fill="#63b8ff" stroke="#63b8ff" points="456.63,-274.47 467.2,-275.19 459.39,-268.03 456.63,-274.47"/>
</a>
</g>
</g>
<!-- Node9 -->
<g id="Node000009" class="node">
<title>Node9</title>
<g id="a_Node000009"><a xlink:href="../../d8/de4/_sequence_8hpp.html" target="_top" xlink:title=" ">
<polygon fill="white" stroke="#666666" points="940.38,-240.25 821.62,-240.25 821.62,-221 940.38,-221 940.38,-240.25"/>
<text text-anchor="middle" x="881" y="-226.75" font-family="Helvetica,sans-Serif" font-size="10.00">mimic++/Sequence.hpp</text>
</a>
</g>
</g>
<!-- Node8&#45;&gt;Node9 -->
<g id="edge15_Node000008_Node000009" class="edge">
<title>Node8&#45;&gt;Node9</title>
<g id="a_edge15_Node000008_Node000009"><a xlink:title=" ">
<path fill="none" stroke="#63b8ff" d="M564.55,-275.51C637.31,-265.42 751.95,-249.52 821.44,-239.88"/>
<polygon fill="#63b8ff" stroke="#63b8ff" points="564.17,-272.03 554.75,-276.87 565.13,-278.96 564.17,-272.03"/>
</a>
</g>
</g>
<!-- Node10 -->
<g id="Node000010" class="node">
<title>Node10</title>
<g id="a_Node000010"><a xlink:href="../../d9/d42/_boost_test_8hpp.html" target="_top" xlink:title=" ">
<polygon fill="white" stroke="#666666" points="584.38,-240.25 423.62,-240.25 423.62,-221 584.38,-221 584.38,-240.25"/>
<text text-anchor="middle" x="504" y="-226.75" font-family="Helvetica,sans-Serif" font-size="10.00">mimic++/adapters/BoostTest.hpp</text>
</a>
</g>
</g>
<!-- Node8&#45;&gt;Node10 -->
<g id="edge17_Node000008_Node000010" class="edge">
<title>Node8&#45;&gt;Node10</title>
<g id="a_edge17_Node000008_Node000010"><a xlink:title=" ">
<path fill="none" stroke="#63b8ff" d="M499.62,-264.92C500.72,-256.55 501.95,-247.25 502.82,-240.61"/>
<polygon fill="#63b8ff" stroke="#63b8ff" points="496.19,-264.21 498.35,-274.58 503.13,-265.12 496.19,-264.21"/>
</a>
</g>
</g>
<!-- Node11 -->
<g id="Node000011" class="node">
<title>Node11</title>
<g id="a_Node000011"><a xlink:href="../../d3/d04/_catch2_8hpp.html" target="_top" xlink:title=" ">
<polygon fill="white" stroke="#666666" points="212.25,-240.25 65.75,-240.25 65.75,-221 212.25,-221 212.25,-240.25"/>
<text text-anchor="middle" x="139" y="-226.75" font-family="Helvetica,sans-Serif" font-size="10.00">mimic++/adapters/Catch2.hpp</text>
</a>
</g>
</g>
<!-- Node8&#45;&gt;Node11 -->
<g id="edge18_Node000008_Node000011" class="edge">
<title>Node8&#45;&gt;Node11</title>
<g id="a_edge18_Node000008_Node000011"><a xlink:title=" ">
<path fill="none" stroke="#63b8ff" d="M429.56,-274.84C363.54,-265.02 263.85,-250.2 200.09,-240.71"/>
<polygon fill="#63b8ff" stroke="#63b8ff" points="428.77,-278.26 439.17,-276.27 429.8,-271.34 428.77,-278.26"/>
</a>
</g>
</g>
<!-- Node12 -->
<g id="Node000012" class="node">
<title>Node12</title>
<g id="a_Node000012"><a xlink:href="../../d5/db1/gtest_8hpp.html" target="_top" xlink:title=" ">
<polygon fill="white" stroke="#666666" points="367.75,-240.25 230.25,-240.25 230.25,-221 367.75,-221 367.75,-240.25"/>
<text text-anchor="middle" x="299" y="-226.75" font-family="Helvetica,sans-Serif" font-size="10.00">mimic++/adapters/gtest.hpp</text>
</a>
</g>
</g>
<!-- Node8&#45;&gt;Node12 -->
<g id="edge19_Node000008_Node000012" class="edge">
<title>Node8&#45;&gt;Node12</title>
<g id="a_edge19_Node000008_Node000012"><a xlink:title=" ">
<path fill="none" stroke="#63b8ff" d="M452.64,-272.95C416.36,-263.19 365.81,-249.59 332.75,-240.7"/>
<polygon fill="#63b8ff" stroke="#63b8ff" points="451.38,-276.23 461.95,-275.45 453.2,-269.47 451.38,-276.23"/>
</a>
</g>
</g>
<!-- Node9&#45;&gt;Node6 -->
<g id="edge16_Node000009_Node000006" class="edge">
<title>Node9&#45;&gt;Node6</title>
<g id="a_edge16_Node000009_Node000006"><a xlink:title=" ">
<path fill="none" stroke="#63b8ff" d="M943.53,-216.88C960.47,-210.26 976.89,-200.22 987,-185 991.73,-177.87 989.25,-174 987,-165.75 972.03,-110.77 967.38,-89.7 922,-55.25 890.03,-30.98 845.94,-19.88 810.94,-14.82"/>
<polygon fill="#63b8ff" stroke="#63b8ff" points="942.68,-213.47 934.4,-220.08 945,-220.08 942.68,-213.47"/>
</a>
</g>
</g>
<!-- Node13&#45;&gt;Node6 -->
<g id="edge29_Node000013_Node000006" class="edge">
<title>Node13&#45;&gt;Node6</title>
<g id="a_edge29_Node000013_Node000006"><a xlink:title=" ">
<path fill="none" stroke="#63b8ff" d="M719.34,-325.74C691.14,-309.34 649.06,-279.62 631,-240.25 627.43,-232.47 629.94,-229.49 631,-221 640.56,-144.39 632.69,-113.81 683,-55.25 696.66,-39.35 717.42,-27.22 732.97,-19.64"/>
<polygon fill="#63b8ff" stroke="#63b8ff" points="717.27,-328.6 727.71,-330.44 720.7,-322.49 717.27,-328.6"/>
</a>
</g>
</g>
<!-- Node13&#45;&gt;Node7 -->
<g id="edge23_Node000013_Node000007" class="edge">
<title>Node13&#45;&gt;Node7</title>
<g id="a_edge23_Node000013_Node000007"><a xlink:title=" ">
<path fill="none" stroke="#63b8ff" d="M753.71,-320.69C763.38,-295.1 783.37,-249.97 813,-221 829.8,-204.57 853.88,-192.7 872.12,-185.35"/>
<polygon fill="#63b8ff" stroke="#63b8ff" points="750.53,-319.22 750.42,-329.81 757.11,-321.6 750.53,-319.22"/>
</a>
</g>
</g>
<!-- Node13&#45;&gt;Node8 -->
<g id="edge27_Node000013_Node000008" class="edge">
<title>Node13&#45;&gt;Node8</title>
<g id="a_edge27_Node000013_Node000008"><a xlink:title=" ">
<path fill="none" stroke="#63b8ff" d="M693.06,-328.63C647.07,-318.84 581.88,-304.95 539.52,-295.93"/>
<polygon fill="#63b8ff" stroke="#63b8ff" points="692.32,-332.06 702.83,-330.72 693.78,-325.21 692.32,-332.06"/>
</a>
</g>
</g>
<!-- Node13&#45;&gt;Node9 -->
<g id="edge28_Node000013_Node000009" class="edge">
<title>Node13&#45;&gt;Node9</title>
<g id="a_edge28_Node000013_Node000009"><a xlink:title=" ">
<path fill="none" stroke="#63b8ff" d="M768.96,-324.76C780.72,-316.36 795.36,-305.62 808,-295.5 831.4,-276.76 857.55,-253.2 871.32,-240.58"/>
<polygon fill="#63b8ff" stroke="#63b8ff" points="767.23,-321.7 761.09,-330.34 771.28,-327.41 767.23,-321.7"/>
</a>
</g>
</g>
<!-- Node14 -->
<g id="Node000014" class="node">
<title>Node14</title>
<g id="a_Node000014"><a xlink:href="../../dd/d50/_matcher_8hpp.html" target="_top" xlink:title=" ">
<polygon fill="white" stroke="#666666" points="1061.25,-295.5 950.75,-295.5 950.75,-276.25 1061.25,-276.25 1061.25,-295.5"/>
<text text-anchor="middle" x="1006" y="-282" font-family="Helvetica,sans-Serif" font-size="10.00">mimic++/Matcher.hpp</text>
</a>
</g>
</g>
<!-- Node13&#45;&gt;Node14 -->
<g id="edge24_Node000013_Node000014" class="edge">
<title>Node13&#45;&gt;Node14</title>
<g id="a_edge24_Node000013_Node000014"><a xlink:title=" ">
<path fill="none" stroke="#63b8ff" d="M802.28,-328.76C849.95,-318.96 917.88,-304.99 961.95,-295.93"/>
<polygon fill="#63b8ff" stroke="#63b8ff" points="801.8,-325.28 792.71,-330.73 803.21,-332.14 801.8,-325.28"/>
</a>
</g>
</g>
<!-- Node14&#45;&gt;Node6 -->
<g id="edge26_Node000014_Node000006" class="edge">
<title>Node14&#45;&gt;Node6</title>
<g id="a_edge26_Node000014_Node000006"><a xlink:title=" ">
<path fill="none" stroke="#63b8ff" d="M1016.93,-266.09C1028.16,-244.99 1044,-209.37 1044,-176.38 1044,-176.38 1044,-176.38 1044,-119.12 1044,-69.6 893.78,-35.16 809.57,-19.75"/>
<polygon fill="#63b8ff" stroke="#63b8ff" points="1013.98,-264.2 1012.18,-274.64 1020.1,-267.6 1013.98,-264.2"/>
</a>
</g>
</g>
<!-- Node14&#45;&gt;Node7 -->
<g id="edge25_Node000014_Node000007" class="edge">
<title>Node14&#45;&gt;Node7</title>
<g id="a_edge25_Node000014_Node000007"><a xlink:title=" ">
<path fill="none" stroke="#63b8ff" d="M1002.38,-264.9C999.04,-251.23 992.9,-233.4 982,-221 967.18,-204.13 944.39,-192.59 926.3,-185.48"/>
<polygon fill="#63b8ff" stroke="#63b8ff" points="998.92,-265.46 1004.4,-274.53 1005.77,-264.02 998.92,-265.46"/>
</a>
</g>
</g>
<!-- Node15&#45;&gt;Node2 -->
<g id="edge32_Node000015_Node000002" class="edge">
<title>Node15&#45;&gt;Node2</title>
<g id="a_edge32_Node000015_Node000002"><a xlink:title=" ">
<path fill="none" stroke="#63b8ff" d="M841.37,-385.25C778.36,-374.89 681.92,-359.04 625.19,-349.72"/>
<polygon fill="#63b8ff" stroke="#63b8ff" points="840.8,-388.7 851.24,-386.87 841.94,-381.79 840.8,-388.7"/>
</a>
</g>
</g>
<!-- Node15&#45;&gt;Node6 -->
<g id="edge36_Node000015_Node000006" class="edge">
<title>Node15&#45;&gt;Node6</title>
<g id="a_edge36_Node000015_Node000006"><a xlink:title=" ">
<path fill="none" stroke="#63b8ff" d="M964.27,-385.73C1018.47,-373.3 1089,-345.81 1089,-286.88 1089,-286.88 1089,-286.88 1089,-119.12 1089,-61.43 906.89,-29.83 811.21,-17.21"/>
<polygon fill="#63b8ff" stroke="#63b8ff" points="963.85,-382.24 954.81,-387.77 965.33,-389.08 963.85,-382.24"/>
</a>
</g>
</g>
<!-- Node15&#45;&gt;Node7 -->
<g id="edge33_Node000015_Node000007" class="edge">
<title>Node15&#45;&gt;Node7</title>
<g id="a_edge33_Node000015_Node000007"><a xlink:title=" ">
<path fill="none" stroke="#63b8ff" d="M909.57,-375.83C921.33,-340.41 945.14,-266.86 949,-240.25 950.23,-231.78 952.54,-228.79 949,-221 941.9,-205.36 926.31,-193.04 914.23,-185.35"/>
<polygon fill="#63b8ff" stroke="#63b8ff" points="906.29,-374.59 906.44,-385.19 912.93,-376.81 906.29,-374.59"/>
</a>
</g>
</g>
<!-- Node15&#45;&gt;Node9 -->
<g id="edge35_Node000015_Node000009" class="edge">
<title>Node15&#45;&gt;Node9</title>
<g id="a_edge35_Node000015_Node000009"><a xlink:title=" ">
<path fill="none" stroke="#63b8ff" d="M900.29,-375.22C895.47,-339.36 885.6,-265.85 882.19,-240.47"/>
<polygon fill="#63b8ff" stroke="#63b8ff" points="896.82,-375.63 901.62,-385.07 903.75,-374.69 896.82,-375.63"/>
</a>
</g>
</g>
<!-- Node15&#45;&gt;Node14 -->
<g id="edge34_Node000015_Node000014" class="edge">
<title>Node15&#45;&gt;Node14</title>
<g id="a_edge34_Node000015_Node000014"><a xlink:title=" ">
<path fill="none" stroke="#63b8ff" d="M919.28,-378.22C941.44,-354.88 980.3,-313.94 997.45,-295.88"/>
<polygon fill="#63b8ff" stroke="#63b8ff" points="916.82,-375.74 912.47,-385.4 921.89,-380.56 916.82,-375.74"/>
</a>
</g>
</g>
</g>
</svg>
