<?xml version="1.0" encoding="UTF-8" standalone="no"?>
<!DOCTYPE svg PUBLIC "-//W3C//DTD SVG 1.1//EN"
 "http://www.w3.org/Graphics/SVG/1.1/DTD/svg11.dtd">
<!-- Generated by graphviz version 12.1.2 (20240928.0832)
 -->
<!-- Title: mimic++/Fwd.hpp Pages: 1 -->
<!--zoomable 746 -->

<svg id="main" version="1.1" xmlns="http://www.w3.org/2000/svg" xmlns:xlink="http://www.w3.org/1999/xlink" xml:space="preserve" onload="init(evt)">

<style type="text/css"><![CDATA[
.node, .edge {opacity: 0.7;}
.node.selected, .edge.selected {opacity: 1;}
.edge:hover path { stroke: red; }
.edge:hover polygon { stroke: red; fill: red; }
]]></style>

<defs>
  <circle id="rim" cx="0" cy="0" r="7"/>
  <circle id="rim2" cx="0" cy="0" r="3.5"/>
  <g id="zoomPlus">
    <use xlink:href="#rim" fill="#404040"><set attributeName="fill" to="#808080" begin="zoomplus.mouseover" end="zoomplus.mouseout"/></use>
    <path d="M-4,0h8M0,-4v8" fill="none" stroke="white" stroke-width="1.5" pointer-events="none"/>
  </g>
  <g id="zoomMin">
    <use xlink:href="#rim" fill="#404040"><set attributeName="fill" to="#808080" begin="zoomminus.mouseover" end="zoomminus.mouseout"/></use>
    <path d="M-4,0h8" fill="none" stroke="white" stroke-width="1.5" pointer-events="none"/>
  </g>
  <g id="arrowUp" transform="translate(30 24)">
    <use xlink:href="#rim"/>
    <path pointer-events="none" fill="none" stroke="white" stroke-width="1.5" d="M0,-3.0v7 M-2.5,-0.5L0,-3.0L2.5,-0.5"/>
  </g>
  <g id="arrowRight" transform="rotate(90) translate(36 -43)">
    <use xlink:href="#rim"/>
    <path pointer-events="none" fill="none" stroke="white" stroke-width="1.5" d="M0,-3.0v7 M-2.5,-0.5L0,-3.0L2.5,-0.5"/>
  </g>
  <g id="arrowDown" transform="rotate(180) translate(-30 -48)">
    <use xlink:href="#rim"/>
    <path pointer-events="none" fill="none" stroke="white" stroke-width="1.5" d="M0,-3.0v7 M-2.5,-0.5L0,-3.0L2.5,-0.5"/>
  </g>
  <g id="arrowLeft" transform="rotate(270) translate(-36 17)">
    <use xlink:href="#rim"/>
    <path pointer-events="none" fill="none" stroke="white" stroke-width="1.5" d="M0,-3.0v7 M-2.5,-0.5L0,-3.0L2.5,-0.5"/>
  </g>
  <g id="resetDef">
    <use xlink:href="#rim2" fill="#404040"><set attributeName="fill" to="#808080" begin="reset.mouseover" end="reset.mouseout"/></use>
  </g>
</defs>
<script type="application/ecmascript">
var viewWidth = 1442;
var viewHeight = 746;
var sectionId = 'dynsection-1';
</script>
<script type="application/ecmascript" xlink:href="../../svg.min.js"/>
<svg id="graph" class="graph">
<g id="viewport">
<title>mimic++/Fwd.hpp</title>
<!-- Node1 -->
<g id="Node000001" class="node">
<title>Node1</title>
<g id="a_Node000001"><a xlink:title=" ">
<polygon fill="#999999" stroke="#666666" points="973,-737.5 879,-737.5 879,-718.25 973,-718.25 973,-737.5"/>
<text text-anchor="middle" x="926" y="-724" font-family="Helvetica,sans-Serif" font-size="10.00">mimic++/Fwd.hpp</text>
</a>
</g>
</g>
<!-- Node2 -->
<g id="Node000002" class="node">
<title>Node2</title>
<g id="a_Node000002"><a xlink:href="../../dc/d44/_call_8hpp.html" target="_top" xlink:title=" ">
<polygon fill="white" stroke="#666666" points="791.88,-571.75 700.12,-571.75 700.12,-552.5 791.88,-552.5 791.88,-571.75"/>
<text text-anchor="middle" x="746" y="-558.25" font-family="Helvetica,sans-Serif" font-size="10.00">mimic++/Call.hpp</text>
</a>
</g>
</g>
<!-- Node1&#45;&gt;Node2 -->
<g id="edge1_Node000001_Node000002" class="edge">
<title>Node1&#45;&gt;Node2</title>
<g id="a_edge1_Node000001_Node000002"><a xlink:title=" ">
<path fill="none" stroke="#63b8ff" d="M879.75,-714.35C838.09,-700.42 779.06,-673.49 750,-627 739.4,-610.04 741.73,-585.35 744.05,-572.19"/>
<polygon fill="#63b8ff" stroke="#63b8ff" points="878.44,-717.61 889.03,-717.32 880.58,-710.94 878.44,-717.61"/>
</a>
</g>
</g>
<!-- Node6 -->
<g id="Node000006" class="node">
<title>Node6</title>
<g id="a_Node000006"><a xlink:href="../../d9/dc3/_interface_mock_8hpp.html" target="_top" xlink:title=" ">
<polygon fill="white" stroke="#666666" points="1233.75,-74.5 1096.25,-74.5 1096.25,-55.25 1233.75,-55.25 1233.75,-74.5"/>
<text text-anchor="middle" x="1165" y="-61" font-family="Helvetica,sans-Serif" font-size="10.00">mimic++/InterfaceMock.hpp</text>
</a>
</g>
</g>
<!-- Node1&#45;&gt;Node6 -->
<g id="edge35_Node000001_Node000006" class="edge">
<title>Node1&#45;&gt;Node6</title>
<g id="a_edge35_Node000001_Node000006"><a xlink:title=" ">
<path fill="none" stroke="#63b8ff" d="M984.54,-726.58C1118.13,-724.34 1434,-709.4 1434,-618.38 1434,-618.38 1434,-618.38 1434,-395.38 1434,-234.39 1238.93,-108.64 1181.02,-74.86"/>
<polygon fill="#63b8ff" stroke="#63b8ff" points="984.8,-723.08 974.85,-726.73 984.9,-730.08 984.8,-723.08"/>
</a>
</g>
</g>
<!-- Node7 -->
<g id="Node000007" class="node">
<title>Node7</title>
<g id="a_Node000007"><a xlink:href="../../d0/db9/mimic_09_09_8hpp.html" target="_top" xlink:title=" ">
<polygon fill="white" stroke="#666666" points="884.75,-19.25 771.25,-19.25 771.25,0 884.75,0 884.75,-19.25"/>
<text text-anchor="middle" x="828" y="-5.75" font-family="Helvetica,sans-Serif" font-size="10.00">mimic++/mimic++.hpp</text>
</a>
</g>
</g>
<!-- Node1&#45;&gt;Node7 -->
<g id="edge69_Node000001_Node000007" class="edge">
<title>Node1&#45;&gt;Node7</title>
<g id="a_edge69_Node000001_Node000007"><a xlink:title=" ">
<path fill="none" stroke="#63b8ff" d="M867.5,-725.89C712.62,-722.9 294.62,-712.22 160,-682.25 85.26,-665.61 0,-694.94 0,-618.38 0,-618.38 0,-618.38 0,-119.12 0,-81.08 22.74,-71.8 57,-55.25 120.68,-24.49 603.16,-14.12 770.81,-11.43"/>
<polygon fill="#63b8ff" stroke="#63b8ff" points="867.04,-729.38 877.11,-726.07 867.18,-722.38 867.04,-729.38"/>
</a>
</g>
</g>
<!-- Node10 -->
<g id="Node000010" class="node">
<title>Node10</title>
<g id="a_Node000010"><a xlink:href="../../da/dd9/_reporter_8hpp.html" target="_top" xlink:title=" ">
<polygon fill="white" stroke="#666666" points="614,-461.25 502,-461.25 502,-442 614,-442 614,-461.25"/>
<text text-anchor="middle" x="558" y="-447.75" font-family="Helvetica,sans-Serif" font-size="10.00">mimic++/Reporter.hpp</text>
</a>
</g>
</g>
<!-- Node1&#45;&gt;Node10 -->
<g id="edge46_Node000001_Node000010" class="edge">
<title>Node1&#45;&gt;Node10</title>
<g id="a_edge46_Node000001_Node000010"><a xlink:title=" ">
<path fill="none" stroke="#63b8ff" d="M867.53,-725.57C675.44,-720.51 76,-698.33 76,-618.38 76,-618.38 76,-618.38 76,-561.12 76,-474.71 374.62,-457.11 501.77,-453.53"/>
<polygon fill="#63b8ff" stroke="#63b8ff" points="867.19,-729.06 877.27,-725.82 867.36,-722.06 867.19,-729.06"/>
</a>
</g>
</g>
<!-- Node11 -->
<g id="Node000011" class="node">
<title>Node11</title>
<g id="a_Node000011"><a xlink:href="../../d8/de4/_sequence_8hpp.html" target="_top" xlink:title=" ">
<polygon fill="white" stroke="#666666" points="994.38,-406 875.62,-406 875.62,-386.75 994.38,-386.75 994.38,-406"/>
<text text-anchor="middle" x="935" y="-392.5" font-family="Helvetica,sans-Serif" font-size="10.00">mimic++/Sequence.hpp</text>
</a>
</g>
</g>
<!-- Node1&#45;&gt;Node11 -->
<g id="edge48_Node000001_Node000011" class="edge">
<title>Node1&#45;&gt;Node11</title>
<g id="a_edge48_Node000001_Node000011"><a xlink:title=" ">
<path fill="none" stroke="#63b8ff" d="M935.66,-707.51C949.4,-678.74 973.95,-622.65 983,-571.75 994.49,-507.14 955.23,-431.8 940.42,-406.32"/>
<polygon fill="#63b8ff" stroke="#63b8ff" points="932.56,-705.87 931.32,-716.39 938.85,-708.94 932.56,-705.87"/>
</a>
</g>
</g>
<!-- Node16 -->
<g id="Node000016" class="node">
<title>Node16</title>
<g id="a_Node000016"><a xlink:href="../../d0/d3b/_reports_8hpp.html" target="_top" xlink:title=" ">
<polygon fill="white" stroke="#666666" points="731.5,-516.5 622.5,-516.5 622.5,-497.25 731.5,-497.25 731.5,-516.5"/>
<text text-anchor="middle" x="677" y="-503" font-family="Helvetica,sans-Serif" font-size="10.00">mimic++/Reports.hpp</text>
</a>
</g>
</g>
<!-- Node1&#45;&gt;Node16 -->
<g id="edge47_Node000001_Node000016" class="edge">
<title>Node1&#45;&gt;Node16</title>
<g id="a_edge47_Node000001_Node000016"><a xlink:title=" ">
<path fill="none" stroke="#63b8ff" d="M867.57,-717.35C839.36,-710.76 806.07,-699.88 780,-682.25 727.77,-646.92 718.25,-628.62 691,-571.75 682.27,-553.53 678.91,-529.76 677.67,-516.98"/>
<polygon fill="#63b8ff" stroke="#63b8ff" points="866.51,-720.7 877.03,-719.43 868.02,-713.87 866.51,-720.7"/>
</a>
</g>
</g>
<!-- Node17 -->
<g id="Node000017" class="node">
<title>Node17</title>
<g id="a_Node000017"><a xlink:href="../../dd/d50/_matcher_8hpp.html" target="_top" xlink:title=" ">
<polygon fill="white" stroke="#666666" points="1292.25,-516.5 1181.75,-516.5 1181.75,-497.25 1292.25,-497.25 1292.25,-516.5"/>
<text text-anchor="middle" x="1237" y="-503" font-family="Helvetica,sans-Serif" font-size="10.00">mimic++/Matcher.hpp</text>
</a>
</g>
</g>
<!-- Node1&#45;&gt;Node17 -->
<g id="edge36_Node000001_Node000017" class="edge">
<title>Node1&#45;&gt;Node17</title>
<g id="a_edge36_Node000001_Node000017"><a xlink:title=" ">
<path fill="none" stroke="#63b8ff" d="M984.63,-721.73C1086.89,-711.33 1290.66,-683.81 1329,-627 1357.87,-584.22 1287.44,-536.55 1253.74,-516.99"/>
<polygon fill="#63b8ff" stroke="#63b8ff" points="984.39,-718.24 974.78,-722.71 985.08,-725.2 984.39,-718.24"/>
</a>
</g>
</g>
<!-- Node18 -->
<g id="Node000018" class="node">
<title>Node18</title>
<g id="a_Node000018"><a xlink:href="../../da/dab/_printer_8hpp.html" target="_top" xlink:title=" ">
<polygon fill="white" stroke="#666666" points="973.88,-571.75 870.12,-571.75 870.12,-552.5 973.88,-552.5 973.88,-571.75"/>
<text text-anchor="middle" x="922" y="-558.25" font-family="Helvetica,sans-Serif" font-size="10.00">mimic++/Printer.hpp</text>
</a>
</g>
</g>
<!-- Node1&#45;&gt;Node18 -->
<g id="edge39_Node000001_Node000018" class="edge">
<title>Node1&#45;&gt;Node18</title>
<g id="a_edge39_Node000001_Node000018"><a xlink:title=" ">
<path fill="none" stroke="#63b8ff" d="M925.51,-706.72C924.63,-670.86 922.84,-597.35 922.22,-571.97"/>
<polygon fill="#63b8ff" stroke="#63b8ff" points="922,-706.65 925.75,-716.56 929,-706.48 922,-706.65"/>
</a>
</g>
</g>
<!-- Node19 -->
<g id="Node000019" class="node">
<title>Node19</title>
<g id="a_Node000019"><a xlink:href="../../d9/dc5/_string_8hpp.html" target="_top" xlink:title=" ">
<polygon fill="white" stroke="#666666" points="1320.38,-627 1219.62,-627 1219.62,-607.75 1320.38,-607.75 1320.38,-627"/>
<text text-anchor="middle" x="1270" y="-613.5" font-family="Helvetica,sans-Serif" font-size="10.00">mimic++/String.hpp</text>
</a>
</g>
</g>
<!-- Node1&#45;&gt;Node19 -->
<g id="edge49_Node000001_Node000019" class="edge">
<title>Node1&#45;&gt;Node19</title>
<g id="a_edge49_Node000001_Node000019"><a xlink:title=" ">
<path fill="none" stroke="#63b8ff" d="M984.54,-720.87C1032.1,-714.75 1100.34,-703.1 1157,-682.25 1195.91,-667.93 1237.26,-641.2 1257.45,-627.29"/>
<polygon fill="#63b8ff" stroke="#63b8ff" points="984.21,-717.39 974.72,-722.09 985.07,-724.34 984.21,-717.39"/>
</a>
</g>
</g>
<!-- Node20 -->
<g id="Node000020" class="node">
<title>Node20</title>
<g id="a_Node000020"><a xlink:href="../../d8/d32/_type_traits_8hpp.html" target="_top" xlink:title=" ">
<polygon fill="white" stroke="#666666" points="897.5,-627 776.5,-627 776.5,-607.75 897.5,-607.75 897.5,-627"/>
<text text-anchor="middle" x="837" y="-613.5" font-family="Helvetica,sans-Serif" font-size="10.00">mimic++/TypeTraits.hpp</text>
</a>
</g>
</g>
<!-- Node1&#45;&gt;Node20 -->
<g id="edge53_Node000001_Node000020" class="edge">
<title>Node1&#45;&gt;Node20</title>
<g id="a_edge53_Node000001_Node000020"><a xlink:title=" ">
<path fill="none" stroke="#63b8ff" d="M911.42,-709.1C892.19,-685.66 859.07,-645.28 844.38,-627.38"/>
<polygon fill="#63b8ff" stroke="#63b8ff" points="908.71,-711.31 917.76,-716.83 914.12,-706.87 908.71,-711.31"/>
</a>
</g>
</g>
<!-- Node21 -->
<g id="Node000021" class="node">
<title>Node21</title>
<g id="a_Node000021"><a xlink:href="../../d4/d2c/_utility_8hpp.html" target="_top" xlink:title=" ">
<polygon fill="white" stroke="#666666" points="1148,-682.25 1048,-682.25 1048,-663 1148,-663 1148,-682.25"/>
<text text-anchor="middle" x="1098" y="-668.75" font-family="Helvetica,sans-Serif" font-size="10.00">mimic++/Utility.hpp</text>
</a>
</g>
</g>
<!-- Node1&#45;&gt;Node21 -->
<g id="edge59_Node000001_Node000021" class="edge">
<title>Node1&#45;&gt;Node21</title>
<g id="a_edge59_Node000001_Node000021"><a xlink:title=" ">
<path fill="none" stroke="#63b8ff" d="M966.17,-714.44C997.56,-704.72 1040.46,-691.44 1068.68,-682.7"/>
<polygon fill="#63b8ff" stroke="#63b8ff" points="965.14,-711.09 956.62,-717.39 967.21,-717.78 965.14,-711.09"/>
</a>
</g>
</g>
<!-- Node3 -->
<g id="Node000003" class="node">
<title>Node3</title>
<g id="a_Node000003"><a xlink:href="../../d5/d8a/_expectation_8hpp.html" target="_top" xlink:title=" ">
<polygon fill="white" stroke="#666666" points="905.75,-295.5 780.25,-295.5 780.25,-276.25 905.75,-276.25 905.75,-295.5"/>
<text text-anchor="middle" x="843" y="-282" font-family="Helvetica,sans-Serif" font-size="10.00">mimic++/Expectation.hpp</text>
</a>
</g>
</g>
<!-- Node2&#45;&gt;Node3 -->
<g id="edge2_Node000002_Node000003" class="edge">
<title>Node2&#45;&gt;Node3</title>
<g id="a_edge2_Node000002_Node000003"><a xlink:title=" ">
<path fill="none" stroke="#63b8ff" d="M752.83,-541.65C766.73,-502.06 799.33,-409.3 827,-331.5 831.41,-319.09 836.56,-304.76 839.8,-295.76"/>
<polygon fill="#63b8ff" stroke="#63b8ff" points="749.58,-540.34 749.57,-550.93 756.19,-542.65 749.58,-540.34"/>
</a>
</g>
</g>
<!-- Node2&#45;&gt;Node7 -->
<g id="edge34_Node000002_Node000007" class="edge">
<title>Node2&#45;&gt;Node7</title>
<g id="a_edge34_Node000002_Node000007"><a xlink:title=" ">
<path fill="none" stroke="#63b8ff" d="M688.29,-561.29C569.17,-558.8 292.37,-538.09 114,-406 87.45,-386.34 76,-375.16 76,-342.12 76,-342.12 76,-342.12 76,-119.12 76,-57.92 139.12,-71.96 198,-55.25 304.8,-24.94 636.83,-14.66 770.95,-11.69"/>
<polygon fill="#63b8ff" stroke="#63b8ff" points="688.08,-564.79 698.14,-561.46 688.2,-557.79 688.08,-564.79"/>
</a>
</g>
</g>
<!-- Node2&#45;&gt;Node10 -->
<g id="edge17_Node000002_Node000010" class="edge">
<title>Node2&#45;&gt;Node10</title>
<g id="a_edge17_Node000002_Node000010"><a xlink:title=" ">
<path fill="none" stroke="#63b8ff" d="M689.56,-549.06C664.99,-542.1 636.68,-531.64 614,-516.5 591.43,-501.44 572.37,-475.03 563.44,-461.37"/>
<polygon fill="#63b8ff" stroke="#63b8ff" points="688.53,-552.41 699.1,-551.63 690.35,-545.65 688.53,-552.41"/>
</a>
</g>
</g>
<!-- Node2&#45;&gt;Node16 -->
<g id="edge30_Node000002_Node000016" class="edge">
<title>Node2&#45;&gt;Node16</title>
<g id="a_edge30_Node000002_Node000016"><a xlink:title=" ">
<path fill="none" stroke="#63b8ff" d="M725.35,-545.19C713.3,-535.89 698.55,-524.51 688.53,-516.77"/>
<polygon fill="#63b8ff" stroke="#63b8ff" points="723.04,-547.83 733.1,-551.17 727.32,-542.29 723.04,-547.83"/>
</a>
</g>
</g>
<!-- Node4 -->
<g id="Node000004" class="node">
<title>Node4</title>
<g id="a_Node000004"><a xlink:href="../../d2/d4f/_expectation_builder_8hpp.html" target="_top" xlink:title=" ">
<polygon fill="white" stroke="#666666" points="1075.75,-185 920.25,-185 920.25,-165.75 1075.75,-165.75 1075.75,-185"/>
<text text-anchor="middle" x="998" y="-171.5" font-family="Helvetica,sans-Serif" font-size="10.00">mimic++/ExpectationBuilder.hpp</text>
</a>
</g>
</g>
<!-- Node3&#45;&gt;Node4 -->
<g id="edge3_Node000003_Node000004" class="edge">
<title>Node3&#45;&gt;Node4</title>
<g id="a_edge3_Node000003_Node000004"><a xlink:title=" ">
<path fill="none" stroke="#63b8ff" d="M865.2,-269.33C898.12,-246.29 958.82,-203.8 985.2,-185.34"/>
<polygon fill="#63b8ff" stroke="#63b8ff" points="863.37,-266.34 857.19,-274.94 867.39,-272.08 863.37,-266.34"/>
</a>
</g>
</g>
<!-- Node5 -->
<g id="Node000005" class="node">
<title>Node5</title>
<g id="a_Node000005"><a xlink:href="../../d5/dc5/_mock_8hpp.html" target="_top" xlink:title=" ">
<polygon fill="white" stroke="#666666" points="1117.62,-129.75 1018.38,-129.75 1018.38,-110.5 1117.62,-110.5 1117.62,-129.75"/>
<text text-anchor="middle" x="1068" y="-116.25" font-family="Helvetica,sans-Serif" font-size="10.00">mimic++/Mock.hpp</text>
</a>
</g>
</g>
<!-- Node3&#45;&gt;Node5 -->
<g id="edge15_Node000003_Node000005" class="edge">
<title>Node3&#45;&gt;Node5</title>
<g id="a_edge15_Node000003_Node000005"><a xlink:title=" ">
<path fill="none" stroke="#63b8ff" d="M848.97,-265.23C858.04,-238.69 877.84,-191.73 911,-165.75 941.67,-141.72 984.69,-130.63 1017.94,-125.51"/>
<polygon fill="#63b8ff" stroke="#63b8ff" points="845.75,-263.8 846.01,-274.39 852.41,-265.95 845.75,-263.8"/>
</a>
</g>
</g>
<!-- Node3&#45;&gt;Node7 -->
<g id="edge16_Node000003_Node000007" class="edge">
<title>Node3&#45;&gt;Node7</title>
<g id="a_edge16_Node000003_Node000007"><a xlink:title=" ">
<path fill="none" stroke="#63b8ff" d="M828.16,-267.24C812.48,-246.77 790,-211.33 790,-176.38 790,-176.38 790,-176.38 790,-119.12 790,-80.21 812.05,-37.62 822.56,-19.54"/>
<polygon fill="#63b8ff" stroke="#63b8ff" points="825.25,-269.22 834.23,-274.84 830.72,-264.84 825.25,-269.22"/>
</a>
</g>
</g>
<!-- Node9 -->
<g id="Node000009" class="node">
<title>Node9</title>
<g id="a_Node000009"><a xlink:href="../../d8/de5/_expectation_policies_8hpp.html" target="_top" xlink:title=" ">
<polygon fill="white" stroke="#666666" points="1196,-240.25 1036,-240.25 1036,-221 1196,-221 1196,-240.25"/>
<text text-anchor="middle" x="1116" y="-226.75" font-family="Helvetica,sans-Serif" font-size="10.00">mimic++/ExpectationPolicies.hpp</text>
</a>
</g>
</g>
<!-- Node3&#45;&gt;Node9 -->
<g id="edge11_Node000003_Node000009" class="edge">
<title>Node3&#45;&gt;Node9</title>
<g id="a_edge11_Node000003_Node000009"><a xlink:title=" ">
<path fill="none" stroke="#63b8ff" d="M900.63,-273.63C950.91,-263.83 1022.92,-249.78 1069.57,-240.68"/>
<polygon fill="#63b8ff" stroke="#63b8ff" points="900.25,-270.14 891.11,-275.49 901.59,-277.01 900.25,-270.14"/>
</a>
</g>
</g>
<!-- Node4&#45;&gt;Node5 -->
<g id="edge4_Node000004_Node000005" class="edge">
<title>Node4&#45;&gt;Node5</title>
<g id="a_edge4_Node000004_Node000005"><a xlink:title=" ">
<path fill="none" stroke="#63b8ff" d="M1018.95,-158.44C1031.17,-149.14 1046.14,-137.76 1056.3,-130.02"/>
<polygon fill="#63b8ff" stroke="#63b8ff" points="1016.92,-155.59 1011.08,-164.43 1021.16,-161.16 1016.92,-155.59"/>
</a>
</g>
</g>
<!-- Node4&#45;&gt;Node7 -->
<g id="edge10_Node000004_Node000007" class="edge">
<title>Node4&#45;&gt;Node7</title>
<g id="a_edge10_Node000004_Node000007"><a xlink:title=" ">
<path fill="none" stroke="#63b8ff" d="M978.17,-158.08C955.1,-138.85 916.18,-105.53 885,-74.5 866.25,-55.84 846.02,-32.25 835.43,-19.6"/>
<polygon fill="#63b8ff" stroke="#63b8ff" points="975.93,-160.77 985.86,-164.45 980.39,-155.38 975.93,-160.77"/>
</a>
</g>
</g>
<!-- Node5&#45;&gt;Node6 -->
<g id="edge5_Node000005_Node000006" class="edge">
<title>Node5&#45;&gt;Node6</title>
<g id="a_edge5_Node000005_Node000006"><a xlink:title=" ">
<path fill="none" stroke="#63b8ff" d="M1094.47,-104.59C1111.71,-95.13 1133.67,-83.08 1148.46,-74.95"/>
<polygon fill="#63b8ff" stroke="#63b8ff" points="1092.86,-101.48 1085.78,-109.36 1096.23,-107.62 1092.86,-101.48"/>
</a>
</g>
</g>
<!-- Node5&#45;&gt;Node7 -->
<g id="edge9_Node000005_Node000007" class="edge">
<title>Node5&#45;&gt;Node7</title>
<g id="a_edge9_Node000005_Node000007"><a xlink:title=" ">
<path fill="none" stroke="#63b8ff" d="M1067.28,-99.09C1065.67,-84.86 1061.15,-66.36 1049,-55.25 1025.49,-33.76 942.55,-21.56 885.25,-15.52"/>
<polygon fill="#63b8ff" stroke="#63b8ff" points="1063.76,-98.98 1067.96,-108.71 1070.74,-98.49 1063.76,-98.98"/>
</a>
</g>
</g>
<!-- Node8 -->
<g id="Node000008" class="node">
<title>Node8</title>
<g id="a_Node000008"><a xlink:href="../../d1/dc0/_lifetime_watcher_8hpp.html" target="_top" xlink:title=" ">
<polygon fill="white" stroke="#666666" points="1040.25,-74.5 893.75,-74.5 893.75,-55.25 1040.25,-55.25 1040.25,-74.5"/>
<text text-anchor="middle" x="967" y="-61" font-family="Helvetica,sans-Serif" font-size="10.00">mimic++/LifetimeWatcher.hpp</text>
</a>
</g>
</g>
<!-- Node5&#45;&gt;Node8 -->
<g id="edge7_Node000005_Node000008" class="edge">
<title>Node5&#45;&gt;Node8</title>
<g id="a_edge7_Node000005_Node000008"><a xlink:title=" ">
<path fill="none" stroke="#63b8ff" d="M1040.69,-104.73C1022.7,-95.24 999.7,-83.11 984.22,-74.95"/>
<polygon fill="#63b8ff" stroke="#63b8ff" points="1039.05,-107.82 1049.53,-109.39 1042.31,-101.63 1039.05,-107.82"/>
</a>
</g>
</g>
<!-- Node6&#45;&gt;Node7 -->
<g id="edge6_Node000006_Node000007" class="edge">
<title>Node6&#45;&gt;Node7</title>
<g id="a_edge6_Node000006_Node000007"><a xlink:title=" ">
<path fill="none" stroke="#63b8ff" d="M1096.17,-53C1033.92,-43.16 943.33,-28.85 885.03,-19.64"/>
<polygon fill="#63b8ff" stroke="#63b8ff" points="1095.53,-56.44 1105.96,-54.55 1096.62,-49.53 1095.53,-56.44"/>
</a>
</g>
</g>
<!-- Node8&#45;&gt;Node7 -->
<g id="edge8_Node000008_Node000007" class="edge">
<title>Node8&#45;&gt;Node7</title>
<g id="a_edge8_Node000008_Node000007"><a xlink:title=" ">
<path fill="none" stroke="#63b8ff" d="M932.85,-50.79C907.65,-41.14 874,-28.25 851.7,-19.7"/>
<polygon fill="#63b8ff" stroke="#63b8ff" points="931.42,-53.99 942.01,-54.3 933.92,-47.45 931.42,-53.99"/>
</a>
</g>
</g>
<!-- Node9&#45;&gt;Node4 -->
<g id="edge12_Node000009_Node000004" class="edge">
<title>Node9&#45;&gt;Node4</title>
<g id="a_edge12_Node000009_Node000004"><a xlink:title=" ">
<path fill="none" stroke="#63b8ff" d="M1085.56,-215.89C1064.34,-206.31 1036.63,-193.81 1018.12,-185.45"/>
<polygon fill="#63b8ff" stroke="#63b8ff" points="1084.05,-219.05 1094.6,-219.97 1086.93,-212.67 1084.05,-219.05"/>
</a>
</g>
</g>
<!-- Node9&#45;&gt;Node5 -->
<g id="edge13_Node000009_Node000005" class="edge">
<title>Node9&#45;&gt;Node5</title>
<g id="a_edge13_Node000009_Node000005"><a xlink:title=" ">
<path fill="none" stroke="#63b8ff" d="M1107.43,-210.26C1096.97,-186.62 1079.73,-147.63 1071.98,-130.13"/>
<polygon fill="#63b8ff" stroke="#63b8ff" points="1104.21,-211.63 1111.46,-219.36 1110.61,-208.8 1104.21,-211.63"/>
</a>
</g>
</g>
<!-- Node9&#45;&gt;Node7 -->
<g id="edge14_Node000009_Node000007" class="edge">
<title>Node9&#45;&gt;Node7</title>
<g id="a_edge14_Node000009_Node000007"><a xlink:title=" ">
<path fill="none" stroke="#63b8ff" d="M1141.35,-214.63C1191.01,-183.45 1292.18,-110 1243,-55.25 1219.51,-29.1 993.3,-16.96 885.1,-12.61"/>
<polygon fill="#63b8ff" stroke="#63b8ff" points="1139.58,-211.61 1132.89,-219.82 1143.24,-217.57 1139.58,-211.61"/>
</a>
</g>
</g>
<!-- Node10&#45;&gt;Node3 -->
<g id="edge18_Node000010_Node000003" class="edge">
<title>Node10&#45;&gt;Node3</title>
<g id="a_edge18_Node000010_Node000003"><a xlink:title=" ">
<path fill="none" stroke="#63b8ff" d="M582.75,-435.84C597.15,-427.2 615.65,-416.05 632,-406 685.16,-373.33 696.41,-361.72 751,-331.5 775.23,-318.09 804.09,-304.45 822.94,-295.84"/>
<polygon fill="#63b8ff" stroke="#63b8ff" points="581.15,-432.72 574.37,-440.86 584.74,-438.73 581.15,-432.72"/>
</a>
</g>
</g>
<!-- Node10&#45;&gt;Node7 -->
<g id="edge29_Node000010_Node000007" class="edge">
<title>Node10&#45;&gt;Node7</title>
<g id="a_edge29_Node000010_Node000007"><a xlink:title=" ">
<path fill="none" stroke="#63b8ff" d="M490.59,-447.62C377.67,-441.98 159.9,-428.34 133,-406 110.22,-387.08 114,-371.74 114,-342.12 114,-342.12 114,-342.12 114,-119.12 114,-52.83 601.35,-22.02 770.78,-13.31"/>
<polygon fill="#63b8ff" stroke="#63b8ff" points="490.18,-451.1 500.34,-448.09 490.52,-444.11 490.18,-451.1"/>
</a>
</g>
</g>
<!-- Node10&#45;&gt;Node11 -->
<g id="edge19_Node000010_Node000011" class="edge">
<title>Node10&#45;&gt;Node11</title>
<g id="a_edge19_Node000010_Node000011"><a xlink:title=" ">
<path fill="none" stroke="#63b8ff" d="M625.49,-441.09C696.57,-431.05 807.41,-415.4 875.37,-405.8"/>
<polygon fill="#63b8ff" stroke="#63b8ff" points="625.35,-437.58 615.94,-442.44 626.33,-444.51 625.35,-437.58"/>
</a>
</g>
</g>
<!-- Node13 -->
<g id="Node000013" class="node">
<title>Node13</title>
<g id="a_Node000013"><a xlink:href="../../d9/d42/_boost_test_8hpp.html" target="_top" xlink:title=" ">
<polygon fill="white" stroke="#666666" points="458.38,-406 297.62,-406 297.62,-386.75 458.38,-386.75 458.38,-406"/>
<text text-anchor="middle" x="378" y="-392.5" font-family="Helvetica,sans-Serif" font-size="10.00">mimic++/adapters/BoostTest.hpp</text>
</a>
</g>
</g>
<!-- Node10&#45;&gt;Node13 -->
<g id="edge26_Node000010_Node000013" class="edge">
<title>Node10&#45;&gt;Node13</title>
<g id="a_edge26_Node000010_Node000013"><a xlink:title=" ">
<path fill="none" stroke="#63b8ff" d="M516.82,-438.44C483.9,-428.7 438.47,-415.27 408.68,-406.45"/>
<polygon fill="#63b8ff" stroke="#63b8ff" points="515.43,-441.68 526.01,-441.16 517.42,-434.97 515.43,-441.68"/>
</a>
</g>
</g>
<!-- Node14 -->
<g id="Node000014" class="node">
<title>Node14</title>
<g id="a_Node000014"><a xlink:href="../../d3/d04/_catch2_8hpp.html" target="_top" xlink:title=" ">
<polygon fill="white" stroke="#666666" points="623.25,-406 476.75,-406 476.75,-386.75 623.25,-386.75 623.25,-406"/>
<text text-anchor="middle" x="550" y="-392.5" font-family="Helvetica,sans-Serif" font-size="10.00">mimic++/adapters/Catch2.hpp</text>
</a>
</g>
</g>
<!-- Node10&#45;&gt;Node14 -->
<g id="edge27_Node000010_Node000014" class="edge">
<title>Node10&#45;&gt;Node14</title>
<g id="a_edge27_Node000010_Node000014"><a xlink:title=" ">
<path fill="none" stroke="#63b8ff" d="M555,-430.67C553.75,-422.3 552.35,-413 551.35,-406.36"/>
<polygon fill="#63b8ff" stroke="#63b8ff" points="551.51,-430.97 556.45,-440.34 558.43,-429.93 551.51,-430.97"/>
</a>
</g>
</g>
<!-- Node15 -->
<g id="Node000015" class="node">
<title>Node15</title>
<g id="a_Node000015"><a xlink:href="../../d5/db1/gtest_8hpp.html" target="_top" xlink:title=" ">
<polygon fill="white" stroke="#666666" points="279.75,-406 142.25,-406 142.25,-386.75 279.75,-386.75 279.75,-406"/>
<text text-anchor="middle" x="211" y="-392.5" font-family="Helvetica,sans-Serif" font-size="10.00">mimic++/adapters/gtest.hpp</text>
</a>
</g>
</g>
<!-- Node10&#45;&gt;Node15 -->
<g id="edge28_Node000010_Node000015" class="edge">
<title>Node10&#45;&gt;Node15</title>
<g id="a_edge28_Node000010_Node000015"><a xlink:title=" ">
<path fill="none" stroke="#63b8ff" d="M490.69,-440.3C426.71,-430.48 331.43,-415.86 270.25,-406.47"/>
<polygon fill="#63b8ff" stroke="#63b8ff" points="489.95,-443.72 500.37,-441.78 491.01,-436.8 489.95,-443.72"/>
</a>
</g>
</g>
<!-- Node11&#45;&gt;Node4 -->
<g id="edge24_Node000011_Node000004" class="edge">
<title>Node11&#45;&gt;Node4</title>
<g id="a_edge24_Node000011_Node000004"><a xlink:title=" ">
<path fill="none" stroke="#63b8ff" d="M974.22,-381.59C988.06,-374.61 1002.12,-364.6 1010,-350.75 1041.65,-295.09 1012.97,-212.72 1001.92,-185.49"/>
<polygon fill="#63b8ff" stroke="#63b8ff" points="972.81,-378.38 965.16,-385.72 975.71,-384.75 972.81,-378.38"/>
</a>
</g>
</g>
<!-- Node11&#45;&gt;Node7 -->
<g id="edge25_Node000011_Node000007" class="edge">
<title>Node11&#45;&gt;Node7</title>
<g id="a_edge25_Node000011_Node000007"><a xlink:title=" ">
<path fill="none" stroke="#63b8ff" d="M898.17,-382.23C860.75,-367.02 803.78,-338.42 771,-295.5 753.02,-271.96 752,-261.24 752,-231.62 752,-231.62 752,-231.62 752,-119.12 752,-75.2 794.31,-36.42 815.79,-19.56"/>
<polygon fill="#63b8ff" stroke="#63b8ff" points="896.64,-385.39 907.22,-385.79 899.2,-378.87 896.64,-385.39"/>
</a>
</g>
</g>
<!-- Node12 -->
<g id="Node000012" class="node">
<title>Node12</title>
<g id="a_Node000012"><a xlink:href="../../d6/d17/_control_policy_8hpp.html" target="_top" xlink:title=" ">
<polygon fill="white" stroke="#666666" points="1001.12,-350.75 868.88,-350.75 868.88,-331.5 1001.12,-331.5 1001.12,-350.75"/>
<text text-anchor="middle" x="935" y="-337.25" font-family="Helvetica,sans-Serif" font-size="10.00">mimic++/ControlPolicy.hpp</text>
</a>
</g>
</g>
<!-- Node11&#45;&gt;Node12 -->
<g id="edge20_Node000011_Node000012" class="edge">
<title>Node11&#45;&gt;Node12</title>
<g id="a_edge20_Node000011_Node000012"><a xlink:title=" ">
<path fill="none" stroke="#63b8ff" d="M935,-375.13C935,-366.84 935,-357.67 935,-351.11"/>
<polygon fill="#63b8ff" stroke="#63b8ff" points="931.5,-375.07 935,-385.07 938.5,-375.07 931.5,-375.07"/>
</a>
</g>
</g>
<!-- Node12&#45;&gt;Node3 -->
<g id="edge21_Node000012_Node000003" class="edge">
<title>Node12&#45;&gt;Node3</title>
<g id="a_edge21_Node000012_Node000003"><a xlink:title=" ">
<path fill="none" stroke="#63b8ff" d="M909.89,-325.59C893.54,-316.13 872.72,-304.08 858.68,-295.95"/>
<polygon fill="#63b8ff" stroke="#63b8ff" points="907.68,-328.35 918.08,-330.33 911.18,-322.29 907.68,-328.35"/>
</a>
</g>
</g>
<!-- Node12&#45;&gt;Node4 -->
<g id="edge22_Node000012_Node000004" class="edge">
<title>Node12&#45;&gt;Node4</title>
<g id="a_edge22_Node000012_Node000004"><a xlink:title=" ">
<path fill="none" stroke="#63b8ff" d="M942.39,-320.91C956.05,-285.4 984.75,-210.82 994.6,-185.22"/>
<polygon fill="#63b8ff" stroke="#63b8ff" points="939.25,-319.32 938.93,-329.91 945.79,-321.83 939.25,-319.32"/>
</a>
</g>
</g>
<!-- Node12&#45;&gt;Node7 -->
<g id="edge23_Node000012_Node000007" class="edge">
<title>Node12&#45;&gt;Node7</title>
<g id="a_edge23_Node000012_Node000007"><a xlink:title=" ">
<path fill="none" stroke="#63b8ff" d="M928.88,-320.36C924.96,-307.73 919.73,-291.01 915,-276.25 882.58,-175.04 841.96,-52.6 830.9,-19.32"/>
<polygon fill="#63b8ff" stroke="#63b8ff" points="925.44,-321.06 931.74,-329.57 932.12,-318.98 925.44,-321.06"/>
</a>
</g>
</g>
<!-- Node16&#45;&gt;Node7 -->
<g id="edge33_Node000016_Node000007" class="edge">
<title>Node16&#45;&gt;Node7</title>
<g id="a_edge33_Node000016_Node000007"><a xlink:title=" ">
<path fill="none" stroke="#63b8ff" d="M669.31,-486.13C661.64,-464.64 651,-429.1 651,-397.38 651,-397.38 651,-397.38 651,-119.12 651,-60.01 723.64,-32.11 775.85,-19.69"/>
<polygon fill="#63b8ff" stroke="#63b8ff" points="665.97,-487.2 672.75,-495.35 672.53,-484.75 665.97,-487.2"/>
</a>
</g>
</g>
<!-- Node16&#45;&gt;Node10 -->
<g id="edge32_Node000016_Node000010" class="edge">
<title>Node16&#45;&gt;Node10</title>
<g id="a_edge32_Node000016_Node000010"><a xlink:title=" ">
<path fill="none" stroke="#63b8ff" d="M646.6,-492.27C625.16,-482.68 597.04,-470.09 578.29,-461.7"/>
<polygon fill="#63b8ff" stroke="#63b8ff" points="644.87,-495.33 655.43,-496.22 647.73,-488.94 644.87,-495.33"/>
</a>
</g>
</g>
<!-- Node16&#45;&gt;Node12 -->
<g id="edge31_Node000016_Node000012" class="edge">
<title>Node16&#45;&gt;Node12</title>
<g id="a_edge31_Node000016_Node000012"><a xlink:title=" ">
<path fill="none" stroke="#63b8ff" d="M700.76,-490.8C753.4,-457.38 878.57,-377.94 920.81,-351.13"/>
<polygon fill="#63b8ff" stroke="#63b8ff" points="699.08,-487.71 692.52,-496.03 702.84,-493.62 699.08,-487.71"/>
</a>
</g>
</g>
<!-- Node17&#45;&gt;Node7 -->
<g id="edge38_Node000017_Node000007" class="edge">
<title>Node17&#45;&gt;Node7</title>
<g id="a_edge38_Node000017_Node000007"><a xlink:title=" ">
<path fill="none" stroke="#63b8ff" d="M1244.4,-486.1C1251.77,-464.59 1262,-429.03 1262,-397.38 1262,-397.38 1262,-397.38 1262,-284.88 1262,-182.82 1330.37,-131.01 1262,-55.25 1237.2,-27.77 997.17,-16.23 885.11,-12.32"/>
<polygon fill="#63b8ff" stroke="#63b8ff" points="1241.17,-484.73 1241.09,-495.33 1247.76,-487.09 1241.17,-484.73"/>
</a>
</g>
</g>
<!-- Node17&#45;&gt;Node9 -->
<g id="edge37_Node000017_Node000009" class="edge">
<title>Node17&#45;&gt;Node9</title>
<g id="a_edge37_Node000017_Node000009"><a xlink:title=" ">
<path fill="none" stroke="#63b8ff" d="M1228.42,-486.21C1219.87,-464.79 1208,-429.31 1208,-397.38 1208,-397.38 1208,-397.38 1208,-340.12 1208,-293.69 1158.38,-256.94 1132.03,-240.7"/>
<polygon fill="#63b8ff" stroke="#63b8ff" points="1225.18,-487.53 1232.26,-495.41 1231.64,-484.83 1225.18,-487.53"/>
</a>
</g>
</g>
<!-- Node18&#45;&gt;Node7 -->
<g id="edge45_Node000018_Node000007" class="edge">
<title>Node18&#45;&gt;Node7</title>
<g id="a_edge45_Node000018_Node000007"><a xlink:title=" ">
<path fill="none" stroke="#63b8ff" d="M902.14,-544.99C850.14,-500.8 714,-371.73 714,-231.62 714,-231.62 714,-231.62 714,-119.12 714,-68.99 772.57,-34.98 805.75,-19.74"/>
<polygon fill="#63b8ff" stroke="#63b8ff" points="899.74,-547.55 909.66,-551.27 904.22,-542.17 899.74,-547.55"/>
</a>
</g>
</g>
<!-- Node18&#45;&gt;Node9 -->
<g id="edge40_Node000018_Node000009" class="edge">
<title>Node18&#45;&gt;Node9</title>
<g id="a_edge40_Node000018_Node000009"><a xlink:title=" ">
<path fill="none" stroke="#63b8ff" d="M933.02,-542.41C969.36,-480.69 1084.59,-284.97 1110.7,-240.62"/>
<polygon fill="#63b8ff" stroke="#63b8ff" points="930.01,-540.61 927.96,-551.01 936.05,-544.17 930.01,-540.61"/>
</a>
</g>
</g>
<!-- Node18&#45;&gt;Node10 -->
<g id="edge42_Node000018_Node000010" class="edge">
<title>Node18&#45;&gt;Node10</title>
<g id="a_edge42_Node000018_Node000010"><a xlink:title=" ">
<path fill="none" stroke="#63b8ff" d="M888.39,-548.13C852.3,-534.43 793.1,-512.75 741,-497.25 693.36,-483.07 637.78,-470 600.48,-461.72"/>
<polygon fill="#63b8ff" stroke="#63b8ff" points="886.81,-551.27 897.4,-551.56 889.3,-544.73 886.81,-551.27"/>
</a>
</g>
</g>
<!-- Node18&#45;&gt;Node11 -->
<g id="edge44_Node000018_Node000011" class="edge">
<title>Node18&#45;&gt;Node11</title>
<g id="a_edge44_Node000018_Node000011"><a xlink:title=" ">
<path fill="none" stroke="#63b8ff" d="M923.6,-540.97C926.45,-505.11 932.28,-431.6 934.3,-406.22"/>
<polygon fill="#63b8ff" stroke="#63b8ff" points="920.12,-540.57 922.82,-550.81 927.1,-541.12 920.12,-540.57"/>
</a>
</g>
</g>
<!-- Node18&#45;&gt;Node16 -->
<g id="edge43_Node000018_Node000016" class="edge">
<title>Node18&#45;&gt;Node16</title>
<g id="a_edge43_Node000018_Node000016"><a xlink:title=" ">
<path fill="none" stroke="#63b8ff" d="M869.14,-549.63C824.07,-539.84 760.18,-525.95 718.67,-516.93"/>
<polygon fill="#63b8ff" stroke="#63b8ff" points="868.17,-553.01 878.68,-551.71 869.65,-546.17 868.17,-553.01"/>
</a>
</g>
</g>
<!-- Node18&#45;&gt;Node17 -->
<g id="edge41_Node000018_Node000017" class="edge">
<title>Node18&#45;&gt;Node17</title>
<g id="a_edge41_Node000018_Node000017"><a xlink:title=" ">
<path fill="none" stroke="#63b8ff" d="M985.6,-550.37C1043.63,-540.56 1128.44,-526.23 1183.19,-516.97"/>
<polygon fill="#63b8ff" stroke="#63b8ff" points="985.14,-546.9 975.86,-552.02 986.31,-553.8 985.14,-546.9"/>
</a>
</g>
</g>
<!-- Node19&#45;&gt;Node7 -->
<g id="edge52_Node000019_Node000007" class="edge">
<title>Node19&#45;&gt;Node7</title>
<g id="a_edge52_Node000019_Node000007"><a xlink:title=" ">
<path fill="none" stroke="#63b8ff" d="M1284.2,-598.33C1298.99,-577.69 1320,-542.3 1320,-507.88 1320,-507.88 1320,-507.88 1320,-340.12 1320,-266.91 1338,-249.59 1338,-176.38 1338,-176.38 1338,-176.38 1338,-119.12 1338,-81.66 1316.25,-72.51 1283,-55.25 1215.11,-20 991.51,-12.54 885.17,-11"/>
<polygon fill="#63b8ff" stroke="#63b8ff" points="1281.48,-596.13 1278.28,-606.23 1287.08,-600.33 1281.48,-596.13"/>
</a>
</g>
</g>
<!-- Node19&#45;&gt;Node17 -->
<g id="edge50_Node000019_Node000017" class="edge">
<title>Node19&#45;&gt;Node17</title>
<g id="a_edge50_Node000019_Node000017"><a xlink:title=" ">
<path fill="none" stroke="#63b8ff" d="M1264.01,-596.68C1256.81,-573.01 1245.04,-534.3 1239.74,-516.88"/>
<polygon fill="#63b8ff" stroke="#63b8ff" points="1260.6,-597.5 1266.86,-606.05 1267.3,-595.46 1260.6,-597.5"/>
</a>
</g>
</g>
<!-- Node19&#45;&gt;Node18 -->
<g id="edge51_Node000019_Node000018" class="edge">
<title>Node19&#45;&gt;Node18</title>
<g id="a_edge51_Node000019_Node000018"><a xlink:title=" ">
<path fill="none" stroke="#63b8ff" d="M1208.25,-606.93C1141.73,-596.75 1037.01,-580.72 974.37,-571.14"/>
<polygon fill="#63b8ff" stroke="#63b8ff" points="1207.49,-610.35 1217.9,-608.4 1208.55,-603.43 1207.49,-610.35"/>
</a>
</g>
</g>
<!-- Node20&#45;&gt;Node2 -->
<g id="edge54_Node000020_Node000002" class="edge">
<title>Node20&#45;&gt;Node2</title>
<g id="a_edge54_Node000020_Node000002"><a xlink:title=" ">
<path fill="none" stroke="#63b8ff" d="M811.71,-601.57C795.6,-592.15 775.26,-580.25 761.51,-572.2"/>
<polygon fill="#63b8ff" stroke="#63b8ff" points="809.86,-604.55 820.26,-606.58 813.39,-598.51 809.86,-604.55"/>
</a>
</g>
</g>
<!-- Node20&#45;&gt;Node3 -->
<g id="edge55_Node000020_Node000003" class="edge">
<title>Node20&#45;&gt;Node3</title>
<g id="a_edge55_Node000020_Node000003"><a xlink:title=" ">
<path fill="none" stroke="#63b8ff" d="M838.2,-596.02C839.38,-574.22 841,-538.61 841,-507.88 841,-507.88 841,-507.88 841,-395.38 841,-358.45 842.17,-314.47 842.72,-295.88"/>
<polygon fill="#63b8ff" stroke="#63b8ff" points="834.71,-595.68 837.64,-605.87 841.7,-596.08 834.71,-595.68"/>
</a>
</g>
</g>
<!-- Node20&#45;&gt;Node7 -->
<g id="edge58_Node000020_Node000007" class="edge">
<title>Node20&#45;&gt;Node7</title>
<g id="a_edge58_Node000020_Node000007"><a xlink:title=" ">
<path fill="none" stroke="#63b8ff" d="M764.95,-616.8C568.49,-616.04 38,-600.31 38,-452.62 38,-452.62 38,-452.62 38,-119.12 38,-79.56 64.05,-71.77 100,-55.25 160.3,-27.54 609.98,-15.29 770.92,-11.76"/>
<polygon fill="#63b8ff" stroke="#63b8ff" points="764.77,-620.3 774.78,-616.83 764.78,-613.3 764.77,-620.3"/>
</a>
</g>
</g>
<!-- Node20&#45;&gt;Node17 -->
<g id="edge56_Node000020_Node000017" class="edge">
<title>Node20&#45;&gt;Node17</title>
<g id="a_edge56_Node000020_Node000017"><a xlink:title=" ">
<path fill="none" stroke="#63b8ff" d="M881.19,-604.39C961.87,-582.51 1131.32,-536.54 1203.4,-516.99"/>
<polygon fill="#63b8ff" stroke="#63b8ff" points="880.61,-600.92 871.88,-606.91 882.44,-607.67 880.61,-600.92"/>
</a>
</g>
</g>
<!-- Node20&#45;&gt;Node18 -->
<g id="edge57_Node000020_Node000018" class="edge">
<title>Node20&#45;&gt;Node18</title>
<g id="a_edge57_Node000020_Node000018"><a xlink:title=" ">
<path fill="none" stroke="#63b8ff" d="M861.06,-601.3C876.03,-591.92 894.79,-580.17 907.51,-572.2"/>
<polygon fill="#63b8ff" stroke="#63b8ff" points="859.32,-598.26 852.7,-606.54 863.03,-604.2 859.32,-598.26"/>
</a>
</g>
</g>
<!-- Node21&#45;&gt;Node2 -->
<g id="edge60_Node000021_Node000002" class="edge">
<title>Node21&#45;&gt;Node2</title>
<g id="a_edge60_Node000021_Node000002"><a xlink:title=" ">
<path fill="none" stroke="#63b8ff" d="M1036.35,-670.82C952.37,-668.49 807.87,-659.69 768,-627 751.31,-613.32 747.25,-586.31 746.28,-572.19"/>
<polygon fill="#63b8ff" stroke="#63b8ff" points="1036.19,-674.32 1046.27,-671.07 1036.36,-667.32 1036.19,-674.32"/>
</a>
</g>
</g>
<!-- Node21&#45;&gt;Node5 -->
<g id="edge64_Node000021_Node000005" class="edge">
<title>Node21&#45;&gt;Node5</title>
<g id="a_edge64_Node000021_Node000005"><a xlink:title=" ">
<path fill="none" stroke="#63b8ff" d="M1111.16,-653.09C1116.14,-645.34 1121.45,-636.04 1125,-627 1158.6,-541.4 1246.68,-302.97 1205,-221 1181.19,-174.17 1123.97,-144.09 1091.52,-130.17"/>
<polygon fill="#63b8ff" stroke="#63b8ff" points="1108.32,-651.04 1105.63,-661.28 1114.12,-654.96 1108.32,-651.04"/>
</a>
</g>
</g>
<!-- Node21&#45;&gt;Node7 -->
<g id="edge68_Node000021_Node000007" class="edge">
<title>Node21&#45;&gt;Node7</title>
<g id="a_edge68_Node000021_Node000007"><a xlink:title=" ">
<path fill="none" stroke="#63b8ff" d="M1159.45,-665.62C1218.46,-658.83 1302.43,-646.16 1329,-627 1378.27,-591.48 1396,-568.62 1396,-507.88 1396,-507.88 1396,-507.88 1396,-119.12 1396,-72.93 1356.96,-72.24 1314,-55.25 1237.28,-24.9 996.03,-14.9 884.97,-11.85"/>
<polygon fill="#63b8ff" stroke="#63b8ff" points="1159.43,-662.1 1149.88,-666.69 1160.21,-669.06 1159.43,-662.1"/>
</a>
</g>
</g>
<!-- Node21&#45;&gt;Node9 -->
<g id="edge62_Node000021_Node000009" class="edge">
<title>Node21&#45;&gt;Node9</title>
<g id="a_edge62_Node000021_Node000009"><a xlink:title=" ">
<path fill="none" stroke="#63b8ff" d="M1103.32,-651.73C1108.63,-630.09 1116,-594.41 1116,-563.12 1116,-563.12 1116,-563.12 1116,-340.12 1116,-303.2 1116,-259.22 1116,-240.63"/>
<polygon fill="#63b8ff" stroke="#63b8ff" points="1099.97,-650.68 1100.88,-661.24 1106.75,-652.42 1099.97,-650.68"/>
</a>
</g>
</g>
<!-- Node21&#45;&gt;Node11 -->
<g id="edge66_Node000021_Node000011" class="edge">
<title>Node21&#45;&gt;Node11</title>
<g id="a_edge66_Node000021_Node000011"><a xlink:title=" ">
<path fill="none" stroke="#63b8ff" d="M1083.24,-654.09C1076.89,-646.1 1069.65,-636.37 1064,-627 1017.14,-549.38 1029.27,-516.78 978,-442 968.63,-428.33 954.97,-414.96 945.58,-406.47"/>
<polygon fill="#63b8ff" stroke="#63b8ff" points="1080.37,-656.11 1089.41,-661.63 1085.79,-651.68 1080.37,-656.11"/>
</a>
</g>
</g>
<!-- Node21&#45;&gt;Node12 -->
<g id="edge61_Node000021_Node000012" class="edge">
<title>Node21&#45;&gt;Node12</title>
<g id="a_edge61_Node000021_Node000012"><a xlink:title=" ">
<path fill="none" stroke="#63b8ff" d="M1092.09,-651.77C1086.19,-630.16 1078,-594.51 1078,-563.12 1078,-563.12 1078,-563.12 1078,-450.62 1078,-395.78 1010.41,-365.06 968.17,-351.22"/>
<polygon fill="#63b8ff" stroke="#63b8ff" points="1088.69,-652.61 1094.8,-661.27 1095.42,-650.69 1088.69,-652.61"/>
</a>
</g>
</g>
<!-- Node21&#45;&gt;Node17 -->
<g id="edge63_Node000021_Node000017" class="edge">
<title>Node21&#45;&gt;Node17</title>
<g id="a_edge63_Node000021_Node000017"><a xlink:title=" ">
<path fill="none" stroke="#63b8ff" d="M1127.13,-657.24C1140.67,-649.57 1156.32,-639.19 1168,-627 1201.4,-592.14 1225.05,-538.13 1233.54,-516.89"/>
<polygon fill="#63b8ff" stroke="#63b8ff" points="1125.75,-654.01 1118.62,-661.84 1129.08,-660.16 1125.75,-654.01"/>
</a>
</g>
</g>
<!-- Node21&#45;&gt;Node18 -->
<g id="edge65_Node000021_Node000018" class="edge">
<title>Node21&#45;&gt;Node18</title>
<g id="a_edge65_Node000021_Node000018"><a xlink:title=" ">
<path fill="none" stroke="#63b8ff" d="M1073.75,-656.67C1036.6,-633.77 966.75,-590.71 936.54,-572.09"/>
<polygon fill="#63b8ff" stroke="#63b8ff" points="1071.66,-659.5 1082.01,-661.77 1075.33,-653.54 1071.66,-659.5"/>
</a>
</g>
</g>
<!-- Node21&#45;&gt;Node19 -->
<g id="edge67_Node000021_Node000019" class="edge">
<title>Node21&#45;&gt;Node19</title>
<g id="a_edge67_Node000021_Node000019"><a xlink:title=" ">
<path fill="none" stroke="#63b8ff" d="M1138.17,-659.19C1169.56,-649.47 1212.46,-636.19 1240.68,-627.45"/>
<polygon fill="#63b8ff" stroke="#63b8ff" points="1137.14,-655.84 1128.62,-662.14 1139.21,-662.53 1137.14,-655.84"/>
</a>
</g>
</g>
</g>
</svg>

<g id="navigator" transform="translate(0 0)" fill="#404254">
  <rect fill="#f2f5e9" fill-opacity="0.5" stroke="#606060" stroke-width=".5" x="0" y="0" width="60" height="60"/>
  <use id="zoomplus" xlink:href="#zoomPlus" x="17" y="9" onmousedown="handleZoom(evt,'in')"/>
  <use id="zoomminus" xlink:href="#zoomMin" x="42" y="9" onmousedown="handleZoom(evt,'out')"/>
  <use id="reset" xlink:href="#resetDef" x="30" y="36" onmousedown="handleReset()"/>
   <use id="arrowup" xlink:href="#arrowUp" x="0" y="0" onmousedown="handlePan(0,-1)"/>
  <use id="arrowright" xlink:href="#arrowRight" x="0" y="0" onmousedown="handlePan(1,0)"/>
  <use id="arrowdown" xlink:href="#arrowDown" x="0" y="0" onmousedown="handlePan(0,1)"/>
  <use id="arrowleft" xlink:href="#arrowLeft" x="0" y="0" onmousedown="handlePan(-1,0)"/>
</g>
<svg viewBox="0 0 15 15" width="100%" height="30px" preserveAspectRatio="xMaxYMin meet">
 <g id="arrow_out" transform="scale(0.3 0.3)">
  <a xlink:href="_fwd_8hpp__dep__incl_org.svg" target="_base">
   <rect id="button" ry="5" rx="5" y="6" x="6" height="38" width="38"
        fill="#f2f5e9" fill-opacity="0.5" stroke="#606060" stroke-width="1.0"/>
   <path id="arrow"
     d="M 11.500037,31.436501 C 11.940474,20.09759 22.043105,11.32322 32.158766,21.979434 L 37.068811,17.246167 C 37.068811,17.246167 37.088388,32 37.088388,32 L 22.160133,31.978069 C 22.160133,31.978069 26.997745,27.140456 26.997745,27.140456 C 18.528582,18.264221 13.291696,25.230495 11.500037,31.436501 z"
     style="fill:#404040;"/>
  </a>
 </g>
</svg>

<style type='text/css'>
<![CDATA[
[data-mouse-over-selected='false'] { opacity: 0.7; }
[data-mouse-over-selected='true']  { opacity: 1.0; }
]]>
</style>
<script type="application/ecmascript"><![CDATA[
document.addEventListener('DOMContentLoaded', (event) => {
  highlightEdges();
  highlightAdjacentNodes();
});
]]></script>
</svg>
