<?xml version="1.0" encoding="UTF-8" standalone="no"?>
<!DOCTYPE svg PUBLIC "-//W3C//DTD SVG 1.1//EN"
 "http://www.w3.org/Graphics/SVG/1.1/DTD/svg11.dtd">
<!-- Generated by graphviz version 12.1.2 (20240928.0832)
 -->
<!-- Title: mimic++/Fwd.hpp Pages: 1 -->
<svg width="1333pt" height="690pt"
 viewBox="0.00 0.00 1333.00 690.25" xmlns="http://www.w3.org/2000/svg" xmlns:xlink="http://www.w3.org/1999/xlink">
<g id="graph0" class="graph" transform="scale(1 1) rotate(0) translate(4 686.25)">
<title>mimic++/Fwd.hpp</title>
<!-- Node1 -->
<g id="Node000001" class="node">
<title>Node1</title>
<g id="a_Node000001"><a xlink:title=" ">
<polygon fill="#999999" stroke="#666666" points="774,-682.25 680,-682.25 680,-663 774,-663 774,-682.25"/>
<text text-anchor="middle" x="727" y="-668.75" font-family="Helvetica,sans-Serif" font-size="10.00">mimic++/Fwd.hpp</text>
</a>
</g>
</g>
<!-- Node2 -->
<g id="Node000002" class="node">
<title>Node2</title>
<g id="a_Node000002"><a xlink:href="../../dc/d44/_call_8hpp.html" target="_top" xlink:title=" ">
<polygon fill="white" stroke="#666666" points="615.88,-571.75 524.12,-571.75 524.12,-552.5 615.88,-552.5 615.88,-571.75"/>
<text text-anchor="middle" x="570" y="-558.25" font-family="Helvetica,sans-Serif" font-size="10.00">mimic++/Call.hpp</text>
</a>
</g>
</g>
<!-- Node1&#45;&gt;Node2 -->
<g id="edge1_Node000001_Node000002" class="edge">
<title>Node1&#45;&gt;Node2</title>
<g id="a_edge1_Node000001_Node000002"><a xlink:title=" ">
<path fill="none" stroke="#63b8ff" d="M712.24,-654.28C699.84,-640.45 681.12,-621.23 662,-607.75 640.53,-592.61 613.13,-580.06 593.84,-572.17"/>
<polygon fill="#63b8ff" stroke="#63b8ff" points="709.53,-656.5 718.75,-661.72 714.8,-651.89 709.53,-656.5"/>
</a>
</g>
</g>
<!-- Node6 -->
<g id="Node000006" class="node">
<title>Node6</title>
<g id="a_Node000006"><a xlink:href="../../d9/dc3/_interface_mock_8hpp.html" target="_top" xlink:title=" ">
<polygon fill="white" stroke="#666666" points="1241.75,-74.5 1104.25,-74.5 1104.25,-55.25 1241.75,-55.25 1241.75,-74.5"/>
<text text-anchor="middle" x="1173" y="-61" font-family="Helvetica,sans-Serif" font-size="10.00">mimic++/InterfaceMock.hpp</text>
</a>
</g>
</g>
<!-- Node1&#45;&gt;Node6 -->
<g id="edge33_Node000001_Node000006" class="edge">
<title>Node1&#45;&gt;Node6</title>
<g id="a_edge33_Node000001_Node000006"><a xlink:title=" ">
<path fill="none" stroke="#63b8ff" d="M785.7,-667.11C936.38,-654.74 1325,-617.56 1325,-563.12 1325,-563.12 1325,-563.12 1325,-450.62 1325,-289.75 1208.62,-115.83 1179.53,-74.87"/>
<polygon fill="#63b8ff" stroke="#63b8ff" points="785.62,-663.61 775.93,-667.9 786.18,-670.58 785.62,-663.61"/>
</a>
</g>
</g>
<!-- Node7 -->
<g id="Node000007" class="node">
<title>Node7</title>
<g id="a_Node000007"><a xlink:href="../../d0/db9/mimic_09_09_8hpp.html" target="_top" xlink:title=" ">
<polygon fill="white" stroke="#666666" points="813.75,-19.25 700.25,-19.25 700.25,0 813.75,0 813.75,-19.25"/>
<text text-anchor="middle" x="757" y="-5.75" font-family="Helvetica,sans-Serif" font-size="10.00">mimic++/mimic++.hpp</text>
</a>
</g>
</g>
<!-- Node1&#45;&gt;Node7 -->
<g id="edge59_Node000001_Node000007" class="edge">
<title>Node1&#45;&gt;Node7</title>
<g id="a_edge59_Node000001_Node000007"><a xlink:title=" ">
<path fill="none" stroke="#63b8ff" d="M668.17,-669.02C495.15,-660.58 0,-630.53 0,-563.12 0,-563.12 0,-563.12 0,-119.12 0,-80.78 23.45,-71.88 58,-55.25 115.15,-27.74 543.38,-15.43 699.92,-11.82"/>
<polygon fill="#63b8ff" stroke="#63b8ff" points="667.91,-672.51 678.07,-669.49 668.25,-665.52 667.91,-672.51"/>
</a>
</g>
</g>
<!-- Node9 -->
<g id="Node000009" class="node">
<title>Node9</title>
<g id="a_Node000009"><a xlink:href="../../da/dd9/_reporter_8hpp.html" target="_top" xlink:title=" ">
<polygon fill="white" stroke="#666666" points="636,-461.25 524,-461.25 524,-442 636,-442 636,-461.25"/>
<text text-anchor="middle" x="580" y="-447.75" font-family="Helvetica,sans-Serif" font-size="10.00">mimic++/Reporter.hpp</text>
</a>
</g>
</g>
<!-- Node1&#45;&gt;Node9 -->
<g id="edge43_Node000001_Node000009" class="edge">
<title>Node1&#45;&gt;Node9</title>
<g id="a_edge43_Node000001_Node000009"><a xlink:title=" ">
<path fill="none" stroke="#63b8ff" d="M668.22,-666.16C615.14,-659.96 542.45,-647.89 523,-627 476.78,-577.34 546.93,-489.6 571.8,-461.53"/>
<polygon fill="#63b8ff" stroke="#63b8ff" points="667.73,-669.63 678.06,-667.27 668.51,-662.67 667.73,-669.63"/>
</a>
</g>
</g>
<!-- Node10 -->
<g id="Node000010" class="node">
<title>Node10</title>
<g id="a_Node000010"><a xlink:href="../../d8/de4/_sequence_8hpp.html" target="_top" xlink:title=" ">
<polygon fill="white" stroke="#666666" points="1025.38,-406 906.62,-406 906.62,-386.75 1025.38,-386.75 1025.38,-406"/>
<text text-anchor="middle" x="966" y="-392.5" font-family="Helvetica,sans-Serif" font-size="10.00">mimic++/Sequence.hpp</text>
</a>
</g>
</g>
<!-- Node1&#45;&gt;Node10 -->
<g id="edge45_Node000001_Node000010" class="edge">
<title>Node1&#45;&gt;Node10</title>
<g id="a_edge45_Node000001_Node000010"><a xlink:title=" ">
<path fill="none" stroke="#63b8ff" d="M760.37,-658.08C796.08,-642.11 852.4,-612.49 888,-571.75 934.26,-518.8 957.39,-433.96 963.98,-406.37"/>
<polygon fill="#63b8ff" stroke="#63b8ff" points="759.15,-654.79 751.38,-661.99 761.94,-661.21 759.15,-654.79"/>
</a>
</g>
</g>
<!-- Node15 -->
<g id="Node000015" class="node">
<title>Node15</title>
<g id="a_Node000015"><a xlink:href="../../d0/d3b/_reports_8hpp.html" target="_top" xlink:title=" ">
<polygon fill="white" stroke="#666666" points="781.5,-516.5 672.5,-516.5 672.5,-497.25 781.5,-497.25 781.5,-516.5"/>
<text text-anchor="middle" x="727" y="-503" font-family="Helvetica,sans-Serif" font-size="10.00">mimic++/Reports.hpp</text>
</a>
</g>
</g>
<!-- Node1&#45;&gt;Node15 -->
<g id="edge44_Node000001_Node000015" class="edge">
<title>Node1&#45;&gt;Node15</title>
<g id="a_edge44_Node000001_Node000015"><a xlink:title=" ">
<path fill="none" stroke="#63b8ff" d="M727,-651.47C727,-615.61 727,-542.1 727,-516.72"/>
<polygon fill="#63b8ff" stroke="#63b8ff" points="723.5,-651.31 727,-661.31 730.5,-651.31 723.5,-651.31"/>
</a>
</g>
</g>
<!-- Node16 -->
<g id="Node000016" class="node">
<title>Node16</title>
<g id="a_Node000016"><a xlink:href="../../da/dab/_printer_8hpp.html" target="_top" xlink:title=" ">
<polygon fill="white" stroke="#666666" points="878.88,-571.75 775.12,-571.75 775.12,-552.5 878.88,-552.5 878.88,-571.75"/>
<text text-anchor="middle" x="827" y="-558.25" font-family="Helvetica,sans-Serif" font-size="10.00">mimic++/Printer.hpp</text>
</a>
</g>
</g>
<!-- Node1&#45;&gt;Node16 -->
<g id="edge34_Node000001_Node000016" class="edge">
<title>Node1&#45;&gt;Node16</title>
<g id="a_edge34_Node000001_Node000016"><a xlink:title=" ">
<path fill="none" stroke="#63b8ff" d="M742.81,-654.47C764.32,-631.13 802.05,-590.19 818.7,-572.13"/>
<polygon fill="#63b8ff" stroke="#63b8ff" points="740.41,-651.91 736.21,-661.63 745.56,-656.65 740.41,-651.91"/>
</a>
</g>
</g>
<!-- Node18 -->
<g id="Node000018" class="node">
<title>Node18</title>
<g id="a_Node000018"><a xlink:href="../../d8/d32/_type_traits_8hpp.html" target="_top" xlink:title=" ">
<polygon fill="white" stroke="#666666" points="652.5,-627 531.5,-627 531.5,-607.75 652.5,-607.75 652.5,-627"/>
<text text-anchor="middle" x="592" y="-613.5" font-family="Helvetica,sans-Serif" font-size="10.00">mimic++/TypeTraits.hpp</text>
</a>
</g>
</g>
<!-- Node1&#45;&gt;Node18 -->
<g id="edge46_Node000001_Node000018" class="edge">
<title>Node1&#45;&gt;Node18</title>
<g id="a_edge46_Node000001_Node000018"><a xlink:title=" ">
<path fill="none" stroke="#63b8ff" d="M693.51,-658.41C669.07,-648.77 636.58,-635.96 615.01,-627.45"/>
<polygon fill="#63b8ff" stroke="#63b8ff" points="692.1,-661.62 702.69,-662.04 694.67,-655.11 692.1,-661.62"/>
</a>
</g>
</g>
<!-- Node19 -->
<g id="Node000019" class="node">
<title>Node19</title>
<g id="a_Node000019"><a xlink:href="../../d4/d2c/_utility_8hpp.html" target="_top" xlink:title=" ">
<polygon fill="white" stroke="#666666" points="1095,-627 995,-627 995,-607.75 1095,-607.75 1095,-627"/>
<text text-anchor="middle" x="1045" y="-613.5" font-family="Helvetica,sans-Serif" font-size="10.00">mimic++/Utility.hpp</text>
</a>
</g>
</g>
<!-- Node1&#45;&gt;Node19 -->
<g id="edge50_Node000001_Node000019" class="edge">
<title>Node1&#45;&gt;Node19</title>
<g id="a_edge50_Node000001_Node000019"><a xlink:title=" ">
<path fill="none" stroke="#63b8ff" d="M785.44,-661.84C845.4,-651.8 937.73,-636.34 994.58,-626.82"/>
<polygon fill="#63b8ff" stroke="#63b8ff" points="785.04,-658.36 775.76,-663.46 786.2,-665.26 785.04,-658.36"/>
</a>
</g>
</g>
<!-- Node3 -->
<g id="Node000003" class="node">
<title>Node3</title>
<g id="a_Node000003"><a xlink:href="../../d5/d8a/_expectation_8hpp.html" target="_top" xlink:title=" ">
<polygon fill="white" stroke="#666666" points="865.75,-295.5 740.25,-295.5 740.25,-276.25 865.75,-276.25 865.75,-295.5"/>
<text text-anchor="middle" x="803" y="-282" font-family="Helvetica,sans-Serif" font-size="10.00">mimic++/Expectation.hpp</text>
</a>
</g>
</g>
<!-- Node2&#45;&gt;Node3 -->
<g id="edge2_Node000002_Node000003" class="edge">
<title>Node2&#45;&gt;Node3</title>
<g id="a_edge2_Node000002_Node000003"><a xlink:title=" ">
<path fill="none" stroke="#63b8ff" d="M512.33,-558.18C397.67,-550.73 152,-526.2 152,-452.62 152,-452.62 152,-452.62 152,-395.38 152,-336.15 576.61,-301.82 739.99,-290.8"/>
<polygon fill="#63b8ff" stroke="#63b8ff" points="511.96,-561.66 522.16,-558.79 512.4,-554.67 511.96,-561.66"/>
</a>
</g>
</g>
<!-- Node2&#45;&gt;Node7 -->
<g id="edge32_Node000002_Node000007" class="edge">
<title>Node2&#45;&gt;Node7</title>
<g id="a_edge32_Node000002_Node000007"><a xlink:title=" ">
<path fill="none" stroke="#63b8ff" d="M512.68,-560.5C382.55,-557.54 76,-541.16 76,-452.62 76,-452.62 76,-452.62 76,-119.12 76,-55.94 142.16,-72.3 203,-55.25 295.33,-29.38 578.22,-16.78 700.13,-12.44"/>
<polygon fill="#63b8ff" stroke="#63b8ff" points="512.39,-564 522.46,-560.7 512.53,-557 512.39,-564"/>
</a>
</g>
</g>
<!-- Node2&#45;&gt;Node9 -->
<g id="edge15_Node000002_Node000009" class="edge">
<title>Node2&#45;&gt;Node9</title>
<g id="a_edge15_Node000002_Node000009"><a xlink:title=" ">
<path fill="none" stroke="#63b8ff" d="M571.85,-541.1C574.03,-517.4 577.57,-478.97 579.17,-461.63"/>
<polygon fill="#63b8ff" stroke="#63b8ff" points="568.39,-540.46 570.96,-550.74 575.36,-541.1 568.39,-540.46"/>
</a>
</g>
</g>
<!-- Node2&#45;&gt;Node15 -->
<g id="edge28_Node000002_Node000015" class="edge">
<title>Node2&#45;&gt;Node15</title>
<g id="a_edge28_Node000002_Node000015"><a xlink:title=" ">
<path fill="none" stroke="#63b8ff" d="M607.43,-548.43C636.01,-538.74 674.7,-525.61 700.24,-516.95"/>
<polygon fill="#63b8ff" stroke="#63b8ff" points="606.41,-545.08 598.07,-551.61 608.66,-551.71 606.41,-545.08"/>
</a>
</g>
</g>
<!-- Node4 -->
<g id="Node000004" class="node">
<title>Node4</title>
<g id="a_Node000004"><a xlink:href="../../d2/d4f/_expectation_builder_8hpp.html" target="_top" xlink:title=" ">
<polygon fill="white" stroke="#666666" points="978.75,-185 823.25,-185 823.25,-165.75 978.75,-165.75 978.75,-185"/>
<text text-anchor="middle" x="901" y="-171.5" font-family="Helvetica,sans-Serif" font-size="10.00">mimic++/ExpectationBuilder.hpp</text>
</a>
</g>
</g>
<!-- Node3&#45;&gt;Node4 -->
<g id="edge3_Node000003_Node000004" class="edge">
<title>Node3&#45;&gt;Node4</title>
<g id="a_edge3_Node000003_Node000004"><a xlink:title=" ">
<path fill="none" stroke="#63b8ff" d="M818.49,-267.72C839.58,-244.38 876.55,-203.44 892.87,-185.38"/>
<polygon fill="#63b8ff" stroke="#63b8ff" points="816.14,-265.11 812.03,-274.87 821.33,-269.8 816.14,-265.11"/>
</a>
</g>
</g>
<!-- Node5 -->
<g id="Node000005" class="node">
<title>Node5</title>
<g id="a_Node000005"><a xlink:href="../../d5/dc5/_mock_8hpp.html" target="_top" xlink:title=" ">
<polygon fill="white" stroke="#666666" points="1119.62,-129.75 1020.38,-129.75 1020.38,-110.5 1119.62,-110.5 1119.62,-129.75"/>
<text text-anchor="middle" x="1070" y="-116.25" font-family="Helvetica,sans-Serif" font-size="10.00">mimic++/Mock.hpp</text>
</a>
</g>
</g>
<!-- Node3&#45;&gt;Node5 -->
<g id="edge13_Node000003_Node000005" class="edge">
<title>Node3&#45;&gt;Node5</title>
<g id="a_edge13_Node000003_Node000005"><a xlink:title=" ">
<path fill="none" stroke="#63b8ff" d="M798.23,-264.81C793.28,-238.49 789.31,-192.51 814,-165.75 841.11,-136.36 953.4,-126.28 1019.93,-122.85"/>
<polygon fill="#63b8ff" stroke="#63b8ff" points="794.79,-265.45 800.3,-274.5 801.64,-263.99 794.79,-265.45"/>
</a>
</g>
</g>
<!-- Node3&#45;&gt;Node7 -->
<g id="edge14_Node000003_Node000007" class="edge">
<title>Node3&#45;&gt;Node7</title>
<g id="a_edge14_Node000003_Node000007"><a xlink:title=" ">
<path fill="none" stroke="#63b8ff" d="M789.75,-266.37C776.16,-245.54 757,-210.18 757,-176.38 757,-176.38 757,-176.38 757,-119.12 757,-82.2 757,-38.22 757,-19.63"/>
<polygon fill="#63b8ff" stroke="#63b8ff" points="786.83,-268.31 795.36,-274.6 792.62,-264.37 786.83,-268.31"/>
</a>
</g>
</g>
<!-- Node8 -->
<g id="Node000008" class="node">
<title>Node8</title>
<g id="a_Node000008"><a xlink:href="../../d8/de5/_expectation_policies_8hpp.html" target="_top" xlink:title=" ">
<polygon fill="white" stroke="#666666" points="1120,-240.25 960,-240.25 960,-221 1120,-221 1120,-240.25"/>
<text text-anchor="middle" x="1040" y="-226.75" font-family="Helvetica,sans-Serif" font-size="10.00">mimic++/ExpectationPolicies.hpp</text>
</a>
</g>
</g>
<!-- Node3&#45;&gt;Node8 -->
<g id="edge9_Node000003_Node000008" class="edge">
<title>Node3&#45;&gt;Node8</title>
<g id="a_edge9_Node000003_Node000008"><a xlink:title=" ">
<path fill="none" stroke="#63b8ff" d="M854.69,-273.26C898.25,-263.47 959.7,-249.67 999.69,-240.68"/>
<polygon fill="#63b8ff" stroke="#63b8ff" points="853.94,-269.84 844.95,-275.45 855.47,-276.67 853.94,-269.84"/>
</a>
</g>
</g>
<!-- Node4&#45;&gt;Node5 -->
<g id="edge4_Node000004_Node000005" class="edge">
<title>Node4&#45;&gt;Node5</title>
<g id="a_edge4_Node000004_Node000005"><a xlink:title=" ">
<path fill="none" stroke="#63b8ff" d="M940.47,-161.94C971.32,-152.22 1013.46,-138.94 1041.19,-130.2"/>
<polygon fill="#63b8ff" stroke="#63b8ff" points="939.6,-158.54 931.11,-164.89 941.7,-165.22 939.6,-158.54"/>
</a>
</g>
</g>
<!-- Node4&#45;&gt;Node7 -->
<g id="edge8_Node000004_Node000007" class="edge">
<title>Node4&#45;&gt;Node7</title>
<g id="a_edge8_Node000004_Node000007"><a xlink:title=" ">
<path fill="none" stroke="#63b8ff" d="M885.7,-156.97C855.17,-122.26 787.68,-45.52 764.78,-19.47"/>
<polygon fill="#63b8ff" stroke="#63b8ff" points="883.03,-159.24 892.26,-164.43 888.28,-154.61 883.03,-159.24"/>
</a>
</g>
</g>
<!-- Node5&#45;&gt;Node6 -->
<g id="edge5_Node000005_Node000006" class="edge">
<title>Node5&#45;&gt;Node6</title>
<g id="a_edge5_Node000005_Node000006"><a xlink:title=" ">
<path fill="none" stroke="#63b8ff" d="M1097.59,-104.86C1115.98,-95.36 1139.58,-83.15 1155.44,-74.95"/>
<polygon fill="#63b8ff" stroke="#63b8ff" points="1096.09,-101.7 1088.82,-109.4 1099.31,-107.91 1096.09,-101.7"/>
</a>
</g>
</g>
<!-- Node5&#45;&gt;Node7 -->
<g id="edge7_Node000005_Node000007" class="edge">
<title>Node5&#45;&gt;Node7</title>
<g id="a_edge7_Node000005_Node000007"><a xlink:title=" ">
<path fill="none" stroke="#63b8ff" d="M1057.17,-101.27C1045.54,-86.5 1027.03,-66.22 1006,-55.25 945.45,-23.66 866.59,-13.98 814,-11.25"/>
<polygon fill="#63b8ff" stroke="#63b8ff" points="1054.35,-103.35 1063.16,-109.23 1059.94,-99.14 1054.35,-103.35"/>
</a>
</g>
</g>
<!-- Node6&#45;&gt;Node7 -->
<g id="edge6_Node000006_Node000007" class="edge">
<title>Node6&#45;&gt;Node7</title>
<g id="a_edge6_Node000006_Node000007"><a xlink:title=" ">
<path fill="none" stroke="#63b8ff" d="M1092.59,-53.58C1010.78,-43.11 886.06,-27.15 813.94,-17.91"/>
<polygon fill="#63b8ff" stroke="#63b8ff" points="1091.97,-57.03 1102.34,-54.83 1092.86,-50.09 1091.97,-57.03"/>
</a>
</g>
</g>
<!-- Node8&#45;&gt;Node4 -->
<g id="edge10_Node000008_Node000004" class="edge">
<title>Node8&#45;&gt;Node4</title>
<g id="a_edge10_Node000008_Node000004"><a xlink:title=" ">
<path fill="none" stroke="#63b8ff" d="M1005.85,-216.54C980.65,-206.89 947,-194 924.7,-185.45"/>
<polygon fill="#63b8ff" stroke="#63b8ff" points="1004.42,-219.74 1015.01,-220.05 1006.92,-213.2 1004.42,-219.74"/>
</a>
</g>
</g>
<!-- Node8&#45;&gt;Node5 -->
<g id="edge11_Node000008_Node000005" class="edge">
<title>Node8&#45;&gt;Node5</title>
<g id="a_edge11_Node000008_Node000005"><a xlink:title=" ">
<path fill="none" stroke="#63b8ff" d="M1045.45,-209.93C1051.99,-186.26 1062.69,-147.55 1067.51,-130.13"/>
<polygon fill="#63b8ff" stroke="#63b8ff" points="1042.15,-208.72 1042.86,-219.29 1048.9,-210.58 1042.15,-208.72"/>
</a>
</g>
</g>
<!-- Node8&#45;&gt;Node7 -->
<g id="edge12_Node000008_Node000007" class="edge">
<title>Node8&#45;&gt;Node7</title>
<g id="a_edge12_Node000008_Node000007"><a xlink:title=" ">
<path fill="none" stroke="#63b8ff" d="M1027.47,-211.45C1017.65,-197.96 1003.15,-179.57 988,-165.75 915.9,-99.99 813.76,-41.42 773.87,-19.64"/>
<polygon fill="#63b8ff" stroke="#63b8ff" points="1024.49,-213.3 1033.12,-219.43 1030.2,-209.25 1024.49,-213.3"/>
</a>
</g>
</g>
<!-- Node9&#45;&gt;Node3 -->
<g id="edge16_Node000009_Node000003" class="edge">
<title>Node9&#45;&gt;Node3</title>
<g id="a_edge16_Node000009_Node000003"><a xlink:title=" ">
<path fill="none" stroke="#63b8ff" d="M612.73,-436.98C630.34,-429.02 652.06,-418.15 670,-406 721.84,-370.88 774.68,-317.02 794.66,-295.85"/>
<polygon fill="#63b8ff" stroke="#63b8ff" points="611.49,-433.7 603.76,-440.94 614.32,-440.11 611.49,-433.7"/>
</a>
</g>
</g>
<!-- Node9&#45;&gt;Node7 -->
<g id="edge27_Node000009_Node000007" class="edge">
<title>Node9&#45;&gt;Node7</title>
<g id="a_edge27_Node000009_Node000007"><a xlink:title=" ">
<path fill="none" stroke="#63b8ff" d="M512.49,-449.08C412.07,-445.81 228.94,-435.83 171,-406 137.17,-388.58 114,-380.17 114,-342.12 114,-342.12 114,-342.12 114,-119.12 114,-59.97 542.57,-25.09 699.94,-14.27"/>
<polygon fill="#63b8ff" stroke="#63b8ff" points="512.11,-452.57 522.21,-449.38 512.32,-445.57 512.11,-452.57"/>
</a>
</g>
</g>
<!-- Node9&#45;&gt;Node10 -->
<g id="edge17_Node000009_Node000010" class="edge">
<title>Node9&#45;&gt;Node10</title>
<g id="a_edge17_Node000009_Node000010"><a xlink:title=" ">
<path fill="none" stroke="#63b8ff" d="M647.49,-441.31C720.67,-431.22 836.34,-415.26 906.31,-405.61"/>
<polygon fill="#63b8ff" stroke="#63b8ff" points="647.05,-437.84 637.63,-442.68 648.01,-444.78 647.05,-437.84"/>
</a>
</g>
</g>
<!-- Node12 -->
<g id="Node000012" class="node">
<title>Node12</title>
<g id="a_Node000012"><a xlink:href="../../d9/d42/_boost_test_8hpp.html" target="_top" xlink:title=" ">
<polygon fill="white" stroke="#666666" points="340.38,-406 179.62,-406 179.62,-386.75 340.38,-386.75 340.38,-406"/>
<text text-anchor="middle" x="260" y="-392.5" font-family="Helvetica,sans-Serif" font-size="10.00">mimic++/adapters/BoostTest.hpp</text>
</a>
</g>
</g>
<!-- Node9&#45;&gt;Node12 -->
<g id="edge24_Node000009_Node000012" class="edge">
<title>Node9&#45;&gt;Node12</title>
<g id="a_edge24_Node000009_Node000012"><a xlink:title=" ">
<path fill="none" stroke="#63b8ff" d="M514.31,-439.69C455.4,-429.89 369.96,-415.67 314.69,-406.48"/>
<polygon fill="#63b8ff" stroke="#63b8ff" points="513.42,-443.09 523.86,-441.28 514.57,-436.19 513.42,-443.09"/>
</a>
</g>
</g>
<!-- Node13 -->
<g id="Node000013" class="node">
<title>Node13</title>
<g id="a_Node000013"><a xlink:href="../../d3/d04/_catch2_8hpp.html" target="_top" xlink:title=" ">
<polygon fill="white" stroke="#666666" points="505.25,-406 358.75,-406 358.75,-386.75 505.25,-386.75 505.25,-406"/>
<text text-anchor="middle" x="432" y="-392.5" font-family="Helvetica,sans-Serif" font-size="10.00">mimic++/adapters/Catch2.hpp</text>
</a>
</g>
</g>
<!-- Node9&#45;&gt;Node13 -->
<g id="edge25_Node000009_Node000013" class="edge">
<title>Node9&#45;&gt;Node13</title>
<g id="a_edge25_Node000009_Node000013"><a xlink:title=" ">
<path fill="none" stroke="#63b8ff" d="M544.36,-437.8C517.45,-428.12 481.19,-415.07 457.23,-406.45"/>
<polygon fill="#63b8ff" stroke="#63b8ff" points="542.88,-440.99 553.47,-441.08 545.25,-434.4 542.88,-440.99"/>
</a>
</g>
</g>
<!-- Node14 -->
<g id="Node000014" class="node">
<title>Node14</title>
<g id="a_Node000014"><a xlink:href="../../d5/db1/gtest_8hpp.html" target="_top" xlink:title=" ">
<polygon fill="white" stroke="#666666" points="660.75,-406 523.25,-406 523.25,-386.75 660.75,-386.75 660.75,-406"/>
<text text-anchor="middle" x="592" y="-392.5" font-family="Helvetica,sans-Serif" font-size="10.00">mimic++/adapters/gtest.hpp</text>
</a>
</g>
</g>
<!-- Node9&#45;&gt;Node14 -->
<g id="edge26_Node000009_Node000014" class="edge">
<title>Node9&#45;&gt;Node14</title>
<g id="a_edge26_Node000009_Node000014"><a xlink:title=" ">
<path fill="none" stroke="#63b8ff" d="M584.5,-430.67C586.38,-422.3 588.48,-413 589.98,-406.36"/>
<polygon fill="#63b8ff" stroke="#63b8ff" points="581.1,-429.83 582.31,-440.36 587.93,-431.37 581.1,-429.83"/>
</a>
</g>
</g>
<!-- Node10&#45;&gt;Node4 -->
<g id="edge22_Node000010_Node000004" class="edge">
<title>Node10&#45;&gt;Node4</title>
<g id="a_edge22_Node000010_Node000004"><a xlink:title=" ">
<path fill="none" stroke="#63b8ff" d="M939.76,-379.87C929.6,-372.42 918.98,-362.54 913,-350.75 884.01,-293.66 894.66,-212.22 899.29,-185.35"/>
<polygon fill="#63b8ff" stroke="#63b8ff" points="937.7,-382.71 947.95,-385.41 941.62,-376.91 937.7,-382.71"/>
</a>
</g>
</g>
<!-- Node10&#45;&gt;Node7 -->
<g id="edge23_Node000010_Node000007" class="edge">
<title>Node10&#45;&gt;Node7</title>
<g id="a_edge23_Node000010_Node000007"><a xlink:title=" ">
<path fill="none" stroke="#63b8ff" d="M894.83,-394.16C819.69,-388.65 712,-366.81 712,-286.88 712,-286.88 712,-286.88 712,-119.12 712,-79.56 737.84,-37.65 750.36,-19.67"/>
<polygon fill="#63b8ff" stroke="#63b8ff" points="894.41,-397.64 904.62,-394.79 894.86,-390.65 894.41,-397.64"/>
</a>
</g>
</g>
<!-- Node11 -->
<g id="Node000011" class="node">
<title>Node11</title>
<g id="a_Node000011"><a xlink:href="../../d6/d17/_control_policy_8hpp.html" target="_top" xlink:title=" ">
<polygon fill="white" stroke="#666666" points="1054.12,-350.75 921.88,-350.75 921.88,-331.5 1054.12,-331.5 1054.12,-350.75"/>
<text text-anchor="middle" x="988" y="-337.25" font-family="Helvetica,sans-Serif" font-size="10.00">mimic++/ControlPolicy.hpp</text>
</a>
</g>
</g>
<!-- Node10&#45;&gt;Node11 -->
<g id="edge18_Node000010_Node000011" class="edge">
<title>Node10&#45;&gt;Node11</title>
<g id="a_edge18_Node000010_Node000011"><a xlink:title=" ">
<path fill="none" stroke="#63b8ff" d="M974,-376C977.52,-367.49 981.48,-357.9 984.29,-351.11"/>
<polygon fill="#63b8ff" stroke="#63b8ff" points="970.79,-374.6 970.21,-385.18 977.26,-377.28 970.79,-374.6"/>
</a>
</g>
</g>
<!-- Node11&#45;&gt;Node3 -->
<g id="edge19_Node000011_Node000003" class="edge">
<title>Node11&#45;&gt;Node3</title>
<g id="a_edge19_Node000011_Node000003"><a xlink:title=" ">
<path fill="none" stroke="#63b8ff" d="M945.68,-327.94C911.84,-318.2 865.15,-304.77 834.54,-295.95"/>
<polygon fill="#63b8ff" stroke="#63b8ff" points="944.58,-331.27 955.16,-330.67 946.52,-324.54 944.58,-331.27"/>
</a>
</g>
</g>
<!-- Node11&#45;&gt;Node4 -->
<g id="edge20_Node000011_Node000004" class="edge">
<title>Node11&#45;&gt;Node4</title>
<g id="a_edge20_Node000011_Node000004"><a xlink:title=" ">
<path fill="none" stroke="#63b8ff" d="M978.03,-321.37C959.27,-286.05 919.36,-210.93 905.7,-185.22"/>
<polygon fill="#63b8ff" stroke="#63b8ff" points="974.83,-322.8 982.61,-329.98 981.01,-319.51 974.83,-322.8"/>
</a>
</g>
</g>
<!-- Node11&#45;&gt;Node7 -->
<g id="edge21_Node000011_Node000007" class="edge">
<title>Node11&#45;&gt;Node7</title>
<g id="a_edge21_Node000011_Node000007"><a xlink:title=" ">
<path fill="none" stroke="#63b8ff" d="M1023.21,-326.56C1057.28,-311.3 1106.93,-282.93 1129,-240.25 1155.49,-189.03 1157.87,-160.42 1129,-110.5 1104.36,-67.88 1079.39,-71.73 1033,-55.25 960.04,-29.34 870.86,-18.39 813.99,-13.82"/>
<polygon fill="#63b8ff" stroke="#63b8ff" points="1021.94,-323.29 1014.13,-330.46 1024.7,-329.72 1021.94,-323.29"/>
</a>
</g>
</g>
<!-- Node15&#45;&gt;Node7 -->
<g id="edge31_Node000015_Node000007" class="edge">
<title>Node15&#45;&gt;Node7</title>
<g id="a_edge31_Node000015_Node000007"><a xlink:title=" ">
<path fill="none" stroke="#63b8ff" d="M717.94,-486.49C694.92,-436.95 636,-308.08 636,-286.88 636,-286.88 636,-286.88 636,-119.12 636,-88.8 639.34,-77.45 660,-55.25 676.42,-37.61 701.17,-26.38 721.57,-19.59"/>
<polygon fill="#63b8ff" stroke="#63b8ff" points="714.7,-487.83 722.09,-495.41 721.04,-484.87 714.7,-487.83"/>
</a>
</g>
</g>
<!-- Node15&#45;&gt;Node9 -->
<g id="edge30_Node000015_Node000009" class="edge">
<title>Node15&#45;&gt;Node9</title>
<g id="a_edge30_Node000015_Node000009"><a xlink:title=" ">
<path fill="none" stroke="#63b8ff" d="M691.24,-492.92C664.56,-483.25 628.75,-470.29 605.06,-461.7"/>
<polygon fill="#63b8ff" stroke="#63b8ff" points="690.05,-496.21 700.64,-496.33 692.43,-489.63 690.05,-496.21"/>
</a>
</g>
</g>
<!-- Node15&#45;&gt;Node11 -->
<g id="edge29_Node000015_Node000011" class="edge">
<title>Node15&#45;&gt;Node11</title>
<g id="a_edge29_Node000015_Node000011"><a xlink:title=" ">
<path fill="none" stroke="#63b8ff" d="M747.73,-489.93C779.24,-466.03 841.53,-420.17 898,-386.75 921.11,-373.07 948.99,-359.7 967.53,-351.22"/>
<polygon fill="#63b8ff" stroke="#63b8ff" points="745.65,-487.11 739.82,-495.95 749.9,-492.67 745.65,-487.11"/>
</a>
</g>
</g>
<!-- Node16&#45;&gt;Node7 -->
<g id="edge42_Node000016_Node000007" class="edge">
<title>Node16&#45;&gt;Node7</title>
<g id="a_edge42_Node000016_Node000007"><a xlink:title=" ">
<path fill="none" stroke="#63b8ff" d="M816.31,-542.11C781.56,-480.26 674,-288.7 674,-286.88 674,-286.88 674,-286.88 674,-119.12 674,-74.06 719.72,-36.12 743.29,-19.56"/>
<polygon fill="#63b8ff" stroke="#63b8ff" points="813.22,-543.75 821.17,-550.75 819.32,-540.32 813.22,-543.75"/>
</a>
</g>
</g>
<!-- Node16&#45;&gt;Node8 -->
<g id="edge35_Node000016_Node000008" class="edge">
<title>Node16&#45;&gt;Node8</title>
<g id="a_edge35_Node000016_Node000008"><a xlink:title=" ">
<path fill="none" stroke="#63b8ff" d="M830.64,-541.3C839.12,-499.25 863.36,-399.39 913,-331.5 943.63,-289.61 996.31,-256.11 1023.18,-240.74"/>
<polygon fill="#63b8ff" stroke="#63b8ff" points="827.24,-540.43 828.79,-550.91 834.12,-541.76 827.24,-540.43"/>
</a>
</g>
</g>
<!-- Node16&#45;&gt;Node9 -->
<g id="edge39_Node000016_Node000009" class="edge">
<title>Node16&#45;&gt;Node9</title>
<g id="a_edge39_Node000016_Node000009"><a xlink:title=" ">
<path fill="none" stroke="#63b8ff" d="M763.74,-549.73C732.66,-542.67 695.28,-531.95 664,-516.5 633.77,-501.57 603.6,-475.11 589.02,-461.4"/>
<polygon fill="#63b8ff" stroke="#63b8ff" points="762.88,-553.12 773.4,-551.84 764.37,-546.28 762.88,-553.12"/>
</a>
</g>
</g>
<!-- Node16&#45;&gt;Node10 -->
<g id="edge41_Node000016_Node000010" class="edge">
<title>Node16&#45;&gt;Node10</title>
<g id="a_edge41_Node000016_Node000010"><a xlink:title=" ">
<path fill="none" stroke="#63b8ff" d="M841.77,-543.72C871.24,-509.01 936.38,-432.27 958.49,-406.22"/>
<polygon fill="#63b8ff" stroke="#63b8ff" points="839.26,-541.28 835.45,-551.17 844.59,-545.81 839.26,-541.28"/>
</a>
</g>
</g>
<!-- Node16&#45;&gt;Node15 -->
<g id="edge40_Node000016_Node000015" class="edge">
<title>Node16&#45;&gt;Node15</title>
<g id="a_edge40_Node000016_Node000015"><a xlink:title=" ">
<path fill="none" stroke="#63b8ff" d="M799.96,-546.73C782.15,-537.24 759.37,-525.11 744.05,-516.95"/>
<polygon fill="#63b8ff" stroke="#63b8ff" points="798.23,-549.77 808.7,-551.38 801.52,-543.59 798.23,-549.77"/>
</a>
</g>
</g>
<!-- Node17 -->
<g id="Node000017" class="node">
<title>Node17</title>
<g id="a_Node000017"><a xlink:href="../../dd/d50/_matcher_8hpp.html" target="_top" xlink:title=" ">
<polygon fill="white" stroke="#666666" points="1183.25,-461.25 1072.75,-461.25 1072.75,-442 1183.25,-442 1183.25,-461.25"/>
<text text-anchor="middle" x="1128" y="-447.75" font-family="Helvetica,sans-Serif" font-size="10.00">mimic++/Matcher.hpp</text>
</a>
</g>
</g>
<!-- Node16&#45;&gt;Node17 -->
<g id="edge36_Node000016_Node000017" class="edge">
<title>Node16&#45;&gt;Node17</title>
<g id="a_edge36_Node000016_Node000017"><a xlink:title=" ">
<path fill="none" stroke="#63b8ff" d="M862.9,-548.18C924.6,-525.94 1049.25,-481.01 1102.71,-461.74"/>
<polygon fill="#63b8ff" stroke="#63b8ff" points="861.79,-544.86 853.57,-551.55 864.16,-551.45 861.79,-544.86"/>
</a>
</g>
</g>
<!-- Node17&#45;&gt;Node7 -->
<g id="edge38_Node000017_Node000007" class="edge">
<title>Node17&#45;&gt;Node7</title>
<g id="a_edge38_Node000017_Node000007"><a xlink:title=" ">
<path fill="none" stroke="#63b8ff" d="M1143.78,-433.03C1196.24,-372.45 1355.71,-169.85 1251,-55.25 1221.99,-23.5 937.49,-14.13 813.87,-11.54"/>
<polygon fill="#63b8ff" stroke="#63b8ff" points="1141.31,-430.55 1137.33,-440.37 1146.57,-435.17 1141.31,-430.55"/>
</a>
</g>
</g>
<!-- Node17&#45;&gt;Node8 -->
<g id="edge37_Node000017_Node000008" class="edge">
<title>Node17&#45;&gt;Node8</title>
<g id="a_edge37_Node000017_Node000008"><a xlink:title=" ">
<path fill="none" stroke="#63b8ff" d="M1120.21,-431.24C1101.86,-385.57 1056.47,-272.6 1043.51,-240.35"/>
<polygon fill="#63b8ff" stroke="#63b8ff" points="1116.9,-432.39 1123.88,-440.36 1123.4,-429.78 1116.9,-432.39"/>
</a>
</g>
</g>
<!-- Node18&#45;&gt;Node2 -->
<g id="edge47_Node000018_Node000002" class="edge">
<title>Node18&#45;&gt;Node2</title>
<g id="a_edge47_Node000018_Node000002"><a xlink:title=" ">
<path fill="none" stroke="#63b8ff" d="M584,-597C580.48,-588.49 576.52,-578.9 573.71,-572.11"/>
<polygon fill="#63b8ff" stroke="#63b8ff" points="580.74,-598.28 587.79,-606.18 587.21,-595.6 580.74,-598.28"/>
</a>
</g>
</g>
<!-- Node18&#45;&gt;Node3 -->
<g id="edge48_Node000018_Node000003" class="edge">
<title>Node18&#45;&gt;Node3</title>
<g id="a_edge48_Node000018_Node000003"><a xlink:title=" ">
<path fill="none" stroke="#63b8ff" d="M606.29,-598.39C612.35,-590.42 619.32,-580.82 625,-571.75 644.84,-540.08 644.77,-529.29 664,-497.25 704.57,-429.66 721.22,-416.97 764,-350.75 776.55,-331.32 790.5,-308.03 797.84,-295.64"/>
<polygon fill="#63b8ff" stroke="#63b8ff" points="603.56,-596.2 600.18,-606.24 609.08,-600.5 603.56,-596.2"/>
</a>
</g>
</g>
<!-- Node18&#45;&gt;Node7 -->
<g id="edge49_Node000018_Node000007" class="edge">
<title>Node18&#45;&gt;Node7</title>
<g id="a_edge49_Node000018_Node000007"><a xlink:title=" ">
<path fill="none" stroke="#63b8ff" d="M519.78,-617.13C369.71,-616.76 38,-604.95 38,-507.88 38,-507.88 38,-507.88 38,-119.12 38,-79.87 63.45,-71.9 99,-55.25 152.66,-30.12 549.76,-16.45 699.81,-12.14"/>
<polygon fill="#63b8ff" stroke="#63b8ff" points="519.61,-620.63 529.61,-617.14 519.62,-613.63 519.61,-620.63"/>
</a>
</g>
</g>
<!-- Node19&#45;&gt;Node2 -->
<g id="edge51_Node000019_Node000002" class="edge">
<title>Node19&#45;&gt;Node2</title>
<g id="a_edge51_Node000019_Node000002"><a xlink:title=" ">
<path fill="none" stroke="#63b8ff" d="M983.3,-609.46C886.82,-598.64 702.4,-577.97 616.35,-568.32"/>
<polygon fill="#63b8ff" stroke="#63b8ff" points="982.78,-612.92 993.11,-610.56 983.56,-605.97 982.78,-612.92"/>
</a>
</g>
</g>
<!-- Node19&#45;&gt;Node5 -->
<g id="edge55_Node000019_Node000005" class="edge">
<title>Node19&#45;&gt;Node5</title>
<g id="a_edge55_Node000019_Node000005"><a xlink:title=" ">
<path fill="none" stroke="#63b8ff" d="M1106.73,-609.62C1166.78,-599.22 1249,-573.07 1249,-507.88 1249,-507.88 1249,-507.88 1249,-450.62 1249,-306.75 1115.6,-165.72 1079.12,-129.85"/>
<polygon fill="#63b8ff" stroke="#63b8ff" points="1106.24,-606.15 1096.92,-611.2 1107.35,-613.06 1106.24,-606.15"/>
</a>
</g>
</g>
<!-- Node19&#45;&gt;Node7 -->
<g id="edge58_Node000019_Node000007" class="edge">
<title>Node19&#45;&gt;Node7</title>
<g id="a_edge58_Node000019_Node000007"><a xlink:title=" ">
<path fill="none" stroke="#63b8ff" d="M1106.6,-614.53C1178.3,-608.72 1287,-586.87 1287,-507.88 1287,-507.88 1287,-507.88 1287,-450.62 1287,-376.55 1318,-360.95 1318,-286.88 1318,-286.88 1318,-286.88 1318,-119.12 1318,-84.14 1302.42,-72.53 1272,-55.25 1232.93,-33.06 939.87,-18.28 814.08,-12.9"/>
<polygon fill="#63b8ff" stroke="#63b8ff" points="1106.67,-611.02 1096.95,-615.23 1107.17,-618 1106.67,-611.02"/>
</a>
</g>
</g>
<!-- Node19&#45;&gt;Node8 -->
<g id="edge53_Node000019_Node000008" class="edge">
<title>Node19&#45;&gt;Node8</title>
<g id="a_edge53_Node000019_Node000008"><a xlink:title=" ">
<path fill="none" stroke="#63b8ff" d="M1100.9,-604.32C1149.1,-590.24 1211,-561.7 1211,-507.88 1211,-507.88 1211,-507.88 1211,-450.62 1211,-349.57 1096.48,-267.25 1054.88,-240.67"/>
<polygon fill="#63b8ff" stroke="#63b8ff" points="1100.09,-600.91 1091.38,-606.94 1101.95,-607.66 1100.09,-600.91"/>
</a>
</g>
</g>
<!-- Node19&#45;&gt;Node10 -->
<g id="edge57_Node000019_Node000010" class="edge">
<title>Node19&#45;&gt;Node10</title>
<g id="a_edge57_Node000019_Node000010"><a xlink:title=" ">
<path fill="none" stroke="#63b8ff" d="M1037.9,-596.7C1021.36,-550.84 980.76,-438.29 969.15,-406.1"/>
<polygon fill="#63b8ff" stroke="#63b8ff" points="1034.61,-597.88 1041.29,-606.09 1041.19,-595.5 1034.61,-597.88"/>
</a>
</g>
</g>
<!-- Node19&#45;&gt;Node11 -->
<g id="edge52_Node000019_Node000011" class="edge">
<title>Node19&#45;&gt;Node11</title>
<g id="a_edge52_Node000019_Node000011"><a xlink:title=" ">
<path fill="none" stroke="#63b8ff" d="M1048.75,-596.34C1055.52,-555 1066.24,-458.13 1034,-386.75 1027.22,-371.74 1012.91,-359.17 1002.03,-351.24"/>
<polygon fill="#63b8ff" stroke="#63b8ff" points="1045.34,-595.56 1047.06,-606.02 1052.23,-596.77 1045.34,-595.56"/>
</a>
</g>
</g>
<!-- Node19&#45;&gt;Node16 -->
<g id="edge56_Node000019_Node000016" class="edge">
<title>Node19&#45;&gt;Node16</title>
<g id="a_edge56_Node000019_Node000016"><a xlink:title=" ">
<path fill="none" stroke="#63b8ff" d="M996.94,-604.63C956.93,-594.86 900.79,-581.15 864.16,-572.2"/>
<polygon fill="#63b8ff" stroke="#63b8ff" points="996,-608.01 1006.55,-606.98 997.67,-601.21 996,-608.01"/>
</a>
</g>
</g>
<!-- Node19&#45;&gt;Node17 -->
<g id="edge54_Node000019_Node000017" class="edge">
<title>Node19&#45;&gt;Node17</title>
<g id="a_edge54_Node000019_Node000017"><a xlink:title=" ">
<path fill="none" stroke="#63b8ff" d="M1054.51,-597.62C1072.41,-562.3 1110.48,-487.18 1123.52,-461.47"/>
<polygon fill="#63b8ff" stroke="#63b8ff" points="1051.55,-595.72 1050.15,-606.22 1057.79,-598.88 1051.55,-595.72"/>
</a>
</g>
</g>
</g>
</svg>
