<?xml version="1.0" encoding="UTF-8" standalone="no"?>
<!DOCTYPE svg PUBLIC "-//W3C//DTD SVG 1.1//EN"
 "http://www.w3.org/Graphics/SVG/1.1/DTD/svg11.dtd">
<!-- Generated by graphviz version 12.1.1 (20240910.0053)
 -->
<!-- Title: mimic++/Fwd.hpp Pages: 1 -->
<!--zoomable 690 -->

<svg id="main" version="1.1" xmlns="http://www.w3.org/2000/svg" xmlns:xlink="http://www.w3.org/1999/xlink" xml:space="preserve" onload="init(evt)">

<style type="text/css"><![CDATA[
.node, .edge {opacity: 0.7;}
.node.selected, .edge.selected {opacity: 1;}
.edge:hover path { stroke: red; }
.edge:hover polygon { stroke: red; fill: red; }
]]></style>

<defs>
  <circle id="rim" cx="0" cy="0" r="7"/>
  <circle id="rim2" cx="0" cy="0" r="3.5"/>
  <g id="zoomPlus">
    <use xlink:href="#rim" fill="#404040"><set attributeName="fill" to="#808080" begin="zoomplus.mouseover" end="zoomplus.mouseout"/></use>
    <path d="M-4,0h8M0,-4v8" fill="none" stroke="white" stroke-width="1.5" pointer-events="none"/>
  </g>
  <g id="zoomMin">
    <use xlink:href="#rim" fill="#404040"><set attributeName="fill" to="#808080" begin="zoomminus.mouseover" end="zoomminus.mouseout"/></use>
    <path d="M-4,0h8" fill="none" stroke="white" stroke-width="1.5" pointer-events="none"/>
  </g>
  <g id="arrowUp" transform="translate(30 24)">
    <use xlink:href="#rim"/>
    <path pointer-events="none" fill="none" stroke="white" stroke-width="1.5" d="M0,-3.0v7 M-2.5,-0.5L0,-3.0L2.5,-0.5"/>
  </g>
  <g id="arrowRight" transform="rotate(90) translate(36 -43)">
    <use xlink:href="#rim"/>
    <path pointer-events="none" fill="none" stroke="white" stroke-width="1.5" d="M0,-3.0v7 M-2.5,-0.5L0,-3.0L2.5,-0.5"/>
  </g>
  <g id="arrowDown" transform="rotate(180) translate(-30 -48)">
    <use xlink:href="#rim"/>
    <path pointer-events="none" fill="none" stroke="white" stroke-width="1.5" d="M0,-3.0v7 M-2.5,-0.5L0,-3.0L2.5,-0.5"/>
  </g>
  <g id="arrowLeft" transform="rotate(270) translate(-36 17)">
    <use xlink:href="#rim"/>
    <path pointer-events="none" fill="none" stroke="white" stroke-width="1.5" d="M0,-3.0v7 M-2.5,-0.5L0,-3.0L2.5,-0.5"/>
  </g>
  <g id="resetDef">
    <use xlink:href="#rim2" fill="#404040"><set attributeName="fill" to="#808080" begin="reset.mouseover" end="reset.mouseout"/></use>
  </g>
</defs>
<script type="application/ecmascript">
var viewWidth = 1250;
var viewHeight = 690;
var sectionId = 'dynsection-1';
</script>
<script type="application/ecmascript" xlink:href="../../svg.min.js"/>
<svg id="graph" class="graph">
<g id="viewport">
<title>mimic++/Fwd.hpp</title>
<!-- Node1 -->
<g id="Node000001" class="node">
<title>Node1</title>
<g id="a_Node000001"><a xlink:title=" ">
<polygon fill="#999999" stroke="#666666" points="781,-682.25 687,-682.25 687,-663 781,-663 781,-682.25"/>
<text text-anchor="middle" x="734" y="-668.75" font-family="Helvetica,sans-Serif" font-size="10.00">mimic++/Fwd.hpp</text>
</a>
</g>
</g>
<!-- Node2 -->
<g id="Node000002" class="node">
<title>Node2</title>
<g id="a_Node000002"><a xlink:href="../../dc/d44/_call_8hpp.html" target="_top" xlink:title=" ">
<polygon fill="white" stroke="#666666" points="855.88,-571.75 764.12,-571.75 764.12,-552.5 855.88,-552.5 855.88,-571.75"/>
<text text-anchor="middle" x="810" y="-558.25" font-family="Helvetica,sans-Serif" font-size="10.00">mimic++/Call.hpp</text>
</a>
</g>
</g>
<!-- Node1&#45;&gt;Node2 -->
<g id="edge1_Node000001_Node000002" class="edge">
<title>Node1&#45;&gt;Node2</title>
<g id="a_edge1_Node000001_Node000002"><a xlink:title=" ">
<path fill="none" stroke="#63b8ff" d="M746.67,-653.54C763.12,-630.05 791.21,-589.95 803.69,-572.13"/>
<polygon fill="#63b8ff" stroke="#63b8ff" points="743.96,-651.31 741.09,-661.51 749.69,-655.32 743.96,-651.31"/>
</a>
</g>
</g>
<!-- Node6 -->
<g id="Node000006" class="node">
<title>Node6</title>
<g id="a_Node000006"><a xlink:href="../../d9/dc3/_interface_mock_8hpp.html" target="_top" xlink:title=" ">
<polygon fill="white" stroke="#666666" points="1023.75,-74.5 886.25,-74.5 886.25,-55.25 1023.75,-55.25 1023.75,-74.5"/>
<text text-anchor="middle" x="955" y="-61" font-family="Helvetica,sans-Serif" font-size="10.00">mimic++/InterfaceMock.hpp</text>
</a>
</g>
</g>
<!-- Node1&#45;&gt;Node6 -->
<g id="edge33_Node000001_Node000006" class="edge">
<title>Node1&#45;&gt;Node6</title>
<g id="a_edge33_Node000001_Node000006"><a xlink:title=" ">
<path fill="none" stroke="#63b8ff" d="M792.54,-671.33C926.13,-669.09 1242,-654.15 1242,-563.12 1242,-563.12 1242,-563.12 1242,-395.38 1242,-230.37 1034.83,-107.9 972.52,-74.8"/>
<polygon fill="#63b8ff" stroke="#63b8ff" points="792.8,-667.83 782.85,-671.48 792.9,-674.83 792.8,-667.83"/>
</a>
</g>
</g>
<!-- Node7 -->
<g id="Node000007" class="node">
<title>Node7</title>
<g id="a_Node000007"><a xlink:href="../../d0/db9/mimic_09_09_8hpp.html" target="_top" xlink:title=" ">
<polygon fill="white" stroke="#666666" points="786.75,-19.25 673.25,-19.25 673.25,0 786.75,0 786.75,-19.25"/>
<text text-anchor="middle" x="730" y="-5.75" font-family="Helvetica,sans-Serif" font-size="10.00">mimic++/mimic++.hpp</text>
</a>
</g>
</g>
<!-- Node1&#45;&gt;Node7 -->
<g id="edge57_Node000001_Node000007" class="edge">
<title>Node1&#45;&gt;Node7</title>
<g id="a_edge57_Node000001_Node000007"><a xlink:title=" ">
<path fill="none" stroke="#63b8ff" d="M675.21,-669.11C501.07,-660.87 0,-631.24 0,-563.12 0,-563.12 0,-563.12 0,-119.12 0,-80.78 23.47,-71.93 58,-55.25 112.65,-28.86 520.68,-15.92 672.94,-11.98"/>
<polygon fill="#63b8ff" stroke="#63b8ff" points="675.02,-672.6 685.18,-669.57 675.35,-665.61 675.02,-672.6"/>
</a>
</g>
</g>
<!-- Node9 -->
<g id="Node000009" class="node">
<title>Node9</title>
<g id="a_Node000009"><a xlink:href="../../da/dd9/_reporter_8hpp.html" target="_top" xlink:title=" ">
<polygon fill="white" stroke="#666666" points="605,-461.25 493,-461.25 493,-442 605,-442 605,-461.25"/>
<text text-anchor="middle" x="549" y="-447.75" font-family="Helvetica,sans-Serif" font-size="10.00">mimic++/Reporter.hpp</text>
</a>
</g>
</g>
<!-- Node1&#45;&gt;Node9 -->
<g id="edge43_Node000001_Node000009" class="edge">
<title>Node1&#45;&gt;Node9</title>
<g id="a_edge43_Node000001_Node000009"><a xlink:title=" ">
<path fill="none" stroke="#63b8ff" d="M719.31,-654.24C681.9,-609.95 584.02,-494.08 556.37,-461.35"/>
<polygon fill="#63b8ff" stroke="#63b8ff" points="716.42,-656.23 725.54,-661.61 721.76,-651.71 716.42,-656.23"/>
</a>
</g>
</g>
<!-- Node10 -->
<g id="Node000010" class="node">
<title>Node10</title>
<g id="a_Node000010"><a xlink:href="../../d8/de4/_sequence_8hpp.html" target="_top" xlink:title=" ">
<polygon fill="white" stroke="#666666" points="222.38,-406 103.62,-406 103.62,-386.75 222.38,-386.75 222.38,-406"/>
<text text-anchor="middle" x="163" y="-392.5" font-family="Helvetica,sans-Serif" font-size="10.00">mimic++/Sequence.hpp</text>
</a>
</g>
</g>
<!-- Node1&#45;&gt;Node10 -->
<g id="edge45_Node000001_Node000010" class="edge">
<title>Node1&#45;&gt;Node10</title>
<g id="a_edge45_Node000001_Node000010"><a xlink:title=" ">
<path fill="none" stroke="#63b8ff" d="M675.43,-664.05C577.29,-649.15 376.38,-609.07 234,-516.5 206.23,-498.45 200.64,-489.88 184,-461.25 173.44,-443.08 167.35,-418.89 164.66,-406.12"/>
<polygon fill="#63b8ff" stroke="#63b8ff" points="674.69,-667.48 685.1,-665.48 675.72,-660.55 674.69,-667.48"/>
</a>
</g>
</g>
<!-- Node15 -->
<g id="Node000015" class="node">
<title>Node15</title>
<g id="a_Node000015"><a xlink:href="../../d0/d3b/_reports_8hpp.html" target="_top" xlink:title=" ">
<polygon fill="white" stroke="#666666" points="424.5,-516.5 315.5,-516.5 315.5,-497.25 424.5,-497.25 424.5,-516.5"/>
<text text-anchor="middle" x="370" y="-503" font-family="Helvetica,sans-Serif" font-size="10.00">mimic++/Reports.hpp</text>
</a>
</g>
</g>
<!-- Node1&#45;&gt;Node15 -->
<g id="edge44_Node000001_Node000015" class="edge">
<title>Node1&#45;&gt;Node15</title>
<g id="a_edge44_Node000001_Node000015"><a xlink:title=" ">
<path fill="none" stroke="#63b8ff" d="M698.66,-658.69C650.4,-640.7 561.48,-606.42 488,-571.75 450.29,-553.95 407.62,-529.82 385.37,-516.91"/>
<polygon fill="#63b8ff" stroke="#63b8ff" points="697.16,-661.86 707.75,-662.06 699.59,-655.3 697.16,-661.86"/>
</a>
</g>
</g>
<!-- Node16 -->
<g id="Node000016" class="node">
<title>Node16</title>
<g id="a_Node000016"><a xlink:href="../../da/dab/_printer_8hpp.html" target="_top" xlink:title=" ">
<polygon fill="white" stroke="#666666" points="600.88,-571.75 497.12,-571.75 497.12,-552.5 600.88,-552.5 600.88,-571.75"/>
<text text-anchor="middle" x="549" y="-558.25" font-family="Helvetica,sans-Serif" font-size="10.00">mimic++/Printer.hpp</text>
</a>
</g>
</g>
<!-- Node1&#45;&gt;Node16 -->
<g id="edge34_Node000001_Node000016" class="edge">
<title>Node1&#45;&gt;Node16</title>
<g id="a_edge34_Node000001_Node000016"><a xlink:title=" ">
<path fill="none" stroke="#63b8ff" d="M709.03,-656.98C670.23,-634.22 596.58,-591.03 564.54,-572.24"/>
<polygon fill="#63b8ff" stroke="#63b8ff" points="706.84,-659.76 717.24,-661.8 710.38,-653.72 706.84,-659.76"/>
</a>
</g>
</g>
<!-- Node18 -->
<g id="Node000018" class="node">
<title>Node18</title>
<g id="a_Node000018"><a xlink:href="../../d8/d32/_type_traits_8hpp.html" target="_top" xlink:title=" ">
<polygon fill="white" stroke="#666666" points="1144.5,-627 1023.5,-627 1023.5,-607.75 1144.5,-607.75 1144.5,-627"/>
<text text-anchor="middle" x="1084" y="-613.5" font-family="Helvetica,sans-Serif" font-size="10.00">mimic++/TypeTraits.hpp</text>
</a>
</g>
</g>
<!-- Node1&#45;&gt;Node18 -->
<g id="edge46_Node000001_Node000018" class="edge">
<title>Node1&#45;&gt;Node18</title>
<g id="a_edge46_Node000001_Node000018"><a xlink:title=" ">
<path fill="none" stroke="#63b8ff" d="M792.34,-662.75C856.55,-652.98 959.26,-637.35 1024.1,-627.49"/>
<polygon fill="#63b8ff" stroke="#63b8ff" points="792.06,-659.25 782.7,-664.22 793.11,-666.17 792.06,-659.25"/>
</a>
</g>
</g>
<!-- Node19 -->
<g id="Node000019" class="node">
<title>Node19</title>
<g id="a_Node000019"><a xlink:href="../../d4/d2c/_utility_8hpp.html" target="_top" xlink:title=" ">
<polygon fill="white" stroke="#666666" points="936,-627 836,-627 836,-607.75 936,-607.75 936,-627"/>
<text text-anchor="middle" x="886" y="-613.5" font-family="Helvetica,sans-Serif" font-size="10.00">mimic++/Utility.hpp</text>
</a>
</g>
</g>
<!-- Node1&#45;&gt;Node19 -->
<g id="edge50_Node000001_Node000019" class="edge">
<title>Node1&#45;&gt;Node19</title>
<g id="a_edge50_Node000001_Node000019"><a xlink:title=" ">
<path fill="none" stroke="#63b8ff" d="M770.6,-658.8C798.24,-649.12 835.48,-636.07 860.09,-627.45"/>
<polygon fill="#63b8ff" stroke="#63b8ff" points="769.49,-655.48 761.21,-662.09 771.81,-662.09 769.49,-655.48"/>
</a>
</g>
</g>
<!-- Node3 -->
<g id="Node000003" class="node">
<title>Node3</title>
<g id="a_Node000003"><a xlink:href="../../d5/d8a/_expectation_8hpp.html" target="_top" xlink:title=" ">
<polygon fill="white" stroke="#666666" points="881.75,-295.5 756.25,-295.5 756.25,-276.25 881.75,-276.25 881.75,-295.5"/>
<text text-anchor="middle" x="819" y="-282" font-family="Helvetica,sans-Serif" font-size="10.00">mimic++/Expectation.hpp</text>
</a>
</g>
</g>
<!-- Node2&#45;&gt;Node3 -->
<g id="edge2_Node000002_Node000003" class="edge">
<title>Node2&#45;&gt;Node3</title>
<g id="a_edge2_Node000002_Node000003"><a xlink:title=" ">
<path fill="none" stroke="#63b8ff" d="M813.81,-541.17C820.7,-503.92 835,-421.2 840,-350.75 840.61,-342.22 841.87,-339.85 840,-331.5 837.05,-318.3 829.74,-304.39 824.58,-295.68"/>
<polygon fill="#63b8ff" stroke="#63b8ff" points="810.39,-540.39 811.99,-550.87 817.27,-541.69 810.39,-540.39"/>
</a>
</g>
</g>
<!-- Node2&#45;&gt;Node7 -->
<g id="edge32_Node000002_Node000007" class="edge">
<title>Node2&#45;&gt;Node7</title>
<g id="a_edge32_Node000002_Node000007"><a xlink:title=" ">
<path fill="none" stroke="#63b8ff" d="M866.57,-549.36C957.97,-526.67 1128,-467.61 1128,-342.12 1128,-342.12 1128,-342.12 1128,-119.12 1128,-76.01 1094.23,-73.13 1055,-55.25 1008.42,-34.02 867.02,-20.6 786.93,-14.49"/>
<polygon fill="#63b8ff" stroke="#63b8ff" points="865.94,-545.91 857.03,-551.66 867.57,-552.72 865.94,-545.91"/>
</a>
</g>
</g>
<!-- Node2&#45;&gt;Node9 -->
<g id="edge15_Node000002_Node000009" class="edge">
<title>Node2&#45;&gt;Node9</title>
<g id="a_edge15_Node000002_Node000009"><a xlink:title=" ">
<path fill="none" stroke="#63b8ff" d="M797.2,-543.02C785.92,-528.43 768.16,-508.54 748,-497.25 703.82,-472.51 646.91,-461.49 605.27,-456.57"/>
<polygon fill="#63b8ff" stroke="#63b8ff" points="794.27,-544.94 803.03,-550.89 799.89,-540.77 794.27,-544.94"/>
</a>
</g>
</g>
<!-- Node2&#45;&gt;Node15 -->
<g id="edge28_Node000002_Node000015" class="edge">
<title>Node2&#45;&gt;Node15</title>
<g id="a_edge28_Node000002_Node000015"><a xlink:title=" ">
<path fill="none" stroke="#63b8ff" d="M752.47,-554.16C667.25,-543.85 508.53,-524.64 424.87,-514.52"/>
<polygon fill="#63b8ff" stroke="#63b8ff" points="751.89,-557.62 762.24,-555.35 752.73,-550.67 751.89,-557.62"/>
</a>
</g>
</g>
<!-- Node4 -->
<g id="Node000004" class="node">
<title>Node4</title>
<g id="a_Node000004"><a xlink:href="../../d2/d4f/_expectation_builder_8hpp.html" target="_top" xlink:title=" ">
<polygon fill="white" stroke="#666666" points="701.75,-185 546.25,-185 546.25,-165.75 701.75,-165.75 701.75,-185"/>
<text text-anchor="middle" x="624" y="-171.5" font-family="Helvetica,sans-Serif" font-size="10.00">mimic++/ExpectationBuilder.hpp</text>
</a>
</g>
</g>
<!-- Node3&#45;&gt;Node4 -->
<g id="edge3_Node000003_Node000004" class="edge">
<title>Node3&#45;&gt;Node4</title>
<g id="a_edge3_Node000003_Node000004"><a xlink:title=" ">
<path fill="none" stroke="#63b8ff" d="M783.97,-271.71C763.65,-263.58 737.84,-252.4 716,-240.25 685.42,-223.23 652.36,-198.57 635.42,-185.42"/>
<polygon fill="#63b8ff" stroke="#63b8ff" points="782.63,-274.95 793.22,-275.34 785.19,-268.43 782.63,-274.95"/>
</a>
</g>
</g>
<!-- Node5 -->
<g id="Node000005" class="node">
<title>Node5</title>
<g id="a_Node000005"><a xlink:href="../../d5/dc5/_mock_8hpp.html" target="_top" xlink:title=" ">
<polygon fill="white" stroke="#666666" points="857.62,-129.75 758.38,-129.75 758.38,-110.5 857.62,-110.5 857.62,-129.75"/>
<text text-anchor="middle" x="808" y="-116.25" font-family="Helvetica,sans-Serif" font-size="10.00">mimic++/Mock.hpp</text>
</a>
</g>
</g>
<!-- Node3&#45;&gt;Node5 -->
<g id="edge13_Node000003_Node000005" class="edge">
<title>Node3&#45;&gt;Node5</title>
<g id="a_edge13_Node000003_Node000005"><a xlink:title=" ">
<path fill="none" stroke="#63b8ff" d="M817.65,-264.72C815.24,-228.86 810.3,-155.35 808.59,-129.97"/>
<polygon fill="#63b8ff" stroke="#63b8ff" points="814.14,-264.82 818.31,-274.56 821.13,-264.35 814.14,-264.82"/>
</a>
</g>
</g>
<!-- Node3&#45;&gt;Node7 -->
<g id="edge14_Node000003_Node000007" class="edge">
<title>Node3&#45;&gt;Node7</title>
<g id="a_edge14_Node000003_Node000007"><a xlink:title=" ">
<path fill="none" stroke="#63b8ff" d="M794.49,-269.6C768.14,-251.08 730,-217.21 730,-176.38 730,-176.38 730,-176.38 730,-119.12 730,-82.2 730,-38.22 730,-19.63"/>
<polygon fill="#63b8ff" stroke="#63b8ff" points="792.39,-272.41 802.65,-275.09 796.3,-266.6 792.39,-272.41"/>
</a>
</g>
</g>
<!-- Node8 -->
<g id="Node000008" class="node">
<title>Node8</title>
<g id="a_Node000008"><a xlink:href="../../d8/de5/_expectation_policies_8hpp.html" target="_top" xlink:title=" ">
<polygon fill="white" stroke="#666666" points="996,-240.25 836,-240.25 836,-221 996,-221 996,-240.25"/>
<text text-anchor="middle" x="916" y="-226.75" font-family="Helvetica,sans-Serif" font-size="10.00">mimic++/ExpectationPolicies.hpp</text>
</a>
</g>
</g>
<!-- Node3&#45;&gt;Node8 -->
<g id="edge9_Node000003_Node000008" class="edge">
<title>Node3&#45;&gt;Node8</title>
<g id="a_edge9_Node000003_Node000008"><a xlink:title=" ">
<path fill="none" stroke="#63b8ff" d="M845.47,-270.34C862.71,-260.88 884.67,-248.83 899.46,-240.7"/>
<polygon fill="#63b8ff" stroke="#63b8ff" points="843.86,-267.23 836.78,-275.11 847.23,-273.37 843.86,-267.23"/>
</a>
</g>
</g>
<!-- Node4&#45;&gt;Node5 -->
<g id="edge4_Node000004_Node000005" class="edge">
<title>Node4&#45;&gt;Node5</title>
<g id="a_edge4_Node000004_Node000005"><a xlink:title=" ">
<path fill="none" stroke="#63b8ff" d="M666.1,-162.19C699.75,-152.45 746.18,-139.02 776.63,-130.2"/>
<polygon fill="#63b8ff" stroke="#63b8ff" points="665.3,-158.78 656.67,-164.92 667.25,-165.5 665.3,-158.78"/>
</a>
</g>
</g>
<!-- Node4&#45;&gt;Node7 -->
<g id="edge8_Node000004_Node000007" class="edge">
<title>Node4&#45;&gt;Node7</title>
<g id="a_edge8_Node000004_Node000007"><a xlink:title=" ">
<path fill="none" stroke="#63b8ff" d="M635.85,-156.07C658.58,-120.95 707.56,-45.3 724.27,-19.47"/>
<polygon fill="#63b8ff" stroke="#63b8ff" points="633.02,-154 630.52,-164.3 638.89,-157.81 633.02,-154"/>
</a>
</g>
</g>
<!-- Node5&#45;&gt;Node6 -->
<g id="edge5_Node000005_Node000006" class="edge">
<title>Node5&#45;&gt;Node6</title>
<g id="a_edge5_Node000005_Node000006"><a xlink:title=" ">
<path fill="none" stroke="#63b8ff" d="M843.76,-106.17C870.44,-96.5 906.25,-83.54 929.94,-74.95"/>
<polygon fill="#63b8ff" stroke="#63b8ff" points="842.57,-102.88 834.36,-109.58 844.95,-109.46 842.57,-102.88"/>
</a>
</g>
</g>
<!-- Node5&#45;&gt;Node7 -->
<g id="edge7_Node000005_Node000007" class="edge">
<title>Node5&#45;&gt;Node7</title>
<g id="a_edge7_Node000005_Node000007"><a xlink:title=" ">
<path fill="none" stroke="#63b8ff" d="M795,-101.04C778.11,-77.55 749.29,-37.45 736.47,-19.63"/>
<polygon fill="#63b8ff" stroke="#63b8ff" points="792.05,-102.94 800.73,-109.02 797.74,-98.85 792.05,-102.94"/>
</a>
</g>
</g>
<!-- Node6&#45;&gt;Node7 -->
<g id="edge6_Node000006_Node000007" class="edge">
<title>Node6&#45;&gt;Node7</title>
<g id="a_edge6_Node000006_Node000007"><a xlink:title=" ">
<path fill="none" stroke="#63b8ff" d="M905.39,-52.14C864.07,-42.36 806.07,-28.63 768.26,-19.68"/>
<polygon fill="#63b8ff" stroke="#63b8ff" points="904.57,-55.54 915.1,-54.43 906.18,-48.72 904.57,-55.54"/>
</a>
</g>
</g>
<!-- Node8&#45;&gt;Node4 -->
<g id="edge10_Node000008_Node000004" class="edge">
<title>Node8&#45;&gt;Node4</title>
<g id="a_edge10_Node000008_Node000004"><a xlink:title=" ">
<path fill="none" stroke="#63b8ff" d="M855.03,-218.51C801.22,-208.69 723.77,-194.57 673.66,-185.43"/>
<polygon fill="#63b8ff" stroke="#63b8ff" points="854.18,-221.91 864.65,-220.26 855.44,-215.02 854.18,-221.91"/>
</a>
</g>
</g>
<!-- Node8&#45;&gt;Node5 -->
<g id="edge11_Node000008_Node000005" class="edge">
<title>Node8&#45;&gt;Node5</title>
<g id="a_edge11_Node000008_Node000005"><a xlink:title=" ">
<path fill="none" stroke="#63b8ff" d="M899.24,-212.78C876.05,-189.49 835.02,-148.27 816.96,-130.13"/>
<polygon fill="#63b8ff" stroke="#63b8ff" points="896.56,-215.06 906.09,-219.67 901.52,-210.12 896.56,-215.06"/>
</a>
</g>
</g>
<!-- Node8&#45;&gt;Node7 -->
<g id="edge12_Node000008_Node000007" class="edge">
<title>Node8&#45;&gt;Node7</title>
<g id="a_edge12_Node000008_Node000007"><a xlink:title=" ">
<path fill="none" stroke="#63b8ff" d="M911.4,-209.69C904.84,-184.54 890.86,-140.9 867,-110.5 833.38,-67.67 776.8,-34.58 748.01,-19.53"/>
<polygon fill="#63b8ff" stroke="#63b8ff" points="907.96,-210.36 913.74,-219.23 914.76,-208.69 907.96,-210.36"/>
</a>
</g>
</g>
<!-- Node9&#45;&gt;Node3 -->
<g id="edge16_Node000009_Node000003" class="edge">
<title>Node9&#45;&gt;Node3</title>
<g id="a_edge16_Node000009_Node000003"><a xlink:title=" ">
<path fill="none" stroke="#63b8ff" d="M616.6,-447.76C683.62,-443.41 779.83,-432.61 805,-406 834.19,-375.14 825.75,-317.82 821.12,-295.8"/>
<polygon fill="#63b8ff" stroke="#63b8ff" points="616.56,-444.26 606.79,-448.36 616.99,-451.24 616.56,-444.26"/>
</a>
</g>
</g>
<!-- Node9&#45;&gt;Node7 -->
<g id="edge27_Node000009_Node000007" class="edge">
<title>Node9&#45;&gt;Node7</title>
<g id="a_edge27_Node000009_Node000007"><a xlink:title=" ">
<path fill="none" stroke="#63b8ff" d="M481.26,-445.97C418.83,-440.33 332.17,-428.61 307,-406 284.97,-386.2 288,-371.74 288,-342.12 288,-342.12 288,-342.12 288,-119.12 288,-40.7 553.74,-18.66 673.12,-12.72"/>
<polygon fill="#63b8ff" stroke="#63b8ff" points="480.84,-449.45 491.11,-446.83 481.45,-442.48 480.84,-449.45"/>
</a>
</g>
</g>
<!-- Node9&#45;&gt;Node10 -->
<g id="edge17_Node000009_Node000010" class="edge">
<title>Node9&#45;&gt;Node10</title>
<g id="a_edge17_Node000009_Node000010"><a xlink:title=" ">
<path fill="none" stroke="#63b8ff" d="M481.51,-441.31C408.33,-431.22 292.66,-415.26 222.69,-405.61"/>
<polygon fill="#63b8ff" stroke="#63b8ff" points="480.99,-444.78 491.37,-442.68 481.95,-437.84 480.99,-444.78"/>
</a>
</g>
</g>
<!-- Node12 -->
<g id="Node000012" class="node">
<title>Node12</title>
<g id="a_Node000012"><a xlink:href="../../d9/d42/_boost_test_8hpp.html" target="_top" xlink:title=" ">
<polygon fill="white" stroke="#666666" points="796.38,-406 635.62,-406 635.62,-386.75 796.38,-386.75 796.38,-406"/>
<text text-anchor="middle" x="716" y="-392.5" font-family="Helvetica,sans-Serif" font-size="10.00">mimic++/adapters/BoostTest.hpp</text>
</a>
</g>
</g>
<!-- Node9&#45;&gt;Node12 -->
<g id="edge24_Node000009_Node000012" class="edge">
<title>Node9&#45;&gt;Node12</title>
<g id="a_edge24_Node000009_Node000012"><a xlink:title=" ">
<path fill="none" stroke="#63b8ff" d="M588.01,-438.19C618.48,-428.47 660.13,-415.19 687.53,-406.45"/>
<polygon fill="#63b8ff" stroke="#63b8ff" points="587.24,-434.76 578.77,-441.13 589.36,-441.43 587.24,-434.76"/>
</a>
</g>
</g>
<!-- Node13 -->
<g id="Node000013" class="node">
<title>Node13</title>
<g id="a_Node000013"><a xlink:href="../../d3/d04/_catch2_8hpp.html" target="_top" xlink:title=" ">
<polygon fill="white" stroke="#666666" points="462.25,-406 315.75,-406 315.75,-386.75 462.25,-386.75 462.25,-406"/>
<text text-anchor="middle" x="389" y="-392.5" font-family="Helvetica,sans-Serif" font-size="10.00">mimic++/adapters/Catch2.hpp</text>
</a>
</g>
</g>
<!-- Node9&#45;&gt;Node13 -->
<g id="edge25_Node000009_Node000013" class="edge">
<title>Node9&#45;&gt;Node13</title>
<g id="a_edge25_Node000009_Node000013"><a xlink:title=" ">
<path fill="none" stroke="#63b8ff" d="M511.24,-438.06C482.08,-428.35 442.41,-415.15 416.27,-406.45"/>
<polygon fill="#63b8ff" stroke="#63b8ff" points="509.83,-441.28 520.42,-441.11 512.04,-434.64 509.83,-441.28"/>
</a>
</g>
</g>
<!-- Node14 -->
<g id="Node000014" class="node">
<title>Node14</title>
<g id="a_Node000014"><a xlink:href="../../d5/db1/gtest_8hpp.html" target="_top" xlink:title=" ">
<polygon fill="white" stroke="#666666" points="617.75,-406 480.25,-406 480.25,-386.75 617.75,-386.75 617.75,-406"/>
<text text-anchor="middle" x="549" y="-392.5" font-family="Helvetica,sans-Serif" font-size="10.00">mimic++/adapters/gtest.hpp</text>
</a>
</g>
</g>
<!-- Node9&#45;&gt;Node14 -->
<g id="edge26_Node000009_Node000014" class="edge">
<title>Node9&#45;&gt;Node14</title>
<g id="a_edge26_Node000009_Node000014"><a xlink:title=" ">
<path fill="none" stroke="#63b8ff" d="M549,-430.38C549,-422.09 549,-412.92 549,-406.36"/>
<polygon fill="#63b8ff" stroke="#63b8ff" points="545.5,-430.32 549,-440.32 552.5,-430.32 545.5,-430.32"/>
</a>
</g>
</g>
<!-- Node10&#45;&gt;Node4 -->
<g id="edge22_Node000010_Node000004" class="edge">
<title>Node10&#45;&gt;Node4</title>
<g id="a_edge22_Node000010_Node000004"><a xlink:title=" ">
<path fill="none" stroke="#63b8ff" d="M192.09,-381.56C278.66,-340.43 533.07,-219.57 604.91,-185.44"/>
<polygon fill="#63b8ff" stroke="#63b8ff" points="190.83,-378.28 183.3,-385.73 193.83,-384.6 190.83,-378.28"/>
</a>
</g>
</g>
<!-- Node10&#45;&gt;Node7 -->
<g id="edge23_Node000010_Node000007" class="edge">
<title>Node10&#45;&gt;Node7</title>
<g id="a_edge23_Node000010_Node000007"><a xlink:title=" ">
<path fill="none" stroke="#63b8ff" d="M170.4,-375.6C177.77,-354.09 188,-318.53 188,-286.88 188,-286.88 188,-286.88 188,-119.12 188,-21.06 533.44,-10.42 672.77,-10.12"/>
<polygon fill="#63b8ff" stroke="#63b8ff" points="167.17,-374.23 167.09,-384.83 173.76,-376.59 167.17,-374.23"/>
</a>
</g>
</g>
<!-- Node11 -->
<g id="Node000011" class="node">
<title>Node11</title>
<g id="a_Node000011"><a xlink:href="../../d6/d17/_control_policy_8hpp.html" target="_top" xlink:title=" ">
<polygon fill="white" stroke="#666666" points="523.12,-350.75 390.88,-350.75 390.88,-331.5 523.12,-331.5 523.12,-350.75"/>
<text text-anchor="middle" x="457" y="-337.25" font-family="Helvetica,sans-Serif" font-size="10.00">mimic++/ControlPolicy.hpp</text>
</a>
</g>
</g>
<!-- Node10&#45;&gt;Node11 -->
<g id="edge18_Node000010_Node000011" class="edge">
<title>Node10&#45;&gt;Node11</title>
<g id="a_edge18_Node000010_Node000011"><a xlink:title=" ">
<path fill="none" stroke="#63b8ff" d="M224.39,-384.26C278.56,-374.44 356.55,-360.32 407,-351.18"/>
<polygon fill="#63b8ff" stroke="#63b8ff" points="223.91,-380.79 214.7,-386.01 225.16,-387.67 223.91,-380.79"/>
</a>
</g>
</g>
<!-- Node11&#45;&gt;Node3 -->
<g id="edge19_Node000011_Node000003" class="edge">
<title>Node11&#45;&gt;Node3</title>
<g id="a_edge19_Node000011_Node000003"><a xlink:title=" ">
<path fill="none" stroke="#63b8ff" d="M530.07,-329.38C596.75,-319.57 694.22,-305.23 757.13,-295.98"/>
<polygon fill="#63b8ff" stroke="#63b8ff" points="529.7,-325.89 520.32,-330.81 530.72,-332.82 529.7,-325.89"/>
</a>
</g>
</g>
<!-- Node11&#45;&gt;Node4 -->
<g id="edge20_Node000011_Node000004" class="edge">
<title>Node11&#45;&gt;Node4</title>
<g id="a_edge20_Node000011_Node000004"><a xlink:title=" ">
<path fill="none" stroke="#63b8ff" d="M473.85,-323.6C508.81,-289.33 588.19,-211.49 614.98,-185.22"/>
<polygon fill="#63b8ff" stroke="#63b8ff" points="471.75,-320.76 467.06,-330.26 476.65,-325.76 471.75,-320.76"/>
</a>
</g>
</g>
<!-- Node11&#45;&gt;Node7 -->
<g id="edge21_Node000011_Node000007" class="edge">
<title>Node11&#45;&gt;Node7</title>
<g id="a_edge21_Node000011_Node000007"><a xlink:title=" ">
<path fill="none" stroke="#63b8ff" d="M431.31,-325.07C403.78,-306.78 364,-273.17 364,-231.62 364,-231.62 364,-231.62 364,-119.12 364,-55.5 569.88,-26.28 672.81,-15.65"/>
<polygon fill="#63b8ff" stroke="#63b8ff" points="429.21,-327.88 439.52,-330.29 432.96,-321.97 429.21,-327.88"/>
</a>
</g>
</g>
<!-- Node15&#45;&gt;Node7 -->
<g id="edge31_Node000015_Node000007" class="edge">
<title>Node15&#45;&gt;Node7</title>
<g id="a_edge31_Node000015_Node000007"><a xlink:title=" ">
<path fill="none" stroke="#63b8ff" d="M303.78,-498.79C241.53,-488.66 149.93,-464.29 95,-406 74.69,-384.45 76,-371.74 76,-342.12 76,-342.12 76,-342.12 76,-119.12 76,-48.7 152.79,-72.75 221,-55.25 305.2,-33.64 558.84,-18.96 673.1,-13.27"/>
<polygon fill="#63b8ff" stroke="#63b8ff" points="303.14,-502.23 313.55,-500.29 304.2,-495.31 303.14,-502.23"/>
</a>
</g>
</g>
<!-- Node15&#45;&gt;Node9 -->
<g id="edge30_Node000015_Node000009" class="edge">
<title>Node15&#45;&gt;Node9</title>
<g id="a_edge30_Node000015_Node000009"><a xlink:title=" ">
<path fill="none" stroke="#63b8ff" d="M411.38,-493.57C444.08,-483.84 488.99,-470.48 518.49,-461.7"/>
<polygon fill="#63b8ff" stroke="#63b8ff" points="410.4,-490.2 401.82,-496.41 412.4,-496.91 410.4,-490.2"/>
</a>
</g>
</g>
<!-- Node15&#45;&gt;Node11 -->
<g id="edge29_Node000015_Node000011" class="edge">
<title>Node15&#45;&gt;Node11</title>
<g id="a_edge29_Node000015_Node000011"><a xlink:title=" ">
<path fill="none" stroke="#63b8ff" d="M350.24,-489.77C323.47,-465.98 281.74,-420.62 307,-386.75 326.33,-360.83 360.1,-349.37 390.71,-344.52"/>
<polygon fill="#63b8ff" stroke="#63b8ff" points="347.61,-492.12 357.48,-495.98 352.17,-486.81 347.61,-492.12"/>
</a>
</g>
</g>
<!-- Node16&#45;&gt;Node7 -->
<g id="edge42_Node000016_Node000007" class="edge">
<title>Node16&#45;&gt;Node7</title>
<g id="a_edge42_Node000016_Node000007"><a xlink:title=" ">
<path fill="none" stroke="#63b8ff" d="M485.6,-554.33C348.76,-537.9 38,-490.37 38,-397.38 38,-397.38 38,-397.38 38,-119.12 38,-80.18 62.82,-71.97 98,-55.25 149.17,-30.94 527.22,-16.86 672.95,-12.28"/>
<polygon fill="#63b8ff" stroke="#63b8ff" points="484.87,-557.77 495.21,-555.46 485.69,-550.82 484.87,-557.77"/>
</a>
</g>
</g>
<!-- Node16&#45;&gt;Node8 -->
<g id="edge35_Node000016_Node000008" class="edge">
<title>Node16&#45;&gt;Node8</title>
<g id="a_edge35_Node000016_Node000008"><a xlink:title=" ">
<path fill="none" stroke="#63b8ff" d="M584.82,-548.04C641.4,-525.95 752.46,-476.65 825,-406 877.11,-355.25 905.5,-268.24 913.57,-240.44"/>
<polygon fill="#63b8ff" stroke="#63b8ff" points="583.75,-544.7 575.67,-551.55 586.26,-551.24 583.75,-544.7"/>
</a>
</g>
</g>
<!-- Node16&#45;&gt;Node9 -->
<g id="edge39_Node000016_Node000009" class="edge">
<title>Node16&#45;&gt;Node9</title>
<g id="a_edge39_Node000016_Node000009"><a xlink:title=" ">
<path fill="none" stroke="#63b8ff" d="M549,-540.78C549,-517.05 549,-478.89 549,-461.63"/>
<polygon fill="#63b8ff" stroke="#63b8ff" points="545.5,-540.73 549,-550.73 552.5,-540.73 545.5,-540.73"/>
</a>
</g>
</g>
<!-- Node16&#45;&gt;Node10 -->
<g id="edge41_Node000016_Node000010" class="edge">
<title>Node16&#45;&gt;Node10</title>
<g id="a_edge41_Node000016_Node000010"><a xlink:title=" ">
<path fill="none" stroke="#63b8ff" d="M485.46,-558.3C434.79,-554 363.12,-543.26 306,-516.5 246.02,-488.4 190.4,-428.92 170.62,-406.33"/>
<polygon fill="#63b8ff" stroke="#63b8ff" points="485.14,-561.78 495.39,-559.07 485.69,-554.8 485.14,-561.78"/>
</a>
</g>
</g>
<!-- Node16&#45;&gt;Node15 -->
<g id="edge40_Node000016_Node000015" class="edge">
<title>Node16&#45;&gt;Node15</title>
<g id="a_edge40_Node000016_Node000015"><a xlink:title=" ">
<path fill="none" stroke="#63b8ff" d="M507.62,-548.82C474.92,-539.09 430.01,-525.73 400.51,-516.95"/>
<polygon fill="#63b8ff" stroke="#63b8ff" points="506.6,-552.16 517.18,-551.66 508.6,-545.45 506.6,-552.16"/>
</a>
</g>
</g>
<!-- Node17 -->
<g id="Node000017" class="node">
<title>Node17</title>
<g id="a_Node000017"><a xlink:href="../../dd/d50/_matcher_8hpp.html" target="_top" xlink:title=" ">
<polygon fill="white" stroke="#666666" points="1024.25,-461.25 913.75,-461.25 913.75,-442 1024.25,-442 1024.25,-461.25"/>
<text text-anchor="middle" x="969" y="-447.75" font-family="Helvetica,sans-Serif" font-size="10.00">mimic++/Matcher.hpp</text>
</a>
</g>
</g>
<!-- Node16&#45;&gt;Node17 -->
<g id="edge36_Node000016_Node000017" class="edge">
<title>Node16&#45;&gt;Node17</title>
<g id="a_edge36_Node000016_Node000017"><a xlink:title=" ">
<path fill="none" stroke="#63b8ff" d="M595.14,-549.21C679.74,-527.35 857.96,-481.31 933.72,-461.74"/>
<polygon fill="#63b8ff" stroke="#63b8ff" points="594.36,-545.79 585.55,-551.68 596.11,-552.57 594.36,-545.79"/>
</a>
</g>
</g>
<!-- Node17&#45;&gt;Node7 -->
<g id="edge38_Node000017_Node000007" class="edge">
<title>Node17&#45;&gt;Node7</title>
<g id="a_edge38_Node000017_Node000007"><a xlink:title=" ">
<path fill="none" stroke="#63b8ff" d="M980.97,-432.63C1003.95,-396.28 1052,-310.82 1052,-231.62 1052,-231.62 1052,-231.62 1052,-119.12 1052,-89.51 1055.38,-74.64 1033,-55.25 997.18,-24.22 864.34,-14.77 786.96,-11.89"/>
<polygon fill="#63b8ff" stroke="#63b8ff" points="978.29,-430.33 975.79,-440.63 984.16,-434.14 978.29,-430.33"/>
</a>
</g>
</g>
<!-- Node17&#45;&gt;Node8 -->
<g id="edge37_Node000017_Node000008" class="edge">
<title>Node17&#45;&gt;Node8</title>
<g id="a_edge37_Node000017_Node000008"><a xlink:title=" ">
<path fill="none" stroke="#63b8ff" d="M970.67,-430.54C972.68,-397.14 973.44,-328.7 952,-276.25 946.2,-262.06 934.35,-248.79 925.83,-240.47"/>
<polygon fill="#63b8ff" stroke="#63b8ff" points="967.19,-430.13 969.97,-440.35 974.18,-430.63 967.19,-430.13"/>
</a>
</g>
</g>
<!-- Node18&#45;&gt;Node2 -->
<g id="edge47_Node000018_Node000002" class="edge">
<title>Node18&#45;&gt;Node2</title>
<g id="a_edge47_Node000018_Node000002"><a xlink:title=" ">
<path fill="none" stroke="#63b8ff" d="M1026.12,-605.13C975.49,-595.29 902.94,-581.19 856.14,-572.09"/>
<polygon fill="#63b8ff" stroke="#63b8ff" points="1025.24,-608.52 1035.72,-606.99 1026.57,-601.65 1025.24,-608.52"/>
</a>
</g>
</g>
<!-- Node18&#45;&gt;Node3 -->
<g id="edge48_Node000018_Node000003" class="edge">
<title>Node18&#45;&gt;Node3</title>
<g id="a_edge48_Node000018_Node000003"><a xlink:title=" ">
<path fill="none" stroke="#63b8ff" d="M1082.35,-596.25C1078.65,-561.78 1067.16,-490.46 1033,-442 980.78,-367.93 881.76,-315.82 839.24,-295.87"/>
<polygon fill="#63b8ff" stroke="#63b8ff" points="1078.85,-596.4 1083.27,-606.03 1085.82,-595.74 1078.85,-596.4"/>
</a>
</g>
</g>
<!-- Node18&#45;&gt;Node7 -->
<g id="edge49_Node000018_Node000007" class="edge">
<title>Node18&#45;&gt;Node7</title>
<g id="a_edge49_Node000018_Node000007"><a xlink:title=" ">
<path fill="none" stroke="#63b8ff" d="M1118.46,-602.68C1153.91,-586.04 1204,-554.33 1204,-507.88 1204,-507.88 1204,-507.88 1204,-395.38 1204,-320.66 1242,-306.34 1242,-231.62 1242,-231.62 1242,-231.62 1242,-119.12 1242,-27.01 920.85,-12.75 787.24,-10.8"/>
<polygon fill="#63b8ff" stroke="#63b8ff" points="1117.08,-599.46 1109.38,-606.74 1119.93,-605.85 1117.08,-599.46"/>
</a>
</g>
</g>
<!-- Node19&#45;&gt;Node2 -->
<g id="edge51_Node000019_Node000002" class="edge">
<title>Node19&#45;&gt;Node2</title>
<g id="a_edge51_Node000019_Node000002"><a xlink:title=" ">
<path fill="none" stroke="#63b8ff" d="M863.71,-600.76C850.46,-591.47 834.11,-580.02 822.96,-572.2"/>
<polygon fill="#63b8ff" stroke="#63b8ff" points="861.67,-603.6 871.87,-606.47 865.69,-597.87 861.67,-603.6"/>
</a>
</g>
</g>
<!-- Node19&#45;&gt;Node7 -->
<g id="edge56_Node000019_Node000007" class="edge">
<title>Node19&#45;&gt;Node7</title>
<g id="a_edge56_Node000019_Node000007"><a xlink:title=" ">
<path fill="none" stroke="#63b8ff" d="M947.64,-608.04C1030.08,-593.04 1166,-553.07 1166,-452.62 1166,-452.62 1166,-452.62 1166,-340.12 1166,-265.41 1204,-251.09 1204,-176.38 1204,-176.38 1204,-176.38 1204,-119.12 1204,-34.49 913.25,-15.87 787.18,-11.78"/>
<polygon fill="#63b8ff" stroke="#63b8ff" points="947.13,-604.58 937.87,-609.74 948.32,-611.48 947.13,-604.58"/>
</a>
</g>
</g>
<!-- Node19&#45;&gt;Node8 -->
<g id="edge53_Node000019_Node000008" class="edge">
<title>Node19&#45;&gt;Node8</title>
<g id="a_edge53_Node000019_Node000008"><a xlink:title=" ">
<path fill="none" stroke="#63b8ff" d="M908.94,-601.09C943.59,-576.46 1007.87,-524.3 1033,-461.25 1056.85,-401.42 1100.68,-460.8 969,-276.25 958.52,-261.56 942.13,-248.77 930.35,-240.69"/>
<polygon fill="#63b8ff" stroke="#63b8ff" points="907.08,-598.12 900.86,-606.7 911.07,-603.87 907.08,-598.12"/>
</a>
</g>
</g>
<!-- Node19&#45;&gt;Node10 -->
<g id="edge55_Node000019_Node000010" class="edge">
<title>Node19&#45;&gt;Node10</title>
<g id="a_edge55_Node000019_Node000010"><a xlink:title=" ">
<path fill="none" stroke="#63b8ff" d="M824.6,-612.11C746.1,-606.05 606.18,-593.25 488,-571.75 389.66,-553.86 359.33,-561.34 270,-516.5 235.2,-499.03 227.63,-490.57 202,-461.25 186.61,-443.64 173.58,-419.22 167.2,-406.27"/>
<polygon fill="#63b8ff" stroke="#63b8ff" points="823.98,-615.57 834.22,-612.84 824.51,-608.59 823.98,-615.57"/>
</a>
</g>
</g>
<!-- Node19&#45;&gt;Node11 -->
<g id="edge52_Node000019_Node000011" class="edge">
<title>Node19&#45;&gt;Node11</title>
<g id="a_edge52_Node000019_Node000011"><a xlink:title=" ">
<path fill="none" stroke="#63b8ff" d="M885.56,-596.26C883.39,-550.76 871.2,-439.79 805,-386.75 762.87,-352.99 612.25,-344.59 523.57,-342.61"/>
<polygon fill="#63b8ff" stroke="#63b8ff" points="882.05,-596.09 885.9,-605.97 889.05,-595.85 882.05,-596.09"/>
</a>
</g>
</g>
<!-- Node19&#45;&gt;Node17 -->
<g id="edge54_Node000019_Node000017" class="edge">
<title>Node19&#45;&gt;Node17</title>
<g id="a_edge54_Node000019_Node000017"><a xlink:title=" ">
<path fill="none" stroke="#63b8ff" d="M895.51,-597.62C913.41,-562.3 951.48,-487.18 964.52,-461.47"/>
<polygon fill="#63b8ff" stroke="#63b8ff" points="892.55,-595.72 891.15,-606.22 898.79,-598.88 892.55,-595.72"/>
</a>
</g>
</g>
</g>
</svg>

<g id="navigator" transform="translate(0 0)" fill="#404254">
  <rect fill="#f2f5e9" fill-opacity="0.5" stroke="#606060" stroke-width=".5" x="0" y="0" width="60" height="60"/>
  <use id="zoomplus" xlink:href="#zoomPlus" x="17" y="9" onmousedown="handleZoom(evt,'in')"/>
  <use id="zoomminus" xlink:href="#zoomMin" x="42" y="9" onmousedown="handleZoom(evt,'out')"/>
  <use id="reset" xlink:href="#resetDef" x="30" y="36" onmousedown="handleReset()"/>
   <use id="arrowup" xlink:href="#arrowUp" x="0" y="0" onmousedown="handlePan(0,-1)"/>
  <use id="arrowright" xlink:href="#arrowRight" x="0" y="0" onmousedown="handlePan(1,0)"/>
  <use id="arrowdown" xlink:href="#arrowDown" x="0" y="0" onmousedown="handlePan(0,1)"/>
  <use id="arrowleft" xlink:href="#arrowLeft" x="0" y="0" onmousedown="handlePan(-1,0)"/>
</g>
<svg viewBox="0 0 15 15" width="100%" height="30px" preserveAspectRatio="xMaxYMin meet">
 <g id="arrow_out" transform="scale(0.3 0.3)">
  <a xlink:href="_fwd_8hpp__dep__incl_org.svg" target="_base">
   <rect id="button" ry="5" rx="5" y="6" x="6" height="38" width="38"
        fill="#f2f5e9" fill-opacity="0.5" stroke="#606060" stroke-width="1.0"/>
   <path id="arrow"
     d="M 11.500037,31.436501 C 11.940474,20.09759 22.043105,11.32322 32.158766,21.979434 L 37.068811,17.246167 C 37.068811,17.246167 37.088388,32 37.088388,32 L 22.160133,31.978069 C 22.160133,31.978069 26.997745,27.140456 26.997745,27.140456 C 18.528582,18.264221 13.291696,25.230495 11.500037,31.436501 z"
     style="fill:#404040;"/>
  </a>
 </g>
</svg>

<style type='text/css'>
<![CDATA[
[data-mouse-over-selected='false'] { opacity: 0.7; }
[data-mouse-over-selected='true']  { opacity: 1.0; }
]]>
</style>
<script type="application/ecmascript"><![CDATA[
document.addEventListener('DOMContentLoaded', (event) => {
  highlightEdges();
  highlightAdjacentNodes();
});
]]></script>
</svg>
