<?xml version="1.0" encoding="UTF-8" standalone="no"?>
<!DOCTYPE svg PUBLIC "-//W3C//DTD SVG 1.1//EN"
 "http://www.w3.org/Graphics/SVG/1.1/DTD/svg11.dtd">
<!-- Generated by graphviz version 12.1.2 (20240928.0832)
 -->
<!-- Title: mimicpp::Watched&lt; Base, Watchers &gt; Pages: 1 -->
<svg width="156pt" height="160pt"
 viewBox="0.00 0.00 156.00 160.25" xmlns="http://www.w3.org/2000/svg" xmlns:xlink="http://www.w3.org/1999/xlink">

<svg id="main" version="1.1" xmlns="http://www.w3.org/2000/svg" xmlns:xlink="http://www.w3.org/1999/xlink" xml:space="preserve">

<style type="text/css"><![CDATA[
.node, .edge {opacity: 0.7;}
.node.selected, .edge.selected {opacity: 1;}
.edge:hover path { stroke: red; }
.edge:hover polygon { stroke: red; fill: red; }
]]></style>
<script type="application/ecmascript" xlink:href="../../svg.min.js"/>
<svg id="graph" class="graph">
<g id="graph0" class="graph" transform="scale(1 1) rotate(0) translate(4 156.25)">
<title>mimicpp::Watched&lt; Base, Watchers &gt;</title>
<!-- Node1 -->
<g id="Node000001" class="node">
<title>Node1</title>
<g id="a_Node000001"><a xlink:title="CRTP&#45;type, inheriting first from Base and then all Watchers, thus effectively couple them all togethe...">
<polygon fill="#999999" stroke="#666666" points="138.62,-30.5 9.38,-30.5 9.38,0 138.62,0 138.62,-30.5"/>
<text text-anchor="start" x="17.38" y="-17" font-family="Helvetica,sans-Serif" font-size="10.00">mimicpp::Watched&lt; Base,</text>
<text text-anchor="middle" x="74" y="-5.75" font-family="Helvetica,sans-Serif" font-size="10.00"> Watchers &gt;</text>
</a>
</g>
</g>
<!-- Node2 -->
<g id="Node000002" class="node">
<title>Node2</title>
<g id="a_Node000002"><a xlink:title=" ">
<polygon fill="white" stroke="#666666" points="148,-97 0,-97 0,-66.5 148,-66.5 148,-97"/>
<text text-anchor="start" x="8" y="-83.5" font-family="Helvetica,sans-Serif" font-size="10.00">mimicpp::detail::BasicWatched</text>
<text text-anchor="middle" x="74" y="-72.25" font-family="Helvetica,sans-Serif" font-size="10.00">&lt; Base, Watchers... &gt;</text>
</a>
</g>
</g>
<!-- Node2&#45;&gt;Node1 -->
<g id="edge1_Node000001_Node000002" class="edge">
<title>Node2&#45;&gt;Node1</title>
<g id="a_edge1_Node000001_Node000002"><a xlink:title=" ">
<path fill="none" stroke="#63b8ff" d="M74,-54.81C74,-46.64 74,-37.91 74,-30.83"/>
<polygon fill="#63b8ff" stroke="#63b8ff" points="70.5,-54.6 74,-64.6 77.5,-54.6 70.5,-54.6"/>
</a>
</g>
</g>
<!-- Node3 -->
<g id="Node000003" class="node">
<title>Node3</title>
<g id="a_Node000003"><a xlink:title=" ">
<polygon fill="white" stroke="#666666" points="59.25,-152.25 20.75,-152.25 20.75,-133 59.25,-133 59.25,-152.25"/>
<text text-anchor="middle" x="40" y="-138.75" font-family="Helvetica,sans-Serif" font-size="10.00">Base</text>
</a>
</g>
</g>
<!-- Node3&#45;&gt;Node2 -->
<g id="edge2_Node000002_Node000003" class="edge">
<title>Node3&#45;&gt;Node2</title>
<g id="a_edge2_Node000002_Node000003"><a xlink:title=" ">
<path fill="none" stroke="#63b8ff" d="M50.86,-122.82C55.63,-114.55 61.16,-104.99 65.61,-97.28"/>
<polygon fill="#63b8ff" stroke="#63b8ff" points="47.89,-120.96 45.92,-131.37 53.95,-124.46 47.89,-120.96"/>
</a>
</g>
</g>
<!-- Node4 -->
<g id="Node000004" class="node">
<title>Node4</title>
<g id="a_Node000004"><a xlink:title=" ">
<polygon fill="white" stroke="#666666" points="141,-152.25 77,-152.25 77,-133 141,-133 141,-152.25"/>
<text text-anchor="middle" x="109" y="-138.75" font-family="Helvetica,sans-Serif" font-size="10.00">Watchers...</text>
</a>
</g>
</g>
<!-- Node4&#45;&gt;Node2 -->
<g id="edge3_Node000002_Node000004" class="edge">
<title>Node4&#45;&gt;Node2</title>
<g id="a_edge3_Node000002_Node000004"><a xlink:title=" ">
<path fill="none" stroke="#63b8ff" d="M97.82,-122.82C92.91,-114.55 87.22,-104.99 82.64,-97.28"/>
<polygon fill="#63b8ff" stroke="#63b8ff" points="94.79,-124.57 102.91,-131.38 100.81,-121 94.79,-124.57"/>
</a>
</g>
</g>
</g>
</svg>
</svg>

<style type='text/css'>
<![CDATA[
[data-mouse-over-selected='false'] { opacity: 0.7; }
[data-mouse-over-selected='true']  { opacity: 1.0; }
]]>
</style>
<script type="application/ecmascript"><![CDATA[
document.addEventListener('DOMContentLoaded', (event) => {
  highlightEdges();
  highlightAdjacentNodes();
});
]]></script>
</svg>
