<?xml version="1.0" encoding="UTF-8" standalone="no"?>
<!DOCTYPE svg PUBLIC "-//W3C//DTD SVG 1.1//EN"
 "http://www.w3.org/Graphics/SVG/1.1/DTD/svg11.dtd">
<!-- Generated by graphviz version 12.1.2 (20240928.0832)
 -->
<!-- Title: mimic++/adapters/Catch2.hpp Pages: 1 -->
<!--zoomable 359 -->

<svg id="main" version="1.1" xmlns="http://www.w3.org/2000/svg" xmlns:xlink="http://www.w3.org/1999/xlink" xml:space="preserve" onload="init(evt)">

<style type="text/css"><![CDATA[
.node, .edge {opacity: 0.7;}
.node.selected, .edge.selected {opacity: 1;}
.edge:hover path { stroke: red; }
.edge:hover polygon { stroke: red; fill: red; }
]]></style>

<defs>
  <circle id="rim" cx="0" cy="0" r="7"/>
  <circle id="rim2" cx="0" cy="0" r="3.5"/>
  <g id="zoomPlus">
    <use xlink:href="#rim" fill="#404040"><set attributeName="fill" to="#808080" begin="zoomplus.mouseover" end="zoomplus.mouseout"/></use>
    <path d="M-4,0h8M0,-4v8" fill="none" stroke="white" stroke-width="1.5" pointer-events="none"/>
  </g>
  <g id="zoomMin">
    <use xlink:href="#rim" fill="#404040"><set attributeName="fill" to="#808080" begin="zoomminus.mouseover" end="zoomminus.mouseout"/></use>
    <path d="M-4,0h8" fill="none" stroke="white" stroke-width="1.5" pointer-events="none"/>
  </g>
  <g id="arrowUp" transform="translate(30 24)">
    <use xlink:href="#rim"/>
    <path pointer-events="none" fill="none" stroke="white" stroke-width="1.5" d="M0,-3.0v7 M-2.5,-0.5L0,-3.0L2.5,-0.5"/>
  </g>
  <g id="arrowRight" transform="rotate(90) translate(36 -43)">
    <use xlink:href="#rim"/>
    <path pointer-events="none" fill="none" stroke="white" stroke-width="1.5" d="M0,-3.0v7 M-2.5,-0.5L0,-3.0L2.5,-0.5"/>
  </g>
  <g id="arrowDown" transform="rotate(180) translate(-30 -48)">
    <use xlink:href="#rim"/>
    <path pointer-events="none" fill="none" stroke="white" stroke-width="1.5" d="M0,-3.0v7 M-2.5,-0.5L0,-3.0L2.5,-0.5"/>
  </g>
  <g id="arrowLeft" transform="rotate(270) translate(-36 17)">
    <use xlink:href="#rim"/>
    <path pointer-events="none" fill="none" stroke="white" stroke-width="1.5" d="M0,-3.0v7 M-2.5,-0.5L0,-3.0L2.5,-0.5"/>
  </g>
  <g id="resetDef">
    <use xlink:href="#rim2" fill="#404040"><set attributeName="fill" to="#808080" begin="reset.mouseover" end="reset.mouseout"/></use>
  </g>
</defs>
<script type="application/ecmascript">
var viewWidth = 1187;
var viewHeight = 359;
var sectionId = 'dynsection-0';
</script>
<script type="application/ecmascript" xlink:href="../../svg.min.js"/>
<svg id="graph" class="graph">
<g id="viewport">
<title>mimic++/adapters/Catch2.hpp</title>
<!-- Node1 -->
<g id="Node000001" class="node">
<title>Node1</title>
<g id="a_Node000001"><a xlink:title=" ">
<polygon fill="#999999" stroke="#666666" points="691.38,-350.75 544.88,-350.75 544.88,-331.5 691.38,-331.5 691.38,-350.75"/>
<text text-anchor="middle" x="618.12" y="-337.25" font-family="Helvetica,sans-Serif" font-size="10.00">mimic++/adapters/Catch2.hpp</text>
</a>
</g>
</g>
<!-- Node2 -->
<g id="Node000002" class="node">
<title>Node2</title>
<g id="a_Node000002"><a xlink:href="../../da/dd9/_reporter_8hpp.html" target="_top" xlink:title=" ">
<polygon fill="white" stroke="#666666" points="942.12,-295.5 830.12,-295.5 830.12,-276.25 942.12,-276.25 942.12,-295.5"/>
<text text-anchor="middle" x="886.12" y="-282" font-family="Helvetica,sans-Serif" font-size="10.00">mimic++/Reporter.hpp</text>
</a>
</g>
</g>
<!-- Node1&#45;&gt;Node2 -->
<g id="edge1_Node000001_Node000002" class="edge">
<title>Node1&#45;&gt;Node2</title>
<g id="a_edge1_Node000001_Node000002"><a xlink:title=" ">
<path fill="none" stroke="#63b8ff" d="M663.89,-331.03C709.66,-321.94 780.15,-307.93 829.44,-298.14"/>
<polygon fill="#63b8ff" stroke="#63b8ff" points="829.94,-301.61 839.06,-296.23 828.57,-294.74 829.94,-301.61"/>
</a>
</g>
</g>
<!-- Node15 -->
<g id="Node000015" class="node">
<title>Node15</title>
<g id="a_Node000015"><a xlink:title=" ">
<polygon fill="#e0e0e0" stroke="#999999" points="925.12,-129.75 879.12,-129.75 879.12,-110.5 925.12,-110.5 925.12,-129.75"/>
<text text-anchor="middle" x="902.12" y="-116.25" font-family="Helvetica,sans-Serif" font-size="10.00">iterator</text>
</a>
</g>
</g>
<!-- Node1&#45;&gt;Node15 -->
<g id="edge49_Node000001_Node000015" class="edge">
<title>Node1&#45;&gt;Node15</title>
<g id="a_edge49_Node000001_Node000015"><a xlink:title=" ">
<path fill="none" stroke="#63b8ff" d="M618.5,-331.22C620.22,-302.35 629.77,-210.71 682.12,-165.75 689.16,-159.71 807.32,-137.99 867.49,-127.24"/>
<polygon fill="#63b8ff" stroke="#63b8ff" points="867.98,-130.71 877.22,-125.51 866.76,-123.81 867.98,-130.71"/>
</a>
</g>
</g>
<!-- Node3 -->
<g id="Node000003" class="node">
<title>Node3</title>
<g id="a_Node000003"><a xlink:href="../../dc/d44/_call_8hpp.html" target="_top" xlink:title=" ">
<polygon fill="white" stroke="#666666" points="377,-185 285.25,-185 285.25,-165.75 377,-165.75 377,-185"/>
<text text-anchor="middle" x="331.12" y="-171.5" font-family="Helvetica,sans-Serif" font-size="10.00">mimic++/Call.hpp</text>
</a>
</g>
</g>
<!-- Node2&#45;&gt;Node3 -->
<g id="edge2_Node000002_Node000003" class="edge">
<title>Node2&#45;&gt;Node3</title>
<g id="a_edge2_Node000002_Node000003"><a xlink:title=" ">
<path fill="none" stroke="#63b8ff" d="M829.65,-281.79C728.49,-275.82 520.48,-261.38 451.12,-240.25 414.74,-229.17 376.61,-206.73 353.35,-191.62"/>
<polygon fill="#63b8ff" stroke="#63b8ff" points="355.59,-188.9 345.32,-186.29 351.72,-194.73 355.59,-188.9"/>
</a>
</g>
</g>
<!-- Node4 -->
<g id="Node000004" class="node">
<title>Node4</title>
<g id="a_Node000004"><a xlink:href="../../df/dde/_fwd_8hpp.html" target="_top" xlink:title=" ">
<polygon fill="white" stroke="#666666" points="570.12,-74.5 476.12,-74.5 476.12,-55.25 570.12,-55.25 570.12,-74.5"/>
<text text-anchor="middle" x="523.12" y="-61" font-family="Helvetica,sans-Serif" font-size="10.00">mimic++/Fwd.hpp</text>
</a>
</g>
</g>
<!-- Node2&#45;&gt;Node4 -->
<g id="edge17_Node000002_Node000004" class="edge">
<title>Node2&#45;&gt;Node4</title>
<g id="a_edge17_Node000002_Node000004"><a xlink:title=" ">
<path fill="none" stroke="#63b8ff" d="M942.54,-284.07C1015.17,-281.71 1135.37,-272.84 1163.12,-240.25 1184.6,-215.04 1183.36,-191.96 1163.12,-165.75 1092.8,-74.63 725.72,-65.38 581.44,-65.32"/>
<polygon fill="#63b8ff" stroke="#63b8ff" points="581.73,-61.82 571.73,-65.34 581.74,-68.82 581.73,-61.82"/>
</a>
</g>
</g>
<!-- Node9 -->
<g id="Node000009" class="node">
<title>Node9</title>
<g id="a_Node000009"><a xlink:title=" ">
<polygon fill="#e0e0e0" stroke="#999999" points="48.25,-74.5 0,-74.5 0,-55.25 48.25,-55.25 48.25,-74.5"/>
<text text-anchor="middle" x="24.12" y="-61" font-family="Helvetica,sans-Serif" font-size="10.00">cassert</text>
</a>
</g>
</g>
<!-- Node2&#45;&gt;Node9 -->
<g id="edge42_Node000002_Node000009" class="edge">
<title>Node2&#45;&gt;Node9</title>
<g id="a_edge42_Node000002_Node000009"><a xlink:title=" ">
<path fill="none" stroke="#63b8ff" d="M829.7,-283.94C738.89,-281.48 555.1,-272.56 403.12,-240.25 253.48,-208.44 203.17,-216.45 77.12,-129.75 59.55,-117.66 44.57,-98.19 35.07,-83.92"/>
<polygon fill="#63b8ff" stroke="#63b8ff" points="38.29,-82.46 29.97,-75.9 32.39,-86.22 38.29,-82.46"/>
</a>
</g>
</g>
<!-- Node13 -->
<g id="Node000013" class="node">
<title>Node13</title>
<g id="a_Node000013"><a xlink:href="../../da/dab/_printer_8hpp.html" target="_top" xlink:title=" ">
<polygon fill="white" stroke="#666666" points="635,-185 531.25,-185 531.25,-165.75 635,-165.75 635,-185"/>
<text text-anchor="middle" x="583.12" y="-171.5" font-family="Helvetica,sans-Serif" font-size="10.00">mimic++/Printer.hpp</text>
</a>
</g>
</g>
<!-- Node2&#45;&gt;Node13 -->
<g id="edge18_Node000002_Node000013" class="edge">
<title>Node2&#45;&gt;Node13</title>
<g id="a_edge18_Node000002_Node000013"><a xlink:title=" ">
<path fill="none" stroke="#63b8ff" d="M853.38,-275.78C823.61,-267.29 778.59,-253.92 740.12,-240.25 695.73,-224.47 645.45,-203.44 614.01,-189.9"/>
<polygon fill="#63b8ff" stroke="#63b8ff" points="615.68,-186.81 605.11,-186.05 612.9,-193.23 615.68,-186.81"/>
</a>
</g>
</g>
<!-- Node14 -->
<g id="Node000014" class="node">
<title>Node14</title>
<g id="a_Node000014"><a xlink:title=" ">
<polygon fill="#e0e0e0" stroke="#999999" points="494.12,-129.75 436.12,-129.75 436.12,-110.5 494.12,-110.5 494.12,-129.75"/>
<text text-anchor="middle" x="465.12" y="-116.25" font-family="Helvetica,sans-Serif" font-size="10.00">functional</text>
</a>
</g>
</g>
<!-- Node2&#45;&gt;Node14 -->
<g id="edge44_Node000002_Node000014" class="edge">
<title>Node2&#45;&gt;Node14</title>
<g id="a_edge44_Node000002_Node000014"><a xlink:title=" ">
<path fill="none" stroke="#63b8ff" d="M829.7,-285.54C746.52,-283.53 590.44,-267.96 494.12,-185 480.99,-173.69 473.5,-155.21 469.43,-141.04"/>
<polygon fill="#63b8ff" stroke="#63b8ff" points="472.86,-140.3 467.05,-131.44 466.06,-141.99 472.86,-140.3"/>
</a>
</g>
</g>
<!-- Node19 -->
<g id="Node000019" class="node">
<title>Node19</title>
<g id="a_Node000019"><a xlink:href="../../d0/d3b/_reports_8hpp.html" target="_top" xlink:title=" ">
<polygon fill="white" stroke="#666666" points="857.62,-240.25 748.62,-240.25 748.62,-221 857.62,-221 857.62,-240.25"/>
<text text-anchor="middle" x="803.12" y="-226.75" font-family="Helvetica,sans-Serif" font-size="10.00">mimic++/Reports.hpp</text>
</a>
</g>
</g>
<!-- Node2&#45;&gt;Node19 -->
<g id="edge29_Node000002_Node000019" class="edge">
<title>Node2&#45;&gt;Node19</title>
<g id="a_edge29_Node000002_Node000019"><a xlink:title=" ">
<path fill="none" stroke="#63b8ff" d="M872.05,-275.84C859.64,-267.89 841.33,-256.14 826.7,-246.75"/>
<polygon fill="#63b8ff" stroke="#63b8ff" points="828.85,-243.97 818.55,-241.52 825.07,-249.87 828.85,-243.97"/>
</a>
</g>
</g>
<!-- Node20 -->
<g id="Node000020" class="node">
<title>Node20</title>
<g id="a_Node000020"><a xlink:title=" ">
<polygon fill="#e0e0e0" stroke="#999999" points="961,-185 905.25,-185 905.25,-165.75 961,-165.75 961,-185"/>
<text text-anchor="middle" x="933.12" y="-171.5" font-family="Helvetica,sans-Serif" font-size="10.00">algorithm</text>
</a>
</g>
</g>
<!-- Node2&#45;&gt;Node20 -->
<g id="edge41_Node000002_Node000020" class="edge">
<title>Node2&#45;&gt;Node20</title>
<g id="a_edge41_Node000002_Node000020"><a xlink:title=" ">
<path fill="none" stroke="#63b8ff" d="M889.07,-276.07C893.31,-263.63 901.57,-240.27 910.12,-221 913.92,-212.44 918.58,-203.21 922.71,-195.38"/>
<polygon fill="#63b8ff" stroke="#63b8ff" points="925.68,-197.25 927.33,-186.79 919.51,-193.93 925.68,-197.25"/>
</a>
</g>
</g>
<!-- Node21 -->
<g id="Node000021" class="node">
<title>Node21</title>
<g id="a_Node000021"><a xlink:title=" ">
<polygon fill="#e0e0e0" stroke="#999999" points="1029,-185 979.25,-185 979.25,-165.75 1029,-165.75 1029,-185"/>
<text text-anchor="middle" x="1004.12" y="-171.5" font-family="Helvetica,sans-Serif" font-size="10.00">optional</text>
</a>
</g>
</g>
<!-- Node2&#45;&gt;Node21 -->
<g id="edge46_Node000002_Node000021" class="edge">
<title>Node2&#45;&gt;Node21</title>
<g id="a_edge46_Node000002_Node000021"><a xlink:title=" ">
<path fill="none" stroke="#63b8ff" d="M894.21,-275.85C905.73,-263.14 927.75,-239.48 948.12,-221 959.27,-210.9 972.38,-200.38 983.12,-192.09"/>
<polygon fill="#63b8ff" stroke="#63b8ff" points="985.15,-194.95 990.98,-186.1 980.91,-189.38 985.15,-194.95"/>
</a>
</g>
</g>
<!-- Node22 -->
<g id="Node000022" class="node">
<title>Node22</title>
<g id="a_Node000022"><a xlink:title=" ">
<polygon fill="#e0e0e0" stroke="#999999" points="1092.75,-185 1047.5,-185 1047.5,-165.75 1092.75,-165.75 1092.75,-185"/>
<text text-anchor="middle" x="1070.12" y="-171.5" font-family="Helvetica,sans-Serif" font-size="10.00">ranges</text>
</a>
</g>
</g>
<!-- Node2&#45;&gt;Node22 -->
<g id="edge47_Node000002_Node000022" class="edge">
<title>Node2&#45;&gt;Node22</title>
<g id="a_edge47_Node000002_Node000022"><a xlink:title=" ">
<path fill="none" stroke="#63b8ff" d="M899.5,-275.85C918.48,-263.15 954.46,-239.49 986.12,-221 1004.49,-210.28 1025.64,-199.05 1042.12,-190.54"/>
<polygon fill="#63b8ff" stroke="#63b8ff" points="1043.55,-193.74 1050.85,-186.06 1040.36,-187.51 1043.55,-193.74"/>
</a>
</g>
</g>
<!-- Node25 -->
<g id="Node000025" class="node">
<title>Node25</title>
<g id="a_Node000025"><a xlink:title=" ">
<polygon fill="#e0e0e0" stroke="#999999" points="1153.62,-185 1110.62,-185 1110.62,-165.75 1153.62,-165.75 1153.62,-185"/>
<text text-anchor="middle" x="1132.12" y="-171.5" font-family="Helvetica,sans-Serif" font-size="10.00">vector</text>
</a>
</g>
</g>
<!-- Node2&#45;&gt;Node25 -->
<g id="edge48_Node000002_Node000025" class="edge">
<title>Node2&#45;&gt;Node25</title>
<g id="a_edge48_Node000002_Node000025"><a xlink:title=" ">
<path fill="none" stroke="#63b8ff" d="M907.63,-275.86C927.87,-267.21 958.89,-253.55 985.12,-240.25 1000.61,-232.4 1003.46,-228.49 1019.12,-221 1045.66,-208.32 1076.82,-196.22 1099.69,-187.82"/>
<polygon fill="#63b8ff" stroke="#63b8ff" points="1100.87,-191.11 1109.08,-184.41 1098.49,-184.53 1100.87,-191.11"/>
</a>
</g>
</g>
<!-- Node26 -->
<g id="Node000026" class="node">
<title>Node26</title>
<g id="a_Node000026"><a xlink:title=" ">
<polygon fill="#e0e0e0" stroke="#999999" points="1085.75,-240.25 1028.5,-240.25 1028.5,-221 1085.75,-221 1085.75,-240.25"/>
<text text-anchor="middle" x="1057.12" y="-226.75" font-family="Helvetica,sans-Serif" font-size="10.00">exception</text>
</a>
</g>
</g>
<!-- Node2&#45;&gt;Node26 -->
<g id="edge43_Node000002_Node000026" class="edge">
<title>Node2&#45;&gt;Node26</title>
<g id="a_edge43_Node000002_Node000026"><a xlink:title=" ">
<path fill="none" stroke="#63b8ff" d="M915.13,-275.84C943.22,-267.09 986.04,-253.76 1017.31,-244.02"/>
<polygon fill="#63b8ff" stroke="#63b8ff" points="1018.31,-247.38 1026.82,-241.06 1016.23,-240.69 1018.31,-247.38"/>
</a>
</g>
</g>
<!-- Node27 -->
<g id="Node000027" class="node">
<title>Node27</title>
<g id="a_Node000027"><a xlink:title=" ">
<polygon fill="#e0e0e0" stroke="#999999" points="1154.38,-240.25 1103.88,-240.25 1103.88,-221 1154.38,-221 1154.38,-240.25"/>
<text text-anchor="middle" x="1129.12" y="-226.75" font-family="Helvetica,sans-Serif" font-size="10.00">memory</text>
</a>
</g>
</g>
<!-- Node2&#45;&gt;Node27 -->
<g id="edge45_Node000002_Node000027" class="edge">
<title>Node2&#45;&gt;Node27</title>
<g id="a_edge45_Node000002_Node000027"><a xlink:title=" ">
<path fill="none" stroke="#63b8ff" d="M931.08,-275.79C971.08,-267.6 1031.44,-254.95 1092.52,-240.79"/>
<polygon fill="#63b8ff" stroke="#63b8ff" points="1093.11,-244.25 1102.06,-238.57 1091.52,-237.43 1093.11,-244.25"/>
</a>
</g>
</g>
<!-- Node3&#45;&gt;Node4 -->
<g id="edge3_Node000003_Node000004" class="edge">
<title>Node3&#45;&gt;Node4</title>
<g id="a_edge3_Node000003_Node000004"><a xlink:title=" ">
<path fill="none" stroke="#63b8ff" d="M343.47,-165.27C361.39,-152.27 395.87,-128.03 427.12,-110.5 447.76,-98.93 471.92,-87.71 490.84,-79.41"/>
<polygon fill="#63b8ff" stroke="#63b8ff" points="492.13,-82.67 499.92,-75.49 489.35,-76.25 492.13,-82.67"/>
</a>
</g>
</g>
<!-- Node6 -->
<g id="Node000006" class="node">
<title>Node6</title>
<g id="a_Node000006"><a xlink:href="../../d8/d32/_type_traits_8hpp.html" target="_top" xlink:title=" ">
<polygon fill="white" stroke="#666666" points="223.62,-129.75 102.62,-129.75 102.62,-110.5 223.62,-110.5 223.62,-129.75"/>
<text text-anchor="middle" x="163.12" y="-116.25" font-family="Helvetica,sans-Serif" font-size="10.00">mimic++/TypeTraits.hpp</text>
</a>
</g>
</g>
<!-- Node3&#45;&gt;Node6 -->
<g id="edge5_Node000003_Node000006" class="edge">
<title>Node3&#45;&gt;Node6</title>
<g id="a_edge5_Node000003_Node000006"><a xlink:title=" ">
<path fill="none" stroke="#63b8ff" d="M302.63,-165.34C275.11,-156.62 233.22,-143.34 202.52,-133.61"/>
<polygon fill="#63b8ff" stroke="#63b8ff" points="203.8,-130.34 193.21,-130.66 201.68,-137.02 203.8,-130.34"/>
</a>
</g>
</g>
<!-- Node7 -->
<g id="Node000007" class="node">
<title>Node7</title>
<g id="a_Node000007"><a xlink:title=" ">
<polygon fill="#e0e0e0" stroke="#999999" points="155.62,-74.5 118.62,-74.5 118.62,-55.25 155.62,-55.25 155.62,-74.5"/>
<text text-anchor="middle" x="137.12" y="-61" font-family="Helvetica,sans-Serif" font-size="10.00">tuple</text>
</a>
</g>
</g>
<!-- Node3&#45;&gt;Node7 -->
<g id="edge15_Node000003_Node000007" class="edge">
<title>Node3&#45;&gt;Node7</title>
<g id="a_edge15_Node000003_Node000007"><a xlink:title=" ">
<path fill="none" stroke="#63b8ff" d="M284.96,-172.77C221.13,-169.47 110.95,-159.5 86.12,-129.75 72.42,-113.33 92.54,-94.1 111.39,-81.06"/>
<polygon fill="#63b8ff" stroke="#63b8ff" points="113.2,-84.06 119.69,-75.68 109.39,-78.19 113.2,-84.06"/>
</a>
</g>
</g>
<!-- Node8 -->
<g id="Node000008" class="node">
<title>Node8</title>
<g id="a_Node000008"><a xlink:href="../../d4/d2c/_utility_8hpp.html" target="_top" xlink:title=" ">
<polygon fill="white" stroke="#666666" points="342.12,-129.75 242.12,-129.75 242.12,-110.5 342.12,-110.5 342.12,-129.75"/>
<text text-anchor="middle" x="292.12" y="-116.25" font-family="Helvetica,sans-Serif" font-size="10.00">mimic++/Utility.hpp</text>
</a>
</g>
</g>
<!-- Node3&#45;&gt;Node8 -->
<g id="edge8_Node000003_Node000008" class="edge">
<title>Node3&#45;&gt;Node8</title>
<g id="a_edge8_Node000003_Node000008"><a xlink:title=" ">
<path fill="none" stroke="#63b8ff" d="M324.68,-165.58C319.47,-158.46 311.94,-148.18 305.43,-139.3"/>
<polygon fill="#63b8ff" stroke="#63b8ff" points="308.33,-137.33 299.6,-131.33 302.68,-141.47 308.33,-137.33"/>
</a>
</g>
</g>
<!-- Node11 -->
<g id="Node000011" class="node">
<title>Node11</title>
<g id="a_Node000011"><a xlink:title=" ">
<polygon fill="#e0e0e0" stroke="#999999" points="418.25,-74.5 334,-74.5 334,-55.25 418.25,-55.25 418.25,-74.5"/>
<text text-anchor="middle" x="376.12" y="-61" font-family="Helvetica,sans-Serif" font-size="10.00">source_location</text>
</a>
</g>
</g>
<!-- Node3&#45;&gt;Node11 -->
<g id="edge14_Node000003_Node000011" class="edge">
<title>Node3&#45;&gt;Node11</title>
<g id="a_edge14_Node000003_Node000011"><a xlink:title=" ">
<path fill="none" stroke="#63b8ff" d="M335.24,-165.54C339.37,-156.58 345.87,-142.28 351.12,-129.75 357.34,-114.94 363.95,-98 368.81,-85.29"/>
<polygon fill="#63b8ff" stroke="#63b8ff" points="372.05,-86.61 372.32,-76.02 365.5,-84.13 372.05,-86.61"/>
</a>
</g>
</g>
<!-- Node12 -->
<g id="Node000012" class="node">
<title>Node12</title>
<g id="a_Node000012"><a xlink:title=" ">
<polygon fill="#e0e0e0" stroke="#999999" points="250.38,-74.5 211.88,-74.5 211.88,-55.25 250.38,-55.25 250.38,-74.5"/>
<text text-anchor="middle" x="231.12" y="-61" font-family="Helvetica,sans-Serif" font-size="10.00">utility</text>
</a>
</g>
</g>
<!-- Node3&#45;&gt;Node12 -->
<g id="edge16_Node000003_Node000012" class="edge">
<title>Node3&#45;&gt;Node12</title>
<g id="a_edge16_Node000003_Node000012"><a xlink:title=" ">
<path fill="none" stroke="#63b8ff" d="M284.89,-172.44C222.9,-168.77 117.88,-158.39 94.12,-129.75 88.66,-123.16 89.1,-117.42 94.12,-110.5 106.76,-93.1 164.19,-78.95 200.57,-71.53"/>
<polygon fill="#63b8ff" stroke="#63b8ff" points="200.94,-75.02 210.07,-69.65 199.58,-68.15 200.94,-75.02"/>
</a>
</g>
</g>
<!-- Node5 -->
<g id="Node000005" class="node">
<title>Node5</title>
<g id="a_Node000005"><a xlink:title=" ">
<polygon fill="#e0e0e0" stroke="#999999" points="580.12,-19.25 540.12,-19.25 540.12,0 580.12,0 580.12,-19.25"/>
<text text-anchor="middle" x="560.12" y="-5.75" font-family="Helvetica,sans-Serif" font-size="10.00">string</text>
</a>
</g>
</g>
<!-- Node4&#45;&gt;Node5 -->
<g id="edge4_Node000004_Node000005" class="edge">
<title>Node4&#45;&gt;Node5</title>
<g id="a_edge4_Node000004_Node000005"><a xlink:title=" ">
<path fill="none" stroke="#63b8ff" d="M529.23,-55.08C534.19,-47.96 541.33,-37.68 547.5,-28.8"/>
<polygon fill="#63b8ff" stroke="#63b8ff" points="550.19,-31.06 553.02,-20.85 544.44,-27.07 550.19,-31.06"/>
</a>
</g>
</g>
<!-- Node6&#45;&gt;Node4 -->
<g id="edge6_Node000006_Node000004" class="edge">
<title>Node6&#45;&gt;Node4</title>
<g id="a_edge6_Node000006_Node000004"><a xlink:title=" ">
<path fill="none" stroke="#63b8ff" d="M223.79,-110.15C290.94,-100.22 398.42,-84.32 464.67,-74.52"/>
<polygon fill="#63b8ff" stroke="#63b8ff" points="464.86,-78.03 474.24,-73.11 463.84,-71.11 464.86,-78.03"/>
</a>
</g>
</g>
<!-- Node6&#45;&gt;Node7 -->
<g id="edge7_Node000006_Node000007" class="edge">
<title>Node6&#45;&gt;Node7</title>
<g id="a_edge7_Node000006_Node000007"><a xlink:title=" ">
<path fill="none" stroke="#63b8ff" d="M158.83,-110.33C155.5,-103.51 150.76,-93.81 146.56,-85.2"/>
<polygon fill="#63b8ff" stroke="#63b8ff" points="149.71,-83.67 142.18,-76.22 143.42,-86.74 149.71,-83.67"/>
</a>
</g>
</g>
<!-- Node8&#45;&gt;Node4 -->
<g id="edge9_Node000008_Node000004" class="edge">
<title>Node8&#45;&gt;Node4</title>
<g id="a_edge9_Node000008_Node000004"><a xlink:title=" ">
<path fill="none" stroke="#63b8ff" d="M331.57,-110.03C370.53,-101.05 430.25,-87.28 472.65,-77.51"/>
<polygon fill="#63b8ff" stroke="#63b8ff" points="473.41,-80.93 482.36,-75.27 471.83,-74.11 473.41,-80.93"/>
</a>
</g>
</g>
<!-- Node8&#45;&gt;Node9 -->
<g id="edge10_Node000008_Node000009" class="edge">
<title>Node8&#45;&gt;Node9</title>
<g id="a_edge10_Node000008_Node000009"><a xlink:title=" ">
<path fill="none" stroke="#63b8ff" d="M246.36,-110.03C193.46,-99.52 107.54,-82.45 59.5,-72.9"/>
<polygon fill="#63b8ff" stroke="#63b8ff" points="60.41,-69.52 49.92,-71 59.04,-76.38 60.41,-69.52"/>
</a>
</g>
</g>
<!-- Node10 -->
<g id="Node000010" class="node">
<title>Node10</title>
<g id="a_Node000010"><a xlink:title=" ">
<polygon fill="#e0e0e0" stroke="#999999" points="316.25,-74.5 268,-74.5 268,-55.25 316.25,-55.25 316.25,-74.5"/>
<text text-anchor="middle" x="292.12" y="-61" font-family="Helvetica,sans-Serif" font-size="10.00">cstddef</text>
</a>
</g>
</g>
<!-- Node8&#45;&gt;Node10 -->
<g id="edge11_Node000008_Node000010" class="edge">
<title>Node8&#45;&gt;Node10</title>
<g id="a_edge11_Node000008_Node000010"><a xlink:title=" ">
<path fill="none" stroke="#63b8ff" d="M292.12,-110.33C292.12,-103.82 292.12,-94.67 292.12,-86.37"/>
<polygon fill="#63b8ff" stroke="#63b8ff" points="295.63,-86.37 292.13,-76.37 288.63,-86.37 295.63,-86.37"/>
</a>
</g>
</g>
<!-- Node8&#45;&gt;Node11 -->
<g id="edge12_Node000008_Node000011" class="edge">
<title>Node8&#45;&gt;Node11</title>
<g id="a_edge12_Node000008_Node000011"><a xlink:title=" ">
<path fill="none" stroke="#63b8ff" d="M306.37,-110.09C318.92,-102.14 337.46,-90.39 352.27,-81"/>
<polygon fill="#63b8ff" stroke="#63b8ff" points="353.96,-84.07 360.53,-75.76 350.21,-78.16 353.96,-84.07"/>
</a>
</g>
</g>
<!-- Node8&#45;&gt;Node12 -->
<g id="edge13_Node000008_Node000012" class="edge">
<title>Node8&#45;&gt;Node12</title>
<g id="a_edge13_Node000008_Node000012"><a xlink:title=" ">
<path fill="none" stroke="#63b8ff" d="M281.78,-110.09C273.05,-102.47 260.34,-91.37 249.83,-82.2"/>
<polygon fill="#63b8ff" stroke="#63b8ff" points="252.3,-79.71 242.46,-75.77 247.69,-84.98 252.3,-79.71"/>
</a>
</g>
</g>
<!-- Node13&#45;&gt;Node4 -->
<g id="edge19_Node000013_Node000004" class="edge">
<title>Node13&#45;&gt;Node4</title>
<g id="a_edge19_Node000013_Node000004"><a xlink:title=" ">
<path fill="none" stroke="#63b8ff" d="M635.44,-166.74C706.59,-156.1 825.82,-137.29 832.12,-129.75 837.62,-123.19 837.73,-116.97 832.12,-110.5 800.42,-73.89 662.4,-66.65 581.94,-65.61"/>
<polygon fill="#63b8ff" stroke="#63b8ff" points="582.06,-62.11 572.03,-65.51 581.99,-69.11 582.06,-62.11"/>
</a>
</g>
</g>
<!-- Node13&#45;&gt;Node5 -->
<g id="edge25_Node000013_Node000005" class="edge">
<title>Node13&#45;&gt;Node5</title>
<g id="a_edge25_Node000013_Node000005"><a xlink:title=" ">
<path fill="none" stroke="#63b8ff" d="M583.94,-165.27C585.51,-145.14 588.03,-95.45 579.12,-55.25 577.19,-46.52 573.59,-37.36 570.05,-29.62"/>
<polygon fill="#63b8ff" stroke="#63b8ff" points="573.3,-28.31 565.75,-20.88 567.02,-31.4 573.3,-28.31"/>
</a>
</g>
</g>
<!-- Node13&#45;&gt;Node8 -->
<g id="edge20_Node000013_Node000008" class="edge">
<title>Node13&#45;&gt;Node8</title>
<g id="a_edge20_Node000013_Node000008"><a xlink:title=" ">
<path fill="none" stroke="#63b8ff" d="M533.43,-165.28C483.42,-156.13 406.22,-142 352.67,-132.2"/>
<polygon fill="#63b8ff" stroke="#63b8ff" points="353.57,-128.81 343.1,-130.45 352.31,-135.7 353.57,-128.81"/>
</a>
</g>
</g>
<!-- Node13&#45;&gt;Node11 -->
<g id="edge23_Node000013_Node000011" class="edge">
<title>Node13&#45;&gt;Node11</title>
<g id="a_edge23_Node000013_Node000011"><a xlink:title=" ">
<path fill="none" stroke="#63b8ff" d="M579.01,-165.47C572.13,-151.59 556.97,-124.89 536.12,-110.5 504.6,-88.74 462.71,-77.54 429.7,-71.81"/>
<polygon fill="#63b8ff" stroke="#63b8ff" points="430.35,-68.37 419.92,-70.24 429.24,-75.28 430.35,-68.37"/>
</a>
</g>
</g>
<!-- Node13&#45;&gt;Node12 -->
<g id="edge27_Node000013_Node000012" class="edge">
<title>Node13&#45;&gt;Node12</title>
<g id="a_edge27_Node000013_Node000012"><a xlink:title=" ">
<path fill="none" stroke="#63b8ff" d="M575.25,-165.62C561.94,-151.43 533.44,-123.68 503.12,-110.5 405.94,-68.24 368.54,-96.67 261.85,-74.73"/>
<polygon fill="#63b8ff" stroke="#63b8ff" points="262.6,-71.32 252.08,-72.61 261.11,-78.16 262.6,-71.32"/>
</a>
</g>
</g>
<!-- Node13&#45;&gt;Node14 -->
<g id="edge21_Node000013_Node000014" class="edge">
<title>Node13&#45;&gt;Node14</title>
<g id="a_edge21_Node000013_Node000014"><a xlink:title=" ">
<path fill="none" stroke="#63b8ff" d="M563.11,-165.34C544.63,-157 516.92,-144.5 495.68,-134.91"/>
<polygon fill="#63b8ff" stroke="#63b8ff" points="497.17,-131.75 486.62,-130.83 494.3,-138.13 497.17,-131.75"/>
</a>
</g>
</g>
<!-- Node13&#45;&gt;Node15 -->
<g id="edge22_Node000013_Node000015" class="edge">
<title>Node13&#45;&gt;Node15</title>
<g id="a_edge22_Node000013_Node000015"><a xlink:title=" ">
<path fill="none" stroke="#63b8ff" d="M635.3,-167.27C692.05,-159.27 785.34,-145.34 865.12,-129.75 865.95,-129.59 866.79,-129.42 867.63,-129.25"/>
<polygon fill="#63b8ff" stroke="#63b8ff" points="868.18,-132.71 877.21,-127.18 866.7,-125.87 868.18,-132.71"/>
</a>
</g>
</g>
<!-- Node16 -->
<g id="Node000016" class="node">
<title>Node16</title>
<g id="a_Node000016"><a xlink:title=" ">
<polygon fill="#e0e0e0" stroke="#999999" points="677.75,-129.75 626.5,-129.75 626.5,-110.5 677.75,-110.5 677.75,-129.75"/>
<text text-anchor="middle" x="652.12" y="-116.25" font-family="Helvetica,sans-Serif" font-size="10.00">sstream</text>
</a>
</g>
</g>
<!-- Node13&#45;&gt;Node16 -->
<g id="edge24_Node000013_Node000016" class="edge">
<title>Node13&#45;&gt;Node16</title>
<g id="a_edge24_Node000013_Node000016"><a xlink:title=" ">
<path fill="none" stroke="#63b8ff" d="M594.83,-165.34C604.9,-157.57 619.67,-146.17 631.69,-136.9"/>
<polygon fill="#63b8ff" stroke="#63b8ff" points="633.62,-139.83 639.39,-130.95 629.34,-134.29 633.62,-139.83"/>
</a>
</g>
</g>
<!-- Node17 -->
<g id="Node000017" class="node">
<title>Node17</title>
<g id="a_Node000017"><a xlink:title=" ">
<polygon fill="#e0e0e0" stroke="#999999" points="760.88,-129.75 695.38,-129.75 695.38,-110.5 760.88,-110.5 760.88,-129.75"/>
<text text-anchor="middle" x="728.12" y="-116.25" font-family="Helvetica,sans-Serif" font-size="10.00">string_view</text>
</a>
</g>
</g>
<!-- Node13&#45;&gt;Node17 -->
<g id="edge26_Node000013_Node000017" class="edge">
<title>Node13&#45;&gt;Node17</title>
<g id="a_edge26_Node000013_Node000017"><a xlink:title=" ">
<path fill="none" stroke="#63b8ff" d="M607.72,-165.34C631.05,-156.77 666.36,-143.81 692.72,-134.13"/>
<polygon fill="#63b8ff" stroke="#63b8ff" points="693.81,-137.46 701.99,-130.72 691.39,-130.89 693.81,-137.46"/>
</a>
</g>
</g>
<!-- Node18 -->
<g id="Node000018" class="node">
<title>Node18</title>
<g id="a_Node000018"><a xlink:title=" ">
<polygon fill="#e0e0e0" stroke="#999999" points="823,-129.75 779.25,-129.75 779.25,-110.5 823,-110.5 823,-129.75"/>
<text text-anchor="middle" x="801.12" y="-116.25" font-family="Helvetica,sans-Serif" font-size="10.00">format</text>
</a>
</g>
</g>
<!-- Node13&#45;&gt;Node18 -->
<g id="edge28_Node000013_Node000018" class="edge">
<title>Node13&#45;&gt;Node18</title>
<g id="a_edge28_Node000013_Node000018"><a xlink:title=" ">
<path fill="none" stroke="#63b8ff" d="M622.99,-165.31C658.55,-157.13 712.3,-144.52 767.7,-130.31"/>
<polygon fill="#63b8ff" stroke="#63b8ff" points="768.53,-133.71 777.34,-127.82 766.78,-126.93 768.53,-133.71"/>
</a>
</g>
</g>
<!-- Node19&#45;&gt;Node3 -->
<g id="edge30_Node000019_Node000003" class="edge">
<title>Node19&#45;&gt;Node3</title>
<g id="a_edge30_Node000019_Node000003"><a xlink:title=" ">
<path fill="none" stroke="#63b8ff" d="M748.52,-223.46C658.69,-213.33 480.58,-193.24 388.79,-182.88"/>
<polygon fill="#63b8ff" stroke="#63b8ff" points="389.33,-179.42 379,-181.78 388.55,-186.38 389.33,-179.42"/>
</a>
</g>
</g>
<!-- Node19&#45;&gt;Node4 -->
<g id="edge31_Node000019_Node000004" class="edge">
<title>Node19&#45;&gt;Node4</title>
<g id="a_edge31_Node000019_Node000004"><a xlink:title=" ">
<path fill="none" stroke="#63b8ff" d="M803.26,-220.92C803.94,-207.31 807.24,-180.97 822.12,-165.75 860.94,-126.08 971.19,-151.81 934.12,-110.5 911.03,-84.76 689.77,-72.48 581.8,-67.99"/>
<polygon fill="#63b8ff" stroke="#63b8ff" points="582.11,-64.5 571.98,-67.59 581.83,-71.49 582.11,-64.5"/>
</a>
</g>
</g>
<!-- Node19&#45;&gt;Node13 -->
<g id="edge32_Node000019_Node000013" class="edge">
<title>Node19&#45;&gt;Node13</title>
<g id="a_edge32_Node000019_Node000013"><a xlink:title=" ">
<path fill="none" stroke="#63b8ff" d="M765.8,-220.59C728.83,-211.64 672.01,-197.89 631.57,-188.1"/>
<polygon fill="#63b8ff" stroke="#63b8ff" points="632.64,-184.76 622.1,-185.81 631,-191.56 632.64,-184.76"/>
</a>
</g>
</g>
<!-- Node19&#45;&gt;Node14 -->
<g id="edge34_Node000019_Node000014" class="edge">
<title>Node19&#45;&gt;Node14</title>
<g id="a_edge34_Node000019_Node000014"><a xlink:title=" ">
<path fill="none" stroke="#63b8ff" d="M748.23,-225.3C677.78,-219 560.11,-205.75 522.12,-185 502.6,-174.34 486.42,-154.31 476.35,-139.51"/>
<polygon fill="#63b8ff" stroke="#63b8ff" points="479.32,-137.65 470.96,-131.14 473.43,-141.44 479.32,-137.65"/>
</a>
</g>
</g>
<!-- Node19&#45;&gt;Node15 -->
<g id="edge35_Node000019_Node000015" class="edge">
<title>Node19&#45;&gt;Node15</title>
<g id="a_edge35_Node000019_Node000015"><a xlink:title=" ">
<path fill="none" stroke="#63b8ff" d="M797.12,-220.55C789.22,-207.36 777.63,-182.65 789.12,-165.75 798.36,-152.18 838.12,-138.62 867.89,-130.07"/>
<polygon fill="#63b8ff" stroke="#63b8ff" points="868.57,-133.51 877.26,-127.45 866.69,-126.77 868.57,-133.51"/>
</a>
</g>
</g>
<!-- Node19&#45;&gt;Node20 -->
<g id="edge33_Node000019_Node000020" class="edge">
<title>Node19&#45;&gt;Node20</title>
<g id="a_edge33_Node000019_Node000020"><a xlink:title=" ">
<path fill="none" stroke="#63b8ff" d="M825.18,-220.59C845.81,-212.14 876.91,-199.4 900.43,-189.77"/>
<polygon fill="#63b8ff" stroke="#63b8ff" points="901.64,-193.06 909.56,-186.03 898.98,-186.58 901.64,-193.06"/>
</a>
</g>
</g>
<!-- Node19&#45;&gt;Node21 -->
<g id="edge36_Node000019_Node000021" class="edge">
<title>Node19&#45;&gt;Node21</title>
<g id="a_edge36_Node000019_Node000021"><a xlink:title=" ">
<path fill="none" stroke="#63b8ff" d="M837.22,-220.59C873.56,-210.96 930.86,-195.78 967.97,-185.95"/>
<polygon fill="#63b8ff" stroke="#63b8ff" points="968.56,-189.42 977.33,-183.47 966.77,-182.65 968.56,-189.42"/>
</a>
</g>
</g>
<!-- Node19&#45;&gt;Node22 -->
<g id="edge37_Node000019_Node000022" class="edge">
<title>Node19&#45;&gt;Node22</title>
<g id="a_edge37_Node000019_Node000022"><a xlink:title=" ">
<path fill="none" stroke="#63b8ff" d="M857.5,-220.5C902.77,-212.64 969.14,-200.48 1035.95,-185.36"/>
<polygon fill="#63b8ff" stroke="#63b8ff" points="1036.66,-188.78 1045.63,-183.14 1035.1,-181.96 1036.66,-188.78"/>
</a>
</g>
</g>
<!-- Node23 -->
<g id="Node000023" class="node">
<title>Node23</title>
<g id="a_Node000023"><a xlink:title=" ">
<polygon fill="#e0e0e0" stroke="#999999" points="887.38,-185 830.88,-185 830.88,-165.75 887.38,-165.75 887.38,-185"/>
<text text-anchor="middle" x="859.12" y="-171.5" font-family="Helvetica,sans-Serif" font-size="10.00">typeindex</text>
</a>
</g>
</g>
<!-- Node19&#45;&gt;Node23 -->
<g id="edge38_Node000019_Node000023" class="edge">
<title>Node19&#45;&gt;Node23</title>
<g id="a_edge38_Node000019_Node000023"><a xlink:title=" ">
<path fill="none" stroke="#63b8ff" d="M812.62,-220.59C820.56,-213.05 832.07,-202.1 841.66,-192.98"/>
<polygon fill="#63b8ff" stroke="#63b8ff" points="843.83,-195.74 848.67,-186.32 839.01,-190.67 843.83,-195.74"/>
</a>
</g>
</g>
<!-- Node24 -->
<g id="Node000024" class="node">
<title>Node24</title>
<g id="a_Node000024"><a xlink:title=" ">
<polygon fill="#e0e0e0" stroke="#999999" points="736.75,-185 691.5,-185 691.5,-165.75 736.75,-165.75 736.75,-185"/>
<text text-anchor="middle" x="714.12" y="-171.5" font-family="Helvetica,sans-Serif" font-size="10.00">variant</text>
</a>
</g>
</g>
<!-- Node19&#45;&gt;Node24 -->
<g id="edge39_Node000019_Node000024" class="edge">
<title>Node19&#45;&gt;Node24</title>
<g id="a_edge39_Node000019_Node000024"><a xlink:title=" ">
<path fill="none" stroke="#63b8ff" d="M788.03,-220.59C774.6,-212.56 754.71,-200.66 738.95,-191.23"/>
<polygon fill="#63b8ff" stroke="#63b8ff" points="740.97,-188.36 730.6,-186.23 737.38,-194.37 740.97,-188.36"/>
</a>
</g>
</g>
<!-- Node19&#45;&gt;Node25 -->
<g id="edge40_Node000019_Node000025" class="edge">
<title>Node19&#45;&gt;Node25</title>
<g id="a_edge40_Node000019_Node000025"><a xlink:title=" ">
<path fill="none" stroke="#63b8ff" d="M858.08,-223.63C915.94,-216.82 1009.86,-204.39 1099.11,-185.43"/>
<polygon fill="#63b8ff" stroke="#63b8ff" points="1099.74,-188.88 1108.78,-183.34 1098.26,-182.03 1099.74,-188.88"/>
</a>
</g>
</g>
</g>
</svg>

<g id="navigator" transform="translate(0 0)" fill="#404254">
  <rect fill="#f2f5e9" fill-opacity="0.5" stroke="#606060" stroke-width=".5" x="0" y="0" width="60" height="60"/>
  <use id="zoomplus" xlink:href="#zoomPlus" x="17" y="9" onmousedown="handleZoom(evt,'in')"/>
  <use id="zoomminus" xlink:href="#zoomMin" x="42" y="9" onmousedown="handleZoom(evt,'out')"/>
  <use id="reset" xlink:href="#resetDef" x="30" y="36" onmousedown="handleReset()"/>
   <use id="arrowup" xlink:href="#arrowUp" x="0" y="0" onmousedown="handlePan(0,-1)"/>
  <use id="arrowright" xlink:href="#arrowRight" x="0" y="0" onmousedown="handlePan(1,0)"/>
  <use id="arrowdown" xlink:href="#arrowDown" x="0" y="0" onmousedown="handlePan(0,1)"/>
  <use id="arrowleft" xlink:href="#arrowLeft" x="0" y="0" onmousedown="handlePan(-1,0)"/>
</g>
<svg viewBox="0 0 15 15" width="100%" height="30px" preserveAspectRatio="xMaxYMin meet">
 <g id="arrow_out" transform="scale(0.3 0.3)">
  <a xlink:href="_catch2_8hpp__incl_org.svg" target="_base">
   <rect id="button" ry="5" rx="5" y="6" x="6" height="38" width="38"
        fill="#f2f5e9" fill-opacity="0.5" stroke="#606060" stroke-width="1.0"/>
   <path id="arrow"
     d="M 11.500037,31.436501 C 11.940474,20.09759 22.043105,11.32322 32.158766,21.979434 L 37.068811,17.246167 C 37.068811,17.246167 37.088388,32 37.088388,32 L 22.160133,31.978069 C 22.160133,31.978069 26.997745,27.140456 26.997745,27.140456 C 18.528582,18.264221 13.291696,25.230495 11.500037,31.436501 z"
     style="fill:#404040;"/>
  </a>
 </g>
</svg>

<style type='text/css'>
<![CDATA[
[data-mouse-over-selected='false'] { opacity: 0.7; }
[data-mouse-over-selected='true']  { opacity: 1.0; }
]]>
</style>
<script type="application/ecmascript"><![CDATA[
document.addEventListener('DOMContentLoaded', (event) => {
  highlightEdges();
  highlightAdjacentNodes();
});
]]></script>
</svg>
