<?xml version="1.0" encoding="UTF-8" standalone="no"?>
<!DOCTYPE svg PUBLIC "-//W3C//DTD SVG 1.1//EN"
 "http://www.w3.org/Graphics/SVG/1.1/DTD/svg11.dtd">
<!-- Generated by graphviz version 12.1.2 (20240928.0832)
 -->
<!-- Title: mimic++/adapters/Catch2.hpp Pages: 1 -->
<svg width="1173pt" height="414pt"
 viewBox="0.00 0.00 1173.00 414.00" xmlns="http://www.w3.org/2000/svg" xmlns:xlink="http://www.w3.org/1999/xlink">
<g id="graph0" class="graph" transform="scale(1 1) rotate(0) translate(4 410)">
<title>mimic++/adapters/Catch2.hpp</title>
<!-- Node1 -->
<g id="Node000001" class="node">
<title>Node1</title>
<g id="a_Node000001"><a xlink:title=" ">
<polygon fill="#999999" stroke="#666666" points="805.25,-406 658.75,-406 658.75,-386.75 805.25,-386.75 805.25,-406"/>
<text text-anchor="middle" x="732" y="-392.5" font-family="Helvetica,sans-Serif" font-size="10.00">mimic++/adapters/Catch2.hpp</text>
</a>
</g>
</g>
<!-- Node2 -->
<g id="Node000002" class="node">
<title>Node2</title>
<g id="a_Node000002"><a xlink:href="../../da/dd9/_reporter_8hpp.html" target="_top" xlink:title=" ">
<polygon fill="white" stroke="#666666" points="925,-350.75 813,-350.75 813,-331.5 925,-331.5 925,-350.75"/>
<text text-anchor="middle" x="869" y="-337.25" font-family="Helvetica,sans-Serif" font-size="10.00">mimic++/Reporter.hpp</text>
</a>
</g>
</g>
<!-- Node1&#45;&gt;Node2 -->
<g id="edge1_Node000001_Node000002" class="edge">
<title>Node1&#45;&gt;Node2</title>
<g id="a_edge1_Node000001_Node000002"><a xlink:title=" ">
<path fill="none" stroke="#63b8ff" d="M755.24,-386.34C777.19,-377.81 810.35,-364.92 835.21,-355.26"/>
<polygon fill="#63b8ff" stroke="#63b8ff" points="836.18,-358.64 844.24,-351.75 833.65,-352.11 836.18,-358.64"/>
</a>
</g>
</g>
<!-- Node21 -->
<g id="Node000021" class="node">
<title>Node21</title>
<g id="a_Node000021"><a xlink:title=" ">
<polygon fill="#e0e0e0" stroke="#999999" points="749,-185 703,-185 703,-165.75 749,-165.75 749,-185"/>
<text text-anchor="middle" x="726" y="-171.5" font-family="Helvetica,sans-Serif" font-size="10.00">iterator</text>
</a>
</g>
</g>
<!-- Node1&#45;&gt;Node21 -->
<g id="edge65_Node000001_Node000021" class="edge">
<title>Node1&#45;&gt;Node21</title>
<g id="a_edge65_Node000001_Node000021"><a xlink:title=" ">
<path fill="none" stroke="#63b8ff" d="M724.58,-386.33C706.43,-363.57 660.12,-301.32 644,-240.25 641.82,-231.98 639.63,-228.35 644,-221 654.42,-203.46 674.42,-192.38 692.06,-185.65"/>
<polygon fill="#63b8ff" stroke="#63b8ff" points="692.89,-189.07 701.2,-182.49 690.6,-182.45 692.89,-189.07"/>
</a>
</g>
</g>
<!-- Node3 -->
<g id="Node000003" class="node">
<title>Node3</title>
<g id="a_Node000003"><a xlink:href="../../dc/d44/_call_8hpp.html" target="_top" xlink:title=" ">
<polygon fill="white" stroke="#666666" points="858.88,-185 767.12,-185 767.12,-165.75 858.88,-165.75 858.88,-185"/>
<text text-anchor="middle" x="813" y="-171.5" font-family="Helvetica,sans-Serif" font-size="10.00">mimic++/Call.hpp</text>
</a>
</g>
</g>
<!-- Node2&#45;&gt;Node3 -->
<g id="edge2_Node000002_Node000003" class="edge">
<title>Node2&#45;&gt;Node3</title>
<g id="a_edge2_Node000002_Node000003"><a xlink:title=" ">
<path fill="none" stroke="#63b8ff" d="M869.78,-331.02C871.31,-317.81 875.7,-293.06 888,-276.25 908.09,-248.79 960.71,-248.74 941,-221 924.84,-198.25 896.19,-187 870.09,-181.48"/>
<polygon fill="#63b8ff" stroke="#63b8ff" points="871.06,-178.1 860.59,-179.72 869.79,-184.99 871.06,-178.1"/>
</a>
</g>
</g>
<!-- Node4 -->
<g id="Node000004" class="node">
<title>Node4</title>
<g id="a_Node000004"><a xlink:href="../../df/dde/_fwd_8hpp.html" target="_top" xlink:title=" ">
<polygon fill="white" stroke="#666666" points="519,-74.5 425,-74.5 425,-55.25 519,-55.25 519,-74.5"/>
<text text-anchor="middle" x="472" y="-61" font-family="Helvetica,sans-Serif" font-size="10.00">mimic++/Fwd.hpp</text>
</a>
</g>
</g>
<!-- Node2&#45;&gt;Node4 -->
<g id="edge21_Node000002_Node000004" class="edge">
<title>Node2&#45;&gt;Node4</title>
<g id="a_edge21_Node000002_Node000004"><a xlink:title=" ">
<path fill="none" stroke="#63b8ff" d="M812.8,-333.63C685.73,-317.52 383.98,-270.68 340,-185 315.02,-136.34 387.87,-97.97 435.08,-78.96"/>
<polygon fill="#63b8ff" stroke="#63b8ff" points="436.12,-82.3 444.17,-75.42 433.59,-75.78 436.12,-82.3"/>
</a>
</g>
</g>
<!-- Node12 -->
<g id="Node000012" class="node">
<title>Node12</title>
<g id="a_Node000012"><a xlink:title=" ">
<polygon fill="#e0e0e0" stroke="#999999" points="1132.12,-74.5 1083.88,-74.5 1083.88,-55.25 1132.12,-55.25 1132.12,-74.5"/>
<text text-anchor="middle" x="1108" y="-61" font-family="Helvetica,sans-Serif" font-size="10.00">cassert</text>
</a>
</g>
</g>
<!-- Node2&#45;&gt;Node12 -->
<g id="edge58_Node000002_Node000012" class="edge">
<title>Node2&#45;&gt;Node12</title>
<g id="a_edge58_Node000002_Node000012"><a xlink:title=" ">
<path fill="none" stroke="#63b8ff" d="M925.22,-339.2C975.21,-336.2 1048.88,-326.29 1105,-295.5 1139.15,-276.77 1165,-270.57 1165,-231.62 1165,-231.62 1165,-231.62 1165,-174.38 1165,-138.92 1140.86,-103.66 1123.99,-83.35"/>
<polygon fill="#63b8ff" stroke="#63b8ff" points="1126.84,-81.3 1117.65,-76.04 1121.56,-85.88 1126.84,-81.3"/>
</a>
</g>
</g>
<!-- Node16 -->
<g id="Node000016" class="node">
<title>Node16</title>
<g id="a_Node000016"><a xlink:href="../../da/dab/_printer_8hpp.html" target="_top" xlink:title=" ">
<polygon fill="white" stroke="#666666" points="529.88,-240.25 426.12,-240.25 426.12,-221 529.88,-221 529.88,-240.25"/>
<text text-anchor="middle" x="478" y="-226.75" font-family="Helvetica,sans-Serif" font-size="10.00">mimic++/Printer.hpp</text>
</a>
</g>
</g>
<!-- Node2&#45;&gt;Node16 -->
<g id="edge22_Node000002_Node000016" class="edge">
<title>Node2&#45;&gt;Node16</title>
<g id="a_edge22_Node000002_Node000016"><a xlink:title=" ">
<path fill="none" stroke="#63b8ff" d="M828.62,-331.08C791.21,-322.53 734.12,-309.02 685,-295.5 625.71,-279.18 557.71,-257.65 516.32,-244.22"/>
<polygon fill="#63b8ff" stroke="#63b8ff" points="517.66,-240.98 507.07,-241.21 515.5,-247.64 517.66,-240.98"/>
</a>
</g>
</g>
<!-- Node18 -->
<g id="Node000018" class="node">
<title>Node18</title>
<g id="a_Node000018"><a xlink:title=" ">
<polygon fill="#e0e0e0" stroke="#999999" points="58,-129.75 0,-129.75 0,-110.5 58,-110.5 58,-129.75"/>
<text text-anchor="middle" x="29" y="-116.25" font-family="Helvetica,sans-Serif" font-size="10.00">functional</text>
</a>
</g>
</g>
<!-- Node2&#45;&gt;Node18 -->
<g id="edge60_Node000002_Node000018" class="edge">
<title>Node2&#45;&gt;Node18</title>
<g id="a_edge60_Node000002_Node000018"><a xlink:title=" ">
<path fill="none" stroke="#63b8ff" d="M812.64,-338.08C685,-333.09 377.07,-318.95 276,-295.5 161.61,-268.96 101.51,-282.46 36,-185 27.42,-172.23 26.05,-154.68 26.62,-141.21"/>
<polygon fill="#63b8ff" stroke="#63b8ff" points="30.1,-141.59 27.45,-131.34 23.12,-141 30.1,-141.59"/>
</a>
</g>
</g>
<!-- Node19 -->
<g id="Node000019" class="node">
<title>Node19</title>
<g id="a_Node000019"><a xlink:title=" ">
<polygon fill="#e0e0e0" stroke="#999999" points="882.62,-129.75 837.38,-129.75 837.38,-110.5 882.62,-110.5 882.62,-129.75"/>
<text text-anchor="middle" x="860" y="-116.25" font-family="Helvetica,sans-Serif" font-size="10.00">ranges</text>
</a>
</g>
</g>
<!-- Node2&#45;&gt;Node19 -->
<g id="edge63_Node000002_Node000019" class="edge">
<title>Node2&#45;&gt;Node19</title>
<g id="a_edge63_Node000002_Node000019"><a xlink:title=" ">
<path fill="none" stroke="#63b8ff" d="M925.37,-334.07C1010.21,-322.55 1155.94,-291.98 1108,-221 1059.6,-149.33 950.27,-129.08 894.35,-123.37"/>
<polygon fill="#63b8ff" stroke="#63b8ff" points="894.73,-119.89 884.46,-122.46 894.1,-126.86 894.73,-119.89"/>
</a>
</g>
</g>
<!-- Node24 -->
<g id="Node000024" class="node">
<title>Node24</title>
<g id="a_Node000024"><a xlink:href="../../d0/d3b/_reports_8hpp.html" target="_top" xlink:title=" ">
<polygon fill="white" stroke="#666666" points="802.5,-295.5 693.5,-295.5 693.5,-276.25 802.5,-276.25 802.5,-295.5"/>
<text text-anchor="middle" x="748" y="-282" font-family="Helvetica,sans-Serif" font-size="10.00">mimic++/Reports.hpp</text>
</a>
</g>
</g>
<!-- Node2&#45;&gt;Node24 -->
<g id="edge45_Node000002_Node000024" class="edge">
<title>Node2&#45;&gt;Node24</title>
<g id="a_edge45_Node000002_Node000024"><a xlink:title=" ">
<path fill="none" stroke="#63b8ff" d="M848.47,-331.09C829.44,-322.72 800.85,-310.13 779.03,-300.53"/>
<polygon fill="#63b8ff" stroke="#63b8ff" points="780.57,-297.39 770.01,-296.56 777.76,-303.79 780.57,-297.39"/>
</a>
</g>
</g>
<!-- Node25 -->
<g id="Node000025" class="node">
<title>Node25</title>
<g id="a_Node000025"><a xlink:title=" ">
<polygon fill="#e0e0e0" stroke="#999999" points="931.88,-240.25 876.12,-240.25 876.12,-221 931.88,-221 931.88,-240.25"/>
<text text-anchor="middle" x="904" y="-226.75" font-family="Helvetica,sans-Serif" font-size="10.00">algorithm</text>
</a>
</g>
</g>
<!-- Node2&#45;&gt;Node25 -->
<g id="edge57_Node000002_Node000025" class="edge">
<title>Node2&#45;&gt;Node25</title>
<g id="a_edge57_Node000002_Node000025"><a xlink:title=" ">
<path fill="none" stroke="#63b8ff" d="M863.62,-331.1C856.79,-318.39 846.83,-294.73 855,-276.25 860.16,-264.57 870.06,-254.63 879.62,-247.11"/>
<polygon fill="#63b8ff" stroke="#63b8ff" points="881.58,-250.01 887.64,-241.32 877.49,-244.33 881.58,-250.01"/>
</a>
</g>
</g>
<!-- Node26 -->
<g id="Node000026" class="node">
<title>Node26</title>
<g id="a_Node000026"><a xlink:title=" ">
<polygon fill="#e0e0e0" stroke="#999999" points="1037.88,-240.25 988.12,-240.25 988.12,-221 1037.88,-221 1037.88,-240.25"/>
<text text-anchor="middle" x="1013" y="-226.75" font-family="Helvetica,sans-Serif" font-size="10.00">optional</text>
</a>
</g>
</g>
<!-- Node2&#45;&gt;Node26 -->
<g id="edge62_Node000002_Node000026" class="edge">
<title>Node2&#45;&gt;Node26</title>
<g id="a_edge62_Node000002_Node000026"><a xlink:title=" ">
<path fill="none" stroke="#63b8ff" d="M925.37,-332.07C967.11,-324.81 1018.92,-312.64 1032,-295.5 1042.18,-282.16 1034.73,-263.43 1026.35,-249.71"/>
<polygon fill="#63b8ff" stroke="#63b8ff" points="1029.39,-247.94 1020.89,-241.61 1023.58,-251.86 1029.39,-247.94"/>
</a>
</g>
</g>
<!-- Node29 -->
<g id="Node000029" class="node">
<title>Node29</title>
<g id="a_Node000029"><a xlink:title=" ">
<polygon fill="#e0e0e0" stroke="#999999" points="1098.5,-240.25 1055.5,-240.25 1055.5,-221 1098.5,-221 1098.5,-240.25"/>
<text text-anchor="middle" x="1077" y="-226.75" font-family="Helvetica,sans-Serif" font-size="10.00">vector</text>
</a>
</g>
</g>
<!-- Node2&#45;&gt;Node29 -->
<g id="edge64_Node000002_Node000029" class="edge">
<title>Node2&#45;&gt;Node29</title>
<g id="a_edge64_Node000002_Node000029"><a xlink:title=" ">
<path fill="none" stroke="#63b8ff" d="M925.14,-338.58C963.6,-334.78 1013.67,-324.09 1048,-295.5 1061.32,-284.41 1068.79,-265.91 1072.8,-251.67"/>
<polygon fill="#63b8ff" stroke="#63b8ff" points="1076.19,-252.55 1075.14,-242.01 1069.38,-250.9 1076.19,-252.55"/>
</a>
</g>
</g>
<!-- Node30 -->
<g id="Node000030" class="node">
<title>Node30</title>
<g id="a_Node000030"><a xlink:title=" ">
<polygon fill="#e0e0e0" stroke="#999999" points="954.62,-295.5 897.38,-295.5 897.38,-276.25 954.62,-276.25 954.62,-295.5"/>
<text text-anchor="middle" x="926" y="-282" font-family="Helvetica,sans-Serif" font-size="10.00">exception</text>
</a>
</g>
</g>
<!-- Node2&#45;&gt;Node30 -->
<g id="edge59_Node000002_Node000030" class="edge">
<title>Node2&#45;&gt;Node30</title>
<g id="a_edge59_Node000002_Node000030"><a xlink:title=" ">
<path fill="none" stroke="#63b8ff" d="M878.67,-331.09C886.74,-323.55 898.47,-312.6 908.22,-303.48"/>
<polygon fill="#63b8ff" stroke="#63b8ff" points="910.45,-306.19 915.37,-296.81 905.67,-301.08 910.45,-306.19"/>
</a>
</g>
</g>
<!-- Node31 -->
<g id="Node000031" class="node">
<title>Node31</title>
<g id="a_Node000031"><a xlink:title=" ">
<polygon fill="#e0e0e0" stroke="#999999" points="1023.25,-295.5 972.75,-295.5 972.75,-276.25 1023.25,-276.25 1023.25,-295.5"/>
<text text-anchor="middle" x="998" y="-282" font-family="Helvetica,sans-Serif" font-size="10.00">memory</text>
</a>
</g>
</g>
<!-- Node2&#45;&gt;Node31 -->
<g id="edge61_Node000002_Node000031" class="edge">
<title>Node2&#45;&gt;Node31</title>
<g id="a_edge61_Node000002_Node000031"><a xlink:title=" ">
<path fill="none" stroke="#63b8ff" d="M890.88,-331.09C911.36,-322.64 942.21,-309.9 965.56,-300.27"/>
<polygon fill="#63b8ff" stroke="#63b8ff" points="966.7,-303.58 974.61,-296.53 964.03,-297.11 966.7,-303.58"/>
</a>
</g>
</g>
<!-- Node3&#45;&gt;Node4 -->
<g id="edge3_Node000003_Node000004" class="edge">
<title>Node3&#45;&gt;Node4</title>
<g id="a_edge3_Node000003_Node000004"><a xlink:title=" ">
<path fill="none" stroke="#63b8ff" d="M779.12,-165.33C750.22,-157.21 707.77,-144.36 672,-129.75 654.47,-122.59 651.66,-117.33 634,-110.5 598.34,-96.72 556.74,-85.35 524.62,-77.54"/>
<polygon fill="#63b8ff" stroke="#63b8ff" points="525.69,-74.2 515.15,-75.28 524.07,-81.01 525.69,-74.2"/>
</a>
</g>
</g>
<!-- Node6 -->
<g id="Node000006" class="node">
<title>Node6</title>
<g id="a_Node000006"><a xlink:href="../../d8/d32/_type_traits_8hpp.html" target="_top" xlink:title=" ">
<polygon fill="white" stroke="#666666" points="624.5,-129.75 503.5,-129.75 503.5,-110.5 624.5,-110.5 624.5,-129.75"/>
<text text-anchor="middle" x="564" y="-116.25" font-family="Helvetica,sans-Serif" font-size="10.00">mimic++/TypeTraits.hpp</text>
</a>
</g>
</g>
<!-- Node3&#45;&gt;Node6 -->
<g id="edge5_Node000003_Node000006" class="edge">
<title>Node3&#45;&gt;Node6</title>
<g id="a_edge5_Node000003_Node000006"><a xlink:title=" ">
<path fill="none" stroke="#63b8ff" d="M770.48,-165.28C728.22,-156.24 663.28,-142.36 617.54,-132.57"/>
<polygon fill="#63b8ff" stroke="#63b8ff" points="618.34,-129.17 607.83,-130.5 616.87,-136.01 618.34,-129.17"/>
</a>
</g>
</g>
<!-- Node9 -->
<g id="Node000009" class="node">
<title>Node9</title>
<g id="a_Node000009"><a xlink:title=" ">
<polygon fill="#e0e0e0" stroke="#999999" points="749.5,-74.5 712.5,-74.5 712.5,-55.25 749.5,-55.25 749.5,-74.5"/>
<text text-anchor="middle" x="731" y="-61" font-family="Helvetica,sans-Serif" font-size="10.00">tuple</text>
</a>
</g>
</g>
<!-- Node3&#45;&gt;Node9 -->
<g id="edge19_Node000003_Node000009" class="edge">
<title>Node3&#45;&gt;Node9</title>
<g id="a_edge19_Node000003_Node000009"><a xlink:title=" ">
<path fill="none" stroke="#63b8ff" d="M811.45,-165.35C808.84,-152.22 802.57,-127.59 790,-110.5 781.35,-98.74 768.74,-88.62 757.4,-81.01"/>
<polygon fill="#63b8ff" stroke="#63b8ff" points="759.49,-78.19 749.17,-75.8 755.75,-84.1 759.49,-78.19"/>
</a>
</g>
</g>
<!-- Node11 -->
<g id="Node000011" class="node">
<title>Node11</title>
<g id="a_Node000011"><a xlink:href="../../d4/d2c/_utility_8hpp.html" target="_top" xlink:title=" ">
<polygon fill="white" stroke="#666666" points="781,-129.75 681,-129.75 681,-110.5 781,-110.5 781,-129.75"/>
<text text-anchor="middle" x="731" y="-116.25" font-family="Helvetica,sans-Serif" font-size="10.00">mimic++/Utility.hpp</text>
</a>
</g>
</g>
<!-- Node3&#45;&gt;Node11 -->
<g id="edge11_Node000003_Node000011" class="edge">
<title>Node3&#45;&gt;Node11</title>
<g id="a_edge11_Node000003_Node000011"><a xlink:title=" ">
<path fill="none" stroke="#63b8ff" d="M799.09,-165.34C786.84,-157.39 768.75,-145.64 754.29,-136.25"/>
<polygon fill="#63b8ff" stroke="#63b8ff" points="756.54,-133.54 746.25,-131.03 752.73,-139.41 756.54,-133.54"/>
</a>
</g>
</g>
<!-- Node13 -->
<g id="Node000013" class="node">
<title>Node13</title>
<g id="a_Node000013"><a xlink:title=" ">
<polygon fill="#e0e0e0" stroke="#999999" points="1039.12,-74.5 954.88,-74.5 954.88,-55.25 1039.12,-55.25 1039.12,-74.5"/>
<text text-anchor="middle" x="997" y="-61" font-family="Helvetica,sans-Serif" font-size="10.00">source_location</text>
</a>
</g>
</g>
<!-- Node3&#45;&gt;Node13 -->
<g id="edge18_Node000003_Node000013" class="edge">
<title>Node3&#45;&gt;Node13</title>
<g id="a_edge18_Node000003_Node000013"><a xlink:title=" ">
<path fill="none" stroke="#63b8ff" d="M836.67,-165.25C856.96,-157.04 886.69,-144.1 911,-129.75 935.33,-115.4 961.06,-95.59 977.96,-81.86"/>
<polygon fill="#63b8ff" stroke="#63b8ff" points="979.72,-84.94 985.22,-75.89 975.27,-79.54 979.72,-84.94"/>
</a>
</g>
</g>
<!-- Node15 -->
<g id="Node000015" class="node">
<title>Node15</title>
<g id="a_Node000015"><a xlink:title=" ">
<polygon fill="#e0e0e0" stroke="#999999" points="930.25,-74.5 891.75,-74.5 891.75,-55.25 930.25,-55.25 930.25,-74.5"/>
<text text-anchor="middle" x="911" y="-61" font-family="Helvetica,sans-Serif" font-size="10.00">utility</text>
</a>
</g>
</g>
<!-- Node3&#45;&gt;Node15 -->
<g id="edge20_Node000003_Node000015" class="edge">
<title>Node3&#45;&gt;Node15</title>
<g id="a_edge20_Node000003_Node000015"><a xlink:title=" ">
<path fill="none" stroke="#63b8ff" d="M839.62,-165.35C856.87,-158.22 878.55,-146.63 892,-129.75 902.05,-117.14 906.79,-99.34 909.02,-85.72"/>
<polygon fill="#63b8ff" stroke="#63b8ff" points="912.44,-86.54 910.25,-76.17 905.5,-85.64 912.44,-86.54"/>
</a>
</g>
</g>
<!-- Node5 -->
<g id="Node000005" class="node">
<title>Node5</title>
<g id="a_Node000005"><a xlink:title=" ">
<polygon fill="#e0e0e0" stroke="#999999" points="238,-19.25 198,-19.25 198,0 238,0 238,-19.25"/>
<text text-anchor="middle" x="218" y="-5.75" font-family="Helvetica,sans-Serif" font-size="10.00">string</text>
</a>
</g>
</g>
<!-- Node4&#45;&gt;Node5 -->
<g id="edge4_Node000004_Node000005" class="edge">
<title>Node4&#45;&gt;Node5</title>
<g id="a_edge4_Node000004_Node000005"><a xlink:title=" ">
<path fill="none" stroke="#63b8ff" d="M428.62,-54.78C377.77,-44.12 294.71,-26.71 249.59,-17.25"/>
<polygon fill="#63b8ff" stroke="#63b8ff" points="250.43,-13.85 239.93,-15.22 249,-20.7 250.43,-13.85"/>
</a>
</g>
</g>
<!-- Node6&#45;&gt;Node4 -->
<g id="edge6_Node000006_Node000004" class="edge">
<title>Node6&#45;&gt;Node4</title>
<g id="a_edge6_Node000006_Node000004"><a xlink:title=" ">
<path fill="none" stroke="#63b8ff" d="M548.39,-110.09C534.38,-101.98 513.57,-89.93 497.2,-80.46"/>
<polygon fill="#63b8ff" stroke="#63b8ff" points="499.4,-77.69 488.99,-75.71 495.89,-83.75 499.4,-77.69"/>
</a>
</g>
</g>
<!-- Node7 -->
<g id="Node000007" class="node">
<title>Node7</title>
<g id="a_Node000007"><a xlink:title=" ">
<polygon fill="#e0e0e0" stroke="#999999" points="308.88,-74.5 253.12,-74.5 253.12,-55.25 308.88,-55.25 308.88,-74.5"/>
<text text-anchor="middle" x="281" y="-61" font-family="Helvetica,sans-Serif" font-size="10.00">concepts</text>
</a>
</g>
</g>
<!-- Node6&#45;&gt;Node7 -->
<g id="edge7_Node000006_Node000007" class="edge">
<title>Node6&#45;&gt;Node7</title>
<g id="a_edge7_Node000006_Node000007"><a xlink:title=" ">
<path fill="none" stroke="#63b8ff" d="M515.67,-110.03C460.6,-99.67 371.64,-82.93 320.53,-73.31"/>
<polygon fill="#63b8ff" stroke="#63b8ff" points="321.27,-69.89 310.8,-71.48 319.98,-76.77 321.27,-69.89"/>
</a>
</g>
</g>
<!-- Node8 -->
<g id="Node000008" class="node">
<title>Node8</title>
<g id="a_Node000008"><a xlink:title=" ">
<polygon fill="#e0e0e0" stroke="#999999" points="588.12,-74.5 539.88,-74.5 539.88,-55.25 588.12,-55.25 588.12,-74.5"/>
<text text-anchor="middle" x="564" y="-61" font-family="Helvetica,sans-Serif" font-size="10.00">cstddef</text>
</a>
</g>
</g>
<!-- Node6&#45;&gt;Node8 -->
<g id="edge8_Node000006_Node000008" class="edge">
<title>Node6&#45;&gt;Node8</title>
<g id="a_edge8_Node000006_Node000008"><a xlink:title=" ">
<path fill="none" stroke="#63b8ff" d="M564,-110.33C564,-103.82 564,-94.67 564,-86.37"/>
<polygon fill="#63b8ff" stroke="#63b8ff" points="567.5,-86.37 564,-76.37 560.5,-86.37 567.5,-86.37"/>
</a>
</g>
</g>
<!-- Node6&#45;&gt;Node9 -->
<g id="edge9_Node000006_Node000009" class="edge">
<title>Node6&#45;&gt;Node9</title>
<g id="a_edge9_Node000006_Node000009"><a xlink:title=" ">
<path fill="none" stroke="#63b8ff" d="M592.33,-110.09C622.7,-100.41 670.68,-85.11 701.49,-75.28"/>
<polygon fill="#63b8ff" stroke="#63b8ff" points="702.48,-78.64 710.95,-72.27 700.36,-71.97 702.48,-78.64"/>
</a>
</g>
</g>
<!-- Node10 -->
<g id="Node000010" class="node">
<title>Node10</title>
<g id="a_Node000010"><a xlink:title=" ">
<polygon fill="#e0e0e0" stroke="#999999" points="400.5,-74.5 339.5,-74.5 339.5,-55.25 400.5,-55.25 400.5,-74.5"/>
<text text-anchor="middle" x="370" y="-61" font-family="Helvetica,sans-Serif" font-size="10.00">type_traits</text>
</a>
</g>
</g>
<!-- Node6&#45;&gt;Node10 -->
<g id="edge10_Node000006_Node000010" class="edge">
<title>Node6&#45;&gt;Node10</title>
<g id="a_edge10_Node000006_Node000010"><a xlink:title=" ">
<path fill="none" stroke="#63b8ff" d="M531.09,-110.09C498.22,-101.07 447.57,-87.17 411.85,-77.36"/>
<polygon fill="#63b8ff" stroke="#63b8ff" points="412.85,-74.01 402.28,-74.74 411,-80.76 412.85,-74.01"/>
</a>
</g>
</g>
<!-- Node11&#45;&gt;Node4 -->
<g id="edge12_Node000011_Node000004" class="edge">
<title>Node11&#45;&gt;Node4</title>
<g id="a_edge12_Node000011_Node000004"><a xlink:title=" ">
<path fill="none" stroke="#63b8ff" d="M686.77,-110.03C642.63,-100.96 574.7,-86.99 527.08,-77.2"/>
<polygon fill="#63b8ff" stroke="#63b8ff" points="528.03,-73.82 517.53,-75.24 526.62,-80.68 528.03,-73.82"/>
</a>
</g>
</g>
<!-- Node11&#45;&gt;Node9 -->
<g id="edge16_Node000011_Node000009" class="edge">
<title>Node11&#45;&gt;Node9</title>
<g id="a_edge16_Node000011_Node000009"><a xlink:title=" ">
<path fill="none" stroke="#63b8ff" d="M731,-110.33C731,-103.82 731,-94.67 731,-86.37"/>
<polygon fill="#63b8ff" stroke="#63b8ff" points="734.5,-86.37 731,-76.37 727.5,-86.37 734.5,-86.37"/>
</a>
</g>
</g>
<!-- Node11&#45;&gt;Node12 -->
<g id="edge13_Node000011_Node000012" class="edge">
<title>Node11&#45;&gt;Node12</title>
<g id="a_edge13_Node000011_Node000012"><a xlink:title=" ">
<path fill="none" stroke="#63b8ff" d="M781.24,-112.1C843.76,-103.34 953.77,-87.9 1048,-74.5 1055.84,-73.38 1064.26,-72.18 1072.23,-71.03"/>
<polygon fill="#63b8ff" stroke="#63b8ff" points="1072.58,-74.52 1081.98,-69.63 1071.59,-67.59 1072.58,-74.52"/>
</a>
</g>
</g>
<!-- Node11&#45;&gt;Node13 -->
<g id="edge14_Node000011_Node000013" class="edge">
<title>Node11&#45;&gt;Node13</title>
<g id="a_edge14_Node000011_Node000013"><a xlink:title=" ">
<path fill="none" stroke="#63b8ff" d="M776.42,-110.03C822.68,-100.77 894.37,-86.42 943.38,-76.61"/>
<polygon fill="#63b8ff" stroke="#63b8ff" points="943.8,-80.09 952.92,-74.7 942.42,-73.23 943.8,-80.09"/>
</a>
</g>
</g>
<!-- Node14 -->
<g id="Node000014" class="node">
<title>Node14</title>
<g id="a_Node000014"><a xlink:title=" ">
<polygon fill="#e0e0e0" stroke="#999999" points="189.75,-74.5 124.25,-74.5 124.25,-55.25 189.75,-55.25 189.75,-74.5"/>
<text text-anchor="middle" x="157" y="-61" font-family="Helvetica,sans-Serif" font-size="10.00">string_view</text>
</a>
</g>
</g>
<!-- Node11&#45;&gt;Node14 -->
<g id="edge15_Node000011_Node000014" class="edge">
<title>Node11&#45;&gt;Node14</title>
<g id="a_edge15_Node000011_Node000014"><a xlink:title=" ">
<path fill="none" stroke="#63b8ff" d="M680.51,-114.62C592.06,-106.71 403.32,-89.7 244,-74.5 230.07,-73.17 214.89,-71.68 201.17,-70.32"/>
<polygon fill="#63b8ff" stroke="#63b8ff" points="201.85,-66.87 191.55,-69.36 201.15,-73.83 201.85,-66.87"/>
</a>
</g>
</g>
<!-- Node11&#45;&gt;Node15 -->
<g id="edge17_Node000011_Node000015" class="edge">
<title>Node11&#45;&gt;Node15</title>
<g id="a_edge17_Node000011_Node000015"><a xlink:title=" ">
<path fill="none" stroke="#63b8ff" d="M761.53,-110.09C794.73,-100.27 847.47,-84.67 880.61,-74.87"/>
<polygon fill="#63b8ff" stroke="#63b8ff" points="881.4,-78.28 890,-72.09 879.42,-71.57 881.4,-78.28"/>
</a>
</g>
</g>
<!-- Node16&#45;&gt;Node4 -->
<g id="edge23_Node000016_Node000004" class="edge">
<title>Node16&#45;&gt;Node4</title>
<g id="a_edge23_Node000016_Node000004"><a xlink:title=" ">
<path fill="none" stroke="#63b8ff" d="M425.93,-226.07C397.65,-221.16 364.9,-210.01 347,-185 342.02,-178.04 343.29,-173.46 347,-165.75 357.86,-143.18 415.45,-102.84 448.55,-80.97"/>
<polygon fill="#63b8ff" stroke="#63b8ff" points="450.23,-84.05 456.68,-75.65 446.4,-78.2 450.23,-84.05"/>
</a>
</g>
</g>
<!-- Node16&#45;&gt;Node5 -->
<g id="edge41_Node000016_Node000005" class="edge">
<title>Node16&#45;&gt;Node5</title>
<g id="a_edge41_Node000016_Node000005"><a xlink:title=" ">
<path fill="none" stroke="#63b8ff" d="M425.77,-229.9C340.98,-229.2 178.75,-222.81 138,-185 95.07,-145.16 82.86,-104.21 115,-55.25 130.72,-31.31 162.33,-20.15 186.41,-14.99"/>
<polygon fill="#63b8ff" stroke="#63b8ff" points="186.85,-18.47 196.04,-13.18 185.56,-11.58 186.85,-18.47"/>
</a>
</g>
</g>
<!-- Node16&#45;&gt;Node6 -->
<g id="edge33_Node000016_Node000006" class="edge">
<title>Node16&#45;&gt;Node6</title>
<g id="a_edge33_Node000016_Node000006"><a xlink:title=" ">
<path fill="none" stroke="#63b8ff" d="M496.99,-220.57C511.2,-212.91 530.16,-200.67 542,-185 551.74,-172.1 557.37,-154.58 560.49,-141.15"/>
<polygon fill="#63b8ff" stroke="#63b8ff" points="563.85,-142.2 562.4,-131.7 556.99,-140.81 563.85,-142.2"/>
</a>
</g>
</g>
<!-- Node16&#45;&gt;Node11 -->
<g id="edge34_Node000016_Node000011" class="edge">
<title>Node16&#45;&gt;Node11</title>
<g id="a_edge34_Node000016_Node000011"><a xlink:title=" ">
<path fill="none" stroke="#63b8ff" d="M499.14,-220.56C543.6,-201.49 647,-157.15 699.38,-134.68"/>
<polygon fill="#63b8ff" stroke="#63b8ff" points="700.54,-137.99 708.36,-130.84 697.79,-131.56 700.54,-137.99"/>
</a>
</g>
</g>
<!-- Node16&#45;&gt;Node13 -->
<g id="edge39_Node000016_Node000013" class="edge">
<title>Node16&#45;&gt;Node13</title>
<g id="a_edge39_Node000016_Node000013"><a xlink:title=" ">
<path fill="none" stroke="#63b8ff" d="M529.98,-226.21C634.6,-219.04 863.35,-201.66 895,-185 938.62,-162.03 971.56,-111.97 987.11,-84.62"/>
<polygon fill="#63b8ff" stroke="#63b8ff" points="990.06,-86.52 991.8,-76.07 983.92,-83.15 990.06,-86.52"/>
</a>
</g>
</g>
<!-- Node16&#45;&gt;Node14 -->
<g id="edge42_Node000016_Node000014" class="edge">
<title>Node16&#45;&gt;Node14</title>
<g id="a_edge42_Node000016_Node000014"><a xlink:title=" ">
<path fill="none" stroke="#63b8ff" d="M425.87,-230.39C343.18,-230.37 187.77,-224.87 153,-185 129.05,-157.53 139.94,-111.48 149.08,-85.41"/>
<polygon fill="#63b8ff" stroke="#63b8ff" points="152.33,-86.69 152.6,-76.1 145.79,-84.21 152.33,-86.69"/>
</a>
</g>
</g>
<!-- Node16&#45;&gt;Node15 -->
<g id="edge43_Node000016_Node000015" class="edge">
<title>Node16&#45;&gt;Node15</title>
<g id="a_edge43_Node000016_Node000015"><a xlink:title=" ">
<path fill="none" stroke="#63b8ff" d="M530.09,-225.92C629.53,-218.51 839.14,-201.21 868,-185 895.13,-169.76 900.9,-159.18 911,-129.75 915.81,-115.75 915.6,-98.98 914.3,-86.14"/>
<polygon fill="#63b8ff" stroke="#63b8ff" points="917.79,-85.8 912.99,-76.35 910.85,-86.73 917.79,-85.8"/>
</a>
</g>
</g>
<!-- Node17 -->
<g id="Node000017" class="node">
<title>Node17</title>
<g id="a_Node000017"><a xlink:href="../../d9/dc5/_string_8hpp.html" target="_top" xlink:title=" ">
<polygon fill="white" stroke="#666666" points="262.38,-185 161.62,-185 161.62,-165.75 262.38,-165.75 262.38,-185"/>
<text text-anchor="middle" x="212" y="-171.5" font-family="Helvetica,sans-Serif" font-size="10.00">mimic++/String.hpp</text>
</a>
</g>
</g>
<!-- Node16&#45;&gt;Node17 -->
<g id="edge24_Node000016_Node000017" class="edge">
<title>Node16&#45;&gt;Node17</title>
<g id="a_edge24_Node000016_Node000017"><a xlink:title=" ">
<path fill="none" stroke="#63b8ff" d="M432.58,-220.53C387.15,-211.44 317.18,-197.43 268.26,-187.64"/>
<polygon fill="#63b8ff" stroke="#63b8ff" points="269.21,-184.26 258.72,-185.73 267.84,-191.12 269.21,-184.26"/>
</a>
</g>
</g>
<!-- Node16&#45;&gt;Node18 -->
<g id="edge36_Node000016_Node000018" class="edge">
<title>Node16&#45;&gt;Node18</title>
<g id="a_edge36_Node000016_Node000018"><a xlink:title=" ">
<path fill="none" stroke="#63b8ff" d="M425.99,-228.54C332.46,-225.81 140.21,-216.44 82,-185 63.02,-174.75 48.12,-154.65 39.01,-139.72"/>
<polygon fill="#63b8ff" stroke="#63b8ff" points="42.19,-138.23 34.18,-131.3 36.12,-141.71 42.19,-138.23"/>
</a>
</g>
</g>
<!-- Node16&#45;&gt;Node19 -->
<g id="edge38_Node000016_Node000019" class="edge">
<title>Node16&#45;&gt;Node19</title>
<g id="a_edge38_Node000016_Node000019"><a xlink:title=" ">
<path fill="none" stroke="#63b8ff" d="M507.98,-220.5C549.63,-207.89 627.39,-184.55 694,-165.75 739.6,-152.88 792.49,-138.81 826.09,-129.98"/>
<polygon fill="#63b8ff" stroke="#63b8ff" points="826.88,-133.39 835.66,-127.47 825.1,-126.62 826.88,-133.39"/>
</a>
</g>
</g>
<!-- Node20 -->
<g id="Node000020" class="node">
<title>Node20</title>
<g id="a_Node000020"><a xlink:title=" ">
<polygon fill="#e0e0e0" stroke="#999999" points="401.62,-185 356.38,-185 356.38,-165.75 401.62,-165.75 401.62,-185"/>
<text text-anchor="middle" x="379" y="-171.5" font-family="Helvetica,sans-Serif" font-size="10.00">cstdint</text>
</a>
</g>
</g>
<!-- Node16&#45;&gt;Node20 -->
<g id="edge35_Node000016_Node000020" class="edge">
<title>Node16&#45;&gt;Node20</title>
<g id="a_edge35_Node000016_Node000020"><a xlink:title=" ">
<path fill="none" stroke="#63b8ff" d="M461.21,-220.59C445.99,-212.41 423.3,-200.21 405.62,-190.69"/>
<polygon fill="#63b8ff" stroke="#63b8ff" points="407.67,-187.82 397.21,-186.17 404.36,-193.99 407.67,-187.82"/>
</a>
</g>
</g>
<!-- Node16&#45;&gt;Node21 -->
<g id="edge37_Node000016_Node000021" class="edge">
<title>Node16&#45;&gt;Node21</title>
<g id="a_edge37_Node000016_Node000021"><a xlink:title=" ">
<path fill="none" stroke="#63b8ff" d="M522.11,-220.57C564.83,-211.74 631.43,-197.8 689,-185 689.82,-184.82 690.65,-184.63 691.49,-184.44"/>
<polygon fill="#63b8ff" stroke="#63b8ff" points="692.08,-187.9 701.05,-182.26 690.52,-181.07 692.08,-187.9"/>
</a>
</g>
</g>
<!-- Node22 -->
<g id="Node000022" class="node">
<title>Node22</title>
<g id="a_Node000022"><a xlink:title=" ">
<polygon fill="#e0e0e0" stroke="#999999" points="470.62,-185 419.38,-185 419.38,-165.75 470.62,-165.75 470.62,-185"/>
<text text-anchor="middle" x="445" y="-171.5" font-family="Helvetica,sans-Serif" font-size="10.00">sstream</text>
</a>
</g>
</g>
<!-- Node16&#45;&gt;Node22 -->
<g id="edge40_Node000016_Node000022" class="edge">
<title>Node16&#45;&gt;Node22</title>
<g id="a_edge40_Node000016_Node000022"><a xlink:title=" ">
<path fill="none" stroke="#63b8ff" d="M472.55,-220.83C468.23,-213.86 462.04,-203.87 456.62,-195.12"/>
<polygon fill="#63b8ff" stroke="#63b8ff" points="459.61,-193.3 451.36,-186.65 453.66,-196.99 459.61,-193.3"/>
</a>
</g>
</g>
<!-- Node23 -->
<g id="Node000023" class="node">
<title>Node23</title>
<g id="a_Node000023"><a xlink:title=" ">
<polygon fill="#e0e0e0" stroke="#999999" points="532.88,-185 489.12,-185 489.12,-165.75 532.88,-165.75 532.88,-185"/>
<text text-anchor="middle" x="511" y="-171.5" font-family="Helvetica,sans-Serif" font-size="10.00">format</text>
</a>
</g>
</g>
<!-- Node16&#45;&gt;Node23 -->
<g id="edge44_Node000016_Node000023" class="edge">
<title>Node16&#45;&gt;Node23</title>
<g id="a_edge44_Node000016_Node000023"><a xlink:title=" ">
<path fill="none" stroke="#63b8ff" d="M483.45,-220.83C487.77,-213.86 493.96,-203.87 499.38,-195.12"/>
<polygon fill="#63b8ff" stroke="#63b8ff" points="502.34,-196.99 504.64,-186.65 496.39,-193.3 502.34,-196.99"/>
</a>
</g>
</g>
<!-- Node17&#45;&gt;Node4 -->
<g id="edge25_Node000017_Node000004" class="edge">
<title>Node17&#45;&gt;Node4</title>
<g id="a_edge25_Node000017_Node000004"><a xlink:title=" ">
<path fill="none" stroke="#63b8ff" d="M230.39,-165.48C261.95,-150.25 325.22,-119.92 348,-110.5 376.42,-98.74 409.18,-87.03 433.89,-78.56"/>
<polygon fill="#63b8ff" stroke="#63b8ff" points="434.86,-81.92 443.2,-75.39 432.6,-75.3 434.86,-81.92"/>
</a>
</g>
</g>
<!-- Node17&#45;&gt;Node5 -->
<g id="edge30_Node000017_Node000005" class="edge">
<title>Node17&#45;&gt;Node5</title>
<g id="a_edge30_Node000017_Node000005"><a xlink:title=" ">
<path fill="none" stroke="#63b8ff" d="M212.32,-165.57C213.25,-140.25 215.94,-66.75 217.26,-30.84"/>
<polygon fill="#63b8ff" stroke="#63b8ff" points="220.75,-31.11 217.62,-20.98 213.76,-30.85 220.75,-31.11"/>
</a>
</g>
</g>
<!-- Node17&#45;&gt;Node7 -->
<g id="edge27_Node000017_Node000007" class="edge">
<title>Node17&#45;&gt;Node7</title>
<g id="a_edge27_Node000017_Node000007"><a xlink:title=" ">
<path fill="none" stroke="#63b8ff" d="M217.65,-165.5C228.87,-147.85 254.18,-108.05 269.19,-84.45"/>
<polygon fill="#63b8ff" stroke="#63b8ff" points="272.05,-86.47 274.46,-76.15 266.14,-82.71 272.05,-86.47"/>
</a>
</g>
</g>
<!-- Node17&#45;&gt;Node10 -->
<g id="edge32_Node000017_Node000010" class="edge">
<title>Node17&#45;&gt;Node10</title>
<g id="a_edge32_Node000017_Node000010"><a xlink:title=" ">
<path fill="none" stroke="#63b8ff" d="M225.2,-165.31C252.22,-146.76 314.1,-104.26 347.55,-81.29"/>
<polygon fill="#63b8ff" stroke="#63b8ff" points="349.44,-84.24 355.7,-75.69 345.48,-78.47 349.44,-84.24"/>
</a>
</g>
</g>
<!-- Node17&#45;&gt;Node11 -->
<g id="edge26_Node000017_Node000011" class="edge">
<title>Node17&#45;&gt;Node11</title>
<g id="a_edge26_Node000017_Node000011"><a xlink:title=" ">
<path fill="none" stroke="#63b8ff" d="M262.71,-169.17C358.59,-159.33 566.11,-138.04 669.65,-127.42"/>
<polygon fill="#63b8ff" stroke="#63b8ff" points="669.75,-130.93 679.34,-126.43 669.04,-123.96 669.75,-130.93"/>
</a>
</g>
</g>
<!-- Node17&#45;&gt;Node14 -->
<g id="edge31_Node000017_Node000014" class="edge">
<title>Node17&#45;&gt;Node14</title>
<g id="a_edge31_Node000017_Node000014"><a xlink:title=" ">
<path fill="none" stroke="#63b8ff" d="M207.5,-165.5C198.64,-148.01 178.74,-108.77 166.74,-85.09"/>
<polygon fill="#63b8ff" stroke="#63b8ff" points="169.89,-83.56 162.25,-76.23 163.65,-86.73 169.89,-83.56"/>
</a>
</g>
</g>
<!-- Node17&#45;&gt;Node18 -->
<g id="edge28_Node000017_Node000018" class="edge">
<title>Node17&#45;&gt;Node18</title>
<g id="a_edge28_Node000017_Node000018"><a xlink:title=" ">
<path fill="none" stroke="#63b8ff" d="M180.96,-165.34C150.17,-156.38 102.87,-142.62 69.22,-132.83"/>
<polygon fill="#63b8ff" stroke="#63b8ff" points="70.41,-129.53 59.83,-130.1 68.45,-136.25 70.41,-129.53"/>
</a>
</g>
</g>
<!-- Node17&#45;&gt;Node19 -->
<g id="edge29_Node000017_Node000019" class="edge">
<title>Node17&#45;&gt;Node19</title>
<g id="a_edge29_Node000017_Node000019"><a xlink:title=" ">
<path fill="none" stroke="#63b8ff" d="M262.71,-171.24C363.36,-164.84 595.47,-149.23 790,-129.75 801.66,-128.58 814.4,-127.08 825.76,-125.66"/>
<polygon fill="#63b8ff" stroke="#63b8ff" points="826.04,-129.15 835.51,-124.42 825.15,-122.21 826.04,-129.15"/>
</a>
</g>
</g>
<!-- Node24&#45;&gt;Node3 -->
<g id="edge46_Node000024_Node000003" class="edge">
<title>Node24&#45;&gt;Node3</title>
<g id="a_edge46_Node000024_Node000003"><a xlink:title=" ">
<path fill="none" stroke="#63b8ff" d="M711.42,-275.83C677.01,-265.53 633.47,-246.72 653,-221 659.68,-212.21 715.64,-197.96 759.52,-187.93"/>
<polygon fill="#63b8ff" stroke="#63b8ff" points="760.21,-191.37 769.19,-185.75 758.67,-184.54 760.21,-191.37"/>
</a>
</g>
</g>
<!-- Node24&#45;&gt;Node4 -->
<g id="edge47_Node000024_Node000004" class="edge">
<title>Node24&#45;&gt;Node4</title>
<g id="a_edge47_Node000024_Node000004"><a xlink:title=" ">
<path fill="none" stroke="#63b8ff" d="M722.42,-275.81C700.86,-267.73 669.55,-254.94 644,-240.25 639.53,-237.68 498.07,-133.89 495,-129.75 485.31,-116.71 479.39,-99.2 475.98,-85.81"/>
<polygon fill="#63b8ff" stroke="#63b8ff" points="479.48,-85.38 473.86,-76.4 472.65,-86.92 479.48,-85.38"/>
</a>
</g>
</g>
<!-- Node24&#45;&gt;Node16 -->
<g id="edge48_Node000024_Node000016" class="edge">
<title>Node24&#45;&gt;Node16</title>
<g id="a_edge48_Node000024_Node000016"><a xlink:title=" ">
<path fill="none" stroke="#63b8ff" d="M701.89,-275.78C655.78,-266.69 584.76,-252.68 535.11,-242.89"/>
<polygon fill="#63b8ff" stroke="#63b8ff" points="535.89,-239.48 525.4,-240.97 534.54,-246.34 535.89,-239.48"/>
</a>
</g>
</g>
<!-- Node24&#45;&gt;Node18 -->
<g id="edge50_Node000024_Node000018" class="edge">
<title>Node24&#45;&gt;Node18</title>
<g id="a_edge50_Node000024_Node000018"><a xlink:title=" ">
<path fill="none" stroke="#63b8ff" d="M693.2,-283.88C547.34,-280.19 153.96,-263.05 55,-185 41.62,-174.45 35.08,-155.89 31.91,-141.48"/>
<polygon fill="#63b8ff" stroke="#63b8ff" points="35.37,-140.93 30.17,-131.69 28.48,-142.15 35.37,-140.93"/>
</a>
</g>
</g>
<!-- Node24&#45;&gt;Node19 -->
<g id="edge53_Node000024_Node000019" class="edge">
<title>Node24&#45;&gt;Node19</title>
<g id="a_edge53_Node000024_Node000019"><a xlink:title=" ">
<path fill="none" stroke="#63b8ff" d="M767.23,-275.95C795.68,-261.5 847.82,-230.01 868,-185 874.23,-171.1 871.56,-153.9 867.7,-140.85"/>
<polygon fill="#63b8ff" stroke="#63b8ff" points="871.11,-139.99 864.54,-131.68 864.49,-142.27 871.11,-139.99"/>
</a>
</g>
</g>
<!-- Node24&#45;&gt;Node21 -->
<g id="edge51_Node000024_Node000021" class="edge">
<title>Node24&#45;&gt;Node21</title>
<g id="a_edge51_Node000024_Node000021"><a xlink:title=" ">
<path fill="none" stroke="#63b8ff" d="M761.46,-275.95C777.8,-263.95 801.9,-241.7 791,-221 784.13,-207.94 771.51,-197.97 759.21,-190.8"/>
<polygon fill="#63b8ff" stroke="#63b8ff" points="760.9,-187.73 750.43,-186.13 757.62,-193.91 760.9,-187.73"/>
</a>
</g>
</g>
<!-- Node24&#45;&gt;Node25 -->
<g id="edge49_Node000024_Node000025" class="edge">
<title>Node24&#45;&gt;Node25</title>
<g id="a_edge49_Node000024_Node000025"><a xlink:title=" ">
<path fill="none" stroke="#63b8ff" d="M774.46,-275.84C799.79,-267.2 838.23,-254.07 866.67,-244.37"/>
<polygon fill="#63b8ff" stroke="#63b8ff" points="867.64,-247.73 875.97,-241.19 865.38,-241.11 867.64,-247.73"/>
</a>
</g>
</g>
<!-- Node24&#45;&gt;Node26 -->
<g id="edge52_Node000024_Node000026" class="edge">
<title>Node24&#45;&gt;Node26</title>
<g id="a_edge52_Node000024_Node000026"><a xlink:title=" ">
<path fill="none" stroke="#63b8ff" d="M793.25,-275.78C845.15,-265.35 929.19,-248.47 976.89,-238.88"/>
<polygon fill="#63b8ff" stroke="#63b8ff" points="977.32,-242.37 986.43,-236.96 975.94,-235.5 977.32,-242.37"/>
</a>
</g>
</g>
<!-- Node27 -->
<g id="Node000027" class="node">
<title>Node27</title>
<g id="a_Node000027"><a xlink:title=" ">
<polygon fill="#e0e0e0" stroke="#999999" points="718.25,-240.25 661.75,-240.25 661.75,-221 718.25,-221 718.25,-240.25"/>
<text text-anchor="middle" x="690" y="-226.75" font-family="Helvetica,sans-Serif" font-size="10.00">typeindex</text>
</a>
</g>
</g>
<!-- Node24&#45;&gt;Node27 -->
<g id="edge54_Node000024_Node000027" class="edge">
<title>Node24&#45;&gt;Node27</title>
<g id="a_edge54_Node000024_Node000027"><a xlink:title=" ">
<path fill="none" stroke="#63b8ff" d="M738.16,-275.84C729.95,-268.3 718.02,-257.35 708.09,-248.23"/>
<polygon fill="#63b8ff" stroke="#63b8ff" points="710.54,-245.73 700.81,-241.55 705.81,-250.89 710.54,-245.73"/>
</a>
</g>
</g>
<!-- Node28 -->
<g id="Node000028" class="node">
<title>Node28</title>
<g id="a_Node000028"><a xlink:title=" ">
<polygon fill="#e0e0e0" stroke="#999999" points="781.62,-240.25 736.38,-240.25 736.38,-221 781.62,-221 781.62,-240.25"/>
<text text-anchor="middle" x="759" y="-226.75" font-family="Helvetica,sans-Serif" font-size="10.00">variant</text>
</a>
</g>
</g>
<!-- Node24&#45;&gt;Node28 -->
<g id="edge55_Node000024_Node000028" class="edge">
<title>Node24&#45;&gt;Node28</title>
<g id="a_edge55_Node000024_Node000028"><a xlink:title=" ">
<path fill="none" stroke="#63b8ff" d="M749.82,-276.08C751.18,-269.49 753.1,-260.21 754.83,-251.82"/>
<polygon fill="#63b8ff" stroke="#63b8ff" points="758.24,-252.59 756.84,-242.09 751.39,-251.18 758.24,-252.59"/>
</a>
</g>
</g>
<!-- Node24&#45;&gt;Node29 -->
<g id="edge56_Node000024_Node000029" class="edge">
<title>Node24&#45;&gt;Node29</title>
<g id="a_edge56_Node000024_Node000029"><a xlink:title=" ">
<path fill="none" stroke="#63b8ff" d="M802.95,-278.88C860.82,-272.07 954.74,-259.64 1043.99,-240.68"/>
<polygon fill="#63b8ff" stroke="#63b8ff" points="1044.61,-244.13 1053.65,-238.59 1043.14,-237.28 1044.61,-244.13"/>
</a>
</g>
</g>
</g>
</svg>
