<?xml version="1.0" encoding="UTF-8" standalone="no"?>
<!DOCTYPE svg PUBLIC "-//W3C//DTD SVG 1.1//EN"
 "http://www.w3.org/Graphics/SVG/1.1/DTD/svg11.dtd">
<!-- Generated by graphviz version 12.1.2 (20240928.0832)
 -->
<!-- Title: mimic++/adapters/Catch2.hpp Pages: 1 -->
<!--zoomable 359 -->

<svg id="main" version="1.1" xmlns="http://www.w3.org/2000/svg" xmlns:xlink="http://www.w3.org/1999/xlink" xml:space="preserve" onload="init(evt)">

<style type="text/css"><![CDATA[
.node, .edge {opacity: 0.7;}
.node.selected, .edge.selected {opacity: 1;}
.edge:hover path { stroke: red; }
.edge:hover polygon { stroke: red; fill: red; }
]]></style>

<defs>
  <circle id="rim" cx="0" cy="0" r="7"/>
  <circle id="rim2" cx="0" cy="0" r="3.5"/>
  <g id="zoomPlus">
    <use xlink:href="#rim" fill="#404040"><set attributeName="fill" to="#808080" begin="zoomplus.mouseover" end="zoomplus.mouseout"/></use>
    <path d="M-4,0h8M0,-4v8" fill="none" stroke="white" stroke-width="1.5" pointer-events="none"/>
  </g>
  <g id="zoomMin">
    <use xlink:href="#rim" fill="#404040"><set attributeName="fill" to="#808080" begin="zoomminus.mouseover" end="zoomminus.mouseout"/></use>
    <path d="M-4,0h8" fill="none" stroke="white" stroke-width="1.5" pointer-events="none"/>
  </g>
  <g id="arrowUp" transform="translate(30 24)">
    <use xlink:href="#rim"/>
    <path pointer-events="none" fill="none" stroke="white" stroke-width="1.5" d="M0,-3.0v7 M-2.5,-0.5L0,-3.0L2.5,-0.5"/>
  </g>
  <g id="arrowRight" transform="rotate(90) translate(36 -43)">
    <use xlink:href="#rim"/>
    <path pointer-events="none" fill="none" stroke="white" stroke-width="1.5" d="M0,-3.0v7 M-2.5,-0.5L0,-3.0L2.5,-0.5"/>
  </g>
  <g id="arrowDown" transform="rotate(180) translate(-30 -48)">
    <use xlink:href="#rim"/>
    <path pointer-events="none" fill="none" stroke="white" stroke-width="1.5" d="M0,-3.0v7 M-2.5,-0.5L0,-3.0L2.5,-0.5"/>
  </g>
  <g id="arrowLeft" transform="rotate(270) translate(-36 17)">
    <use xlink:href="#rim"/>
    <path pointer-events="none" fill="none" stroke="white" stroke-width="1.5" d="M0,-3.0v7 M-2.5,-0.5L0,-3.0L2.5,-0.5"/>
  </g>
  <g id="resetDef">
    <use xlink:href="#rim2" fill="#404040"><set attributeName="fill" to="#808080" begin="reset.mouseover" end="reset.mouseout"/></use>
  </g>
</defs>
<script type="application/ecmascript">
var viewWidth = 1016;
var viewHeight = 359;
var sectionId = 'dynsection-0';
</script>
<script type="application/ecmascript" xlink:href="../../svg.min.js"/>
<svg id="graph" class="graph">
<g id="viewport">
<title>mimic++/adapters/Catch2.hpp</title>
<!-- Node1 -->
<g id="Node000001" class="node">
<title>Node1</title>
<g id="a_Node000001"><a xlink:title=" ">
<polygon fill="#999999" stroke="#666666" points="593.23,-350.75 446.73,-350.75 446.73,-331.5 593.23,-331.5 593.23,-350.75"/>
<text text-anchor="middle" x="519.98" y="-337.25" font-family="Helvetica,sans-Serif" font-size="10.00">mimic++/adapters/Catch2.hpp</text>
</a>
</g>
</g>
<!-- Node2 -->
<g id="Node000002" class="node">
<title>Node2</title>
<g id="a_Node000002"><a xlink:href="../../da/dd9/_reporter_8hpp.html" target="_top" xlink:title=" ">
<polygon fill="white" stroke="#666666" points="792.98,-295.5 680.98,-295.5 680.98,-276.25 792.98,-276.25 792.98,-295.5"/>
<text text-anchor="middle" x="736.98" y="-282" font-family="Helvetica,sans-Serif" font-size="10.00">mimic++/Reporter.hpp</text>
</a>
</g>
</g>
<!-- Node1&#45;&gt;Node2 -->
<g id="edge1_Node000001_Node000002" class="edge">
<title>Node1&#45;&gt;Node2</title>
<g id="a_edge1_Node000001_Node000002"><a xlink:title=" ">
<path fill="none" stroke="#63b8ff" d="M556.79,-331.09C593.19,-322.16 649.07,-308.45 688.94,-298.66"/>
<polygon fill="#63b8ff" stroke="#63b8ff" points="689.64,-302.1 698.52,-296.31 687.97,-295.3 689.64,-302.1"/>
</a>
</g>
</g>
<!-- Node14 -->
<g id="Node000014" class="node">
<title>Node14</title>
<g id="a_Node000014"><a xlink:title=" ">
<polygon fill="#e0e0e0" stroke="#999999" points="388.98,-129.75 342.98,-129.75 342.98,-110.5 388.98,-110.5 388.98,-129.75"/>
<text text-anchor="middle" x="365.98" y="-116.25" font-family="Helvetica,sans-Serif" font-size="10.00">iterator</text>
</a>
</g>
</g>
<!-- Node1&#45;&gt;Node14 -->
<g id="edge47_Node000001_Node000014" class="edge">
<title>Node1&#45;&gt;Node14</title>
<g id="a_edge47_Node000001_Node000014"><a xlink:title=" ">
<path fill="none" stroke="#63b8ff" d="M503.15,-331.09C467.18,-310.69 383.58,-257.19 351.98,-185 345.71,-170.68 350.24,-153.29 355.76,-140.27"/>
<polygon fill="#63b8ff" stroke="#63b8ff" points="358.79,-142.04 359.96,-131.51 352.48,-139.01 358.79,-142.04"/>
</a>
</g>
</g>
<!-- Node3 -->
<g id="Node000003" class="node">
<title>Node3</title>
<g id="a_Node000003"><a xlink:href="../../dc/d44/_call_8hpp.html" target="_top" xlink:title=" ">
<polygon fill="white" stroke="#666666" points="748.86,-185 657.11,-185 657.11,-165.75 748.86,-165.75 748.86,-185"/>
<text text-anchor="middle" x="702.98" y="-171.5" font-family="Helvetica,sans-Serif" font-size="10.00">mimic++/Call.hpp</text>
</a>
</g>
</g>
<!-- Node2&#45;&gt;Node3 -->
<g id="edge2_Node000002_Node000003" class="edge">
<title>Node2&#45;&gt;Node3</title>
<g id="a_edge2_Node000002_Node000003"><a xlink:title=" ">
<path fill="none" stroke="#63b8ff" d="M734.19,-275.99C731.37,-266.98 726.87,-252.65 722.98,-240.25 718.35,-225.46 713.11,-208.74 709.16,-196.12"/>
<polygon fill="#63b8ff" stroke="#63b8ff" points="712.61,-195.41 706.28,-186.92 705.93,-197.51 712.61,-195.41"/>
</a>
</g>
</g>
<!-- Node4 -->
<g id="Node000004" class="node">
<title>Node4</title>
<g id="a_Node000004"><a xlink:href="../../df/dde/_fwd_8hpp.html" target="_top" xlink:title=" ">
<polygon fill="white" stroke="#666666" points="733.98,-74.5 639.98,-74.5 639.98,-55.25 733.98,-55.25 733.98,-74.5"/>
<text text-anchor="middle" x="686.98" y="-61" font-family="Helvetica,sans-Serif" font-size="10.00">mimic++/Fwd.hpp</text>
</a>
</g>
</g>
<!-- Node2&#45;&gt;Node4 -->
<g id="edge16_Node000002_Node000004" class="edge">
<title>Node2&#45;&gt;Node4</title>
<g id="a_edge16_Node000002_Node000004"><a xlink:title=" ">
<path fill="none" stroke="#63b8ff" d="M793.2,-280.03C881.68,-270.03 1038.53,-241.33 988.98,-165.75 961.88,-124.4 824.91,-92.03 745.05,-76.31"/>
<polygon fill="#63b8ff" stroke="#63b8ff" points="746.15,-72.95 735.67,-74.49 744.82,-79.83 746.15,-72.95"/>
</a>
</g>
</g>
<!-- Node9 -->
<g id="Node000009" class="node">
<title>Node9</title>
<g id="a_Node000009"><a xlink:title=" ">
<polygon fill="#e0e0e0" stroke="#999999" points="833.11,-74.5 784.86,-74.5 784.86,-55.25 833.11,-55.25 833.11,-74.5"/>
<text text-anchor="middle" x="808.98" y="-61" font-family="Helvetica,sans-Serif" font-size="10.00">cassert</text>
</a>
</g>
</g>
<!-- Node2&#45;&gt;Node9 -->
<g id="edge40_Node000002_Node000009" class="edge">
<title>Node2&#45;&gt;Node9</title>
<g id="a_edge40_Node000002_Node000009"><a xlink:title=" ">
<path fill="none" stroke="#63b8ff" d="M793.25,-281.3C857.78,-276.12 958.36,-264.36 986.98,-240.25 1006.95,-223.43 1002.47,-210.72 1006.98,-185 1015.55,-136.18 967.98,-133.33 923.98,-110.5 898.17,-97.1 867.39,-85.37 844.17,-77.29"/>
<polygon fill="#63b8ff" stroke="#63b8ff" points="845.46,-74.04 834.87,-74.12 843.2,-80.66 845.46,-74.04"/>
</a>
</g>
</g>
<!-- Node12 -->
<g id="Node000012" class="node">
<title>Node12</title>
<g id="a_Node000012"><a xlink:href="../../da/dab/_printer_8hpp.html" target="_top" xlink:title=" ">
<polygon fill="white" stroke="#666666" points="274.86,-185 171.11,-185 171.11,-165.75 274.86,-165.75 274.86,-185"/>
<text text-anchor="middle" x="222.98" y="-171.5" font-family="Helvetica,sans-Serif" font-size="10.00">mimic++/Printer.hpp</text>
</a>
</g>
</g>
<!-- Node2&#45;&gt;Node12 -->
<g id="edge17_Node000002_Node000012" class="edge">
<title>Node2&#45;&gt;Node12</title>
<g id="a_edge17_Node000002_Node000012"><a xlink:title=" ">
<path fill="none" stroke="#63b8ff" d="M680.59,-281.81C583.97,-276.04 391,-262.15 326.98,-240.25 295.25,-229.4 263.01,-207.55 243.01,-192.45"/>
<polygon fill="#63b8ff" stroke="#63b8ff" points="245.23,-189.74 235.18,-186.39 240.94,-195.28 245.23,-189.74"/>
</a>
</g>
</g>
<!-- Node13 -->
<g id="Node000013" class="node">
<title>Node13</title>
<g id="a_Node000013"><a xlink:title=" ">
<polygon fill="#e0e0e0" stroke="#999999" points="464.98,-129.75 406.98,-129.75 406.98,-110.5 464.98,-110.5 464.98,-129.75"/>
<text text-anchor="middle" x="435.98" y="-116.25" font-family="Helvetica,sans-Serif" font-size="10.00">functional</text>
</a>
</g>
</g>
<!-- Node2&#45;&gt;Node13 -->
<g id="edge42_Node000002_Node000013" class="edge">
<title>Node2&#45;&gt;Node13</title>
<g id="a_edge42_Node000002_Node000013"><a xlink:title=" ">
<path fill="none" stroke="#63b8ff" d="M680.77,-278.88C584.71,-267.28 395.83,-238.1 359.98,-185 345.79,-163.97 373.05,-146 398.79,-134.53"/>
<polygon fill="#63b8ff" stroke="#63b8ff" points="399.95,-137.84 407.83,-130.75 397.25,-131.38 399.95,-137.84"/>
</a>
</g>
</g>
<!-- Node18 -->
<g id="Node000018" class="node">
<title>Node18</title>
<g id="a_Node000018"><a xlink:href="../../d0/d3b/_reports_8hpp.html" target="_top" xlink:title=" ">
<polygon fill="white" stroke="#666666" points="670.48,-240.25 561.48,-240.25 561.48,-221 670.48,-221 670.48,-240.25"/>
<text text-anchor="middle" x="615.98" y="-226.75" font-family="Helvetica,sans-Serif" font-size="10.00">mimic++/Reports.hpp</text>
</a>
</g>
</g>
<!-- Node2&#45;&gt;Node18 -->
<g id="edge27_Node000002_Node000018" class="edge">
<title>Node2&#45;&gt;Node18</title>
<g id="a_edge27_Node000002_Node000018"><a xlink:title=" ">
<path fill="none" stroke="#63b8ff" d="M716.46,-275.84C697.42,-267.47 668.83,-254.88 647.01,-245.28"/>
<polygon fill="#63b8ff" stroke="#63b8ff" points="648.56,-242.14 637.99,-241.31 645.74,-248.54 648.56,-242.14"/>
</a>
</g>
</g>
<!-- Node19 -->
<g id="Node000019" class="node">
<title>Node19</title>
<g id="a_Node000019"><a xlink:title=" ">
<polygon fill="#e0e0e0" stroke="#999999" points="424.86,-185 369.11,-185 369.11,-165.75 424.86,-165.75 424.86,-185"/>
<text text-anchor="middle" x="396.98" y="-171.5" font-family="Helvetica,sans-Serif" font-size="10.00">algorithm</text>
</a>
</g>
</g>
<!-- Node2&#45;&gt;Node19 -->
<g id="edge39_Node000002_Node000019" class="edge">
<title>Node2&#45;&gt;Node19</title>
<g id="a_edge39_Node000002_Node000019"><a xlink:title=" ">
<path fill="none" stroke="#63b8ff" d="M691.08,-275.75C653.53,-267.81 599.26,-255.24 552.98,-240.25 507.9,-225.65 457.45,-203.97 426.44,-190"/>
<polygon fill="#63b8ff" stroke="#63b8ff" points="428.26,-186.98 417.71,-186.03 425.37,-193.35 428.26,-186.98"/>
</a>
</g>
</g>
<!-- Node20 -->
<g id="Node000020" class="node">
<title>Node20</title>
<g id="a_Node000020"><a xlink:title=" ">
<polygon fill="#e0e0e0" stroke="#999999" points="854.86,-185 805.11,-185 805.11,-165.75 854.86,-165.75 854.86,-185"/>
<text text-anchor="middle" x="829.98" y="-171.5" font-family="Helvetica,sans-Serif" font-size="10.00">optional</text>
</a>
</g>
</g>
<!-- Node2&#45;&gt;Node20 -->
<g id="edge44_Node000002_Node000020" class="edge">
<title>Node2&#45;&gt;Node20</title>
<g id="a_edge44_Node000002_Node000020"><a xlink:title=" ">
<path fill="none" stroke="#63b8ff" d="M737.6,-276.12C738.93,-262.91 743.09,-237.65 755.98,-221 766.15,-207.86 781.38,-197.73 795.37,-190.48"/>
<polygon fill="#63b8ff" stroke="#63b8ff" points="796.88,-193.64 804.37,-186.14 793.85,-187.33 796.88,-193.64"/>
</a>
</g>
</g>
<!-- Node21 -->
<g id="Node000021" class="node">
<title>Node21</title>
<g id="a_Node000021"><a xlink:title=" ">
<polygon fill="#e0e0e0" stroke="#999999" points="918.61,-185 873.36,-185 873.36,-165.75 918.61,-165.75 918.61,-185"/>
<text text-anchor="middle" x="895.98" y="-171.5" font-family="Helvetica,sans-Serif" font-size="10.00">ranges</text>
</a>
</g>
</g>
<!-- Node2&#45;&gt;Node21 -->
<g id="edge45_Node000002_Node000021" class="edge">
<title>Node2&#45;&gt;Node21</title>
<g id="a_edge45_Node000002_Node000021"><a xlink:title=" ">
<path fill="none" stroke="#63b8ff" d="M793.35,-276.82C835.1,-269.56 886.9,-257.39 899.98,-240.25 909.47,-227.82 907.31,-209.74 903.45,-195.99"/>
<polygon fill="#63b8ff" stroke="#63b8ff" points="906.84,-195.08 900.35,-186.71 900.2,-197.3 906.84,-195.08"/>
</a>
</g>
</g>
<!-- Node24 -->
<g id="Node000024" class="node">
<title>Node24</title>
<g id="a_Node000024"><a xlink:title=" ">
<polygon fill="#e0e0e0" stroke="#999999" points="979.48,-185 936.48,-185 936.48,-165.75 979.48,-165.75 979.48,-185"/>
<text text-anchor="middle" x="957.98" y="-171.5" font-family="Helvetica,sans-Serif" font-size="10.00">vector</text>
</a>
</g>
</g>
<!-- Node2&#45;&gt;Node24 -->
<g id="edge46_Node000002_Node000024" class="edge">
<title>Node2&#45;&gt;Node24</title>
<g id="a_edge46_Node000002_Node000024"><a xlink:title=" ">
<path fill="none" stroke="#63b8ff" d="M793.43,-281.66C831.38,-277.07 880.86,-266.12 916.98,-240.25 932.54,-229.11 943.63,-210.06 950.33,-195.66"/>
<polygon fill="#63b8ff" stroke="#63b8ff" points="953.43,-197.3 954.16,-186.73 947,-194.54 953.43,-197.3"/>
</a>
</g>
</g>
<!-- Node25 -->
<g id="Node000025" class="node">
<title>Node25</title>
<g id="a_Node000025"><a xlink:title=" ">
<polygon fill="#e0e0e0" stroke="#999999" points="822.61,-240.25 765.36,-240.25 765.36,-221 822.61,-221 822.61,-240.25"/>
<text text-anchor="middle" x="793.98" y="-226.75" font-family="Helvetica,sans-Serif" font-size="10.00">exception</text>
</a>
</g>
</g>
<!-- Node2&#45;&gt;Node25 -->
<g id="edge41_Node000002_Node000025" class="edge">
<title>Node2&#45;&gt;Node25</title>
<g id="a_edge41_Node000002_Node000025"><a xlink:title=" ">
<path fill="none" stroke="#63b8ff" d="M746.65,-275.84C754.73,-268.3 766.45,-257.35 776.21,-248.23"/>
<polygon fill="#63b8ff" stroke="#63b8ff" points="778.43,-250.94 783.35,-241.56 773.65,-245.83 778.43,-250.94"/>
</a>
</g>
</g>
<!-- Node26 -->
<g id="Node000026" class="node">
<title>Node26</title>
<g id="a_Node000026"><a xlink:title=" ">
<polygon fill="#e0e0e0" stroke="#999999" points="891.23,-240.25 840.73,-240.25 840.73,-221 891.23,-221 891.23,-240.25"/>
<text text-anchor="middle" x="865.98" y="-226.75" font-family="Helvetica,sans-Serif" font-size="10.00">memory</text>
</a>
</g>
</g>
<!-- Node2&#45;&gt;Node26 -->
<g id="edge43_Node000002_Node000026" class="edge">
<title>Node2&#45;&gt;Node26</title>
<g id="a_edge43_Node000002_Node000026"><a xlink:title=" ">
<path fill="none" stroke="#63b8ff" d="M758.87,-275.84C779.34,-267.39 810.2,-254.65 833.54,-245.02"/>
<polygon fill="#63b8ff" stroke="#63b8ff" points="834.68,-248.33 842.59,-241.28 832.01,-241.86 834.68,-248.33"/>
</a>
</g>
</g>
<!-- Node3&#45;&gt;Node4 -->
<g id="edge3_Node000003_Node000004" class="edge">
<title>Node3&#45;&gt;Node4</title>
<g id="a_edge3_Node000003_Node000004"><a xlink:title=" ">
<path fill="none" stroke="#63b8ff" d="M701.67,-165.5C699.13,-148.25 693.46,-109.83 689.96,-86.06"/>
<polygon fill="#63b8ff" stroke="#63b8ff" points="693.45,-85.76 688.53,-76.37 686.53,-86.78 693.45,-85.76"/>
</a>
</g>
</g>
<!-- Node6 -->
<g id="Node000006" class="node">
<title>Node6</title>
<g id="a_Node000006"><a xlink:href="../../d8/d32/_type_traits_8hpp.html" target="_top" xlink:title=" ">
<polygon fill="white" stroke="#666666" points="836.48,-129.75 715.48,-129.75 715.48,-110.5 836.48,-110.5 836.48,-129.75"/>
<text text-anchor="middle" x="775.98" y="-116.25" font-family="Helvetica,sans-Serif" font-size="10.00">mimic++/TypeTraits.hpp</text>
</a>
</g>
</g>
<!-- Node3&#45;&gt;Node6 -->
<g id="edge5_Node000003_Node000006" class="edge">
<title>Node3&#45;&gt;Node6</title>
<g id="a_edge5_Node000003_Node000006"><a xlink:title=" ">
<path fill="none" stroke="#63b8ff" d="M715.37,-165.34C726.13,-157.49 741.95,-145.95 754.73,-136.62"/>
<polygon fill="#63b8ff" stroke="#63b8ff" points="756.54,-139.64 762.56,-130.92 752.42,-133.98 756.54,-139.64"/>
</a>
</g>
</g>
<!-- Node7 -->
<g id="Node000007" class="node">
<title>Node7</title>
<g id="a_Node000007"><a xlink:title=" ">
<polygon fill="#e0e0e0" stroke="#999999" points="904.48,-74.5 867.48,-74.5 867.48,-55.25 904.48,-55.25 904.48,-74.5"/>
<text text-anchor="middle" x="885.98" y="-61" font-family="Helvetica,sans-Serif" font-size="10.00">tuple</text>
</a>
</g>
</g>
<!-- Node3&#45;&gt;Node7 -->
<g id="edge14_Node000003_Node000007" class="edge">
<title>Node3&#45;&gt;Node7</title>
<g id="a_edge14_Node000003_Node000007"><a xlink:title=" ">
<path fill="none" stroke="#63b8ff" d="M749.32,-168.39C779.37,-162.59 817.97,-151.35 845.98,-129.75 861.03,-118.15 871.87,-99.16 878.44,-84.9"/>
<polygon fill="#63b8ff" stroke="#63b8ff" points="881.49,-86.67 882.2,-76.09 875.06,-83.92 881.49,-86.67"/>
</a>
</g>
</g>
<!-- Node8 -->
<g id="Node000008" class="node">
<title>Node8</title>
<g id="a_Node000008"><a xlink:href="../../d4/d2c/_utility_8hpp.html" target="_top" xlink:title=" ">
<polygon fill="white" stroke="#666666" points="658.98,-129.75 558.98,-129.75 558.98,-110.5 658.98,-110.5 658.98,-129.75"/>
<text text-anchor="middle" x="608.98" y="-116.25" font-family="Helvetica,sans-Serif" font-size="10.00">mimic++/Utility.hpp</text>
</a>
</g>
</g>
<!-- Node3&#45;&gt;Node8 -->
<g id="edge8_Node000003_Node000008" class="edge">
<title>Node3&#45;&gt;Node8</title>
<g id="a_edge8_Node000003_Node000008"><a xlink:title=" ">
<path fill="none" stroke="#63b8ff" d="M687.04,-165.34C672.72,-157.23 651.45,-145.18 634.73,-135.71"/>
<polygon fill="#63b8ff" stroke="#63b8ff" points="636.75,-132.83 626.32,-130.95 633.3,-138.92 636.75,-132.83"/>
</a>
</g>
</g>
<!-- Node10 -->
<g id="Node000010" class="node">
<title>Node10</title>
<g id="a_Node000010"><a xlink:title=" ">
<polygon fill="#e0e0e0" stroke="#999999" points="514.11,-74.5 429.86,-74.5 429.86,-55.25 514.11,-55.25 514.11,-74.5"/>
<text text-anchor="middle" x="471.98" y="-61" font-family="Helvetica,sans-Serif" font-size="10.00">source_location</text>
</a>
</g>
</g>
<!-- Node3&#45;&gt;Node10 -->
<g id="edge13_Node000003_Node000010" class="edge">
<title>Node3&#45;&gt;Node10</title>
<g id="a_edge13_Node000003_Node000010"><a xlink:title=" ">
<path fill="none" stroke="#63b8ff" d="M660.54,-165.32C619.2,-156.06 559.67,-141.42 538.98,-129.75 517.85,-117.83 498.35,-97.76 485.9,-83.3"/>
<polygon fill="#63b8ff" stroke="#63b8ff" points="488.84,-81.36 479.76,-75.91 483.46,-85.83 488.84,-81.36"/>
</a>
</g>
</g>
<!-- Node11 -->
<g id="Node000011" class="node">
<title>Node11</title>
<g id="a_Node000011"><a xlink:title=" ">
<polygon fill="#e0e0e0" stroke="#999999" points="570.23,-74.5 531.73,-74.5 531.73,-55.25 570.23,-55.25 570.23,-74.5"/>
<text text-anchor="middle" x="550.98" y="-61" font-family="Helvetica,sans-Serif" font-size="10.00">utility</text>
</a>
</g>
</g>
<!-- Node3&#45;&gt;Node11 -->
<g id="edge15_Node000003_Node000011" class="edge">
<title>Node3&#45;&gt;Node11</title>
<g id="a_edge15_Node000003_Node000011"><a xlink:title=" ">
<path fill="none" stroke="#63b8ff" d="M656.72,-167.1C616.57,-159.73 562.89,-146.96 549.98,-129.75 540.71,-117.39 541.83,-99.56 544.77,-85.88"/>
<polygon fill="#63b8ff" stroke="#63b8ff" points="548.15,-86.78 547.35,-76.22 541.39,-84.97 548.15,-86.78"/>
</a>
</g>
</g>
<!-- Node5 -->
<g id="Node000005" class="node">
<title>Node5</title>
<g id="a_Node000005"><a xlink:title=" ">
<polygon fill="#e0e0e0" stroke="#999999" points="355.98,-19.25 315.98,-19.25 315.98,0 355.98,0 355.98,-19.25"/>
<text text-anchor="middle" x="335.98" y="-5.75" font-family="Helvetica,sans-Serif" font-size="10.00">string</text>
</a>
</g>
</g>
<!-- Node4&#45;&gt;Node5 -->
<g id="edge4_Node000004_Node000005" class="edge">
<title>Node4&#45;&gt;Node5</title>
<g id="a_edge4_Node000004_Node000005"><a xlink:title=" ">
<path fill="none" stroke="#63b8ff" d="M639.64,-56.69C566.84,-45.65 429.34,-24.79 367.5,-15.41"/>
<polygon fill="#63b8ff" stroke="#63b8ff" points="368.1,-11.96 357.68,-13.92 367.05,-18.88 368.1,-11.96"/>
</a>
</g>
</g>
<!-- Node6&#45;&gt;Node4 -->
<g id="edge6_Node000006_Node000004" class="edge">
<title>Node6&#45;&gt;Node4</title>
<g id="a_edge6_Node000006_Node000004"><a xlink:title=" ">
<path fill="none" stroke="#63b8ff" d="M760.88,-110.09C747.46,-102.06 727.57,-90.16 711.81,-80.73"/>
<polygon fill="#63b8ff" stroke="#63b8ff" points="713.83,-77.86 703.45,-75.73 710.24,-83.87 713.83,-77.86"/>
</a>
</g>
</g>
<!-- Node6&#45;&gt;Node7 -->
<g id="edge7_Node000006_Node000007" class="edge">
<title>Node6&#45;&gt;Node7</title>
<g id="a_edge7_Node000006_Node000007"><a xlink:title=" ">
<path fill="none" stroke="#63b8ff" d="M794.64,-110.09C811.71,-101.83 837.23,-89.48 856.96,-79.93"/>
<polygon fill="#63b8ff" stroke="#63b8ff" points="858.39,-83.12 865.87,-75.61 855.34,-76.82 858.39,-83.12"/>
</a>
</g>
</g>
<!-- Node8&#45;&gt;Node4 -->
<g id="edge9_Node000008_Node000004" class="edge">
<title>Node8&#45;&gt;Node4</title>
<g id="a_edge9_Node000008_Node000004"><a xlink:title=" ">
<path fill="none" stroke="#63b8ff" d="M622.21,-110.09C633.76,-102.21 650.75,-90.61 664.43,-81.27"/>
<polygon fill="#63b8ff" stroke="#63b8ff" points="666.15,-84.33 672.44,-75.81 662.2,-78.55 666.15,-84.33"/>
</a>
</g>
</g>
<!-- Node8&#45;&gt;Node9 -->
<g id="edge10_Node000008_Node000009" class="edge">
<title>Node8&#45;&gt;Node9</title>
<g id="a_edge10_Node000008_Node000009"><a xlink:title=" ">
<path fill="none" stroke="#63b8ff" d="M642.91,-110.09C679.27,-100.41 736.72,-85.11 773.62,-75.29"/>
<polygon fill="#63b8ff" stroke="#63b8ff" points="774.15,-78.77 782.91,-72.82 772.34,-72.01 774.15,-78.77"/>
</a>
</g>
</g>
<!-- Node8&#45;&gt;Node10 -->
<g id="edge11_Node000008_Node000010" class="edge">
<title>Node8&#45;&gt;Node10</title>
<g id="a_edge11_Node000008_Node000010"><a xlink:title=" ">
<path fill="none" stroke="#63b8ff" d="M585.74,-110.09C563.8,-101.56 530.63,-88.67 505.77,-79.01"/>
<polygon fill="#63b8ff" stroke="#63b8ff" points="507.34,-75.86 496.75,-75.5 504.8,-82.39 507.34,-75.86"/>
</a>
</g>
</g>
<!-- Node8&#45;&gt;Node11 -->
<g id="edge12_Node000008_Node000011" class="edge">
<title>Node8&#45;&gt;Node11</title>
<g id="a_edge12_Node000008_Node000011"><a xlink:title=" ">
<path fill="none" stroke="#63b8ff" d="M599.14,-110.09C590.93,-102.55 579,-91.6 569.07,-82.48"/>
<polygon fill="#63b8ff" stroke="#63b8ff" points="571.52,-79.98 561.79,-75.8 566.79,-85.14 571.52,-79.98"/>
</a>
</g>
</g>
<!-- Node12&#45;&gt;Node4 -->
<g id="edge18_Node000012_Node000004" class="edge">
<title>Node12&#45;&gt;Node4</title>
<g id="a_edge18_Node000012_Node000004"><a xlink:title=" ">
<path fill="none" stroke="#63b8ff" d="M238.67,-165.3C268.97,-147.77 332.7,-110.93 333.98,-110.5 387.17,-92.64 542.61,-77.66 628.41,-70.46"/>
<polygon fill="#63b8ff" stroke="#63b8ff" points="628.6,-73.96 638.28,-69.64 628.02,-66.98 628.6,-73.96"/>
</a>
</g>
</g>
<!-- Node12&#45;&gt;Node5 -->
<g id="edge23_Node000012_Node000005" class="edge">
<title>Node12&#45;&gt;Node5</title>
<g id="a_edge23_Node000012_Node000005"><a xlink:title=" ">
<path fill="none" stroke="#63b8ff" d="M170.71,-171.15C112.73,-166.36 24.63,-155.03 3.98,-129.75 -1.43,-123.12 -1.12,-117.37 3.98,-110.5 40.54,-61.32 228.96,-27.19 304.55,-15.28"/>
<polygon fill="#63b8ff" stroke="#63b8ff" points="304.83,-18.78 314.18,-13.79 303.76,-11.86 304.83,-18.78"/>
</a>
</g>
</g>
<!-- Node12&#45;&gt;Node10 -->
<g id="edge21_Node000012_Node000010" class="edge">
<title>Node12&#45;&gt;Node10</title>
<g id="a_edge21_Node000012_Node000010"><a xlink:title=" ">
<path fill="none" stroke="#63b8ff" d="M186.27,-165.27C150.38,-154.68 104.08,-135.41 125.98,-110.5 144.94,-88.94 325.68,-74.83 418.11,-68.97"/>
<polygon fill="#63b8ff" stroke="#63b8ff" points="418.19,-72.47 427.95,-68.36 417.76,-65.48 418.19,-72.47"/>
</a>
</g>
</g>
<!-- Node12&#45;&gt;Node11 -->
<g id="edge25_Node000012_Node000011" class="edge">
<title>Node12&#45;&gt;Node11</title>
<g id="a_edge25_Node000012_Node000011"><a xlink:title=" ">
<path fill="none" stroke="#63b8ff" d="M230.63,-165.66C243.58,-151.54 271.3,-123.88 300.98,-110.5 388.82,-70.91 423.15,-95.34 520.3,-74.76"/>
<polygon fill="#63b8ff" stroke="#63b8ff" points="521.03,-78.19 530.02,-72.59 519.49,-71.36 521.03,-78.19"/>
</a>
</g>
</g>
<!-- Node12&#45;&gt;Node13 -->
<g id="edge19_Node000012_Node000013" class="edge">
<title>Node12&#45;&gt;Node13</title>
<g id="a_edge19_Node000012_Node000013"><a xlink:title=" ">
<path fill="none" stroke="#63b8ff" d="M259.11,-165.34C296.92,-155.89 356.15,-141.08 395.51,-131.24"/>
<polygon fill="#63b8ff" stroke="#63b8ff" points="396.22,-134.67 405.08,-128.85 394.53,-127.88 396.22,-134.67"/>
</a>
</g>
</g>
<!-- Node12&#45;&gt;Node14 -->
<g id="edge20_Node000012_Node000014" class="edge">
<title>Node12&#45;&gt;Node14</title>
<g id="a_edge20_Node000012_Node000014"><a xlink:title=" ">
<path fill="none" stroke="#63b8ff" d="M247.24,-165.34C270.53,-156.67 305.92,-143.49 332.01,-133.78"/>
<polygon fill="#63b8ff" stroke="#63b8ff" points="332.99,-137.15 341.14,-130.38 330.55,-130.59 332.99,-137.15"/>
</a>
</g>
</g>
<!-- Node15 -->
<g id="Node000015" class="node">
<title>Node15</title>
<g id="a_Node000015"><a xlink:title=" ">
<polygon fill="#e0e0e0" stroke="#999999" points="248.61,-129.75 197.36,-129.75 197.36,-110.5 248.61,-110.5 248.61,-129.75"/>
<text text-anchor="middle" x="222.98" y="-116.25" font-family="Helvetica,sans-Serif" font-size="10.00">sstream</text>
</a>
</g>
</g>
<!-- Node12&#45;&gt;Node15 -->
<g id="edge22_Node000012_Node000015" class="edge">
<title>Node12&#45;&gt;Node15</title>
<g id="a_edge22_Node000012_Node000015"><a xlink:title=" ">
<path fill="none" stroke="#63b8ff" d="M222.98,-165.58C222.98,-159.07 222.98,-149.92 222.98,-141.62"/>
<polygon fill="#63b8ff" stroke="#63b8ff" points="226.48,-141.62 222.98,-131.62 219.48,-141.62 226.48,-141.62"/>
</a>
</g>
</g>
<!-- Node16 -->
<g id="Node000016" class="node">
<title>Node16</title>
<g id="a_Node000016"><a xlink:title=" ">
<polygon fill="#e0e0e0" stroke="#999999" points="78.73,-129.75 13.23,-129.75 13.23,-110.5 78.73,-110.5 78.73,-129.75"/>
<text text-anchor="middle" x="45.98" y="-116.25" font-family="Helvetica,sans-Serif" font-size="10.00">string_view</text>
</a>
</g>
</g>
<!-- Node12&#45;&gt;Node16 -->
<g id="edge24_Node000012_Node000016" class="edge">
<title>Node12&#45;&gt;Node16</title>
<g id="a_edge24_Node000012_Node000016"><a xlink:title=" ">
<path fill="none" stroke="#63b8ff" d="M192.96,-165.34C163.84,-156.58 119.44,-143.23 87.06,-133.48"/>
<polygon fill="#63b8ff" stroke="#63b8ff" points="88.19,-130.17 77.6,-130.64 86.17,-136.87 88.19,-130.17"/>
</a>
</g>
</g>
<!-- Node17 -->
<g id="Node000017" class="node">
<title>Node17</title>
<g id="a_Node000017"><a xlink:title=" ">
<polygon fill="#e0e0e0" stroke="#999999" points="178.86,-129.75 135.11,-129.75 135.11,-110.5 178.86,-110.5 178.86,-129.75"/>
<text text-anchor="middle" x="156.98" y="-116.25" font-family="Helvetica,sans-Serif" font-size="10.00">format</text>
</a>
</g>
</g>
<!-- Node12&#45;&gt;Node17 -->
<g id="edge26_Node000012_Node000017" class="edge">
<title>Node12&#45;&gt;Node17</title>
<g id="a_edge26_Node000012_Node000017"><a xlink:title=" ">
<path fill="none" stroke="#63b8ff" d="M211.79,-165.34C202.25,-157.65 188.31,-146.4 176.88,-137.18"/>
<polygon fill="#63b8ff" stroke="#63b8ff" points="179.17,-134.53 169.19,-130.98 174.78,-139.98 179.17,-134.53"/>
</a>
</g>
</g>
<!-- Node18&#45;&gt;Node3 -->
<g id="edge28_Node000018_Node000003" class="edge">
<title>Node18&#45;&gt;Node3</title>
<g id="a_edge28_Node000018_Node000003"><a xlink:title=" ">
<path fill="none" stroke="#63b8ff" d="M630.74,-220.59C643.86,-212.56 663.3,-200.66 678.71,-191.23"/>
<polygon fill="#63b8ff" stroke="#63b8ff" points="680.16,-194.45 686.86,-186.24 676.5,-188.48 680.16,-194.45"/>
</a>
</g>
</g>
<!-- Node18&#45;&gt;Node4 -->
<g id="edge29_Node000018_Node000004" class="edge">
<title>Node18&#45;&gt;Node4</title>
<g id="a_edge29_Node000018_Node000004"><a xlink:title=" ">
<path fill="none" stroke="#63b8ff" d="M654.04,-220.51C683.21,-212.85 724.08,-200.65 757.98,-185 768.46,-180.16 840.4,-139.85 845.98,-129.75 850.12,-122.26 851.15,-117.32 845.98,-110.5 833.62,-94.19 785.61,-82.2 745.55,-74.77"/>
<polygon fill="#63b8ff" stroke="#63b8ff" points="746.18,-71.33 735.72,-73.02 744.95,-78.22 746.18,-71.33"/>
</a>
</g>
</g>
<!-- Node18&#45;&gt;Node12 -->
<g id="edge30_Node000018_Node000012" class="edge">
<title>Node18&#45;&gt;Node12</title>
<g id="a_edge30_Node000018_Node000012"><a xlink:title=" ">
<path fill="none" stroke="#63b8ff" d="M561.34,-222.22C489.32,-212.46 362.86,-195.33 286.62,-185"/>
<polygon fill="#63b8ff" stroke="#63b8ff" points="287.16,-181.54 276.78,-183.66 286.22,-188.48 287.16,-181.54"/>
</a>
</g>
</g>
<!-- Node18&#45;&gt;Node13 -->
<g id="edge32_Node000018_Node000013" class="edge">
<title>Node18&#45;&gt;Node13</title>
<g id="a_edge32_Node000018_Node000013"><a xlink:title=" ">
<path fill="none" stroke="#63b8ff" d="M608.17,-220.7C596.01,-207.27 571.31,-181.72 545.98,-165.75 524.31,-152.08 497.74,-141.17 476.15,-133.55"/>
<polygon fill="#63b8ff" stroke="#63b8ff" points="477.39,-130.28 466.79,-130.36 475.13,-136.9 477.39,-130.28"/>
</a>
</g>
</g>
<!-- Node18&#45;&gt;Node14 -->
<g id="edge33_Node000018_Node000014" class="edge">
<title>Node18&#45;&gt;Node14</title>
<g id="a_edge33_Node000018_Node000014"><a xlink:title=" ">
<path fill="none" stroke="#63b8ff" d="M578.08,-220.57C548.5,-212.86 506.73,-200.58 471.98,-185 441.32,-171.25 408.56,-150.46 387.71,-136.36"/>
<polygon fill="#63b8ff" stroke="#63b8ff" points="389.96,-133.67 379.74,-130.9 386,-139.44 389.96,-133.67"/>
</a>
</g>
</g>
<!-- Node18&#45;&gt;Node19 -->
<g id="edge31_Node000018_Node000019" class="edge">
<title>Node18&#45;&gt;Node19</title>
<g id="a_edge31_Node000018_Node000019"><a xlink:title=" ">
<path fill="none" stroke="#63b8ff" d="M578.83,-220.59C539.21,-210.96 476.7,-195.76 436.27,-185.93"/>
<polygon fill="#63b8ff" stroke="#63b8ff" points="437.26,-182.57 426.71,-183.6 435.6,-189.37 437.26,-182.57"/>
</a>
</g>
</g>
<!-- Node18&#45;&gt;Node20 -->
<g id="edge34_Node000018_Node000020" class="edge">
<title>Node18&#45;&gt;Node20</title>
<g id="a_edge34_Node000018_Node000020"><a xlink:title=" ">
<path fill="none" stroke="#63b8ff" d="M652.28,-220.59C691.79,-210.76 754.57,-195.14 793.97,-185.34"/>
<polygon fill="#63b8ff" stroke="#63b8ff" points="794.58,-188.79 803.43,-182.98 792.89,-182 794.58,-188.79"/>
</a>
</g>
</g>
<!-- Node18&#45;&gt;Node21 -->
<g id="edge35_Node000018_Node000021" class="edge">
<title>Node18&#45;&gt;Node21</title>
<g id="a_edge35_Node000018_Node000021"><a xlink:title=" ">
<path fill="none" stroke="#63b8ff" d="M670.92,-221.12C718.89,-213.38 790.61,-201.07 861.98,-185.29"/>
<polygon fill="#63b8ff" stroke="#63b8ff" points="862.5,-188.76 871.49,-183.16 860.97,-181.93 862.5,-188.76"/>
</a>
</g>
</g>
<!-- Node22 -->
<g id="Node000022" class="node">
<title>Node22</title>
<g id="a_Node000022"><a xlink:title=" ">
<polygon fill="#e0e0e0" stroke="#999999" points="537.23,-185 480.73,-185 480.73,-165.75 537.23,-165.75 537.23,-185"/>
<text text-anchor="middle" x="508.98" y="-171.5" font-family="Helvetica,sans-Serif" font-size="10.00">typeindex</text>
</a>
</g>
</g>
<!-- Node18&#45;&gt;Node22 -->
<g id="edge36_Node000018_Node000022" class="edge">
<title>Node18&#45;&gt;Node22</title>
<g id="a_edge36_Node000018_Node000022"><a xlink:title=" ">
<path fill="none" stroke="#63b8ff" d="M597.83,-220.59C581.31,-212.37 556.64,-200.09 537.48,-190.56"/>
<polygon fill="#63b8ff" stroke="#63b8ff" points="539.09,-187.45 528.58,-186.13 535.97,-193.72 539.09,-187.45"/>
</a>
</g>
</g>
<!-- Node23 -->
<g id="Node000023" class="node">
<title>Node23</title>
<g id="a_Node000023"><a xlink:title=" ">
<polygon fill="#e0e0e0" stroke="#999999" points="638.61,-185 593.36,-185 593.36,-165.75 638.61,-165.75 638.61,-185"/>
<text text-anchor="middle" x="615.98" y="-171.5" font-family="Helvetica,sans-Serif" font-size="10.00">variant</text>
</a>
</g>
</g>
<!-- Node18&#45;&gt;Node23 -->
<g id="edge37_Node000018_Node000023" class="edge">
<title>Node18&#45;&gt;Node23</title>
<g id="a_edge37_Node000018_Node000023"><a xlink:title=" ">
<path fill="none" stroke="#63b8ff" d="M615.98,-220.83C615.98,-214.32 615.98,-205.17 615.98,-196.87"/>
<polygon fill="#63b8ff" stroke="#63b8ff" points="619.48,-196.87 615.98,-186.87 612.48,-196.87 619.48,-196.87"/>
</a>
</g>
</g>
<!-- Node18&#45;&gt;Node24 -->
<g id="edge38_Node000018_Node000024" class="edge">
<title>Node18&#45;&gt;Node24</title>
<g id="a_edge38_Node000018_Node000024"><a xlink:title=" ">
<path fill="none" stroke="#63b8ff" d="M670.77,-224.1C731.01,-217.52 830.8,-205.1 924.96,-185.41"/>
<polygon fill="#63b8ff" stroke="#63b8ff" points="925.58,-188.86 934.63,-183.35 924.13,-182.01 925.58,-188.86"/>
</a>
</g>
</g>
</g>
</svg>

<g id="navigator" transform="translate(0 0)" fill="#404254">
  <rect fill="#f2f5e9" fill-opacity="0.5" stroke="#606060" stroke-width=".5" x="0" y="0" width="60" height="60"/>
  <use id="zoomplus" xlink:href="#zoomPlus" x="17" y="9" onmousedown="handleZoom(evt,'in')"/>
  <use id="zoomminus" xlink:href="#zoomMin" x="42" y="9" onmousedown="handleZoom(evt,'out')"/>
  <use id="reset" xlink:href="#resetDef" x="30" y="36" onmousedown="handleReset()"/>
   <use id="arrowup" xlink:href="#arrowUp" x="0" y="0" onmousedown="handlePan(0,-1)"/>
  <use id="arrowright" xlink:href="#arrowRight" x="0" y="0" onmousedown="handlePan(1,0)"/>
  <use id="arrowdown" xlink:href="#arrowDown" x="0" y="0" onmousedown="handlePan(0,1)"/>
  <use id="arrowleft" xlink:href="#arrowLeft" x="0" y="0" onmousedown="handlePan(-1,0)"/>
</g>
<svg viewBox="0 0 15 15" width="100%" height="30px" preserveAspectRatio="xMaxYMin meet">
 <g id="arrow_out" transform="scale(0.3 0.3)">
  <a xlink:href="_catch2_8hpp__incl_org.svg" target="_base">
   <rect id="button" ry="5" rx="5" y="6" x="6" height="38" width="38"
        fill="#f2f5e9" fill-opacity="0.5" stroke="#606060" stroke-width="1.0"/>
   <path id="arrow"
     d="M 11.500037,31.436501 C 11.940474,20.09759 22.043105,11.32322 32.158766,21.979434 L 37.068811,17.246167 C 37.068811,17.246167 37.088388,32 37.088388,32 L 22.160133,31.978069 C 22.160133,31.978069 26.997745,27.140456 26.997745,27.140456 C 18.528582,18.264221 13.291696,25.230495 11.500037,31.436501 z"
     style="fill:#404040;"/>
  </a>
 </g>
</svg>

<style type='text/css'>
<![CDATA[
[data-mouse-over-selected='false'] { opacity: 0.7; }
[data-mouse-over-selected='true']  { opacity: 1.0; }
]]>
</style>
<script type="application/ecmascript"><![CDATA[
document.addEventListener('DOMContentLoaded', (event) => {
  highlightEdges();
  highlightAdjacentNodes();
});
]]></script>
</svg>
