<?xml version="1.0" encoding="UTF-8" standalone="no"?>
<!DOCTYPE svg PUBLIC "-//W3C//DTD SVG 1.1//EN"
 "http://www.w3.org/Graphics/SVG/1.1/DTD/svg11.dtd">
<!-- Generated by graphviz version 12.1.1 (20240910.0053)
 -->
<!-- Title: mimic++/adapters/Catch2.hpp Pages: 1 -->
<svg width="1227pt" height="359pt"
 viewBox="0.00 0.00 1226.84 358.75" xmlns="http://www.w3.org/2000/svg" xmlns:xlink="http://www.w3.org/1999/xlink">
<g id="graph0" class="graph" transform="scale(1 1) rotate(0) translate(4 354.75)">
<title>mimic++/adapters/Catch2.hpp</title>
<!-- Node1 -->
<g id="Node000001" class="node">
<title>Node1</title>
<g id="a_Node000001"><a xlink:title=" ">
<polygon fill="#999999" stroke="#666666" points="859.22,-350.75 712.72,-350.75 712.72,-331.5 859.22,-331.5 859.22,-350.75"/>
<text text-anchor="middle" x="785.97" y="-337.25" font-family="Helvetica,sans-Serif" font-size="10.00">mimic++/adapters/Catch2.hpp</text>
</a>
</g>
</g>
<!-- Node2 -->
<g id="Node000002" class="node">
<title>Node2</title>
<g id="a_Node000002"><a xlink:href="../../da/dd9/_reporter_8hpp.html" target="_top" xlink:title=" ">
<polygon fill="white" stroke="#666666" points="981.97,-295.5 869.97,-295.5 869.97,-276.25 981.97,-276.25 981.97,-295.5"/>
<text text-anchor="middle" x="925.97" y="-282" font-family="Helvetica,sans-Serif" font-size="10.00">mimic++/Reporter.hpp</text>
</a>
</g>
</g>
<!-- Node1&#45;&gt;Node2 -->
<g id="edge1_Node000001_Node000002" class="edge">
<title>Node1&#45;&gt;Node2</title>
<g id="a_edge1_Node000001_Node000002"><a xlink:title=" ">
<path fill="none" stroke="#63b8ff" d="M809.72,-331.09C832.15,-322.56 866.04,-309.67 891.45,-300.01"/>
<polygon fill="#63b8ff" stroke="#63b8ff" points="892.59,-303.32 900.69,-296.49 890.1,-296.77 892.59,-303.32"/>
</a>
</g>
</g>
<!-- Node15 -->
<g id="Node000015" class="node">
<title>Node15</title>
<g id="a_Node000015"><a xlink:title=" ">
<polygon fill="#e0e0e0" stroke="#999999" points="887.97,-129.75 841.97,-129.75 841.97,-110.5 887.97,-110.5 887.97,-129.75"/>
<text text-anchor="middle" x="864.97" y="-116.25" font-family="Helvetica,sans-Serif" font-size="10.00">iterator</text>
</a>
</g>
</g>
<!-- Node1&#45;&gt;Node15 -->
<g id="edge47_Node000001_Node000015" class="edge">
<title>Node1&#45;&gt;Node15</title>
<g id="a_edge47_Node000001_Node000015"><a xlink:title=" ">
<path fill="none" stroke="#63b8ff" d="M777.36,-331.32C751.94,-304.27 681.47,-220.82 721.97,-165.75 734.92,-148.14 792.53,-134.41 830.56,-127.07"/>
<polygon fill="#63b8ff" stroke="#63b8ff" points="830.99,-130.55 840.17,-125.27 829.7,-123.67 830.99,-130.55"/>
</a>
</g>
</g>
<!-- Node3 -->
<g id="Node000003" class="node">
<title>Node3</title>
<g id="a_Node000003"><a xlink:href="../../dc/d44/_call_8hpp.html" target="_top" xlink:title=" ">
<polygon fill="white" stroke="#666666" points="342.85,-185 251.1,-185 251.1,-165.75 342.85,-165.75 342.85,-185"/>
<text text-anchor="middle" x="296.97" y="-171.5" font-family="Helvetica,sans-Serif" font-size="10.00">mimic++/Call.hpp</text>
</a>
</g>
</g>
<!-- Node2&#45;&gt;Node3 -->
<g id="edge2_Node000002_Node000003" class="edge">
<title>Node2&#45;&gt;Node3</title>
<g id="a_edge2_Node000002_Node000003"><a xlink:title=" ">
<path fill="none" stroke="#63b8ff" d="M873.16,-275.76C756.13,-255.58 475.79,-207.22 354.51,-186.3"/>
<polygon fill="#63b8ff" stroke="#63b8ff" points="355.22,-182.87 344.77,-184.62 354.03,-189.77 355.22,-182.87"/>
</a>
</g>
</g>
<!-- Node4 -->
<g id="Node000004" class="node">
<title>Node4</title>
<g id="a_Node000004"><a xlink:href="../../df/dde/_fwd_8hpp.html" target="_top" xlink:title=" ">
<polygon fill="white" stroke="#666666" points="802.97,-74.5 708.97,-74.5 708.97,-55.25 802.97,-55.25 802.97,-74.5"/>
<text text-anchor="middle" x="755.97" y="-61" font-family="Helvetica,sans-Serif" font-size="10.00">mimic++/Fwd.hpp</text>
</a>
</g>
</g>
<!-- Node2&#45;&gt;Node4 -->
<g id="edge16_Node000002_Node000004" class="edge">
<title>Node2&#45;&gt;Node4</title>
<g id="a_edge16_Node000002_Node000004"><a xlink:title=" ">
<path fill="none" stroke="#63b8ff" d="M982.38,-284.07C1055.02,-281.71 1175.22,-272.84 1202.97,-240.25 1224.44,-215.04 1223.68,-191.59 1202.97,-165.75 1154.89,-105.74 924.33,-79.4 814.45,-70.11"/>
<polygon fill="#63b8ff" stroke="#63b8ff" points="815.02,-66.64 804.76,-69.31 814.44,-73.62 815.02,-66.64"/>
</a>
</g>
</g>
<!-- Node9 -->
<g id="Node000009" class="node">
<title>Node9</title>
<g id="a_Node000009"><a xlink:title=" ">
<polygon fill="#e0e0e0" stroke="#999999" points="202.1,-74.5 153.85,-74.5 153.85,-55.25 202.1,-55.25 202.1,-74.5"/>
<text text-anchor="middle" x="177.97" y="-61" font-family="Helvetica,sans-Serif" font-size="10.00">cassert</text>
</a>
</g>
</g>
<!-- Node2&#45;&gt;Node9 -->
<g id="edge40_Node000002_Node000009" class="edge">
<title>Node2&#45;&gt;Node9</title>
<g id="a_edge40_Node000002_Node000009"><a xlink:title=" ">
<path fill="none" stroke="#63b8ff" d="M869.68,-284.71C686.38,-282.85 112.26,-266.06 3.97,-129.75 -1.35,-123.05 -1.27,-117.26 3.97,-110.5 12.52,-99.49 93.97,-82.1 142.34,-72.6"/>
<polygon fill="#63b8ff" stroke="#63b8ff" points="142.94,-76.05 152.09,-70.71 141.61,-69.18 142.94,-76.05"/>
</a>
</g>
</g>
<!-- Node13 -->
<g id="Node000013" class="node">
<title>Node13</title>
<g id="a_Node000013"><a xlink:href="../../da/dab/_printer_8hpp.html" target="_top" xlink:title=" ">
<polygon fill="white" stroke="#666666" points="674.85,-185 571.1,-185 571.1,-165.75 674.85,-165.75 674.85,-185"/>
<text text-anchor="middle" x="622.97" y="-171.5" font-family="Helvetica,sans-Serif" font-size="10.00">mimic++/Printer.hpp</text>
</a>
</g>
</g>
<!-- Node2&#45;&gt;Node13 -->
<g id="edge17_Node000002_Node000013" class="edge">
<title>Node2&#45;&gt;Node13</title>
<g id="a_edge17_Node000002_Node000013"><a xlink:title=" ">
<path fill="none" stroke="#63b8ff" d="M892.26,-275.77C862.43,-267.43 817.88,-254.28 779.97,-240.25 759.95,-232.84 755.68,-229.2 735.97,-221 709.65,-210.05 679.62,-198.22 657.14,-189.5"/>
<polygon fill="#63b8ff" stroke="#63b8ff" points="658.45,-186.25 647.86,-185.91 655.92,-192.78 658.45,-186.25"/>
</a>
</g>
</g>
<!-- Node14 -->
<g id="Node000014" class="node">
<title>Node14</title>
<g id="a_Node000014"><a xlink:title=" ">
<polygon fill="#e0e0e0" stroke="#999999" points="518.97,-129.75 460.97,-129.75 460.97,-110.5 518.97,-110.5 518.97,-129.75"/>
<text text-anchor="middle" x="489.97" y="-116.25" font-family="Helvetica,sans-Serif" font-size="10.00">functional</text>
</a>
</g>
</g>
<!-- Node2&#45;&gt;Node14 -->
<g id="edge42_Node000002_Node000014" class="edge">
<title>Node2&#45;&gt;Node14</title>
<g id="a_edge42_Node000002_Node000014"><a xlink:title=" ">
<path fill="none" stroke="#63b8ff" d="M881.74,-275.76C784.3,-255.39 557.47,-206.3 528.97,-185 513.86,-173.71 503.35,-154.68 497.07,-140.32"/>
<polygon fill="#63b8ff" stroke="#63b8ff" points="500.49,-139.42 493.51,-131.45 493.99,-142.03 500.49,-139.42"/>
</a>
</g>
</g>
<!-- Node18 -->
<g id="Node000018" class="node">
<title>Node18</title>
<g id="a_Node000018"><a xlink:href="../../d0/d3b/_reports_8hpp.html" target="_top" xlink:title=" ">
<polygon fill="white" stroke="#666666" points="897.47,-240.25 788.47,-240.25 788.47,-221 897.47,-221 897.47,-240.25"/>
<text text-anchor="middle" x="842.97" y="-226.75" font-family="Helvetica,sans-Serif" font-size="10.00">mimic++/Reports.hpp</text>
</a>
</g>
</g>
<!-- Node2&#45;&gt;Node18 -->
<g id="edge27_Node000002_Node000018" class="edge">
<title>Node2&#45;&gt;Node18</title>
<g id="a_edge27_Node000002_Node000018"><a xlink:title=" ">
<path fill="none" stroke="#63b8ff" d="M911.89,-275.84C899.49,-267.89 881.18,-256.14 866.55,-246.75"/>
<polygon fill="#63b8ff" stroke="#63b8ff" points="868.7,-243.97 858.39,-241.52 864.92,-249.87 868.7,-243.97"/>
</a>
</g>
</g>
<!-- Node19 -->
<g id="Node000019" class="node">
<title>Node19</title>
<g id="a_Node000019"><a xlink:title=" ">
<polygon fill="#e0e0e0" stroke="#999999" points="1000.85,-185 945.1,-185 945.1,-165.75 1000.85,-165.75 1000.85,-185"/>
<text text-anchor="middle" x="972.97" y="-171.5" font-family="Helvetica,sans-Serif" font-size="10.00">algorithm</text>
</a>
</g>
</g>
<!-- Node2&#45;&gt;Node19 -->
<g id="edge39_Node000002_Node000019" class="edge">
<title>Node2&#45;&gt;Node19</title>
<g id="a_edge39_Node000002_Node000019"><a xlink:title=" ">
<path fill="none" stroke="#63b8ff" d="M928.92,-276.07C933.16,-263.63 941.42,-240.27 949.97,-221 953.77,-212.44 958.43,-203.21 962.56,-195.38"/>
<polygon fill="#63b8ff" stroke="#63b8ff" points="965.53,-197.25 967.18,-186.79 959.36,-193.93 965.53,-197.25"/>
</a>
</g>
</g>
<!-- Node20 -->
<g id="Node000020" class="node">
<title>Node20</title>
<g id="a_Node000020"><a xlink:title=" ">
<polygon fill="#e0e0e0" stroke="#999999" points="1068.85,-185 1019.1,-185 1019.1,-165.75 1068.85,-165.75 1068.85,-185"/>
<text text-anchor="middle" x="1043.97" y="-171.5" font-family="Helvetica,sans-Serif" font-size="10.00">optional</text>
</a>
</g>
</g>
<!-- Node2&#45;&gt;Node20 -->
<g id="edge44_Node000002_Node000020" class="edge">
<title>Node2&#45;&gt;Node20</title>
<g id="a_edge44_Node000002_Node000020"><a xlink:title=" ">
<path fill="none" stroke="#63b8ff" d="M934.06,-275.85C945.58,-263.14 967.59,-239.48 987.97,-221 999.11,-210.9 1012.23,-200.38 1022.97,-192.09"/>
<polygon fill="#63b8ff" stroke="#63b8ff" points="1024.99,-194.95 1030.83,-186.1 1020.75,-189.38 1024.99,-194.95"/>
</a>
</g>
</g>
<!-- Node21 -->
<g id="Node000021" class="node">
<title>Node21</title>
<g id="a_Node000021"><a xlink:title=" ">
<polygon fill="#e0e0e0" stroke="#999999" points="1132.6,-185 1087.35,-185 1087.35,-165.75 1132.6,-165.75 1132.6,-185"/>
<text text-anchor="middle" x="1109.97" y="-171.5" font-family="Helvetica,sans-Serif" font-size="10.00">ranges</text>
</a>
</g>
</g>
<!-- Node2&#45;&gt;Node21 -->
<g id="edge45_Node000002_Node000021" class="edge">
<title>Node2&#45;&gt;Node21</title>
<g id="a_edge45_Node000002_Node000021"><a xlink:title=" ">
<path fill="none" stroke="#63b8ff" d="M939.35,-275.85C958.33,-263.15 994.3,-239.49 1025.97,-221 1044.34,-210.28 1065.49,-199.05 1081.97,-190.54"/>
<polygon fill="#63b8ff" stroke="#63b8ff" points="1083.4,-193.74 1090.7,-186.06 1080.2,-187.51 1083.4,-193.74"/>
</a>
</g>
</g>
<!-- Node24 -->
<g id="Node000024" class="node">
<title>Node24</title>
<g id="a_Node000024"><a xlink:title=" ">
<polygon fill="#e0e0e0" stroke="#999999" points="1193.47,-185 1150.47,-185 1150.47,-165.75 1193.47,-165.75 1193.47,-185"/>
<text text-anchor="middle" x="1171.97" y="-171.5" font-family="Helvetica,sans-Serif" font-size="10.00">vector</text>
</a>
</g>
</g>
<!-- Node2&#45;&gt;Node24 -->
<g id="edge46_Node000002_Node000024" class="edge">
<title>Node2&#45;&gt;Node24</title>
<g id="a_edge46_Node000002_Node000024"><a xlink:title=" ">
<path fill="none" stroke="#63b8ff" d="M947.48,-275.86C967.72,-267.21 998.74,-253.55 1024.97,-240.25 1040.46,-232.4 1043.3,-228.49 1058.97,-221 1085.51,-208.32 1116.66,-196.22 1139.53,-187.82"/>
<polygon fill="#63b8ff" stroke="#63b8ff" points="1140.72,-191.11 1148.93,-184.41 1138.33,-184.53 1140.72,-191.11"/>
</a>
</g>
</g>
<!-- Node25 -->
<g id="Node000025" class="node">
<title>Node25</title>
<g id="a_Node000025"><a xlink:title=" ">
<polygon fill="#e0e0e0" stroke="#999999" points="1125.6,-240.25 1068.35,-240.25 1068.35,-221 1125.6,-221 1125.6,-240.25"/>
<text text-anchor="middle" x="1096.97" y="-226.75" font-family="Helvetica,sans-Serif" font-size="10.00">exception</text>
</a>
</g>
</g>
<!-- Node2&#45;&gt;Node25 -->
<g id="edge41_Node000002_Node000025" class="edge">
<title>Node2&#45;&gt;Node25</title>
<g id="a_edge41_Node000002_Node000025"><a xlink:title=" ">
<path fill="none" stroke="#63b8ff" d="M954.98,-275.84C983.07,-267.09 1025.89,-253.76 1057.16,-244.02"/>
<polygon fill="#63b8ff" stroke="#63b8ff" points="1058.16,-247.38 1066.66,-241.06 1056.07,-240.69 1058.16,-247.38"/>
</a>
</g>
</g>
<!-- Node26 -->
<g id="Node000026" class="node">
<title>Node26</title>
<g id="a_Node000026"><a xlink:title=" ">
<polygon fill="#e0e0e0" stroke="#999999" points="1194.22,-240.25 1143.72,-240.25 1143.72,-221 1194.22,-221 1194.22,-240.25"/>
<text text-anchor="middle" x="1168.97" y="-226.75" font-family="Helvetica,sans-Serif" font-size="10.00">memory</text>
</a>
</g>
</g>
<!-- Node2&#45;&gt;Node26 -->
<g id="edge43_Node000002_Node000026" class="edge">
<title>Node2&#45;&gt;Node26</title>
<g id="a_edge43_Node000002_Node000026"><a xlink:title=" ">
<path fill="none" stroke="#63b8ff" d="M970.93,-275.79C1010.93,-267.6 1071.29,-254.95 1132.37,-240.79"/>
<polygon fill="#63b8ff" stroke="#63b8ff" points="1132.96,-244.25 1141.9,-238.57 1131.37,-237.43 1132.96,-244.25"/>
</a>
</g>
</g>
<!-- Node3&#45;&gt;Node4 -->
<g id="edge3_Node000003_Node000004" class="edge">
<title>Node3&#45;&gt;Node4</title>
<g id="a_edge3_Node000003_Node000004"><a xlink:title=" ">
<path fill="none" stroke="#63b8ff" d="M322.85,-165.39C346.77,-156.87 383.16,-143.39 413.97,-129.75 431.28,-122.09 433.93,-116.23 451.97,-110.5 534.78,-84.22 635.26,-73.32 697.42,-68.86"/>
<polygon fill="#63b8ff" stroke="#63b8ff" points="697.32,-72.38 707.05,-68.21 696.84,-65.39 697.32,-72.38"/>
</a>
</g>
</g>
<!-- Node6 -->
<g id="Node000006" class="node">
<title>Node6</title>
<g id="a_Node000006"><a xlink:href="../../d8/d32/_type_traits_8hpp.html" target="_top" xlink:title=" ">
<polygon fill="white" stroke="#666666" points="134.47,-129.75 13.47,-129.75 13.47,-110.5 134.47,-110.5 134.47,-129.75"/>
<text text-anchor="middle" x="73.97" y="-116.25" font-family="Helvetica,sans-Serif" font-size="10.00">mimic++/TypeTraits.hpp</text>
</a>
</g>
</g>
<!-- Node3&#45;&gt;Node6 -->
<g id="edge5_Node000003_Node000006" class="edge">
<title>Node3&#45;&gt;Node6</title>
<g id="a_edge5_Node000003_Node000006"><a xlink:title=" ">
<path fill="none" stroke="#63b8ff" d="M258.89,-165.28C221.37,-156.32 163.87,-142.59 122.97,-132.82"/>
<polygon fill="#63b8ff" stroke="#63b8ff" points="123.91,-129.45 113.37,-130.53 122.28,-136.26 123.91,-129.45"/>
</a>
</g>
</g>
<!-- Node7 -->
<g id="Node000007" class="node">
<title>Node7</title>
<g id="a_Node000007"><a xlink:title=" ">
<polygon fill="#e0e0e0" stroke="#999999" points="107.47,-74.5 70.47,-74.5 70.47,-55.25 107.47,-55.25 107.47,-74.5"/>
<text text-anchor="middle" x="88.97" y="-61" font-family="Helvetica,sans-Serif" font-size="10.00">tuple</text>
</a>
</g>
</g>
<!-- Node3&#45;&gt;Node7 -->
<g id="edge14_Node000003_Node000007" class="edge">
<title>Node3&#45;&gt;Node7</title>
<g id="a_edge14_Node000003_Node000007"><a xlink:title=" ">
<path fill="none" stroke="#63b8ff" d="M279.6,-165.31C243.5,-146.48 160.16,-103.01 116.61,-80.29"/>
<polygon fill="#63b8ff" stroke="#63b8ff" points="118.27,-77.21 107.79,-75.69 115.03,-83.42 118.27,-77.21"/>
</a>
</g>
</g>
<!-- Node8 -->
<g id="Node000008" class="node">
<title>Node8</title>
<g id="a_Node000008"><a xlink:href="../../d4/d2c/_utility_8hpp.html" target="_top" xlink:title=" ">
<polygon fill="white" stroke="#666666" points="404.97,-129.75 304.97,-129.75 304.97,-110.5 404.97,-110.5 404.97,-129.75"/>
<text text-anchor="middle" x="354.97" y="-116.25" font-family="Helvetica,sans-Serif" font-size="10.00">mimic++/Utility.hpp</text>
</a>
</g>
</g>
<!-- Node3&#45;&gt;Node8 -->
<g id="edge7_Node000003_Node000008" class="edge">
<title>Node3&#45;&gt;Node8</title>
<g id="a_edge7_Node000003_Node000008"><a xlink:title=" ">
<path fill="none" stroke="#63b8ff" d="M306.81,-165.34C315.03,-157.8 326.95,-146.85 336.88,-137.73"/>
<polygon fill="#63b8ff" stroke="#63b8ff" points="339.16,-140.39 344.16,-131.05 334.43,-135.23 339.16,-140.39"/>
</a>
</g>
</g>
<!-- Node11 -->
<g id="Node000011" class="node">
<title>Node11</title>
<g id="a_Node000011"><a xlink:title=" ">
<polygon fill="#e0e0e0" stroke="#999999" points="318.1,-74.5 233.85,-74.5 233.85,-55.25 318.1,-55.25 318.1,-74.5"/>
<text text-anchor="middle" x="275.97" y="-61" font-family="Helvetica,sans-Serif" font-size="10.00">source_location</text>
</a>
</g>
</g>
<!-- Node3&#45;&gt;Node11 -->
<g id="edge13_Node000003_Node000011" class="edge">
<title>Node3&#45;&gt;Node11</title>
<g id="a_edge13_Node000003_Node000011"><a xlink:title=" ">
<path fill="none" stroke="#63b8ff" d="M270.03,-165.36C253.84,-158.39 234.56,-146.97 224.97,-129.75 214.9,-111.65 232.89,-93.43 250.22,-81.1"/>
<polygon fill="#63b8ff" stroke="#63b8ff" points="251.93,-84.17 258.34,-75.73 248.07,-78.33 251.93,-84.17"/>
</a>
</g>
</g>
<!-- Node12 -->
<g id="Node000012" class="node">
<title>Node12</title>
<g id="a_Node000012"><a xlink:title=" ">
<polygon fill="#e0e0e0" stroke="#999999" points="374.22,-74.5 335.72,-74.5 335.72,-55.25 374.22,-55.25 374.22,-74.5"/>
<text text-anchor="middle" x="354.97" y="-61" font-family="Helvetica,sans-Serif" font-size="10.00">utility</text>
</a>
</g>
</g>
<!-- Node3&#45;&gt;Node12 -->
<g id="edge15_Node000003_Node000012" class="edge">
<title>Node3&#45;&gt;Node12</title>
<g id="a_edge15_Node000003_Node000012"><a xlink:title=" ">
<path fill="none" stroke="#63b8ff" d="M294.41,-165.55C291.19,-152.69 287.08,-128.37 295.97,-110.5 302.3,-97.78 314.17,-87.72 325.62,-80.4"/>
<polygon fill="#63b8ff" stroke="#63b8ff" points="327.24,-83.51 334.11,-75.44 323.71,-77.46 327.24,-83.51"/>
</a>
</g>
</g>
<!-- Node5 -->
<g id="Node000005" class="node">
<title>Node5</title>
<g id="a_Node000005"><a xlink:title=" ">
<polygon fill="#e0e0e0" stroke="#999999" points="708.97,-19.25 668.97,-19.25 668.97,0 708.97,0 708.97,-19.25"/>
<text text-anchor="middle" x="688.97" y="-5.75" font-family="Helvetica,sans-Serif" font-size="10.00">string</text>
</a>
</g>
</g>
<!-- Node4&#45;&gt;Node5 -->
<g id="edge4_Node000004_Node000005" class="edge">
<title>Node4&#45;&gt;Node5</title>
<g id="a_edge4_Node000004_Node000005"><a xlink:title=" ">
<path fill="none" stroke="#63b8ff" d="M744.61,-54.84C734.92,-47.15 720.77,-35.9 709.17,-26.68"/>
<polygon fill="#63b8ff" stroke="#63b8ff" points="711.36,-23.95 701.35,-20.47 707.01,-29.43 711.36,-23.95"/>
</a>
</g>
</g>
<!-- Node6&#45;&gt;Node7 -->
<g id="edge6_Node000006_Node000007" class="edge">
<title>Node6&#45;&gt;Node7</title>
<g id="a_edge6_Node000006_Node000007"><a xlink:title=" ">
<path fill="none" stroke="#63b8ff" d="M76.45,-110.33C78.33,-103.67 80.98,-94.24 83.36,-85.78"/>
<polygon fill="#63b8ff" stroke="#63b8ff" points="86.69,-86.89 86.03,-76.32 79.95,-84.99 86.69,-86.89"/>
</a>
</g>
</g>
<!-- Node8&#45;&gt;Node4 -->
<g id="edge8_Node000008_Node000004" class="edge">
<title>Node8&#45;&gt;Node4</title>
<g id="a_edge8_Node000008_Node000004"><a xlink:title=" ">
<path fill="none" stroke="#63b8ff" d="M405.28,-112.33C409.91,-111.71 414.53,-111.09 418.97,-110.5 516.57,-97.46 630.1,-82.46 697.34,-73.6"/>
<polygon fill="#63b8ff" stroke="#63b8ff" points="697.57,-77.1 707.03,-72.32 696.66,-70.16 697.57,-77.1"/>
</a>
</g>
</g>
<!-- Node8&#45;&gt;Node9 -->
<g id="edge9_Node000008_Node000009" class="edge">
<title>Node8&#45;&gt;Node9</title>
<g id="a_edge9_Node000008_Node000009"><a xlink:title=" ">
<path fill="none" stroke="#63b8ff" d="M324.95,-110.09C294.07,-100.8 245.99,-86.34 213.3,-76.5"/>
<polygon fill="#63b8ff" stroke="#63b8ff" points="214.47,-73.2 203.88,-73.67 212.45,-79.9 214.47,-73.2"/>
</a>
</g>
</g>
<!-- Node10 -->
<g id="Node000010" class="node">
<title>Node10</title>
<g id="a_Node000010"><a xlink:title=" ">
<polygon fill="#e0e0e0" stroke="#999999" points="515.85,-74.5 472.1,-74.5 472.1,-55.25 515.85,-55.25 515.85,-74.5"/>
<text text-anchor="middle" x="493.97" y="-61" font-family="Helvetica,sans-Serif" font-size="10.00">format</text>
</a>
</g>
</g>
<!-- Node8&#45;&gt;Node10 -->
<g id="edge10_Node000008_Node000010" class="edge">
<title>Node8&#45;&gt;Node10</title>
<g id="a_edge10_Node000008_Node000010"><a xlink:title=" ">
<path fill="none" stroke="#63b8ff" d="M378.55,-110.09C401.22,-101.41 435.69,-88.2 461.06,-78.48"/>
<polygon fill="#63b8ff" stroke="#63b8ff" points="462.16,-81.81 470.25,-74.96 459.65,-75.27 462.16,-81.81"/>
</a>
</g>
</g>
<!-- Node8&#45;&gt;Node11 -->
<g id="edge11_Node000008_Node000011" class="edge">
<title>Node8&#45;&gt;Node11</title>
<g id="a_edge11_Node000008_Node000011"><a xlink:title=" ">
<path fill="none" stroke="#63b8ff" d="M341.57,-110.09C329.88,-102.21 312.67,-90.61 298.81,-81.27"/>
<polygon fill="#63b8ff" stroke="#63b8ff" points="300.94,-78.49 290.69,-75.8 297.03,-84.29 300.94,-78.49"/>
</a>
</g>
</g>
<!-- Node8&#45;&gt;Node12 -->
<g id="edge12_Node000008_Node000012" class="edge">
<title>Node8&#45;&gt;Node12</title>
<g id="a_edge12_Node000008_Node000012"><a xlink:title=" ">
<path fill="none" stroke="#63b8ff" d="M354.97,-110.33C354.97,-103.82 354.97,-94.67 354.97,-86.37"/>
<polygon fill="#63b8ff" stroke="#63b8ff" points="358.47,-86.37 354.97,-76.37 351.47,-86.37 358.47,-86.37"/>
</a>
</g>
</g>
<!-- Node13&#45;&gt;Node4 -->
<g id="edge18_Node000013_Node000004" class="edge">
<title>Node13&#45;&gt;Node4</title>
<g id="a_edge18_Node000013_Node000004"><a xlink:title=" ">
<path fill="none" stroke="#63b8ff" d="M675.33,-167.85C720.37,-161.03 780.34,-148.66 794.97,-129.75 806.8,-114.46 791.7,-95.36 776.99,-82.05"/>
<polygon fill="#63b8ff" stroke="#63b8ff" points="779.63,-79.7 769.73,-75.93 775.11,-85.05 779.63,-79.7"/>
</a>
</g>
</g>
<!-- Node13&#45;&gt;Node5 -->
<g id="edge24_Node000013_Node000005" class="edge">
<title>Node13&#45;&gt;Node5</title>
<g id="a_edge24_Node000013_Node000005"><a xlink:title=" ">
<path fill="none" stroke="#63b8ff" d="M625.14,-165.56C628.31,-153.11 634.63,-129.74 641.97,-110.5 652.99,-81.61 668.79,-49.47 678.97,-29.65"/>
<polygon fill="#63b8ff" stroke="#63b8ff" points="682.03,-31.35 683.53,-20.86 675.81,-28.12 682.03,-31.35"/>
</a>
</g>
</g>
<!-- Node13&#45;&gt;Node10 -->
<g id="edge19_Node000013_Node000010" class="edge">
<title>Node13&#45;&gt;Node10</title>
<g id="a_edge19_Node000013_Node000010"><a xlink:title=" ">
<path fill="none" stroke="#63b8ff" d="M615.48,-165.53C604.32,-152.64 582.36,-128.29 560.97,-110.5 547.92,-99.64 532.16,-89.03 519.21,-80.89"/>
<polygon fill="#63b8ff" stroke="#63b8ff" points="521.16,-77.98 510.81,-75.72 517.49,-83.94 521.16,-77.98"/>
</a>
</g>
</g>
<!-- Node13&#45;&gt;Node11 -->
<g id="edge22_Node000013_Node000011" class="edge">
<title>Node13&#45;&gt;Node11</title>
<g id="a_edge22_Node000013_Node000011"><a xlink:title=" ">
<path fill="none" stroke="#63b8ff" d="M570.81,-173.87C489.2,-172.03 336.46,-163.95 295.97,-129.75 283.34,-119.08 278.57,-100.53 276.83,-86.16"/>
<polygon fill="#63b8ff" stroke="#63b8ff" points="280.34,-86.12 276.07,-76.43 273.36,-86.67 280.34,-86.12"/>
</a>
</g>
</g>
<!-- Node13&#45;&gt;Node12 -->
<g id="edge26_Node000013_Node000012" class="edge">
<title>Node13&#45;&gt;Node12</title>
<g id="a_edge26_Node000013_Node000012"><a xlink:title=" ">
<path fill="none" stroke="#63b8ff" d="M610.72,-165.37C589.18,-149.67 545.2,-118.24 527.97,-110.5 480.56,-89.2 421.1,-76.67 385.67,-70.55"/>
<polygon fill="#63b8ff" stroke="#63b8ff" points="386.56,-67.15 376.13,-68.96 385.42,-74.05 386.56,-67.15"/>
</a>
</g>
</g>
<!-- Node13&#45;&gt;Node14 -->
<g id="edge20_Node000013_Node000014" class="edge">
<title>Node13&#45;&gt;Node14</title>
<g id="a_edge20_Node000013_Node000014"><a xlink:title=" ">
<path fill="none" stroke="#63b8ff" d="M600.41,-165.34C579.2,-156.85 547.2,-144.04 523.1,-134.39"/>
<polygon fill="#63b8ff" stroke="#63b8ff" points="524.63,-131.23 514.05,-130.77 522.03,-137.73 524.63,-131.23"/>
</a>
</g>
</g>
<!-- Node13&#45;&gt;Node15 -->
<g id="edge21_Node000013_Node000015" class="edge">
<title>Node13&#45;&gt;Node15</title>
<g id="a_edge21_Node000013_Node000015"><a xlink:title=" ">
<path fill="none" stroke="#63b8ff" d="M665.42,-165.33C706.9,-156.44 771.83,-142.4 827.97,-129.75 828.79,-129.57 829.62,-129.38 830.46,-129.19"/>
<polygon fill="#63b8ff" stroke="#63b8ff" points="831.06,-132.64 840.02,-126.99 829.49,-125.82 831.06,-132.64"/>
</a>
</g>
</g>
<!-- Node16 -->
<g id="Node000016" class="node">
<title>Node16</title>
<g id="a_Node000016"><a xlink:title=" ">
<polygon fill="#e0e0e0" stroke="#999999" points="702.6,-129.75 651.35,-129.75 651.35,-110.5 702.6,-110.5 702.6,-129.75"/>
<text text-anchor="middle" x="676.97" y="-116.25" font-family="Helvetica,sans-Serif" font-size="10.00">sstream</text>
</a>
</g>
</g>
<!-- Node13&#45;&gt;Node16 -->
<g id="edge23_Node000013_Node000016" class="edge">
<title>Node13&#45;&gt;Node16</title>
<g id="a_edge23_Node000013_Node000016"><a xlink:title=" ">
<path fill="none" stroke="#63b8ff" d="M631.89,-165.58C639.43,-158.15 650.44,-147.29 659.7,-138.16"/>
<polygon fill="#63b8ff" stroke="#63b8ff" points="662.12,-140.69 666.78,-131.17 657.21,-135.7 662.12,-140.69"/>
</a>
</g>
</g>
<!-- Node17 -->
<g id="Node000017" class="node">
<title>Node17</title>
<g id="a_Node000017"><a xlink:title=" ">
<polygon fill="#e0e0e0" stroke="#999999" points="785.72,-129.75 720.22,-129.75 720.22,-110.5 785.72,-110.5 785.72,-129.75"/>
<text text-anchor="middle" x="752.97" y="-116.25" font-family="Helvetica,sans-Serif" font-size="10.00">string_view</text>
</a>
</g>
</g>
<!-- Node13&#45;&gt;Node17 -->
<g id="edge25_Node000013_Node000017" class="edge">
<title>Node13&#45;&gt;Node17</title>
<g id="a_edge25_Node000013_Node000017"><a xlink:title=" ">
<path fill="none" stroke="#63b8ff" d="M645.02,-165.34C665.66,-156.89 696.75,-144.15 720.28,-134.52"/>
<polygon fill="#63b8ff" stroke="#63b8ff" points="721.48,-137.81 729.41,-130.78 718.83,-131.33 721.48,-137.81"/>
</a>
</g>
</g>
<!-- Node18&#45;&gt;Node3 -->
<g id="edge28_Node000018_Node000003" class="edge">
<title>Node18&#45;&gt;Node3</title>
<g id="a_edge28_Node000018_Node000003"><a xlink:title=" ">
<path fill="none" stroke="#63b8ff" d="M788.12,-224.28C684.38,-214.16 460.37,-192.31 354.56,-181.99"/>
<polygon fill="#63b8ff" stroke="#63b8ff" points="354.97,-178.51 344.68,-181.03 354.29,-185.48 354.97,-178.51"/>
</a>
</g>
</g>
<!-- Node18&#45;&gt;Node4 -->
<g id="edge29_Node000018_Node000004" class="edge">
<title>Node18&#45;&gt;Node4</title>
<g id="a_edge29_Node000018_Node000004"><a xlink:title=" ">
<path fill="none" stroke="#63b8ff" d="M844.22,-220.83C846.33,-208 851.44,-183.72 861.97,-165.75 876.67,-140.67 914.15,-133.95 896.97,-110.5 878.07,-84.69 844.17,-73.44 814.35,-68.68"/>
<polygon fill="#63b8ff" stroke="#63b8ff" points="815.04,-65.24 804.66,-67.36 814.1,-72.18 815.04,-65.24"/>
</a>
</g>
</g>
<!-- Node18&#45;&gt;Node13 -->
<g id="edge30_Node000018_Node000013" class="edge">
<title>Node18&#45;&gt;Node13</title>
<g id="a_edge30_Node000018_Node000013"><a xlink:title=" ">
<path fill="none" stroke="#63b8ff" d="M805.65,-220.59C768.67,-211.64 711.86,-197.89 671.42,-188.1"/>
<polygon fill="#63b8ff" stroke="#63b8ff" points="672.49,-184.76 661.95,-185.81 670.84,-191.56 672.49,-184.76"/>
</a>
</g>
</g>
<!-- Node18&#45;&gt;Node14 -->
<g id="edge32_Node000018_Node000014" class="edge">
<title>Node18&#45;&gt;Node14</title>
<g id="a_edge32_Node000018_Node000014"><a xlink:title=" ">
<path fill="none" stroke="#63b8ff" d="M788.11,-224.6C718.01,-217.54 601.05,-203.47 561.97,-185 538.7,-174 517.37,-153.11 504.07,-138.22"/>
<polygon fill="#63b8ff" stroke="#63b8ff" points="507.04,-136.31 497.86,-131.01 501.73,-140.87 507.04,-136.31"/>
</a>
</g>
</g>
<!-- Node18&#45;&gt;Node15 -->
<g id="edge33_Node000018_Node000015" class="edge">
<title>Node18&#45;&gt;Node15</title>
<g id="a_edge33_Node000018_Node000015"><a xlink:title=" ">
<path fill="none" stroke="#63b8ff" d="M837.99,-220.76C831.64,-208.24 822.24,-184.8 828.97,-165.75 832.59,-155.5 839.68,-145.87 846.61,-138.2"/>
<polygon fill="#63b8ff" stroke="#63b8ff" points="848.92,-140.85 853.41,-131.25 843.91,-135.95 848.92,-140.85"/>
</a>
</g>
</g>
<!-- Node18&#45;&gt;Node19 -->
<g id="edge31_Node000018_Node000019" class="edge">
<title>Node18&#45;&gt;Node19</title>
<g id="a_edge31_Node000018_Node000019"><a xlink:title=" ">
<path fill="none" stroke="#63b8ff" d="M865.02,-220.59C885.66,-212.14 916.75,-199.4 940.28,-189.77"/>
<polygon fill="#63b8ff" stroke="#63b8ff" points="941.48,-193.06 949.41,-186.03 938.83,-186.58 941.48,-193.06"/>
</a>
</g>
</g>
<!-- Node18&#45;&gt;Node20 -->
<g id="edge34_Node000018_Node000020" class="edge">
<title>Node18&#45;&gt;Node20</title>
<g id="a_edge34_Node000018_Node000020"><a xlink:title=" ">
<path fill="none" stroke="#63b8ff" d="M877.07,-220.59C913.41,-210.96 970.71,-195.78 1007.82,-185.95"/>
<polygon fill="#63b8ff" stroke="#63b8ff" points="1008.41,-189.42 1017.18,-183.47 1006.61,-182.65 1008.41,-189.42"/>
</a>
</g>
</g>
<!-- Node18&#45;&gt;Node21 -->
<g id="edge35_Node000018_Node000021" class="edge">
<title>Node18&#45;&gt;Node21</title>
<g id="a_edge35_Node000018_Node000021"><a xlink:title=" ">
<path fill="none" stroke="#63b8ff" d="M897.35,-220.5C942.62,-212.64 1008.99,-200.48 1075.8,-185.36"/>
<polygon fill="#63b8ff" stroke="#63b8ff" points="1076.51,-188.78 1085.48,-183.14 1074.95,-181.96 1076.51,-188.78"/>
</a>
</g>
</g>
<!-- Node22 -->
<g id="Node000022" class="node">
<title>Node22</title>
<g id="a_Node000022"><a xlink:title=" ">
<polygon fill="#e0e0e0" stroke="#999999" points="927.22,-185 870.72,-185 870.72,-165.75 927.22,-165.75 927.22,-185"/>
<text text-anchor="middle" x="898.97" y="-171.5" font-family="Helvetica,sans-Serif" font-size="10.00">typeindex</text>
</a>
</g>
</g>
<!-- Node18&#45;&gt;Node22 -->
<g id="edge36_Node000018_Node000022" class="edge">
<title>Node18&#45;&gt;Node22</title>
<g id="a_edge36_Node000018_Node000022"><a xlink:title=" ">
<path fill="none" stroke="#63b8ff" d="M852.47,-220.59C860.4,-213.05 871.92,-202.1 881.51,-192.98"/>
<polygon fill="#63b8ff" stroke="#63b8ff" points="883.68,-195.74 888.52,-186.32 878.86,-190.67 883.68,-195.74"/>
</a>
</g>
</g>
<!-- Node23 -->
<g id="Node000023" class="node">
<title>Node23</title>
<g id="a_Node000023"><a xlink:title=" ">
<polygon fill="#e0e0e0" stroke="#999999" points="776.6,-185 731.35,-185 731.35,-165.75 776.6,-165.75 776.6,-185"/>
<text text-anchor="middle" x="753.97" y="-171.5" font-family="Helvetica,sans-Serif" font-size="10.00">variant</text>
</a>
</g>
</g>
<!-- Node18&#45;&gt;Node23 -->
<g id="edge37_Node000018_Node000023" class="edge">
<title>Node18&#45;&gt;Node23</title>
<g id="a_edge37_Node000018_Node000023"><a xlink:title=" ">
<path fill="none" stroke="#63b8ff" d="M827.87,-220.59C814.45,-212.56 794.56,-200.66 778.8,-191.23"/>
<polygon fill="#63b8ff" stroke="#63b8ff" points="780.82,-188.36 770.44,-186.23 777.23,-194.37 780.82,-188.36"/>
</a>
</g>
</g>
<!-- Node18&#45;&gt;Node24 -->
<g id="edge38_Node000018_Node000024" class="edge">
<title>Node18&#45;&gt;Node24</title>
<g id="a_edge38_Node000018_Node000024"><a xlink:title=" ">
<path fill="none" stroke="#63b8ff" d="M897.93,-223.63C955.79,-216.82 1049.71,-204.39 1138.96,-185.43"/>
<polygon fill="#63b8ff" stroke="#63b8ff" points="1139.59,-188.88 1148.62,-183.34 1138.11,-182.03 1139.59,-188.88"/>
</a>
</g>
</g>
</g>
</svg>
