<?xml version="1.0" encoding="UTF-8" standalone="no"?>
<!DOCTYPE svg PUBLIC "-//W3C//DTD SVG 1.1//EN"
 "http://www.w3.org/Graphics/SVG/1.1/DTD/svg11.dtd">
<!-- Generated by graphviz version 12.1.1 (20240910.0053)
 -->
<!-- Title: mimic++/adapters/Catch2.hpp Pages: 1 -->
<svg width="1002pt" height="359pt"
 viewBox="0.00 0.00 1001.86 358.75" xmlns="http://www.w3.org/2000/svg" xmlns:xlink="http://www.w3.org/1999/xlink">
<g id="graph0" class="graph" transform="scale(1 1) rotate(0) translate(4 354.75)">
<title>mimic++/adapters/Catch2.hpp</title>
<!-- Node1 -->
<g id="Node000001" class="node">
<title>Node1</title>
<g id="a_Node000001"><a xlink:title=" ">
<polygon fill="#999999" stroke="#666666" points="892.11,-350.75 745.61,-350.75 745.61,-331.5 892.11,-331.5 892.11,-350.75"/>
<text text-anchor="middle" x="818.86" y="-337.25" font-family="Helvetica,sans-Serif" font-size="10.00">mimic++/adapters/Catch2.hpp</text>
</a>
</g>
</g>
<!-- Node2 -->
<g id="Node000002" class="node">
<title>Node2</title>
<g id="a_Node000002"><a xlink:href="../../da/dd9/_reporter_8hpp.html" target="_top" xlink:title=" ">
<polygon fill="white" stroke="#666666" points="700.86,-295.5 588.86,-295.5 588.86,-276.25 700.86,-276.25 700.86,-295.5"/>
<text text-anchor="middle" x="644.86" y="-282" font-family="Helvetica,sans-Serif" font-size="10.00">mimic++/Reporter.hpp</text>
</a>
</g>
</g>
<!-- Node1&#45;&gt;Node2 -->
<g id="edge1_Node000001_Node000002" class="edge">
<title>Node1&#45;&gt;Node2</title>
<g id="a_edge1_Node000001_Node000002"><a xlink:title=" ">
<path fill="none" stroke="#63b8ff" d="M789.34,-331.09C760.72,-322.33 717.08,-308.98 685.25,-299.23"/>
<polygon fill="#63b8ff" stroke="#63b8ff" points="686.56,-295.98 675.97,-296.4 684.51,-302.67 686.56,-295.98"/>
</a>
</g>
</g>
<!-- Node14 -->
<g id="Node000014" class="node">
<title>Node14</title>
<g id="a_Node000014"><a xlink:title=" ">
<polygon fill="#e0e0e0" stroke="#999999" points="759.86,-74.5 713.86,-74.5 713.86,-55.25 759.86,-55.25 759.86,-74.5"/>
<text text-anchor="middle" x="736.86" y="-61" font-family="Helvetica,sans-Serif" font-size="10.00">iterator</text>
</a>
</g>
</g>
<!-- Node1&#45;&gt;Node14 -->
<g id="edge46_Node000001_Node000014" class="edge">
<title>Node1&#45;&gt;Node14</title>
<g id="a_edge46_Node000001_Node000014"><a xlink:title=" ">
<path fill="none" stroke="#63b8ff" d="M869.48,-331.1C921.16,-318.63 993.86,-290.61 993.86,-231.62 993.86,-231.62 993.86,-231.62 993.86,-174.38 993.86,-78.92 841.52,-66.13 771.42,-65.3"/>
<polygon fill="#63b8ff" stroke="#63b8ff" points="771.65,-61.8 761.63,-65.27 771.62,-68.8 771.65,-61.8"/>
</a>
</g>
</g>
<!-- Node3 -->
<g id="Node000003" class="node">
<title>Node3</title>
<g id="a_Node000003"><a xlink:href="../../dc/d44/_call_8hpp.html" target="_top" xlink:title=" ">
<polygon fill="white" stroke="#666666" points="290.74,-185 198.99,-185 198.99,-165.75 290.74,-165.75 290.74,-185"/>
<text text-anchor="middle" x="244.86" y="-171.5" font-family="Helvetica,sans-Serif" font-size="10.00">mimic++/Call.hpp</text>
</a>
</g>
</g>
<!-- Node2&#45;&gt;Node3 -->
<g id="edge2_Node000002_Node000003" class="edge">
<title>Node2&#45;&gt;Node3</title>
<g id="a_edge2_Node000002_Node000003"><a xlink:title=" ">
<path fill="none" stroke="#63b8ff" d="M588.56,-281.76C506.04,-276.47 356.82,-263.91 308.86,-240.25 287.38,-229.65 268.77,-209 257.24,-194.04"/>
<polygon fill="#63b8ff" stroke="#63b8ff" points="260.37,-192.39 251.62,-186.41 254.74,-196.54 260.37,-192.39"/>
</a>
</g>
</g>
<!-- Node4 -->
<g id="Node000004" class="node">
<title>Node4</title>
<g id="a_Node000004"><a xlink:href="../../df/dde/_fwd_8hpp.html" target="_top" xlink:title=" ">
<polygon fill="white" stroke="#666666" points="441.86,-74.5 347.86,-74.5 347.86,-55.25 441.86,-55.25 441.86,-74.5"/>
<text text-anchor="middle" x="394.86" y="-61" font-family="Helvetica,sans-Serif" font-size="10.00">mimic++/Fwd.hpp</text>
</a>
</g>
</g>
<!-- Node2&#45;&gt;Node4 -->
<g id="edge16_Node000002_Node000004" class="edge">
<title>Node2&#45;&gt;Node4</title>
<g id="a_edge16_Node000002_Node000004"><a xlink:title=" ">
<path fill="none" stroke="#63b8ff" d="M588.55,-279.65C527.49,-273.08 434.87,-260.18 405.86,-240.25 382.09,-223.93 379.71,-212.74 371.86,-185 369.53,-176.77 369.38,-173.94 371.86,-165.75 377.43,-147.35 390.29,-148.15 395.86,-129.75 400.15,-115.58 399.7,-98.82 398.28,-86.02"/>
<polygon fill="#63b8ff" stroke="#63b8ff" points="401.77,-85.69 396.89,-76.29 394.84,-86.68 401.77,-85.69"/>
</a>
</g>
</g>
<!-- Node9 -->
<g id="Node000009" class="node">
<title>Node9</title>
<g id="a_Node000009"><a xlink:title=" ">
<polygon fill="#e0e0e0" stroke="#999999" points="61.99,-74.5 13.74,-74.5 13.74,-55.25 61.99,-55.25 61.99,-74.5"/>
<text text-anchor="middle" x="37.86" y="-61" font-family="Helvetica,sans-Serif" font-size="10.00">cassert</text>
</a>
</g>
</g>
<!-- Node2&#45;&gt;Node9 -->
<g id="edge39_Node000002_Node000009" class="edge">
<title>Node2&#45;&gt;Node9</title>
<g id="a_edge39_Node000002_Node000009"><a xlink:title=" ">
<path fill="none" stroke="#63b8ff" d="M588.53,-282.56C515.93,-278.54 386.27,-267.87 278.86,-240.25 151.29,-207.45 77.62,-238.88 3.86,-129.75 -6.41,-114.55 6.1,-95.91 18.74,-82.7"/>
<polygon fill="#63b8ff" stroke="#63b8ff" points="20.97,-85.41 25.74,-75.94 16.11,-80.37 20.97,-85.41"/>
</a>
</g>
</g>
<!-- Node13 -->
<g id="Node000013" class="node">
<title>Node13</title>
<g id="a_Node000013"><a xlink:href="../../da/dab/_printer_8hpp.html" target="_top" xlink:title=" ">
<polygon fill="white" stroke="#666666" points="604.74,-129.75 500.99,-129.75 500.99,-110.5 604.74,-110.5 604.74,-129.75"/>
<text text-anchor="middle" x="552.86" y="-116.25" font-family="Helvetica,sans-Serif" font-size="10.00">mimic++/Printer.hpp</text>
</a>
</g>
</g>
<!-- Node2&#45;&gt;Node13 -->
<g id="edge17_Node000002_Node000013" class="edge">
<title>Node2&#45;&gt;Node13</title>
<g id="a_edge17_Node000002_Node000013"><a xlink:title=" ">
<path fill="none" stroke="#63b8ff" d="M588.51,-283.45C523.33,-278.27 419.86,-258.25 379.86,-185 375.76,-177.49 374.62,-172.51 379.86,-165.75 393.45,-148.21 445.87,-136.34 489.48,-129.28"/>
<polygon fill="#63b8ff" stroke="#63b8ff" points="489.8,-132.77 499.14,-127.78 488.72,-125.85 489.8,-132.77"/>
</a>
</g>
</g>
<!-- Node17 -->
<g id="Node000017" class="node">
<title>Node17</title>
<g id="a_Node000017"><a xlink:href="../../d0/d3b/_reports_8hpp.html" target="_top" xlink:title=" ">
<polygon fill="white" stroke="#666666" points="616.36,-240.25 507.36,-240.25 507.36,-221 616.36,-221 616.36,-240.25"/>
<text text-anchor="middle" x="561.86" y="-226.75" font-family="Helvetica,sans-Serif" font-size="10.00">mimic++/Reports.hpp</text>
</a>
</g>
</g>
<!-- Node2&#45;&gt;Node17 -->
<g id="edge26_Node000002_Node000017" class="edge">
<title>Node2&#45;&gt;Node17</title>
<g id="a_edge26_Node000002_Node000017"><a xlink:title=" ">
<path fill="none" stroke="#63b8ff" d="M630.78,-275.84C618.38,-267.89 600.07,-256.14 585.43,-246.75"/>
<polygon fill="#63b8ff" stroke="#63b8ff" points="587.59,-243.97 577.28,-241.52 583.81,-249.87 587.59,-243.97"/>
</a>
</g>
</g>
<!-- Node18 -->
<g id="Node000018" class="node">
<title>Node18</title>
<g id="a_Node000018"><a xlink:title=" ">
<polygon fill="#e0e0e0" stroke="#999999" points="444.74,-185 388.99,-185 388.99,-165.75 444.74,-165.75 444.74,-185"/>
<text text-anchor="middle" x="416.86" y="-171.5" font-family="Helvetica,sans-Serif" font-size="10.00">algorithm</text>
</a>
</g>
</g>
<!-- Node2&#45;&gt;Node18 -->
<g id="edge38_Node000002_Node000018" class="edge">
<title>Node2&#45;&gt;Node18</title>
<g id="a_edge38_Node000002_Node000018"><a xlink:title=" ">
<path fill="none" stroke="#63b8ff" d="M600.43,-275.76C570.63,-268.6 531.08,-256.99 498.86,-240.25 474.23,-227.45 449.6,-206.97 433.85,-192.67"/>
<polygon fill="#63b8ff" stroke="#63b8ff" points="436.49,-190.34 426.79,-186.09 431.72,-195.46 436.49,-190.34"/>
</a>
</g>
</g>
<!-- Node19 -->
<g id="Node000019" class="node">
<title>Node19</title>
<g id="a_Node000019"><a xlink:title=" ">
<polygon fill="#e0e0e0" stroke="#999999" points="772.86,-185 714.86,-185 714.86,-165.75 772.86,-165.75 772.86,-185"/>
<text text-anchor="middle" x="743.86" y="-171.5" font-family="Helvetica,sans-Serif" font-size="10.00">functional</text>
</a>
</g>
</g>
<!-- Node2&#45;&gt;Node19 -->
<g id="edge41_Node000002_Node000019" class="edge">
<title>Node2&#45;&gt;Node19</title>
<g id="a_edge41_Node000002_Node000019"><a xlink:title=" ">
<path fill="none" stroke="#63b8ff" d="M645.41,-276.07C646.65,-262.78 650.69,-237.43 663.86,-221 674.85,-207.29 691.26,-197.1 706.36,-189.94"/>
<polygon fill="#63b8ff" stroke="#63b8ff" points="707.39,-193.31 715.14,-186.08 704.57,-186.91 707.39,-193.31"/>
</a>
</g>
</g>
<!-- Node20 -->
<g id="Node000020" class="node">
<title>Node20</title>
<g id="a_Node000020"><a xlink:title=" ">
<polygon fill="#e0e0e0" stroke="#999999" points="840.74,-185 790.99,-185 790.99,-165.75 840.74,-165.75 840.74,-185"/>
<text text-anchor="middle" x="815.86" y="-171.5" font-family="Helvetica,sans-Serif" font-size="10.00">optional</text>
</a>
</g>
</g>
<!-- Node2&#45;&gt;Node20 -->
<g id="edge43_Node000002_Node000020" class="edge">
<title>Node2&#45;&gt;Node20</title>
<g id="a_edge43_Node000002_Node000020"><a xlink:title=" ">
<path fill="none" stroke="#63b8ff" d="M701.09,-276.28C742.44,-268.76 793.79,-256.49 807.86,-240.25 818.06,-228.48 819.53,-210.6 818.75,-196.75"/>
<polygon fill="#63b8ff" stroke="#63b8ff" points="822.24,-196.54 817.74,-186.95 815.28,-197.26 822.24,-196.54"/>
</a>
</g>
</g>
<!-- Node21 -->
<g id="Node000021" class="node">
<title>Node21</title>
<g id="a_Node000021"><a xlink:title=" ">
<polygon fill="#e0e0e0" stroke="#999999" points="904.49,-185 859.24,-185 859.24,-165.75 904.49,-165.75 904.49,-185"/>
<text text-anchor="middle" x="881.86" y="-171.5" font-family="Helvetica,sans-Serif" font-size="10.00">ranges</text>
</a>
</g>
</g>
<!-- Node2&#45;&gt;Node21 -->
<g id="edge44_Node000002_Node000021" class="edge">
<title>Node2&#45;&gt;Node21</title>
<g id="a_edge44_Node000002_Node000021"><a xlink:title=" ">
<path fill="none" stroke="#63b8ff" d="M701.27,-279.85C738.8,-274.45 787.98,-263.29 825.86,-240.25 844.52,-228.9 860.33,-209.32 870.34,-194.81"/>
<polygon fill="#63b8ff" stroke="#63b8ff" points="873.17,-196.89 875.73,-186.61 867.32,-193.04 873.17,-196.89"/>
</a>
</g>
</g>
<!-- Node24 -->
<g id="Node000024" class="node">
<title>Node24</title>
<g id="a_Node000024"><a xlink:title=" ">
<polygon fill="#e0e0e0" stroke="#999999" points="965.36,-185 922.36,-185 922.36,-165.75 965.36,-165.75 965.36,-185"/>
<text text-anchor="middle" x="943.86" y="-171.5" font-family="Helvetica,sans-Serif" font-size="10.00">vector</text>
</a>
</g>
</g>
<!-- Node2&#45;&gt;Node24 -->
<g id="edge45_Node000002_Node000024" class="edge">
<title>Node2&#45;&gt;Node24</title>
<g id="a_edge45_Node000002_Node000024"><a xlink:title=" ">
<path fill="none" stroke="#63b8ff" d="M701.17,-278.83C743.88,-272.82 803.3,-261.33 851.86,-240.25 879.55,-228.23 907.49,-207.3 925.2,-192.68"/>
<polygon fill="#63b8ff" stroke="#63b8ff" points="927.38,-195.42 932.75,-186.29 922.86,-190.07 927.38,-195.42"/>
</a>
</g>
</g>
<!-- Node25 -->
<g id="Node000025" class="node">
<title>Node25</title>
<g id="a_Node000025"><a xlink:title=" ">
<polygon fill="#e0e0e0" stroke="#999999" points="730.49,-240.25 673.24,-240.25 673.24,-221 730.49,-221 730.49,-240.25"/>
<text text-anchor="middle" x="701.86" y="-226.75" font-family="Helvetica,sans-Serif" font-size="10.00">exception</text>
</a>
</g>
</g>
<!-- Node2&#45;&gt;Node25 -->
<g id="edge40_Node000002_Node000025" class="edge">
<title>Node2&#45;&gt;Node25</title>
<g id="a_edge40_Node000002_Node000025"><a xlink:title=" ">
<path fill="none" stroke="#63b8ff" d="M654.53,-275.84C662.6,-268.3 674.33,-257.35 684.09,-248.23"/>
<polygon fill="#63b8ff" stroke="#63b8ff" points="686.31,-250.94 691.23,-241.56 681.53,-245.83 686.31,-250.94"/>
</a>
</g>
</g>
<!-- Node26 -->
<g id="Node000026" class="node">
<title>Node26</title>
<g id="a_Node000026"><a xlink:title=" ">
<polygon fill="#e0e0e0" stroke="#999999" points="799.11,-240.25 748.61,-240.25 748.61,-221 799.11,-221 799.11,-240.25"/>
<text text-anchor="middle" x="773.86" y="-226.75" font-family="Helvetica,sans-Serif" font-size="10.00">memory</text>
</a>
</g>
</g>
<!-- Node2&#45;&gt;Node26 -->
<g id="edge42_Node000002_Node000026" class="edge">
<title>Node2&#45;&gt;Node26</title>
<g id="a_edge42_Node000002_Node000026"><a xlink:title=" ">
<path fill="none" stroke="#63b8ff" d="M666.74,-275.84C687.22,-267.39 718.07,-254.65 741.42,-245.02"/>
<polygon fill="#63b8ff" stroke="#63b8ff" points="742.56,-248.33 750.47,-241.28 739.89,-241.86 742.56,-248.33"/>
</a>
</g>
</g>
<!-- Node3&#45;&gt;Node4 -->
<g id="edge3_Node000003_Node000004" class="edge">
<title>Node3&#45;&gt;Node4</title>
<g id="a_edge3_Node000003_Node000004"><a xlink:title=" ">
<path fill="none" stroke="#63b8ff" d="M291.19,-169.32C319.22,-163.93 353.71,-152.78 375.86,-129.75 387.04,-118.13 391.67,-100.23 393.58,-86.34"/>
<polygon fill="#63b8ff" stroke="#63b8ff" points="397.05,-86.79 394.53,-76.5 390.09,-86.12 397.05,-86.79"/>
</a>
</g>
</g>
<!-- Node6 -->
<g id="Node000006" class="node">
<title>Node6</title>
<g id="a_Node000006"><a xlink:href="../../d8/d32/_type_traits_8hpp.html" target="_top" xlink:title=" ">
<polygon fill="white" stroke="#666666" points="134.36,-129.75 13.36,-129.75 13.36,-110.5 134.36,-110.5 134.36,-129.75"/>
<text text-anchor="middle" x="73.86" y="-116.25" font-family="Helvetica,sans-Serif" font-size="10.00">mimic++/TypeTraits.hpp</text>
</a>
</g>
</g>
<!-- Node3&#45;&gt;Node6 -->
<g id="edge5_Node000003_Node000006" class="edge">
<title>Node3&#45;&gt;Node6</title>
<g id="a_edge5_Node000003_Node000006"><a xlink:title=" ">
<path fill="none" stroke="#63b8ff" d="M215.85,-165.34C187.85,-156.62 145.21,-143.34 113.96,-133.61"/>
<polygon fill="#63b8ff" stroke="#63b8ff" points="115.04,-130.28 104.46,-130.65 112.96,-136.97 115.04,-130.28"/>
</a>
</g>
</g>
<!-- Node7 -->
<g id="Node000007" class="node">
<title>Node7</title>
<g id="a_Node000007"><a xlink:title=" ">
<polygon fill="#e0e0e0" stroke="#999999" points="131.36,-74.5 94.36,-74.5 94.36,-55.25 131.36,-55.25 131.36,-74.5"/>
<text text-anchor="middle" x="112.86" y="-61" font-family="Helvetica,sans-Serif" font-size="10.00">tuple</text>
</a>
</g>
</g>
<!-- Node3&#45;&gt;Node7 -->
<g id="edge14_Node000003_Node000007" class="edge">
<title>Node3&#45;&gt;Node7</title>
<g id="a_edge14_Node000003_Node000007"><a xlink:title=" ">
<path fill="none" stroke="#63b8ff" d="M234.06,-165.5C211.82,-147.22 160.65,-105.15 132.43,-81.96"/>
<polygon fill="#63b8ff" stroke="#63b8ff" points="134.93,-79.48 124.98,-75.84 130.48,-84.89 134.93,-79.48"/>
</a>
</g>
</g>
<!-- Node8 -->
<g id="Node000008" class="node">
<title>Node8</title>
<g id="a_Node000008"><a xlink:href="../../d4/d2c/_utility_8hpp.html" target="_top" xlink:title=" ">
<polygon fill="white" stroke="#666666" points="366.86,-129.75 266.86,-129.75 266.86,-110.5 366.86,-110.5 366.86,-129.75"/>
<text text-anchor="middle" x="316.86" y="-116.25" font-family="Helvetica,sans-Serif" font-size="10.00">mimic++/Utility.hpp</text>
</a>
</g>
</g>
<!-- Node3&#45;&gt;Node8 -->
<g id="edge7_Node000003_Node000008" class="edge">
<title>Node3&#45;&gt;Node8</title>
<g id="a_edge7_Node000003_Node000008"><a xlink:title=" ">
<path fill="none" stroke="#63b8ff" d="M257.07,-165.34C267.69,-157.49 283.3,-145.95 295.9,-136.62"/>
<polygon fill="#63b8ff" stroke="#63b8ff" points="297.65,-139.69 303.61,-130.92 293.49,-134.06 297.65,-139.69"/>
</a>
</g>
</g>
<!-- Node11 -->
<g id="Node000011" class="node">
<title>Node11</title>
<g id="a_Node000011"><a xlink:title=" ">
<polygon fill="#e0e0e0" stroke="#999999" points="329.99,-74.5 245.74,-74.5 245.74,-55.25 329.99,-55.25 329.99,-74.5"/>
<text text-anchor="middle" x="287.86" y="-61" font-family="Helvetica,sans-Serif" font-size="10.00">source_location</text>
</a>
</g>
</g>
<!-- Node3&#45;&gt;Node11 -->
<g id="edge13_Node000003_Node000011" class="edge">
<title>Node3&#45;&gt;Node11</title>
<g id="a_edge13_Node000003_Node000011"><a xlink:title=" ">
<path fill="none" stroke="#63b8ff" d="M245.58,-165.37C246.84,-152.7 250.08,-129.08 257.86,-110.5 261.77,-101.16 267.75,-91.72 273.35,-83.95"/>
<polygon fill="#63b8ff" stroke="#63b8ff" points="276.1,-86.12 279.36,-76.04 270.52,-81.88 276.1,-86.12"/>
</a>
</g>
</g>
<!-- Node12 -->
<g id="Node000012" class="node">
<title>Node12</title>
<g id="a_Node000012"><a xlink:title=" ">
<polygon fill="#e0e0e0" stroke="#999999" points="228.11,-74.5 189.61,-74.5 189.61,-55.25 228.11,-55.25 228.11,-74.5"/>
<text text-anchor="middle" x="208.86" y="-61" font-family="Helvetica,sans-Serif" font-size="10.00">utility</text>
</a>
</g>
</g>
<!-- Node3&#45;&gt;Node12 -->
<g id="edge15_Node000003_Node000012" class="edge">
<title>Node3&#45;&gt;Node12</title>
<g id="a_edge15_Node000003_Node000012"><a xlink:title=" ">
<path fill="none" stroke="#63b8ff" d="M240.24,-165.34C235.84,-156.45 229.25,-142.43 224.86,-129.75 219.87,-115.33 215.73,-98.58 212.92,-85.85"/>
<polygon fill="#63b8ff" stroke="#63b8ff" points="216.36,-85.24 210.87,-76.18 209.51,-86.68 216.36,-85.24"/>
</a>
</g>
</g>
<!-- Node5 -->
<g id="Node000005" class="node">
<title>Node5</title>
<g id="a_Node000005"><a xlink:title=" ">
<polygon fill="#e0e0e0" stroke="#999999" points="524.86,-19.25 484.86,-19.25 484.86,0 524.86,0 524.86,-19.25"/>
<text text-anchor="middle" x="504.86" y="-5.75" font-family="Helvetica,sans-Serif" font-size="10.00">string</text>
</a>
</g>
</g>
<!-- Node4&#45;&gt;Node5 -->
<g id="edge4_Node000004_Node000005" class="edge">
<title>Node4&#45;&gt;Node5</title>
<g id="a_edge4_Node000004_Node000005"><a xlink:title=" ">
<path fill="none" stroke="#63b8ff" d="M413.52,-54.84C430.59,-46.58 456.11,-34.23 475.83,-24.68"/>
<polygon fill="#63b8ff" stroke="#63b8ff" points="477.27,-27.87 484.75,-20.36 474.22,-21.57 477.27,-27.87"/>
</a>
</g>
</g>
<!-- Node6&#45;&gt;Node7 -->
<g id="edge6_Node000006_Node000007" class="edge">
<title>Node6&#45;&gt;Node7</title>
<g id="a_edge6_Node000006_Node000007"><a xlink:title=" ">
<path fill="none" stroke="#63b8ff" d="M80.3,-110.33C85.52,-103.21 93.05,-92.93 99.55,-84.05"/>
<polygon fill="#63b8ff" stroke="#63b8ff" points="102.3,-86.22 105.39,-76.08 96.65,-82.08 102.3,-86.22"/>
</a>
</g>
</g>
<!-- Node8&#45;&gt;Node4 -->
<g id="edge8_Node000008_Node000004" class="edge">
<title>Node8&#45;&gt;Node4</title>
<g id="a_edge8_Node000008_Node000004"><a xlink:title=" ">
<path fill="none" stroke="#63b8ff" d="M330.09,-110.09C341.63,-102.21 358.63,-90.61 372.31,-81.27"/>
<polygon fill="#63b8ff" stroke="#63b8ff" points="374.03,-84.33 380.31,-75.81 370.08,-78.55 374.03,-84.33"/>
</a>
</g>
</g>
<!-- Node8&#45;&gt;Node9 -->
<g id="edge9_Node000008_Node000009" class="edge">
<title>Node8&#45;&gt;Node9</title>
<g id="a_edge9_Node000008_Node000009"><a xlink:title=" ">
<path fill="none" stroke="#63b8ff" d="M269.22,-110.03C213.74,-99.44 123.39,-82.2 73.6,-72.7"/>
<polygon fill="#63b8ff" stroke="#63b8ff" points="74.41,-69.29 63.93,-70.85 73.1,-76.16 74.41,-69.29"/>
</a>
</g>
</g>
<!-- Node10 -->
<g id="Node000010" class="node">
<title>Node10</title>
<g id="a_Node000010"><a xlink:title=" ">
<polygon fill="#e0e0e0" stroke="#999999" points="503.74,-74.5 459.99,-74.5 459.99,-55.25 503.74,-55.25 503.74,-74.5"/>
<text text-anchor="middle" x="481.86" y="-61" font-family="Helvetica,sans-Serif" font-size="10.00">format</text>
</a>
</g>
</g>
<!-- Node8&#45;&gt;Node10 -->
<g id="edge10_Node000008_Node000010" class="edge">
<title>Node8&#45;&gt;Node10</title>
<g id="a_edge10_Node000008_Node000010"><a xlink:title=" ">
<path fill="none" stroke="#63b8ff" d="M344.85,-110.09C373.55,-100.83 418.18,-86.43 448.64,-76.6"/>
<polygon fill="#63b8ff" stroke="#63b8ff" points="449.68,-79.94 458.13,-73.54 447.53,-73.28 449.68,-79.94"/>
</a>
</g>
</g>
<!-- Node8&#45;&gt;Node11 -->
<g id="edge11_Node000008_Node000011" class="edge">
<title>Node8&#45;&gt;Node11</title>
<g id="a_edge11_Node000008_Node000011"><a xlink:title=" ">
<path fill="none" stroke="#63b8ff" d="M312.07,-110.33C308.32,-103.44 302.95,-93.59 298.23,-84.91"/>
<polygon fill="#63b8ff" stroke="#63b8ff" points="301.33,-83.3 293.48,-76.19 295.19,-86.64 301.33,-83.3"/>
</a>
</g>
</g>
<!-- Node8&#45;&gt;Node12 -->
<g id="edge12_Node000008_Node000012" class="edge">
<title>Node8&#45;&gt;Node12</title>
<g id="a_edge12_Node000008_Node000012"><a xlink:title=" ">
<path fill="none" stroke="#63b8ff" d="M298.54,-110.09C281.78,-101.83 256.73,-89.48 237.36,-79.93"/>
<polygon fill="#63b8ff" stroke="#63b8ff" points="239.15,-76.9 228.63,-75.62 236.05,-83.18 239.15,-76.9"/>
</a>
</g>
</g>
<!-- Node13&#45;&gt;Node4 -->
<g id="edge18_Node000013_Node000004" class="edge">
<title>Node13&#45;&gt;Node4</title>
<g id="a_edge18_Node000013_Node000004"><a xlink:title=" ">
<path fill="none" stroke="#63b8ff" d="M526.06,-110.09C500.41,-101.45 461.47,-88.32 432.67,-78.62"/>
<polygon fill="#63b8ff" stroke="#63b8ff" points="433.82,-75.31 423.23,-75.44 431.59,-81.95 433.82,-75.31"/>
</a>
</g>
</g>
<!-- Node13&#45;&gt;Node5 -->
<g id="edge23_Node000013_Node000005" class="edge">
<title>Node13&#45;&gt;Node5</title>
<g id="a_edge23_Node000013_Node000005"><a xlink:title=" ">
<path fill="none" stroke="#63b8ff" d="M566.75,-110.19C583.93,-97.99 609.44,-75.33 596.86,-55.25 583.66,-34.18 557.37,-22.81 536.26,-16.83"/>
<polygon fill="#63b8ff" stroke="#63b8ff" points="537.2,-13.46 526.65,-14.4 535.49,-20.24 537.2,-13.46"/>
</a>
</g>
</g>
<!-- Node13&#45;&gt;Node10 -->
<g id="edge19_Node000013_Node000010" class="edge">
<title>Node13&#45;&gt;Node10</title>
<g id="a_edge19_Node000013_Node000010"><a xlink:title=" ">
<path fill="none" stroke="#63b8ff" d="M540.82,-110.09C530.45,-102.32 515.26,-90.92 502.89,-81.65"/>
<polygon fill="#63b8ff" stroke="#63b8ff" points="505.04,-78.88 494.94,-75.68 500.84,-84.48 505.04,-78.88"/>
</a>
</g>
</g>
<!-- Node13&#45;&gt;Node11 -->
<g id="edge21_Node000013_Node000011" class="edge">
<title>Node13&#45;&gt;Node11</title>
<g id="a_edge21_Node000013_Node000011"><a xlink:title=" ">
<path fill="none" stroke="#63b8ff" d="M507.61,-110.03C461.62,-100.79 390.4,-86.48 341.58,-76.67"/>
<polygon fill="#63b8ff" stroke="#63b8ff" points="342.28,-73.24 331.78,-74.7 340.9,-80.1 342.28,-73.24"/>
</a>
</g>
</g>
<!-- Node13&#45;&gt;Node12 -->
<g id="edge25_Node000013_Node000012" class="edge">
<title>Node13&#45;&gt;Node12</title>
<g id="a_edge25_Node000013_Node000012"><a xlink:title=" ">
<path fill="none" stroke="#63b8ff" d="M500.68,-114.32C439.99,-108.16 336.68,-95.93 239.54,-74.79"/>
<polygon fill="#63b8ff" stroke="#63b8ff" points="240.34,-71.38 229.81,-72.63 238.82,-78.22 240.34,-71.38"/>
</a>
</g>
</g>
<!-- Node13&#45;&gt;Node14 -->
<g id="edge20_Node000013_Node000014" class="edge">
<title>Node13&#45;&gt;Node14</title>
<g id="a_edge20_Node000013_Node000014"><a xlink:title=" ">
<path fill="none" stroke="#63b8ff" d="M584.07,-110.09C616.96,-100.57 668.6,-85.63 702.6,-75.79"/>
<polygon fill="#63b8ff" stroke="#63b8ff" points="703.31,-79.23 711.94,-73.09 701.36,-72.5 703.31,-79.23"/>
</a>
</g>
</g>
<!-- Node15 -->
<g id="Node000015" class="node">
<title>Node15</title>
<g id="a_Node000015"><a xlink:title=" ">
<polygon fill="#e0e0e0" stroke="#999999" points="695.49,-74.5 644.24,-74.5 644.24,-55.25 695.49,-55.25 695.49,-74.5"/>
<text text-anchor="middle" x="669.86" y="-61" font-family="Helvetica,sans-Serif" font-size="10.00">sstream</text>
</a>
</g>
</g>
<!-- Node13&#45;&gt;Node15 -->
<g id="edge22_Node000013_Node000015" class="edge">
<title>Node13&#45;&gt;Node15</title>
<g id="a_edge22_Node000013_Node000015"><a xlink:title=" ">
<path fill="none" stroke="#63b8ff" d="M572.71,-110.09C591.03,-101.75 618.51,-89.25 639.57,-79.66"/>
<polygon fill="#63b8ff" stroke="#63b8ff" points="640.89,-82.91 648.54,-75.58 637.99,-76.54 640.89,-82.91"/>
</a>
</g>
</g>
<!-- Node16 -->
<g id="Node000016" class="node">
<title>Node16</title>
<g id="a_Node000016"><a xlink:title=" ">
<polygon fill="#e0e0e0" stroke="#999999" points="587.61,-74.5 522.11,-74.5 522.11,-55.25 587.61,-55.25 587.61,-74.5"/>
<text text-anchor="middle" x="554.86" y="-61" font-family="Helvetica,sans-Serif" font-size="10.00">string_view</text>
</a>
</g>
</g>
<!-- Node13&#45;&gt;Node16 -->
<g id="edge24_Node000013_Node000016" class="edge">
<title>Node13&#45;&gt;Node16</title>
<g id="a_edge24_Node000013_Node000016"><a xlink:title=" ">
<path fill="none" stroke="#63b8ff" d="M553.19,-110.33C553.44,-103.74 553.79,-94.46 554.1,-86.07"/>
<polygon fill="#63b8ff" stroke="#63b8ff" points="557.59,-86.5 554.47,-76.37 550.59,-86.23 557.59,-86.5"/>
</a>
</g>
</g>
<!-- Node17&#45;&gt;Node3 -->
<g id="edge27_Node000017_Node000003" class="edge">
<title>Node17&#45;&gt;Node3</title>
<g id="a_edge27_Node000017_Node000003"><a xlink:title=" ">
<path fill="none" stroke="#63b8ff" d="M507.73,-220.53C450.53,-210.92 360.7,-195.83 302.29,-186.02"/>
<polygon fill="#63b8ff" stroke="#63b8ff" points="302.98,-182.59 292.54,-184.38 301.82,-189.49 302.98,-182.59"/>
</a>
</g>
</g>
<!-- Node17&#45;&gt;Node4 -->
<g id="edge28_Node000017_Node000004" class="edge">
<title>Node17&#45;&gt;Node4</title>
<g id="a_edge28_Node000017_Node000004"><a xlink:title=" ">
<path fill="none" stroke="#63b8ff" d="M553.76,-220.68C535.35,-200.47 488.69,-149.95 446.86,-110.5 436.5,-100.73 424.45,-90.33 414.57,-82.04"/>
<polygon fill="#63b8ff" stroke="#63b8ff" points="416.97,-79.48 407.04,-75.78 412.5,-84.87 416.97,-79.48"/>
</a>
</g>
</g>
<!-- Node17&#45;&gt;Node13 -->
<g id="edge29_Node000017_Node000013" class="edge">
<title>Node17&#45;&gt;Node13</title>
<g id="a_edge29_Node000017_Node000013"><a xlink:title=" ">
<path fill="none" stroke="#63b8ff" d="M552.81,-220.67C545.02,-212.29 534.35,-198.98 529.86,-185 524.9,-169.57 531.9,-152.29 539.45,-139.6"/>
<polygon fill="#63b8ff" stroke="#63b8ff" points="542.26,-141.7 544.83,-131.42 536.41,-137.85 542.26,-141.7"/>
</a>
</g>
</g>
<!-- Node17&#45;&gt;Node14 -->
<g id="edge32_Node000017_Node000014" class="edge">
<title>Node17&#45;&gt;Node14</title>
<g id="a_edge32_Node000017_Node000014"><a xlink:title=" ">
<path fill="none" stroke="#63b8ff" d="M598.71,-220.54C620.73,-213.66 648.16,-202.36 667.86,-185 699.29,-157.32 720.02,-111.71 729.98,-85.69"/>
<polygon fill="#63b8ff" stroke="#63b8ff" points="733.24,-86.97 733.38,-76.38 726.66,-84.57 733.24,-86.97"/>
</a>
</g>
</g>
<!-- Node17&#45;&gt;Node18 -->
<g id="edge30_Node000017_Node000018" class="edge">
<title>Node17&#45;&gt;Node18</title>
<g id="a_edge30_Node000017_Node000018"><a xlink:title=" ">
<path fill="none" stroke="#63b8ff" d="M537.26,-220.59C513.93,-212.02 478.62,-199.06 452.27,-189.38"/>
<polygon fill="#63b8ff" stroke="#63b8ff" points="453.59,-186.14 443,-185.97 451.18,-192.71 453.59,-186.14"/>
</a>
</g>
</g>
<!-- Node17&#45;&gt;Node19 -->
<g id="edge31_Node000017_Node000019" class="edge">
<title>Node17&#45;&gt;Node19</title>
<g id="a_edge31_Node000017_Node000019"><a xlink:title=" ">
<path fill="none" stroke="#63b8ff" d="M592.73,-220.59C623.35,-211.63 670.4,-197.87 703.86,-188.08"/>
<polygon fill="#63b8ff" stroke="#63b8ff" points="704.58,-191.52 713.19,-185.35 702.61,-184.8 704.58,-191.52"/>
</a>
</g>
</g>
<!-- Node17&#45;&gt;Node20 -->
<g id="edge33_Node000017_Node000020" class="edge">
<title>Node17&#45;&gt;Node20</title>
<g id="a_edge33_Node000017_Node000020"><a xlink:title=" ">
<path fill="none" stroke="#63b8ff" d="M610.07,-220.54C652.3,-212.43 715.58,-199.9 779.54,-185.44"/>
<polygon fill="#63b8ff" stroke="#63b8ff" points="780.19,-188.88 789.17,-183.25 778.64,-182.06 780.19,-188.88"/>
</a>
</g>
</g>
<!-- Node17&#45;&gt;Node21 -->
<g id="edge34_Node000017_Node000021" class="edge">
<title>Node17&#45;&gt;Node21</title>
<g id="a_edge34_Node000017_Node000021"><a xlink:title=" ">
<path fill="none" stroke="#63b8ff" d="M616.59,-222.96C672.38,-215.76 761.61,-203.14 847.82,-185.22"/>
<polygon fill="#63b8ff" stroke="#63b8ff" points="848.32,-188.7 857.38,-183.21 846.87,-181.85 848.32,-188.7"/>
</a>
</g>
</g>
<!-- Node22 -->
<g id="Node000022" class="node">
<title>Node22</title>
<g id="a_Node000022"><a xlink:title=" ">
<polygon fill="#e0e0e0" stroke="#999999" points="659.11,-185 602.61,-185 602.61,-165.75 659.11,-165.75 659.11,-185"/>
<text text-anchor="middle" x="630.86" y="-171.5" font-family="Helvetica,sans-Serif" font-size="10.00">typeindex</text>
</a>
</g>
</g>
<!-- Node17&#45;&gt;Node22 -->
<g id="edge35_Node000017_Node000022" class="edge">
<title>Node17&#45;&gt;Node22</title>
<g id="a_edge35_Node000017_Node000022"><a xlink:title=" ">
<path fill="none" stroke="#63b8ff" d="M573.57,-220.59C583.64,-212.82 598.4,-201.42 610.42,-192.15"/>
<polygon fill="#63b8ff" stroke="#63b8ff" points="612.35,-195.08 618.13,-186.2 608.08,-189.54 612.35,-195.08"/>
</a>
</g>
</g>
<!-- Node23 -->
<g id="Node000023" class="node">
<title>Node23</title>
<g id="a_Node000023"><a xlink:title=" ">
<polygon fill="#e0e0e0" stroke="#999999" points="584.49,-185 539.24,-185 539.24,-165.75 584.49,-165.75 584.49,-185"/>
<text text-anchor="middle" x="561.86" y="-171.5" font-family="Helvetica,sans-Serif" font-size="10.00">variant</text>
</a>
</g>
</g>
<!-- Node17&#45;&gt;Node23 -->
<g id="edge36_Node000017_Node000023" class="edge">
<title>Node17&#45;&gt;Node23</title>
<g id="a_edge36_Node000017_Node000023"><a xlink:title=" ">
<path fill="none" stroke="#63b8ff" d="M561.86,-220.83C561.86,-214.32 561.86,-205.17 561.86,-196.87"/>
<polygon fill="#63b8ff" stroke="#63b8ff" points="565.36,-196.87 561.86,-186.87 558.36,-196.87 565.36,-196.87"/>
</a>
</g>
</g>
<!-- Node17&#45;&gt;Node24 -->
<g id="edge37_Node000017_Node000024" class="edge">
<title>Node17&#45;&gt;Node24</title>
<g id="a_edge37_Node000017_Node000024"><a xlink:title=" ">
<path fill="none" stroke="#63b8ff" d="M616.56,-225.32C683.83,-219.44 801.63,-207.27 910.79,-185.37"/>
<polygon fill="#63b8ff" stroke="#63b8ff" points="911.42,-188.81 920.52,-183.38 910.02,-181.96 911.42,-188.81"/>
</a>
</g>
</g>
</g>
</svg>
