<?xml version="1.0" encoding="UTF-8" standalone="no"?>
<!DOCTYPE svg PUBLIC "-//W3C//DTD SVG 1.1//EN"
 "http://www.w3.org/Graphics/SVG/1.1/DTD/svg11.dtd">
<!-- Generated by graphviz version 12.1.2 (20240928.0832)
 -->
<!-- Title: mimic++/Reports.hpp Pages: 1 -->
<svg width="1023pt" height="248pt"
 viewBox="0.00 0.00 1023.00 248.25" xmlns="http://www.w3.org/2000/svg" xmlns:xlink="http://www.w3.org/1999/xlink">
<g id="graph0" class="graph" transform="scale(1 1) rotate(0) translate(4 244.25)">
<title>mimic++/Reports.hpp</title>
<!-- Node1 -->
<g id="Node000001" class="node">
<title>Node1</title>
<g id="a_Node000001"><a xlink:title=" ">
<polygon fill="#999999" stroke="#666666" points="711,-240.25 602,-240.25 602,-221 711,-221 711,-240.25"/>
<text text-anchor="middle" x="656.5" y="-226.75" font-family="Helvetica,sans-Serif" font-size="10.00">mimic++/Reports.hpp</text>
</a>
</g>
</g>
<!-- Node2 -->
<g id="Node000002" class="node">
<title>Node2</title>
<g id="a_Node000002"><a xlink:href="../../dc/d44/_call_8hpp.html" target="_top" xlink:title=" ">
<polygon fill="white" stroke="#666666" points="294.38,-185 202.62,-185 202.62,-165.75 294.38,-165.75 294.38,-185"/>
<text text-anchor="middle" x="248.5" y="-171.5" font-family="Helvetica,sans-Serif" font-size="10.00">mimic++/Call.hpp</text>
</a>
</g>
</g>
<!-- Node1&#45;&gt;Node2 -->
<g id="edge1_Node000001_Node000002" class="edge">
<title>Node1&#45;&gt;Node2</title>
<g id="a_edge1_Node000001_Node000002"><a xlink:title=" ">
<path fill="none" stroke="#63b8ff" d="M601.9,-222.5C524.7,-212.42 384.32,-194.1 305.72,-183.84"/>
<polygon fill="#63b8ff" stroke="#63b8ff" points="306.46,-180.41 296.09,-182.59 305.55,-187.35 306.46,-180.41"/>
</a>
</g>
</g>
<!-- Node3 -->
<g id="Node000003" class="node">
<title>Node3</title>
<g id="a_Node000003"><a xlink:href="../../df/dde/_fwd_8hpp.html" target="_top" xlink:title=" ">
<polygon fill="white" stroke="#666666" points="167.5,-74.5 73.5,-74.5 73.5,-55.25 167.5,-55.25 167.5,-74.5"/>
<text text-anchor="middle" x="120.5" y="-61" font-family="Helvetica,sans-Serif" font-size="10.00">mimic++/Fwd.hpp</text>
</a>
</g>
</g>
<!-- Node1&#45;&gt;Node3 -->
<g id="edge15_Node000001_Node000003" class="edge">
<title>Node1&#45;&gt;Node3</title>
<g id="a_edge15_Node000001_Node000003"><a xlink:title=" ">
<path fill="none" stroke="#63b8ff" d="M628.32,-220.55C600.77,-211.65 557.69,-197.6 520.5,-185 425.52,-152.81 403.73,-138.73 307.5,-110.5 263.53,-97.6 212.93,-85.7 175.47,-77.44"/>
<polygon fill="#63b8ff" stroke="#63b8ff" points="176.28,-74.04 165.76,-75.32 174.79,-80.87 176.28,-74.04"/>
</a>
</g>
</g>
<!-- Node11 -->
<g id="Node000011" class="node">
<title>Node11</title>
<g id="a_Node000011"><a xlink:href="../../da/dab/_printer_8hpp.html" target="_top" xlink:title=" ">
<polygon fill="white" stroke="#666666" points="534.38,-129.75 430.62,-129.75 430.62,-110.5 534.38,-110.5 534.38,-129.75"/>
<text text-anchor="middle" x="482.5" y="-116.25" font-family="Helvetica,sans-Serif" font-size="10.00">mimic++/Printer.hpp</text>
</a>
</g>
</g>
<!-- Node1&#45;&gt;Node11 -->
<g id="edge16_Node000001_Node000011" class="edge">
<title>Node1&#45;&gt;Node11</title>
<g id="a_edge16_Node000001_Node000011"><a xlink:title=" ">
<path fill="none" stroke="#63b8ff" d="M626.13,-220.52C603.62,-212.97 572.76,-200.91 548.5,-185 528.59,-171.94 509.46,-152.39 496.96,-138.36"/>
<polygon fill="#63b8ff" stroke="#63b8ff" points="499.96,-136.47 490.76,-131.21 494.67,-141.05 499.96,-136.47"/>
</a>
</g>
</g>
<!-- Node12 -->
<g id="Node000012" class="node">
<title>Node12</title>
<g id="a_Node000012"><a xlink:title=" ">
<polygon fill="#e0e0e0" stroke="#999999" points="720.5,-74.5 662.5,-74.5 662.5,-55.25 720.5,-55.25 720.5,-74.5"/>
<text text-anchor="middle" x="691.5" y="-61" font-family="Helvetica,sans-Serif" font-size="10.00">functional</text>
</a>
</g>
</g>
<!-- Node1&#45;&gt;Node12 -->
<g id="edge27_Node000001_Node000012" class="edge">
<title>Node1&#45;&gt;Node12</title>
<g id="a_edge27_Node000001_Node000012"><a xlink:title=" ">
<path fill="none" stroke="#63b8ff" d="M630.64,-220.57C614.81,-213.54 595.86,-202.06 586.5,-185 570.58,-155.97 568.23,-138.11 586.5,-110.5 594.17,-98.9 625.03,-86.6 651.32,-77.85"/>
<polygon fill="#63b8ff" stroke="#63b8ff" points="652.34,-81.2 660.79,-74.8 650.19,-74.54 652.34,-81.2"/>
</a>
</g>
</g>
<!-- Node13 -->
<g id="Node000013" class="node">
<title>Node13</title>
<g id="a_Node000013"><a xlink:title=" ">
<polygon fill="#e0e0e0" stroke="#999999" points="784.5,-74.5 738.5,-74.5 738.5,-55.25 784.5,-55.25 784.5,-74.5"/>
<text text-anchor="middle" x="761.5" y="-61" font-family="Helvetica,sans-Serif" font-size="10.00">iterator</text>
</a>
</g>
</g>
<!-- Node1&#45;&gt;Node13 -->
<g id="edge28_Node000001_Node000013" class="edge">
<title>Node1&#45;&gt;Node13</title>
<g id="a_edge28_Node000001_Node000013"><a xlink:title=" ">
<path fill="none" stroke="#63b8ff" d="M644.87,-220.67C630.49,-208.45 609.11,-185.77 619.5,-165.75 642.12,-122.18 693.44,-93.63 727.78,-78.61"/>
<polygon fill="#63b8ff" stroke="#63b8ff" points="729.01,-81.89 736.88,-74.8 726.3,-75.44 729.01,-81.89"/>
</a>
</g>
</g>
<!-- Node17 -->
<g id="Node000017" class="node">
<title>Node17</title>
<g id="a_Node000017"><a xlink:title=" ">
<polygon fill="#e0e0e0" stroke="#999999" points="684.38,-185 628.62,-185 628.62,-165.75 684.38,-165.75 684.38,-185"/>
<text text-anchor="middle" x="656.5" y="-171.5" font-family="Helvetica,sans-Serif" font-size="10.00">algorithm</text>
</a>
</g>
</g>
<!-- Node1&#45;&gt;Node17 -->
<g id="edge26_Node000001_Node000017" class="edge">
<title>Node1&#45;&gt;Node17</title>
<g id="a_edge26_Node000001_Node000017"><a xlink:title=" ">
<path fill="none" stroke="#63b8ff" d="M656.5,-220.83C656.5,-214.32 656.5,-205.17 656.5,-196.87"/>
<polygon fill="#63b8ff" stroke="#63b8ff" points="660,-196.87 656.5,-186.87 653,-196.87 660,-196.87"/>
</a>
</g>
</g>
<!-- Node18 -->
<g id="Node000018" class="node">
<title>Node18</title>
<g id="a_Node000018"><a xlink:title=" ">
<polygon fill="#e0e0e0" stroke="#999999" points="752.38,-185 702.62,-185 702.62,-165.75 752.38,-165.75 752.38,-185"/>
<text text-anchor="middle" x="727.5" y="-171.5" font-family="Helvetica,sans-Serif" font-size="10.00">optional</text>
</a>
</g>
</g>
<!-- Node1&#45;&gt;Node18 -->
<g id="edge29_Node000001_Node000018" class="edge">
<title>Node1&#45;&gt;Node18</title>
<g id="a_edge29_Node000001_Node000018"><a xlink:title=" ">
<path fill="none" stroke="#63b8ff" d="M668.54,-220.59C678.91,-212.82 694.1,-201.42 706.47,-192.15"/>
<polygon fill="#63b8ff" stroke="#63b8ff" points="708.52,-194.98 714.42,-186.18 704.32,-189.38 708.52,-194.98"/>
</a>
</g>
</g>
<!-- Node19 -->
<g id="Node000019" class="node">
<title>Node19</title>
<g id="a_Node000019"><a xlink:title=" ">
<polygon fill="#e0e0e0" stroke="#999999" points="816.12,-185 770.88,-185 770.88,-165.75 816.12,-165.75 816.12,-185"/>
<text text-anchor="middle" x="793.5" y="-171.5" font-family="Helvetica,sans-Serif" font-size="10.00">ranges</text>
</a>
</g>
</g>
<!-- Node1&#45;&gt;Node19 -->
<g id="edge30_Node000001_Node000019" class="edge">
<title>Node1&#45;&gt;Node19</title>
<g id="a_edge30_Node000001_Node000019"><a xlink:title=" ">
<path fill="none" stroke="#63b8ff" d="M679.74,-220.59C701.82,-212.01 735.25,-199.02 760.17,-189.33"/>
<polygon fill="#63b8ff" stroke="#63b8ff" points="761.14,-192.71 769.19,-185.82 758.6,-186.18 761.14,-192.71"/>
</a>
</g>
</g>
<!-- Node20 -->
<g id="Node000020" class="node">
<title>Node20</title>
<g id="a_Node000020"><a xlink:title=" ">
<polygon fill="#e0e0e0" stroke="#999999" points="890.75,-185 834.25,-185 834.25,-165.75 890.75,-165.75 890.75,-185"/>
<text text-anchor="middle" x="862.5" y="-171.5" font-family="Helvetica,sans-Serif" font-size="10.00">typeindex</text>
</a>
</g>
</g>
<!-- Node1&#45;&gt;Node20 -->
<g id="edge31_Node000001_Node000020" class="edge">
<title>Node1&#45;&gt;Node20</title>
<g id="a_edge31_Node000001_Node000020"><a xlink:title=" ">
<path fill="none" stroke="#63b8ff" d="M691.45,-220.59C728.01,-211.14 785.29,-196.33 823.36,-186.49"/>
<polygon fill="#63b8ff" stroke="#63b8ff" points="823.76,-190 832.56,-184.11 822.01,-183.23 823.76,-190"/>
</a>
</g>
</g>
<!-- Node21 -->
<g id="Node000021" class="node">
<title>Node21</title>
<g id="a_Node000021"><a xlink:title=" ">
<polygon fill="#e0e0e0" stroke="#999999" points="954.12,-185 908.88,-185 908.88,-165.75 954.12,-165.75 954.12,-185"/>
<text text-anchor="middle" x="931.5" y="-171.5" font-family="Helvetica,sans-Serif" font-size="10.00">variant</text>
</a>
</g>
</g>
<!-- Node1&#45;&gt;Node21 -->
<g id="edge32_Node000001_Node000021" class="edge">
<title>Node1&#45;&gt;Node21</title>
<g id="a_edge32_Node000001_Node000021"><a xlink:title=" ">
<path fill="none" stroke="#63b8ff" d="M711.29,-220.88C758.2,-213.09 827.77,-200.85 897.32,-185.34"/>
<polygon fill="#63b8ff" stroke="#63b8ff" points="898.02,-188.77 907.01,-183.15 896.48,-181.94 898.02,-188.77"/>
</a>
</g>
</g>
<!-- Node22 -->
<g id="Node000022" class="node">
<title>Node22</title>
<g id="a_Node000022"><a xlink:title=" ">
<polygon fill="#e0e0e0" stroke="#999999" points="1015,-185 972,-185 972,-165.75 1015,-165.75 1015,-185"/>
<text text-anchor="middle" x="993.5" y="-171.5" font-family="Helvetica,sans-Serif" font-size="10.00">vector</text>
</a>
</g>
</g>
<!-- Node1&#45;&gt;Node22 -->
<g id="edge33_Node000001_Node000022" class="edge">
<title>Node1&#45;&gt;Node22</title>
<g id="a_edge33_Node000001_Node000022"><a xlink:title=" ">
<path fill="none" stroke="#63b8ff" d="M711.25,-223.94C770.55,-217.27 868.1,-204.85 960.4,-185.43"/>
<polygon fill="#63b8ff" stroke="#63b8ff" points="961.11,-188.86 970.15,-183.35 959.64,-182.02 961.11,-188.86"/>
</a>
</g>
</g>
<!-- Node2&#45;&gt;Node3 -->
<g id="edge2_Node000002_Node000003" class="edge">
<title>Node2&#45;&gt;Node3</title>
<g id="a_edge2_Node000002_Node000003"><a xlink:title=" ">
<path fill="none" stroke="#63b8ff" d="M236.02,-165.49C223.88,-156.72 205.06,-142.78 189.5,-129.75 171.23,-114.45 151.35,-95.82 137.65,-82.64"/>
<polygon fill="#63b8ff" stroke="#63b8ff" points="140.31,-80.35 130.7,-75.91 135.44,-85.38 140.31,-80.35"/>
</a>
</g>
</g>
<!-- Node5 -->
<g id="Node000005" class="node">
<title>Node5</title>
<g id="a_Node000005"><a xlink:href="../../d8/d32/_type_traits_8hpp.html" target="_top" xlink:title=" ">
<polygon fill="white" stroke="#666666" points="142,-129.75 21,-129.75 21,-110.5 142,-110.5 142,-129.75"/>
<text text-anchor="middle" x="81.5" y="-116.25" font-family="Helvetica,sans-Serif" font-size="10.00">mimic++/TypeTraits.hpp</text>
</a>
</g>
</g>
<!-- Node2&#45;&gt;Node5 -->
<g id="edge4_Node000002_Node000005" class="edge">
<title>Node2&#45;&gt;Node5</title>
<g id="a_edge4_Node000002_Node000005"><a xlink:title=" ">
<path fill="none" stroke="#63b8ff" d="M220.17,-165.34C192.82,-156.62 151.18,-143.34 120.66,-133.61"/>
<polygon fill="#63b8ff" stroke="#63b8ff" points="122,-130.37 111.41,-130.66 119.87,-137.03 122,-130.37"/>
</a>
</g>
</g>
<!-- Node6 -->
<g id="Node000006" class="node">
<title>Node6</title>
<g id="a_Node000006"><a xlink:title=" ">
<polygon fill="#e0e0e0" stroke="#999999" points="37,-74.5 0,-74.5 0,-55.25 37,-55.25 37,-74.5"/>
<text text-anchor="middle" x="18.5" y="-61" font-family="Helvetica,sans-Serif" font-size="10.00">tuple</text>
</a>
</g>
</g>
<!-- Node2&#45;&gt;Node6 -->
<g id="edge13_Node000002_Node000006" class="edge">
<title>Node2&#45;&gt;Node6</title>
<g id="a_edge13_Node000002_Node000006"><a xlink:title=" ">
<path fill="none" stroke="#63b8ff" d="M202.2,-172.4C140.44,-168.68 36.11,-158.25 12.5,-129.75 2.4,-117.56 5.37,-99.2 10.01,-85.29"/>
<polygon fill="#63b8ff" stroke="#63b8ff" points="13.14,-86.89 13.5,-76.3 6.61,-84.36 13.14,-86.89"/>
</a>
</g>
</g>
<!-- Node7 -->
<g id="Node000007" class="node">
<title>Node7</title>
<g id="a_Node000007"><a xlink:href="../../d4/d2c/_utility_8hpp.html" target="_top" xlink:title=" ">
<polygon fill="white" stroke="#666666" points="298.5,-129.75 198.5,-129.75 198.5,-110.5 298.5,-110.5 298.5,-129.75"/>
<text text-anchor="middle" x="248.5" y="-116.25" font-family="Helvetica,sans-Serif" font-size="10.00">mimic++/Utility.hpp</text>
</a>
</g>
</g>
<!-- Node2&#45;&gt;Node7 -->
<g id="edge7_Node000002_Node000007" class="edge">
<title>Node2&#45;&gt;Node7</title>
<g id="a_edge7_Node000002_Node000007"><a xlink:title=" ">
<path fill="none" stroke="#63b8ff" d="M248.5,-165.58C248.5,-159.07 248.5,-149.92 248.5,-141.62"/>
<polygon fill="#63b8ff" stroke="#63b8ff" points="252,-141.62 248.5,-131.62 245,-141.62 252,-141.62"/>
</a>
</g>
</g>
<!-- Node9 -->
<g id="Node000009" class="node">
<title>Node9</title>
<g id="a_Node000009"><a xlink:title=" ">
<polygon fill="#e0e0e0" stroke="#999999" points="335.62,-74.5 251.38,-74.5 251.38,-55.25 335.62,-55.25 335.62,-74.5"/>
<text text-anchor="middle" x="293.5" y="-61" font-family="Helvetica,sans-Serif" font-size="10.00">source_location</text>
</a>
</g>
</g>
<!-- Node2&#45;&gt;Node9 -->
<g id="edge12_Node000002_Node000009" class="edge">
<title>Node2&#45;&gt;Node9</title>
<g id="a_edge12_Node000002_Node000009"><a xlink:title=" ">
<path fill="none" stroke="#63b8ff" d="M268.64,-165.27C282.36,-157.85 299.43,-145.96 307.5,-129.75 314.54,-115.6 309.78,-97.95 303.98,-84.79"/>
<polygon fill="#63b8ff" stroke="#63b8ff" points="307.15,-83.32 299.55,-75.94 300.89,-86.45 307.15,-83.32"/>
</a>
</g>
</g>
<!-- Node10 -->
<g id="Node000010" class="node">
<title>Node10</title>
<g id="a_Node000010"><a xlink:title=" ">
<polygon fill="#e0e0e0" stroke="#999999" points="391.75,-74.5 353.25,-74.5 353.25,-55.25 391.75,-55.25 391.75,-74.5"/>
<text text-anchor="middle" x="372.5" y="-61" font-family="Helvetica,sans-Serif" font-size="10.00">utility</text>
</a>
</g>
</g>
<!-- Node2&#45;&gt;Node10 -->
<g id="edge14_Node000002_Node000010" class="edge">
<title>Node2&#45;&gt;Node10</title>
<g id="a_edge14_Node000002_Node000010"><a xlink:title=" ">
<path fill="none" stroke="#63b8ff" d="M268.01,-165.36C283.99,-157.4 306.63,-144.75 323.5,-129.75 338.65,-116.28 352.36,-97.57 361.4,-83.89"/>
<polygon fill="#63b8ff" stroke="#63b8ff" points="364.11,-86.15 366.54,-75.84 358.21,-82.39 364.11,-86.15"/>
</a>
</g>
</g>
<!-- Node4 -->
<g id="Node000004" class="node">
<title>Node4</title>
<g id="a_Node000004"><a xlink:title=" ">
<polygon fill="#e0e0e0" stroke="#999999" points="289.5,-19.25 249.5,-19.25 249.5,0 289.5,0 289.5,-19.25"/>
<text text-anchor="middle" x="269.5" y="-5.75" font-family="Helvetica,sans-Serif" font-size="10.00">string</text>
</a>
</g>
</g>
<!-- Node3&#45;&gt;Node4 -->
<g id="edge3_Node000003_Node000004" class="edge">
<title>Node3&#45;&gt;Node4</title>
<g id="a_edge3_Node000003_Node000004"><a xlink:title=" ">
<path fill="none" stroke="#63b8ff" d="M145.78,-54.84C171.46,-45.66 211.28,-31.43 238.77,-21.61"/>
<polygon fill="#63b8ff" stroke="#63b8ff" points="239.7,-24.99 247.94,-18.33 237.35,-18.4 239.7,-24.99"/>
</a>
</g>
</g>
<!-- Node5&#45;&gt;Node3 -->
<g id="edge5_Node000005_Node000003" class="edge">
<title>Node5&#45;&gt;Node3</title>
<g id="a_edge5_Node000005_Node000003"><a xlink:title=" ">
<path fill="none" stroke="#63b8ff" d="M87.94,-110.33C93.16,-103.21 100.69,-92.93 107.19,-84.05"/>
<polygon fill="#63b8ff" stroke="#63b8ff" points="109.94,-86.22 113.03,-76.08 104.29,-82.08 109.94,-86.22"/>
</a>
</g>
</g>
<!-- Node5&#45;&gt;Node6 -->
<g id="edge6_Node000005_Node000006" class="edge">
<title>Node5&#45;&gt;Node6</title>
<g id="a_edge6_Node000005_Node000006"><a xlink:title=" ">
<path fill="none" stroke="#63b8ff" d="M70.81,-110.09C61.8,-102.47 48.67,-91.37 37.82,-82.2"/>
<polygon fill="#63b8ff" stroke="#63b8ff" points="40.08,-79.53 30.19,-75.75 35.56,-84.88 40.08,-79.53"/>
</a>
</g>
</g>
<!-- Node7&#45;&gt;Node3 -->
<g id="edge8_Node000007_Node000003" class="edge">
<title>Node7&#45;&gt;Node3</title>
<g id="a_edge8_Node000007_Node000003"><a xlink:title=" ">
<path fill="none" stroke="#63b8ff" d="M226.79,-110.09C206.47,-101.64 175.85,-88.9 152.69,-79.27"/>
<polygon fill="#63b8ff" stroke="#63b8ff" points="154.29,-76.14 143.72,-75.53 151.61,-82.61 154.29,-76.14"/>
</a>
</g>
</g>
<!-- Node8 -->
<g id="Node000008" class="node">
<title>Node8</title>
<g id="a_Node000008"><a xlink:title=" ">
<polygon fill="#e0e0e0" stroke="#999999" points="233.62,-74.5 185.38,-74.5 185.38,-55.25 233.62,-55.25 233.62,-74.5"/>
<text text-anchor="middle" x="209.5" y="-61" font-family="Helvetica,sans-Serif" font-size="10.00">cassert</text>
</a>
</g>
</g>
<!-- Node7&#45;&gt;Node8 -->
<g id="edge9_Node000007_Node000008" class="edge">
<title>Node7&#45;&gt;Node8</title>
<g id="a_edge9_Node000007_Node000008"><a xlink:title=" ">
<path fill="none" stroke="#63b8ff" d="M242.06,-110.33C236.84,-103.21 229.31,-92.93 222.81,-84.05"/>
<polygon fill="#63b8ff" stroke="#63b8ff" points="225.71,-82.08 216.97,-76.08 220.06,-86.22 225.71,-82.08"/>
</a>
</g>
</g>
<!-- Node7&#45;&gt;Node9 -->
<g id="edge10_Node000007_Node000009" class="edge">
<title>Node7&#45;&gt;Node9</title>
<g id="a_edge10_Node000007_Node000009"><a xlink:title=" ">
<path fill="none" stroke="#63b8ff" d="M255.93,-110.33C262.08,-103.05 271.01,-92.48 278.63,-83.48"/>
<polygon fill="#63b8ff" stroke="#63b8ff" points="281.15,-85.91 284.93,-76.02 275.8,-81.39 281.15,-85.91"/>
</a>
</g>
</g>
<!-- Node7&#45;&gt;Node10 -->
<g id="edge11_Node000007_Node000010" class="edge">
<title>Node7&#45;&gt;Node10</title>
<g id="a_edge11_Node000007_Node000010"><a xlink:title=" ">
<path fill="none" stroke="#63b8ff" d="M269.53,-110.09C289.61,-101.47 320.04,-88.4 342.62,-78.7"/>
<polygon fill="#63b8ff" stroke="#63b8ff" points="343.8,-82.01 351.61,-74.85 341.04,-75.58 343.8,-82.01"/>
</a>
</g>
</g>
<!-- Node11&#45;&gt;Node3 -->
<g id="edge17_Node000011_Node000003" class="edge">
<title>Node11&#45;&gt;Node3</title>
<g id="a_edge17_Node000011_Node000003"><a xlink:title=" ">
<path fill="none" stroke="#63b8ff" d="M430.23,-111.63C371.62,-103.2 273.4,-88.99 179.04,-74.87"/>
<polygon fill="#63b8ff" stroke="#63b8ff" points="179.76,-71.44 169.35,-73.42 178.72,-78.36 179.76,-71.44"/>
</a>
</g>
</g>
<!-- Node11&#45;&gt;Node4 -->
<g id="edge22_Node000011_Node000004" class="edge">
<title>Node11&#45;&gt;Node4</title>
<g id="a_edge22_Node000011_Node000004"><a xlink:title=" ">
<path fill="none" stroke="#63b8ff" d="M473.15,-110.11C458.65,-96.55 429.4,-70.85 400.5,-55.25 368.31,-37.87 328.07,-25.38 300.75,-18.11"/>
<polygon fill="#63b8ff" stroke="#63b8ff" points="301.91,-14.79 291.35,-15.69 300.17,-21.57 301.91,-14.79"/>
</a>
</g>
</g>
<!-- Node11&#45;&gt;Node9 -->
<g id="edge20_Node000011_Node000009" class="edge">
<title>Node11&#45;&gt;Node9</title>
<g id="a_edge20_Node000011_Node000009"><a xlink:title=" ">
<path fill="none" stroke="#63b8ff" d="M450.44,-110.09C419.08,-101.26 371.11,-87.74 336.46,-77.98"/>
<polygon fill="#63b8ff" stroke="#63b8ff" points="337.75,-74.71 327.18,-75.36 335.85,-81.44 337.75,-74.71"/>
</a>
</g>
</g>
<!-- Node11&#45;&gt;Node10 -->
<g id="edge24_Node000011_Node000010" class="edge">
<title>Node11&#45;&gt;Node10</title>
<g id="a_edge24_Node000011_Node000010"><a xlink:title=" ">
<path fill="none" stroke="#63b8ff" d="M463.84,-110.09C446.77,-101.83 421.26,-89.48 401.53,-79.93"/>
<polygon fill="#63b8ff" stroke="#63b8ff" points="403.14,-76.82 392.61,-75.61 400.09,-83.12 403.14,-76.82"/>
</a>
</g>
</g>
<!-- Node11&#45;&gt;Node12 -->
<g id="edge18_Node000011_Node000012" class="edge">
<title>Node11&#45;&gt;Node12</title>
<g id="a_edge18_Node000011_Node000012"><a xlink:title=" ">
<path fill="none" stroke="#63b8ff" d="M517.95,-110.09C554.95,-100.67 612.84,-85.92 651.46,-76.08"/>
<polygon fill="#63b8ff" stroke="#63b8ff" points="652,-79.55 660.82,-73.69 650.27,-72.77 652,-79.55"/>
</a>
</g>
</g>
<!-- Node11&#45;&gt;Node13 -->
<g id="edge19_Node000011_Node000013" class="edge">
<title>Node11&#45;&gt;Node13</title>
<g id="a_edge19_Node000011_Node000013"><a xlink:title=" ">
<path fill="none" stroke="#63b8ff" d="M534.8,-110.99C582.52,-103.28 655.22,-90.79 727.08,-74.89"/>
<polygon fill="#63b8ff" stroke="#63b8ff" points="727.67,-78.35 736.66,-72.75 726.14,-71.52 727.67,-78.35"/>
</a>
</g>
</g>
<!-- Node14 -->
<g id="Node000014" class="node">
<title>Node14</title>
<g id="a_Node000014"><a xlink:title=" ">
<polygon fill="#e0e0e0" stroke="#999999" points="499.12,-74.5 447.88,-74.5 447.88,-55.25 499.12,-55.25 499.12,-74.5"/>
<text text-anchor="middle" x="473.5" y="-61" font-family="Helvetica,sans-Serif" font-size="10.00">sstream</text>
</a>
</g>
</g>
<!-- Node11&#45;&gt;Node14 -->
<g id="edge21_Node000011_Node000014" class="edge">
<title>Node11&#45;&gt;Node14</title>
<g id="a_edge21_Node000011_Node000014"><a xlink:title=" ">
<path fill="none" stroke="#63b8ff" d="M481.01,-110.33C479.9,-103.74 478.33,-94.46 476.91,-86.07"/>
<polygon fill="#63b8ff" stroke="#63b8ff" points="480.39,-85.63 475.27,-76.35 473.49,-86.8 480.39,-85.63"/>
</a>
</g>
</g>
<!-- Node15 -->
<g id="Node000015" class="node">
<title>Node15</title>
<g id="a_Node000015"><a xlink:title=" ">
<polygon fill="#e0e0e0" stroke="#999999" points="582.25,-74.5 516.75,-74.5 516.75,-55.25 582.25,-55.25 582.25,-74.5"/>
<text text-anchor="middle" x="549.5" y="-61" font-family="Helvetica,sans-Serif" font-size="10.00">string_view</text>
</a>
</g>
</g>
<!-- Node11&#45;&gt;Node15 -->
<g id="edge23_Node000011_Node000015" class="edge">
<title>Node11&#45;&gt;Node15</title>
<g id="a_edge23_Node000011_Node000015"><a xlink:title=" ">
<path fill="none" stroke="#63b8ff" d="M493.87,-110.09C503.55,-102.4 517.7,-91.15 529.31,-81.93"/>
<polygon fill="#63b8ff" stroke="#63b8ff" points="531.47,-84.68 537.12,-75.72 527.11,-79.2 531.47,-84.68"/>
</a>
</g>
</g>
<!-- Node16 -->
<g id="Node000016" class="node">
<title>Node16</title>
<g id="a_Node000016"><a xlink:title=" ">
<polygon fill="#e0e0e0" stroke="#999999" points="644.38,-74.5 600.62,-74.5 600.62,-55.25 644.38,-55.25 644.38,-74.5"/>
<text text-anchor="middle" x="622.5" y="-61" font-family="Helvetica,sans-Serif" font-size="10.00">format</text>
</a>
</g>
</g>
<!-- Node11&#45;&gt;Node16 -->
<g id="edge25_Node000011_Node000016" class="edge">
<title>Node11&#45;&gt;Node16</title>
<g id="a_edge25_Node000011_Node000016"><a xlink:title=" ">
<path fill="none" stroke="#63b8ff" d="M506.25,-110.09C529.22,-101.36 564.21,-88.04 589.81,-78.31"/>
<polygon fill="#63b8ff" stroke="#63b8ff" points="590.97,-81.61 599.07,-74.79 588.48,-75.07 590.97,-81.61"/>
</a>
</g>
</g>
</g>
</svg>
