<?xml version="1.0" encoding="UTF-8" standalone="no"?>
<!DOCTYPE svg PUBLIC "-//W3C//DTD SVG 1.1//EN"
 "http://www.w3.org/Graphics/SVG/1.1/DTD/svg11.dtd">
<!-- Generated by graphviz version 12.1.2 (20240928.0832)
 -->
<!-- Title: mimic++/Reports.hpp Pages: 1 -->
<svg width="1321pt" height="248pt"
 viewBox="0.00 0.00 1320.84 248.25" xmlns="http://www.w3.org/2000/svg" xmlns:xlink="http://www.w3.org/1999/xlink">
<g id="graph0" class="graph" transform="scale(1 1) rotate(0) translate(4 244.25)">
<title>mimic++/Reports.hpp</title>
<!-- Node1 -->
<g id="Node000001" class="node">
<title>Node1</title>
<g id="a_Node000001"><a xlink:title=" ">
<polygon fill="#999999" stroke="#666666" points="1008.84,-240.25 899.84,-240.25 899.84,-221 1008.84,-221 1008.84,-240.25"/>
<text text-anchor="middle" x="954.34" y="-226.75" font-family="Helvetica,sans-Serif" font-size="10.00">mimic++/Reports.hpp</text>
</a>
</g>
</g>
<!-- Node2 -->
<g id="Node000002" class="node">
<title>Node2</title>
<g id="a_Node000002"><a xlink:href="../../dc/d44/_call_8hpp.html" target="_top" xlink:title=" ">
<polygon fill="white" stroke="#666666" points="325.22,-185 233.47,-185 233.47,-165.75 325.22,-165.75 325.22,-185"/>
<text text-anchor="middle" x="279.34" y="-171.5" font-family="Helvetica,sans-Serif" font-size="10.00">mimic++/Call.hpp</text>
</a>
</g>
</g>
<!-- Node1&#45;&gt;Node2 -->
<g id="edge1_Node000001_Node000002" class="edge">
<title>Node1&#45;&gt;Node2</title>
<g id="a_edge1_Node000001_Node000002"><a xlink:title=" ">
<path fill="none" stroke="#63b8ff" d="M899.39,-225.29C773.36,-215.35 464.54,-190.99 336.45,-180.88"/>
<polygon fill="#63b8ff" stroke="#63b8ff" points="337.11,-177.42 326.87,-180.12 336.56,-184.4 337.11,-177.42"/>
</a>
</g>
</g>
<!-- Node3 -->
<g id="Node000003" class="node">
<title>Node3</title>
<g id="a_Node000003"><a xlink:href="../../df/dde/_fwd_8hpp.html" target="_top" xlink:title=" ">
<polygon fill="white" stroke="#666666" points="601.34,-74.5 507.34,-74.5 507.34,-55.25 601.34,-55.25 601.34,-74.5"/>
<text text-anchor="middle" x="554.34" y="-61" font-family="Helvetica,sans-Serif" font-size="10.00">mimic++/Fwd.hpp</text>
</a>
</g>
</g>
<!-- Node1&#45;&gt;Node3 -->
<g id="edge16_Node000001_Node000003" class="edge">
<title>Node1&#45;&gt;Node3</title>
<g id="a_edge16_Node000001_Node000003"><a xlink:title=" ">
<path fill="none" stroke="#63b8ff" d="M945.63,-220.61C937.6,-211.96 925.68,-198.3 917.34,-185 898,-154.17 912.56,-132.2 883.34,-110.5 841.68,-79.57 695.91,-70.07 613.06,-67.16"/>
<polygon fill="#63b8ff" stroke="#63b8ff" points="613.42,-63.67 603.31,-66.84 613.19,-70.67 613.42,-63.67"/>
</a>
</g>
</g>
<!-- Node12 -->
<g id="Node000012" class="node">
<title>Node12</title>
<g id="a_Node000012"><a xlink:href="../../da/dab/_printer_8hpp.html" target="_top" xlink:title=" ">
<polygon fill="white" stroke="#666666" points="688.22,-185 584.47,-185 584.47,-165.75 688.22,-165.75 688.22,-185"/>
<text text-anchor="middle" x="636.34" y="-171.5" font-family="Helvetica,sans-Serif" font-size="10.00">mimic++/Printer.hpp</text>
</a>
</g>
</g>
<!-- Node1&#45;&gt;Node12 -->
<g id="edge17_Node000001_Node000012" class="edge">
<title>Node1&#45;&gt;Node12</title>
<g id="a_edge17_Node000001_Node000012"><a xlink:title=" ">
<path fill="none" stroke="#63b8ff" d="M900.04,-220.53C844.57,-211.24 758.52,-196.83 699.91,-187.02"/>
<polygon fill="#63b8ff" stroke="#63b8ff" points="700.51,-183.57 690.07,-185.37 699.35,-190.48 700.51,-183.57"/>
</a>
</g>
</g>
<!-- Node13 -->
<g id="Node000013" class="node">
<title>Node13</title>
<g id="a_Node000013"><a xlink:title=" ">
<polygon fill="#e0e0e0" stroke="#999999" points="810.34,-129.75 752.34,-129.75 752.34,-110.5 810.34,-110.5 810.34,-129.75"/>
<text text-anchor="middle" x="781.34" y="-116.25" font-family="Helvetica,sans-Serif" font-size="10.00">functional</text>
</a>
</g>
</g>
<!-- Node1&#45;&gt;Node13 -->
<g id="edge29_Node000001_Node000013" class="edge">
<title>Node1&#45;&gt;Node13</title>
<g id="a_edge29_Node000001_Node000013"><a xlink:title=" ">
<path fill="none" stroke="#63b8ff" d="M934.23,-220.66C916.03,-212.26 888.73,-198.94 866.34,-185 842.89,-170.4 817.82,-151.05 801.02,-137.48"/>
<polygon fill="#63b8ff" stroke="#63b8ff" points="803.3,-134.82 793.34,-131.2 798.87,-140.24 803.3,-134.82"/>
</a>
</g>
</g>
<!-- Node14 -->
<g id="Node000014" class="node">
<title>Node14</title>
<g id="a_Node000014"><a xlink:title=" ">
<polygon fill="#e0e0e0" stroke="#999999" points="874.34,-129.75 828.34,-129.75 828.34,-110.5 874.34,-110.5 874.34,-129.75"/>
<text text-anchor="middle" x="851.34" y="-116.25" font-family="Helvetica,sans-Serif" font-size="10.00">iterator</text>
</a>
</g>
</g>
<!-- Node1&#45;&gt;Node14 -->
<g id="edge30_Node000001_Node000014" class="edge">
<title>Node1&#45;&gt;Node14</title>
<g id="a_edge30_Node000001_Node000014"><a xlink:title=" ">
<path fill="none" stroke="#63b8ff" d="M934.53,-220.59C919.3,-212.87 898.53,-200.54 884.34,-185 872.49,-172.03 863.7,-154.01 858.18,-140.41"/>
<polygon fill="#63b8ff" stroke="#63b8ff" points="861.53,-139.38 854.71,-131.26 854.98,-141.85 861.53,-139.38"/>
</a>
</g>
</g>
<!-- Node18 -->
<g id="Node000018" class="node">
<title>Node18</title>
<g id="a_Node000018"><a xlink:title=" ">
<polygon fill="#e0e0e0" stroke="#999999" points="982.22,-185 926.47,-185 926.47,-165.75 982.22,-165.75 982.22,-185"/>
<text text-anchor="middle" x="954.34" y="-171.5" font-family="Helvetica,sans-Serif" font-size="10.00">algorithm</text>
</a>
</g>
</g>
<!-- Node1&#45;&gt;Node18 -->
<g id="edge28_Node000001_Node000018" class="edge">
<title>Node1&#45;&gt;Node18</title>
<g id="a_edge28_Node000001_Node000018"><a xlink:title=" ">
<path fill="none" stroke="#63b8ff" d="M954.34,-220.83C954.34,-214.32 954.34,-205.17 954.34,-196.87"/>
<polygon fill="#63b8ff" stroke="#63b8ff" points="957.84,-196.87 954.34,-186.87 950.84,-196.87 957.84,-196.87"/>
</a>
</g>
</g>
<!-- Node19 -->
<g id="Node000019" class="node">
<title>Node19</title>
<g id="a_Node000019"><a xlink:title=" ">
<polygon fill="#e0e0e0" stroke="#999999" points="1050.22,-185 1000.47,-185 1000.47,-165.75 1050.22,-165.75 1050.22,-185"/>
<text text-anchor="middle" x="1025.34" y="-171.5" font-family="Helvetica,sans-Serif" font-size="10.00">optional</text>
</a>
</g>
</g>
<!-- Node1&#45;&gt;Node19 -->
<g id="edge31_Node000001_Node000019" class="edge">
<title>Node1&#45;&gt;Node19</title>
<g id="a_edge31_Node000001_Node000019"><a xlink:title=" ">
<path fill="none" stroke="#63b8ff" d="M966.38,-220.59C976.75,-212.82 991.94,-201.42 1004.31,-192.15"/>
<polygon fill="#63b8ff" stroke="#63b8ff" points="1006.36,-194.98 1012.26,-186.18 1002.16,-189.38 1006.36,-194.98"/>
</a>
</g>
</g>
<!-- Node20 -->
<g id="Node000020" class="node">
<title>Node20</title>
<g id="a_Node000020"><a xlink:title=" ">
<polygon fill="#e0e0e0" stroke="#999999" points="1113.97,-185 1068.72,-185 1068.72,-165.75 1113.97,-165.75 1113.97,-185"/>
<text text-anchor="middle" x="1091.34" y="-171.5" font-family="Helvetica,sans-Serif" font-size="10.00">ranges</text>
</a>
</g>
</g>
<!-- Node1&#45;&gt;Node20 -->
<g id="edge32_Node000001_Node000020" class="edge">
<title>Node1&#45;&gt;Node20</title>
<g id="a_edge32_Node000001_Node000020"><a xlink:title=" ">
<path fill="none" stroke="#63b8ff" d="M977.58,-220.59C999.66,-212.01 1033.09,-199.02 1058.01,-189.33"/>
<polygon fill="#63b8ff" stroke="#63b8ff" points="1058.98,-192.71 1067.03,-185.82 1056.44,-186.18 1058.98,-192.71"/>
</a>
</g>
</g>
<!-- Node21 -->
<g id="Node000021" class="node">
<title>Node21</title>
<g id="a_Node000021"><a xlink:title=" ">
<polygon fill="#e0e0e0" stroke="#999999" points="1188.59,-185 1132.09,-185 1132.09,-165.75 1188.59,-165.75 1188.59,-185"/>
<text text-anchor="middle" x="1160.34" y="-171.5" font-family="Helvetica,sans-Serif" font-size="10.00">typeindex</text>
</a>
</g>
</g>
<!-- Node1&#45;&gt;Node21 -->
<g id="edge33_Node000001_Node000021" class="edge">
<title>Node1&#45;&gt;Node21</title>
<g id="a_edge33_Node000001_Node000021"><a xlink:title=" ">
<path fill="none" stroke="#63b8ff" d="M989.29,-220.59C1025.85,-211.14 1083.13,-196.33 1121.2,-186.49"/>
<polygon fill="#63b8ff" stroke="#63b8ff" points="1121.6,-190 1130.4,-184.11 1119.85,-183.23 1121.6,-190"/>
</a>
</g>
</g>
<!-- Node22 -->
<g id="Node000022" class="node">
<title>Node22</title>
<g id="a_Node000022"><a xlink:title=" ">
<polygon fill="#e0e0e0" stroke="#999999" points="1251.97,-185 1206.72,-185 1206.72,-165.75 1251.97,-165.75 1251.97,-185"/>
<text text-anchor="middle" x="1229.34" y="-171.5" font-family="Helvetica,sans-Serif" font-size="10.00">variant</text>
</a>
</g>
</g>
<!-- Node1&#45;&gt;Node22 -->
<g id="edge34_Node000001_Node000022" class="edge">
<title>Node1&#45;&gt;Node22</title>
<g id="a_edge34_Node000001_Node000022"><a xlink:title=" ">
<path fill="none" stroke="#63b8ff" d="M1009.13,-220.88C1056.04,-213.09 1125.61,-200.85 1195.17,-185.34"/>
<polygon fill="#63b8ff" stroke="#63b8ff" points="1195.86,-188.77 1204.85,-183.15 1194.32,-181.94 1195.86,-188.77"/>
</a>
</g>
</g>
<!-- Node23 -->
<g id="Node000023" class="node">
<title>Node23</title>
<g id="a_Node000023"><a xlink:title=" ">
<polygon fill="#e0e0e0" stroke="#999999" points="1312.84,-185 1269.84,-185 1269.84,-165.75 1312.84,-165.75 1312.84,-185"/>
<text text-anchor="middle" x="1291.34" y="-171.5" font-family="Helvetica,sans-Serif" font-size="10.00">vector</text>
</a>
</g>
</g>
<!-- Node1&#45;&gt;Node23 -->
<g id="edge35_Node000001_Node000023" class="edge">
<title>Node1&#45;&gt;Node23</title>
<g id="a_edge35_Node000001_Node000023"><a xlink:title=" ">
<path fill="none" stroke="#63b8ff" d="M1009.09,-223.94C1068.39,-217.27 1165.94,-204.85 1258.24,-185.43"/>
<polygon fill="#63b8ff" stroke="#63b8ff" points="1258.95,-188.86 1267.99,-183.35 1257.48,-182.02 1258.95,-188.86"/>
</a>
</g>
</g>
<!-- Node2&#45;&gt;Node3 -->
<g id="edge2_Node000002_Node000003" class="edge">
<title>Node2&#45;&gt;Node3</title>
<g id="a_edge2_Node000002_Node000003"><a xlink:title=" ">
<path fill="none" stroke="#63b8ff" d="M302.31,-165.31C350.84,-146.16 463.98,-101.53 520.69,-79.15"/>
<polygon fill="#63b8ff" stroke="#63b8ff" points="521.81,-82.47 529.83,-75.55 519.24,-75.96 521.81,-82.47"/>
</a>
</g>
</g>
<!-- Node5 -->
<g id="Node000005" class="node">
<title>Node5</title>
<g id="a_Node000005"><a xlink:href="../../d8/d32/_type_traits_8hpp.html" target="_top" xlink:title=" ">
<polygon fill="white" stroke="#666666" points="134.84,-129.75 13.84,-129.75 13.84,-110.5 134.84,-110.5 134.84,-129.75"/>
<text text-anchor="middle" x="74.34" y="-116.25" font-family="Helvetica,sans-Serif" font-size="10.00">mimic++/TypeTraits.hpp</text>
</a>
</g>
</g>
<!-- Node2&#45;&gt;Node5 -->
<g id="edge4_Node000002_Node000005" class="edge">
<title>Node2&#45;&gt;Node5</title>
<g id="a_edge4_Node000002_Node000005"><a xlink:title=" ">
<path fill="none" stroke="#63b8ff" d="M244.56,-165.34C210.25,-156.43 157.62,-142.76 119.97,-132.98"/>
<polygon fill="#63b8ff" stroke="#63b8ff" points="121.31,-129.71 110.75,-130.58 119.55,-136.48 121.31,-129.71"/>
</a>
</g>
</g>
<!-- Node6 -->
<g id="Node000006" class="node">
<title>Node6</title>
<g id="a_Node000006"><a xlink:title=" ">
<polygon fill="#e0e0e0" stroke="#999999" points="48.84,-74.5 11.84,-74.5 11.84,-55.25 48.84,-55.25 48.84,-74.5"/>
<text text-anchor="middle" x="30.34" y="-61" font-family="Helvetica,sans-Serif" font-size="10.00">tuple</text>
</a>
</g>
</g>
<!-- Node2&#45;&gt;Node6 -->
<g id="edge14_Node000002_Node000006" class="edge">
<title>Node2&#45;&gt;Node6</title>
<g id="a_edge14_Node000002_Node000006"><a xlink:title=" ">
<path fill="none" stroke="#63b8ff" d="M233.04,-173.78C162.7,-171.78 34.02,-163.48 5.34,-129.75 -6.07,-116.33 4.05,-97.1 14.62,-83.25"/>
<polygon fill="#63b8ff" stroke="#63b8ff" points="17.1,-85.75 20.79,-75.83 11.71,-81.28 17.1,-85.75"/>
</a>
</g>
</g>
<!-- Node7 -->
<g id="Node000007" class="node">
<title>Node7</title>
<g id="a_Node000007"><a xlink:href="../../d4/d2c/_utility_8hpp.html" target="_top" xlink:title=" ">
<polygon fill="white" stroke="#666666" points="329.34,-129.75 229.34,-129.75 229.34,-110.5 329.34,-110.5 329.34,-129.75"/>
<text text-anchor="middle" x="279.34" y="-116.25" font-family="Helvetica,sans-Serif" font-size="10.00">mimic++/Utility.hpp</text>
</a>
</g>
</g>
<!-- Node2&#45;&gt;Node7 -->
<g id="edge7_Node000002_Node000007" class="edge">
<title>Node2&#45;&gt;Node7</title>
<g id="a_edge7_Node000002_Node000007"><a xlink:title=" ">
<path fill="none" stroke="#63b8ff" d="M279.34,-165.58C279.34,-159.07 279.34,-149.92 279.34,-141.62"/>
<polygon fill="#63b8ff" stroke="#63b8ff" points="282.84,-141.62 279.34,-131.62 275.84,-141.62 282.84,-141.62"/>
</a>
</g>
</g>
<!-- Node10 -->
<g id="Node000010" class="node">
<title>Node10</title>
<g id="a_Node000010"><a xlink:title=" ">
<polygon fill="#e0e0e0" stroke="#999999" points="215.47,-74.5 131.22,-74.5 131.22,-55.25 215.47,-55.25 215.47,-74.5"/>
<text text-anchor="middle" x="173.34" y="-61" font-family="Helvetica,sans-Serif" font-size="10.00">source_location</text>
</a>
</g>
</g>
<!-- Node2&#45;&gt;Node10 -->
<g id="edge13_Node000002_Node000010" class="edge">
<title>Node2&#45;&gt;Node10</title>
<g id="a_edge13_Node000002_Node000010"><a xlink:title=" ">
<path fill="none" stroke="#63b8ff" d="M243.43,-165.29C224.05,-158.58 201.3,-147.46 187.34,-129.75 177.55,-117.33 174.27,-99.5 173.31,-85.84"/>
<polygon fill="#63b8ff" stroke="#63b8ff" points="176.82,-86.13 173.01,-76.25 169.83,-86.35 176.82,-86.13"/>
</a>
</g>
</g>
<!-- Node11 -->
<g id="Node000011" class="node">
<title>Node11</title>
<g id="a_Node000011"><a xlink:title=" ">
<polygon fill="#e0e0e0" stroke="#999999" points="403.59,-74.5 365.09,-74.5 365.09,-55.25 403.59,-55.25 403.59,-74.5"/>
<text text-anchor="middle" x="384.34" y="-61" font-family="Helvetica,sans-Serif" font-size="10.00">utility</text>
</a>
</g>
</g>
<!-- Node2&#45;&gt;Node11 -->
<g id="edge15_Node000002_Node000011" class="edge">
<title>Node2&#45;&gt;Node11</title>
<g id="a_edge15_Node000002_Node000011"><a xlink:title=" ">
<path fill="none" stroke="#63b8ff" d="M293.39,-165.51C305.98,-157.17 324.52,-143.9 338.34,-129.75 351.9,-115.87 364.58,-97.73 373.17,-84.33"/>
<polygon fill="#63b8ff" stroke="#63b8ff" points="376.01,-86.39 378.33,-76.05 370.07,-82.69 376.01,-86.39"/>
</a>
</g>
</g>
<!-- Node4 -->
<g id="Node000004" class="node">
<title>Node4</title>
<g id="a_Node000004"><a xlink:title=" ">
<polygon fill="#e0e0e0" stroke="#999999" points="659.34,-19.25 619.34,-19.25 619.34,0 659.34,0 659.34,-19.25"/>
<text text-anchor="middle" x="639.34" y="-5.75" font-family="Helvetica,sans-Serif" font-size="10.00">string</text>
</a>
</g>
</g>
<!-- Node3&#45;&gt;Node4 -->
<g id="edge3_Node000003_Node000004" class="edge">
<title>Node3&#45;&gt;Node4</title>
<g id="a_edge3_Node000003_Node000004"><a xlink:title=" ">
<path fill="none" stroke="#63b8ff" d="M568.76,-54.84C581.46,-46.89 600.21,-35.14 615.2,-25.75"/>
<polygon fill="#63b8ff" stroke="#63b8ff" points="616.95,-28.78 623.57,-20.51 613.24,-22.85 616.95,-28.78"/>
</a>
</g>
</g>
<!-- Node5&#45;&gt;Node3 -->
<g id="edge5_Node000005_Node000003" class="edge">
<title>Node5&#45;&gt;Node3</title>
<g id="a_edge5_Node000005_Node000003"><a xlink:title=" ">
<path fill="none" stroke="#63b8ff" d="M135.13,-112.38C228.03,-102.08 404.15,-82.54 495.73,-72.38"/>
<polygon fill="#63b8ff" stroke="#63b8ff" points="495.94,-75.87 505.5,-71.29 495.17,-68.92 495.94,-75.87"/>
</a>
</g>
</g>
<!-- Node5&#45;&gt;Node6 -->
<g id="edge6_Node000005_Node000006" class="edge">
<title>Node5&#45;&gt;Node6</title>
<g id="a_edge6_Node000005_Node000006"><a xlink:title=" ">
<path fill="none" stroke="#63b8ff" d="M67.07,-110.33C61.06,-103.05 52.33,-92.48 44.88,-83.48"/>
<polygon fill="#63b8ff" stroke="#63b8ff" points="47.8,-81.51 38.73,-76.03 42.4,-85.96 47.8,-81.51"/>
</a>
</g>
</g>
<!-- Node7&#45;&gt;Node3 -->
<g id="edge8_Node000007_Node000003" class="edge">
<title>Node7&#45;&gt;Node3</title>
<g id="a_edge8_Node000007_Node000003"><a xlink:title=" ">
<path fill="none" stroke="#63b8ff" d="M326.3,-110.03C373.37,-100.92 445.91,-86.87 496.49,-77.08"/>
<polygon fill="#63b8ff" stroke="#63b8ff" points="496.93,-80.56 506.09,-75.22 495.6,-73.68 496.93,-80.56"/>
</a>
</g>
</g>
<!-- Node8 -->
<g id="Node000008" class="node">
<title>Node8</title>
<g id="a_Node000008"><a xlink:title=" ">
<polygon fill="#e0e0e0" stroke="#999999" points="281.47,-74.5 233.22,-74.5 233.22,-55.25 281.47,-55.25 281.47,-74.5"/>
<text text-anchor="middle" x="257.34" y="-61" font-family="Helvetica,sans-Serif" font-size="10.00">cassert</text>
</a>
</g>
</g>
<!-- Node7&#45;&gt;Node8 -->
<g id="edge9_Node000007_Node000008" class="edge">
<title>Node7&#45;&gt;Node8</title>
<g id="a_edge9_Node000007_Node000008"><a xlink:title=" ">
<path fill="none" stroke="#63b8ff" d="M275.71,-110.33C272.92,-103.59 268.97,-94.02 265.44,-85.49"/>
<polygon fill="#63b8ff" stroke="#63b8ff" points="268.68,-84.16 261.63,-76.26 262.21,-86.84 268.68,-84.16"/>
</a>
</g>
</g>
<!-- Node9 -->
<g id="Node000009" class="node">
<title>Node9</title>
<g id="a_Node000009"><a xlink:title=" ">
<polygon fill="#e0e0e0" stroke="#999999" points="347.47,-74.5 299.22,-74.5 299.22,-55.25 347.47,-55.25 347.47,-74.5"/>
<text text-anchor="middle" x="323.34" y="-61" font-family="Helvetica,sans-Serif" font-size="10.00">cstddef</text>
</a>
</g>
</g>
<!-- Node7&#45;&gt;Node9 -->
<g id="edge10_Node000007_Node000009" class="edge">
<title>Node7&#45;&gt;Node9</title>
<g id="a_edge10_Node000007_Node000009"><a xlink:title=" ">
<path fill="none" stroke="#63b8ff" d="M286.61,-110.33C292.62,-103.05 301.35,-92.48 308.8,-83.48"/>
<polygon fill="#63b8ff" stroke="#63b8ff" points="311.28,-85.96 314.95,-76.03 305.88,-81.51 311.28,-85.96"/>
</a>
</g>
</g>
<!-- Node7&#45;&gt;Node10 -->
<g id="edge11_Node000007_Node000010" class="edge">
<title>Node7&#45;&gt;Node10</title>
<g id="a_edge11_Node000007_Node000010"><a xlink:title=" ">
<path fill="none" stroke="#63b8ff" d="M261.36,-110.09C244.99,-101.87 220.55,-89.59 201.58,-80.06"/>
<polygon fill="#63b8ff" stroke="#63b8ff" points="203.27,-76.99 192.76,-75.63 200.13,-83.25 203.27,-76.99"/>
</a>
</g>
</g>
<!-- Node7&#45;&gt;Node11 -->
<g id="edge12_Node000007_Node000011" class="edge">
<title>Node7&#45;&gt;Node11</title>
<g id="a_edge12_Node000007_Node000011"><a xlink:title=" ">
<path fill="none" stroke="#63b8ff" d="M297.15,-110.09C313.37,-101.87 337.58,-89.59 356.37,-80.06"/>
<polygon fill="#63b8ff" stroke="#63b8ff" points="357.76,-83.28 365.09,-75.64 354.59,-77.04 357.76,-83.28"/>
</a>
</g>
</g>
<!-- Node12&#45;&gt;Node3 -->
<g id="edge18_Node000012_Node000003" class="edge">
<title>Node12&#45;&gt;Node3</title>
<g id="a_edge18_Node000012_Node000003"><a xlink:title=" ">
<path fill="none" stroke="#63b8ff" d="M646.66,-165.25C659.87,-152.44 679.68,-128.64 667.34,-110.5 654.87,-92.17 633.59,-81.37 612.84,-75"/>
<polygon fill="#63b8ff" stroke="#63b8ff" points="613.78,-71.63 603.21,-72.38 611.94,-78.39 613.78,-71.63"/>
</a>
</g>
</g>
<!-- Node12&#45;&gt;Node4 -->
<g id="edge24_Node000012_Node000004" class="edge">
<title>Node12&#45;&gt;Node4</title>
<g id="a_edge24_Node000012_Node000004"><a xlink:title=" ">
<path fill="none" stroke="#63b8ff" d="M650.87,-165.42C662.09,-157.58 676.77,-145.05 683.34,-129.75 698.49,-94.48 672.67,-52.08 654.61,-28.56"/>
<polygon fill="#63b8ff" stroke="#63b8ff" points="657.44,-26.49 648.44,-20.9 651.98,-30.88 657.44,-26.49"/>
</a>
</g>
</g>
<!-- Node12&#45;&gt;Node7 -->
<g id="edge19_Node000012_Node000007" class="edge">
<title>Node12&#45;&gt;Node7</title>
<g id="a_edge19_Node000012_Node000007"><a xlink:title=" ">
<path fill="none" stroke="#63b8ff" d="M584.05,-166.57C519.38,-156.93 409.46,-140.53 340.82,-130.29"/>
<polygon fill="#63b8ff" stroke="#63b8ff" points="341.66,-126.88 331.25,-128.87 340.62,-133.8 341.66,-126.88"/>
</a>
</g>
</g>
<!-- Node12&#45;&gt;Node10 -->
<g id="edge22_Node000012_Node000010" class="edge">
<title>Node12&#45;&gt;Node10</title>
<g id="a_edge22_Node000012_Node000010"><a xlink:title=" ">
<path fill="none" stroke="#63b8ff" d="M584.2,-173.94C486.7,-172.31 281.11,-164.68 220.34,-129.75 202.65,-119.58 189.69,-99.78 181.91,-84.9"/>
<polygon fill="#63b8ff" stroke="#63b8ff" points="185.15,-83.56 177.64,-76.09 178.85,-86.62 185.15,-83.56"/>
</a>
</g>
</g>
<!-- Node12&#45;&gt;Node11 -->
<g id="edge26_Node000012_Node000011" class="edge">
<title>Node12&#45;&gt;Node11</title>
<g id="a_edge26_Node000012_Node000011"><a xlink:title=" ">
<path fill="none" stroke="#63b8ff" d="M584.2,-168.98C545.88,-163.34 493.54,-152.04 452.34,-129.75 430.84,-118.11 411.05,-97.99 398.43,-83.44"/>
<polygon fill="#63b8ff" stroke="#63b8ff" points="401.3,-81.41 392.2,-75.99 395.93,-85.9 401.3,-81.41"/>
</a>
</g>
</g>
<!-- Node12&#45;&gt;Node13 -->
<g id="edge20_Node000012_Node000013" class="edge">
<title>Node12&#45;&gt;Node13</title>
<g id="a_edge20_Node000012_Node000013"><a xlink:title=" ">
<path fill="none" stroke="#63b8ff" d="M660.94,-165.34C684.27,-156.77 719.58,-143.81 745.94,-134.13"/>
<polygon fill="#63b8ff" stroke="#63b8ff" points="747.02,-137.46 755.2,-130.72 744.61,-130.89 747.02,-137.46"/>
</a>
</g>
</g>
<!-- Node12&#45;&gt;Node14 -->
<g id="edge21_Node000012_Node000014" class="edge">
<title>Node12&#45;&gt;Node14</title>
<g id="a_edge21_Node000012_Node000014"><a xlink:title=" ">
<path fill="none" stroke="#63b8ff" d="M674.61,-165.33C709.36,-157.05 762.31,-144.28 816.99,-130.31"/>
<polygon fill="#63b8ff" stroke="#63b8ff" points="817.66,-133.75 826.47,-127.88 815.92,-126.97 817.66,-133.75"/>
</a>
</g>
</g>
<!-- Node15 -->
<g id="Node000015" class="node">
<title>Node15</title>
<g id="a_Node000015"><a xlink:title=" ">
<polygon fill="#e0e0e0" stroke="#999999" points="512.97,-129.75 461.72,-129.75 461.72,-110.5 512.97,-110.5 512.97,-129.75"/>
<text text-anchor="middle" x="487.34" y="-116.25" font-family="Helvetica,sans-Serif" font-size="10.00">sstream</text>
</a>
</g>
</g>
<!-- Node12&#45;&gt;Node15 -->
<g id="edge23_Node000012_Node000015" class="edge">
<title>Node12&#45;&gt;Node15</title>
<g id="a_edge23_Node000012_Node000015"><a xlink:title=" ">
<path fill="none" stroke="#63b8ff" d="M611.06,-165.34C586.98,-156.74 550.48,-143.69 523.36,-134"/>
<polygon fill="#63b8ff" stroke="#63b8ff" points="524.76,-130.78 514.17,-130.71 522.4,-137.37 524.76,-130.78"/>
</a>
</g>
</g>
<!-- Node16 -->
<g id="Node000016" class="node">
<title>Node16</title>
<g id="a_Node000016"><a xlink:title=" ">
<polygon fill="#e0e0e0" stroke="#999999" points="596.09,-129.75 530.59,-129.75 530.59,-110.5 596.09,-110.5 596.09,-129.75"/>
<text text-anchor="middle" x="563.34" y="-116.25" font-family="Helvetica,sans-Serif" font-size="10.00">string_view</text>
</a>
</g>
</g>
<!-- Node12&#45;&gt;Node16 -->
<g id="edge25_Node000012_Node000016" class="edge">
<title>Node12&#45;&gt;Node16</title>
<g id="a_edge25_Node000012_Node000016"><a xlink:title=" ">
<path fill="none" stroke="#63b8ff" d="M623.96,-165.34C613.19,-157.49 597.37,-145.95 584.59,-136.62"/>
<polygon fill="#63b8ff" stroke="#63b8ff" points="586.91,-133.98 576.76,-130.92 582.78,-139.64 586.91,-133.98"/>
</a>
</g>
</g>
<!-- Node17 -->
<g id="Node000017" class="node">
<title>Node17</title>
<g id="a_Node000017"><a xlink:title=" ">
<polygon fill="#e0e0e0" stroke="#999999" points="658.22,-129.75 614.47,-129.75 614.47,-110.5 658.22,-110.5 658.22,-129.75"/>
<text text-anchor="middle" x="636.34" y="-116.25" font-family="Helvetica,sans-Serif" font-size="10.00">format</text>
</a>
</g>
</g>
<!-- Node12&#45;&gt;Node17 -->
<g id="edge27_Node000012_Node000017" class="edge">
<title>Node12&#45;&gt;Node17</title>
<g id="a_edge27_Node000012_Node000017"><a xlink:title=" ">
<path fill="none" stroke="#63b8ff" d="M636.34,-165.58C636.34,-159.07 636.34,-149.92 636.34,-141.62"/>
<polygon fill="#63b8ff" stroke="#63b8ff" points="639.84,-141.62 636.34,-131.62 632.84,-141.62 639.84,-141.62"/>
</a>
</g>
</g>
</g>
</svg>
