<?xml version="1.0" encoding="UTF-8" standalone="no"?>
<!DOCTYPE svg PUBLIC "-//W3C//DTD SVG 1.1//EN"
 "http://www.w3.org/Graphics/SVG/1.1/DTD/svg11.dtd">
<!-- Generated by graphviz version 12.1.2 (20240928.0832)
 -->
<!-- Title: mimic++/Reports.hpp Pages: 1 -->
<svg width="1304pt" height="304pt"
 viewBox="0.00 0.00 1304.13 303.50" xmlns="http://www.w3.org/2000/svg" xmlns:xlink="http://www.w3.org/1999/xlink">
<g id="graph0" class="graph" transform="scale(1 1) rotate(0) translate(4 299.5)">
<title>mimic++/Reports.hpp</title>
<!-- Node1 -->
<g id="Node000001" class="node">
<title>Node1</title>
<g id="a_Node000001"><a xlink:title=" ">
<polygon fill="#999999" stroke="#666666" points="1000.13,-295.5 891.13,-295.5 891.13,-276.25 1000.13,-276.25 1000.13,-295.5"/>
<text text-anchor="middle" x="945.63" y="-282" font-family="Helvetica,sans-Serif" font-size="10.00">mimic++/Reports.hpp</text>
</a>
</g>
</g>
<!-- Node2 -->
<g id="Node000002" class="node">
<title>Node2</title>
<g id="a_Node000002"><a xlink:href="../../dc/d44/_call_8hpp.html" target="_top" xlink:title=" ">
<polygon fill="white" stroke="#666666" points="236.51,-185 144.76,-185 144.76,-165.75 236.51,-165.75 236.51,-185"/>
<text text-anchor="middle" x="190.63" y="-171.5" font-family="Helvetica,sans-Serif" font-size="10.00">mimic++/Call.hpp</text>
</a>
</g>
</g>
<!-- Node1&#45;&gt;Node2 -->
<g id="edge1_Node000001_Node000002" class="edge">
<title>Node1&#45;&gt;Node2</title>
<g id="a_edge1_Node000001_Node000002"><a xlink:title=" ">
<path fill="none" stroke="#63b8ff" d="M890.94,-284.39C791.6,-282.63 575.26,-274.77 396.63,-240.25 334.63,-228.27 264.92,-204.35 224.57,-189.43"/>
<polygon fill="#63b8ff" stroke="#63b8ff" points="226,-186.23 215.41,-186 223.55,-192.78 226,-186.23"/>
</a>
</g>
</g>
<!-- Node3 -->
<g id="Node000003" class="node">
<title>Node3</title>
<g id="a_Node000003"><a xlink:href="../../df/dde/_fwd_8hpp.html" target="_top" xlink:title=" ">
<polygon fill="white" stroke="#666666" points="700.63,-74.5 606.63,-74.5 606.63,-55.25 700.63,-55.25 700.63,-74.5"/>
<text text-anchor="middle" x="653.63" y="-61" font-family="Helvetica,sans-Serif" font-size="10.00">mimic++/Fwd.hpp</text>
</a>
</g>
</g>
<!-- Node1&#45;&gt;Node3 -->
<g id="edge20_Node000001_Node000003" class="edge">
<title>Node1&#45;&gt;Node3</title>
<g id="a_edge20_Node000001_Node000003"><a xlink:title=" ">
<path fill="none" stroke="#63b8ff" d="M945.77,-275.85C945.66,-246.65 941.04,-154.08 888.63,-110.5 862.39,-88.67 772.93,-76.48 712.28,-70.54"/>
<polygon fill="#63b8ff" stroke="#63b8ff" points="712.73,-67.07 702.44,-69.62 712.07,-74.04 712.73,-67.07"/>
</a>
</g>
</g>
<!-- Node15 -->
<g id="Node000015" class="node">
<title>Node15</title>
<g id="a_Node000015"><a xlink:href="../../da/dab/_printer_8hpp.html" target="_top" xlink:title=" ">
<polygon fill="white" stroke="#666666" points="509.51,-240.25 405.76,-240.25 405.76,-221 509.51,-221 509.51,-240.25"/>
<text text-anchor="middle" x="457.63" y="-226.75" font-family="Helvetica,sans-Serif" font-size="10.00">mimic++/Printer.hpp</text>
</a>
</g>
</g>
<!-- Node1&#45;&gt;Node15 -->
<g id="edge21_Node000001_Node000015" class="edge">
<title>Node1&#45;&gt;Node15</title>
<g id="a_edge21_Node000001_Node000015"><a xlink:title=" ">
<path fill="none" stroke="#63b8ff" d="M891.07,-278.92C800.14,-269 618.03,-249.13 521.35,-238.58"/>
<polygon fill="#63b8ff" stroke="#63b8ff" points="521.82,-235.11 511.5,-237.5 521.06,-242.07 521.82,-235.11"/>
</a>
</g>
</g>
<!-- Node17 -->
<g id="Node000017" class="node">
<title>Node17</title>
<g id="a_Node000017"><a xlink:title=" ">
<polygon fill="#e0e0e0" stroke="#999999" points="815.63,-129.75 757.63,-129.75 757.63,-110.5 815.63,-110.5 815.63,-129.75"/>
<text text-anchor="middle" x="786.63" y="-116.25" font-family="Helvetica,sans-Serif" font-size="10.00">functional</text>
</a>
</g>
</g>
<!-- Node1&#45;&gt;Node17 -->
<g id="edge45_Node000001_Node000017" class="edge">
<title>Node1&#45;&gt;Node17</title>
<g id="a_edge45_Node000001_Node000017"><a xlink:title=" ">
<path fill="none" stroke="#63b8ff" d="M938.44,-276C931.15,-267.01 919.58,-252.69 909.63,-240.25 883.26,-207.26 881.4,-194.69 850.63,-165.75 838.84,-154.66 824.11,-144.19 811.75,-136.19"/>
<polygon fill="#63b8ff" stroke="#63b8ff" points="813.66,-133.25 803.33,-130.89 809.93,-139.18 813.66,-133.25"/>
</a>
</g>
</g>
<!-- Node18 -->
<g id="Node000018" class="node">
<title>Node18</title>
<g id="a_Node000018"><a xlink:title=" ">
<polygon fill="#e0e0e0" stroke="#999999" points="879.26,-129.75 834.01,-129.75 834.01,-110.5 879.26,-110.5 879.26,-129.75"/>
<text text-anchor="middle" x="856.63" y="-116.25" font-family="Helvetica,sans-Serif" font-size="10.00">ranges</text>
</a>
</g>
</g>
<!-- Node1&#45;&gt;Node18 -->
<g id="edge48_Node000001_Node000018" class="edge">
<title>Node1&#45;&gt;Node18</title>
<g id="a_edge48_Node000001_Node000018"><a xlink:title=" ">
<path fill="none" stroke="#63b8ff" d="M941.16,-275.8C931.22,-255.74 906.36,-206.2 883.63,-165.75 878.75,-157.07 873.08,-147.61 868.2,-139.64"/>
<polygon fill="#63b8ff" stroke="#63b8ff" points="871.22,-137.86 862.98,-131.2 865.27,-141.55 871.22,-137.86"/>
</a>
</g>
</g>
<!-- Node20 -->
<g id="Node000020" class="node">
<title>Node20</title>
<g id="a_Node000020"><a xlink:title=" ">
<polygon fill="#e0e0e0" stroke="#999999" points="841.63,-185 795.63,-185 795.63,-165.75 841.63,-165.75 841.63,-185"/>
<text text-anchor="middle" x="818.63" y="-171.5" font-family="Helvetica,sans-Serif" font-size="10.00">iterator</text>
</a>
</g>
</g>
<!-- Node1&#45;&gt;Node20 -->
<g id="edge46_Node000001_Node000020" class="edge">
<title>Node1&#45;&gt;Node20</title>
<g id="a_edge46_Node000001_Node000020"><a xlink:title=" ">
<path fill="none" stroke="#63b8ff" d="M917.5,-275.82C898.33,-268.56 873.32,-256.83 855.63,-240.25 842.34,-227.79 832.4,-209.46 826.19,-195.64"/>
<polygon fill="#63b8ff" stroke="#63b8ff" points="829.54,-194.57 822.44,-186.7 823.08,-197.27 829.54,-194.57"/>
</a>
</g>
</g>
<!-- Node23 -->
<g id="Node000023" class="node">
<title>Node23</title>
<g id="a_Node000023"><a xlink:title=" ">
<polygon fill="#e0e0e0" stroke="#999999" points="1029.51,-240.25 973.76,-240.25 973.76,-221 1029.51,-221 1029.51,-240.25"/>
<text text-anchor="middle" x="1001.63" y="-226.75" font-family="Helvetica,sans-Serif" font-size="10.00">algorithm</text>
</a>
</g>
</g>
<!-- Node1&#45;&gt;Node23 -->
<g id="edge44_Node000001_Node000023" class="edge">
<title>Node1&#45;&gt;Node23</title>
<g id="a_edge44_Node000001_Node000023"><a xlink:title=" ">
<path fill="none" stroke="#63b8ff" d="M955.13,-275.84C963.07,-268.3 974.58,-257.35 984.17,-248.23"/>
<polygon fill="#63b8ff" stroke="#63b8ff" points="986.34,-250.99 991.18,-241.57 981.52,-245.92 986.34,-250.99"/>
</a>
</g>
</g>
<!-- Node24 -->
<g id="Node000024" class="node">
<title>Node24</title>
<g id="a_Node000024"><a xlink:title=" ">
<polygon fill="#e0e0e0" stroke="#999999" points="1097.51,-240.25 1047.76,-240.25 1047.76,-221 1097.51,-221 1097.51,-240.25"/>
<text text-anchor="middle" x="1072.63" y="-226.75" font-family="Helvetica,sans-Serif" font-size="10.00">optional</text>
</a>
</g>
</g>
<!-- Node1&#45;&gt;Node24 -->
<g id="edge47_Node000001_Node000024" class="edge">
<title>Node1&#45;&gt;Node24</title>
<g id="a_edge47_Node000001_Node000024"><a xlink:title=" ">
<path fill="none" stroke="#63b8ff" d="M967.18,-275.84C987.25,-267.43 1017.44,-254.77 1040.38,-245.15"/>
<polygon fill="#63b8ff" stroke="#63b8ff" points="1041.72,-248.38 1049.59,-241.29 1039.01,-241.93 1041.72,-248.38"/>
</a>
</g>
</g>
<!-- Node25 -->
<g id="Node000025" class="node">
<title>Node25</title>
<g id="a_Node000025"><a xlink:title=" ">
<polygon fill="#e0e0e0" stroke="#999999" points="1171.88,-240.25 1115.38,-240.25 1115.38,-221 1171.88,-221 1171.88,-240.25"/>
<text text-anchor="middle" x="1143.63" y="-226.75" font-family="Helvetica,sans-Serif" font-size="10.00">typeindex</text>
</a>
</g>
</g>
<!-- Node1&#45;&gt;Node25 -->
<g id="edge49_Node000001_Node000025" class="edge">
<title>Node1&#45;&gt;Node25</title>
<g id="a_edge49_Node000001_Node000025"><a xlink:title=" ">
<path fill="none" stroke="#63b8ff" d="M979.22,-275.84C1013.82,-266.54 1067.7,-252.05 1104.28,-242.21"/>
<polygon fill="#63b8ff" stroke="#63b8ff" points="1104.82,-245.69 1113.57,-239.71 1103,-238.93 1104.82,-245.69"/>
</a>
</g>
</g>
<!-- Node26 -->
<g id="Node000026" class="node">
<title>Node26</title>
<g id="a_Node000026"><a xlink:title=" ">
<polygon fill="#e0e0e0" stroke="#999999" points="1235.26,-240.25 1190.01,-240.25 1190.01,-221 1235.26,-221 1235.26,-240.25"/>
<text text-anchor="middle" x="1212.63" y="-226.75" font-family="Helvetica,sans-Serif" font-size="10.00">variant</text>
</a>
</g>
</g>
<!-- Node1&#45;&gt;Node26 -->
<g id="edge50_Node000001_Node000026" class="edge">
<title>Node1&#45;&gt;Node26</title>
<g id="a_edge50_Node000001_Node000026"><a xlink:title=" ">
<path fill="none" stroke="#63b8ff" d="M1000.01,-275.75C1045.28,-267.89 1111.65,-255.73 1178.46,-240.61"/>
<polygon fill="#63b8ff" stroke="#63b8ff" points="1179.17,-244.03 1188.14,-238.39 1177.61,-237.21 1179.17,-244.03"/>
</a>
</g>
</g>
<!-- Node27 -->
<g id="Node000027" class="node">
<title>Node27</title>
<g id="a_Node000027"><a xlink:title=" ">
<polygon fill="#e0e0e0" stroke="#999999" points="1296.13,-240.25 1253.13,-240.25 1253.13,-221 1296.13,-221 1296.13,-240.25"/>
<text text-anchor="middle" x="1274.63" y="-226.75" font-family="Helvetica,sans-Serif" font-size="10.00">vector</text>
</a>
</g>
</g>
<!-- Node1&#45;&gt;Node27 -->
<g id="edge51_Node000001_Node000027" class="edge">
<title>Node1&#45;&gt;Node27</title>
<g id="a_edge51_Node000001_Node000027"><a xlink:title=" ">
<path fill="none" stroke="#63b8ff" d="M1000.59,-278.88C1058.45,-272.07 1152.37,-259.64 1241.62,-240.68"/>
<polygon fill="#63b8ff" stroke="#63b8ff" points="1242.25,-244.13 1251.28,-238.59 1240.77,-237.28 1242.25,-244.13"/>
</a>
</g>
</g>
<!-- Node2&#45;&gt;Node3 -->
<g id="edge2_Node000002_Node000003" class="edge">
<title>Node2&#45;&gt;Node3</title>
<g id="a_edge2_Node000002_Node000003"><a xlink:title=" ">
<path fill="none" stroke="#63b8ff" d="M236.81,-172.61C301.34,-169.13 421.59,-158.99 519.63,-129.75 559.57,-117.84 602.53,-95.49 628.75,-80.64"/>
<polygon fill="#63b8ff" stroke="#63b8ff" points="630.35,-83.75 637.27,-75.73 626.86,-77.69 630.35,-83.75"/>
</a>
</g>
</g>
<!-- Node5 -->
<g id="Node000005" class="node">
<title>Node5</title>
<g id="a_Node000005"><a xlink:href="../../d8/d32/_type_traits_8hpp.html" target="_top" xlink:title=" ">
<polygon fill="white" stroke="#666666" points="511.13,-129.75 390.13,-129.75 390.13,-110.5 511.13,-110.5 511.13,-129.75"/>
<text text-anchor="middle" x="450.63" y="-116.25" font-family="Helvetica,sans-Serif" font-size="10.00">mimic++/TypeTraits.hpp</text>
</a>
</g>
</g>
<!-- Node2&#45;&gt;Node5 -->
<g id="edge4_Node000002_Node000005" class="edge">
<title>Node2&#45;&gt;Node5</title>
<g id="a_edge4_Node000002_Node000005"><a xlink:title=" ">
<path fill="none" stroke="#63b8ff" d="M235.03,-165.28C279.34,-156.21 347.54,-142.24 395.34,-132.45"/>
<polygon fill="#63b8ff" stroke="#63b8ff" points="395.84,-135.92 404.93,-130.48 394.44,-129.06 395.84,-135.92"/>
</a>
</g>
</g>
<!-- Node8 -->
<g id="Node000008" class="node">
<title>Node8</title>
<g id="a_Node000008"><a xlink:title=" ">
<polygon fill="#e0e0e0" stroke="#999999" points="286.13,-74.5 249.13,-74.5 249.13,-55.25 286.13,-55.25 286.13,-74.5"/>
<text text-anchor="middle" x="267.63" y="-61" font-family="Helvetica,sans-Serif" font-size="10.00">tuple</text>
</a>
</g>
</g>
<!-- Node2&#45;&gt;Node8 -->
<g id="edge18_Node000002_Node000008" class="edge">
<title>Node2&#45;&gt;Node8</title>
<g id="a_edge18_Node000002_Node000008"><a xlink:title=" ">
<path fill="none" stroke="#63b8ff" d="M187.1,-165.38C182.57,-152.3 176.46,-127.72 186.63,-110.5 192.55,-100.49 217.67,-87.53 238.39,-78.16"/>
<polygon fill="#63b8ff" stroke="#63b8ff" points="239.58,-81.47 247.32,-74.23 236.75,-75.06 239.58,-81.47"/>
</a>
</g>
</g>
<!-- Node10 -->
<g id="Node000010" class="node">
<title>Node10</title>
<g id="a_Node000010"><a xlink:href="../../d4/d2c/_utility_8hpp.html" target="_top" xlink:title=" ">
<polygon fill="white" stroke="#666666" points="295.63,-129.75 195.63,-129.75 195.63,-110.5 295.63,-110.5 295.63,-129.75"/>
<text text-anchor="middle" x="245.63" y="-116.25" font-family="Helvetica,sans-Serif" font-size="10.00">mimic++/Utility.hpp</text>
</a>
</g>
</g>
<!-- Node2&#45;&gt;Node10 -->
<g id="edge10_Node000002_Node000010" class="edge">
<title>Node2&#45;&gt;Node10</title>
<g id="a_edge10_Node000002_Node000010"><a xlink:title=" ">
<path fill="none" stroke="#63b8ff" d="M199.72,-165.58C207.47,-158.07 218.84,-147.06 228.33,-137.88"/>
<polygon fill="#63b8ff" stroke="#63b8ff" points="230.52,-140.63 235.27,-131.16 225.65,-135.6 230.52,-140.63"/>
</a>
</g>
</g>
<!-- Node12 -->
<g id="Node000012" class="node">
<title>Node12</title>
<g id="a_Node000012"><a xlink:title=" ">
<polygon fill="#e0e0e0" stroke="#999999" points="164.76,-74.5 80.51,-74.5 80.51,-55.25 164.76,-55.25 164.76,-74.5"/>
<text text-anchor="middle" x="122.63" y="-61" font-family="Helvetica,sans-Serif" font-size="10.00">source_location</text>
</a>
</g>
</g>
<!-- Node2&#45;&gt;Node12 -->
<g id="edge17_Node000002_Node000012" class="edge">
<title>Node2&#45;&gt;Node12</title>
<g id="a_edge17_Node000002_Node000012"><a xlink:title=" ">
<path fill="none" stroke="#63b8ff" d="M182,-165.31C174.01,-156.63 162.13,-142.95 153.63,-129.75 144.54,-115.63 136.34,-98.44 130.67,-85.45"/>
<polygon fill="#63b8ff" stroke="#63b8ff" points="133.92,-84.15 126.8,-76.31 127.47,-86.88 133.92,-84.15"/>
</a>
</g>
</g>
<!-- Node14 -->
<g id="Node000014" class="node">
<title>Node14</title>
<g id="a_Node000014"><a xlink:title=" ">
<polygon fill="#e0e0e0" stroke="#999999" points="62.88,-74.5 24.38,-74.5 24.38,-55.25 62.88,-55.25 62.88,-74.5"/>
<text text-anchor="middle" x="43.63" y="-61" font-family="Helvetica,sans-Serif" font-size="10.00">utility</text>
</a>
</g>
</g>
<!-- Node2&#45;&gt;Node14 -->
<g id="edge19_Node000002_Node000014" class="edge">
<title>Node2&#45;&gt;Node14</title>
<g id="a_edge19_Node000002_Node000014"><a xlink:title=" ">
<path fill="none" stroke="#63b8ff" d="M178.35,-165.31C153.32,-146.84 96.14,-104.63 64.92,-81.59"/>
<polygon fill="#63b8ff" stroke="#63b8ff" points="67.12,-78.86 56.99,-75.74 62.96,-84.49 67.12,-78.86"/>
</a>
</g>
</g>
<!-- Node4 -->
<g id="Node000004" class="node">
<title>Node4</title>
<g id="a_Node000004"><a xlink:title=" ">
<polygon fill="#e0e0e0" stroke="#999999" points="673.63,-19.25 633.63,-19.25 633.63,0 673.63,0 673.63,-19.25"/>
<text text-anchor="middle" x="653.63" y="-5.75" font-family="Helvetica,sans-Serif" font-size="10.00">string</text>
</a>
</g>
</g>
<!-- Node3&#45;&gt;Node4 -->
<g id="edge3_Node000003_Node000004" class="edge">
<title>Node3&#45;&gt;Node4</title>
<g id="a_edge3_Node000003_Node000004"><a xlink:title=" ">
<path fill="none" stroke="#63b8ff" d="M653.63,-55.08C653.63,-48.57 653.63,-39.42 653.63,-31.12"/>
<polygon fill="#63b8ff" stroke="#63b8ff" points="657.13,-31.12 653.63,-21.12 650.13,-31.12 657.13,-31.12"/>
</a>
</g>
</g>
<!-- Node5&#45;&gt;Node3 -->
<g id="edge5_Node000005_Node000003" class="edge">
<title>Node5&#45;&gt;Node3</title>
<g id="a_edge5_Node000005_Node000003"><a xlink:title=" ">
<path fill="none" stroke="#63b8ff" d="M485.07,-110.09C518.9,-101.22 570.72,-87.62 607.97,-77.85"/>
<polygon fill="#63b8ff" stroke="#63b8ff" points="608.78,-81.26 617.57,-75.34 607,-74.49 608.78,-81.26"/>
</a>
</g>
</g>
<!-- Node6 -->
<g id="Node000006" class="node">
<title>Node6</title>
<g id="a_Node000006"><a xlink:title=" ">
<polygon fill="#e0e0e0" stroke="#999999" points="588.51,-74.5 532.76,-74.5 532.76,-55.25 588.51,-55.25 588.51,-74.5"/>
<text text-anchor="middle" x="560.63" y="-61" font-family="Helvetica,sans-Serif" font-size="10.00">concepts</text>
</a>
</g>
</g>
<!-- Node5&#45;&gt;Node6 -->
<g id="edge6_Node000005_Node000006" class="edge">
<title>Node5&#45;&gt;Node6</title>
<g id="a_edge6_Node000005_Node000006"><a xlink:title=" ">
<path fill="none" stroke="#63b8ff" d="M469.29,-110.09C486.36,-101.83 511.88,-89.48 531.61,-79.93"/>
<polygon fill="#63b8ff" stroke="#63b8ff" points="533.04,-83.12 540.52,-75.61 529.99,-76.82 533.04,-83.12"/>
</a>
</g>
</g>
<!-- Node7 -->
<g id="Node000007" class="node">
<title>Node7</title>
<g id="a_Node000007"><a xlink:title=" ">
<polygon fill="#e0e0e0" stroke="#999999" points="435.76,-74.5 387.51,-74.5 387.51,-55.25 435.76,-55.25 435.76,-74.5"/>
<text text-anchor="middle" x="411.63" y="-61" font-family="Helvetica,sans-Serif" font-size="10.00">cstddef</text>
</a>
</g>
</g>
<!-- Node5&#45;&gt;Node7 -->
<g id="edge7_Node000005_Node000007" class="edge">
<title>Node5&#45;&gt;Node7</title>
<g id="a_edge7_Node000005_Node000007"><a xlink:title=" ">
<path fill="none" stroke="#63b8ff" d="M444.19,-110.33C438.98,-103.21 431.45,-92.93 424.94,-84.05"/>
<polygon fill="#63b8ff" stroke="#63b8ff" points="427.84,-82.08 419.11,-76.08 422.19,-86.22 427.84,-82.08"/>
</a>
</g>
</g>
<!-- Node5&#45;&gt;Node8 -->
<g id="edge8_Node000005_Node000008" class="edge">
<title>Node5&#45;&gt;Node8</title>
<g id="a_edge8_Node000005_Node000008"><a xlink:title=" ">
<path fill="none" stroke="#63b8ff" d="M417.68,-110.01C388.33,-101.83 343.97,-89.29 297.41,-75.28"/>
<polygon fill="#63b8ff" stroke="#63b8ff" points="298.53,-71.96 287.94,-72.42 296.5,-78.66 298.53,-71.96"/>
</a>
</g>
</g>
<!-- Node9 -->
<g id="Node000009" class="node">
<title>Node9</title>
<g id="a_Node000009"><a xlink:title=" ">
<polygon fill="#e0e0e0" stroke="#999999" points="515.13,-74.5 454.13,-74.5 454.13,-55.25 515.13,-55.25 515.13,-74.5"/>
<text text-anchor="middle" x="484.63" y="-61" font-family="Helvetica,sans-Serif" font-size="10.00">type_traits</text>
</a>
</g>
</g>
<!-- Node5&#45;&gt;Node9 -->
<g id="edge9_Node000005_Node000009" class="edge">
<title>Node5&#45;&gt;Node9</title>
<g id="a_edge9_Node000005_Node000009"><a xlink:title=" ">
<path fill="none" stroke="#63b8ff" d="M456.25,-110.33C460.75,-103.28 467.22,-93.15 472.85,-84.33"/>
<polygon fill="#63b8ff" stroke="#63b8ff" points="475.65,-86.45 478.08,-76.13 469.75,-82.68 475.65,-86.45"/>
</a>
</g>
</g>
<!-- Node10&#45;&gt;Node3 -->
<g id="edge11_Node000010_Node000003" class="edge">
<title>Node10&#45;&gt;Node3</title>
<g id="a_edge11_Node000010_Node000003"><a xlink:title=" ">
<path fill="none" stroke="#63b8ff" d="M296.11,-113.16C362.31,-105.23 482.37,-90.54 595.06,-74.83"/>
<polygon fill="#63b8ff" stroke="#63b8ff" points="595.37,-78.32 604.79,-73.47 594.4,-71.39 595.37,-78.32"/>
</a>
</g>
</g>
<!-- Node10&#45;&gt;Node8 -->
<g id="edge15_Node000010_Node000008" class="edge">
<title>Node10&#45;&gt;Node8</title>
<g id="a_edge15_Node000010_Node000008"><a xlink:title=" ">
<path fill="none" stroke="#63b8ff" d="M249.27,-110.33C252.05,-103.59 256,-94.02 259.53,-85.49"/>
<polygon fill="#63b8ff" stroke="#63b8ff" points="262.76,-86.84 263.34,-76.26 256.29,-84.16 262.76,-86.84"/>
</a>
</g>
</g>
<!-- Node11 -->
<g id="Node000011" class="node">
<title>Node11</title>
<g id="a_Node000011"><a xlink:title=" ">
<polygon fill="#e0e0e0" stroke="#999999" points="230.76,-74.5 182.51,-74.5 182.51,-55.25 230.76,-55.25 230.76,-74.5"/>
<text text-anchor="middle" x="206.63" y="-61" font-family="Helvetica,sans-Serif" font-size="10.00">cassert</text>
</a>
</g>
</g>
<!-- Node10&#45;&gt;Node11 -->
<g id="edge12_Node000010_Node000011" class="edge">
<title>Node10&#45;&gt;Node11</title>
<g id="a_edge12_Node000010_Node000011"><a xlink:title=" ">
<path fill="none" stroke="#63b8ff" d="M239.19,-110.33C233.98,-103.21 226.45,-92.93 219.94,-84.05"/>
<polygon fill="#63b8ff" stroke="#63b8ff" points="222.84,-82.08 214.11,-76.08 217.19,-86.22 222.84,-82.08"/>
</a>
</g>
</g>
<!-- Node10&#45;&gt;Node12 -->
<g id="edge13_Node000010_Node000012" class="edge">
<title>Node10&#45;&gt;Node12</title>
<g id="a_edge13_Node000010_Node000012"><a xlink:title=" ">
<path fill="none" stroke="#63b8ff" d="M224.77,-110.09C205.33,-101.68 176.09,-89.02 153.87,-79.4"/>
<polygon fill="#63b8ff" stroke="#63b8ff" points="155.56,-76.31 144.99,-75.55 152.78,-82.74 155.56,-76.31"/>
</a>
</g>
</g>
<!-- Node13 -->
<g id="Node000013" class="node">
<title>Node13</title>
<g id="a_Node000013"><a xlink:title=" ">
<polygon fill="#e0e0e0" stroke="#999999" points="369.38,-74.5 303.88,-74.5 303.88,-55.25 369.38,-55.25 369.38,-74.5"/>
<text text-anchor="middle" x="336.63" y="-61" font-family="Helvetica,sans-Serif" font-size="10.00">string_view</text>
</a>
</g>
</g>
<!-- Node10&#45;&gt;Node13 -->
<g id="edge14_Node000010_Node000013" class="edge">
<title>Node10&#45;&gt;Node13</title>
<g id="a_edge14_Node000010_Node000013"><a xlink:title=" ">
<path fill="none" stroke="#63b8ff" d="M261.07,-110.09C274.8,-102.06 295.13,-90.16 311.25,-80.73"/>
<polygon fill="#63b8ff" stroke="#63b8ff" points="312.95,-83.79 319.82,-75.72 309.42,-77.75 312.95,-83.79"/>
</a>
</g>
</g>
<!-- Node10&#45;&gt;Node14 -->
<g id="edge16_Node000010_Node000014" class="edge">
<title>Node10&#45;&gt;Node14</title>
<g id="a_edge16_Node000010_Node000014"><a xlink:title=" ">
<path fill="none" stroke="#63b8ff" d="M208.16,-110.06C175.17,-101.97 125.59,-89.5 74.18,-75.12"/>
<polygon fill="#63b8ff" stroke="#63b8ff" points="75.21,-71.78 64.64,-72.44 73.31,-78.52 75.21,-71.78"/>
</a>
</g>
</g>
<!-- Node15&#45;&gt;Node3 -->
<g id="edge22_Node000015_Node000003" class="edge">
<title>Node15&#45;&gt;Node3</title>
<g id="a_edge22_Node000015_Node000003"><a xlink:title=" ">
<path fill="none" stroke="#63b8ff" d="M509.98,-226.17C566.91,-221.19 652.51,-209.73 672.63,-185 696.01,-156.28 678.03,-110.4 664.67,-84.77"/>
<polygon fill="#63b8ff" stroke="#63b8ff" points="667.82,-83.23 659.92,-76.16 661.69,-86.61 667.82,-83.23"/>
</a>
</g>
</g>
<!-- Node15&#45;&gt;Node4 -->
<g id="edge40_Node000015_Node000004" class="edge">
<title>Node15&#45;&gt;Node4</title>
<g id="a_edge40_Node000015_Node000004"><a xlink:title=" ">
<path fill="none" stroke="#63b8ff" d="M405.29,-228.42C317.25,-225.54 144.11,-215.99 92.63,-185 35.19,-150.41 -30.1,-104.29 15.63,-55.25 57.31,-10.55 499.2,-9.73 622.09,-10.38"/>
<polygon fill="#63b8ff" stroke="#63b8ff" points="621.74,-13.87 631.76,-10.43 621.78,-6.87 621.74,-13.87"/>
</a>
</g>
</g>
<!-- Node15&#45;&gt;Node5 -->
<g id="edge32_Node000015_Node000005" class="edge">
<title>Node15&#45;&gt;Node5</title>
<g id="a_edge32_Node000015_Node000005"><a xlink:title=" ">
<path fill="none" stroke="#63b8ff" d="M412.29,-220.55C392.59,-214.11 371.37,-203.24 359.63,-185 344.66,-161.72 375.01,-144.48 404.61,-133.82"/>
<polygon fill="#63b8ff" stroke="#63b8ff" points="405.6,-137.18 413.96,-130.67 403.36,-130.54 405.6,-137.18"/>
</a>
</g>
</g>
<!-- Node15&#45;&gt;Node10 -->
<g id="edge33_Node000015_Node000010" class="edge">
<title>Node15&#45;&gt;Node10</title>
<g id="a_edge33_Node000015_Node000010"><a xlink:title=" ">
<path fill="none" stroke="#63b8ff" d="M405.54,-225.5C369.88,-220.5 323.01,-209.45 288.63,-185 272.82,-173.75 261.11,-154.72 253.94,-140.35"/>
<polygon fill="#63b8ff" stroke="#63b8ff" points="257.19,-139.03 249.81,-131.43 250.84,-141.98 257.19,-139.03"/>
</a>
</g>
</g>
<!-- Node15&#45;&gt;Node12 -->
<g id="edge38_Node000015_Node000012" class="edge">
<title>Node15&#45;&gt;Node12</title>
<g id="a_edge38_Node000015_Node000012"><a xlink:title=" ">
<path fill="none" stroke="#63b8ff" d="M405.46,-229.87C323.97,-229.08 172.01,-222.45 135.63,-185 110.22,-158.84 113.52,-112.64 118.12,-86.12"/>
<polygon fill="#63b8ff" stroke="#63b8ff" points="121.55,-86.83 120.07,-76.34 114.68,-85.46 121.55,-86.83"/>
</a>
</g>
</g>
<!-- Node15&#45;&gt;Node13 -->
<g id="edge41_Node000015_Node000013" class="edge">
<title>Node15&#45;&gt;Node13</title>
<g id="a_edge41_Node000015_Node000013"><a xlink:title=" ">
<path fill="none" stroke="#63b8ff" d="M409.21,-220.58C388.31,-214.16 365.51,-203.3 351.63,-185 329.76,-156.16 330.66,-111.63 333.5,-85.97"/>
<polygon fill="#63b8ff" stroke="#63b8ff" points="336.95,-86.62 334.81,-76.24 330.01,-85.69 336.95,-86.62"/>
</a>
</g>
</g>
<!-- Node15&#45;&gt;Node14 -->
<g id="edge42_Node000015_Node000014" class="edge">
<title>Node15&#45;&gt;Node14</title>
<g id="a_edge42_Node000015_Node000014"><a xlink:title=" ">
<path fill="none" stroke="#63b8ff" d="M405.39,-228.05C322.61,-224.67 165.94,-214.49 119.63,-185 82.68,-161.47 60.3,-112.8 50.14,-85.52"/>
<polygon fill="#63b8ff" stroke="#63b8ff" points="53.55,-84.66 46.93,-76.39 46.95,-86.98 53.55,-84.66"/>
</a>
</g>
</g>
<!-- Node16 -->
<g id="Node000016" class="node">
<title>Node16</title>
<g id="a_Node000016"><a xlink:href="../../d9/dc5/_string_8hpp.html" target="_top" xlink:title=" ">
<polygon fill="white" stroke="#666666" points="664.01,-185 563.26,-185 563.26,-165.75 664.01,-165.75 664.01,-185"/>
<text text-anchor="middle" x="613.63" y="-171.5" font-family="Helvetica,sans-Serif" font-size="10.00">mimic++/String.hpp</text>
</a>
</g>
</g>
<!-- Node15&#45;&gt;Node16 -->
<g id="edge23_Node000015_Node000016" class="edge">
<title>Node15&#45;&gt;Node16</title>
<g id="a_edge23_Node000015_Node000016"><a xlink:title=" ">
<path fill="none" stroke="#63b8ff" d="M484.1,-220.59C509.42,-211.95 547.87,-198.82 576.3,-189.12"/>
<polygon fill="#63b8ff" stroke="#63b8ff" points="577.28,-192.48 585.61,-185.94 575.01,-185.86 577.28,-192.48"/>
</a>
</g>
</g>
<!-- Node15&#45;&gt;Node17 -->
<g id="edge35_Node000015_Node000017" class="edge">
<title>Node15&#45;&gt;Node17</title>
<g id="a_edge35_Node000015_Node000017"><a xlink:title=" ">
<path fill="none" stroke="#63b8ff" d="M509.66,-227.59C561.39,-223.91 642,-213.64 705.63,-185 730.75,-173.7 754.93,-152.92 770.23,-138.13"/>
<polygon fill="#63b8ff" stroke="#63b8ff" points="772.47,-140.84 777.08,-131.3 767.52,-135.88 772.47,-140.84"/>
</a>
</g>
</g>
<!-- Node15&#45;&gt;Node18 -->
<g id="edge37_Node000015_Node000018" class="edge">
<title>Node15&#45;&gt;Node18</title>
<g id="a_edge37_Node000015_Node000018"><a xlink:title=" ">
<path fill="none" stroke="#63b8ff" d="M509.82,-226.34C566.61,-221.61 659.48,-210.44 735.63,-185 771.75,-172.94 810.07,-150.94 833.68,-136.18"/>
<polygon fill="#63b8ff" stroke="#63b8ff" points="835.31,-139.29 841.86,-130.97 831.55,-133.38 835.31,-139.29"/>
</a>
</g>
</g>
<!-- Node19 -->
<g id="Node000019" class="node">
<title>Node19</title>
<g id="a_Node000019"><a xlink:title=" ">
<polygon fill="#e0e0e0" stroke="#999999" points="414.26,-185 369.01,-185 369.01,-165.75 414.26,-165.75 414.26,-185"/>
<text text-anchor="middle" x="391.63" y="-171.5" font-family="Helvetica,sans-Serif" font-size="10.00">cstdint</text>
</a>
</g>
</g>
<!-- Node15&#45;&gt;Node19 -->
<g id="edge34_Node000015_Node000019" class="edge">
<title>Node15&#45;&gt;Node19</title>
<g id="a_edge34_Node000015_Node000019"><a xlink:title=" ">
<path fill="none" stroke="#63b8ff" d="M446.44,-220.59C436.9,-212.9 422.96,-201.65 411.53,-192.43"/>
<polygon fill="#63b8ff" stroke="#63b8ff" points="413.82,-189.78 403.84,-186.23 409.43,-195.23 413.82,-189.78"/>
</a>
</g>
</g>
<!-- Node15&#45;&gt;Node20 -->
<g id="edge36_Node000015_Node000020" class="edge">
<title>Node15&#45;&gt;Node20</title>
<g id="a_edge36_Node000015_Node000020"><a xlink:title=" ">
<path fill="none" stroke="#63b8ff" d="M509.78,-223.94C574,-216.6 686.3,-202.64 781.63,-185 782.46,-184.85 783.3,-184.69 784.14,-184.52"/>
<polygon fill="#63b8ff" stroke="#63b8ff" points="784.68,-187.99 793.73,-182.49 783.23,-181.14 784.68,-187.99"/>
</a>
</g>
</g>
<!-- Node21 -->
<g id="Node000021" class="node">
<title>Node21</title>
<g id="a_Node000021"><a xlink:title=" ">
<polygon fill="#e0e0e0" stroke="#999999" points="483.26,-185 432.01,-185 432.01,-165.75 483.26,-165.75 483.26,-185"/>
<text text-anchor="middle" x="457.63" y="-171.5" font-family="Helvetica,sans-Serif" font-size="10.00">sstream</text>
</a>
</g>
</g>
<!-- Node15&#45;&gt;Node21 -->
<g id="edge39_Node000015_Node000021" class="edge">
<title>Node15&#45;&gt;Node21</title>
<g id="a_edge39_Node000015_Node000021"><a xlink:title=" ">
<path fill="none" stroke="#63b8ff" d="M457.63,-220.83C457.63,-214.32 457.63,-205.17 457.63,-196.87"/>
<polygon fill="#63b8ff" stroke="#63b8ff" points="461.13,-196.87 457.63,-186.87 454.13,-196.87 461.13,-196.87"/>
</a>
</g>
</g>
<!-- Node22 -->
<g id="Node000022" class="node">
<title>Node22</title>
<g id="a_Node000022"><a xlink:title=" ">
<polygon fill="#e0e0e0" stroke="#999999" points="545.51,-185 501.76,-185 501.76,-165.75 545.51,-165.75 545.51,-185"/>
<text text-anchor="middle" x="523.63" y="-171.5" font-family="Helvetica,sans-Serif" font-size="10.00">format</text>
</a>
</g>
</g>
<!-- Node15&#45;&gt;Node22 -->
<g id="edge43_Node000015_Node000022" class="edge">
<title>Node15&#45;&gt;Node22</title>
<g id="a_edge43_Node000015_Node000022"><a xlink:title=" ">
<path fill="none" stroke="#63b8ff" d="M468.83,-220.59C478.37,-212.9 492.31,-201.65 503.74,-192.43"/>
<polygon fill="#63b8ff" stroke="#63b8ff" points="505.84,-195.23 511.43,-186.23 501.45,-189.78 505.84,-195.23"/>
</a>
</g>
</g>
<!-- Node16&#45;&gt;Node3 -->
<g id="edge24_Node000016_Node000003" class="edge">
<title>Node16&#45;&gt;Node3</title>
<g id="a_edge24_Node000016_Node000003"><a xlink:title=" ">
<path fill="none" stroke="#63b8ff" d="M616.91,-165.5C623.32,-148.09 637.69,-109.12 646.43,-85.41"/>
<polygon fill="#63b8ff" stroke="#63b8ff" points="649.62,-86.89 649.79,-76.3 643.05,-84.47 649.62,-86.89"/>
</a>
</g>
</g>
<!-- Node16&#45;&gt;Node4 -->
<g id="edge29_Node000016_Node000004" class="edge">
<title>Node16&#45;&gt;Node4</title>
<g id="a_edge29_Node000016_Node000004"><a xlink:title=" ">
<path fill="none" stroke="#63b8ff" d="M627.49,-165.36C649.82,-149.92 692.92,-116 709.63,-74.5 712.83,-66.56 713.35,-62.96 709.63,-55.25 703.73,-42.99 692.63,-33.05 681.86,-25.7"/>
<polygon fill="#63b8ff" stroke="#63b8ff" points="683.84,-22.81 673.51,-20.47 680.13,-28.74 683.84,-22.81"/>
</a>
</g>
</g>
<!-- Node16&#45;&gt;Node6 -->
<g id="edge26_Node000016_Node000006" class="edge">
<title>Node16&#45;&gt;Node6</title>
<g id="a_edge26_Node000016_Node000006"><a xlink:title=" ">
<path fill="none" stroke="#63b8ff" d="M611.38,-165.38C608.03,-152.73 601.08,-129.12 591.63,-110.5 586.95,-101.27 580.59,-91.76 574.85,-83.9"/>
<polygon fill="#63b8ff" stroke="#63b8ff" points="577.83,-82.03 569,-76.18 572.25,-86.26 577.83,-82.03"/>
</a>
</g>
</g>
<!-- Node16&#45;&gt;Node9 -->
<g id="edge31_Node000016_Node000009" class="edge">
<title>Node16&#45;&gt;Node9</title>
<g id="a_edge31_Node000016_Node000009"><a xlink:title=" ">
<path fill="none" stroke="#63b8ff" d="M603.08,-165.5C581.44,-147.3 531.77,-105.52 504.12,-82.26"/>
<polygon fill="#63b8ff" stroke="#63b8ff" points="506.4,-79.61 496.49,-75.85 501.9,-84.97 506.4,-79.61"/>
</a>
</g>
</g>
<!-- Node16&#45;&gt;Node10 -->
<g id="edge25_Node000016_Node000010" class="edge">
<title>Node16&#45;&gt;Node10</title>
<g id="a_edge25_Node000016_Node000010"><a xlink:title=" ">
<path fill="none" stroke="#63b8ff" d="M562.79,-166.94C560.03,-166.53 557.3,-166.14 554.63,-165.75 468.79,-153.28 369.52,-138.96 307.15,-129.98"/>
<polygon fill="#63b8ff" stroke="#63b8ff" points="307.84,-126.54 297.45,-128.58 306.85,-133.47 307.84,-126.54"/>
</a>
</g>
</g>
<!-- Node16&#45;&gt;Node13 -->
<g id="edge30_Node000016_Node000013" class="edge">
<title>Node16&#45;&gt;Node13</title>
<g id="a_edge30_Node000016_Node000013"><a xlink:title=" ">
<path fill="none" stroke="#63b8ff" d="M562.95,-166.76C499.06,-156.84 395.72,-139.6 380.63,-129.75 364.26,-119.06 352.31,-99.95 345.03,-85.41"/>
<polygon fill="#63b8ff" stroke="#63b8ff" points="348.21,-83.95 340.83,-76.35 341.86,-86.89 348.21,-83.95"/>
</a>
</g>
</g>
<!-- Node16&#45;&gt;Node17 -->
<g id="edge27_Node000016_Node000017" class="edge">
<title>Node16&#45;&gt;Node17</title>
<g id="a_edge27_Node000016_Node000017"><a xlink:title=" ">
<path fill="none" stroke="#63b8ff" d="M642.98,-165.34C671.44,-156.58 714.83,-143.23 746.48,-133.48"/>
<polygon fill="#63b8ff" stroke="#63b8ff" points="747.17,-136.93 755.7,-130.65 745.11,-130.24 747.17,-136.93"/>
</a>
</g>
</g>
<!-- Node16&#45;&gt;Node18 -->
<g id="edge28_Node000016_Node000018" class="edge">
<title>Node16&#45;&gt;Node18</title>
<g id="a_edge28_Node000016_Node000018"><a xlink:title=" ">
<path fill="none" stroke="#63b8ff" d="M660.31,-165.27C700.75,-157.21 761.07,-144.78 822.52,-130.15"/>
<polygon fill="#63b8ff" stroke="#63b8ff" points="823.22,-133.58 832.13,-127.85 821.59,-126.78 823.22,-133.58"/>
</a>
</g>
</g>
</g>
</svg>
