<?xml version="1.0" encoding="UTF-8" standalone="no"?>
<!DOCTYPE svg PUBLIC "-//W3C//DTD SVG 1.1//EN"
 "http://www.w3.org/Graphics/SVG/1.1/DTD/svg11.dtd">
<!-- Generated by graphviz version 12.1.1 (20240910.0053)
 -->
<!-- Title: mimic++/Reports.hpp Pages: 1 -->
<!--zoomable 248 -->

<svg id="main" version="1.1" xmlns="http://www.w3.org/2000/svg" xmlns:xlink="http://www.w3.org/1999/xlink" xml:space="preserve" onload="init(evt)">

<style type="text/css"><![CDATA[
.node, .edge {opacity: 0.7;}
.node.selected, .edge.selected {opacity: 1;}
.edge:hover path { stroke: red; }
.edge:hover polygon { stroke: red; fill: red; }
]]></style>

<defs>
  <circle id="rim" cx="0" cy="0" r="7"/>
  <circle id="rim2" cx="0" cy="0" r="3.5"/>
  <g id="zoomPlus">
    <use xlink:href="#rim" fill="#404040"><set attributeName="fill" to="#808080" begin="zoomplus.mouseover" end="zoomplus.mouseout"/></use>
    <path d="M-4,0h8M0,-4v8" fill="none" stroke="white" stroke-width="1.5" pointer-events="none"/>
  </g>
  <g id="zoomMin">
    <use xlink:href="#rim" fill="#404040"><set attributeName="fill" to="#808080" begin="zoomminus.mouseover" end="zoomminus.mouseout"/></use>
    <path d="M-4,0h8" fill="none" stroke="white" stroke-width="1.5" pointer-events="none"/>
  </g>
  <g id="arrowUp" transform="translate(30 24)">
    <use xlink:href="#rim"/>
    <path pointer-events="none" fill="none" stroke="white" stroke-width="1.5" d="M0,-3.0v7 M-2.5,-0.5L0,-3.0L2.5,-0.5"/>
  </g>
  <g id="arrowRight" transform="rotate(90) translate(36 -43)">
    <use xlink:href="#rim"/>
    <path pointer-events="none" fill="none" stroke="white" stroke-width="1.5" d="M0,-3.0v7 M-2.5,-0.5L0,-3.0L2.5,-0.5"/>
  </g>
  <g id="arrowDown" transform="rotate(180) translate(-30 -48)">
    <use xlink:href="#rim"/>
    <path pointer-events="none" fill="none" stroke="white" stroke-width="1.5" d="M0,-3.0v7 M-2.5,-0.5L0,-3.0L2.5,-0.5"/>
  </g>
  <g id="arrowLeft" transform="rotate(270) translate(-36 17)">
    <use xlink:href="#rim"/>
    <path pointer-events="none" fill="none" stroke="white" stroke-width="1.5" d="M0,-3.0v7 M-2.5,-0.5L0,-3.0L2.5,-0.5"/>
  </g>
  <g id="resetDef">
    <use xlink:href="#rim2" fill="#404040"><set attributeName="fill" to="#808080" begin="reset.mouseover" end="reset.mouseout"/></use>
  </g>
</defs>
<script type="application/ecmascript">
var viewWidth = 1051;
var viewHeight = 248;
var sectionId = 'dynsection-0';
</script>
<script type="application/ecmascript" xlink:href="../../svg.min.js"/>
<svg id="graph" class="graph">
<g id="viewport">
<title>mimic++/Reports.hpp</title>
<!-- Node1 -->
<g id="Node000001" class="node">
<title>Node1</title>
<g id="a_Node000001"><a xlink:title=" ">
<polygon fill="#999999" stroke="#666666" points="739,-240.25 630,-240.25 630,-221 739,-221 739,-240.25"/>
<text text-anchor="middle" x="684.5" y="-226.75" font-family="Helvetica,sans-Serif" font-size="10.00">mimic++/Reports.hpp</text>
</a>
</g>
</g>
<!-- Node2 -->
<g id="Node000002" class="node">
<title>Node2</title>
<g id="a_Node000002"><a xlink:href="../../dc/d44/_call_8hpp.html" target="_top" xlink:title=" ">
<polygon fill="white" stroke="#666666" points="271.38,-185 179.62,-185 179.62,-165.75 271.38,-165.75 271.38,-185"/>
<text text-anchor="middle" x="225.5" y="-171.5" font-family="Helvetica,sans-Serif" font-size="10.00">mimic++/Call.hpp</text>
</a>
</g>
</g>
<!-- Node1&#45;&gt;Node2 -->
<g id="edge1_Node000001_Node000002" class="edge">
<title>Node1&#45;&gt;Node2</title>
<g id="a_edge1_Node000001_Node000002"><a xlink:title=" ">
<path fill="none" stroke="#63b8ff" d="M629.59,-223.25C542.17,-213.11 372.14,-193.39 283.07,-183.05"/>
<polygon fill="#63b8ff" stroke="#63b8ff" points="283.68,-179.6 273.34,-181.93 282.87,-186.55 283.68,-179.6"/>
</a>
</g>
</g>
<!-- Node3 -->
<g id="Node000003" class="node">
<title>Node3</title>
<g id="a_Node000003"><a xlink:href="../../df/dde/_fwd_8hpp.html" target="_top" xlink:title=" ">
<polygon fill="white" stroke="#666666" points="477.5,-74.5 383.5,-74.5 383.5,-55.25 477.5,-55.25 477.5,-74.5"/>
<text text-anchor="middle" x="430.5" y="-61" font-family="Helvetica,sans-Serif" font-size="10.00">mimic++/Fwd.hpp</text>
</a>
</g>
</g>
<!-- Node1&#45;&gt;Node3 -->
<g id="edge15_Node000001_Node000003" class="edge">
<title>Node1&#45;&gt;Node3</title>
<g id="a_edge15_Node000001_Node000003"><a xlink:title=" ">
<path fill="none" stroke="#63b8ff" d="M629.62,-221.53C575.32,-210.52 494.06,-185.36 449.5,-129.75 439.42,-117.17 434.68,-99.36 432.46,-85.74"/>
<polygon fill="#63b8ff" stroke="#63b8ff" points="435.98,-85.66 431.24,-76.18 429.04,-86.55 435.98,-85.66"/>
</a>
</g>
</g>
<!-- Node12 -->
<g id="Node000012" class="node">
<title>Node12</title>
<g id="a_Node000012"><a xlink:href="../../da/dab/_printer_8hpp.html" target="_top" xlink:title=" ">
<polygon fill="white" stroke="#666666" points="562.38,-129.75 458.62,-129.75 458.62,-110.5 562.38,-110.5 562.38,-129.75"/>
<text text-anchor="middle" x="510.5" y="-116.25" font-family="Helvetica,sans-Serif" font-size="10.00">mimic++/Printer.hpp</text>
</a>
</g>
</g>
<!-- Node1&#45;&gt;Node12 -->
<g id="edge16_Node000001_Node000012" class="edge">
<title>Node1&#45;&gt;Node12</title>
<g id="a_edge16_Node000001_Node000012"><a xlink:title=" ">
<path fill="none" stroke="#63b8ff" d="M654.13,-220.52C631.62,-212.97 600.76,-200.91 576.5,-185 556.59,-171.94 537.46,-152.39 524.96,-138.36"/>
<polygon fill="#63b8ff" stroke="#63b8ff" points="527.96,-136.47 518.76,-131.21 522.67,-141.05 527.96,-136.47"/>
</a>
</g>
</g>
<!-- Node13 -->
<g id="Node000013" class="node">
<title>Node13</title>
<g id="a_Node000013"><a xlink:title=" ">
<polygon fill="#e0e0e0" stroke="#999999" points="744.5,-74.5 686.5,-74.5 686.5,-55.25 744.5,-55.25 744.5,-74.5"/>
<text text-anchor="middle" x="715.5" y="-61" font-family="Helvetica,sans-Serif" font-size="10.00">functional</text>
</a>
</g>
</g>
<!-- Node1&#45;&gt;Node13 -->
<g id="edge27_Node000001_Node000013" class="edge">
<title>Node1&#45;&gt;Node13</title>
<g id="a_edge27_Node000001_Node000013"><a xlink:title=" ">
<path fill="none" stroke="#63b8ff" d="M658.64,-220.57C642.81,-213.54 623.86,-202.06 614.5,-185 598.58,-155.97 596.43,-138.24 614.5,-110.5 621.7,-99.45 650.35,-87.38 675.31,-78.58"/>
<polygon fill="#63b8ff" stroke="#63b8ff" points="676.3,-81.94 684.63,-75.4 674.04,-75.32 676.3,-81.94"/>
</a>
</g>
</g>
<!-- Node14 -->
<g id="Node000014" class="node">
<title>Node14</title>
<g id="a_Node000014"><a xlink:title=" ">
<polygon fill="#e0e0e0" stroke="#999999" points="808.5,-74.5 762.5,-74.5 762.5,-55.25 808.5,-55.25 808.5,-74.5"/>
<text text-anchor="middle" x="785.5" y="-61" font-family="Helvetica,sans-Serif" font-size="10.00">iterator</text>
</a>
</g>
</g>
<!-- Node1&#45;&gt;Node14 -->
<g id="edge28_Node000001_Node000014" class="edge">
<title>Node1&#45;&gt;Node14</title>
<g id="a_edge28_Node000001_Node000014"><a xlink:title=" ">
<path fill="none" stroke="#63b8ff" d="M672.91,-220.7C658.58,-208.5 637.24,-185.84 647.5,-165.75 669.23,-123.21 718.47,-94.59 751.86,-79.26"/>
<polygon fill="#63b8ff" stroke="#63b8ff" points="752.97,-82.6 760.71,-75.36 750.14,-76.19 752.97,-82.6"/>
</a>
</g>
</g>
<!-- Node17 -->
<g id="Node000017" class="node">
<title>Node17</title>
<g id="a_Node000017"><a xlink:title=" ">
<polygon fill="#e0e0e0" stroke="#999999" points="712.38,-185 656.62,-185 656.62,-165.75 712.38,-165.75 712.38,-185"/>
<text text-anchor="middle" x="684.5" y="-171.5" font-family="Helvetica,sans-Serif" font-size="10.00">algorithm</text>
</a>
</g>
</g>
<!-- Node1&#45;&gt;Node17 -->
<g id="edge26_Node000001_Node000017" class="edge">
<title>Node1&#45;&gt;Node17</title>
<g id="a_edge26_Node000001_Node000017"><a xlink:title=" ">
<path fill="none" stroke="#63b8ff" d="M684.5,-220.83C684.5,-214.32 684.5,-205.17 684.5,-196.87"/>
<polygon fill="#63b8ff" stroke="#63b8ff" points="688,-196.87 684.5,-186.87 681,-196.87 688,-196.87"/>
</a>
</g>
</g>
<!-- Node18 -->
<g id="Node000018" class="node">
<title>Node18</title>
<g id="a_Node000018"><a xlink:title=" ">
<polygon fill="#e0e0e0" stroke="#999999" points="780.38,-185 730.62,-185 730.62,-165.75 780.38,-165.75 780.38,-185"/>
<text text-anchor="middle" x="755.5" y="-171.5" font-family="Helvetica,sans-Serif" font-size="10.00">optional</text>
</a>
</g>
</g>
<!-- Node1&#45;&gt;Node18 -->
<g id="edge29_Node000001_Node000018" class="edge">
<title>Node1&#45;&gt;Node18</title>
<g id="a_edge29_Node000001_Node000018"><a xlink:title=" ">
<path fill="none" stroke="#63b8ff" d="M696.54,-220.59C706.91,-212.82 722.1,-201.42 734.47,-192.15"/>
<polygon fill="#63b8ff" stroke="#63b8ff" points="736.52,-194.98 742.42,-186.18 732.32,-189.38 736.52,-194.98"/>
</a>
</g>
</g>
<!-- Node19 -->
<g id="Node000019" class="node">
<title>Node19</title>
<g id="a_Node000019"><a xlink:title=" ">
<polygon fill="#e0e0e0" stroke="#999999" points="844.12,-185 798.88,-185 798.88,-165.75 844.12,-165.75 844.12,-185"/>
<text text-anchor="middle" x="821.5" y="-171.5" font-family="Helvetica,sans-Serif" font-size="10.00">ranges</text>
</a>
</g>
</g>
<!-- Node1&#45;&gt;Node19 -->
<g id="edge30_Node000001_Node000019" class="edge">
<title>Node1&#45;&gt;Node19</title>
<g id="a_edge30_Node000001_Node000019"><a xlink:title=" ">
<path fill="none" stroke="#63b8ff" d="M707.74,-220.59C729.82,-212.01 763.25,-199.02 788.17,-189.33"/>
<polygon fill="#63b8ff" stroke="#63b8ff" points="789.14,-192.71 797.19,-185.82 786.6,-186.18 789.14,-192.71"/>
</a>
</g>
</g>
<!-- Node20 -->
<g id="Node000020" class="node">
<title>Node20</title>
<g id="a_Node000020"><a xlink:title=" ">
<polygon fill="#e0e0e0" stroke="#999999" points="918.75,-185 862.25,-185 862.25,-165.75 918.75,-165.75 918.75,-185"/>
<text text-anchor="middle" x="890.5" y="-171.5" font-family="Helvetica,sans-Serif" font-size="10.00">typeindex</text>
</a>
</g>
</g>
<!-- Node1&#45;&gt;Node20 -->
<g id="edge31_Node000001_Node000020" class="edge">
<title>Node1&#45;&gt;Node20</title>
<g id="a_edge31_Node000001_Node000020"><a xlink:title=" ">
<path fill="none" stroke="#63b8ff" d="M719.45,-220.59C756.01,-211.14 813.29,-196.33 851.36,-186.49"/>
<polygon fill="#63b8ff" stroke="#63b8ff" points="851.76,-190 860.56,-184.11 850.01,-183.23 851.76,-190"/>
</a>
</g>
</g>
<!-- Node21 -->
<g id="Node000021" class="node">
<title>Node21</title>
<g id="a_Node000021"><a xlink:title=" ">
<polygon fill="#e0e0e0" stroke="#999999" points="982.12,-185 936.88,-185 936.88,-165.75 982.12,-165.75 982.12,-185"/>
<text text-anchor="middle" x="959.5" y="-171.5" font-family="Helvetica,sans-Serif" font-size="10.00">variant</text>
</a>
</g>
</g>
<!-- Node1&#45;&gt;Node21 -->
<g id="edge32_Node000001_Node000021" class="edge">
<title>Node1&#45;&gt;Node21</title>
<g id="a_edge32_Node000001_Node000021"><a xlink:title=" ">
<path fill="none" stroke="#63b8ff" d="M739.29,-220.88C786.2,-213.09 855.77,-200.85 925.32,-185.34"/>
<polygon fill="#63b8ff" stroke="#63b8ff" points="926.02,-188.77 935.01,-183.15 924.48,-181.94 926.02,-188.77"/>
</a>
</g>
</g>
<!-- Node22 -->
<g id="Node000022" class="node">
<title>Node22</title>
<g id="a_Node000022"><a xlink:title=" ">
<polygon fill="#e0e0e0" stroke="#999999" points="1043,-185 1000,-185 1000,-165.75 1043,-165.75 1043,-185"/>
<text text-anchor="middle" x="1021.5" y="-171.5" font-family="Helvetica,sans-Serif" font-size="10.00">vector</text>
</a>
</g>
</g>
<!-- Node1&#45;&gt;Node22 -->
<g id="edge33_Node000001_Node000022" class="edge">
<title>Node1&#45;&gt;Node22</title>
<g id="a_edge33_Node000001_Node000022"><a xlink:title=" ">
<path fill="none" stroke="#63b8ff" d="M739.25,-223.94C798.55,-217.27 896.1,-204.85 988.4,-185.43"/>
<polygon fill="#63b8ff" stroke="#63b8ff" points="989.11,-188.86 998.15,-183.35 987.64,-182.02 989.11,-188.86"/>
</a>
</g>
</g>
<!-- Node2&#45;&gt;Node3 -->
<g id="edge2_Node000002_Node000003" class="edge">
<title>Node2&#45;&gt;Node3</title>
<g id="a_edge2_Node000002_Node000003"><a xlink:title=" ">
<path fill="none" stroke="#63b8ff" d="M269.53,-165.26C297.47,-158.25 333.66,-146.83 362.5,-129.75 383.54,-117.3 403.41,-97.32 416.17,-83.03"/>
<polygon fill="#63b8ff" stroke="#63b8ff" points="418.59,-85.58 422.48,-75.73 413.29,-81 418.59,-85.58"/>
</a>
</g>
</g>
<!-- Node5 -->
<g id="Node000005" class="node">
<title>Node5</title>
<g id="a_Node000005"><a xlink:href="../../d8/d32/_type_traits_8hpp.html" target="_top" xlink:title=" ">
<polygon fill="white" stroke="#666666" points="121,-129.75 0,-129.75 0,-110.5 121,-110.5 121,-129.75"/>
<text text-anchor="middle" x="60.5" y="-116.25" font-family="Helvetica,sans-Serif" font-size="10.00">mimic++/TypeTraits.hpp</text>
</a>
</g>
</g>
<!-- Node2&#45;&gt;Node5 -->
<g id="edge4_Node000002_Node000005" class="edge">
<title>Node2&#45;&gt;Node5</title>
<g id="a_edge4_Node000002_Node000005"><a xlink:title=" ">
<path fill="none" stroke="#63b8ff" d="M197.51,-165.34C170.49,-156.62 129.34,-143.34 99.19,-133.61"/>
<polygon fill="#63b8ff" stroke="#63b8ff" points="100.66,-130.41 90.07,-130.67 98.51,-137.07 100.66,-130.41"/>
</a>
</g>
</g>
<!-- Node6 -->
<g id="Node000006" class="node">
<title>Node6</title>
<g id="a_Node000006"><a xlink:title=" ">
<polygon fill="#e0e0e0" stroke="#999999" points="79,-74.5 42,-74.5 42,-55.25 79,-55.25 79,-74.5"/>
<text text-anchor="middle" x="60.5" y="-61" font-family="Helvetica,sans-Serif" font-size="10.00">tuple</text>
</a>
</g>
</g>
<!-- Node2&#45;&gt;Node6 -->
<g id="edge13_Node000002_Node000006" class="edge">
<title>Node2&#45;&gt;Node6</title>
<g id="a_edge13_Node000002_Node000006"><a xlink:title=" ">
<path fill="none" stroke="#63b8ff" d="M212.35,-165.39C194.08,-152.93 159.93,-129.77 130.5,-110.5 115.22,-100.5 97.92,-89.46 84.34,-80.87"/>
<polygon fill="#63b8ff" stroke="#63b8ff" points="86.38,-78.02 76.06,-75.64 82.64,-83.94 86.38,-78.02"/>
</a>
</g>
</g>
<!-- Node7 -->
<g id="Node000007" class="node">
<title>Node7</title>
<g id="a_Node000007"><a xlink:href="../../d4/d2c/_utility_8hpp.html" target="_top" xlink:title=" ">
<polygon fill="white" stroke="#666666" points="353.5,-129.75 253.5,-129.75 253.5,-110.5 353.5,-110.5 353.5,-129.75"/>
<text text-anchor="middle" x="303.5" y="-116.25" font-family="Helvetica,sans-Serif" font-size="10.00">mimic++/Utility.hpp</text>
</a>
</g>
</g>
<!-- Node2&#45;&gt;Node7 -->
<g id="edge6_Node000002_Node000007" class="edge">
<title>Node2&#45;&gt;Node7</title>
<g id="a_edge6_Node000002_Node000007"><a xlink:title=" ">
<path fill="none" stroke="#63b8ff" d="M238.73,-165.34C250.27,-157.46 267.27,-145.86 280.95,-136.52"/>
<polygon fill="#63b8ff" stroke="#63b8ff" points="282.67,-139.58 288.95,-131.06 278.72,-133.8 282.67,-139.58"/>
</a>
</g>
</g>
<!-- Node10 -->
<g id="Node000010" class="node">
<title>Node10</title>
<g id="a_Node000010"><a xlink:title=" ">
<polygon fill="#e0e0e0" stroke="#999999" points="303.62,-74.5 219.38,-74.5 219.38,-55.25 303.62,-55.25 303.62,-74.5"/>
<text text-anchor="middle" x="261.5" y="-61" font-family="Helvetica,sans-Serif" font-size="10.00">source_location</text>
</a>
</g>
</g>
<!-- Node2&#45;&gt;Node10 -->
<g id="edge12_Node000002_Node000010" class="edge">
<title>Node2&#45;&gt;Node10</title>
<g id="a_edge12_Node000002_Node000010"><a xlink:title=" ">
<path fill="none" stroke="#63b8ff" d="M227.88,-165.63C231.29,-153.27 237.89,-130.01 244.5,-110.5 247.33,-102.16 250.73,-93.05 253.75,-85.26"/>
<polygon fill="#63b8ff" stroke="#63b8ff" points="256.95,-86.69 257.36,-76.1 250.44,-84.12 256.95,-86.69"/>
</a>
</g>
</g>
<!-- Node11 -->
<g id="Node000011" class="node">
<title>Node11</title>
<g id="a_Node000011"><a xlink:title=" ">
<polygon fill="#e0e0e0" stroke="#999999" points="135.75,-74.5 97.25,-74.5 97.25,-55.25 135.75,-55.25 135.75,-74.5"/>
<text text-anchor="middle" x="116.5" y="-61" font-family="Helvetica,sans-Serif" font-size="10.00">utility</text>
</a>
</g>
</g>
<!-- Node2&#45;&gt;Node11 -->
<g id="edge14_Node000002_Node000011" class="edge">
<title>Node2&#45;&gt;Node11</title>
<g id="a_edge14_Node000002_Node000011"><a xlink:title=" ">
<path fill="none" stroke="#63b8ff" d="M217.19,-165.59C205.39,-153.17 183.06,-129.84 163.5,-110.5 154.12,-101.22 143.47,-91.08 134.68,-82.81"/>
<polygon fill="#63b8ff" stroke="#63b8ff" points="137.13,-80.31 127.44,-76.03 132.34,-85.42 137.13,-80.31"/>
</a>
</g>
</g>
<!-- Node4 -->
<g id="Node000004" class="node">
<title>Node4</title>
<g id="a_Node000004"><a xlink:title=" ">
<polygon fill="#e0e0e0" stroke="#999999" points="487.5,-19.25 447.5,-19.25 447.5,0 487.5,0 487.5,-19.25"/>
<text text-anchor="middle" x="467.5" y="-5.75" font-family="Helvetica,sans-Serif" font-size="10.00">string</text>
</a>
</g>
</g>
<!-- Node3&#45;&gt;Node4 -->
<g id="edge3_Node000003_Node000004" class="edge">
<title>Node3&#45;&gt;Node4</title>
<g id="a_edge3_Node000003_Node000004"><a xlink:title=" ">
<path fill="none" stroke="#63b8ff" d="M436.61,-55.08C441.56,-47.96 448.7,-37.68 454.87,-28.8"/>
<polygon fill="#63b8ff" stroke="#63b8ff" points="457.56,-31.06 460.39,-20.85 451.81,-27.07 457.56,-31.06"/>
</a>
</g>
</g>
<!-- Node5&#45;&gt;Node6 -->
<g id="edge5_Node000005_Node000006" class="edge">
<title>Node5&#45;&gt;Node6</title>
<g id="a_edge5_Node000005_Node000006"><a xlink:title=" ">
<path fill="none" stroke="#63b8ff" d="M60.5,-110.33C60.5,-103.82 60.5,-94.67 60.5,-86.37"/>
<polygon fill="#63b8ff" stroke="#63b8ff" points="64,-86.37 60.5,-76.37 57,-86.37 64,-86.37"/>
</a>
</g>
</g>
<!-- Node7&#45;&gt;Node3 -->
<g id="edge7_Node000007_Node000003" class="edge">
<title>Node7&#45;&gt;Node3</title>
<g id="a_edge7_Node000007_Node000003"><a xlink:title=" ">
<path fill="none" stroke="#63b8ff" d="M325.04,-110.09C345.11,-101.68 375.3,-89.02 398.25,-79.4"/>
<polygon fill="#63b8ff" stroke="#63b8ff" points="399.59,-82.63 407.45,-75.54 396.88,-76.18 399.59,-82.63"/>
</a>
</g>
</g>
<!-- Node8 -->
<g id="Node000008" class="node">
<title>Node8</title>
<g id="a_Node000008"><a xlink:title=" ">
<polygon fill="#e0e0e0" stroke="#999999" points="201.62,-74.5 153.38,-74.5 153.38,-55.25 201.62,-55.25 201.62,-74.5"/>
<text text-anchor="middle" x="177.5" y="-61" font-family="Helvetica,sans-Serif" font-size="10.00">cassert</text>
</a>
</g>
</g>
<!-- Node7&#45;&gt;Node8 -->
<g id="edge8_Node000007_Node000008" class="edge">
<title>Node7&#45;&gt;Node8</title>
<g id="a_edge8_Node000007_Node000008"><a xlink:title=" ">
<path fill="none" stroke="#63b8ff" d="M282.13,-110.09C262.21,-101.68 232.26,-89.02 209.5,-79.4"/>
<polygon fill="#63b8ff" stroke="#63b8ff" points="210.95,-76.21 200.37,-75.54 208.22,-82.66 210.95,-76.21"/>
</a>
</g>
</g>
<!-- Node9 -->
<g id="Node000009" class="node">
<title>Node9</title>
<g id="a_Node000009"><a xlink:title=" ">
<polygon fill="#e0e0e0" stroke="#999999" points="365.38,-74.5 321.62,-74.5 321.62,-55.25 365.38,-55.25 365.38,-74.5"/>
<text text-anchor="middle" x="343.5" y="-61" font-family="Helvetica,sans-Serif" font-size="10.00">format</text>
</a>
</g>
</g>
<!-- Node7&#45;&gt;Node9 -->
<g id="edge9_Node000007_Node000009" class="edge">
<title>Node7&#45;&gt;Node9</title>
<g id="a_edge9_Node000007_Node000009"><a xlink:title=" ">
<path fill="none" stroke="#63b8ff" d="M310.11,-110.33C315.46,-103.21 323.18,-92.93 329.85,-84.05"/>
<polygon fill="#63b8ff" stroke="#63b8ff" points="332.63,-86.17 335.84,-76.07 327.04,-81.96 332.63,-86.17"/>
</a>
</g>
</g>
<!-- Node7&#45;&gt;Node10 -->
<g id="edge10_Node000007_Node000010" class="edge">
<title>Node7&#45;&gt;Node10</title>
<g id="a_edge10_Node000007_Node000010"><a xlink:title=" ">
<path fill="none" stroke="#63b8ff" d="M296.56,-110.33C290.88,-103.13 282.66,-92.71 275.61,-83.76"/>
<polygon fill="#63b8ff" stroke="#63b8ff" points="278.46,-81.73 269.52,-76.05 272.97,-86.07 278.46,-81.73"/>
</a>
</g>
</g>
<!-- Node7&#45;&gt;Node11 -->
<g id="edge11_Node000007_Node000011" class="edge">
<title>Node7&#45;&gt;Node11</title>
<g id="a_edge11_Node000007_Node000011"><a xlink:title=" ">
<path fill="none" stroke="#63b8ff" d="M270.24,-110.05C240.28,-101.82 194.79,-89.19 146.95,-75.17"/>
<polygon fill="#63b8ff" stroke="#63b8ff" points="148.1,-71.86 137.52,-72.4 146.12,-78.58 148.1,-71.86"/>
</a>
</g>
</g>
<!-- Node12&#45;&gt;Node3 -->
<g id="edge17_Node000012_Node000003" class="edge">
<title>Node12&#45;&gt;Node3</title>
<g id="a_edge17_Node000012_Node000003"><a xlink:title=" ">
<path fill="none" stroke="#63b8ff" d="M496.93,-110.09C485.09,-102.21 467.66,-90.61 453.63,-81.27"/>
<polygon fill="#63b8ff" stroke="#63b8ff" points="455.66,-78.42 445.4,-75.79 451.78,-84.25 455.66,-78.42"/>
</a>
</g>
</g>
<!-- Node12&#45;&gt;Node4 -->
<g id="edge23_Node000012_Node000004" class="edge">
<title>Node12&#45;&gt;Node4</title>
<g id="a_edge23_Node000012_Node000004"><a xlink:title=" ">
<path fill="none" stroke="#63b8ff" d="M507.36,-110.4C502.88,-98.06 494.34,-74.82 486.5,-55.25 483.13,-46.85 479.24,-37.63 475.87,-29.77"/>
<polygon fill="#63b8ff" stroke="#63b8ff" points="479.19,-28.64 472,-20.86 472.77,-31.42 479.19,-28.64"/>
</a>
</g>
</g>
<!-- Node12&#45;&gt;Node9 -->
<g id="edge18_Node000012_Node000009" class="edge">
<title>Node12&#45;&gt;Node9</title>
<g id="a_edge18_Node000012_Node000009"><a xlink:title=" ">
<path fill="none" stroke="#63b8ff" d="M482.17,-110.09C452.91,-100.76 407.3,-86.22 376.45,-76.38"/>
<polygon fill="#63b8ff" stroke="#63b8ff" points="377.84,-73.15 367.25,-73.45 375.72,-79.82 377.84,-73.15"/>
</a>
</g>
</g>
<!-- Node12&#45;&gt;Node10 -->
<g id="edge21_Node000012_Node000010" class="edge">
<title>Node12&#45;&gt;Node10</title>
<g id="a_edge21_Node000012_Node000010"><a xlink:title=" ">
<path fill="none" stroke="#63b8ff" d="M467.98,-110.03C425.72,-100.99 360.78,-87.11 315.04,-77.32"/>
<polygon fill="#63b8ff" stroke="#63b8ff" points="315.84,-73.92 305.33,-75.25 314.37,-80.76 315.84,-73.92"/>
</a>
</g>
</g>
<!-- Node12&#45;&gt;Node11 -->
<g id="edge25_Node000012_Node000011" class="edge">
<title>Node12&#45;&gt;Node11</title>
<g id="a_edge25_Node000012_Node000011"><a xlink:title=" ">
<path fill="none" stroke="#63b8ff" d="M458.2,-115.68C388.97,-110.48 263.03,-98.79 147.15,-74.72"/>
<polygon fill="#63b8ff" stroke="#63b8ff" points="147.95,-71.32 137.45,-72.67 146.5,-78.16 147.95,-71.32"/>
</a>
</g>
</g>
<!-- Node12&#45;&gt;Node13 -->
<g id="edge19_Node000012_Node000013" class="edge">
<title>Node12&#45;&gt;Node13</title>
<g id="a_edge19_Node000012_Node000013"><a xlink:title=" ">
<path fill="none" stroke="#63b8ff" d="M545.28,-110.09C581.2,-100.76 637.21,-86.21 675.08,-76.37"/>
<polygon fill="#63b8ff" stroke="#63b8ff" points="675.94,-79.77 684.74,-73.86 674.18,-72.99 675.94,-79.77"/>
</a>
</g>
</g>
<!-- Node12&#45;&gt;Node14 -->
<g id="edge20_Node000012_Node000014" class="edge">
<title>Node12&#45;&gt;Node14</title>
<g id="a_edge20_Node000012_Node000014"><a xlink:title=" ">
<path fill="none" stroke="#63b8ff" d="M562.42,-110.85C609.38,-103.09 680.65,-90.6 751.27,-74.86"/>
<polygon fill="#63b8ff" stroke="#63b8ff" points="751.67,-78.36 760.66,-72.74 750.13,-71.53 751.67,-78.36"/>
</a>
</g>
</g>
<!-- Node15 -->
<g id="Node000015" class="node">
<title>Node15</title>
<g id="a_Node000015"><a xlink:title=" ">
<polygon fill="#e0e0e0" stroke="#999999" points="668.12,-74.5 616.88,-74.5 616.88,-55.25 668.12,-55.25 668.12,-74.5"/>
<text text-anchor="middle" x="642.5" y="-61" font-family="Helvetica,sans-Serif" font-size="10.00">sstream</text>
</a>
</g>
</g>
<!-- Node12&#45;&gt;Node15 -->
<g id="edge22_Node000012_Node000015" class="edge">
<title>Node12&#45;&gt;Node15</title>
<g id="a_edge22_Node000012_Node000015"><a xlink:title=" ">
<path fill="none" stroke="#63b8ff" d="M532.89,-110.09C553.94,-101.6 585.7,-88.79 609.62,-79.14"/>
<polygon fill="#63b8ff" stroke="#63b8ff" points="610.63,-82.51 618.59,-75.52 608.01,-76.01 610.63,-82.51"/>
</a>
</g>
</g>
<!-- Node16 -->
<g id="Node000016" class="node">
<title>Node16</title>
<g id="a_Node000016"><a xlink:title=" ">
<polygon fill="#e0e0e0" stroke="#999999" points="599.25,-74.5 533.75,-74.5 533.75,-55.25 599.25,-55.25 599.25,-74.5"/>
<text text-anchor="middle" x="566.5" y="-61" font-family="Helvetica,sans-Serif" font-size="10.00">string_view</text>
</a>
</g>
</g>
<!-- Node12&#45;&gt;Node16 -->
<g id="edge24_Node000012_Node000016" class="edge">
<title>Node12&#45;&gt;Node16</title>
<g id="a_edge24_Node000012_Node000016"><a xlink:title=" ">
<path fill="none" stroke="#63b8ff" d="M520,-110.09C527.93,-102.55 539.45,-91.6 549.04,-82.48"/>
<polygon fill="#63b8ff" stroke="#63b8ff" points="551.21,-85.24 556.04,-75.82 546.39,-80.17 551.21,-85.24"/>
</a>
</g>
</g>
</g>
</svg>

<g id="navigator" transform="translate(0 0)" fill="#404254">
  <rect fill="#f2f5e9" fill-opacity="0.5" stroke="#606060" stroke-width=".5" x="0" y="0" width="60" height="60"/>
  <use id="zoomplus" xlink:href="#zoomPlus" x="17" y="9" onmousedown="handleZoom(evt,'in')"/>
  <use id="zoomminus" xlink:href="#zoomMin" x="42" y="9" onmousedown="handleZoom(evt,'out')"/>
  <use id="reset" xlink:href="#resetDef" x="30" y="36" onmousedown="handleReset()"/>
   <use id="arrowup" xlink:href="#arrowUp" x="0" y="0" onmousedown="handlePan(0,-1)"/>
  <use id="arrowright" xlink:href="#arrowRight" x="0" y="0" onmousedown="handlePan(1,0)"/>
  <use id="arrowdown" xlink:href="#arrowDown" x="0" y="0" onmousedown="handlePan(0,1)"/>
  <use id="arrowleft" xlink:href="#arrowLeft" x="0" y="0" onmousedown="handlePan(-1,0)"/>
</g>
<svg viewBox="0 0 15 15" width="100%" height="30px" preserveAspectRatio="xMaxYMin meet">
 <g id="arrow_out" transform="scale(0.3 0.3)">
  <a xlink:href="_reports_8hpp__incl_org.svg" target="_base">
   <rect id="button" ry="5" rx="5" y="6" x="6" height="38" width="38"
        fill="#f2f5e9" fill-opacity="0.5" stroke="#606060" stroke-width="1.0"/>
   <path id="arrow"
     d="M 11.500037,31.436501 C 11.940474,20.09759 22.043105,11.32322 32.158766,21.979434 L 37.068811,17.246167 C 37.068811,17.246167 37.088388,32 37.088388,32 L 22.160133,31.978069 C 22.160133,31.978069 26.997745,27.140456 26.997745,27.140456 C 18.528582,18.264221 13.291696,25.230495 11.500037,31.436501 z"
     style="fill:#404040;"/>
  </a>
 </g>
</svg>

<style type='text/css'>
<![CDATA[
[data-mouse-over-selected='false'] { opacity: 0.7; }
[data-mouse-over-selected='true']  { opacity: 1.0; }
]]>
</style>
<script type="application/ecmascript"><![CDATA[
document.addEventListener('DOMContentLoaded', (event) => {
  highlightEdges();
  highlightAdjacentNodes();
});
]]></script>
</svg>
