<?xml version="1.0" encoding="UTF-8" standalone="no"?>
<!DOCTYPE svg PUBLIC "-//W3C//DTD SVG 1.1//EN"
 "http://www.w3.org/Graphics/SVG/1.1/DTD/svg11.dtd">
<!-- Generated by graphviz version 12.1.1 (20240910.0053)
 -->
<!-- Title: mimic++/Reports.hpp Pages: 1 -->
<svg width="962pt" height="248pt"
 viewBox="0.00 0.00 961.50 248.25" xmlns="http://www.w3.org/2000/svg" xmlns:xlink="http://www.w3.org/1999/xlink">
<g id="graph0" class="graph" transform="scale(1 1) rotate(0) translate(4 244.25)">
<title>mimic++/Reports.hpp</title>
<!-- Node1 -->
<g id="Node000001" class="node">
<title>Node1</title>
<g id="a_Node000001"><a xlink:title=" ">
<polygon fill="#999999" stroke="#666666" points="648.5,-240.25 539.5,-240.25 539.5,-221 648.5,-221 648.5,-240.25"/>
<text text-anchor="middle" x="594" y="-226.75" font-family="Helvetica,sans-Serif" font-size="10.00">mimic++/Reports.hpp</text>
</a>
</g>
</g>
<!-- Node2 -->
<g id="Node000002" class="node">
<title>Node2</title>
<g id="a_Node000002"><a xlink:href="../../dc/d44/_call_8hpp.html" target="_top" xlink:title=" ">
<polygon fill="white" stroke="#666666" points="472.88,-185 381.12,-185 381.12,-165.75 472.88,-165.75 472.88,-185"/>
<text text-anchor="middle" x="427" y="-171.5" font-family="Helvetica,sans-Serif" font-size="10.00">mimic++/Call.hpp</text>
</a>
</g>
</g>
<!-- Node1&#45;&gt;Node2 -->
<g id="edge1_Node000001_Node000002" class="edge">
<title>Node1&#45;&gt;Node2</title>
<g id="a_edge1_Node000001_Node000002"><a xlink:title=" ">
<path fill="none" stroke="#63b8ff" d="M565.67,-220.59C538.32,-211.87 496.68,-198.59 466.16,-188.86"/>
<polygon fill="#63b8ff" stroke="#63b8ff" points="467.5,-185.62 456.91,-185.91 465.37,-192.28 467.5,-185.62"/>
</a>
</g>
</g>
<!-- Node3 -->
<g id="Node000003" class="node">
<title>Node3</title>
<g id="a_Node000003"><a xlink:href="../../df/dde/_fwd_8hpp.html" target="_top" xlink:title=" ">
<polygon fill="white" stroke="#666666" points="412,-74.5 318,-74.5 318,-55.25 412,-55.25 412,-74.5"/>
<text text-anchor="middle" x="365" y="-61" font-family="Helvetica,sans-Serif" font-size="10.00">mimic++/Fwd.hpp</text>
</a>
</g>
</g>
<!-- Node1&#45;&gt;Node3 -->
<g id="edge15_Node000001_Node000003" class="edge">
<title>Node1&#45;&gt;Node3</title>
<g id="a_edge15_Node000001_Node000003"><a xlink:title=" ">
<path fill="none" stroke="#63b8ff" d="M539.22,-225.24C481.45,-219.5 395.57,-207.42 372,-185 345.44,-159.73 352.26,-112.47 359,-85.7"/>
<polygon fill="#63b8ff" stroke="#63b8ff" points="362.34,-86.72 361.65,-76.15 355.6,-84.84 362.34,-86.72"/>
</a>
</g>
</g>
<!-- Node12 -->
<g id="Node000012" class="node">
<title>Node12</title>
<g id="a_Node000012"><a xlink:href="../../da/dab/_printer_8hpp.html" target="_top" xlink:title=" ">
<polygon fill="white" stroke="#666666" points="282.88,-129.75 179.12,-129.75 179.12,-110.5 282.88,-110.5 282.88,-129.75"/>
<text text-anchor="middle" x="231" y="-116.25" font-family="Helvetica,sans-Serif" font-size="10.00">mimic++/Printer.hpp</text>
</a>
</g>
</g>
<!-- Node1&#45;&gt;Node12 -->
<g id="edge16_Node000001_Node000012" class="edge">
<title>Node1&#45;&gt;Node12</title>
<g id="a_edge16_Node000001_Node000012"><a xlink:title=" ">
<path fill="none" stroke="#63b8ff" d="M539.05,-225.39C465.22,-219.03 338.48,-205.51 297,-185 275.19,-174.22 255.93,-153.6 243.93,-138.7"/>
<polygon fill="#63b8ff" stroke="#63b8ff" points="246.94,-136.87 238.07,-131.09 241.4,-141.15 246.94,-136.87"/>
</a>
</g>
</g>
<!-- Node13 -->
<g id="Node000013" class="node">
<title>Node13</title>
<g id="a_Node000013"><a xlink:title=" ">
<polygon fill="#e0e0e0" stroke="#999999" points="46,-74.5 0,-74.5 0,-55.25 46,-55.25 46,-74.5"/>
<text text-anchor="middle" x="23" y="-61" font-family="Helvetica,sans-Serif" font-size="10.00">iterator</text>
</a>
</g>
</g>
<!-- Node1&#45;&gt;Node13 -->
<g id="edge27_Node000001_Node000013" class="edge">
<title>Node1&#45;&gt;Node13</title>
<g id="a_edge27_Node000001_Node000013"><a xlink:title=" ">
<path fill="none" stroke="#63b8ff" d="M539.17,-227.52C473.1,-223.76 359.33,-213.41 266,-185 181.06,-159.14 89.1,-106.54 46.78,-80.78"/>
<polygon fill="#63b8ff" stroke="#63b8ff" points="48.76,-77.89 38.41,-75.63 45.09,-83.85 48.76,-77.89"/>
</a>
</g>
</g>
<!-- Node16 -->
<g id="Node000016" class="node">
<title>Node16</title>
<g id="a_Node000016"><a xlink:title=" ">
<polygon fill="#e0e0e0" stroke="#999999" points="546.88,-185 491.12,-185 491.12,-165.75 546.88,-165.75 546.88,-185"/>
<text text-anchor="middle" x="519" y="-171.5" font-family="Helvetica,sans-Serif" font-size="10.00">algorithm</text>
</a>
</g>
</g>
<!-- Node1&#45;&gt;Node16 -->
<g id="edge25_Node000001_Node000016" class="edge">
<title>Node1&#45;&gt;Node16</title>
<g id="a_edge25_Node000001_Node000016"><a xlink:title=" ">
<path fill="none" stroke="#63b8ff" d="M581.28,-220.59C570.29,-212.79 554.16,-201.34 541.07,-192.04"/>
<polygon fill="#63b8ff" stroke="#63b8ff" points="543.2,-189.26 533.02,-186.33 539.15,-194.97 543.2,-189.26"/>
</a>
</g>
</g>
<!-- Node17 -->
<g id="Node000017" class="node">
<title>Node17</title>
<g id="a_Node000017"><a xlink:title=" ">
<polygon fill="#e0e0e0" stroke="#999999" points="623,-185 565,-185 565,-165.75 623,-165.75 623,-185"/>
<text text-anchor="middle" x="594" y="-171.5" font-family="Helvetica,sans-Serif" font-size="10.00">functional</text>
</a>
</g>
</g>
<!-- Node1&#45;&gt;Node17 -->
<g id="edge26_Node000001_Node000017" class="edge">
<title>Node1&#45;&gt;Node17</title>
<g id="a_edge26_Node000001_Node000017"><a xlink:title=" ">
<path fill="none" stroke="#63b8ff" d="M594,-220.83C594,-214.32 594,-205.17 594,-196.87"/>
<polygon fill="#63b8ff" stroke="#63b8ff" points="597.5,-196.87 594,-186.87 590.5,-196.87 597.5,-196.87"/>
</a>
</g>
</g>
<!-- Node18 -->
<g id="Node000018" class="node">
<title>Node18</title>
<g id="a_Node000018"><a xlink:title=" ">
<polygon fill="#e0e0e0" stroke="#999999" points="690.88,-185 641.12,-185 641.12,-165.75 690.88,-165.75 690.88,-185"/>
<text text-anchor="middle" x="666" y="-171.5" font-family="Helvetica,sans-Serif" font-size="10.00">optional</text>
</a>
</g>
</g>
<!-- Node1&#45;&gt;Node18 -->
<g id="edge28_Node000001_Node000018" class="edge">
<title>Node1&#45;&gt;Node18</title>
<g id="a_edge28_Node000001_Node000018"><a xlink:title=" ">
<path fill="none" stroke="#63b8ff" d="M606.21,-220.59C616.83,-212.74 632.44,-201.2 645.04,-191.87"/>
<polygon fill="#63b8ff" stroke="#63b8ff" points="646.79,-194.94 652.75,-186.17 642.63,-189.31 646.79,-194.94"/>
</a>
</g>
</g>
<!-- Node19 -->
<g id="Node000019" class="node">
<title>Node19</title>
<g id="a_Node000019"><a xlink:title=" ">
<polygon fill="#e0e0e0" stroke="#999999" points="754.62,-185 709.38,-185 709.38,-165.75 754.62,-165.75 754.62,-185"/>
<text text-anchor="middle" x="732" y="-171.5" font-family="Helvetica,sans-Serif" font-size="10.00">ranges</text>
</a>
</g>
</g>
<!-- Node1&#45;&gt;Node19 -->
<g id="edge29_Node000001_Node000019" class="edge">
<title>Node1&#45;&gt;Node19</title>
<g id="a_edge29_Node000001_Node000019"><a xlink:title=" ">
<path fill="none" stroke="#63b8ff" d="M617.41,-220.59C639.65,-212.01 673.33,-199.02 698.42,-189.33"/>
<polygon fill="#63b8ff" stroke="#63b8ff" points="699.45,-192.68 707.52,-185.82 696.93,-186.15 699.45,-192.68"/>
</a>
</g>
</g>
<!-- Node20 -->
<g id="Node000020" class="node">
<title>Node20</title>
<g id="a_Node000020"><a xlink:title=" ">
<polygon fill="#e0e0e0" stroke="#999999" points="829.25,-185 772.75,-185 772.75,-165.75 829.25,-165.75 829.25,-185"/>
<text text-anchor="middle" x="801" y="-171.5" font-family="Helvetica,sans-Serif" font-size="10.00">typeindex</text>
</a>
</g>
</g>
<!-- Node1&#45;&gt;Node20 -->
<g id="edge30_Node000001_Node000020" class="edge">
<title>Node1&#45;&gt;Node20</title>
<g id="a_edge30_Node000001_Node000020"><a xlink:title=" ">
<path fill="none" stroke="#63b8ff" d="M629.11,-220.59C665.86,-211.14 723.42,-196.33 761.67,-186.49"/>
<polygon fill="#63b8ff" stroke="#63b8ff" points="762.11,-189.99 770.92,-184.11 760.37,-183.21 762.11,-189.99"/>
</a>
</g>
</g>
<!-- Node21 -->
<g id="Node000021" class="node">
<title>Node21</title>
<g id="a_Node000021"><a xlink:title=" ">
<polygon fill="#e0e0e0" stroke="#999999" points="892.62,-185 847.38,-185 847.38,-165.75 892.62,-165.75 892.62,-185"/>
<text text-anchor="middle" x="870" y="-171.5" font-family="Helvetica,sans-Serif" font-size="10.00">variant</text>
</a>
</g>
</g>
<!-- Node1&#45;&gt;Node21 -->
<g id="edge31_Node000001_Node000021" class="edge">
<title>Node1&#45;&gt;Node21</title>
<g id="a_edge31_Node000001_Node000021"><a xlink:title=" ">
<path fill="none" stroke="#63b8ff" d="M648.53,-220.97C695.63,-213.2 765.74,-200.93 835.75,-185.35"/>
<polygon fill="#63b8ff" stroke="#63b8ff" points="836.52,-188.77 845.51,-183.15 834.98,-181.94 836.52,-188.77"/>
</a>
</g>
</g>
<!-- Node22 -->
<g id="Node000022" class="node">
<title>Node22</title>
<g id="a_Node000022"><a xlink:title=" ">
<polygon fill="#e0e0e0" stroke="#999999" points="953.5,-185 910.5,-185 910.5,-165.75 953.5,-165.75 953.5,-185"/>
<text text-anchor="middle" x="932" y="-171.5" font-family="Helvetica,sans-Serif" font-size="10.00">vector</text>
</a>
</g>
</g>
<!-- Node1&#45;&gt;Node22 -->
<g id="edge32_Node000001_Node000022" class="edge">
<title>Node1&#45;&gt;Node22</title>
<g id="a_edge32_Node000001_Node000022"><a xlink:title=" ">
<path fill="none" stroke="#63b8ff" d="M648.92,-223.95C708.48,-217.29 806.49,-204.86 899.15,-185.38"/>
<polygon fill="#63b8ff" stroke="#63b8ff" points="899.6,-188.86 908.65,-183.35 898.14,-182.02 899.6,-188.86"/>
</a>
</g>
</g>
<!-- Node2&#45;&gt;Node3 -->
<g id="edge2_Node000002_Node000003" class="edge">
<title>Node2&#45;&gt;Node3</title>
<g id="a_edge2_Node000002_Node000003"><a xlink:title=" ">
<path fill="none" stroke="#63b8ff" d="M407.38,-165.31C393.73,-157.85 376.5,-145.88 368,-129.75 360.94,-116.35 360.55,-99.1 361.73,-85.9"/>
<polygon fill="#63b8ff" stroke="#63b8ff" points="365.17,-86.61 362.98,-76.25 358.22,-85.72 365.17,-86.61"/>
</a>
</g>
</g>
<!-- Node5 -->
<g id="Node000005" class="node">
<title>Node5</title>
<g id="a_Node000005"><a xlink:href="../../d8/d32/_type_traits_8hpp.html" target="_top" xlink:title=" ">
<polygon fill="white" stroke="#666666" points="692.5,-129.75 571.5,-129.75 571.5,-110.5 692.5,-110.5 692.5,-129.75"/>
<text text-anchor="middle" x="632" y="-116.25" font-family="Helvetica,sans-Serif" font-size="10.00">mimic++/TypeTraits.hpp</text>
</a>
</g>
</g>
<!-- Node2&#45;&gt;Node5 -->
<g id="edge4_Node000002_Node000005" class="edge">
<title>Node2&#45;&gt;Node5</title>
<g id="a_edge4_Node000002_Node000005"><a xlink:title=" ">
<path fill="none" stroke="#63b8ff" d="M461.78,-165.34C496.09,-156.43 548.72,-142.76 586.37,-132.98"/>
<polygon fill="#63b8ff" stroke="#63b8ff" points="586.79,-136.48 595.59,-130.58 585.03,-129.71 586.79,-136.48"/>
</a>
</g>
</g>
<!-- Node6 -->
<g id="Node000006" class="node">
<title>Node6</title>
<g id="a_Node000006"><a xlink:title=" ">
<polygon fill="#e0e0e0" stroke="#999999" points="723.5,-74.5 686.5,-74.5 686.5,-55.25 723.5,-55.25 723.5,-74.5"/>
<text text-anchor="middle" x="705" y="-61" font-family="Helvetica,sans-Serif" font-size="10.00">tuple</text>
</a>
</g>
</g>
<!-- Node2&#45;&gt;Node6 -->
<g id="edge13_Node000002_Node000006" class="edge">
<title>Node2&#45;&gt;Node6</title>
<g id="a_edge13_Node000002_Node000006"><a xlink:title=" ">
<path fill="none" stroke="#63b8ff" d="M473.14,-167.07C551.22,-154.69 701.05,-130.82 702,-129.75 712.52,-117.96 712.27,-99.54 709.97,-85.5"/>
<polygon fill="#63b8ff" stroke="#63b8ff" points="713.47,-85.11 707.96,-76.05 706.62,-86.56 713.47,-85.11"/>
</a>
</g>
</g>
<!-- Node7 -->
<g id="Node000007" class="node">
<title>Node7</title>
<g id="a_Node000007"><a xlink:href="../../d4/d2c/_utility_8hpp.html" target="_top" xlink:title=" ">
<polygon fill="white" stroke="#666666" points="477,-129.75 377,-129.75 377,-110.5 477,-110.5 477,-129.75"/>
<text text-anchor="middle" x="427" y="-116.25" font-family="Helvetica,sans-Serif" font-size="10.00">mimic++/Utility.hpp</text>
</a>
</g>
</g>
<!-- Node2&#45;&gt;Node7 -->
<g id="edge6_Node000002_Node000007" class="edge">
<title>Node2&#45;&gt;Node7</title>
<g id="a_edge6_Node000002_Node000007"><a xlink:title=" ">
<path fill="none" stroke="#63b8ff" d="M427,-165.58C427,-159.07 427,-149.92 427,-141.62"/>
<polygon fill="#63b8ff" stroke="#63b8ff" points="430.5,-141.62 427,-131.62 423.5,-141.62 430.5,-141.62"/>
</a>
</g>
</g>
<!-- Node10 -->
<g id="Node000010" class="node">
<title>Node10</title>
<g id="a_Node000010"><a xlink:title=" ">
<polygon fill="#e0e0e0" stroke="#999999" points="570.12,-74.5 485.88,-74.5 485.88,-55.25 570.12,-55.25 570.12,-74.5"/>
<text text-anchor="middle" x="528" y="-61" font-family="Helvetica,sans-Serif" font-size="10.00">source_location</text>
</a>
</g>
</g>
<!-- Node2&#45;&gt;Node10 -->
<g id="edge12_Node000002_Node000010" class="edge">
<title>Node2&#45;&gt;Node10</title>
<g id="a_edge12_Node000002_Node000010"><a xlink:title=" ">
<path fill="none" stroke="#63b8ff" d="M449.65,-165.29C465.81,-157.82 487.05,-145.85 501,-129.75 511.99,-117.07 519.01,-99.27 523.13,-85.68"/>
<polygon fill="#63b8ff" stroke="#63b8ff" points="526.49,-86.68 525.74,-76.11 519.73,-84.84 526.49,-86.68"/>
</a>
</g>
</g>
<!-- Node11 -->
<g id="Node000011" class="node">
<title>Node11</title>
<g id="a_Node000011"><a xlink:title=" ">
<polygon fill="#e0e0e0" stroke="#999999" points="468.25,-74.5 429.75,-74.5 429.75,-55.25 468.25,-55.25 468.25,-74.5"/>
<text text-anchor="middle" x="449" y="-61" font-family="Helvetica,sans-Serif" font-size="10.00">utility</text>
</a>
</g>
</g>
<!-- Node2&#45;&gt;Node11 -->
<g id="edge14_Node000002_Node000011" class="edge">
<title>Node2&#45;&gt;Node11</title>
<g id="a_edge14_Node000002_Node000011"><a xlink:title=" ">
<path fill="none" stroke="#63b8ff" d="M447.14,-165.27C460.86,-157.85 477.93,-145.96 486,-129.75 494.24,-113.18 481.42,-94.99 468.67,-82.27"/>
<polygon fill="#63b8ff" stroke="#63b8ff" points="471.37,-79.99 461.64,-75.8 466.63,-85.15 471.37,-79.99"/>
</a>
</g>
</g>
<!-- Node4 -->
<g id="Node000004" class="node">
<title>Node4</title>
<g id="a_Node000004"><a xlink:title=" ">
<polygon fill="#e0e0e0" stroke="#999999" points="281,-19.25 241,-19.25 241,0 281,0 281,-19.25"/>
<text text-anchor="middle" x="261" y="-5.75" font-family="Helvetica,sans-Serif" font-size="10.00">string</text>
</a>
</g>
</g>
<!-- Node3&#45;&gt;Node4 -->
<g id="edge3_Node000003_Node000004" class="edge">
<title>Node3&#45;&gt;Node4</title>
<g id="a_edge3_Node000003_Node000004"><a xlink:title=" ">
<path fill="none" stroke="#63b8ff" d="M347.36,-54.84C331.37,-46.66 307.54,-34.46 288.96,-24.94"/>
<polygon fill="#63b8ff" stroke="#63b8ff" points="290.57,-21.83 280.08,-20.39 287.38,-28.07 290.57,-21.83"/>
</a>
</g>
</g>
<!-- Node5&#45;&gt;Node6 -->
<g id="edge5_Node000005_Node000006" class="edge">
<title>Node5&#45;&gt;Node6</title>
<g id="a_edge5_Node000005_Node000006"><a xlink:title=" ">
<path fill="none" stroke="#63b8ff" d="M644.38,-110.09C655.15,-102.24 670.97,-90.7 683.75,-81.37"/>
<polygon fill="#63b8ff" stroke="#63b8ff" points="685.56,-84.39 691.58,-75.67 681.44,-78.73 685.56,-84.39"/>
</a>
</g>
</g>
<!-- Node7&#45;&gt;Node3 -->
<g id="edge7_Node000007_Node000003" class="edge">
<title>Node7&#45;&gt;Node3</title>
<g id="a_edge7_Node000007_Node000003"><a xlink:title=" ">
<path fill="none" stroke="#63b8ff" d="M416.48,-110.09C407.61,-102.47 394.69,-91.37 384.01,-82.2"/>
<polygon fill="#63b8ff" stroke="#63b8ff" points="386.38,-79.62 376.51,-75.76 381.82,-84.93 386.38,-79.62"/>
</a>
</g>
</g>
<!-- Node8 -->
<g id="Node000008" class="node">
<title>Node8</title>
<g id="a_Node000008"><a xlink:title=" ">
<polygon fill="#e0e0e0" stroke="#999999" points="636.12,-74.5 587.88,-74.5 587.88,-55.25 636.12,-55.25 636.12,-74.5"/>
<text text-anchor="middle" x="612" y="-61" font-family="Helvetica,sans-Serif" font-size="10.00">cassert</text>
</a>
</g>
</g>
<!-- Node7&#45;&gt;Node8 -->
<g id="edge8_Node000007_Node000008" class="edge">
<title>Node7&#45;&gt;Node8</title>
<g id="a_edge8_Node000007_Node000008"><a xlink:title=" ">
<path fill="none" stroke="#63b8ff" d="M458.38,-110.09C491.17,-100.65 542.5,-85.88 576.68,-76.04"/>
<polygon fill="#63b8ff" stroke="#63b8ff" points="577.47,-79.46 586.11,-73.33 575.54,-72.73 577.47,-79.46"/>
</a>
</g>
</g>
<!-- Node9 -->
<g id="Node000009" class="node">
<title>Node9</title>
<g id="a_Node000009"><a xlink:title=" ">
<polygon fill="#e0e0e0" stroke="#999999" points="299.88,-74.5 256.12,-74.5 256.12,-55.25 299.88,-55.25 299.88,-74.5"/>
<text text-anchor="middle" x="278" y="-61" font-family="Helvetica,sans-Serif" font-size="10.00">format</text>
</a>
</g>
</g>
<!-- Node7&#45;&gt;Node9 -->
<g id="edge9_Node000007_Node000009" class="edge">
<title>Node7&#45;&gt;Node9</title>
<g id="a_edge9_Node000007_Node000009"><a xlink:title=" ">
<path fill="none" stroke="#63b8ff" d="M401.72,-110.09C376.62,-101.12 338.02,-87.33 310.62,-77.53"/>
<polygon fill="#63b8ff" stroke="#63b8ff" points="312.02,-74.31 301.42,-74.25 309.66,-80.91 312.02,-74.31"/>
</a>
</g>
</g>
<!-- Node7&#45;&gt;Node10 -->
<g id="edge10_Node000007_Node000010" class="edge">
<title>Node7&#45;&gt;Node10</title>
<g id="a_edge10_Node000007_Node000010"><a xlink:title=" ">
<path fill="none" stroke="#63b8ff" d="M444.13,-110.09C459.66,-101.91 482.8,-89.71 500.84,-80.19"/>
<polygon fill="#63b8ff" stroke="#63b8ff" points="502.23,-83.42 509.44,-75.66 498.97,-77.23 502.23,-83.42"/>
</a>
</g>
</g>
<!-- Node7&#45;&gt;Node11 -->
<g id="edge11_Node000007_Node000011" class="edge">
<title>Node7&#45;&gt;Node11</title>
<g id="a_edge11_Node000007_Node000011"><a xlink:title=" ">
<path fill="none" stroke="#63b8ff" d="M430.63,-110.33C433.42,-103.59 437.37,-94.02 440.9,-85.49"/>
<polygon fill="#63b8ff" stroke="#63b8ff" points="444.13,-86.84 444.71,-76.26 437.66,-84.16 444.13,-86.84"/>
</a>
</g>
</g>
<!-- Node12&#45;&gt;Node3 -->
<g id="edge17_Node000012_Node000003" class="edge">
<title>Node12&#45;&gt;Node3</title>
<g id="a_edge17_Node000012_Node000003"><a xlink:title=" ">
<path fill="none" stroke="#63b8ff" d="M253.73,-110.09C275.1,-101.6 307.34,-88.79 331.63,-79.14"/>
<polygon fill="#63b8ff" stroke="#63b8ff" points="332.75,-82.46 340.75,-75.51 330.16,-75.95 332.75,-82.46"/>
</a>
</g>
</g>
<!-- Node12&#45;&gt;Node4 -->
<g id="edge22_Node000012_Node000004" class="edge">
<title>Node12&#45;&gt;Node4</title>
<g id="a_edge22_Node000012_Node000004"><a xlink:title=" ">
<path fill="none" stroke="#63b8ff" d="M213.57,-110.13C193.27,-98.38 164.06,-76.78 177,-55.25 188.4,-36.29 210.87,-24.95 229.7,-18.45"/>
<polygon fill="#63b8ff" stroke="#63b8ff" points="230.58,-21.84 239.1,-15.54 228.51,-15.16 230.58,-21.84"/>
</a>
</g>
</g>
<!-- Node12&#45;&gt;Node9 -->
<g id="edge18_Node000012_Node000009" class="edge">
<title>Node12&#45;&gt;Node9</title>
<g id="a_edge18_Node000012_Node000009"><a xlink:title=" ">
<path fill="none" stroke="#63b8ff" d="M238.76,-110.33C245.19,-103.05 254.51,-92.48 262.46,-83.48"/>
<polygon fill="#63b8ff" stroke="#63b8ff" points="265.08,-85.81 269.07,-75.99 259.83,-81.18 265.08,-85.81"/>
</a>
</g>
</g>
<!-- Node12&#45;&gt;Node10 -->
<g id="edge20_Node000012_Node000010" class="edge">
<title>Node12&#45;&gt;Node10</title>
<g id="a_edge20_Node000012_Node000010"><a xlink:title=" ">
<path fill="none" stroke="#63b8ff" d="M281.72,-110.03C335.39,-100.41 419.74,-85.29 474.46,-75.47"/>
<polygon fill="#63b8ff" stroke="#63b8ff" points="474.95,-78.94 484.17,-73.73 473.71,-72.05 474.95,-78.94"/>
</a>
</g>
</g>
<!-- Node12&#45;&gt;Node11 -->
<g id="edge24_Node000012_Node000011" class="edge">
<title>Node12&#45;&gt;Node11</title>
<g id="a_edge24_Node000012_Node000011"><a xlink:title=" ">
<path fill="none" stroke="#63b8ff" d="M273.47,-110.02C309.7,-102.06 363.4,-89.81 418.44,-75.06"/>
<polygon fill="#63b8ff" stroke="#63b8ff" points="419.27,-78.46 428.01,-72.47 417.44,-71.71 419.27,-78.46"/>
</a>
</g>
</g>
<!-- Node12&#45;&gt;Node13 -->
<g id="edge19_Node000012_Node000013" class="edge">
<title>Node12&#45;&gt;Node13</title>
<g id="a_edge19_Node000012_Node000013"><a xlink:title=" ">
<path fill="none" stroke="#63b8ff" d="M194.55,-110.05C161.23,-101.72 110.29,-88.89 57.37,-75.09"/>
<polygon fill="#63b8ff" stroke="#63b8ff" points="58.43,-71.75 47.87,-72.61 56.66,-78.53 58.43,-71.75"/>
</a>
</g>
</g>
<!-- Node14 -->
<g id="Node000014" class="node">
<title>Node14</title>
<g id="a_Node000014"><a xlink:title=" ">
<polygon fill="#e0e0e0" stroke="#999999" points="237.62,-74.5 186.38,-74.5 186.38,-55.25 237.62,-55.25 237.62,-74.5"/>
<text text-anchor="middle" x="212" y="-61" font-family="Helvetica,sans-Serif" font-size="10.00">sstream</text>
</a>
</g>
</g>
<!-- Node12&#45;&gt;Node14 -->
<g id="edge21_Node000012_Node000014" class="edge">
<title>Node12&#45;&gt;Node14</title>
<g id="a_edge21_Node000012_Node000014"><a xlink:title=" ">
<path fill="none" stroke="#63b8ff" d="M227.86,-110.33C225.46,-103.59 222.04,-94.02 219,-85.49"/>
<polygon fill="#63b8ff" stroke="#63b8ff" points="222.37,-84.53 215.71,-76.28 215.78,-86.88 222.37,-84.53"/>
</a>
</g>
</g>
<!-- Node15 -->
<g id="Node000015" class="node">
<title>Node15</title>
<g id="a_Node000015"><a xlink:title=" ">
<polygon fill="#e0e0e0" stroke="#999999" points="129.75,-74.5 64.25,-74.5 64.25,-55.25 129.75,-55.25 129.75,-74.5"/>
<text text-anchor="middle" x="97" y="-61" font-family="Helvetica,sans-Serif" font-size="10.00">string_view</text>
</a>
</g>
</g>
<!-- Node12&#45;&gt;Node15 -->
<g id="edge23_Node000012_Node000015" class="edge">
<title>Node12&#45;&gt;Node15</title>
<g id="a_edge23_Node000012_Node000015"><a xlink:title=" ">
<path fill="none" stroke="#63b8ff" d="M208.27,-110.09C186.9,-101.6 154.66,-88.79 130.37,-79.14"/>
<polygon fill="#63b8ff" stroke="#63b8ff" points="131.84,-75.95 121.25,-75.51 129.25,-82.46 131.84,-75.95"/>
</a>
</g>
</g>
</g>
</svg>
