<?xml version="1.0" encoding="UTF-8" standalone="no"?>
<!DOCTYPE svg PUBLIC "-//W3C//DTD SVG 1.1//EN"
 "http://www.w3.org/Graphics/SVG/1.1/DTD/svg11.dtd">
<!-- Generated by graphviz version 12.1.1 (20240910.0053)
 -->
<!-- Title: mimic++/Reporter.hpp Pages: 1 -->
<!--zoomable 304 -->

<svg id="main" version="1.1" xmlns="http://www.w3.org/2000/svg" xmlns:xlink="http://www.w3.org/1999/xlink" xml:space="preserve" onload="init(evt)">

<style type="text/css"><![CDATA[
.node, .edge {opacity: 0.7;}
.node.selected, .edge.selected {opacity: 1;}
.edge:hover path { stroke: red; }
.edge:hover polygon { stroke: red; fill: red; }
]]></style>

<defs>
  <circle id="rim" cx="0" cy="0" r="7"/>
  <circle id="rim2" cx="0" cy="0" r="3.5"/>
  <g id="zoomPlus">
    <use xlink:href="#rim" fill="#404040"><set attributeName="fill" to="#808080" begin="zoomplus.mouseover" end="zoomplus.mouseout"/></use>
    <path d="M-4,0h8M0,-4v8" fill="none" stroke="white" stroke-width="1.5" pointer-events="none"/>
  </g>
  <g id="zoomMin">
    <use xlink:href="#rim" fill="#404040"><set attributeName="fill" to="#808080" begin="zoomminus.mouseover" end="zoomminus.mouseout"/></use>
    <path d="M-4,0h8" fill="none" stroke="white" stroke-width="1.5" pointer-events="none"/>
  </g>
  <g id="arrowUp" transform="translate(30 24)">
    <use xlink:href="#rim"/>
    <path pointer-events="none" fill="none" stroke="white" stroke-width="1.5" d="M0,-3.0v7 M-2.5,-0.5L0,-3.0L2.5,-0.5"/>
  </g>
  <g id="arrowRight" transform="rotate(90) translate(36 -43)">
    <use xlink:href="#rim"/>
    <path pointer-events="none" fill="none" stroke="white" stroke-width="1.5" d="M0,-3.0v7 M-2.5,-0.5L0,-3.0L2.5,-0.5"/>
  </g>
  <g id="arrowDown" transform="rotate(180) translate(-30 -48)">
    <use xlink:href="#rim"/>
    <path pointer-events="none" fill="none" stroke="white" stroke-width="1.5" d="M0,-3.0v7 M-2.5,-0.5L0,-3.0L2.5,-0.5"/>
  </g>
  <g id="arrowLeft" transform="rotate(270) translate(-36 17)">
    <use xlink:href="#rim"/>
    <path pointer-events="none" fill="none" stroke="white" stroke-width="1.5" d="M0,-3.0v7 M-2.5,-0.5L0,-3.0L2.5,-0.5"/>
  </g>
  <g id="resetDef">
    <use xlink:href="#rim2" fill="#404040"><set attributeName="fill" to="#808080" begin="reset.mouseover" end="reset.mouseout"/></use>
  </g>
</defs>
<script type="application/ecmascript">
var viewWidth = 913;
var viewHeight = 304;
var sectionId = 'dynsection-0';
</script>
<script type="application/ecmascript" xlink:href="../../svg.min.js"/>
<svg id="graph" class="graph">
<g id="viewport">
<title>mimic++/Reporter.hpp</title>
<!-- Node1 -->
<g id="Node000001" class="node">
<title>Node1</title>
<g id="a_Node000001"><a xlink:title=" ">
<polygon fill="#999999" stroke="#666666" points="630.5,-295.5 518.5,-295.5 518.5,-276.25 630.5,-276.25 630.5,-295.5"/>
<text text-anchor="middle" x="574.5" y="-282" font-family="Helvetica,sans-Serif" font-size="10.00">mimic++/Reporter.hpp</text>
</a>
</g>
</g>
<!-- Node2 -->
<g id="Node000002" class="node">
<title>Node2</title>
<g id="a_Node000002"><a xlink:href="../../dc/d44/_call_8hpp.html" target="_top" xlink:title=" ">
<polygon fill="white" stroke="#666666" points="272.38,-185 180.62,-185 180.62,-165.75 272.38,-165.75 272.38,-185"/>
<text text-anchor="middle" x="226.5" y="-171.5" font-family="Helvetica,sans-Serif" font-size="10.00">mimic++/Call.hpp</text>
</a>
</g>
</g>
<!-- Node1&#45;&gt;Node2 -->
<g id="edge1_Node000001_Node000002" class="edge">
<title>Node1&#45;&gt;Node2</title>
<g id="a_edge1_Node000001_Node000002"><a xlink:title=" ">
<path fill="none" stroke="#63b8ff" d="M518.01,-280.5C445.86,-274.17 325.66,-260.9 286.5,-240.25 266.16,-229.53 248.93,-209.2 238.22,-194.35"/>
<polygon fill="#63b8ff" stroke="#63b8ff" points="241.29,-192.64 232.75,-186.38 235.52,-196.6 241.29,-192.64"/>
</a>
</g>
</g>
<!-- Node3 -->
<g id="Node000003" class="node">
<title>Node3</title>
<g id="a_Node000003"><a xlink:href="../../df/dde/_fwd_8hpp.html" target="_top" xlink:title=" ">
<polygon fill="white" stroke="#666666" points="265.5,-74.5 171.5,-74.5 171.5,-55.25 265.5,-55.25 265.5,-74.5"/>
<text text-anchor="middle" x="218.5" y="-61" font-family="Helvetica,sans-Serif" font-size="10.00">mimic++/Fwd.hpp</text>
</a>
</g>
</g>
<!-- Node1&#45;&gt;Node3 -->
<g id="edge15_Node000001_Node000003" class="edge">
<title>Node1&#45;&gt;Node3</title>
<g id="a_edge15_Node000001_Node000003"><a xlink:title=" ">
<path fill="none" stroke="#63b8ff" d="M518.13,-283.07C453.63,-279.62 345.57,-269.56 257.5,-240.25 160.77,-208.06 108.39,-217.5 56.5,-129.75 52.14,-122.39 51.32,-117.31 56.5,-110.5 69.23,-93.8 118.87,-81.77 159.89,-74.44"/>
<polygon fill="#63b8ff" stroke="#63b8ff" points="160.43,-77.89 169.7,-72.75 159.25,-71 160.43,-77.89"/>
</a>
</g>
</g>
<!-- Node8 -->
<g id="Node000008" class="node">
<title>Node8</title>
<g id="a_Node000008"><a xlink:title=" ">
<polygon fill="#e0e0e0" stroke="#999999" points="136.62,-74.5 88.38,-74.5 88.38,-55.25 136.62,-55.25 136.62,-74.5"/>
<text text-anchor="middle" x="112.5" y="-61" font-family="Helvetica,sans-Serif" font-size="10.00">cassert</text>
</a>
</g>
</g>
<!-- Node1&#45;&gt;Node8 -->
<g id="edge38_Node000001_Node000008" class="edge">
<title>Node1&#45;&gt;Node8</title>
<g id="a_edge38_Node000001_Node000008"><a xlink:title=" ">
<path fill="none" stroke="#63b8ff" d="M518.14,-284.56C441.67,-282.76 301.5,-274.51 187.5,-240.25 111.92,-217.53 67.93,-206.24 48.5,-129.75 46.39,-121.46 44.54,-118.08 48.5,-110.5 55.3,-97.46 67.85,-87.45 80.05,-80.25"/>
<polygon fill="#63b8ff" stroke="#63b8ff" points="81.59,-83.4 88.74,-75.58 78.28,-77.23 81.59,-83.4"/>
</a>
</g>
</g>
<!-- Node12 -->
<g id="Node000012" class="node">
<title>Node12</title>
<g id="a_Node000012"><a xlink:href="../../da/dab/_printer_8hpp.html" target="_top" xlink:title=" ">
<polygon fill="white" stroke="#666666" points="578.38,-129.75 474.62,-129.75 474.62,-110.5 578.38,-110.5 578.38,-129.75"/>
<text text-anchor="middle" x="526.5" y="-116.25" font-family="Helvetica,sans-Serif" font-size="10.00">mimic++/Printer.hpp</text>
</a>
</g>
</g>
<!-- Node1&#45;&gt;Node12 -->
<g id="edge16_Node000001_Node000012" class="edge">
<title>Node1&#45;&gt;Node12</title>
<g id="a_edge16_Node000001_Node000012"><a xlink:title=" ">
<path fill="none" stroke="#63b8ff" d="M518.12,-281.44C456.59,-274.26 361.3,-252.23 319.5,-185 314.98,-177.73 314.13,-172.41 319.5,-165.75 328.63,-154.44 405.53,-140.06 462.95,-130.73"/>
<polygon fill="#63b8ff" stroke="#63b8ff" points="463.34,-134.22 472.66,-129.18 462.23,-127.31 463.34,-134.22"/>
</a>
</g>
</g>
<!-- Node16 -->
<g id="Node000016" class="node">
<title>Node16</title>
<g id="a_Node000016"><a xlink:href="../../d0/d3b/_reports_8hpp.html" target="_top" xlink:title=" ">
<polygon fill="white" stroke="#666666" points="588,-240.25 479,-240.25 479,-221 588,-221 588,-240.25"/>
<text text-anchor="middle" x="533.5" y="-226.75" font-family="Helvetica,sans-Serif" font-size="10.00">mimic++/Reports.hpp</text>
</a>
</g>
</g>
<!-- Node1&#45;&gt;Node16 -->
<g id="edge25_Node000001_Node000016" class="edge">
<title>Node1&#45;&gt;Node16</title>
<g id="a_edge25_Node000001_Node000016"><a xlink:title=" ">
<path fill="none" stroke="#63b8ff" d="M567.73,-276.08C562.18,-268.88 554.16,-258.46 547.27,-249.51"/>
<polygon fill="#63b8ff" stroke="#63b8ff" points="550.21,-247.6 541.34,-241.81 544.67,-251.87 550.21,-247.6"/>
</a>
</g>
</g>
<!-- Node17 -->
<g id="Node000017" class="node">
<title>Node17</title>
<g id="a_Node000017"><a xlink:title=" ">
<polygon fill="#e0e0e0" stroke="#999999" points="384.38,-185 328.62,-185 328.62,-165.75 384.38,-165.75 384.38,-185"/>
<text text-anchor="middle" x="356.5" y="-171.5" font-family="Helvetica,sans-Serif" font-size="10.00">algorithm</text>
</a>
</g>
</g>
<!-- Node1&#45;&gt;Node17 -->
<g id="edge37_Node000001_Node000017" class="edge">
<title>Node1&#45;&gt;Node17</title>
<g id="a_edge37_Node000001_Node000017"><a xlink:title=" ">
<path fill="none" stroke="#63b8ff" d="M551.46,-275.81C530.18,-267.23 497.81,-253.72 470.5,-240.25 439.06,-224.75 404.04,-204.69 381.21,-191.22"/>
<polygon fill="#63b8ff" stroke="#63b8ff" points="383.04,-188.23 372.65,-186.13 379.46,-194.25 383.04,-188.23"/>
</a>
</g>
</g>
<!-- Node18 -->
<g id="Node000018" class="node">
<title>Node18</title>
<g id="a_Node000018"><a xlink:title=" ">
<polygon fill="#e0e0e0" stroke="#999999" points="712.5,-185 654.5,-185 654.5,-165.75 712.5,-165.75 712.5,-185"/>
<text text-anchor="middle" x="683.5" y="-171.5" font-family="Helvetica,sans-Serif" font-size="10.00">functional</text>
</a>
</g>
</g>
<!-- Node1&#45;&gt;Node18 -->
<g id="edge40_Node000001_Node000018" class="edge">
<title>Node1&#45;&gt;Node18</title>
<g id="a_edge40_Node000001_Node000018"><a xlink:title=" ">
<path fill="none" stroke="#63b8ff" d="M583.42,-276C601.54,-257.96 642.94,-216.75 666.42,-193.38"/>
<polygon fill="#63b8ff" stroke="#63b8ff" points="668.77,-195.98 673.38,-186.44 663.83,-191.02 668.77,-195.98"/>
</a>
</g>
</g>
<!-- Node19 -->
<g id="Node000019" class="node">
<title>Node19</title>
<g id="a_Node000019"><a xlink:title=" ">
<polygon fill="#e0e0e0" stroke="#999999" points="780.38,-185 730.62,-185 730.62,-165.75 780.38,-165.75 780.38,-185"/>
<text text-anchor="middle" x="755.5" y="-171.5" font-family="Helvetica,sans-Serif" font-size="10.00">optional</text>
</a>
</g>
</g>
<!-- Node1&#45;&gt;Node19 -->
<g id="edge42_Node000001_Node000019" class="edge">
<title>Node1&#45;&gt;Node19</title>
<g id="a_edge42_Node000001_Node000019"><a xlink:title=" ">
<path fill="none" stroke="#63b8ff" d="M588.9,-275.87C608.91,-263.4 646.29,-240.22 678.5,-221 695.53,-210.84 714.85,-199.64 729.87,-191.01"/>
<polygon fill="#63b8ff" stroke="#63b8ff" points="731.26,-194.25 738.19,-186.24 727.77,-188.18 731.26,-194.25"/>
</a>
</g>
</g>
<!-- Node20 -->
<g id="Node000020" class="node">
<title>Node20</title>
<g id="a_Node000020"><a xlink:title=" ">
<polygon fill="#e0e0e0" stroke="#999999" points="844.12,-185 798.88,-185 798.88,-165.75 844.12,-165.75 844.12,-185"/>
<text text-anchor="middle" x="821.5" y="-171.5" font-family="Helvetica,sans-Serif" font-size="10.00">ranges</text>
</a>
</g>
</g>
<!-- Node1&#45;&gt;Node20 -->
<g id="edge43_Node000001_Node000020" class="edge">
<title>Node1&#45;&gt;Node20</title>
<g id="a_edge43_Node000001_Node000020"><a xlink:title=" ">
<path fill="none" stroke="#63b8ff" d="M595.7,-275.87C616.4,-267.01 648.75,-252.99 676.5,-240.25 694.43,-232.02 698.53,-229.14 716.5,-221 740.51,-210.13 767.94,-198.5 788.73,-189.84"/>
<polygon fill="#63b8ff" stroke="#63b8ff" points="789.95,-193.12 797.85,-186.06 787.27,-186.66 789.95,-193.12"/>
</a>
</g>
</g>
<!-- Node23 -->
<g id="Node000023" class="node">
<title>Node23</title>
<g id="a_Node000023"><a xlink:title=" ">
<polygon fill="#e0e0e0" stroke="#999999" points="905,-185 862,-185 862,-165.75 905,-165.75 905,-185"/>
<text text-anchor="middle" x="883.5" y="-171.5" font-family="Helvetica,sans-Serif" font-size="10.00">vector</text>
</a>
</g>
</g>
<!-- Node1&#45;&gt;Node23 -->
<g id="edge44_Node000001_Node000023" class="edge">
<title>Node1&#45;&gt;Node23</title>
<g id="a_edge44_Node000001_Node000023"><a xlink:title=" ">
<path fill="none" stroke="#63b8ff" d="M606.56,-275.75C634.42,-267.5 675.65,-254.49 710.5,-240.25 728.39,-232.94 731.62,-228.35 749.5,-221 783.43,-207.05 823.48,-194.16 850.89,-185.86"/>
<polygon fill="#63b8ff" stroke="#63b8ff" points="851.79,-189.25 860.37,-183.03 849.78,-182.54 851.79,-189.25"/>
</a>
</g>
</g>
<!-- Node24 -->
<g id="Node000024" class="node">
<title>Node24</title>
<g id="a_Node000024"><a xlink:title=" ">
<polygon fill="#e0e0e0" stroke="#999999" points="816.12,-240.25 758.88,-240.25 758.88,-221 816.12,-221 816.12,-240.25"/>
<text text-anchor="middle" x="787.5" y="-226.75" font-family="Helvetica,sans-Serif" font-size="10.00">exception</text>
</a>
</g>
</g>
<!-- Node1&#45;&gt;Node24 -->
<g id="edge39_Node000001_Node000024" class="edge">
<title>Node1&#45;&gt;Node24</title>
<g id="a_edge39_Node000001_Node000024"><a xlink:title=" ">
<path fill="none" stroke="#63b8ff" d="M610.63,-275.84C648.55,-266.36 708.01,-251.5 747.36,-241.66"/>
<polygon fill="#63b8ff" stroke="#63b8ff" points="748.07,-245.09 756.92,-239.27 746.37,-238.3 748.07,-245.09"/>
</a>
</g>
</g>
<!-- Node25 -->
<g id="Node000025" class="node">
<title>Node25</title>
<g id="a_Node000025"><a xlink:title=" ">
<polygon fill="#e0e0e0" stroke="#999999" points="884.75,-240.25 834.25,-240.25 834.25,-221 884.75,-221 884.75,-240.25"/>
<text text-anchor="middle" x="859.5" y="-226.75" font-family="Helvetica,sans-Serif" font-size="10.00">memory</text>
</a>
</g>
</g>
<!-- Node1&#45;&gt;Node25 -->
<g id="edge41_Node000001_Node000025" class="edge">
<title>Node1&#45;&gt;Node25</title>
<g id="a_edge41_Node000001_Node000025"><a xlink:title=" ">
<path fill="none" stroke="#63b8ff" d="M630.55,-276.1C679.08,-268.24 751.38,-255.89 822.92,-240.69"/>
<polygon fill="#63b8ff" stroke="#63b8ff" points="823.4,-244.16 832.45,-238.64 821.94,-237.32 823.4,-244.16"/>
</a>
</g>
</g>
<!-- Node2&#45;&gt;Node3 -->
<g id="edge2_Node000002_Node000003" class="edge">
<title>Node2&#45;&gt;Node3</title>
<g id="a_edge2_Node000002_Node000003"><a xlink:title=" ">
<path fill="none" stroke="#63b8ff" d="M225.85,-165.5C224.57,-148.25 221.74,-109.83 219.99,-86.06"/>
<polygon fill="#63b8ff" stroke="#63b8ff" points="223.5,-86.1 219.28,-76.39 216.52,-86.62 223.5,-86.1"/>
</a>
</g>
</g>
<!-- Node5 -->
<g id="Node000005" class="node">
<title>Node5</title>
<g id="a_Node000005"><a xlink:href="../../d8/d32/_type_traits_8hpp.html" target="_top" xlink:title=" ">
<polygon fill="white" stroke="#666666" points="186,-129.75 65,-129.75 65,-110.5 186,-110.5 186,-129.75"/>
<text text-anchor="middle" x="125.5" y="-116.25" font-family="Helvetica,sans-Serif" font-size="10.00">mimic++/TypeTraits.hpp</text>
</a>
</g>
</g>
<!-- Node2&#45;&gt;Node5 -->
<g id="edge4_Node000002_Node000005" class="edge">
<title>Node2&#45;&gt;Node5</title>
<g id="a_edge4_Node000002_Node000005"><a xlink:title=" ">
<path fill="none" stroke="#63b8ff" d="M209.37,-165.34C193.84,-157.16 170.7,-144.96 152.66,-135.44"/>
<polygon fill="#63b8ff" stroke="#63b8ff" points="154.53,-132.48 144.06,-130.91 151.27,-138.67 154.53,-132.48"/>
</a>
</g>
</g>
<!-- Node6 -->
<g id="Node000006" class="node">
<title>Node6</title>
<g id="a_Node000006"><a xlink:title=" ">
<polygon fill="#e0e0e0" stroke="#999999" points="37,-74.5 0,-74.5 0,-55.25 37,-55.25 37,-74.5"/>
<text text-anchor="middle" x="18.5" y="-61" font-family="Helvetica,sans-Serif" font-size="10.00">tuple</text>
</a>
</g>
</g>
<!-- Node2&#45;&gt;Node6 -->
<g id="edge13_Node000002_Node000006" class="edge">
<title>Node2&#45;&gt;Node6</title>
<g id="a_edge13_Node000002_Node000006"><a xlink:title=" ">
<path fill="none" stroke="#63b8ff" d="M180.15,-171.71C143.41,-167.51 92.45,-156.82 56.5,-129.75 41.68,-118.59 31.52,-99.82 25.46,-85.51"/>
<polygon fill="#63b8ff" stroke="#63b8ff" points="28.74,-84.28 21.87,-76.21 22.21,-86.8 28.74,-84.28"/>
</a>
</g>
</g>
<!-- Node7 -->
<g id="Node000007" class="node">
<title>Node7</title>
<g id="a_Node000007"><a xlink:href="../../d4/d2c/_utility_8hpp.html" target="_top" xlink:title=" ">
<polygon fill="white" stroke="#666666" points="418.5,-129.75 318.5,-129.75 318.5,-110.5 418.5,-110.5 418.5,-129.75"/>
<text text-anchor="middle" x="368.5" y="-116.25" font-family="Helvetica,sans-Serif" font-size="10.00">mimic++/Utility.hpp</text>
</a>
</g>
</g>
<!-- Node2&#45;&gt;Node7 -->
<g id="edge6_Node000002_Node000007" class="edge">
<title>Node2&#45;&gt;Node7</title>
<g id="a_edge6_Node000002_Node000007"><a xlink:title=" ">
<path fill="none" stroke="#63b8ff" d="M250.59,-165.34C273.44,-156.77 308.02,-143.81 333.83,-134.13"/>
<polygon fill="#63b8ff" stroke="#63b8ff" points="334.74,-137.52 342.88,-130.73 332.28,-130.97 334.74,-137.52"/>
</a>
</g>
</g>
<!-- Node10 -->
<g id="Node000010" class="node">
<title>Node10</title>
<g id="a_Node000010"><a xlink:title=" ">
<polygon fill="#e0e0e0" stroke="#999999" points="485.62,-74.5 401.38,-74.5 401.38,-55.25 485.62,-55.25 485.62,-74.5"/>
<text text-anchor="middle" x="443.5" y="-61" font-family="Helvetica,sans-Serif" font-size="10.00">source_location</text>
</a>
</g>
</g>
<!-- Node2&#45;&gt;Node10 -->
<g id="edge12_Node000002_Node000010" class="edge">
<title>Node2&#45;&gt;Node10</title>
<g id="a_edge12_Node000002_Node000010"><a xlink:title=" ">
<path fill="none" stroke="#63b8ff" d="M272.69,-166.74C328.52,-157.12 416.42,-140.53 427.5,-129.75 439.04,-118.52 442.72,-100.3 443.7,-86.19"/>
<polygon fill="#63b8ff" stroke="#63b8ff" points="447.2,-86.31 443.95,-76.22 440.2,-86.13 447.2,-86.31"/>
</a>
</g>
</g>
<!-- Node11 -->
<g id="Node000011" class="node">
<title>Node11</title>
<g id="a_Node000011"><a xlink:title=" ">
<polygon fill="#e0e0e0" stroke="#999999" points="321.75,-74.5 283.25,-74.5 283.25,-55.25 321.75,-55.25 321.75,-74.5"/>
<text text-anchor="middle" x="302.5" y="-61" font-family="Helvetica,sans-Serif" font-size="10.00">utility</text>
</a>
</g>
</g>
<!-- Node2&#45;&gt;Node11 -->
<g id="edge14_Node000002_Node000011" class="edge">
<title>Node2&#45;&gt;Node11</title>
<g id="a_edge14_Node000002_Node000011"><a xlink:title=" ">
<path fill="none" stroke="#63b8ff" d="M232.72,-165.5C245.13,-147.77 273.21,-107.69 289.71,-84.13"/>
<polygon fill="#63b8ff" stroke="#63b8ff" points="292.46,-86.31 295.33,-76.12 286.72,-82.3 292.46,-86.31"/>
</a>
</g>
</g>
<!-- Node4 -->
<g id="Node000004" class="node">
<title>Node4</title>
<g id="a_Node000004"><a xlink:title=" ">
<polygon fill="#e0e0e0" stroke="#999999" points="462.5,-19.25 422.5,-19.25 422.5,0 462.5,0 462.5,-19.25"/>
<text text-anchor="middle" x="442.5" y="-5.75" font-family="Helvetica,sans-Serif" font-size="10.00">string</text>
</a>
</g>
</g>
<!-- Node3&#45;&gt;Node4 -->
<g id="edge3_Node000003_Node000004" class="edge">
<title>Node3&#45;&gt;Node4</title>
<g id="a_edge3_Node000003_Node000004"><a xlink:title=" ">
<path fill="none" stroke="#63b8ff" d="M256.75,-54.78C300.31,-44.43 370.66,-27.7 411.13,-18.08"/>
<polygon fill="#63b8ff" stroke="#63b8ff" points="411.79,-21.52 420.71,-15.81 410.17,-14.71 411.79,-21.52"/>
</a>
</g>
</g>
<!-- Node5&#45;&gt;Node6 -->
<g id="edge5_Node000005_Node000006" class="edge">
<title>Node5&#45;&gt;Node6</title>
<g id="a_edge5_Node000005_Node000006"><a xlink:title=" ">
<path fill="none" stroke="#63b8ff" d="M107.35,-110.09C90.82,-101.87 66.16,-89.59 47,-80.06"/>
<polygon fill="#63b8ff" stroke="#63b8ff" points="48.61,-76.95 38.1,-75.63 45.49,-83.22 48.61,-76.95"/>
</a>
</g>
</g>
<!-- Node7&#45;&gt;Node3 -->
<g id="edge7_Node000007_Node000003" class="edge">
<title>Node7&#45;&gt;Node3</title>
<g id="a_edge7_Node000007_Node000003"><a xlink:title=" ">
<path fill="none" stroke="#63b8ff" d="M343.05,-110.09C318.81,-101.49 282.07,-88.44 254.76,-78.75"/>
<polygon fill="#63b8ff" stroke="#63b8ff" points="256.09,-75.51 245.5,-75.46 253.75,-82.1 256.09,-75.51"/>
</a>
</g>
</g>
<!-- Node7&#45;&gt;Node8 -->
<g id="edge8_Node000007_Node000008" class="edge">
<title>Node7&#45;&gt;Node8</title>
<g id="a_edge8_Node000007_Node000008"><a xlink:title=" ">
<path fill="none" stroke="#63b8ff" d="M324.78,-110.03C274.99,-99.67 194.58,-82.95 148.33,-73.33"/>
<polygon fill="#63b8ff" stroke="#63b8ff" points="149.06,-69.9 138.56,-71.3 147.63,-76.76 149.06,-69.9"/>
</a>
</g>
</g>
<!-- Node9 -->
<g id="Node000009" class="node">
<title>Node9</title>
<g id="a_Node000009"><a xlink:title=" ">
<polygon fill="#e0e0e0" stroke="#999999" points="383.38,-74.5 339.62,-74.5 339.62,-55.25 383.38,-55.25 383.38,-74.5"/>
<text text-anchor="middle" x="361.5" y="-61" font-family="Helvetica,sans-Serif" font-size="10.00">format</text>
</a>
</g>
</g>
<!-- Node7&#45;&gt;Node9 -->
<g id="edge9_Node000007_Node000009" class="edge">
<title>Node7&#45;&gt;Node9</title>
<g id="a_edge9_Node000007_Node000009"><a xlink:title=" ">
<path fill="none" stroke="#63b8ff" d="M367.34,-110.33C366.48,-103.74 365.26,-94.46 364.16,-86.07"/>
<polygon fill="#63b8ff" stroke="#63b8ff" points="367.65,-85.82 362.88,-76.36 360.71,-86.73 367.65,-85.82"/>
</a>
</g>
</g>
<!-- Node7&#45;&gt;Node10 -->
<g id="edge10_Node000007_Node000010" class="edge">
<title>Node7&#45;&gt;Node10</title>
<g id="a_edge10_Node000007_Node000010"><a xlink:title=" ">
<path fill="none" stroke="#63b8ff" d="M381.22,-110.09C392.21,-102.29 408.34,-90.84 421.43,-81.54"/>
<polygon fill="#63b8ff" stroke="#63b8ff" points="423.35,-84.47 429.48,-75.83 419.3,-78.76 423.35,-84.47"/>
</a>
</g>
</g>
<!-- Node7&#45;&gt;Node11 -->
<g id="edge11_Node000007_Node000011" class="edge">
<title>Node7&#45;&gt;Node11</title>
<g id="a_edge11_Node000007_Node000011"><a xlink:title=" ">
<path fill="none" stroke="#63b8ff" d="M357.3,-110.09C347.76,-102.4 333.83,-91.15 322.39,-81.93"/>
<polygon fill="#63b8ff" stroke="#63b8ff" points="324.69,-79.28 314.71,-75.73 320.29,-84.73 324.69,-79.28"/>
</a>
</g>
</g>
<!-- Node12&#45;&gt;Node3 -->
<g id="edge17_Node000012_Node000003" class="edge">
<title>Node12&#45;&gt;Node3</title>
<g id="a_edge17_Node000012_Node000003"><a xlink:title=" ">
<path fill="none" stroke="#63b8ff" d="M474.25,-110.09C419.66,-100.65 334.19,-85.88 277.28,-76.04"/>
<polygon fill="#63b8ff" stroke="#63b8ff" points="277.88,-72.59 267.43,-74.33 276.69,-79.49 277.88,-72.59"/>
</a>
</g>
</g>
<!-- Node12&#45;&gt;Node4 -->
<g id="edge22_Node000012_Node000004" class="edge">
<title>Node12&#45;&gt;Node4</title>
<g id="a_edge22_Node000012_Node000004"><a xlink:title=" ">
<path fill="none" stroke="#63b8ff" d="M578.52,-110.62C621.05,-101.4 670.68,-84.01 647.5,-55.25 626.09,-28.67 526.17,-17.09 474.16,-12.8"/>
<polygon fill="#63b8ff" stroke="#63b8ff" points="474.69,-9.33 464.44,-12.04 474.14,-16.31 474.69,-9.33"/>
</a>
</g>
</g>
<!-- Node12&#45;&gt;Node9 -->
<g id="edge18_Node000012_Node000009" class="edge">
<title>Node12&#45;&gt;Node9</title>
<g id="a_edge18_Node000012_Node000009"><a xlink:title=" ">
<path fill="none" stroke="#63b8ff" d="M498.51,-110.09C469.81,-100.83 425.19,-86.43 394.72,-76.6"/>
<polygon fill="#63b8ff" stroke="#63b8ff" points="395.83,-73.28 385.24,-73.54 393.68,-79.94 395.83,-73.28"/>
</a>
</g>
</g>
<!-- Node12&#45;&gt;Node10 -->
<g id="edge20_Node000012_Node000010" class="edge">
<title>Node12&#45;&gt;Node10</title>
<g id="a_edge20_Node000012_Node000010"><a xlink:title=" ">
<path fill="none" stroke="#63b8ff" d="M512.42,-110.09C500.02,-102.14 481.71,-90.39 467.07,-81"/>
<polygon fill="#63b8ff" stroke="#63b8ff" points="469.23,-78.22 458.92,-75.77 465.45,-84.12 469.23,-78.22"/>
</a>
</g>
</g>
<!-- Node12&#45;&gt;Node11 -->
<g id="edge24_Node000012_Node000011" class="edge">
<title>Node12&#45;&gt;Node11</title>
<g id="a_edge24_Node000012_Node000011"><a xlink:title=" ">
<path fill="none" stroke="#63b8ff" d="M482.29,-110.05C444.82,-102.14 389.46,-89.93 332.96,-75.01"/>
<polygon fill="#63b8ff" stroke="#63b8ff" points="334.05,-71.68 323.49,-72.49 332.25,-78.45 334.05,-71.68"/>
</a>
</g>
</g>
<!-- Node13 -->
<g id="Node000013" class="node">
<title>Node13</title>
<g id="a_Node000013"><a xlink:title=" ">
<polygon fill="#e0e0e0" stroke="#999999" points="740.5,-74.5 694.5,-74.5 694.5,-55.25 740.5,-55.25 740.5,-74.5"/>
<text text-anchor="middle" x="717.5" y="-61" font-family="Helvetica,sans-Serif" font-size="10.00">iterator</text>
</a>
</g>
</g>
<!-- Node12&#45;&gt;Node13 -->
<g id="edge19_Node000012_Node000013" class="edge">
<title>Node12&#45;&gt;Node13</title>
<g id="a_edge19_Node000012_Node000013"><a xlink:title=" ">
<path fill="none" stroke="#63b8ff" d="M558.9,-110.09C593.57,-100.43 648.32,-85.16 683.57,-75.33"/>
<polygon fill="#63b8ff" stroke="#63b8ff" points="684.13,-78.81 692.82,-72.76 682.25,-72.07 684.13,-78.81"/>
</a>
</g>
</g>
<!-- Node14 -->
<g id="Node000014" class="node">
<title>Node14</title>
<g id="a_Node000014"><a xlink:title=" ">
<polygon fill="#e0e0e0" stroke="#999999" points="555.12,-74.5 503.88,-74.5 503.88,-55.25 555.12,-55.25 555.12,-74.5"/>
<text text-anchor="middle" x="529.5" y="-61" font-family="Helvetica,sans-Serif" font-size="10.00">sstream</text>
</a>
</g>
</g>
<!-- Node12&#45;&gt;Node14 -->
<g id="edge21_Node000012_Node000014" class="edge">
<title>Node12&#45;&gt;Node14</title>
<g id="a_edge21_Node000012_Node000014"><a xlink:title=" ">
<path fill="none" stroke="#63b8ff" d="M527,-110.33C527.37,-103.74 527.89,-94.46 528.36,-86.07"/>
<polygon fill="#63b8ff" stroke="#63b8ff" points="531.84,-86.55 528.91,-76.37 524.85,-86.16 531.84,-86.55"/>
</a>
</g>
</g>
<!-- Node15 -->
<g id="Node000015" class="node">
<title>Node15</title>
<g id="a_Node000015"><a xlink:title=" ">
<polygon fill="#e0e0e0" stroke="#999999" points="638.25,-74.5 572.75,-74.5 572.75,-55.25 638.25,-55.25 638.25,-74.5"/>
<text text-anchor="middle" x="605.5" y="-61" font-family="Helvetica,sans-Serif" font-size="10.00">string_view</text>
</a>
</g>
</g>
<!-- Node12&#45;&gt;Node15 -->
<g id="edge23_Node000012_Node000015" class="edge">
<title>Node12&#45;&gt;Node15</title>
<g id="a_edge23_Node000012_Node000015"><a xlink:title=" ">
<path fill="none" stroke="#63b8ff" d="M539.9,-110.09C551.59,-102.21 568.8,-90.61 582.66,-81.27"/>
<polygon fill="#63b8ff" stroke="#63b8ff" points="584.44,-84.29 590.78,-75.8 580.53,-78.49 584.44,-84.29"/>
</a>
</g>
</g>
<!-- Node16&#45;&gt;Node2 -->
<g id="edge26_Node000016_Node000002" class="edge">
<title>Node16&#45;&gt;Node2</title>
<g id="a_edge26_Node000016_Node000002"><a xlink:title=" ">
<path fill="none" stroke="#63b8ff" d="M481.07,-220.53C426.28,-211.03 340.55,-196.16 283.95,-186.34"/>
<polygon fill="#63b8ff" stroke="#63b8ff" points="284.63,-182.91 274.18,-184.65 283.43,-189.8 284.63,-182.91"/>
</a>
</g>
</g>
<!-- Node16&#45;&gt;Node3 -->
<g id="edge27_Node000016_Node000003" class="edge">
<title>Node16&#45;&gt;Node3</title>
<g id="a_edge27_Node000016_Node000003"><a xlink:title=" ">
<path fill="none" stroke="#63b8ff" d="M511.85,-220.57C491.09,-211.8 458.95,-197.94 431.5,-185 414.38,-176.92 410.65,-173.76 393.5,-165.75 356.7,-148.56 344.98,-149.52 309.5,-129.75 283.89,-115.48 256.64,-95.66 238.71,-81.9"/>
<polygon fill="#63b8ff" stroke="#63b8ff" points="241.01,-79.25 230.97,-75.88 236.71,-84.78 241.01,-79.25"/>
</a>
</g>
</g>
<!-- Node16&#45;&gt;Node12 -->
<g id="edge28_Node000016_Node000012" class="edge">
<title>Node16&#45;&gt;Node12</title>
<g id="a_edge28_Node000016_Node000012"><a xlink:title=" ">
<path fill="none" stroke="#63b8ff" d="M532.93,-220.75C531.81,-203.5 529.34,-165.08 527.8,-141.31"/>
<polygon fill="#63b8ff" stroke="#63b8ff" points="531.31,-141.39 527.18,-131.64 524.33,-141.84 531.31,-141.39"/>
</a>
</g>
</g>
<!-- Node16&#45;&gt;Node13 -->
<g id="edge31_Node000016_Node000013" class="edge">
<title>Node16&#45;&gt;Node13</title>
<g id="a_edge31_Node000016_Node000013"><a xlink:title=" ">
<path fill="none" stroke="#63b8ff" d="M537.36,-220.56C543.28,-207.38 555.6,-182.68 571.5,-165.75 606.62,-128.33 658.1,-97.21 689.62,-80.1"/>
<polygon fill="#63b8ff" stroke="#63b8ff" points="690.97,-83.35 698.15,-75.56 687.68,-77.17 690.97,-83.35"/>
</a>
</g>
</g>
<!-- Node16&#45;&gt;Node17 -->
<g id="edge29_Node000016_Node000017" class="edge">
<title>Node16&#45;&gt;Node17</title>
<g id="a_edge29_Node000016_Node000017"><a xlink:title=" ">
<path fill="none" stroke="#63b8ff" d="M503.47,-220.59C473.74,-211.65 428.07,-197.91 395.54,-188.12"/>
<polygon fill="#63b8ff" stroke="#63b8ff" points="396.66,-184.8 386.07,-185.27 394.64,-191.5 396.66,-184.8"/>
</a>
</g>
</g>
<!-- Node16&#45;&gt;Node18 -->
<g id="edge30_Node000016_Node000018" class="edge">
<title>Node16&#45;&gt;Node18</title>
<g id="a_edge30_Node000016_Node000018"><a xlink:title=" ">
<path fill="none" stroke="#63b8ff" d="M558.95,-220.59C583.19,-211.99 619.93,-198.94 647.24,-189.25"/>
<polygon fill="#63b8ff" stroke="#63b8ff" points="648.25,-192.6 656.5,-185.96 645.91,-186.01 648.25,-192.6"/>
</a>
</g>
</g>
<!-- Node16&#45;&gt;Node19 -->
<g id="edge32_Node000016_Node000019" class="edge">
<title>Node16&#45;&gt;Node19</title>
<g id="a_edge32_Node000016_Node000019"><a xlink:title=" ">
<path fill="none" stroke="#63b8ff" d="M572.43,-220.57C608.17,-212.21 662.89,-199.32 719.33,-185.5"/>
<polygon fill="#63b8ff" stroke="#63b8ff" points="719.91,-188.97 728.79,-183.18 718.24,-182.17 719.91,-188.97"/>
</a>
</g>
</g>
<!-- Node16&#45;&gt;Node20 -->
<g id="edge33_Node000016_Node000020" class="edge">
<title>Node16&#45;&gt;Node20</title>
<g id="a_edge33_Node000016_Node000020"><a xlink:title=" ">
<path fill="none" stroke="#63b8ff" d="M588.22,-221.56C637.8,-213.92 713.1,-201.5 787.52,-185.27"/>
<polygon fill="#63b8ff" stroke="#63b8ff" points="788,-188.74 797.01,-183.17 786.49,-181.91 788,-188.74"/>
</a>
</g>
</g>
<!-- Node21 -->
<g id="Node000021" class="node">
<title>Node21</title>
<g id="a_Node000021"><a xlink:title=" ">
<polygon fill="#e0e0e0" stroke="#999999" points="636.75,-185 580.25,-185 580.25,-165.75 636.75,-165.75 636.75,-185"/>
<text text-anchor="middle" x="608.5" y="-171.5" font-family="Helvetica,sans-Serif" font-size="10.00">typeindex</text>
</a>
</g>
</g>
<!-- Node16&#45;&gt;Node21 -->
<g id="edge34_Node000016_Node000021" class="edge">
<title>Node16&#45;&gt;Node21</title>
<g id="a_edge34_Node000016_Node000021"><a xlink:title=" ">
<path fill="none" stroke="#63b8ff" d="M546.22,-220.59C557.21,-212.79 573.34,-201.34 586.43,-192.04"/>
<polygon fill="#63b8ff" stroke="#63b8ff" points="588.35,-194.97 594.48,-186.33 584.3,-189.26 588.35,-194.97"/>
</a>
</g>
</g>
<!-- Node22 -->
<g id="Node000022" class="node">
<title>Node22</title>
<g id="a_Node000022"><a xlink:title=" ">
<polygon fill="#e0e0e0" stroke="#999999" points="486.12,-185 440.88,-185 440.88,-165.75 486.12,-165.75 486.12,-185"/>
<text text-anchor="middle" x="463.5" y="-171.5" font-family="Helvetica,sans-Serif" font-size="10.00">variant</text>
</a>
</g>
</g>
<!-- Node16&#45;&gt;Node22 -->
<g id="edge35_Node000016_Node000022" class="edge">
<title>Node16&#45;&gt;Node22</title>
<g id="a_edge35_Node000016_Node000022"><a xlink:title=" ">
<path fill="none" stroke="#63b8ff" d="M521.63,-220.59C511.41,-212.82 496.43,-201.42 484.24,-192.15"/>
<polygon fill="#63b8ff" stroke="#63b8ff" points="486.48,-189.46 476.4,-186.19 482.24,-195.03 486.48,-189.46"/>
</a>
</g>
</g>
<!-- Node16&#45;&gt;Node23 -->
<g id="edge36_Node000016_Node000023" class="edge">
<title>Node16&#45;&gt;Node23</title>
<g id="a_edge36_Node000016_Node000023"><a xlink:title=" ">
<path fill="none" stroke="#63b8ff" d="M588.26,-224.37C649.94,-217.93 753.29,-205.54 850.43,-185.41"/>
<polygon fill="#63b8ff" stroke="#63b8ff" points="851.09,-188.85 860.15,-183.36 849.65,-182 851.09,-188.85"/>
</a>
</g>
</g>
</g>
</svg>

<g id="navigator" transform="translate(0 0)" fill="#404254">
  <rect fill="#f2f5e9" fill-opacity="0.5" stroke="#606060" stroke-width=".5" x="0" y="0" width="60" height="60"/>
  <use id="zoomplus" xlink:href="#zoomPlus" x="17" y="9" onmousedown="handleZoom(evt,'in')"/>
  <use id="zoomminus" xlink:href="#zoomMin" x="42" y="9" onmousedown="handleZoom(evt,'out')"/>
  <use id="reset" xlink:href="#resetDef" x="30" y="36" onmousedown="handleReset()"/>
   <use id="arrowup" xlink:href="#arrowUp" x="0" y="0" onmousedown="handlePan(0,-1)"/>
  <use id="arrowright" xlink:href="#arrowRight" x="0" y="0" onmousedown="handlePan(1,0)"/>
  <use id="arrowdown" xlink:href="#arrowDown" x="0" y="0" onmousedown="handlePan(0,1)"/>
  <use id="arrowleft" xlink:href="#arrowLeft" x="0" y="0" onmousedown="handlePan(-1,0)"/>
</g>
<svg viewBox="0 0 15 15" width="100%" height="30px" preserveAspectRatio="xMaxYMin meet">
 <g id="arrow_out" transform="scale(0.3 0.3)">
  <a xlink:href="_reporter_8hpp__incl_org.svg" target="_base">
   <rect id="button" ry="5" rx="5" y="6" x="6" height="38" width="38"
        fill="#f2f5e9" fill-opacity="0.5" stroke="#606060" stroke-width="1.0"/>
   <path id="arrow"
     d="M 11.500037,31.436501 C 11.940474,20.09759 22.043105,11.32322 32.158766,21.979434 L 37.068811,17.246167 C 37.068811,17.246167 37.088388,32 37.088388,32 L 22.160133,31.978069 C 22.160133,31.978069 26.997745,27.140456 26.997745,27.140456 C 18.528582,18.264221 13.291696,25.230495 11.500037,31.436501 z"
     style="fill:#404040;"/>
  </a>
 </g>
</svg>

<style type='text/css'>
<![CDATA[
[data-mouse-over-selected='false'] { opacity: 0.7; }
[data-mouse-over-selected='true']  { opacity: 1.0; }
]]>
</style>
<script type="application/ecmascript"><![CDATA[
document.addEventListener('DOMContentLoaded', (event) => {
  highlightEdges();
  highlightAdjacentNodes();
});
]]></script>
</svg>
