<?xml version="1.0" encoding="UTF-8" standalone="no"?>
<!DOCTYPE svg PUBLIC "-//W3C//DTD SVG 1.1//EN"
 "http://www.w3.org/Graphics/SVG/1.1/DTD/svg11.dtd">
<!-- Generated by graphviz version 12.1.1 (20240910.0053)
 -->
<!-- Title: mimic++/Reporter.hpp Pages: 1 -->
<!--zoomable 304 -->

<svg id="main" version="1.1" xmlns="http://www.w3.org/2000/svg" xmlns:xlink="http://www.w3.org/1999/xlink" xml:space="preserve" onload="init(evt)">

<style type="text/css"><![CDATA[
.node, .edge {opacity: 0.7;}
.node.selected, .edge.selected {opacity: 1;}
.edge:hover path { stroke: red; }
.edge:hover polygon { stroke: red; fill: red; }
]]></style>

<defs>
  <circle id="rim" cx="0" cy="0" r="7"/>
  <circle id="rim2" cx="0" cy="0" r="3.5"/>
  <g id="zoomPlus">
    <use xlink:href="#rim" fill="#404040"><set attributeName="fill" to="#808080" begin="zoomplus.mouseover" end="zoomplus.mouseout"/></use>
    <path d="M-4,0h8M0,-4v8" fill="none" stroke="white" stroke-width="1.5" pointer-events="none"/>
  </g>
  <g id="zoomMin">
    <use xlink:href="#rim" fill="#404040"><set attributeName="fill" to="#808080" begin="zoomminus.mouseover" end="zoomminus.mouseout"/></use>
    <path d="M-4,0h8" fill="none" stroke="white" stroke-width="1.5" pointer-events="none"/>
  </g>
  <g id="arrowUp" transform="translate(30 24)">
    <use xlink:href="#rim"/>
    <path pointer-events="none" fill="none" stroke="white" stroke-width="1.5" d="M0,-3.0v7 M-2.5,-0.5L0,-3.0L2.5,-0.5"/>
  </g>
  <g id="arrowRight" transform="rotate(90) translate(36 -43)">
    <use xlink:href="#rim"/>
    <path pointer-events="none" fill="none" stroke="white" stroke-width="1.5" d="M0,-3.0v7 M-2.5,-0.5L0,-3.0L2.5,-0.5"/>
  </g>
  <g id="arrowDown" transform="rotate(180) translate(-30 -48)">
    <use xlink:href="#rim"/>
    <path pointer-events="none" fill="none" stroke="white" stroke-width="1.5" d="M0,-3.0v7 M-2.5,-0.5L0,-3.0L2.5,-0.5"/>
  </g>
  <g id="arrowLeft" transform="rotate(270) translate(-36 17)">
    <use xlink:href="#rim"/>
    <path pointer-events="none" fill="none" stroke="white" stroke-width="1.5" d="M0,-3.0v7 M-2.5,-0.5L0,-3.0L2.5,-0.5"/>
  </g>
  <g id="resetDef">
    <use xlink:href="#rim2" fill="#404040"><set attributeName="fill" to="#808080" begin="reset.mouseover" end="reset.mouseout"/></use>
  </g>
</defs>
<script type="application/ecmascript">
var viewWidth = 1336;
var viewHeight = 304;
var sectionId = 'dynsection-0';
</script>
<script type="application/ecmascript" xlink:href="../../svg.min.js"/>
<svg id="graph" class="graph">
<g id="viewport">
<title>mimic++/Reporter.hpp</title>
<!-- Node1 -->
<g id="Node000001" class="node">
<title>Node1</title>
<g id="a_Node000001"><a xlink:title=" ">
<polygon fill="#999999" stroke="#666666" points="1038.37,-295.5 926.37,-295.5 926.37,-276.25 1038.37,-276.25 1038.37,-295.5"/>
<text text-anchor="middle" x="982.37" y="-282" font-family="Helvetica,sans-Serif" font-size="10.00">mimic++/Reporter.hpp</text>
</a>
</g>
</g>
<!-- Node2 -->
<g id="Node000002" class="node">
<title>Node2</title>
<g id="a_Node000002"><a xlink:href="../../dc/d44/_call_8hpp.html" target="_top" xlink:title=" ">
<polygon fill="white" stroke="#666666" points="362.25,-185 270.5,-185 270.5,-165.75 362.25,-165.75 362.25,-185"/>
<text text-anchor="middle" x="316.37" y="-171.5" font-family="Helvetica,sans-Serif" font-size="10.00">mimic++/Call.hpp</text>
</a>
</g>
</g>
<!-- Node1&#45;&gt;Node2 -->
<g id="edge1_Node000001_Node000002" class="edge">
<title>Node1&#45;&gt;Node2</title>
<g id="a_edge1_Node000001_Node000002"><a xlink:title=" ">
<path fill="none" stroke="#63b8ff" d="M925.88,-282.65C840.29,-278.53 672.92,-267.47 533.37,-240.25 468.27,-227.55 394.61,-203.8 352.02,-189.11"/>
<polygon fill="#63b8ff" stroke="#63b8ff" points="353.4,-185.89 342.81,-185.91 351.1,-192.5 353.4,-185.89"/>
</a>
</g>
</g>
<!-- Node3 -->
<g id="Node000003" class="node">
<title>Node3</title>
<g id="a_Node000003"><a xlink:href="../../df/dde/_fwd_8hpp.html" target="_top" xlink:title=" ">
<polygon fill="white" stroke="#666666" points="611.37,-74.5 517.37,-74.5 517.37,-55.25 611.37,-55.25 611.37,-74.5"/>
<text text-anchor="middle" x="564.37" y="-61" font-family="Helvetica,sans-Serif" font-size="10.00">mimic++/Fwd.hpp</text>
</a>
</g>
</g>
<!-- Node1&#45;&gt;Node3 -->
<g id="edge15_Node000001_Node000003" class="edge">
<title>Node1&#45;&gt;Node3</title>
<g id="a_edge15_Node000001_Node000003"><a xlink:title=" ">
<path fill="none" stroke="#63b8ff" d="M925.95,-278.93C879.16,-272.8 811.46,-261.1 755.37,-240.25 664.17,-206.34 615.62,-213.67 566.37,-129.75 558.71,-116.7 558.65,-99.42 560.26,-86.12"/>
<polygon fill="#63b8ff" stroke="#63b8ff" points="563.69,-86.8 561.88,-76.36 556.79,-85.65 563.69,-86.8"/>
</a>
</g>
</g>
<!-- Node8 -->
<g id="Node000008" class="node">
<title>Node8</title>
<g id="a_Node000008"><a xlink:title=" ">
<polygon fill="#e0e0e0" stroke="#999999" points="66.5,-74.5 18.25,-74.5 18.25,-55.25 66.5,-55.25 66.5,-74.5"/>
<text text-anchor="middle" x="42.37" y="-61" font-family="Helvetica,sans-Serif" font-size="10.00">cassert</text>
</a>
</g>
</g>
<!-- Node1&#45;&gt;Node8 -->
<g id="edge39_Node000001_Node000008" class="edge">
<title>Node1&#45;&gt;Node8</title>
<g id="a_edge39_Node000001_Node000008"><a xlink:title=" ">
<path fill="none" stroke="#63b8ff" d="M926.1,-283.1C828.62,-279.36 622.3,-268.57 450.37,-240.25 248.87,-207.05 130.22,-290.58 4.37,-129.75 -7.42,-114.69 7.19,-95.65 21.57,-82.29"/>
<polygon fill="#63b8ff" stroke="#63b8ff" points="23.83,-84.97 29.12,-75.79 19.26,-79.67 23.83,-84.97"/>
</a>
</g>
</g>
<!-- Node12 -->
<g id="Node000012" class="node">
<title>Node12</title>
<g id="a_Node000012"><a xlink:href="../../da/dab/_printer_8hpp.html" target="_top" xlink:title=" ">
<polygon fill="white" stroke="#666666" points="771.25,-185 667.5,-185 667.5,-165.75 771.25,-165.75 771.25,-185"/>
<text text-anchor="middle" x="719.37" y="-171.5" font-family="Helvetica,sans-Serif" font-size="10.00">mimic++/Printer.hpp</text>
</a>
</g>
</g>
<!-- Node1&#45;&gt;Node12 -->
<g id="edge16_Node000001_Node000012" class="edge">
<title>Node1&#45;&gt;Node12</title>
<g id="a_edge16_Node000001_Node000012"><a xlink:title=" ">
<path fill="none" stroke="#63b8ff" d="M926.02,-280.3C884.99,-275.08 829.17,-263.94 785.37,-240.25 764.2,-228.8 745.05,-208.65 732.9,-194.03"/>
<polygon fill="#63b8ff" stroke="#63b8ff" points="735.9,-192.18 726.92,-186.56 730.43,-196.55 735.9,-192.18"/>
</a>
</g>
</g>
<!-- Node13 -->
<g id="Node000013" class="node">
<title>Node13</title>
<g id="a_Node000013"><a xlink:title=" ">
<polygon fill="#e0e0e0" stroke="#999999" points="863.37,-129.75 805.37,-129.75 805.37,-110.5 863.37,-110.5 863.37,-129.75"/>
<text text-anchor="middle" x="834.37" y="-116.25" font-family="Helvetica,sans-Serif" font-size="10.00">functional</text>
</a>
</g>
</g>
<!-- Node1&#45;&gt;Node13 -->
<g id="edge41_Node000001_Node000013" class="edge">
<title>Node1&#45;&gt;Node13</title>
<g id="a_edge41_Node000001_Node000013"><a xlink:title=" ">
<path fill="none" stroke="#63b8ff" d="M941.83,-275.77C920.48,-269.11 895.28,-258.06 878.37,-240.25 852,-212.49 841.16,-167.57 836.92,-141.55"/>
<polygon fill="#63b8ff" stroke="#63b8ff" points="840.38,-141.06 835.5,-131.65 833.45,-142.05 840.38,-141.06"/>
</a>
</g>
</g>
<!-- Node17 -->
<g id="Node000017" class="node">
<title>Node17</title>
<g id="a_Node000017"><a xlink:href="../../d0/d3b/_reports_8hpp.html" target="_top" xlink:title=" ">
<polygon fill="white" stroke="#666666" points="995.87,-240.25 886.87,-240.25 886.87,-221 995.87,-221 995.87,-240.25"/>
<text text-anchor="middle" x="941.37" y="-226.75" font-family="Helvetica,sans-Serif" font-size="10.00">mimic++/Reports.hpp</text>
</a>
</g>
</g>
<!-- Node1&#45;&gt;Node17 -->
<g id="edge26_Node000001_Node000017" class="edge">
<title>Node1&#45;&gt;Node17</title>
<g id="a_edge26_Node000001_Node000017"><a xlink:title=" ">
<path fill="none" stroke="#63b8ff" d="M975.6,-276.08C970.06,-268.88 962.03,-258.46 955.14,-249.51"/>
<polygon fill="#63b8ff" stroke="#63b8ff" points="958.09,-247.6 949.21,-241.81 952.54,-251.87 958.09,-247.6"/>
</a>
</g>
</g>
<!-- Node18 -->
<g id="Node000018" class="node">
<title>Node18</title>
<g id="a_Node000018"><a xlink:title=" ">
<polygon fill="#e0e0e0" stroke="#999999" points="1135.25,-185 1079.5,-185 1079.5,-165.75 1135.25,-165.75 1135.25,-185"/>
<text text-anchor="middle" x="1107.37" y="-171.5" font-family="Helvetica,sans-Serif" font-size="10.00">algorithm</text>
</a>
</g>
</g>
<!-- Node1&#45;&gt;Node18 -->
<g id="edge38_Node000001_Node000018" class="edge">
<title>Node1&#45;&gt;Node18</title>
<g id="a_edge38_Node000001_Node000018"><a xlink:title=" ">
<path fill="none" stroke="#63b8ff" d="M991.02,-275.84C1003.33,-263.13 1026.81,-239.46 1048.37,-221 1060.29,-210.79 1074.28,-200.16 1085.64,-191.84"/>
<polygon fill="#63b8ff" stroke="#63b8ff" points="1087.55,-194.77 1093.6,-186.07 1083.45,-189.1 1087.55,-194.77"/>
</a>
</g>
</g>
<!-- Node19 -->
<g id="Node000019" class="node">
<title>Node19</title>
<g id="a_Node000019"><a xlink:title=" ">
<polygon fill="#e0e0e0" stroke="#999999" points="1203.25,-185 1153.5,-185 1153.5,-165.75 1203.25,-165.75 1203.25,-185"/>
<text text-anchor="middle" x="1178.37" y="-171.5" font-family="Helvetica,sans-Serif" font-size="10.00">optional</text>
</a>
</g>
</g>
<!-- Node1&#45;&gt;Node19 -->
<g id="edge43_Node000001_Node000019" class="edge">
<title>Node1&#45;&gt;Node19</title>
<g id="a_edge43_Node000001_Node000019"><a xlink:title=" ">
<path fill="none" stroke="#63b8ff" d="M995.91,-275.96C1015.51,-263.19 1053.11,-239.22 1086.37,-221 1106.58,-209.93 1129.95,-198.61 1148.07,-190.15"/>
<polygon fill="#63b8ff" stroke="#63b8ff" points="1149.36,-193.41 1156.97,-186.03 1146.42,-187.05 1149.36,-193.41"/>
</a>
</g>
</g>
<!-- Node20 -->
<g id="Node000020" class="node">
<title>Node20</title>
<g id="a_Node000020"><a xlink:title=" ">
<polygon fill="#e0e0e0" stroke="#999999" points="1267,-185 1221.75,-185 1221.75,-165.75 1267,-165.75 1267,-185"/>
<text text-anchor="middle" x="1244.37" y="-171.5" font-family="Helvetica,sans-Serif" font-size="10.00">ranges</text>
</a>
</g>
</g>
<!-- Node1&#45;&gt;Node20 -->
<g id="edge44_Node000001_Node000020" class="edge">
<title>Node1&#45;&gt;Node20</title>
<g id="a_edge44_Node000001_Node000020"><a xlink:title=" ">
<path fill="none" stroke="#63b8ff" d="M1003.57,-275.87C1024.27,-267.01 1056.62,-252.99 1084.37,-240.25 1102.3,-232.02 1106.22,-228.72 1124.37,-221 1153.15,-208.75 1186.55,-196.49 1210.79,-187.92"/>
<polygon fill="#63b8ff" stroke="#63b8ff" points="1211.86,-191.26 1220.14,-184.65 1209.54,-184.65 1211.86,-191.26"/>
</a>
</g>
</g>
<!-- Node23 -->
<g id="Node000023" class="node">
<title>Node23</title>
<g id="a_Node000023"><a xlink:title=" ">
<polygon fill="#e0e0e0" stroke="#999999" points="1327.87,-185 1284.87,-185 1284.87,-165.75 1327.87,-165.75 1327.87,-185"/>
<text text-anchor="middle" x="1306.37" y="-171.5" font-family="Helvetica,sans-Serif" font-size="10.00">vector</text>
</a>
</g>
</g>
<!-- Node1&#45;&gt;Node23 -->
<g id="edge45_Node000001_Node000023" class="edge">
<title>Node1&#45;&gt;Node23</title>
<g id="a_edge45_Node000001_Node000023"><a xlink:title=" ">
<path fill="none" stroke="#63b8ff" d="M1014.43,-275.75C1042.29,-267.5 1083.52,-254.49 1118.37,-240.25 1136.27,-232.94 1139.38,-228.08 1157.37,-221 1168.29,-216.71 1233.03,-197.68 1273.5,-185.9"/>
<polygon fill="#63b8ff" stroke="#63b8ff" points="1274.37,-189.29 1283,-183.14 1272.42,-182.57 1274.37,-189.29"/>
</a>
</g>
</g>
<!-- Node24 -->
<g id="Node000024" class="node">
<title>Node24</title>
<g id="a_Node000024"><a xlink:title=" ">
<polygon fill="#e0e0e0" stroke="#999999" points="1224,-240.25 1166.75,-240.25 1166.75,-221 1224,-221 1224,-240.25"/>
<text text-anchor="middle" x="1195.37" y="-226.75" font-family="Helvetica,sans-Serif" font-size="10.00">exception</text>
</a>
</g>
</g>
<!-- Node1&#45;&gt;Node24 -->
<g id="edge40_Node000001_Node000024" class="edge">
<title>Node1&#45;&gt;Node24</title>
<g id="a_edge40_Node000001_Node000024"><a xlink:title=" ">
<path fill="none" stroke="#63b8ff" d="M1018.5,-275.84C1056.42,-266.36 1115.88,-251.5 1155.24,-241.66"/>
<polygon fill="#63b8ff" stroke="#63b8ff" points="1155.94,-245.09 1164.79,-239.27 1154.24,-238.3 1155.94,-245.09"/>
</a>
</g>
</g>
<!-- Node25 -->
<g id="Node000025" class="node">
<title>Node25</title>
<g id="a_Node000025"><a xlink:title=" ">
<polygon fill="#e0e0e0" stroke="#999999" points="1292.62,-240.25 1242.12,-240.25 1242.12,-221 1292.62,-221 1292.62,-240.25"/>
<text text-anchor="middle" x="1267.37" y="-226.75" font-family="Helvetica,sans-Serif" font-size="10.00">memory</text>
</a>
</g>
</g>
<!-- Node1&#45;&gt;Node25 -->
<g id="edge42_Node000001_Node000025" class="edge">
<title>Node1&#45;&gt;Node25</title>
<g id="a_edge42_Node000001_Node000025"><a xlink:title=" ">
<path fill="none" stroke="#63b8ff" d="M1038.43,-276.1C1086.95,-268.24 1159.25,-255.89 1230.79,-240.69"/>
<polygon fill="#63b8ff" stroke="#63b8ff" points="1231.28,-244.16 1240.32,-238.64 1229.81,-237.32 1231.28,-244.16"/>
</a>
</g>
</g>
<!-- Node2&#45;&gt;Node3 -->
<g id="edge2_Node000002_Node000003" class="edge">
<title>Node2&#45;&gt;Node3</title>
<g id="a_edge2_Node000002_Node000003"><a xlink:title=" ">
<path fill="none" stroke="#63b8ff" d="M337.09,-165.31C380.58,-146.28 481.61,-102.08 533.06,-79.58"/>
<polygon fill="#63b8ff" stroke="#63b8ff" points="534.39,-82.81 542.15,-75.6 531.59,-76.4 534.39,-82.81"/>
</a>
</g>
</g>
<!-- Node5 -->
<g id="Node000005" class="node">
<title>Node5</title>
<g id="a_Node000005"><a xlink:href="../../d8/d32/_type_traits_8hpp.html" target="_top" xlink:title=" ">
<polygon fill="white" stroke="#666666" points="134.87,-129.75 13.87,-129.75 13.87,-110.5 134.87,-110.5 134.87,-129.75"/>
<text text-anchor="middle" x="74.37" y="-116.25" font-family="Helvetica,sans-Serif" font-size="10.00">mimic++/TypeTraits.hpp</text>
</a>
</g>
</g>
<!-- Node2&#45;&gt;Node5 -->
<g id="edge4_Node000002_Node000005" class="edge">
<title>Node2&#45;&gt;Node5</title>
<g id="a_edge4_Node000002_Node000005"><a xlink:title=" ">
<path fill="none" stroke="#63b8ff" d="M275.05,-165.28C234.06,-156.26 171.13,-142.42 126.69,-132.64"/>
<polygon fill="#63b8ff" stroke="#63b8ff" points="127.52,-129.24 117.01,-130.51 126.02,-136.07 127.52,-129.24"/>
</a>
</g>
</g>
<!-- Node6 -->
<g id="Node000006" class="node">
<title>Node6</title>
<g id="a_Node000006"><a xlink:title=" ">
<polygon fill="#e0e0e0" stroke="#999999" points="135.87,-74.5 98.87,-74.5 98.87,-55.25 135.87,-55.25 135.87,-74.5"/>
<text text-anchor="middle" x="117.37" y="-61" font-family="Helvetica,sans-Serif" font-size="10.00">tuple</text>
</a>
</g>
</g>
<!-- Node2&#45;&gt;Node6 -->
<g id="edge13_Node000002_Node000006" class="edge">
<title>Node2&#45;&gt;Node6</title>
<g id="a_edge13_Node000002_Node000006"><a xlink:title=" ">
<path fill="none" stroke="#63b8ff" d="M293.91,-165.35C273.55,-156.91 242.91,-143.57 217.37,-129.75 189.75,-114.81 159.57,-95.01 139.67,-81.44"/>
<polygon fill="#63b8ff" stroke="#63b8ff" points="141.74,-78.62 131.51,-75.83 137.77,-84.38 141.74,-78.62"/>
</a>
</g>
</g>
<!-- Node7 -->
<g id="Node000007" class="node">
<title>Node7</title>
<g id="a_Node000007"><a xlink:href="../../d4/d2c/_utility_8hpp.html" target="_top" xlink:title=" ">
<polygon fill="white" stroke="#666666" points="405.37,-129.75 305.37,-129.75 305.37,-110.5 405.37,-110.5 405.37,-129.75"/>
<text text-anchor="middle" x="355.37" y="-116.25" font-family="Helvetica,sans-Serif" font-size="10.00">mimic++/Utility.hpp</text>
</a>
</g>
</g>
<!-- Node2&#45;&gt;Node7 -->
<g id="edge6_Node000002_Node000007" class="edge">
<title>Node2&#45;&gt;Node7</title>
<g id="a_edge6_Node000002_Node000007"><a xlink:title=" ">
<path fill="none" stroke="#63b8ff" d="M322.81,-165.58C328.03,-158.46 335.56,-148.18 342.06,-139.3"/>
<polygon fill="#63b8ff" stroke="#63b8ff" points="344.81,-141.47 347.9,-131.33 339.16,-137.33 344.81,-141.47"/>
</a>
</g>
</g>
<!-- Node10 -->
<g id="Node000010" class="node">
<title>Node10</title>
<g id="a_Node000010"><a xlink:title=" ">
<polygon fill="#e0e0e0" stroke="#999999" points="281.5,-74.5 197.25,-74.5 197.25,-55.25 281.5,-55.25 281.5,-74.5"/>
<text text-anchor="middle" x="239.37" y="-61" font-family="Helvetica,sans-Serif" font-size="10.00">source_location</text>
</a>
</g>
</g>
<!-- Node2&#45;&gt;Node10 -->
<g id="edge12_Node000002_Node000010" class="edge">
<title>Node2&#45;&gt;Node10</title>
<g id="a_edge12_Node000002_Node000010"><a xlink:title=" ">
<path fill="none" stroke="#63b8ff" d="M276.54,-165.31C257.58,-158.78 236.63,-147.82 225.37,-129.75 216.93,-116.2 221.98,-98.26 228.26,-84.85"/>
<polygon fill="#63b8ff" stroke="#63b8ff" points="231.26,-86.65 232.84,-76.17 225.07,-83.38 231.26,-86.65"/>
</a>
</g>
</g>
<!-- Node11 -->
<g id="Node000011" class="node">
<title>Node11</title>
<g id="a_Node000011"><a xlink:title=" ">
<polygon fill="#e0e0e0" stroke="#999999" points="374.62,-74.5 336.12,-74.5 336.12,-55.25 374.62,-55.25 374.62,-74.5"/>
<text text-anchor="middle" x="355.37" y="-61" font-family="Helvetica,sans-Serif" font-size="10.00">utility</text>
</a>
</g>
</g>
<!-- Node2&#45;&gt;Node11 -->
<g id="edge14_Node000002_Node000011" class="edge">
<title>Node2&#45;&gt;Node11</title>
<g id="a_edge14_Node000002_Node000011"><a xlink:title=" ">
<path fill="none" stroke="#63b8ff" d="M309.37,-165.36C300.43,-152.67 287.16,-129.02 296.37,-110.5 302.7,-97.78 314.57,-87.72 326.02,-80.4"/>
<polygon fill="#63b8ff" stroke="#63b8ff" points="327.64,-83.51 334.51,-75.44 324.11,-77.46 327.64,-83.51"/>
</a>
</g>
</g>
<!-- Node4 -->
<g id="Node000004" class="node">
<title>Node4</title>
<g id="a_Node000004"><a xlink:title=" ">
<polygon fill="#e0e0e0" stroke="#999999" points="699.37,-19.25 659.37,-19.25 659.37,0 699.37,0 699.37,-19.25"/>
<text text-anchor="middle" x="679.37" y="-5.75" font-family="Helvetica,sans-Serif" font-size="10.00">string</text>
</a>
</g>
</g>
<!-- Node3&#45;&gt;Node4 -->
<g id="edge3_Node000003_Node000004" class="edge">
<title>Node3&#45;&gt;Node4</title>
<g id="a_edge3_Node000003_Node000004"><a xlink:title=" ">
<path fill="none" stroke="#63b8ff" d="M583.88,-54.84C601.89,-46.5 628.89,-34 649.6,-24.41"/>
<polygon fill="#63b8ff" stroke="#63b8ff" points="650.79,-27.72 658.39,-20.34 647.85,-21.36 650.79,-27.72"/>
</a>
</g>
</g>
<!-- Node5&#45;&gt;Node6 -->
<g id="edge5_Node000005_Node000006" class="edge">
<title>Node5&#45;&gt;Node6</title>
<g id="a_edge5_Node000005_Node000006"><a xlink:title=" ">
<path fill="none" stroke="#63b8ff" d="M81.47,-110.33C87.29,-103.13 95.71,-92.71 102.93,-83.76"/>
<polygon fill="#63b8ff" stroke="#63b8ff" points="105.61,-86.02 109.17,-76.04 100.16,-81.62 105.61,-86.02"/>
</a>
</g>
</g>
<!-- Node7&#45;&gt;Node3 -->
<g id="edge7_Node000007_Node000003" class="edge">
<title>Node7&#45;&gt;Node3</title>
<g id="a_edge7_Node000007_Node000003"><a xlink:title=" ">
<path fill="none" stroke="#63b8ff" d="M390.83,-110.09C425.8,-101.18 479.47,-87.51 517.85,-77.73"/>
<polygon fill="#63b8ff" stroke="#63b8ff" points="518.45,-81.19 527.28,-75.33 516.72,-74.4 518.45,-81.19"/>
</a>
</g>
</g>
<!-- Node7&#45;&gt;Node8 -->
<g id="edge8_Node000007_Node000008" class="edge">
<title>Node7&#45;&gt;Node8</title>
<g id="a_edge8_Node000007_Node000008"><a xlink:title=" ">
<path fill="none" stroke="#63b8ff" d="M305.03,-110.82C251.71,-101.98 165.06,-87.5 90.37,-74.5 86.29,-73.79 82.02,-73.04 77.78,-72.28"/>
<polygon fill="#63b8ff" stroke="#63b8ff" points="78.73,-68.9 68.27,-70.58 77.5,-75.79 78.73,-68.9"/>
</a>
</g>
</g>
<!-- Node9 -->
<g id="Node000009" class="node">
<title>Node9</title>
<g id="a_Node000009"><a xlink:title=" ">
<polygon fill="#e0e0e0" stroke="#999999" points="476.25,-74.5 432.5,-74.5 432.5,-55.25 476.25,-55.25 476.25,-74.5"/>
<text text-anchor="middle" x="454.37" y="-61" font-family="Helvetica,sans-Serif" font-size="10.00">format</text>
</a>
</g>
</g>
<!-- Node7&#45;&gt;Node9 -->
<g id="edge9_Node000007_Node000009" class="edge">
<title>Node7&#45;&gt;Node9</title>
<g id="a_edge9_Node000007_Node000009"><a xlink:title=" ">
<path fill="none" stroke="#63b8ff" d="M372.17,-110.09C387.38,-101.91 410.07,-89.71 427.75,-80.19"/>
<polygon fill="#63b8ff" stroke="#63b8ff" points="429.01,-83.49 436.16,-75.67 425.7,-77.32 429.01,-83.49"/>
</a>
</g>
</g>
<!-- Node7&#45;&gt;Node10 -->
<g id="edge10_Node000007_Node000010" class="edge">
<title>Node7&#45;&gt;Node10</title>
<g id="a_edge10_Node000007_Node000010"><a xlink:title=" ">
<path fill="none" stroke="#63b8ff" d="M335.69,-110.09C317.53,-101.75 290.29,-89.25 269.4,-79.66"/>
<polygon fill="#63b8ff" stroke="#63b8ff" points="271.07,-76.58 260.52,-75.58 268.15,-82.94 271.07,-76.58"/>
</a>
</g>
</g>
<!-- Node7&#45;&gt;Node11 -->
<g id="edge11_Node000007_Node000011" class="edge">
<title>Node7&#45;&gt;Node11</title>
<g id="a_edge11_Node000007_Node000011"><a xlink:title=" ">
<path fill="none" stroke="#63b8ff" d="M355.37,-110.33C355.37,-103.82 355.37,-94.67 355.37,-86.37"/>
<polygon fill="#63b8ff" stroke="#63b8ff" points="358.87,-86.37 355.37,-76.37 351.87,-86.37 358.87,-86.37"/>
</a>
</g>
</g>
<!-- Node12&#45;&gt;Node3 -->
<g id="edge17_Node000012_Node000003" class="edge">
<title>Node12&#45;&gt;Node3</title>
<g id="a_edge17_Node000012_Node000003"><a xlink:title=" ">
<path fill="none" stroke="#63b8ff" d="M711.09,-165.3C698.76,-152.11 674.41,-127.4 650.37,-110.5 633.33,-98.52 612.64,-87.68 595.83,-79.69"/>
<polygon fill="#63b8ff" stroke="#63b8ff" points="597.34,-76.53 586.79,-75.5 594.39,-82.88 597.34,-76.53"/>
</a>
</g>
</g>
<!-- Node12&#45;&gt;Node4 -->
<g id="edge23_Node000012_Node000004" class="edge">
<title>Node12&#45;&gt;Node4</title>
<g id="a_edge23_Node000012_Node000004"><a xlink:title=" ">
<path fill="none" stroke="#63b8ff" d="M730.73,-165.51C740.16,-157.38 752.87,-144.39 758.37,-129.75 761.38,-121.74 761.18,-118.58 758.37,-110.5 746.59,-76.61 717.99,-45.55 698.64,-27.35"/>
<polygon fill="#63b8ff" stroke="#63b8ff" points="701.12,-24.87 691.36,-20.73 696.4,-30.05 701.12,-24.87"/>
</a>
</g>
</g>
<!-- Node12&#45;&gt;Node9 -->
<g id="edge18_Node000012_Node000009" class="edge">
<title>Node12&#45;&gt;Node9</title>
<g id="a_edge18_Node000012_Node000009"><a xlink:title=" ">
<path fill="none" stroke="#63b8ff" d="M678.85,-165.32C647.49,-157.65 603.31,-145.41 566.37,-129.75 533.99,-116.02 499.17,-95.08 477.1,-80.96"/>
<polygon fill="#63b8ff" stroke="#63b8ff" points="479.2,-78.15 468.9,-75.64 475.39,-84.02 479.2,-78.15"/>
</a>
</g>
</g>
<!-- Node12&#45;&gt;Node10 -->
<g id="edge21_Node000012_Node000010" class="edge">
<title>Node12&#45;&gt;Node10</title>
<g id="a_edge21_Node000012_Node000010"><a xlink:title=" ">
<path fill="none" stroke="#63b8ff" d="M667.03,-173.51C568.55,-171.14 359.87,-162.3 296.37,-129.75 276.38,-119.5 260.13,-99.1 250.17,-84.09"/>
<polygon fill="#63b8ff" stroke="#63b8ff" points="253.4,-82.65 245.11,-76.04 247.47,-86.37 253.4,-82.65"/>
</a>
</g>
</g>
<!-- Node12&#45;&gt;Node11 -->
<g id="edge25_Node000012_Node000011" class="edge">
<title>Node12&#45;&gt;Node11</title>
<g id="a_edge25_Node000012_Node000011"><a xlink:title=" ">
<path fill="none" stroke="#63b8ff" d="M671.21,-165.26C631.45,-157.28 573.74,-144.65 524.37,-129.75 474.87,-114.81 419.03,-92.62 385.55,-78.72"/>
<polygon fill="#63b8ff" stroke="#63b8ff" points="387.07,-75.56 376.5,-74.92 384.37,-82.01 387.07,-75.56"/>
</a>
</g>
</g>
<!-- Node12&#45;&gt;Node13 -->
<g id="edge19_Node000012_Node000013" class="edge">
<title>Node12&#45;&gt;Node13</title>
<g id="a_edge19_Node000012_Node000013"><a xlink:title=" ">
<path fill="none" stroke="#63b8ff" d="M738.88,-165.34C756.89,-157 783.89,-144.5 804.6,-134.91"/>
<polygon fill="#63b8ff" stroke="#63b8ff" points="805.79,-138.22 813.39,-130.84 802.85,-131.86 805.79,-138.22"/>
</a>
</g>
</g>
<!-- Node14 -->
<g id="Node000014" class="node">
<title>Node14</title>
<g id="a_Node000014"><a xlink:title=" ">
<polygon fill="#e0e0e0" stroke="#999999" points="927.37,-129.75 881.37,-129.75 881.37,-110.5 927.37,-110.5 927.37,-129.75"/>
<text text-anchor="middle" x="904.37" y="-116.25" font-family="Helvetica,sans-Serif" font-size="10.00">iterator</text>
</a>
</g>
</g>
<!-- Node12&#45;&gt;Node14 -->
<g id="edge20_Node000012_Node000014" class="edge">
<title>Node12&#45;&gt;Node14</title>
<g id="a_edge20_Node000012_Node000014"><a xlink:title=" ">
<path fill="none" stroke="#63b8ff" d="M750.75,-165.34C783.91,-155.8 836.03,-140.8 870.21,-130.96"/>
<polygon fill="#63b8ff" stroke="#63b8ff" points="870.96,-134.38 879.6,-128.25 869.02,-127.66 870.96,-134.38"/>
</a>
</g>
</g>
<!-- Node15 -->
<g id="Node000015" class="node">
<title>Node15</title>
<g id="a_Node000015"><a xlink:title=" ">
<polygon fill="#e0e0e0" stroke="#999999" points="749,-129.75 697.75,-129.75 697.75,-110.5 749,-110.5 749,-129.75"/>
<text text-anchor="middle" x="723.37" y="-116.25" font-family="Helvetica,sans-Serif" font-size="10.00">sstream</text>
</a>
</g>
</g>
<!-- Node12&#45;&gt;Node15 -->
<g id="edge22_Node000012_Node000015" class="edge">
<title>Node12&#45;&gt;Node15</title>
<g id="a_edge22_Node000012_Node000015"><a xlink:title=" ">
<path fill="none" stroke="#63b8ff" d="M720.03,-165.58C720.53,-158.99 721.22,-149.71 721.85,-141.32"/>
<polygon fill="#63b8ff" stroke="#63b8ff" points="725.32,-141.85 722.58,-131.62 718.34,-141.33 725.32,-141.85"/>
</a>
</g>
</g>
<!-- Node16 -->
<g id="Node000016" class="node">
<title>Node16</title>
<g id="a_Node000016"><a xlink:title=" ">
<polygon fill="#e0e0e0" stroke="#999999" points="641.12,-129.75 575.62,-129.75 575.62,-110.5 641.12,-110.5 641.12,-129.75"/>
<text text-anchor="middle" x="608.37" y="-116.25" font-family="Helvetica,sans-Serif" font-size="10.00">string_view</text>
</a>
</g>
</g>
<!-- Node12&#45;&gt;Node16 -->
<g id="edge24_Node000012_Node000016" class="edge">
<title>Node12&#45;&gt;Node16</title>
<g id="a_edge24_Node000012_Node000016"><a xlink:title=" ">
<path fill="none" stroke="#63b8ff" d="M700.54,-165.34C683.32,-157.08 657.57,-144.73 637.66,-135.18"/>
<polygon fill="#63b8ff" stroke="#63b8ff" points="639.19,-132.03 628.66,-130.86 636.16,-138.34 639.19,-132.03"/>
</a>
</g>
</g>
<!-- Node17&#45;&gt;Node2 -->
<g id="edge27_Node000017_Node000002" class="edge">
<title>Node17&#45;&gt;Node2</title>
<g id="a_edge27_Node000017_Node000002"><a xlink:title=" ">
<path fill="none" stroke="#63b8ff" d="M886.45,-224.95C768.84,-214.93 493.58,-191.47 373.78,-181.27"/>
<polygon fill="#63b8ff" stroke="#63b8ff" points="374.11,-177.78 363.85,-180.42 373.51,-184.76 374.11,-177.78"/>
</a>
</g>
</g>
<!-- Node17&#45;&gt;Node3 -->
<g id="edge28_Node000017_Node000003" class="edge">
<title>Node17&#45;&gt;Node3</title>
<g id="a_edge28_Node000017_Node000003"><a xlink:title=" ">
<path fill="none" stroke="#63b8ff" d="M939.05,-220.81C936.83,-211.87 933.63,-197.58 932.37,-185 929.93,-160.5 935.01,-154.33 936.37,-129.75 936.84,-121.21 942.05,-116.9 936.37,-110.5 915.95,-87.48 722.41,-74.11 622.88,-68.7"/>
<polygon fill="#63b8ff" stroke="#63b8ff" points="623.2,-65.21 613.03,-68.17 622.83,-72.2 623.2,-65.21"/>
</a>
</g>
</g>
<!-- Node17&#45;&gt;Node12 -->
<g id="edge29_Node000017_Node000012" class="edge">
<title>Node17&#45;&gt;Node12</title>
<g id="a_edge29_Node000017_Node000012"><a xlink:title=" ">
<path fill="none" stroke="#63b8ff" d="M903.46,-220.53C866.11,-211.57 808.87,-197.84 768.14,-188.07"/>
<polygon fill="#63b8ff" stroke="#63b8ff" points="769.14,-184.71 758.6,-185.78 767.51,-191.52 769.14,-184.71"/>
</a>
</g>
</g>
<!-- Node17&#45;&gt;Node13 -->
<g id="edge31_Node000017_Node000013" class="edge">
<title>Node17&#45;&gt;Node13</title>
<g id="a_edge31_Node000017_Node000013"><a xlink:title=" ">
<path fill="none" stroke="#63b8ff" d="M930.71,-220.73C920.37,-211.95 904.37,-198 891.37,-185 876.32,-169.95 860.27,-151.74 849.05,-138.62"/>
<polygon fill="#63b8ff" stroke="#63b8ff" points="851.93,-136.61 842.79,-131.25 846.59,-141.14 851.93,-136.61"/>
</a>
</g>
</g>
<!-- Node17&#45;&gt;Node14 -->
<g id="edge32_Node000017_Node000014" class="edge">
<title>Node17&#45;&gt;Node14</title>
<g id="a_edge32_Node000017_Node000014"><a xlink:title=" ">
<path fill="none" stroke="#63b8ff" d="M928.76,-220.64C918.66,-212.61 905.25,-199.83 899.37,-185 893.84,-171.05 895.53,-154.07 898.36,-141.12"/>
<polygon fill="#63b8ff" stroke="#63b8ff" points="901.69,-142.2 900.85,-131.64 894.92,-140.42 901.69,-142.2"/>
</a>
</g>
</g>
<!-- Node17&#45;&gt;Node18 -->
<g id="edge30_Node000017_Node000018" class="edge">
<title>Node17&#45;&gt;Node18</title>
<g id="a_edge30_Node000017_Node000018"><a xlink:title=" ">
<path fill="none" stroke="#63b8ff" d="M969.53,-220.59C996.72,-211.87 1038.11,-198.59 1068.45,-188.86"/>
<polygon fill="#63b8ff" stroke="#63b8ff" points="1069.18,-192.3 1077.63,-185.91 1067.04,-185.64 1069.18,-192.3"/>
</a>
</g>
</g>
<!-- Node17&#45;&gt;Node19 -->
<g id="edge33_Node000017_Node000019" class="edge">
<title>Node17&#45;&gt;Node19</title>
<g id="a_edge33_Node000017_Node000019"><a xlink:title=" ">
<path fill="none" stroke="#63b8ff" d="M984.63,-220.54C1023.38,-212.3 1082.04,-199.6 1141.95,-185.52"/>
<polygon fill="#63b8ff" stroke="#63b8ff" points="1142.74,-188.92 1151.67,-183.22 1141.13,-182.11 1142.74,-188.92"/>
</a>
</g>
</g>
<!-- Node17&#45;&gt;Node20 -->
<g id="edge34_Node000017_Node000020" class="edge">
<title>Node17&#45;&gt;Node20</title>
<g id="a_edge34_Node000017_Node000020"><a xlink:title=" ">
<path fill="none" stroke="#63b8ff" d="M996.18,-222.24C1048.67,-214.81 1130.3,-202.28 1210.12,-185.3"/>
<polygon fill="#63b8ff" stroke="#63b8ff" points="1210.85,-188.72 1219.89,-183.19 1209.37,-181.88 1210.85,-188.72"/>
</a>
</g>
</g>
<!-- Node21 -->
<g id="Node000021" class="node">
<title>Node21</title>
<g id="a_Node000021"><a xlink:title=" ">
<polygon fill="#e0e0e0" stroke="#999999" points="997.62,-185 941.12,-185 941.12,-165.75 997.62,-165.75 997.62,-185"/>
<text text-anchor="middle" x="969.37" y="-171.5" font-family="Helvetica,sans-Serif" font-size="10.00">typeindex</text>
</a>
</g>
</g>
<!-- Node17&#45;&gt;Node21 -->
<g id="edge35_Node000017_Node000021" class="edge">
<title>Node17&#45;&gt;Node21</title>
<g id="a_edge35_Node000017_Node000021"><a xlink:title=" ">
<path fill="none" stroke="#63b8ff" d="M946,-220.83C949.62,-213.94 954.8,-204.09 959.36,-195.41"/>
<polygon fill="#63b8ff" stroke="#63b8ff" points="962.39,-197.18 963.94,-186.7 956.19,-193.92 962.39,-197.18"/>
</a>
</g>
</g>
<!-- Node22 -->
<g id="Node000022" class="node">
<title>Node22</title>
<g id="a_Node000022"><a xlink:title=" ">
<polygon fill="#e0e0e0" stroke="#999999" points="1061,-185 1015.75,-185 1015.75,-165.75 1061,-165.75 1061,-185"/>
<text text-anchor="middle" x="1038.37" y="-171.5" font-family="Helvetica,sans-Serif" font-size="10.00">variant</text>
</a>
</g>
</g>
<!-- Node17&#45;&gt;Node22 -->
<g id="edge36_Node000017_Node000022" class="edge">
<title>Node17&#45;&gt;Node22</title>
<g id="a_edge36_Node000017_Node000022"><a xlink:title=" ">
<path fill="none" stroke="#63b8ff" d="M957.83,-220.59C972.6,-212.48 994.55,-200.43 1011.8,-190.96"/>
<polygon fill="#63b8ff" stroke="#63b8ff" points="1013.43,-194.06 1020.51,-186.18 1010.06,-187.93 1013.43,-194.06"/>
</a>
</g>
</g>
<!-- Node17&#45;&gt;Node23 -->
<g id="edge37_Node000017_Node000023" class="edge">
<title>Node17&#45;&gt;Node23</title>
<g id="a_edge37_Node000017_Node000023"><a xlink:title=" ">
<path fill="none" stroke="#63b8ff" d="M996.33,-224.81C1060.7,-218.62 1170.67,-206.33 1273.32,-185.39"/>
<polygon fill="#63b8ff" stroke="#63b8ff" points="1273.95,-188.83 1283.03,-183.37 1272.53,-181.98 1273.95,-188.83"/>
</a>
</g>
</g>
</g>
</svg>

<g id="navigator" transform="translate(0 0)" fill="#404254">
  <rect fill="#f2f5e9" fill-opacity="0.5" stroke="#606060" stroke-width=".5" x="0" y="0" width="60" height="60"/>
  <use id="zoomplus" xlink:href="#zoomPlus" x="17" y="9" onmousedown="handleZoom(evt,'in')"/>
  <use id="zoomminus" xlink:href="#zoomMin" x="42" y="9" onmousedown="handleZoom(evt,'out')"/>
  <use id="reset" xlink:href="#resetDef" x="30" y="36" onmousedown="handleReset()"/>
   <use id="arrowup" xlink:href="#arrowUp" x="0" y="0" onmousedown="handlePan(0,-1)"/>
  <use id="arrowright" xlink:href="#arrowRight" x="0" y="0" onmousedown="handlePan(1,0)"/>
  <use id="arrowdown" xlink:href="#arrowDown" x="0" y="0" onmousedown="handlePan(0,1)"/>
  <use id="arrowleft" xlink:href="#arrowLeft" x="0" y="0" onmousedown="handlePan(-1,0)"/>
</g>
<svg viewBox="0 0 15 15" width="100%" height="30px" preserveAspectRatio="xMaxYMin meet">
 <g id="arrow_out" transform="scale(0.3 0.3)">
  <a xlink:href="_reporter_8hpp__incl_org.svg" target="_base">
   <rect id="button" ry="5" rx="5" y="6" x="6" height="38" width="38"
        fill="#f2f5e9" fill-opacity="0.5" stroke="#606060" stroke-width="1.0"/>
   <path id="arrow"
     d="M 11.500037,31.436501 C 11.940474,20.09759 22.043105,11.32322 32.158766,21.979434 L 37.068811,17.246167 C 37.068811,17.246167 37.088388,32 37.088388,32 L 22.160133,31.978069 C 22.160133,31.978069 26.997745,27.140456 26.997745,27.140456 C 18.528582,18.264221 13.291696,25.230495 11.500037,31.436501 z"
     style="fill:#404040;"/>
  </a>
 </g>
</svg>

<style type='text/css'>
<![CDATA[
[data-mouse-over-selected='false'] { opacity: 0.7; }
[data-mouse-over-selected='true']  { opacity: 1.0; }
]]>
</style>
<script type="application/ecmascript"><![CDATA[
document.addEventListener('DOMContentLoaded', (event) => {
  highlightEdges();
  highlightAdjacentNodes();
});
]]></script>
</svg>
