<?xml version="1.0" encoding="UTF-8" standalone="no"?>
<!DOCTYPE svg PUBLIC "-//W3C//DTD SVG 1.1//EN"
 "http://www.w3.org/Graphics/SVG/1.1/DTD/svg11.dtd">
<!-- Generated by graphviz version 12.1.2 (20240928.0832)
 -->
<!-- Title: mimic++/Reporter.hpp Pages: 1 -->
<!--zoomable 359 -->

<svg id="main" version="1.1" xmlns="http://www.w3.org/2000/svg" xmlns:xlink="http://www.w3.org/1999/xlink" xml:space="preserve" onload="init(evt)">

<style type="text/css"><![CDATA[
.node, .edge {opacity: 0.7;}
.node.selected, .edge.selected {opacity: 1;}
.edge:hover path { stroke: red; }
.edge:hover polygon { stroke: red; fill: red; }
]]></style>

<defs>
  <circle id="rim" cx="0" cy="0" r="7"/>
  <circle id="rim2" cx="0" cy="0" r="3.5"/>
  <g id="zoomPlus">
    <use xlink:href="#rim" fill="#404040"><set attributeName="fill" to="#808080" begin="zoomplus.mouseover" end="zoomplus.mouseout"/></use>
    <path d="M-4,0h8M0,-4v8" fill="none" stroke="white" stroke-width="1.5" pointer-events="none"/>
  </g>
  <g id="zoomMin">
    <use xlink:href="#rim" fill="#404040"><set attributeName="fill" to="#808080" begin="zoomminus.mouseover" end="zoomminus.mouseout"/></use>
    <path d="M-4,0h8" fill="none" stroke="white" stroke-width="1.5" pointer-events="none"/>
  </g>
  <g id="arrowUp" transform="translate(30 24)">
    <use xlink:href="#rim"/>
    <path pointer-events="none" fill="none" stroke="white" stroke-width="1.5" d="M0,-3.0v7 M-2.5,-0.5L0,-3.0L2.5,-0.5"/>
  </g>
  <g id="arrowRight" transform="rotate(90) translate(36 -43)">
    <use xlink:href="#rim"/>
    <path pointer-events="none" fill="none" stroke="white" stroke-width="1.5" d="M0,-3.0v7 M-2.5,-0.5L0,-3.0L2.5,-0.5"/>
  </g>
  <g id="arrowDown" transform="rotate(180) translate(-30 -48)">
    <use xlink:href="#rim"/>
    <path pointer-events="none" fill="none" stroke="white" stroke-width="1.5" d="M0,-3.0v7 M-2.5,-0.5L0,-3.0L2.5,-0.5"/>
  </g>
  <g id="arrowLeft" transform="rotate(270) translate(-36 17)">
    <use xlink:href="#rim"/>
    <path pointer-events="none" fill="none" stroke="white" stroke-width="1.5" d="M0,-3.0v7 M-2.5,-0.5L0,-3.0L2.5,-0.5"/>
  </g>
  <g id="resetDef">
    <use xlink:href="#rim2" fill="#404040"><set attributeName="fill" to="#808080" begin="reset.mouseover" end="reset.mouseout"/></use>
  </g>
</defs>
<script type="application/ecmascript">
var viewWidth = 1274;
var viewHeight = 359;
var sectionId = 'dynsection-0';
</script>
<script type="application/ecmascript" xlink:href="../../svg.min.js"/>
<svg id="graph" class="graph">
<g id="viewport">
<title>mimic++/Reporter.hpp</title>
<!-- Node1 -->
<g id="Node000001" class="node">
<title>Node1</title>
<g id="a_Node000001"><a xlink:title=" ">
<polygon fill="#999999" stroke="#666666" points="917,-350.75 805,-350.75 805,-331.5 917,-331.5 917,-350.75"/>
<text text-anchor="middle" x="861" y="-337.25" font-family="Helvetica,sans-Serif" font-size="10.00">mimic++/Reporter.hpp</text>
</a>
</g>
</g>
<!-- Node2 -->
<g id="Node000002" class="node">
<title>Node2</title>
<g id="a_Node000002"><a xlink:href="../../dc/d44/_call_8hpp.html" target="_top" xlink:title=" ">
<polygon fill="white" stroke="#666666" points="812.88,-185 721.12,-185 721.12,-165.75 812.88,-165.75 812.88,-185"/>
<text text-anchor="middle" x="767" y="-171.5" font-family="Helvetica,sans-Serif" font-size="10.00">mimic++/Call.hpp</text>
</a>
</g>
</g>
<!-- Node1&#45;&gt;Node2 -->
<g id="edge1_Node000001_Node000002" class="edge">
<title>Node1&#45;&gt;Node2</title>
<g id="a_edge1_Node000001_Node000002"><a xlink:title=" ">
<path fill="none" stroke="#63b8ff" d="M804.6,-332.62C751.09,-322.14 673.71,-297.47 638,-240.25 617.98,-208.17 666.7,-191.7 709.89,-183.59"/>
<polygon fill="#63b8ff" stroke="#63b8ff" points="710.26,-187.08 719.51,-181.92 709.06,-180.18 710.26,-187.08"/>
</a>
</g>
</g>
<!-- Node3 -->
<g id="Node000003" class="node">
<title>Node3</title>
<g id="a_Node000003"><a xlink:href="../../df/dde/_fwd_8hpp.html" target="_top" xlink:title=" ">
<polygon fill="white" stroke="#666666" points="434,-74.5 340,-74.5 340,-55.25 434,-55.25 434,-74.5"/>
<text text-anchor="middle" x="387" y="-61" font-family="Helvetica,sans-Serif" font-size="10.00">mimic++/Fwd.hpp</text>
</a>
</g>
</g>
<!-- Node1&#45;&gt;Node3 -->
<g id="edge20_Node000001_Node000003" class="edge">
<title>Node1&#45;&gt;Node3</title>
<g id="a_edge20_Node000001_Node000003"><a xlink:title=" ">
<path fill="none" stroke="#63b8ff" d="M804.71,-337.71C656.71,-330.53 260.39,-305.53 149,-240.25 95.78,-209.06 84.7,-188.21 65,-129.75 62.27,-121.64 59.38,-116.95 65,-110.5 73.58,-100.65 238.06,-81.72 328.54,-71.98"/>
<polygon fill="#63b8ff" stroke="#63b8ff" points="328.64,-75.49 338.21,-70.95 327.9,-68.53 328.64,-75.49"/>
</a>
</g>
</g>
<!-- Node11 -->
<g id="Node000011" class="node">
<title>Node11</title>
<g id="a_Node000011"><a xlink:title=" ">
<polygon fill="#e0e0e0" stroke="#999999" points="108.12,-74.5 59.88,-74.5 59.88,-55.25 108.12,-55.25 108.12,-74.5"/>
<text text-anchor="middle" x="84" y="-61" font-family="Helvetica,sans-Serif" font-size="10.00">cassert</text>
</a>
</g>
</g>
<!-- Node1&#45;&gt;Node11 -->
<g id="edge57_Node000001_Node000011" class="edge">
<title>Node1&#45;&gt;Node11</title>
<g id="a_edge57_Node000001_Node000011"><a xlink:title=" ">
<path fill="none" stroke="#63b8ff" d="M804.51,-338.96C612.96,-334.29 0,-312.98 0,-231.62 0,-231.62 0,-231.62 0,-174.38 0,-134.42 36.06,-100.24 60.93,-81.43"/>
<polygon fill="#63b8ff" stroke="#63b8ff" points="62.85,-84.35 68.9,-75.65 58.75,-78.68 62.85,-84.35"/>
</a>
</g>
</g>
<!-- Node15 -->
<g id="Node000015" class="node">
<title>Node15</title>
<g id="a_Node000015"><a xlink:href="../../da/dab/_printer_8hpp.html" target="_top" xlink:title=" ">
<polygon fill="white" stroke="#666666" points="590.88,-240.25 487.12,-240.25 487.12,-221 590.88,-221 590.88,-240.25"/>
<text text-anchor="middle" x="539" y="-226.75" font-family="Helvetica,sans-Serif" font-size="10.00">mimic++/Printer.hpp</text>
</a>
</g>
</g>
<!-- Node1&#45;&gt;Node15 -->
<g id="edge21_Node000001_Node000015" class="edge">
<title>Node1&#45;&gt;Node15</title>
<g id="a_edge21_Node000001_Node000015"><a xlink:title=" ">
<path fill="none" stroke="#63b8ff" d="M804.59,-339.7C750.63,-337.19 668.32,-327.73 605,-295.5 583.32,-284.46 564.04,-263.89 552,-249.07"/>
<polygon fill="#63b8ff" stroke="#63b8ff" points="555.01,-247.25 546.11,-241.52 549.49,-251.56 555.01,-247.25"/>
</a>
</g>
</g>
<!-- Node17 -->
<g id="Node000017" class="node">
<title>Node17</title>
<g id="a_Node000017"><a xlink:title=" ">
<polygon fill="#e0e0e0" stroke="#999999" points="132,-129.75 74,-129.75 74,-110.5 132,-110.5 132,-129.75"/>
<text text-anchor="middle" x="103" y="-116.25" font-family="Helvetica,sans-Serif" font-size="10.00">functional</text>
</a>
</g>
</g>
<!-- Node1&#45;&gt;Node17 -->
<g id="edge59_Node000001_Node000017" class="edge">
<title>Node1&#45;&gt;Node17</title>
<g id="a_edge59_Node000001_Node000017"><a xlink:title=" ">
<path fill="none" stroke="#63b8ff" d="M804.61,-338.32C655.91,-332.62 257.12,-310.97 149,-240.25 115.86,-218.57 106.57,-169.14 103.98,-141.25"/>
<polygon fill="#63b8ff" stroke="#63b8ff" points="107.5,-141.36 103.31,-131.63 100.52,-141.85 107.5,-141.36"/>
</a>
</g>
</g>
<!-- Node18 -->
<g id="Node000018" class="node">
<title>Node18</title>
<g id="a_Node000018"><a xlink:title=" ">
<polygon fill="#e0e0e0" stroke="#999999" points="1035.62,-129.75 990.38,-129.75 990.38,-110.5 1035.62,-110.5 1035.62,-129.75"/>
<text text-anchor="middle" x="1013" y="-116.25" font-family="Helvetica,sans-Serif" font-size="10.00">ranges</text>
</a>
</g>
</g>
<!-- Node1&#45;&gt;Node18 -->
<g id="edge62_Node000001_Node000018" class="edge">
<title>Node1&#45;&gt;Node18</title>
<g id="a_edge62_Node000001_Node000018"><a xlink:title=" ">
<path fill="none" stroke="#63b8ff" d="M917.44,-333.66C973.05,-323.92 1055.02,-299.76 1093,-240.25 1117.17,-202.38 1067.58,-158.75 1036.16,-136.27"/>
<polygon fill="#63b8ff" stroke="#63b8ff" points="1038.56,-133.67 1028.34,-130.86 1034.58,-139.42 1038.56,-133.67"/>
</a>
</g>
</g>
<!-- Node23 -->
<g id="Node000023" class="node">
<title>Node23</title>
<g id="a_Node000023"><a xlink:href="../../d0/d3b/_reports_8hpp.html" target="_top" xlink:title=" ">
<polygon fill="white" stroke="#666666" points="868.5,-295.5 759.5,-295.5 759.5,-276.25 868.5,-276.25 868.5,-295.5"/>
<text text-anchor="middle" x="814" y="-282" font-family="Helvetica,sans-Serif" font-size="10.00">mimic++/Reports.hpp</text>
</a>
</g>
</g>
<!-- Node1&#45;&gt;Node23 -->
<g id="edge44_Node000001_Node000023" class="edge">
<title>Node1&#45;&gt;Node23</title>
<g id="a_edge44_Node000001_Node000023"><a xlink:title=" ">
<path fill="none" stroke="#63b8ff" d="M853.24,-331.33C846.81,-324.05 837.49,-313.48 829.54,-304.48"/>
<polygon fill="#63b8ff" stroke="#63b8ff" points="832.17,-302.18 822.93,-296.99 826.92,-306.81 832.17,-302.18"/>
</a>
</g>
</g>
<!-- Node24 -->
<g id="Node000024" class="node">
<title>Node24</title>
<g id="a_Node000024"><a xlink:title=" ">
<polygon fill="#e0e0e0" stroke="#999999" points="954.88,-240.25 899.12,-240.25 899.12,-221 954.88,-221 954.88,-240.25"/>
<text text-anchor="middle" x="927" y="-226.75" font-family="Helvetica,sans-Serif" font-size="10.00">algorithm</text>
</a>
</g>
</g>
<!-- Node1&#45;&gt;Node24 -->
<g id="edge56_Node000001_Node000024" class="edge">
<title>Node1&#45;&gt;Node24</title>
<g id="a_edge56_Node000001_Node000024"><a xlink:title=" ">
<path fill="none" stroke="#63b8ff" d="M866.4,-331.25C877.13,-313.6 901.34,-273.8 915.7,-250.2"/>
<polygon fill="#63b8ff" stroke="#63b8ff" points="918.53,-252.28 920.74,-241.92 912.55,-248.64 918.53,-252.28"/>
</a>
</g>
</g>
<!-- Node25 -->
<g id="Node000025" class="node">
<title>Node25</title>
<g id="a_Node000025"><a xlink:title=" ">
<polygon fill="#e0e0e0" stroke="#999999" points="1022.88,-240.25 973.12,-240.25 973.12,-221 1022.88,-221 1022.88,-240.25"/>
<text text-anchor="middle" x="998" y="-226.75" font-family="Helvetica,sans-Serif" font-size="10.00">optional</text>
</a>
</g>
</g>
<!-- Node1&#45;&gt;Node25 -->
<g id="edge61_Node000001_Node000025" class="edge">
<title>Node1&#45;&gt;Node25</title>
<g id="a_edge61_Node000001_Node000025"><a xlink:title=" ">
<path fill="none" stroke="#63b8ff" d="M872.21,-331.25C895.29,-312.97 948.4,-270.9 977.69,-247.71"/>
<polygon fill="#63b8ff" stroke="#63b8ff" points="979.78,-250.52 985.45,-241.57 975.43,-245.03 979.78,-250.52"/>
</a>
</g>
</g>
<!-- Node28 -->
<g id="Node000028" class="node">
<title>Node28</title>
<g id="a_Node000028"><a xlink:title=" ">
<polygon fill="#e0e0e0" stroke="#999999" points="1083.5,-240.25 1040.5,-240.25 1040.5,-221 1083.5,-221 1083.5,-240.25"/>
<text text-anchor="middle" x="1062" y="-226.75" font-family="Helvetica,sans-Serif" font-size="10.00">vector</text>
</a>
</g>
</g>
<!-- Node1&#45;&gt;Node28 -->
<g id="edge63_Node000001_Node000028" class="edge">
<title>Node1&#45;&gt;Node28</title>
<g id="a_edge63_Node000001_Node000028"><a xlink:title=" ">
<path fill="none" stroke="#63b8ff" d="M877.86,-331.08C894.63,-322.07 921.11,-307.85 944,-295.5 975.29,-278.62 1011.21,-259.16 1035.12,-246.2"/>
<polygon fill="#63b8ff" stroke="#63b8ff" points="1036.75,-249.3 1043.87,-241.46 1033.41,-243.15 1036.75,-249.3"/>
</a>
</g>
</g>
<!-- Node29 -->
<g id="Node000029" class="node">
<title>Node29</title>
<g id="a_Node000029"><a xlink:title=" ">
<polygon fill="#e0e0e0" stroke="#999999" points="1197.62,-295.5 1140.38,-295.5 1140.38,-276.25 1197.62,-276.25 1197.62,-295.5"/>
<text text-anchor="middle" x="1169" y="-282" font-family="Helvetica,sans-Serif" font-size="10.00">exception</text>
</a>
</g>
</g>
<!-- Node1&#45;&gt;Node29 -->
<g id="edge58_Node000001_Node000029" class="edge">
<title>Node1&#45;&gt;Node29</title>
<g id="a_edge58_Node000001_Node000029"><a xlink:title=" ">
<path fill="none" stroke="#63b8ff" d="M917.44,-331.14C971.15,-322.47 1054.2,-308.74 1126,-295.5 1126.98,-295.32 1127.98,-295.13 1128.98,-294.94"/>
<polygon fill="#63b8ff" stroke="#63b8ff" points="1129.24,-298.46 1138.39,-293.13 1127.91,-291.59 1129.24,-298.46"/>
</a>
</g>
</g>
<!-- Node30 -->
<g id="Node000030" class="node">
<title>Node30</title>
<g id="a_Node000030"><a xlink:title=" ">
<polygon fill="#e0e0e0" stroke="#999999" points="1266.25,-295.5 1215.75,-295.5 1215.75,-276.25 1266.25,-276.25 1266.25,-295.5"/>
<text text-anchor="middle" x="1241" y="-282" font-family="Helvetica,sans-Serif" font-size="10.00">memory</text>
</a>
</g>
</g>
<!-- Node1&#45;&gt;Node30 -->
<g id="edge60_Node000001_Node000030" class="edge">
<title>Node1&#45;&gt;Node30</title>
<g id="a_edge60_Node000001_Node000030"><a xlink:title=" ">
<path fill="none" stroke="#63b8ff" d="M917.36,-334.96C983.76,-328.4 1097.59,-315.71 1204.17,-295.84"/>
<polygon fill="#63b8ff" stroke="#63b8ff" points="1204.79,-299.29 1213.97,-293.99 1203.49,-292.41 1204.79,-299.29"/>
</a>
</g>
</g>
<!-- Node2&#45;&gt;Node3 -->
<g id="edge2_Node000002_Node000003" class="edge">
<title>Node2&#45;&gt;Node3</title>
<g id="a_edge2_Node000002_Node000003"><a xlink:title=" ">
<path fill="none" stroke="#63b8ff" d="M735.26,-165.31C667.08,-145.84 506.62,-100.03 429.65,-78.05"/>
<polygon fill="#63b8ff" stroke="#63b8ff" points="430.95,-74.79 420.38,-75.41 429.03,-81.52 430.95,-74.79"/>
</a>
</g>
</g>
<!-- Node5 -->
<g id="Node000005" class="node">
<title>Node5</title>
<g id="a_Node000005"><a xlink:href="../../d8/d32/_type_traits_8hpp.html" target="_top" xlink:title=" ">
<polygon fill="white" stroke="#666666" points="883.5,-129.75 762.5,-129.75 762.5,-110.5 883.5,-110.5 883.5,-129.75"/>
<text text-anchor="middle" x="823" y="-116.25" font-family="Helvetica,sans-Serif" font-size="10.00">mimic++/TypeTraits.hpp</text>
</a>
</g>
</g>
<!-- Node2&#45;&gt;Node5 -->
<g id="edge4_Node000002_Node000005" class="edge">
<title>Node2&#45;&gt;Node5</title>
<g id="a_edge4_Node000002_Node000005"><a xlink:title=" ">
<path fill="none" stroke="#63b8ff" d="M776.5,-165.34C784.43,-157.8 795.95,-146.85 805.54,-137.73"/>
<polygon fill="#63b8ff" stroke="#63b8ff" points="807.71,-140.49 812.54,-131.07 802.89,-135.42 807.71,-140.49"/>
</a>
</g>
</g>
<!-- Node8 -->
<g id="Node000008" class="node">
<title>Node8</title>
<g id="a_Node000008"><a xlink:title=" ">
<polygon fill="#e0e0e0" stroke="#999999" points="902.5,-74.5 865.5,-74.5 865.5,-55.25 902.5,-55.25 902.5,-74.5"/>
<text text-anchor="middle" x="884" y="-61" font-family="Helvetica,sans-Serif" font-size="10.00">tuple</text>
</a>
</g>
</g>
<!-- Node2&#45;&gt;Node8 -->
<g id="edge18_Node000002_Node000008" class="edge">
<title>Node2&#45;&gt;Node8</title>
<g id="a_edge18_Node000002_Node000008"><a xlink:title=" ">
<path fill="none" stroke="#63b8ff" d="M813.35,-170.93C841.37,-166.18 875.05,-155.15 893,-129.75 902.19,-116.75 898.39,-98.48 893.2,-84.81"/>
<polygon fill="#63b8ff" stroke="#63b8ff" points="896.57,-83.79 889.37,-76.02 890.16,-86.58 896.57,-83.79"/>
</a>
</g>
</g>
<!-- Node10 -->
<g id="Node000010" class="node">
<title>Node10</title>
<g id="a_Node000010"><a xlink:href="../../d4/d2c/_utility_8hpp.html" target="_top" xlink:title=" ">
<polygon fill="white" stroke="#666666" points="478,-129.75 378,-129.75 378,-110.5 478,-110.5 478,-129.75"/>
<text text-anchor="middle" x="428" y="-116.25" font-family="Helvetica,sans-Serif" font-size="10.00">mimic++/Utility.hpp</text>
</a>
</g>
</g>
<!-- Node2&#45;&gt;Node10 -->
<g id="edge10_Node000002_Node000010" class="edge">
<title>Node2&#45;&gt;Node10</title>
<g id="a_edge10_Node000002_Node000010"><a xlink:title=" ">
<path fill="none" stroke="#63b8ff" d="M720.93,-167.14C661.03,-157.73 556.22,-141.27 489.56,-130.79"/>
<polygon fill="#63b8ff" stroke="#63b8ff" points="490.31,-127.37 479.89,-129.28 489.22,-134.28 490.31,-127.37"/>
</a>
</g>
</g>
<!-- Node12 -->
<g id="Node000012" class="node">
<title>Node12</title>
<g id="a_Node000012"><a xlink:title=" ">
<polygon fill="#e0e0e0" stroke="#999999" points="628.12,-74.5 543.88,-74.5 543.88,-55.25 628.12,-55.25 628.12,-74.5"/>
<text text-anchor="middle" x="586" y="-61" font-family="Helvetica,sans-Serif" font-size="10.00">source_location</text>
</a>
</g>
</g>
<!-- Node2&#45;&gt;Node12 -->
<g id="edge17_Node000002_Node000012" class="edge">
<title>Node2&#45;&gt;Node12</title>
<g id="a_edge17_Node000002_Node000012"><a xlink:title=" ">
<path fill="none" stroke="#63b8ff" d="M754.69,-165.44C736.85,-152.65 702.6,-128.65 672,-110.5 653.31,-99.42 631.58,-88.15 614.64,-79.72"/>
<polygon fill="#63b8ff" stroke="#63b8ff" points="616.66,-76.81 606.14,-75.53 613.56,-83.09 616.66,-76.81"/>
</a>
</g>
</g>
<!-- Node14 -->
<g id="Node000014" class="node">
<title>Node14</title>
<g id="a_Node000014"><a xlink:title=" ">
<polygon fill="#e0e0e0" stroke="#999999" points="525.25,-74.5 486.75,-74.5 486.75,-55.25 525.25,-55.25 525.25,-74.5"/>
<text text-anchor="middle" x="506" y="-61" font-family="Helvetica,sans-Serif" font-size="10.00">utility</text>
</a>
</g>
</g>
<!-- Node2&#45;&gt;Node14 -->
<g id="edge19_Node000002_Node000014" class="edge">
<title>Node2&#45;&gt;Node14</title>
<g id="a_edge19_Node000002_Node000014"><a xlink:title=" ">
<path fill="none" stroke="#63b8ff" d="M745.2,-165.31C698.53,-145.91 588.91,-100.34 535.84,-78.28"/>
<polygon fill="#63b8ff" stroke="#63b8ff" points="537.39,-75.13 526.81,-74.53 534.7,-81.6 537.39,-75.13"/>
</a>
</g>
</g>
<!-- Node4 -->
<g id="Node000004" class="node">
<title>Node4</title>
<g id="a_Node000004"><a xlink:title=" ">
<polygon fill="#e0e0e0" stroke="#999999" points="407,-19.25 367,-19.25 367,0 407,0 407,-19.25"/>
<text text-anchor="middle" x="387" y="-5.75" font-family="Helvetica,sans-Serif" font-size="10.00">string</text>
</a>
</g>
</g>
<!-- Node3&#45;&gt;Node4 -->
<g id="edge3_Node000003_Node000004" class="edge">
<title>Node3&#45;&gt;Node4</title>
<g id="a_edge3_Node000003_Node000004"><a xlink:title=" ">
<path fill="none" stroke="#63b8ff" d="M387,-55.08C387,-48.57 387,-39.42 387,-31.12"/>
<polygon fill="#63b8ff" stroke="#63b8ff" points="390.5,-31.12 387,-21.12 383.5,-31.12 390.5,-31.12"/>
</a>
</g>
</g>
<!-- Node5&#45;&gt;Node3 -->
<g id="edge5_Node000005_Node000003" class="edge">
<title>Node5&#45;&gt;Node3</title>
<g id="a_edge5_Node000005_Node000003"><a xlink:title=" ">
<path fill="none" stroke="#63b8ff" d="M762.38,-111.72C678.57,-101.49 528.33,-83.14 445.61,-73.03"/>
<polygon fill="#63b8ff" stroke="#63b8ff" points="446.25,-69.59 435.9,-71.85 445.4,-76.53 446.25,-69.59"/>
</a>
</g>
</g>
<!-- Node6 -->
<g id="Node000006" class="node">
<title>Node6</title>
<g id="a_Node000006"><a xlink:title=" ">
<polygon fill="#e0e0e0" stroke="#999999" points="701.88,-74.5 646.12,-74.5 646.12,-55.25 701.88,-55.25 701.88,-74.5"/>
<text text-anchor="middle" x="674" y="-61" font-family="Helvetica,sans-Serif" font-size="10.00">concepts</text>
</a>
</g>
</g>
<!-- Node5&#45;&gt;Node6 -->
<g id="edge6_Node000005_Node000006" class="edge">
<title>Node5&#45;&gt;Node6</title>
<g id="a_edge6_Node000005_Node000006"><a xlink:title=" ">
<path fill="none" stroke="#63b8ff" d="M797.72,-110.09C773.64,-101.49 737.14,-88.44 710.02,-78.75"/>
<polygon fill="#63b8ff" stroke="#63b8ff" points="711.42,-75.53 700.83,-75.46 709.06,-82.12 711.42,-75.53"/>
</a>
</g>
</g>
<!-- Node7 -->
<g id="Node000007" class="node">
<title>Node7</title>
<g id="a_Node000007"><a xlink:title=" ">
<polygon fill="#e0e0e0" stroke="#999999" points="847.12,-74.5 798.88,-74.5 798.88,-55.25 847.12,-55.25 847.12,-74.5"/>
<text text-anchor="middle" x="823" y="-61" font-family="Helvetica,sans-Serif" font-size="10.00">cstddef</text>
</a>
</g>
</g>
<!-- Node5&#45;&gt;Node7 -->
<g id="edge7_Node000005_Node000007" class="edge">
<title>Node5&#45;&gt;Node7</title>
<g id="a_edge7_Node000005_Node000007"><a xlink:title=" ">
<path fill="none" stroke="#63b8ff" d="M823,-110.33C823,-103.82 823,-94.67 823,-86.37"/>
<polygon fill="#63b8ff" stroke="#63b8ff" points="826.5,-86.37 823,-76.37 819.5,-86.37 826.5,-86.37"/>
</a>
</g>
</g>
<!-- Node5&#45;&gt;Node8 -->
<g id="edge8_Node000005_Node000008" class="edge">
<title>Node5&#45;&gt;Node8</title>
<g id="a_edge8_Node000005_Node000008"><a xlink:title=" ">
<path fill="none" stroke="#63b8ff" d="M833.35,-110.09C842.08,-102.47 854.79,-91.37 865.3,-82.2"/>
<polygon fill="#63b8ff" stroke="#63b8ff" points="867.43,-84.98 872.66,-75.77 862.83,-79.71 867.43,-84.98"/>
</a>
</g>
</g>
<!-- Node9 -->
<g id="Node000009" class="node">
<title>Node9</title>
<g id="a_Node000009"><a xlink:title=" ">
<polygon fill="#e0e0e0" stroke="#999999" points="780.5,-74.5 719.5,-74.5 719.5,-55.25 780.5,-55.25 780.5,-74.5"/>
<text text-anchor="middle" x="750" y="-61" font-family="Helvetica,sans-Serif" font-size="10.00">type_traits</text>
</a>
</g>
</g>
<!-- Node5&#45;&gt;Node9 -->
<g id="edge9_Node000005_Node000009" class="edge">
<title>Node5&#45;&gt;Node9</title>
<g id="a_edge9_Node000005_Node000009"><a xlink:title=" ">
<path fill="none" stroke="#63b8ff" d="M810.62,-110.09C799.85,-102.24 784.03,-90.7 771.25,-81.37"/>
<polygon fill="#63b8ff" stroke="#63b8ff" points="773.56,-78.73 763.42,-75.67 769.44,-84.39 773.56,-78.73"/>
</a>
</g>
</g>
<!-- Node10&#45;&gt;Node3 -->
<g id="edge11_Node000010_Node000003" class="edge">
<title>Node10&#45;&gt;Node3</title>
<g id="a_edge11_Node000010_Node000003"><a xlink:title=" ">
<path fill="none" stroke="#63b8ff" d="M421.23,-110.33C415.68,-103.13 407.66,-92.71 400.77,-83.76"/>
<polygon fill="#63b8ff" stroke="#63b8ff" points="403.71,-81.85 394.84,-76.06 398.17,-86.12 403.71,-81.85"/>
</a>
</g>
</g>
<!-- Node10&#45;&gt;Node8 -->
<g id="edge15_Node000010_Node000008" class="edge">
<title>Node10&#45;&gt;Node8</title>
<g id="a_edge15_Node000010_Node000008"><a xlink:title=" ">
<path fill="none" stroke="#63b8ff" d="M478.23,-117.06C556.65,-113.15 712.93,-102.58 854.15,-74.46"/>
<polygon fill="#63b8ff" stroke="#63b8ff" points="854.56,-77.95 863.67,-72.53 853.17,-71.09 854.56,-77.95"/>
</a>
</g>
</g>
<!-- Node10&#45;&gt;Node11 -->
<g id="edge12_Node000010_Node000011" class="edge">
<title>Node10&#45;&gt;Node11</title>
<g id="a_edge12_Node000010_Node000011"><a xlink:title=" ">
<path fill="none" stroke="#63b8ff" d="M377.61,-111.32C307.13,-100.42 180.88,-80.87 119.48,-71.37"/>
<polygon fill="#63b8ff" stroke="#63b8ff" points="120.36,-67.96 109.94,-69.89 119.29,-74.88 120.36,-67.96"/>
</a>
</g>
</g>
<!-- Node10&#45;&gt;Node12 -->
<g id="edge13_Node000010_Node000012" class="edge">
<title>Node10&#45;&gt;Node12</title>
<g id="a_edge13_Node000010_Node000012"><a xlink:title=" ">
<path fill="none" stroke="#63b8ff" d="M454.8,-110.09C480.45,-101.45 519.39,-88.32 548.19,-78.62"/>
<polygon fill="#63b8ff" stroke="#63b8ff" points="549.27,-81.95 557.63,-75.44 547.04,-75.31 549.27,-81.95"/>
</a>
</g>
</g>
<!-- Node13 -->
<g id="Node000013" class="node">
<title>Node13</title>
<g id="a_Node000013"><a xlink:title=" ">
<polygon fill="#e0e0e0" stroke="#999999" points="268.75,-74.5 203.25,-74.5 203.25,-55.25 268.75,-55.25 268.75,-74.5"/>
<text text-anchor="middle" x="236" y="-61" font-family="Helvetica,sans-Serif" font-size="10.00">string_view</text>
</a>
</g>
</g>
<!-- Node10&#45;&gt;Node13 -->
<g id="edge14_Node000010_Node000013" class="edge">
<title>Node10&#45;&gt;Node13</title>
<g id="a_edge14_Node000010_Node000013"><a xlink:title=" ">
<path fill="none" stroke="#63b8ff" d="M395.43,-110.09C363.57,-101.26 314.84,-87.74 279.64,-77.98"/>
<polygon fill="#63b8ff" stroke="#63b8ff" points="280.76,-74.66 270.19,-75.36 278.89,-81.4 280.76,-74.66"/>
</a>
</g>
</g>
<!-- Node10&#45;&gt;Node14 -->
<g id="edge16_Node000010_Node000014" class="edge">
<title>Node10&#45;&gt;Node14</title>
<g id="a_edge16_Node000010_Node000014"><a xlink:title=" ">
<path fill="none" stroke="#63b8ff" d="M441.23,-110.09C452.77,-102.21 469.77,-90.61 483.45,-81.27"/>
<polygon fill="#63b8ff" stroke="#63b8ff" points="485.17,-84.33 491.45,-75.81 481.22,-78.55 485.17,-84.33"/>
</a>
</g>
</g>
<!-- Node15&#45;&gt;Node3 -->
<g id="edge22_Node000015_Node000003" class="edge">
<title>Node15&#45;&gt;Node3</title>
<g id="a_edge22_Node000015_Node000003"><a xlink:title=" ">
<path fill="none" stroke="#63b8ff" d="M486.66,-228.07C419.95,-224.87 310.23,-215.05 285,-185 253.1,-147 318.29,-102.75 358.52,-80.39"/>
<polygon fill="#63b8ff" stroke="#63b8ff" points="360.14,-83.49 367.28,-75.66 356.82,-77.33 360.14,-83.49"/>
</a>
</g>
</g>
<!-- Node15&#45;&gt;Node4 -->
<g id="edge40_Node000015_Node000004" class="edge">
<title>Node15&#45;&gt;Node4</title>
<g id="a_edge40_Node000015_Node000004"><a xlink:title=" ">
<path fill="none" stroke="#63b8ff" d="M591.29,-225.15C665.27,-218.25 796.35,-203.85 840,-185 900.55,-158.85 956.62,-103.82 912,-55.25 878.56,-18.84 527.25,-12.1 418.74,-10.89"/>
<polygon fill="#63b8ff" stroke="#63b8ff" points="418.86,-7.39 408.83,-10.78 418.79,-14.39 418.86,-7.39"/>
</a>
</g>
</g>
<!-- Node15&#45;&gt;Node5 -->
<g id="edge32_Node000015_Node000005" class="edge">
<title>Node15&#45;&gt;Node5</title>
<g id="a_edge32_Node000015_Node000005"><a xlink:title=" ">
<path fill="none" stroke="#63b8ff" d="M591.27,-225C668.88,-217.6 807.08,-202.18 822,-185 832.24,-173.21 831.52,-155.07 828.8,-141.13"/>
<polygon fill="#63b8ff" stroke="#63b8ff" points="832.26,-140.58 826.48,-131.7 825.47,-142.25 832.26,-140.58"/>
</a>
</g>
</g>
<!-- Node15&#45;&gt;Node10 -->
<g id="edge33_Node000015_Node000010" class="edge">
<title>Node15&#45;&gt;Node10</title>
<g id="a_edge33_Node000015_Node000010"><a xlink:title=" ">
<path fill="none" stroke="#63b8ff" d="M498.72,-220.58C478.5,-214 455.32,-202.99 441,-185 431.18,-172.66 428.2,-154.83 427.52,-141.14"/>
<polygon fill="#63b8ff" stroke="#63b8ff" points="431.03,-141.49 427.43,-131.52 424.03,-141.56 431.03,-141.49"/>
</a>
</g>
</g>
<!-- Node15&#45;&gt;Node12 -->
<g id="edge38_Node000015_Node000012" class="edge">
<title>Node15&#45;&gt;Node12</title>
<g id="a_edge38_Node000015_Node000012"><a xlink:title=" ">
<path fill="none" stroke="#63b8ff" d="M591.21,-222.06C613.52,-215.95 637.49,-204.92 651,-185 674.65,-150.11 633.5,-105.81 606.57,-82.29"/>
<polygon fill="#63b8ff" stroke="#63b8ff" points="608.83,-79.62 598.92,-75.86 604.33,-84.97 608.83,-79.62"/>
</a>
</g>
</g>
<!-- Node15&#45;&gt;Node13 -->
<g id="edge41_Node000015_Node000013" class="edge">
<title>Node15&#45;&gt;Node13</title>
<g id="a_edge41_Node000015_Node000013"><a xlink:title=" ">
<path fill="none" stroke="#63b8ff" d="M486.69,-227.23C418.45,-223.07 304.08,-212.15 273,-185 244.27,-159.9 237.56,-112.93 236.17,-86.08"/>
<polygon fill="#63b8ff" stroke="#63b8ff" points="239.67,-86.11 235.88,-76.21 232.67,-86.31 239.67,-86.11"/>
</a>
</g>
</g>
<!-- Node15&#45;&gt;Node14 -->
<g id="edge42_Node000015_Node000014" class="edge">
<title>Node15&#45;&gt;Node14</title>
<g id="a_edge42_Node000015_Node000014"><a xlink:title=" ">
<path fill="none" stroke="#63b8ff" d="M579.46,-220.55C611.84,-211.06 649.73,-193.6 636,-165.75 624.61,-142.63 564.26,-102.23 529.94,-80.58"/>
<polygon fill="#63b8ff" stroke="#63b8ff" points="532.22,-77.88 521.89,-75.55 528.51,-83.81 532.22,-77.88"/>
</a>
</g>
</g>
<!-- Node16 -->
<g id="Node000016" class="node">
<title>Node16</title>
<g id="a_Node000016"><a xlink:href="../../d9/dc5/_string_8hpp.html" target="_top" xlink:title=" ">
<polygon fill="white" stroke="#666666" points="394.38,-185 293.62,-185 293.62,-165.75 394.38,-165.75 394.38,-185"/>
<text text-anchor="middle" x="344" y="-171.5" font-family="Helvetica,sans-Serif" font-size="10.00">mimic++/String.hpp</text>
</a>
</g>
</g>
<!-- Node15&#45;&gt;Node16 -->
<g id="edge23_Node000015_Node000016" class="edge">
<title>Node15&#45;&gt;Node16</title>
<g id="a_edge23_Node000015_Node000016"><a xlink:title=" ">
<path fill="none" stroke="#63b8ff" d="M505.92,-220.59C473.56,-211.76 424.08,-198.24 388.33,-188.48"/>
<polygon fill="#63b8ff" stroke="#63b8ff" points="389.27,-185.11 378.7,-185.85 387.43,-191.86 389.27,-185.11"/>
</a>
</g>
</g>
<!-- Node15&#45;&gt;Node17 -->
<g id="edge35_Node000015_Node000017" class="edge">
<title>Node15&#45;&gt;Node17</title>
<g id="a_edge35_Node000015_Node000017"><a xlink:title=" ">
<path fill="none" stroke="#63b8ff" d="M486.64,-228.58C421.21,-225.91 306.56,-216.63 214,-185 180.4,-173.52 145.52,-151.5 124.04,-136.56"/>
<polygon fill="#63b8ff" stroke="#63b8ff" points="126.31,-133.88 116.13,-130.95 122.26,-139.59 126.31,-133.88"/>
</a>
</g>
</g>
<!-- Node15&#45;&gt;Node18 -->
<g id="edge37_Node000015_Node000018" class="edge">
<title>Node15&#45;&gt;Node18</title>
<g id="a_edge37_Node000015_Node000018"><a xlink:title=" ">
<path fill="none" stroke="#63b8ff" d="M591.14,-224.11C682.58,-214.28 864.88,-193.92 893,-185 912.13,-178.93 958.82,-152.72 988,-135.82"/>
<polygon fill="#63b8ff" stroke="#63b8ff" points="989.69,-138.89 996.57,-130.83 986.16,-132.84 989.69,-138.89"/>
</a>
</g>
</g>
<!-- Node19 -->
<g id="Node000019" class="node">
<title>Node19</title>
<g id="a_Node000019"><a xlink:title=" ">
<polygon fill="#e0e0e0" stroke="#999999" points="495.62,-185 450.38,-185 450.38,-165.75 495.62,-165.75 495.62,-185"/>
<text text-anchor="middle" x="473" y="-171.5" font-family="Helvetica,sans-Serif" font-size="10.00">cstdint</text>
</a>
</g>
</g>
<!-- Node15&#45;&gt;Node19 -->
<g id="edge34_Node000015_Node000019" class="edge">
<title>Node15&#45;&gt;Node19</title>
<g id="a_edge34_Node000015_Node000019"><a xlink:title=" ">
<path fill="none" stroke="#63b8ff" d="M527.8,-220.59C518.26,-212.9 504.33,-201.65 492.89,-192.43"/>
<polygon fill="#63b8ff" stroke="#63b8ff" points="495.19,-189.78 485.21,-186.23 490.79,-195.23 495.19,-189.78"/>
</a>
</g>
</g>
<!-- Node20 -->
<g id="Node000020" class="node">
<title>Node20</title>
<g id="a_Node000020"><a xlink:title=" ">
<polygon fill="#e0e0e0" stroke="#999999" points="991,-185 945,-185 945,-165.75 991,-165.75 991,-185"/>
<text text-anchor="middle" x="968" y="-171.5" font-family="Helvetica,sans-Serif" font-size="10.00">iterator</text>
</a>
</g>
</g>
<!-- Node15&#45;&gt;Node20 -->
<g id="edge36_Node000015_Node000020" class="edge">
<title>Node15&#45;&gt;Node20</title>
<g id="a_edge36_Node000015_Node000020"><a xlink:title=" ">
<path fill="none" stroke="#63b8ff" d="M591.31,-224.43C682.49,-215.25 866.97,-196.07 931,-185 931.83,-184.86 932.67,-184.71 933.51,-184.55"/>
<polygon fill="#63b8ff" stroke="#63b8ff" points="934.03,-188.02 943.11,-182.57 932.61,-181.16 934.03,-188.02"/>
</a>
</g>
</g>
<!-- Node21 -->
<g id="Node000021" class="node">
<title>Node21</title>
<g id="a_Node000021"><a xlink:title=" ">
<polygon fill="#e0e0e0" stroke="#999999" points="564.62,-185 513.38,-185 513.38,-165.75 564.62,-165.75 564.62,-185"/>
<text text-anchor="middle" x="539" y="-171.5" font-family="Helvetica,sans-Serif" font-size="10.00">sstream</text>
</a>
</g>
</g>
<!-- Node15&#45;&gt;Node21 -->
<g id="edge39_Node000015_Node000021" class="edge">
<title>Node15&#45;&gt;Node21</title>
<g id="a_edge39_Node000015_Node000021"><a xlink:title=" ">
<path fill="none" stroke="#63b8ff" d="M539,-220.83C539,-214.32 539,-205.17 539,-196.87"/>
<polygon fill="#63b8ff" stroke="#63b8ff" points="542.5,-196.87 539,-186.87 535.5,-196.87 542.5,-196.87"/>
</a>
</g>
</g>
<!-- Node22 -->
<g id="Node000022" class="node">
<title>Node22</title>
<g id="a_Node000022"><a xlink:title=" ">
<polygon fill="#e0e0e0" stroke="#999999" points="626.88,-185 583.12,-185 583.12,-165.75 626.88,-165.75 626.88,-185"/>
<text text-anchor="middle" x="605" y="-171.5" font-family="Helvetica,sans-Serif" font-size="10.00">format</text>
</a>
</g>
</g>
<!-- Node15&#45;&gt;Node22 -->
<g id="edge43_Node000015_Node000022" class="edge">
<title>Node15&#45;&gt;Node22</title>
<g id="a_edge43_Node000015_Node000022"><a xlink:title=" ">
<path fill="none" stroke="#63b8ff" d="M550.2,-220.59C559.74,-212.9 573.67,-201.65 585.11,-192.43"/>
<polygon fill="#63b8ff" stroke="#63b8ff" points="587.21,-195.23 592.79,-186.23 582.81,-189.78 587.21,-195.23"/>
</a>
</g>
</g>
<!-- Node16&#45;&gt;Node3 -->
<g id="edge24_Node000016_Node000003" class="edge">
<title>Node16&#45;&gt;Node3</title>
<g id="a_edge24_Node000016_Node000003"><a xlink:title=" ">
<path fill="none" stroke="#63b8ff" d="M347.53,-165.27C352.35,-152.86 361.26,-129.98 369,-110.5 372.28,-102.25 375.94,-93.16 379.09,-85.35"/>
<polygon fill="#63b8ff" stroke="#63b8ff" points="382.31,-86.74 382.82,-76.16 375.82,-84.11 382.31,-86.74"/>
</a>
</g>
</g>
<!-- Node16&#45;&gt;Node4 -->
<g id="edge29_Node000016_Node000004" class="edge">
<title>Node16&#45;&gt;Node4</title>
<g id="a_edge29_Node000016_Node000004"><a xlink:title=" ">
<path fill="none" stroke="#63b8ff" d="M339.94,-165.46C331.22,-144.87 312.85,-92.92 331,-55.25 336.91,-42.99 348,-33.05 358.77,-25.7"/>
<polygon fill="#63b8ff" stroke="#63b8ff" points="360.5,-28.74 367.13,-20.47 356.79,-22.81 360.5,-28.74"/>
</a>
</g>
</g>
<!-- Node16&#45;&gt;Node6 -->
<g id="edge26_Node000016_Node000006" class="edge">
<title>Node16&#45;&gt;Node6</title>
<g id="a_edge26_Node000016_Node000006"><a xlink:title=" ">
<path fill="none" stroke="#63b8ff" d="M373.93,-165.29C402.91,-156.43 448.06,-142.47 487,-129.75 539.53,-112.58 600,-91.73 637.62,-78.62"/>
<polygon fill="#63b8ff" stroke="#63b8ff" points="638.34,-82.08 646.63,-75.48 636.03,-75.47 638.34,-82.08"/>
</a>
</g>
</g>
<!-- Node16&#45;&gt;Node9 -->
<g id="edge31_Node000016_Node000009" class="edge">
<title>Node16&#45;&gt;Node9</title>
<g id="a_edge31_Node000016_Node000009"><a xlink:title=" ">
<path fill="none" stroke="#63b8ff" d="M383.83,-165.31C421.38,-156.63 479.18,-142.95 529,-129.75 592.22,-113 664.98,-91.54 709.21,-78.26"/>
<polygon fill="#63b8ff" stroke="#63b8ff" points="710.08,-81.65 718.64,-75.42 708.06,-74.95 710.08,-81.65"/>
</a>
</g>
</g>
<!-- Node16&#45;&gt;Node10 -->
<g id="edge25_Node000016_Node000010" class="edge">
<title>Node16&#45;&gt;Node10</title>
<g id="a_edge25_Node000016_Node000010"><a xlink:title=" ">
<path fill="none" stroke="#63b8ff" d="M358.25,-165.34C370.8,-157.39 389.33,-145.64 404.14,-136.25"/>
<polygon fill="#63b8ff" stroke="#63b8ff" points="405.83,-139.32 412.4,-131.01 402.08,-133.41 405.83,-139.32"/>
</a>
</g>
</g>
<!-- Node16&#45;&gt;Node13 -->
<g id="edge30_Node000016_Node000013" class="edge">
<title>Node16&#45;&gt;Node13</title>
<g id="a_edge30_Node000016_Node000013"><a xlink:title=" ">
<path fill="none" stroke="#63b8ff" d="M334.76,-165.57C325.41,-156.62 310.59,-142.34 298,-129.75 282.19,-113.95 264.46,-95.61 252.02,-82.65"/>
<polygon fill="#63b8ff" stroke="#63b8ff" points="254.83,-80.53 245.39,-75.73 249.78,-85.37 254.83,-80.53"/>
</a>
</g>
</g>
<!-- Node16&#45;&gt;Node17 -->
<g id="edge27_Node000016_Node000017" class="edge">
<title>Node16&#45;&gt;Node17</title>
<g id="a_edge27_Node000016_Node000017"><a xlink:title=" ">
<path fill="none" stroke="#63b8ff" d="M302.84,-165.28C258.29,-155.44 187.69,-139.84 143.43,-130.06"/>
<polygon fill="#63b8ff" stroke="#63b8ff" points="144.23,-126.65 133.71,-127.91 142.72,-133.49 144.23,-126.65"/>
</a>
</g>
</g>
<!-- Node16&#45;&gt;Node18 -->
<g id="edge28_Node000016_Node000018" class="edge">
<title>Node16&#45;&gt;Node18</title>
<g id="a_edge28_Node000016_Node000018"><a xlink:title=" ">
<path fill="none" stroke="#63b8ff" d="M394.84,-169.75C409.71,-168.43 426.01,-167 441,-165.75 645.04,-148.72 890.19,-130.27 978.89,-123.66"/>
<polygon fill="#63b8ff" stroke="#63b8ff" points="978.88,-127.17 988.6,-122.93 978.36,-120.19 978.88,-127.17"/>
</a>
</g>
</g>
<!-- Node23&#45;&gt;Node2 -->
<g id="edge45_Node000023_Node000002" class="edge">
<title>Node23&#45;&gt;Node2</title>
<g id="a_edge45_Node000023_Node000002"><a xlink:title=" ">
<path fill="none" stroke="#63b8ff" d="M810.15,-276C802.61,-258.59 785.73,-219.62 775.46,-195.91"/>
<polygon fill="#63b8ff" stroke="#63b8ff" points="778.69,-194.55 771.5,-186.77 772.26,-197.33 778.69,-194.55"/>
</a>
</g>
</g>
<!-- Node23&#45;&gt;Node3 -->
<g id="edge46_Node000023_Node000003" class="edge">
<title>Node23&#45;&gt;Node3</title>
<g id="a_edge46_Node000023_Node000003"><a xlink:title=" ">
<path fill="none" stroke="#63b8ff" d="M759.31,-283.62C633.84,-279.44 331.6,-261.48 273,-185 259.59,-167.5 272.65,-129.41 289,-110.5 301.75,-95.74 320.39,-85.6 338,-78.76"/>
<polygon fill="#63b8ff" stroke="#63b8ff" points="339.1,-82.09 347.34,-75.43 336.75,-75.49 339.1,-82.09"/>
</a>
</g>
</g>
<!-- Node23&#45;&gt;Node15 -->
<g id="edge47_Node000023_Node000015" class="edge">
<title>Node23&#45;&gt;Node15</title>
<g id="a_edge47_Node000023_Node000015"><a xlink:title=" ">
<path fill="none" stroke="#63b8ff" d="M767.04,-275.78C719.97,-266.67 647.43,-252.62 596.85,-242.83"/>
<polygon fill="#63b8ff" stroke="#63b8ff" points="597.74,-239.43 587.25,-240.97 596.41,-246.31 597.74,-239.43"/>
</a>
</g>
</g>
<!-- Node23&#45;&gt;Node17 -->
<g id="edge49_Node000023_Node000017" class="edge">
<title>Node23&#45;&gt;Node17</title>
<g id="a_edge49_Node000023_Node000017"><a xlink:title=" ">
<path fill="none" stroke="#63b8ff" d="M759.02,-283.89C613.35,-280.88 225.21,-270.11 176,-240.25 138.79,-217.67 117.88,-168.21 108.7,-140.65"/>
<polygon fill="#63b8ff" stroke="#63b8ff" points="112.15,-139.96 105.83,-131.46 105.47,-142.05 112.15,-139.96"/>
</a>
</g>
</g>
<!-- Node23&#45;&gt;Node18 -->
<g id="edge52_Node000023_Node000018" class="edge">
<title>Node23&#45;&gt;Node18</title>
<g id="a_edge52_Node000023_Node000018"><a xlink:title=" ">
<path fill="none" stroke="#63b8ff" d="M822.51,-275.77C835.74,-262.1 862.59,-236.25 890,-221 934.95,-196 965.79,-223.41 1000,-185 1010.49,-173.22 1013.41,-155.34 1013.9,-141.49"/>
<polygon fill="#63b8ff" stroke="#63b8ff" points="1017.4,-141.68 1013.82,-131.71 1010.4,-141.74 1017.4,-141.68"/>
</a>
</g>
</g>
<!-- Node23&#45;&gt;Node20 -->
<g id="edge50_Node000023_Node000020" class="edge">
<title>Node23&#45;&gt;Node20</title>
<g id="a_edge50_Node000023_Node000020"><a xlink:title=" ">
<path fill="none" stroke="#63b8ff" d="M817.96,-275.79C824.33,-262.13 838.09,-236.3 857,-221 879.48,-202.81 910.34,-191.21 933.81,-184.41"/>
<polygon fill="#63b8ff" stroke="#63b8ff" points="934.49,-187.85 943.21,-181.84 932.64,-181.1 934.49,-187.85"/>
</a>
</g>
</g>
<!-- Node23&#45;&gt;Node24 -->
<g id="edge48_Node000023_Node000024" class="edge">
<title>Node23&#45;&gt;Node24</title>
<g id="a_edge48_Node000023_Node000024"><a xlink:title=" ">
<path fill="none" stroke="#63b8ff" d="M833.17,-275.84C850.78,-267.54 877.16,-255.11 897.46,-245.54"/>
<polygon fill="#63b8ff" stroke="#63b8ff" points="898.81,-248.78 906.37,-241.35 895.83,-242.44 898.81,-248.78"/>
</a>
</g>
</g>
<!-- Node23&#45;&gt;Node25 -->
<g id="edge51_Node000023_Node000025" class="edge">
<title>Node23&#45;&gt;Node25</title>
<g id="a_edge51_Node000023_Node000025"><a xlink:title=" ">
<path fill="none" stroke="#63b8ff" d="M845.21,-275.84C877.55,-266.48 928.01,-251.88 962.01,-242.04"/>
<polygon fill="#63b8ff" stroke="#63b8ff" points="962.77,-245.47 971.4,-239.32 960.82,-238.74 962.77,-245.47"/>
</a>
</g>
</g>
<!-- Node26 -->
<g id="Node000026" class="node">
<title>Node26</title>
<g id="a_Node000026"><a xlink:title=" ">
<polygon fill="#e0e0e0" stroke="#999999" points="703.25,-240.25 646.75,-240.25 646.75,-221 703.25,-221 703.25,-240.25"/>
<text text-anchor="middle" x="675" y="-226.75" font-family="Helvetica,sans-Serif" font-size="10.00">typeindex</text>
</a>
</g>
</g>
<!-- Node23&#45;&gt;Node26 -->
<g id="edge53_Node000023_Node000026" class="edge">
<title>Node23&#45;&gt;Node26</title>
<g id="a_edge53_Node000023_Node000026"><a xlink:title=" ">
<path fill="none" stroke="#63b8ff" d="M790.42,-275.84C768.16,-267.31 734.51,-254.42 709.28,-244.76"/>
<polygon fill="#63b8ff" stroke="#63b8ff" points="710.7,-241.55 700.11,-241.24 708.19,-248.09 710.7,-241.55"/>
</a>
</g>
</g>
<!-- Node27 -->
<g id="Node000027" class="node">
<title>Node27</title>
<g id="a_Node000027"><a xlink:title=" ">
<polygon fill="#e0e0e0" stroke="#999999" points="766.62,-240.25 721.38,-240.25 721.38,-221 766.62,-221 766.62,-240.25"/>
<text text-anchor="middle" x="744" y="-226.75" font-family="Helvetica,sans-Serif" font-size="10.00">variant</text>
</a>
</g>
</g>
<!-- Node23&#45;&gt;Node27 -->
<g id="edge54_Node000023_Node000027" class="edge">
<title>Node23&#45;&gt;Node27</title>
<g id="a_edge54_Node000023_Node000027"><a xlink:title=" ">
<path fill="none" stroke="#63b8ff" d="M802.13,-275.84C791.91,-268.07 776.93,-256.67 764.74,-247.4"/>
<polygon fill="#63b8ff" stroke="#63b8ff" points="766.98,-244.71 756.9,-241.44 762.74,-250.28 766.98,-244.71"/>
</a>
</g>
</g>
<!-- Node23&#45;&gt;Node28 -->
<g id="edge55_Node000023_Node000028" class="edge">
<title>Node23&#45;&gt;Node28</title>
<g id="a_edge55_Node000023_Node000028"><a xlink:title=" ">
<path fill="none" stroke="#63b8ff" d="M864.03,-275.78C905.87,-267.92 967.34,-255.78 1028.99,-240.85"/>
<polygon fill="#63b8ff" stroke="#63b8ff" points="1029.75,-244.27 1038.63,-238.5 1028.08,-237.47 1029.75,-244.27"/>
</a>
</g>
</g>
</g>
</svg>

<g id="navigator" transform="translate(0 0)" fill="#404254">
  <rect fill="#f2f5e9" fill-opacity="0.5" stroke="#606060" stroke-width=".5" x="0" y="0" width="60" height="60"/>
  <use id="zoomplus" xlink:href="#zoomPlus" x="17" y="9" onmousedown="handleZoom(evt,'in')"/>
  <use id="zoomminus" xlink:href="#zoomMin" x="42" y="9" onmousedown="handleZoom(evt,'out')"/>
  <use id="reset" xlink:href="#resetDef" x="30" y="36" onmousedown="handleReset()"/>
   <use id="arrowup" xlink:href="#arrowUp" x="0" y="0" onmousedown="handlePan(0,-1)"/>
  <use id="arrowright" xlink:href="#arrowRight" x="0" y="0" onmousedown="handlePan(1,0)"/>
  <use id="arrowdown" xlink:href="#arrowDown" x="0" y="0" onmousedown="handlePan(0,1)"/>
  <use id="arrowleft" xlink:href="#arrowLeft" x="0" y="0" onmousedown="handlePan(-1,0)"/>
</g>
<svg viewBox="0 0 15 15" width="100%" height="30px" preserveAspectRatio="xMaxYMin meet">
 <g id="arrow_out" transform="scale(0.3 0.3)">
  <a xlink:href="_reporter_8hpp__incl_org.svg" target="_base">
   <rect id="button" ry="5" rx="5" y="6" x="6" height="38" width="38"
        fill="#f2f5e9" fill-opacity="0.5" stroke="#606060" stroke-width="1.0"/>
   <path id="arrow"
     d="M 11.500037,31.436501 C 11.940474,20.09759 22.043105,11.32322 32.158766,21.979434 L 37.068811,17.246167 C 37.068811,17.246167 37.088388,32 37.088388,32 L 22.160133,31.978069 C 22.160133,31.978069 26.997745,27.140456 26.997745,27.140456 C 18.528582,18.264221 13.291696,25.230495 11.500037,31.436501 z"
     style="fill:#404040;"/>
  </a>
 </g>
</svg>

<style type='text/css'>
<![CDATA[
[data-mouse-over-selected='false'] { opacity: 0.7; }
[data-mouse-over-selected='true']  { opacity: 1.0; }
]]>
</style>
<script type="application/ecmascript"><![CDATA[
document.addEventListener('DOMContentLoaded', (event) => {
  highlightEdges();
  highlightAdjacentNodes();
});
]]></script>
</svg>
