<?xml version="1.0" encoding="UTF-8" standalone="no"?>
<!DOCTYPE svg PUBLIC "-//W3C//DTD SVG 1.1//EN"
 "http://www.w3.org/Graphics/SVG/1.1/DTD/svg11.dtd">
<!-- Generated by graphviz version 9.0.0 (20230911.1827)
 -->
<!-- Title: mimic++/Reporter.hpp Pages: 1 -->
<svg width="1040pt" height="193pt"
 viewBox="0.00 0.00 1040.34 193.00" xmlns="http://www.w3.org/2000/svg" xmlns:xlink="http://www.w3.org/1999/xlink">
<g id="graph0" class="graph" transform="scale(1 1) rotate(0) translate(4 189)">
<title>mimic++/Reporter.hpp</title>
<!-- Node1 -->
<g id="Node000001" class="node">
<title>Node1</title>
<g id="a_Node000001"><a xlink:title=" ">
<polygon fill="#999999" stroke="#666666" points="739.84,-185 627.84,-185 627.84,-165.75 739.84,-165.75 739.84,-185"/>
<text text-anchor="middle" x="683.84" y="-171.5" font-family="Helvetica,sans-Serif" font-size="10.00">mimic++/Reporter.hpp</text>
</a>
</g>
</g>
<!-- Node2 -->
<g id="Node000002" class="node">
<title>Node2</title>
<g id="a_Node000002"><a xlink:href="../../dc/d44/_call_8hpp.html" target="_top" xlink:title=" ">
<polygon fill="white" stroke="#666666" points="655.71,-129.75 563.96,-129.75 563.96,-110.5 655.71,-110.5 655.71,-129.75"/>
<text text-anchor="middle" x="609.84" y="-116.25" font-family="Helvetica,sans-Serif" font-size="10.00">mimic++/Call.hpp</text>
</a>
</g>
</g>
<!-- Node1&#45;&gt;Node2 -->
<g id="edge1_Node000001_Node000002" class="edge">
<title>Node1&#45;&gt;Node2</title>
<g id="a_edge1_Node000001_Node000002"><a xlink:title=" ">
<path fill="none" stroke="#63b8ff" d="M671.29,-165.34C660.38,-157.49 644.34,-145.95 631.38,-136.62"/>
<polygon fill="#63b8ff" stroke="#63b8ff" points="633.6,-133.91 623.44,-130.91 629.51,-139.59 633.6,-133.91"/>
</a>
</g>
</g>
<!-- Node13 -->
<g id="Node000013" class="node">
<title>Node13</title>
<g id="a_Node000013"><a xlink:title=" ">
<polygon fill="#e0e0e0" stroke="#999999" points="1032.34,-74.5 989.34,-74.5 989.34,-55.25 1032.34,-55.25 1032.34,-74.5"/>
<text text-anchor="middle" x="1010.84" y="-61" font-family="Helvetica,sans-Serif" font-size="10.00">vector</text>
</a>
</g>
</g>
<!-- Node1&#45;&gt;Node13 -->
<g id="edge25_Node000001_Node000013" class="edge">
<title>Node1&#45;&gt;Node13</title>
<g id="a_edge25_Node000001_Node000013"><a xlink:title=" ">
<path fill="none" stroke="#63b8ff" d="M683.66,-165.33C683.91,-151.26 686.63,-124.3 702.84,-110.5 747.87,-72.17 902.94,-85.56 977.7,-74.56"/>
<polygon fill="#63b8ff" stroke="#63b8ff" points="978.25,-78.02 987.49,-72.84 977.03,-71.12 978.25,-78.02"/>
</a>
</g>
</g>
<!-- Node14 -->
<g id="Node000014" class="node">
<title>Node14</title>
<g id="a_Node000014"><a xlink:href="../../da/dab/_printer_8hpp.html" target="_top" xlink:title=" ">
<polygon fill="white" stroke="#666666" points="232.71,-129.75 128.96,-129.75 128.96,-110.5 232.71,-110.5 232.71,-129.75"/>
<text text-anchor="middle" x="180.84" y="-116.25" font-family="Helvetica,sans-Serif" font-size="10.00">mimic++/Printer.hpp</text>
</a>
</g>
</g>
<!-- Node1&#45;&gt;Node14 -->
<g id="edge16_Node000001_Node000014" class="edge">
<title>Node1&#45;&gt;Node14</title>
<g id="a_edge16_Node000001_Node000014"><a xlink:title=" ">
<path fill="none" stroke="#63b8ff" d="M627.6,-168.42C533.16,-158.42 343.31,-138.33 244.26,-127.84"/>
<polygon fill="#63b8ff" stroke="#63b8ff" points="244.75,-124.37 234.44,-126.8 244.01,-131.33 244.75,-124.37"/>
</a>
</g>
</g>
<!-- Node19 -->
<g id="Node000019" class="node">
<title>Node19</title>
<g id="a_Node000019"><a xlink:title=" ">
<polygon fill="#e0e0e0" stroke="#999999" points="769.46,-129.75 712.21,-129.75 712.21,-110.5 769.46,-110.5 769.46,-129.75"/>
<text text-anchor="middle" x="740.84" y="-116.25" font-family="Helvetica,sans-Serif" font-size="10.00">exception</text>
</a>
</g>
</g>
<!-- Node1&#45;&gt;Node19 -->
<g id="edge23_Node000001_Node000019" class="edge">
<title>Node1&#45;&gt;Node19</title>
<g id="a_edge23_Node000001_Node000019"><a xlink:title=" ">
<path fill="none" stroke="#63b8ff" d="M693.51,-165.34C701.58,-157.8 713.31,-146.85 723.06,-137.73"/>
<polygon fill="#63b8ff" stroke="#63b8ff" points="725.29,-140.44 730.21,-131.06 720.51,-135.33 725.29,-140.44"/>
</a>
</g>
</g>
<!-- Node20 -->
<g id="Node000020" class="node">
<title>Node20</title>
<g id="a_Node000020"><a xlink:title=" ">
<polygon fill="#e0e0e0" stroke="#999999" points="838.09,-129.75 787.59,-129.75 787.59,-110.5 838.09,-110.5 838.09,-129.75"/>
<text text-anchor="middle" x="812.84" y="-116.25" font-family="Helvetica,sans-Serif" font-size="10.00">memory</text>
</a>
</g>
</g>
<!-- Node1&#45;&gt;Node20 -->
<g id="edge24_Node000001_Node000020" class="edge">
<title>Node1&#45;&gt;Node20</title>
<g id="a_edge24_Node000001_Node000020"><a xlink:title=" ">
<path fill="none" stroke="#63b8ff" d="M705.72,-165.34C726.2,-156.89 757.05,-144.15 780.4,-134.52"/>
<polygon fill="#63b8ff" stroke="#63b8ff" points="781.54,-137.83 789.45,-130.78 778.87,-131.36 781.54,-137.83"/>
</a>
</g>
</g>
<!-- Node3 -->
<g id="Node000003" class="node">
<title>Node3</title>
<g id="a_Node000003"><a xlink:href="../../d8/d32/_type_traits_8hpp.html" target="_top" xlink:title=" ">
<polygon fill="white" stroke="#666666" points="971.34,-74.5 850.34,-74.5 850.34,-55.25 971.34,-55.25 971.34,-74.5"/>
<text text-anchor="middle" x="910.84" y="-61" font-family="Helvetica,sans-Serif" font-size="10.00">mimic++/TypeTraits.hpp</text>
</a>
</g>
</g>
<!-- Node2&#45;&gt;Node3 -->
<g id="edge2_Node000002_Node000003" class="edge">
<title>Node2&#45;&gt;Node3</title>
<g id="a_edge2_Node000002_Node000003"><a xlink:title=" ">
<path fill="none" stroke="#63b8ff" d="M656.21,-110.92C707.69,-101.81 791.06,-87.07 848.29,-76.94"/>
<polygon fill="#63b8ff" stroke="#63b8ff" points="848.64,-80.43 857.88,-75.24 847.42,-73.54 848.64,-80.43"/>
</a>
</g>
</g>
<!-- Node4 -->
<g id="Node000004" class="node">
<title>Node4</title>
<g id="a_Node000004"><a xlink:title=" ">
<polygon fill="#e0e0e0" stroke="#999999" points="600.34,-19.25 563.34,-19.25 563.34,0 600.34,0 600.34,-19.25"/>
<text text-anchor="middle" x="581.84" y="-5.75" font-family="Helvetica,sans-Serif" font-size="10.00">tuple</text>
</a>
</g>
</g>
<!-- Node2&#45;&gt;Node4 -->
<g id="edge13_Node000002_Node000004" class="edge">
<title>Node2&#45;&gt;Node4</title>
<g id="a_edge13_Node000002_Node000004"><a xlink:title=" ">
<path fill="none" stroke="#63b8ff" d="M599.05,-110.14C590.1,-101.92 578.03,-88.89 572.84,-74.5 567.72,-60.29 570.49,-43.32 574.26,-30.44"/>
<polygon fill="#63b8ff" stroke="#63b8ff" points="577.56,-31.61 577.47,-21.01 570.94,-29.35 577.56,-31.61"/>
</a>
</g>
</g>
<!-- Node5 -->
<g id="Node000005" class="node">
<title>Node5</title>
<g id="a_Node000005"><a xlink:href="../../d4/d2c/_utility_8hpp.html" target="_top" xlink:title=" ">
<polygon fill="white" stroke="#666666" points="487.84,-74.5 387.84,-74.5 387.84,-55.25 487.84,-55.25 487.84,-74.5"/>
<text text-anchor="middle" x="437.84" y="-61" font-family="Helvetica,sans-Serif" font-size="10.00">mimic++/Utility.hpp</text>
</a>
</g>
</g>
<!-- Node2&#45;&gt;Node5 -->
<g id="edge4_Node000002_Node000005" class="edge">
<title>Node2&#45;&gt;Node5</title>
<g id="a_edge4_Node000002_Node000005"><a xlink:title=" ">
<path fill="none" stroke="#63b8ff" d="M580.66,-110.09C552.37,-101.33 509.23,-87.98 477.76,-78.23"/>
<polygon fill="#63b8ff" stroke="#63b8ff" points="479.19,-75.01 468.61,-75.4 477.12,-81.7 479.19,-75.01"/>
</a>
</g>
</g>
<!-- Node6 -->
<g id="Node000006" class="node">
<title>Node6</title>
<g id="a_Node000006"><a xlink:title=" ">
<polygon fill="#e0e0e0" stroke="#999999" points="381.71,-19.25 337.96,-19.25 337.96,0 381.71,0 381.71,-19.25"/>
<text text-anchor="middle" x="359.84" y="-5.75" font-family="Helvetica,sans-Serif" font-size="10.00">format</text>
</a>
</g>
</g>
<!-- Node2&#45;&gt;Node6 -->
<g id="edge8_Node000002_Node000006" class="edge">
<title>Node2&#45;&gt;Node6</title>
<g id="a_edge8_Node000002_Node000006"><a xlink:title=" ">
<path fill="none" stroke="#63b8ff" d="M563.56,-115.8C504.11,-110.61 405.4,-98.57 378.84,-74.5 366.64,-63.44 362.13,-44.94 360.53,-30.69"/>
<polygon fill="#63b8ff" stroke="#63b8ff" points="364.05,-30.79 359.87,-21.06 357.07,-31.28 364.05,-30.79"/>
</a>
</g>
</g>
<!-- Node7 -->
<g id="Node000007" class="node">
<title>Node7</title>
<g id="a_Node000007"><a xlink:title=" ">
<polygon fill="#e0e0e0" stroke="#999999" points="528.96,-19.25 444.71,-19.25 444.71,0 528.96,0 528.96,-19.25"/>
<text text-anchor="middle" x="486.84" y="-5.75" font-family="Helvetica,sans-Serif" font-size="10.00">source_location</text>
</a>
</g>
</g>
<!-- Node2&#45;&gt;Node7 -->
<g id="edge11_Node000002_Node000007" class="edge">
<title>Node2&#45;&gt;Node7</title>
<g id="a_edge11_Node000002_Node000007"><a xlink:title=" ">
<path fill="none" stroke="#63b8ff" d="M599.77,-110.25C579.14,-92.05 531.78,-50.27 505.42,-27.01"/>
<polygon fill="#63b8ff" stroke="#63b8ff" points="507.99,-24.62 498.18,-20.63 503.36,-29.87 507.99,-24.62"/>
</a>
</g>
</g>
<!-- Node8 -->
<g id="Node000008" class="node">
<title>Node8</title>
<g id="a_Node000008"><a xlink:title=" ">
<polygon fill="#e0e0e0" stroke="#999999" points="637.71,-74.5 581.96,-74.5 581.96,-55.25 637.71,-55.25 637.71,-74.5"/>
<text text-anchor="middle" x="609.84" y="-61" font-family="Helvetica,sans-Serif" font-size="10.00">algorithm</text>
</a>
</g>
</g>
<!-- Node2&#45;&gt;Node8 -->
<g id="edge7_Node000002_Node000008" class="edge">
<title>Node2&#45;&gt;Node8</title>
<g id="a_edge7_Node000002_Node000008"><a xlink:title=" ">
<path fill="none" stroke="#63b8ff" d="M609.84,-110.33C609.84,-103.82 609.84,-94.67 609.84,-86.37"/>
<polygon fill="#63b8ff" stroke="#63b8ff" points="613.34,-86.37 609.84,-76.37 606.34,-86.37 613.34,-86.37"/>
</a>
</g>
</g>
<!-- Node9 -->
<g id="Node000009" class="node">
<title>Node9</title>
<g id="a_Node000009"><a xlink:title=" ">
<polygon fill="#e0e0e0" stroke="#999999" points="705.71,-74.5 655.96,-74.5 655.96,-55.25 705.71,-55.25 705.71,-74.5"/>
<text text-anchor="middle" x="680.84" y="-61" font-family="Helvetica,sans-Serif" font-size="10.00">optional</text>
</a>
</g>
</g>
<!-- Node2&#45;&gt;Node9 -->
<g id="edge9_Node000002_Node000009" class="edge">
<title>Node2&#45;&gt;Node9</title>
<g id="a_edge9_Node000002_Node000009"><a xlink:title=" ">
<path fill="none" stroke="#63b8ff" d="M621.88,-110.09C632.25,-102.32 647.44,-90.92 659.81,-81.65"/>
<polygon fill="#63b8ff" stroke="#63b8ff" points="661.86,-84.48 667.76,-75.68 657.66,-78.88 661.86,-84.48"/>
</a>
</g>
</g>
<!-- Node10 -->
<g id="Node000010" class="node">
<title>Node10</title>
<g id="a_Node000010"><a xlink:title=" ">
<polygon fill="#e0e0e0" stroke="#999999" points="769.46,-74.5 724.21,-74.5 724.21,-55.25 769.46,-55.25 769.46,-74.5"/>
<text text-anchor="middle" x="746.84" y="-61" font-family="Helvetica,sans-Serif" font-size="10.00">ranges</text>
</a>
</g>
</g>
<!-- Node2&#45;&gt;Node10 -->
<g id="edge10_Node000002_Node000010" class="edge">
<title>Node2&#45;&gt;Node10</title>
<g id="a_edge10_Node000002_Node000010"><a xlink:title=" ">
<path fill="none" stroke="#63b8ff" d="M633.08,-110.09C655.16,-101.51 688.59,-88.52 713.51,-78.83"/>
<polygon fill="#63b8ff" stroke="#63b8ff" points="714.48,-82.21 722.53,-75.32 711.94,-75.68 714.48,-82.21"/>
</a>
</g>
</g>
<!-- Node11 -->
<g id="Node000011" class="node">
<title>Node11</title>
<g id="a_Node000011"><a xlink:title=" ">
<polygon fill="#e0e0e0" stroke="#999999" points="331.84,-74.5 291.84,-74.5 291.84,-55.25 331.84,-55.25 331.84,-74.5"/>
<text text-anchor="middle" x="311.84" y="-61" font-family="Helvetica,sans-Serif" font-size="10.00">string</text>
</a>
</g>
</g>
<!-- Node2&#45;&gt;Node11 -->
<g id="edge12_Node000002_Node000011" class="edge">
<title>Node2&#45;&gt;Node11</title>
<g id="a_edge12_Node000002_Node000011"><a xlink:title=" ">
<path fill="none" stroke="#63b8ff" d="M563.84,-112.51C511,-104.63 421.8,-90.53 345.84,-74.5 345.01,-74.33 344.18,-74.14 343.33,-73.96"/>
<polygon fill="#63b8ff" stroke="#63b8ff" points="344.28,-70.59 333.75,-71.69 342.67,-77.4 344.28,-70.59"/>
</a>
</g>
</g>
<!-- Node12 -->
<g id="Node000012" class="node">
<title>Node12</title>
<g id="a_Node000012"><a xlink:title=" ">
<polygon fill="#e0e0e0" stroke="#999999" points="832.46,-74.5 787.21,-74.5 787.21,-55.25 832.46,-55.25 832.46,-74.5"/>
<text text-anchor="middle" x="809.84" y="-61" font-family="Helvetica,sans-Serif" font-size="10.00">variant</text>
</a>
</g>
</g>
<!-- Node2&#45;&gt;Node12 -->
<g id="edge14_Node000002_Node000012" class="edge">
<title>Node2&#45;&gt;Node12</title>
<g id="a_edge14_Node000002_Node000012"><a xlink:title=" ">
<path fill="none" stroke="#63b8ff" d="M644.83,-110.03C676.7,-101.71 725.34,-88.94 775.71,-75.32"/>
<polygon fill="#63b8ff" stroke="#63b8ff" points="776.63,-78.7 785.37,-72.71 774.8,-71.95 776.63,-78.7"/>
</a>
</g>
</g>
<!-- Node2&#45;&gt;Node13 -->
<g id="edge15_Node000002_Node000013" class="edge">
<title>Node2&#45;&gt;Node13</title>
<g id="a_edge15_Node000002_Node000013"><a xlink:title=" ">
<path fill="none" stroke="#63b8ff" d="M656.01,-112.36C660.68,-111.71 665.35,-111.08 669.84,-110.5 804.19,-93.07 842.4,-101.35 977.77,-74.84"/>
<polygon fill="#63b8ff" stroke="#63b8ff" points="978.38,-78.29 987.5,-72.9 977.01,-71.42 978.38,-78.29"/>
</a>
</g>
</g>
<!-- Node3&#45;&gt;Node4 -->
<g id="edge3_Node000003_Node000004" class="edge">
<title>Node3&#45;&gt;Node4</title>
<g id="a_edge3_Node000003_Node000004"><a xlink:title=" ">
<path fill="none" stroke="#63b8ff" d="M854.66,-54.78C784.38,-43.41 666.63,-24.35 611.72,-15.46"/>
<polygon fill="#63b8ff" stroke="#63b8ff" points="612.62,-12.06 602.19,-13.92 611.5,-18.97 612.62,-12.06"/>
</a>
</g>
</g>
<!-- Node5&#45;&gt;Node6 -->
<g id="edge5_Node000005_Node000006" class="edge">
<title>Node5&#45;&gt;Node6</title>
<g id="a_edge5_Node000005_Node000006"><a xlink:title=" ">
<path fill="none" stroke="#63b8ff" d="M424.61,-54.84C413.07,-46.96 396.07,-35.36 382.39,-26.02"/>
<polygon fill="#63b8ff" stroke="#63b8ff" points="384.62,-23.3 374.39,-20.56 380.67,-29.08 384.62,-23.3"/>
</a>
</g>
</g>
<!-- Node5&#45;&gt;Node7 -->
<g id="edge6_Node000005_Node000007" class="edge">
<title>Node5&#45;&gt;Node7</title>
<g id="a_edge6_Node000005_Node000007"><a xlink:title=" ">
<path fill="none" stroke="#63b8ff" d="M445.93,-55.08C452.7,-47.73 462.56,-37.01 470.9,-27.94"/>
<polygon fill="#63b8ff" stroke="#63b8ff" points="473.35,-30.45 477.55,-20.72 468.2,-25.71 473.35,-30.45"/>
</a>
</g>
</g>
<!-- Node14&#45;&gt;Node6 -->
<g id="edge17_Node000014_Node000006" class="edge">
<title>Node14&#45;&gt;Node6</title>
<g id="a_edge17_Node000014_Node000006"><a xlink:title=" ">
<path fill="none" stroke="#63b8ff" d="M128.47,-116.51C65.36,-111.49 -27.9,-96.96 8.84,-55.25 29.67,-31.61 242.54,-17.2 326.27,-12.41"/>
<polygon fill="#63b8ff" stroke="#63b8ff" points="326.35,-15.91 336.14,-11.86 325.96,-8.92 326.35,-15.91"/>
</a>
</g>
</g>
<!-- Node14&#45;&gt;Node11 -->
<g id="edge20_Node000014_Node000011" class="edge">
<title>Node14&#45;&gt;Node11</title>
<g id="a_edge20_Node000014_Node000011"><a xlink:title=" ">
<path fill="none" stroke="#63b8ff" d="M203.06,-110.09C224.49,-101.38 257.1,-88.13 281.03,-78.4"/>
<polygon fill="#63b8ff" stroke="#63b8ff" points="282.31,-81.65 290.26,-74.65 279.68,-75.17 282.31,-81.65"/>
</a>
</g>
</g>
<!-- Node15 -->
<g id="Node000015" class="node">
<title>Node15</title>
<g id="a_Node000015"><a xlink:title=" ">
<polygon fill="#e0e0e0" stroke="#999999" points="203.84,-74.5 157.84,-74.5 157.84,-55.25 203.84,-55.25 203.84,-74.5"/>
<text text-anchor="middle" x="180.84" y="-61" font-family="Helvetica,sans-Serif" font-size="10.00">iterator</text>
</a>
</g>
</g>
<!-- Node14&#45;&gt;Node15 -->
<g id="edge18_Node000014_Node000015" class="edge">
<title>Node14&#45;&gt;Node15</title>
<g id="a_edge18_Node000014_Node000015"><a xlink:title=" ">
<path fill="none" stroke="#63b8ff" d="M180.84,-110.33C180.84,-103.82 180.84,-94.67 180.84,-86.37"/>
<polygon fill="#63b8ff" stroke="#63b8ff" points="184.34,-86.37 180.84,-76.37 177.34,-86.37 184.34,-86.37"/>
</a>
</g>
</g>
<!-- Node16 -->
<g id="Node000016" class="node">
<title>Node16</title>
<g id="a_Node000016"><a xlink:title=" ">
<polygon fill="#e0e0e0" stroke="#999999" points="273.46,-74.5 222.21,-74.5 222.21,-55.25 273.46,-55.25 273.46,-74.5"/>
<text text-anchor="middle" x="247.84" y="-61" font-family="Helvetica,sans-Serif" font-size="10.00">sstream</text>
</a>
</g>
</g>
<!-- Node14&#45;&gt;Node16 -->
<g id="edge19_Node000014_Node000016" class="edge">
<title>Node14&#45;&gt;Node16</title>
<g id="a_edge19_Node000014_Node000016"><a xlink:title=" ">
<path fill="none" stroke="#63b8ff" d="M192.21,-110.09C201.89,-102.4 216.04,-91.15 227.65,-81.93"/>
<polygon fill="#63b8ff" stroke="#63b8ff" points="229.81,-84.68 235.46,-75.72 225.45,-79.2 229.81,-84.68"/>
</a>
</g>
</g>
<!-- Node17 -->
<g id="Node000017" class="node">
<title>Node17</title>
<g id="a_Node000017"><a xlink:title=" ">
<polygon fill="#e0e0e0" stroke="#999999" points="83.59,-74.5 18.09,-74.5 18.09,-55.25 83.59,-55.25 83.59,-74.5"/>
<text text-anchor="middle" x="50.84" y="-61" font-family="Helvetica,sans-Serif" font-size="10.00">string_view</text>
</a>
</g>
</g>
<!-- Node14&#45;&gt;Node17 -->
<g id="edge21_Node000014_Node000017" class="edge">
<title>Node14&#45;&gt;Node17</title>
<g id="a_edge21_Node000014_Node000017"><a xlink:title=" ">
<path fill="none" stroke="#63b8ff" d="M158.79,-110.09C138.15,-101.64 107.06,-88.9 83.54,-79.27"/>
<polygon fill="#63b8ff" stroke="#63b8ff" points="84.98,-76.08 74.4,-75.53 82.33,-82.56 84.98,-76.08"/>
</a>
</g>
</g>
<!-- Node18 -->
<g id="Node000018" class="node">
<title>Node18</title>
<g id="a_Node000018"><a xlink:title=" ">
<polygon fill="#e0e0e0" stroke="#999999" points="140.09,-74.5 101.59,-74.5 101.59,-55.25 140.09,-55.25 140.09,-74.5"/>
<text text-anchor="middle" x="120.84" y="-61" font-family="Helvetica,sans-Serif" font-size="10.00">utility</text>
</a>
</g>
</g>
<!-- Node14&#45;&gt;Node18 -->
<g id="edge22_Node000014_Node000018" class="edge">
<title>Node14&#45;&gt;Node18</title>
<g id="a_edge22_Node000014_Node000018"><a xlink:title=" ">
<path fill="none" stroke="#63b8ff" d="M170.66,-110.09C162.08,-102.47 149.57,-91.37 139.24,-82.2"/>
<polygon fill="#63b8ff" stroke="#63b8ff" points="141.8,-79.8 132,-75.78 137.16,-85.04 141.8,-79.8"/>
</a>
</g>
</g>
</g>
</svg>
