<?xml version="1.0" encoding="UTF-8" standalone="no"?>
<!DOCTYPE svg PUBLIC "-//W3C//DTD SVG 1.1//EN"
 "http://www.w3.org/Graphics/SVG/1.1/DTD/svg11.dtd">
<!-- Generated by graphviz version 12.1.2 (20240928.0832)
 -->
<!-- Title: mimic++/Call.hpp Pages: 1 -->
<svg width="448pt" height="193pt"
 viewBox="0.00 0.00 448.25 193.00" xmlns="http://www.w3.org/2000/svg" xmlns:xlink="http://www.w3.org/1999/xlink">
<g id="graph0" class="graph" transform="scale(1 1) rotate(0) translate(4 189)">
<title>mimic++/Call.hpp</title>
<!-- Node1 -->
<g id="Node000001" class="node">
<title>Node1</title>
<g id="a_Node000001"><a xlink:title=" ">
<polygon fill="#999999" stroke="#666666" points="270.88,-185 179.12,-185 179.12,-165.75 270.88,-165.75 270.88,-185"/>
<text text-anchor="middle" x="225" y="-171.5" font-family="Helvetica,sans-Serif" font-size="10.00">mimic++/Call.hpp</text>
</a>
</g>
</g>
<!-- Node2 -->
<g id="Node000002" class="node">
<title>Node2</title>
<g id="a_Node000002"><a xlink:href="../../df/dde/_fwd_8hpp.html" target="_top" xlink:title=" ">
<polygon fill="white" stroke="#666666" points="94,-74.5 0,-74.5 0,-55.25 94,-55.25 94,-74.5"/>
<text text-anchor="middle" x="47" y="-61" font-family="Helvetica,sans-Serif" font-size="10.00">mimic++/Fwd.hpp</text>
</a>
</g>
</g>
<!-- Node1&#45;&gt;Node2 -->
<g id="edge1_Node000001_Node000002" class="edge">
<title>Node1&#45;&gt;Node2</title>
<g id="a_edge1_Node000001_Node000002"><a xlink:title=" ">
<path fill="none" stroke="#63b8ff" d="M179.08,-170.49C126.9,-165.01 46.55,-152.97 28,-129.75 17.53,-116.64 25.02,-97.88 33.48,-84.09"/>
<polygon fill="#63b8ff" stroke="#63b8ff" points="36.3,-86.17 39.01,-75.93 30.5,-82.24 36.3,-86.17"/>
</a>
</g>
</g>
<!-- Node4 -->
<g id="Node000004" class="node">
<title>Node4</title>
<g id="a_Node000004"><a xlink:href="../../d8/d32/_type_traits_8hpp.html" target="_top" xlink:title=" ">
<polygon fill="white" stroke="#666666" points="157.5,-129.75 36.5,-129.75 36.5,-110.5 157.5,-110.5 157.5,-129.75"/>
<text text-anchor="middle" x="97" y="-116.25" font-family="Helvetica,sans-Serif" font-size="10.00">mimic++/TypeTraits.hpp</text>
</a>
</g>
</g>
<!-- Node1&#45;&gt;Node4 -->
<g id="edge3_Node000001_Node000004" class="edge">
<title>Node1&#45;&gt;Node4</title>
<g id="a_edge3_Node000001_Node000004"><a xlink:title=" ">
<path fill="none" stroke="#63b8ff" d="M203.29,-165.34C182.97,-156.89 152.35,-144.15 129.19,-134.52"/>
<polygon fill="#63b8ff" stroke="#63b8ff" points="130.79,-131.39 120.22,-130.78 128.11,-137.86 130.79,-131.39"/>
</a>
</g>
</g>
<!-- Node5 -->
<g id="Node000005" class="node">
<title>Node5</title>
<g id="a_Node000005"><a xlink:title=" ">
<polygon fill="#e0e0e0" stroke="#999999" points="149.5,-74.5 112.5,-74.5 112.5,-55.25 149.5,-55.25 149.5,-74.5"/>
<text text-anchor="middle" x="131" y="-61" font-family="Helvetica,sans-Serif" font-size="10.00">tuple</text>
</a>
</g>
</g>
<!-- Node1&#45;&gt;Node5 -->
<g id="edge13_Node000001_Node000005" class="edge">
<title>Node1&#45;&gt;Node5</title>
<g id="a_edge13_Node000001_Node000005"><a xlink:title=" ">
<path fill="none" stroke="#63b8ff" d="M217.31,-165.5C201.82,-147.61 166.6,-106.97 146.27,-83.5"/>
<polygon fill="#63b8ff" stroke="#63b8ff" points="148.98,-81.29 139.79,-76.02 143.69,-85.87 148.98,-81.29"/>
</a>
</g>
</g>
<!-- Node6 -->
<g id="Node000006" class="node">
<title>Node6</title>
<g id="a_Node000006"><a xlink:href="../../d4/d2c/_utility_8hpp.html" target="_top" xlink:title=" ">
<polygon fill="white" stroke="#666666" points="314,-129.75 214,-129.75 214,-110.5 314,-110.5 314,-129.75"/>
<text text-anchor="middle" x="264" y="-116.25" font-family="Helvetica,sans-Serif" font-size="10.00">mimic++/Utility.hpp</text>
</a>
</g>
</g>
<!-- Node1&#45;&gt;Node6 -->
<g id="edge6_Node000001_Node000006" class="edge">
<title>Node1&#45;&gt;Node6</title>
<g id="a_edge6_Node000001_Node000006"><a xlink:title=" ">
<path fill="none" stroke="#63b8ff" d="M231.44,-165.58C236.66,-158.46 244.19,-148.18 250.69,-139.3"/>
<polygon fill="#63b8ff" stroke="#63b8ff" points="253.44,-141.47 256.53,-131.33 247.79,-137.33 253.44,-141.47"/>
</a>
</g>
</g>
<!-- Node9 -->
<g id="Node000009" class="node">
<title>Node9</title>
<g id="a_Node000009"><a xlink:title=" ">
<polygon fill="#e0e0e0" stroke="#999999" points="384.12,-74.5 299.88,-74.5 299.88,-55.25 384.12,-55.25 384.12,-74.5"/>
<text text-anchor="middle" x="342" y="-61" font-family="Helvetica,sans-Serif" font-size="10.00">source_location</text>
</a>
</g>
</g>
<!-- Node1&#45;&gt;Node9 -->
<g id="edge12_Node000001_Node000009" class="edge">
<title>Node1&#45;&gt;Node9</title>
<g id="a_edge12_Node000001_Node000009"><a xlink:title=" ">
<path fill="none" stroke="#63b8ff" d="M263.18,-165.28C283.55,-158.6 307.53,-147.52 323,-129.75 333.59,-117.59 338.28,-99.74 340.35,-86"/>
<polygon fill="#63b8ff" stroke="#63b8ff" points="343.8,-86.65 341.45,-76.32 336.85,-85.87 343.8,-86.65"/>
</a>
</g>
</g>
<!-- Node10 -->
<g id="Node000010" class="node">
<title>Node10</title>
<g id="a_Node000010"><a xlink:title=" ">
<polygon fill="#e0e0e0" stroke="#999999" points="440.25,-74.5 401.75,-74.5 401.75,-55.25 440.25,-55.25 440.25,-74.5"/>
<text text-anchor="middle" x="421" y="-61" font-family="Helvetica,sans-Serif" font-size="10.00">utility</text>
</a>
</g>
</g>
<!-- Node1&#45;&gt;Node10 -->
<g id="edge14_Node000001_Node000010" class="edge">
<title>Node1&#45;&gt;Node10</title>
<g id="a_edge14_Node000001_Node000010"><a xlink:title=" ">
<path fill="none" stroke="#63b8ff" d="M256.76,-165.27C281,-157.62 314.77,-145.42 342,-129.75 365.26,-116.37 388.77,-96.33 404.03,-82.28"/>
<polygon fill="#63b8ff" stroke="#63b8ff" points="406,-85.23 410.89,-75.82 401.2,-80.13 406,-85.23"/>
</a>
</g>
</g>
<!-- Node3 -->
<g id="Node000003" class="node">
<title>Node3</title>
<g id="a_Node000003"><a xlink:title=" ">
<polygon fill="#e0e0e0" stroke="#999999" points="67,-19.25 27,-19.25 27,0 67,0 67,-19.25"/>
<text text-anchor="middle" x="47" y="-5.75" font-family="Helvetica,sans-Serif" font-size="10.00">string</text>
</a>
</g>
</g>
<!-- Node2&#45;&gt;Node3 -->
<g id="edge2_Node000002_Node000003" class="edge">
<title>Node2&#45;&gt;Node3</title>
<g id="a_edge2_Node000002_Node000003"><a xlink:title=" ">
<path fill="none" stroke="#63b8ff" d="M47,-55.08C47,-48.57 47,-39.42 47,-31.12"/>
<polygon fill="#63b8ff" stroke="#63b8ff" points="50.5,-31.12 47,-21.12 43.5,-31.12 50.5,-31.12"/>
</a>
</g>
</g>
<!-- Node4&#45;&gt;Node2 -->
<g id="edge4_Node000004_Node000002" class="edge">
<title>Node4&#45;&gt;Node2</title>
<g id="a_edge4_Node000004_Node000002"><a xlink:title=" ">
<path fill="none" stroke="#63b8ff" d="M88.74,-110.33C81.84,-102.98 71.78,-92.26 63.26,-83.19"/>
<polygon fill="#63b8ff" stroke="#63b8ff" points="65.87,-80.86 56.47,-75.96 60.77,-85.65 65.87,-80.86"/>
</a>
</g>
</g>
<!-- Node4&#45;&gt;Node5 -->
<g id="edge5_Node000004_Node000005" class="edge">
<title>Node4&#45;&gt;Node5</title>
<g id="a_edge5_Node000004_Node000005"><a xlink:title=" ">
<path fill="none" stroke="#63b8ff" d="M102.61,-110.33C107.12,-103.28 113.59,-93.15 119.21,-84.33"/>
<polygon fill="#63b8ff" stroke="#63b8ff" points="122.02,-86.45 124.45,-76.13 116.12,-82.68 122.02,-86.45"/>
</a>
</g>
</g>
<!-- Node6&#45;&gt;Node2 -->
<g id="edge7_Node000006_Node000002" class="edge">
<title>Node6&#45;&gt;Node2</title>
<g id="a_edge7_Node000006_Node000002"><a xlink:title=" ">
<path fill="none" stroke="#63b8ff" d="M227.19,-110.09C190.79,-101.16 134.92,-87.45 95.04,-77.66"/>
<polygon fill="#63b8ff" stroke="#63b8ff" points="96.01,-74.3 85.46,-75.31 94.34,-81.1 96.01,-74.3"/>
</a>
</g>
</g>
<!-- Node7 -->
<g id="Node000007" class="node">
<title>Node7</title>
<g id="a_Node000007"><a xlink:title=" ">
<polygon fill="#e0e0e0" stroke="#999999" points="216.12,-74.5 167.88,-74.5 167.88,-55.25 216.12,-55.25 216.12,-74.5"/>
<text text-anchor="middle" x="192" y="-61" font-family="Helvetica,sans-Serif" font-size="10.00">cassert</text>
</a>
</g>
</g>
<!-- Node6&#45;&gt;Node7 -->
<g id="edge8_Node000006_Node000007" class="edge">
<title>Node6&#45;&gt;Node7</title>
<g id="a_edge8_Node000006_Node000007"><a xlink:title=" ">
<path fill="none" stroke="#63b8ff" d="M251.79,-110.09C241.17,-102.24 225.56,-90.7 212.96,-81.37"/>
<polygon fill="#63b8ff" stroke="#63b8ff" points="215.37,-78.81 205.25,-75.67 211.21,-84.44 215.37,-78.81"/>
</a>
</g>
</g>
<!-- Node8 -->
<g id="Node000008" class="node">
<title>Node8</title>
<g id="a_Node000008"><a xlink:title=" ">
<polygon fill="#e0e0e0" stroke="#999999" points="282.12,-74.5 233.88,-74.5 233.88,-55.25 282.12,-55.25 282.12,-74.5"/>
<text text-anchor="middle" x="258" y="-61" font-family="Helvetica,sans-Serif" font-size="10.00">cstddef</text>
</a>
</g>
</g>
<!-- Node6&#45;&gt;Node8 -->
<g id="edge9_Node000006_Node000008" class="edge">
<title>Node6&#45;&gt;Node8</title>
<g id="a_edge9_Node000006_Node000008"><a xlink:title=" ">
<path fill="none" stroke="#63b8ff" d="M263.01,-110.33C262.27,-103.74 261.22,-94.46 260.28,-86.07"/>
<polygon fill="#63b8ff" stroke="#63b8ff" points="263.78,-85.91 259.18,-76.36 256.82,-86.69 263.78,-85.91"/>
</a>
</g>
</g>
<!-- Node6&#45;&gt;Node9 -->
<g id="edge10_Node000006_Node000009" class="edge">
<title>Node6&#45;&gt;Node9</title>
<g id="a_edge10_Node000006_Node000009"><a xlink:title=" ">
<path fill="none" stroke="#63b8ff" d="M277.23,-110.09C288.77,-102.21 305.77,-90.61 319.45,-81.27"/>
<polygon fill="#63b8ff" stroke="#63b8ff" points="321.17,-84.33 327.45,-75.81 317.22,-78.55 321.17,-84.33"/>
</a>
</g>
</g>
<!-- Node6&#45;&gt;Node10 -->
<g id="edge11_Node000006_Node000010" class="edge">
<title>Node6&#45;&gt;Node10</title>
<g id="a_edge11_Node000006_Node000010"><a xlink:title=" ">
<path fill="none" stroke="#63b8ff" d="M290.63,-110.09C318.44,-100.66 361.95,-85.9 390.96,-76.06"/>
<polygon fill="#63b8ff" stroke="#63b8ff" points="391.9,-79.44 400.25,-72.91 389.65,-72.81 391.9,-79.44"/>
</a>
</g>
</g>
</g>
</svg>
