<?xml version="1.0" encoding="UTF-8" standalone="no"?>
<!DOCTYPE svg PUBLIC "-//W3C//DTD SVG 1.1//EN"
 "http://www.w3.org/Graphics/SVG/1.1/DTD/svg11.dtd">
<!-- Generated by graphviz version 12.1.2 (20240928.0832)
 -->
<!-- Title: mimic++/Call.hpp Pages: 1 -->
<svg width="403pt" height="193pt"
 viewBox="0.00 0.00 402.85 193.00" xmlns="http://www.w3.org/2000/svg" xmlns:xlink="http://www.w3.org/1999/xlink">

<svg id="main" version="1.1" xmlns="http://www.w3.org/2000/svg" xmlns:xlink="http://www.w3.org/1999/xlink" xml:space="preserve">

<style type="text/css"><![CDATA[
.node, .edge {opacity: 0.7;}
.node.selected, .edge.selected {opacity: 1;}
.edge:hover path { stroke: red; }
.edge:hover polygon { stroke: red; fill: red; }
]]></style>
<script type="application/ecmascript" xlink:href="../../svg.min.js"/>
<svg id="graph" class="graph">
<g id="graph0" class="graph" transform="scale(1 1) rotate(0) translate(4 189)">
<title>mimic++/Call.hpp</title>
<!-- Node1 -->
<g id="Node000001" class="node">
<title>Node1</title>
<g id="a_Node000001"><a xlink:title=" ">
<polygon fill="#999999" stroke="#666666" points="248.47,-185 156.72,-185 156.72,-165.75 248.47,-165.75 248.47,-185"/>
<text text-anchor="middle" x="202.6" y="-171.5" font-family="Helvetica,sans-Serif" font-size="10.00">mimic++/Call.hpp</text>
</a>
</g>
</g>
<!-- Node2 -->
<g id="Node000002" class="node">
<title>Node2</title>
<g id="a_Node000002"><a xlink:href="../../df/dde/_fwd_8hpp.html" target="_top" xlink:title=" ">
<polygon fill="white" stroke="#666666" points="114.6,-74.5 20.6,-74.5 20.6,-55.25 114.6,-55.25 114.6,-74.5"/>
<text text-anchor="middle" x="67.6" y="-61" font-family="Helvetica,sans-Serif" font-size="10.00">mimic++/Fwd.hpp</text>
</a>
</g>
</g>
<!-- Node1&#45;&gt;Node2 -->
<g id="edge1_Node000001_Node000002" class="edge">
<title>Node1&#45;&gt;Node2</title>
<g id="a_edge1_Node000001_Node000002"><a xlink:title=" ">
<path fill="none" stroke="#63b8ff" d="M156.44,-170.52C104,-165.07 23.25,-153.07 4.6,-129.75 -10.08,-111.4 14.43,-92.49 37.03,-80.05"/>
<polygon fill="#63b8ff" stroke="#63b8ff" points="38.52,-83.22 45.79,-75.52 35.3,-77.01 38.52,-83.22"/>
</a>
</g>
</g>
<!-- Node4 -->
<g id="Node000004" class="node">
<title>Node4</title>
<g id="a_Node000004"><a xlink:href="../../d8/d32/_type_traits_8hpp.html" target="_top" xlink:title=" ">
<polygon fill="white" stroke="#666666" points="135.1,-129.75 14.1,-129.75 14.1,-110.5 135.1,-110.5 135.1,-129.75"/>
<text text-anchor="middle" x="74.6" y="-116.25" font-family="Helvetica,sans-Serif" font-size="10.00">mimic++/TypeTraits.hpp</text>
</a>
</g>
</g>
<!-- Node1&#45;&gt;Node4 -->
<g id="edge3_Node000001_Node000004" class="edge">
<title>Node1&#45;&gt;Node4</title>
<g id="a_edge3_Node000001_Node000004"><a xlink:title=" ">
<path fill="none" stroke="#63b8ff" d="M180.88,-165.34C160.56,-156.89 129.95,-144.15 106.79,-134.52"/>
<polygon fill="#63b8ff" stroke="#63b8ff" points="108.39,-131.39 97.81,-130.78 105.7,-137.86 108.39,-131.39"/>
</a>
</g>
</g>
<!-- Node5 -->
<g id="Node000005" class="node">
<title>Node5</title>
<g id="a_Node000005"><a xlink:title=" ">
<polygon fill="#e0e0e0" stroke="#999999" points="170.1,-74.5 133.1,-74.5 133.1,-55.25 170.1,-55.25 170.1,-74.5"/>
<text text-anchor="middle" x="151.6" y="-61" font-family="Helvetica,sans-Serif" font-size="10.00">tuple</text>
</a>
</g>
</g>
<!-- Node1&#45;&gt;Node5 -->
<g id="edge12_Node000001_Node000005" class="edge">
<title>Node1&#45;&gt;Node5</title>
<g id="a_edge12_Node000001_Node000005"><a xlink:title=" ">
<path fill="none" stroke="#63b8ff" d="M198.42,-165.5C190.2,-148.01 171.76,-108.77 160.63,-85.09"/>
<polygon fill="#63b8ff" stroke="#63b8ff" points="163.89,-83.81 156.47,-76.25 157.56,-86.79 163.89,-83.81"/>
</a>
</g>
</g>
<!-- Node6 -->
<g id="Node000006" class="node">
<title>Node6</title>
<g id="a_Node000006"><a xlink:href="../../d4/d2c/_utility_8hpp.html" target="_top" xlink:title=" ">
<polygon fill="white" stroke="#666666" points="291.6,-129.75 191.6,-129.75 191.6,-110.5 291.6,-110.5 291.6,-129.75"/>
<text text-anchor="middle" x="241.6" y="-116.25" font-family="Helvetica,sans-Serif" font-size="10.00">mimic++/Utility.hpp</text>
</a>
</g>
</g>
<!-- Node1&#45;&gt;Node6 -->
<g id="edge6_Node000001_Node000006" class="edge">
<title>Node1&#45;&gt;Node6</title>
<g id="a_edge6_Node000001_Node000006"><a xlink:title=" ">
<path fill="none" stroke="#63b8ff" d="M209.04,-165.58C214.26,-158.46 221.78,-148.18 228.29,-139.3"/>
<polygon fill="#63b8ff" stroke="#63b8ff" points="231.04,-141.47 234.12,-131.33 225.39,-137.33 231.04,-141.47"/>
</a>
</g>
</g>
<!-- Node8 -->
<g id="Node000008" class="node">
<title>Node8</title>
<g id="a_Node000008"><a xlink:title=" ">
<polygon fill="#e0e0e0" stroke="#999999" points="338.72,-74.5 254.47,-74.5 254.47,-55.25 338.72,-55.25 338.72,-74.5"/>
<text text-anchor="middle" x="296.6" y="-61" font-family="Helvetica,sans-Serif" font-size="10.00">source_location</text>
</a>
</g>
</g>
<!-- Node1&#45;&gt;Node8 -->
<g id="edge11_Node000001_Node000008" class="edge">
<title>Node1&#45;&gt;Node8</title>
<g id="a_edge11_Node000001_Node000008"><a xlink:title=" ">
<path fill="none" stroke="#63b8ff" d="M247.94,-165.3C267.64,-158.86 288.86,-147.99 300.6,-129.75 308.88,-116.87 307.09,-99.35 303.66,-85.91"/>
<polygon fill="#63b8ff" stroke="#63b8ff" points="307.03,-84.95 300.75,-76.42 300.34,-87.01 307.03,-84.95"/>
</a>
</g>
</g>
<!-- Node9 -->
<g id="Node000009" class="node">
<title>Node9</title>
<g id="a_Node000009"><a xlink:title=" ">
<polygon fill="#e0e0e0" stroke="#999999" points="394.85,-74.5 356.35,-74.5 356.35,-55.25 394.85,-55.25 394.85,-74.5"/>
<text text-anchor="middle" x="375.6" y="-61" font-family="Helvetica,sans-Serif" font-size="10.00">utility</text>
</a>
</g>
</g>
<!-- Node1&#45;&gt;Node9 -->
<g id="edge13_Node000001_Node000009" class="edge">
<title>Node1&#45;&gt;Node9</title>
<g id="a_edge13_Node000001_Node000009"><a xlink:title=" ">
<path fill="none" stroke="#63b8ff" d="M238.1,-165.26C261.95,-158.06 293.32,-146.42 317.6,-129.75 335.68,-117.33 352.05,-98.22 362.76,-84.13"/>
<polygon fill="#63b8ff" stroke="#63b8ff" points="365.51,-86.29 368.6,-76.15 359.87,-82.15 365.51,-86.29"/>
</a>
</g>
</g>
<!-- Node3 -->
<g id="Node000003" class="node">
<title>Node3</title>
<g id="a_Node000003"><a xlink:title=" ">
<polygon fill="#e0e0e0" stroke="#999999" points="87.6,-19.25 47.6,-19.25 47.6,0 87.6,0 87.6,-19.25"/>
<text text-anchor="middle" x="67.6" y="-5.75" font-family="Helvetica,sans-Serif" font-size="10.00">string</text>
</a>
</g>
</g>
<!-- Node2&#45;&gt;Node3 -->
<g id="edge2_Node000002_Node000003" class="edge">
<title>Node2&#45;&gt;Node3</title>
<g id="a_edge2_Node000002_Node000003"><a xlink:title=" ">
<path fill="none" stroke="#63b8ff" d="M67.6,-55.08C67.6,-48.57 67.6,-39.42 67.6,-31.12"/>
<polygon fill="#63b8ff" stroke="#63b8ff" points="71.1,-31.12 67.6,-21.12 64.1,-31.12 71.1,-31.12"/>
</a>
</g>
</g>
<!-- Node4&#45;&gt;Node2 -->
<g id="edge4_Node000004_Node000002" class="edge">
<title>Node4&#45;&gt;Node2</title>
<g id="a_edge4_Node000004_Node000002"><a xlink:title=" ">
<path fill="none" stroke="#63b8ff" d="M73.44,-110.33C72.57,-103.74 71.35,-94.46 70.25,-86.07"/>
<polygon fill="#63b8ff" stroke="#63b8ff" points="73.75,-85.82 68.97,-76.36 66.81,-86.73 73.75,-85.82"/>
</a>
</g>
</g>
<!-- Node4&#45;&gt;Node5 -->
<g id="edge5_Node000004_Node000005" class="edge">
<title>Node4&#45;&gt;Node5</title>
<g id="a_edge5_Node000004_Node000005"><a xlink:title=" ">
<path fill="none" stroke="#63b8ff" d="M87.66,-110.09C99.05,-102.21 115.83,-90.61 129.33,-81.27"/>
<polygon fill="#63b8ff" stroke="#63b8ff" points="130.99,-84.38 137.23,-75.81 127.01,-78.62 130.99,-84.38"/>
</a>
</g>
</g>
<!-- Node6&#45;&gt;Node2 -->
<g id="edge7_Node000006_Node000002" class="edge">
<title>Node6&#45;&gt;Node2</title>
<g id="a_edge7_Node000006_Node000002"><a xlink:title=" ">
<path fill="none" stroke="#63b8ff" d="M212.08,-110.09C183.46,-101.33 139.81,-87.98 107.98,-78.23"/>
<polygon fill="#63b8ff" stroke="#63b8ff" points="109.29,-74.98 98.71,-75.4 107.24,-81.67 109.29,-74.98"/>
</a>
</g>
</g>
<!-- Node7 -->
<g id="Node000007" class="node">
<title>Node7</title>
<g id="a_Node000007"><a xlink:title=" ">
<polygon fill="#e0e0e0" stroke="#999999" points="236.72,-74.5 188.47,-74.5 188.47,-55.25 236.72,-55.25 236.72,-74.5"/>
<text text-anchor="middle" x="212.6" y="-61" font-family="Helvetica,sans-Serif" font-size="10.00">cassert</text>
</a>
</g>
</g>
<!-- Node6&#45;&gt;Node7 -->
<g id="edge8_Node000006_Node000007" class="edge">
<title>Node6&#45;&gt;Node7</title>
<g id="a_edge8_Node000006_Node000007"><a xlink:title=" ">
<path fill="none" stroke="#63b8ff" d="M236.81,-110.33C233.05,-103.44 227.69,-93.59 222.96,-84.91"/>
<polygon fill="#63b8ff" stroke="#63b8ff" points="226.07,-83.3 218.21,-76.19 219.92,-86.64 226.07,-83.3"/>
</a>
</g>
</g>
<!-- Node6&#45;&gt;Node8 -->
<g id="edge9_Node000006_Node000008" class="edge">
<title>Node6&#45;&gt;Node8</title>
<g id="a_edge9_Node000006_Node000008"><a xlink:title=" ">
<path fill="none" stroke="#63b8ff" d="M250.68,-110.33C258.43,-102.82 269.81,-91.81 279.29,-82.63"/>
<polygon fill="#63b8ff" stroke="#63b8ff" points="281.48,-85.38 286.23,-75.91 276.61,-80.35 281.48,-85.38"/>
</a>
</g>
</g>
<!-- Node6&#45;&gt;Node9 -->
<g id="edge10_Node000006_Node000009" class="edge">
<title>Node6&#45;&gt;Node9</title>
<g id="a_edge10_Node000006_Node000009"><a xlink:title=" ">
<path fill="none" stroke="#63b8ff" d="M264.33,-110.09C286.73,-101.19 321.09,-87.54 345.7,-77.76"/>
<polygon fill="#63b8ff" stroke="#63b8ff" points="346.83,-81.07 354.83,-74.13 344.25,-74.57 346.83,-81.07"/>
</a>
</g>
</g>
</g>
</svg>
</svg>

<style type='text/css'>
<![CDATA[
[data-mouse-over-selected='false'] { opacity: 0.7; }
[data-mouse-over-selected='true']  { opacity: 1.0; }
]]>
</style>
<script type="application/ecmascript"><![CDATA[
document.addEventListener('DOMContentLoaded', (event) => {
  highlightEdges();
  highlightAdjacentNodes();
});
]]></script>
</svg>
