<?xml version="1.0" encoding="UTF-8" standalone="no"?>
<!DOCTYPE svg PUBLIC "-//W3C//DTD SVG 1.1//EN"
 "http://www.w3.org/Graphics/SVG/1.1/DTD/svg11.dtd">
<!-- Generated by graphviz version 12.1.2 (20240928.0832)
 -->
<!-- Title: mimic++/ControlPolicy.hpp Pages: 1 -->
<svg width="1381pt" height="414pt"
 viewBox="0.00 0.00 1381.00 414.00" xmlns="http://www.w3.org/2000/svg" xmlns:xlink="http://www.w3.org/1999/xlink">
<g id="graph0" class="graph" transform="scale(1 1) rotate(0) translate(4 410)">
<title>mimic++/ControlPolicy.hpp</title>
<!-- Node1 -->
<g id="Node000001" class="node">
<title>Node1</title>
<g id="a_Node000001"><a xlink:title=" ">
<polygon fill="#999999" stroke="#666666" points="954.12,-406 821.88,-406 821.88,-386.75 954.12,-386.75 954.12,-406"/>
<text text-anchor="middle" x="888" y="-392.5" font-family="Helvetica,sans-Serif" font-size="10.00">mimic++/ControlPolicy.hpp</text>
</a>
</g>
</g>
<!-- Node2 -->
<g id="Node000002" class="node">
<title>Node2</title>
<g id="a_Node000002"><a xlink:href="../../d0/d3b/_reports_8hpp.html" target="_top" xlink:title=" ">
<polygon fill="white" stroke="#666666" points="942.5,-240.25 833.5,-240.25 833.5,-221 942.5,-221 942.5,-240.25"/>
<text text-anchor="middle" x="888" y="-226.75" font-family="Helvetica,sans-Serif" font-size="10.00">mimic++/Reports.hpp</text>
</a>
</g>
</g>
<!-- Node1&#45;&gt;Node2 -->
<g id="edge1_Node000001_Node000002" class="edge">
<title>Node1&#45;&gt;Node2</title>
<g id="a_edge1_Node000001_Node000002"><a xlink:title=" ">
<path fill="none" stroke="#63b8ff" d="M888,-386.57C888,-361.25 888,-287.75 888,-251.84"/>
<polygon fill="#63b8ff" stroke="#63b8ff" points="891.5,-251.99 888,-241.99 884.5,-251.99 891.5,-251.99"/>
</a>
</g>
</g>
<!-- Node7 -->
<g id="Node000007" class="node">
<title>Node7</title>
<g id="a_Node000007"><a xlink:title=" ">
<polygon fill="#e0e0e0" stroke="#999999" points="189.5,-74.5 152.5,-74.5 152.5,-55.25 189.5,-55.25 189.5,-74.5"/>
<text text-anchor="middle" x="171" y="-61" font-family="Helvetica,sans-Serif" font-size="10.00">tuple</text>
</a>
</g>
</g>
<!-- Node1&#45;&gt;Node7 -->
<g id="edge66_Node000001_Node000007" class="edge">
<title>Node1&#45;&gt;Node7</title>
<g id="a_edge66_Node000001_Node000007"><a xlink:title=" ">
<path fill="none" stroke="#63b8ff" d="M821.57,-393.37C679.16,-388.65 348.5,-375.36 239,-350.75 163.09,-333.69 76,-364.68 76,-286.88 76,-286.88 76,-286.88 76,-174.38 76,-132.45 116.64,-98.96 144.76,-80.79"/>
<polygon fill="#63b8ff" stroke="#63b8ff" points="146.49,-83.84 153.16,-75.61 142.82,-77.88 146.49,-83.84"/>
</a>
</g>
</g>
<!-- Node8 -->
<g id="Node000008" class="node">
<title>Node8</title>
<g id="a_Node000008"><a xlink:href="../../d4/d2c/_utility_8hpp.html" target="_top" xlink:title=" ">
<polygon fill="white" stroke="#666666" points="356,-129.75 256,-129.75 256,-110.5 356,-110.5 356,-129.75"/>
<text text-anchor="middle" x="306" y="-116.25" font-family="Helvetica,sans-Serif" font-size="10.00">mimic++/Utility.hpp</text>
</a>
</g>
</g>
<!-- Node1&#45;&gt;Node8 -->
<g id="edge60_Node000001_Node000008" class="edge">
<title>Node1&#45;&gt;Node8</title>
<g id="a_edge60_Node000001_Node000008"><a xlink:title=" ">
<path fill="none" stroke="#63b8ff" d="M821.69,-390.53C739.82,-383.82 605.79,-370.29 560,-350.75 451.6,-304.48 434.32,-270.31 353,-185 339.51,-170.85 326.52,-152.74 317.63,-139.42"/>
<polygon fill="#63b8ff" stroke="#63b8ff" points="320.66,-137.66 312.27,-131.2 314.8,-141.49 320.66,-137.66"/>
</a>
</g>
</g>
<!-- Node9 -->
<g id="Node000009" class="node">
<title>Node9</title>
<g id="a_Node000009"><a xlink:title=" ">
<polygon fill="#e0e0e0" stroke="#999999" points="108.12,-74.5 59.88,-74.5 59.88,-55.25 108.12,-55.25 108.12,-74.5"/>
<text text-anchor="middle" x="84" y="-61" font-family="Helvetica,sans-Serif" font-size="10.00">cassert</text>
</a>
</g>
</g>
<!-- Node1&#45;&gt;Node9 -->
<g id="edge61_Node000001_Node000009" class="edge">
<title>Node1&#45;&gt;Node9</title>
<g id="a_edge61_Node000001_Node000009"><a xlink:title=" ">
<path fill="none" stroke="#63b8ff" d="M821.49,-393.7C642.76,-388.9 160.99,-373.96 93,-350.75 45.55,-334.55 0,-337.02 0,-286.88 0,-286.88 0,-286.88 0,-174.38 0,-134.42 36.06,-100.24 60.93,-81.43"/>
<polygon fill="#63b8ff" stroke="#63b8ff" points="62.85,-84.35 68.9,-75.65 58.75,-78.68 62.85,-84.35"/>
</a>
</g>
</g>
<!-- Node12 -->
<g id="Node000012" class="node">
<title>Node12</title>
<g id="a_Node000012"><a xlink:title=" ">
<polygon fill="#e0e0e0" stroke="#999999" points="444.25,-74.5 405.75,-74.5 405.75,-55.25 444.25,-55.25 444.25,-74.5"/>
<text text-anchor="middle" x="425" y="-61" font-family="Helvetica,sans-Serif" font-size="10.00">utility</text>
</a>
</g>
</g>
<!-- Node1&#45;&gt;Node12 -->
<g id="edge67_Node000001_Node000012" class="edge">
<title>Node1&#45;&gt;Node12</title>
<g id="a_edge67_Node000001_Node000012"><a xlink:title=" ">
<path fill="none" stroke="#63b8ff" d="M821.39,-392.51C640.21,-383.83 152,-354.2 152,-286.88 152,-286.88 152,-286.88 152,-229.62 152,-161.91 190.05,-147.14 247,-110.5 292.82,-81.03 356.84,-71.02 394.31,-67.62"/>
<polygon fill="#63b8ff" stroke="#63b8ff" points="394.29,-71.13 403.98,-66.85 393.73,-64.15 394.29,-71.13"/>
</a>
</g>
</g>
<!-- Node20 -->
<g id="Node000020" class="node">
<title>Node20</title>
<g id="a_Node000020"><a xlink:title=" ">
<polygon fill="#e0e0e0" stroke="#999999" points="1265.88,-185 1216.12,-185 1216.12,-165.75 1265.88,-165.75 1265.88,-185"/>
<text text-anchor="middle" x="1241" y="-171.5" font-family="Helvetica,sans-Serif" font-size="10.00">optional</text>
</a>
</g>
</g>
<!-- Node1&#45;&gt;Node20 -->
<g id="edge64_Node000001_Node000020" class="edge">
<title>Node1&#45;&gt;Node20</title>
<g id="a_edge64_Node000001_Node000020"><a xlink:title=" ">
<path fill="none" stroke="#63b8ff" d="M936.31,-386.26C968.2,-379.15 1010.35,-367.61 1045,-350.75 1125.11,-311.78 1197.23,-230.55 1226.8,-194.4"/>
<polygon fill="#63b8ff" stroke="#63b8ff" points="1229.49,-196.64 1233.03,-186.65 1224.04,-192.25 1229.49,-196.64"/>
</a>
</g>
</g>
<!-- Node24 -->
<g id="Node000024" class="node">
<title>Node24</title>
<g id="a_Node000024"><a xlink:title=" ">
<polygon fill="#e0e0e0" stroke="#999999" points="1326.5,-185 1283.5,-185 1283.5,-165.75 1326.5,-165.75 1326.5,-185"/>
<text text-anchor="middle" x="1305" y="-171.5" font-family="Helvetica,sans-Serif" font-size="10.00">vector</text>
</a>
</g>
</g>
<!-- Node1&#45;&gt;Node24 -->
<g id="edge68_Node000001_Node000024" class="edge">
<title>Node1&#45;&gt;Node24</title>
<g id="a_edge68_Node000001_Node000024"><a xlink:title=" ">
<path fill="none" stroke="#63b8ff" d="M951.07,-386.3C988.01,-379.52 1034.94,-368.33 1074,-350.75 1164.4,-310.07 1252.65,-228.53 1288.38,-193.27"/>
<polygon fill="#63b8ff" stroke="#63b8ff" points="1290.63,-195.97 1295.23,-186.42 1285.69,-191.01 1290.63,-195.97"/>
</a>
</g>
</g>
<!-- Node25 -->
<g id="Node000025" class="node">
<title>Node25</title>
<g id="a_Node000025"><a xlink:href="../../d8/de4/_sequence_8hpp.html" target="_top" xlink:title=" ">
<polygon fill="white" stroke="#666666" points="687.38,-350.75 568.62,-350.75 568.62,-331.5 687.38,-331.5 687.38,-350.75"/>
<text text-anchor="middle" x="628" y="-337.25" font-family="Helvetica,sans-Serif" font-size="10.00">mimic++/Sequence.hpp</text>
</a>
</g>
</g>
<!-- Node1&#45;&gt;Node25 -->
<g id="edge37_Node000001_Node000025" class="edge">
<title>Node1&#45;&gt;Node25</title>
<g id="a_edge37_Node000001_Node000025"><a xlink:title=" ">
<path fill="none" stroke="#63b8ff" d="M843.6,-386.28C799.29,-377.21 731.1,-363.24 683.3,-353.45"/>
<polygon fill="#63b8ff" stroke="#63b8ff" points="684.2,-350.06 673.7,-351.48 682.79,-356.92 684.2,-350.06"/>
</a>
</g>
</g>
<!-- Node28 -->
<g id="Node000028" class="node">
<title>Node28</title>
<g id="a_Node000028"><a xlink:title=" ">
<polygon fill="#e0e0e0" stroke="#999999" points="1163.25,-240.25 1112.75,-240.25 1112.75,-221 1163.25,-221 1163.25,-240.25"/>
<text text-anchor="middle" x="1138" y="-226.75" font-family="Helvetica,sans-Serif" font-size="10.00">memory</text>
</a>
</g>
</g>
<!-- Node1&#45;&gt;Node28 -->
<g id="edge63_Node000001_Node000028" class="edge">
<title>Node1&#45;&gt;Node28</title>
<g id="a_edge63_Node000001_Node000028"><a xlink:title=" ">
<path fill="none" stroke="#63b8ff" d="M921.02,-386.3C965.67,-372.68 1045.81,-343.33 1099,-295.5 1112.74,-283.15 1123.25,-264.81 1129.87,-250.95"/>
<polygon fill="#63b8ff" stroke="#63b8ff" points="1133,-252.53 1133.9,-241.97 1126.61,-249.66 1133,-252.53"/>
</a>
</g>
</g>
<!-- Node31 -->
<g id="Node000031" class="node">
<title>Node31</title>
<g id="a_Node000031"><a xlink:title=" ">
<polygon fill="#e0e0e0" stroke="#999999" points="1296.62,-350.75 1257.38,-350.75 1257.38,-331.5 1296.62,-331.5 1296.62,-350.75"/>
<text text-anchor="middle" x="1277" y="-337.25" font-family="Helvetica,sans-Serif" font-size="10.00">limits</text>
</a>
</g>
</g>
<!-- Node1&#45;&gt;Node31 -->
<g id="edge62_Node000001_Node000031" class="edge">
<title>Node1&#45;&gt;Node31</title>
<g id="a_edge62_Node000001_Node000031"><a xlink:title=" ">
<path fill="none" stroke="#63b8ff" d="M954.46,-389.49C1026.08,-382.58 1143.2,-369.61 1243,-350.75 1243.99,-350.56 1245,-350.36 1246.02,-350.15"/>
<polygon fill="#63b8ff" stroke="#63b8ff" points="1246.51,-353.63 1255.48,-347.98 1244.95,-346.81 1246.51,-353.63"/>
</a>
</g>
</g>
<!-- Node32 -->
<g id="Node000032" class="node">
<title>Node32</title>
<g id="a_Node000032"><a xlink:title=" ">
<polygon fill="#e0e0e0" stroke="#999999" points="1373,-350.75 1315,-350.75 1315,-331.5 1373,-331.5 1373,-350.75"/>
<text text-anchor="middle" x="1344" y="-337.25" font-family="Helvetica,sans-Serif" font-size="10.00">stdexcept</text>
</a>
</g>
</g>
<!-- Node1&#45;&gt;Node32 -->
<g id="edge65_Node000001_Node000032" class="edge">
<title>Node1&#45;&gt;Node32</title>
<g id="a_edge65_Node000001_Node000032"><a xlink:title=" ">
<path fill="none" stroke="#63b8ff" d="M954.57,-390.68C1034.98,-384.47 1174.53,-371.98 1303.37,-351.01"/>
<polygon fill="#63b8ff" stroke="#63b8ff" points="1303.82,-354.48 1313.12,-349.4 1302.68,-347.58 1303.82,-354.48"/>
</a>
</g>
</g>
<!-- Node3 -->
<g id="Node000003" class="node">
<title>Node3</title>
<g id="a_Node000003"><a xlink:href="../../dc/d44/_call_8hpp.html" target="_top" xlink:title=" ">
<polygon fill="white" stroke="#666666" points="480.88,-185 389.12,-185 389.12,-165.75 480.88,-165.75 480.88,-185"/>
<text text-anchor="middle" x="435" y="-171.5" font-family="Helvetica,sans-Serif" font-size="10.00">mimic++/Call.hpp</text>
</a>
</g>
</g>
<!-- Node2&#45;&gt;Node3 -->
<g id="edge2_Node000002_Node000003" class="edge">
<title>Node2&#45;&gt;Node3</title>
<g id="a_edge2_Node000002_Node000003"><a xlink:title=" ">
<path fill="none" stroke="#63b8ff" d="M833.36,-223.2C747.22,-213.08 580.62,-193.49 492.65,-183.15"/>
<polygon fill="#63b8ff" stroke="#63b8ff" points="493.13,-179.68 482.79,-181.99 492.31,-186.64 493.13,-179.68"/>
</a>
</g>
</g>
<!-- Node4 -->
<g id="Node000004" class="node">
<title>Node4</title>
<g id="a_Node000004"><a xlink:href="../../df/dde/_fwd_8hpp.html" target="_top" xlink:title=" ">
<polygon fill="white" stroke="#666666" points="827,-74.5 733,-74.5 733,-55.25 827,-55.25 827,-74.5"/>
<text text-anchor="middle" x="780" y="-61" font-family="Helvetica,sans-Serif" font-size="10.00">mimic++/Fwd.hpp</text>
</a>
</g>
</g>
<!-- Node2&#45;&gt;Node4 -->
<g id="edge17_Node000002_Node000004" class="edge">
<title>Node2&#45;&gt;Node4</title>
<g id="a_edge17_Node000002_Node000004"><a xlink:title=" ">
<path fill="none" stroke="#63b8ff" d="M938.13,-220.56C987.48,-211.22 1059.1,-196.46 1085,-185 1129.13,-165.47 1196.1,-146.54 1164,-110.5 1142.75,-86.64 940.67,-73.59 838.52,-68.46"/>
<polygon fill="#63b8ff" stroke="#63b8ff" points="838.84,-64.97 828.68,-67.98 838.5,-71.97 838.84,-64.97"/>
</a>
</g>
</g>
<!-- Node13 -->
<g id="Node000013" class="node">
<title>Node13</title>
<g id="a_Node000013"><a xlink:href="../../da/dab/_printer_8hpp.html" target="_top" xlink:title=" ">
<polygon fill="white" stroke="#666666" points="909.88,-185 806.12,-185 806.12,-165.75 909.88,-165.75 909.88,-185"/>
<text text-anchor="middle" x="858" y="-171.5" font-family="Helvetica,sans-Serif" font-size="10.00">mimic++/Printer.hpp</text>
</a>
</g>
</g>
<!-- Node2&#45;&gt;Node13 -->
<g id="edge18_Node000002_Node000013" class="edge">
<title>Node2&#45;&gt;Node13</title>
<g id="a_edge18_Node000002_Node000013"><a xlink:title=" ">
<path fill="none" stroke="#63b8ff" d="M883.05,-220.83C879.12,-213.86 873.49,-203.87 868.56,-195.12"/>
<polygon fill="#63b8ff" stroke="#63b8ff" points="871.76,-193.67 863.8,-186.68 865.66,-197.11 871.76,-193.67"/>
</a>
</g>
</g>
<!-- Node14 -->
<g id="Node000014" class="node">
<title>Node14</title>
<g id="a_Node000014"><a xlink:title=" ">
<polygon fill="#e0e0e0" stroke="#999999" points="724,-129.75 666,-129.75 666,-110.5 724,-110.5 724,-129.75"/>
<text text-anchor="middle" x="695" y="-116.25" font-family="Helvetica,sans-Serif" font-size="10.00">functional</text>
</a>
</g>
</g>
<!-- Node2&#45;&gt;Node14 -->
<g id="edge30_Node000002_Node000014" class="edge">
<title>Node2&#45;&gt;Node14</title>
<g id="a_edge30_Node000002_Node000014"><a xlink:title=" ">
<path fill="none" stroke="#63b8ff" d="M868.17,-220.63C849.53,-212 820.99,-198.35 797,-185 769.04,-169.45 738.03,-149.64 717.63,-136.24"/>
<polygon fill="#63b8ff" stroke="#63b8ff" points="719.8,-133.48 709.52,-130.88 715.94,-139.32 719.8,-133.48"/>
</a>
</g>
</g>
<!-- Node15 -->
<g id="Node000015" class="node">
<title>Node15</title>
<g id="a_Node000015"><a xlink:title=" ">
<polygon fill="#e0e0e0" stroke="#999999" points="1155,-129.75 1109,-129.75 1109,-110.5 1155,-110.5 1155,-129.75"/>
<text text-anchor="middle" x="1132" y="-116.25" font-family="Helvetica,sans-Serif" font-size="10.00">iterator</text>
</a>
</g>
</g>
<!-- Node2&#45;&gt;Node15 -->
<g id="edge31_Node000002_Node000015" class="edge">
<title>Node2&#45;&gt;Node15</title>
<g id="a_edge31_Node000002_Node000015"><a xlink:title=" ">
<path fill="none" stroke="#63b8ff" d="M942.78,-221.57C977.02,-215.02 1021.23,-203.7 1057,-185 1080.09,-172.92 1102.27,-152.59 1116.43,-138.11"/>
<polygon fill="#63b8ff" stroke="#63b8ff" points="1118.77,-140.74 1123.11,-131.08 1113.69,-135.92 1118.77,-140.74"/>
</a>
</g>
</g>
<!-- Node19 -->
<g id="Node000019" class="node">
<title>Node19</title>
<g id="a_Node000019"><a xlink:title=" ">
<polygon fill="#e0e0e0" stroke="#999999" points="1197.88,-185 1142.12,-185 1142.12,-165.75 1197.88,-165.75 1197.88,-185"/>
<text text-anchor="middle" x="1170" y="-171.5" font-family="Helvetica,sans-Serif" font-size="10.00">algorithm</text>
</a>
</g>
</g>
<!-- Node2&#45;&gt;Node19 -->
<g id="edge29_Node000002_Node000019" class="edge">
<title>Node2&#45;&gt;Node19</title>
<g id="a_edge29_Node000002_Node000019"><a xlink:title=" ">
<path fill="none" stroke="#63b8ff" d="M938.16,-220.58C986.75,-211.75 1062.49,-197.82 1128,-185 1128.99,-184.81 1129.99,-184.61 1131.01,-184.41"/>
<polygon fill="#63b8ff" stroke="#63b8ff" points="1131.4,-187.9 1140.52,-182.5 1130.02,-181.04 1131.4,-187.9"/>
</a>
</g>
</g>
<!-- Node2&#45;&gt;Node20 -->
<g id="edge32_Node000002_Node000020" class="edge">
<title>Node2&#45;&gt;Node20</title>
<g id="a_edge32_Node000002_Node000020"><a xlink:title=" ">
<path fill="none" stroke="#63b8ff" d="M942.77,-223.81C1004.19,-216.88 1106.96,-204.06 1204.56,-185.29"/>
<polygon fill="#63b8ff" stroke="#63b8ff" points="1205.19,-188.73 1214.33,-183.38 1203.85,-181.86 1205.19,-188.73"/>
</a>
</g>
</g>
<!-- Node21 -->
<g id="Node000021" class="node">
<title>Node21</title>
<g id="a_Node000021"><a xlink:title=" ">
<polygon fill="#e0e0e0" stroke="#999999" points="749.62,-185 704.38,-185 704.38,-165.75 749.62,-165.75 749.62,-185"/>
<text text-anchor="middle" x="727" y="-171.5" font-family="Helvetica,sans-Serif" font-size="10.00">ranges</text>
</a>
</g>
</g>
<!-- Node2&#45;&gt;Node21 -->
<g id="edge33_Node000002_Node000021" class="edge">
<title>Node2&#45;&gt;Node21</title>
<g id="a_edge33_Node000002_Node000021"><a xlink:title=" ">
<path fill="none" stroke="#63b8ff" d="M860.69,-220.59C833.08,-211.46 790.38,-197.34 760.69,-187.52"/>
<polygon fill="#63b8ff" stroke="#63b8ff" points="762.03,-184.28 751.44,-184.46 759.84,-190.92 762.03,-184.28"/>
</a>
</g>
</g>
<!-- Node22 -->
<g id="Node000022" class="node">
<title>Node22</title>
<g id="a_Node000022"><a xlink:title=" ">
<polygon fill="#e0e0e0" stroke="#999999" points="984.25,-185 927.75,-185 927.75,-165.75 984.25,-165.75 984.25,-185"/>
<text text-anchor="middle" x="956" y="-171.5" font-family="Helvetica,sans-Serif" font-size="10.00">typeindex</text>
</a>
</g>
</g>
<!-- Node2&#45;&gt;Node22 -->
<g id="edge34_Node000002_Node000022" class="edge">
<title>Node2&#45;&gt;Node22</title>
<g id="a_edge34_Node000002_Node000022"><a xlink:title=" ">
<path fill="none" stroke="#63b8ff" d="M899.54,-220.59C909.46,-212.82 924.01,-201.42 935.86,-192.15"/>
<polygon fill="#63b8ff" stroke="#63b8ff" points="937.73,-195.13 943.44,-186.21 933.41,-189.62 937.73,-195.13"/>
</a>
</g>
</g>
<!-- Node23 -->
<g id="Node000023" class="node">
<title>Node23</title>
<g id="a_Node000023"><a xlink:title=" ">
<polygon fill="#e0e0e0" stroke="#999999" points="1047.62,-185 1002.38,-185 1002.38,-165.75 1047.62,-165.75 1047.62,-185"/>
<text text-anchor="middle" x="1025" y="-171.5" font-family="Helvetica,sans-Serif" font-size="10.00">variant</text>
</a>
</g>
</g>
<!-- Node2&#45;&gt;Node23 -->
<g id="edge35_Node000002_Node000023" class="edge">
<title>Node2&#45;&gt;Node23</title>
<g id="a_edge35_Node000002_Node000023"><a xlink:title=" ">
<path fill="none" stroke="#63b8ff" d="M911.24,-220.59C933.32,-212.01 966.75,-199.02 991.67,-189.33"/>
<polygon fill="#63b8ff" stroke="#63b8ff" points="992.64,-192.71 1000.69,-185.82 990.1,-186.18 992.64,-192.71"/>
</a>
</g>
</g>
<!-- Node2&#45;&gt;Node24 -->
<g id="edge36_Node000002_Node000024" class="edge">
<title>Node2&#45;&gt;Node24</title>
<g id="a_edge36_Node000002_Node000024"><a xlink:title=" ">
<path fill="none" stroke="#63b8ff" d="M942.92,-226.16C1016.13,-220.91 1149.82,-209.13 1272.11,-185.3"/>
<polygon fill="#63b8ff" stroke="#63b8ff" points="1272.54,-188.78 1281.66,-183.4 1271.17,-181.92 1272.54,-188.78"/>
</a>
</g>
</g>
<!-- Node3&#45;&gt;Node4 -->
<g id="edge3_Node000003_Node000004" class="edge">
<title>Node3&#45;&gt;Node4</title>
<g id="a_edge3_Node000003_Node000004"><a xlink:title=" ">
<path fill="none" stroke="#63b8ff" d="M460.55,-165.31C496.76,-152.56 565.14,-128.85 624,-110.5 661.36,-98.85 704.12,-86.7 735.41,-78.03"/>
<polygon fill="#63b8ff" stroke="#63b8ff" points="736.22,-81.43 744.93,-75.4 734.36,-74.69 736.22,-81.43"/>
</a>
</g>
</g>
<!-- Node6 -->
<g id="Node000006" class="node">
<title>Node6</title>
<g id="a_Node000006"><a xlink:href="../../d8/d32/_type_traits_8hpp.html" target="_top" xlink:title=" ">
<polygon fill="white" stroke="#666666" points="495.5,-129.75 374.5,-129.75 374.5,-110.5 495.5,-110.5 495.5,-129.75"/>
<text text-anchor="middle" x="435" y="-116.25" font-family="Helvetica,sans-Serif" font-size="10.00">mimic++/TypeTraits.hpp</text>
</a>
</g>
</g>
<!-- Node3&#45;&gt;Node6 -->
<g id="edge5_Node000003_Node000006" class="edge">
<title>Node3&#45;&gt;Node6</title>
<g id="a_edge5_Node000003_Node000006"><a xlink:title=" ">
<path fill="none" stroke="#63b8ff" d="M435,-165.58C435,-159.07 435,-149.92 435,-141.62"/>
<polygon fill="#63b8ff" stroke="#63b8ff" points="438.5,-141.62 435,-131.62 431.5,-141.62 438.5,-141.62"/>
</a>
</g>
</g>
<!-- Node3&#45;&gt;Node7 -->
<g id="edge15_Node000003_Node000007" class="edge">
<title>Node3&#45;&gt;Node7</title>
<g id="a_edge15_Node000003_Node000007"><a xlink:title=" ">
<path fill="none" stroke="#63b8ff" d="M388.9,-169.5C349.53,-163.95 292.25,-152.51 247,-129.75 223.54,-117.95 201.08,-97.57 186.74,-83"/>
<polygon fill="#63b8ff" stroke="#63b8ff" points="189.41,-80.72 179.97,-75.9 184.35,-85.56 189.41,-80.72"/>
</a>
</g>
</g>
<!-- Node3&#45;&gt;Node8 -->
<g id="edge8_Node000003_Node000008" class="edge">
<title>Node3&#45;&gt;Node8</title>
<g id="a_edge8_Node000003_Node000008"><a xlink:title=" ">
<path fill="none" stroke="#63b8ff" d="M413.12,-165.34C392.64,-156.89 361.79,-144.15 338.44,-134.52"/>
<polygon fill="#63b8ff" stroke="#63b8ff" points="339.97,-131.36 329.39,-130.78 337.3,-137.83 339.97,-131.36"/>
</a>
</g>
</g>
<!-- Node11 -->
<g id="Node000011" class="node">
<title>Node11</title>
<g id="a_Node000011"><a xlink:title=" ">
<polygon fill="#e0e0e0" stroke="#999999" points="604.12,-74.5 519.88,-74.5 519.88,-55.25 604.12,-55.25 604.12,-74.5"/>
<text text-anchor="middle" x="562" y="-61" font-family="Helvetica,sans-Serif" font-size="10.00">source_location</text>
</a>
</g>
</g>
<!-- Node3&#45;&gt;Node11 -->
<g id="edge14_Node000003_Node000011" class="edge">
<title>Node3&#45;&gt;Node11</title>
<g id="a_edge14_Node000003_Node000011"><a xlink:title=" ">
<path fill="none" stroke="#63b8ff" d="M460.47,-165.28C478.82,-157.81 503.35,-145.85 521,-129.75 534.84,-117.12 545.96,-98.82 553.1,-85.04"/>
<polygon fill="#63b8ff" stroke="#63b8ff" points="556.22,-86.63 557.48,-76.11 549.94,-83.55 556.22,-86.63"/>
</a>
</g>
</g>
<!-- Node3&#45;&gt;Node12 -->
<g id="edge16_Node000003_Node000012" class="edge">
<title>Node3&#45;&gt;Node12</title>
<g id="a_edge16_Node000003_Node000012"><a xlink:title=" ">
<path fill="none" stroke="#63b8ff" d="M459.09,-165.37C484.48,-154.39 519,-134.33 505,-110.5 494.31,-92.3 473.21,-80.98 455.36,-74.29"/>
<polygon fill="#63b8ff" stroke="#63b8ff" points="456.55,-71 445.95,-71.11 454.3,-77.63 456.55,-71"/>
</a>
</g>
</g>
<!-- Node5 -->
<g id="Node000005" class="node">
<title>Node5</title>
<g id="a_Node000005"><a xlink:title=" ">
<polygon fill="#e0e0e0" stroke="#999999" points="950,-19.25 910,-19.25 910,0 950,0 950,-19.25"/>
<text text-anchor="middle" x="930" y="-5.75" font-family="Helvetica,sans-Serif" font-size="10.00">string</text>
</a>
</g>
</g>
<!-- Node4&#45;&gt;Node5 -->
<g id="edge4_Node000004_Node000005" class="edge">
<title>Node4&#45;&gt;Node5</title>
<g id="a_edge4_Node000004_Node000005"><a xlink:title=" ">
<path fill="none" stroke="#63b8ff" d="M805.45,-54.84C831.3,-45.66 871.39,-31.43 899.07,-21.61"/>
<polygon fill="#63b8ff" stroke="#63b8ff" points="900.05,-24.97 908.31,-18.33 897.71,-18.37 900.05,-24.97"/>
</a>
</g>
</g>
<!-- Node6&#45;&gt;Node4 -->
<g id="edge6_Node000006_Node000004" class="edge">
<title>Node6&#45;&gt;Node4</title>
<g id="a_edge6_Node000006_Node000004"><a xlink:title=" ">
<path fill="none" stroke="#63b8ff" d="M493.92,-110.03C557.55,-100.21 658.31,-84.66 721.7,-74.87"/>
<polygon fill="#63b8ff" stroke="#63b8ff" points="721.85,-78.39 731.2,-73.41 720.79,-71.47 721.85,-78.39"/>
</a>
</g>
</g>
<!-- Node6&#45;&gt;Node7 -->
<g id="edge7_Node000006_Node000007" class="edge">
<title>Node6&#45;&gt;Node7</title>
<g id="a_edge7_Node000006_Node000007"><a xlink:title=" ">
<path fill="none" stroke="#63b8ff" d="M389.92,-110.03C335.86,-99.13 246.8,-81.16 200.71,-71.87"/>
<polygon fill="#63b8ff" stroke="#63b8ff" points="201.68,-68.49 191.18,-69.95 200.29,-75.35 201.68,-68.49"/>
</a>
</g>
</g>
<!-- Node8&#45;&gt;Node4 -->
<g id="edge9_Node000008_Node000004" class="edge">
<title>Node8&#45;&gt;Node4</title>
<g id="a_edge9_Node000008_Node000004"><a xlink:title=" ">
<path fill="none" stroke="#63b8ff" d="M356.4,-111.75C359.65,-111.31 362.87,-110.89 366,-110.5 492.47,-94.6 641.13,-79.43 721.41,-71.53"/>
<polygon fill="#63b8ff" stroke="#63b8ff" points="721.63,-75.03 731.24,-70.57 720.95,-68.06 721.63,-75.03"/>
</a>
</g>
</g>
<!-- Node8&#45;&gt;Node9 -->
<g id="edge10_Node000008_Node000009" class="edge">
<title>Node8&#45;&gt;Node9</title>
<g id="a_edge10_Node000008_Node000009"><a xlink:title=" ">
<path fill="none" stroke="#63b8ff" d="M268.09,-110.03C226.41,-100.03 159.98,-84.1 119.35,-74.35"/>
<polygon fill="#63b8ff" stroke="#63b8ff" points="120.38,-71 109.84,-72.07 118.74,-77.81 120.38,-71"/>
</a>
</g>
</g>
<!-- Node10 -->
<g id="Node000010" class="node">
<title>Node10</title>
<g id="a_Node000010"><a xlink:title=" ">
<polygon fill="#e0e0e0" stroke="#999999" points="330.12,-74.5 281.88,-74.5 281.88,-55.25 330.12,-55.25 330.12,-74.5"/>
<text text-anchor="middle" x="306" y="-61" font-family="Helvetica,sans-Serif" font-size="10.00">cstddef</text>
</a>
</g>
</g>
<!-- Node8&#45;&gt;Node10 -->
<g id="edge11_Node000008_Node000010" class="edge">
<title>Node8&#45;&gt;Node10</title>
<g id="a_edge11_Node000008_Node000010"><a xlink:title=" ">
<path fill="none" stroke="#63b8ff" d="M306,-110.33C306,-103.82 306,-94.67 306,-86.37"/>
<polygon fill="#63b8ff" stroke="#63b8ff" points="309.5,-86.37 306,-76.37 302.5,-86.37 309.5,-86.37"/>
</a>
</g>
</g>
<!-- Node8&#45;&gt;Node11 -->
<g id="edge12_Node000008_Node000011" class="edge">
<title>Node8&#45;&gt;Node11</title>
<g id="a_edge12_Node000008_Node000011"><a xlink:title=" ">
<path fill="none" stroke="#63b8ff" d="M349.72,-110.03C393.65,-100.89 461.43,-86.8 508.53,-77"/>
<polygon fill="#63b8ff" stroke="#63b8ff" points="509.18,-80.44 518.26,-74.97 507.75,-73.58 509.18,-80.44"/>
</a>
</g>
</g>
<!-- Node8&#45;&gt;Node12 -->
<g id="edge13_Node000008_Node000012" class="edge">
<title>Node8&#45;&gt;Node12</title>
<g id="a_edge13_Node000008_Node000012"><a xlink:title=" ">
<path fill="none" stroke="#63b8ff" d="M326.19,-110.09C345.13,-101.61 373.71,-88.83 395.26,-79.18"/>
<polygon fill="#63b8ff" stroke="#63b8ff" points="396.43,-82.5 404.12,-75.22 393.57,-76.11 396.43,-82.5"/>
</a>
</g>
</g>
<!-- Node13&#45;&gt;Node4 -->
<g id="edge19_Node000013_Node000004" class="edge">
<title>Node13&#45;&gt;Node4</title>
<g id="a_edge19_Node000013_Node000004"><a xlink:title=" ">
<path fill="none" stroke="#63b8ff" d="M863.61,-165.4C870.97,-152.34 881.78,-127.79 871,-110.5 861.76,-95.68 846.01,-85.64 830.18,-78.91"/>
<polygon fill="#63b8ff" stroke="#63b8ff" points="831.84,-75.8 821.25,-75.48 829.33,-82.33 831.84,-75.8"/>
</a>
</g>
</g>
<!-- Node13&#45;&gt;Node5 -->
<g id="edge25_Node000013_Node000005" class="edge">
<title>Node13&#45;&gt;Node5</title>
<g id="a_edge25_Node000013_Node000005"><a xlink:title=" ">
<path fill="none" stroke="#63b8ff" d="M910.36,-166.39C967.58,-157.12 1052.45,-141.61 1062,-129.75 1098.35,-84.59 1010.33,-41.58 960.86,-21.87"/>
<polygon fill="#63b8ff" stroke="#63b8ff" points="962.36,-18.7 951.77,-18.35 959.83,-25.23 962.36,-18.7"/>
</a>
</g>
</g>
<!-- Node13&#45;&gt;Node8 -->
<g id="edge20_Node000013_Node000008" class="edge">
<title>Node13&#45;&gt;Node8</title>
<g id="a_edge20_Node000013_Node000008"><a xlink:title=" ">
<path fill="none" stroke="#63b8ff" d="M806,-169.81C695.05,-160.06 440,-137.52 367.42,-129.79"/>
<polygon fill="#63b8ff" stroke="#63b8ff" points="368.22,-126.36 357.89,-128.73 367.45,-133.31 368.22,-126.36"/>
</a>
</g>
</g>
<!-- Node13&#45;&gt;Node11 -->
<g id="edge23_Node000013_Node000011" class="edge">
<title>Node13&#45;&gt;Node11</title>
<g id="a_edge23_Node000013_Node000011"><a xlink:title=" ">
<path fill="none" stroke="#63b8ff" d="M848.04,-165.45C831.98,-151.54 798.8,-124.8 766,-110.5 717.44,-89.33 657.87,-77.79 615.66,-71.78"/>
<polygon fill="#63b8ff" stroke="#63b8ff" points="616.39,-68.35 606.01,-70.47 615.45,-75.29 616.39,-68.35"/>
</a>
</g>
</g>
<!-- Node13&#45;&gt;Node12 -->
<g id="edge27_Node000013_Node000012" class="edge">
<title>Node13&#45;&gt;Node12</title>
<g id="a_edge27_Node000013_Node000012"><a xlink:title=" ">
<path fill="none" stroke="#63b8ff" d="M838.4,-165.4C819.62,-156.68 790.59,-142.86 766,-129.75 751.02,-121.76 749.03,-116.1 733,-110.5 681.99,-92.69 522.71,-75.47 455.45,-68.79"/>
<polygon fill="#63b8ff" stroke="#63b8ff" points="456.18,-65.34 445.88,-67.85 455.49,-72.31 456.18,-65.34"/>
</a>
</g>
</g>
<!-- Node13&#45;&gt;Node14 -->
<g id="edge21_Node000013_Node000014" class="edge">
<title>Node13&#45;&gt;Node14</title>
<g id="a_edge21_Node000013_Node000014"><a xlink:title=" ">
<path fill="none" stroke="#63b8ff" d="M830.35,-165.34C803.77,-156.66 763.36,-143.46 733.61,-133.74"/>
<polygon fill="#63b8ff" stroke="#63b8ff" points="734.82,-130.45 724.23,-130.67 732.64,-137.1 734.82,-130.45"/>
</a>
</g>
</g>
<!-- Node13&#45;&gt;Node15 -->
<g id="edge22_Node000013_Node000015" class="edge">
<title>Node13&#45;&gt;Node15</title>
<g id="a_edge22_Node000013_Node000015"><a xlink:title=" ">
<path fill="none" stroke="#63b8ff" d="M909.91,-165.26C958.01,-156.66 1031.5,-143.12 1095,-129.75 1095.82,-129.58 1096.66,-129.4 1097.5,-129.22"/>
<polygon fill="#63b8ff" stroke="#63b8ff" points="1098.07,-132.68 1107.07,-127.08 1096.55,-125.84 1098.07,-132.68"/>
</a>
</g>
</g>
<!-- Node16 -->
<g id="Node000016" class="node">
<title>Node16</title>
<g id="a_Node000016"><a xlink:title=" ">
<polygon fill="#e0e0e0" stroke="#999999" points="969.62,-129.75 918.38,-129.75 918.38,-110.5 969.62,-110.5 969.62,-129.75"/>
<text text-anchor="middle" x="944" y="-116.25" font-family="Helvetica,sans-Serif" font-size="10.00">sstream</text>
</a>
</g>
</g>
<!-- Node13&#45;&gt;Node16 -->
<g id="edge24_Node000013_Node000016" class="edge">
<title>Node13&#45;&gt;Node16</title>
<g id="a_edge24_Node000013_Node000016"><a xlink:title=" ">
<path fill="none" stroke="#63b8ff" d="M872.59,-165.34C885.44,-157.39 904.41,-145.64 919.57,-136.25"/>
<polygon fill="#63b8ff" stroke="#63b8ff" points="921.39,-139.24 928.05,-131 917.71,-133.29 921.39,-139.24"/>
</a>
</g>
</g>
<!-- Node17 -->
<g id="Node000017" class="node">
<title>Node17</title>
<g id="a_Node000017"><a xlink:title=" ">
<polygon fill="#e0e0e0" stroke="#999999" points="1052.75,-129.75 987.25,-129.75 987.25,-110.5 1052.75,-110.5 1052.75,-129.75"/>
<text text-anchor="middle" x="1020" y="-116.25" font-family="Helvetica,sans-Serif" font-size="10.00">string_view</text>
</a>
</g>
</g>
<!-- Node13&#45;&gt;Node17 -->
<g id="edge26_Node000013_Node000017" class="edge">
<title>Node13&#45;&gt;Node17</title>
<g id="a_edge26_Node000013_Node000017"><a xlink:title=" ">
<path fill="none" stroke="#63b8ff" d="M885.48,-165.34C911.9,-156.66 952.06,-143.46 981.62,-133.74"/>
<polygon fill="#63b8ff" stroke="#63b8ff" points="982.54,-137.12 990.95,-130.68 980.35,-130.47 982.54,-137.12"/>
</a>
</g>
</g>
<!-- Node18 -->
<g id="Node000018" class="node">
<title>Node18</title>
<g id="a_Node000018"><a xlink:title=" ">
<polygon fill="#e0e0e0" stroke="#999999" points="861.88,-129.75 818.12,-129.75 818.12,-110.5 861.88,-110.5 861.88,-129.75"/>
<text text-anchor="middle" x="840" y="-116.25" font-family="Helvetica,sans-Serif" font-size="10.00">format</text>
</a>
</g>
</g>
<!-- Node13&#45;&gt;Node18 -->
<g id="edge28_Node000013_Node000018" class="edge">
<title>Node13&#45;&gt;Node18</title>
<g id="a_edge28_Node000013_Node000018"><a xlink:title=" ">
<path fill="none" stroke="#63b8ff" d="M855.03,-165.58C852.75,-158.84 849.51,-149.27 846.63,-140.74"/>
<polygon fill="#63b8ff" stroke="#63b8ff" points="850.04,-139.9 843.52,-131.54 843.41,-142.14 850.04,-139.9"/>
</a>
</g>
</g>
<!-- Node25&#45;&gt;Node4 -->
<g id="edge38_Node000025_Node000004" class="edge">
<title>Node25&#45;&gt;Node4</title>
<g id="a_edge38_Node000025_Node000004"><a xlink:title=" ">
<path fill="none" stroke="#63b8ff" d="M687.8,-337.47C861.71,-328.96 1355,-298.9 1355,-231.62 1355,-231.62 1355,-231.62 1355,-174.38 1355,-165.93 1433.88,-168.81 1182,-110.5 1061.86,-82.69 917.38,-72.03 838.48,-68.08"/>
<polygon fill="#63b8ff" stroke="#63b8ff" points="839,-64.61 828.84,-67.62 838.66,-71.6 839,-64.61"/>
</a>
</g>
</g>
<!-- Node25&#45;&gt;Node7 -->
<g id="edge59_Node000025_Node000007" class="edge">
<title>Node25&#45;&gt;Node7</title>
<g id="a_edge59_Node000025_Node000007"><a xlink:title=" ">
<path fill="none" stroke="#63b8ff" d="M596.84,-331.07C570.52,-323 532.09,-310.2 500,-295.5 366.08,-234.15 320.13,-230.85 213,-129.75 199.28,-116.8 187.84,-98.53 180.38,-84.84"/>
<polygon fill="#63b8ff" stroke="#63b8ff" points="183.5,-83.25 175.79,-75.99 177.29,-86.48 183.5,-83.25"/>
</a>
</g>
</g>
<!-- Node25&#45;&gt;Node8 -->
<g id="edge53_Node000025_Node000008" class="edge">
<title>Node25&#45;&gt;Node8</title>
<g id="a_edge53_Node000025_Node000008"><a xlink:title=" ">
<path fill="none" stroke="#63b8ff" d="M605.91,-331.14C586.26,-322.83 557.02,-309.65 533,-295.5 449.32,-246.21 361.1,-170.55 324.05,-137.51"/>
<polygon fill="#63b8ff" stroke="#63b8ff" points="326.67,-135.16 316.89,-131.08 322,-140.37 326.67,-135.16"/>
</a>
</g>
</g>
<!-- Node25&#45;&gt;Node9 -->
<g id="edge56_Node000025_Node000009" class="edge">
<title>Node25&#45;&gt;Node9</title>
<g id="a_edge56_Node000025_Node000009"><a xlink:title=" ">
<path fill="none" stroke="#63b8ff" d="M584.75,-331.08C549.39,-323.18 498.34,-310.63 455,-295.5 316.29,-247.09 288.44,-215.3 169,-129.75 146.8,-113.85 121.86,-94.99 104.77,-81.9"/>
<polygon fill="#63b8ff" stroke="#63b8ff" points="106.96,-79.17 96.9,-75.86 102.7,-84.72 106.96,-79.17"/>
</a>
</g>
</g>
<!-- Node25&#45;&gt;Node13 -->
<g id="edge39_Node000025_Node000013" class="edge">
<title>Node25&#45;&gt;Node13</title>
<g id="a_edge39_Node000025_Node000013"><a xlink:title=" ">
<path fill="none" stroke="#63b8ff" d="M687.66,-334.74C719.71,-329.21 758.23,-318.05 786,-295.5 815.02,-271.94 805.16,-252.67 825,-221 830.68,-211.93 837.65,-202.33 843.71,-194.36"/>
<polygon fill="#63b8ff" stroke="#63b8ff" points="846.44,-196.55 849.82,-186.51 840.92,-192.25 846.44,-196.55"/>
</a>
</g>
</g>
<!-- Node25&#45;&gt;Node14 -->
<g id="edge57_Node000025_Node000014" class="edge">
<title>Node25&#45;&gt;Node14</title>
<g id="a_edge57_Node000025_Node000014"><a xlink:title=" ">
<path fill="none" stroke="#63b8ff" d="M594.53,-331.03C576.78,-324.32 556.52,-313.19 546,-295.5 529.08,-267.04 530.41,-250.21 546,-221 569.32,-177.3 621.17,-149.35 657.11,-134.45"/>
<polygon fill="#63b8ff" stroke="#63b8ff" points="658.29,-137.74 666.29,-130.8 655.71,-131.24 658.29,-137.74"/>
</a>
</g>
</g>
<!-- Node25&#45;&gt;Node19 -->
<g id="edge54_Node000025_Node000019" class="edge">
<title>Node25&#45;&gt;Node19</title>
<g id="a_edge54_Node000025_Node000019"><a xlink:title=" ">
<path fill="none" stroke="#63b8ff" d="M667.14,-331.08C703.71,-322.47 759.75,-308.87 808,-295.5 888.64,-273.15 908.5,-266.39 988,-240.25 1039.17,-223.42 1097.89,-202.52 1134.47,-189.31"/>
<polygon fill="#63b8ff" stroke="#63b8ff" points="1135.45,-192.68 1143.66,-185.99 1133.07,-186.1 1135.45,-192.68"/>
</a>
</g>
</g>
<!-- Node26 -->
<g id="Node000026" class="node">
<title>Node26</title>
<g id="a_Node000026"><a xlink:href="../../da/dd9/_reporter_8hpp.html" target="_top" xlink:title=" ">
<polygon fill="white" stroke="#666666" points="777,-295.5 665,-295.5 665,-276.25 777,-276.25 777,-295.5"/>
<text text-anchor="middle" x="721" y="-282" font-family="Helvetica,sans-Serif" font-size="10.00">mimic++/Reporter.hpp</text>
</a>
</g>
</g>
<!-- Node25&#45;&gt;Node26 -->
<g id="edge40_Node000025_Node000026" class="edge">
<title>Node25&#45;&gt;Node26</title>
<g id="a_edge40_Node000025_Node000026"><a xlink:title=" ">
<path fill="none" stroke="#63b8ff" d="M643.78,-331.09C657.94,-322.98 678.98,-310.93 695.53,-301.46"/>
<polygon fill="#63b8ff" stroke="#63b8ff" points="696.89,-304.71 703.83,-296.7 693.42,-298.64 696.89,-304.71"/>
</a>
</g>
</g>
<!-- Node29 -->
<g id="Node000029" class="node">
<title>Node29</title>
<g id="a_Node000029"><a xlink:title=" ">
<polygon fill="#e0e0e0" stroke="#999999" points="591.5,-295.5 554.5,-295.5 554.5,-276.25 591.5,-276.25 591.5,-295.5"/>
<text text-anchor="middle" x="573" y="-282" font-family="Helvetica,sans-Serif" font-size="10.00">array</text>
</a>
</g>
</g>
<!-- Node25&#45;&gt;Node29 -->
<g id="edge55_Node000025_Node000029" class="edge">
<title>Node25&#45;&gt;Node29</title>
<g id="a_edge55_Node000025_Node000029"><a xlink:title=" ">
<path fill="none" stroke="#63b8ff" d="M618.92,-331.33C611.16,-323.82 599.79,-312.81 590.3,-303.63"/>
<polygon fill="#63b8ff" stroke="#63b8ff" points="592.99,-301.35 583.37,-296.91 588.12,-306.38 592.99,-301.35"/>
</a>
</g>
</g>
<!-- Node30 -->
<g id="Node000030" class="node">
<title>Node30</title>
<g id="a_Node000030"><a xlink:title=" ">
<polygon fill="#e0e0e0" stroke="#999999" points="646.5,-295.5 609.5,-295.5 609.5,-276.25 646.5,-276.25 646.5,-295.5"/>
<text text-anchor="middle" x="628" y="-282" font-family="Helvetica,sans-Serif" font-size="10.00">span</text>
</a>
</g>
</g>
<!-- Node25&#45;&gt;Node30 -->
<g id="edge58_Node000025_Node000030" class="edge">
<title>Node25&#45;&gt;Node30</title>
<g id="a_edge58_Node000025_Node000030"><a xlink:title=" ">
<path fill="none" stroke="#63b8ff" d="M628,-331.33C628,-324.82 628,-315.67 628,-307.37"/>
<polygon fill="#63b8ff" stroke="#63b8ff" points="631.5,-307.37 628,-297.37 624.5,-307.37 631.5,-307.37"/>
</a>
</g>
</g>
<!-- Node26&#45;&gt;Node2 -->
<g id="edge44_Node000026_Node000002" class="edge">
<title>Node26&#45;&gt;Node2</title>
<g id="a_edge44_Node000026_Node000002"><a xlink:title=" ">
<path fill="none" stroke="#63b8ff" d="M749.33,-275.84C776.68,-267.12 818.32,-253.84 848.84,-244.11"/>
<polygon fill="#63b8ff" stroke="#63b8ff" points="849.63,-247.53 858.09,-241.16 847.5,-240.87 849.63,-247.53"/>
</a>
</g>
</g>
<!-- Node26&#45;&gt;Node3 -->
<g id="edge41_Node000026_Node000003" class="edge">
<title>Node26&#45;&gt;Node3</title>
<g id="a_edge41_Node000026_Node000003"><a xlink:title=" ">
<path fill="none" stroke="#63b8ff" d="M670.44,-275.79C634.85,-268.49 586.52,-256.71 546,-240.25 513.64,-227.1 479.19,-206.03 457.4,-191.72"/>
<polygon fill="#63b8ff" stroke="#63b8ff" points="459.58,-188.96 449.32,-186.32 455.7,-194.79 459.58,-188.96"/>
</a>
</g>
</g>
<!-- Node26&#45;&gt;Node4 -->
<g id="edge42_Node000026_Node000004" class="edge">
<title>Node26&#45;&gt;Node4</title>
<g id="a_edge42_Node000026_Node000004"><a xlink:title=" ">
<path fill="none" stroke="#63b8ff" d="M712.14,-275.77C686.75,-248.55 617.94,-166.22 657,-110.5 671.76,-89.45 697.5,-78.29 721.64,-72.39"/>
<polygon fill="#63b8ff" stroke="#63b8ff" points="722.05,-75.88 731.09,-70.35 720.58,-69.04 722.05,-75.88"/>
</a>
</g>
</g>
<!-- Node26&#45;&gt;Node9 -->
<g id="edge46_Node000026_Node000009" class="edge">
<title>Node26&#45;&gt;Node9</title>
<g id="a_edge46_Node000026_Node000009"><a xlink:title=" ">
<path fill="none" stroke="#63b8ff" d="M664.65,-275.84C620.49,-268.15 557.74,-255.87 504,-240.25 371.15,-201.64 339.8,-185.06 213,-129.75 177.12,-114.1 136.86,-93.69 111.01,-80.2"/>
<polygon fill="#63b8ff" stroke="#63b8ff" points="112.68,-77.13 102.2,-75.58 109.43,-83.33 112.68,-77.13"/>
</a>
</g>
</g>
<!-- Node26&#45;&gt;Node13 -->
<g id="edge43_Node000026_Node000013" class="edge">
<title>Node26&#45;&gt;Node13</title>
<g id="a_edge43_Node000026_Node000013"><a xlink:title=" ">
<path fill="none" stroke="#63b8ff" d="M729.68,-276.15C742.54,-263.41 767.67,-239.24 791,-221 804.55,-210.4 820.56,-199.68 833.53,-191.4"/>
<polygon fill="#63b8ff" stroke="#63b8ff" points="835.3,-194.43 841.9,-186.14 831.57,-188.5 835.3,-194.43"/>
</a>
</g>
</g>
<!-- Node26&#45;&gt;Node14 -->
<g id="edge48_Node000026_Node000014" class="edge">
<title>Node26&#45;&gt;Node14</title>
<g id="a_edge48_Node000026_Node000014"><a xlink:title=" ">
<path fill="none" stroke="#63b8ff" d="M717.85,-275.94C711.94,-258.65 699.39,-219.3 695,-185 693.14,-170.47 693.2,-153.92 693.69,-141.31"/>
<polygon fill="#63b8ff" stroke="#63b8ff" points="697.19,-141.53 694.22,-131.36 690.2,-141.16 697.19,-141.53"/>
</a>
</g>
</g>
<!-- Node26&#45;&gt;Node19 -->
<g id="edge45_Node000026_Node000019" class="edge">
<title>Node26&#45;&gt;Node19</title>
<g id="a_edge45_Node000026_Node000019"><a xlink:title=" ">
<path fill="none" stroke="#63b8ff" d="M777.44,-277.68C824.77,-270.77 893.77,-258.64 952,-240.25 971.97,-233.94 975.23,-227.89 995,-221 1019.8,-212.36 1087.09,-195.92 1130.63,-185.58"/>
<polygon fill="#63b8ff" stroke="#63b8ff" points="1131.29,-189.02 1140.22,-183.32 1129.68,-182.21 1131.29,-189.02"/>
</a>
</g>
</g>
<!-- Node26&#45;&gt;Node20 -->
<g id="edge50_Node000026_Node000020" class="edge">
<title>Node26&#45;&gt;Node20</title>
<g id="a_edge50_Node000026_Node000020"><a xlink:title=" ">
<path fill="none" stroke="#63b8ff" d="M777.36,-279.41C832,-273.19 916.85,-261.09 988,-240.25 1008.88,-234.14 1012.25,-227.51 1033,-221 1104.96,-198.41 1127.98,-202.29 1204.6,-185.43"/>
<polygon fill="#63b8ff" stroke="#63b8ff" points="1205.32,-188.85 1214.3,-183.24 1203.78,-182.03 1205.32,-188.85"/>
</a>
</g>
</g>
<!-- Node26&#45;&gt;Node21 -->
<g id="edge51_Node000026_Node000021" class="edge">
<title>Node26&#45;&gt;Node21</title>
<g id="a_edge51_Node000026_Node000021"><a xlink:title=" ">
<path fill="none" stroke="#63b8ff" d="M721.49,-276C722.44,-258.75 724.57,-220.33 725.88,-196.56"/>
<polygon fill="#63b8ff" stroke="#63b8ff" points="729.36,-197.07 726.42,-186.89 722.37,-196.68 729.36,-197.07"/>
</a>
</g>
</g>
<!-- Node26&#45;&gt;Node24 -->
<g id="edge52_Node000026_Node000024" class="edge">
<title>Node26&#45;&gt;Node24</title>
<g id="a_edge52_Node000026_Node000024"><a xlink:title=" ">
<path fill="none" stroke="#63b8ff" d="M777.3,-278.21C838.52,-270.59 939.13,-256.98 1025,-240.25 1060.47,-233.34 1068.76,-229 1104,-221 1176.34,-204.58 1197.73,-203.78 1272.22,-185.56"/>
<polygon fill="#63b8ff" stroke="#63b8ff" points="1272.76,-189.03 1281.63,-183.23 1271.08,-182.24 1272.76,-189.03"/>
</a>
</g>
</g>
<!-- Node27 -->
<g id="Node000027" class="node">
<title>Node27</title>
<g id="a_Node000027"><a xlink:title=" ">
<polygon fill="#e0e0e0" stroke="#999999" points="612.62,-240.25 555.38,-240.25 555.38,-221 612.62,-221 612.62,-240.25"/>
<text text-anchor="middle" x="584" y="-226.75" font-family="Helvetica,sans-Serif" font-size="10.00">exception</text>
</a>
</g>
</g>
<!-- Node26&#45;&gt;Node27 -->
<g id="edge47_Node000026_Node000027" class="edge">
<title>Node26&#45;&gt;Node27</title>
<g id="a_edge47_Node000026_Node000027"><a xlink:title=" ">
<path fill="none" stroke="#63b8ff" d="M697.76,-275.84C675.81,-267.31 642.65,-254.42 617.79,-244.76"/>
<polygon fill="#63b8ff" stroke="#63b8ff" points="619.35,-241.61 608.76,-241.25 616.82,-248.14 619.35,-241.61"/>
</a>
</g>
</g>
<!-- Node26&#45;&gt;Node28 -->
<g id="edge49_Node000026_Node000028" class="edge">
<title>Node26&#45;&gt;Node28</title>
<g id="a_edge49_Node000026_Node000028"><a xlink:title=" ">
<path fill="none" stroke="#63b8ff" d="M777.24,-277.69C864,-266.61 1028.11,-245.66 1101.23,-236.32"/>
<polygon fill="#63b8ff" stroke="#63b8ff" points="1101.59,-239.8 1111.07,-235.06 1100.71,-232.86 1101.59,-239.8"/>
</a>
</g>
</g>
</g>
</svg>
