<?xml version="1.0" encoding="UTF-8" standalone="no"?>
<!DOCTYPE svg PUBLIC "-//W3C//DTD SVG 1.1//EN"
 "http://www.w3.org/Graphics/SVG/1.1/DTD/svg11.dtd">
<!-- Generated by graphviz version 12.1.1 (20240910.0053)
 -->
<!-- Title: mimic++/ControlPolicy.hpp Pages: 1 -->
<svg width="1463pt" height="414pt"
 viewBox="0.00 0.00 1463.00 414.00" xmlns="http://www.w3.org/2000/svg" xmlns:xlink="http://www.w3.org/1999/xlink">
<g id="graph0" class="graph" transform="scale(1 1) rotate(0) translate(4 410)">
<title>mimic++/ControlPolicy.hpp</title>
<!-- Node1 -->
<g id="Node000001" class="node">
<title>Node1</title>
<g id="a_Node000001"><a xlink:title=" ">
<polygon fill="#999999" stroke="#666666" points="1190.12,-406 1057.88,-406 1057.88,-386.75 1190.12,-386.75 1190.12,-406"/>
<text text-anchor="middle" x="1124" y="-392.5" font-family="Helvetica,sans-Serif" font-size="10.00">mimic++/ControlPolicy.hpp</text>
</a>
</g>
</g>
<!-- Node2 -->
<g id="Node000002" class="node">
<title>Node2</title>
<g id="a_Node000002"><a xlink:href="../../d0/d3b/_reports_8hpp.html" target="_top" xlink:title=" ">
<polygon fill="white" stroke="#666666" points="908.5,-240.25 799.5,-240.25 799.5,-221 908.5,-221 908.5,-240.25"/>
<text text-anchor="middle" x="854" y="-226.75" font-family="Helvetica,sans-Serif" font-size="10.00">mimic++/Reports.hpp</text>
</a>
</g>
</g>
<!-- Node1&#45;&gt;Node2 -->
<g id="edge1_Node000001_Node000002" class="edge">
<title>Node1&#45;&gt;Node2</title>
<g id="a_edge1_Node000001_Node000002"><a xlink:title=" ">
<path fill="none" stroke="#63b8ff" d="M1109.1,-386.34C1064.75,-359.44 933.3,-279.72 878.46,-246.46"/>
<polygon fill="#63b8ff" stroke="#63b8ff" points="880.51,-243.61 870.15,-241.42 876.88,-249.6 880.51,-243.61"/>
</a>
</g>
</g>
<!-- Node7 -->
<g id="Node000007" class="node">
<title>Node7</title>
<g id="a_Node000007"><a xlink:title=" ">
<polygon fill="#e0e0e0" stroke="#999999" points="1272.5,-74.5 1235.5,-74.5 1235.5,-55.25 1272.5,-55.25 1272.5,-74.5"/>
<text text-anchor="middle" x="1254" y="-61" font-family="Helvetica,sans-Serif" font-size="10.00">tuple</text>
</a>
</g>
</g>
<!-- Node1&#45;&gt;Node7 -->
<g id="edge64_Node000001_Node000007" class="edge">
<title>Node1&#45;&gt;Node7</title>
<g id="a_edge64_Node000001_Node000007"><a xlink:title=" ">
<path fill="none" stroke="#63b8ff" d="M1183.68,-386.27C1238.41,-374.13 1311,-346.74 1311,-286.88 1311,-286.88 1311,-286.88 1311,-174.38 1311,-138.92 1286.86,-103.66 1269.99,-83.35"/>
<polygon fill="#63b8ff" stroke="#63b8ff" points="1272.84,-81.3 1263.65,-76.04 1267.56,-85.88 1272.84,-81.3"/>
</a>
</g>
</g>
<!-- Node8 -->
<g id="Node000008" class="node">
<title>Node8</title>
<g id="a_Node000008"><a xlink:href="../../d4/d2c/_utility_8hpp.html" target="_top" xlink:title=" ">
<polygon fill="white" stroke="#666666" points="280,-129.75 180,-129.75 180,-110.5 280,-110.5 280,-129.75"/>
<text text-anchor="middle" x="230" y="-116.25" font-family="Helvetica,sans-Serif" font-size="10.00">mimic++/Utility.hpp</text>
</a>
</g>
</g>
<!-- Node1&#45;&gt;Node8 -->
<g id="edge58_Node000001_Node000008" class="edge">
<title>Node1&#45;&gt;Node8</title>
<g id="a_edge58_Node000001_Node000008"><a xlink:title=" ">
<path fill="none" stroke="#63b8ff" d="M1057.54,-394.28C850.35,-390 230,-370.23 230,-286.88 230,-286.88 230,-286.88 230,-229.62 230,-198.91 230,-163.3 230,-141.49"/>
<polygon fill="#63b8ff" stroke="#63b8ff" points="233.5,-141.64 230,-131.64 226.5,-141.64 233.5,-141.64"/>
</a>
</g>
</g>
<!-- Node9 -->
<g id="Node000009" class="node">
<title>Node9</title>
<g id="a_Node000009"><a xlink:title=" ">
<polygon fill="#e0e0e0" stroke="#999999" points="81.12,-74.5 32.88,-74.5 32.88,-55.25 81.12,-55.25 81.12,-74.5"/>
<text text-anchor="middle" x="57" y="-61" font-family="Helvetica,sans-Serif" font-size="10.00">cassert</text>
</a>
</g>
</g>
<!-- Node1&#45;&gt;Node9 -->
<g id="edge59_Node000001_Node000009" class="edge">
<title>Node1&#45;&gt;Node9</title>
<g id="a_edge59_Node000001_Node000009"><a xlink:title=" ">
<path fill="none" stroke="#63b8ff" d="M1057.47,-395.97C816.01,-397.28 0,-393.78 0,-286.88 0,-286.88 0,-286.88 0,-174.38 0,-138.92 24.14,-103.66 41.01,-83.35"/>
<polygon fill="#63b8ff" stroke="#63b8ff" points="43.44,-85.88 47.35,-76.04 38.16,-81.3 43.44,-85.88"/>
</a>
</g>
</g>
<!-- Node12 -->
<g id="Node000012" class="node">
<title>Node12</title>
<g id="a_Node000012"><a xlink:title=" ">
<polygon fill="#e0e0e0" stroke="#999999" points="267.25,-74.5 228.75,-74.5 228.75,-55.25 267.25,-55.25 267.25,-74.5"/>
<text text-anchor="middle" x="248" y="-61" font-family="Helvetica,sans-Serif" font-size="10.00">utility</text>
</a>
</g>
</g>
<!-- Node1&#45;&gt;Node12 -->
<g id="edge65_Node000001_Node000012" class="edge">
<title>Node1&#45;&gt;Node12</title>
<g id="a_edge65_Node000001_Node000012"><a xlink:title=" ">
<path fill="none" stroke="#63b8ff" d="M1057.67,-394.74C888.65,-392.63 445.12,-384.02 302,-350.75 231.42,-334.34 152,-359.33 152,-286.88 152,-286.88 152,-286.88 152,-174.38 152,-144.76 152.67,-133.76 171,-110.5 183.04,-95.22 201.87,-84.17 217.89,-76.89"/>
<polygon fill="#63b8ff" stroke="#63b8ff" points="219.18,-80.15 227.03,-73.04 216.45,-73.7 219.18,-80.15"/>
</a>
</g>
</g>
<!-- Node19 -->
<g id="Node000019" class="node">
<title>Node19</title>
<g id="a_Node000019"><a xlink:title=" ">
<polygon fill="#e0e0e0" stroke="#999999" points="1145.88,-185 1096.12,-185 1096.12,-165.75 1145.88,-165.75 1145.88,-185"/>
<text text-anchor="middle" x="1121" y="-171.5" font-family="Helvetica,sans-Serif" font-size="10.00">optional</text>
</a>
</g>
</g>
<!-- Node1&#45;&gt;Node19 -->
<g id="edge62_Node000001_Node000019" class="edge">
<title>Node1&#45;&gt;Node19</title>
<g id="a_edge62_Node000001_Node000019"><a xlink:title=" ">
<path fill="none" stroke="#63b8ff" d="M1126.46,-386.58C1133.28,-360.85 1151.16,-283.64 1139,-221 1137.33,-212.4 1134.01,-203.35 1130.66,-195.67"/>
<polygon fill="#63b8ff" stroke="#63b8ff" points="1133.85,-194.22 1126.43,-186.66 1127.52,-197.2 1133.85,-194.22"/>
</a>
</g>
</g>
<!-- Node23 -->
<g id="Node000023" class="node">
<title>Node23</title>
<g id="a_Node000023"><a xlink:title=" ">
<polygon fill="#e0e0e0" stroke="#999999" points="1206.5,-185 1163.5,-185 1163.5,-165.75 1206.5,-165.75 1206.5,-185"/>
<text text-anchor="middle" x="1185" y="-171.5" font-family="Helvetica,sans-Serif" font-size="10.00">vector</text>
</a>
</g>
</g>
<!-- Node1&#45;&gt;Node23 -->
<g id="edge66_Node000001_Node000023" class="edge">
<title>Node1&#45;&gt;Node23</title>
<g id="a_edge66_Node000001_Node000023"><a xlink:title=" ">
<path fill="none" stroke="#63b8ff" d="M1130.53,-386.25C1136.47,-377.54 1145.04,-363.83 1150,-350.75 1170.32,-297.23 1179.56,-229.78 1183.12,-196.64"/>
<polygon fill="#63b8ff" stroke="#63b8ff" points="1186.58,-197.17 1184.09,-186.88 1179.62,-196.48 1186.58,-197.17"/>
</a>
</g>
</g>
<!-- Node24 -->
<g id="Node000024" class="node">
<title>Node24</title>
<g id="a_Node000024"><a xlink:href="../../d8/de4/_sequence_8hpp.html" target="_top" xlink:title=" ">
<polygon fill="white" stroke="#666666" points="649.38,-350.75 530.62,-350.75 530.62,-331.5 649.38,-331.5 649.38,-350.75"/>
<text text-anchor="middle" x="590" y="-337.25" font-family="Helvetica,sans-Serif" font-size="10.00">mimic++/Sequence.hpp</text>
</a>
</g>
</g>
<!-- Node1&#45;&gt;Node24 -->
<g id="edge35_Node000001_Node000024" class="edge">
<title>Node1&#45;&gt;Node24</title>
<g id="a_edge35_Node000001_Node000024"><a xlink:title=" ">
<path fill="none" stroke="#63b8ff" d="M1057.45,-388.74C956.26,-378.65 764.54,-359.53 660.85,-349.19"/>
<polygon fill="#63b8ff" stroke="#63b8ff" points="661.38,-345.73 651.08,-348.22 660.68,-352.69 661.38,-345.73"/>
</a>
</g>
</g>
<!-- Node27 -->
<g id="Node000027" class="node">
<title>Node27</title>
<g id="a_Node000027"><a xlink:title=" ">
<polygon fill="#e0e0e0" stroke="#999999" points="1130.25,-240.25 1079.75,-240.25 1079.75,-221 1130.25,-221 1130.25,-240.25"/>
<text text-anchor="middle" x="1105" y="-226.75" font-family="Helvetica,sans-Serif" font-size="10.00">memory</text>
</a>
</g>
</g>
<!-- Node1&#45;&gt;Node27 -->
<g id="edge61_Node000001_Node000027" class="edge">
<title>Node1&#45;&gt;Node27</title>
<g id="a_edge61_Node000001_Node000027"><a xlink:title=" ">
<path fill="none" stroke="#63b8ff" d="M1122.98,-386.57C1120.04,-361.25 1111.51,-287.75 1107.35,-251.84"/>
<polygon fill="#63b8ff" stroke="#63b8ff" points="1110.83,-251.51 1106.2,-241.98 1103.88,-252.31 1110.83,-251.51"/>
</a>
</g>
</g>
<!-- Node30 -->
<g id="Node000030" class="node">
<title>Node30</title>
<g id="a_Node000030"><a xlink:title=" ">
<polygon fill="#e0e0e0" stroke="#999999" points="1378.62,-350.75 1339.38,-350.75 1339.38,-331.5 1378.62,-331.5 1378.62,-350.75"/>
<text text-anchor="middle" x="1359" y="-337.25" font-family="Helvetica,sans-Serif" font-size="10.00">limits</text>
</a>
</g>
</g>
<!-- Node1&#45;&gt;Node30 -->
<g id="edge60_Node000001_Node000030" class="edge">
<title>Node1&#45;&gt;Node30</title>
<g id="a_edge60_Node000001_Node000030"><a xlink:title=" ">
<path fill="none" stroke="#63b8ff" d="M1166.82,-386.26C1207.58,-377.49 1270.58,-363.69 1325,-350.75 1325.98,-350.52 1326.99,-350.28 1328,-350.03"/>
<polygon fill="#63b8ff" stroke="#63b8ff" points="1328.55,-353.5 1337.42,-347.7 1326.87,-346.7 1328.55,-353.5"/>
</a>
</g>
</g>
<!-- Node31 -->
<g id="Node000031" class="node">
<title>Node31</title>
<g id="a_Node000031"><a xlink:title=" ">
<polygon fill="#e0e0e0" stroke="#999999" points="1455,-350.75 1397,-350.75 1397,-331.5 1455,-331.5 1455,-350.75"/>
<text text-anchor="middle" x="1426" y="-337.25" font-family="Helvetica,sans-Serif" font-size="10.00">stdexcept</text>
</a>
</g>
</g>
<!-- Node1&#45;&gt;Node31 -->
<g id="edge63_Node000001_Node000031" class="edge">
<title>Node1&#45;&gt;Node31</title>
<g id="a_edge63_Node000001_Node000031"><a xlink:title=" ">
<path fill="none" stroke="#63b8ff" d="M1183.68,-386.26C1234.78,-378.23 1310.6,-365.81 1385.53,-351.15"/>
<polygon fill="#63b8ff" stroke="#63b8ff" points="1385.96,-354.64 1395.09,-349.27 1384.6,-347.77 1385.96,-354.64"/>
</a>
</g>
</g>
<!-- Node3 -->
<g id="Node000003" class="node">
<title>Node3</title>
<g id="a_Node000003"><a xlink:href="../../dc/d44/_call_8hpp.html" target="_top" xlink:title=" ">
<polygon fill="white" stroke="#666666" points="789.88,-185 698.12,-185 698.12,-165.75 789.88,-165.75 789.88,-185"/>
<text text-anchor="middle" x="744" y="-171.5" font-family="Helvetica,sans-Serif" font-size="10.00">mimic++/Call.hpp</text>
</a>
</g>
</g>
<!-- Node2&#45;&gt;Node3 -->
<g id="edge2_Node000002_Node000003" class="edge">
<title>Node2&#45;&gt;Node3</title>
<g id="a_edge2_Node000002_Node000003"><a xlink:title=" ">
<path fill="none" stroke="#63b8ff" d="M835.34,-220.59C818.27,-212.33 792.76,-199.98 773.03,-190.43"/>
<polygon fill="#63b8ff" stroke="#63b8ff" points="774.64,-187.32 764.11,-186.11 771.59,-193.62 774.64,-187.32"/>
</a>
</g>
</g>
<!-- Node4 -->
<g id="Node000004" class="node">
<title>Node4</title>
<g id="a_Node000004"><a xlink:href="../../df/dde/_fwd_8hpp.html" target="_top" xlink:title=" ">
<polygon fill="white" stroke="#666666" points="876,-74.5 782,-74.5 782,-55.25 876,-55.25 876,-74.5"/>
<text text-anchor="middle" x="829" y="-61" font-family="Helvetica,sans-Serif" font-size="10.00">mimic++/Fwd.hpp</text>
</a>
</g>
</g>
<!-- Node2&#45;&gt;Node4 -->
<g id="edge16_Node000002_Node000004" class="edge">
<title>Node2&#45;&gt;Node4</title>
<g id="a_edge16_Node000002_Node000004"><a xlink:title=" ">
<path fill="none" stroke="#63b8ff" d="M908.8,-221.8C948.11,-213.45 991.46,-196.95 975,-165.75 952.08,-122.3 900.8,-94.16 865.55,-79.15"/>
<polygon fill="#63b8ff" stroke="#63b8ff" points="867.16,-76.03 856.58,-75.49 864.51,-82.51 867.16,-76.03"/>
</a>
</g>
</g>
<!-- Node13 -->
<g id="Node000013" class="node">
<title>Node13</title>
<g id="a_Node000013"><a xlink:href="../../da/dab/_printer_8hpp.html" target="_top" xlink:title=" ">
<polygon fill="white" stroke="#666666" points="463.88,-185 360.12,-185 360.12,-165.75 463.88,-165.75 463.88,-185"/>
<text text-anchor="middle" x="412" y="-171.5" font-family="Helvetica,sans-Serif" font-size="10.00">mimic++/Printer.hpp</text>
</a>
</g>
</g>
<!-- Node2&#45;&gt;Node13 -->
<g id="edge17_Node000002_Node000013" class="edge">
<title>Node2&#45;&gt;Node13</title>
<g id="a_edge17_Node000002_Node000013"><a xlink:title=" ">
<path fill="none" stroke="#63b8ff" d="M799.36,-223.04C717.24,-213.15 562.38,-194.49 475.41,-184.01"/>
<polygon fill="#63b8ff" stroke="#63b8ff" points="475.96,-180.56 465.62,-182.83 475.13,-187.51 475.96,-180.56"/>
</a>
</g>
</g>
<!-- Node14 -->
<g id="Node000014" class="node">
<title>Node14</title>
<g id="a_Node000014"><a xlink:title=" ">
<polygon fill="#e0e0e0" stroke="#999999" points="661,-129.75 603,-129.75 603,-110.5 661,-110.5 661,-129.75"/>
<text text-anchor="middle" x="632" y="-116.25" font-family="Helvetica,sans-Serif" font-size="10.00">functional</text>
</a>
</g>
</g>
<!-- Node2&#45;&gt;Node14 -->
<g id="edge28_Node000002_Node000014" class="edge">
<title>Node2&#45;&gt;Node14</title>
<g id="a_edge28_Node000002_Node000014"><a xlink:title=" ">
<path fill="none" stroke="#63b8ff" d="M799.19,-225.04C762.87,-219.84 715.53,-208.72 680,-185 663.08,-173.71 649.8,-154.4 641.54,-139.96"/>
<polygon fill="#63b8ff" stroke="#63b8ff" points="644.76,-138.56 636.94,-131.41 638.59,-141.87 644.76,-138.56"/>
</a>
</g>
</g>
<!-- Node15 -->
<g id="Node000015" class="node">
<title>Node15</title>
<g id="a_Node000015"><a xlink:title=" ">
<polygon fill="#e0e0e0" stroke="#999999" points="725,-129.75 679,-129.75 679,-110.5 725,-110.5 725,-129.75"/>
<text text-anchor="middle" x="702" y="-116.25" font-family="Helvetica,sans-Serif" font-size="10.00">iterator</text>
</a>
</g>
</g>
<!-- Node2&#45;&gt;Node15 -->
<g id="edge29_Node000002_Node000015" class="edge">
<title>Node2&#45;&gt;Node15</title>
<g id="a_edge29_Node000002_Node000015"><a xlink:title=" ">
<path fill="none" stroke="#63b8ff" d="M799.09,-222.03C756.49,-214.87 702.48,-202.61 689,-185 679.12,-172.09 684.42,-153.57 690.97,-139.79"/>
<polygon fill="#63b8ff" stroke="#63b8ff" points="693.89,-141.75 695.52,-131.29 687.72,-138.45 693.89,-141.75"/>
</a>
</g>
</g>
<!-- Node18 -->
<g id="Node000018" class="node">
<title>Node18</title>
<g id="a_Node000018"><a xlink:title=" ">
<polygon fill="#e0e0e0" stroke="#999999" points="1077.88,-185 1022.12,-185 1022.12,-165.75 1077.88,-165.75 1077.88,-185"/>
<text text-anchor="middle" x="1050" y="-171.5" font-family="Helvetica,sans-Serif" font-size="10.00">algorithm</text>
</a>
</g>
</g>
<!-- Node2&#45;&gt;Node18 -->
<g id="edge27_Node000002_Node000018" class="edge">
<title>Node2&#45;&gt;Node18</title>
<g id="a_edge27_Node000002_Node000018"><a xlink:title=" ">
<path fill="none" stroke="#63b8ff" d="M887.25,-220.59C921.5,-211.29 974.84,-196.8 1011.04,-186.96"/>
<polygon fill="#63b8ff" stroke="#63b8ff" points="1011.49,-190.46 1020.23,-184.46 1009.66,-183.71 1011.49,-190.46"/>
</a>
</g>
</g>
<!-- Node2&#45;&gt;Node19 -->
<g id="edge30_Node000002_Node000019" class="edge">
<title>Node2&#45;&gt;Node19</title>
<g id="a_edge30_Node000002_Node000019"><a xlink:title=" ">
<path fill="none" stroke="#63b8ff" d="M906,-220.58C950.85,-212.57 1017.59,-200.16 1084.6,-185.43"/>
<polygon fill="#63b8ff" stroke="#63b8ff" points="1085.31,-188.86 1094.31,-183.28 1083.79,-182.02 1085.31,-188.86"/>
</a>
</g>
</g>
<!-- Node20 -->
<g id="Node000020" class="node">
<title>Node20</title>
<g id="a_Node000020"><a xlink:title=" ">
<polygon fill="#e0e0e0" stroke="#999999" points="603.62,-185 558.38,-185 558.38,-165.75 603.62,-165.75 603.62,-185"/>
<text text-anchor="middle" x="581" y="-171.5" font-family="Helvetica,sans-Serif" font-size="10.00">ranges</text>
</a>
</g>
</g>
<!-- Node2&#45;&gt;Node20 -->
<g id="edge31_Node000002_Node000020" class="edge">
<title>Node2&#45;&gt;Node20</title>
<g id="a_edge31_Node000002_Node000020"><a xlink:title=" ">
<path fill="none" stroke="#63b8ff" d="M802.78,-220.58C754.89,-211.98 681.44,-198.39 618,-185 617.01,-184.79 616.01,-184.58 615,-184.36"/>
<polygon fill="#63b8ff" stroke="#63b8ff" points="616.06,-181.01 605.54,-182.24 614.53,-187.84 616.06,-181.01"/>
</a>
</g>
</g>
<!-- Node21 -->
<g id="Node000021" class="node">
<title>Node21</title>
<g id="a_Node000021"><a xlink:title=" ">
<polygon fill="#e0e0e0" stroke="#999999" points="966.25,-185 909.75,-185 909.75,-165.75 966.25,-165.75 966.25,-185"/>
<text text-anchor="middle" x="938" y="-171.5" font-family="Helvetica,sans-Serif" font-size="10.00">typeindex</text>
</a>
</g>
</g>
<!-- Node2&#45;&gt;Node21 -->
<g id="edge32_Node000002_Node000021" class="edge">
<title>Node2&#45;&gt;Node21</title>
<g id="a_edge32_Node000002_Node000021"><a xlink:title=" ">
<path fill="none" stroke="#63b8ff" d="M868.25,-220.59C880.8,-212.64 899.33,-200.89 914.14,-191.5"/>
<polygon fill="#63b8ff" stroke="#63b8ff" points="915.83,-194.57 922.4,-186.26 912.08,-188.66 915.83,-194.57"/>
</a>
</g>
</g>
<!-- Node22 -->
<g id="Node000022" class="node">
<title>Node22</title>
<g id="a_Node000022"><a xlink:title=" ">
<polygon fill="#e0e0e0" stroke="#999999" points="891.62,-185 846.38,-185 846.38,-165.75 891.62,-165.75 891.62,-185"/>
<text text-anchor="middle" x="869" y="-171.5" font-family="Helvetica,sans-Serif" font-size="10.00">variant</text>
</a>
</g>
</g>
<!-- Node2&#45;&gt;Node22 -->
<g id="edge33_Node000002_Node000022" class="edge">
<title>Node2&#45;&gt;Node22</title>
<g id="a_edge33_Node000002_Node000022"><a xlink:title=" ">
<path fill="none" stroke="#63b8ff" d="M856.48,-220.83C858.35,-214.17 861.01,-204.74 863.39,-196.28"/>
<polygon fill="#63b8ff" stroke="#63b8ff" points="866.72,-197.39 866.06,-186.82 859.98,-195.49 866.72,-197.39"/>
</a>
</g>
</g>
<!-- Node2&#45;&gt;Node23 -->
<g id="edge34_Node000002_Node000023" class="edge">
<title>Node2&#45;&gt;Node23</title>
<g id="a_edge34_Node000002_Node000023"><a xlink:title=" ">
<path fill="none" stroke="#63b8ff" d="M908.77,-223.72C966.97,-216.95 1061.84,-204.52 1151.89,-185.45"/>
<polygon fill="#63b8ff" stroke="#63b8ff" points="1152.61,-188.87 1161.65,-183.34 1151.14,-182.03 1152.61,-188.87"/>
</a>
</g>
</g>
<!-- Node3&#45;&gt;Node4 -->
<g id="edge3_Node000003_Node000004" class="edge">
<title>Node3&#45;&gt;Node4</title>
<g id="a_edge3_Node000003_Node000004"><a xlink:title=" ">
<path fill="none" stroke="#63b8ff" d="M761.42,-165.35C774.96,-157.55 793.34,-145.11 805,-129.75 814.87,-116.75 821.07,-99.23 824.69,-85.83"/>
<polygon fill="#63b8ff" stroke="#63b8ff" points="828.02,-86.94 826.96,-76.4 821.22,-85.3 828.02,-86.94"/>
</a>
</g>
</g>
<!-- Node6 -->
<g id="Node000006" class="node">
<title>Node6</title>
<g id="a_Node000006"><a xlink:href="../../d8/d32/_type_traits_8hpp.html" target="_top" xlink:title=" ">
<polygon fill="white" stroke="#666666" points="1206.5,-129.75 1085.5,-129.75 1085.5,-110.5 1206.5,-110.5 1206.5,-129.75"/>
<text text-anchor="middle" x="1146" y="-116.25" font-family="Helvetica,sans-Serif" font-size="10.00">mimic++/TypeTraits.hpp</text>
</a>
</g>
</g>
<!-- Node3&#45;&gt;Node6 -->
<g id="edge5_Node000003_Node000006" class="edge">
<title>Node3&#45;&gt;Node6</title>
<g id="a_edge5_Node000003_Node000006"><a xlink:title=" ">
<path fill="none" stroke="#63b8ff" d="M790.11,-168.27C859.55,-159.07 991.54,-141.58 1073.81,-130.69"/>
<polygon fill="#63b8ff" stroke="#63b8ff" points="1074.12,-134.18 1083.57,-129.39 1073.2,-127.24 1074.12,-134.18"/>
</a>
</g>
</g>
<!-- Node3&#45;&gt;Node7 -->
<g id="edge14_Node000003_Node000007" class="edge">
<title>Node3&#45;&gt;Node7</title>
<g id="a_edge14_Node000003_Node000007"><a xlink:title=" ">
<path fill="none" stroke="#63b8ff" d="M789.99,-170.09C908.45,-159.06 1214.88,-130.46 1216,-129.75 1232,-119.62 1242.15,-100.11 1247.89,-85.31"/>
<polygon fill="#63b8ff" stroke="#63b8ff" points="1251.1,-86.74 1251.08,-76.14 1244.49,-84.43 1251.1,-86.74"/>
</a>
</g>
</g>
<!-- Node3&#45;&gt;Node8 -->
<g id="edge7_Node000003_Node000008" class="edge">
<title>Node3&#45;&gt;Node8</title>
<g id="a_edge7_Node000003_Node000008"><a xlink:title=" ">
<path fill="none" stroke="#63b8ff" d="M697.93,-169.6C605.19,-159.99 395.92,-138.31 291.57,-127.5"/>
<polygon fill="#63b8ff" stroke="#63b8ff" points="292.1,-124.04 281.8,-126.49 291.38,-131 292.1,-124.04"/>
</a>
</g>
</g>
<!-- Node11 -->
<g id="Node000011" class="node">
<title>Node11</title>
<g id="a_Node000011"><a xlink:title=" ">
<polygon fill="#e0e0e0" stroke="#999999" points="388.12,-74.5 303.88,-74.5 303.88,-55.25 388.12,-55.25 388.12,-74.5"/>
<text text-anchor="middle" x="346" y="-61" font-family="Helvetica,sans-Serif" font-size="10.00">source_location</text>
</a>
</g>
</g>
<!-- Node3&#45;&gt;Node11 -->
<g id="edge13_Node000003_Node000011" class="edge">
<title>Node3&#45;&gt;Node11</title>
<g id="a_edge13_Node000003_Node000011"><a xlink:title=" ">
<path fill="none" stroke="#63b8ff" d="M752.25,-165.45C763.67,-152 781.35,-126.45 767,-110.5 742.84,-83.64 507.52,-71.72 399.6,-67.63"/>
<polygon fill="#63b8ff" stroke="#63b8ff" points="399.96,-64.14 389.84,-67.27 399.7,-71.14 399.96,-64.14"/>
</a>
</g>
</g>
<!-- Node3&#45;&gt;Node12 -->
<g id="edge15_Node000003_Node000012" class="edge">
<title>Node3&#45;&gt;Node12</title>
<g id="a_edge15_Node000003_Node000012"><a xlink:title=" ">
<path fill="none" stroke="#63b8ff" d="M745.66,-165.4C747.68,-151.41 749.13,-124.56 734,-110.5 698.15,-77.19 343.52,-80.92 295,-74.5 289.77,-73.81 284.24,-72.93 278.88,-71.99"/>
<polygon fill="#63b8ff" stroke="#63b8ff" points="279.55,-68.56 269.09,-70.2 278.29,-75.44 279.55,-68.56"/>
</a>
</g>
</g>
<!-- Node5 -->
<g id="Node000005" class="node">
<title>Node5</title>
<g id="a_Node000005"><a xlink:title=" ">
<polygon fill="#e0e0e0" stroke="#999999" points="703,-19.25 663,-19.25 663,0 703,0 703,-19.25"/>
<text text-anchor="middle" x="683" y="-5.75" font-family="Helvetica,sans-Serif" font-size="10.00">string</text>
</a>
</g>
</g>
<!-- Node4&#45;&gt;Node5 -->
<g id="edge4_Node000004_Node000005" class="edge">
<title>Node4&#45;&gt;Node5</title>
<g id="a_edge4_Node000004_Node000005"><a xlink:title=" ">
<path fill="none" stroke="#63b8ff" d="M804.23,-54.84C779.32,-45.75 740.83,-31.72 713.93,-21.91"/>
<polygon fill="#63b8ff" stroke="#63b8ff" points="715.19,-18.64 704.6,-18.5 712.8,-25.22 715.19,-18.64"/>
</a>
</g>
</g>
<!-- Node6&#45;&gt;Node7 -->
<g id="edge6_Node000006_Node000007" class="edge">
<title>Node6&#45;&gt;Node7</title>
<g id="a_edge6_Node000006_Node000007"><a xlink:title=" ">
<path fill="none" stroke="#63b8ff" d="M1164.32,-110.09C1181.08,-101.83 1206.13,-89.48 1225.5,-79.93"/>
<polygon fill="#63b8ff" stroke="#63b8ff" points="1226.81,-83.18 1234.23,-75.62 1223.72,-76.9 1226.81,-83.18"/>
</a>
</g>
</g>
<!-- Node8&#45;&gt;Node4 -->
<g id="edge8_Node000008_Node000004" class="edge">
<title>Node8&#45;&gt;Node4</title>
<g id="a_edge8_Node000008_Node000004"><a xlink:title=" ">
<path fill="none" stroke="#63b8ff" d="M280.3,-114.65C390.54,-104.85 652.97,-81.52 770.42,-71.08"/>
<polygon fill="#63b8ff" stroke="#63b8ff" points="770.5,-74.59 780.15,-70.22 769.88,-67.62 770.5,-74.59"/>
</a>
</g>
</g>
<!-- Node8&#45;&gt;Node9 -->
<g id="edge9_Node000008_Node000009" class="edge">
<title>Node8&#45;&gt;Node9</title>
<g id="a_edge9_Node000008_Node000009"><a xlink:title=" ">
<path fill="none" stroke="#63b8ff" d="M200.65,-110.09C170.64,-100.85 124.02,-86.5 92.08,-76.67"/>
<polygon fill="#63b8ff" stroke="#63b8ff" points="93.48,-73.44 82.89,-73.85 91.42,-80.13 93.48,-73.44"/>
</a>
</g>
</g>
<!-- Node10 -->
<g id="Node000010" class="node">
<title>Node10</title>
<g id="a_Node000010"><a xlink:title=" ">
<polygon fill="#e0e0e0" stroke="#999999" points="195.88,-74.5 152.12,-74.5 152.12,-55.25 195.88,-55.25 195.88,-74.5"/>
<text text-anchor="middle" x="174" y="-61" font-family="Helvetica,sans-Serif" font-size="10.00">format</text>
</a>
</g>
</g>
<!-- Node8&#45;&gt;Node10 -->
<g id="edge10_Node000008_Node000010" class="edge">
<title>Node8&#45;&gt;Node10</title>
<g id="a_edge10_Node000008_Node000010"><a xlink:title=" ">
<path fill="none" stroke="#63b8ff" d="M220.5,-110.09C212.57,-102.55 201.05,-91.6 191.46,-82.48"/>
<polygon fill="#63b8ff" stroke="#63b8ff" points="194.11,-80.17 184.46,-75.82 189.29,-85.24 194.11,-80.17"/>
</a>
</g>
</g>
<!-- Node8&#45;&gt;Node11 -->
<g id="edge11_Node000008_Node000011" class="edge">
<title>Node8&#45;&gt;Node11</title>
<g id="a_edge11_Node000008_Node000011"><a xlink:title=" ">
<path fill="none" stroke="#63b8ff" d="M249.68,-110.09C267.84,-101.75 295.08,-89.25 315.97,-79.66"/>
<polygon fill="#63b8ff" stroke="#63b8ff" points="317.22,-82.94 324.85,-75.58 314.3,-76.58 317.22,-82.94"/>
</a>
</g>
</g>
<!-- Node8&#45;&gt;Node12 -->
<g id="edge12_Node000008_Node000012" class="edge">
<title>Node8&#45;&gt;Node12</title>
<g id="a_edge12_Node000008_Node000012"><a xlink:title=" ">
<path fill="none" stroke="#63b8ff" d="M232.97,-110.33C235.25,-103.59 238.49,-94.02 241.37,-85.49"/>
<polygon fill="#63b8ff" stroke="#63b8ff" points="244.59,-86.89 244.48,-76.29 237.96,-84.65 244.59,-86.89"/>
</a>
</g>
</g>
<!-- Node13&#45;&gt;Node4 -->
<g id="edge18_Node000013_Node000004" class="edge">
<title>Node13&#45;&gt;Node4</title>
<g id="a_edge18_Node000013_Node000004"><a xlink:title=" ">
<path fill="none" stroke="#63b8ff" d="M443.81,-165.25C472.21,-156.85 514.79,-143.62 551,-129.75 570.55,-122.26 574.02,-116.77 594,-110.5 652.87,-92.01 722.57,-79.95 770.7,-73.09"/>
<polygon fill="#63b8ff" stroke="#63b8ff" points="770.92,-76.59 780.34,-71.74 769.95,-69.66 770.92,-76.59"/>
</a>
</g>
</g>
<!-- Node13&#45;&gt;Node5 -->
<g id="edge24_Node000013_Node000005" class="edge">
<title>Node13&#45;&gt;Node5</title>
<g id="a_edge24_Node000013_Node000005"><a xlink:title=" ">
<path fill="none" stroke="#63b8ff" d="M438.04,-165.3C459.98,-157.22 491.89,-144.42 518,-129.75 574.14,-98.21 633.99,-51.19 663.8,-26.73"/>
<polygon fill="#63b8ff" stroke="#63b8ff" points="665.74,-29.66 671.21,-20.59 661.28,-24.27 665.74,-29.66"/>
</a>
</g>
</g>
<!-- Node13&#45;&gt;Node10 -->
<g id="edge19_Node000013_Node000010" class="edge">
<title>Node13&#45;&gt;Node10</title>
<g id="a_edge19_Node000013_Node000010"><a xlink:title=" ">
<path fill="none" stroke="#63b8ff" d="M359.85,-172.27C296.32,-168.48 194.54,-158.05 171,-129.75 161.01,-117.74 162.91,-99.62 166.65,-85.75"/>
<polygon fill="#63b8ff" stroke="#63b8ff" points="169.94,-86.94 169.69,-76.35 163.28,-84.79 169.94,-86.94"/>
</a>
</g>
</g>
<!-- Node13&#45;&gt;Node11 -->
<g id="edge22_Node000013_Node000011" class="edge">
<title>Node13&#45;&gt;Node11</title>
<g id="a_edge22_Node000013_Node000011"><a xlink:title=" ">
<path fill="none" stroke="#63b8ff" d="M399.46,-165.48C388.84,-157.33 373.94,-144.33 365,-129.75 356.75,-116.3 351.9,-99.05 349.16,-85.86"/>
<polygon fill="#63b8ff" stroke="#63b8ff" points="352.64,-85.44 347.42,-76.22 345.75,-86.68 352.64,-85.44"/>
</a>
</g>
</g>
<!-- Node13&#45;&gt;Node12 -->
<g id="edge26_Node000013_Node000012" class="edge">
<title>Node13&#45;&gt;Node12</title>
<g id="a_edge26_Node000013_Node000012"><a xlink:title=" ">
<path fill="none" stroke="#63b8ff" d="M398.3,-165.31C370.13,-146.68 305.47,-103.9 270.85,-81"/>
<polygon fill="#63b8ff" stroke="#63b8ff" points="273.08,-78.27 262.81,-75.67 269.22,-84.11 273.08,-78.27"/>
</a>
</g>
</g>
<!-- Node13&#45;&gt;Node14 -->
<g id="edge20_Node000013_Node000014" class="edge">
<title>Node13&#45;&gt;Node14</title>
<g id="a_edge20_Node000013_Node000014"><a xlink:title=" ">
<path fill="none" stroke="#63b8ff" d="M449.32,-165.34C488.79,-155.79 550.86,-140.76 591.5,-130.93"/>
<polygon fill="#63b8ff" stroke="#63b8ff" points="592.24,-134.35 601.14,-128.59 590.6,-127.55 592.24,-134.35"/>
</a>
</g>
</g>
<!-- Node13&#45;&gt;Node15 -->
<g id="edge21_Node000013_Node000015" class="edge">
<title>Node13&#45;&gt;Node15</title>
<g id="a_edge21_Node000013_Node000015"><a xlink:title=" ">
<path fill="none" stroke="#63b8ff" d="M464.16,-166.8C514.02,-159.23 591.51,-146.63 667.45,-130.15"/>
<polygon fill="#63b8ff" stroke="#63b8ff" points="668.15,-133.58 677.16,-128.01 666.65,-126.74 668.15,-133.58"/>
</a>
</g>
</g>
<!-- Node16 -->
<g id="Node000016" class="node">
<title>Node16</title>
<g id="a_Node000016"><a xlink:title=" ">
<polygon fill="#e0e0e0" stroke="#999999" points="508.62,-129.75 457.38,-129.75 457.38,-110.5 508.62,-110.5 508.62,-129.75"/>
<text text-anchor="middle" x="483" y="-116.25" font-family="Helvetica,sans-Serif" font-size="10.00">sstream</text>
</a>
</g>
</g>
<!-- Node13&#45;&gt;Node16 -->
<g id="edge23_Node000013_Node000016" class="edge">
<title>Node13&#45;&gt;Node16</title>
<g id="a_edge23_Node000013_Node000016"><a xlink:title=" ">
<path fill="none" stroke="#63b8ff" d="M424.04,-165.34C434.41,-157.57 449.6,-146.17 461.97,-136.9"/>
<polygon fill="#63b8ff" stroke="#63b8ff" points="464.02,-139.73 469.92,-130.93 459.82,-134.13 464.02,-139.73"/>
</a>
</g>
</g>
<!-- Node17 -->
<g id="Node000017" class="node">
<title>Node17</title>
<g id="a_Node000017"><a xlink:title=" ">
<polygon fill="#e0e0e0" stroke="#999999" points="439.75,-129.75 374.25,-129.75 374.25,-110.5 439.75,-110.5 439.75,-129.75"/>
<text text-anchor="middle" x="407" y="-116.25" font-family="Helvetica,sans-Serif" font-size="10.00">string_view</text>
</a>
</g>
</g>
<!-- Node13&#45;&gt;Node17 -->
<g id="edge25_Node000013_Node000017" class="edge">
<title>Node13&#45;&gt;Node17</title>
<g id="a_edge25_Node000013_Node000017"><a xlink:title=" ">
<path fill="none" stroke="#63b8ff" d="M411.17,-165.58C410.56,-158.99 409.68,-149.71 408.9,-141.32"/>
<polygon fill="#63b8ff" stroke="#63b8ff" points="412.4,-141.25 407.99,-131.62 405.44,-141.9 412.4,-141.25"/>
</a>
</g>
</g>
<!-- Node24&#45;&gt;Node4 -->
<g id="edge36_Node000024_Node000004" class="edge">
<title>Node24&#45;&gt;Node4</title>
<g id="a_edge36_Node000024_Node000004"><a xlink:title=" ">
<path fill="none" stroke="#63b8ff" d="M649.73,-336.16C795.95,-324.92 1163.75,-286.79 1216,-185 1219.91,-177.39 1221.24,-172.51 1216,-165.75 1215.83,-165.53 978.01,-104.26 875.31,-77.8"/>
<polygon fill="#63b8ff" stroke="#63b8ff" points="876.37,-74.46 865.82,-75.36 874.63,-81.24 876.37,-74.46"/>
</a>
</g>
</g>
<!-- Node24&#45;&gt;Node7 -->
<g id="edge57_Node000024_Node000007" class="edge">
<title>Node24&#45;&gt;Node7</title>
<g id="a_edge57_Node000024_Node000007"><a xlink:title=" ">
<path fill="none" stroke="#63b8ff" d="M649.71,-336.89C816.13,-327.09 1273,-294.47 1273,-231.62 1273,-231.62 1273,-231.62 1273,-174.38 1273,-143.04 1265.22,-107.37 1259.61,-85.75"/>
<polygon fill="#63b8ff" stroke="#63b8ff" points="1263.03,-84.98 1257.04,-76.25 1256.28,-86.81 1263.03,-84.98"/>
</a>
</g>
</g>
<!-- Node24&#45;&gt;Node8 -->
<g id="edge51_Node000024_Node000008" class="edge">
<title>Node24&#45;&gt;Node8</title>
<g id="a_edge51_Node000024_Node000008"><a xlink:title=" ">
<path fill="none" stroke="#63b8ff" d="M530.41,-334.27C492.32,-328.55 442.96,-317.34 404,-295.5 331.34,-254.76 268.52,-175.07 242.63,-139.29"/>
<polygon fill="#63b8ff" stroke="#63b8ff" points="245.59,-137.41 236.94,-131.29 239.88,-141.46 245.59,-137.41"/>
</a>
</g>
</g>
<!-- Node24&#45;&gt;Node9 -->
<g id="edge54_Node000024_Node000009" class="edge">
<title>Node24&#45;&gt;Node9</title>
<g id="a_edge54_Node000024_Node000009"><a xlink:title=" ">
<path fill="none" stroke="#63b8ff" d="M530.39,-334.11C485.53,-328.13 423.23,-316.67 372,-295.5 248.11,-244.3 223.64,-214.78 120,-129.75 102.39,-115.3 84.34,-96.51 72.1,-83.06"/>
<polygon fill="#63b8ff" stroke="#63b8ff" points="74.92,-80.96 65.64,-75.85 69.7,-85.63 74.92,-80.96"/>
</a>
</g>
</g>
<!-- Node24&#45;&gt;Node13 -->
<g id="edge37_Node000024_Node000013" class="edge">
<title>Node24&#45;&gt;Node13</title>
<g id="a_edge37_Node000024_Node000013"><a xlink:title=" ">
<path fill="none" stroke="#63b8ff" d="M530.35,-332.23C486.54,-325.1 432.27,-313.02 418,-295.5 395.18,-267.49 400.68,-222.34 406.49,-196.41"/>
<polygon fill="#63b8ff" stroke="#63b8ff" points="409.85,-197.41 408.88,-186.86 403.06,-195.71 409.85,-197.41"/>
</a>
</g>
</g>
<!-- Node24&#45;&gt;Node14 -->
<g id="edge55_Node000024_Node000014" class="edge">
<title>Node24&#45;&gt;Node14</title>
<g id="a_edge55_Node000024_Node000014"><a xlink:title=" ">
<path fill="none" stroke="#63b8ff" d="M582.64,-331.08C561.57,-304.01 504.73,-222.07 540,-165.75 551.42,-147.51 572.65,-136.54 591.84,-130.05"/>
<polygon fill="#63b8ff" stroke="#63b8ff" points="592.82,-133.41 601.37,-127.15 590.78,-126.71 592.82,-133.41"/>
</a>
</g>
</g>
<!-- Node24&#45;&gt;Node18 -->
<g id="edge52_Node000024_Node000018" class="edge">
<title>Node24&#45;&gt;Node18</title>
<g id="a_edge52_Node000024_Node000018"><a xlink:title=" ">
<path fill="none" stroke="#63b8ff" d="M648.4,-331.01C721.89,-317.99 850.62,-289.95 951,-240.25 979.25,-226.26 1009.37,-205.96 1028.87,-192.02"/>
<polygon fill="#63b8ff" stroke="#63b8ff" points="1030.76,-194.97 1036.8,-186.27 1026.65,-189.3 1030.76,-194.97"/>
</a>
</g>
</g>
<!-- Node25 -->
<g id="Node000025" class="node">
<title>Node25</title>
<g id="a_Node000025"><a xlink:href="../../da/dd9/_reporter_8hpp.html" target="_top" xlink:title=" ">
<polygon fill="white" stroke="#666666" points="789,-295.5 677,-295.5 677,-276.25 789,-276.25 789,-295.5"/>
<text text-anchor="middle" x="733" y="-282" font-family="Helvetica,sans-Serif" font-size="10.00">mimic++/Reporter.hpp</text>
</a>
</g>
</g>
<!-- Node24&#45;&gt;Node25 -->
<g id="edge38_Node000024_Node000025" class="edge">
<title>Node24&#45;&gt;Node25</title>
<g id="a_edge38_Node000024_Node000025"><a xlink:title=" ">
<path fill="none" stroke="#63b8ff" d="M614.26,-331.09C637.27,-322.52 672.09,-309.56 698.08,-299.88"/>
<polygon fill="#63b8ff" stroke="#63b8ff" points="699.05,-303.25 707.2,-296.48 696.61,-296.69 699.05,-303.25"/>
</a>
</g>
</g>
<!-- Node28 -->
<g id="Node000028" class="node">
<title>Node28</title>
<g id="a_Node000028"><a xlink:title=" ">
<polygon fill="#e0e0e0" stroke="#999999" points="463.5,-295.5 426.5,-295.5 426.5,-276.25 463.5,-276.25 463.5,-295.5"/>
<text text-anchor="middle" x="445" y="-282" font-family="Helvetica,sans-Serif" font-size="10.00">array</text>
</a>
</g>
</g>
<!-- Node24&#45;&gt;Node28 -->
<g id="edge53_Node000024_Node000028" class="edge">
<title>Node24&#45;&gt;Node28</title>
<g id="a_edge53_Node000024_Node000028"><a xlink:title=" ">
<path fill="none" stroke="#63b8ff" d="M565.4,-331.09C540.23,-321.85 501.12,-307.49 474.35,-297.65"/>
<polygon fill="#63b8ff" stroke="#63b8ff" points="475.72,-294.43 465.13,-294.27 473.31,-301 475.72,-294.43"/>
</a>
</g>
</g>
<!-- Node29 -->
<g id="Node000029" class="node">
<title>Node29</title>
<g id="a_Node000029"><a xlink:title=" ">
<polygon fill="#e0e0e0" stroke="#999999" points="608.5,-295.5 571.5,-295.5 571.5,-276.25 608.5,-276.25 608.5,-295.5"/>
<text text-anchor="middle" x="590" y="-282" font-family="Helvetica,sans-Serif" font-size="10.00">span</text>
</a>
</g>
</g>
<!-- Node24&#45;&gt;Node29 -->
<g id="edge56_Node000024_Node000029" class="edge">
<title>Node24&#45;&gt;Node29</title>
<g id="a_edge56_Node000024_Node000029"><a xlink:title=" ">
<path fill="none" stroke="#63b8ff" d="M590,-331.33C590,-324.82 590,-315.67 590,-307.37"/>
<polygon fill="#63b8ff" stroke="#63b8ff" points="593.5,-307.37 590,-297.37 586.5,-307.37 593.5,-307.37"/>
</a>
</g>
</g>
<!-- Node25&#45;&gt;Node2 -->
<g id="edge42_Node000025_Node000002" class="edge">
<title>Node25&#45;&gt;Node2</title>
<g id="a_edge42_Node000025_Node000002"><a xlink:title=" ">
<path fill="none" stroke="#63b8ff" d="M753.53,-275.84C772.56,-267.47 801.15,-254.88 822.97,-245.28"/>
<polygon fill="#63b8ff" stroke="#63b8ff" points="824.24,-248.54 831.99,-241.31 821.43,-242.14 824.24,-248.54"/>
</a>
</g>
</g>
<!-- Node25&#45;&gt;Node3 -->
<g id="edge39_Node000025_Node000003" class="edge">
<title>Node25&#45;&gt;Node3</title>
<g id="a_edge39_Node000025_Node000003"><a xlink:title=" ">
<path fill="none" stroke="#63b8ff" d="M733.9,-276C735.65,-258.75 739.54,-220.33 741.95,-196.56"/>
<polygon fill="#63b8ff" stroke="#63b8ff" points="745.41,-197.18 742.93,-186.88 738.44,-196.48 745.41,-197.18"/>
</a>
</g>
</g>
<!-- Node25&#45;&gt;Node4 -->
<g id="edge40_Node000025_Node000004" class="edge">
<title>Node25&#45;&gt;Node4</title>
<g id="a_edge40_Node000025_Node000004"><a xlink:title=" ">
<path fill="none" stroke="#63b8ff" d="M740.78,-275.91C759.77,-253.32 808.15,-191.44 824,-129.75 827.7,-115.37 828.9,-98.62 829.2,-85.88"/>
<polygon fill="#63b8ff" stroke="#63b8ff" points="832.7,-86.24 829.25,-76.22 825.7,-86.2 832.7,-86.24"/>
</a>
</g>
</g>
<!-- Node25&#45;&gt;Node9 -->
<g id="edge44_Node000025_Node000009" class="edge">
<title>Node25&#45;&gt;Node9</title>
<g id="a_edge44_Node000025_Node000009"><a xlink:title=" ">
<path fill="none" stroke="#63b8ff" d="M676.87,-275.83C571.88,-257.6 340.11,-211.08 160,-129.75 130.14,-116.27 98.5,-95.56 78.3,-81.4"/>
<polygon fill="#63b8ff" stroke="#63b8ff" points="80.5,-78.68 70.33,-75.73 76.45,-84.38 80.5,-78.68"/>
</a>
</g>
</g>
<!-- Node25&#45;&gt;Node13 -->
<g id="edge41_Node000025_Node000013" class="edge">
<title>Node25&#45;&gt;Node13</title>
<g id="a_edge41_Node000025_Node000013"><a xlink:title=" ">
<path fill="none" stroke="#63b8ff" d="M699.79,-275.81C669.06,-267.23 622.17,-253.71 582,-240.25 533.85,-224.11 478.99,-203 444.93,-189.55"/>
<polygon fill="#63b8ff" stroke="#63b8ff" points="446.63,-186.46 436.04,-186.03 444.05,-192.97 446.63,-186.46"/>
</a>
</g>
</g>
<!-- Node25&#45;&gt;Node14 -->
<g id="edge46_Node000025_Node000014" class="edge">
<title>Node25&#45;&gt;Node14</title>
<g id="a_edge46_Node000025_Node000014"><a xlink:title=" ">
<path fill="none" stroke="#63b8ff" d="M727.1,-276.03C717.42,-262.22 696.87,-235.62 673,-221 624.06,-191.02 583.46,-230.89 549,-185 532.78,-163.41 563.32,-145.37 591.82,-134.03"/>
<polygon fill="#63b8ff" stroke="#63b8ff" points="592.99,-137.33 601.13,-130.55 590.53,-130.77 592.99,-137.33"/>
</a>
</g>
</g>
<!-- Node25&#45;&gt;Node18 -->
<g id="edge43_Node000025_Node000018" class="edge">
<title>Node25&#45;&gt;Node18</title>
<g id="a_edge43_Node000025_Node000018"><a xlink:title=" ">
<path fill="none" stroke="#63b8ff" d="M783.31,-275.77C821,-268.23 873.52,-256.17 918,-240.25 928.45,-236.51 985.96,-208.2 1021.53,-190.55"/>
<polygon fill="#63b8ff" stroke="#63b8ff" points="1023.04,-193.71 1030.44,-186.13 1019.93,-187.44 1023.04,-193.71"/>
</a>
</g>
</g>
<!-- Node25&#45;&gt;Node19 -->
<g id="edge48_Node000025_Node000019" class="edge">
<title>Node25&#45;&gt;Node19</title>
<g id="a_edge48_Node000025_Node000019"><a xlink:title=" ">
<path fill="none" stroke="#63b8ff" d="M789.24,-276.22C833.67,-268.7 896.98,-256.47 951,-240.25 973.01,-233.64 977.54,-229.23 999,-221 1027.85,-209.94 1060.77,-197.94 1085.13,-189.17"/>
<polygon fill="#63b8ff" stroke="#63b8ff" points="1086.03,-192.56 1094.26,-185.89 1083.66,-185.98 1086.03,-192.56"/>
</a>
</g>
</g>
<!-- Node25&#45;&gt;Node20 -->
<g id="edge49_Node000025_Node000020" class="edge">
<title>Node25&#45;&gt;Node20</title>
<g id="a_edge49_Node000025_Node000020"><a xlink:title=" ">
<path fill="none" stroke="#63b8ff" d="M676.52,-279.1C648.99,-273.43 617.49,-262.26 597,-240.25 586.15,-228.59 582.37,-210.7 581.18,-196.81"/>
<polygon fill="#63b8ff" stroke="#63b8ff" points="584.68,-196.83 580.75,-187 577.69,-197.14 584.68,-196.83"/>
</a>
</g>
</g>
<!-- Node25&#45;&gt;Node23 -->
<g id="edge50_Node000025_Node000023" class="edge">
<title>Node25&#45;&gt;Node23</title>
<g id="a_edge50_Node000025_Node000023"><a xlink:title=" ">
<path fill="none" stroke="#63b8ff" d="M789.41,-277.4C841.61,-269.93 921.14,-257.13 989,-240.25 1047.64,-225.66 1114.18,-202.53 1152.7,-188.47"/>
<polygon fill="#63b8ff" stroke="#63b8ff" points="1153.65,-191.85 1161.83,-185.12 1151.24,-185.28 1153.65,-191.85"/>
</a>
</g>
</g>
<!-- Node26 -->
<g id="Node000026" class="node">
<title>Node26</title>
<g id="a_Node000026"><a xlink:title=" ">
<polygon fill="#e0e0e0" stroke="#999999" points="663.62,-240.25 606.38,-240.25 606.38,-221 663.62,-221 663.62,-240.25"/>
<text text-anchor="middle" x="635" y="-226.75" font-family="Helvetica,sans-Serif" font-size="10.00">exception</text>
</a>
</g>
</g>
<!-- Node25&#45;&gt;Node26 -->
<g id="edge45_Node000025_Node000026" class="edge">
<title>Node25&#45;&gt;Node26</title>
<g id="a_edge45_Node000025_Node000026"><a xlink:title=" ">
<path fill="none" stroke="#63b8ff" d="M716.38,-275.84C701.31,-267.66 678.86,-255.46 661.35,-245.94"/>
<polygon fill="#63b8ff" stroke="#63b8ff" points="663.49,-243.12 653.04,-241.43 660.15,-249.27 663.49,-243.12"/>
</a>
</g>
</g>
<!-- Node25&#45;&gt;Node27 -->
<g id="edge47_Node000025_Node000027" class="edge">
<title>Node25&#45;&gt;Node27</title>
<g id="a_edge47_Node000025_Node000027"><a xlink:title=" ">
<path fill="none" stroke="#63b8ff" d="M789.5,-276.79C866.61,-265.75 1002.68,-246.27 1067.99,-236.92"/>
<polygon fill="#63b8ff" stroke="#63b8ff" points="1068.43,-240.4 1077.83,-235.51 1067.43,-233.47 1068.43,-240.4"/>
</a>
</g>
</g>
</g>
</svg>
