<?xml version="1.0" encoding="UTF-8" standalone="no"?>
<!DOCTYPE svg PUBLIC "-//W3C//DTD SVG 1.1//EN"
 "http://www.w3.org/Graphics/SVG/1.1/DTD/svg11.dtd">
<!-- Generated by graphviz version 12.1.2 (20240928.0832)
 -->
<!-- Title: mimic++/ControlPolicy.hpp Pages: 1 -->
<svg width="1420pt" height="414pt"
 viewBox="0.00 0.00 1420.00 414.00" xmlns="http://www.w3.org/2000/svg" xmlns:xlink="http://www.w3.org/1999/xlink">
<g id="graph0" class="graph" transform="scale(1 1) rotate(0) translate(4 410)">
<title>mimic++/ControlPolicy.hpp</title>
<!-- Node1 -->
<g id="Node000001" class="node">
<title>Node1</title>
<g id="a_Node000001"><a xlink:title=" ">
<polygon fill="#999999" stroke="#666666" points="411.12,-406 278.88,-406 278.88,-386.75 411.12,-386.75 411.12,-406"/>
<text text-anchor="middle" x="345" y="-392.5" font-family="Helvetica,sans-Serif" font-size="10.00">mimic++/ControlPolicy.hpp</text>
</a>
</g>
</g>
<!-- Node2 -->
<g id="Node000002" class="node">
<title>Node2</title>
<g id="a_Node000002"><a xlink:href="../../d0/d3b/_reports_8hpp.html" target="_top" xlink:title=" ">
<polygon fill="white" stroke="#666666" points="689.5,-240.25 580.5,-240.25 580.5,-221 689.5,-221 689.5,-240.25"/>
<text text-anchor="middle" x="635" y="-226.75" font-family="Helvetica,sans-Serif" font-size="10.00">mimic++/Reports.hpp</text>
</a>
</g>
</g>
<!-- Node1&#45;&gt;Node2 -->
<g id="edge1_Node000001_Node000002" class="edge">
<title>Node1&#45;&gt;Node2</title>
<g id="a_edge1_Node000001_Node000002"><a xlink:title=" ">
<path fill="none" stroke="#63b8ff" d="M361,-386.34C408.74,-359.39 550.41,-279.39 609.09,-246.25"/>
<polygon fill="#63b8ff" stroke="#63b8ff" points="610.74,-249.34 617.73,-241.38 607.3,-243.25 610.74,-249.34"/>
</a>
</g>
</g>
<!-- Node7 -->
<g id="Node000007" class="node">
<title>Node7</title>
<g id="a_Node000007"><a xlink:title=" ">
<polygon fill="#e0e0e0" stroke="#999999" points="1183.5,-74.5 1146.5,-74.5 1146.5,-55.25 1183.5,-55.25 1183.5,-74.5"/>
<text text-anchor="middle" x="1165" y="-61" font-family="Helvetica,sans-Serif" font-size="10.00">tuple</text>
</a>
</g>
</g>
<!-- Node1&#45;&gt;Node7 -->
<g id="edge64_Node000001_Node000007" class="edge">
<title>Node1&#45;&gt;Node7</title>
<g id="a_edge64_Node000001_Node000007"><a xlink:title=" ">
<path fill="none" stroke="#63b8ff" d="M411.38,-394.54C623.02,-391.02 1268,-373.2 1268,-286.88 1268,-286.88 1268,-286.88 1268,-174.38 1268,-130.97 1224.11,-98 1193.63,-80.34"/>
<polygon fill="#63b8ff" stroke="#63b8ff" points="1195.66,-77.46 1185.22,-75.67 1192.27,-83.58 1195.66,-77.46"/>
</a>
</g>
</g>
<!-- Node8 -->
<g id="Node000008" class="node">
<title>Node8</title>
<g id="a_Node000008"><a xlink:href="../../d4/d2c/_utility_8hpp.html" target="_top" xlink:title=" ">
<polygon fill="white" stroke="#666666" points="242,-129.75 142,-129.75 142,-110.5 242,-110.5 242,-129.75"/>
<text text-anchor="middle" x="192" y="-116.25" font-family="Helvetica,sans-Serif" font-size="10.00">mimic++/Utility.hpp</text>
</a>
</g>
</g>
<!-- Node1&#45;&gt;Node8 -->
<g id="edge58_Node000001_Node000008" class="edge">
<title>Node1&#45;&gt;Node8</title>
<g id="a_edge58_Node000001_Node000008"><a xlink:title=" ">
<path fill="none" stroke="#63b8ff" d="M338.9,-386.44C319.6,-357.93 258.74,-266.23 218,-185 210.76,-170.56 203.93,-153.61 199.09,-140.79"/>
<polygon fill="#63b8ff" stroke="#63b8ff" points="202.38,-139.59 195.63,-131.42 195.81,-142.01 202.38,-139.59"/>
</a>
</g>
</g>
<!-- Node9 -->
<g id="Node000009" class="node">
<title>Node9</title>
<g id="a_Node000009"><a xlink:title=" ">
<polygon fill="#e0e0e0" stroke="#999999" points="81.12,-74.5 32.88,-74.5 32.88,-55.25 81.12,-55.25 81.12,-74.5"/>
<text text-anchor="middle" x="57" y="-61" font-family="Helvetica,sans-Serif" font-size="10.00">cassert</text>
</a>
</g>
</g>
<!-- Node1&#45;&gt;Node9 -->
<g id="edge59_Node000001_Node000009" class="edge">
<title>Node1&#45;&gt;Node9</title>
<g id="a_edge59_Node000001_Node000009"><a xlink:title=" ">
<path fill="none" stroke="#63b8ff" d="M278.48,-388.16C178.23,-375.42 0,-344.64 0,-286.88 0,-286.88 0,-286.88 0,-174.38 0,-138.92 24.14,-103.66 41.01,-83.35"/>
<polygon fill="#63b8ff" stroke="#63b8ff" points="43.44,-85.88 47.35,-76.04 38.16,-81.3 43.44,-85.88"/>
</a>
</g>
</g>
<!-- Node11 -->
<g id="Node000011" class="node">
<title>Node11</title>
<g id="a_Node000011"><a xlink:title=" ">
<polygon fill="#e0e0e0" stroke="#999999" points="282.25,-74.5 243.75,-74.5 243.75,-55.25 282.25,-55.25 282.25,-74.5"/>
<text text-anchor="middle" x="263" y="-61" font-family="Helvetica,sans-Serif" font-size="10.00">utility</text>
</a>
</g>
</g>
<!-- Node1&#45;&gt;Node11 -->
<g id="edge65_Node000001_Node000011" class="edge">
<title>Node1&#45;&gt;Node11</title>
<g id="a_edge65_Node000001_Node000011"><a xlink:title=" ">
<path fill="none" stroke="#63b8ff" d="M294.7,-386.28C215.09,-370.43 69,-334.82 69,-286.88 69,-286.88 69,-286.88 69,-229.62 69,-169.52 87.2,-149.41 133,-110.5 161.48,-86.3 203.77,-75.01 232.32,-69.89"/>
<polygon fill="#63b8ff" stroke="#63b8ff" points="232.82,-73.35 242.13,-68.29 231.7,-66.44 232.82,-73.35"/>
</a>
</g>
</g>
<!-- Node19 -->
<g id="Node000019" class="node">
<title>Node19</title>
<g id="a_Node000019"><a xlink:title=" ">
<polygon fill="#e0e0e0" stroke="#999999" points="359.88,-185 310.12,-185 310.12,-165.75 359.88,-165.75 359.88,-185"/>
<text text-anchor="middle" x="335" y="-171.5" font-family="Helvetica,sans-Serif" font-size="10.00">optional</text>
</a>
</g>
</g>
<!-- Node1&#45;&gt;Node19 -->
<g id="edge62_Node000001_Node000019" class="edge">
<title>Node1&#45;&gt;Node19</title>
<g id="a_edge62_Node000001_Node000019"><a xlink:title=" ">
<path fill="none" stroke="#63b8ff" d="M344.6,-386.52C343.12,-354.26 338.02,-242.51 335.92,-196.46"/>
<polygon fill="#63b8ff" stroke="#63b8ff" points="339.42,-196.44 335.47,-186.61 332.43,-196.76 339.42,-196.44"/>
</a>
</g>
</g>
<!-- Node23 -->
<g id="Node000023" class="node">
<title>Node23</title>
<g id="a_Node000023"><a xlink:title=" ">
<polygon fill="#e0e0e0" stroke="#999999" points="292.5,-185 249.5,-185 249.5,-165.75 292.5,-165.75 292.5,-185"/>
<text text-anchor="middle" x="271" y="-171.5" font-family="Helvetica,sans-Serif" font-size="10.00">vector</text>
</a>
</g>
</g>
<!-- Node1&#45;&gt;Node23 -->
<g id="edge66_Node000001_Node000023" class="edge">
<title>Node1&#45;&gt;Node23</title>
<g id="a_edge66_Node000001_Node000023"><a xlink:title=" ">
<path fill="none" stroke="#63b8ff" d="M342.01,-386.52C331.06,-354.12 293.02,-241.55 277.59,-195.87"/>
<polygon fill="#63b8ff" stroke="#63b8ff" points="280.95,-194.89 274.43,-186.54 274.32,-197.13 280.95,-194.89"/>
</a>
</g>
</g>
<!-- Node24 -->
<g id="Node000024" class="node">
<title>Node24</title>
<g id="a_Node000024"><a xlink:href="../../d8/de4/_sequence_8hpp.html" target="_top" xlink:title=" ">
<polygon fill="white" stroke="#666666" points="762.38,-350.75 643.62,-350.75 643.62,-331.5 762.38,-331.5 762.38,-350.75"/>
<text text-anchor="middle" x="703" y="-337.25" font-family="Helvetica,sans-Serif" font-size="10.00">mimic++/Sequence.hpp</text>
</a>
</g>
</g>
<!-- Node1&#45;&gt;Node24 -->
<g id="edge35_Node000001_Node000024" class="edge">
<title>Node1&#45;&gt;Node24</title>
<g id="a_edge35_Node000001_Node000024"><a xlink:title=" ">
<path fill="none" stroke="#63b8ff" d="M406.14,-386.28C468.81,-376.96 566.19,-362.47 632.18,-352.66"/>
<polygon fill="#63b8ff" stroke="#63b8ff" points="632.44,-356.16 641.81,-351.23 631.41,-349.24 632.44,-356.16"/>
</a>
</g>
</g>
<!-- Node27 -->
<g id="Node000027" class="node">
<title>Node27</title>
<g id="a_Node000027"><a xlink:title=" ">
<polygon fill="#e0e0e0" stroke="#999999" points="1240.25,-240.25 1189.75,-240.25 1189.75,-221 1240.25,-221 1240.25,-240.25"/>
<text text-anchor="middle" x="1215" y="-226.75" font-family="Helvetica,sans-Serif" font-size="10.00">memory</text>
</a>
</g>
</g>
<!-- Node1&#45;&gt;Node27 -->
<g id="edge61_Node000001_Node000027" class="edge">
<title>Node1&#45;&gt;Node27</title>
<g id="a_edge61_Node000001_Node000027"><a xlink:title=" ">
<path fill="none" stroke="#63b8ff" d="M411.48,-394.84C585.61,-392.27 1050.28,-377.71 1176,-295.5 1191.96,-285.06 1202.44,-265.6 1208.48,-250.89"/>
<polygon fill="#63b8ff" stroke="#63b8ff" points="1211.65,-252.39 1211.86,-241.79 1205.09,-249.95 1211.65,-252.39"/>
</a>
</g>
</g>
<!-- Node30 -->
<g id="Node000030" class="node">
<title>Node30</title>
<g id="a_Node000030"><a xlink:title=" ">
<polygon fill="#e0e0e0" stroke="#999999" points="1335.62,-350.75 1296.38,-350.75 1296.38,-331.5 1335.62,-331.5 1335.62,-350.75"/>
<text text-anchor="middle" x="1316" y="-337.25" font-family="Helvetica,sans-Serif" font-size="10.00">limits</text>
</a>
</g>
</g>
<!-- Node1&#45;&gt;Node30 -->
<g id="edge60_Node000001_Node000030" class="edge">
<title>Node1&#45;&gt;Node30</title>
<g id="a_edge60_Node000001_Node000030"><a xlink:title=" ">
<path fill="none" stroke="#63b8ff" d="M411.46,-393.95C596.28,-389.69 1113.77,-375.83 1282,-350.75 1283,-350.6 1284.02,-350.43 1285.04,-350.25"/>
<polygon fill="#63b8ff" stroke="#63b8ff" points="1285.47,-353.74 1294.52,-348.23 1284.01,-346.9 1285.47,-353.74"/>
</a>
</g>
</g>
<!-- Node31 -->
<g id="Node000031" class="node">
<title>Node31</title>
<g id="a_Node000031"><a xlink:title=" ">
<polygon fill="#e0e0e0" stroke="#999999" points="1412,-350.75 1354,-350.75 1354,-331.5 1412,-331.5 1412,-350.75"/>
<text text-anchor="middle" x="1383" y="-337.25" font-family="Helvetica,sans-Serif" font-size="10.00">stdexcept</text>
</a>
</g>
</g>
<!-- Node1&#45;&gt;Node31 -->
<g id="edge63_Node000001_Node000031" class="edge">
<title>Node1&#45;&gt;Node31</title>
<g id="a_edge63_Node000001_Node000031"><a xlink:title=" ">
<path fill="none" stroke="#63b8ff" d="M411.36,-393.96C600.77,-389.68 1142.56,-375.71 1342.39,-350.8"/>
<polygon fill="#63b8ff" stroke="#63b8ff" points="1342.67,-354.29 1352.14,-349.53 1341.77,-347.35 1342.67,-354.29"/>
</a>
</g>
</g>
<!-- Node3 -->
<g id="Node000003" class="node">
<title>Node3</title>
<g id="a_Node000003"><a xlink:href="../../dc/d44/_call_8hpp.html" target="_top" xlink:title=" ">
<polygon fill="white" stroke="#666666" points="945.88,-185 854.12,-185 854.12,-165.75 945.88,-165.75 945.88,-185"/>
<text text-anchor="middle" x="900" y="-171.5" font-family="Helvetica,sans-Serif" font-size="10.00">mimic++/Call.hpp</text>
</a>
</g>
</g>
<!-- Node2&#45;&gt;Node3 -->
<g id="edge2_Node000002_Node000003" class="edge">
<title>Node2&#45;&gt;Node3</title>
<g id="a_edge2_Node000002_Node000003"><a xlink:title=" ">
<path fill="none" stroke="#63b8ff" d="M680.25,-220.53C725.51,-211.44 795.22,-197.43 843.95,-187.64"/>
<polygon fill="#63b8ff" stroke="#63b8ff" points="844.33,-191.13 853.45,-185.73 842.96,-184.27 844.33,-191.13"/>
</a>
</g>
</g>
<!-- Node4 -->
<g id="Node000004" class="node">
<title>Node4</title>
<g id="a_Node000004"><a xlink:href="../../df/dde/_fwd_8hpp.html" target="_top" xlink:title=" ">
<polygon fill="white" stroke="#666666" points="844,-74.5 750,-74.5 750,-55.25 844,-55.25 844,-74.5"/>
<text text-anchor="middle" x="797" y="-61" font-family="Helvetica,sans-Serif" font-size="10.00">mimic++/Fwd.hpp</text>
</a>
</g>
</g>
<!-- Node2&#45;&gt;Node4 -->
<g id="edge16_Node000002_Node000004" class="edge">
<title>Node2&#45;&gt;Node4</title>
<g id="a_edge16_Node000002_Node000004"><a xlink:title=" ">
<path fill="none" stroke="#63b8ff" d="M641.36,-220.77C661.04,-193.35 719.74,-111.64 721,-110.5 734.48,-98.24 751.86,-87.73 766.6,-79.99"/>
<polygon fill="#63b8ff" stroke="#63b8ff" points="768.07,-83.17 775.43,-75.54 764.92,-76.92 768.07,-83.17"/>
</a>
</g>
</g>
<!-- Node12 -->
<g id="Node000012" class="node">
<title>Node12</title>
<g id="a_Node000012"><a xlink:href="../../da/dab/_printer_8hpp.html" target="_top" xlink:title=" ">
<polygon fill="white" stroke="#666666" points="519.88,-185 416.12,-185 416.12,-165.75 519.88,-165.75 519.88,-185"/>
<text text-anchor="middle" x="468" y="-171.5" font-family="Helvetica,sans-Serif" font-size="10.00">mimic++/Printer.hpp</text>
</a>
</g>
</g>
<!-- Node2&#45;&gt;Node12 -->
<g id="edge17_Node000002_Node000012" class="edge">
<title>Node2&#45;&gt;Node12</title>
<g id="a_edge17_Node000002_Node000012"><a xlink:title=" ">
<path fill="none" stroke="#63b8ff" d="M606.67,-220.59C579.32,-211.87 537.68,-198.59 507.16,-188.86"/>
<polygon fill="#63b8ff" stroke="#63b8ff" points="508.5,-185.62 497.91,-185.91 506.37,-192.28 508.5,-185.62"/>
</a>
</g>
</g>
<!-- Node13 -->
<g id="Node000013" class="node">
<title>Node13</title>
<g id="a_Node000013"><a xlink:title=" ">
<polygon fill="#e0e0e0" stroke="#999999" points="788,-129.75 730,-129.75 730,-110.5 788,-110.5 788,-129.75"/>
<text text-anchor="middle" x="759" y="-116.25" font-family="Helvetica,sans-Serif" font-size="10.00">functional</text>
</a>
</g>
</g>
<!-- Node2&#45;&gt;Node13 -->
<g id="edge28_Node000002_Node000013" class="edge">
<title>Node2&#45;&gt;Node13</title>
<g id="a_edge28_Node000002_Node000013"><a xlink:title=" ">
<path fill="none" stroke="#63b8ff" d="M650.14,-220.59C663.78,-212.14 684.06,-198.79 700,-185 716.53,-170.69 733.25,-152.13 744.64,-138.7"/>
<polygon fill="#63b8ff" stroke="#63b8ff" points="747.24,-141.05 750.95,-131.13 741.86,-136.57 747.24,-141.05"/>
</a>
</g>
</g>
<!-- Node14 -->
<g id="Node000014" class="node">
<title>Node14</title>
<g id="a_Node000014"><a xlink:title=" ">
<polygon fill="#e0e0e0" stroke="#999999" points="306,-129.75 260,-129.75 260,-110.5 306,-110.5 306,-129.75"/>
<text text-anchor="middle" x="283" y="-116.25" font-family="Helvetica,sans-Serif" font-size="10.00">iterator</text>
</a>
</g>
</g>
<!-- Node2&#45;&gt;Node14 -->
<g id="edge29_Node000002_Node000014" class="edge">
<title>Node2&#45;&gt;Node14</title>
<g id="a_edge29_Node000002_Node000014"><a xlink:title=" ">
<path fill="none" stroke="#63b8ff" d="M580.43,-223.35C533.52,-216.93 464.53,-204.99 407,-185 404.47,-184.12 346.14,-153.91 310.4,-135.36"/>
<polygon fill="#63b8ff" stroke="#63b8ff" points="312.38,-132.45 301.89,-130.94 309.15,-138.66 312.38,-132.45"/>
</a>
</g>
</g>
<!-- Node18 -->
<g id="Node000018" class="node">
<title>Node18</title>
<g id="a_Node000018"><a xlink:title=" ">
<polygon fill="#e0e0e0" stroke="#999999" points="1019.88,-185 964.12,-185 964.12,-165.75 1019.88,-165.75 1019.88,-185"/>
<text text-anchor="middle" x="992" y="-171.5" font-family="Helvetica,sans-Serif" font-size="10.00">algorithm</text>
</a>
</g>
</g>
<!-- Node2&#45;&gt;Node18 -->
<g id="edge27_Node000002_Node000018" class="edge">
<title>Node2&#45;&gt;Node18</title>
<g id="a_edge27_Node000002_Node000018"><a xlink:title=" ">
<path fill="none" stroke="#63b8ff" d="M689.88,-223.5C751.44,-216.3 854.48,-203.21 952.47,-185.32"/>
<polygon fill="#63b8ff" stroke="#63b8ff" points="953.09,-188.77 962.29,-183.51 951.82,-181.88 953.09,-188.77"/>
</a>
</g>
</g>
<!-- Node2&#45;&gt;Node19 -->
<g id="edge30_Node000002_Node000019" class="edge">
<title>Node2&#45;&gt;Node19</title>
<g id="a_edge30_Node000002_Node000019"><a xlink:title=" ">
<path fill="none" stroke="#63b8ff" d="M580.12,-221.03C527.21,-212.56 444.94,-198.9 374,-185 373.02,-184.81 372.02,-184.61 371.02,-184.41"/>
<polygon fill="#63b8ff" stroke="#63b8ff" points="372.13,-181.06 361.62,-182.43 370.69,-187.91 372.13,-181.06"/>
</a>
</g>
</g>
<!-- Node20 -->
<g id="Node000020" class="node">
<title>Node20</title>
<g id="a_Node000020"><a xlink:title=" ">
<polygon fill="#e0e0e0" stroke="#999999" points="797.62,-185 752.38,-185 752.38,-165.75 797.62,-165.75 797.62,-185"/>
<text text-anchor="middle" x="775" y="-171.5" font-family="Helvetica,sans-Serif" font-size="10.00">ranges</text>
</a>
</g>
</g>
<!-- Node2&#45;&gt;Node20 -->
<g id="edge31_Node000002_Node000020" class="edge">
<title>Node2&#45;&gt;Node20</title>
<g id="a_edge31_Node000002_Node000020"><a xlink:title=" ">
<path fill="none" stroke="#63b8ff" d="M658.75,-220.59C681.45,-211.96 715.89,-198.86 741.4,-189.16"/>
<polygon fill="#63b8ff" stroke="#63b8ff" points="742.55,-192.46 750.65,-185.64 740.06,-185.92 742.55,-192.46"/>
</a>
</g>
</g>
<!-- Node21 -->
<g id="Node000021" class="node">
<title>Node21</title>
<g id="a_Node000021"><a xlink:title=" ">
<polygon fill="#e0e0e0" stroke="#999999" points="594.25,-185 537.75,-185 537.75,-165.75 594.25,-165.75 594.25,-185"/>
<text text-anchor="middle" x="566" y="-171.5" font-family="Helvetica,sans-Serif" font-size="10.00">typeindex</text>
</a>
</g>
</g>
<!-- Node2&#45;&gt;Node21 -->
<g id="edge32_Node000002_Node000021" class="edge">
<title>Node2&#45;&gt;Node21</title>
<g id="a_edge32_Node000002_Node000021"><a xlink:title=" ">
<path fill="none" stroke="#63b8ff" d="M623.3,-220.59C613.22,-212.82 598.46,-201.42 586.44,-192.15"/>
<polygon fill="#63b8ff" stroke="#63b8ff" points="588.79,-189.54 578.73,-186.2 584.51,-195.08 588.79,-189.54"/>
</a>
</g>
</g>
<!-- Node22 -->
<g id="Node000022" class="node">
<title>Node22</title>
<g id="a_Node000022"><a xlink:title=" ">
<polygon fill="#e0e0e0" stroke="#999999" points="657.62,-185 612.38,-185 612.38,-165.75 657.62,-165.75 657.62,-185"/>
<text text-anchor="middle" x="635" y="-171.5" font-family="Helvetica,sans-Serif" font-size="10.00">variant</text>
</a>
</g>
</g>
<!-- Node2&#45;&gt;Node22 -->
<g id="edge33_Node000002_Node000022" class="edge">
<title>Node2&#45;&gt;Node22</title>
<g id="a_edge33_Node000002_Node000022"><a xlink:title=" ">
<path fill="none" stroke="#63b8ff" d="M635,-220.83C635,-214.32 635,-205.17 635,-196.87"/>
<polygon fill="#63b8ff" stroke="#63b8ff" points="638.5,-196.87 635,-186.87 631.5,-196.87 638.5,-196.87"/>
</a>
</g>
</g>
<!-- Node2&#45;&gt;Node23 -->
<g id="edge34_Node000002_Node000023" class="edge">
<title>Node2&#45;&gt;Node23</title>
<g id="a_edge34_Node000002_Node000023"><a xlink:title=" ">
<path fill="none" stroke="#63b8ff" d="M580.2,-224.8C516.03,-218.6 406.39,-206.29 304.02,-185.38"/>
<polygon fill="#63b8ff" stroke="#63b8ff" points="304.85,-181.98 294.34,-183.37 303.42,-188.83 304.85,-181.98"/>
</a>
</g>
</g>
<!-- Node3&#45;&gt;Node4 -->
<g id="edge3_Node000003_Node000004" class="edge">
<title>Node3&#45;&gt;Node4</title>
<g id="a_edge3_Node000003_Node000004"><a xlink:title=" ">
<path fill="none" stroke="#63b8ff" d="M897.33,-165.64C892.95,-152.45 883.17,-127.21 868,-110.5 856.69,-98.04 841.13,-87.74 827.45,-80.19"/>
<polygon fill="#63b8ff" stroke="#63b8ff" points="829.29,-77.2 818.81,-75.65 826.04,-83.4 829.29,-77.2"/>
</a>
</g>
</g>
<!-- Node6 -->
<g id="Node000006" class="node">
<title>Node6</title>
<g id="a_Node000006"><a xlink:href="../../d8/d32/_type_traits_8hpp.html" target="_top" xlink:title=" ">
<polygon fill="white" stroke="#666666" points="1041.5,-129.75 920.5,-129.75 920.5,-110.5 1041.5,-110.5 1041.5,-129.75"/>
<text text-anchor="middle" x="981" y="-116.25" font-family="Helvetica,sans-Serif" font-size="10.00">mimic++/TypeTraits.hpp</text>
</a>
</g>
</g>
<!-- Node3&#45;&gt;Node6 -->
<g id="edge5_Node000003_Node000006" class="edge">
<title>Node3&#45;&gt;Node6</title>
<g id="a_edge5_Node000003_Node000006"><a xlink:title=" ">
<path fill="none" stroke="#63b8ff" d="M913.74,-165.34C925.73,-157.46 943.37,-145.86 957.58,-136.52"/>
<polygon fill="#63b8ff" stroke="#63b8ff" points="959.49,-139.45 965.93,-131.03 955.65,-133.6 959.49,-139.45"/>
</a>
</g>
</g>
<!-- Node3&#45;&gt;Node7 -->
<g id="edge14_Node000003_Node000007" class="edge">
<title>Node3&#45;&gt;Node7</title>
<g id="a_edge14_Node000003_Node000007"><a xlink:title=" ">
<path fill="none" stroke="#63b8ff" d="M939.31,-165.33C970.28,-157.59 1014.22,-145.26 1051,-129.75 1083.84,-115.9 1119.31,-94.99 1141.81,-80.9"/>
<polygon fill="#63b8ff" stroke="#63b8ff" points="1143.62,-83.9 1150.19,-75.59 1139.87,-77.99 1143.62,-83.9"/>
</a>
</g>
</g>
<!-- Node3&#45;&gt;Node8 -->
<g id="edge8_Node000003_Node000008" class="edge">
<title>Node3&#45;&gt;Node8</title>
<g id="a_edge8_Node000003_Node000008"><a xlink:title=" ">
<path fill="none" stroke="#63b8ff" d="M853.66,-169.82C838.77,-168.43 822.2,-166.95 807,-165.75 563.87,-146.61 499.21,-155.4 253.94,-129.98"/>
<polygon fill="#63b8ff" stroke="#63b8ff" points="254.31,-126.5 244,-128.94 253.58,-133.46 254.31,-126.5"/>
</a>
</g>
</g>
<!-- Node10 -->
<g id="Node000010" class="node">
<title>Node10</title>
<g id="a_Node000010"><a xlink:title=" ">
<polygon fill="#e0e0e0" stroke="#999999" points="560.12,-74.5 475.88,-74.5 475.88,-55.25 560.12,-55.25 560.12,-74.5"/>
<text text-anchor="middle" x="518" y="-61" font-family="Helvetica,sans-Serif" font-size="10.00">source_location</text>
</a>
</g>
</g>
<!-- Node3&#45;&gt;Node10 -->
<g id="edge13_Node000003_Node000010" class="edge">
<title>Node3&#45;&gt;Node10</title>
<g id="a_edge13_Node000003_Node000010"><a xlink:title=" ">
<path fill="none" stroke="#63b8ff" d="M893.37,-165.59C882.09,-151.36 857.67,-123.56 830,-110.5 785.34,-89.43 648.57,-75.89 571.77,-69.73"/>
<polygon fill="#63b8ff" stroke="#63b8ff" points="572.19,-66.25 561.95,-68.96 571.64,-73.23 572.19,-66.25"/>
</a>
</g>
</g>
<!-- Node3&#45;&gt;Node11 -->
<g id="edge15_Node000003_Node000011" class="edge">
<title>Node3&#45;&gt;Node11</title>
<g id="a_edge15_Node000003_Node000011"><a xlink:title=" ">
<path fill="none" stroke="#63b8ff" d="M886.07,-165.5C859.08,-148.33 801.87,-112.11 797,-110.5 749.21,-94.7 400.61,-73.72 293.94,-67.61"/>
<polygon fill="#63b8ff" stroke="#63b8ff" points="294.4,-64.13 284.22,-67.06 294.01,-71.12 294.4,-64.13"/>
</a>
</g>
</g>
<!-- Node5 -->
<g id="Node000005" class="node">
<title>Node5</title>
<g id="a_Node000005"><a xlink:title=" ">
<polygon fill="#e0e0e0" stroke="#999999" points="684,-19.25 644,-19.25 644,0 684,0 684,-19.25"/>
<text text-anchor="middle" x="664" y="-5.75" font-family="Helvetica,sans-Serif" font-size="10.00">string</text>
</a>
</g>
</g>
<!-- Node4&#45;&gt;Node5 -->
<g id="edge4_Node000004_Node000005" class="edge">
<title>Node4&#45;&gt;Node5</title>
<g id="a_edge4_Node000004_Node000005"><a xlink:title=" ">
<path fill="none" stroke="#63b8ff" d="M774.44,-54.84C752.59,-46.09 719.28,-32.76 694.96,-23.02"/>
<polygon fill="#63b8ff" stroke="#63b8ff" points="696.47,-19.86 685.89,-19.39 693.87,-26.36 696.47,-19.86"/>
</a>
</g>
</g>
<!-- Node6&#45;&gt;Node4 -->
<g id="edge6_Node000006_Node000004" class="edge">
<title>Node6&#45;&gt;Node4</title>
<g id="a_edge6_Node000006_Node000004"><a xlink:title=" ">
<path fill="none" stroke="#63b8ff" d="M949.79,-110.09C919.39,-101.29 872.96,-87.86 839.26,-78.11"/>
<polygon fill="#63b8ff" stroke="#63b8ff" points="840.4,-74.79 829.82,-75.37 838.45,-81.52 840.4,-74.79"/>
</a>
</g>
</g>
<!-- Node6&#45;&gt;Node7 -->
<g id="edge7_Node000006_Node000007" class="edge">
<title>Node6&#45;&gt;Node7</title>
<g id="a_edge7_Node000006_Node000007"><a xlink:title=" ">
<path fill="none" stroke="#63b8ff" d="M1012.21,-110.09C1046.52,-100.16 1101.22,-84.33 1135.03,-74.55"/>
<polygon fill="#63b8ff" stroke="#63b8ff" points="1135.96,-77.92 1144.59,-71.78 1134.01,-71.2 1135.96,-77.92"/>
</a>
</g>
</g>
<!-- Node8&#45;&gt;Node4 -->
<g id="edge9_Node000008_Node000004" class="edge">
<title>Node8&#45;&gt;Node4</title>
<g id="a_edge9_Node000008_Node000004"><a xlink:title=" ">
<path fill="none" stroke="#63b8ff" d="M242.18,-111.57C245.16,-111.19 248.12,-110.83 251,-110.5 428.02,-90.35 638.34,-75.79 738.43,-69.43"/>
<polygon fill="#63b8ff" stroke="#63b8ff" points="738.52,-72.94 748.28,-68.81 738.08,-65.95 738.52,-72.94"/>
</a>
</g>
</g>
<!-- Node8&#45;&gt;Node9 -->
<g id="edge10_Node000008_Node000009" class="edge">
<title>Node8&#45;&gt;Node9</title>
<g id="a_edge10_Node000008_Node000009"><a xlink:title=" ">
<path fill="none" stroke="#63b8ff" d="M169.1,-110.09C147.57,-101.6 115.09,-88.79 90.62,-79.14"/>
<polygon fill="#63b8ff" stroke="#63b8ff" points="92.01,-75.92 81.42,-75.51 89.44,-82.43 92.01,-75.92"/>
</a>
</g>
</g>
<!-- Node8&#45;&gt;Node10 -->
<g id="edge11_Node000008_Node000010" class="edge">
<title>Node8&#45;&gt;Node10</title>
<g id="a_edge11_Node000008_Node000010"><a xlink:title=" ">
<path fill="none" stroke="#63b8ff" d="M242.22,-110.92C302.42,-101.09 402.86,-84.68 464.48,-74.62"/>
<polygon fill="#63b8ff" stroke="#63b8ff" points="464.72,-78.13 474.02,-73.06 463.59,-71.22 464.72,-78.13"/>
</a>
</g>
</g>
<!-- Node8&#45;&gt;Node11 -->
<g id="edge12_Node000008_Node000011" class="edge">
<title>Node8&#45;&gt;Node11</title>
<g id="a_edge12_Node000008_Node000011"><a xlink:title=" ">
<path fill="none" stroke="#63b8ff" d="M204.04,-110.09C214.41,-102.32 229.6,-90.92 241.97,-81.65"/>
<polygon fill="#63b8ff" stroke="#63b8ff" points="244.02,-84.48 249.92,-75.68 239.82,-78.88 244.02,-84.48"/>
</a>
</g>
</g>
<!-- Node12&#45;&gt;Node4 -->
<g id="edge18_Node000012_Node000004" class="edge">
<title>Node12&#45;&gt;Node4</title>
<g id="a_edge18_Node000012_Node000004"><a xlink:title=" ">
<path fill="none" stroke="#63b8ff" d="M509.1,-165.33C544.23,-157.22 595.93,-144.36 640,-129.75 643.14,-128.71 719.22,-97.66 764.3,-79.24"/>
<polygon fill="#63b8ff" stroke="#63b8ff" points="765.42,-82.56 773.36,-75.54 762.78,-76.08 765.42,-82.56"/>
</a>
</g>
</g>
<!-- Node12&#45;&gt;Node5 -->
<g id="edge23_Node000012_Node000005" class="edge">
<title>Node12&#45;&gt;Node5</title>
<g id="a_edge23_Node000012_Node000005"><a xlink:title=" ">
<path fill="none" stroke="#63b8ff" d="M507.9,-165.3C543.44,-156.56 592.06,-142.79 607,-129.75 637.42,-103.2 652.96,-56.8 659.7,-30.43"/>
<polygon fill="#63b8ff" stroke="#63b8ff" points="663.02,-31.58 661.91,-21.04 656.21,-29.97 663.02,-31.58"/>
</a>
</g>
</g>
<!-- Node12&#45;&gt;Node10 -->
<g id="edge21_Node000012_Node000010" class="edge">
<title>Node12&#45;&gt;Node10</title>
<g id="a_edge21_Node000012_Node000010"><a xlink:title=" ">
<path fill="none" stroke="#63b8ff" d="M475.58,-165.34C482.51,-156.68 492.62,-143.01 499,-129.75 505.76,-115.68 510.67,-98.71 513.81,-85.79"/>
<polygon fill="#63b8ff" stroke="#63b8ff" points="517.15,-86.88 515.94,-76.36 510.32,-85.34 517.15,-86.88"/>
</a>
</g>
</g>
<!-- Node12&#45;&gt;Node11 -->
<g id="edge25_Node000012_Node000011" class="edge">
<title>Node12&#45;&gt;Node11</title>
<g id="a_edge25_Node000012_Node000011"><a xlink:title=" ">
<path fill="none" stroke="#63b8ff" d="M438.77,-165.27C414.99,-157.34 380.91,-144.77 353,-129.75 327.23,-115.88 300.18,-95.83 282.54,-81.91"/>
<polygon fill="#63b8ff" stroke="#63b8ff" points="284.96,-79.35 274.97,-75.83 280.58,-84.81 284.96,-79.35"/>
</a>
</g>
</g>
<!-- Node12&#45;&gt;Node13 -->
<g id="edge19_Node000012_Node000013" class="edge">
<title>Node12&#45;&gt;Node13</title>
<g id="a_edge19_Node000012_Node000013"><a xlink:title=" ">
<path fill="none" stroke="#63b8ff" d="M517.69,-165.28C574.44,-154.9 666.18,-138.11 718.68,-128.5"/>
<polygon fill="#63b8ff" stroke="#63b8ff" points="719.19,-131.97 728.4,-126.72 717.93,-125.08 719.19,-131.97"/>
</a>
</g>
</g>
<!-- Node12&#45;&gt;Node14 -->
<g id="edge20_Node000012_Node000014" class="edge">
<title>Node12&#45;&gt;Node14</title>
<g id="a_edge20_Node000012_Node000014"><a xlink:title=" ">
<path fill="none" stroke="#63b8ff" d="M436.62,-165.34C403.46,-155.8 351.34,-140.8 317.16,-130.96"/>
<polygon fill="#63b8ff" stroke="#63b8ff" points="318.35,-127.66 307.77,-128.25 316.41,-134.38 318.35,-127.66"/>
</a>
</g>
</g>
<!-- Node15 -->
<g id="Node000015" class="node">
<title>Node15</title>
<g id="a_Node000015"><a xlink:title=" ">
<polygon fill="#e0e0e0" stroke="#999999" points="597.62,-129.75 546.38,-129.75 546.38,-110.5 597.62,-110.5 597.62,-129.75"/>
<text text-anchor="middle" x="572" y="-116.25" font-family="Helvetica,sans-Serif" font-size="10.00">sstream</text>
</a>
</g>
</g>
<!-- Node12&#45;&gt;Node15 -->
<g id="edge22_Node000012_Node000015" class="edge">
<title>Node12&#45;&gt;Node15</title>
<g id="a_edge22_Node000012_Node000015"><a xlink:title=" ">
<path fill="none" stroke="#63b8ff" d="M485.64,-165.34C501.63,-157.16 525.46,-144.96 544.04,-135.44"/>
<polygon fill="#63b8ff" stroke="#63b8ff" points="545.62,-138.57 552.92,-130.89 542.43,-132.33 545.62,-138.57"/>
</a>
</g>
</g>
<!-- Node16 -->
<g id="Node000016" class="node">
<title>Node16</title>
<g id="a_Node000016"><a xlink:title=" ">
<polygon fill="#e0e0e0" stroke="#999999" points="427.75,-129.75 362.25,-129.75 362.25,-110.5 427.75,-110.5 427.75,-129.75"/>
<text text-anchor="middle" x="395" y="-116.25" font-family="Helvetica,sans-Serif" font-size="10.00">string_view</text>
</a>
</g>
</g>
<!-- Node12&#45;&gt;Node16 -->
<g id="edge24_Node000012_Node000016" class="edge">
<title>Node12&#45;&gt;Node16</title>
<g id="a_edge24_Node000012_Node000016"><a xlink:title=" ">
<path fill="none" stroke="#63b8ff" d="M455.62,-165.34C444.85,-157.49 429.03,-145.95 416.25,-136.62"/>
<polygon fill="#63b8ff" stroke="#63b8ff" points="418.56,-133.98 408.42,-130.92 414.44,-139.64 418.56,-133.98"/>
</a>
</g>
</g>
<!-- Node17 -->
<g id="Node000017" class="node">
<title>Node17</title>
<g id="a_Node000017"><a xlink:title=" ">
<polygon fill="#e0e0e0" stroke="#999999" points="489.88,-129.75 446.12,-129.75 446.12,-110.5 489.88,-110.5 489.88,-129.75"/>
<text text-anchor="middle" x="468" y="-116.25" font-family="Helvetica,sans-Serif" font-size="10.00">format</text>
</a>
</g>
</g>
<!-- Node12&#45;&gt;Node17 -->
<g id="edge26_Node000012_Node000017" class="edge">
<title>Node12&#45;&gt;Node17</title>
<g id="a_edge26_Node000012_Node000017"><a xlink:title=" ">
<path fill="none" stroke="#63b8ff" d="M468,-165.58C468,-159.07 468,-149.92 468,-141.62"/>
<polygon fill="#63b8ff" stroke="#63b8ff" points="471.5,-141.62 468,-131.62 464.5,-141.62 471.5,-141.62"/>
</a>
</g>
</g>
<!-- Node24&#45;&gt;Node4 -->
<g id="edge36_Node000024_Node000004" class="edge">
<title>Node24&#45;&gt;Node4</title>
<g id="a_edge36_Node000024_Node000004"><a xlink:title=" ">
<path fill="none" stroke="#63b8ff" d="M762.42,-336.49C811.94,-331.72 883.44,-320.74 941,-295.5 1026.74,-257.89 1050.58,-221.12 1071,-129.75 1072.87,-121.4 1076.54,-117.02 1071,-110.5 1043.92,-78.65 927.73,-69.48 855.63,-66.87"/>
<polygon fill="#63b8ff" stroke="#63b8ff" points="856.08,-63.38 845.97,-66.55 855.85,-70.38 856.08,-63.38"/>
</a>
</g>
</g>
<!-- Node24&#45;&gt;Node7 -->
<g id="edge57_Node000024_Node000007" class="edge">
<title>Node24&#45;&gt;Node7</title>
<g id="a_edge57_Node000024_Node000007"><a xlink:title=" ">
<path fill="none" stroke="#63b8ff" d="M762.69,-338.6C819.22,-335.27 905.42,-325.21 974,-295.5 1071.37,-253.31 1135.13,-131.82 1156.78,-84.79"/>
<polygon fill="#63b8ff" stroke="#63b8ff" points="1159.87,-86.47 1160.76,-75.91 1153.48,-83.61 1159.87,-86.47"/>
</a>
</g>
</g>
<!-- Node24&#45;&gt;Node8 -->
<g id="edge51_Node000024_Node000008" class="edge">
<title>Node24&#45;&gt;Node8</title>
<g id="a_edge51_Node000024_Node000008"><a xlink:title=" ">
<path fill="none" stroke="#63b8ff" d="M643.34,-331.99C549.8,-316.8 366.39,-276.91 241,-185 224.47,-172.88 210.8,-153.69 202.14,-139.51"/>
<polygon fill="#63b8ff" stroke="#63b8ff" points="205.33,-138.03 197.29,-131.14 199.28,-141.55 205.33,-138.03"/>
</a>
</g>
</g>
<!-- Node24&#45;&gt;Node9 -->
<g id="edge54_Node000024_Node000009" class="edge">
<title>Node24&#45;&gt;Node9</title>
<g id="a_edge54_Node000024_Node000009"><a xlink:title=" ">
<path fill="none" stroke="#63b8ff" d="M643.24,-335.8C585.34,-330.42 495.6,-318.91 421,-295.5 313.56,-261.78 291.77,-239.08 193,-185 151.83,-162.46 137.39,-161.7 103,-129.75 88.78,-116.54 76.18,-98.33 67.78,-84.73"/>
<polygon fill="#63b8ff" stroke="#63b8ff" points="70.88,-83.1 62.76,-76.3 64.87,-86.68 70.88,-83.1"/>
</a>
</g>
</g>
<!-- Node24&#45;&gt;Node12 -->
<g id="edge37_Node000024_Node000012" class="edge">
<title>Node24&#45;&gt;Node12</title>
<g id="a_edge37_Node000024_Node000012"><a xlink:title=" ">
<path fill="none" stroke="#63b8ff" d="M682.71,-331.01C648.89,-315.29 579.73,-280.82 529,-240.25 511.49,-226.24 494.08,-207.39 482.36,-193.81"/>
<polygon fill="#63b8ff" stroke="#63b8ff" points="485.34,-191.9 476.21,-186.52 479.99,-196.42 485.34,-191.9"/>
</a>
</g>
</g>
<!-- Node24&#45;&gt;Node13 -->
<g id="edge55_Node000024_Node000013" class="edge">
<title>Node24&#45;&gt;Node13</title>
<g id="a_edge55_Node000024_Node000013"><a xlink:title=" ">
<path fill="none" stroke="#63b8ff" d="M762.8,-334.51C844.65,-323.03 986.3,-288.41 1029,-185 1032.27,-177.09 1034.53,-172.27 1029,-165.75 1014.33,-148.46 871.44,-132.15 799.68,-124.96"/>
<polygon fill="#63b8ff" stroke="#63b8ff" points="800.2,-121.5 789.9,-124 799.51,-128.46 800.2,-121.5"/>
</a>
</g>
</g>
<!-- Node24&#45;&gt;Node18 -->
<g id="edge52_Node000024_Node000018" class="edge">
<title>Node24&#45;&gt;Node18</title>
<g id="a_edge52_Node000024_Node000018"><a xlink:title=" ">
<path fill="none" stroke="#63b8ff" d="M758.41,-331.03C814.22,-319.18 899.51,-293.35 953,-240.25 966.11,-227.23 976.69,-208.97 983.5,-195.31"/>
<polygon fill="#63b8ff" stroke="#63b8ff" points="986.56,-197.03 987.67,-186.49 980.23,-194.04 986.56,-197.03"/>
</a>
</g>
</g>
<!-- Node25 -->
<g id="Node000025" class="node">
<title>Node25</title>
<g id="a_Node000025"><a xlink:href="../../da/dd9/_reporter_8hpp.html" target="_top" xlink:title=" ">
<polygon fill="white" stroke="#666666" points="852,-295.5 740,-295.5 740,-276.25 852,-276.25 852,-295.5"/>
<text text-anchor="middle" x="796" y="-282" font-family="Helvetica,sans-Serif" font-size="10.00">mimic++/Reporter.hpp</text>
</a>
</g>
</g>
<!-- Node24&#45;&gt;Node25 -->
<g id="edge38_Node000024_Node000025" class="edge">
<title>Node24&#45;&gt;Node25</title>
<g id="a_edge38_Node000024_Node000025"><a xlink:title=" ">
<path fill="none" stroke="#63b8ff" d="M718.78,-331.09C732.94,-322.98 753.98,-310.93 770.53,-301.46"/>
<polygon fill="#63b8ff" stroke="#63b8ff" points="771.89,-304.71 778.83,-296.7 768.42,-298.64 771.89,-304.71"/>
</a>
</g>
</g>
<!-- Node28 -->
<g id="Node000028" class="node">
<title>Node28</title>
<g id="a_Node000028"><a xlink:title=" ">
<polygon fill="#e0e0e0" stroke="#999999" points="666.5,-295.5 629.5,-295.5 629.5,-276.25 666.5,-276.25 666.5,-295.5"/>
<text text-anchor="middle" x="648" y="-282" font-family="Helvetica,sans-Serif" font-size="10.00">array</text>
</a>
</g>
</g>
<!-- Node24&#45;&gt;Node28 -->
<g id="edge53_Node000024_Node000028" class="edge">
<title>Node24&#45;&gt;Node28</title>
<g id="a_edge53_Node000024_Node000028"><a xlink:title=" ">
<path fill="none" stroke="#63b8ff" d="M693.92,-331.33C686.16,-323.82 674.79,-312.81 665.3,-303.63"/>
<polygon fill="#63b8ff" stroke="#63b8ff" points="667.99,-301.35 658.37,-296.91 663.12,-306.38 667.99,-301.35"/>
</a>
</g>
</g>
<!-- Node29 -->
<g id="Node000029" class="node">
<title>Node29</title>
<g id="a_Node000029"><a xlink:title=" ">
<polygon fill="#e0e0e0" stroke="#999999" points="721.5,-295.5 684.5,-295.5 684.5,-276.25 721.5,-276.25 721.5,-295.5"/>
<text text-anchor="middle" x="703" y="-282" font-family="Helvetica,sans-Serif" font-size="10.00">span</text>
</a>
</g>
</g>
<!-- Node24&#45;&gt;Node29 -->
<g id="edge56_Node000024_Node000029" class="edge">
<title>Node24&#45;&gt;Node29</title>
<g id="a_edge56_Node000024_Node000029"><a xlink:title=" ">
<path fill="none" stroke="#63b8ff" d="M703,-331.33C703,-324.82 703,-315.67 703,-307.37"/>
<polygon fill="#63b8ff" stroke="#63b8ff" points="706.5,-307.37 703,-297.37 699.5,-307.37 706.5,-307.37"/>
</a>
</g>
</g>
<!-- Node25&#45;&gt;Node2 -->
<g id="edge42_Node000025_Node000002" class="edge">
<title>Node25&#45;&gt;Node2</title>
<g id="a_edge42_Node000025_Node000002"><a xlink:title=" ">
<path fill="none" stroke="#63b8ff" d="M768.69,-275.84C742.44,-267.16 702.52,-253.96 673.14,-244.24"/>
<polygon fill="#63b8ff" stroke="#63b8ff" points="674.48,-240.99 663.88,-241.18 672.28,-247.64 674.48,-240.99"/>
</a>
</g>
</g>
<!-- Node25&#45;&gt;Node3 -->
<g id="edge39_Node000025_Node000003" class="edge">
<title>Node25&#45;&gt;Node3</title>
<g id="a_edge39_Node000025_Node000003"><a xlink:title=" ">
<path fill="none" stroke="#63b8ff" d="M852.38,-276.65C874.13,-270.42 896.88,-259.47 910,-240.25 919,-227.07 914.91,-208.82 909.51,-195.21"/>
<polygon fill="#63b8ff" stroke="#63b8ff" points="912.85,-194.11 905.54,-186.45 906.48,-197 912.85,-194.11"/>
</a>
</g>
</g>
<!-- Node25&#45;&gt;Node4 -->
<g id="edge40_Node000025_Node000004" class="edge">
<title>Node25&#45;&gt;Node4</title>
<g id="a_edge40_Node000025_Node000004"><a xlink:title=" ">
<path fill="none" stroke="#63b8ff" d="M844.31,-275.76C876.2,-268.65 918.35,-257.11 953,-240.25 1017.99,-208.64 1097.47,-165.85 1051,-110.5 1026.54,-81.37 922.65,-71.25 855.55,-67.74"/>
<polygon fill="#63b8ff" stroke="#63b8ff" points="855.96,-64.25 845.8,-67.26 855.62,-71.24 855.96,-64.25"/>
</a>
</g>
</g>
<!-- Node25&#45;&gt;Node9 -->
<g id="edge44_Node000025_Node000009" class="edge">
<title>Node25&#45;&gt;Node9</title>
<g id="a_edge44_Node000025_Node000009"><a xlink:title=" ">
<path fill="none" stroke="#63b8ff" d="M739.64,-277.31C736.72,-276.94 733.83,-276.59 731,-276.25 581,-258.31 540.18,-274.3 393,-240.25 322.97,-224.05 306.9,-213.7 241,-185 191.57,-163.47 177.92,-159.56 133,-129.75 111.59,-115.54 89.35,-96.22 74.5,-82.56"/>
<polygon fill="#63b8ff" stroke="#63b8ff" points="77.08,-80.19 67.39,-75.92 72.31,-85.3 77.08,-80.19"/>
</a>
</g>
</g>
<!-- Node25&#45;&gt;Node12 -->
<g id="edge41_Node000025_Node000012" class="edge">
<title>Node25&#45;&gt;Node12</title>
<g id="a_edge41_Node000025_Node000012"><a xlink:title=" ">
<path fill="none" stroke="#63b8ff" d="M739.67,-275.99C683.66,-266.73 601.9,-251.98 572,-240.25 540.95,-228.07 508.76,-206.72 488.58,-192.08"/>
<polygon fill="#63b8ff" stroke="#63b8ff" points="490.77,-189.35 480.66,-186.21 486.61,-194.98 490.77,-189.35"/>
</a>
</g>
</g>
<!-- Node25&#45;&gt;Node13 -->
<g id="edge46_Node000025_Node000013" class="edge">
<title>Node25&#45;&gt;Node13</title>
<g id="a_edge46_Node000025_Node000013"><a xlink:title=" ">
<path fill="none" stroke="#63b8ff" d="M799.61,-276.04C807.38,-255.63 823.68,-204.02 807,-165.75 801.96,-154.17 792.26,-144.24 782.9,-136.71"/>
<polygon fill="#63b8ff" stroke="#63b8ff" points="785.17,-134.04 775.05,-130.91 781.01,-139.67 785.17,-134.04"/>
</a>
</g>
</g>
<!-- Node25&#45;&gt;Node18 -->
<g id="edge43_Node000025_Node000018" class="edge">
<title>Node25&#45;&gt;Node18</title>
<g id="a_edge43_Node000025_Node000018"><a xlink:title=" ">
<path fill="none" stroke="#63b8ff" d="M837.63,-275.8C864.47,-268.75 899.39,-257.27 927,-240.25 947.13,-227.84 965.92,-208.14 978.07,-193.9"/>
<polygon fill="#63b8ff" stroke="#63b8ff" points="980.72,-196.17 984.38,-186.23 975.32,-191.72 980.72,-196.17"/>
</a>
</g>
</g>
<!-- Node25&#45;&gt;Node19 -->
<g id="edge48_Node000025_Node000019" class="edge">
<title>Node25&#45;&gt;Node19</title>
<g id="a_edge48_Node000025_Node000019"><a xlink:title=" ">
<path fill="none" stroke="#63b8ff" d="M739.56,-276.48C673.42,-266.45 567.9,-249.85 529,-240.25 471.97,-226.18 407.52,-203.58 369.13,-189.37"/>
<polygon fill="#63b8ff" stroke="#63b8ff" points="370.56,-186.17 359.97,-185.96 368.12,-192.73 370.56,-186.17"/>
</a>
</g>
</g>
<!-- Node25&#45;&gt;Node20 -->
<g id="edge49_Node000025_Node000020" class="edge">
<title>Node25&#45;&gt;Node20</title>
<g id="a_edge49_Node000025_Node000020"><a xlink:title=" ">
<path fill="none" stroke="#63b8ff" d="M794.28,-276C790.94,-258.75 783.51,-220.33 778.91,-196.56"/>
<polygon fill="#63b8ff" stroke="#63b8ff" points="782.37,-196.02 777.03,-186.86 775.49,-197.35 782.37,-196.02"/>
</a>
</g>
</g>
<!-- Node25&#45;&gt;Node23 -->
<g id="edge50_Node000025_Node000023" class="edge">
<title>Node25&#45;&gt;Node23</title>
<g id="a_edge50_Node000025_Node000023"><a xlink:title=" ">
<path fill="none" stroke="#63b8ff" d="M739.85,-277.43C644.33,-264.75 460.42,-240.35 460,-240.25 403.91,-227.18 340.93,-204.13 303.69,-189.59"/>
<polygon fill="#63b8ff" stroke="#63b8ff" points="304.99,-186.34 294.4,-185.93 302.42,-192.85 304.99,-186.34"/>
</a>
</g>
</g>
<!-- Node26 -->
<g id="Node000026" class="node">
<title>Node26</title>
<g id="a_Node000026"><a xlink:title=" ">
<polygon fill="#e0e0e0" stroke="#999999" points="900.62,-240.25 843.38,-240.25 843.38,-221 900.62,-221 900.62,-240.25"/>
<text text-anchor="middle" x="872" y="-226.75" font-family="Helvetica,sans-Serif" font-size="10.00">exception</text>
</a>
</g>
</g>
<!-- Node25&#45;&gt;Node26 -->
<g id="edge45_Node000025_Node000026" class="edge">
<title>Node25&#45;&gt;Node26</title>
<g id="a_edge45_Node000025_Node000026"><a xlink:title=" ">
<path fill="none" stroke="#63b8ff" d="M808.89,-275.84C820.03,-268.04 836.37,-256.59 849.64,-247.29"/>
<polygon fill="#63b8ff" stroke="#63b8ff" points="851.62,-250.18 857.8,-241.57 847.61,-244.44 851.62,-250.18"/>
</a>
</g>
</g>
<!-- Node25&#45;&gt;Node27 -->
<g id="edge47_Node000025_Node000027" class="edge">
<title>Node25&#45;&gt;Node27</title>
<g id="a_edge47_Node000025_Node000027"><a xlink:title=" ">
<path fill="none" stroke="#63b8ff" d="M852.07,-277.75C939.1,-266.69 1104.33,-245.69 1177.97,-236.33"/>
<polygon fill="#63b8ff" stroke="#63b8ff" points="1178.41,-239.8 1187.89,-235.07 1177.53,-232.86 1178.41,-239.8"/>
</a>
</g>
</g>
</g>
</svg>
