<?xml version="1.0" encoding="UTF-8" standalone="no"?>
<!DOCTYPE svg PUBLIC "-//W3C//DTD SVG 1.1//EN"
 "http://www.w3.org/Graphics/SVG/1.1/DTD/svg11.dtd">
<!-- Generated by graphviz version 12.1.1 (20240910.0053)
 -->
<!-- Title: mimic++/ControlPolicy.hpp Pages: 1 -->
<svg width="1283pt" height="414pt"
 viewBox="0.00 0.00 1283.00 414.00" xmlns="http://www.w3.org/2000/svg" xmlns:xlink="http://www.w3.org/1999/xlink">
<g id="graph0" class="graph" transform="scale(1 1) rotate(0) translate(4 410)">
<title>mimic++/ControlPolicy.hpp</title>
<!-- Node1 -->
<g id="Node000001" class="node">
<title>Node1</title>
<g id="a_Node000001"><a xlink:title=" ">
<polygon fill="#999999" stroke="#666666" points="1022.12,-406 889.88,-406 889.88,-386.75 1022.12,-386.75 1022.12,-406"/>
<text text-anchor="middle" x="956" y="-392.5" font-family="Helvetica,sans-Serif" font-size="10.00">mimic++/ControlPolicy.hpp</text>
</a>
</g>
</g>
<!-- Node2 -->
<g id="Node000002" class="node">
<title>Node2</title>
<g id="a_Node000002"><a xlink:href="../../d0/d3b/_reports_8hpp.html" target="_top" xlink:title=" ">
<polygon fill="white" stroke="#666666" points="783.5,-240.25 674.5,-240.25 674.5,-221 783.5,-221 783.5,-240.25"/>
<text text-anchor="middle" x="729" y="-226.75" font-family="Helvetica,sans-Serif" font-size="10.00">mimic++/Reports.hpp</text>
</a>
</g>
</g>
<!-- Node1&#45;&gt;Node2 -->
<g id="edge1_Node000001_Node000002" class="edge">
<title>Node1&#45;&gt;Node2</title>
<g id="a_edge1_Node000001_Node000002"><a xlink:title=" ">
<path fill="none" stroke="#63b8ff" d="M943.47,-386.34C906.5,-359.67 797.51,-281.04 750.73,-247.3"/>
<polygon fill="#63b8ff" stroke="#63b8ff" points="752.87,-244.53 742.72,-241.52 748.78,-250.21 752.87,-244.53"/>
</a>
</g>
</g>
<!-- Node7 -->
<g id="Node000007" class="node">
<title>Node7</title>
<g id="a_Node000007"><a xlink:title=" ">
<polygon fill="#e0e0e0" stroke="#999999" points="1047.5,-74.5 1010.5,-74.5 1010.5,-55.25 1047.5,-55.25 1047.5,-74.5"/>
<text text-anchor="middle" x="1029" y="-61" font-family="Helvetica,sans-Serif" font-size="10.00">tuple</text>
</a>
</g>
</g>
<!-- Node1&#45;&gt;Node7 -->
<g id="edge63_Node000001_Node000007" class="edge">
<title>Node1&#45;&gt;Node7</title>
<g id="a_edge63_Node000001_Node000007"><a xlink:title=" ">
<path fill="none" stroke="#63b8ff" d="M1006.62,-386.35C1058.3,-373.88 1131,-345.86 1131,-286.88 1131,-286.88 1131,-286.88 1131,-174.38 1131,-131.17 1087.54,-98.14 1057.35,-80.41"/>
<polygon fill="#63b8ff" stroke="#63b8ff" points="1059.46,-77.58 1049.03,-75.73 1056.03,-83.68 1059.46,-77.58"/>
</a>
</g>
</g>
<!-- Node8 -->
<g id="Node000008" class="node">
<title>Node8</title>
<g id="a_Node000008"><a xlink:href="../../d4/d2c/_utility_8hpp.html" target="_top" xlink:title=" ">
<polygon fill="white" stroke="#666666" points="246,-129.75 146,-129.75 146,-110.5 246,-110.5 246,-129.75"/>
<text text-anchor="middle" x="196" y="-116.25" font-family="Helvetica,sans-Serif" font-size="10.00">mimic++/Utility.hpp</text>
</a>
</g>
</g>
<!-- Node1&#45;&gt;Node8 -->
<g id="edge57_Node000001_Node000008" class="edge">
<title>Node1&#45;&gt;Node8</title>
<g id="a_edge57_Node000001_Node000008"><a xlink:title=" ">
<path fill="none" stroke="#63b8ff" d="M889.44,-393.99C739.63,-390.41 379.83,-379.06 262,-350.75 192.34,-334.01 114,-358.52 114,-286.88 114,-286.88 114,-286.88 114,-229.62 114,-190.02 149.2,-155.74 173.48,-136.8"/>
<polygon fill="#63b8ff" stroke="#63b8ff" points="175.33,-139.79 181.25,-131 171.14,-134.18 175.33,-139.79"/>
</a>
</g>
</g>
<!-- Node9 -->
<g id="Node000009" class="node">
<title>Node9</title>
<g id="a_Node000009"><a xlink:title=" ">
<polygon fill="#e0e0e0" stroke="#999999" points="60.12,-74.5 11.88,-74.5 11.88,-55.25 60.12,-55.25 60.12,-74.5"/>
<text text-anchor="middle" x="36" y="-61" font-family="Helvetica,sans-Serif" font-size="10.00">cassert</text>
</a>
</g>
</g>
<!-- Node1&#45;&gt;Node9 -->
<g id="edge58_Node000001_Node000009" class="edge">
<title>Node1&#45;&gt;Node9</title>
<g id="a_edge58_Node000001_Node000009"><a xlink:title=" ">
<path fill="none" stroke="#63b8ff" d="M889.58,-395.09C720.36,-393.82 276.39,-387.04 134,-350.75 70.07,-334.46 0,-352.85 0,-286.88 0,-286.88 0,-286.88 0,-174.38 0,-141.72 14.87,-106.22 25.5,-85.03"/>
<polygon fill="#63b8ff" stroke="#63b8ff" points="28.6,-86.65 30.14,-76.17 22.4,-83.4 28.6,-86.65"/>
</a>
</g>
</g>
<!-- Node12 -->
<g id="Node000012" class="node">
<title>Node12</title>
<g id="a_Node000012"><a xlink:title=" ">
<polygon fill="#e0e0e0" stroke="#999999" points="676.25,-74.5 637.75,-74.5 637.75,-55.25 676.25,-55.25 676.25,-74.5"/>
<text text-anchor="middle" x="657" y="-61" font-family="Helvetica,sans-Serif" font-size="10.00">utility</text>
</a>
</g>
</g>
<!-- Node1&#45;&gt;Node12 -->
<g id="edge64_Node000001_Node000012" class="edge">
<title>Node1&#45;&gt;Node12</title>
<g id="a_edge64_Node000001_Node000012"><a xlink:title=" ">
<path fill="none" stroke="#63b8ff" d="M963.65,-386.41C995.45,-348.05 1111.95,-195.92 1036,-110.5 1030.2,-103.98 776.95,-77.94 687.72,-68.95"/>
<polygon fill="#63b8ff" stroke="#63b8ff" points="688.3,-65.49 678,-67.97 687.6,-72.45 688.3,-65.49"/>
</a>
</g>
</g>
<!-- Node19 -->
<g id="Node000019" class="node">
<title>Node19</title>
<g id="a_Node000019"><a xlink:title=" ">
<polygon fill="#e0e0e0" stroke="#999999" points="965.88,-185 916.12,-185 916.12,-165.75 965.88,-165.75 965.88,-185"/>
<text text-anchor="middle" x="941" y="-171.5" font-family="Helvetica,sans-Serif" font-size="10.00">optional</text>
</a>
</g>
</g>
<!-- Node1&#45;&gt;Node19 -->
<g id="edge61_Node000001_Node000019" class="edge">
<title>Node1&#45;&gt;Node19</title>
<g id="a_edge61_Node000001_Node000019"><a xlink:title=" ">
<path fill="none" stroke="#63b8ff" d="M955.39,-386.52C953.18,-354.26 945.53,-242.51 942.38,-196.46"/>
<polygon fill="#63b8ff" stroke="#63b8ff" points="945.88,-196.35 941.7,-186.61 938.89,-196.83 945.88,-196.35"/>
</a>
</g>
</g>
<!-- Node23 -->
<g id="Node000023" class="node">
<title>Node23</title>
<g id="a_Node000023"><a xlink:title=" ">
<polygon fill="#e0e0e0" stroke="#999999" points="1026.5,-185 983.5,-185 983.5,-165.75 1026.5,-165.75 1026.5,-185"/>
<text text-anchor="middle" x="1005" y="-171.5" font-family="Helvetica,sans-Serif" font-size="10.00">vector</text>
</a>
</g>
</g>
<!-- Node1&#45;&gt;Node23 -->
<g id="edge65_Node000001_Node000023" class="edge">
<title>Node1&#45;&gt;Node23</title>
<g id="a_edge65_Node000001_Node000023"><a xlink:title=" ">
<path fill="none" stroke="#63b8ff" d="M957.99,-386.49C960.01,-377.48 963.22,-363.15 966,-350.75 978.5,-294.9 993.24,-228.97 1000.5,-196.51"/>
<polygon fill="#63b8ff" stroke="#63b8ff" points="1003.88,-197.45 1002.64,-186.93 997.04,-195.92 1003.88,-197.45"/>
</a>
</g>
</g>
<!-- Node24 -->
<g id="Node000024" class="node">
<title>Node24</title>
<g id="a_Node000024"><a xlink:href="../../d8/de4/_sequence_8hpp.html" target="_top" xlink:title=" ">
<polygon fill="white" stroke="#666666" points="389.38,-350.75 270.62,-350.75 270.62,-331.5 389.38,-331.5 389.38,-350.75"/>
<text text-anchor="middle" x="330" y="-337.25" font-family="Helvetica,sans-Serif" font-size="10.00">mimic++/Sequence.hpp</text>
</a>
</g>
</g>
<!-- Node1&#45;&gt;Node24 -->
<g id="edge34_Node000001_Node000024" class="edge">
<title>Node1&#45;&gt;Node24</title>
<g id="a_edge34_Node000001_Node000024"><a xlink:title=" ">
<path fill="none" stroke="#63b8ff" d="M889.6,-389.73C770.87,-379.63 523.21,-358.56 401.14,-348.18"/>
<polygon fill="#63b8ff" stroke="#63b8ff" points="401.49,-344.69 391.23,-347.33 400.9,-351.67 401.49,-344.69"/>
</a>
</g>
</g>
<!-- Node27 -->
<g id="Node000027" class="node">
<title>Node27</title>
<g id="a_Node000027"><a xlink:title=" ">
<polygon fill="#e0e0e0" stroke="#999999" points="928.25,-240.25 877.75,-240.25 877.75,-221 928.25,-221 928.25,-240.25"/>
<text text-anchor="middle" x="903" y="-226.75" font-family="Helvetica,sans-Serif" font-size="10.00">memory</text>
</a>
</g>
</g>
<!-- Node1&#45;&gt;Node27 -->
<g id="edge60_Node000001_Node000027" class="edge">
<title>Node1&#45;&gt;Node27</title>
<g id="a_edge60_Node000001_Node000027"><a xlink:title=" ">
<path fill="none" stroke="#63b8ff" d="M953.15,-386.57C944.92,-361.14 920.96,-287.1 909.39,-251.37"/>
<polygon fill="#63b8ff" stroke="#63b8ff" points="912.74,-250.35 906.33,-241.91 906.08,-252.5 912.74,-250.35"/>
</a>
</g>
</g>
<!-- Node30 -->
<g id="Node000030" class="node">
<title>Node30</title>
<g id="a_Node000030"><a xlink:title=" ">
<polygon fill="#e0e0e0" stroke="#999999" points="1198.62,-350.75 1159.38,-350.75 1159.38,-331.5 1198.62,-331.5 1198.62,-350.75"/>
<text text-anchor="middle" x="1179" y="-337.25" font-family="Helvetica,sans-Serif" font-size="10.00">limits</text>
</a>
</g>
</g>
<!-- Node1&#45;&gt;Node30 -->
<g id="edge59_Node000001_Node000030" class="edge">
<title>Node1&#45;&gt;Node30</title>
<g id="a_edge59_Node000001_Node000030"><a xlink:title=" ">
<path fill="none" stroke="#63b8ff" d="M995.14,-386.33C1033.39,-377.45 1093.26,-363.42 1145,-350.75 1145.98,-350.51 1146.98,-350.26 1147.99,-350.01"/>
<polygon fill="#63b8ff" stroke="#63b8ff" points="1148.56,-353.48 1157.41,-347.66 1146.86,-346.69 1148.56,-353.48"/>
</a>
</g>
</g>
<!-- Node31 -->
<g id="Node000031" class="node">
<title>Node31</title>
<g id="a_Node000031"><a xlink:title=" ">
<polygon fill="#e0e0e0" stroke="#999999" points="1275,-350.75 1217,-350.75 1217,-331.5 1275,-331.5 1275,-350.75"/>
<text text-anchor="middle" x="1246" y="-337.25" font-family="Helvetica,sans-Serif" font-size="10.00">stdexcept</text>
</a>
</g>
</g>
<!-- Node1&#45;&gt;Node31 -->
<g id="edge62_Node000001_Node000031" class="edge">
<title>Node1&#45;&gt;Node31</title>
<g id="a_edge62_Node000001_Node000031"><a xlink:title=" ">
<path fill="none" stroke="#63b8ff" d="M1011.7,-386.3C1060.36,-378.19 1133.17,-365.64 1205.45,-351.19"/>
<polygon fill="#63b8ff" stroke="#63b8ff" points="1205.98,-354.65 1215.09,-349.25 1204.59,-347.79 1205.98,-354.65"/>
</a>
</g>
</g>
<!-- Node3 -->
<g id="Node000003" class="node">
<title>Node3</title>
<g id="a_Node000003"><a xlink:href="../../dc/d44/_call_8hpp.html" target="_top" xlink:title=" ">
<polygon fill="white" stroke="#666666" points="683.88,-185 592.12,-185 592.12,-165.75 683.88,-165.75 683.88,-185"/>
<text text-anchor="middle" x="638" y="-171.5" font-family="Helvetica,sans-Serif" font-size="10.00">mimic++/Call.hpp</text>
</a>
</g>
</g>
<!-- Node2&#45;&gt;Node3 -->
<g id="edge2_Node000002_Node000003" class="edge">
<title>Node2&#45;&gt;Node3</title>
<g id="a_edge2_Node000002_Node000003"><a xlink:title=" ">
<path fill="none" stroke="#63b8ff" d="M713.56,-220.59C699.84,-212.56 679.5,-200.66 663.38,-191.23"/>
<polygon fill="#63b8ff" stroke="#63b8ff" points="665.22,-188.25 654.82,-186.22 661.68,-194.29 665.22,-188.25"/>
</a>
</g>
</g>
<!-- Node4 -->
<g id="Node000004" class="node">
<title>Node4</title>
<g id="a_Node000004"><a xlink:href="../../df/dde/_fwd_8hpp.html" target="_top" xlink:title=" ">
<polygon fill="white" stroke="#666666" points="528,-74.5 434,-74.5 434,-55.25 528,-55.25 528,-74.5"/>
<text text-anchor="middle" x="481" y="-61" font-family="Helvetica,sans-Serif" font-size="10.00">mimic++/Fwd.hpp</text>
</a>
</g>
</g>
<!-- Node2&#45;&gt;Node4 -->
<g id="edge16_Node000002_Node000004" class="edge">
<title>Node2&#45;&gt;Node4</title>
<g id="a_edge16_Node000002_Node000004"><a xlink:title=" ">
<path fill="none" stroke="#63b8ff" d="M725.97,-220.65C721.01,-207.15 709.97,-181.52 693,-165.75 644.82,-120.97 572.95,-92.91 526.52,-78.32"/>
<polygon fill="#63b8ff" stroke="#63b8ff" points="527.61,-75 517.03,-75.43 525.57,-81.69 527.61,-75"/>
</a>
</g>
</g>
<!-- Node13 -->
<g id="Node000013" class="node">
<title>Node13</title>
<g id="a_Node000013"><a xlink:href="../../da/dab/_printer_8hpp.html" target="_top" xlink:title=" ">
<polygon fill="white" stroke="#666666" points="367.88,-129.75 264.12,-129.75 264.12,-110.5 367.88,-110.5 367.88,-129.75"/>
<text text-anchor="middle" x="316" y="-116.25" font-family="Helvetica,sans-Serif" font-size="10.00">mimic++/Printer.hpp</text>
</a>
</g>
</g>
<!-- Node2&#45;&gt;Node13 -->
<g id="edge17_Node000002_Node000013" class="edge">
<title>Node2&#45;&gt;Node13</title>
<g id="a_edge17_Node000002_Node000013"><a xlink:title=" ">
<path fill="none" stroke="#63b8ff" d="M693.3,-220.57C663.37,-212.53 619.76,-199.8 583,-185 565.44,-177.93 562.91,-171.9 545,-165.75 490.5,-147.04 425.85,-135.34 379.16,-128.64"/>
<polygon fill="#63b8ff" stroke="#63b8ff" points="379.88,-125.21 369.49,-127.3 378.91,-132.14 379.88,-125.21"/>
</a>
</g>
</g>
<!-- Node14 -->
<g id="Node000014" class="node">
<title>Node14</title>
<g id="a_Node000014"><a xlink:title=" ">
<polygon fill="#e0e0e0" stroke="#999999" points="801,-74.5 755,-74.5 755,-55.25 801,-55.25 801,-74.5"/>
<text text-anchor="middle" x="778" y="-61" font-family="Helvetica,sans-Serif" font-size="10.00">iterator</text>
</a>
</g>
</g>
<!-- Node2&#45;&gt;Node14 -->
<g id="edge28_Node000002_Node000014" class="edge">
<title>Node2&#45;&gt;Node14</title>
<g id="a_edge28_Node000002_Node000014"><a xlink:title=" ">
<path fill="none" stroke="#63b8ff" d="M777.15,-220.56C813.11,-212.69 857.9,-200.19 869,-185 896.86,-146.88 839.52,-102.95 803.75,-80.6"/>
<polygon fill="#63b8ff" stroke="#63b8ff" points="805.99,-77.86 795.62,-75.68 802.36,-83.85 805.99,-77.86"/>
</a>
</g>
</g>
<!-- Node17 -->
<g id="Node000017" class="node">
<title>Node17</title>
<g id="a_Node000017"><a xlink:title=" ">
<polygon fill="#e0e0e0" stroke="#999999" points="433.88,-185 378.12,-185 378.12,-165.75 433.88,-165.75 433.88,-185"/>
<text text-anchor="middle" x="406" y="-171.5" font-family="Helvetica,sans-Serif" font-size="10.00">algorithm</text>
</a>
</g>
</g>
<!-- Node2&#45;&gt;Node17 -->
<g id="edge26_Node000002_Node000017" class="edge">
<title>Node2&#45;&gt;Node17</title>
<g id="a_edge26_Node000002_Node000017"><a xlink:title=" ">
<path fill="none" stroke="#63b8ff" d="M674.21,-220.59C609.21,-209.88 502.48,-192.28 445.21,-182.84"/>
<polygon fill="#63b8ff" stroke="#63b8ff" points="446.04,-179.43 435.61,-181.26 444.9,-186.34 446.04,-179.43"/>
</a>
</g>
</g>
<!-- Node18 -->
<g id="Node000018" class="node">
<title>Node18</title>
<g id="a_Node000018"><a xlink:title=" ">
<polygon fill="#e0e0e0" stroke="#999999" points="360,-185 302,-185 302,-165.75 360,-165.75 360,-185"/>
<text text-anchor="middle" x="331" y="-171.5" font-family="Helvetica,sans-Serif" font-size="10.00">functional</text>
</a>
</g>
</g>
<!-- Node2&#45;&gt;Node18 -->
<g id="edge27_Node000002_Node000018" class="edge">
<title>Node2&#45;&gt;Node18</title>
<g id="a_edge27_Node000002_Node000018"><a xlink:title=" ">
<path fill="none" stroke="#63b8ff" d="M674.16,-224.55C605.64,-217.82 484.6,-204.69 371.65,-185.31"/>
<polygon fill="#63b8ff" stroke="#63b8ff" points="372.34,-181.88 361.89,-183.61 371.14,-188.77 372.34,-181.88"/>
</a>
</g>
</g>
<!-- Node2&#45;&gt;Node19 -->
<g id="edge29_Node000002_Node000019" class="edge">
<title>Node2&#45;&gt;Node19</title>
<g id="a_edge29_Node000002_Node000019"><a xlink:title=" ">
<path fill="none" stroke="#63b8ff" d="M764.96,-220.59C803.91,-210.81 865.69,-195.29 904.75,-185.48"/>
<polygon fill="#63b8ff" stroke="#63b8ff" points="905.53,-188.89 914.38,-183.06 903.83,-182.1 905.53,-188.89"/>
</a>
</g>
</g>
<!-- Node20 -->
<g id="Node000020" class="node">
<title>Node20</title>
<g id="a_Node000020"><a xlink:title=" ">
<polygon fill="#e0e0e0" stroke="#999999" points="535.62,-185 490.38,-185 490.38,-165.75 535.62,-165.75 535.62,-185"/>
<text text-anchor="middle" x="513" y="-171.5" font-family="Helvetica,sans-Serif" font-size="10.00">ranges</text>
</a>
</g>
</g>
<!-- Node2&#45;&gt;Node20 -->
<g id="edge30_Node000002_Node000020" class="edge">
<title>Node2&#45;&gt;Node20</title>
<g id="a_edge30_Node000002_Node000020"><a xlink:title=" ">
<path fill="none" stroke="#63b8ff" d="M692.36,-220.59C651.69,-210.57 586.6,-194.52 547.02,-184.76"/>
<polygon fill="#63b8ff" stroke="#63b8ff" points="547.87,-181.37 537.32,-182.37 546.19,-188.16 547.87,-181.37"/>
</a>
</g>
</g>
<!-- Node21 -->
<g id="Node000021" class="node">
<title>Node21</title>
<g id="a_Node000021"><a xlink:title=" ">
<polygon fill="#e0e0e0" stroke="#999999" points="860.25,-185 803.75,-185 803.75,-165.75 860.25,-165.75 860.25,-185"/>
<text text-anchor="middle" x="832" y="-171.5" font-family="Helvetica,sans-Serif" font-size="10.00">typeindex</text>
</a>
</g>
</g>
<!-- Node2&#45;&gt;Node21 -->
<g id="edge31_Node000002_Node000021" class="edge">
<title>Node2&#45;&gt;Node21</title>
<g id="a_edge31_Node000002_Node000021"><a xlink:title=" ">
<path fill="none" stroke="#63b8ff" d="M746.47,-220.59C762.31,-212.41 785.91,-200.21 804.31,-190.69"/>
<polygon fill="#63b8ff" stroke="#63b8ff" points="805.82,-193.85 813.1,-186.15 802.61,-187.63 805.82,-193.85"/>
</a>
</g>
</g>
<!-- Node22 -->
<g id="Node000022" class="node">
<title>Node22</title>
<g id="a_Node000022"><a xlink:title=" ">
<polygon fill="#e0e0e0" stroke="#999999" points="785.62,-185 740.38,-185 740.38,-165.75 785.62,-165.75 785.62,-185"/>
<text text-anchor="middle" x="763" y="-171.5" font-family="Helvetica,sans-Serif" font-size="10.00">variant</text>
</a>
</g>
</g>
<!-- Node2&#45;&gt;Node22 -->
<g id="edge32_Node000002_Node000022" class="edge">
<title>Node2&#45;&gt;Node22</title>
<g id="a_edge32_Node000002_Node000022"><a xlink:title=" ">
<path fill="none" stroke="#63b8ff" d="M734.61,-220.83C739.12,-213.78 745.59,-203.65 751.21,-194.83"/>
<polygon fill="#63b8ff" stroke="#63b8ff" points="754.02,-196.95 756.45,-186.63 748.12,-193.18 754.02,-196.95"/>
</a>
</g>
</g>
<!-- Node2&#45;&gt;Node23 -->
<g id="edge33_Node000002_Node000023" class="edge">
<title>Node2&#45;&gt;Node23</title>
<g id="a_edge33_Node000002_Node000023"><a xlink:title=" ">
<path fill="none" stroke="#63b8ff" d="M783.55,-221.34C831.08,-213.77 902.04,-201.59 971.91,-185.55"/>
<polygon fill="#63b8ff" stroke="#63b8ff" points="972.69,-188.96 981.64,-183.29 971.1,-182.14 972.69,-188.96"/>
</a>
</g>
</g>
<!-- Node3&#45;&gt;Node4 -->
<g id="edge3_Node000003_Node000004" class="edge">
<title>Node3&#45;&gt;Node4</title>
<g id="a_edge3_Node000003_Node000004"><a xlink:title=" ">
<path fill="none" stroke="#63b8ff" d="M624.88,-165.31C598.04,-146.76 536.55,-104.26 503.31,-81.29"/>
<polygon fill="#63b8ff" stroke="#63b8ff" points="505.43,-78.5 495.21,-75.7 501.45,-84.26 505.43,-78.5"/>
</a>
</g>
</g>
<!-- Node6 -->
<g id="Node000006" class="node">
<title>Node6</title>
<g id="a_Node000006"><a xlink:href="../../d8/d32/_type_traits_8hpp.html" target="_top" xlink:title=" ">
<polygon fill="white" stroke="#666666" points="1026.5,-129.75 905.5,-129.75 905.5,-110.5 1026.5,-110.5 1026.5,-129.75"/>
<text text-anchor="middle" x="966" y="-116.25" font-family="Helvetica,sans-Serif" font-size="10.00">mimic++/TypeTraits.hpp</text>
</a>
</g>
</g>
<!-- Node3&#45;&gt;Node6 -->
<g id="edge5_Node000003_Node000006" class="edge">
<title>Node3&#45;&gt;Node6</title>
<g id="a_edge5_Node000003_Node000006"><a xlink:title=" ">
<path fill="none" stroke="#63b8ff" d="M684.3,-166.86C740.27,-157.77 834.91,-142.41 898.88,-132.02"/>
<polygon fill="#63b8ff" stroke="#63b8ff" points="899.25,-135.51 908.56,-130.45 898.13,-128.6 899.25,-135.51"/>
</a>
</g>
</g>
<!-- Node3&#45;&gt;Node7 -->
<g id="edge14_Node000003_Node000007" class="edge">
<title>Node3&#45;&gt;Node7</title>
<g id="a_edge14_Node000003_Node000007"><a xlink:title=" ">
<path fill="none" stroke="#63b8ff" d="M670.66,-165.31C745.25,-144.61 927.18,-94.13 999.06,-74.18"/>
<polygon fill="#63b8ff" stroke="#63b8ff" points="999.85,-77.6 1008.55,-71.55 997.98,-70.85 999.85,-77.6"/>
</a>
</g>
</g>
<!-- Node3&#45;&gt;Node8 -->
<g id="edge7_Node000003_Node000008" class="edge">
<title>Node3&#45;&gt;Node8</title>
<g id="a_edge7_Node000003_Node000008"><a xlink:title=" ">
<path fill="none" stroke="#63b8ff" d="M591.67,-169.42C521.63,-161.83 384.36,-146.57 257.28,-130.02"/>
<polygon fill="#63b8ff" stroke="#63b8ff" points="258.07,-126.59 247.7,-128.76 257.16,-133.53 258.07,-126.59"/>
</a>
</g>
</g>
<!-- Node11 -->
<g id="Node000011" class="node">
<title>Node11</title>
<g id="a_Node000011"><a xlink:title=" ">
<polygon fill="#e0e0e0" stroke="#999999" points="162.12,-74.5 77.88,-74.5 77.88,-55.25 162.12,-55.25 162.12,-74.5"/>
<text text-anchor="middle" x="120" y="-61" font-family="Helvetica,sans-Serif" font-size="10.00">source_location</text>
</a>
</g>
</g>
<!-- Node3&#45;&gt;Node11 -->
<g id="edge13_Node000003_Node000011" class="edge">
<title>Node3&#45;&gt;Node11</title>
<g id="a_edge13_Node000003_Node000011"><a xlink:title=" ">
<path fill="none" stroke="#63b8ff" d="M591.65,-170.03C576.75,-168.65 560.18,-167.12 545,-165.75 499.68,-161.65 171.83,-159.05 137,-129.75 124.5,-119.24 120.65,-100.67 119.69,-86.26"/>
<polygon fill="#63b8ff" stroke="#63b8ff" points="123.19,-86.4 119.48,-76.48 116.19,-86.55 123.19,-86.4"/>
</a>
</g>
</g>
<!-- Node3&#45;&gt;Node12 -->
<g id="edge15_Node000003_Node000012" class="edge">
<title>Node3&#45;&gt;Node12</title>
<g id="a_edge15_Node000003_Node000012"><a xlink:title=" ">
<path fill="none" stroke="#63b8ff" d="M639.55,-165.5C642.57,-148.25 649.3,-109.83 653.46,-86.06"/>
<polygon fill="#63b8ff" stroke="#63b8ff" points="656.89,-86.82 655.16,-76.37 649.99,-85.61 656.89,-86.82"/>
</a>
</g>
</g>
<!-- Node5 -->
<g id="Node000005" class="node">
<title>Node5</title>
<g id="a_Node000005"><a xlink:title=" ">
<polygon fill="#e0e0e0" stroke="#999999" points="428,-19.25 388,-19.25 388,0 428,0 428,-19.25"/>
<text text-anchor="middle" x="408" y="-5.75" font-family="Helvetica,sans-Serif" font-size="10.00">string</text>
</a>
</g>
</g>
<!-- Node4&#45;&gt;Node5 -->
<g id="edge4_Node000004_Node000005" class="edge">
<title>Node4&#45;&gt;Node5</title>
<g id="a_edge4_Node000004_Node000005"><a xlink:title=" ">
<path fill="none" stroke="#63b8ff" d="M468.62,-54.84C457.85,-46.99 442.03,-35.45 429.25,-26.12"/>
<polygon fill="#63b8ff" stroke="#63b8ff" points="431.56,-23.48 421.42,-20.42 427.44,-29.14 431.56,-23.48"/>
</a>
</g>
</g>
<!-- Node6&#45;&gt;Node7 -->
<g id="edge6_Node000006_Node000007" class="edge">
<title>Node6&#45;&gt;Node7</title>
<g id="a_edge6_Node000006_Node000007"><a xlink:title=" ">
<path fill="none" stroke="#63b8ff" d="M976.69,-110.09C985.7,-102.47 998.83,-91.37 1009.68,-82.2"/>
<polygon fill="#63b8ff" stroke="#63b8ff" points="1011.94,-84.88 1017.31,-75.75 1007.42,-79.53 1011.94,-84.88"/>
</a>
</g>
</g>
<!-- Node8&#45;&gt;Node4 -->
<g id="edge8_Node000008_Node000004" class="edge">
<title>Node8&#45;&gt;Node4</title>
<g id="a_edge8_Node000008_Node000004"><a xlink:title=" ">
<path fill="none" stroke="#63b8ff" d="M244.67,-110.03C293.99,-100.82 370.31,-86.56 422.8,-76.75"/>
<polygon fill="#63b8ff" stroke="#63b8ff" points="423.28,-80.22 432.46,-74.94 421.99,-73.34 423.28,-80.22"/>
</a>
</g>
</g>
<!-- Node8&#45;&gt;Node9 -->
<g id="edge9_Node000008_Node000009" class="edge">
<title>Node8&#45;&gt;Node9</title>
<g id="a_edge9_Node000008_Node000009"><a xlink:title=" ">
<path fill="none" stroke="#63b8ff" d="M168.86,-110.09C141.9,-101.12 100.45,-87.32 71.02,-77.53"/>
<polygon fill="#63b8ff" stroke="#63b8ff" points="72.42,-74.31 61.82,-74.47 70.21,-80.95 72.42,-74.31"/>
</a>
</g>
</g>
<!-- Node10 -->
<g id="Node000010" class="node">
<title>Node10</title>
<g id="a_Node000010"><a xlink:title=" ">
<polygon fill="#e0e0e0" stroke="#999999" points="223.88,-74.5 180.12,-74.5 180.12,-55.25 223.88,-55.25 223.88,-74.5"/>
<text text-anchor="middle" x="202" y="-61" font-family="Helvetica,sans-Serif" font-size="10.00">format</text>
</a>
</g>
</g>
<!-- Node8&#45;&gt;Node10 -->
<g id="edge10_Node000008_Node000010" class="edge">
<title>Node8&#45;&gt;Node10</title>
<g id="a_edge10_Node000008_Node000010"><a xlink:title=" ">
<path fill="none" stroke="#63b8ff" d="M196.99,-110.33C197.73,-103.74 198.78,-94.46 199.72,-86.07"/>
<polygon fill="#63b8ff" stroke="#63b8ff" points="203.18,-86.69 200.82,-76.36 196.22,-85.91 203.18,-86.69"/>
</a>
</g>
</g>
<!-- Node8&#45;&gt;Node11 -->
<g id="edge11_Node000008_Node000011" class="edge">
<title>Node8&#45;&gt;Node11</title>
<g id="a_edge11_Node000008_Node000011"><a xlink:title=" ">
<path fill="none" stroke="#63b8ff" d="M183.11,-110.09C171.97,-102.29 155.63,-90.84 142.36,-81.54"/>
<polygon fill="#63b8ff" stroke="#63b8ff" points="144.39,-78.69 134.2,-75.82 140.38,-84.43 144.39,-78.69"/>
</a>
</g>
</g>
<!-- Node8&#45;&gt;Node12 -->
<g id="edge12_Node000008_Node000012" class="edge">
<title>Node8&#45;&gt;Node12</title>
<g id="a_edge12_Node000008_Node000012"><a xlink:title=" ">
<path fill="none" stroke="#63b8ff" d="M246.2,-111.67C249.17,-111.26 252.13,-110.87 255,-110.5 393.3,-92.72 558.93,-75.67 626.27,-68.92"/>
<polygon fill="#63b8ff" stroke="#63b8ff" points="626.2,-72.44 635.8,-67.97 625.51,-65.48 626.2,-72.44"/>
</a>
</g>
</g>
<!-- Node13&#45;&gt;Node4 -->
<g id="edge18_Node000013_Node000004" class="edge">
<title>Node13&#45;&gt;Node4</title>
<g id="a_edge18_Node000013_Node000004"><a xlink:title=" ">
<path fill="none" stroke="#63b8ff" d="M343.99,-110.09C371.01,-101.37 412.16,-88.09 442.31,-78.36"/>
<polygon fill="#63b8ff" stroke="#63b8ff" points="442.99,-81.82 451.43,-75.42 440.84,-75.16 442.99,-81.82"/>
</a>
</g>
</g>
<!-- Node13&#45;&gt;Node5 -->
<g id="edge23_Node000013_Node000005" class="edge">
<title>Node13&#45;&gt;Node5</title>
<g id="a_edge23_Node000013_Node000005"><a xlink:title=" ">
<path fill="none" stroke="#63b8ff" d="M320.24,-110.27C326.67,-97.36 339.76,-72.99 355,-55.25 364.15,-44.6 375.97,-34.39 386.12,-26.42"/>
<polygon fill="#63b8ff" stroke="#63b8ff" points="388.15,-29.28 394,-20.45 383.92,-23.7 388.15,-29.28"/>
</a>
</g>
</g>
<!-- Node13&#45;&gt;Node10 -->
<g id="edge19_Node000013_Node000010" class="edge">
<title>Node13&#45;&gt;Node10</title>
<g id="a_edge19_Node000013_Node000010"><a xlink:title=" ">
<path fill="none" stroke="#63b8ff" d="M296.66,-110.09C278.89,-101.79 252.28,-89.36 231.8,-79.79"/>
<polygon fill="#63b8ff" stroke="#63b8ff" points="233.35,-76.65 222.8,-75.59 230.38,-83 233.35,-76.65"/>
</a>
</g>
</g>
<!-- Node13&#45;&gt;Node11 -->
<g id="edge21_Node000013_Node000011" class="edge">
<title>Node13&#45;&gt;Node11</title>
<g id="a_edge21_Node000013_Node000011"><a xlink:title=" ">
<path fill="none" stroke="#63b8ff" d="M282.75,-110.09C250.09,-101.22 200.06,-87.62 164.09,-77.85"/>
<polygon fill="#63b8ff" stroke="#63b8ff" points="165.44,-74.59 154.87,-75.35 163.6,-81.35 165.44,-74.59"/>
</a>
</g>
</g>
<!-- Node13&#45;&gt;Node12 -->
<g id="edge25_Node000013_Node000012" class="edge">
<title>Node13&#45;&gt;Node12</title>
<g id="a_edge25_Node000013_Node000012"><a xlink:title=" ">
<path fill="none" stroke="#63b8ff" d="M368.16,-110.98C440.25,-99.72 568.03,-79.77 626.39,-70.66"/>
<polygon fill="#63b8ff" stroke="#63b8ff" points="626.59,-74.17 635.93,-69.17 625.51,-67.25 626.59,-74.17"/>
</a>
</g>
</g>
<!-- Node13&#45;&gt;Node14 -->
<g id="edge20_Node000013_Node000014" class="edge">
<title>Node13&#45;&gt;Node14</title>
<g id="a_edge20_Node000013_Node000014"><a xlink:title=" ">
<path fill="none" stroke="#63b8ff" d="M368.1,-113.12C463.27,-102.15 662.84,-79.15 743.29,-69.88"/>
<polygon fill="#63b8ff" stroke="#63b8ff" points="743.67,-73.36 753.2,-68.73 742.86,-66.4 743.67,-73.36"/>
</a>
</g>
</g>
<!-- Node15 -->
<g id="Node000015" class="node">
<title>Node15</title>
<g id="a_Node000015"><a xlink:title=" ">
<polygon fill="#e0e0e0" stroke="#999999" points="415.62,-74.5 364.38,-74.5 364.38,-55.25 415.62,-55.25 415.62,-74.5"/>
<text text-anchor="middle" x="390" y="-61" font-family="Helvetica,sans-Serif" font-size="10.00">sstream</text>
</a>
</g>
</g>
<!-- Node13&#45;&gt;Node15 -->
<g id="edge22_Node000013_Node000015" class="edge">
<title>Node13&#45;&gt;Node15</title>
<g id="a_edge22_Node000013_Node000015"><a xlink:title=" ">
<path fill="none" stroke="#63b8ff" d="M328.55,-110.09C339.46,-102.24 355.5,-90.7 368.46,-81.37"/>
<polygon fill="#63b8ff" stroke="#63b8ff" points="370.33,-84.34 376.4,-75.66 366.24,-78.66 370.33,-84.34"/>
</a>
</g>
</g>
<!-- Node16 -->
<g id="Node000016" class="node">
<title>Node16</title>
<g id="a_Node000016"><a xlink:title=" ">
<polygon fill="#e0e0e0" stroke="#999999" points="307.75,-74.5 242.25,-74.5 242.25,-55.25 307.75,-55.25 307.75,-74.5"/>
<text text-anchor="middle" x="275" y="-61" font-family="Helvetica,sans-Serif" font-size="10.00">string_view</text>
</a>
</g>
</g>
<!-- Node13&#45;&gt;Node16 -->
<g id="edge24_Node000013_Node000016" class="edge">
<title>Node13&#45;&gt;Node16</title>
<g id="a_edge24_Node000013_Node000016"><a xlink:title=" ">
<path fill="none" stroke="#63b8ff" d="M309.23,-110.33C303.68,-103.13 295.66,-92.71 288.77,-83.76"/>
<polygon fill="#63b8ff" stroke="#63b8ff" points="291.71,-81.85 282.84,-76.06 286.17,-86.12 291.71,-81.85"/>
</a>
</g>
</g>
<!-- Node24&#45;&gt;Node4 -->
<g id="edge35_Node000024_Node000004" class="edge">
<title>Node24&#45;&gt;Node4</title>
<g id="a_edge35_Node000024_Node000004"><a xlink:title=" ">
<path fill="none" stroke="#63b8ff" d="M338.4,-331.26C348.82,-319.13 364.49,-296.55 358,-276.25 340.65,-221.98 261.63,-213.32 293,-165.75 315.36,-131.84 340.93,-148.43 377,-129.75 405.97,-114.75 437.72,-94.68 458.42,-81.07"/>
<polygon fill="#63b8ff" stroke="#63b8ff" points="460.24,-84.07 466.64,-75.62 456.37,-78.23 460.24,-84.07"/>
</a>
</g>
</g>
<!-- Node24&#45;&gt;Node7 -->
<g id="edge56_Node000024_Node000007" class="edge">
<title>Node24&#45;&gt;Node7</title>
<g id="a_edge56_Node000024_Node000007"><a xlink:title=" ">
<path fill="none" stroke="#63b8ff" d="M389.53,-337.47C500.35,-330.99 744.53,-309.42 937,-240.25 984.42,-223.21 1010.49,-228.45 1036,-185 1054.21,-153.99 1044.5,-110.26 1036.37,-85.32"/>
<polygon fill="#63b8ff" stroke="#63b8ff" points="1039.76,-84.42 1033.13,-76.15 1033.16,-86.75 1039.76,-84.42"/>
</a>
</g>
</g>
<!-- Node24&#45;&gt;Node8 -->
<g id="edge50_Node000024_Node000008" class="edge">
<title>Node24&#45;&gt;Node8</title>
<g id="a_edge50_Node000024_Node000008"><a xlink:title=" ">
<path fill="none" stroke="#63b8ff" d="M287.14,-331.06C266.58,-324.54 243.36,-313.59 229,-295.5 192.66,-249.72 192.06,-176.03 194.18,-140.94"/>
<polygon fill="#63b8ff" stroke="#63b8ff" points="197.64,-141.63 194.91,-131.39 190.66,-141.09 197.64,-141.63"/>
</a>
</g>
</g>
<!-- Node24&#45;&gt;Node9 -->
<g id="edge53_Node000024_Node000009" class="edge">
<title>Node24&#45;&gt;Node9</title>
<g id="a_edge53_Node000024_Node000009"><a xlink:title=" ">
<path fill="none" stroke="#63b8ff" d="M273.7,-331.01C188.85,-315.66 38,-281.38 38,-231.62 38,-231.62 38,-231.62 38,-174.38 38,-143.65 37.19,-108.04 36.6,-86.24"/>
<polygon fill="#63b8ff" stroke="#63b8ff" points="40.1,-86.29 36.32,-76.39 33.1,-86.48 40.1,-86.29"/>
</a>
</g>
</g>
<!-- Node24&#45;&gt;Node13 -->
<g id="edge36_Node000024_Node000013" class="edge">
<title>Node24&#45;&gt;Node13</title>
<g id="a_edge36_Node000024_Node000013"><a xlink:title=" ">
<path fill="none" stroke="#63b8ff" d="M291.94,-331.16C273.15,-324.6 252.17,-313.59 241,-295.5 207.62,-241.41 267.1,-169.85 298.47,-137.84"/>
<polygon fill="#63b8ff" stroke="#63b8ff" points="300.76,-140.5 305.4,-130.98 295.84,-135.53 300.76,-140.5"/>
</a>
</g>
</g>
<!-- Node24&#45;&gt;Node17 -->
<g id="edge51_Node000024_Node000017" class="edge">
<title>Node24&#45;&gt;Node17</title>
<g id="a_edge51_Node000024_Node000017"><a xlink:title=" ">
<path fill="none" stroke="#63b8ff" d="M349.89,-331.01C363.81,-323.53 381.54,-311.56 391,-295.5 409.2,-264.6 409.71,-221.44 408.09,-196.45"/>
<polygon fill="#63b8ff" stroke="#63b8ff" points="411.6,-196.37 407.26,-186.71 404.62,-196.97 411.6,-196.37"/>
</a>
</g>
</g>
<!-- Node24&#45;&gt;Node18 -->
<g id="edge54_Node000024_Node000018" class="edge">
<title>Node24&#45;&gt;Node18</title>
<g id="a_edge54_Node000024_Node000018"><a xlink:title=" ">
<path fill="none" stroke="#63b8ff" d="M296.53,-331.03C278.78,-324.32 258.52,-313.19 248,-295.5 243.63,-288.15 245.27,-284.36 248,-276.25 259.74,-241.42 290.19,-210.44 310.75,-192.54"/>
<polygon fill="#63b8ff" stroke="#63b8ff" points="312.85,-195.36 318.25,-186.24 308.34,-190 312.85,-195.36"/>
</a>
</g>
</g>
<!-- Node25 -->
<g id="Node000025" class="node">
<title>Node25</title>
<g id="a_Node000025"><a xlink:href="../../da/dd9/_reporter_8hpp.html" target="_top" xlink:title=" ">
<polygon fill="white" stroke="#666666" points="626,-295.5 514,-295.5 514,-276.25 626,-276.25 626,-295.5"/>
<text text-anchor="middle" x="570" y="-282" font-family="Helvetica,sans-Serif" font-size="10.00">mimic++/Reporter.hpp</text>
</a>
</g>
</g>
<!-- Node24&#45;&gt;Node25 -->
<g id="edge37_Node000024_Node000025" class="edge">
<title>Node24&#45;&gt;Node25</title>
<g id="a_edge37_Node000024_Node000025"><a xlink:title=" ">
<path fill="none" stroke="#63b8ff" d="M370.98,-331.03C411.63,-322.01 474.04,-308.17 518.12,-298.39"/>
<polygon fill="#63b8ff" stroke="#63b8ff" points="518.7,-301.84 527.71,-296.26 517.19,-295.01 518.7,-301.84"/>
</a>
</g>
</g>
<!-- Node28 -->
<g id="Node000028" class="node">
<title>Node28</title>
<g id="a_Node000028"><a xlink:title=" ">
<polygon fill="#e0e0e0" stroke="#999999" points="293.5,-295.5 256.5,-295.5 256.5,-276.25 293.5,-276.25 293.5,-295.5"/>
<text text-anchor="middle" x="275" y="-282" font-family="Helvetica,sans-Serif" font-size="10.00">array</text>
</a>
</g>
</g>
<!-- Node24&#45;&gt;Node28 -->
<g id="edge52_Node000024_Node000028" class="edge">
<title>Node24&#45;&gt;Node28</title>
<g id="a_edge52_Node000024_Node000028"><a xlink:title=" ">
<path fill="none" stroke="#63b8ff" d="M320.92,-331.33C313.16,-323.82 301.79,-312.81 292.3,-303.63"/>
<polygon fill="#63b8ff" stroke="#63b8ff" points="294.99,-301.35 285.37,-296.91 290.12,-306.38 294.99,-301.35"/>
</a>
</g>
</g>
<!-- Node29 -->
<g id="Node000029" class="node">
<title>Node29</title>
<g id="a_Node000029"><a xlink:title=" ">
<polygon fill="#e0e0e0" stroke="#999999" points="348.5,-295.5 311.5,-295.5 311.5,-276.25 348.5,-276.25 348.5,-295.5"/>
<text text-anchor="middle" x="330" y="-282" font-family="Helvetica,sans-Serif" font-size="10.00">span</text>
</a>
</g>
</g>
<!-- Node24&#45;&gt;Node29 -->
<g id="edge55_Node000024_Node000029" class="edge">
<title>Node24&#45;&gt;Node29</title>
<g id="a_edge55_Node000024_Node000029"><a xlink:title=" ">
<path fill="none" stroke="#63b8ff" d="M330,-331.33C330,-324.82 330,-315.67 330,-307.37"/>
<polygon fill="#63b8ff" stroke="#63b8ff" points="333.5,-307.37 330,-297.37 326.5,-307.37 333.5,-307.37"/>
</a>
</g>
</g>
<!-- Node25&#45;&gt;Node2 -->
<g id="edge41_Node000025_Node000002" class="edge">
<title>Node25&#45;&gt;Node2</title>
<g id="a_edge41_Node000025_Node000002"><a xlink:title=" ">
<path fill="none" stroke="#63b8ff" d="M596.97,-275.84C622.9,-267.16 662.31,-253.96 691.33,-244.24"/>
<polygon fill="#63b8ff" stroke="#63b8ff" points="692.09,-247.68 700.46,-241.18 689.87,-241.04 692.09,-247.68"/>
</a>
</g>
</g>
<!-- Node25&#45;&gt;Node3 -->
<g id="edge38_Node000025_Node000003" class="edge">
<title>Node25&#45;&gt;Node3</title>
<g id="a_edge38_Node000025_Node000003"><a xlink:title=" ">
<path fill="none" stroke="#63b8ff" d="M576.12,-276.08C582.29,-267.15 592.01,-252.87 600,-240.25 609.5,-225.24 619.77,-207.9 627.24,-195.08"/>
<polygon fill="#63b8ff" stroke="#63b8ff" points="630.25,-196.86 632.23,-186.46 624.19,-193.36 630.25,-196.86"/>
</a>
</g>
</g>
<!-- Node25&#45;&gt;Node4 -->
<g id="edge39_Node000025_Node000004" class="edge">
<title>Node25&#45;&gt;Node4</title>
<g id="a_edge39_Node000025_Node000004"><a xlink:title=" ">
<path fill="none" stroke="#63b8ff" d="M569.52,-276.01C568.38,-262.65 564.44,-237.21 551,-221 528.67,-194.07 499.22,-214.86 481,-185 462.38,-154.49 468.9,-110.89 475.1,-85.78"/>
<polygon fill="#63b8ff" stroke="#63b8ff" points="478.45,-86.81 477.7,-76.24 471.69,-84.97 478.45,-86.81"/>
</a>
</g>
</g>
<!-- Node25&#45;&gt;Node9 -->
<g id="edge43_Node000025_Node000009" class="edge">
<title>Node25&#45;&gt;Node9</title>
<g id="a_edge43_Node000025_Node000009"><a xlink:title=" ">
<path fill="none" stroke="#63b8ff" d="M513.9,-276.77C470.4,-269.61 408.96,-257.6 357,-240.25 247.14,-203.57 220.27,-189.41 121,-129.75 97.19,-115.44 72.01,-95.89 55.29,-82.2"/>
<polygon fill="#63b8ff" stroke="#63b8ff" points="57.59,-79.56 47.66,-75.86 53.12,-84.94 57.59,-79.56"/>
</a>
</g>
</g>
<!-- Node25&#45;&gt;Node13 -->
<g id="edge40_Node000025_Node000013" class="edge">
<title>Node25&#45;&gt;Node13</title>
<g id="a_edge40_Node000025_Node000013"><a xlink:title=" ">
<path fill="none" stroke="#63b8ff" d="M528.81,-275.82C495.45,-267.96 447.51,-255.47 407,-240.25 393.82,-235.3 300.47,-196.93 293,-185 284.02,-170.67 292.33,-152.35 301.36,-139"/>
<polygon fill="#63b8ff" stroke="#63b8ff" points="304.06,-141.24 307.24,-131.13 298.45,-137.05 304.06,-141.24"/>
</a>
</g>
</g>
<!-- Node25&#45;&gt;Node17 -->
<g id="edge42_Node000025_Node000017" class="edge">
<title>Node25&#45;&gt;Node17</title>
<g id="a_edge42_Node000025_Node000017"><a xlink:title=" ">
<path fill="none" stroke="#63b8ff" d="M545.48,-275.8C525.62,-267.88 497.36,-255.32 475,-240.25 454.79,-226.63 434.68,-207.17 421.44,-193.32"/>
<polygon fill="#63b8ff" stroke="#63b8ff" points="424.21,-191.16 414.82,-186.24 419.1,-195.94 424.21,-191.16"/>
</a>
</g>
</g>
<!-- Node25&#45;&gt;Node18 -->
<g id="edge45_Node000025_Node000018" class="edge">
<title>Node25&#45;&gt;Node18</title>
<g id="a_edge45_Node000025_Node000018"><a xlink:title=" ">
<path fill="none" stroke="#63b8ff" d="M541.16,-275.82C515.91,-267.57 478.45,-254.51 447,-240.25 414.32,-225.43 378.36,-204.94 355.28,-191.2"/>
<polygon fill="#63b8ff" stroke="#63b8ff" points="357.31,-188.33 346.93,-186.18 353.7,-194.33 357.31,-188.33"/>
</a>
</g>
</g>
<!-- Node25&#45;&gt;Node19 -->
<g id="edge47_Node000025_Node000019" class="edge">
<title>Node25&#45;&gt;Node19</title>
<g id="a_edge47_Node000025_Node000019"><a xlink:title=" ">
<path fill="none" stroke="#63b8ff" d="M626.32,-277.17C671.95,-270.09 737.52,-257.97 793,-240.25 812.95,-233.88 816.81,-229.37 836,-221 860.31,-210.39 887.93,-198.67 908.73,-189.9"/>
<polygon fill="#63b8ff" stroke="#63b8ff" points="909.97,-193.18 917.83,-186.07 907.26,-186.72 909.97,-193.18"/>
</a>
</g>
</g>
<!-- Node25&#45;&gt;Node20 -->
<g id="edge48_Node000025_Node000020" class="edge">
<title>Node25&#45;&gt;Node20</title>
<g id="a_edge48_Node000025_Node000020"><a xlink:title=" ">
<path fill="none" stroke="#63b8ff" d="M575.58,-276.06C582.95,-263.2 593.88,-238.89 584,-221 575.84,-206.23 560.52,-195.69 546.2,-188.58"/>
<polygon fill="#63b8ff" stroke="#63b8ff" points="547.99,-185.55 537.43,-184.61 545.1,-191.92 547.99,-185.55"/>
</a>
</g>
</g>
<!-- Node25&#45;&gt;Node23 -->
<g id="edge49_Node000025_Node000023" class="edge">
<title>Node25&#45;&gt;Node23</title>
<g id="a_edge49_Node000025_Node000023"><a xlink:title=" ">
<path fill="none" stroke="#63b8ff" d="M626.4,-279.72C679.6,-273.8 761.1,-261.97 829,-240.25 847.79,-234.24 850.7,-228.37 869,-221 887.9,-213.39 938.38,-197.22 972.23,-186.58"/>
<polygon fill="#63b8ff" stroke="#63b8ff" points="973.07,-189.99 981.56,-183.66 970.97,-183.31 973.07,-189.99"/>
</a>
</g>
</g>
<!-- Node26 -->
<g id="Node000026" class="node">
<title>Node26</title>
<g id="a_Node000026"><a xlink:title=" ">
<polygon fill="#e0e0e0" stroke="#999999" points="541.62,-240.25 484.38,-240.25 484.38,-221 541.62,-221 541.62,-240.25"/>
<text text-anchor="middle" x="513" y="-226.75" font-family="Helvetica,sans-Serif" font-size="10.00">exception</text>
</a>
</g>
</g>
<!-- Node25&#45;&gt;Node26 -->
<g id="edge44_Node000025_Node000026" class="edge">
<title>Node25&#45;&gt;Node26</title>
<g id="a_edge44_Node000025_Node000026"><a xlink:title=" ">
<path fill="none" stroke="#63b8ff" d="M560.33,-275.84C552.26,-268.3 540.53,-257.35 530.78,-248.23"/>
<polygon fill="#63b8ff" stroke="#63b8ff" points="533.33,-245.83 523.63,-241.56 528.55,-250.94 533.33,-245.83"/>
</a>
</g>
</g>
<!-- Node25&#45;&gt;Node27 -->
<g id="edge46_Node000025_Node000027" class="edge">
<title>Node25&#45;&gt;Node27</title>
<g id="a_edge46_Node000025_Node000027"><a xlink:title=" ">
<path fill="none" stroke="#63b8ff" d="M626.28,-277.48C685.59,-269.41 781.65,-255.59 864,-240.25 864.82,-240.1 865.65,-239.94 866.48,-239.78"/>
<polygon fill="#63b8ff" stroke="#63b8ff" points="866.88,-243.27 875.97,-237.83 865.47,-236.41 866.88,-243.27"/>
</a>
</g>
</g>
</g>
</svg>
