<?xml version="1.0" encoding="UTF-8" standalone="no"?>
<!DOCTYPE svg PUBLIC "-//W3C//DTD SVG 1.1//EN"
 "http://www.w3.org/Graphics/SVG/1.1/DTD/svg11.dtd">
<!-- Generated by graphviz version 11.0.0 (20240428.1522)
 -->
<!-- Title: mimic++/Call.hpp Pages: 1 -->
<svg width="728pt" height="359pt"
 viewBox="0.00 0.00 727.94 358.75" xmlns="http://www.w3.org/2000/svg" xmlns:xlink="http://www.w3.org/1999/xlink">
<g id="graph0" class="graph" transform="scale(1 1) rotate(0) translate(4 354.75)">
<title>mimic++/Call.hpp</title>
<!-- Node1 -->
<g id="Node000001" class="node">
<title>Node1</title>
<g id="a_Node000001"><a xlink:title=" ">
<polygon fill="#999999" stroke="#666666" points="136.88,-350.75 45.12,-350.75 45.12,-331.5 136.88,-331.5 136.88,-350.75"/>
<text text-anchor="middle" x="91" y="-337.25" font-family="Helvetica,sans-Serif" font-size="10.00">mimic++/Call.hpp</text>
</a>
</g>
</g>
<!-- Node2 -->
<g id="Node000002" class="node">
<title>Node2</title>
<g id="a_Node000002"><a xlink:href="../../d5/d8a/_expectation_8hpp.html" target="_top" xlink:title=" ">
<polygon fill="white" stroke="#666666" points="153.75,-240.25 28.25,-240.25 28.25,-221 153.75,-221 153.75,-240.25"/>
<text text-anchor="middle" x="91" y="-226.75" font-family="Helvetica,sans-Serif" font-size="10.00">mimic++/Expectation.hpp</text>
</a>
</g>
</g>
<!-- Node1&#45;&gt;Node2 -->
<g id="edge1_Node000001_Node000002" class="edge">
<title>Node1&#45;&gt;Node2</title>
<g id="a_edge1_Node000001_Node000002"><a xlink:title=" ">
<path fill="none" stroke="#63b8ff" d="M91,-319.78C91,-296.05 91,-257.89 91,-240.63"/>
<polygon fill="#63b8ff" stroke="#63b8ff" points="87.5,-319.73 91,-329.73 94.5,-319.73 87.5,-319.73"/>
</a>
</g>
</g>
<!-- Node5 -->
<g id="Node000005" class="node">
<title>Node5</title>
<g id="a_Node000005"><a xlink:href="../../d0/db9/mimic_09_09_8hpp.html" target="_top" xlink:title=" ">
<polygon fill="white" stroke="#666666" points="251.75,-19.25 138.25,-19.25 138.25,0 251.75,0 251.75,-19.25"/>
<text text-anchor="middle" x="195" y="-5.75" font-family="Helvetica,sans-Serif" font-size="10.00">mimic++/mimic++.hpp</text>
</a>
</g>
</g>
<!-- Node1&#45;&gt;Node5 -->
<g id="edge20_Node000001_Node000005" class="edge">
<title>Node1&#45;&gt;Node5</title>
<g id="a_edge20_Node000001_Node000005"><a xlink:title=" ">
<path fill="none" stroke="#63b8ff" d="M65.86,-324.93C38.93,-306.52 0,-272.79 0,-231.62 0,-231.62 0,-231.62 0,-119.12 0,-55.49 80.27,-28.85 137.81,-17.92"/>
<polygon fill="#63b8ff" stroke="#63b8ff" points="63.6,-327.63 73.88,-330.18 67.43,-321.78 63.6,-327.63"/>
</a>
</g>
</g>
<!-- Node7 -->
<g id="Node000007" class="node">
<title>Node7</title>
<g id="a_Node000007"><a xlink:href="../../da/dd9/_reporter_8hpp.html" target="_top" xlink:title=" ">
<polygon fill="white" stroke="#666666" points="346,-295.5 234,-295.5 234,-276.25 346,-276.25 346,-295.5"/>
<text text-anchor="middle" x="290" y="-282" font-family="Helvetica,sans-Serif" font-size="10.00">mimic++/Reporter.hpp</text>
</a>
</g>
</g>
<!-- Node1&#45;&gt;Node7 -->
<g id="edge12_Node000001_Node000007" class="edge">
<title>Node1&#45;&gt;Node7</title>
<g id="a_edge12_Node000001_Node000007"><a xlink:title=" ">
<path fill="none" stroke="#63b8ff" d="M135.58,-328.2C172.05,-318.44 222.86,-304.84 256.08,-295.95"/>
<polygon fill="#63b8ff" stroke="#63b8ff" points="134.98,-324.73 126.22,-330.7 136.78,-331.5 134.98,-324.73"/>
</a>
</g>
</g>
<!-- Node3 -->
<g id="Node000003" class="node">
<title>Node3</title>
<g id="a_Node000003"><a xlink:href="../../d2/d4f/_expectation_builder_8hpp.html" target="_top" xlink:title=" ">
<polygon fill="white" stroke="#666666" points="350.75,-129.75 195.25,-129.75 195.25,-110.5 350.75,-110.5 350.75,-129.75"/>
<text text-anchor="middle" x="273" y="-116.25" font-family="Helvetica,sans-Serif" font-size="10.00">mimic++/ExpectationBuilder.hpp</text>
</a>
</g>
</g>
<!-- Node2&#45;&gt;Node3 -->
<g id="edge2_Node000002_Node000003" class="edge">
<title>Node2&#45;&gt;Node3</title>
<g id="a_edge2_Node000002_Node000003"><a xlink:title=" ">
<path fill="none" stroke="#63b8ff" d="M165.23,-220.76C209.41,-213.78 259.42,-202.31 273,-185 285.46,-169.12 280.2,-143.53 276.12,-130.07"/>
<polygon fill="#63b8ff" stroke="#63b8ff" points="164.72,-217.29 155.36,-222.25 165.77,-224.22 164.72,-217.29"/>
</a>
</g>
</g>
<!-- Node4 -->
<g id="Node000004" class="node">
<title>Node4</title>
<g id="a_Node000004"><a xlink:href="../../d5/dc5/_mock_8hpp.html" target="_top" xlink:title=" ">
<polygon fill="white" stroke="#666666" points="244.62,-74.5 145.38,-74.5 145.38,-55.25 244.62,-55.25 244.62,-74.5"/>
<text text-anchor="middle" x="195" y="-61" font-family="Helvetica,sans-Serif" font-size="10.00">mimic++/Mock.hpp</text>
</a>
</g>
</g>
<!-- Node2&#45;&gt;Node4 -->
<g id="edge10_Node000002_Node000004" class="edge">
<title>Node2&#45;&gt;Node4</title>
<g id="a_edge10_Node000002_Node000004"><a xlink:title=" ">
<path fill="none" stroke="#63b8ff" d="M88.7,-209.47C88.05,-196.44 88.82,-179.42 95,-165.75 113.79,-124.16 158.06,-90.28 180.87,-74.86"/>
<polygon fill="#63b8ff" stroke="#63b8ff" points="85.21,-209.72 89.54,-219.39 92.18,-209.13 85.21,-209.72"/>
</a>
</g>
</g>
<!-- Node2&#45;&gt;Node5 -->
<g id="edge11_Node000002_Node000005" class="edge">
<title>Node2&#45;&gt;Node5</title>
<g id="a_edge11_Node000002_Node000005"><a xlink:title=" ">
<path fill="none" stroke="#63b8ff" d="M87.73,-209.63C86.63,-201.95 85.54,-193.09 85,-185 80.96,-124.66 88.16,-102.43 126,-55.25 138.76,-39.34 158.8,-27.28 174,-19.73"/>
<polygon fill="#63b8ff" stroke="#63b8ff" points="84.24,-209.93 89.22,-219.27 91.15,-208.86 84.24,-209.93"/>
</a>
</g>
</g>
<!-- Node6 -->
<g id="Node000006" class="node">
<title>Node6</title>
<g id="a_Node000006"><a xlink:href="../../d8/de5/_expectation_policies_8hpp.html" target="_top" xlink:title=" ">
<polygon fill="white" stroke="#666666" points="264,-185 104,-185 104,-165.75 264,-165.75 264,-185"/>
<text text-anchor="middle" x="184" y="-171.5" font-family="Helvetica,sans-Serif" font-size="10.00">mimic++/ExpectationPolicies.hpp</text>
</a>
</g>
</g>
<!-- Node2&#45;&gt;Node6 -->
<g id="edge6_Node000002_Node000006" class="edge">
<title>Node2&#45;&gt;Node6</title>
<g id="a_edge6_Node000002_Node000006"><a xlink:title=" ">
<path fill="none" stroke="#63b8ff" d="M116.38,-215.09C132.91,-205.63 153.96,-193.58 168.15,-185.45"/>
<polygon fill="#63b8ff" stroke="#63b8ff" points="115.03,-211.83 108.09,-219.84 118.51,-217.91 115.03,-211.83"/>
</a>
</g>
</g>
<!-- Node3&#45;&gt;Node4 -->
<g id="edge3_Node000003_Node000004" class="edge">
<title>Node3&#45;&gt;Node4</title>
<g id="a_edge3_Node000003_Node000004"><a xlink:title=" ">
<path fill="none" stroke="#63b8ff" d="M250.53,-103.78C236.85,-94.45 219.86,-82.85 208.3,-74.95"/>
<polygon fill="#63b8ff" stroke="#63b8ff" points="248.29,-106.49 258.52,-109.24 252.23,-100.71 248.29,-106.49"/>
</a>
</g>
</g>
<!-- Node3&#45;&gt;Node5 -->
<g id="edge5_Node000003_Node000005" class="edge">
<title>Node3&#45;&gt;Node5</title>
<g id="a_edge5_Node000003_Node000005"><a xlink:title=" ">
<path fill="none" stroke="#63b8ff" d="M270.32,-98.82C267.8,-85.5 262.99,-68.22 254,-55.25 243.32,-39.84 225.63,-27.49 212.4,-19.73"/>
<polygon fill="#63b8ff" stroke="#63b8ff" points="266.85,-99.28 271.87,-108.61 273.76,-98.18 266.85,-99.28"/>
</a>
</g>
</g>
<!-- Node4&#45;&gt;Node5 -->
<g id="edge4_Node000004_Node000005" class="edge">
<title>Node4&#45;&gt;Node5</title>
<g id="a_edge4_Node000004_Node000005"><a xlink:title=" ">
<path fill="none" stroke="#63b8ff" d="M195,-43.63C195,-35.34 195,-26.17 195,-19.61"/>
<polygon fill="#63b8ff" stroke="#63b8ff" points="191.5,-43.57 195,-53.57 198.5,-43.57 191.5,-43.57"/>
</a>
</g>
</g>
<!-- Node6&#45;&gt;Node3 -->
<g id="edge7_Node000006_Node000003" class="edge">
<title>Node6&#45;&gt;Node3</title>
<g id="a_edge7_Node000006_Node000003"><a xlink:title=" ">
<path fill="none" stroke="#63b8ff" d="M208.74,-159.57C224.49,-150.15 244.38,-138.25 257.83,-130.2"/>
<polygon fill="#63b8ff" stroke="#63b8ff" points="207.18,-156.43 200.4,-164.56 210.77,-162.43 207.18,-156.43"/>
</a>
</g>
</g>
<!-- Node6&#45;&gt;Node4 -->
<g id="edge8_Node000006_Node000004" class="edge">
<title>Node6&#45;&gt;Node4</title>
<g id="a_edge8_Node000006_Node000004"><a xlink:title=" ">
<path fill="none" stroke="#63b8ff" d="M183.77,-154.21C183.84,-141.6 184.32,-125.06 186,-110.5 187.45,-97.94 190.61,-83.65 192.77,-74.7"/>
<polygon fill="#63b8ff" stroke="#63b8ff" points="180.27,-154.16 183.81,-164.15 187.27,-154.14 180.27,-154.16"/>
</a>
</g>
</g>
<!-- Node6&#45;&gt;Node5 -->
<g id="edge9_Node000006_Node000005" class="edge">
<title>Node6&#45;&gt;Node5</title>
<g id="a_edge9_Node000006_Node000005"><a xlink:title=" ">
<path fill="none" stroke="#63b8ff" d="M167.67,-156.95C147.69,-133.41 118.54,-90.34 136,-55.25 144.07,-39.04 161.14,-27.15 174.86,-19.73"/>
<polygon fill="#63b8ff" stroke="#63b8ff" points="165,-159.21 174.26,-164.37 170.23,-154.57 165,-159.21"/>
</a>
</g>
</g>
<!-- Node7&#45;&gt;Node2 -->
<g id="edge13_Node000007_Node000002" class="edge">
<title>Node7&#45;&gt;Node2</title>
<g id="a_edge13_Node000007_Node000002"><a xlink:title=" ">
<path fill="none" stroke="#63b8ff" d="M245.42,-272.95C208.95,-263.19 158.14,-249.59 124.92,-240.7"/>
<polygon fill="#63b8ff" stroke="#63b8ff" points="244.22,-276.25 254.78,-275.45 246.02,-269.48 244.22,-276.25"/>
</a>
</g>
</g>
<!-- Node7&#45;&gt;Node5 -->
<g id="edge19_Node000007_Node000005" class="edge">
<title>Node7&#45;&gt;Node5</title>
<g id="a_edge19_Node000007_Node000005"><a xlink:title=" ">
<path fill="none" stroke="#63b8ff" d="M357.47,-281.58C467.09,-275.64 674.27,-261.7 700,-240.25 722.75,-221.28 719,-205.99 719,-176.38 719,-176.38 719,-176.38 719,-119.12 719,-24.6 387.88,-11.79 252.07,-10.52"/>
<polygon fill="#63b8ff" stroke="#63b8ff" points="357.52,-278.07 347.72,-282.1 357.9,-285.06 357.52,-278.07"/>
</a>
</g>
</g>
<!-- Node8 -->
<g id="Node000008" class="node">
<title>Node8</title>
<g id="a_Node000008"><a xlink:href="../../d8/de4/_sequence_8hpp.html" target="_top" xlink:title=" ">
<polygon fill="white" stroke="#666666" points="438.38,-185 319.62,-185 319.62,-165.75 438.38,-165.75 438.38,-185"/>
<text text-anchor="middle" x="379" y="-171.5" font-family="Helvetica,sans-Serif" font-size="10.00">mimic++/Sequence.hpp</text>
</a>
</g>
</g>
<!-- Node7&#45;&gt;Node8 -->
<g id="edge14_Node000007_Node000008" class="edge">
<title>Node7&#45;&gt;Node8</title>
<g id="a_edge14_Node000007_Node000008"><a xlink:title=" ">
<path fill="none" stroke="#63b8ff" d="M246.35,-272.12C215.96,-260.98 183.73,-243.13 201,-221 215.6,-202.29 273.5,-190.24 319.36,-183.44"/>
<polygon fill="#63b8ff" stroke="#63b8ff" points="244.91,-275.33 255.51,-275.28 247.2,-268.71 244.91,-275.33"/>
</a>
</g>
</g>
<!-- Node9 -->
<g id="Node000009" class="node">
<title>Node9</title>
<g id="a_Node000009"><a xlink:href="../../d9/d42/_boost_test_8hpp.html" target="_top" xlink:title=" ">
<polygon fill="white" stroke="#666666" points="370.38,-240.25 209.62,-240.25 209.62,-221 370.38,-221 370.38,-240.25"/>
<text text-anchor="middle" x="290" y="-226.75" font-family="Helvetica,sans-Serif" font-size="10.00">mimic++/adapters/BoostTest.hpp</text>
</a>
</g>
</g>
<!-- Node7&#45;&gt;Node9 -->
<g id="edge16_Node000007_Node000009" class="edge">
<title>Node7&#45;&gt;Node9</title>
<g id="a_edge16_Node000007_Node000009"><a xlink:title=" ">
<path fill="none" stroke="#63b8ff" d="M290,-264.63C290,-256.34 290,-247.17 290,-240.61"/>
<polygon fill="#63b8ff" stroke="#63b8ff" points="286.5,-264.57 290,-274.57 293.5,-264.57 286.5,-264.57"/>
</a>
</g>
</g>
<!-- Node10 -->
<g id="Node000010" class="node">
<title>Node10</title>
<g id="a_Node000010"><a xlink:href="../../d3/d04/_catch2_8hpp.html" target="_top" xlink:title=" ">
<polygon fill="white" stroke="#666666" points="535.25,-240.25 388.75,-240.25 388.75,-221 535.25,-221 535.25,-240.25"/>
<text text-anchor="middle" x="462" y="-226.75" font-family="Helvetica,sans-Serif" font-size="10.00">mimic++/adapters/Catch2.hpp</text>
</a>
</g>
</g>
<!-- Node7&#45;&gt;Node10 -->
<g id="edge17_Node000007_Node000010" class="edge">
<title>Node7&#45;&gt;Node10</title>
<g id="a_edge17_Node000007_Node000010"><a xlink:title=" ">
<path fill="none" stroke="#63b8ff" d="M330.17,-272.44C361.56,-262.72 404.46,-249.44 432.68,-240.7"/>
<polygon fill="#63b8ff" stroke="#63b8ff" points="329.14,-269.09 320.62,-275.39 331.21,-275.78 329.14,-269.09"/>
</a>
</g>
</g>
<!-- Node11 -->
<g id="Node000011" class="node">
<title>Node11</title>
<g id="a_Node000011"><a xlink:href="../../d5/db1/gtest_8hpp.html" target="_top" xlink:title=" ">
<polygon fill="white" stroke="#666666" points="690.75,-240.25 553.25,-240.25 553.25,-221 690.75,-221 690.75,-240.25"/>
<text text-anchor="middle" x="622" y="-226.75" font-family="Helvetica,sans-Serif" font-size="10.00">mimic++/adapters/gtest.hpp</text>
</a>
</g>
</g>
<!-- Node7&#45;&gt;Node11 -->
<g id="edge18_Node000007_Node000011" class="edge">
<title>Node7&#45;&gt;Node11</title>
<g id="a_edge18_Node000007_Node000011"><a xlink:title=" ">
<path fill="none" stroke="#63b8ff" d="M357.39,-274.07C418.48,-264.27 507.54,-249.98 565.13,-240.75"/>
<polygon fill="#63b8ff" stroke="#63b8ff" points="357.13,-270.56 347.81,-275.6 358.24,-277.47 357.13,-270.56"/>
</a>
</g>
</g>
<!-- Node8&#45;&gt;Node5 -->
<g id="edge15_Node000008_Node000005" class="edge">
<title>Node8&#45;&gt;Node5</title>
<g id="a_edge15_Node000008_Node000005"><a xlink:title=" ">
<path fill="none" stroke="#63b8ff" d="M376.76,-154.25C374.42,-140.76 369.65,-123.21 360,-110.5 324.05,-63.17 258.63,-33.46 221.89,-19.69"/>
<polygon fill="#63b8ff" stroke="#63b8ff" points="373.3,-154.73 378.14,-164.15 380.23,-153.77 373.3,-154.73"/>
</a>
</g>
</g>
</g>
</svg>
