<?xml version="1.0" encoding="UTF-8" standalone="no"?>
<!DOCTYPE svg PUBLIC "-//W3C//DTD SVG 1.1//EN"
 "http://www.w3.org/Graphics/SVG/1.1/DTD/svg11.dtd">
<!-- Generated by graphviz version 12.1.1 (20240910.0053)
 -->
<!-- Title: mimic++/Call.hpp Pages: 1 -->
<svg width="861pt" height="525pt"
 viewBox="0.00 0.00 861.15 524.50" xmlns="http://www.w3.org/2000/svg" xmlns:xlink="http://www.w3.org/1999/xlink">
<g id="graph0" class="graph" transform="scale(1 1) rotate(0) translate(4 520.5)">
<title>mimic++/Call.hpp</title>
<!-- Node1 -->
<g id="Node000001" class="node">
<title>Node1</title>
<g id="a_Node000001"><a xlink:title=" ">
<polygon fill="#999999" stroke="#666666" points="704.03,-516.5 612.28,-516.5 612.28,-497.25 704.03,-497.25 704.03,-516.5"/>
<text text-anchor="middle" x="658.15" y="-503" font-family="Helvetica,sans-Serif" font-size="10.00">mimic++/Call.hpp</text>
</a>
</g>
</g>
<!-- Node2 -->
<g id="Node000002" class="node">
<title>Node2</title>
<g id="a_Node000002"><a xlink:href="../../d5/d8a/_expectation_8hpp.html" target="_top" xlink:title=" ">
<polygon fill="white" stroke="#666666" points="127.9,-240.25 2.4,-240.25 2.4,-221 127.9,-221 127.9,-240.25"/>
<text text-anchor="middle" x="65.15" y="-226.75" font-family="Helvetica,sans-Serif" font-size="10.00">mimic++/Expectation.hpp</text>
</a>
</g>
</g>
<!-- Node1&#45;&gt;Node2 -->
<g id="edge1_Node000001_Node000002" class="edge">
<title>Node1&#45;&gt;Node2</title>
<g id="a_edge1_Node000001_Node000002"><a xlink:title=" ">
<path fill="none" stroke="#63b8ff" d="M600.84,-502.02C445.35,-490.82 27.15,-455.29 27.15,-397.38 27.15,-397.38 27.15,-397.38 27.15,-340.12 27.15,-301.21 49.2,-258.62 59.71,-240.54"/>
<polygon fill="#63b8ff" stroke="#63b8ff" points="600.28,-505.49 610.5,-502.71 600.77,-498.51 600.28,-505.49"/>
</a>
</g>
</g>
<!-- Node6 -->
<g id="Node000006" class="node">
<title>Node6</title>
<g id="a_Node000006"><a xlink:href="../../d0/db9/mimic_09_09_8hpp.html" target="_top" xlink:title=" ">
<polygon fill="white" stroke="#666666" points="427.9,-19.25 314.4,-19.25 314.4,0 427.9,0 427.9,-19.25"/>
<text text-anchor="middle" x="371.15" y="-5.75" font-family="Helvetica,sans-Serif" font-size="10.00">mimic++/mimic++.hpp</text>
</a>
</g>
</g>
<!-- Node1&#45;&gt;Node6 -->
<g id="edge30_Node000001_Node000006" class="edge">
<title>Node1&#45;&gt;Node6</title>
<g id="a_edge30_Node000001_Node000006"><a xlink:title=" ">
<path fill="none" stroke="#63b8ff" d="M715.54,-498.54C773.06,-487.59 853.15,-460.94 853.15,-397.38 853.15,-397.38 853.15,-397.38 853.15,-119.12 853.15,-32.92 556.01,-15.2 428.34,-11.56"/>
<polygon fill="#63b8ff" stroke="#63b8ff" points="715.09,-495.06 705.85,-500.26 716.31,-501.96 715.09,-495.06"/>
</a>
</g>
</g>
<!-- Node8 -->
<g id="Node000008" class="node">
<title>Node8</title>
<g id="a_Node000008"><a xlink:href="../../da/dd9/_reporter_8hpp.html" target="_top" xlink:title=" ">
<polygon fill="white" stroke="#666666" points="570.15,-406 458.15,-406 458.15,-386.75 570.15,-386.75 570.15,-406"/>
<text text-anchor="middle" x="514.15" y="-392.5" font-family="Helvetica,sans-Serif" font-size="10.00">mimic++/Reporter.hpp</text>
</a>
</g>
</g>
<!-- Node1&#45;&gt;Node8 -->
<g id="edge13_Node000001_Node000008" class="edge">
<title>Node1&#45;&gt;Node8</title>
<g id="a_edge13_Node000001_Node000008"><a xlink:title=" ">
<path fill="none" stroke="#63b8ff" d="M637.41,-490.25C606.83,-467.2 550.61,-424.84 526.1,-406.38"/>
<polygon fill="#63b8ff" stroke="#63b8ff" points="635.07,-492.86 645.16,-496.09 639.28,-487.27 635.07,-492.86"/>
</a>
</g>
</g>
<!-- Node14 -->
<g id="Node000014" class="node">
<title>Node14</title>
<g id="a_Node000014"><a xlink:href="../../d0/d3b/_reports_8hpp.html" target="_top" xlink:title=" ">
<polygon fill="white" stroke="#666666" points="729.65,-461.25 620.65,-461.25 620.65,-442 729.65,-442 729.65,-461.25"/>
<text text-anchor="middle" x="675.15" y="-447.75" font-family="Helvetica,sans-Serif" font-size="10.00">mimic++/Reports.hpp</text>
</a>
</g>
</g>
<!-- Node1&#45;&gt;Node14 -->
<g id="edge26_Node000001_Node000014" class="edge">
<title>Node1&#45;&gt;Node14</title>
<g id="a_edge26_Node000001_Node000014"><a xlink:title=" ">
<path fill="none" stroke="#63b8ff" d="M664.43,-486.21C667.12,-477.77 670.14,-468.33 672.28,-461.61"/>
<polygon fill="#63b8ff" stroke="#63b8ff" points="661.13,-485.05 661.42,-495.64 667.79,-487.18 661.13,-485.05"/>
</a>
</g>
</g>
<!-- Node3 -->
<g id="Node000003" class="node">
<title>Node3</title>
<g id="a_Node000003"><a xlink:href="../../d2/d4f/_expectation_builder_8hpp.html" target="_top" xlink:title=" ">
<polygon fill="white" stroke="#666666" points="342.9,-129.75 187.4,-129.75 187.4,-110.5 342.9,-110.5 342.9,-129.75"/>
<text text-anchor="middle" x="265.15" y="-116.25" font-family="Helvetica,sans-Serif" font-size="10.00">mimic++/ExpectationBuilder.hpp</text>
</a>
</g>
</g>
<!-- Node2&#45;&gt;Node3 -->
<g id="edge2_Node000002_Node000003" class="edge">
<title>Node2&#45;&gt;Node3</title>
<g id="a_edge2_Node000002_Node000003"><a xlink:title=" ">
<path fill="none" stroke="#63b8ff" d="M127.99,-217.8C154.18,-210.96 184.05,-200.53 208.15,-185 231.14,-170.19 250.53,-143.67 259.62,-129.93"/>
<polygon fill="#63b8ff" stroke="#63b8ff" points="127.35,-214.35 118.49,-220.16 129.03,-221.15 127.35,-214.35"/>
</a>
</g>
</g>
<!-- Node4 -->
<g id="Node000004" class="node">
<title>Node4</title>
<g id="a_Node000004"><a xlink:href="../../d5/dc5/_mock_8hpp.html" target="_top" xlink:title=" ">
<polygon fill="white" stroke="#666666" points="130.78,-74.5 31.53,-74.5 31.53,-55.25 130.78,-55.25 130.78,-74.5"/>
<text text-anchor="middle" x="81.15" y="-61" font-family="Helvetica,sans-Serif" font-size="10.00">mimic++/Mock.hpp</text>
</a>
</g>
</g>
<!-- Node2&#45;&gt;Node4 -->
<g id="edge11_Node000002_Node000004" class="edge">
<title>Node2&#45;&gt;Node4</title>
<g id="a_edge11_Node000002_Node000004"><a xlink:title=" ">
<path fill="none" stroke="#63b8ff" d="M47.08,-212.22C40.4,-204.57 33.63,-195.06 30.15,-185 27.36,-176.91 28.15,-174.07 30.15,-165.75 38.85,-129.6 62.96,-91.79 74.64,-74.93"/>
<polygon fill="#63b8ff" stroke="#63b8ff" points="44.48,-214.56 53.89,-219.42 49.56,-209.75 44.48,-214.56"/>
</a>
</g>
</g>
<!-- Node2&#45;&gt;Node6 -->
<g id="edge12_Node000002_Node000006" class="edge">
<title>Node2&#45;&gt;Node6</title>
<g id="a_edge12_Node000002_Node000006"><a xlink:title=" ">
<path fill="none" stroke="#63b8ff" d="M44.33,-212.91C36.47,-205.31 28.41,-195.65 24.15,-185 2.73,-131.45 -15.96,-98.54 22.15,-55.25 41.1,-33.73 219.97,-19.77 314,-13.86"/>
<polygon fill="#63b8ff" stroke="#63b8ff" points="41.98,-215.5 51.77,-219.54 46.63,-210.27 41.98,-215.5"/>
</a>
</g>
</g>
<!-- Node7 -->
<g id="Node000007" class="node">
<title>Node7</title>
<g id="a_Node000007"><a xlink:href="../../d8/de5/_expectation_policies_8hpp.html" target="_top" xlink:title=" ">
<polygon fill="white" stroke="#666666" points="199.15,-185 39.15,-185 39.15,-165.75 199.15,-165.75 199.15,-185"/>
<text text-anchor="middle" x="119.15" y="-171.5" font-family="Helvetica,sans-Serif" font-size="10.00">mimic++/ExpectationPolicies.hpp</text>
</a>
</g>
</g>
<!-- Node2&#45;&gt;Node7 -->
<g id="edge7_Node000002_Node000007" class="edge">
<title>Node2&#45;&gt;Node7</title>
<g id="a_edge7_Node000002_Node000007"><a xlink:title=" ">
<path fill="none" stroke="#63b8ff" d="M82.19,-212.82C91.42,-203.73 102.45,-192.85 110.04,-185.36"/>
<polygon fill="#63b8ff" stroke="#63b8ff" points="79.81,-210.26 75.15,-219.77 84.72,-215.24 79.81,-210.26"/>
</a>
</g>
</g>
<!-- Node3&#45;&gt;Node4 -->
<g id="edge3_Node000003_Node000004" class="edge">
<title>Node3&#45;&gt;Node4</title>
<g id="a_edge3_Node000003_Node000004"><a xlink:title=" ">
<path fill="none" stroke="#63b8ff" d="M223.06,-106.94C189.4,-97.2 142.97,-83.77 112.52,-74.95"/>
<polygon fill="#63b8ff" stroke="#63b8ff" points="221.91,-110.25 232.48,-109.67 223.85,-103.53 221.91,-110.25"/>
</a>
</g>
</g>
<!-- Node3&#45;&gt;Node6 -->
<g id="edge6_Node000003_Node000006" class="edge">
<title>Node3&#45;&gt;Node6</title>
<g id="a_edge6_Node000003_Node000006"><a xlink:title=" ">
<path fill="none" stroke="#63b8ff" d="M281.61,-102.28C304.36,-78.99 344.63,-37.77 362.36,-19.63"/>
<polygon fill="#63b8ff" stroke="#63b8ff" points="279.37,-99.56 274.88,-109.16 284.38,-104.46 279.37,-99.56"/>
</a>
</g>
</g>
<!-- Node5 -->
<g id="Node000005" class="node">
<title>Node5</title>
<g id="a_Node000005"><a xlink:href="../../d9/dc3/_interface_mock_8hpp.html" target="_top" xlink:title=" ">
<polygon fill="white" stroke="#666666" points="149.9,-19.25 12.4,-19.25 12.4,0 149.9,0 149.9,-19.25"/>
<text text-anchor="middle" x="81.15" y="-5.75" font-family="Helvetica,sans-Serif" font-size="10.00">mimic++/InterfaceMock.hpp</text>
</a>
</g>
</g>
<!-- Node4&#45;&gt;Node5 -->
<g id="edge4_Node000004_Node000005" class="edge">
<title>Node4&#45;&gt;Node5</title>
<g id="a_edge4_Node000004_Node000005"><a xlink:title=" ">
<path fill="none" stroke="#63b8ff" d="M81.15,-43.63C81.15,-35.34 81.15,-26.17 81.15,-19.61"/>
<polygon fill="#63b8ff" stroke="#63b8ff" points="77.65,-43.57 81.15,-53.57 84.65,-43.57 77.65,-43.57"/>
</a>
</g>
</g>
<!-- Node4&#45;&gt;Node6 -->
<g id="edge5_Node000004_Node000006" class="edge">
<title>Node4&#45;&gt;Node6</title>
<g id="a_edge5_Node000004_Node000006"><a xlink:title=" ">
<path fill="none" stroke="#63b8ff" d="M141.7,-52.76C195.14,-42.94 272.07,-28.82 321.83,-19.68"/>
<polygon fill="#63b8ff" stroke="#63b8ff" points="141.37,-49.26 132.16,-54.51 142.63,-56.14 141.37,-49.26"/>
</a>
</g>
</g>
<!-- Node7&#45;&gt;Node3 -->
<g id="edge8_Node000007_Node000003" class="edge">
<title>Node7&#45;&gt;Node3</title>
<g id="a_edge8_Node000007_Node000003"><a xlink:title=" ">
<path fill="none" stroke="#63b8ff" d="M154.66,-161.42C181.17,-151.75 216.73,-138.79 240.26,-130.2"/>
<polygon fill="#63b8ff" stroke="#63b8ff" points="153.54,-158.11 145.34,-164.82 155.93,-164.68 153.54,-158.11"/>
</a>
</g>
</g>
<!-- Node7&#45;&gt;Node4 -->
<g id="edge9_Node000007_Node000004" class="edge">
<title>Node7&#45;&gt;Node4</title>
<g id="a_edge9_Node000007_Node000004"><a xlink:title=" ">
<path fill="none" stroke="#63b8ff" d="M112.25,-154.68C103.96,-131.01 90.41,-92.3 84.3,-74.88"/>
<polygon fill="#63b8ff" stroke="#63b8ff" points="108.93,-155.79 115.54,-164.07 115.54,-153.47 108.93,-155.79"/>
</a>
</g>
</g>
<!-- Node7&#45;&gt;Node6 -->
<g id="edge10_Node000007_Node000006" class="edge">
<title>Node7&#45;&gt;Node6</title>
<g id="a_edge10_Node000007_Node000006"><a xlink:title=" ">
<path fill="none" stroke="#63b8ff" d="M132.66,-156.66C143.79,-142.88 160.57,-123.9 178.15,-110.5 233.66,-68.19 309.73,-34.87 347.66,-19.65"/>
<polygon fill="#63b8ff" stroke="#63b8ff" points="129.97,-154.41 126.55,-164.43 135.48,-158.73 129.97,-154.41"/>
</a>
</g>
</g>
<!-- Node8&#45;&gt;Node2 -->
<g id="edge14_Node000008_Node000002" class="edge">
<title>Node8&#45;&gt;Node2</title>
<g id="a_edge14_Node000008_Node000002"><a xlink:title=" ">
<path fill="none" stroke="#63b8ff" d="M446.52,-392.82C332.03,-387.84 109.91,-375.13 84.15,-350.75 53.13,-321.38 59.48,-263.17 63.34,-240.74"/>
<polygon fill="#63b8ff" stroke="#63b8ff" points="446.27,-396.31 456.41,-393.24 446.56,-389.31 446.27,-396.31"/>
</a>
</g>
</g>
<!-- Node8&#45;&gt;Node6 -->
<g id="edge25_Node000008_Node000006" class="edge">
<title>Node8&#45;&gt;Node6</title>
<g id="a_edge25_Node000008_Node000006"><a xlink:title=" ">
<path fill="none" stroke="#63b8ff" d="M581.76,-395.37C659.69,-391.39 777.15,-371.38 777.15,-286.88 777.15,-286.88 777.15,-286.88 777.15,-119.12 777.15,-47.72 539.77,-22.07 428.03,-13.96"/>
<polygon fill="#63b8ff" stroke="#63b8ff" points="581.93,-391.86 572.08,-395.79 582.22,-398.86 581.93,-391.86"/>
</a>
</g>
</g>
<!-- Node9 -->
<g id="Node000009" class="node">
<title>Node9</title>
<g id="a_Node000009"><a xlink:href="../../d8/de4/_sequence_8hpp.html" target="_top" xlink:title=" ">
<polygon fill="white" stroke="#666666" points="211.53,-350.75 92.78,-350.75 92.78,-331.5 211.53,-331.5 211.53,-350.75"/>
<text text-anchor="middle" x="152.15" y="-337.25" font-family="Helvetica,sans-Serif" font-size="10.00">mimic++/Sequence.hpp</text>
</a>
</g>
</g>
<!-- Node8&#45;&gt;Node9 -->
<g id="edge15_Node000008_Node000009" class="edge">
<title>Node8&#45;&gt;Node9</title>
<g id="a_edge15_Node000008_Node000009"><a xlink:title=" ">
<path fill="none" stroke="#63b8ff" d="M446.64,-385.44C379.14,-375.51 276.33,-360.39 211.76,-350.89"/>
<polygon fill="#63b8ff" stroke="#63b8ff" points="446.09,-388.9 456.49,-386.89 447.11,-381.97 446.09,-388.9"/>
</a>
</g>
</g>
<!-- Node11 -->
<g id="Node000011" class="node">
<title>Node11</title>
<g id="a_Node000011"><a xlink:href="../../d9/d42/_boost_test_8hpp.html" target="_top" xlink:title=" ">
<polygon fill="white" stroke="#666666" points="390.53,-350.75 229.78,-350.75 229.78,-331.5 390.53,-331.5 390.53,-350.75"/>
<text text-anchor="middle" x="310.15" y="-337.25" font-family="Helvetica,sans-Serif" font-size="10.00">mimic++/adapters/BoostTest.hpp</text>
</a>
</g>
</g>
<!-- Node8&#45;&gt;Node11 -->
<g id="edge22_Node000008_Node000011" class="edge">
<title>Node8&#45;&gt;Node11</title>
<g id="a_edge22_Node000008_Node000011"><a xlink:title=" ">
<path fill="none" stroke="#63b8ff" d="M468.45,-383.45C431.06,-373.69 378.98,-360.09 344.93,-351.2"/>
<polygon fill="#63b8ff" stroke="#63b8ff" points="467.52,-386.82 478.08,-385.96 469.29,-380.05 467.52,-386.82"/>
</a>
</g>
</g>
<!-- Node12 -->
<g id="Node000012" class="node">
<title>Node12</title>
<g id="a_Node000012"><a xlink:href="../../d3/d04/_catch2_8hpp.html" target="_top" xlink:title=" ">
<polygon fill="white" stroke="#666666" points="555.4,-350.75 408.9,-350.75 408.9,-331.5 555.4,-331.5 555.4,-350.75"/>
<text text-anchor="middle" x="482.15" y="-337.25" font-family="Helvetica,sans-Serif" font-size="10.00">mimic++/adapters/Catch2.hpp</text>
</a>
</g>
</g>
<!-- Node8&#45;&gt;Node12 -->
<g id="edge23_Node000008_Node000012" class="edge">
<title>Node8&#45;&gt;Node12</title>
<g id="a_edge23_Node000008_Node000012"><a xlink:title=" ">
<path fill="none" stroke="#63b8ff" d="M503.03,-376.87C497.79,-368.14 491.77,-358.14 487.55,-351.11"/>
<polygon fill="#63b8ff" stroke="#63b8ff" points="499.94,-378.52 508.09,-385.28 505.94,-374.91 499.94,-378.52"/>
</a>
</g>
</g>
<!-- Node13 -->
<g id="Node000013" class="node">
<title>Node13</title>
<g id="a_Node000013"><a xlink:href="../../d5/db1/gtest_8hpp.html" target="_top" xlink:title=" ">
<polygon fill="white" stroke="#666666" points="710.9,-350.75 573.4,-350.75 573.4,-331.5 710.9,-331.5 710.9,-350.75"/>
<text text-anchor="middle" x="642.15" y="-337.25" font-family="Helvetica,sans-Serif" font-size="10.00">mimic++/adapters/gtest.hpp</text>
</a>
</g>
</g>
<!-- Node8&#45;&gt;Node13 -->
<g id="edge24_Node000008_Node000013" class="edge">
<title>Node8&#45;&gt;Node13</title>
<g id="a_edge24_Node000008_Node000013"><a xlink:title=" ">
<path fill="none" stroke="#63b8ff" d="M546.22,-382.03C569.36,-372.41 599.98,-359.67 620.33,-351.2"/>
<polygon fill="#63b8ff" stroke="#63b8ff" points="545.15,-378.69 537.26,-385.76 547.84,-385.15 545.15,-378.69"/>
</a>
</g>
</g>
<!-- Node9&#45;&gt;Node3 -->
<g id="edge20_Node000009_Node000003" class="edge">
<title>Node9&#45;&gt;Node3</title>
<g id="a_edge20_Node000009_Node000003"><a xlink:title=" ">
<path fill="none" stroke="#63b8ff" d="M162.27,-321.01C177.7,-291.78 207.99,-234.19 233.15,-185 243.09,-165.57 254.49,-142.66 260.64,-130.25"/>
<polygon fill="#63b8ff" stroke="#63b8ff" points="159.24,-319.25 157.66,-329.72 165.43,-322.52 159.24,-319.25"/>
</a>
</g>
</g>
<!-- Node9&#45;&gt;Node6 -->
<g id="edge21_Node000009_Node000006" class="edge">
<title>Node9&#45;&gt;Node6</title>
<g id="a_edge21_Node000009_Node000006"><a xlink:title=" ">
<path fill="none" stroke="#63b8ff" d="M222.93,-329.61C295.96,-318.47 400.22,-301.67 407.15,-295.5 429.27,-275.8 426.15,-261.24 426.15,-231.62 426.15,-231.62 426.15,-231.62 426.15,-119.12 426.15,-78.37 394.89,-37.4 379.51,-19.7"/>
<polygon fill="#63b8ff" stroke="#63b8ff" points="222.81,-326.09 213.44,-331.05 223.86,-333.01 222.81,-326.09"/>
</a>
</g>
</g>
<!-- Node10 -->
<g id="Node000010" class="node">
<title>Node10</title>
<g id="a_Node000010"><a xlink:href="../../d6/d17/_control_policy_8hpp.html" target="_top" xlink:title=" ">
<polygon fill="white" stroke="#666666" points="398.28,-295.5 266.03,-295.5 266.03,-276.25 398.28,-276.25 398.28,-295.5"/>
<text text-anchor="middle" x="332.15" y="-282" font-family="Helvetica,sans-Serif" font-size="10.00">mimic++/ControlPolicy.hpp</text>
</a>
</g>
</g>
<!-- Node9&#45;&gt;Node10 -->
<g id="edge16_Node000009_Node000010" class="edge">
<title>Node9&#45;&gt;Node10</title>
<g id="a_edge16_Node000009_Node000010"><a xlink:title=" ">
<path fill="none" stroke="#63b8ff" d="M193.33,-327.94C226.26,-318.2 271.68,-304.77 301.47,-295.95"/>
<polygon fill="#63b8ff" stroke="#63b8ff" points="192.73,-324.47 184.14,-330.66 194.72,-331.18 192.73,-324.47"/>
</a>
</g>
</g>
<!-- Node10&#45;&gt;Node2 -->
<g id="edge17_Node000010_Node000002" class="edge">
<title>Node10&#45;&gt;Node2</title>
<g id="a_edge17_Node000010_Node000002"><a xlink:title=" ">
<path fill="none" stroke="#63b8ff" d="M275.47,-273.57C226.32,-263.77 156.09,-249.76 110.56,-240.68"/>
<polygon fill="#63b8ff" stroke="#63b8ff" points="274.58,-276.96 285.07,-275.49 275.95,-270.1 274.58,-276.96"/>
</a>
</g>
</g>
<!-- Node10&#45;&gt;Node3 -->
<g id="edge18_Node000010_Node000003" class="edge">
<title>Node10&#45;&gt;Node3</title>
<g id="a_edge18_Node000010_Node000003"><a xlink:title=" ">
<path fill="none" stroke="#63b8ff" d="M324.29,-265.66C309.76,-230.15 279.25,-155.57 268.77,-129.97"/>
<polygon fill="#63b8ff" stroke="#63b8ff" points="320.95,-266.74 327.98,-274.67 327.43,-264.09 320.95,-266.74"/>
</a>
</g>
</g>
<!-- Node10&#45;&gt;Node6 -->
<g id="edge19_Node000010_Node000006" class="edge">
<title>Node10&#45;&gt;Node6</title>
<g id="a_edge19_Node000010_Node000006"><a xlink:title=" ">
<path fill="none" stroke="#63b8ff" d="M343.37,-266.12C354.89,-245.05 371.15,-209.46 371.15,-176.38 371.15,-176.38 371.15,-176.38 371.15,-119.12 371.15,-82.2 371.15,-38.22 371.15,-19.63"/>
<polygon fill="#63b8ff" stroke="#63b8ff" points="340.41,-264.25 338.49,-274.66 346.49,-267.72 340.41,-264.25"/>
</a>
</g>
</g>
<!-- Node14&#45;&gt;Node6 -->
<g id="edge29_Node000014_Node000006" class="edge">
<title>Node14&#45;&gt;Node6</title>
<g id="a_edge29_Node000014_Node000006"><a xlink:title=" ">
<path fill="none" stroke="#63b8ff" d="M717.55,-437.77C758.76,-422.34 815.15,-392.09 815.15,-342.12 815.15,-342.12 815.15,-342.12 815.15,-119.12 815.15,-40.37 548.21,-18.51 428.29,-12.67"/>
<polygon fill="#63b8ff" stroke="#63b8ff" points="716.59,-434.39 708.35,-441.05 718.94,-440.99 716.59,-434.39"/>
</a>
</g>
</g>
<!-- Node14&#45;&gt;Node8 -->
<g id="edge28_Node000014_Node000008" class="edge">
<title>Node14&#45;&gt;Node8</title>
<g id="a_edge28_Node000014_Node000008"><a xlink:title=" ">
<path fill="none" stroke="#63b8ff" d="M637.16,-438.06C607.81,-428.35 567.9,-415.15 541.6,-406.45"/>
<polygon fill="#63b8ff" stroke="#63b8ff" points="635.81,-441.3 646.4,-441.12 638.01,-434.65 635.81,-441.3"/>
</a>
</g>
</g>
<!-- Node14&#45;&gt;Node10 -->
<g id="edge27_Node000014_Node000010" class="edge">
<title>Node14&#45;&gt;Node10</title>
<g id="a_edge27_Node000014_Node000010"><a xlink:title=" ">
<path fill="none" stroke="#63b8ff" d="M691.7,-433.22C713.63,-408.03 746.63,-361.2 720.15,-331.5 699.17,-307.97 503.85,-295.07 398.61,-289.78"/>
<polygon fill="#63b8ff" stroke="#63b8ff" points="689.12,-430.85 685,-440.61 694.31,-435.55 689.12,-430.85"/>
</a>
</g>
</g>
</g>
</svg>
