<?xml version="1.0" encoding="UTF-8" standalone="no"?>
<!DOCTYPE svg PUBLIC "-//W3C//DTD SVG 1.1//EN"
 "http://www.w3.org/Graphics/SVG/1.1/DTD/svg11.dtd">
<!-- Generated by graphviz version 12.1.1 (20240910.0053)
 -->
<!-- Title: mimic++/Call.hpp Pages: 1 -->
<!--zoomable 525 -->

<svg id="main" version="1.1" xmlns="http://www.w3.org/2000/svg" xmlns:xlink="http://www.w3.org/1999/xlink" xml:space="preserve" onload="init(evt)">

<style type="text/css"><![CDATA[
.node, .edge {opacity: 0.7;}
.node.selected, .edge.selected {opacity: 1;}
.edge:hover path { stroke: red; }
.edge:hover polygon { stroke: red; fill: red; }
]]></style>

<defs>
  <circle id="rim" cx="0" cy="0" r="7"/>
  <circle id="rim2" cx="0" cy="0" r="3.5"/>
  <g id="zoomPlus">
    <use xlink:href="#rim" fill="#404040"><set attributeName="fill" to="#808080" begin="zoomplus.mouseover" end="zoomplus.mouseout"/></use>
    <path d="M-4,0h8M0,-4v8" fill="none" stroke="white" stroke-width="1.5" pointer-events="none"/>
  </g>
  <g id="zoomMin">
    <use xlink:href="#rim" fill="#404040"><set attributeName="fill" to="#808080" begin="zoomminus.mouseover" end="zoomminus.mouseout"/></use>
    <path d="M-4,0h8" fill="none" stroke="white" stroke-width="1.5" pointer-events="none"/>
  </g>
  <g id="arrowUp" transform="translate(30 24)">
    <use xlink:href="#rim"/>
    <path pointer-events="none" fill="none" stroke="white" stroke-width="1.5" d="M0,-3.0v7 M-2.5,-0.5L0,-3.0L2.5,-0.5"/>
  </g>
  <g id="arrowRight" transform="rotate(90) translate(36 -43)">
    <use xlink:href="#rim"/>
    <path pointer-events="none" fill="none" stroke="white" stroke-width="1.5" d="M0,-3.0v7 M-2.5,-0.5L0,-3.0L2.5,-0.5"/>
  </g>
  <g id="arrowDown" transform="rotate(180) translate(-30 -48)">
    <use xlink:href="#rim"/>
    <path pointer-events="none" fill="none" stroke="white" stroke-width="1.5" d="M0,-3.0v7 M-2.5,-0.5L0,-3.0L2.5,-0.5"/>
  </g>
  <g id="arrowLeft" transform="rotate(270) translate(-36 17)">
    <use xlink:href="#rim"/>
    <path pointer-events="none" fill="none" stroke="white" stroke-width="1.5" d="M0,-3.0v7 M-2.5,-0.5L0,-3.0L2.5,-0.5"/>
  </g>
  <g id="resetDef">
    <use xlink:href="#rim2" fill="#404040"><set attributeName="fill" to="#808080" begin="reset.mouseover" end="reset.mouseout"/></use>
  </g>
</defs>
<script type="application/ecmascript">
var viewWidth = 834;
var viewHeight = 525;
var sectionId = 'dynsection-1';
</script>
<script type="application/ecmascript" xlink:href="../../svg.min.js"/>
<svg id="graph" class="graph">
<g id="viewport">
<title>mimic++/Call.hpp</title>
<!-- Node1 -->
<g id="Node000001" class="node">
<title>Node1</title>
<g id="a_Node000001"><a xlink:title=" ">
<polygon fill="#999999" stroke="#666666" points="204.88,-516.5 113.12,-516.5 113.12,-497.25 204.88,-497.25 204.88,-516.5"/>
<text text-anchor="middle" x="159" y="-503" font-family="Helvetica,sans-Serif" font-size="10.00">mimic++/Call.hpp</text>
</a>
</g>
</g>
<!-- Node2 -->
<g id="Node000002" class="node">
<title>Node2</title>
<g id="a_Node000002"><a xlink:href="../../d5/d8a/_expectation_8hpp.html" target="_top" xlink:title=" ">
<polygon fill="white" stroke="#666666" points="516.75,-240.25 391.25,-240.25 391.25,-221 516.75,-221 516.75,-240.25"/>
<text text-anchor="middle" x="454" y="-226.75" font-family="Helvetica,sans-Serif" font-size="10.00">mimic++/Expectation.hpp</text>
</a>
</g>
</g>
<!-- Node1&#45;&gt;Node2 -->
<g id="edge1_Node000001_Node000002" class="edge">
<title>Node1&#45;&gt;Node2</title>
<g id="a_edge1_Node000001_Node000002"><a xlink:title=" ">
<path fill="none" stroke="#63b8ff" d="M216.52,-502.55C378.38,-492.43 826,-458.89 826,-397.38 826,-397.38 826,-397.38 826,-340.12 826,-303.24 805.22,-294.21 773,-276.25 730.32,-252.46 597.27,-240.35 517.11,-235.07"/>
<polygon fill="#63b8ff" stroke="#63b8ff" points="216.65,-499.04 206.88,-503.14 217.08,-506.02 216.65,-499.04"/>
</a>
</g>
</g>
<!-- Node5 -->
<g id="Node000005" class="node">
<title>Node5</title>
<g id="a_Node000005"><a xlink:href="../../d0/db9/mimic_09_09_8hpp.html" target="_top" xlink:title=" ">
<polygon fill="white" stroke="#666666" points="260.75,-19.25 147.25,-19.25 147.25,0 260.75,0 260.75,-19.25"/>
<text text-anchor="middle" x="204" y="-5.75" font-family="Helvetica,sans-Serif" font-size="10.00">mimic++/mimic++.hpp</text>
</a>
</g>
</g>
<!-- Node1&#45;&gt;Node5 -->
<g id="edge29_Node000001_Node000005" class="edge">
<title>Node1&#45;&gt;Node5</title>
<g id="a_edge29_Node000001_Node000005"><a xlink:title=" ">
<path fill="none" stroke="#63b8ff" d="M101.58,-494.16C79.24,-487.4 54.61,-477.01 36,-461.25 11.13,-440.19 0,-429.96 0,-397.38 0,-397.38 0,-397.38 0,-119.12 0,-52.23 86.55,-26.45 146.9,-16.6"/>
<polygon fill="#63b8ff" stroke="#63b8ff" points="100.63,-497.52 111.2,-496.86 102.52,-490.79 100.63,-497.52"/>
</a>
</g>
</g>
<!-- Node7 -->
<g id="Node000007" class="node">
<title>Node7</title>
<g id="a_Node000007"><a xlink:href="../../da/dd9/_reporter_8hpp.html" target="_top" xlink:title=" ">
<polygon fill="white" stroke="#666666" points="336,-406 224,-406 224,-386.75 336,-386.75 336,-406"/>
<text text-anchor="middle" x="280" y="-392.5" font-family="Helvetica,sans-Serif" font-size="10.00">mimic++/Reporter.hpp</text>
</a>
</g>
</g>
<!-- Node1&#45;&gt;Node7 -->
<g id="edge12_Node000001_Node000007" class="edge">
<title>Node1&#45;&gt;Node7</title>
<g id="a_edge12_Node000001_Node000007"><a xlink:title=" ">
<path fill="none" stroke="#63b8ff" d="M177.44,-489.34C203.35,-466.11 249.64,-424.6 269.96,-406.38"/>
<polygon fill="#63b8ff" stroke="#63b8ff" points="175.14,-486.7 170.03,-495.99 179.81,-491.92 175.14,-486.7"/>
</a>
</g>
</g>
<!-- Node13 -->
<g id="Node000013" class="node">
<title>Node13</title>
<g id="a_Node000013"><a xlink:href="../../d0/d3b/_reports_8hpp.html" target="_top" xlink:title=" ">
<polygon fill="white" stroke="#666666" points="154.5,-461.25 45.5,-461.25 45.5,-442 154.5,-442 154.5,-461.25"/>
<text text-anchor="middle" x="100" y="-447.75" font-family="Helvetica,sans-Serif" font-size="10.00">mimic++/Reports.hpp</text>
</a>
</g>
</g>
<!-- Node1&#45;&gt;Node13 -->
<g id="edge25_Node000001_Node000013" class="edge">
<title>Node1&#45;&gt;Node13</title>
<g id="a_edge25_Node000001_Node000013"><a xlink:title=" ">
<path fill="none" stroke="#63b8ff" d="M140.73,-489.39C130.54,-480.19 118.26,-469.1 109.86,-461.52"/>
<polygon fill="#63b8ff" stroke="#63b8ff" points="138.1,-491.73 147.87,-495.83 142.79,-486.53 138.1,-491.73"/>
</a>
</g>
</g>
<!-- Node3 -->
<g id="Node000003" class="node">
<title>Node3</title>
<g id="a_Node000003"><a xlink:href="../../d2/d4f/_expectation_builder_8hpp.html" target="_top" xlink:title=" ">
<polygon fill="white" stroke="#666666" points="425.75,-129.75 270.25,-129.75 270.25,-110.5 425.75,-110.5 425.75,-129.75"/>
<text text-anchor="middle" x="348" y="-116.25" font-family="Helvetica,sans-Serif" font-size="10.00">mimic++/ExpectationBuilder.hpp</text>
</a>
</g>
</g>
<!-- Node2&#45;&gt;Node3 -->
<g id="edge2_Node000002_Node000003" class="edge">
<title>Node2&#45;&gt;Node3</title>
<g id="a_edge2_Node000002_Node000003"><a xlink:title=" ">
<path fill="none" stroke="#63b8ff" d="M437.46,-212.51C424.99,-199.63 407.45,-181.55 392,-165.75 379.83,-153.31 365.68,-138.99 356.79,-129.99"/>
<polygon fill="#63b8ff" stroke="#63b8ff" points="434.67,-214.66 444.14,-219.42 439.7,-209.8 434.67,-214.66"/>
</a>
</g>
</g>
<!-- Node4 -->
<g id="Node000004" class="node">
<title>Node4</title>
<g id="a_Node000004"><a xlink:href="../../d5/dc5/_mock_8hpp.html" target="_top" xlink:title=" ">
<polygon fill="white" stroke="#666666" points="489.62,-74.5 390.38,-74.5 390.38,-55.25 489.62,-55.25 489.62,-74.5"/>
<text text-anchor="middle" x="440" y="-61" font-family="Helvetica,sans-Serif" font-size="10.00">mimic++/Mock.hpp</text>
</a>
</g>
</g>
<!-- Node2&#45;&gt;Node4 -->
<g id="edge10_Node000002_Node000004" class="edge">
<title>Node2&#45;&gt;Node4</title>
<g id="a_edge10_Node000002_Node000004"><a xlink:title=" ">
<path fill="none" stroke="#63b8ff" d="M452.28,-209.47C449.21,-173.61 442.93,-100.1 440.76,-74.72"/>
<polygon fill="#63b8ff" stroke="#63b8ff" points="448.78,-209.65 453.12,-219.31 455.75,-209.05 448.78,-209.65"/>
</a>
</g>
</g>
<!-- Node2&#45;&gt;Node5 -->
<g id="edge11_Node000002_Node000005" class="edge">
<title>Node2&#45;&gt;Node5</title>
<g id="a_edge11_Node000002_Node000005"><a xlink:title=" ">
<path fill="none" stroke="#63b8ff" d="M412.27,-216.87C369.54,-201.98 303.54,-173.64 261,-129.75 244.33,-112.55 216.89,-44.03 207.37,-19.46"/>
<polygon fill="#63b8ff" stroke="#63b8ff" points="411.1,-220.17 421.7,-220.06 413.34,-213.54 411.1,-220.17"/>
</a>
</g>
</g>
<!-- Node6 -->
<g id="Node000006" class="node">
<title>Node6</title>
<g id="a_Node000006"><a xlink:href="../../d8/de5/_expectation_policies_8hpp.html" target="_top" xlink:title=" ">
<polygon fill="white" stroke="#666666" points="642,-185 482,-185 482,-165.75 642,-165.75 642,-185"/>
<text text-anchor="middle" x="562" y="-171.5" font-family="Helvetica,sans-Serif" font-size="10.00">mimic++/ExpectationPolicies.hpp</text>
</a>
</g>
</g>
<!-- Node2&#45;&gt;Node6 -->
<g id="edge6_Node000002_Node000006" class="edge">
<title>Node2&#45;&gt;Node6</title>
<g id="a_edge6_Node000002_Node000006"><a xlink:title=" ">
<path fill="none" stroke="#63b8ff" d="M482.39,-215.62C501.75,-206.08 526.8,-193.73 543.59,-185.45"/>
<polygon fill="#63b8ff" stroke="#63b8ff" points="481.1,-212.36 473.68,-219.92 484.2,-218.64 481.1,-212.36"/>
</a>
</g>
</g>
<!-- Node3&#45;&gt;Node4 -->
<g id="edge3_Node000003_Node000004" class="edge">
<title>Node3&#45;&gt;Node4</title>
<g id="a_edge3_Node000003_Node000004"><a xlink:title=" ">
<path fill="none" stroke="#63b8ff" d="M373.11,-104.59C389.46,-95.13 410.28,-83.08 424.32,-74.95"/>
<polygon fill="#63b8ff" stroke="#63b8ff" points="371.82,-101.29 364.92,-109.33 375.32,-107.35 371.82,-101.29"/>
</a>
</g>
</g>
<!-- Node3&#45;&gt;Node5 -->
<g id="edge5_Node000003_Node000005" class="edge">
<title>Node3&#45;&gt;Node5</title>
<g id="a_edge5_Node000003_Node000005"><a xlink:title=" ">
<path fill="none" stroke="#63b8ff" d="M327.26,-103.5C296.67,-80.45 240.45,-38.09 215.95,-19.63"/>
<polygon fill="#63b8ff" stroke="#63b8ff" points="324.91,-106.11 335.01,-109.34 329.13,-100.52 324.91,-106.11"/>
</a>
</g>
</g>
<!-- Node4&#45;&gt;Node5 -->
<g id="edge4_Node000004_Node000005" class="edge">
<title>Node4&#45;&gt;Node5</title>
<g id="a_edge4_Node000004_Node000005"><a xlink:title=" ">
<path fill="none" stroke="#63b8ff" d="M388.52,-52.26C345.15,-42.47 283.96,-28.67 244.14,-19.68"/>
<polygon fill="#63b8ff" stroke="#63b8ff" points="387.7,-55.66 398.22,-54.45 389.24,-48.83 387.7,-55.66"/>
</a>
</g>
</g>
<!-- Node6&#45;&gt;Node3 -->
<g id="edge7_Node000006_Node000003" class="edge">
<title>Node6&#45;&gt;Node3</title>
<g id="a_edge7_Node000006_Node000003"><a xlink:title=" ">
<path fill="none" stroke="#63b8ff" d="M514.57,-162.57C475.31,-152.8 420.36,-139.13 384.48,-130.2"/>
<polygon fill="#63b8ff" stroke="#63b8ff" points="513.68,-165.96 524.23,-164.98 515.37,-159.17 513.68,-165.96"/>
</a>
</g>
</g>
<!-- Node6&#45;&gt;Node4 -->
<g id="edge8_Node000006_Node000004" class="edge">
<title>Node6&#45;&gt;Node4</title>
<g id="a_edge8_Node000006_Node000004"><a xlink:title=" ">
<path fill="none" stroke="#63b8ff" d="M543.75,-158.14C517.69,-134.97 470.7,-93.18 450.12,-74.88"/>
<polygon fill="#63b8ff" stroke="#63b8ff" points="541.09,-160.46 550.89,-164.49 545.74,-155.23 541.09,-160.46"/>
</a>
</g>
</g>
<!-- Node6&#45;&gt;Node5 -->
<g id="edge9_Node000006_Node000005" class="edge">
<title>Node6&#45;&gt;Node5</title>
<g id="a_edge9_Node000006_Node000005"><a xlink:title=" ">
<path fill="none" stroke="#63b8ff" d="M557.45,-154.55C550.11,-127.41 532.92,-79.32 499,-55.25 461.78,-28.83 335.98,-17.64 261.21,-13.23"/>
<polygon fill="#63b8ff" stroke="#63b8ff" points="553.97,-155.06 559.79,-163.91 560.76,-153.36 553.97,-155.06"/>
</a>
</g>
</g>
<!-- Node7&#45;&gt;Node2 -->
<g id="edge13_Node000007_Node000002" class="edge">
<title>Node7&#45;&gt;Node2</title>
<g id="a_edge13_Node000007_Node000002"><a xlink:title=" ">
<path fill="none" stroke="#63b8ff" d="M347.45,-394.16C474.96,-391.16 741.14,-381.27 769,-350.75 844.78,-267.74 629.09,-242.22 516.97,-234.66"/>
<polygon fill="#63b8ff" stroke="#63b8ff" points="347.73,-390.65 337.81,-394.38 347.88,-397.65 347.73,-390.65"/>
</a>
</g>
</g>
<!-- Node7&#45;&gt;Node5 -->
<g id="edge24_Node000007_Node000005" class="edge">
<title>Node7&#45;&gt;Node5</title>
<g id="a_edge24_Node000007_Node000005"><a xlink:title=" ">
<path fill="none" stroke="#63b8ff" d="M212.87,-389.02C184.9,-383.14 154.08,-371.95 133,-350.75 112.12,-329.75 114,-316.49 114,-286.88 114,-286.88 114,-286.88 114,-119.12 114,-72.87 163.06,-35.77 188.73,-19.53"/>
<polygon fill="#63b8ff" stroke="#63b8ff" points="211.87,-392.4 222.35,-390.82 213.17,-385.52 211.87,-392.4"/>
</a>
</g>
</g>
<!-- Node8 -->
<g id="Node000008" class="node">
<title>Node8</title>
<g id="a_Node000008"><a xlink:href="../../d8/de4/_sequence_8hpp.html" target="_top" xlink:title=" ">
<polygon fill="white" stroke="#666666" points="260.38,-350.75 141.62,-350.75 141.62,-331.5 260.38,-331.5 260.38,-350.75"/>
<text text-anchor="middle" x="201" y="-337.25" font-family="Helvetica,sans-Serif" font-size="10.00">mimic++/Sequence.hpp</text>
</a>
</g>
</g>
<!-- Node7&#45;&gt;Node8 -->
<g id="edge14_Node000007_Node000008" class="edge">
<title>Node7&#45;&gt;Node8</title>
<g id="a_edge14_Node000007_Node000008"><a xlink:title=" ">
<path fill="none" stroke="#63b8ff" d="M257.24,-380.03C243.39,-370.7 226.18,-359.1 214.47,-351.2"/>
<polygon fill="#63b8ff" stroke="#63b8ff" points="255.1,-382.81 265.34,-385.5 259.01,-377 255.1,-382.81"/>
</a>
</g>
</g>
<!-- Node10 -->
<g id="Node000010" class="node">
<title>Node10</title>
<g id="a_Node000010"><a xlink:href="../../d9/d42/_boost_test_8hpp.html" target="_top" xlink:title=" ">
<polygon fill="white" stroke="#666666" points="439.38,-350.75 278.62,-350.75 278.62,-331.5 439.38,-331.5 439.38,-350.75"/>
<text text-anchor="middle" x="359" y="-337.25" font-family="Helvetica,sans-Serif" font-size="10.00">mimic++/adapters/BoostTest.hpp</text>
</a>
</g>
</g>
<!-- Node7&#45;&gt;Node10 -->
<g id="edge21_Node000007_Node000010" class="edge">
<title>Node7&#45;&gt;Node10</title>
<g id="a_edge21_Node000007_Node000010"><a xlink:title=" ">
<path fill="none" stroke="#63b8ff" d="M302.76,-380.03C316.61,-370.7 333.82,-359.1 345.53,-351.2"/>
<polygon fill="#63b8ff" stroke="#63b8ff" points="300.99,-377 294.66,-385.5 304.9,-382.81 300.99,-377"/>
</a>
</g>
</g>
<!-- Node11 -->
<g id="Node000011" class="node">
<title>Node11</title>
<g id="a_Node000011"><a xlink:href="../../d3/d04/_catch2_8hpp.html" target="_top" xlink:title=" ">
<polygon fill="white" stroke="#666666" points="604.25,-350.75 457.75,-350.75 457.75,-331.5 604.25,-331.5 604.25,-350.75"/>
<text text-anchor="middle" x="531" y="-337.25" font-family="Helvetica,sans-Serif" font-size="10.00">mimic++/adapters/Catch2.hpp</text>
</a>
</g>
</g>
<!-- Node7&#45;&gt;Node11 -->
<g id="edge22_Node000007_Node000011" class="edge">
<title>Node7&#45;&gt;Node11</title>
<g id="a_edge22_Node000007_Node000011"><a xlink:title=" ">
<path fill="none" stroke="#63b8ff" d="M333.87,-383.95C380.05,-374.15 445.69,-360.22 488.31,-351.18"/>
<polygon fill="#63b8ff" stroke="#63b8ff" points="333.4,-380.47 324.34,-385.97 334.85,-387.32 333.4,-380.47"/>
</a>
</g>
</g>
<!-- Node12 -->
<g id="Node000012" class="node">
<title>Node12</title>
<g id="a_Node000012"><a xlink:href="../../d5/db1/gtest_8hpp.html" target="_top" xlink:title=" ">
<polygon fill="white" stroke="#666666" points="759.75,-350.75 622.25,-350.75 622.25,-331.5 759.75,-331.5 759.75,-350.75"/>
<text text-anchor="middle" x="691" y="-337.25" font-family="Helvetica,sans-Serif" font-size="10.00">mimic++/adapters/gtest.hpp</text>
</a>
</g>
</g>
<!-- Node7&#45;&gt;Node12 -->
<g id="edge23_Node000007_Node000012" class="edge">
<title>Node7&#45;&gt;Node12</title>
<g id="a_edge23_Node000007_Node000012"><a xlink:title=" ">
<path fill="none" stroke="#63b8ff" d="M347.58,-386.62C423.38,-376.8 545.69,-360.95 622.05,-351.06"/>
<polygon fill="#63b8ff" stroke="#63b8ff" points="347.25,-383.13 337.79,-387.89 348.15,-390.07 347.25,-383.13"/>
</a>
</g>
</g>
<!-- Node8&#45;&gt;Node3 -->
<g id="edge19_Node000008_Node000003" class="edge">
<title>Node8&#45;&gt;Node3</title>
<g id="a_edge19_Node000008_Node000003"><a xlink:title=" ">
<path fill="none" stroke="#63b8ff" d="M271.59,-327.51C290.17,-320.9 308.49,-310.83 321,-295.5 362.24,-244.94 353.55,-157.8 349.46,-129.95"/>
<polygon fill="#63b8ff" stroke="#63b8ff" points="270.56,-324.16 262.11,-330.55 272.7,-330.83 270.56,-324.16"/>
</a>
</g>
</g>
<!-- Node8&#45;&gt;Node5 -->
<g id="edge20_Node000008_Node000005" class="edge">
<title>Node8&#45;&gt;Node5</title>
<g id="a_edge20_Node000008_Node000005"><a xlink:title=" ">
<path fill="none" stroke="#63b8ff" d="M187.08,-322.03C172.59,-301.35 152,-265.93 152,-231.62 152,-231.62 152,-231.62 152,-119.12 152,-78.6 181.86,-37.19 196.33,-19.5"/>
<polygon fill="#63b8ff" stroke="#63b8ff" points="184.15,-323.95 192.88,-329.95 189.79,-319.81 184.15,-323.95"/>
</a>
</g>
</g>
<!-- Node9 -->
<g id="Node000009" class="node">
<title>Node9</title>
<g id="a_Node000009"><a xlink:href="../../d6/d17/_control_policy_8hpp.html" target="_top" xlink:title=" ">
<polygon fill="white" stroke="#666666" points="312.12,-295.5 179.88,-295.5 179.88,-276.25 312.12,-276.25 312.12,-295.5"/>
<text text-anchor="middle" x="246" y="-282" font-family="Helvetica,sans-Serif" font-size="10.00">mimic++/ControlPolicy.hpp</text>
</a>
</g>
</g>
<!-- Node8&#45;&gt;Node9 -->
<g id="edge15_Node000008_Node000009" class="edge">
<title>Node8&#45;&gt;Node9</title>
<g id="a_edge15_Node000008_Node000009"><a xlink:title=" ">
<path fill="none" stroke="#63b8ff" d="M215.68,-322.76C223.26,-313.78 232.21,-303.2 238.41,-295.86"/>
<polygon fill="#63b8ff" stroke="#63b8ff" points="213.19,-320.28 209.41,-330.18 218.54,-324.8 213.19,-320.28"/>
</a>
</g>
</g>
<!-- Node9&#45;&gt;Node2 -->
<g id="edge16_Node000009_Node000002" class="edge">
<title>Node9&#45;&gt;Node2</title>
<g id="a_edge16_Node000009_Node000002"><a xlink:title=" ">
<path fill="none" stroke="#63b8ff" d="M292.1,-273.07C330.26,-263.3 383.67,-249.63 418.54,-240.7"/>
<polygon fill="#63b8ff" stroke="#63b8ff" points="291.57,-269.6 282.75,-275.47 293.31,-276.38 291.57,-269.6"/>
</a>
</g>
</g>
<!-- Node9&#45;&gt;Node3 -->
<g id="edge17_Node000009_Node000003" class="edge">
<title>Node9&#45;&gt;Node3</title>
<g id="a_edge17_Node000009_Node000003"><a xlink:title=" ">
<path fill="none" stroke="#63b8ff" d="M257.4,-266.57C279.28,-231.45 326.4,-155.8 342.49,-129.97"/>
<polygon fill="#63b8ff" stroke="#63b8ff" points="254.6,-264.45 252.28,-274.79 260.54,-268.15 254.6,-264.45"/>
</a>
</g>
</g>
<!-- Node9&#45;&gt;Node5 -->
<g id="edge18_Node000009_Node000005" class="edge">
<title>Node9&#45;&gt;Node5</title>
<g id="a_edge18_Node000009_Node000005"><a xlink:title=" ">
<path fill="none" stroke="#63b8ff" d="M233.9,-266.2C221.49,-245.23 204,-209.74 204,-176.38 204,-176.38 204,-176.38 204,-119.12 204,-82.2 204,-38.22 204,-19.63"/>
<polygon fill="#63b8ff" stroke="#63b8ff" points="230.77,-267.81 239.01,-274.47 236.73,-264.13 230.77,-267.81"/>
</a>
</g>
</g>
<!-- Node13&#45;&gt;Node5 -->
<g id="edge28_Node000013_Node000005" class="edge">
<title>Node13&#45;&gt;Node5</title>
<g id="a_edge28_Node000013_Node000005"><a xlink:title=" ">
<path fill="none" stroke="#63b8ff" d="M82.85,-433.67C64.5,-413.64 38,-378.44 38,-342.12 38,-342.12 38,-342.12 38,-119.12 38,-61.11 109.92,-32.46 159.08,-19.65"/>
<polygon fill="#63b8ff" stroke="#63b8ff" points="80.1,-435.85 89.54,-440.66 85.15,-431.01 80.1,-435.85"/>
</a>
</g>
</g>
<!-- Node13&#45;&gt;Node7 -->
<g id="edge27_Node000013_Node000007" class="edge">
<title>Node13&#45;&gt;Node7</title>
<g id="a_edge27_Node000013_Node000007"><a xlink:title=" ">
<path fill="none" stroke="#63b8ff" d="M141.18,-438.44C174.1,-428.7 219.53,-415.27 249.32,-406.45"/>
<polygon fill="#63b8ff" stroke="#63b8ff" points="140.58,-434.97 131.99,-441.16 142.57,-441.68 140.58,-434.97"/>
</a>
</g>
</g>
<!-- Node13&#45;&gt;Node9 -->
<g id="edge26_Node000013_Node000009" class="edge">
<title>Node13&#45;&gt;Node9</title>
<g id="a_edge26_Node000013_Node000009"><a xlink:title=" ">
<path fill="none" stroke="#63b8ff" d="M100.31,-430.18C101.78,-404.14 108.08,-359.21 133,-331.5 149.36,-313.31 174.1,-302.44 196.26,-295.99"/>
<polygon fill="#63b8ff" stroke="#63b8ff" points="96.82,-429.96 99.96,-440.07 103.81,-430.2 96.82,-429.96"/>
</a>
</g>
</g>
</g>
</svg>

<g id="navigator" transform="translate(0 0)" fill="#404254">
  <rect fill="#f2f5e9" fill-opacity="0.5" stroke="#606060" stroke-width=".5" x="0" y="0" width="60" height="60"/>
  <use id="zoomplus" xlink:href="#zoomPlus" x="17" y="9" onmousedown="handleZoom(evt,'in')"/>
  <use id="zoomminus" xlink:href="#zoomMin" x="42" y="9" onmousedown="handleZoom(evt,'out')"/>
  <use id="reset" xlink:href="#resetDef" x="30" y="36" onmousedown="handleReset()"/>
   <use id="arrowup" xlink:href="#arrowUp" x="0" y="0" onmousedown="handlePan(0,-1)"/>
  <use id="arrowright" xlink:href="#arrowRight" x="0" y="0" onmousedown="handlePan(1,0)"/>
  <use id="arrowdown" xlink:href="#arrowDown" x="0" y="0" onmousedown="handlePan(0,1)"/>
  <use id="arrowleft" xlink:href="#arrowLeft" x="0" y="0" onmousedown="handlePan(-1,0)"/>
</g>
<svg viewBox="0 0 15 15" width="100%" height="30px" preserveAspectRatio="xMaxYMin meet">
 <g id="arrow_out" transform="scale(0.3 0.3)">
  <a xlink:href="_call_8hpp__dep__incl_org.svg" target="_base">
   <rect id="button" ry="5" rx="5" y="6" x="6" height="38" width="38"
        fill="#f2f5e9" fill-opacity="0.5" stroke="#606060" stroke-width="1.0"/>
   <path id="arrow"
     d="M 11.500037,31.436501 C 11.940474,20.09759 22.043105,11.32322 32.158766,21.979434 L 37.068811,17.246167 C 37.068811,17.246167 37.088388,32 37.088388,32 L 22.160133,31.978069 C 22.160133,31.978069 26.997745,27.140456 26.997745,27.140456 C 18.528582,18.264221 13.291696,25.230495 11.500037,31.436501 z"
     style="fill:#404040;"/>
  </a>
 </g>
</svg>

<style type='text/css'>
<![CDATA[
[data-mouse-over-selected='false'] { opacity: 0.7; }
[data-mouse-over-selected='true']  { opacity: 1.0; }
]]>
</style>
<script type="application/ecmascript"><![CDATA[
document.addEventListener('DOMContentLoaded', (event) => {
  highlightEdges();
  highlightAdjacentNodes();
});
]]></script>
</svg>
