<?xml version="1.0" encoding="UTF-8" standalone="no"?>
<!DOCTYPE svg PUBLIC "-//W3C//DTD SVG 1.1//EN"
 "http://www.w3.org/Graphics/SVG/1.1/DTD/svg11.dtd">
<!-- Generated by graphviz version 12.1.2 (20240928.0832)
 -->
<!-- Title: mimic++/adapters/gtest.hpp Pages: 1 -->
<!--zoomable 359 -->

<svg id="main" version="1.1" xmlns="http://www.w3.org/2000/svg" xmlns:xlink="http://www.w3.org/1999/xlink" xml:space="preserve" onload="init(evt)">

<style type="text/css"><![CDATA[
.node, .edge {opacity: 0.7;}
.node.selected, .edge.selected {opacity: 1;}
.edge:hover path { stroke: red; }
.edge:hover polygon { stroke: red; fill: red; }
]]></style>

<defs>
  <circle id="rim" cx="0" cy="0" r="7"/>
  <circle id="rim2" cx="0" cy="0" r="3.5"/>
  <g id="zoomPlus">
    <use xlink:href="#rim" fill="#404040"><set attributeName="fill" to="#808080" begin="zoomplus.mouseover" end="zoomplus.mouseout"/></use>
    <path d="M-4,0h8M0,-4v8" fill="none" stroke="white" stroke-width="1.5" pointer-events="none"/>
  </g>
  <g id="zoomMin">
    <use xlink:href="#rim" fill="#404040"><set attributeName="fill" to="#808080" begin="zoomminus.mouseover" end="zoomminus.mouseout"/></use>
    <path d="M-4,0h8" fill="none" stroke="white" stroke-width="1.5" pointer-events="none"/>
  </g>
  <g id="arrowUp" transform="translate(30 24)">
    <use xlink:href="#rim"/>
    <path pointer-events="none" fill="none" stroke="white" stroke-width="1.5" d="M0,-3.0v7 M-2.5,-0.5L0,-3.0L2.5,-0.5"/>
  </g>
  <g id="arrowRight" transform="rotate(90) translate(36 -43)">
    <use xlink:href="#rim"/>
    <path pointer-events="none" fill="none" stroke="white" stroke-width="1.5" d="M0,-3.0v7 M-2.5,-0.5L0,-3.0L2.5,-0.5"/>
  </g>
  <g id="arrowDown" transform="rotate(180) translate(-30 -48)">
    <use xlink:href="#rim"/>
    <path pointer-events="none" fill="none" stroke="white" stroke-width="1.5" d="M0,-3.0v7 M-2.5,-0.5L0,-3.0L2.5,-0.5"/>
  </g>
  <g id="arrowLeft" transform="rotate(270) translate(-36 17)">
    <use xlink:href="#rim"/>
    <path pointer-events="none" fill="none" stroke="white" stroke-width="1.5" d="M0,-3.0v7 M-2.5,-0.5L0,-3.0L2.5,-0.5"/>
  </g>
  <g id="resetDef">
    <use xlink:href="#rim2" fill="#404040"><set attributeName="fill" to="#808080" begin="reset.mouseover" end="reset.mouseout"/></use>
  </g>
</defs>
<script type="application/ecmascript">
var viewWidth = 1213;
var viewHeight = 359;
var sectionId = 'dynsection-0';
</script>
<script type="application/ecmascript" xlink:href="../../svg.min.js"/>
<svg id="graph" class="graph">
<g id="viewport">
<title>mimic++/adapters/gtest.hpp</title>
<!-- Node1 -->
<g id="Node000001" class="node">
<title>Node1</title>
<g id="a_Node000001"><a xlink:title=" ">
<polygon fill="#999999" stroke="#666666" points="952.25,-350.75 814.75,-350.75 814.75,-331.5 952.25,-331.5 952.25,-350.75"/>
<text text-anchor="middle" x="883.5" y="-337.25" font-family="Helvetica,sans-Serif" font-size="10.00">mimic++/adapters/gtest.hpp</text>
</a>
</g>
</g>
<!-- Node2 -->
<g id="Node000002" class="node">
<title>Node2</title>
<g id="a_Node000002"><a xlink:href="../../da/dd9/_reporter_8hpp.html" target="_top" xlink:title=" ">
<polygon fill="white" stroke="#666666" points="939.5,-295.5 827.5,-295.5 827.5,-276.25 939.5,-276.25 939.5,-295.5"/>
<text text-anchor="middle" x="883.5" y="-282" font-family="Helvetica,sans-Serif" font-size="10.00">mimic++/Reporter.hpp</text>
</a>
</g>
</g>
<!-- Node1&#45;&gt;Node2 -->
<g id="edge1_Node000001_Node000002" class="edge">
<title>Node1&#45;&gt;Node2</title>
<g id="a_edge1_Node000001_Node000002"><a xlink:title=" ">
<path fill="none" stroke="#63b8ff" d="M883.5,-331.33C883.5,-324.82 883.5,-315.67 883.5,-307.37"/>
<polygon fill="#63b8ff" stroke="#63b8ff" points="887,-307.37 883.5,-297.37 880,-307.37 887,-307.37"/>
</a>
</g>
</g>
<!-- Node3 -->
<g id="Node000003" class="node">
<title>Node3</title>
<g id="a_Node000003"><a xlink:href="../../dc/d44/_call_8hpp.html" target="_top" xlink:title=" ">
<polygon fill="white" stroke="#666666" points="290.38,-185 198.62,-185 198.62,-165.75 290.38,-165.75 290.38,-185"/>
<text text-anchor="middle" x="244.5" y="-171.5" font-family="Helvetica,sans-Serif" font-size="10.00">mimic++/Call.hpp</text>
</a>
</g>
</g>
<!-- Node2&#45;&gt;Node3 -->
<g id="edge2_Node000002_Node000003" class="edge">
<title>Node2&#45;&gt;Node3</title>
<g id="a_edge2_Node000002_Node000003"><a xlink:title=" ">
<path fill="none" stroke="#63b8ff" d="M829.84,-275.76C710.55,-255.51 424.19,-206.89 301.68,-186.08"/>
<polygon fill="#63b8ff" stroke="#63b8ff" points="302.63,-182.7 292.19,-184.47 301.46,-189.6 302.63,-182.7"/>
</a>
</g>
</g>
<!-- Node4 -->
<g id="Node000004" class="node">
<title>Node4</title>
<g id="a_Node000004"><a xlink:href="../../df/dde/_fwd_8hpp.html" target="_top" xlink:title=" ">
<polygon fill="white" stroke="#666666" points="293.5,-74.5 199.5,-74.5 199.5,-55.25 293.5,-55.25 293.5,-74.5"/>
<text text-anchor="middle" x="246.5" y="-61" font-family="Helvetica,sans-Serif" font-size="10.00">mimic++/Fwd.hpp</text>
</a>
</g>
</g>
<!-- Node2&#45;&gt;Node4 -->
<g id="edge16_Node000002_Node000004" class="edge">
<title>Node2&#45;&gt;Node4</title>
<g id="a_edge16_Node000002_Node000004"><a xlink:title=" ">
<path fill="none" stroke="#63b8ff" d="M827.21,-281C669.25,-269.56 230.72,-233.64 189.5,-185 162.72,-153.39 202.14,-107.06 227.65,-82.53"/>
<polygon fill="#63b8ff" stroke="#63b8ff" points="229.9,-85.22 234.85,-75.85 225.14,-80.08 229.9,-85.22"/>
</a>
</g>
</g>
<!-- Node9 -->
<g id="Node000009" class="node">
<title>Node9</title>
<g id="a_Node000009"><a xlink:title=" ">
<polygon fill="#e0e0e0" stroke="#999999" points="174.62,-74.5 126.38,-74.5 126.38,-55.25 174.62,-55.25 174.62,-74.5"/>
<text text-anchor="middle" x="150.5" y="-61" font-family="Helvetica,sans-Serif" font-size="10.00">cassert</text>
</a>
</g>
</g>
<!-- Node2&#45;&gt;Node9 -->
<g id="edge40_Node000002_Node000009" class="edge">
<title>Node2&#45;&gt;Node9</title>
<g id="a_edge40_Node000002_Node000009"><a xlink:title=" ">
<path fill="none" stroke="#63b8ff" d="M827.09,-284.67C648.96,-282.64 104.82,-265.25 12.5,-129.75 -14.4,-90.26 65.71,-74.68 114.97,-68.94"/>
<polygon fill="#63b8ff" stroke="#63b8ff" points="115.08,-72.45 124.65,-67.91 114.33,-65.49 115.08,-72.45"/>
</a>
</g>
</g>
<!-- Node12 -->
<g id="Node000012" class="node">
<title>Node12</title>
<g id="a_Node000012"><a xlink:href="../../da/dab/_printer_8hpp.html" target="_top" xlink:title=" ">
<polygon fill="white" stroke="#666666" points="686.38,-185 582.62,-185 582.62,-165.75 686.38,-165.75 686.38,-185"/>
<text text-anchor="middle" x="634.5" y="-171.5" font-family="Helvetica,sans-Serif" font-size="10.00">mimic++/Printer.hpp</text>
</a>
</g>
</g>
<!-- Node2&#45;&gt;Node12 -->
<g id="edge17_Node000002_Node000012" class="edge">
<title>Node2&#45;&gt;Node12</title>
<g id="a_edge17_Node000002_Node000012"><a xlink:title=" ">
<path fill="none" stroke="#63b8ff" d="M827.06,-278.94C789.38,-273.15 739.73,-261.89 700.5,-240.25 679.43,-228.62 660.26,-208.5 648.08,-193.95"/>
<polygon fill="#63b8ff" stroke="#63b8ff" points="651.08,-192.09 642.08,-186.51 645.63,-196.49 651.08,-192.09"/>
</a>
</g>
</g>
<!-- Node13 -->
<g id="Node000013" class="node">
<title>Node13</title>
<g id="a_Node000013"><a xlink:title=" ">
<polygon fill="#e0e0e0" stroke="#999999" points="957.5,-129.75 899.5,-129.75 899.5,-110.5 957.5,-110.5 957.5,-129.75"/>
<text text-anchor="middle" x="928.5" y="-116.25" font-family="Helvetica,sans-Serif" font-size="10.00">functional</text>
</a>
</g>
</g>
<!-- Node2&#45;&gt;Node13 -->
<g id="edge42_Node000002_Node000013" class="edge">
<title>Node2&#45;&gt;Node13</title>
<g id="a_edge42_Node000002_Node000013"><a xlink:title=" ">
<path fill="none" stroke="#63b8ff" d="M837.19,-275.82C816.42,-269.37 793.5,-258.49 779.5,-240.25 759.22,-213.83 751.43,-192.32 771.5,-165.75 775.12,-160.96 842.87,-142.92 888.18,-131.3"/>
<polygon fill="#63b8ff" stroke="#63b8ff" points="888.87,-134.74 897.69,-128.87 887.14,-127.95 888.87,-134.74"/>
</a>
</g>
</g>
<!-- Node18 -->
<g id="Node000018" class="node">
<title>Node18</title>
<g id="a_Node000018"><a xlink:href="../../d0/d3b/_reports_8hpp.html" target="_top" xlink:title=" ">
<polygon fill="white" stroke="#666666" points="897,-240.25 788,-240.25 788,-221 897,-221 897,-240.25"/>
<text text-anchor="middle" x="842.5" y="-226.75" font-family="Helvetica,sans-Serif" font-size="10.00">mimic++/Reports.hpp</text>
</a>
</g>
</g>
<!-- Node2&#45;&gt;Node18 -->
<g id="edge27_Node000002_Node000018" class="edge">
<title>Node2&#45;&gt;Node18</title>
<g id="a_edge27_Node000002_Node000018"><a xlink:title=" ">
<path fill="none" stroke="#63b8ff" d="M876.73,-276.08C871.18,-268.88 863.16,-258.46 856.27,-249.51"/>
<polygon fill="#63b8ff" stroke="#63b8ff" points="859.21,-247.6 850.34,-241.81 853.67,-251.87 859.21,-247.6"/>
</a>
</g>
</g>
<!-- Node19 -->
<g id="Node000019" class="node">
<title>Node19</title>
<g id="a_Node000019"><a xlink:title=" ">
<polygon fill="#e0e0e0" stroke="#999999" points="1012.38,-185 956.62,-185 956.62,-165.75 1012.38,-165.75 1012.38,-185"/>
<text text-anchor="middle" x="984.5" y="-171.5" font-family="Helvetica,sans-Serif" font-size="10.00">algorithm</text>
</a>
</g>
</g>
<!-- Node2&#45;&gt;Node19 -->
<g id="edge39_Node000002_Node000019" class="edge">
<title>Node2&#45;&gt;Node19</title>
<g id="a_edge39_Node000002_Node000019"><a xlink:title=" ">
<path fill="none" stroke="#63b8ff" d="M891.77,-276C908.49,-258.03 946.58,-217.11 968.39,-193.69"/>
<polygon fill="#63b8ff" stroke="#63b8ff" points="970.84,-196.19 975.09,-186.48 965.71,-191.42 970.84,-196.19"/>
</a>
</g>
</g>
<!-- Node20 -->
<g id="Node000020" class="node">
<title>Node20</title>
<g id="a_Node000020"><a xlink:title=" ">
<polygon fill="#e0e0e0" stroke="#999999" points="1080.38,-185 1030.62,-185 1030.62,-165.75 1080.38,-165.75 1080.38,-185"/>
<text text-anchor="middle" x="1055.5" y="-171.5" font-family="Helvetica,sans-Serif" font-size="10.00">optional</text>
</a>
</g>
</g>
<!-- Node2&#45;&gt;Node20 -->
<g id="edge44_Node000002_Node000020" class="edge">
<title>Node2&#45;&gt;Node20</title>
<g id="a_edge44_Node000002_Node000020"><a xlink:title=" ">
<path fill="none" stroke="#63b8ff" d="M897.87,-275.81C927.54,-257.1 995.81,-214.03 1032,-191.2"/>
<polygon fill="#63b8ff" stroke="#63b8ff" points="1033.42,-194.44 1040.01,-186.14 1029.69,-188.52 1033.42,-194.44"/>
</a>
</g>
</g>
<!-- Node21 -->
<g id="Node000021" class="node">
<title>Node21</title>
<g id="a_Node000021"><a xlink:title=" ">
<polygon fill="#e0e0e0" stroke="#999999" points="1144.12,-185 1098.88,-185 1098.88,-165.75 1144.12,-165.75 1144.12,-185"/>
<text text-anchor="middle" x="1121.5" y="-171.5" font-family="Helvetica,sans-Serif" font-size="10.00">ranges</text>
</a>
</g>
</g>
<!-- Node2&#45;&gt;Node21 -->
<g id="edge45_Node000002_Node000021" class="edge">
<title>Node2&#45;&gt;Node21</title>
<g id="a_edge45_Node000002_Node000021"><a xlink:title=" ">
<path fill="none" stroke="#63b8ff" d="M903.84,-275.9C924.07,-266.94 955.98,-252.76 983.5,-240.25 1003.83,-231.01 1057.57,-206.08 1091.67,-190.24"/>
<polygon fill="#63b8ff" stroke="#63b8ff" points="1093.02,-193.47 1100.61,-186.09 1090.07,-187.12 1093.02,-193.47"/>
</a>
</g>
</g>
<!-- Node24 -->
<g id="Node000024" class="node">
<title>Node24</title>
<g id="a_Node000024"><a xlink:title=" ">
<polygon fill="#e0e0e0" stroke="#999999" points="1205,-185 1162,-185 1162,-165.75 1205,-165.75 1205,-185"/>
<text text-anchor="middle" x="1183.5" y="-171.5" font-family="Helvetica,sans-Serif" font-size="10.00">vector</text>
</a>
</g>
</g>
<!-- Node2&#45;&gt;Node24 -->
<g id="edge46_Node000002_Node000024" class="edge">
<title>Node2&#45;&gt;Node24</title>
<g id="a_edge46_Node000002_Node000024"><a xlink:title=" ">
<path fill="none" stroke="#63b8ff" d="M914.2,-275.78C941.6,-267.39 982.66,-254.17 1017.5,-240.25 1036.19,-232.78 1039.89,-228.67 1058.5,-221 1089.35,-208.28 1125.3,-195.67 1150.71,-187.12"/>
<polygon fill="#63b8ff" stroke="#63b8ff" points="1151.77,-190.46 1160.15,-183.97 1149.55,-183.82 1151.77,-190.46"/>
</a>
</g>
</g>
<!-- Node25 -->
<g id="Node000025" class="node">
<title>Node25</title>
<g id="a_Node000025"><a xlink:title=" ">
<polygon fill="#e0e0e0" stroke="#999999" points="1125.12,-240.25 1067.88,-240.25 1067.88,-221 1125.12,-221 1125.12,-240.25"/>
<text text-anchor="middle" x="1096.5" y="-226.75" font-family="Helvetica,sans-Serif" font-size="10.00">exception</text>
</a>
</g>
</g>
<!-- Node2&#45;&gt;Node25 -->
<g id="edge41_Node000002_Node000025" class="edge">
<title>Node2&#45;&gt;Node25</title>
<g id="a_edge41_Node000002_Node000025"><a xlink:title=" ">
<path fill="none" stroke="#63b8ff" d="M919.63,-275.84C957.55,-266.36 1017.01,-251.5 1056.36,-241.66"/>
<polygon fill="#63b8ff" stroke="#63b8ff" points="1057.07,-245.09 1065.92,-239.27 1055.37,-238.3 1057.07,-245.09"/>
</a>
</g>
</g>
<!-- Node26 -->
<g id="Node000026" class="node">
<title>Node26</title>
<g id="a_Node000026"><a xlink:title=" ">
<polygon fill="#e0e0e0" stroke="#999999" points="1193.75,-240.25 1143.25,-240.25 1143.25,-221 1193.75,-221 1193.75,-240.25"/>
<text text-anchor="middle" x="1168.5" y="-226.75" font-family="Helvetica,sans-Serif" font-size="10.00">memory</text>
</a>
</g>
</g>
<!-- Node2&#45;&gt;Node26 -->
<g id="edge43_Node000002_Node000026" class="edge">
<title>Node2&#45;&gt;Node26</title>
<g id="a_edge43_Node000002_Node000026"><a xlink:title=" ">
<path fill="none" stroke="#63b8ff" d="M939.55,-276.1C988.08,-268.24 1060.38,-255.89 1131.92,-240.69"/>
<polygon fill="#63b8ff" stroke="#63b8ff" points="1132.4,-244.16 1141.45,-238.64 1130.94,-237.32 1132.4,-244.16"/>
</a>
</g>
</g>
<!-- Node3&#45;&gt;Node4 -->
<g id="edge3_Node000003_Node000004" class="edge">
<title>Node3&#45;&gt;Node4</title>
<g id="a_edge3_Node000003_Node000004"><a xlink:title=" ">
<path fill="none" stroke="#63b8ff" d="M240.84,-165.31C236.29,-152.96 229.49,-130.13 232.5,-110.5 233.77,-102.18 236.31,-93.28 238.88,-85.63"/>
<polygon fill="#63b8ff" stroke="#63b8ff" points="242.14,-86.93 242.25,-76.33 235.55,-84.54 242.14,-86.93"/>
</a>
</g>
</g>
<!-- Node6 -->
<g id="Node000006" class="node">
<title>Node6</title>
<g id="a_Node000006"><a xlink:href="../../d8/d32/_type_traits_8hpp.html" target="_top" xlink:title=" ">
<polygon fill="white" stroke="#666666" points="142,-129.75 21,-129.75 21,-110.5 142,-110.5 142,-129.75"/>
<text text-anchor="middle" x="81.5" y="-116.25" font-family="Helvetica,sans-Serif" font-size="10.00">mimic++/TypeTraits.hpp</text>
</a>
</g>
</g>
<!-- Node3&#45;&gt;Node6 -->
<g id="edge5_Node000003_Node000006" class="edge">
<title>Node3&#45;&gt;Node6</title>
<g id="a_edge5_Node000003_Node000006"><a xlink:title=" ">
<path fill="none" stroke="#63b8ff" d="M216.85,-165.34C190.27,-156.66 149.86,-143.46 120.11,-133.74"/>
<polygon fill="#63b8ff" stroke="#63b8ff" points="121.32,-130.45 110.73,-130.67 119.14,-137.1 121.32,-130.45"/>
</a>
</g>
</g>
<!-- Node7 -->
<g id="Node000007" class="node">
<title>Node7</title>
<g id="a_Node000007"><a xlink:title=" ">
<polygon fill="#e0e0e0" stroke="#999999" points="37,-74.5 0,-74.5 0,-55.25 37,-55.25 37,-74.5"/>
<text text-anchor="middle" x="18.5" y="-61" font-family="Helvetica,sans-Serif" font-size="10.00">tuple</text>
</a>
</g>
</g>
<!-- Node3&#45;&gt;Node7 -->
<g id="edge14_Node000003_Node000007" class="edge">
<title>Node3&#45;&gt;Node7</title>
<g id="a_edge14_Node000003_Node000007"><a xlink:title=" ">
<path fill="none" stroke="#63b8ff" d="M198.2,-172.23C137.39,-168.33 35.58,-157.7 12.5,-129.75 2.41,-117.54 5.38,-99.19 10.02,-85.28"/>
<polygon fill="#63b8ff" stroke="#63b8ff" points="13.15,-86.88 13.5,-76.29 6.62,-84.35 13.15,-86.88"/>
</a>
</g>
</g>
<!-- Node8 -->
<g id="Node000008" class="node">
<title>Node8</title>
<g id="a_Node000008"><a xlink:href="../../d4/d2c/_utility_8hpp.html" target="_top" xlink:title=" ">
<polygon fill="white" stroke="#666666" points="374.5,-129.75 274.5,-129.75 274.5,-110.5 374.5,-110.5 374.5,-129.75"/>
<text text-anchor="middle" x="324.5" y="-116.25" font-family="Helvetica,sans-Serif" font-size="10.00">mimic++/Utility.hpp</text>
</a>
</g>
</g>
<!-- Node3&#45;&gt;Node8 -->
<g id="edge8_Node000003_Node000008" class="edge">
<title>Node3&#45;&gt;Node8</title>
<g id="a_edge8_Node000003_Node000008"><a xlink:title=" ">
<path fill="none" stroke="#63b8ff" d="M258.07,-165.34C269.91,-157.46 287.34,-145.86 301.37,-136.52"/>
<polygon fill="#63b8ff" stroke="#63b8ff" points="303.22,-139.5 309.6,-131.04 299.34,-133.67 303.22,-139.5"/>
</a>
</g>
</g>
<!-- Node10 -->
<g id="Node000010" class="node">
<title>Node10</title>
<g id="a_Node000010"><a xlink:title=" ">
<polygon fill="#e0e0e0" stroke="#999999" points="423.62,-74.5 339.38,-74.5 339.38,-55.25 423.62,-55.25 423.62,-74.5"/>
<text text-anchor="middle" x="381.5" y="-61" font-family="Helvetica,sans-Serif" font-size="10.00">source_location</text>
</a>
</g>
</g>
<!-- Node3&#45;&gt;Node10 -->
<g id="edge13_Node000003_Node000010" class="edge">
<title>Node3&#45;&gt;Node10</title>
<g id="a_edge13_Node000003_Node000010"><a xlink:title=" ">
<path fill="none" stroke="#63b8ff" d="M290.7,-172.93C322.42,-169.23 362.44,-158.62 383.5,-129.75 392.7,-117.13 391.18,-99.08 387.94,-85.38"/>
<polygon fill="#63b8ff" stroke="#63b8ff" points="391.42,-84.82 385.3,-76.17 384.69,-86.74 391.42,-84.82"/>
</a>
</g>
</g>
<!-- Node11 -->
<g id="Node000011" class="node">
<title>Node11</title>
<g id="a_Node000011"><a xlink:title=" ">
<polygon fill="#e0e0e0" stroke="#999999" points="479.75,-74.5 441.25,-74.5 441.25,-55.25 479.75,-55.25 479.75,-74.5"/>
<text text-anchor="middle" x="460.5" y="-61" font-family="Helvetica,sans-Serif" font-size="10.00">utility</text>
</a>
</g>
</g>
<!-- Node3&#45;&gt;Node11 -->
<g id="edge15_Node000003_Node000011" class="edge">
<title>Node3&#45;&gt;Node11</title>
<g id="a_edge15_Node000003_Node000011"><a xlink:title=" ">
<path fill="none" stroke="#63b8ff" d="M290.82,-167.84C323.33,-161.71 366.83,-150.28 400.5,-129.75 419.92,-117.91 437.12,-98.11 448.07,-83.69"/>
<polygon fill="#63b8ff" stroke="#63b8ff" points="450.65,-86.1 453.71,-75.95 444.99,-81.97 450.65,-86.1"/>
</a>
</g>
</g>
<!-- Node5 -->
<g id="Node000005" class="node">
<title>Node5</title>
<g id="a_Node000005"><a xlink:title=" ">
<polygon fill="#e0e0e0" stroke="#999999" points="546.5,-19.25 506.5,-19.25 506.5,0 546.5,0 546.5,-19.25"/>
<text text-anchor="middle" x="526.5" y="-5.75" font-family="Helvetica,sans-Serif" font-size="10.00">string</text>
</a>
</g>
</g>
<!-- Node4&#45;&gt;Node5 -->
<g id="edge4_Node000004_Node000005" class="edge">
<title>Node4&#45;&gt;Node5</title>
<g id="a_edge4_Node000004_Node000005"><a xlink:title=" ">
<path fill="none" stroke="#63b8ff" d="M294,-54.84C351.37,-43.93 446.24,-25.89 495.17,-16.58"/>
<polygon fill="#63b8ff" stroke="#63b8ff" points="495.63,-20.06 504.8,-14.75 494.32,-13.18 495.63,-20.06"/>
</a>
</g>
</g>
<!-- Node6&#45;&gt;Node4 -->
<g id="edge6_Node000006_Node000004" class="edge">
<title>Node6&#45;&gt;Node4</title>
<g id="a_edge6_Node000006_Node000004"><a xlink:title=" ">
<path fill="none" stroke="#63b8ff" d="M109.49,-110.09C136.51,-101.37 177.66,-88.09 207.81,-78.36"/>
<polygon fill="#63b8ff" stroke="#63b8ff" points="208.49,-81.82 216.93,-75.42 206.34,-75.16 208.49,-81.82"/>
</a>
</g>
</g>
<!-- Node6&#45;&gt;Node7 -->
<g id="edge7_Node000006_Node000007" class="edge">
<title>Node6&#45;&gt;Node7</title>
<g id="a_edge7_Node000006_Node000007"><a xlink:title=" ">
<path fill="none" stroke="#63b8ff" d="M70.81,-110.09C61.8,-102.47 48.67,-91.37 37.82,-82.2"/>
<polygon fill="#63b8ff" stroke="#63b8ff" points="40.08,-79.53 30.19,-75.75 35.56,-84.88 40.08,-79.53"/>
</a>
</g>
</g>
<!-- Node8&#45;&gt;Node4 -->
<g id="edge9_Node000008_Node000004" class="edge">
<title>Node8&#45;&gt;Node4</title>
<g id="a_edge9_Node000008_Node000004"><a xlink:title=" ">
<path fill="none" stroke="#63b8ff" d="M311.27,-110.09C299.73,-102.21 282.73,-90.61 269.05,-81.27"/>
<polygon fill="#63b8ff" stroke="#63b8ff" points="271.28,-78.55 261.05,-75.81 267.33,-84.33 271.28,-78.55"/>
</a>
</g>
</g>
<!-- Node8&#45;&gt;Node9 -->
<g id="edge10_Node000008_Node000009" class="edge">
<title>Node8&#45;&gt;Node9</title>
<g id="a_edge10_Node000008_Node000009"><a xlink:title=" ">
<path fill="none" stroke="#63b8ff" d="M294.98,-110.09C264.8,-100.85 217.91,-86.5 185.79,-76.67"/>
<polygon fill="#63b8ff" stroke="#63b8ff" points="187.12,-73.42 176.54,-73.84 185.07,-80.12 187.12,-73.42"/>
</a>
</g>
</g>
<!-- Node8&#45;&gt;Node10 -->
<g id="edge11_Node000008_Node000010" class="edge">
<title>Node8&#45;&gt;Node10</title>
<g id="a_edge11_Node000008_Node000010"><a xlink:title=" ">
<path fill="none" stroke="#63b8ff" d="M334.17,-110.09C342.24,-102.55 353.97,-91.6 363.72,-82.48"/>
<polygon fill="#63b8ff" stroke="#63b8ff" points="365.95,-85.19 370.87,-75.81 361.17,-80.08 365.95,-85.19"/>
</a>
</g>
</g>
<!-- Node8&#45;&gt;Node11 -->
<g id="edge12_Node000008_Node000011" class="edge">
<title>Node8&#45;&gt;Node11</title>
<g id="a_edge12_Node000008_Node000011"><a xlink:title=" ">
<path fill="none" stroke="#63b8ff" d="M347.57,-110.09C370.31,-101.19 405.18,-87.54 430.15,-77.76"/>
<polygon fill="#63b8ff" stroke="#63b8ff" points="431.41,-81.02 439.44,-74.12 428.86,-74.51 431.41,-81.02"/>
</a>
</g>
</g>
<!-- Node12&#45;&gt;Node4 -->
<g id="edge18_Node000012_Node000004" class="edge">
<title>Node12&#45;&gt;Node4</title>
<g id="a_edge18_Node000012_Node000004"><a xlink:title=" ">
<path fill="none" stroke="#63b8ff" d="M602.09,-165.31C532.48,-145.84 368.64,-100.03 290.05,-78.05"/>
<polygon fill="#63b8ff" stroke="#63b8ff" points="291.12,-74.72 280.55,-75.4 289.24,-81.46 291.12,-74.72"/>
</a>
</g>
</g>
<!-- Node12&#45;&gt;Node5 -->
<g id="edge23_Node000012_Node000005" class="edge">
<title>Node12&#45;&gt;Node5</title>
<g id="a_edge23_Node000012_Node000005"><a xlink:title=" ">
<path fill="none" stroke="#63b8ff" d="M686.79,-167.69C731.02,-159.66 784.04,-143 762.5,-110.5 716.44,-41 611.35,-19.73 558.33,-13.32"/>
<polygon fill="#63b8ff" stroke="#63b8ff" points="558.77,-9.85 548.45,-12.25 558.01,-16.81 558.77,-9.85"/>
</a>
</g>
</g>
<!-- Node12&#45;&gt;Node10 -->
<g id="edge21_Node000012_Node000010" class="edge">
<title>Node12&#45;&gt;Node10</title>
<g id="a_edge21_Node000012_Node000010"><a xlink:title=" ">
<path fill="none" stroke="#63b8ff" d="M661.39,-165.26C691.07,-153.8 732.21,-132.91 712.5,-110.5 673.09,-65.7 511.47,-81.91 435.11,-74.54"/>
<polygon fill="#63b8ff" stroke="#63b8ff" points="435.91,-71.11 425.56,-73.38 435.07,-78.06 435.91,-71.11"/>
</a>
</g>
</g>
<!-- Node12&#45;&gt;Node11 -->
<g id="edge25_Node000012_Node000011" class="edge">
<title>Node12&#45;&gt;Node11</title>
<g id="a_edge25_Node000012_Node000011"><a xlink:title=" ">
<path fill="none" stroke="#63b8ff" d="M680.51,-165.29C720.4,-155.38 768.41,-137.28 745.5,-110.5 713.09,-72.62 558.69,-66.67 491.67,-65.89"/>
<polygon fill="#63b8ff" stroke="#63b8ff" points="491.76,-62.39 481.73,-65.82 491.71,-69.39 491.76,-62.39"/>
</a>
</g>
</g>
<!-- Node12&#45;&gt;Node13 -->
<g id="edge19_Node000012_Node000013" class="edge">
<title>Node12&#45;&gt;Node13</title>
<g id="a_edge19_Node000012_Node000013"><a xlink:title=" ">
<path fill="none" stroke="#63b8ff" d="M686.62,-166.08C736.02,-158.05 812.57,-145.13 887.96,-130.18"/>
<polygon fill="#63b8ff" stroke="#63b8ff" points="888.47,-133.65 897.59,-128.26 887.1,-126.78 888.47,-133.65"/>
</a>
</g>
</g>
<!-- Node14 -->
<g id="Node000014" class="node">
<title>Node14</title>
<g id="a_Node000014"><a xlink:title=" ">
<polygon fill="#e0e0e0" stroke="#999999" points="881.5,-129.75 835.5,-129.75 835.5,-110.5 881.5,-110.5 881.5,-129.75"/>
<text text-anchor="middle" x="858.5" y="-116.25" font-family="Helvetica,sans-Serif" font-size="10.00">iterator</text>
</a>
</g>
</g>
<!-- Node12&#45;&gt;Node14 -->
<g id="edge20_Node000012_Node000014" class="edge">
<title>Node12&#45;&gt;Node14</title>
<g id="a_edge20_Node000012_Node000014"><a xlink:title=" ">
<path fill="none" stroke="#63b8ff" d="M672.75,-165.28C715.26,-155.18 783.29,-139 824.16,-129.29"/>
<polygon fill="#63b8ff" stroke="#63b8ff" points="824.78,-132.74 833.7,-127.02 823.16,-125.93 824.78,-132.74"/>
</a>
</g>
</g>
<!-- Node15 -->
<g id="Node000015" class="node">
<title>Node15</title>
<g id="a_Node000015"><a xlink:title=" ">
<polygon fill="#e0e0e0" stroke="#999999" points="558.12,-129.75 506.88,-129.75 506.88,-110.5 558.12,-110.5 558.12,-129.75"/>
<text text-anchor="middle" x="532.5" y="-116.25" font-family="Helvetica,sans-Serif" font-size="10.00">sstream</text>
</a>
</g>
</g>
<!-- Node12&#45;&gt;Node15 -->
<g id="edge22_Node000012_Node000015" class="edge">
<title>Node12&#45;&gt;Node15</title>
<g id="a_edge22_Node000012_Node000015"><a xlink:title=" ">
<path fill="none" stroke="#63b8ff" d="M617.2,-165.34C601.52,-157.16 578.15,-144.96 559.92,-135.44"/>
<polygon fill="#63b8ff" stroke="#63b8ff" points="561.71,-132.43 551.23,-130.9 558.47,-138.63 561.71,-132.43"/>
</a>
</g>
</g>
<!-- Node16 -->
<g id="Node000016" class="node">
<title>Node16</title>
<g id="a_Node000016"><a xlink:title=" ">
<polygon fill="#e0e0e0" stroke="#999999" points="641.25,-129.75 575.75,-129.75 575.75,-110.5 641.25,-110.5 641.25,-129.75"/>
<text text-anchor="middle" x="608.5" y="-116.25" font-family="Helvetica,sans-Serif" font-size="10.00">string_view</text>
</a>
</g>
</g>
<!-- Node12&#45;&gt;Node16 -->
<g id="edge24_Node000012_Node000016" class="edge">
<title>Node12&#45;&gt;Node16</title>
<g id="a_edge24_Node000012_Node000016"><a xlink:title=" ">
<path fill="none" stroke="#63b8ff" d="M630.21,-165.58C626.88,-158.76 622.14,-149.06 617.94,-140.45"/>
<polygon fill="#63b8ff" stroke="#63b8ff" points="621.08,-138.92 613.55,-131.47 614.79,-141.99 621.08,-138.92"/>
</a>
</g>
</g>
<!-- Node17 -->
<g id="Node000017" class="node">
<title>Node17</title>
<g id="a_Node000017"><a xlink:title=" ">
<polygon fill="#e0e0e0" stroke="#999999" points="703.38,-129.75 659.62,-129.75 659.62,-110.5 703.38,-110.5 703.38,-129.75"/>
<text text-anchor="middle" x="681.5" y="-116.25" font-family="Helvetica,sans-Serif" font-size="10.00">format</text>
</a>
</g>
</g>
<!-- Node12&#45;&gt;Node17 -->
<g id="edge26_Node000012_Node000017" class="edge">
<title>Node12&#45;&gt;Node17</title>
<g id="a_edge26_Node000012_Node000017"><a xlink:title=" ">
<path fill="none" stroke="#63b8ff" d="M642.26,-165.58C648.69,-158.3 658.01,-147.73 665.96,-138.73"/>
<polygon fill="#63b8ff" stroke="#63b8ff" points="668.58,-141.06 672.57,-131.24 663.33,-136.43 668.58,-141.06"/>
</a>
</g>
</g>
<!-- Node18&#45;&gt;Node3 -->
<g id="edge28_Node000018_Node000003" class="edge">
<title>Node18&#45;&gt;Node3</title>
<g id="a_edge28_Node000018_Node000003"><a xlink:title=" ">
<path fill="none" stroke="#63b8ff" d="M787.79,-226.18C690.43,-219.8 480.75,-204.96 304.5,-185 303.66,-184.9 302.81,-184.81 301.95,-184.71"/>
<polygon fill="#63b8ff" stroke="#63b8ff" points="302.51,-181.25 292.15,-183.48 301.64,-188.19 302.51,-181.25"/>
</a>
</g>
</g>
<!-- Node18&#45;&gt;Node4 -->
<g id="edge29_Node000018_Node000004" class="edge">
<title>Node18&#45;&gt;Node4</title>
<g id="a_edge29_Node000018_Node000004"><a xlink:title=" ">
<path fill="none" stroke="#63b8ff" d="M787.96,-227.38C659.39,-220.98 342.33,-198.45 265.5,-129.75 253.23,-118.78 248.73,-100.26 247.15,-85.98"/>
<polygon fill="#63b8ff" stroke="#63b8ff" points="250.67,-86.07 246.5,-76.33 243.68,-86.55 250.67,-86.07"/>
</a>
</g>
</g>
<!-- Node18&#45;&gt;Node12 -->
<g id="edge30_Node000018_Node000012" class="edge">
<title>Node18&#45;&gt;Node12</title>
<g id="a_edge30_Node000018_Node000012"><a xlink:title=" ">
<path fill="none" stroke="#63b8ff" d="M807.22,-220.59C772.4,-211.68 719,-198.01 680.79,-188.23"/>
<polygon fill="#63b8ff" stroke="#63b8ff" points="681.98,-184.92 671.42,-185.83 680.24,-191.7 681.98,-184.92"/>
</a>
</g>
</g>
<!-- Node18&#45;&gt;Node13 -->
<g id="edge32_Node000018_Node000013" class="edge">
<title>Node18&#45;&gt;Node13</title>
<g id="a_edge32_Node000018_Node000013"><a xlink:title=" ">
<path fill="none" stroke="#63b8ff" d="M863.2,-220.61C878.11,-213.12 897.63,-201.08 909.5,-185 918.88,-172.31 923.65,-155 926.07,-141.61"/>
<polygon fill="#63b8ff" stroke="#63b8ff" points="929.53,-142.14 927.52,-131.74 922.61,-141.13 929.53,-142.14"/>
</a>
</g>
</g>
<!-- Node18&#45;&gt;Node14 -->
<g id="edge33_Node000018_Node000014" class="edge">
<title>Node18&#45;&gt;Node14</title>
<g id="a_edge33_Node000018_Node000014"><a xlink:title=" ">
<path fill="none" stroke="#63b8ff" d="M817.95,-220.6C792.09,-209.6 756.98,-189.52 771.5,-165.75 783.04,-146.86 805.4,-135.64 824.56,-129.17"/>
<polygon fill="#63b8ff" stroke="#63b8ff" points="825.36,-132.58 833.92,-126.33 823.33,-125.88 825.36,-132.58"/>
</a>
</g>
</g>
<!-- Node18&#45;&gt;Node19 -->
<g id="edge31_Node000018_Node000019" class="edge">
<title>Node18&#45;&gt;Node19</title>
<g id="a_edge31_Node000018_Node000019"><a xlink:title=" ">
<path fill="none" stroke="#63b8ff" d="M866.59,-220.59C889.44,-212.02 924.02,-199.06 949.83,-189.38"/>
<polygon fill="#63b8ff" stroke="#63b8ff" points="950.74,-192.77 958.88,-185.98 948.28,-186.22 950.74,-192.77"/>
</a>
</g>
</g>
<!-- Node18&#45;&gt;Node20 -->
<g id="edge34_Node000018_Node000020" class="edge">
<title>Node18&#45;&gt;Node20</title>
<g id="a_edge34_Node000018_Node000020"><a xlink:title=" ">
<path fill="none" stroke="#63b8ff" d="M879.19,-220.52C913.12,-212.1 965.24,-199.13 1019.4,-185.52"/>
<polygon fill="#63b8ff" stroke="#63b8ff" points="1019.94,-188.99 1028.78,-183.16 1018.23,-182.21 1019.94,-188.99"/>
</a>
</g>
</g>
<!-- Node18&#45;&gt;Node21 -->
<g id="edge35_Node000018_Node000021" class="edge">
<title>Node18&#45;&gt;Node21</title>
<g id="a_edge35_Node000018_Node000021"><a xlink:title=" ">
<path fill="none" stroke="#63b8ff" d="M897.22,-221.1C944.99,-213.35 1016.42,-201.04 1087.54,-185.28"/>
<polygon fill="#63b8ff" stroke="#63b8ff" points="1088.02,-188.76 1097.01,-183.16 1086.49,-181.93 1088.02,-188.76"/>
</a>
</g>
</g>
<!-- Node22 -->
<g id="Node000022" class="node">
<title>Node22</title>
<g id="a_Node000022"><a xlink:title=" ">
<polygon fill="#e0e0e0" stroke="#999999" points="836.75,-185 780.25,-185 780.25,-165.75 836.75,-165.75 836.75,-185"/>
<text text-anchor="middle" x="808.5" y="-171.5" font-family="Helvetica,sans-Serif" font-size="10.00">typeindex</text>
</a>
</g>
</g>
<!-- Node18&#45;&gt;Node22 -->
<g id="edge36_Node000018_Node000022" class="edge">
<title>Node18&#45;&gt;Node22</title>
<g id="a_edge36_Node000018_Node000022"><a xlink:title=" ">
<path fill="none" stroke="#63b8ff" d="M836.89,-220.83C832.38,-213.78 825.91,-203.65 820.29,-194.83"/>
<polygon fill="#63b8ff" stroke="#63b8ff" points="823.38,-193.18 815.05,-186.63 817.48,-196.95 823.38,-193.18"/>
</a>
</g>
</g>
<!-- Node23 -->
<g id="Node000023" class="node">
<title>Node23</title>
<g id="a_Node000023"><a xlink:title=" ">
<polygon fill="#e0e0e0" stroke="#999999" points="900.12,-185 854.88,-185 854.88,-165.75 900.12,-165.75 900.12,-185"/>
<text text-anchor="middle" x="877.5" y="-171.5" font-family="Helvetica,sans-Serif" font-size="10.00">variant</text>
</a>
</g>
</g>
<!-- Node18&#45;&gt;Node23 -->
<g id="edge37_Node000018_Node000023" class="edge">
<title>Node18&#45;&gt;Node23</title>
<g id="a_edge37_Node000018_Node000023"><a xlink:title=" ">
<path fill="none" stroke="#63b8ff" d="M848.28,-220.83C852.91,-213.78 859.57,-203.65 865.37,-194.83"/>
<polygon fill="#63b8ff" stroke="#63b8ff" points="868.2,-196.9 870.76,-186.62 862.35,-193.06 868.2,-196.9"/>
</a>
</g>
</g>
<!-- Node18&#45;&gt;Node24 -->
<g id="edge38_Node000018_Node000024" class="edge">
<title>Node18&#45;&gt;Node24</title>
<g id="a_edge38_Node000018_Node000024"><a xlink:title=" ">
<path fill="none" stroke="#63b8ff" d="M897.4,-224.06C957.47,-217.45 1056.77,-205.03 1150.53,-185.4"/>
<polygon fill="#63b8ff" stroke="#63b8ff" points="1151.1,-188.86 1160.15,-183.35 1149.64,-182.01 1151.1,-188.86"/>
</a>
</g>
</g>
</g>
</svg>

<g id="navigator" transform="translate(0 0)" fill="#404254">
  <rect fill="#f2f5e9" fill-opacity="0.5" stroke="#606060" stroke-width=".5" x="0" y="0" width="60" height="60"/>
  <use id="zoomplus" xlink:href="#zoomPlus" x="17" y="9" onmousedown="handleZoom(evt,'in')"/>
  <use id="zoomminus" xlink:href="#zoomMin" x="42" y="9" onmousedown="handleZoom(evt,'out')"/>
  <use id="reset" xlink:href="#resetDef" x="30" y="36" onmousedown="handleReset()"/>
   <use id="arrowup" xlink:href="#arrowUp" x="0" y="0" onmousedown="handlePan(0,-1)"/>
  <use id="arrowright" xlink:href="#arrowRight" x="0" y="0" onmousedown="handlePan(1,0)"/>
  <use id="arrowdown" xlink:href="#arrowDown" x="0" y="0" onmousedown="handlePan(0,1)"/>
  <use id="arrowleft" xlink:href="#arrowLeft" x="0" y="0" onmousedown="handlePan(-1,0)"/>
</g>
<svg viewBox="0 0 15 15" width="100%" height="30px" preserveAspectRatio="xMaxYMin meet">
 <g id="arrow_out" transform="scale(0.3 0.3)">
  <a xlink:href="gtest_8hpp__incl_org.svg" target="_base">
   <rect id="button" ry="5" rx="5" y="6" x="6" height="38" width="38"
        fill="#f2f5e9" fill-opacity="0.5" stroke="#606060" stroke-width="1.0"/>
   <path id="arrow"
     d="M 11.500037,31.436501 C 11.940474,20.09759 22.043105,11.32322 32.158766,21.979434 L 37.068811,17.246167 C 37.068811,17.246167 37.088388,32 37.088388,32 L 22.160133,31.978069 C 22.160133,31.978069 26.997745,27.140456 26.997745,27.140456 C 18.528582,18.264221 13.291696,25.230495 11.500037,31.436501 z"
     style="fill:#404040;"/>
  </a>
 </g>
</svg>

<style type='text/css'>
<![CDATA[
[data-mouse-over-selected='false'] { opacity: 0.7; }
[data-mouse-over-selected='true']  { opacity: 1.0; }
]]>
</style>
<script type="application/ecmascript"><![CDATA[
document.addEventListener('DOMContentLoaded', (event) => {
  highlightEdges();
  highlightAdjacentNodes();
});
]]></script>
</svg>
