<?xml version="1.0" encoding="UTF-8" standalone="no"?>
<!DOCTYPE svg PUBLIC "-//W3C//DTD SVG 1.1//EN"
 "http://www.w3.org/Graphics/SVG/1.1/DTD/svg11.dtd">
<!-- Generated by graphviz version 12.1.2 (20240928.0832)
 -->
<!-- Title: mimic++/adapters/gtest.hpp Pages: 1 -->
<svg width="1276pt" height="359pt"
 viewBox="0.00 0.00 1276.00 358.75" xmlns="http://www.w3.org/2000/svg" xmlns:xlink="http://www.w3.org/1999/xlink">
<g id="graph0" class="graph" transform="scale(1 1) rotate(0) translate(4 354.75)">
<title>mimic++/adapters/gtest.hpp</title>
<!-- Node1 -->
<g id="Node000001" class="node">
<title>Node1</title>
<g id="a_Node000001"><a xlink:title=" ">
<polygon fill="#999999" stroke="#666666" points="1015.25,-350.75 877.75,-350.75 877.75,-331.5 1015.25,-331.5 1015.25,-350.75"/>
<text text-anchor="middle" x="946.5" y="-337.25" font-family="Helvetica,sans-Serif" font-size="10.00">mimic++/adapters/gtest.hpp</text>
</a>
</g>
</g>
<!-- Node2 -->
<g id="Node000002" class="node">
<title>Node2</title>
<g id="a_Node000002"><a xlink:href="../../da/dd9/_reporter_8hpp.html" target="_top" xlink:title=" ">
<polygon fill="white" stroke="#666666" points="1002.5,-295.5 890.5,-295.5 890.5,-276.25 1002.5,-276.25 1002.5,-295.5"/>
<text text-anchor="middle" x="946.5" y="-282" font-family="Helvetica,sans-Serif" font-size="10.00">mimic++/Reporter.hpp</text>
</a>
</g>
</g>
<!-- Node1&#45;&gt;Node2 -->
<g id="edge1_Node000001_Node000002" class="edge">
<title>Node1&#45;&gt;Node2</title>
<g id="a_edge1_Node000001_Node000002"><a xlink:title=" ">
<path fill="none" stroke="#63b8ff" d="M946.5,-331.33C946.5,-324.82 946.5,-315.67 946.5,-307.37"/>
<polygon fill="#63b8ff" stroke="#63b8ff" points="950,-307.37 946.5,-297.37 943,-307.37 950,-307.37"/>
</a>
</g>
</g>
<!-- Node3 -->
<g id="Node000003" class="node">
<title>Node3</title>
<g id="a_Node000003"><a xlink:href="../../dc/d44/_call_8hpp.html" target="_top" xlink:title=" ">
<polygon fill="white" stroke="#666666" points="349.38,-185 257.62,-185 257.62,-165.75 349.38,-165.75 349.38,-185"/>
<text text-anchor="middle" x="303.5" y="-171.5" font-family="Helvetica,sans-Serif" font-size="10.00">mimic++/Call.hpp</text>
</a>
</g>
</g>
<!-- Node2&#45;&gt;Node3 -->
<g id="edge2_Node000002_Node000003" class="edge">
<title>Node2&#45;&gt;Node3</title>
<g id="a_edge2_Node000002_Node000003"><a xlink:title=" ">
<path fill="none" stroke="#63b8ff" d="M892.51,-275.76C772.32,-255.48 483.61,-206.77 360.59,-186.01"/>
<polygon fill="#63b8ff" stroke="#63b8ff" points="361.49,-182.61 351.05,-184.4 360.33,-189.51 361.49,-182.61"/>
</a>
</g>
</g>
<!-- Node4 -->
<g id="Node000004" class="node">
<title>Node4</title>
<g id="a_Node000004"><a xlink:href="../../df/dde/_fwd_8hpp.html" target="_top" xlink:title=" ">
<polygon fill="white" stroke="#666666" points="227.5,-74.5 133.5,-74.5 133.5,-55.25 227.5,-55.25 227.5,-74.5"/>
<text text-anchor="middle" x="180.5" y="-61" font-family="Helvetica,sans-Serif" font-size="10.00">mimic++/Fwd.hpp</text>
</a>
</g>
</g>
<!-- Node2&#45;&gt;Node4 -->
<g id="edge17_Node000002_Node000004" class="edge">
<title>Node2&#45;&gt;Node4</title>
<g id="a_edge17_Node000002_Node000004"><a xlink:title=" ">
<path fill="none" stroke="#63b8ff" d="M890.03,-284.74C706.89,-282.96 135.05,-266.37 28.5,-129.75 23.24,-123 23.37,-117.35 28.5,-110.5 40.05,-95.07 84.52,-83.16 122.4,-75.54"/>
<polygon fill="#63b8ff" stroke="#63b8ff" points="122.75,-79.04 131.9,-73.7 121.41,-72.16 122.75,-79.04"/>
</a>
</g>
</g>
<!-- Node9 -->
<g id="Node000009" class="node">
<title>Node9</title>
<g id="a_Node000009"><a xlink:title=" ">
<polygon fill="#e0e0e0" stroke="#999999" points="111.62,-74.5 63.38,-74.5 63.38,-55.25 111.62,-55.25 111.62,-74.5"/>
<text text-anchor="middle" x="87.5" y="-61" font-family="Helvetica,sans-Serif" font-size="10.00">cassert</text>
</a>
</g>
</g>
<!-- Node2&#45;&gt;Node9 -->
<g id="edge42_Node000002_Node000009" class="edge">
<title>Node2&#45;&gt;Node9</title>
<g id="a_edge42_Node000002_Node000009"><a xlink:title=" ">
<path fill="none" stroke="#63b8ff" d="M890.27,-283.69C742.17,-280.21 343.96,-268.44 215.5,-240.25 118.2,-218.9 57.66,-222.17 20.5,-129.75 17.31,-121.81 16.46,-118.04 20.5,-110.5 27.63,-97.18 40.69,-87.15 53.39,-80.01"/>
<polygon fill="#63b8ff" stroke="#63b8ff" points="54.73,-83.26 62.04,-75.59 51.54,-77.03 54.73,-83.26"/>
</a>
</g>
</g>
<!-- Node13 -->
<g id="Node000013" class="node">
<title>Node13</title>
<g id="a_Node000013"><a xlink:href="../../da/dab/_printer_8hpp.html" target="_top" xlink:title=" ">
<polygon fill="white" stroke="#666666" points="711.38,-185 607.62,-185 607.62,-165.75 711.38,-165.75 711.38,-185"/>
<text text-anchor="middle" x="659.5" y="-171.5" font-family="Helvetica,sans-Serif" font-size="10.00">mimic++/Printer.hpp</text>
</a>
</g>
</g>
<!-- Node2&#45;&gt;Node13 -->
<g id="edge18_Node000002_Node000013" class="edge">
<title>Node2&#45;&gt;Node13</title>
<g id="a_edge18_Node000002_Node000013"><a xlink:title=" ">
<path fill="none" stroke="#63b8ff" d="M890,-282.23C843.52,-278.06 777.12,-267.4 725.5,-240.25 704.2,-229.05 685.07,-208.85 672.96,-194.16"/>
<polygon fill="#63b8ff" stroke="#63b8ff" points="675.96,-192.3 667,-186.64 670.47,-196.65 675.96,-192.3"/>
</a>
</g>
</g>
<!-- Node14 -->
<g id="Node000014" class="node">
<title>Node14</title>
<g id="a_Node000014"><a xlink:title=" ">
<polygon fill="#e0e0e0" stroke="#999999" points="897.5,-129.75 839.5,-129.75 839.5,-110.5 897.5,-110.5 897.5,-129.75"/>
<text text-anchor="middle" x="868.5" y="-116.25" font-family="Helvetica,sans-Serif" font-size="10.00">functional</text>
</a>
</g>
</g>
<!-- Node2&#45;&gt;Node14 -->
<g id="edge44_Node000002_Node000014" class="edge">
<title>Node2&#45;&gt;Node14</title>
<g id="a_edge44_Node000002_Node000014"><a xlink:title=" ">
<path fill="none" stroke="#63b8ff" d="M914.14,-275.89C892.33,-268.72 863.77,-257.06 842.5,-240.25 818.51,-221.29 811.1,-214.03 801.5,-185 798.82,-176.88 797.46,-173.29 801.5,-165.75 808.63,-152.43 821.69,-142.4 834.39,-135.26"/>
<polygon fill="#63b8ff" stroke="#63b8ff" points="835.73,-138.51 843.04,-130.84 832.54,-132.28 835.73,-138.51"/>
</a>
</g>
</g>
<!-- Node19 -->
<g id="Node000019" class="node">
<title>Node19</title>
<g id="a_Node000019"><a xlink:href="../../d0/d3b/_reports_8hpp.html" target="_top" xlink:title=" ">
<polygon fill="white" stroke="#666666" points="960,-240.25 851,-240.25 851,-221 960,-221 960,-240.25"/>
<text text-anchor="middle" x="905.5" y="-226.75" font-family="Helvetica,sans-Serif" font-size="10.00">mimic++/Reports.hpp</text>
</a>
</g>
</g>
<!-- Node2&#45;&gt;Node19 -->
<g id="edge29_Node000002_Node000019" class="edge">
<title>Node2&#45;&gt;Node19</title>
<g id="a_edge29_Node000002_Node000019"><a xlink:title=" ">
<path fill="none" stroke="#63b8ff" d="M939.73,-276.08C934.18,-268.88 926.16,-258.46 919.27,-249.51"/>
<polygon fill="#63b8ff" stroke="#63b8ff" points="922.21,-247.6 913.34,-241.81 916.67,-251.87 922.21,-247.6"/>
</a>
</g>
</g>
<!-- Node20 -->
<g id="Node000020" class="node">
<title>Node20</title>
<g id="a_Node000020"><a xlink:title=" ">
<polygon fill="#e0e0e0" stroke="#999999" points="1075.38,-185 1019.62,-185 1019.62,-165.75 1075.38,-165.75 1075.38,-185"/>
<text text-anchor="middle" x="1047.5" y="-171.5" font-family="Helvetica,sans-Serif" font-size="10.00">algorithm</text>
</a>
</g>
</g>
<!-- Node2&#45;&gt;Node20 -->
<g id="edge41_Node000002_Node000020" class="edge">
<title>Node2&#45;&gt;Node20</title>
<g id="a_edge41_Node000002_Node000020"><a xlink:title=" ">
<path fill="none" stroke="#63b8ff" d="M954.77,-276C971.49,-258.03 1009.58,-217.11 1031.39,-193.69"/>
<polygon fill="#63b8ff" stroke="#63b8ff" points="1033.84,-196.19 1038.09,-186.48 1028.71,-191.42 1033.84,-196.19"/>
</a>
</g>
</g>
<!-- Node21 -->
<g id="Node000021" class="node">
<title>Node21</title>
<g id="a_Node000021"><a xlink:title=" ">
<polygon fill="#e0e0e0" stroke="#999999" points="1143.38,-185 1093.62,-185 1093.62,-165.75 1143.38,-165.75 1143.38,-185"/>
<text text-anchor="middle" x="1118.5" y="-171.5" font-family="Helvetica,sans-Serif" font-size="10.00">optional</text>
</a>
</g>
</g>
<!-- Node2&#45;&gt;Node21 -->
<g id="edge46_Node000002_Node000021" class="edge">
<title>Node2&#45;&gt;Node21</title>
<g id="a_edge46_Node000002_Node000021"><a xlink:title=" ">
<path fill="none" stroke="#63b8ff" d="M960.87,-275.81C990.54,-257.1 1058.81,-214.03 1095,-191.2"/>
<polygon fill="#63b8ff" stroke="#63b8ff" points="1096.42,-194.44 1103.01,-186.14 1092.69,-188.52 1096.42,-194.44"/>
</a>
</g>
</g>
<!-- Node22 -->
<g id="Node000022" class="node">
<title>Node22</title>
<g id="a_Node000022"><a xlink:title=" ">
<polygon fill="#e0e0e0" stroke="#999999" points="1207.12,-185 1161.88,-185 1161.88,-165.75 1207.12,-165.75 1207.12,-185"/>
<text text-anchor="middle" x="1184.5" y="-171.5" font-family="Helvetica,sans-Serif" font-size="10.00">ranges</text>
</a>
</g>
</g>
<!-- Node2&#45;&gt;Node22 -->
<g id="edge47_Node000002_Node000022" class="edge">
<title>Node2&#45;&gt;Node22</title>
<g id="a_edge47_Node000002_Node000022"><a xlink:title=" ">
<path fill="none" stroke="#63b8ff" d="M966.84,-275.9C987.07,-266.94 1018.98,-252.76 1046.5,-240.25 1066.83,-231.01 1120.57,-206.08 1154.67,-190.24"/>
<polygon fill="#63b8ff" stroke="#63b8ff" points="1156.02,-193.47 1163.61,-186.09 1153.07,-187.12 1156.02,-193.47"/>
</a>
</g>
</g>
<!-- Node25 -->
<g id="Node000025" class="node">
<title>Node25</title>
<g id="a_Node000025"><a xlink:title=" ">
<polygon fill="#e0e0e0" stroke="#999999" points="1268,-185 1225,-185 1225,-165.75 1268,-165.75 1268,-185"/>
<text text-anchor="middle" x="1246.5" y="-171.5" font-family="Helvetica,sans-Serif" font-size="10.00">vector</text>
</a>
</g>
</g>
<!-- Node2&#45;&gt;Node25 -->
<g id="edge48_Node000002_Node000025" class="edge">
<title>Node2&#45;&gt;Node25</title>
<g id="a_edge48_Node000002_Node000025"><a xlink:title=" ">
<path fill="none" stroke="#63b8ff" d="M977.2,-275.78C1004.6,-267.39 1045.66,-254.17 1080.5,-240.25 1099.19,-232.78 1102.89,-228.67 1121.5,-221 1152.35,-208.28 1188.3,-195.67 1213.71,-187.12"/>
<polygon fill="#63b8ff" stroke="#63b8ff" points="1214.77,-190.46 1223.15,-183.97 1212.55,-183.82 1214.77,-190.46"/>
</a>
</g>
</g>
<!-- Node26 -->
<g id="Node000026" class="node">
<title>Node26</title>
<g id="a_Node000026"><a xlink:title=" ">
<polygon fill="#e0e0e0" stroke="#999999" points="1188.12,-240.25 1130.88,-240.25 1130.88,-221 1188.12,-221 1188.12,-240.25"/>
<text text-anchor="middle" x="1159.5" y="-226.75" font-family="Helvetica,sans-Serif" font-size="10.00">exception</text>
</a>
</g>
</g>
<!-- Node2&#45;&gt;Node26 -->
<g id="edge43_Node000002_Node000026" class="edge">
<title>Node2&#45;&gt;Node26</title>
<g id="a_edge43_Node000002_Node000026"><a xlink:title=" ">
<path fill="none" stroke="#63b8ff" d="M982.63,-275.84C1020.55,-266.36 1080.01,-251.5 1119.36,-241.66"/>
<polygon fill="#63b8ff" stroke="#63b8ff" points="1120.07,-245.09 1128.92,-239.27 1118.37,-238.3 1120.07,-245.09"/>
</a>
</g>
</g>
<!-- Node27 -->
<g id="Node000027" class="node">
<title>Node27</title>
<g id="a_Node000027"><a xlink:title=" ">
<polygon fill="#e0e0e0" stroke="#999999" points="1256.75,-240.25 1206.25,-240.25 1206.25,-221 1256.75,-221 1256.75,-240.25"/>
<text text-anchor="middle" x="1231.5" y="-226.75" font-family="Helvetica,sans-Serif" font-size="10.00">memory</text>
</a>
</g>
</g>
<!-- Node2&#45;&gt;Node27 -->
<g id="edge45_Node000002_Node000027" class="edge">
<title>Node2&#45;&gt;Node27</title>
<g id="a_edge45_Node000002_Node000027"><a xlink:title=" ">
<path fill="none" stroke="#63b8ff" d="M1002.55,-276.1C1051.08,-268.24 1123.38,-255.89 1194.92,-240.69"/>
<polygon fill="#63b8ff" stroke="#63b8ff" points="1195.4,-244.16 1204.45,-238.64 1193.94,-237.32 1195.4,-244.16"/>
</a>
</g>
</g>
<!-- Node3&#45;&gt;Node4 -->
<g id="edge3_Node000003_Node000004" class="edge">
<title>Node3&#45;&gt;Node4</title>
<g id="a_edge3_Node000003_Node000004"><a xlink:title=" ">
<path fill="none" stroke="#63b8ff" d="M267.32,-165.25C246.84,-158.45 222.08,-147.26 205.5,-129.75 194.09,-117.7 187.69,-99.85 184.23,-86.07"/>
<polygon fill="#63b8ff" stroke="#63b8ff" points="187.66,-85.38 182.14,-76.34 180.82,-86.85 187.66,-85.38"/>
</a>
</g>
</g>
<!-- Node6 -->
<g id="Node000006" class="node">
<title>Node6</title>
<g id="a_Node000006"><a xlink:href="../../d8/d32/_type_traits_8hpp.html" target="_top" xlink:title=" ">
<polygon fill="white" stroke="#666666" points="158,-129.75 37,-129.75 37,-110.5 158,-110.5 158,-129.75"/>
<text text-anchor="middle" x="97.5" y="-116.25" font-family="Helvetica,sans-Serif" font-size="10.00">mimic++/TypeTraits.hpp</text>
</a>
</g>
</g>
<!-- Node3&#45;&gt;Node6 -->
<g id="edge5_Node000003_Node000006" class="edge">
<title>Node3&#45;&gt;Node6</title>
<g id="a_edge5_Node000003_Node000006"><a xlink:title=" ">
<path fill="none" stroke="#63b8ff" d="M268.55,-165.34C234.08,-156.43 181.19,-142.76 143.35,-132.98"/>
<polygon fill="#63b8ff" stroke="#63b8ff" points="144.64,-129.7 134.08,-130.58 142.89,-136.47 144.64,-129.7"/>
</a>
</g>
</g>
<!-- Node7 -->
<g id="Node000007" class="node">
<title>Node7</title>
<g id="a_Node000007"><a xlink:title=" ">
<polygon fill="#e0e0e0" stroke="#999999" points="37,-74.5 0,-74.5 0,-55.25 37,-55.25 37,-74.5"/>
<text text-anchor="middle" x="18.5" y="-61" font-family="Helvetica,sans-Serif" font-size="10.00">tuple</text>
</a>
</g>
</g>
<!-- Node3&#45;&gt;Node7 -->
<g id="edge15_Node000003_Node000007" class="edge">
<title>Node3&#45;&gt;Node7</title>
<g id="a_edge15_Node000003_Node000007"><a xlink:title=" ">
<path fill="none" stroke="#63b8ff" d="M257.35,-173.24C187.52,-170.5 59.79,-161.22 28.5,-129.75 17.24,-118.42 15.41,-99.95 16,-85.78"/>
<polygon fill="#63b8ff" stroke="#63b8ff" points="19.45,-86.49 16.84,-76.22 12.48,-85.88 19.45,-86.49"/>
</a>
</g>
</g>
<!-- Node8 -->
<g id="Node000008" class="node">
<title>Node8</title>
<g id="a_Node000008"><a xlink:href="../../d4/d2c/_utility_8hpp.html" target="_top" xlink:title=" ">
<polygon fill="white" stroke="#666666" points="314.5,-129.75 214.5,-129.75 214.5,-110.5 314.5,-110.5 314.5,-129.75"/>
<text text-anchor="middle" x="264.5" y="-116.25" font-family="Helvetica,sans-Serif" font-size="10.00">mimic++/Utility.hpp</text>
</a>
</g>
</g>
<!-- Node3&#45;&gt;Node8 -->
<g id="edge8_Node000003_Node000008" class="edge">
<title>Node3&#45;&gt;Node8</title>
<g id="a_edge8_Node000003_Node000008"><a xlink:title=" ">
<path fill="none" stroke="#63b8ff" d="M297.06,-165.58C291.84,-158.46 284.31,-148.18 277.81,-139.3"/>
<polygon fill="#63b8ff" stroke="#63b8ff" points="280.71,-137.33 271.97,-131.33 275.06,-141.47 280.71,-137.33"/>
</a>
</g>
</g>
<!-- Node11 -->
<g id="Node000011" class="node">
<title>Node11</title>
<g id="a_Node000011"><a xlink:title=" ">
<polygon fill="#e0e0e0" stroke="#999999" points="395.62,-74.5 311.38,-74.5 311.38,-55.25 395.62,-55.25 395.62,-74.5"/>
<text text-anchor="middle" x="353.5" y="-61" font-family="Helvetica,sans-Serif" font-size="10.00">source_location</text>
</a>
</g>
</g>
<!-- Node3&#45;&gt;Node11 -->
<g id="edge14_Node000003_Node000011" class="edge">
<title>Node3&#45;&gt;Node11</title>
<g id="a_edge14_Node000003_Node000011"><a xlink:title=" ">
<path fill="none" stroke="#63b8ff" d="M307.59,-165.5C315.65,-148.01 333.73,-108.77 344.65,-85.09"/>
<polygon fill="#63b8ff" stroke="#63b8ff" points="347.71,-86.8 348.72,-76.25 341.35,-83.87 347.71,-86.8"/>
</a>
</g>
</g>
<!-- Node12 -->
<g id="Node000012" class="node">
<title>Node12</title>
<g id="a_Node000012"><a xlink:title=" ">
<polygon fill="#e0e0e0" stroke="#999999" points="451.75,-74.5 413.25,-74.5 413.25,-55.25 451.75,-55.25 451.75,-74.5"/>
<text text-anchor="middle" x="432.5" y="-61" font-family="Helvetica,sans-Serif" font-size="10.00">utility</text>
</a>
</g>
</g>
<!-- Node3&#45;&gt;Node12 -->
<g id="edge16_Node000003_Node000012" class="edge">
<title>Node3&#45;&gt;Node12</title>
<g id="a_edge16_Node000003_Node000012"><a xlink:title=" ">
<path fill="none" stroke="#63b8ff" d="M314.06,-165.5C335.7,-147.3 385.37,-105.52 413.02,-82.26"/>
<polygon fill="#63b8ff" stroke="#63b8ff" points="415.24,-84.97 420.64,-75.85 410.73,-79.61 415.24,-84.97"/>
</a>
</g>
</g>
<!-- Node5 -->
<g id="Node000005" class="node">
<title>Node5</title>
<g id="a_Node000005"><a xlink:title=" ">
<polygon fill="#e0e0e0" stroke="#999999" points="486.5,-19.25 446.5,-19.25 446.5,0 486.5,0 486.5,-19.25"/>
<text text-anchor="middle" x="466.5" y="-5.75" font-family="Helvetica,sans-Serif" font-size="10.00">string</text>
</a>
</g>
</g>
<!-- Node4&#45;&gt;Node5 -->
<g id="edge4_Node000004_Node000005" class="edge">
<title>Node4&#45;&gt;Node5</title>
<g id="a_edge4_Node000004_Node000005"><a xlink:title=" ">
<path fill="none" stroke="#63b8ff" d="M227.73,-55.08C286.48,-44.14 385.15,-25.77 435.26,-16.44"/>
<polygon fill="#63b8ff" stroke="#63b8ff" points="435.65,-19.93 444.84,-14.66 434.37,-13.05 435.65,-19.93"/>
</a>
</g>
</g>
<!-- Node6&#45;&gt;Node4 -->
<g id="edge6_Node000006_Node000004" class="edge">
<title>Node6&#45;&gt;Node4</title>
<g id="a_edge6_Node000006_Node000004"><a xlink:title=" ">
<path fill="none" stroke="#63b8ff" d="M111.58,-110.09C123.98,-102.14 142.29,-90.39 156.93,-81"/>
<polygon fill="#63b8ff" stroke="#63b8ff" points="158.55,-84.12 165.08,-75.77 154.77,-78.22 158.55,-84.12"/>
</a>
</g>
</g>
<!-- Node6&#45;&gt;Node7 -->
<g id="edge7_Node000006_Node000007" class="edge">
<title>Node6&#45;&gt;Node7</title>
<g id="a_edge7_Node000006_Node000007"><a xlink:title=" ">
<path fill="none" stroke="#63b8ff" d="M84.1,-110.09C72.41,-102.21 55.2,-90.61 41.34,-81.27"/>
<polygon fill="#63b8ff" stroke="#63b8ff" points="43.47,-78.49 33.22,-75.8 39.56,-84.29 43.47,-78.49"/>
</a>
</g>
</g>
<!-- Node8&#45;&gt;Node4 -->
<g id="edge9_Node000008_Node000004" class="edge">
<title>Node8&#45;&gt;Node4</title>
<g id="a_edge9_Node000008_Node000004"><a xlink:title=" ">
<path fill="none" stroke="#63b8ff" d="M250.25,-110.09C237.7,-102.14 219.17,-90.39 204.36,-81"/>
<polygon fill="#63b8ff" stroke="#63b8ff" points="206.42,-78.16 196.1,-75.76 202.67,-84.07 206.42,-78.16"/>
</a>
</g>
</g>
<!-- Node8&#45;&gt;Node9 -->
<g id="edge10_Node000008_Node000009" class="edge">
<title>Node8&#45;&gt;Node9</title>
<g id="a_edge10_Node000008_Node000009"><a xlink:title=" ">
<path fill="none" stroke="#63b8ff" d="M234.47,-110.09C203.59,-100.8 155.52,-86.34 122.83,-76.5"/>
<polygon fill="#63b8ff" stroke="#63b8ff" points="124,-73.2 113.41,-73.67 121.98,-79.9 124,-73.2"/>
</a>
</g>
</g>
<!-- Node10 -->
<g id="Node000010" class="node">
<title>Node10</title>
<g id="a_Node000010"><a xlink:title=" ">
<polygon fill="#e0e0e0" stroke="#999999" points="293.62,-74.5 245.38,-74.5 245.38,-55.25 293.62,-55.25 293.62,-74.5"/>
<text text-anchor="middle" x="269.5" y="-61" font-family="Helvetica,sans-Serif" font-size="10.00">cstddef</text>
</a>
</g>
</g>
<!-- Node8&#45;&gt;Node10 -->
<g id="edge11_Node000008_Node000010" class="edge">
<title>Node8&#45;&gt;Node10</title>
<g id="a_edge11_Node000008_Node000010"><a xlink:title=" ">
<path fill="none" stroke="#63b8ff" d="M265.33,-110.33C265.94,-103.74 266.82,-94.46 267.6,-86.07"/>
<polygon fill="#63b8ff" stroke="#63b8ff" points="271.06,-86.65 268.51,-76.37 264.1,-86 271.06,-86.65"/>
</a>
</g>
</g>
<!-- Node8&#45;&gt;Node11 -->
<g id="edge12_Node000008_Node000011" class="edge">
<title>Node8&#45;&gt;Node11</title>
<g id="a_edge12_Node000008_Node000011"><a xlink:title=" ">
<path fill="none" stroke="#63b8ff" d="M279.6,-110.09C293.02,-102.06 312.91,-90.16 328.67,-80.73"/>
<polygon fill="#63b8ff" stroke="#63b8ff" points="330.25,-83.87 337.03,-75.73 326.65,-77.86 330.25,-83.87"/>
</a>
</g>
</g>
<!-- Node8&#45;&gt;Node12 -->
<g id="edge13_Node000008_Node000012" class="edge">
<title>Node8&#45;&gt;Node12</title>
<g id="a_edge13_Node000008_Node000012"><a xlink:title=" ">
<path fill="none" stroke="#63b8ff" d="M293,-110.09C323.35,-100.47 371.19,-85.31 402.21,-75.48"/>
<polygon fill="#63b8ff" stroke="#63b8ff" points="402.89,-78.93 411.37,-72.57 400.78,-72.26 402.89,-78.93"/>
</a>
</g>
</g>
<!-- Node13&#45;&gt;Node4 -->
<g id="edge19_Node000013_Node000004" class="edge">
<title>Node13&#45;&gt;Node4</title>
<g id="a_edge19_Node000013_Node000004"><a xlink:title=" ">
<path fill="none" stroke="#63b8ff" d="M616.23,-165.29C574.32,-156.43 508.99,-142.47 452.5,-129.75 374.3,-112.14 283.73,-90.65 229.33,-77.63"/>
<polygon fill="#63b8ff" stroke="#63b8ff" points="230.3,-74.26 219.76,-75.33 228.67,-81.07 230.3,-74.26"/>
</a>
</g>
</g>
<!-- Node13&#45;&gt;Node5 -->
<g id="edge25_Node000013_Node000005" class="edge">
<title>Node13&#45;&gt;Node5</title>
<g id="a_edge25_Node000013_Node000005"><a xlink:title=" ">
<path fill="none" stroke="#63b8ff" d="M674.65,-165.26C693,-153.03 719.87,-130.54 706.5,-110.5 659.36,-39.82 551.76,-19.08 498.12,-13.06"/>
<polygon fill="#63b8ff" stroke="#63b8ff" points="498.73,-9.6 488.43,-12.08 498.02,-16.56 498.73,-9.6"/>
</a>
</g>
</g>
<!-- Node13&#45;&gt;Node8 -->
<g id="edge20_Node000013_Node000008" class="edge">
<title>Node13&#45;&gt;Node8</title>
<g id="a_edge20_Node000013_Node000008"><a xlink:title=" ">
<path fill="none" stroke="#63b8ff" d="M607.45,-167.36C534.77,-157.56 403.12,-139.81 325.79,-129.39"/>
<polygon fill="#63b8ff" stroke="#63b8ff" points="326.67,-125.97 316.29,-128.11 325.73,-132.91 326.67,-125.97"/>
</a>
</g>
</g>
<!-- Node13&#45;&gt;Node11 -->
<g id="edge23_Node000013_Node000011" class="edge">
<title>Node13&#45;&gt;Node11</title>
<g id="a_edge23_Node000013_Node000011"><a xlink:title=" ">
<path fill="none" stroke="#63b8ff" d="M669.49,-165.67C683.41,-152.51 705.34,-127.32 690.5,-110.5 650.2,-64.81 485.15,-81.92 407.32,-74.55"/>
<polygon fill="#63b8ff" stroke="#63b8ff" points="407.9,-71.09 397.56,-73.39 407.07,-78.05 407.9,-71.09"/>
</a>
</g>
</g>
<!-- Node13&#45;&gt;Node12 -->
<g id="edge27_Node000013_Node000012" class="edge">
<title>Node13&#45;&gt;Node12</title>
<g id="a_edge27_Node000013_Node000012"><a xlink:title=" ">
<path fill="none" stroke="#63b8ff" d="M607.38,-171.8C568.08,-167.61 514.48,-156.89 475.5,-129.75 459.57,-118.66 447.88,-99.61 440.74,-85.19"/>
<polygon fill="#63b8ff" stroke="#63b8ff" points="443.98,-83.86 436.63,-76.23 437.62,-86.78 443.98,-83.86"/>
</a>
</g>
</g>
<!-- Node13&#45;&gt;Node14 -->
<g id="edge21_Node000013_Node000014" class="edge">
<title>Node13&#45;&gt;Node14</title>
<g id="a_edge21_Node000013_Node000014"><a xlink:title=" ">
<path fill="none" stroke="#63b8ff" d="M694.95,-165.34C731.95,-155.92 789.84,-141.17 828.46,-131.33"/>
<polygon fill="#63b8ff" stroke="#63b8ff" points="829,-134.8 837.82,-128.94 827.27,-128.02 829,-134.8"/>
</a>
</g>
</g>
<!-- Node15 -->
<g id="Node000015" class="node">
<title>Node15</title>
<g id="a_Node000015"><a xlink:title=" ">
<polygon fill="#e0e0e0" stroke="#999999" points="821.5,-129.75 775.5,-129.75 775.5,-110.5 821.5,-110.5 821.5,-129.75"/>
<text text-anchor="middle" x="798.5" y="-116.25" font-family="Helvetica,sans-Serif" font-size="10.00">iterator</text>
</a>
</g>
</g>
<!-- Node13&#45;&gt;Node15 -->
<g id="edge22_Node000013_Node000015" class="edge">
<title>Node13&#45;&gt;Node15</title>
<g id="a_edge22_Node000013_Node000015"><a xlink:title=" ">
<path fill="none" stroke="#63b8ff" d="M683.08,-165.34C705.48,-156.76 739.4,-143.77 764.68,-134.08"/>
<polygon fill="#63b8ff" stroke="#63b8ff" points="765.77,-137.41 773.86,-130.57 763.27,-130.88 765.77,-137.41"/>
</a>
</g>
</g>
<!-- Node16 -->
<g id="Node000016" class="node">
<title>Node16</title>
<g id="a_Node000016"><a xlink:title=" ">
<polygon fill="#e0e0e0" stroke="#999999" points="536.12,-129.75 484.88,-129.75 484.88,-110.5 536.12,-110.5 536.12,-129.75"/>
<text text-anchor="middle" x="510.5" y="-116.25" font-family="Helvetica,sans-Serif" font-size="10.00">sstream</text>
</a>
</g>
</g>
<!-- Node13&#45;&gt;Node16 -->
<g id="edge24_Node000013_Node000016" class="edge">
<title>Node13&#45;&gt;Node16</title>
<g id="a_edge24_Node000013_Node000016"><a xlink:title=" ">
<path fill="none" stroke="#63b8ff" d="M634.22,-165.34C610.14,-156.74 573.64,-143.69 546.52,-134"/>
<polygon fill="#63b8ff" stroke="#63b8ff" points="547.92,-130.78 537.33,-130.71 545.56,-137.37 547.92,-130.78"/>
</a>
</g>
</g>
<!-- Node17 -->
<g id="Node000017" class="node">
<title>Node17</title>
<g id="a_Node000017"><a xlink:title=" ">
<polygon fill="#e0e0e0" stroke="#999999" points="619.25,-129.75 553.75,-129.75 553.75,-110.5 619.25,-110.5 619.25,-129.75"/>
<text text-anchor="middle" x="586.5" y="-116.25" font-family="Helvetica,sans-Serif" font-size="10.00">string_view</text>
</a>
</g>
</g>
<!-- Node13&#45;&gt;Node17 -->
<g id="edge26_Node000013_Node000017" class="edge">
<title>Node13&#45;&gt;Node17</title>
<g id="a_edge26_Node000013_Node000017"><a xlink:title=" ">
<path fill="none" stroke="#63b8ff" d="M647.12,-165.34C636.35,-157.49 620.53,-145.95 607.75,-136.62"/>
<polygon fill="#63b8ff" stroke="#63b8ff" points="610.06,-133.98 599.92,-130.92 605.94,-139.64 610.06,-133.98"/>
</a>
</g>
</g>
<!-- Node18 -->
<g id="Node000018" class="node">
<title>Node18</title>
<g id="a_Node000018"><a xlink:title=" ">
<polygon fill="#e0e0e0" stroke="#999999" points="681.38,-129.75 637.62,-129.75 637.62,-110.5 681.38,-110.5 681.38,-129.75"/>
<text text-anchor="middle" x="659.5" y="-116.25" font-family="Helvetica,sans-Serif" font-size="10.00">format</text>
</a>
</g>
</g>
<!-- Node13&#45;&gt;Node18 -->
<g id="edge28_Node000013_Node000018" class="edge">
<title>Node13&#45;&gt;Node18</title>
<g id="a_edge28_Node000013_Node000018"><a xlink:title=" ">
<path fill="none" stroke="#63b8ff" d="M659.5,-165.58C659.5,-159.07 659.5,-149.92 659.5,-141.62"/>
<polygon fill="#63b8ff" stroke="#63b8ff" points="663,-141.62 659.5,-131.62 656,-141.62 663,-141.62"/>
</a>
</g>
</g>
<!-- Node19&#45;&gt;Node3 -->
<g id="edge30_Node000019_Node000003" class="edge">
<title>Node19&#45;&gt;Node3</title>
<g id="a_edge30_Node000019_Node000003"><a xlink:title=" ">
<path fill="none" stroke="#63b8ff" d="M850.75,-224.78C737.26,-214.74 477.3,-191.75 361.27,-181.48"/>
<polygon fill="#63b8ff" stroke="#63b8ff" points="361.61,-178 351.34,-180.61 360.99,-184.97 361.61,-178"/>
</a>
</g>
</g>
<!-- Node19&#45;&gt;Node4 -->
<g id="edge31_Node000019_Node000004" class="edge">
<title>Node19&#45;&gt;Node4</title>
<g id="a_edge31_Node000019_Node000004"><a xlink:title=" ">
<path fill="none" stroke="#63b8ff" d="M880.91,-220.57C855.01,-209.55 819.86,-189.45 834.5,-165.75 853.31,-135.32 887.69,-160.18 906.5,-129.75 911,-122.47 912.39,-116.71 906.5,-110.5 857.17,-58.45 351.42,-80.33 239.24,-74.35"/>
<polygon fill="#63b8ff" stroke="#63b8ff" points="239.56,-70.86 229.32,-73.61 239.04,-77.84 239.56,-70.86"/>
</a>
</g>
</g>
<!-- Node19&#45;&gt;Node13 -->
<g id="edge32_Node000019_Node000013" class="edge">
<title>Node19&#45;&gt;Node13</title>
<g id="a_edge32_Node000019_Node000013"><a xlink:title=" ">
<path fill="none" stroke="#63b8ff" d="M863.49,-220.53C821.74,-211.49 757.59,-197.61 712.39,-187.82"/>
<polygon fill="#63b8ff" stroke="#63b8ff" points="713.33,-184.45 702.82,-185.75 711.85,-191.29 713.33,-184.45"/>
</a>
</g>
</g>
<!-- Node19&#45;&gt;Node14 -->
<g id="edge34_Node000019_Node000014" class="edge">
<title>Node19&#45;&gt;Node14</title>
<g id="a_edge34_Node000019_Node000014"><a xlink:title=" ">
<path fill="none" stroke="#63b8ff" d="M928.19,-220.57C953.06,-209.24 987.53,-188.56 972.5,-165.75 958.44,-144.42 931.83,-133.24 909.05,-127.41"/>
<polygon fill="#63b8ff" stroke="#63b8ff" points="909.91,-124.02 899.39,-125.22 908.37,-130.85 909.91,-124.02"/>
</a>
</g>
</g>
<!-- Node19&#45;&gt;Node15 -->
<g id="edge35_Node000019_Node000015" class="edge">
<title>Node19&#45;&gt;Node15</title>
<g id="a_edge35_Node000019_Node000015"><a xlink:title=" ">
<path fill="none" stroke="#63b8ff" d="M856.51,-220.57C836.09,-214.17 814.21,-203.33 801.5,-185 792.69,-172.29 792.58,-154.49 794.31,-140.91"/>
<polygon fill="#63b8ff" stroke="#63b8ff" points="797.7,-141.83 795.96,-131.38 790.81,-140.63 797.7,-141.83"/>
</a>
</g>
</g>
<!-- Node19&#45;&gt;Node20 -->
<g id="edge33_Node000019_Node000020" class="edge">
<title>Node19&#45;&gt;Node20</title>
<g id="a_edge33_Node000019_Node000020"><a xlink:title=" ">
<path fill="none" stroke="#63b8ff" d="M929.59,-220.59C952.44,-212.02 987.02,-199.06 1012.83,-189.38"/>
<polygon fill="#63b8ff" stroke="#63b8ff" points="1013.74,-192.77 1021.88,-185.98 1011.28,-186.22 1013.74,-192.77"/>
</a>
</g>
</g>
<!-- Node19&#45;&gt;Node21 -->
<g id="edge36_Node000019_Node000021" class="edge">
<title>Node19&#45;&gt;Node21</title>
<g id="a_edge36_Node000019_Node000021"><a xlink:title=" ">
<path fill="none" stroke="#63b8ff" d="M942.19,-220.52C976.12,-212.1 1028.24,-199.13 1082.4,-185.52"/>
<polygon fill="#63b8ff" stroke="#63b8ff" points="1082.94,-188.99 1091.78,-183.16 1081.23,-182.21 1082.94,-188.99"/>
</a>
</g>
</g>
<!-- Node19&#45;&gt;Node22 -->
<g id="edge37_Node000019_Node000022" class="edge">
<title>Node19&#45;&gt;Node22</title>
<g id="a_edge37_Node000019_Node000022"><a xlink:title=" ">
<path fill="none" stroke="#63b8ff" d="M960.22,-221.1C1007.99,-213.35 1079.42,-201.04 1150.54,-185.28"/>
<polygon fill="#63b8ff" stroke="#63b8ff" points="1151.02,-188.76 1160.01,-183.16 1149.49,-181.93 1151.02,-188.76"/>
</a>
</g>
</g>
<!-- Node23 -->
<g id="Node000023" class="node">
<title>Node23</title>
<g id="a_Node000023"><a xlink:title=" ">
<polygon fill="#e0e0e0" stroke="#999999" points="899.75,-185 843.25,-185 843.25,-165.75 899.75,-165.75 899.75,-185"/>
<text text-anchor="middle" x="871.5" y="-171.5" font-family="Helvetica,sans-Serif" font-size="10.00">typeindex</text>
</a>
</g>
</g>
<!-- Node19&#45;&gt;Node23 -->
<g id="edge38_Node000019_Node000023" class="edge">
<title>Node19&#45;&gt;Node23</title>
<g id="a_edge38_Node000019_Node000023"><a xlink:title=" ">
<path fill="none" stroke="#63b8ff" d="M899.89,-220.83C895.38,-213.78 888.91,-203.65 883.29,-194.83"/>
<polygon fill="#63b8ff" stroke="#63b8ff" points="886.38,-193.18 878.05,-186.63 880.48,-196.95 886.38,-193.18"/>
</a>
</g>
</g>
<!-- Node24 -->
<g id="Node000024" class="node">
<title>Node24</title>
<g id="a_Node000024"><a xlink:title=" ">
<polygon fill="#e0e0e0" stroke="#999999" points="963.12,-185 917.88,-185 917.88,-165.75 963.12,-165.75 963.12,-185"/>
<text text-anchor="middle" x="940.5" y="-171.5" font-family="Helvetica,sans-Serif" font-size="10.00">variant</text>
</a>
</g>
</g>
<!-- Node19&#45;&gt;Node24 -->
<g id="edge39_Node000019_Node000024" class="edge">
<title>Node19&#45;&gt;Node24</title>
<g id="a_edge39_Node000019_Node000024"><a xlink:title=" ">
<path fill="none" stroke="#63b8ff" d="M911.28,-220.83C915.91,-213.78 922.57,-203.65 928.37,-194.83"/>
<polygon fill="#63b8ff" stroke="#63b8ff" points="931.2,-196.9 933.76,-186.62 925.35,-193.06 931.2,-196.9"/>
</a>
</g>
</g>
<!-- Node19&#45;&gt;Node25 -->
<g id="edge40_Node000019_Node000025" class="edge">
<title>Node19&#45;&gt;Node25</title>
<g id="a_edge40_Node000019_Node000025"><a xlink:title=" ">
<path fill="none" stroke="#63b8ff" d="M960.4,-224.06C1020.47,-217.45 1119.77,-205.03 1213.53,-185.4"/>
<polygon fill="#63b8ff" stroke="#63b8ff" points="1214.1,-188.86 1223.15,-183.35 1212.64,-182.01 1214.1,-188.86"/>
</a>
</g>
</g>
</g>
</svg>
