<?xml version="1.0" encoding="UTF-8" standalone="no"?>
<!DOCTYPE svg PUBLIC "-//W3C//DTD SVG 1.1//EN"
 "http://www.w3.org/Graphics/SVG/1.1/DTD/svg11.dtd">
<!-- Generated by graphviz version 12.1.1 (20240910.0053)
 -->
<!-- Title: mimic++/Expectation.hpp Pages: 1 -->
<svg width="352pt" height="248pt"
 viewBox="0.00 0.00 352.34 248.25" xmlns="http://www.w3.org/2000/svg" xmlns:xlink="http://www.w3.org/1999/xlink">
<g id="graph0" class="graph" transform="scale(1 1) rotate(0) translate(4 244.25)">
<title>mimic++/Expectation.hpp</title>
<!-- Node1 -->
<g id="Node000001" class="node">
<title>Node1</title>
<g id="a_Node000001"><a xlink:title=" ">
<polygon fill="#999999" stroke="#666666" points="278.5,-240.25 153,-240.25 153,-221 278.5,-221 278.5,-240.25"/>
<text text-anchor="middle" x="215.75" y="-226.75" font-family="Helvetica,sans-Serif" font-size="10.00">mimic++/Expectation.hpp</text>
</a>
</g>
</g>
<!-- Node2 -->
<g id="Node000002" class="node">
<title>Node2</title>
<g id="a_Node000002"><a xlink:href="../../d2/d4f/_expectation_builder_8hpp.html" target="_top" xlink:title=" ">
<polygon fill="white" stroke="#666666" points="330.5,-129.75 175,-129.75 175,-110.5 330.5,-110.5 330.5,-129.75"/>
<text text-anchor="middle" x="252.75" y="-116.25" font-family="Helvetica,sans-Serif" font-size="10.00">mimic++/ExpectationBuilder.hpp</text>
</a>
</g>
</g>
<!-- Node1&#45;&gt;Node2 -->
<g id="edge1_Node000001_Node000002" class="edge">
<title>Node1&#45;&gt;Node2</title>
<g id="a_edge1_Node000001_Node000002"><a xlink:title=" ">
<path fill="none" stroke="#63b8ff" d="M233.41,-212.46C240.14,-204.76 247.07,-195.13 250.75,-185 257.49,-166.44 255.82,-142.81 254.18,-130.13"/>
<polygon fill="#63b8ff" stroke="#63b8ff" points="230.89,-210.03 226.57,-219.71 235.98,-214.84 230.89,-210.03"/>
</a>
</g>
</g>
<!-- Node3 -->
<g id="Node000003" class="node">
<title>Node3</title>
<g id="a_Node000003"><a xlink:href="../../d5/dc5/_mock_8hpp.html" target="_top" xlink:title=" ">
<polygon fill="white" stroke="#666666" points="118.38,-74.5 19.12,-74.5 19.12,-55.25 118.38,-55.25 118.38,-74.5"/>
<text text-anchor="middle" x="68.75" y="-61" font-family="Helvetica,sans-Serif" font-size="10.00">mimic++/Mock.hpp</text>
</a>
</g>
</g>
<!-- Node1&#45;&gt;Node3 -->
<g id="edge10_Node000001_Node000003" class="edge">
<title>Node1&#45;&gt;Node3</title>
<g id="a_edge10_Node000001_Node000003"><a xlink:title=" ">
<path fill="none" stroke="#63b8ff" d="M141.8,-223.89C115.88,-217.94 89.16,-206.54 72.75,-185 47.3,-151.58 59.7,-96.26 65.92,-74.78"/>
<polygon fill="#63b8ff" stroke="#63b8ff" points="140.85,-227.27 151.35,-225.82 142.24,-220.41 140.85,-227.27"/>
</a>
</g>
</g>
<!-- Node5 -->
<g id="Node000005" class="node">
<title>Node5</title>
<g id="a_Node000005"><a xlink:href="../../d0/db9/mimic_09_09_8hpp.html" target="_top" xlink:title=" ">
<polygon fill="white" stroke="#666666" points="279.5,-19.25 166,-19.25 166,0 279.5,0 279.5,-19.25"/>
<text text-anchor="middle" x="222.75" y="-5.75" font-family="Helvetica,sans-Serif" font-size="10.00">mimic++/mimic++.hpp</text>
</a>
</g>
</g>
<!-- Node1&#45;&gt;Node5 -->
<g id="edge11_Node000001_Node000005" class="edge">
<title>Node1&#45;&gt;Node5</title>
<g id="a_edge11_Node000001_Node000005"><a xlink:title=" ">
<path fill="none" stroke="#63b8ff" d="M245.86,-215.43C275.95,-199.38 320.43,-170.12 339.75,-129.75 363.84,-79.42 285.55,-37.42 245.22,-19.69"/>
<polygon fill="#63b8ff" stroke="#63b8ff" points="244.52,-212.18 237.23,-219.86 247.72,-218.41 244.52,-212.18"/>
</a>
</g>
</g>
<!-- Node6 -->
<g id="Node000006" class="node">
<title>Node6</title>
<g id="a_Node000006"><a xlink:href="../../d8/de5/_expectation_policies_8hpp.html" target="_top" xlink:title=" ">
<polygon fill="white" stroke="#666666" points="241.75,-185 81.75,-185 81.75,-165.75 241.75,-165.75 241.75,-185"/>
<text text-anchor="middle" x="161.75" y="-171.5" font-family="Helvetica,sans-Serif" font-size="10.00">mimic++/ExpectationPolicies.hpp</text>
</a>
</g>
</g>
<!-- Node1&#45;&gt;Node6 -->
<g id="edge6_Node000001_Node000006" class="edge">
<title>Node1&#45;&gt;Node6</title>
<g id="a_edge6_Node000001_Node000006"><a xlink:title=" ">
<path fill="none" stroke="#63b8ff" d="M198.71,-212.82C189.49,-203.73 178.46,-192.85 170.86,-185.36"/>
<polygon fill="#63b8ff" stroke="#63b8ff" points="196.18,-215.24 205.76,-219.77 201.09,-210.26 196.18,-215.24"/>
</a>
</g>
</g>
<!-- Node2&#45;&gt;Node3 -->
<g id="edge2_Node000002_Node000003" class="edge">
<title>Node2&#45;&gt;Node3</title>
<g id="a_edge2_Node000002_Node000003"><a xlink:title=" ">
<path fill="none" stroke="#63b8ff" d="M210.65,-106.94C177,-97.2 130.57,-83.77 100.12,-74.95"/>
<polygon fill="#63b8ff" stroke="#63b8ff" points="209.5,-110.25 220.08,-109.67 211.45,-103.53 209.5,-110.25"/>
</a>
</g>
</g>
<!-- Node2&#45;&gt;Node5 -->
<g id="edge5_Node000002_Node000005" class="edge">
<title>Node2&#45;&gt;Node5</title>
<g id="a_edge5_Node000002_Node000005"><a xlink:title=" ">
<path fill="none" stroke="#63b8ff" d="M247.3,-99.43C240.76,-75.76 230.06,-37.05 225.24,-19.63"/>
<polygon fill="#63b8ff" stroke="#63b8ff" points="243.85,-100.08 249.89,-108.79 250.6,-98.22 243.85,-100.08"/>
</a>
</g>
</g>
<!-- Node4 -->
<g id="Node000004" class="node">
<title>Node4</title>
<g id="a_Node000004"><a xlink:href="../../d9/dc3/_interface_mock_8hpp.html" target="_top" xlink:title=" ">
<polygon fill="white" stroke="#666666" points="137.5,-19.25 0,-19.25 0,0 137.5,0 137.5,-19.25"/>
<text text-anchor="middle" x="68.75" y="-5.75" font-family="Helvetica,sans-Serif" font-size="10.00">mimic++/InterfaceMock.hpp</text>
</a>
</g>
</g>
<!-- Node3&#45;&gt;Node4 -->
<g id="edge3_Node000003_Node000004" class="edge">
<title>Node3&#45;&gt;Node4</title>
<g id="a_edge3_Node000003_Node000004"><a xlink:title=" ">
<path fill="none" stroke="#63b8ff" d="M68.75,-43.63C68.75,-35.34 68.75,-26.17 68.75,-19.61"/>
<polygon fill="#63b8ff" stroke="#63b8ff" points="65.25,-43.57 68.75,-53.57 72.25,-43.57 65.25,-43.57"/>
</a>
</g>
</g>
<!-- Node3&#45;&gt;Node5 -->
<g id="edge4_Node000003_Node000005" class="edge">
<title>Node3&#45;&gt;Node5</title>
<g id="a_edge4_Node000003_Node000005"><a xlink:title=" ">
<path fill="none" stroke="#63b8ff" d="M105.46,-51.18C133.5,-41.49 171.45,-28.36 196.5,-19.7"/>
<polygon fill="#63b8ff" stroke="#63b8ff" points="104.61,-47.77 96.3,-54.35 106.9,-54.39 104.61,-47.77"/>
</a>
</g>
</g>
<!-- Node6&#45;&gt;Node2 -->
<g id="edge7_Node000006_Node000002" class="edge">
<title>Node6&#45;&gt;Node2</title>
<g id="a_edge7_Node000006_Node000002"><a xlink:title=" ">
<path fill="none" stroke="#63b8ff" d="M187.04,-159.57C203.15,-150.15 223.49,-138.25 237.24,-130.2"/>
<polygon fill="#63b8ff" stroke="#63b8ff" points="185.36,-156.51 178.49,-164.58 188.89,-162.55 185.36,-156.51"/>
</a>
</g>
</g>
<!-- Node6&#45;&gt;Node3 -->
<g id="edge8_Node000006_Node000003" class="edge">
<title>Node6&#45;&gt;Node3</title>
<g id="a_edge8_Node000006_Node000003"><a xlink:title=" ">
<path fill="none" stroke="#63b8ff" d="M146.78,-156.91C126.73,-133.52 91.88,-92.86 76.47,-74.88"/>
<polygon fill="#63b8ff" stroke="#63b8ff" points="143.99,-159.03 153.15,-164.35 149.3,-154.48 143.99,-159.03"/>
</a>
</g>
</g>
<!-- Node6&#45;&gt;Node5 -->
<g id="edge9_Node000006_Node000005" class="edge">
<title>Node6&#45;&gt;Node5</title>
<g id="a_edge9_Node000006_Node000005"><a xlink:title=" ">
<path fill="none" stroke="#63b8ff" d="M160.7,-154.26C160.6,-141.47 161.5,-124.71 165.75,-110.5 176.67,-73.97 203.03,-36.35 215.7,-19.61"/>
<polygon fill="#63b8ff" stroke="#63b8ff" points="157.19,-154.08 161.01,-163.96 164.19,-153.86 157.19,-154.08"/>
</a>
</g>
</g>
</g>
</svg>
