<?xml version="1.0" encoding="UTF-8" standalone="no"?>
<!DOCTYPE svg PUBLIC "-//W3C//DTD SVG 1.1//EN"
 "http://www.w3.org/Graphics/SVG/1.1/DTD/svg11.dtd">
<!-- Generated by graphviz version 12.1.2 (20240928.0832)
 -->
<!-- Title: mimic++/Expectation.hpp Pages: 1 -->
<svg width="436pt" height="304pt"
 viewBox="0.00 0.00 436.07 303.50" xmlns="http://www.w3.org/2000/svg" xmlns:xlink="http://www.w3.org/1999/xlink">

<svg id="main" version="1.1" xmlns="http://www.w3.org/2000/svg" xmlns:xlink="http://www.w3.org/1999/xlink" xml:space="preserve">

<style type="text/css"><![CDATA[
.node, .edge {opacity: 0.7;}
.node.selected, .edge.selected {opacity: 1;}
.edge:hover path { stroke: red; }
.edge:hover polygon { stroke: red; fill: red; }
]]></style>
<script type="application/ecmascript" xlink:href="../../svg.min.js"/>
<svg id="graph" class="graph">
<g id="graph0" class="graph" transform="scale(1 1) rotate(0) translate(4 299.5)">
<title>mimic++/Expectation.hpp</title>
<!-- Node1 -->
<g id="Node000001" class="node">
<title>Node1</title>
<g id="a_Node000001"><a xlink:title=" ">
<polygon fill="#999999" stroke="#666666" points="336.75,-295.5 211.25,-295.5 211.25,-276.25 336.75,-276.25 336.75,-295.5"/>
<text text-anchor="middle" x="274" y="-282" font-family="Helvetica,sans-Serif" font-size="10.00">mimic++/Expectation.hpp</text>
</a>
</g>
</g>
<!-- Node2 -->
<g id="Node000002" class="node">
<title>Node2</title>
<g id="a_Node000002"><a xlink:href="../../d2/d4f/_expectation_builder_8hpp.html" target="_top" xlink:title=" ">
<polygon fill="white" stroke="#666666" points="298.75,-185 143.25,-185 143.25,-165.75 298.75,-165.75 298.75,-185"/>
<text text-anchor="middle" x="221" y="-171.5" font-family="Helvetica,sans-Serif" font-size="10.00">mimic++/ExpectationBuilder.hpp</text>
</a>
</g>
</g>
<!-- Node1&#45;&gt;Node2 -->
<g id="edge1_Node000001_Node000002" class="edge">
<title>Node1&#45;&gt;Node2</title>
<g id="a_edge1_Node000001_Node000002"><a xlink:title=" ">
<path fill="none" stroke="#63b8ff" d="M257.78,-267.5C251.17,-259.66 243.94,-249.99 239,-240.25 229.71,-221.96 224.64,-198.23 222.41,-185.46"/>
<polygon fill="#63b8ff" stroke="#63b8ff" points="255.08,-269.73 264.33,-274.9 260.32,-265.1 255.08,-269.73"/>
</a>
</g>
</g>
<!-- Node3 -->
<g id="Node000003" class="node">
<title>Node3</title>
<g id="a_Node000003"><a xlink:href="../../d5/dc5/_mock_8hpp.html" target="_top" xlink:title=" ">
<polygon fill="white" stroke="#666666" points="324.62,-129.75 225.38,-129.75 225.38,-110.5 324.62,-110.5 324.62,-129.75"/>
<text text-anchor="middle" x="275" y="-116.25" font-family="Helvetica,sans-Serif" font-size="10.00">mimic++/Mock.hpp</text>
</a>
</g>
</g>
<!-- Node1&#45;&gt;Node3 -->
<g id="edge13_Node000001_Node000003" class="edge">
<title>Node1&#45;&gt;Node3</title>
<g id="a_edge13_Node000001_Node000003"><a xlink:title=" ">
<path fill="none" stroke="#63b8ff" d="M348,-279.5C374.08,-273.61 400.89,-262.16 417,-240.25 453.8,-190.22 354.4,-147.92 303.25,-130.13"/>
<polygon fill="#63b8ff" stroke="#63b8ff" points="347.52,-276.03 338.39,-281.4 348.88,-282.89 347.52,-276.03"/>
</a>
</g>
</g>
<!-- Node5 -->
<g id="Node000005" class="node">
<title>Node5</title>
<g id="a_Node000005"><a xlink:href="../../d0/db9/mimic_09_09_8hpp.html" target="_top" xlink:title=" ">
<polygon fill="white" stroke="#666666" points="245.75,-19.25 132.25,-19.25 132.25,0 245.75,0 245.75,-19.25"/>
<text text-anchor="middle" x="189" y="-5.75" font-family="Helvetica,sans-Serif" font-size="10.00">mimic++/mimic++.hpp</text>
</a>
</g>
</g>
<!-- Node1&#45;&gt;Node5 -->
<g id="edge14_Node000001_Node000005" class="edge">
<title>Node1&#45;&gt;Node5</title>
<g id="a_edge14_Node000001_Node000005"><a xlink:title=" ">
<path fill="none" stroke="#63b8ff" d="M213.36,-273.51C132.65,-256.63 0,-221.94 0,-176.38 0,-176.38 0,-176.38 0,-119.12 0,-57.64 76.15,-30.5 131.78,-18.87"/>
<polygon fill="#63b8ff" stroke="#63b8ff" points="212.4,-276.89 222.9,-275.47 213.81,-270.03 212.4,-276.89"/>
</a>
</g>
</g>
<!-- Node7 -->
<g id="Node000007" class="node">
<title>Node7</title>
<g id="a_Node000007"><a xlink:href="../../d8/de5/_expectation_policies_8hpp.html" target="_top" xlink:title=" ">
<polygon fill="white" stroke="#666666" points="408,-240.25 248,-240.25 248,-221 408,-221 408,-240.25"/>
<text text-anchor="middle" x="328" y="-226.75" font-family="Helvetica,sans-Serif" font-size="10.00">mimic++/ExpectationPolicies.hpp</text>
</a>
</g>
</g>
<!-- Node1&#45;&gt;Node7 -->
<g id="edge9_Node000001_Node000007" class="edge">
<title>Node1&#45;&gt;Node7</title>
<g id="a_edge9_Node000001_Node000007"><a xlink:title=" ">
<path fill="none" stroke="#63b8ff" d="M291.04,-268.07C300.26,-258.98 311.29,-248.1 318.89,-240.61"/>
<polygon fill="#63b8ff" stroke="#63b8ff" points="288.66,-265.51 283.99,-275.02 293.57,-270.49 288.66,-265.51"/>
</a>
</g>
</g>
<!-- Node2&#45;&gt;Node3 -->
<g id="edge2_Node000002_Node000003" class="edge">
<title>Node2&#45;&gt;Node3</title>
<g id="a_edge2_Node000002_Node000003"><a xlink:title=" ">
<path fill="none" stroke="#63b8ff" d="M238.04,-157.57C247.26,-148.48 258.29,-137.6 265.89,-130.11"/>
<polygon fill="#63b8ff" stroke="#63b8ff" points="235.66,-155.01 230.99,-164.52 240.57,-159.99 235.66,-155.01"/>
</a>
</g>
</g>
<!-- Node2&#45;&gt;Node5 -->
<g id="edge8_Node000002_Node000005" class="edge">
<title>Node2&#45;&gt;Node5</title>
<g id="a_edge8_Node000002_Node000005"><a xlink:title=" ">
<path fill="none" stroke="#63b8ff" d="M178.06,-161.65C138.67,-147.43 82.67,-120.19 57,-74.5 38.04,-40.76 88.13,-24.57 131.96,-16.98"/>
<polygon fill="#63b8ff" stroke="#63b8ff" points="176.66,-164.87 187.26,-164.82 178.95,-158.25 176.66,-164.87"/>
</a>
</g>
</g>
<!-- Node4 -->
<g id="Node000004" class="node">
<title>Node4</title>
<g id="a_Node000004"><a xlink:href="../../d9/dc3/_interface_mock_8hpp.html" target="_top" xlink:title=" ">
<polygon fill="white" stroke="#666666" points="405.75,-74.5 268.25,-74.5 268.25,-55.25 405.75,-55.25 405.75,-74.5"/>
<text text-anchor="middle" x="337" y="-61" font-family="Helvetica,sans-Serif" font-size="10.00">mimic++/InterfaceMock.hpp</text>
</a>
</g>
</g>
<!-- Node3&#45;&gt;Node4 -->
<g id="edge3_Node000003_Node000004" class="edge">
<title>Node3&#45;&gt;Node4</title>
<g id="a_edge3_Node000003_Node000004"><a xlink:title=" ">
<path fill="none" stroke="#63b8ff" d="M294.2,-102.64C304.9,-93.44 317.81,-82.35 326.64,-74.77"/>
<polygon fill="#63b8ff" stroke="#63b8ff" points="291.97,-99.94 286.67,-109.11 296.53,-105.25 291.97,-99.94"/>
</a>
</g>
</g>
<!-- Node3&#45;&gt;Node5 -->
<g id="edge7_Node000003_Node000005" class="edge">
<title>Node3&#45;&gt;Node5</title>
<g id="a_edge7_Node000003_Node000005"><a xlink:title=" ">
<path fill="none" stroke="#63b8ff" d="M260.91,-101.35C242.33,-77.91 210.33,-37.53 196.13,-19.63"/>
<polygon fill="#63b8ff" stroke="#63b8ff" points="258.07,-103.4 267.02,-109.06 263.55,-99.05 258.07,-103.4"/>
</a>
</g>
</g>
<!-- Node6 -->
<g id="Node000006" class="node">
<title>Node6</title>
<g id="a_Node000006"><a xlink:href="../../d1/dc0/_lifetime_watcher_8hpp.html" target="_top" xlink:title=" ">
<polygon fill="white" stroke="#666666" points="212.25,-74.5 65.75,-74.5 65.75,-55.25 212.25,-55.25 212.25,-74.5"/>
<text text-anchor="middle" x="139" y="-61" font-family="Helvetica,sans-Serif" font-size="10.00">mimic++/LifetimeWatcher.hpp</text>
</a>
</g>
</g>
<!-- Node3&#45;&gt;Node6 -->
<g id="edge5_Node000003_Node000006" class="edge">
<title>Node3&#45;&gt;Node6</title>
<g id="a_edge5_Node000003_Node000006"><a xlink:title=" ">
<path fill="none" stroke="#63b8ff" d="M241.26,-105.91C216.64,-96.27 183.91,-83.46 162.18,-74.95"/>
<polygon fill="#63b8ff" stroke="#63b8ff" points="239.93,-109.15 250.52,-109.54 242.48,-102.63 239.93,-109.15"/>
</a>
</g>
</g>
<!-- Node4&#45;&gt;Node5 -->
<g id="edge4_Node000004_Node000005" class="edge">
<title>Node4&#45;&gt;Node5</title>
<g id="a_edge4_Node000004_Node000005"><a xlink:title=" ">
<path fill="none" stroke="#63b8ff" d="M301.36,-51.05C274.45,-41.37 238.19,-28.32 214.23,-19.7"/>
<polygon fill="#63b8ff" stroke="#63b8ff" points="299.88,-54.24 310.47,-54.33 302.25,-47.65 299.88,-54.24"/>
</a>
</g>
</g>
<!-- Node6&#45;&gt;Node5 -->
<g id="edge6_Node000006_Node000005" class="edge">
<title>Node6&#45;&gt;Node5</title>
<g id="a_edge6_Node000006_Node000005"><a xlink:title=" ">
<path fill="none" stroke="#63b8ff" d="M155.04,-46.79C163.53,-37.75 173.6,-27.02 180.56,-19.61"/>
<polygon fill="#63b8ff" stroke="#63b8ff" points="152.59,-44.29 148.29,-53.98 157.69,-49.08 152.59,-44.29"/>
</a>
</g>
</g>
<!-- Node7&#45;&gt;Node2 -->
<g id="edge10_Node000007_Node000002" class="edge">
<title>Node7&#45;&gt;Node2</title>
<g id="a_edge10_Node000007_Node000002"><a xlink:title=" ">
<path fill="none" stroke="#63b8ff" d="M299.6,-215.49C280.47,-205.97 255.79,-193.69 239.24,-185.45"/>
<polygon fill="#63b8ff" stroke="#63b8ff" points="297.98,-218.6 308.49,-219.92 301.1,-212.33 297.98,-218.6"/>
</a>
</g>
</g>
<!-- Node7&#45;&gt;Node3 -->
<g id="edge11_Node000007_Node000003" class="edge">
<title>Node7&#45;&gt;Node3</title>
<g id="a_edge11_Node000007_Node000003"><a xlink:title=" ">
<path fill="none" stroke="#63b8ff" d="M323.57,-209.65C320.27,-196.71 315.1,-179.72 308,-165.75 301.19,-152.35 290.43,-138.71 283.06,-130.1"/>
<polygon fill="#63b8ff" stroke="#63b8ff" points="320.11,-210.19 325.82,-219.11 326.92,-208.57 320.11,-210.19"/>
</a>
</g>
</g>
<!-- Node7&#45;&gt;Node5 -->
<g id="edge12_Node000007_Node000005" class="edge">
<title>Node7&#45;&gt;Node5</title>
<g id="a_edge12_Node000007_Node000005"><a xlink:title=" ">
<path fill="none" stroke="#63b8ff" d="M347.35,-213.54C384.16,-181.05 456.98,-106.33 415,-55.25 394.02,-29.72 305.95,-18.56 246.16,-13.85"/>
<polygon fill="#63b8ff" stroke="#63b8ff" points="345.3,-210.69 340.01,-219.87 349.87,-215.99 345.3,-210.69"/>
</a>
</g>
</g>
</g>
</svg>
</svg>

<style type='text/css'>
<![CDATA[
[data-mouse-over-selected='false'] { opacity: 0.7; }
[data-mouse-over-selected='true']  { opacity: 1.0; }
]]>
</style>
<script type="application/ecmascript"><![CDATA[
document.addEventListener('DOMContentLoaded', (event) => {
  highlightEdges();
  highlightAdjacentNodes();
});
]]></script>
</svg>
