<?xml version="1.0" encoding="UTF-8" standalone="no"?>
<!DOCTYPE svg PUBLIC "-//W3C//DTD SVG 1.1//EN"
 "http://www.w3.org/Graphics/SVG/1.1/DTD/svg11.dtd">
<!-- Generated by graphviz version 12.1.2 (20240928.0832)
 -->
<!-- Title: mimic++/Matcher.hpp Pages: 1 -->
<svg width="452pt" height="304pt"
 viewBox="0.00 0.00 451.75 303.50" xmlns="http://www.w3.org/2000/svg" xmlns:xlink="http://www.w3.org/1999/xlink">

<svg id="main" version="1.1" xmlns="http://www.w3.org/2000/svg" xmlns:xlink="http://www.w3.org/1999/xlink" xml:space="preserve">

<style type="text/css"><![CDATA[
.node, .edge {opacity: 0.7;}
.node.selected, .edge.selected {opacity: 1;}
.edge:hover path { stroke: red; }
.edge:hover polygon { stroke: red; fill: red; }
]]></style>
<script type="application/ecmascript" xlink:href="../../svg.min.js"/>
<svg id="graph" class="graph">
<g id="graph0" class="graph" transform="scale(1 1) rotate(0) translate(4 299.5)">
<title>mimic++/Matcher.hpp</title>
<!-- Node1 -->
<g id="Node000001" class="node">
<title>Node1</title>
<g id="a_Node000001"><a xlink:title=" ">
<polygon fill="#999999" stroke="#666666" points="427,-295.5 316.5,-295.5 316.5,-276.25 427,-276.25 427,-295.5"/>
<text text-anchor="middle" x="371.75" y="-282" font-family="Helvetica,sans-Serif" font-size="10.00">mimic++/Matcher.hpp</text>
</a>
</g>
</g>
<!-- Node2 -->
<g id="Node000002" class="node">
<title>Node2</title>
<g id="a_Node000002"><a xlink:href="../../d8/de5/_expectation_policies_8hpp.html" target="_top" xlink:title=" ">
<polygon fill="white" stroke="#666666" points="397.75,-240.25 237.75,-240.25 237.75,-221 397.75,-221 397.75,-240.25"/>
<text text-anchor="middle" x="317.75" y="-226.75" font-family="Helvetica,sans-Serif" font-size="10.00">mimic++/ExpectationPolicies.hpp</text>
</a>
</g>
</g>
<!-- Node1&#45;&gt;Node2 -->
<g id="edge1_Node000001_Node000002" class="edge">
<title>Node1&#45;&gt;Node2</title>
<g id="a_edge1_Node000001_Node000002"><a xlink:title=" ">
<path fill="none" stroke="#63b8ff" d="M354.71,-268.07C345.49,-258.98 334.46,-248.1 326.86,-240.61"/>
<polygon fill="#63b8ff" stroke="#63b8ff" points="352.18,-270.49 361.76,-275.02 357.09,-265.51 352.18,-270.49"/>
</a>
</g>
</g>
<!-- Node6 -->
<g id="Node000006" class="node">
<title>Node6</title>
<g id="a_Node000006"><a xlink:href="../../d0/db9/mimic_09_09_8hpp.html" target="_top" xlink:title=" ">
<polygon fill="white" stroke="#666666" points="373.5,-19.25 260,-19.25 260,0 373.5,0 373.5,-19.25"/>
<text text-anchor="middle" x="316.75" y="-5.75" font-family="Helvetica,sans-Serif" font-size="10.00">mimic++/mimic++.hpp</text>
</a>
</g>
</g>
<!-- Node1&#45;&gt;Node6 -->
<g id="edge12_Node000001_Node000006" class="edge">
<title>Node1&#45;&gt;Node6</title>
<g id="a_edge12_Node000001_Node000006"><a xlink:title=" ">
<path fill="none" stroke="#63b8ff" d="M391.76,-268.38C413.06,-248.85 443.75,-214.16 443.75,-176.38 443.75,-176.38 443.75,-176.38 443.75,-119.12 443.75,-66.78 380.61,-34.31 343.37,-19.71"/>
<polygon fill="#63b8ff" stroke="#63b8ff" points="389.66,-265.57 384.46,-274.8 394.28,-270.83 389.66,-265.57"/>
</a>
</g>
</g>
<!-- Node3 -->
<g id="Node000003" class="node">
<title>Node3</title>
<g id="a_Node000003"><a xlink:href="../../d2/d4f/_expectation_builder_8hpp.html" target="_top" xlink:title=" ">
<polygon fill="white" stroke="#666666" points="377.5,-185 222,-185 222,-165.75 377.5,-165.75 377.5,-185"/>
<text text-anchor="middle" x="299.75" y="-171.5" font-family="Helvetica,sans-Serif" font-size="10.00">mimic++/ExpectationBuilder.hpp</text>
</a>
</g>
</g>
<!-- Node2&#45;&gt;Node3 -->
<g id="edge2_Node000002_Node000003" class="edge">
<title>Node2&#45;&gt;Node3</title>
<g id="a_edge2_Node000002_Node000003"><a xlink:title=" ">
<path fill="none" stroke="#63b8ff" d="M311.1,-209.96C308.25,-201.52 305.06,-192.08 302.79,-185.36"/>
<polygon fill="#63b8ff" stroke="#63b8ff" points="307.77,-211.05 314.29,-219.4 314.41,-208.8 307.77,-211.05"/>
</a>
</g>
</g>
<!-- Node4 -->
<g id="Node000004" class="node">
<title>Node4</title>
<g id="a_Node000004"><a xlink:href="../../d5/dc5/_mock_8hpp.html" target="_top" xlink:title=" ">
<polygon fill="white" stroke="#666666" points="243.38,-129.75 144.12,-129.75 144.12,-110.5 243.38,-110.5 243.38,-129.75"/>
<text text-anchor="middle" x="193.75" y="-116.25" font-family="Helvetica,sans-Serif" font-size="10.00">mimic++/Mock.hpp</text>
</a>
</g>
</g>
<!-- Node2&#45;&gt;Node4 -->
<g id="edge10_Node000002_Node000004" class="edge">
<title>Node2&#45;&gt;Node4</title>
<g id="a_edge10_Node000002_Node000004"><a xlink:title=" ">
<path fill="none" stroke="#63b8ff" d="M264.08,-216.96C245.61,-210.21 226.21,-200.07 212.75,-185 198.72,-169.3 195.04,-143.64 194.08,-130.11"/>
<polygon fill="#63b8ff" stroke="#63b8ff" points="262.76,-220.21 273.36,-220.08 264.99,-213.58 262.76,-220.21"/>
</a>
</g>
</g>
<!-- Node2&#45;&gt;Node6 -->
<g id="edge11_Node000002_Node000006" class="edge">
<title>Node2&#45;&gt;Node6</title>
<g id="a_edge11_Node000002_Node000006"><a xlink:title=" ">
<path fill="none" stroke="#63b8ff" d="M353.14,-215.56C366.13,-208.46 379.43,-198.45 386.75,-185 390.84,-177.49 387.63,-174.26 386.75,-165.75 381.61,-115.85 388.16,-99.07 363.75,-55.25 355.54,-40.51 340.81,-27.72 330.03,-19.66"/>
<polygon fill="#63b8ff" stroke="#63b8ff" points="351.66,-212.38 344.26,-219.96 354.78,-218.65 351.66,-212.38"/>
</a>
</g>
</g>
<!-- Node3&#45;&gt;Node4 -->
<g id="edge3_Node000003_Node000004" class="edge">
<title>Node3&#45;&gt;Node4</title>
<g id="a_edge3_Node000003_Node000004"><a xlink:title=" ">
<path fill="none" stroke="#63b8ff" d="M271.62,-160.24C252.66,-150.72 228.22,-138.44 211.82,-130.2"/>
<polygon fill="#63b8ff" stroke="#63b8ff" points="269.91,-163.3 280.42,-164.66 273.05,-157.05 269.91,-163.3"/>
</a>
</g>
</g>
<!-- Node3&#45;&gt;Node6 -->
<g id="edge9_Node000003_Node000006" class="edge">
<title>Node3&#45;&gt;Node6</title>
<g id="a_edge9_Node000003_Node000006"><a xlink:title=" ">
<path fill="none" stroke="#63b8ff" d="M312.21,-155.62C324.28,-136.25 341.75,-104.68 348.75,-74.5 350.68,-66.17 351.37,-63.39 348.75,-55.25 344.26,-41.27 333.59,-27.96 325.8,-19.58"/>
<polygon fill="#63b8ff" stroke="#63b8ff" points="309.29,-153.7 306.83,-164 315.18,-157.48 309.29,-153.7"/>
</a>
</g>
</g>
<!-- Node5 -->
<g id="Node000005" class="node">
<title>Node5</title>
<g id="a_Node000005"><a xlink:href="../../d9/dc3/_interface_mock_8hpp.html" target="_top" xlink:title=" ">
<polygon fill="white" stroke="#666666" points="137.5,-74.5 0,-74.5 0,-55.25 137.5,-55.25 137.5,-74.5"/>
<text text-anchor="middle" x="68.75" y="-61" font-family="Helvetica,sans-Serif" font-size="10.00">mimic++/InterfaceMock.hpp</text>
</a>
</g>
</g>
<!-- Node4&#45;&gt;Node5 -->
<g id="edge4_Node000004_Node000005" class="edge">
<title>Node4&#45;&gt;Node5</title>
<g id="a_edge4_Node000004_Node000005"><a xlink:title=" ">
<path fill="none" stroke="#63b8ff" d="M162.12,-105.65C139.57,-96.04 109.85,-83.38 90.06,-74.95"/>
<polygon fill="#63b8ff" stroke="#63b8ff" points="160.58,-108.8 171.15,-109.5 163.32,-102.36 160.58,-108.8"/>
</a>
</g>
</g>
<!-- Node4&#45;&gt;Node6 -->
<g id="edge8_Node000004_Node000006" class="edge">
<title>Node4&#45;&gt;Node6</title>
<g id="a_edge8_Node000004_Node000006"><a xlink:title=" ">
<path fill="none" stroke="#63b8ff" d="M184.49,-100.15C179.27,-86.46 175.47,-68.19 184.75,-55.25 201.81,-31.47 232.24,-20.2 259.58,-14.93"/>
<polygon fill="#63b8ff" stroke="#63b8ff" points="181.13,-101.2 188.34,-108.96 187.55,-98.4 181.13,-101.2"/>
</a>
</g>
</g>
<!-- Node7 -->
<g id="Node000007" class="node">
<title>Node7</title>
<g id="a_Node000007"><a xlink:href="../../d1/dc0/_lifetime_watcher_8hpp.html" target="_top" xlink:title=" ">
<polygon fill="white" stroke="#666666" points="340,-74.5 193.5,-74.5 193.5,-55.25 340,-55.25 340,-74.5"/>
<text text-anchor="middle" x="266.75" y="-61" font-family="Helvetica,sans-Serif" font-size="10.00">mimic++/LifetimeWatcher.hpp</text>
</a>
</g>
</g>
<!-- Node4&#45;&gt;Node7 -->
<g id="edge6_Node000004_Node000007" class="edge">
<title>Node4&#45;&gt;Node7</title>
<g id="a_edge6_Node000004_Node000007"><a xlink:title=" ">
<path fill="none" stroke="#63b8ff" d="M215.22,-103.47C228.03,-94.12 243.85,-82.58 254.55,-74.77"/>
<polygon fill="#63b8ff" stroke="#63b8ff" points="213.37,-100.48 207.36,-109.2 217.5,-106.13 213.37,-100.48"/>
</a>
</g>
</g>
<!-- Node5&#45;&gt;Node6 -->
<g id="edge5_Node000005_Node000006" class="edge">
<title>Node5&#45;&gt;Node6</title>
<g id="a_edge5_Node000005_Node000006"><a xlink:title=" ">
<path fill="none" stroke="#63b8ff" d="M122.26,-52.38C167.88,-42.59 232.55,-28.7 274.57,-19.68"/>
<polygon fill="#63b8ff" stroke="#63b8ff" points="121.62,-48.94 112.58,-54.46 123.09,-55.79 121.62,-48.94"/>
</a>
</g>
</g>
<!-- Node7&#45;&gt;Node6 -->
<g id="edge7_Node000007_Node000006" class="edge">
<title>Node7&#45;&gt;Node6</title>
<g id="a_edge7_Node000007_Node000006"><a xlink:title=" ">
<path fill="none" stroke="#63b8ff" d="M282.79,-46.79C291.28,-37.75 301.35,-27.02 308.31,-19.61"/>
<polygon fill="#63b8ff" stroke="#63b8ff" points="280.34,-44.29 276.04,-53.98 285.44,-49.08 280.34,-44.29"/>
</a>
</g>
</g>
</g>
</svg>
</svg>

<style type='text/css'>
<![CDATA[
[data-mouse-over-selected='false'] { opacity: 0.7; }
[data-mouse-over-selected='true']  { opacity: 1.0; }
]]>
</style>
<script type="application/ecmascript"><![CDATA[
document.addEventListener('DOMContentLoaded', (event) => {
  highlightEdges();
  highlightAdjacentNodes();
});
]]></script>
</svg>
