<?xml version="1.0" encoding="UTF-8" standalone="no"?>
<!DOCTYPE svg PUBLIC "-//W3C//DTD SVG 1.1//EN"
 "http://www.w3.org/Graphics/SVG/1.1/DTD/svg11.dtd">
<!-- Generated by graphviz version 12.1.1 (20240910.0053)
 -->
<!-- Title: mimic++/Matcher.hpp Pages: 1 -->
<svg width="278pt" height="248pt"
 viewBox="0.00 0.00 277.50 248.25" xmlns="http://www.w3.org/2000/svg" xmlns:xlink="http://www.w3.org/1999/xlink">
<g id="graph0" class="graph" transform="scale(1 1) rotate(0) translate(4 244.25)">
<title>mimic++/Matcher.hpp</title>
<!-- Node1 -->
<g id="Node000001" class="node">
<title>Node1</title>
<g id="a_Node000001"><a xlink:title=" ">
<polygon fill="#999999" stroke="#666666" points="234,-240.25 123.5,-240.25 123.5,-221 234,-221 234,-240.25"/>
<text text-anchor="middle" x="178.75" y="-226.75" font-family="Helvetica,sans-Serif" font-size="10.00">mimic++/Matcher.hpp</text>
</a>
</g>
</g>
<!-- Node2 -->
<g id="Node000002" class="node">
<title>Node2</title>
<g id="a_Node000002"><a xlink:href="../../d8/de5/_expectation_policies_8hpp.html" target="_top" xlink:title=" ">
<polygon fill="white" stroke="#666666" points="204.75,-185 44.75,-185 44.75,-165.75 204.75,-165.75 204.75,-185"/>
<text text-anchor="middle" x="124.75" y="-171.5" font-family="Helvetica,sans-Serif" font-size="10.00">mimic++/ExpectationPolicies.hpp</text>
</a>
</g>
</g>
<!-- Node1&#45;&gt;Node2 -->
<g id="edge1_Node000001_Node000002" class="edge">
<title>Node1&#45;&gt;Node2</title>
<g id="a_edge1_Node000001_Node000002"><a xlink:title=" ">
<path fill="none" stroke="#63b8ff" d="M161.71,-212.82C152.49,-203.73 141.46,-192.85 133.86,-185.36"/>
<polygon fill="#63b8ff" stroke="#63b8ff" points="159.18,-215.24 168.76,-219.77 164.09,-210.26 159.18,-215.24"/>
</a>
</g>
</g>
<!-- Node6 -->
<g id="Node000006" class="node">
<title>Node6</title>
<g id="a_Node000006"><a xlink:href="../../d0/db9/mimic_09_09_8hpp.html" target="_top" xlink:title=" ">
<polygon fill="white" stroke="#666666" points="269.5,-19.25 156,-19.25 156,0 269.5,0 269.5,-19.25"/>
<text text-anchor="middle" x="212.75" y="-5.75" font-family="Helvetica,sans-Serif" font-size="10.00">mimic++/mimic++.hpp</text>
</a>
</g>
</g>
<!-- Node1&#45;&gt;Node6 -->
<g id="edge9_Node000001_Node000006" class="edge">
<title>Node1&#45;&gt;Node6</title>
<g id="a_edge9_Node000001_Node000006"><a xlink:title=" ">
<path fill="none" stroke="#63b8ff" d="M195.94,-212.28C202.59,-204.55 209.6,-194.95 213.75,-185 236.1,-131.48 237.11,-112.49 227.75,-55.25 225.67,-42.51 220.44,-28.49 216.75,-19.63"/>
<polygon fill="#63b8ff" stroke="#63b8ff" points="193.43,-209.84 189.23,-219.57 198.58,-214.58 193.43,-209.84"/>
</a>
</g>
</g>
<!-- Node3 -->
<g id="Node000003" class="node">
<title>Node3</title>
<g id="a_Node000003"><a xlink:href="../../d2/d4f/_expectation_builder_8hpp.html" target="_top" xlink:title=" ">
<polygon fill="white" stroke="#666666" points="184.5,-129.75 29,-129.75 29,-110.5 184.5,-110.5 184.5,-129.75"/>
<text text-anchor="middle" x="106.75" y="-116.25" font-family="Helvetica,sans-Serif" font-size="10.00">mimic++/ExpectationBuilder.hpp</text>
</a>
</g>
</g>
<!-- Node2&#45;&gt;Node3 -->
<g id="edge2_Node000002_Node000003" class="edge">
<title>Node2&#45;&gt;Node3</title>
<g id="a_edge2_Node000002_Node000003"><a xlink:title=" ">
<path fill="none" stroke="#63b8ff" d="M118.1,-154.71C115.25,-146.27 112.06,-136.83 109.79,-130.11"/>
<polygon fill="#63b8ff" stroke="#63b8ff" points="114.77,-155.8 121.29,-164.15 121.41,-153.55 114.77,-155.8"/>
</a>
</g>
</g>
<!-- Node4 -->
<g id="Node000004" class="node">
<title>Node4</title>
<g id="a_Node000004"><a xlink:href="../../d5/dc5/_mock_8hpp.html" target="_top" xlink:title=" ">
<polygon fill="white" stroke="#666666" points="132.38,-74.5 33.12,-74.5 33.12,-55.25 132.38,-55.25 132.38,-74.5"/>
<text text-anchor="middle" x="82.75" y="-61" font-family="Helvetica,sans-Serif" font-size="10.00">mimic++/Mock.hpp</text>
</a>
</g>
</g>
<!-- Node2&#45;&gt;Node4 -->
<g id="edge7_Node000002_Node000004" class="edge">
<title>Node2&#45;&gt;Node4</title>
<g id="a_edge7_Node000002_Node000004"><a xlink:title=" ">
<path fill="none" stroke="#63b8ff" d="M63.02,-161.59C46.17,-154.97 29.8,-144.93 19.75,-129.75 5.05,-107.54 38.1,-86.5 61.67,-74.98"/>
<polygon fill="#63b8ff" stroke="#63b8ff" points="61.51,-164.77 72.1,-164.79 63.83,-158.17 61.51,-164.77"/>
</a>
</g>
</g>
<!-- Node2&#45;&gt;Node6 -->
<g id="edge8_Node000002_Node000006" class="edge">
<title>Node2&#45;&gt;Node6</title>
<g id="a_edge8_Node000002_Node000006"><a xlink:title=" ">
<path fill="none" stroke="#63b8ff" d="M158.24,-160.15C171.32,-152.93 185.21,-142.86 193.75,-129.75 216.84,-94.3 215.32,-40.63 213.65,-19.56"/>
<polygon fill="#63b8ff" stroke="#63b8ff" points="156.71,-157 149.38,-164.66 159.88,-163.24 156.71,-157"/>
</a>
</g>
</g>
<!-- Node3&#45;&gt;Node4 -->
<g id="edge3_Node000003_Node000004" class="edge">
<title>Node3&#45;&gt;Node4</title>
<g id="a_edge3_Node000003_Node000004"><a xlink:title=" ">
<path fill="none" stroke="#63b8ff" d="M98.15,-100.04C94.28,-91.46 89.9,-81.73 86.8,-74.86"/>
<polygon fill="#63b8ff" stroke="#63b8ff" points="94.87,-101.27 102.16,-108.95 101.25,-98.4 94.87,-101.27"/>
</a>
</g>
</g>
<!-- Node3&#45;&gt;Node6 -->
<g id="edge6_Node000003_Node000006" class="edge">
<title>Node3&#45;&gt;Node6</title>
<g id="a_edge6_Node000003_Node000006"><a xlink:title=" ">
<path fill="none" stroke="#63b8ff" d="M123.2,-102.28C145.96,-78.99 186.23,-37.77 203.96,-19.63"/>
<polygon fill="#63b8ff" stroke="#63b8ff" points="120.97,-99.56 116.48,-109.16 125.97,-104.46 120.97,-99.56"/>
</a>
</g>
</g>
<!-- Node5 -->
<g id="Node000005" class="node">
<title>Node5</title>
<g id="a_Node000005"><a xlink:href="../../d9/dc3/_interface_mock_8hpp.html" target="_top" xlink:title=" ">
<polygon fill="white" stroke="#666666" points="137.5,-19.25 0,-19.25 0,0 137.5,0 137.5,-19.25"/>
<text text-anchor="middle" x="68.75" y="-5.75" font-family="Helvetica,sans-Serif" font-size="10.00">mimic++/InterfaceMock.hpp</text>
</a>
</g>
</g>
<!-- Node4&#45;&gt;Node5 -->
<g id="edge4_Node000004_Node000005" class="edge">
<title>Node4&#45;&gt;Node5</title>
<g id="a_edge4_Node000004_Node000005"><a xlink:title=" ">
<path fill="none" stroke="#63b8ff" d="M77.58,-44.21C75.36,-35.77 72.88,-26.33 71.11,-19.61"/>
<polygon fill="#63b8ff" stroke="#63b8ff" points="74.13,-44.84 80.05,-53.62 80.9,-43.06 74.13,-44.84"/>
</a>
</g>
</g>
<!-- Node4&#45;&gt;Node6 -->
<g id="edge5_Node000004_Node000006" class="edge">
<title>Node4&#45;&gt;Node6</title>
<g id="a_edge5_Node000004_Node000006"><a xlink:title=" ">
<path fill="none" stroke="#63b8ff" d="M115.32,-50.53C138.82,-40.91 169.92,-28.17 190.59,-19.7"/>
<polygon fill="#63b8ff" stroke="#63b8ff" points="114.13,-47.24 106.2,-54.27 116.78,-53.72 114.13,-47.24"/>
</a>
</g>
</g>
</g>
</svg>
