<?xml version="1.0" encoding="UTF-8" standalone="no"?>
<!DOCTYPE svg PUBLIC "-//W3C//DTD SVG 1.1//EN"
 "http://www.w3.org/Graphics/SVG/1.1/DTD/svg11.dtd">
<!-- Generated by graphviz version 12.1.1 (20240910.0053)
 -->
<!-- Title: mimic++/Sequence.hpp Pages: 1 -->
<svg width="444pt" height="359pt"
 viewBox="0.00 0.00 444.00 358.75" xmlns="http://www.w3.org/2000/svg" xmlns:xlink="http://www.w3.org/1999/xlink">

<svg id="main" version="1.1" xmlns="http://www.w3.org/2000/svg" xmlns:xlink="http://www.w3.org/1999/xlink" xml:space="preserve">

<style type="text/css"><![CDATA[
.node, .edge {opacity: 0.7;}
.node.selected, .edge.selected {opacity: 1;}
.edge:hover path { stroke: red; }
.edge:hover polygon { stroke: red; fill: red; }
]]></style>
<script type="application/ecmascript" xlink:href="../../svg.min.js"/>
<svg id="graph" class="graph">
<g id="graph0" class="graph" transform="scale(1 1) rotate(0) translate(4 354.75)">
<title>mimic++/Sequence.hpp</title>
<!-- Node1 -->
<g id="Node000001" class="node">
<title>Node1</title>
<g id="a_Node000001"><a xlink:title=" ">
<polygon fill="#999999" stroke="#666666" points="427.38,-350.75 308.62,-350.75 308.62,-331.5 427.38,-331.5 427.38,-350.75"/>
<text text-anchor="middle" x="368" y="-337.25" font-family="Helvetica,sans-Serif" font-size="10.00">mimic++/Sequence.hpp</text>
</a>
</g>
</g>
<!-- Node2 -->
<g id="Node000002" class="node">
<title>Node2</title>
<g id="a_Node000002"><a xlink:href="../../d6/d17/_control_policy_8hpp.html" target="_top" xlink:title=" ">
<polygon fill="white" stroke="#666666" points="323.12,-295.5 190.88,-295.5 190.88,-276.25 323.12,-276.25 323.12,-295.5"/>
<text text-anchor="middle" x="257" y="-282" font-family="Helvetica,sans-Serif" font-size="10.00">mimic++/ControlPolicy.hpp</text>
</a>
</g>
</g>
<!-- Node1&#45;&gt;Node2 -->
<g id="edge1_Node000001_Node000002" class="edge">
<title>Node1&#45;&gt;Node2</title>
<g id="a_edge1_Node000001_Node000002"><a xlink:title=" ">
<path fill="none" stroke="#63b8ff" d="M338.82,-326.12C318.93,-316.58 293.17,-304.23 275.92,-295.95"/>
<polygon fill="#63b8ff" stroke="#63b8ff" points="337.28,-329.27 347.81,-330.44 340.3,-322.96 337.28,-329.27"/>
</a>
</g>
</g>
<!-- Node4 -->
<g id="Node000004" class="node">
<title>Node4</title>
<g id="a_Node000004"><a xlink:href="../../d2/d4f/_expectation_builder_8hpp.html" target="_top" xlink:title=" ">
<polygon fill="white" stroke="#666666" points="407.75,-129.75 252.25,-129.75 252.25,-110.5 407.75,-110.5 407.75,-129.75"/>
<text text-anchor="middle" x="330" y="-116.25" font-family="Helvetica,sans-Serif" font-size="10.00">mimic++/ExpectationBuilder.hpp</text>
</a>
</g>
</g>
<!-- Node1&#45;&gt;Node4 -->
<g id="edge15_Node000001_Node000004" class="edge">
<title>Node1&#45;&gt;Node4</title>
<g id="a_edge15_Node000001_Node000004"><a xlink:title=" ">
<path fill="none" stroke="#63b8ff" d="M366.08,-320.29C362.72,-287.77 354.98,-221.17 343,-165.75 340.27,-153.13 335.88,-138.85 332.96,-129.92"/>
<polygon fill="#63b8ff" stroke="#63b8ff" points="362.55,-320.23 367.03,-329.83 369.52,-319.53 362.55,-320.23"/>
</a>
</g>
</g>
<!-- Node6 -->
<g id="Node000006" class="node">
<title>Node6</title>
<g id="a_Node000006"><a xlink:href="../../d0/db9/mimic_09_09_8hpp.html" target="_top" xlink:title=" ">
<polygon fill="white" stroke="#666666" points="241.75,-19.25 128.25,-19.25 128.25,0 241.75,0 241.75,-19.25"/>
<text text-anchor="middle" x="185" y="-5.75" font-family="Helvetica,sans-Serif" font-size="10.00">mimic++/mimic++.hpp</text>
</a>
</g>
</g>
<!-- Node1&#45;&gt;Node6 -->
<g id="edge16_Node000001_Node000006" class="edge">
<title>Node1&#45;&gt;Node6</title>
<g id="a_edge16_Node000001_Node000006"><a xlink:title=" ">
<path fill="none" stroke="#63b8ff" d="M386.85,-323.45C406.98,-303.72 436,-268.81 436,-231.62 436,-231.62 436,-231.62 436,-119.12 436,-35.1 316.01,-15.4 241.96,-11.24"/>
<polygon fill="#63b8ff" stroke="#63b8ff" points="384.62,-320.74 379.73,-330.14 389.41,-325.85 384.62,-320.74"/>
</a>
</g>
</g>
<!-- Node3 -->
<g id="Node000003" class="node">
<title>Node3</title>
<g id="a_Node000003"><a xlink:href="../../d5/d8a/_expectation_8hpp.html" target="_top" xlink:title=" ">
<polygon fill="white" stroke="#666666" points="301.75,-240.25 176.25,-240.25 176.25,-221 301.75,-221 301.75,-240.25"/>
<text text-anchor="middle" x="239" y="-226.75" font-family="Helvetica,sans-Serif" font-size="10.00">mimic++/Expectation.hpp</text>
</a>
</g>
</g>
<!-- Node2&#45;&gt;Node3 -->
<g id="edge2_Node000002_Node000003" class="edge">
<title>Node2&#45;&gt;Node3</title>
<g id="a_edge2_Node000002_Node000003"><a xlink:title=" ">
<path fill="none" stroke="#63b8ff" d="M250.35,-265.21C247.5,-256.77 244.31,-247.33 242.04,-240.61"/>
<polygon fill="#63b8ff" stroke="#63b8ff" points="247.02,-266.3 253.54,-274.65 253.66,-264.05 247.02,-266.3"/>
</a>
</g>
</g>
<!-- Node2&#45;&gt;Node4 -->
<g id="edge13_Node000002_Node000004" class="edge">
<title>Node2&#45;&gt;Node4</title>
<g id="a_edge13_Node000002_Node000004"><a xlink:title=" ">
<path fill="none" stroke="#63b8ff" d="M283,-269.35C293.33,-261.85 304.32,-251.93 311,-240.25 331.89,-203.7 331.69,-151.11 330.64,-130.2"/>
<polygon fill="#63b8ff" stroke="#63b8ff" points="281.06,-266.44 274.72,-274.93 284.97,-272.25 281.06,-266.44"/>
</a>
</g>
</g>
<!-- Node2&#45;&gt;Node6 -->
<g id="edge14_Node000002_Node000006" class="edge">
<title>Node2&#45;&gt;Node6</title>
<g id="a_edge14_Node000002_Node000006"><a xlink:title=" ">
<path fill="none" stroke="#63b8ff" d="M179.07,-283.51C103.44,-277.56 0,-255.03 0,-176.38 0,-176.38 0,-176.38 0,-119.12 0,-58.99 73.63,-31.55 127.98,-19.48"/>
<polygon fill="#63b8ff" stroke="#63b8ff" points="178.75,-287 188.97,-284.2 179.24,-280.02 178.75,-287"/>
</a>
</g>
</g>
<!-- Node3&#45;&gt;Node4 -->
<g id="edge3_Node000003_Node000004" class="edge">
<title>Node3&#45;&gt;Node4</title>
<g id="a_edge3_Node000003_Node000004"><a xlink:title=" ">
<path fill="none" stroke="#63b8ff" d="M253.65,-212.16C273.27,-188.77 307.37,-148.11 322.45,-130.13"/>
<polygon fill="#63b8ff" stroke="#63b8ff" points="251.16,-209.68 247.42,-219.59 256.53,-214.17 251.16,-209.68"/>
</a>
</g>
</g>
<!-- Node5 -->
<g id="Node000005" class="node">
<title>Node5</title>
<g id="a_Node000005"><a xlink:href="../../d5/dc5/_mock_8hpp.html" target="_top" xlink:title=" ">
<polygon fill="white" stroke="#666666" points="273.62,-74.5 174.38,-74.5 174.38,-55.25 273.62,-55.25 273.62,-74.5"/>
<text text-anchor="middle" x="224" y="-61" font-family="Helvetica,sans-Serif" font-size="10.00">mimic++/Mock.hpp</text>
</a>
</g>
</g>
<!-- Node3&#45;&gt;Node5 -->
<g id="edge11_Node000003_Node000005" class="edge">
<title>Node3&#45;&gt;Node5</title>
<g id="a_edge11_Node000003_Node000005"><a xlink:title=" ">
<path fill="none" stroke="#63b8ff" d="M237.96,-209.07C237.26,-196.54 236.25,-180.21 235,-165.75 232.1,-132.21 227.32,-92.47 225.14,-74.95"/>
<polygon fill="#63b8ff" stroke="#63b8ff" points="234.46,-209.21 238.49,-219.01 241.45,-208.84 234.46,-209.21"/>
</a>
</g>
</g>
<!-- Node3&#45;&gt;Node6 -->
<g id="edge12_Node000003_Node000006" class="edge">
<title>Node3&#45;&gt;Node6</title>
<g id="a_edge12_Node000003_Node000006"><a xlink:title=" ">
<path fill="none" stroke="#63b8ff" d="M164.77,-220.76C120.59,-213.78 70.58,-202.31 57,-185 8.44,-123.1 125.08,-45.73 169.06,-19.67"/>
<polygon fill="#63b8ff" stroke="#63b8ff" points="164.23,-224.22 174.64,-222.25 165.28,-217.29 164.23,-224.22"/>
</a>
</g>
</g>
<!-- Node7 -->
<g id="Node000007" class="node">
<title>Node7</title>
<g id="a_Node000007"><a xlink:href="../../d8/de5/_expectation_policies_8hpp.html" target="_top" xlink:title=" ">
<polygon fill="white" stroke="#666666" points="226,-185 66,-185 66,-165.75 226,-165.75 226,-185"/>
<text text-anchor="middle" x="146" y="-171.5" font-family="Helvetica,sans-Serif" font-size="10.00">mimic++/ExpectationPolicies.hpp</text>
</a>
</g>
</g>
<!-- Node3&#45;&gt;Node7 -->
<g id="edge7_Node000003_Node000007" class="edge">
<title>Node3&#45;&gt;Node7</title>
<g id="a_edge7_Node000003_Node000007"><a xlink:title=" ">
<path fill="none" stroke="#63b8ff" d="M213.62,-215.09C197.09,-205.63 176.04,-193.58 161.85,-185.45"/>
<polygon fill="#63b8ff" stroke="#63b8ff" points="211.49,-217.91 221.91,-219.84 214.97,-211.83 211.49,-217.91"/>
</a>
</g>
</g>
<!-- Node4&#45;&gt;Node5 -->
<g id="edge4_Node000004_Node000005" class="edge">
<title>Node4&#45;&gt;Node5</title>
<g id="a_edge4_Node000004_Node000005"><a xlink:title=" ">
<path fill="none" stroke="#63b8ff" d="M301.87,-104.99C282.91,-95.47 258.47,-83.19 242.07,-74.95"/>
<polygon fill="#63b8ff" stroke="#63b8ff" points="300.16,-108.05 310.67,-109.41 303.3,-101.8 300.16,-108.05"/>
</a>
</g>
</g>
<!-- Node4&#45;&gt;Node6 -->
<g id="edge6_Node000004_Node000006" class="edge">
<title>Node4&#45;&gt;Node6</title>
<g id="a_edge6_Node000004_Node000006"><a xlink:title=" ">
<path fill="none" stroke="#63b8ff" d="M319.65,-100.21C311.27,-86.29 298.35,-67.71 283,-55.25 262.68,-38.75 235.28,-26.96 214.61,-19.65"/>
<polygon fill="#63b8ff" stroke="#63b8ff" points="316.6,-101.91 324.61,-108.84 322.67,-98.43 316.6,-101.91"/>
</a>
</g>
</g>
<!-- Node5&#45;&gt;Node6 -->
<g id="edge5_Node000005_Node000006" class="edge">
<title>Node5&#45;&gt;Node6</title>
<g id="a_edge5_Node000005_Node000006"><a xlink:title=" ">
<path fill="none" stroke="#63b8ff" d="M210.86,-45.94C204.38,-37.09 196.84,-26.79 191.58,-19.61"/>
<polygon fill="#63b8ff" stroke="#63b8ff" points="207.93,-47.86 216.67,-53.86 213.58,-43.73 207.93,-47.86"/>
</a>
</g>
</g>
<!-- Node7&#45;&gt;Node4 -->
<g id="edge8_Node000007_Node000004" class="edge">
<title>Node7&#45;&gt;Node4</title>
<g id="a_edge8_Node000007_Node000004"><a xlink:title=" ">
<path fill="none" stroke="#63b8ff" d="M188.1,-162.19C221.75,-152.45 268.18,-139.02 298.63,-130.2"/>
<polygon fill="#63b8ff" stroke="#63b8ff" points="187.3,-158.78 178.67,-164.92 189.25,-165.5 187.3,-158.78"/>
</a>
</g>
</g>
<!-- Node7&#45;&gt;Node5 -->
<g id="edge9_Node000007_Node000005" class="edge">
<title>Node7&#45;&gt;Node5</title>
<g id="a_edge9_Node000007_Node000005"><a xlink:title=" ">
<path fill="none" stroke="#63b8ff" d="M159,-156.29C175.89,-132.8 204.71,-92.7 217.53,-74.88"/>
<polygon fill="#63b8ff" stroke="#63b8ff" points="156.26,-154.1 153.27,-164.27 161.95,-158.19 156.26,-154.1"/>
</a>
</g>
</g>
<!-- Node7&#45;&gt;Node6 -->
<g id="edge10_Node000007_Node000006" class="edge">
<title>Node7&#45;&gt;Node6</title>
<g id="a_edge10_Node000007_Node000006"><a xlink:title=" ">
<path fill="none" stroke="#63b8ff" d="M147.6,-154.1C149.86,-130.1 154.9,-89.12 165,-55.25 168.83,-42.4 175.55,-28.41 180.14,-19.59"/>
<polygon fill="#63b8ff" stroke="#63b8ff" points="144.11,-153.76 146.74,-164.02 151.09,-154.36 144.11,-153.76"/>
</a>
</g>
</g>
</g>
</svg>
</svg>

<style type='text/css'>
<![CDATA[
[data-mouse-over-selected='false'] { opacity: 0.7; }
[data-mouse-over-selected='true']  { opacity: 1.0; }
]]>
</style>
<script type="application/ecmascript"><![CDATA[
document.addEventListener('DOMContentLoaded', (event) => {
  highlightEdges();
  highlightAdjacentNodes();
});
]]></script>
</svg>
