<?xml version="1.0" encoding="UTF-8" standalone="no"?>
<!DOCTYPE svg PUBLIC "-//W3C//DTD SVG 1.1//EN"
 "http://www.w3.org/Graphics/SVG/1.1/DTD/svg11.dtd">
<!-- Generated by graphviz version 12.1.2 (20240928.0832)
 -->
<!-- Title: mimic++/Sequence.hpp Pages: 1 -->
<svg width="518pt" height="414pt"
 viewBox="0.00 0.00 518.00 414.00" xmlns="http://www.w3.org/2000/svg" xmlns:xlink="http://www.w3.org/1999/xlink">
<g id="graph0" class="graph" transform="scale(1 1) rotate(0) translate(4 410)">
<title>mimic++/Sequence.hpp</title>
<!-- Node1 -->
<g id="Node000001" class="node">
<title>Node1</title>
<g id="a_Node000001"><a xlink:title=" ">
<polygon fill="#999999" stroke="#666666" points="457.38,-406 338.62,-406 338.62,-386.75 457.38,-386.75 457.38,-406"/>
<text text-anchor="middle" x="398" y="-392.5" font-family="Helvetica,sans-Serif" font-size="10.00">mimic++/Sequence.hpp</text>
</a>
</g>
</g>
<!-- Node2 -->
<g id="Node000002" class="node">
<title>Node2</title>
<g id="a_Node000002"><a xlink:href="../../d6/d17/_control_policy_8hpp.html" target="_top" xlink:title=" ">
<polygon fill="white" stroke="#666666" points="353.12,-350.75 220.88,-350.75 220.88,-331.5 353.12,-331.5 353.12,-350.75"/>
<text text-anchor="middle" x="287" y="-337.25" font-family="Helvetica,sans-Serif" font-size="10.00">mimic++/ControlPolicy.hpp</text>
</a>
</g>
</g>
<!-- Node1&#45;&gt;Node2 -->
<g id="edge1_Node000001_Node000002" class="edge">
<title>Node1&#45;&gt;Node2</title>
<g id="a_edge1_Node000001_Node000002"><a xlink:title=" ">
<path fill="none" stroke="#63b8ff" d="M368.82,-381.37C348.93,-371.83 323.17,-359.48 305.92,-351.2"/>
<polygon fill="#63b8ff" stroke="#63b8ff" points="367.28,-384.52 377.81,-385.69 370.3,-378.21 367.28,-384.52"/>
</a>
</g>
</g>
<!-- Node4 -->
<g id="Node000004" class="node">
<title>Node4</title>
<g id="a_Node000004"><a xlink:href="../../d2/d4f/_expectation_builder_8hpp.html" target="_top" xlink:title=" ">
<polygon fill="white" stroke="#666666" points="459.75,-185 304.25,-185 304.25,-165.75 459.75,-165.75 459.75,-185"/>
<text text-anchor="middle" x="382" y="-171.5" font-family="Helvetica,sans-Serif" font-size="10.00">mimic++/ExpectationBuilder.hpp</text>
</a>
</g>
</g>
<!-- Node1&#45;&gt;Node4 -->
<g id="edge19_Node000001_Node000004" class="edge">
<title>Node1&#45;&gt;Node4</title>
<g id="a_edge19_Node000001_Node000004"><a xlink:title=" ">
<path fill="none" stroke="#63b8ff" d="M396.52,-375.11C393.14,-328.88 384.98,-217.15 382.64,-185.1"/>
<polygon fill="#63b8ff" stroke="#63b8ff" points="393.02,-375.29 397.24,-385.01 400,-374.78 393.02,-375.29"/>
</a>
</g>
</g>
<!-- Node7 -->
<g id="Node000007" class="node">
<title>Node7</title>
<g id="a_Node000007"><a xlink:href="../../d0/db9/mimic_09_09_8hpp.html" target="_top" xlink:title=" ">
<polygon fill="white" stroke="#666666" points="313.75,-19.25 200.25,-19.25 200.25,0 313.75,0 313.75,-19.25"/>
<text text-anchor="middle" x="257" y="-5.75" font-family="Helvetica,sans-Serif" font-size="10.00">mimic++/mimic++.hpp</text>
</a>
</g>
</g>
<!-- Node1&#45;&gt;Node7 -->
<g id="edge20_Node000001_Node000007" class="edge">
<title>Node1&#45;&gt;Node7</title>
<g id="a_edge20_Node000001_Node000007"><a xlink:title=" ">
<path fill="none" stroke="#63b8ff" d="M429.78,-381.25C462.89,-364.11 510,-331.82 510,-286.88 510,-286.88 510,-286.88 510,-119.12 510,-34.41 388.71,-14.99 314.09,-11.06"/>
<polygon fill="#63b8ff" stroke="#63b8ff" points="428.37,-378.04 420.95,-385.61 431.47,-384.31 428.37,-378.04"/>
</a>
</g>
</g>
<!-- Node3 -->
<g id="Node000003" class="node">
<title>Node3</title>
<g id="a_Node000003"><a xlink:href="../../d5/d8a/_expectation_8hpp.html" target="_top" xlink:title=" ">
<polygon fill="white" stroke="#666666" points="331.75,-295.5 206.25,-295.5 206.25,-276.25 331.75,-276.25 331.75,-295.5"/>
<text text-anchor="middle" x="269" y="-282" font-family="Helvetica,sans-Serif" font-size="10.00">mimic++/Expectation.hpp</text>
</a>
</g>
</g>
<!-- Node2&#45;&gt;Node3 -->
<g id="edge2_Node000002_Node000003" class="edge">
<title>Node2&#45;&gt;Node3</title>
<g id="a_edge2_Node000002_Node000003"><a xlink:title=" ">
<path fill="none" stroke="#63b8ff" d="M280.35,-320.46C277.5,-312.02 274.31,-302.58 272.04,-295.86"/>
<polygon fill="#63b8ff" stroke="#63b8ff" points="277.02,-321.55 283.54,-329.9 283.66,-319.3 277.02,-321.55"/>
</a>
</g>
</g>
<!-- Node2&#45;&gt;Node4 -->
<g id="edge17_Node000002_Node000004" class="edge">
<title>Node2&#45;&gt;Node4</title>
<g id="a_edge17_Node000002_Node000004"><a xlink:title=" ">
<path fill="none" stroke="#63b8ff" d="M310.89,-324.86C321.36,-317.14 333.05,-306.98 341,-295.5 366.16,-259.18 377.14,-206.01 380.66,-185.19"/>
<polygon fill="#63b8ff" stroke="#63b8ff" points="309.21,-321.77 303.01,-330.36 313.21,-327.51 309.21,-321.77"/>
</a>
</g>
</g>
<!-- Node2&#45;&gt;Node7 -->
<g id="edge18_Node000002_Node000007" class="edge">
<title>Node2&#45;&gt;Node7</title>
<g id="a_edge18_Node000002_Node000007"><a xlink:title=" ">
<path fill="none" stroke="#63b8ff" d="M221.6,-328.92C136.91,-312.52 0,-278.72 0,-231.62 0,-231.62 0,-231.62 0,-119.12 0,-32.92 124.25,-14.14 199.96,-10.7"/>
<polygon fill="#63b8ff" stroke="#63b8ff" points="220.72,-332.31 231.19,-330.74 222.02,-325.44 220.72,-332.31"/>
</a>
</g>
</g>
<!-- Node3&#45;&gt;Node4 -->
<g id="edge3_Node000003_Node000004" class="edge">
<title>Node3&#45;&gt;Node4</title>
<g id="a_edge3_Node000003_Node000004"><a xlink:title=" ">
<path fill="none" stroke="#63b8ff" d="M286.54,-268.03C310.8,-244.74 353.73,-203.52 372.62,-185.38"/>
<polygon fill="#63b8ff" stroke="#63b8ff" points="284.13,-265.5 279.34,-274.95 288.98,-270.55 284.13,-265.5"/>
</a>
</g>
</g>
<!-- Node5 -->
<g id="Node000005" class="node">
<title>Node5</title>
<g id="a_Node000005"><a xlink:href="../../d5/dc5/_mock_8hpp.html" target="_top" xlink:title=" ">
<polygon fill="white" stroke="#666666" points="355.62,-129.75 256.38,-129.75 256.38,-110.5 355.62,-110.5 355.62,-129.75"/>
<text text-anchor="middle" x="306" y="-116.25" font-family="Helvetica,sans-Serif" font-size="10.00">mimic++/Mock.hpp</text>
</a>
</g>
</g>
<!-- Node3&#45;&gt;Node5 -->
<g id="edge15_Node000003_Node000005" class="edge">
<title>Node3&#45;&gt;Node5</title>
<g id="a_edge15_Node000003_Node000005"><a xlink:title=" ">
<path fill="none" stroke="#63b8ff" d="M273.19,-264.89C278.2,-241.2 286.92,-200.53 295,-165.75 297.89,-153.31 301.46,-138.99 303.74,-130"/>
<polygon fill="#63b8ff" stroke="#63b8ff" points="269.82,-263.9 271.19,-274.41 276.67,-265.34 269.82,-263.9"/>
</a>
</g>
</g>
<!-- Node3&#45;&gt;Node7 -->
<g id="edge16_Node000003_Node000007" class="edge">
<title>Node3&#45;&gt;Node7</title>
<g id="a_edge16_Node000003_Node000007"><a xlink:title=" ">
<path fill="none" stroke="#63b8ff" d="M194.82,-280.31C127.27,-271.66 38,-246.89 38,-176.38 38,-176.38 38,-176.38 38,-119.12 38,-46.78 135.14,-22.67 200.03,-14.64"/>
<polygon fill="#63b8ff" stroke="#63b8ff" points="194.03,-283.75 204.38,-281.44 194.85,-276.79 194.03,-283.75"/>
</a>
</g>
</g>
<!-- Node9 -->
<g id="Node000009" class="node">
<title>Node9</title>
<g id="a_Node000009"><a xlink:href="../../d8/de5/_expectation_policies_8hpp.html" target="_top" xlink:title=" ">
<polygon fill="white" stroke="#666666" points="248,-240.25 88,-240.25 88,-221 248,-221 248,-240.25"/>
<text text-anchor="middle" x="168" y="-226.75" font-family="Helvetica,sans-Serif" font-size="10.00">mimic++/ExpectationPolicies.hpp</text>
</a>
</g>
</g>
<!-- Node3&#45;&gt;Node9 -->
<g id="edge11_Node000003_Node000009" class="edge">
<title>Node3&#45;&gt;Node9</title>
<g id="a_edge11_Node000003_Node000009"><a xlink:title=" ">
<path fill="none" stroke="#63b8ff" d="M241.69,-270.48C223.7,-260.99 200.7,-248.86 185.22,-240.7"/>
<polygon fill="#63b8ff" stroke="#63b8ff" points="240.05,-273.57 250.53,-275.14 243.31,-267.38 240.05,-273.57"/>
</a>
</g>
</g>
<!-- Node4&#45;&gt;Node5 -->
<g id="edge4_Node000004_Node000005" class="edge">
<title>Node4&#45;&gt;Node5</title>
<g id="a_edge4_Node000004_Node000005"><a xlink:title=" ">
<path fill="none" stroke="#63b8ff" d="M359.71,-158.76C346.46,-149.47 330.11,-138.02 318.96,-130.2"/>
<polygon fill="#63b8ff" stroke="#63b8ff" points="357.67,-161.6 367.87,-164.47 361.69,-155.87 357.67,-161.6"/>
</a>
</g>
</g>
<!-- Node4&#45;&gt;Node7 -->
<g id="edge10_Node000004_Node000007" class="edge">
<title>Node4&#45;&gt;Node7</title>
<g id="a_edge10_Node000004_Node000007"><a xlink:title=" ">
<path fill="none" stroke="#63b8ff" d="M399.19,-157.5C422.02,-133.02 456.76,-87.11 432,-55.25 417.48,-36.56 359.2,-24.39 313.84,-17.55"/>
<polygon fill="#63b8ff" stroke="#63b8ff" points="396.95,-154.78 392.5,-164.4 401.97,-159.66 396.95,-154.78"/>
</a>
</g>
</g>
<!-- Node6 -->
<g id="Node000006" class="node">
<title>Node6</title>
<g id="a_Node000006"><a xlink:href="../../d9/dc3/_interface_mock_8hpp.html" target="_top" xlink:title=" ">
<polygon fill="white" stroke="#666666" points="405.75,-74.5 268.25,-74.5 268.25,-55.25 405.75,-55.25 405.75,-74.5"/>
<text text-anchor="middle" x="337" y="-61" font-family="Helvetica,sans-Serif" font-size="10.00">mimic++/InterfaceMock.hpp</text>
</a>
</g>
</g>
<!-- Node5&#45;&gt;Node6 -->
<g id="edge5_Node000005_Node000006" class="edge">
<title>Node5&#45;&gt;Node6</title>
<g id="a_edge5_Node000005_Node000006"><a xlink:title=" ">
<path fill="none" stroke="#63b8ff" d="M316.78,-100.62C321.85,-91.89 327.68,-81.89 331.77,-74.86"/>
<polygon fill="#63b8ff" stroke="#63b8ff" points="313.89,-98.62 311.88,-109.02 319.94,-102.14 313.89,-98.62"/>
</a>
</g>
</g>
<!-- Node5&#45;&gt;Node7 -->
<g id="edge9_Node000005_Node000007" class="edge">
<title>Node5&#45;&gt;Node7</title>
<g id="a_edge9_Node000005_Node000007"><a xlink:title=" ">
<path fill="none" stroke="#63b8ff" d="M362.9,-107.14C398.29,-96.98 433.77,-80.06 415,-55.25 402.62,-38.88 354.17,-26.81 314.15,-19.38"/>
<polygon fill="#63b8ff" stroke="#63b8ff" points="362.19,-103.71 353.45,-109.69 364.01,-110.47 362.19,-103.71"/>
</a>
</g>
</g>
<!-- Node8 -->
<g id="Node000008" class="node">
<title>Node8</title>
<g id="a_Node000008"><a xlink:href="../../d1/dc0/_lifetime_watcher_8hpp.html" target="_top" xlink:title=" ">
<polygon fill="white" stroke="#666666" points="250.25,-74.5 103.75,-74.5 103.75,-55.25 250.25,-55.25 250.25,-74.5"/>
<text text-anchor="middle" x="177" y="-61" font-family="Helvetica,sans-Serif" font-size="10.00">mimic++/LifetimeWatcher.hpp</text>
</a>
</g>
</g>
<!-- Node5&#45;&gt;Node8 -->
<g id="edge7_Node000005_Node000008" class="edge">
<title>Node5&#45;&gt;Node8</title>
<g id="a_edge7_Node000005_Node000008"><a xlink:title=" ">
<path fill="none" stroke="#63b8ff" d="M273.68,-105.78C250.36,-96.16 219.5,-83.42 198.99,-74.95"/>
<polygon fill="#63b8ff" stroke="#63b8ff" points="272.14,-108.93 282.72,-109.51 274.81,-102.46 272.14,-108.93"/>
</a>
</g>
</g>
<!-- Node6&#45;&gt;Node7 -->
<g id="edge6_Node000006_Node000007" class="edge">
<title>Node6&#45;&gt;Node7</title>
<g id="a_edge6_Node000006_Node000007"><a xlink:title=" ">
<path fill="none" stroke="#63b8ff" d="M313.95,-48.53C299.93,-39.2 282.5,-27.6 270.64,-19.7"/>
<polygon fill="#63b8ff" stroke="#63b8ff" points="311.91,-51.38 322.17,-54 315.78,-45.55 311.91,-51.38"/>
</a>
</g>
</g>
<!-- Node8&#45;&gt;Node7 -->
<g id="edge8_Node000008_Node000007" class="edge">
<title>Node8&#45;&gt;Node7</title>
<g id="a_edge8_Node000008_Node000007"><a xlink:title=" ">
<path fill="none" stroke="#63b8ff" d="M200.05,-48.53C214.07,-39.2 231.5,-27.6 243.36,-19.7"/>
<polygon fill="#63b8ff" stroke="#63b8ff" points="198.22,-45.55 191.83,-54 202.09,-51.38 198.22,-45.55"/>
</a>
</g>
</g>
<!-- Node9&#45;&gt;Node4 -->
<g id="edge12_Node000009_Node000004" class="edge">
<title>Node9&#45;&gt;Node4</title>
<g id="a_edge12_Node000009_Node000004"><a xlink:title=" ">
<path fill="none" stroke="#63b8ff" d="M215.43,-217.82C254.69,-208.05 309.64,-194.38 345.52,-185.45"/>
<polygon fill="#63b8ff" stroke="#63b8ff" points="214.63,-214.42 205.77,-220.23 216.32,-221.21 214.63,-214.42"/>
</a>
</g>
</g>
<!-- Node9&#45;&gt;Node5 -->
<g id="edge13_Node000009_Node000005" class="edge">
<title>Node9&#45;&gt;Node5</title>
<g id="a_edge13_Node000009_Node000005"><a xlink:title=" ">
<path fill="none" stroke="#63b8ff" d="M188.26,-213.7C217.65,-190.59 271.17,-148.51 294.55,-130.13"/>
<polygon fill="#63b8ff" stroke="#63b8ff" points="186.18,-210.88 180.48,-219.81 190.51,-216.38 186.18,-210.88"/>
</a>
</g>
</g>
<!-- Node9&#45;&gt;Node7 -->
<g id="edge14_Node000009_Node000007" class="edge">
<title>Node9&#45;&gt;Node7</title>
<g id="a_edge14_Node000009_Node000007"><a xlink:title=" ">
<path fill="none" stroke="#63b8ff" d="M150.74,-213.12C118.62,-180.39 56.3,-106.06 95,-55.25 107.9,-38.31 158.78,-26.18 200.12,-18.88"/>
<polygon fill="#63b8ff" stroke="#63b8ff" points="147.9,-215.22 157.46,-219.78 152.83,-210.25 147.9,-215.22"/>
</a>
</g>
</g>
</g>
</svg>
