<?xml version="1.0" encoding="UTF-8" standalone="no"?>
<!DOCTYPE svg PUBLIC "-//W3C//DTD SVG 1.1//EN"
 "http://www.w3.org/Graphics/SVG/1.1/DTD/svg11.dtd">
<!-- Generated by graphviz version 12.1.1 (20240910.0053)
 -->
<!-- Title: mimic++/Sequence.hpp Pages: 1 -->
<svg width="355pt" height="359pt"
 viewBox="0.00 0.00 355.37 358.75" xmlns="http://www.w3.org/2000/svg" xmlns:xlink="http://www.w3.org/1999/xlink">

<svg id="main" version="1.1" xmlns="http://www.w3.org/2000/svg" xmlns:xlink="http://www.w3.org/1999/xlink" xml:space="preserve">

<style type="text/css"><![CDATA[
.node, .edge {opacity: 0.7;}
.node.selected, .edge.selected {opacity: 1;}
.edge:hover path { stroke: red; }
.edge:hover polygon { stroke: red; fill: red; }
]]></style>
<script type="application/ecmascript" xlink:href="../../svg.min.js"/>
<svg id="graph" class="graph">
<g id="graph0" class="graph" transform="scale(1 1) rotate(0) translate(4 354.75)">
<title>mimic++/Sequence.hpp</title>
<!-- Node1 -->
<g id="Node000001" class="node">
<title>Node1</title>
<g id="a_Node000001"><a xlink:title=" ">
<polygon fill="#999999" stroke="#666666" points="290.38,-350.75 171.62,-350.75 171.62,-331.5 290.38,-331.5 290.38,-350.75"/>
<text text-anchor="middle" x="231" y="-337.25" font-family="Helvetica,sans-Serif" font-size="10.00">mimic++/Sequence.hpp</text>
</a>
</g>
</g>
<!-- Node2 -->
<g id="Node000002" class="node">
<title>Node2</title>
<g id="a_Node000002"><a xlink:href="../../d6/d17/_control_policy_8hpp.html" target="_top" xlink:title=" ">
<polygon fill="white" stroke="#666666" points="297.12,-295.5 164.88,-295.5 164.88,-276.25 297.12,-276.25 297.12,-295.5"/>
<text text-anchor="middle" x="231" y="-282" font-family="Helvetica,sans-Serif" font-size="10.00">mimic++/ControlPolicy.hpp</text>
</a>
</g>
</g>
<!-- Node1&#45;&gt;Node2 -->
<g id="edge1_Node000001_Node000002" class="edge">
<title>Node1&#45;&gt;Node2</title>
<g id="a_edge1_Node000001_Node000002"><a xlink:title=" ">
<path fill="none" stroke="#63b8ff" d="M231,-319.88C231,-311.59 231,-302.42 231,-295.86"/>
<polygon fill="#63b8ff" stroke="#63b8ff" points="227.5,-319.82 231,-329.82 234.5,-319.82 227.5,-319.82"/>
</a>
</g>
</g>
<!-- Node4 -->
<g id="Node000004" class="node">
<title>Node4</title>
<g id="a_Node000004"><a xlink:href="../../d2/d4f/_expectation_builder_8hpp.html" target="_top" xlink:title=" ">
<polygon fill="white" stroke="#666666" points="335.75,-129.75 180.25,-129.75 180.25,-110.5 335.75,-110.5 335.75,-129.75"/>
<text text-anchor="middle" x="258" y="-116.25" font-family="Helvetica,sans-Serif" font-size="10.00">mimic++/ExpectationBuilder.hpp</text>
</a>
</g>
</g>
<!-- Node1&#45;&gt;Node4 -->
<g id="edge16_Node000001_Node000004" class="edge">
<title>Node1&#45;&gt;Node4</title>
<g id="a_edge16_Node000001_Node000004"><a xlink:title=" ">
<path fill="none" stroke="#63b8ff" d="M266.23,-326.38C280.49,-319.17 295.94,-308.98 306,-295.5 321.15,-275.2 316.86,-265.39 320,-240.25 324.12,-207.2 328.31,-194.78 312,-165.75 303.3,-150.27 286.96,-137.93 274.52,-130.19"/>
<polygon fill="#63b8ff" stroke="#63b8ff" points="265.08,-323.05 257.51,-330.46 268.05,-329.38 265.08,-323.05"/>
</a>
</g>
</g>
<!-- Node7 -->
<g id="Node000007" class="node">
<title>Node7</title>
<g id="a_Node000007"><a xlink:href="../../d0/db9/mimic_09_09_8hpp.html" target="_top" xlink:title=" ">
<polygon fill="white" stroke="#666666" points="148.75,-19.25 35.25,-19.25 35.25,0 148.75,0 148.75,-19.25"/>
<text text-anchor="middle" x="92" y="-5.75" font-family="Helvetica,sans-Serif" font-size="10.00">mimic++/mimic++.hpp</text>
</a>
</g>
</g>
<!-- Node1&#45;&gt;Node7 -->
<g id="edge17_Node000001_Node000007" class="edge">
<title>Node1&#45;&gt;Node7</title>
<g id="a_edge17_Node000001_Node000007"><a xlink:title=" ">
<path fill="none" stroke="#63b8ff" d="M160.12,-335.98C92.21,-327.71 0,-303.29 0,-231.62 0,-231.62 0,-231.62 0,-119.12 0,-72.69 49.62,-35.94 75.97,-19.7"/>
<polygon fill="#63b8ff" stroke="#63b8ff" points="159.38,-339.42 169.71,-337.04 160.16,-332.46 159.38,-339.42"/>
</a>
</g>
</g>
<!-- Node3 -->
<g id="Node000003" class="node">
<title>Node3</title>
<g id="a_Node000003"><a xlink:href="../../d5/d8a/_expectation_8hpp.html" target="_top" xlink:title=" ">
<polygon fill="white" stroke="#666666" points="293.75,-240.25 168.25,-240.25 168.25,-221 293.75,-221 293.75,-240.25"/>
<text text-anchor="middle" x="231" y="-226.75" font-family="Helvetica,sans-Serif" font-size="10.00">mimic++/Expectation.hpp</text>
</a>
</g>
</g>
<!-- Node2&#45;&gt;Node3 -->
<g id="edge2_Node000002_Node000003" class="edge">
<title>Node2&#45;&gt;Node3</title>
<g id="a_edge2_Node000002_Node000003"><a xlink:title=" ">
<path fill="none" stroke="#63b8ff" d="M231,-264.63C231,-256.34 231,-247.17 231,-240.61"/>
<polygon fill="#63b8ff" stroke="#63b8ff" points="227.5,-264.57 231,-274.57 234.5,-264.57 227.5,-264.57"/>
</a>
</g>
</g>
<!-- Node2&#45;&gt;Node4 -->
<g id="edge14_Node000002_Node000004" class="edge">
<title>Node2&#45;&gt;Node4</title>
<g id="a_edge14_Node000002_Node000004"><a xlink:title=" ">
<path fill="none" stroke="#63b8ff" d="M268.08,-271.05C281.57,-264.01 295.36,-253.97 303,-240.25 324.51,-201.62 284.94,-150.64 266.61,-130.19"/>
<polygon fill="#63b8ff" stroke="#63b8ff" points="266.84,-267.77 259.31,-275.21 269.84,-274.09 266.84,-267.77"/>
</a>
</g>
</g>
<!-- Node2&#45;&gt;Node7 -->
<g id="edge15_Node000002_Node000007" class="edge">
<title>Node2&#45;&gt;Node7</title>
<g id="a_edge15_Node000002_Node000007"><a xlink:title=" ">
<path fill="none" stroke="#63b8ff" d="M155.44,-273.25C101.33,-260.14 38,-232.74 38,-176.38 38,-176.38 38,-176.38 38,-119.12 38,-78.52 68.69,-37.47 83.8,-19.73"/>
<polygon fill="#63b8ff" stroke="#63b8ff" points="154.46,-276.62 164.99,-275.43 156.02,-269.79 154.46,-276.62"/>
</a>
</g>
</g>
<!-- Node3&#45;&gt;Node4 -->
<g id="edge3_Node000003_Node000004" class="edge">
<title>Node3&#45;&gt;Node4</title>
<g id="a_edge3_Node000003_Node000004"><a xlink:title=" ">
<path fill="none" stroke="#63b8ff" d="M252.16,-213.28C260.3,-205.68 268.68,-195.89 273,-185 280.47,-166.15 270.3,-142.63 263.41,-130.05"/>
<polygon fill="#63b8ff" stroke="#63b8ff" points="250.06,-210.47 244.76,-219.65 254.62,-215.78 250.06,-210.47"/>
</a>
</g>
</g>
<!-- Node5 -->
<g id="Node000005" class="node">
<title>Node5</title>
<g id="a_Node000005"><a xlink:href="../../d5/dc5/_mock_8hpp.html" target="_top" xlink:title=" ">
<polygon fill="white" stroke="#666666" points="300.62,-74.5 201.38,-74.5 201.38,-55.25 300.62,-55.25 300.62,-74.5"/>
<text text-anchor="middle" x="251" y="-61" font-family="Helvetica,sans-Serif" font-size="10.00">mimic++/Mock.hpp</text>
</a>
</g>
</g>
<!-- Node3&#45;&gt;Node5 -->
<g id="edge12_Node000003_Node000005" class="edge">
<title>Node3&#45;&gt;Node5</title>
<g id="a_edge12_Node000003_Node000005"><a xlink:title=" ">
<path fill="none" stroke="#63b8ff" d="M258.96,-215.08C287.01,-198.67 328.35,-169.07 345,-129.75 356.81,-101.86 320.66,-84.45 289.82,-74.98"/>
<polygon fill="#63b8ff" stroke="#63b8ff" points="257.26,-212.02 250.26,-219.97 260.69,-218.12 257.26,-212.02"/>
</a>
</g>
</g>
<!-- Node3&#45;&gt;Node7 -->
<g id="edge13_Node000003_Node000007" class="edge">
<title>Node3&#45;&gt;Node7</title>
<g id="a_edge13_Node000003_Node000007"><a xlink:title=" ">
<path fill="none" stroke="#63b8ff" d="M156.65,-222.17C133.18,-215.92 109.58,-204.77 95,-185 56.9,-133.34 79.85,-47.66 88.86,-19.73"/>
<polygon fill="#63b8ff" stroke="#63b8ff" points="155.75,-225.55 166.29,-224.44 157.35,-218.74 155.75,-225.55"/>
</a>
</g>
</g>
<!-- Node8 -->
<g id="Node000008" class="node">
<title>Node8</title>
<g id="a_Node000008"><a xlink:href="../../d8/de5/_expectation_policies_8hpp.html" target="_top" xlink:title=" ">
<polygon fill="white" stroke="#666666" points="264,-185 104,-185 104,-165.75 264,-165.75 264,-185"/>
<text text-anchor="middle" x="184" y="-171.5" font-family="Helvetica,sans-Serif" font-size="10.00">mimic++/ExpectationPolicies.hpp</text>
</a>
</g>
</g>
<!-- Node3&#45;&gt;Node8 -->
<g id="edge8_Node000003_Node000008" class="edge">
<title>Node3&#45;&gt;Node8</title>
<g id="a_edge8_Node000003_Node000008"><a xlink:title=" ">
<path fill="none" stroke="#63b8ff" d="M215.67,-212.26C207.75,-203.28 198.4,-192.7 191.93,-185.36"/>
<polygon fill="#63b8ff" stroke="#63b8ff" points="213,-214.52 222.24,-219.7 218.24,-209.88 213,-214.52"/>
</a>
</g>
</g>
<!-- Node4&#45;&gt;Node5 -->
<g id="edge4_Node000004_Node000005" class="edge">
<title>Node4&#45;&gt;Node5</title>
<g id="a_edge4_Node000004_Node000005"><a xlink:title=" ">
<path fill="none" stroke="#63b8ff" d="M255.38,-99.17C254.28,-90.8 253.05,-81.5 252.18,-74.86"/>
<polygon fill="#63b8ff" stroke="#63b8ff" points="251.87,-99.37 256.65,-108.83 258.81,-98.46 251.87,-99.37"/>
</a>
</g>
</g>
<!-- Node4&#45;&gt;Node7 -->
<g id="edge7_Node000004_Node000007" class="edge">
<title>Node4&#45;&gt;Node7</title>
<g id="a_edge7_Node000004_Node000007"><a xlink:title=" ">
<path fill="none" stroke="#63b8ff" d="M234.67,-103.88C199.53,-80.91 134.09,-38.13 105.71,-19.59"/>
<polygon fill="#63b8ff" stroke="#63b8ff" points="232.58,-106.69 242.87,-109.23 236.41,-100.83 232.58,-106.69"/>
</a>
</g>
</g>
<!-- Node6 -->
<g id="Node000006" class="node">
<title>Node6</title>
<g id="a_Node000006"><a xlink:href="../../d9/dc3/_interface_mock_8hpp.html" target="_top" xlink:title=" ">
<polygon fill="white" stroke="#666666" points="319.75,-19.25 182.25,-19.25 182.25,0 319.75,0 319.75,-19.25"/>
<text text-anchor="middle" x="251" y="-5.75" font-family="Helvetica,sans-Serif" font-size="10.00">mimic++/InterfaceMock.hpp</text>
</a>
</g>
</g>
<!-- Node5&#45;&gt;Node6 -->
<g id="edge5_Node000005_Node000006" class="edge">
<title>Node5&#45;&gt;Node6</title>
<g id="a_edge5_Node000005_Node000006"><a xlink:title=" ">
<path fill="none" stroke="#63b8ff" d="M251,-43.63C251,-35.34 251,-26.17 251,-19.61"/>
<polygon fill="#63b8ff" stroke="#63b8ff" points="247.5,-43.57 251,-53.57 254.5,-43.57 247.5,-43.57"/>
</a>
</g>
</g>
<!-- Node5&#45;&gt;Node7 -->
<g id="edge6_Node000005_Node000007" class="edge">
<title>Node5&#45;&gt;Node7</title>
<g id="a_edge6_Node000005_Node000007"><a xlink:title=" ">
<path fill="none" stroke="#63b8ff" d="M213.48,-51.31C184.5,-41.6 145.08,-28.4 119.1,-19.7"/>
<polygon fill="#63b8ff" stroke="#63b8ff" points="212,-54.5 222.59,-54.36 214.22,-47.87 212,-54.5"/>
</a>
</g>
</g>
<!-- Node8&#45;&gt;Node4 -->
<g id="edge9_Node000008_Node000004" class="edge">
<title>Node8&#45;&gt;Node4</title>
<g id="a_edge9_Node000008_Node000004"><a xlink:title=" ">
<path fill="none" stroke="#63b8ff" d="M205.76,-158.72C218.75,-149.37 234.78,-137.83 245.63,-130.02"/>
<polygon fill="#63b8ff" stroke="#63b8ff" points="203.85,-155.78 197.78,-164.46 207.94,-161.46 203.85,-155.78"/>
</a>
</g>
</g>
<!-- Node8&#45;&gt;Node5 -->
<g id="edge10_Node000008_Node000005" class="edge">
<title>Node8&#45;&gt;Node5</title>
<g id="a_edge10_Node000008_Node000005"><a xlink:title=" ">
<path fill="none" stroke="#63b8ff" d="M173.55,-155.51C167.66,-142.14 162.94,-124.22 171,-110.5 181.39,-92.81 201.62,-81.62 219.14,-74.86"/>
<polygon fill="#63b8ff" stroke="#63b8ff" points="170.25,-156.73 177.84,-164.12 176.51,-153.61 170.25,-156.73"/>
</a>
</g>
</g>
<!-- Node8&#45;&gt;Node7 -->
<g id="edge11_Node000008_Node000007" class="edge">
<title>Node8&#45;&gt;Node7</title>
<g id="a_edge11_Node000008_Node000007"><a xlink:title=" ">
<path fill="none" stroke="#63b8ff" d="M173.46,-155.62C153.62,-120.3 111.42,-45.18 96.97,-19.47"/>
<polygon fill="#63b8ff" stroke="#63b8ff" points="170.36,-157.25 178.31,-164.25 176.47,-153.82 170.36,-157.25"/>
</a>
</g>
</g>
</g>
</svg>
</svg>

<style type='text/css'>
<![CDATA[
[data-mouse-over-selected='false'] { opacity: 0.7; }
[data-mouse-over-selected='true']  { opacity: 1.0; }
]]>
</style>
<script type="application/ecmascript"><![CDATA[
document.addEventListener('DOMContentLoaded', (event) => {
  highlightEdges();
  highlightAdjacentNodes();
});
]]></script>
</svg>
