<?xml version="1.0" encoding="UTF-8" standalone="no"?>
<!DOCTYPE svg PUBLIC "-//W3C//DTD SVG 1.1//EN"
 "http://www.w3.org/Graphics/SVG/1.1/DTD/svg11.dtd">
<!-- Generated by graphviz version 12.1.1 (20240910.0053)
 -->
<!-- Title: mimic++/Reports.hpp Pages: 1 -->
<svg width="757pt" height="469pt"
 viewBox="0.00 0.00 756.84 469.25" xmlns="http://www.w3.org/2000/svg" xmlns:xlink="http://www.w3.org/1999/xlink">
<g id="graph0" class="graph" transform="scale(1 1) rotate(0) translate(4 465.25)">
<title>mimic++/Reports.hpp</title>
<!-- Node1 -->
<g id="Node000001" class="node">
<title>Node1</title>
<g id="a_Node000001"><a xlink:title=" ">
<polygon fill="#999999" stroke="#666666" points="228.5,-461.25 119.5,-461.25 119.5,-442 228.5,-442 228.5,-461.25"/>
<text text-anchor="middle" x="174" y="-447.75" font-family="Helvetica,sans-Serif" font-size="10.00">mimic++/Reports.hpp</text>
</a>
</g>
</g>
<!-- Node2 -->
<g id="Node000002" class="node">
<title>Node2</title>
<g id="a_Node000002"><a xlink:href="../../d6/d17/_control_policy_8hpp.html" target="_top" xlink:title=" ">
<polygon fill="white" stroke="#666666" points="261.12,-295.5 128.88,-295.5 128.88,-276.25 261.12,-276.25 261.12,-295.5"/>
<text text-anchor="middle" x="195" y="-282" font-family="Helvetica,sans-Serif" font-size="10.00">mimic++/ControlPolicy.hpp</text>
</a>
</g>
</g>
<!-- Node1&#45;&gt;Node2 -->
<g id="edge1_Node000001_Node000002" class="edge">
<title>Node1&#45;&gt;Node2</title>
<g id="a_edge1_Node000001_Node000002"><a xlink:title=" ">
<path fill="none" stroke="#63b8ff" d="M176.58,-430.47C181.18,-394.61 190.61,-321.1 193.87,-295.72"/>
<polygon fill="#63b8ff" stroke="#63b8ff" points="173.12,-429.96 175.32,-440.32 180.07,-430.85 173.12,-429.96"/>
</a>
</g>
</g>
<!-- Node6 -->
<g id="Node000006" class="node">
<title>Node6</title>
<g id="a_Node000006"><a xlink:href="../../d0/db9/mimic_09_09_8hpp.html" target="_top" xlink:title=" ">
<polygon fill="white" stroke="#666666" points="291.75,-19.25 178.25,-19.25 178.25,0 291.75,0 291.75,-19.25"/>
<text text-anchor="middle" x="235" y="-5.75" font-family="Helvetica,sans-Serif" font-size="10.00">mimic++/mimic++.hpp</text>
</a>
</g>
</g>
<!-- Node1&#45;&gt;Node6 -->
<g id="edge25_Node000001_Node000006" class="edge">
<title>Node1&#45;&gt;Node6</title>
<g id="a_edge25_Node000001_Node000006"><a xlink:title=" ">
<path fill="none" stroke="#63b8ff" d="M112.55,-438.63C62.48,-424.86 0,-396.74 0,-342.12 0,-342.12 0,-342.12 0,-119.12 0,-41.05 108.25,-18.97 177.81,-12.85"/>
<polygon fill="#63b8ff" stroke="#63b8ff" points="111.65,-442.01 122.21,-441.13 113.41,-435.23 111.65,-442.01"/>
</a>
</g>
</g>
<!-- Node8 -->
<g id="Node000008" class="node">
<title>Node8</title>
<g id="a_Node000008"><a xlink:href="../../da/dd9/_reporter_8hpp.html" target="_top" xlink:title=" ">
<polygon fill="white" stroke="#666666" points="491,-406 379,-406 379,-386.75 491,-386.75 491,-406"/>
<text text-anchor="middle" x="435" y="-392.5" font-family="Helvetica,sans-Serif" font-size="10.00">mimic++/Reporter.hpp</text>
</a>
</g>
</g>
<!-- Node1&#45;&gt;Node8 -->
<g id="edge15_Node000001_Node000008" class="edge">
<title>Node1&#45;&gt;Node8</title>
<g id="a_edge15_Node000001_Node000008"><a xlink:title=" ">
<path fill="none" stroke="#63b8ff" d="M229.71,-439.26C277.75,-429.46 346.2,-415.49 390.61,-406.43"/>
<polygon fill="#63b8ff" stroke="#63b8ff" points="229.15,-435.8 220.05,-441.23 230.55,-442.66 229.15,-435.8"/>
</a>
</g>
</g>
<!-- Node3 -->
<g id="Node000003" class="node">
<title>Node3</title>
<g id="a_Node000003"><a xlink:href="../../d5/d8a/_expectation_8hpp.html" target="_top" xlink:title=" ">
<polygon fill="white" stroke="#666666" points="382.75,-240.25 257.25,-240.25 257.25,-221 382.75,-221 382.75,-240.25"/>
<text text-anchor="middle" x="320" y="-226.75" font-family="Helvetica,sans-Serif" font-size="10.00">mimic++/Expectation.hpp</text>
</a>
</g>
</g>
<!-- Node2&#45;&gt;Node3 -->
<g id="edge2_Node000002_Node000003" class="edge">
<title>Node2&#45;&gt;Node3</title>
<g id="a_edge2_Node000002_Node000003"><a xlink:title=" ">
<path fill="none" stroke="#63b8ff" d="M226.63,-271.4C249.18,-261.79 278.9,-249.13 298.69,-240.7"/>
<polygon fill="#63b8ff" stroke="#63b8ff" points="225.43,-268.11 217.6,-275.25 228.17,-274.55 225.43,-268.11"/>
</a>
</g>
</g>
<!-- Node4 -->
<g id="Node000004" class="node">
<title>Node4</title>
<g id="a_Node000004"><a xlink:href="../../d2/d4f/_expectation_builder_8hpp.html" target="_top" xlink:title=" ">
<polygon fill="white" stroke="#666666" points="259.75,-129.75 104.25,-129.75 104.25,-110.5 259.75,-110.5 259.75,-129.75"/>
<text text-anchor="middle" x="182" y="-116.25" font-family="Helvetica,sans-Serif" font-size="10.00">mimic++/ExpectationBuilder.hpp</text>
</a>
</g>
</g>
<!-- Node2&#45;&gt;Node4 -->
<g id="edge13_Node000002_Node000004" class="edge">
<title>Node2&#45;&gt;Node4</title>
<g id="a_edge13_Node000002_Node000004"><a xlink:title=" ">
<path fill="none" stroke="#63b8ff" d="M193.4,-264.72C190.55,-228.86 184.72,-155.35 182.7,-129.97"/>
<polygon fill="#63b8ff" stroke="#63b8ff" points="189.9,-264.87 194.18,-274.56 196.88,-264.32 189.9,-264.87"/>
</a>
</g>
</g>
<!-- Node2&#45;&gt;Node6 -->
<g id="edge14_Node000002_Node000006" class="edge">
<title>Node2&#45;&gt;Node6</title>
<g id="a_edge14_Node000002_Node000006"><a xlink:title=" ">
<path fill="none" stroke="#63b8ff" d="M160.83,-271.1C125.67,-254.39 76,-222.61 76,-176.38 76,-176.38 76,-176.38 76,-119.12 76,-61.98 146.94,-32.77 194.05,-19.67"/>
<polygon fill="#63b8ff" stroke="#63b8ff" points="159.27,-274.23 169.83,-275.17 162.16,-267.86 159.27,-274.23"/>
</a>
</g>
</g>
<!-- Node3&#45;&gt;Node4 -->
<g id="edge3_Node000003_Node000004" class="edge">
<title>Node3&#45;&gt;Node4</title>
<g id="a_edge3_Node000003_Node000004"><a xlink:title=" ">
<path fill="none" stroke="#63b8ff" d="M291.51,-215.28C276.72,-207.26 258.72,-196.56 244,-185 222.12,-167.82 200.36,-143.22 189.36,-130.13"/>
<polygon fill="#63b8ff" stroke="#63b8ff" points="289.8,-218.34 300.28,-219.92 293.08,-212.15 289.8,-218.34"/>
</a>
</g>
</g>
<!-- Node5 -->
<g id="Node000005" class="node">
<title>Node5</title>
<g id="a_Node000005"><a xlink:href="../../d5/dc5/_mock_8hpp.html" target="_top" xlink:title=" ">
<polygon fill="white" stroke="#666666" points="323.62,-74.5 224.38,-74.5 224.38,-55.25 323.62,-55.25 323.62,-74.5"/>
<text text-anchor="middle" x="274" y="-61" font-family="Helvetica,sans-Serif" font-size="10.00">mimic++/Mock.hpp</text>
</a>
</g>
</g>
<!-- Node3&#45;&gt;Node5 -->
<g id="edge11_Node000003_Node000005" class="edge">
<title>Node3&#45;&gt;Node5</title>
<g id="a_edge11_Node000003_Node000005"><a xlink:title=" ">
<path fill="none" stroke="#63b8ff" d="M298.48,-213.32C290.17,-205.72 281.57,-195.93 277,-185 268.7,-165.15 271.91,-98.92 273.4,-74.77"/>
<polygon fill="#63b8ff" stroke="#63b8ff" points="296.13,-215.92 306.03,-219.69 300.65,-210.57 296.13,-215.92"/>
</a>
</g>
</g>
<!-- Node3&#45;&gt;Node6 -->
<g id="edge12_Node000003_Node000006" class="edge">
<title>Node3&#45;&gt;Node6</title>
<g id="a_edge12_Node000003_Node000006"><a xlink:title=" ">
<path fill="none" stroke="#63b8ff" d="M394.31,-221.36C431.94,-213.27 467.33,-197.29 455,-165.75 430.66,-103.5 408.41,-92.63 353,-55.25 328.12,-38.47 296.08,-26.87 271.66,-19.71"/>
<polygon fill="#63b8ff" stroke="#63b8ff" points="393.78,-217.9 384.63,-223.25 395.12,-224.77 393.78,-217.9"/>
</a>
</g>
</g>
<!-- Node7 -->
<g id="Node000007" class="node">
<title>Node7</title>
<g id="a_Node000007"><a xlink:href="../../d8/de5/_expectation_policies_8hpp.html" target="_top" xlink:title=" ">
<polygon fill="white" stroke="#666666" points="446,-185 286,-185 286,-165.75 446,-165.75 446,-185"/>
<text text-anchor="middle" x="366" y="-171.5" font-family="Helvetica,sans-Serif" font-size="10.00">mimic++/ExpectationPolicies.hpp</text>
</a>
</g>
</g>
<!-- Node3&#45;&gt;Node7 -->
<g id="edge7_Node000003_Node000007" class="edge">
<title>Node3&#45;&gt;Node7</title>
<g id="a_edge7_Node000003_Node000007"><a xlink:title=" ">
<path fill="none" stroke="#63b8ff" d="M335,-212.26C342.76,-203.28 351.9,-192.7 358.24,-185.36"/>
<polygon fill="#63b8ff" stroke="#63b8ff" points="332.47,-209.83 328.59,-219.69 337.77,-214.41 332.47,-209.83"/>
</a>
</g>
</g>
<!-- Node4&#45;&gt;Node5 -->
<g id="edge4_Node000004_Node000005" class="edge">
<title>Node4&#45;&gt;Node5</title>
<g id="a_edge4_Node000004_Node000005"><a xlink:title=" ">
<path fill="none" stroke="#63b8ff" d="M207.11,-104.59C223.46,-95.13 244.28,-83.08 258.32,-74.95"/>
<polygon fill="#63b8ff" stroke="#63b8ff" points="205.82,-101.29 198.92,-109.33 209.32,-107.35 205.82,-101.29"/>
</a>
</g>
</g>
<!-- Node4&#45;&gt;Node6 -->
<g id="edge6_Node000004_Node000006" class="edge">
<title>Node4&#45;&gt;Node6</title>
<g id="a_edge6_Node000004_Node000006"><a xlink:title=" ">
<path fill="none" stroke="#63b8ff" d="M191.3,-100.08C202.84,-76.47 222.01,-37.21 230.6,-19.63"/>
<polygon fill="#63b8ff" stroke="#63b8ff" points="188.25,-98.36 187,-108.89 194.54,-101.44 188.25,-98.36"/>
</a>
</g>
</g>
<!-- Node5&#45;&gt;Node6 -->
<g id="edge5_Node000005_Node000006" class="edge">
<title>Node5&#45;&gt;Node6</title>
<g id="a_edge5_Node000005_Node000006"><a xlink:title=" ">
<path fill="none" stroke="#63b8ff" d="M260.86,-45.94C254.38,-37.09 246.84,-26.79 241.58,-19.61"/>
<polygon fill="#63b8ff" stroke="#63b8ff" points="257.93,-47.86 266.67,-53.86 263.58,-43.73 257.93,-47.86"/>
</a>
</g>
</g>
<!-- Node7&#45;&gt;Node4 -->
<g id="edge8_Node000007_Node000004" class="edge">
<title>Node7&#45;&gt;Node4</title>
<g id="a_edge8_Node000007_Node000004"><a xlink:title=" ">
<path fill="none" stroke="#63b8ff" d="M323.9,-162.19C290.25,-152.45 243.82,-139.02 213.37,-130.2"/>
<polygon fill="#63b8ff" stroke="#63b8ff" points="322.75,-165.5 333.33,-164.92 324.7,-158.78 322.75,-165.5"/>
</a>
</g>
</g>
<!-- Node7&#45;&gt;Node5 -->
<g id="edge9_Node000007_Node000005" class="edge">
<title>Node7&#45;&gt;Node5</title>
<g id="a_edge9_Node000007_Node000005"><a xlink:title=" ">
<path fill="none" stroke="#63b8ff" d="M351.19,-156.91C331.36,-133.52 296.88,-92.86 281.63,-74.88"/>
<polygon fill="#63b8ff" stroke="#63b8ff" points="348.36,-158.98 357.49,-164.34 353.69,-154.45 348.36,-158.98"/>
</a>
</g>
</g>
<!-- Node7&#45;&gt;Node6 -->
<g id="edge10_Node000007_Node000006" class="edge">
<title>Node7&#45;&gt;Node6</title>
<g id="a_edge10_Node000007_Node000006"><a xlink:title=" ">
<path fill="none" stroke="#63b8ff" d="M365.47,-154.13C363.76,-128.3 357.2,-83.59 333,-55.25 317.7,-37.34 293.72,-26.25 273.31,-19.6"/>
<polygon fill="#63b8ff" stroke="#63b8ff" points="361.96,-154.09 365.91,-163.92 368.95,-153.77 361.96,-154.09"/>
</a>
</g>
</g>
<!-- Node8&#45;&gt;Node3 -->
<g id="edge16_Node000008_Node000003" class="edge">
<title>Node8&#45;&gt;Node3</title>
<g id="a_edge16_Node000008_Node000003"><a xlink:title=" ">
<path fill="none" stroke="#63b8ff" d="M473.71,-382C499.41,-370.8 526.19,-353.18 513,-331.5 480.94,-278.8 411.1,-252.68 364.83,-240.68"/>
<polygon fill="#63b8ff" stroke="#63b8ff" points="472.6,-378.67 464.65,-385.68 475.23,-385.15 472.6,-378.67"/>
</a>
</g>
</g>
<!-- Node8&#45;&gt;Node6 -->
<g id="edge24_Node000008_Node000006" class="edge">
<title>Node8&#45;&gt;Node6</title>
<g id="a_edge24_Node000008_Node000006"><a xlink:title=" ">
<path fill="none" stroke="#63b8ff" d="M502.61,-393.33C578.74,-389.64 696.13,-379.36 729,-350.75 751.34,-331.31 748,-316.49 748,-286.88 748,-286.88 748,-286.88 748,-119.12 748,-26.73 425.43,-12.64 291.86,-10.77"/>
<polygon fill="#63b8ff" stroke="#63b8ff" points="502.57,-389.83 492.74,-393.78 502.89,-396.82 502.57,-389.83"/>
</a>
</g>
</g>
<!-- Node9 -->
<g id="Node000009" class="node">
<title>Node9</title>
<g id="a_Node000009"><a xlink:href="../../d8/de4/_sequence_8hpp.html" target="_top" xlink:title=" ">
<polygon fill="white" stroke="#666666" points="146.38,-350.75 27.62,-350.75 27.62,-331.5 146.38,-331.5 146.38,-350.75"/>
<text text-anchor="middle" x="87" y="-337.25" font-family="Helvetica,sans-Serif" font-size="10.00">mimic++/Sequence.hpp</text>
</a>
</g>
</g>
<!-- Node8&#45;&gt;Node9 -->
<g id="edge17_Node000008_Node000009" class="edge">
<title>Node8&#45;&gt;Node9</title>
<g id="a_edge17_Node000008_Node000009"><a xlink:title=" ">
<path fill="none" stroke="#63b8ff" d="M367.5,-385.05C303.33,-375.23 207.77,-360.61 146.42,-351.22"/>
<polygon fill="#63b8ff" stroke="#63b8ff" points="366.79,-388.48 377.2,-386.53 367.85,-381.56 366.79,-388.48"/>
</a>
</g>
</g>
<!-- Node10 -->
<g id="Node000010" class="node">
<title>Node10</title>
<g id="a_Node000010"><a xlink:href="../../d9/d42/_boost_test_8hpp.html" target="_top" xlink:title=" ">
<polygon fill="white" stroke="#666666" points="720.38,-350.75 559.62,-350.75 559.62,-331.5 720.38,-331.5 720.38,-350.75"/>
<text text-anchor="middle" x="640" y="-337.25" font-family="Helvetica,sans-Serif" font-size="10.00">mimic++/adapters/BoostTest.hpp</text>
</a>
</g>
</g>
<!-- Node8&#45;&gt;Node10 -->
<g id="edge21_Node000008_Node000010" class="edge">
<title>Node8&#45;&gt;Node10</title>
<g id="a_edge21_Node000008_Node000010"><a xlink:title=" ">
<path fill="none" stroke="#63b8ff" d="M480.44,-383.57C518.04,-373.8 570.68,-360.13 605.05,-351.2"/>
<polygon fill="#63b8ff" stroke="#63b8ff" points="480.04,-380.06 471.24,-385.96 481.8,-386.83 480.04,-380.06"/>
</a>
</g>
</g>
<!-- Node11 -->
<g id="Node000011" class="node">
<title>Node11</title>
<g id="a_Node000011"><a xlink:href="../../d3/d04/_catch2_8hpp.html" target="_top" xlink:title=" ">
<polygon fill="white" stroke="#666666" points="348.25,-350.75 201.75,-350.75 201.75,-331.5 348.25,-331.5 348.25,-350.75"/>
<text text-anchor="middle" x="275" y="-337.25" font-family="Helvetica,sans-Serif" font-size="10.00">mimic++/adapters/Catch2.hpp</text>
</a>
</g>
</g>
<!-- Node8&#45;&gt;Node11 -->
<g id="edge22_Node000008_Node000011" class="edge">
<title>Node8&#45;&gt;Node11</title>
<g id="a_edge22_Node000008_Node000011"><a xlink:title=" ">
<path fill="none" stroke="#63b8ff" d="M397.24,-382.81C368.08,-373.1 328.41,-359.9 302.27,-351.2"/>
<polygon fill="#63b8ff" stroke="#63b8ff" points="395.83,-386.03 406.42,-385.86 398.04,-379.39 395.83,-386.03"/>
</a>
</g>
</g>
<!-- Node12 -->
<g id="Node000012" class="node">
<title>Node12</title>
<g id="a_Node000012"><a xlink:href="../../d5/db1/gtest_8hpp.html" target="_top" xlink:title=" ">
<polygon fill="white" stroke="#666666" points="503.75,-350.75 366.25,-350.75 366.25,-331.5 503.75,-331.5 503.75,-350.75"/>
<text text-anchor="middle" x="435" y="-337.25" font-family="Helvetica,sans-Serif" font-size="10.00">mimic++/adapters/gtest.hpp</text>
</a>
</g>
</g>
<!-- Node8&#45;&gt;Node12 -->
<g id="edge23_Node000008_Node000012" class="edge">
<title>Node8&#45;&gt;Node12</title>
<g id="a_edge23_Node000008_Node000012"><a xlink:title=" ">
<path fill="none" stroke="#63b8ff" d="M435,-375.13C435,-366.84 435,-357.67 435,-351.11"/>
<polygon fill="#63b8ff" stroke="#63b8ff" points="431.5,-375.07 435,-385.07 438.5,-375.07 431.5,-375.07"/>
</a>
</g>
</g>
<!-- Node9&#45;&gt;Node2 -->
<g id="edge18_Node000009_Node000002" class="edge">
<title>Node9&#45;&gt;Node2</title>
<g id="a_edge18_Node000009_Node000002"><a xlink:title=" ">
<path fill="none" stroke="#63b8ff" d="M115.39,-326.12C134.75,-316.58 159.8,-304.23 176.59,-295.95"/>
<polygon fill="#63b8ff" stroke="#63b8ff" points="114.1,-322.86 106.68,-330.42 117.2,-329.14 114.1,-322.86"/>
</a>
</g>
</g>
<!-- Node9&#45;&gt;Node4 -->
<g id="edge19_Node000009_Node000004" class="edge">
<title>Node9&#45;&gt;Node4</title>
<g id="a_edge19_Node000009_Node000004"><a xlink:title=" ">
<path fill="none" stroke="#63b8ff" d="M95.41,-320.74C115.22,-275.07 164.22,-162.1 178.21,-129.85"/>
<polygon fill="#63b8ff" stroke="#63b8ff" points="92.21,-319.31 91.44,-329.88 98.63,-322.1 92.21,-319.31"/>
</a>
</g>
</g>
<!-- Node9&#45;&gt;Node6 -->
<g id="edge20_Node000009_Node000006" class="edge">
<title>Node9&#45;&gt;Node6</title>
<g id="a_edge20_Node000009_Node000006"><a xlink:title=" ">
<path fill="none" stroke="#63b8ff" d="M73.08,-322.03C58.59,-301.35 38,-265.93 38,-231.62 38,-231.62 38,-231.62 38,-119.12 38,-54.8 119.59,-28.33 177.75,-17.63"/>
<polygon fill="#63b8ff" stroke="#63b8ff" points="70.15,-323.95 78.88,-329.95 75.79,-319.81 70.15,-323.95"/>
</a>
</g>
</g>
</g>
</svg>
