<?xml version="1.0" encoding="UTF-8" standalone="no"?>
<!DOCTYPE svg PUBLIC "-//W3C//DTD SVG 1.1//EN"
 "http://www.w3.org/Graphics/SVG/1.1/DTD/svg11.dtd">
<!-- Generated by graphviz version 12.1.1 (20240910.0053)
 -->
<!-- Title: mimic++/Reports.hpp Pages: 1 -->
<!--zoomable 469 -->

<svg id="main" version="1.1" xmlns="http://www.w3.org/2000/svg" xmlns:xlink="http://www.w3.org/1999/xlink" xml:space="preserve" onload="init(evt)">

<style type="text/css"><![CDATA[
.node, .edge {opacity: 0.7;}
.node.selected, .edge.selected {opacity: 1;}
.edge:hover path { stroke: red; }
.edge:hover polygon { stroke: red; fill: red; }
]]></style>

<defs>
  <circle id="rim" cx="0" cy="0" r="7"/>
  <circle id="rim2" cx="0" cy="0" r="3.5"/>
  <g id="zoomPlus">
    <use xlink:href="#rim" fill="#404040"><set attributeName="fill" to="#808080" begin="zoomplus.mouseover" end="zoomplus.mouseout"/></use>
    <path d="M-4,0h8M0,-4v8" fill="none" stroke="white" stroke-width="1.5" pointer-events="none"/>
  </g>
  <g id="zoomMin">
    <use xlink:href="#rim" fill="#404040"><set attributeName="fill" to="#808080" begin="zoomminus.mouseover" end="zoomminus.mouseout"/></use>
    <path d="M-4,0h8" fill="none" stroke="white" stroke-width="1.5" pointer-events="none"/>
  </g>
  <g id="arrowUp" transform="translate(30 24)">
    <use xlink:href="#rim"/>
    <path pointer-events="none" fill="none" stroke="white" stroke-width="1.5" d="M0,-3.0v7 M-2.5,-0.5L0,-3.0L2.5,-0.5"/>
  </g>
  <g id="arrowRight" transform="rotate(90) translate(36 -43)">
    <use xlink:href="#rim"/>
    <path pointer-events="none" fill="none" stroke="white" stroke-width="1.5" d="M0,-3.0v7 M-2.5,-0.5L0,-3.0L2.5,-0.5"/>
  </g>
  <g id="arrowDown" transform="rotate(180) translate(-30 -48)">
    <use xlink:href="#rim"/>
    <path pointer-events="none" fill="none" stroke="white" stroke-width="1.5" d="M0,-3.0v7 M-2.5,-0.5L0,-3.0L2.5,-0.5"/>
  </g>
  <g id="arrowLeft" transform="rotate(270) translate(-36 17)">
    <use xlink:href="#rim"/>
    <path pointer-events="none" fill="none" stroke="white" stroke-width="1.5" d="M0,-3.0v7 M-2.5,-0.5L0,-3.0L2.5,-0.5"/>
  </g>
  <g id="resetDef">
    <use xlink:href="#rim2" fill="#404040"><set attributeName="fill" to="#808080" begin="reset.mouseover" end="reset.mouseout"/></use>
  </g>
</defs>
<script type="application/ecmascript">
var viewWidth = 717;
var viewHeight = 469;
var sectionId = 'dynsection-1';
</script>
<script type="application/ecmascript" xlink:href="../../svg.min.js"/>
<svg id="graph" class="graph">
<g id="viewport">
<title>mimic++/Reports.hpp</title>
<!-- Node1 -->
<g id="Node000001" class="node">
<title>Node1</title>
<g id="a_Node000001"><a xlink:title=" ">
<polygon fill="#999999" stroke="#666666" points="423.5,-461.25 314.5,-461.25 314.5,-442 423.5,-442 423.5,-461.25"/>
<text text-anchor="middle" x="369" y="-447.75" font-family="Helvetica,sans-Serif" font-size="10.00">mimic++/Reports.hpp</text>
</a>
</g>
</g>
<!-- Node2 -->
<g id="Node000002" class="node">
<title>Node2</title>
<g id="a_Node000002"><a xlink:href="../../d6/d17/_control_policy_8hpp.html" target="_top" xlink:title=" ">
<polygon fill="white" stroke="#666666" points="285.12,-295.5 152.88,-295.5 152.88,-276.25 285.12,-276.25 285.12,-295.5"/>
<text text-anchor="middle" x="219" y="-282" font-family="Helvetica,sans-Serif" font-size="10.00">mimic++/ControlPolicy.hpp</text>
</a>
</g>
</g>
<!-- Node1&#45;&gt;Node2 -->
<g id="edge1_Node000001_Node000002" class="edge">
<title>Node1&#45;&gt;Node2</title>
<g id="a_edge1_Node000001_Node000002"><a xlink:title=" ">
<path fill="none" stroke="#63b8ff" d="M434.84,-447.93C550.35,-440.96 770.3,-416.42 693,-331.5 666.08,-301.93 409.05,-291.57 285.15,-288.27"/>
<polygon fill="#63b8ff" stroke="#63b8ff" points="434.95,-444.41 425.17,-448.48 435.35,-451.4 434.95,-444.41"/>
</a>
</g>
</g>
<!-- Node7 -->
<g id="Node000007" class="node">
<title>Node7</title>
<g id="a_Node000007"><a xlink:href="../../d0/db9/mimic_09_09_8hpp.html" target="_top" xlink:title=" ">
<polygon fill="white" stroke="#666666" points="204.75,-19.25 91.25,-19.25 91.25,0 204.75,0 204.75,-19.25"/>
<text text-anchor="middle" x="148" y="-5.75" font-family="Helvetica,sans-Serif" font-size="10.00">mimic++/mimic++.hpp</text>
</a>
</g>
</g>
<!-- Node1&#45;&gt;Node7 -->
<g id="edge26_Node000001_Node000007" class="edge">
<title>Node1&#45;&gt;Node7</title>
<g id="a_edge26_Node000001_Node000007"><a xlink:title=" ">
<path fill="none" stroke="#63b8ff" d="M302.93,-444.82C196.76,-433.66 0,-404.54 0,-342.12 0,-342.12 0,-342.12 0,-119.12 0,-63.53 68.77,-33.31 112.55,-19.71"/>
<polygon fill="#63b8ff" stroke="#63b8ff" points="302.35,-448.28 312.65,-445.82 303.06,-441.32 302.35,-448.28"/>
</a>
</g>
</g>
<!-- Node9 -->
<g id="Node000009" class="node">
<title>Node9</title>
<g id="a_Node000009"><a xlink:href="../../da/dd9/_reporter_8hpp.html" target="_top" xlink:title=" ">
<polygon fill="white" stroke="#666666" points="425,-406 313,-406 313,-386.75 425,-386.75 425,-406"/>
<text text-anchor="middle" x="369" y="-392.5" font-family="Helvetica,sans-Serif" font-size="10.00">mimic++/Reporter.hpp</text>
</a>
</g>
</g>
<!-- Node1&#45;&gt;Node9 -->
<g id="edge16_Node000001_Node000009" class="edge">
<title>Node1&#45;&gt;Node9</title>
<g id="a_edge16_Node000001_Node000009"><a xlink:title=" ">
<path fill="none" stroke="#63b8ff" d="M369,-430.38C369,-422.09 369,-412.92 369,-406.36"/>
<polygon fill="#63b8ff" stroke="#63b8ff" points="365.5,-430.32 369,-440.32 372.5,-430.32 365.5,-430.32"/>
</a>
</g>
</g>
<!-- Node3 -->
<g id="Node000003" class="node">
<title>Node3</title>
<g id="a_Node000003"><a xlink:href="../../d5/d8a/_expectation_8hpp.html" target="_top" xlink:title=" ">
<polygon fill="white" stroke="#666666" points="400.75,-240.25 275.25,-240.25 275.25,-221 400.75,-221 400.75,-240.25"/>
<text text-anchor="middle" x="338" y="-226.75" font-family="Helvetica,sans-Serif" font-size="10.00">mimic++/Expectation.hpp</text>
</a>
</g>
</g>
<!-- Node2&#45;&gt;Node3 -->
<g id="edge2_Node000002_Node000003" class="edge">
<title>Node2&#45;&gt;Node3</title>
<g id="a_edge2_Node000002_Node000003"><a xlink:title=" ">
<path fill="none" stroke="#63b8ff" d="M249.4,-271.27C270.84,-261.68 298.96,-249.09 317.71,-240.7"/>
<polygon fill="#63b8ff" stroke="#63b8ff" points="248.27,-267.94 240.57,-275.22 251.13,-274.33 248.27,-267.94"/>
</a>
</g>
</g>
<!-- Node4 -->
<g id="Node000004" class="node">
<title>Node4</title>
<g id="a_Node000004"><a xlink:href="../../d2/d4f/_expectation_builder_8hpp.html" target="_top" xlink:title=" ">
<polygon fill="white" stroke="#666666" points="354.75,-129.75 199.25,-129.75 199.25,-110.5 354.75,-110.5 354.75,-129.75"/>
<text text-anchor="middle" x="277" y="-116.25" font-family="Helvetica,sans-Serif" font-size="10.00">mimic++/ExpectationBuilder.hpp</text>
</a>
</g>
</g>
<!-- Node2&#45;&gt;Node4 -->
<g id="edge14_Node000002_Node000004" class="edge">
<title>Node2&#45;&gt;Node4</title>
<g id="a_edge14_Node000002_Node000004"><a xlink:title=" ">
<path fill="none" stroke="#63b8ff" d="M225.81,-265.66C238.38,-230.15 264.8,-155.57 273.87,-129.97"/>
<polygon fill="#63b8ff" stroke="#63b8ff" points="222.66,-264.05 222.62,-274.64 229.26,-266.39 222.66,-264.05"/>
</a>
</g>
</g>
<!-- Node2&#45;&gt;Node7 -->
<g id="edge15_Node000002_Node000007" class="edge">
<title>Node2&#45;&gt;Node7</title>
<g id="a_edge15_Node000002_Node000007"><a xlink:title=" ">
<path fill="none" stroke="#63b8ff" d="M211.16,-265.17C196.9,-228.37 166.91,-146.42 153,-74.5 149.24,-55.06 148.29,-31.77 148.06,-19.39"/>
<polygon fill="#63b8ff" stroke="#63b8ff" points="207.89,-266.4 214.8,-274.43 214.4,-263.84 207.89,-266.4"/>
</a>
</g>
</g>
<!-- Node3&#45;&gt;Node4 -->
<g id="edge3_Node000003_Node000004" class="edge">
<title>Node3&#45;&gt;Node4</title>
<g id="a_edge3_Node000003_Node000004"><a xlink:title=" ">
<path fill="none" stroke="#63b8ff" d="M318.96,-213.18C310.9,-205.35 302,-195.43 296,-185 285.61,-166.95 280.44,-142.7 278.28,-129.9"/>
<polygon fill="#63b8ff" stroke="#63b8ff" points="316.36,-215.55 326.09,-219.76 321.11,-210.4 316.36,-215.55"/>
</a>
</g>
</g>
<!-- Node5 -->
<g id="Node000005" class="node">
<title>Node5</title>
<g id="a_Node000005"><a xlink:href="../../d5/dc5/_mock_8hpp.html" target="_top" xlink:title=" ">
<polygon fill="white" stroke="#666666" points="510.62,-74.5 411.38,-74.5 411.38,-55.25 510.62,-55.25 510.62,-74.5"/>
<text text-anchor="middle" x="461" y="-61" font-family="Helvetica,sans-Serif" font-size="10.00">mimic++/Mock.hpp</text>
</a>
</g>
</g>
<!-- Node3&#45;&gt;Node5 -->
<g id="edge12_Node000003_Node000005" class="edge">
<title>Node3&#45;&gt;Node5</title>
<g id="a_edge12_Node000003_Node000005"><a xlink:title=" ">
<path fill="none" stroke="#63b8ff" d="M412.23,-222.39C435.83,-216.17 459.53,-204.98 474,-185 498.65,-150.97 476.31,-96.47 465.78,-75"/>
<polygon fill="#63b8ff" stroke="#63b8ff" points="411.49,-218.97 402.54,-224.64 413.07,-225.79 411.49,-218.97"/>
</a>
</g>
</g>
<!-- Node3&#45;&gt;Node7 -->
<g id="edge13_Node000003_Node000007" class="edge">
<title>Node3&#45;&gt;Node7</title>
<g id="a_edge13_Node000003_Node000007"><a xlink:title=" ">
<path fill="none" stroke="#63b8ff" d="M306.58,-215.85C273.23,-199.73 221.13,-170.03 190,-129.75 162.91,-94.7 152.42,-40.8 149.2,-19.61"/>
<polygon fill="#63b8ff" stroke="#63b8ff" points="304.79,-218.88 315.33,-219.96 307.77,-212.54 304.79,-218.88"/>
</a>
</g>
</g>
<!-- Node8 -->
<g id="Node000008" class="node">
<title>Node8</title>
<g id="a_Node000008"><a xlink:href="../../d8/de5/_expectation_policies_8hpp.html" target="_top" xlink:title=" ">
<polygon fill="white" stroke="#666666" points="465,-185 305,-185 305,-165.75 465,-165.75 465,-185"/>
<text text-anchor="middle" x="385" y="-171.5" font-family="Helvetica,sans-Serif" font-size="10.00">mimic++/ExpectationPolicies.hpp</text>
</a>
</g>
</g>
<!-- Node3&#45;&gt;Node8 -->
<g id="edge8_Node000003_Node000008" class="edge">
<title>Node3&#45;&gt;Node8</title>
<g id="a_edge8_Node000003_Node000008"><a xlink:title=" ">
<path fill="none" stroke="#63b8ff" d="M353.33,-212.26C361.25,-203.28 370.6,-192.7 377.07,-185.36"/>
<polygon fill="#63b8ff" stroke="#63b8ff" points="350.76,-209.88 346.76,-219.7 356,-214.52 350.76,-209.88"/>
</a>
</g>
</g>
<!-- Node4&#45;&gt;Node5 -->
<g id="edge4_Node000004_Node000005" class="edge">
<title>Node4&#45;&gt;Node5</title>
<g id="a_edge4_Node000004_Node000005"><a xlink:title=" ">
<path fill="none" stroke="#63b8ff" d="M319.1,-106.94C352.75,-97.2 399.18,-83.77 429.63,-74.95"/>
<polygon fill="#63b8ff" stroke="#63b8ff" points="318.3,-103.53 309.67,-109.67 320.25,-110.25 318.3,-103.53"/>
</a>
</g>
</g>
<!-- Node4&#45;&gt;Node7 -->
<g id="edge7_Node000004_Node000007" class="edge">
<title>Node4&#45;&gt;Node7</title>
<g id="a_edge7_Node000004_Node000007"><a xlink:title=" ">
<path fill="none" stroke="#63b8ff" d="M257.7,-102.89C230.15,-79.72 180.47,-37.93 158.7,-19.63"/>
<polygon fill="#63b8ff" stroke="#63b8ff" points="255.38,-105.51 265.29,-109.27 259.88,-100.16 255.38,-105.51"/>
</a>
</g>
</g>
<!-- Node6 -->
<g id="Node000006" class="node">
<title>Node6</title>
<g id="a_Node000006"><a xlink:href="../../d9/dc3/_interface_mock_8hpp.html" target="_top" xlink:title=" ">
<polygon fill="white" stroke="#666666" points="529.75,-19.25 392.25,-19.25 392.25,0 529.75,0 529.75,-19.25"/>
<text text-anchor="middle" x="461" y="-5.75" font-family="Helvetica,sans-Serif" font-size="10.00">mimic++/InterfaceMock.hpp</text>
</a>
</g>
</g>
<!-- Node5&#45;&gt;Node6 -->
<g id="edge5_Node000005_Node000006" class="edge">
<title>Node5&#45;&gt;Node6</title>
<g id="a_edge5_Node000005_Node000006"><a xlink:title=" ">
<path fill="none" stroke="#63b8ff" d="M461,-43.63C461,-35.34 461,-26.17 461,-19.61"/>
<polygon fill="#63b8ff" stroke="#63b8ff" points="457.5,-43.57 461,-53.57 464.5,-43.57 457.5,-43.57"/>
</a>
</g>
</g>
<!-- Node5&#45;&gt;Node7 -->
<g id="edge6_Node000005_Node000007" class="edge">
<title>Node5&#45;&gt;Node7</title>
<g id="a_edge6_Node000005_Node000007"><a xlink:title=" ">
<path fill="none" stroke="#63b8ff" d="M399.91,-53.48C342.19,-43.66 256.49,-29.08 201.43,-19.72"/>
<polygon fill="#63b8ff" stroke="#63b8ff" points="399.12,-56.9 409.57,-55.12 400.29,-50 399.12,-56.9"/>
</a>
</g>
</g>
<!-- Node8&#45;&gt;Node4 -->
<g id="edge9_Node000008_Node000004" class="edge">
<title>Node8&#45;&gt;Node4</title>
<g id="a_edge9_Node000008_Node000004"><a xlink:title=" ">
<path fill="none" stroke="#63b8ff" d="M356.61,-160.37C337.25,-150.83 312.2,-138.48 295.41,-130.2"/>
<polygon fill="#63b8ff" stroke="#63b8ff" points="354.8,-163.39 365.32,-164.67 357.9,-157.11 354.8,-163.39"/>
</a>
</g>
</g>
<!-- Node8&#45;&gt;Node5 -->
<g id="edge10_Node000008_Node000005" class="edge">
<title>Node8&#45;&gt;Node5</title>
<g id="a_edge10_Node000008_Node000005"><a xlink:title=" ">
<path fill="none" stroke="#63b8ff" d="M397.67,-156.29C414.12,-132.8 442.21,-92.7 454.69,-74.88"/>
<polygon fill="#63b8ff" stroke="#63b8ff" points="394.96,-154.06 392.09,-164.26 400.69,-158.07 394.96,-154.06"/>
</a>
</g>
</g>
<!-- Node8&#45;&gt;Node7 -->
<g id="edge11_Node000008_Node000007" class="edge">
<title>Node8&#45;&gt;Node7</title>
<g id="a_edge11_Node000008_Node000007"><a xlink:title=" ">
<path fill="none" stroke="#63b8ff" d="M382.63,-154.24C380.08,-140.49 374.82,-122.65 364,-110.5 317.97,-58.82 239.71,-32.01 191.09,-19.65"/>
<polygon fill="#63b8ff" stroke="#63b8ff" points="379.14,-154.55 384.07,-163.93 386.06,-153.52 379.14,-154.55"/>
</a>
</g>
</g>
<!-- Node9&#45;&gt;Node3 -->
<g id="edge17_Node000009_Node000003" class="edge">
<title>Node9&#45;&gt;Node3</title>
<g id="a_edge17_Node000009_Node000003"><a xlink:title=" ">
<path fill="none" stroke="#63b8ff" d="M436.74,-396.04C521.76,-395.26 660.45,-388.09 693,-350.75 698.62,-344.3 698.17,-338.32 693,-331.5 657.82,-285.06 493.23,-254.17 401.02,-240.19"/>
<polygon fill="#63b8ff" stroke="#63b8ff" points="436.86,-392.54 426.88,-396.1 436.9,-399.54 436.86,-392.54"/>
</a>
</g>
</g>
<!-- Node9&#45;&gt;Node7 -->
<g id="edge25_Node000009_Node000007" class="edge">
<title>Node9&#45;&gt;Node7</title>
<g id="a_edge25_Node000009_Node000007"><a xlink:title=" ">
<path fill="none" stroke="#63b8ff" d="M301.66,-394.04C221.09,-391.06 92.61,-381.47 57,-350.75 34.57,-331.4 38,-316.49 38,-286.88 38,-286.88 38,-286.88 38,-119.12 38,-69.63 95.14,-35.12 127.05,-19.71"/>
<polygon fill="#63b8ff" stroke="#63b8ff" points="301.06,-397.52 311.18,-394.37 301.3,-390.52 301.06,-397.52"/>
</a>
</g>
</g>
<!-- Node10 -->
<g id="Node000010" class="node">
<title>Node10</title>
<g id="a_Node000010"><a xlink:href="../../d8/de4/_sequence_8hpp.html" target="_top" xlink:title=" ">
<polygon fill="white" stroke="#666666" points="184.38,-350.75 65.62,-350.75 65.62,-331.5 184.38,-331.5 184.38,-350.75"/>
<text text-anchor="middle" x="125" y="-337.25" font-family="Helvetica,sans-Serif" font-size="10.00">mimic++/Sequence.hpp</text>
</a>
</g>
</g>
<!-- Node9&#45;&gt;Node10 -->
<g id="edge18_Node000009_Node000010" class="edge">
<title>Node9&#45;&gt;Node10</title>
<g id="a_edge18_Node000009_Node000010"><a xlink:title=" ">
<path fill="none" stroke="#63b8ff" d="M316.35,-383.88C271.47,-374.09 207.84,-360.2 166.5,-351.18"/>
<polygon fill="#63b8ff" stroke="#63b8ff" points="315.34,-387.25 325.85,-385.96 316.83,-380.41 315.34,-387.25"/>
</a>
</g>
</g>
<!-- Node11 -->
<g id="Node000011" class="node">
<title>Node11</title>
<g id="a_Node000011"><a xlink:href="../../d9/d42/_boost_test_8hpp.html" target="_top" xlink:title=" ">
<polygon fill="white" stroke="#666666" points="363.38,-350.75 202.62,-350.75 202.62,-331.5 363.38,-331.5 363.38,-350.75"/>
<text text-anchor="middle" x="283" y="-337.25" font-family="Helvetica,sans-Serif" font-size="10.00">mimic++/adapters/BoostTest.hpp</text>
</a>
</g>
</g>
<!-- Node9&#45;&gt;Node11 -->
<g id="edge22_Node000009_Node000011" class="edge">
<title>Node9&#45;&gt;Node11</title>
<g id="a_edge22_Node000009_Node000011"><a xlink:title=" ">
<path fill="none" stroke="#63b8ff" d="M344.66,-380.3C329.51,-370.92 310.53,-359.17 297.66,-351.2"/>
<polygon fill="#63b8ff" stroke="#63b8ff" points="342.78,-383.26 353.12,-385.55 346.46,-377.3 342.78,-383.26"/>
</a>
</g>
</g>
<!-- Node12 -->
<g id="Node000012" class="node">
<title>Node12</title>
<g id="a_Node000012"><a xlink:href="../../d3/d04/_catch2_8hpp.html" target="_top" xlink:title=" ">
<polygon fill="white" stroke="#666666" points="528.25,-350.75 381.75,-350.75 381.75,-331.5 528.25,-331.5 528.25,-350.75"/>
<text text-anchor="middle" x="455" y="-337.25" font-family="Helvetica,sans-Serif" font-size="10.00">mimic++/adapters/Catch2.hpp</text>
</a>
</g>
</g>
<!-- Node9&#45;&gt;Node12 -->
<g id="edge23_Node000009_Node000012" class="edge">
<title>Node9&#45;&gt;Node12</title>
<g id="a_edge23_Node000009_Node000012"><a xlink:title=" ">
<path fill="none" stroke="#63b8ff" d="M393.34,-380.3C408.49,-370.92 427.47,-359.17 440.34,-351.2"/>
<polygon fill="#63b8ff" stroke="#63b8ff" points="391.54,-377.3 384.88,-385.55 395.22,-383.26 391.54,-377.3"/>
</a>
</g>
</g>
<!-- Node13 -->
<g id="Node000013" class="node">
<title>Node13</title>
<g id="a_Node000013"><a xlink:href="../../d5/db1/gtest_8hpp.html" target="_top" xlink:title=" ">
<polygon fill="white" stroke="#666666" points="683.75,-350.75 546.25,-350.75 546.25,-331.5 683.75,-331.5 683.75,-350.75"/>
<text text-anchor="middle" x="615" y="-337.25" font-family="Helvetica,sans-Serif" font-size="10.00">mimic++/adapters/gtest.hpp</text>
</a>
</g>
</g>
<!-- Node9&#45;&gt;Node13 -->
<g id="edge24_Node000009_Node000013" class="edge">
<title>Node9&#45;&gt;Node13</title>
<g id="a_edge24_Node000009_Node000013"><a xlink:title=" ">
<path fill="none" stroke="#63b8ff" d="M422.08,-383.88C467.33,-374.09 531.48,-360.2 573.16,-351.18"/>
<polygon fill="#63b8ff" stroke="#63b8ff" points="421.52,-380.42 412.49,-385.96 423,-387.27 421.52,-380.42"/>
</a>
</g>
</g>
<!-- Node10&#45;&gt;Node2 -->
<g id="edge19_Node000010_Node000002" class="edge">
<title>Node10&#45;&gt;Node2</title>
<g id="a_edge19_Node000010_Node000002"><a xlink:title=" ">
<path fill="none" stroke="#63b8ff" d="M150.65,-325.59C167.36,-316.13 188.64,-304.08 202.98,-295.95"/>
<polygon fill="#63b8ff" stroke="#63b8ff" points="149.24,-322.37 142.26,-330.35 152.69,-328.46 149.24,-322.37"/>
</a>
</g>
</g>
<!-- Node10&#45;&gt;Node4 -->
<g id="edge20_Node000010_Node000004" class="edge">
<title>Node10&#45;&gt;Node4</title>
<g id="a_edge20_Node000010_Node000004"><a xlink:title=" ">
<path fill="none" stroke="#63b8ff" d="M128.62,-320.4C131.55,-307.33 136.45,-290.11 144,-276.25 178.46,-213.02 241.9,-152.52 266.69,-130.19"/>
<polygon fill="#63b8ff" stroke="#63b8ff" points="125.25,-319.43 126.69,-329.93 132.11,-320.82 125.25,-319.43"/>
</a>
</g>
</g>
<!-- Node10&#45;&gt;Node7 -->
<g id="edge21_Node000010_Node000007" class="edge">
<title>Node10&#45;&gt;Node7</title>
<g id="a_edge21_Node000010_Node000007"><a xlink:title=" ">
<path fill="none" stroke="#63b8ff" d="M114.07,-321.34C102.84,-300.24 87,-264.62 87,-231.62 87,-231.62 87,-231.62 87,-119.12 87,-77.42 121.67,-36.93 138.74,-19.53"/>
<polygon fill="#63b8ff" stroke="#63b8ff" points="110.9,-322.85 118.82,-329.89 117.02,-319.45 110.9,-322.85"/>
</a>
</g>
</g>
</g>
</svg>

<g id="navigator" transform="translate(0 0)" fill="#404254">
  <rect fill="#f2f5e9" fill-opacity="0.5" stroke="#606060" stroke-width=".5" x="0" y="0" width="60" height="60"/>
  <use id="zoomplus" xlink:href="#zoomPlus" x="17" y="9" onmousedown="handleZoom(evt,'in')"/>
  <use id="zoomminus" xlink:href="#zoomMin" x="42" y="9" onmousedown="handleZoom(evt,'out')"/>
  <use id="reset" xlink:href="#resetDef" x="30" y="36" onmousedown="handleReset()"/>
   <use id="arrowup" xlink:href="#arrowUp" x="0" y="0" onmousedown="handlePan(0,-1)"/>
  <use id="arrowright" xlink:href="#arrowRight" x="0" y="0" onmousedown="handlePan(1,0)"/>
  <use id="arrowdown" xlink:href="#arrowDown" x="0" y="0" onmousedown="handlePan(0,1)"/>
  <use id="arrowleft" xlink:href="#arrowLeft" x="0" y="0" onmousedown="handlePan(-1,0)"/>
</g>
<svg viewBox="0 0 15 15" width="100%" height="30px" preserveAspectRatio="xMaxYMin meet">
 <g id="arrow_out" transform="scale(0.3 0.3)">
  <a xlink:href="_reports_8hpp__dep__incl_org.svg" target="_base">
   <rect id="button" ry="5" rx="5" y="6" x="6" height="38" width="38"
        fill="#f2f5e9" fill-opacity="0.5" stroke="#606060" stroke-width="1.0"/>
   <path id="arrow"
     d="M 11.500037,31.436501 C 11.940474,20.09759 22.043105,11.32322 32.158766,21.979434 L 37.068811,17.246167 C 37.068811,17.246167 37.088388,32 37.088388,32 L 22.160133,31.978069 C 22.160133,31.978069 26.997745,27.140456 26.997745,27.140456 C 18.528582,18.264221 13.291696,25.230495 11.500037,31.436501 z"
     style="fill:#404040;"/>
  </a>
 </g>
</svg>

<style type='text/css'>
<![CDATA[
[data-mouse-over-selected='false'] { opacity: 0.7; }
[data-mouse-over-selected='true']  { opacity: 1.0; }
]]>
</style>
<script type="application/ecmascript"><![CDATA[
document.addEventListener('DOMContentLoaded', (event) => {
  highlightEdges();
  highlightAdjacentNodes();
});
]]></script>
</svg>
