<?xml version="1.0" encoding="UTF-8" standalone="no"?>
<!DOCTYPE svg PUBLIC "-//W3C//DTD SVG 1.1//EN"
 "http://www.w3.org/Graphics/SVG/1.1/DTD/svg11.dtd">
<!-- Generated by graphviz version 9.0.0 (20230911.1827)
 -->
<!-- Title: mimic++/ComplexMock.hpp Pages: 1 -->
<svg width="1206pt" height="469pt"
 viewBox="0.00 0.00 1206.21 469.25" xmlns="http://www.w3.org/2000/svg" xmlns:xlink="http://www.w3.org/1999/xlink">
<g id="graph0" class="graph" transform="scale(1 1) rotate(0) translate(4 465.25)">
<title>mimic++/ComplexMock.hpp</title>
<!-- Node1 -->
<g id="Node000001" class="node">
<title>Node1</title>
<g id="a_Node000001"><a xlink:title=" ">
<polygon fill="#999999" stroke="#666666" points="592.83,-461.25 456.08,-461.25 456.08,-442 592.83,-442 592.83,-461.25"/>
<text text-anchor="middle" x="524.46" y="-447.75" font-family="Helvetica,sans-Serif" font-size="10.00">mimic++/ComplexMock.hpp</text>
</a>
</g>
</g>
<!-- Node2 -->
<g id="Node000002" class="node">
<title>Node2</title>
<g id="a_Node000002"><a xlink:href="../../d5/d8a/_expectation_8hpp.html" target="_top" xlink:title=" ">
<polygon fill="white" stroke="#666666" points="481.21,-295.5 355.71,-295.5 355.71,-276.25 481.21,-276.25 481.21,-295.5"/>
<text text-anchor="middle" x="418.46" y="-282" font-family="Helvetica,sans-Serif" font-size="10.00">mimic++/Expectation.hpp</text>
</a>
</g>
</g>
<!-- Node1&#45;&gt;Node2 -->
<g id="edge1_Node000001_Node000002" class="edge">
<title>Node1&#45;&gt;Node2</title>
<g id="a_edge1_Node000001_Node000002"><a xlink:title=" ">
<path fill="none" stroke="#63b8ff" d="M490.53,-441.5C471.97,-434.75 450.22,-423.59 437.46,-406 416.21,-376.7 414.99,-332.68 416.44,-307.16"/>
<polygon fill="#63b8ff" stroke="#63b8ff" points="419.91,-307.72 417.2,-297.48 412.93,-307.17 419.91,-307.72"/>
</a>
</g>
</g>
<!-- Node10 -->
<g id="Node000010" class="node">
<title>Node10</title>
<g id="a_Node000010"><a xlink:title=" ">
<polygon fill="#e0e0e0" stroke="#999999" points="605.58,-74.5 521.33,-74.5 521.33,-55.25 605.58,-55.25 605.58,-74.5"/>
<text text-anchor="middle" x="563.46" y="-61" font-family="Helvetica,sans-Serif" font-size="10.00">source_location</text>
</a>
</g>
</g>
<!-- Node1&#45;&gt;Node10 -->
<g id="edge66_Node000001_Node000010" class="edge">
<title>Node1&#45;&gt;Node10</title>
<g id="a_edge66_Node000001_Node000010"><a xlink:title=" ">
<path fill="none" stroke="#63b8ff" d="M455.82,-450.12C317.31,-447.22 17.46,-430.73 17.46,-342.12 17.46,-342.12 17.46,-342.12 17.46,-174.38 17.46,-134.5 44.42,-127.56 80.46,-110.5 155.27,-75.08 400.01,-67.74 509.58,-66.25"/>
<polygon fill="#63b8ff" stroke="#63b8ff" points="509.53,-69.75 519.49,-66.12 509.44,-62.75 509.53,-69.75"/>
</a>
</g>
</g>
<!-- Node29 -->
<g id="Node000029" class="node">
<title>Node29</title>
<g id="a_Node000029"><a xlink:href="../../d2/d4f/_expectation_builder_8hpp.html" target="_top" xlink:title=" ">
<polygon fill="white" stroke="#666666" points="602.21,-406 446.71,-406 446.71,-386.75 602.21,-386.75 602.21,-406"/>
<text text-anchor="middle" x="524.46" y="-392.5" font-family="Helvetica,sans-Serif" font-size="10.00">mimic++/ExpectationBuilder.hpp</text>
</a>
</g>
</g>
<!-- Node1&#45;&gt;Node29 -->
<g id="edge46_Node000001_Node000029" class="edge">
<title>Node1&#45;&gt;Node29</title>
<g id="a_edge46_Node000001_Node000029"><a xlink:title=" ">
<path fill="none" stroke="#63b8ff" d="M524.46,-441.83C524.46,-435.32 524.46,-426.17 524.46,-417.87"/>
<polygon fill="#63b8ff" stroke="#63b8ff" points="527.96,-417.87 524.46,-407.87 520.96,-417.87 527.96,-417.87"/>
</a>
</g>
</g>
<!-- Node30 -->
<g id="Node000030" class="node">
<title>Node30</title>
<g id="a_Node000030"><a xlink:href="../../d8/de5/_expectation_policies_8hpp.html" target="_top" xlink:title=" ">
<polygon fill="white" stroke="#666666" points="720.46,-350.75 560.46,-350.75 560.46,-331.5 720.46,-331.5 720.46,-350.75"/>
<text text-anchor="middle" x="640.46" y="-337.25" font-family="Helvetica,sans-Serif" font-size="10.00">mimic++/ExpectationPolicies.hpp</text>
</a>
</g>
</g>
<!-- Node1&#45;&gt;Node30 -->
<g id="edge64_Node000001_Node000030" class="edge">
<title>Node1&#45;&gt;Node30</title>
<g id="a_edge64_Node000001_Node000030"><a xlink:title=" ">
<path fill="none" stroke="#63b8ff" d="M552.98,-441.57C571.62,-434.43 595.41,-422.83 611.46,-406 623.29,-393.59 630.88,-375.52 635.31,-361.76"/>
<polygon fill="#63b8ff" stroke="#63b8ff" points="638.58,-363.06 638,-352.48 631.85,-361.11 638.58,-363.06"/>
</a>
</g>
</g>
<!-- Node33 -->
<g id="Node000033" class="node">
<title>Node33</title>
<g id="a_Node000033"><a xlink:title=" ">
<polygon fill="#e0e0e0" stroke="#999999" points="704.08,-406 658.83,-406 658.83,-386.75 704.08,-386.75 704.08,-406"/>
<text text-anchor="middle" x="681.46" y="-392.5" font-family="Helvetica,sans-Serif" font-size="10.00">atomic</text>
</a>
</g>
</g>
<!-- Node1&#45;&gt;Node33 -->
<g id="edge65_Node000001_Node000033" class="edge">
<title>Node1&#45;&gt;Node33</title>
<g id="a_edge65_Node000001_Node000033"><a xlink:title=" ">
<path fill="none" stroke="#63b8ff" d="M551.09,-441.59C577.81,-432.53 619.05,-418.54 647.97,-408.73"/>
<polygon fill="#63b8ff" stroke="#63b8ff" points="649,-412.08 657.35,-405.55 646.75,-405.45 649,-412.08"/>
</a>
</g>
</g>
<!-- Node3 -->
<g id="Node000003" class="node">
<title>Node3</title>
<g id="a_Node000003"><a xlink:href="../../dc/d44/_call_8hpp.html" target="_top" xlink:title=" ">
<polygon fill="white" stroke="#666666" points="264.71,-185 214.21,-185 214.21,-165.75 264.71,-165.75 264.71,-185"/>
<text text-anchor="middle" x="239.46" y="-171.5" font-family="Helvetica,sans-Serif" font-size="10.00">Call.hpp</text>
</a>
</g>
</g>
<!-- Node2&#45;&gt;Node3 -->
<g id="edge2_Node000002_Node000003" class="edge">
<title>Node2&#45;&gt;Node3</title>
<g id="a_edge2_Node000002_Node000003"><a xlink:title=" ">
<path fill="none" stroke="#63b8ff" d="M416.58,-276.05C413.18,-262.27 404.72,-235.71 387.46,-221 378.82,-213.64 317.02,-196.53 276.06,-185.77"/>
<polygon fill="#63b8ff" stroke="#63b8ff" points="277.14,-182.43 266.58,-183.29 275.37,-189.2 277.14,-182.43"/>
</a>
</g>
</g>
<!-- Node6 -->
<g id="Node000006" class="node">
<title>Node6</title>
<g id="a_Node000006"><a xlink:href="../../d8/d32/_type_traits_8hpp.html" target="_top" xlink:title=" ">
<polygon fill="white" stroke="#666666" points="210.96,-129.75 89.96,-129.75 89.96,-110.5 210.96,-110.5 210.96,-129.75"/>
<text text-anchor="middle" x="150.46" y="-116.25" font-family="Helvetica,sans-Serif" font-size="10.00">mimic++/TypeTraits.hpp</text>
</a>
</g>
</g>
<!-- Node2&#45;&gt;Node6 -->
<g id="edge36_Node000002_Node000006" class="edge">
<title>Node2&#45;&gt;Node6</title>
<g id="a_edge36_Node000002_Node000006"><a xlink:title=" ">
<path fill="none" stroke="#63b8ff" d="M355.39,-278.74C305.72,-272.61 235.27,-261.02 176.46,-240.25 127.84,-223.09 100.84,-229.29 74.46,-185 61.65,-163.49 87.84,-145.83 112.9,-134.57"/>
<polygon fill="#63b8ff" stroke="#63b8ff" points="114.19,-137.82 122.06,-130.73 111.48,-131.37 114.19,-137.82"/>
</a>
</g>
</g>
<!-- Node7 -->
<g id="Node000007" class="node">
<title>Node7</title>
<g id="a_Node000007"><a xlink:title=" ">
<polygon fill="#e0e0e0" stroke="#999999" points="213.96,-74.5 176.96,-74.5 176.96,-55.25 213.96,-55.25 213.96,-74.5"/>
<text text-anchor="middle" x="195.46" y="-61" font-family="Helvetica,sans-Serif" font-size="10.00">tuple</text>
</a>
</g>
</g>
<!-- Node2&#45;&gt;Node7 -->
<g id="edge43_Node000002_Node000007" class="edge">
<title>Node2&#45;&gt;Node7</title>
<g id="a_edge43_Node000002_Node000007"><a xlink:title=" ">
<path fill="none" stroke="#63b8ff" d="M355.23,-280.6C277.61,-274.53 151.16,-261.68 109.46,-240.25 48.93,-209.14 28.85,-192.89 3.46,-129.75 0.27,-121.81 -1.86,-117.2 3.46,-110.5 23.32,-85.49 116.31,-73.22 165.22,-68.42"/>
<polygon fill="#63b8ff" stroke="#63b8ff" points="165.49,-71.91 175.12,-67.49 164.84,-64.94 165.49,-71.91"/>
</a>
</g>
</g>
<!-- Node11 -->
<g id="Node000011" class="node">
<title>Node11</title>
<g id="a_Node000011"><a xlink:title=" ">
<polygon fill="#e0e0e0" stroke="#999999" points="881.71,-74.5 843.21,-74.5 843.21,-55.25 881.71,-55.25 881.71,-74.5"/>
<text text-anchor="middle" x="862.46" y="-61" font-family="Helvetica,sans-Serif" font-size="10.00">utility</text>
</a>
</g>
</g>
<!-- Node2&#45;&gt;Node11 -->
<g id="edge44_Node000002_Node000011" class="edge">
<title>Node2&#45;&gt;Node11</title>
<g id="a_edge44_Node000002_Node000011"><a xlink:title=" ">
<path fill="none" stroke="#63b8ff" d="M481.55,-284.34C581.57,-282.43 782.23,-274.25 948.46,-240.25 1025.05,-224.58 1069.68,-248.37 1115.46,-185 1143.36,-146.38 1083.84,-181.68 961.46,-129.75 932.12,-117.3 901.81,-96.34 882.59,-81.84"/>
<polygon fill="#63b8ff" stroke="#63b8ff" points="884.87,-79.18 874.81,-75.85 880.6,-84.72 884.87,-79.18"/>
</a>
</g>
</g>
<!-- Node12 -->
<g id="Node000012" class="node">
<title>Node12</title>
<g id="a_Node000012"><a xlink:href="../../da/dd9/_reporter_8hpp.html" target="_top" xlink:title=" ">
<polygon fill="white" stroke="#666666" points="504.83,-240.25 434.08,-240.25 434.08,-221 504.83,-221 504.83,-240.25"/>
<text text-anchor="middle" x="469.46" y="-226.75" font-family="Helvetica,sans-Serif" font-size="10.00">Reporter.hpp</text>
</a>
</g>
</g>
<!-- Node2&#45;&gt;Node12 -->
<g id="edge15_Node000002_Node000012" class="edge">
<title>Node2&#45;&gt;Node12</title>
<g id="a_edge15_Node000002_Node000012"><a xlink:title=" ">
<path fill="none" stroke="#63b8ff" d="M426.88,-276.08C434,-268.65 444.4,-257.79 453.14,-248.66"/>
<polygon fill="#63b8ff" stroke="#63b8ff" points="455.42,-251.35 459.81,-241.7 450.36,-246.5 455.42,-251.35"/>
</a>
</g>
</g>
<!-- Node18 -->
<g id="Node000018" class="node">
<title>Node18</title>
<g id="a_Node000018"><a xlink:title=" ">
<polygon fill="#e0e0e0" stroke="#999999" points="556.58,-185 508.33,-185 508.33,-165.75 556.58,-165.75 556.58,-185"/>
<text text-anchor="middle" x="532.46" y="-171.5" font-family="Helvetica,sans-Serif" font-size="10.00">cassert</text>
</a>
</g>
</g>
<!-- Node2&#45;&gt;Node18 -->
<g id="edge37_Node000002_Node000018" class="edge">
<title>Node2&#45;&gt;Node18</title>
<g id="a_edge37_Node000002_Node000018"><a xlink:title=" ">
<path fill="none" stroke="#63b8ff" d="M454.55,-275.82C474.5,-269.09 498.25,-257.93 513.46,-240.25 523.97,-228.03 528.67,-210.19 530.77,-196.46"/>
<polygon fill="#63b8ff" stroke="#63b8ff" points="534.21,-197.14 531.88,-186.8 527.26,-196.34 534.21,-197.14"/>
</a>
</g>
</g>
<!-- Node21 -->
<g id="Node000021" class="node">
<title>Node21</title>
<g id="a_Node000021"><a xlink:title=" ">
<polygon fill="#e0e0e0" stroke="#999999" points="195.71,-185 145.21,-185 145.21,-165.75 195.71,-165.75 195.71,-185"/>
<text text-anchor="middle" x="170.46" y="-171.5" font-family="Helvetica,sans-Serif" font-size="10.00">memory</text>
</a>
</g>
</g>
<!-- Node2&#45;&gt;Node21 -->
<g id="edge39_Node000002_Node000021" class="edge">
<title>Node2&#45;&gt;Node21</title>
<g id="a_edge39_Node000002_Node000021"><a xlink:title=" ">
<path fill="none" stroke="#63b8ff" d="M362.26,-275.78C328.86,-268.96 286.34,-257.72 251.46,-240.25 226.83,-227.91 202.56,-207.34 187.1,-192.88"/>
<polygon fill="#63b8ff" stroke="#63b8ff" points="189.81,-190.64 180.18,-186.24 184.97,-195.69 189.81,-190.64"/>
</a>
</g>
</g>
<!-- Node23 -->
<g id="Node000023" class="node">
<title>Node23</title>
<g id="a_Node000023"><a xlink:title=" ">
<polygon fill="#e0e0e0" stroke="#999999" points="620.08,-185 574.83,-185 574.83,-165.75 620.08,-165.75 620.08,-185"/>
<text text-anchor="middle" x="597.46" y="-171.5" font-family="Helvetica,sans-Serif" font-size="10.00">ranges</text>
</a>
</g>
</g>
<!-- Node2&#45;&gt;Node23 -->
<g id="edge41_Node000002_Node000023" class="edge">
<title>Node2&#45;&gt;Node23</title>
<g id="a_edge41_Node000002_Node000023"><a xlink:title=" ">
<path fill="none" stroke="#63b8ff" d="M451.58,-275.81C475.28,-268.43 507.31,-256.54 532.46,-240.25 552.09,-227.53 570.73,-208.19 582.98,-194.13"/>
<polygon fill="#63b8ff" stroke="#63b8ff" points="585.61,-196.43 589.39,-186.53 580.26,-191.92 585.61,-196.43"/>
</a>
</g>
</g>
<!-- Node25 -->
<g id="Node000025" class="node">
<title>Node25</title>
<g id="a_Node000025"><a xlink:title=" ">
<polygon fill="#e0e0e0" stroke="#999999" points="126.96,-185 83.96,-185 83.96,-165.75 126.96,-165.75 126.96,-185"/>
<text text-anchor="middle" x="105.46" y="-171.5" font-family="Helvetica,sans-Serif" font-size="10.00">vector</text>
</a>
</g>
</g>
<!-- Node2&#45;&gt;Node25 -->
<g id="edge45_Node000002_Node000025" class="edge">
<title>Node2&#45;&gt;Node25</title>
<g id="a_edge45_Node000002_Node000025"><a xlink:title=" ">
<path fill="none" stroke="#63b8ff" d="M356.58,-275.77C316.6,-268.73 263.93,-257.28 219.46,-240.25 185.99,-227.43 150.41,-206.11 128.08,-191.66"/>
<polygon fill="#63b8ff" stroke="#63b8ff" points="130.07,-188.78 119.79,-186.21 126.22,-194.63 130.07,-188.78"/>
</a>
</g>
</g>
<!-- Node26 -->
<g id="Node000026" class="node">
<title>Node26</title>
<g id="a_Node000026"><a xlink:title=" ">
<polygon fill="#e0e0e0" stroke="#999999" points="1106.33,-185 1050.58,-185 1050.58,-165.75 1106.33,-165.75 1106.33,-185"/>
<text text-anchor="middle" x="1078.46" y="-171.5" font-family="Helvetica,sans-Serif" font-size="10.00">concepts</text>
</a>
</g>
</g>
<!-- Node2&#45;&gt;Node26 -->
<g id="edge38_Node000002_Node000026" class="edge">
<title>Node2&#45;&gt;Node26</title>
<g id="a_edge38_Node000002_Node000026"><a xlink:title=" ">
<path fill="none" stroke="#63b8ff" d="M481.52,-284.19C574.67,-282.02 754.02,-273.45 902.46,-240.25 955.27,-228.44 1013.83,-204.98 1048.32,-190.01"/>
<polygon fill="#63b8ff" stroke="#63b8ff" points="1049.5,-193.31 1057.25,-186.09 1046.69,-186.91 1049.5,-193.31"/>
</a>
</g>
</g>
<!-- Node27 -->
<g id="Node000027" class="node">
<title>Node27</title>
<g id="a_Node000027"><a xlink:title=" ">
<polygon fill="#e0e0e0" stroke="#999999" points="302.58,-240.25 260.33,-240.25 260.33,-221 302.58,-221 302.58,-240.25"/>
<text text-anchor="middle" x="281.46" y="-226.75" font-family="Helvetica,sans-Serif" font-size="10.00">mutex</text>
</a>
</g>
</g>
<!-- Node2&#45;&gt;Node27 -->
<g id="edge40_Node000002_Node000027" class="edge">
<title>Node2&#45;&gt;Node27</title>
<g id="a_edge40_Node000002_Node000027"><a xlink:title=" ">
<path fill="none" stroke="#63b8ff" d="M395.22,-275.84C372.74,-267.11 338.5,-253.79 313.45,-244.06"/>
<polygon fill="#63b8ff" stroke="#63b8ff" points="315,-240.91 304.41,-240.55 312.47,-247.43 315,-240.91"/>
</a>
</g>
</g>
<!-- Node28 -->
<g id="Node000028" class="node">
<title>Node28</title>
<g id="a_Node000028"><a xlink:title=" ">
<polygon fill="#e0e0e0" stroke="#999999" points="378.46,-240.25 320.46,-240.25 320.46,-221 378.46,-221 378.46,-240.25"/>
<text text-anchor="middle" x="349.46" y="-226.75" font-family="Helvetica,sans-Serif" font-size="10.00">stdexcept</text>
</a>
</g>
</g>
<!-- Node2&#45;&gt;Node28 -->
<g id="edge42_Node000002_Node000028" class="edge">
<title>Node2&#45;&gt;Node28</title>
<g id="a_edge42_Node000002_Node000028"><a xlink:title=" ">
<path fill="none" stroke="#63b8ff" d="M406.75,-275.84C396.68,-268.07 381.92,-256.67 369.9,-247.4"/>
<polygon fill="#63b8ff" stroke="#63b8ff" points="372.24,-244.79 362.19,-241.45 367.97,-250.33 372.24,-244.79"/>
</a>
</g>
</g>
<!-- Node4 -->
<g id="Node000004" class="node">
<title>Node4</title>
<g id="a_Node000004"><a xlink:href="../../df/dde/_fwd_8hpp.html" target="_top" xlink:title=" ">
<polygon fill="white" stroke="#666666" points="825.46,-74.5 731.46,-74.5 731.46,-55.25 825.46,-55.25 825.46,-74.5"/>
<text text-anchor="middle" x="778.46" y="-61" font-family="Helvetica,sans-Serif" font-size="10.00">mimic++/Fwd.hpp</text>
</a>
</g>
</g>
<!-- Node3&#45;&gt;Node4 -->
<g id="edge3_Node000003_Node000004" class="edge">
<title>Node3&#45;&gt;Node4</title>
<g id="a_edge3_Node000003_Node000004"><a xlink:title=" ">
<path fill="none" stroke="#63b8ff" d="M265.04,-167.73C267.88,-167.04 270.73,-166.37 273.46,-165.75 434.35,-129.46 625.72,-93.59 720.01,-76.39"/>
<polygon fill="#63b8ff" stroke="#63b8ff" points="720.59,-79.84 729.8,-74.61 719.33,-72.96 720.59,-79.84"/>
</a>
</g>
</g>
<!-- Node3&#45;&gt;Node6 -->
<g id="edge5_Node000003_Node000006" class="edge">
<title>Node3&#45;&gt;Node6</title>
<g id="a_edge5_Node000003_Node000006"><a xlink:title=" ">
<path fill="none" stroke="#63b8ff" d="M224.36,-165.34C210.94,-157.31 191.05,-145.41 175.28,-135.98"/>
<polygon fill="#63b8ff" stroke="#63b8ff" points="177.31,-133.11 166.93,-130.98 173.71,-139.12 177.31,-133.11"/>
</a>
</g>
</g>
<!-- Node3&#45;&gt;Node7 -->
<g id="edge13_Node000003_Node000007" class="edge">
<title>Node3&#45;&gt;Node7</title>
<g id="a_edge13_Node000003_Node000007"><a xlink:title=" ">
<path fill="none" stroke="#63b8ff" d="M237.25,-165.51C234.02,-153 227.48,-129.56 219.46,-110.5 215.79,-101.79 210.98,-92.54 206.63,-84.73"/>
<polygon fill="#63b8ff" stroke="#63b8ff" points="209.72,-83.09 201.7,-76.17 203.65,-86.58 209.72,-83.09"/>
</a>
</g>
</g>
<!-- Node8 -->
<g id="Node000008" class="node">
<title>Node8</title>
<g id="a_Node000008"><a xlink:href="../../d4/d2c/_utility_8hpp.html" target="_top" xlink:title=" ">
<polygon fill="white" stroke="#666666" points="912.46,-129.75 812.46,-129.75 812.46,-110.5 912.46,-110.5 912.46,-129.75"/>
<text text-anchor="middle" x="862.46" y="-116.25" font-family="Helvetica,sans-Serif" font-size="10.00">mimic++/Utility.hpp</text>
</a>
</g>
</g>
<!-- Node3&#45;&gt;Node8 -->
<g id="edge7_Node000003_Node000008" class="edge">
<title>Node3&#45;&gt;Node8</title>
<g id="a_edge7_Node000003_Node000008"><a xlink:title=" ">
<path fill="none" stroke="#63b8ff" d="M264.98,-167.39C267.82,-166.76 270.69,-166.2 273.46,-165.75 494.73,-130.06 553.15,-148.93 776.46,-129.75 784.28,-129.08 792.5,-128.32 800.63,-127.54"/>
<polygon fill="#63b8ff" stroke="#63b8ff" points="800.89,-131.03 810.5,-126.58 800.2,-124.06 800.89,-131.03"/>
</a>
</g>
</g>
<!-- Node3&#45;&gt;Node10 -->
<g id="edge12_Node000003_Node000010" class="edge">
<title>Node3&#45;&gt;Node10</title>
<g id="a_edge12_Node000003_Node000010"><a xlink:title=" ">
<path fill="none" stroke="#63b8ff" d="M265.15,-165.77C322.03,-146.72 458.81,-100.92 525.55,-78.57"/>
<polygon fill="#63b8ff" stroke="#63b8ff" points="526.59,-81.91 534.96,-75.42 524.37,-75.27 526.59,-81.91"/>
</a>
</g>
</g>
<!-- Node3&#45;&gt;Node11 -->
<g id="edge14_Node000003_Node000011" class="edge">
<title>Node3&#45;&gt;Node11</title>
<g id="a_edge14_Node000003_Node000011"><a xlink:title=" ">
<path fill="none" stroke="#63b8ff" d="M265.02,-167.61C267.86,-166.94 270.71,-166.31 273.46,-165.75 376.57,-144.79 403.58,-146.52 507.46,-129.75 649.42,-106.84 689.13,-108.45 832.04,-74.83"/>
<polygon fill="#63b8ff" stroke="#63b8ff" points="832.57,-78.3 841.49,-72.59 830.96,-71.49 832.57,-78.3"/>
</a>
</g>
</g>
<!-- Node5 -->
<g id="Node000005" class="node">
<title>Node5</title>
<g id="a_Node000005"><a xlink:title=" ">
<polygon fill="#e0e0e0" stroke="#999999" points="894.46,-19.25 854.46,-19.25 854.46,0 894.46,0 894.46,-19.25"/>
<text text-anchor="middle" x="874.46" y="-5.75" font-family="Helvetica,sans-Serif" font-size="10.00">string</text>
</a>
</g>
</g>
<!-- Node4&#45;&gt;Node5 -->
<g id="edge4_Node000004_Node000005" class="edge">
<title>Node4&#45;&gt;Node5</title>
<g id="a_edge4_Node000004_Node000005"><a xlink:title=" ">
<path fill="none" stroke="#63b8ff" d="M794.74,-54.84C809.36,-46.73 831.09,-34.68 848.16,-25.21"/>
<polygon fill="#63b8ff" stroke="#63b8ff" points="849.72,-28.35 856.77,-20.44 846.33,-22.23 849.72,-28.35"/>
</a>
</g>
</g>
<!-- Node6&#45;&gt;Node7 -->
<g id="edge6_Node000006_Node000007" class="edge">
<title>Node6&#45;&gt;Node7</title>
<g id="a_edge6_Node000006_Node000007"><a xlink:title=" ">
<path fill="none" stroke="#63b8ff" d="M157.89,-110.33C164.04,-103.05 172.97,-92.48 180.58,-83.48"/>
<polygon fill="#63b8ff" stroke="#63b8ff" points="183.11,-85.91 186.89,-76.02 177.76,-81.39 183.11,-85.91"/>
</a>
</g>
</g>
<!-- Node8&#45;&gt;Node4 -->
<g id="edge8_Node000008_Node000004" class="edge">
<title>Node8&#45;&gt;Node4</title>
<g id="a_edge8_Node000008_Node000004"><a xlink:title=" ">
<path fill="none" stroke="#63b8ff" d="M848.21,-110.09C835.66,-102.14 817.12,-90.39 802.32,-81"/>
<polygon fill="#63b8ff" stroke="#63b8ff" points="804.38,-78.16 794.06,-75.76 800.63,-84.07 804.38,-78.16"/>
</a>
</g>
</g>
<!-- Node9 -->
<g id="Node000009" class="node">
<title>Node9</title>
<g id="a_Node000009"><a xlink:title=" ">
<polygon fill="#e0e0e0" stroke="#999999" points="943.33,-74.5 899.58,-74.5 899.58,-55.25 943.33,-55.25 943.33,-74.5"/>
<text text-anchor="middle" x="921.46" y="-61" font-family="Helvetica,sans-Serif" font-size="10.00">format</text>
</a>
</g>
</g>
<!-- Node8&#45;&gt;Node9 -->
<g id="edge9_Node000008_Node000009" class="edge">
<title>Node8&#45;&gt;Node9</title>
<g id="a_edge9_Node000008_Node000009"><a xlink:title=" ">
<path fill="none" stroke="#63b8ff" d="M872.47,-110.09C880.82,-102.55 892.96,-91.6 903.06,-82.48"/>
<polygon fill="#63b8ff" stroke="#63b8ff" points="905.4,-85.09 910.47,-75.79 900.71,-79.89 905.4,-85.09"/>
</a>
</g>
</g>
<!-- Node8&#45;&gt;Node10 -->
<g id="edge10_Node000008_Node000010" class="edge">
<title>Node8&#45;&gt;Node10</title>
<g id="a_edge10_Node000008_Node000010"><a xlink:title=" ">
<path fill="none" stroke="#63b8ff" d="M812.08,-110.15C758,-100.52 672.45,-85.29 617.14,-75.43"/>
<polygon fill="#63b8ff" stroke="#63b8ff" points="617.76,-71.99 607.3,-73.68 616.54,-78.88 617.76,-71.99"/>
</a>
</g>
</g>
<!-- Node8&#45;&gt;Node11 -->
<g id="edge11_Node000008_Node000011" class="edge">
<title>Node8&#45;&gt;Node11</title>
<g id="a_edge11_Node000008_Node000011"><a xlink:title=" ">
<path fill="none" stroke="#63b8ff" d="M862.46,-110.33C862.46,-103.82 862.46,-94.67 862.46,-86.37"/>
<polygon fill="#63b8ff" stroke="#63b8ff" points="865.96,-86.37 862.46,-76.37 858.96,-86.37 865.96,-86.37"/>
</a>
</g>
</g>
<!-- Node12&#45;&gt;Node3 -->
<g id="edge16_Node000012_Node000003" class="edge">
<title>Node12&#45;&gt;Node3</title>
<g id="a_edge16_Node000012_Node000003"><a xlink:title=" ">
<path fill="none" stroke="#63b8ff" d="M433.63,-221.75C396.52,-213.52 336.56,-200.07 275.98,-185.56"/>
<polygon fill="#63b8ff" stroke="#63b8ff" points="277.07,-182.23 266.53,-183.3 275.44,-189.03 277.07,-182.23"/>
</a>
</g>
</g>
<!-- Node12&#45;&gt;Node4 -->
<g id="edge17_Node000012_Node000004" class="edge">
<title>Node12&#45;&gt;Node4</title>
<g id="a_edge17_Node000012_Node000004"><a xlink:title=" ">
<path fill="none" stroke="#63b8ff" d="M468.18,-220.61C466.78,-207.05 466.27,-181.35 479.46,-165.75 539.33,-94.93 650.94,-74.11 719.57,-68.12"/>
<polygon fill="#63b8ff" stroke="#63b8ff" points="719.82,-71.61 729.52,-67.34 719.28,-64.63 719.82,-71.61"/>
</a>
</g>
</g>
<!-- Node13 -->
<g id="Node000013" class="node">
<title>Node13</title>
<g id="a_Node000013"><a xlink:href="../../da/dab/_printer_8hpp.html" target="_top" xlink:title=" ">
<polygon fill="white" stroke="#666666" points="1074.33,-129.75 970.58,-129.75 970.58,-110.5 1074.33,-110.5 1074.33,-129.75"/>
<text text-anchor="middle" x="1022.46" y="-116.25" font-family="Helvetica,sans-Serif" font-size="10.00">mimic++/Printer.hpp</text>
</a>
</g>
</g>
<!-- Node12&#45;&gt;Node13 -->
<g id="edge18_Node000012_Node000013" class="edge">
<title>Node12&#45;&gt;Node13</title>
<g id="a_edge18_Node000012_Node000013"><a xlink:title=" ">
<path fill="none" stroke="#63b8ff" d="M470.77,-220.83C473.4,-206.59 480.76,-178.77 499.46,-165.75 576.69,-111.96 827.68,-137.75 921.46,-129.75 933.61,-128.71 946.58,-127.61 959.04,-126.54"/>
<polygon fill="#63b8ff" stroke="#63b8ff" points="959.12,-130.05 968.79,-125.71 958.53,-123.07 959.12,-130.05"/>
</a>
</g>
</g>
<!-- Node17 -->
<g id="Node000017" class="node">
<title>Node17</title>
<g id="a_Node000017"><a xlink:title=" ">
<polygon fill="#e0e0e0" stroke="#999999" points="838.33,-185 782.58,-185 782.58,-165.75 838.33,-165.75 838.33,-185"/>
<text text-anchor="middle" x="810.46" y="-171.5" font-family="Helvetica,sans-Serif" font-size="10.00">algorithm</text>
</a>
</g>
</g>
<!-- Node12&#45;&gt;Node17 -->
<g id="edge27_Node000012_Node000017" class="edge">
<title>Node12&#45;&gt;Node17</title>
<g id="a_edge27_Node000012_Node000017"><a xlink:title=" ">
<path fill="none" stroke="#63b8ff" d="M505.19,-225.36C560.16,-218.59 669.02,-204.33 771.1,-185.31"/>
<polygon fill="#63b8ff" stroke="#63b8ff" points="771.56,-188.78 780.74,-183.49 770.27,-181.91 771.56,-188.78"/>
</a>
</g>
</g>
<!-- Node12&#45;&gt;Node18 -->
<g id="edge28_Node000012_Node000018" class="edge">
<title>Node12&#45;&gt;Node18</title>
<g id="a_edge28_Node000012_Node000018"><a xlink:title=" ">
<path fill="none" stroke="#63b8ff" d="M480.15,-220.59C489.16,-212.97 502.29,-201.87 513.14,-192.7"/>
<polygon fill="#63b8ff" stroke="#63b8ff" points="515.4,-195.38 520.77,-186.25 510.88,-190.03 515.4,-195.38"/>
</a>
</g>
</g>
<!-- Node19 -->
<g id="Node000019" class="node">
<title>Node19</title>
<g id="a_Node000019"><a xlink:title=" ">
<polygon fill="#e0e0e0" stroke="#999999" points="340.08,-185 282.83,-185 282.83,-165.75 340.08,-165.75 340.08,-185"/>
<text text-anchor="middle" x="311.46" y="-171.5" font-family="Helvetica,sans-Serif" font-size="10.00">exception</text>
</a>
</g>
</g>
<!-- Node12&#45;&gt;Node19 -->
<g id="edge29_Node000012_Node000019" class="edge">
<title>Node12&#45;&gt;Node19</title>
<g id="a_edge29_Node000012_Node000019"><a xlink:title=" ">
<path fill="none" stroke="#63b8ff" d="M442.66,-220.59C417.01,-211.95 378.07,-198.82 349.27,-189.12"/>
<polygon fill="#63b8ff" stroke="#63b8ff" points="350.42,-185.81 339.83,-185.94 348.19,-192.45 350.42,-185.81"/>
</a>
</g>
</g>
<!-- Node20 -->
<g id="Node000020" class="node">
<title>Node20</title>
<g id="a_Node000020"><a xlink:title=" ">
<polygon fill="#e0e0e0" stroke="#999999" points="696.46,-185 638.46,-185 638.46,-165.75 696.46,-165.75 696.46,-185"/>
<text text-anchor="middle" x="667.46" y="-171.5" font-family="Helvetica,sans-Serif" font-size="10.00">functional</text>
</a>
</g>
</g>
<!-- Node12&#45;&gt;Node20 -->
<g id="edge30_Node000012_Node000020" class="edge">
<title>Node12&#45;&gt;Node20</title>
<g id="a_edge30_Node000012_Node000020"><a xlink:title=" ">
<path fill="none" stroke="#63b8ff" d="M503.05,-220.59C537.44,-211.34 590.91,-196.96 627.47,-187.13"/>
<polygon fill="#63b8ff" stroke="#63b8ff" points="628.02,-190.61 636.77,-184.63 626.2,-183.85 628.02,-190.61"/>
</a>
</g>
</g>
<!-- Node12&#45;&gt;Node21 -->
<g id="edge31_Node000012_Node000021" class="edge">
<title>Node12&#45;&gt;Node21</title>
<g id="a_edge31_Node000012_Node000021"><a xlink:title=" ">
<path fill="none" stroke="#63b8ff" d="M433.86,-224.47C385.09,-217.21 294.53,-203.07 207.21,-185.22"/>
<polygon fill="#63b8ff" stroke="#63b8ff" points="208.01,-181.81 197.51,-183.21 206.59,-188.66 208.01,-181.81"/>
</a>
</g>
</g>
<!-- Node22 -->
<g id="Node000022" class="node">
<title>Node22</title>
<g id="a_Node000022"><a xlink:title=" ">
<polygon fill="#e0e0e0" stroke="#999999" points="764.33,-185 714.58,-185 714.58,-165.75 764.33,-165.75 764.33,-185"/>
<text text-anchor="middle" x="739.46" y="-171.5" font-family="Helvetica,sans-Serif" font-size="10.00">optional</text>
</a>
</g>
</g>
<!-- Node12&#45;&gt;Node22 -->
<g id="edge32_Node000012_Node000022" class="edge">
<title>Node12&#45;&gt;Node22</title>
<g id="a_edge32_Node000012_Node000022"><a xlink:title=" ">
<path fill="none" stroke="#63b8ff" d="M505.18,-223.58C549.36,-215.94 627.09,-202.01 703.06,-185.42"/>
<polygon fill="#63b8ff" stroke="#63b8ff" points="703.76,-188.85 712.77,-183.28 702.25,-182.01 703.76,-188.85"/>
</a>
</g>
</g>
<!-- Node12&#45;&gt;Node23 -->
<g id="edge33_Node000012_Node000023" class="edge">
<title>Node12&#45;&gt;Node23</title>
<g id="a_edge33_Node000012_Node000023"><a xlink:title=" ">
<path fill="none" stroke="#63b8ff" d="M491.17,-220.59C511.49,-212.14 542.1,-199.4 565.27,-189.77"/>
<polygon fill="#63b8ff" stroke="#63b8ff" points="566.35,-193.11 574.24,-186.03 563.66,-186.64 566.35,-193.11"/>
</a>
</g>
</g>
<!-- Node24 -->
<g id="Node000024" class="node">
<title>Node24</title>
<g id="a_Node000024"><a xlink:title=" ">
<polygon fill="#e0e0e0" stroke="#999999" points="414.71,-185 358.21,-185 358.21,-165.75 414.71,-165.75 414.71,-185"/>
<text text-anchor="middle" x="386.46" y="-171.5" font-family="Helvetica,sans-Serif" font-size="10.00">typeindex</text>
</a>
</g>
</g>
<!-- Node12&#45;&gt;Node24 -->
<g id="edge34_Node000012_Node000024" class="edge">
<title>Node12&#45;&gt;Node24</title>
<g id="a_edge34_Node000012_Node000024"><a xlink:title=" ">
<path fill="none" stroke="#63b8ff" d="M455.38,-220.59C442.98,-212.64 424.66,-200.89 410.03,-191.5"/>
<polygon fill="#63b8ff" stroke="#63b8ff" points="412.19,-188.72 401.88,-186.27 408.41,-194.62 412.19,-188.72"/>
</a>
</g>
</g>
<!-- Node12&#45;&gt;Node25 -->
<g id="edge35_Node000012_Node000025" class="edge">
<title>Node12&#45;&gt;Node25</title>
<g id="a_edge35_Node000012_Node000025"><a xlink:title=" ">
<path fill="none" stroke="#63b8ff" d="M433.8,-225.48C363.91,-217.26 210.19,-198.66 138.55,-185.09"/>
<polygon fill="#63b8ff" stroke="#63b8ff" points="139.36,-181.69 128.87,-183.17 137.99,-188.55 139.36,-181.69"/>
</a>
</g>
</g>
<!-- Node13&#45;&gt;Node4 -->
<g id="edge19_Node000013_Node000004" class="edge">
<title>Node13&#45;&gt;Node4</title>
<g id="a_edge19_Node000013_Node000004"><a xlink:title=" ">
<path fill="none" stroke="#63b8ff" d="M980.79,-110.03C939.38,-100.99 875.75,-87.11 830.92,-77.32"/>
<polygon fill="#63b8ff" stroke="#63b8ff" points="831.95,-73.97 821.43,-75.25 830.46,-80.81 831.95,-73.97"/>
</a>
</g>
</g>
<!-- Node13&#45;&gt;Node5 -->
<g id="edge24_Node000013_Node000005" class="edge">
<title>Node13&#45;&gt;Node5</title>
<g id="a_edge24_Node000013_Node000005"><a xlink:title=" ">
<path fill="none" stroke="#63b8ff" d="M1013.94,-110.19C1001.28,-97.18 976.39,-72.69 952.46,-55.25 936.78,-43.83 917.94,-32.98 902.7,-24.84"/>
<polygon fill="#63b8ff" stroke="#63b8ff" points="904.63,-21.9 894.15,-20.36 901.39,-28.1 904.63,-21.9"/>
</a>
</g>
</g>
<!-- Node13&#45;&gt;Node9 -->
<g id="edge20_Node000013_Node000009" class="edge">
<title>Node13&#45;&gt;Node9</title>
<g id="a_edge20_Node000013_Node000009"><a xlink:title=" ">
<path fill="none" stroke="#63b8ff" d="M1005.33,-110.09C989.8,-101.91 966.66,-89.71 948.61,-80.19"/>
<polygon fill="#63b8ff" stroke="#63b8ff" points="950.49,-77.23 940.01,-75.66 947.23,-83.42 950.49,-77.23"/>
</a>
</g>
</g>
<!-- Node13&#45;&gt;Node10 -->
<g id="edge22_Node000013_Node000010" class="edge">
<title>Node13&#45;&gt;Node10</title>
<g id="a_edge22_Node000013_Node000010"><a xlink:title=" ">
<path fill="none" stroke="#63b8ff" d="M970.25,-113.07C882.44,-102.88 706.09,-82.42 617.23,-72.11"/>
<polygon fill="#63b8ff" stroke="#63b8ff" points="617.65,-68.64 607.31,-70.96 616.84,-75.59 617.65,-68.64"/>
</a>
</g>
</g>
<!-- Node13&#45;&gt;Node11 -->
<g id="edge26_Node000013_Node000011" class="edge">
<title>Node13&#45;&gt;Node11</title>
<g id="a_edge26_Node000013_Node000011"><a xlink:title=" ">
<path fill="none" stroke="#63b8ff" d="M995.32,-110.09C966.98,-100.66 922.63,-85.9 893.07,-76.06"/>
<polygon fill="#63b8ff" stroke="#63b8ff" points="894.18,-72.74 883.58,-72.91 891.97,-79.38 894.18,-72.74"/>
</a>
</g>
</g>
<!-- Node14 -->
<g id="Node000014" class="node">
<title>Node14</title>
<g id="a_Node000014"><a xlink:title=" ">
<polygon fill="#e0e0e0" stroke="#999999" points="1045.46,-74.5 999.46,-74.5 999.46,-55.25 1045.46,-55.25 1045.46,-74.5"/>
<text text-anchor="middle" x="1022.46" y="-61" font-family="Helvetica,sans-Serif" font-size="10.00">iterator</text>
</a>
</g>
</g>
<!-- Node13&#45;&gt;Node14 -->
<g id="edge21_Node000013_Node000014" class="edge">
<title>Node13&#45;&gt;Node14</title>
<g id="a_edge21_Node000013_Node000014"><a xlink:title=" ">
<path fill="none" stroke="#63b8ff" d="M1022.46,-110.33C1022.46,-103.82 1022.46,-94.67 1022.46,-86.37"/>
<polygon fill="#63b8ff" stroke="#63b8ff" points="1025.96,-86.37 1022.46,-76.37 1018.96,-86.37 1025.96,-86.37"/>
</a>
</g>
</g>
<!-- Node15 -->
<g id="Node000015" class="node">
<title>Node15</title>
<g id="a_Node000015"><a xlink:title=" ">
<polygon fill="#e0e0e0" stroke="#999999" points="1115.08,-74.5 1063.83,-74.5 1063.83,-55.25 1115.08,-55.25 1115.08,-74.5"/>
<text text-anchor="middle" x="1089.46" y="-61" font-family="Helvetica,sans-Serif" font-size="10.00">sstream</text>
</a>
</g>
</g>
<!-- Node13&#45;&gt;Node15 -->
<g id="edge23_Node000013_Node000015" class="edge">
<title>Node13&#45;&gt;Node15</title>
<g id="a_edge23_Node000013_Node000015"><a xlink:title=" ">
<path fill="none" stroke="#63b8ff" d="M1033.82,-110.09C1043.51,-102.4 1057.66,-91.15 1069.26,-81.93"/>
<polygon fill="#63b8ff" stroke="#63b8ff" points="1071.42,-84.68 1077.08,-75.72 1067.07,-79.2 1071.42,-84.68"/>
</a>
</g>
</g>
<!-- Node16 -->
<g id="Node000016" class="node">
<title>Node16</title>
<g id="a_Node000016"><a xlink:title=" ">
<polygon fill="#e0e0e0" stroke="#999999" points="1198.21,-74.5 1132.71,-74.5 1132.71,-55.25 1198.21,-55.25 1198.21,-74.5"/>
<text text-anchor="middle" x="1165.46" y="-61" font-family="Helvetica,sans-Serif" font-size="10.00">string_view</text>
</a>
</g>
</g>
<!-- Node13&#45;&gt;Node16 -->
<g id="edge25_Node000013_Node000016" class="edge">
<title>Node13&#45;&gt;Node16</title>
<g id="a_edge25_Node000013_Node000016"><a xlink:title=" ">
<path fill="none" stroke="#63b8ff" d="M1046.72,-110.09C1069.73,-101.52 1104.55,-88.56 1130.54,-78.88"/>
<polygon fill="#63b8ff" stroke="#63b8ff" points="1131.51,-82.25 1139.66,-75.48 1129.07,-75.69 1131.51,-82.25"/>
</a>
</g>
</g>
<!-- Node29&#45;&gt;Node2 -->
<g id="edge47_Node000029_Node000002" class="edge">
<title>Node29&#45;&gt;Node2</title>
<g id="a_edge47_Node000029_Node000002"><a xlink:title=" ">
<path fill="none" stroke="#63b8ff" d="M515.78,-386.5C498.16,-368.46 457.9,-327.25 435.07,-303.88"/>
<polygon fill="#63b8ff" stroke="#63b8ff" points="437.8,-301.67 428.31,-296.96 432.8,-306.56 437.8,-301.67"/>
</a>
</g>
</g>
<!-- Node29&#45;&gt;Node30 -->
<g id="edge48_Node000029_Node000030" class="edge">
<title>Node29&#45;&gt;Node30</title>
<g id="a_edge48_Node000029_Node000030"><a xlink:title=" ">
<path fill="none" stroke="#63b8ff" d="M544.14,-386.34C562.3,-378 589.54,-365.5 610.43,-355.91"/>
<polygon fill="#63b8ff" stroke="#63b8ff" points="611.68,-359.19 619.31,-351.83 608.76,-352.83 611.68,-359.19"/>
</a>
</g>
</g>
<!-- Node30&#45;&gt;Node2 -->
<g id="edge49_Node000030_Node000002" class="edge">
<title>Node30&#45;&gt;Node2</title>
<g id="a_edge49_Node000030_Node000002"><a xlink:title=" ">
<path fill="none" stroke="#63b8ff" d="M602.55,-331.03C565.19,-322.07 507.96,-308.34 467.23,-298.57"/>
<polygon fill="#63b8ff" stroke="#63b8ff" points="468.23,-295.21 457.68,-296.28 466.59,-302.02 468.23,-295.21"/>
</a>
</g>
</g>
<!-- Node30&#45;&gt;Node8 -->
<g id="edge61_Node000030_Node000008" class="edge">
<title>Node30&#45;&gt;Node8</title>
<g id="a_edge61_Node000030_Node000008"><a xlink:title=" ">
<path fill="none" stroke="#63b8ff" d="M692.25,-331.04C804.62,-310.17 1064.78,-255.14 1115.46,-185 1120.47,-178.06 1120.96,-172.3 1115.46,-165.75 1103.21,-151.16 994.61,-136.16 923.73,-127.81"/>
<polygon fill="#63b8ff" stroke="#63b8ff" points="924.54,-124.38 914.21,-126.7 923.73,-131.33 924.54,-124.38"/>
</a>
</g>
</g>
<!-- Node30&#45;&gt;Node13 -->
<g id="edge60_Node000030_Node000013" class="edge">
<title>Node30&#45;&gt;Node13</title>
<g id="a_edge60_Node000030_Node000013"><a xlink:title=" ">
<path fill="none" stroke="#63b8ff" d="M720.63,-334.97C810,-326.24 956.3,-302.82 1065.46,-240.25 1103.58,-218.4 1154.89,-202.28 1130.46,-165.75 1120.04,-150.18 1103.09,-140.03 1085.67,-133.43"/>
<polygon fill="#63b8ff" stroke="#63b8ff" points="1086.85,-130.13 1076.26,-130.24 1084.61,-136.76 1086.85,-130.13"/>
</a>
</g>
</g>
<!-- Node30&#45;&gt;Node18 -->
<g id="edge62_Node000030_Node000018" class="edge">
<title>Node30&#45;&gt;Node18</title>
<g id="a_edge62_Node000030_Node000018"><a xlink:title=" ">
<path fill="none" stroke="#63b8ff" d="M634.65,-331.32C617.66,-305.55 567.76,-229.9 544.57,-194.74"/>
<polygon fill="#63b8ff" stroke="#63b8ff" points="547.55,-192.91 539.13,-186.49 541.71,-196.76 547.55,-192.91"/>
</a>
</g>
</g>
<!-- Node30&#45;&gt;Node20 -->
<g id="edge63_Node000030_Node000020" class="edge">
<title>Node30&#45;&gt;Node20</title>
<g id="a_edge63_Node000030_Node000020"><a xlink:title=" ">
<path fill="none" stroke="#63b8ff" d="M641.91,-331.32C646.1,-305.89 658.31,-231.85 664.2,-196.12"/>
<polygon fill="#63b8ff" stroke="#63b8ff" points="667.58,-197.15 665.75,-186.72 660.67,-196.01 667.58,-197.15"/>
</a>
</g>
</g>
<!-- Node31 -->
<g id="Node000031" class="node">
<title>Node31</title>
<g id="a_Node000031"><a xlink:href="../../dd/d50/_matcher_8hpp.html" target="_top" xlink:title=" ">
<polygon fill="white" stroke="#666666" points="893.71,-240.25 783.21,-240.25 783.21,-221 893.71,-221 893.71,-240.25"/>
<text text-anchor="middle" x="838.46" y="-226.75" font-family="Helvetica,sans-Serif" font-size="10.00">mimic++/Matcher.hpp</text>
</a>
</g>
</g>
<!-- Node30&#45;&gt;Node31 -->
<g id="edge50_Node000030_Node000031" class="edge">
<title>Node30&#45;&gt;Node31</title>
<g id="a_edge50_Node000030_Node000031"><a xlink:title=" ">
<path fill="none" stroke="#63b8ff" d="M657,-331.06C691.29,-312.27 770.36,-268.94 811.89,-246.18"/>
<polygon fill="#63b8ff" stroke="#63b8ff" points="813.41,-249.34 820.5,-241.47 810.05,-243.2 813.41,-249.34"/>
</a>
</g>
</g>
<!-- Node31&#45;&gt;Node7 -->
<g id="edge58_Node000031_Node000007" class="edge">
<title>Node31&#45;&gt;Node7</title>
<g id="a_edge58_Node000031_Node000007"><a xlink:title=" ">
<path fill="none" stroke="#63b8ff" d="M843.61,-220.58C850.58,-206.98 860.73,-181.21 847.46,-165.75 765.42,-70.19 343,-65.11 225.7,-65.57"/>
<polygon fill="#63b8ff" stroke="#63b8ff" points="225.91,-62.07 215.94,-65.63 225.96,-69.07 225.91,-62.07"/>
</a>
</g>
</g>
<!-- Node31&#45;&gt;Node8 -->
<g id="edge52_Node000031_Node000008" class="edge">
<title>Node31&#45;&gt;Node8</title>
<g id="a_edge52_Node000031_Node000008"><a xlink:title=" ">
<path fill="none" stroke="#63b8ff" d="M851.07,-220.64C861.17,-212.61 874.58,-199.83 880.46,-185 886.31,-170.26 880.66,-152.9 874.19,-140"/>
<polygon fill="#63b8ff" stroke="#63b8ff" points="877.25,-138.31 869.3,-131.31 871.15,-141.74 877.25,-138.31"/>
</a>
</g>
</g>
<!-- Node31&#45;&gt;Node13 -->
<g id="edge51_Node000031_Node000013" class="edge">
<title>Node31&#45;&gt;Node13</title>
<g id="a_edge51_Node000031_Node000013"><a xlink:title=" ">
<path fill="none" stroke="#63b8ff" d="M894.19,-227.98C929.81,-224.01 974.57,-213.18 1003.46,-185 1015.13,-173.62 1019.71,-155.42 1021.47,-141.36"/>
<polygon fill="#63b8ff" stroke="#63b8ff" points="1024.95,-141.68 1022.29,-131.42 1017.98,-141.1 1024.95,-141.68"/>
</a>
</g>
</g>
<!-- Node31&#45;&gt;Node17 -->
<g id="edge53_Node000031_Node000017" class="edge">
<title>Node31&#45;&gt;Node17</title>
<g id="a_edge53_Node000031_Node000017"><a xlink:title=" ">
<path fill="none" stroke="#63b8ff" d="M833.83,-220.83C830.21,-213.94 825.03,-204.09 820.47,-195.41"/>
<polygon fill="#63b8ff" stroke="#63b8ff" points="823.64,-193.92 815.89,-186.7 817.44,-197.18 823.64,-193.92"/>
</a>
</g>
</g>
<!-- Node31&#45;&gt;Node20 -->
<g id="edge55_Node000031_Node000020" class="edge">
<title>Node31&#45;&gt;Node20</title>
<g id="a_edge55_Node000031_Node000020"><a xlink:title=" ">
<path fill="none" stroke="#63b8ff" d="M809.45,-220.59C781.45,-211.87 738.8,-198.59 707.56,-188.86"/>
<polygon fill="#63b8ff" stroke="#63b8ff" points="708.64,-185.53 698.05,-185.9 706.56,-192.22 708.64,-185.53"/>
</a>
</g>
</g>
<!-- Node31&#45;&gt;Node22 -->
<g id="edge56_Node000031_Node000022" class="edge">
<title>Node31&#45;&gt;Node22</title>
<g id="a_edge56_Node000031_Node000022"><a xlink:title=" ">
<path fill="none" stroke="#63b8ff" d="M821.66,-220.59C806.45,-212.41 783.76,-200.21 766.08,-190.69"/>
<polygon fill="#63b8ff" stroke="#63b8ff" points="768.13,-187.82 757.67,-186.17 764.82,-193.99 768.13,-187.82"/>
</a>
</g>
</g>
<!-- Node31&#45;&gt;Node23 -->
<g id="edge57_Node000031_Node000023" class="edge">
<title>Node31&#45;&gt;Node23</title>
<g id="a_edge57_Node000031_Node000023"><a xlink:title=" ">
<path fill="none" stroke="#63b8ff" d="M792.64,-220.57C752.59,-212.49 692.63,-200.01 631.51,-185.39"/>
<polygon fill="#63b8ff" stroke="#63b8ff" points="632.51,-182.03 621.96,-183.09 630.87,-188.84 632.51,-182.03"/>
</a>
</g>
</g>
<!-- Node31&#45;&gt;Node26 -->
<g id="edge54_Node000031_Node000026" class="edge">
<title>Node31&#45;&gt;Node26</title>
<g id="a_edge54_Node000031_Node000026"><a xlink:title=" ">
<path fill="none" stroke="#63b8ff" d="M879.44,-220.53C924.18,-210.61 995.29,-194.83 1039.29,-185.07"/>
<polygon fill="#63b8ff" stroke="#63b8ff" points="1039.92,-188.51 1048.92,-182.93 1038.4,-181.68 1039.92,-188.51"/>
</a>
</g>
</g>
<!-- Node32 -->
<g id="Node000032" class="node">
<title>Node32</title>
<g id="a_Node000032"><a xlink:title=" ">
<polygon fill="#e0e0e0" stroke="#999999" points="993.96,-185 932.96,-185 932.96,-165.75 993.96,-165.75 993.96,-185"/>
<text text-anchor="middle" x="963.46" y="-171.5" font-family="Helvetica,sans-Serif" font-size="10.00">type_traits</text>
</a>
</g>
</g>
<!-- Node31&#45;&gt;Node32 -->
<g id="edge59_Node000031_Node000032" class="edge">
<title>Node31&#45;&gt;Node32</title>
<g id="a_edge59_Node000031_Node000032"><a xlink:title=" ">
<path fill="none" stroke="#63b8ff" d="M859.66,-220.59C879.42,-212.18 909.13,-199.52 931.71,-189.9"/>
<polygon fill="#63b8ff" stroke="#63b8ff" points="932.93,-193.18 940.76,-186.05 930.19,-186.74 932.93,-193.18"/>
</a>
</g>
</g>
</g>
</svg>
