<?xml version="1.0" encoding="UTF-8" standalone="no"?>
<!DOCTYPE svg PUBLIC "-//W3C//DTD SVG 1.1//EN"
 "http://www.w3.org/Graphics/SVG/1.1/DTD/svg11.dtd">
<!-- Generated by graphviz version 9.0.0 (20230911.1827)
 -->
<!-- Title: mimic++/ComplexMock.hpp Pages: 1 -->
<svg width="1227pt" height="414pt"
 viewBox="0.00 0.00 1227.50 414.00" xmlns="http://www.w3.org/2000/svg" xmlns:xlink="http://www.w3.org/1999/xlink">
<g id="graph0" class="graph" transform="scale(1 1) rotate(0) translate(4 410)">
<title>mimic++/ComplexMock.hpp</title>
<!-- Node1 -->
<g id="Node000001" class="node">
<title>Node1</title>
<g id="a_Node000001"><a xlink:title=" ">
<polygon fill="#999999" stroke="#666666" points="859.25,-406 722.5,-406 722.5,-386.75 859.25,-386.75 859.25,-406"/>
<text text-anchor="middle" x="790.87" y="-392.5" font-family="Helvetica,sans-Serif" font-size="10.00">mimic++/ComplexMock.hpp</text>
</a>
</g>
</g>
<!-- Node2 -->
<g id="Node000002" class="node">
<title>Node2</title>
<g id="a_Node000002"><a xlink:href="../../d5/d8a/_expectation_8hpp.html" target="_top" xlink:title=" ">
<polygon fill="white" stroke="#666666" points="423.62,-240.25 298.12,-240.25 298.12,-221 423.62,-221 423.62,-240.25"/>
<text text-anchor="middle" x="360.87" y="-226.75" font-family="Helvetica,sans-Serif" font-size="10.00">mimic++/Expectation.hpp</text>
</a>
</g>
</g>
<!-- Node1&#45;&gt;Node2 -->
<g id="edge1_Node000001_Node000002" class="edge">
<title>Node1&#45;&gt;Node2</title>
<g id="a_edge1_Node000001_Node000002"><a xlink:title=" ">
<path fill="none" stroke="#63b8ff" d="M735.8,-386.26C696.63,-378.91 643.16,-367.1 597.87,-350.75 516.81,-321.48 427.62,-271.35 385.5,-246.49"/>
<polygon fill="#63b8ff" stroke="#63b8ff" points="387.52,-243.62 377.14,-241.52 383.94,-249.64 387.52,-243.62"/>
</a>
</g>
</g>
<!-- Node8 -->
<g id="Node000008" class="node">
<title>Node8</title>
<g id="a_Node000008"><a xlink:title=" ">
<polygon fill="#e0e0e0" stroke="#999999" points="1110,-19.25 1025.75,-19.25 1025.75,0 1110,0 1110,-19.25"/>
<text text-anchor="middle" x="1067.87" y="-5.75" font-family="Helvetica,sans-Serif" font-size="10.00">source_location</text>
</a>
</g>
</g>
<!-- Node1&#45;&gt;Node8 -->
<g id="edge57_Node000001_Node000008" class="edge">
<title>Node1&#45;&gt;Node8</title>
<g id="a_edge57_Node000001_Node000008"><a xlink:title=" ">
<path fill="none" stroke="#63b8ff" d="M859.74,-388.48C962.98,-376.2 1145.87,-346.09 1145.87,-286.88 1145.87,-286.88 1145.87,-286.88 1145.87,-119.12 1145.87,-89.51 1143.75,-79.59 1126.87,-55.25 1118.61,-43.33 1106.16,-33.24 1094.82,-25.69"/>
<polygon fill="#63b8ff" stroke="#63b8ff" points="1096.89,-22.86 1086.56,-20.53 1093.18,-28.8 1096.89,-22.86"/>
</a>
</g>
</g>
<!-- Node27 -->
<g id="Node000027" class="node">
<title>Node27</title>
<g id="a_Node000027"><a xlink:href="../../d2/d4f/_expectation_builder_8hpp.html" target="_top" xlink:title=" ">
<polygon fill="white" stroke="#666666" points="762.62,-350.75 607.12,-350.75 607.12,-331.5 762.62,-331.5 762.62,-350.75"/>
<text text-anchor="middle" x="684.87" y="-337.25" font-family="Helvetica,sans-Serif" font-size="10.00">mimic++/ExpectationBuilder.hpp</text>
</a>
</g>
</g>
<!-- Node1&#45;&gt;Node27 -->
<g id="edge38_Node000001_Node000027" class="edge">
<title>Node1&#45;&gt;Node27</title>
<g id="a_edge38_Node000001_Node000027"><a xlink:title=" ">
<path fill="none" stroke="#63b8ff" d="M772.89,-386.34C756.52,-378.12 732.08,-365.84 713.11,-356.31"/>
<polygon fill="#63b8ff" stroke="#63b8ff" points="714.8,-353.24 704.29,-351.88 711.66,-359.5 714.8,-353.24"/>
</a>
</g>
</g>
<!-- Node28 -->
<g id="Node000028" class="node">
<title>Node28</title>
<g id="a_Node000028"><a xlink:href="../../d8/de5/_expectation_policies_8hpp.html" target="_top" xlink:title=" ">
<polygon fill="white" stroke="#666666" points="817.87,-295.5 657.87,-295.5 657.87,-276.25 817.87,-276.25 817.87,-295.5"/>
<text text-anchor="middle" x="737.87" y="-282" font-family="Helvetica,sans-Serif" font-size="10.00">mimic++/ExpectationPolicies.hpp</text>
</a>
</g>
</g>
<!-- Node1&#45;&gt;Node28 -->
<g id="edge55_Node000001_Node000028" class="edge">
<title>Node1&#45;&gt;Node28</title>
<g id="a_edge55_Node000001_Node000028"><a xlink:title=" ">
<path fill="none" stroke="#63b8ff" d="M789.25,-386.31C786.74,-373.57 781.2,-349.86 771.87,-331.5 766.98,-321.87 759.94,-312.21 753.54,-304.35"/>
<polygon fill="#63b8ff" stroke="#63b8ff" points="756.37,-302.27 747.21,-296.93 751.04,-306.81 756.37,-302.27"/>
</a>
</g>
</g>
<!-- Node32 -->
<g id="Node000032" class="node">
<title>Node32</title>
<g id="a_Node000032"><a xlink:title=" ">
<polygon fill="#e0e0e0" stroke="#999999" points="1219.5,-350.75 1174.25,-350.75 1174.25,-331.5 1219.5,-331.5 1219.5,-350.75"/>
<text text-anchor="middle" x="1196.87" y="-337.25" font-family="Helvetica,sans-Serif" font-size="10.00">atomic</text>
</a>
</g>
</g>
<!-- Node1&#45;&gt;Node32 -->
<g id="edge56_Node000001_Node000032" class="edge">
<title>Node1&#45;&gt;Node32</title>
<g id="a_edge56_Node000001_Node000032"><a xlink:title=" ">
<path fill="none" stroke="#63b8ff" d="M859.55,-389.32C933.9,-382.24 1055.81,-369.11 1159.87,-350.75 1160.87,-350.57 1161.87,-350.39 1162.89,-350.2"/>
<polygon fill="#63b8ff" stroke="#63b8ff" points="1163.31,-353.68 1172.38,-348.21 1161.87,-346.83 1163.31,-353.68"/>
</a>
</g>
</g>
<!-- Node3 -->
<g id="Node000003" class="node">
<title>Node3</title>
<g id="a_Node000003"><a xlink:href="../../dc/d44/_call_8hpp.html" target="_top" xlink:title=" ">
<polygon fill="white" stroke="#666666" points="417.12,-129.75 366.62,-129.75 366.62,-110.5 417.12,-110.5 417.12,-129.75"/>
<text text-anchor="middle" x="391.87" y="-116.25" font-family="Helvetica,sans-Serif" font-size="10.00">Call.hpp</text>
</a>
</g>
</g>
<!-- Node2&#45;&gt;Node3 -->
<g id="edge2_Node000002_Node000003" class="edge">
<title>Node2&#45;&gt;Node3</title>
<g id="a_edge2_Node000002_Node000003"><a xlink:title=" ">
<path fill="none" stroke="#63b8ff" d="M363.41,-220.75C368.36,-203.42 379.41,-164.73 386.2,-140.99"/>
<polygon fill="#63b8ff" stroke="#63b8ff" points="389.5,-142.16 388.88,-131.58 382.77,-140.24 389.5,-142.16"/>
</a>
</g>
</g>
<!-- Node4 -->
<g id="Node000004" class="node">
<title>Node4</title>
<g id="a_Node000004"><a xlink:href="../../d8/d32/_type_traits_8hpp.html" target="_top" xlink:title=" ">
<polygon fill="white" stroke="#666666" points="146.37,-74.5 25.37,-74.5 25.37,-55.25 146.37,-55.25 146.37,-74.5"/>
<text text-anchor="middle" x="85.87" y="-61" font-family="Helvetica,sans-Serif" font-size="10.00">mimic++/TypeTraits.hpp</text>
</a>
</g>
</g>
<!-- Node2&#45;&gt;Node4 -->
<g id="edge29_Node000002_Node000004" class="edge">
<title>Node2&#45;&gt;Node4</title>
<g id="a_edge29_Node000002_Node000004"><a xlink:title=" ">
<path fill="none" stroke="#63b8ff" d="M297.67,-229.05C221.81,-226.85 101.23,-218.09 72.87,-185 48.93,-157.07 64.27,-110.88 76.04,-84.99"/>
<polygon fill="#63b8ff" stroke="#63b8ff" points="79.03,-86.84 80.24,-76.32 72.73,-83.8 79.03,-86.84"/>
</a>
</g>
</g>
<!-- Node5 -->
<g id="Node000005" class="node">
<title>Node5</title>
<g id="a_Node000005"><a xlink:title=" ">
<polygon fill="#e0e0e0" stroke="#999999" points="179.37,-19.25 142.37,-19.25 142.37,0 179.37,0 179.37,-19.25"/>
<text text-anchor="middle" x="160.87" y="-5.75" font-family="Helvetica,sans-Serif" font-size="10.00">tuple</text>
</a>
</g>
</g>
<!-- Node2&#45;&gt;Node5 -->
<g id="edge35_Node000002_Node000005" class="edge">
<title>Node2&#45;&gt;Node5</title>
<g id="a_edge35_Node000002_Node000005"><a xlink:title=" ">
<path fill="none" stroke="#63b8ff" d="M297.86,-227.62C220.39,-223.94 94.77,-213.62 58.87,-185 11.37,-147.12 -20.22,-104.12 15.87,-55.25 42.26,-19.52 96.79,-11.5 130.95,-10.19"/>
<polygon fill="#63b8ff" stroke="#63b8ff" points="130.65,-13.69 140.58,-10 130.52,-6.69 130.65,-13.69"/>
</a>
</g>
</g>
<!-- Node14 -->
<g id="Node000014" class="node">
<title>Node14</title>
<g id="a_Node000014"><a xlink:title=" ">
<polygon fill="#e0e0e0" stroke="#999999" points="207.37,-74.5 164.37,-74.5 164.37,-55.25 207.37,-55.25 207.37,-74.5"/>
<text text-anchor="middle" x="185.87" y="-61" font-family="Helvetica,sans-Serif" font-size="10.00">vector</text>
</a>
</g>
</g>
<!-- Node2&#45;&gt;Node14 -->
<g id="edge37_Node000002_Node000014" class="edge">
<title>Node2&#45;&gt;Node14</title>
<g id="a_edge37_Node000002_Node000014"><a xlink:title=" ">
<path fill="none" stroke="#63b8ff" d="M336.84,-220.54C290.63,-202.48 192.45,-161.13 175.87,-129.75 168.57,-115.93 172.17,-98.25 176.97,-85"/>
<polygon fill="#63b8ff" stroke="#63b8ff" points="180.06,-86.67 180.67,-76.1 173.6,-83.98 180.06,-86.67"/>
</a>
</g>
</g>
<!-- Node15 -->
<g id="Node000015" class="node">
<title>Node15</title>
<g id="a_Node000015"><a xlink:href="../../da/dd9/_reporter_8hpp.html" target="_top" xlink:title=" ">
<polygon fill="white" stroke="#666666" points="364.25,-185 293.5,-185 293.5,-165.75 364.25,-165.75 364.25,-185"/>
<text text-anchor="middle" x="328.87" y="-171.5" font-family="Helvetica,sans-Serif" font-size="10.00">Reporter.hpp</text>
</a>
</g>
</g>
<!-- Node2&#45;&gt;Node15 -->
<g id="edge17_Node000002_Node000015" class="edge">
<title>Node2&#45;&gt;Node15</title>
<g id="a_edge17_Node000002_Node000015"><a xlink:title=" ">
<path fill="none" stroke="#63b8ff" d="M355.59,-220.83C351.4,-213.86 345.39,-203.87 340.14,-195.12"/>
<polygon fill="#63b8ff" stroke="#63b8ff" points="343.2,-193.43 335.05,-186.66 337.2,-197.03 343.2,-193.43"/>
</a>
</g>
</g>
<!-- Node20 -->
<g id="Node000020" class="node">
<title>Node20</title>
<g id="a_Node000020"><a xlink:title=" ">
<polygon fill="#e0e0e0" stroke="#999999" points="744.12,-74.5 705.62,-74.5 705.62,-55.25 744.12,-55.25 744.12,-74.5"/>
<text text-anchor="middle" x="724.87" y="-61" font-family="Helvetica,sans-Serif" font-size="10.00">utility</text>
</a>
</g>
</g>
<!-- Node2&#45;&gt;Node20 -->
<g id="edge36_Node000002_Node000020" class="edge">
<title>Node2&#45;&gt;Node20</title>
<g id="a_edge36_Node000002_Node000020"><a xlink:title=" ">
<path fill="none" stroke="#63b8ff" d="M367.22,-220.82C385.54,-195.66 438.76,-124.4 463.87,-110.5 552.41,-61.49 592.01,-95.48 694.29,-74.69"/>
<polygon fill="#63b8ff" stroke="#63b8ff" points="694.88,-78.14 703.91,-72.6 693.39,-71.31 694.88,-78.14"/>
</a>
</g>
</g>
<!-- Node22 -->
<g id="Node000022" class="node">
<title>Node22</title>
<g id="a_Node000022"><a xlink:title=" ">
<polygon fill="#e0e0e0" stroke="#999999" points="235.12,-129.75 184.62,-129.75 184.62,-110.5 235.12,-110.5 235.12,-129.75"/>
<text text-anchor="middle" x="209.87" y="-116.25" font-family="Helvetica,sans-Serif" font-size="10.00">memory</text>
</a>
</g>
</g>
<!-- Node2&#45;&gt;Node22 -->
<g id="edge32_Node000002_Node000022" class="edge">
<title>Node2&#45;&gt;Node22</title>
<g id="a_edge32_Node000002_Node000022"><a xlink:title=" ">
<path fill="none" stroke="#63b8ff" d="M343.44,-220.52C327.68,-212.03 304.07,-198.66 284.87,-185 264.1,-170.22 242.09,-151 227.32,-137.52"/>
<polygon fill="#63b8ff" stroke="#63b8ff" points="229.97,-135.2 220.26,-130.98 225.22,-140.34 229.97,-135.2"/>
</a>
</g>
</g>
<!-- Node23 -->
<g id="Node000023" class="node">
<title>Node23</title>
<g id="a_Node000023"><a xlink:title=" ">
<polygon fill="#e0e0e0" stroke="#999999" points="593,-185 544.75,-185 544.75,-165.75 593,-165.75 593,-185"/>
<text text-anchor="middle" x="568.87" y="-171.5" font-family="Helvetica,sans-Serif" font-size="10.00">cassert</text>
</a>
</g>
</g>
<!-- Node2&#45;&gt;Node23 -->
<g id="edge30_Node000002_Node000023" class="edge">
<title>Node2&#45;&gt;Node23</title>
<g id="a_edge30_Node000002_Node000023"><a xlink:title=" ">
<path fill="none" stroke="#63b8ff" d="M396.16,-220.59C434.39,-210.8 495.05,-195.27 533.37,-185.46"/>
<polygon fill="#63b8ff" stroke="#63b8ff" points="534.21,-188.86 543.03,-182.99 532.47,-182.08 534.21,-188.86"/>
</a>
</g>
</g>
<!-- Node24 -->
<g id="Node000024" class="node">
<title>Node24</title>
<g id="a_Node000024"><a xlink:title=" ">
<polygon fill="#e0e0e0" stroke="#999999" points="528.75,-129.75 473,-129.75 473,-110.5 528.75,-110.5 528.75,-129.75"/>
<text text-anchor="middle" x="500.87" y="-116.25" font-family="Helvetica,sans-Serif" font-size="10.00">concepts</text>
</a>
</g>
</g>
<!-- Node2&#45;&gt;Node24 -->
<g id="edge31_Node000002_Node000024" class="edge">
<title>Node2&#45;&gt;Node24</title>
<g id="a_edge31_Node000002_Node000024"><a xlink:title=" ">
<path fill="none" stroke="#63b8ff" d="M391.65,-220.62C412.33,-213.44 439.28,-201.78 458.87,-185 473.35,-172.6 484.8,-154.01 492.06,-140.08"/>
<polygon fill="#63b8ff" stroke="#63b8ff" points="495.03,-141.99 496.3,-131.47 488.75,-138.9 495.03,-141.99"/>
</a>
</g>
</g>
<!-- Node25 -->
<g id="Node000025" class="node">
<title>Node25</title>
<g id="a_Node000025"><a xlink:title=" ">
<polygon fill="#e0e0e0" stroke="#999999" points="124,-185 81.75,-185 81.75,-165.75 124,-165.75 124,-185"/>
<text text-anchor="middle" x="102.87" y="-171.5" font-family="Helvetica,sans-Serif" font-size="10.00">mutex</text>
</a>
</g>
</g>
<!-- Node2&#45;&gt;Node25 -->
<g id="edge33_Node000002_Node000025" class="edge">
<title>Node2&#45;&gt;Node25</title>
<g id="a_edge33_Node000002_Node000025"><a xlink:title=" ">
<path fill="none" stroke="#63b8ff" d="M307.61,-220.55C263.76,-212.77 199.75,-200.73 135.58,-185.49"/>
<polygon fill="#63b8ff" stroke="#63b8ff" points="136.46,-182.11 125.91,-183.17 134.82,-188.91 136.46,-182.11"/>
</a>
</g>
</g>
<!-- Node26 -->
<g id="Node000026" class="node">
<title>Node26</title>
<g id="a_Node000026"><a xlink:title=" ">
<polygon fill="#e0e0e0" stroke="#999999" points="199.87,-185 141.87,-185 141.87,-165.75 199.87,-165.75 199.87,-185"/>
<text text-anchor="middle" x="170.87" y="-171.5" font-family="Helvetica,sans-Serif" font-size="10.00">stdexcept</text>
</a>
</g>
</g>
<!-- Node2&#45;&gt;Node26 -->
<g id="edge34_Node000002_Node000026" class="edge">
<title>Node2&#45;&gt;Node26</title>
<g id="a_edge34_Node000002_Node000026"><a xlink:title=" ">
<path fill="none" stroke="#63b8ff" d="M328.64,-220.59C296.16,-211.49 245.96,-197.42 210.93,-187.6"/>
<polygon fill="#63b8ff" stroke="#63b8ff" points="212.17,-184.31 201.59,-184.99 210.28,-191.05 212.17,-184.31"/>
</a>
</g>
</g>
<!-- Node3&#45;&gt;Node4 -->
<g id="edge3_Node000003_Node000004" class="edge">
<title>Node3&#45;&gt;Node4</title>
<g id="a_edge3_Node000003_Node000004"><a xlink:title=" ">
<path fill="none" stroke="#63b8ff" d="M366.31,-112.39C363.47,-111.72 360.61,-111.07 357.87,-110.5 290.52,-96.46 213.03,-84.11 158.03,-75.99"/>
<polygon fill="#63b8ff" stroke="#63b8ff" points="158.54,-72.53 148.14,-74.54 157.53,-79.45 158.54,-72.53"/>
</a>
</g>
</g>
<!-- Node3&#45;&gt;Node5 -->
<g id="edge14_Node000003_Node000005" class="edge">
<title>Node3&#45;&gt;Node5</title>
<g id="a_edge14_Node000003_Node000005"><a xlink:title=" ">
<path fill="none" stroke="#63b8ff" d="M366.18,-111.7C332.31,-101.75 274.69,-84.22 254.87,-74.5 227.54,-61.1 199.01,-40.65 180.66,-26.52"/>
<polygon fill="#63b8ff" stroke="#63b8ff" points="183.03,-23.93 173,-20.52 178.72,-29.44 183.03,-23.93"/>
</a>
</g>
</g>
<!-- Node6 -->
<g id="Node000006" class="node">
<title>Node6</title>
<g id="a_Node000006"><a xlink:href="../../d4/d2c/_utility_8hpp.html" target="_top" xlink:title=" ">
<polygon fill="white" stroke="#666666" points="1117.87,-74.5 1017.87,-74.5 1017.87,-55.25 1117.87,-55.25 1117.87,-74.5"/>
<text text-anchor="middle" x="1067.87" y="-61" font-family="Helvetica,sans-Serif" font-size="10.00">mimic++/Utility.hpp</text>
</a>
</g>
</g>
<!-- Node3&#45;&gt;Node6 -->
<g id="edge5_Node000003_Node000006" class="edge">
<title>Node3&#45;&gt;Node6</title>
<g id="a_edge5_Node000003_Node000006"><a xlink:title=" ">
<path fill="none" stroke="#63b8ff" d="M417.5,-115.72C431.23,-113.98 448.45,-111.93 463.87,-110.5 701.92,-88.4 765.56,-99.72 1006.15,-74.7"/>
<polygon fill="#63b8ff" stroke="#63b8ff" points="1006.29,-78.21 1015.87,-73.68 1005.56,-71.25 1006.29,-78.21"/>
</a>
</g>
</g>
<!-- Node7 -->
<g id="Node000007" class="node">
<title>Node7</title>
<g id="a_Node000007"><a xlink:title=" ">
<polygon fill="#e0e0e0" stroke="#999999" points="793.75,-19.25 750,-19.25 750,0 793.75,0 793.75,-19.25"/>
<text text-anchor="middle" x="771.87" y="-5.75" font-family="Helvetica,sans-Serif" font-size="10.00">format</text>
</a>
</g>
</g>
<!-- Node3&#45;&gt;Node7 -->
<g id="edge9_Node000003_Node000007" class="edge">
<title>Node3&#45;&gt;Node7</title>
<g id="a_edge9_Node000003_Node000007"><a xlink:title=" ">
<path fill="none" stroke="#63b8ff" d="M394.34,-110.37C398.85,-96.18 409.82,-68.44 429.87,-55.25 480.2,-22.14 662.73,-13.51 738.52,-11.33"/>
<polygon fill="#63b8ff" stroke="#63b8ff" points="738.32,-14.84 748.22,-11.07 738.13,-7.84 738.32,-14.84"/>
</a>
</g>
</g>
<!-- Node3&#45;&gt;Node8 -->
<g id="edge12_Node000003_Node000008" class="edge">
<title>Node3&#45;&gt;Node8</title>
<g id="a_edge12_Node000003_Node000008"><a xlink:title=" ">
<path fill="none" stroke="#63b8ff" d="M398.53,-110.12C409.88,-95.59 434.5,-67.35 462.87,-55.25 512.87,-33.93 875.68,-17.97 1014.26,-12.6"/>
<polygon fill="#63b8ff" stroke="#63b8ff" points="1014.04,-16.11 1023.89,-12.23 1013.77,-9.11 1014.04,-16.11"/>
</a>
</g>
</g>
<!-- Node9 -->
<g id="Node000009" class="node">
<title>Node9</title>
<g id="a_Node000009"><a xlink:title=" ">
<polygon fill="#e0e0e0" stroke="#999999" points="527.75,-74.5 472,-74.5 472,-55.25 527.75,-55.25 527.75,-74.5"/>
<text text-anchor="middle" x="499.87" y="-61" font-family="Helvetica,sans-Serif" font-size="10.00">algorithm</text>
</a>
</g>
</g>
<!-- Node3&#45;&gt;Node9 -->
<g id="edge8_Node000003_Node000009" class="edge">
<title>Node3&#45;&gt;Node9</title>
<g id="a_edge8_Node000003_Node000009"><a xlink:title=" ">
<path fill="none" stroke="#63b8ff" d="M410.19,-110.09C426.95,-101.83 452,-89.48 471.37,-79.93"/>
<polygon fill="#63b8ff" stroke="#63b8ff" points="472.68,-83.18 480.1,-75.62 469.59,-76.9 472.68,-83.18"/>
</a>
</g>
</g>
<!-- Node10 -->
<g id="Node000010" class="node">
<title>Node10</title>
<g id="a_Node000010"><a xlink:title=" ">
<polygon fill="#e0e0e0" stroke="#999999" points="313.75,-74.5 264,-74.5 264,-55.25 313.75,-55.25 313.75,-74.5"/>
<text text-anchor="middle" x="288.87" y="-61" font-family="Helvetica,sans-Serif" font-size="10.00">optional</text>
</a>
</g>
</g>
<!-- Node3&#45;&gt;Node10 -->
<g id="edge10_Node000003_Node000010" class="edge">
<title>Node3&#45;&gt;Node10</title>
<g id="a_edge10_Node000003_Node000010"><a xlink:title=" ">
<path fill="none" stroke="#63b8ff" d="M374.4,-110.09C358.57,-101.91 334.97,-89.71 316.57,-80.19"/>
<polygon fill="#63b8ff" stroke="#63b8ff" points="318.27,-77.13 307.77,-75.65 315.05,-83.35 318.27,-77.13"/>
</a>
</g>
</g>
<!-- Node11 -->
<g id="Node000011" class="node">
<title>Node11</title>
<g id="a_Node000011"><a xlink:title=" ">
<polygon fill="#e0e0e0" stroke="#999999" points="591.5,-74.5 546.25,-74.5 546.25,-55.25 591.5,-55.25 591.5,-74.5"/>
<text text-anchor="middle" x="568.87" y="-61" font-family="Helvetica,sans-Serif" font-size="10.00">ranges</text>
</a>
</g>
</g>
<!-- Node3&#45;&gt;Node11 -->
<g id="edge11_Node000003_Node000011" class="edge">
<title>Node3&#45;&gt;Node11</title>
<g id="a_edge11_Node000003_Node000011"><a xlink:title=" ">
<path fill="none" stroke="#63b8ff" d="M417.61,-111.38C448.62,-102.05 500.81,-86.35 535.05,-76.05"/>
<polygon fill="#63b8ff" stroke="#63b8ff" points="535.9,-79.45 544.47,-73.22 533.89,-72.75 535.9,-79.45"/>
</a>
</g>
</g>
<!-- Node12 -->
<g id="Node000012" class="node">
<title>Node12</title>
<g id="a_Node000012"><a xlink:title=" ">
<polygon fill="#e0e0e0" stroke="#999999" points="687.87,-74.5 647.87,-74.5 647.87,-55.25 687.87,-55.25 687.87,-74.5"/>
<text text-anchor="middle" x="667.87" y="-61" font-family="Helvetica,sans-Serif" font-size="10.00">string</text>
</a>
</g>
</g>
<!-- Node3&#45;&gt;Node12 -->
<g id="edge13_Node000003_Node000012" class="edge">
<title>Node3&#45;&gt;Node12</title>
<g id="a_edge13_Node000003_Node000012"><a xlink:title=" ">
<path fill="none" stroke="#63b8ff" d="M417.44,-113.35C421.91,-112.37 426.52,-111.39 430.87,-110.5 504.3,-95.47 590.92,-79.64 636.38,-71.48"/>
<polygon fill="#63b8ff" stroke="#63b8ff" points="636.82,-74.95 646.05,-69.75 635.59,-68.06 636.82,-74.95"/>
</a>
</g>
</g>
<!-- Node13 -->
<g id="Node000013" class="node">
<title>Node13</title>
<g id="a_Node000013"><a xlink:title=" ">
<polygon fill="#e0e0e0" stroke="#999999" points="377.5,-74.5 332.25,-74.5 332.25,-55.25 377.5,-55.25 377.5,-74.5"/>
<text text-anchor="middle" x="354.87" y="-61" font-family="Helvetica,sans-Serif" font-size="10.00">variant</text>
</a>
</g>
</g>
<!-- Node3&#45;&gt;Node13 -->
<g id="edge15_Node000003_Node000013" class="edge">
<title>Node3&#45;&gt;Node13</title>
<g id="a_edge15_Node000003_Node000013"><a xlink:title=" ">
<path fill="none" stroke="#63b8ff" d="M385.76,-110.33C380.81,-103.21 373.67,-92.93 367.5,-84.05"/>
<polygon fill="#63b8ff" stroke="#63b8ff" points="370.56,-82.32 361.98,-76.1 364.81,-86.31 370.56,-82.32"/>
</a>
</g>
</g>
<!-- Node3&#45;&gt;Node14 -->
<g id="edge16_Node000003_Node000014" class="edge">
<title>Node3&#45;&gt;Node14</title>
<g id="a_edge16_Node000003_Node000014"><a xlink:title=" ">
<path fill="none" stroke="#63b8ff" d="M366.2,-112.49C328.91,-102.85 259.77,-84.98 218.79,-74.38"/>
<polygon fill="#63b8ff" stroke="#63b8ff" points="219.8,-71.03 209.24,-71.92 218.05,-77.81 219.8,-71.03"/>
</a>
</g>
</g>
<!-- Node4&#45;&gt;Node5 -->
<g id="edge4_Node000004_Node000005" class="edge">
<title>Node4&#45;&gt;Node5</title>
<g id="a_edge4_Node000004_Node000005"><a xlink:title=" ">
<path fill="none" stroke="#63b8ff" d="M98.59,-54.84C109.58,-47.04 125.71,-35.59 138.8,-26.29"/>
<polygon fill="#63b8ff" stroke="#63b8ff" points="140.73,-29.22 146.85,-20.58 136.67,-23.51 140.73,-29.22"/>
</a>
</g>
</g>
<!-- Node6&#45;&gt;Node7 -->
<g id="edge6_Node000006_Node000007" class="edge">
<title>Node6&#45;&gt;Node7</title>
<g id="a_edge6_Node000006_Node000007"><a xlink:title=" ">
<path fill="none" stroke="#63b8ff" d="M1017.66,-54.84C957.06,-43.94 856.88,-25.92 805.12,-16.61"/>
<polygon fill="#63b8ff" stroke="#63b8ff" points="805.9,-13.19 795.44,-14.86 804.66,-20.08 805.9,-13.19"/>
</a>
</g>
</g>
<!-- Node6&#45;&gt;Node8 -->
<g id="edge7_Node000006_Node000008" class="edge">
<title>Node6&#45;&gt;Node8</title>
<g id="a_edge7_Node000006_Node000008"><a xlink:title=" ">
<path fill="none" stroke="#63b8ff" d="M1067.87,-55.08C1067.87,-48.57 1067.87,-39.42 1067.87,-31.12"/>
<polygon fill="#63b8ff" stroke="#63b8ff" points="1071.37,-31.12 1067.87,-21.12 1064.37,-31.12 1071.37,-31.12"/>
</a>
</g>
</g>
<!-- Node15&#45;&gt;Node3 -->
<g id="edge18_Node000015_Node000003" class="edge">
<title>Node15&#45;&gt;Node3</title>
<g id="a_edge18_Node000015_Node000003"><a xlink:title=" ">
<path fill="none" stroke="#63b8ff" d="M339.56,-165.34C348.57,-157.72 361.7,-146.62 372.55,-137.45"/>
<polygon fill="#63b8ff" stroke="#63b8ff" points="374.81,-140.13 380.19,-131 370.29,-134.78 374.81,-140.13"/>
</a>
</g>
</g>
<!-- Node15&#45;&gt;Node14 -->
<g id="edge28_Node000015_Node000014" class="edge">
<title>Node15&#45;&gt;Node14</title>
<g id="a_edge28_Node000015_Node000014"><a xlink:title=" ">
<path fill="none" stroke="#63b8ff" d="M317.17,-165.5C292.97,-147.14 237.16,-104.79 206.67,-81.66"/>
<polygon fill="#63b8ff" stroke="#63b8ff" points="209.02,-79.05 198.94,-75.79 204.79,-84.62 209.02,-79.05"/>
</a>
</g>
</g>
<!-- Node16 -->
<g id="Node000016" class="node">
<title>Node16</title>
<g id="a_Node000016"><a xlink:href="../../da/dab/_printer_8hpp.html" target="_top" xlink:title=" ">
<polygon fill="white" stroke="#666666" points="843.75,-129.75 740,-129.75 740,-110.5 843.75,-110.5 843.75,-129.75"/>
<text text-anchor="middle" x="791.87" y="-116.25" font-family="Helvetica,sans-Serif" font-size="10.00">mimic++/Printer.hpp</text>
</a>
</g>
</g>
<!-- Node15&#45;&gt;Node16 -->
<g id="edge19_Node000015_Node000016" class="edge">
<title>Node15&#45;&gt;Node16</title>
<g id="a_edge19_Node000015_Node000016"><a xlink:title=" ">
<path fill="none" stroke="#63b8ff" d="M364.5,-170.82C432.96,-163.91 587.94,-147.86 728.17,-130.19"/>
<polygon fill="#63b8ff" stroke="#63b8ff" points="728.55,-133.67 738.03,-128.94 727.67,-126.73 728.55,-133.67"/>
</a>
</g>
</g>
<!-- Node21 -->
<g id="Node000021" class="node">
<title>Node21</title>
<g id="a_Node000021"><a xlink:title=" ">
<polygon fill="#e0e0e0" stroke="#999999" points="348.5,-129.75 291.25,-129.75 291.25,-110.5 348.5,-110.5 348.5,-129.75"/>
<text text-anchor="middle" x="319.87" y="-116.25" font-family="Helvetica,sans-Serif" font-size="10.00">exception</text>
</a>
</g>
</g>
<!-- Node15&#45;&gt;Node21 -->
<g id="edge26_Node000015_Node000021" class="edge">
<title>Node15&#45;&gt;Node21</title>
<g id="a_edge26_Node000015_Node000021"><a xlink:title=" ">
<path fill="none" stroke="#63b8ff" d="M327.39,-165.58C326.27,-158.99 324.7,-149.71 323.29,-141.32"/>
<polygon fill="#63b8ff" stroke="#63b8ff" points="326.76,-140.88 321.64,-131.6 319.86,-142.05 326.76,-140.88"/>
</a>
</g>
</g>
<!-- Node15&#45;&gt;Node22 -->
<g id="edge27_Node000015_Node000022" class="edge">
<title>Node15&#45;&gt;Node22</title>
<g id="a_edge27_Node000015_Node000022"><a xlink:title=" ">
<path fill="none" stroke="#63b8ff" d="M308.69,-165.34C289.97,-156.97 261.85,-144.38 240.39,-134.78"/>
<polygon fill="#63b8ff" stroke="#63b8ff" points="242.1,-131.71 231.54,-130.82 239.24,-138.1 242.1,-131.71"/>
</a>
</g>
</g>
<!-- Node16&#45;&gt;Node7 -->
<g id="edge20_Node000016_Node000007" class="edge">
<title>Node16&#45;&gt;Node7</title>
<g id="a_edge20_Node000016_Node000007"><a xlink:title=" ">
<path fill="none" stroke="#63b8ff" d="M790.24,-110.25C787.06,-93 779.97,-54.58 775.59,-30.81"/>
<polygon fill="#63b8ff" stroke="#63b8ff" points="779.06,-30.31 773.81,-21.12 772.18,-31.58 779.06,-30.31"/>
</a>
</g>
</g>
<!-- Node16&#45;&gt;Node12 -->
<g id="edge23_Node000016_Node000012" class="edge">
<title>Node16&#45;&gt;Node12</title>
<g id="a_edge23_Node000016_Node000012"><a xlink:title=" ">
<path fill="none" stroke="#63b8ff" d="M770.84,-110.09C751,-101.57 721.05,-88.71 698.55,-79.05"/>
<polygon fill="#63b8ff" stroke="#63b8ff" points="700.15,-75.93 689.58,-75.2 697.38,-82.36 700.15,-75.93"/>
</a>
</g>
</g>
<!-- Node17 -->
<g id="Node000017" class="node">
<title>Node17</title>
<g id="a_Node000017"><a xlink:title=" ">
<polygon fill="#e0e0e0" stroke="#999999" points="929.87,-74.5 883.87,-74.5 883.87,-55.25 929.87,-55.25 929.87,-74.5"/>
<text text-anchor="middle" x="906.87" y="-61" font-family="Helvetica,sans-Serif" font-size="10.00">iterator</text>
</a>
</g>
</g>
<!-- Node16&#45;&gt;Node17 -->
<g id="edge21_Node000016_Node000017" class="edge">
<title>Node16&#45;&gt;Node17</title>
<g id="a_edge21_Node000016_Node000017"><a xlink:title=" ">
<path fill="none" stroke="#63b8ff" d="M811.38,-110.09C829.39,-101.75 856.39,-89.25 877.1,-79.66"/>
<polygon fill="#63b8ff" stroke="#63b8ff" points="878.29,-82.97 885.89,-75.59 875.35,-76.61 878.29,-82.97"/>
</a>
</g>
</g>
<!-- Node18 -->
<g id="Node000018" class="node">
<title>Node18</title>
<g id="a_Node000018"><a xlink:title=" ">
<polygon fill="#e0e0e0" stroke="#999999" points="999.5,-74.5 948.25,-74.5 948.25,-55.25 999.5,-55.25 999.5,-74.5"/>
<text text-anchor="middle" x="973.87" y="-61" font-family="Helvetica,sans-Serif" font-size="10.00">sstream</text>
</a>
</g>
</g>
<!-- Node16&#45;&gt;Node18 -->
<g id="edge22_Node000016_Node000018" class="edge">
<title>Node16&#45;&gt;Node18</title>
<g id="a_edge22_Node000016_Node000018"><a xlink:title=" ">
<path fill="none" stroke="#63b8ff" d="M822.75,-110.09C854.36,-100.84 903.51,-86.46 937.11,-76.63"/>
<polygon fill="#63b8ff" stroke="#63b8ff" points="937.8,-80.08 946.41,-73.91 935.83,-73.36 937.8,-80.08"/>
</a>
</g>
</g>
<!-- Node19 -->
<g id="Node000019" class="node">
<title>Node19</title>
<g id="a_Node000019"><a xlink:title=" ">
<polygon fill="#e0e0e0" stroke="#999999" points="865.62,-74.5 800.12,-74.5 800.12,-55.25 865.62,-55.25 865.62,-74.5"/>
<text text-anchor="middle" x="832.87" y="-61" font-family="Helvetica,sans-Serif" font-size="10.00">string_view</text>
</a>
</g>
</g>
<!-- Node16&#45;&gt;Node19 -->
<g id="edge24_Node000016_Node000019" class="edge">
<title>Node16&#45;&gt;Node19</title>
<g id="a_edge24_Node000016_Node000019"><a xlink:title=" ">
<path fill="none" stroke="#63b8ff" d="M798.64,-110.33C804.19,-103.13 812.21,-92.71 819.1,-83.76"/>
<polygon fill="#63b8ff" stroke="#63b8ff" points="821.7,-86.12 825.03,-76.06 816.16,-81.85 821.7,-86.12"/>
</a>
</g>
</g>
<!-- Node16&#45;&gt;Node20 -->
<g id="edge25_Node000016_Node000020" class="edge">
<title>Node16&#45;&gt;Node20</title>
<g id="a_edge25_Node000016_Node000020"><a xlink:title=" ">
<path fill="none" stroke="#63b8ff" d="M780.51,-110.09C770.82,-102.4 756.67,-91.15 745.07,-81.93"/>
<polygon fill="#63b8ff" stroke="#63b8ff" points="747.26,-79.2 737.25,-75.72 742.91,-84.68 747.26,-79.2"/>
</a>
</g>
</g>
<!-- Node27&#45;&gt;Node2 -->
<g id="edge39_Node000027_Node000002" class="edge">
<title>Node27&#45;&gt;Node2</title>
<g id="a_edge39_Node000027_Node000002"><a xlink:title=" ">
<path fill="none" stroke="#63b8ff" d="M657.81,-331.06C600.15,-311.75 465.1,-266.53 398.87,-244.35"/>
<polygon fill="#63b8ff" stroke="#63b8ff" points="400.12,-241.08 389.52,-241.22 397.9,-247.71 400.12,-241.08"/>
</a>
</g>
</g>
<!-- Node27&#45;&gt;Node28 -->
<g id="edge40_Node000027_Node000028" class="edge">
<title>Node27&#45;&gt;Node28</title>
<g id="a_edge40_Node000027_Node000028"><a xlink:title=" ">
<path fill="none" stroke="#63b8ff" d="M693.62,-331.33C701.02,-323.9 711.83,-313.04 720.92,-303.91"/>
<polygon fill="#63b8ff" stroke="#63b8ff" points="723.29,-306.49 727.86,-296.93 718.33,-301.55 723.29,-306.49"/>
</a>
</g>
</g>
<!-- Node28&#45;&gt;Node2 -->
<g id="edge41_Node000028_Node000002" class="edge">
<title>Node28&#45;&gt;Node2</title>
<g id="a_edge41_Node000028_Node000002"><a xlink:title=" ">
<path fill="none" stroke="#63b8ff" d="M673.49,-275.78C607.45,-266.45 504.82,-251.96 435.33,-242.14"/>
<polygon fill="#63b8ff" stroke="#63b8ff" points="435.93,-238.69 425.54,-240.76 434.96,-245.62 435.93,-238.69"/>
</a>
</g>
</g>
<!-- Node28&#45;&gt;Node6 -->
<g id="edge52_Node000028_Node000006" class="edge">
<title>Node28&#45;&gt;Node6</title>
<g id="a_edge52_Node000028_Node000006"><a xlink:title=" ">
<path fill="none" stroke="#63b8ff" d="M754.32,-275.84C770.06,-267.07 794.38,-253.22 814.87,-240.25 902.5,-184.78 1002.95,-112.99 1046.2,-81.66"/>
<polygon fill="#63b8ff" stroke="#63b8ff" points="1048.21,-84.53 1054.24,-75.83 1044.1,-78.87 1048.21,-84.53"/>
</a>
</g>
</g>
<!-- Node28&#45;&gt;Node16 -->
<g id="edge51_Node000028_Node000016" class="edge">
<title>Node28&#45;&gt;Node16</title>
<g id="a_edge51_Node000028_Node000016"><a xlink:title=" ">
<path fill="none" stroke="#63b8ff" d="M740.78,-276.07C749.16,-250.64 773.58,-176.6 785.36,-140.87"/>
<polygon fill="#63b8ff" stroke="#63b8ff" points="788.67,-142 788.48,-131.41 782.02,-139.81 788.67,-142"/>
</a>
</g>
</g>
<!-- Node28&#45;&gt;Node23 -->
<g id="edge53_Node000028_Node000023" class="edge">
<title>Node28&#45;&gt;Node23</title>
<g id="a_edge53_Node000028_Node000023"><a xlink:title=" ">
<path fill="none" stroke="#63b8ff" d="M723.75,-275.81C694.73,-257.18 628.09,-214.4 592.42,-191.5"/>
<polygon fill="#63b8ff" stroke="#63b8ff" points="594.41,-188.61 584.1,-186.15 590.63,-194.5 594.41,-188.61"/>
</a>
</g>
</g>
<!-- Node29 -->
<g id="Node000029" class="node">
<title>Node29</title>
<g id="a_Node000029"><a xlink:href="../../dd/d50/_matcher_8hpp.html" target="_top" xlink:title=" ">
<polygon fill="white" stroke="#666666" points="747.12,-185 636.62,-185 636.62,-165.75 747.12,-165.75 747.12,-185"/>
<text text-anchor="middle" x="691.87" y="-171.5" font-family="Helvetica,sans-Serif" font-size="10.00">mimic++/Matcher.hpp</text>
</a>
</g>
</g>
<!-- Node28&#45;&gt;Node29 -->
<g id="edge42_Node000028_Node000029" class="edge">
<title>Node28&#45;&gt;Node29</title>
<g id="a_edge42_Node000028_Node000029"><a xlink:title=" ">
<path fill="none" stroke="#63b8ff" d="M734.11,-276C726.73,-258.59 710.21,-219.62 700.15,-195.91"/>
<polygon fill="#63b8ff" stroke="#63b8ff" points="703.4,-194.61 696.28,-186.77 696.96,-197.34 703.4,-194.61"/>
</a>
</g>
</g>
<!-- Node30 -->
<g id="Node000030" class="node">
<title>Node30</title>
<g id="a_Node000030"><a xlink:title=" ">
<polygon fill="#e0e0e0" stroke="#999999" points="957.87,-129.75 899.87,-129.75 899.87,-110.5 957.87,-110.5 957.87,-129.75"/>
<text text-anchor="middle" x="928.87" y="-116.25" font-family="Helvetica,sans-Serif" font-size="10.00">functional</text>
</a>
</g>
</g>
<!-- Node28&#45;&gt;Node30 -->
<g id="edge54_Node000028_Node000030" class="edge">
<title>Node28&#45;&gt;Node30</title>
<g id="a_edge54_Node000028_Node000030"><a xlink:title=" ">
<path fill="none" stroke="#63b8ff" d="M748.41,-275.84C779.4,-249.27 870.51,-171.16 910.12,-137.2"/>
<polygon fill="#63b8ff" stroke="#63b8ff" points="912.13,-140.09 917.45,-130.92 907.58,-134.77 912.13,-140.09"/>
</a>
</g>
</g>
<!-- Node29&#45;&gt;Node5 -->
<g id="edge49_Node000029_Node000005" class="edge">
<title>Node29&#45;&gt;Node5</title>
<g id="a_edge49_Node000029_Node000005"><a xlink:title=" ">
<path fill="none" stroke="#63b8ff" d="M683.51,-165.39C675.4,-156.55 662.89,-142.55 652.87,-129.75 627.99,-97.95 635.69,-75.71 600.87,-55.25 531.24,-14.33 278.9,-10.53 191.18,-10.47"/>
<polygon fill="#63b8ff" stroke="#63b8ff" points="191.21,-6.97 181.21,-10.49 191.22,-13.97 191.21,-6.97"/>
</a>
</g>
</g>
<!-- Node29&#45;&gt;Node6 -->
<g id="edge44_Node000029_Node000006" class="edge">
<title>Node29&#45;&gt;Node6</title>
<g id="a_edge44_Node000029_Node000006"><a xlink:title=" ">
<path fill="none" stroke="#63b8ff" d="M733.29,-165.29C766.25,-157.5 813.25,-145.1 852.87,-129.75 870.53,-122.91 873.14,-117.13 890.87,-110.5 929.31,-96.12 974.14,-84.87 1009.07,-77.27"/>
<polygon fill="#63b8ff" stroke="#63b8ff" points="1009.52,-80.75 1018.57,-75.24 1008.06,-73.9 1009.52,-80.75"/>
</a>
</g>
</g>
<!-- Node29&#45;&gt;Node9 -->
<g id="edge45_Node000029_Node000009" class="edge">
<title>Node29&#45;&gt;Node9</title>
<g id="a_edge45_Node000029_Node000009"><a xlink:title=" ">
<path fill="none" stroke="#63b8ff" d="M670.05,-165.36C650.28,-156.93 620.56,-143.59 595.87,-129.75 569.38,-114.89 540.57,-95.21 521.49,-81.64"/>
<polygon fill="#63b8ff" stroke="#63b8ff" points="523.61,-78.85 513.45,-75.86 519.53,-84.54 523.61,-78.85"/>
</a>
</g>
</g>
<!-- Node29&#45;&gt;Node11 -->
<g id="edge48_Node000029_Node000011" class="edge">
<title>Node29&#45;&gt;Node11</title>
<g id="a_edge48_Node000029_Node000011"><a xlink:title=" ">
<path fill="none" stroke="#63b8ff" d="M673.25,-165.38C657.71,-157.34 635.51,-144.57 618.87,-129.75 603.79,-116.31 589.91,-97.88 580.62,-84.27"/>
<polygon fill="#63b8ff" stroke="#63b8ff" points="583.74,-82.64 575.31,-76.23 577.9,-86.5 583.74,-82.64"/>
</a>
</g>
</g>
<!-- Node29&#45;&gt;Node16 -->
<g id="edge43_Node000029_Node000016" class="edge">
<title>Node29&#45;&gt;Node16</title>
<g id="a_edge43_Node000029_Node000016"><a xlink:title=" ">
<path fill="none" stroke="#63b8ff" d="M708.84,-165.34C724.14,-157.19 746.91,-145.07 764.73,-135.58"/>
<polygon fill="#63b8ff" stroke="#63b8ff" points="766.31,-138.7 773.49,-130.91 763.02,-132.52 766.31,-138.7"/>
</a>
</g>
</g>
<!-- Node29&#45;&gt;Node24 -->
<g id="edge46_Node000029_Node000024" class="edge">
<title>Node29&#45;&gt;Node24</title>
<g id="a_edge46_Node000029_Node000024"><a xlink:title=" ">
<path fill="none" stroke="#63b8ff" d="M659.47,-165.34C626.43,-156.13 575.16,-141.84 539.91,-132.01"/>
<polygon fill="#63b8ff" stroke="#63b8ff" points="541.1,-128.71 530.53,-129.39 539.22,-135.45 541.1,-128.71"/>
</a>
</g>
</g>
<!-- Node29&#45;&gt;Node30 -->
<g id="edge47_Node000029_Node000030" class="edge">
<title>Node29&#45;&gt;Node30</title>
<g id="a_edge47_Node000029_Node000030"><a xlink:title=" ">
<path fill="none" stroke="#63b8ff" d="M732.34,-165.28C775.91,-155.49 844.82,-140.01 888.39,-130.22"/>
<polygon fill="#63b8ff" stroke="#63b8ff" points="888.96,-133.68 897.95,-128.07 887.43,-126.85 888.96,-133.68"/>
</a>
</g>
</g>
<!-- Node31 -->
<g id="Node000031" class="node">
<title>Node31</title>
<g id="a_Node000031"><a xlink:title=" ">
<polygon fill="#e0e0e0" stroke="#999999" points="722.37,-129.75 661.37,-129.75 661.37,-110.5 722.37,-110.5 722.37,-129.75"/>
<text text-anchor="middle" x="691.87" y="-116.25" font-family="Helvetica,sans-Serif" font-size="10.00">type_traits</text>
</a>
</g>
</g>
<!-- Node29&#45;&gt;Node31 -->
<g id="edge50_Node000029_Node000031" class="edge">
<title>Node29&#45;&gt;Node31</title>
<g id="a_edge50_Node000029_Node000031"><a xlink:title=" ">
<path fill="none" stroke="#63b8ff" d="M691.87,-165.58C691.87,-159.07 691.87,-149.92 691.87,-141.62"/>
<polygon fill="#63b8ff" stroke="#63b8ff" points="695.37,-141.62 691.87,-131.62 688.37,-141.62 695.37,-141.62"/>
</a>
</g>
</g>
</g>
</svg>
